<?xml version="1.0" encoding="UTF-8" standalone="no"?>
<!-- Created with Inkscape (http://www.inkscape.org/) -->

<svg
   xmlns:dc="http://purl.org/dc/elements/1.1/"
   xmlns:cc="http://creativecommons.org/ns#"
   xmlns:rdf="http://www.w3.org/1999/02/22-rdf-syntax-ns#"
   xmlns:svg="http://www.w3.org/2000/svg"
   xmlns="http://www.w3.org/2000/svg"
   xmlns:xlink="http://www.w3.org/1999/xlink"
   xmlns:sodipodi="http://sodipodi.sourceforge.net/DTD/sodipodi-0.dtd"
   xmlns:inkscape="http://www.inkscape.org/namespaces/inkscape"
   width="744.09448819"
   height="1052.3622047"
   id="svg3041"
   version="1.1"
   inkscape:version="0.48.4 r9939"
   sodipodi:docname="icon.svg">
  <sodipodi:namedview
     id="base"
     pagecolor="#ffffff"
     bordercolor="#666666"
     borderopacity="1.0"
     inkscape:pageopacity="0.0"
     inkscape:pageshadow="2"
     inkscape:zoom="0.45789796"
     inkscape:cx="652.45348"
     inkscape:cy="-101.24384"
     inkscape:document-units="px"
     inkscape:current-layer="layer1"
     showgrid="false"
     showguides="true"
     inkscape:guide-bbox="true"
     inkscape:window-width="1615"
     inkscape:window-height="1026"
     inkscape:window-x="65"
     inkscape:window-y="24"
     inkscape:window-maximized="1">
    <sodipodi:guide
       orientation="0,1"
       position="236.42857,875"
       id="guide3115" />
  </sodipodi:namedview>
  <defs
     id="defs3043">
    <linearGradient
       id="linearGradient4572">
      <stop
         style="stop-color:#ff1f1c;stop-opacity:1;"
         offset="0"
         id="stop4574" />
      <stop
         style="stop-color:#ff8019;stop-opacity:1;"
         offset="1"
         id="stop4576" />
    </linearGradient>
    <linearGradient
       id="linearGradient4564">
      <stop
         style="stop-color:#fff452;stop-opacity:1;"
         offset="0"
         id="stop4566" />
      <stop
         style="stop-color:#ffba52;stop-opacity:1;"
         offset="1"
         id="stop4568" />
    </linearGradient>
    <linearGradient
       id="linearGradient3874">
      <stop
         id="stop3876"
         offset="0"
         style="stop-color:#008000;stop-opacity:1;" />
      <stop
         id="stop3878"
         offset="1"
         style="stop-color:#008000;stop-opacity:0;" />
    </linearGradient>
    <linearGradient
       id="linearGradient3864">
      <stop
         style="stop-color:#00a500;stop-opacity:1;"
         offset="0"
         id="stop3866" />
      <stop
         style="stop-color:#00ac00;stop-opacity:0;"
         offset="1"
         id="stop3868" />
    </linearGradient>
    <linearGradient
       id="linearGradient3858">
      <stop
         id="stop3860"
         offset="0"
         style="stop-color:#00ff54;stop-opacity:1;" />
      <stop
         id="stop3862"
         offset="1"
         style="stop-color:#238700;stop-opacity:1;" />
    </linearGradient>
    <linearGradient
       inkscape:collect="always"
       xlink:href="#linearGradient4564"
       id="linearGradient4570"
       x1="408.71426"
       y1="718.72168"
       x2="1328.7144"
       y2="718.72168"
       gradientUnits="userSpaceOnUse" />
    <linearGradient
       inkscape:collect="always"
       xlink:href="#linearGradient4572"
       id="linearGradient4578"
       x1="-91.477371"
       y1="520.63913"
       x2="348.52263"
       y2="520.63913"
       gradientUnits="userSpaceOnUse" />
  </defs>
  <metadata
     id="metadata3046">
    <rdf:RDF>
      <cc:Work
         rdf:about="">
        <dc:format>image/svg+xml</dc:format>
        <dc:type
           rdf:resource="http://purl.org/dc/dcmitype/StillImage" />
        <dc:title></dc:title>
      </cc:Work>
    </rdf:RDF>
  </metadata>
  <g
     inkscape:label="Layer 1"
     inkscape:groupmode="layer"
     id="layer1">
    <path
       style="fill:none;stroke:#616577;stroke-width:11.96032715;stroke-linecap:butt;stroke-linejoin:miter;stroke-miterlimit:4;stroke-opacity:1;stroke-dasharray:none"
       d="m 191.22118,56.271882 31.07103,0 0,29.598641 -41.34452,42.441037 -30.69516,-28.375557 z"
       id="path3923"
       inkscape:connector-curvature="0"
       sodipodi:nodetypes="cccccc"
       inkscape:export-filename="/media/z/TagSpaces/repository/data/icons/icon32.png"
       inkscape:export-xdpi="33.290001"
       inkscape:export-ydpi="33.290001" />
    <path
       transform="matrix(1.5935923,0,0,1.6535609,-351.19328,-499.83944)"
       sodipodi:type="arc"
       style="fill:#616577;fill-opacity:1;stroke:none"
       id="path4875-4"
       sodipodi:cx="346.96429"
       sodipodi:cy="347.71933"
       sodipodi:rx="3.75"
       sodipodi:ry="3.5714285"
       d="m 350.71429,347.71933 a 3.75,3.5714285 0 1 1 -7.5,0 3.75,3.5714285 0 1 1 7.5,0 z"
       inkscape:export-xdpi="33.290001"
       inkscape:export-ydpi="33.290001"
       inkscape:export-filename="/media/z/TagSpaces/repository/data/icons/icon32.png" />
    <path
       transform="matrix(1.6060915,0,0,1.7071068,-75.034503,-521.24704)"
       sodipodi:type="arc"
       style="fill:#616577;fill-opacity:1;stroke:none"
       id="path4875-4-7"
       sodipodi:cx="346.96429"
       sodipodi:cy="347.71933"
       sodipodi:rx="3.75"
       sodipodi:ry="3.5714285"
       d="m 350.71429,347.71933 a 3.75,3.5714285 0 1 1 -7.5,0 3.75,3.5714285 0 1 1 7.5,0 z"
       inkscape:export-xdpi="16.504297"
       inkscape:export-ydpi="16.504297"
       inkscape:export-filename="Z:\Dev\tagspaces\data\img\icon.png" />
    <path
       style="fill:none;stroke:#a466aa;stroke-width:12.89999962;stroke-linecap:butt;stroke-linejoin:miter;stroke-miterlimit:4;stroke-opacity:1;stroke-dasharray:none"
       d="m 467.89671,116.30861 -26,-24.249996"
       id="path3108"
       inkscape:connector-curvature="0"
       sodipodi:nodetypes="cc" />
    <path
       style="fill:#f7901e;fill-opacity:1;stroke:#33b5be;stroke-width:12.89999962;stroke-linecap:butt;stroke-linejoin:miter;stroke-miterlimit:4;stroke-opacity:1;stroke-dasharray:none"
       d="m 486.89671,95.433614 -26,-24.25"
       id="path3108-9"
       inkscape:connector-curvature="0"
       sodipodi:nodetypes="cc" />
    <path
       style="fill:#616577;fill-opacity:1;stroke:#f7901e;stroke-width:12.89999962;stroke-linecap:butt;stroke-linejoin:miter;stroke-miterlimit:4;stroke-opacity:1;stroke-dasharray:none"
       d="m 477.64671,106.18361 -26,-24.249996"
       id="path3108-0"
       inkscape:connector-curvature="0"
       sodipodi:nodetypes="cc" />
    <path
       style="fill:none;stroke:#616577;stroke-width:12.19999981;stroke-linecap:butt;stroke-linejoin:miter;stroke-miterlimit:4;stroke-opacity:1;stroke-dasharray:none"
       d="m 471.63434,52.872374 31.31473,0 0,30.55711 -41.6688,43.815366 -30.93592,-29.294416 z"
       id="path3923-1"
       inkscape:connector-curvature="0"
       sodipodi:nodetypes="cccccc"
       inkscape:export-filename="Z:\Dev\tagspaces\data\img\icon.png"
       inkscape:export-xdpi="16.504297"
       inkscape:export-ydpi="16.504297" />
    <path
       transform="matrix(1.6060915,0,0,1.7071068,24.215498,-520.99704)"
       sodipodi:type="arc"
       style="fill:#616577;fill-opacity:1;stroke:none"
       id="path4875-4-7-4"
       sodipodi:cx="346.96429"
       sodipodi:cy="347.71933"
       sodipodi:rx="3.75"
       sodipodi:ry="3.5714285"
       d="m 350.71429,347.71933 a 3.75,3.5714285 0 1 1 -7.5,0 3.75,3.5714285 0 1 1 7.5,0 z"
       inkscape:export-xdpi="64.650002"
       inkscape:export-ydpi="64.650002"
       inkscape:export-filename="Z:\Dev\tagspaces\data\img\icon64.png" />
    <path
       style="fill:none;stroke:#a466aa;stroke-width:14.19999981;stroke-linecap:butt;stroke-linejoin:miter;stroke-miterlimit:4;stroke-opacity:1;stroke-dasharray:none"
       d="m 567.14671,116.55861 -11.75,-11"
       id="path3108-8"
       inkscape:connector-curvature="0"
       sodipodi:nodetypes="cc"
       inkscape:export-filename="Z:\Dev\tagspaces\data\img\icon64.png"
       inkscape:export-xdpi="64.650002"
       inkscape:export-ydpi="64.650002" />
    <path
       style="fill:#616577;fill-opacity:1;stroke:#f7901e;stroke-width:14.19999981;stroke-linecap:butt;stroke-linejoin:miter;stroke-miterlimit:4;stroke-opacity:1;stroke-dasharray:none"
       d="m 576.89671,106.43361 -19.25,-18.249996"
       id="path3108-0-2"
       inkscape:connector-curvature="0"
       sodipodi:nodetypes="cc"
       inkscape:export-filename="Z:\Dev\tagspaces\data\img\icon64.png"
       inkscape:export-xdpi="64.650002"
       inkscape:export-ydpi="64.650002" />
    <path
       style="fill:#f7901e;fill-opacity:1;stroke:#33b5be;stroke-width:14.19999981;stroke-linecap:butt;stroke-linejoin:miter;stroke-miterlimit:4;stroke-opacity:1;stroke-dasharray:none"
       d="m 586.14671,95.683614 -26,-24"
       id="path3108-9-8"
       inkscape:connector-curvature="0"
       sodipodi:nodetypes="cc"
       inkscape:export-filename="Z:\Dev\tagspaces\data\img\icon64.png"
       inkscape:export-xdpi="64.650002"
       inkscape:export-ydpi="64.650002" />
    <path
       style="fill:none;stroke:#616577;stroke-width:12.19999981;stroke-linecap:butt;stroke-linejoin:miter;stroke-miterlimit:4;stroke-opacity:1;stroke-dasharray:none"
       d="m 570.88434,53.122374 31.31473,0 0,30.55711 -41.6688,43.815366 -30.93592,-29.294416 z"
       id="path3923-1-4"
       inkscape:connector-curvature="0"
       sodipodi:nodetypes="cccccc"
       inkscape:export-filename="Z:\Dev\tagspaces\data\img\icon64.png"
       inkscape:export-xdpi="64.650002"
       inkscape:export-ydpi="64.650002" />
    <path
       transform="matrix(1.5935856,0,0,1.6535653,-235.53304,-499.56631)"
       sodipodi:type="arc"
       style="fill:#616577;fill-opacity:1;stroke:none"
       id="path4875-4-7-5"
       sodipodi:cx="346.96429"
       sodipodi:cy="347.71933"
       sodipodi:rx="3.75"
       sodipodi:ry="3.5714285"
       d="m 350.71429,347.71933 a 3.75,3.5714285 0 1 1 -7.5,0 3.75,3.5714285 0 1 1 7.5,0 z"
       inkscape:export-xdpi="33.290001"
       inkscape:export-ydpi="33.290001"
       inkscape:export-filename="/media/z/TagSpaces/website2/assets/ico/icon32.png" />
    <path
       style="fill:none;stroke:#a466aa;stroke-width:10.29371548;stroke-linecap:butt;stroke-linejoin:miter;stroke-miterlimit:4;stroke-opacity:1;stroke-dasharray:none"
       d="m 305.15503,117.99311 -9.42604,-8.71773"
       id="path3108-5"
       inkscape:connector-curvature="0"
       sodipodi:nodetypes="cc"
       inkscape:export-filename="/media/z/TagSpaces/website2/assets/ico/icon32.png"
       inkscape:export-xdpi="33.290001"
       inkscape:export-ydpi="33.290001" />
    <path
       style="fill:#f7901e;fill-opacity:1;stroke:#33b5be;stroke-width:10.29371548;stroke-linecap:butt;stroke-linejoin:miter;stroke-miterlimit:4;stroke-opacity:1;stroke-dasharray:none"
       d="M 322.02266,97.772832 303.1706,80.821701"
       id="path3108-9-1"
       inkscape:connector-curvature="0"
       sodipodi:nodetypes="cc"
       inkscape:export-filename="/media/z/TagSpaces/website2/assets/ico/icon32.png"
       inkscape:export-xdpi="33.290001"
       inkscape:export-ydpi="33.290001" />
    <path
       style="fill:#616577;fill-opacity:1;stroke:#f7901e;stroke-width:10.29371548;stroke-linecap:butt;stroke-linejoin:miter;stroke-miterlimit:4;stroke-opacity:1;stroke-dasharray:none"
       d="M 313.8369,108.18567 299.44979,95.351241"
       id="path3108-0-7"
       inkscape:connector-curvature="0"
       sodipodi:nodetypes="cc"
       inkscape:export-filename="/media/z/TagSpaces/website2/assets/ico/icon32.png"
       inkscape:export-xdpi="33.290001"
       inkscape:export-ydpi="33.290001" />
    <path
       style="fill:none;stroke:#616577;stroke-width:11.96031666;stroke-linecap:butt;stroke-linejoin:miter;stroke-miterlimit:4;stroke-opacity:1;stroke-dasharray:none"
       d="m 306.87913,56.54648 31.07089,0 0,29.598718 -41.34434,42.441152 -30.69503,-28.37564 z"
       id="path3923-1-1"
       inkscape:connector-curvature="0"
       sodipodi:nodetypes="cccccc"
       inkscape:export-filename="/media/z/TagSpaces/website2/assets/ico/icon32.png"
       inkscape:export-xdpi="33.290001"
       inkscape:export-ydpi="33.290001" />
    <rect
       style="fill:#404040;fill-opacity:1;stroke:none"
       id="rect3052"
       width="572.14288"
       height="172.14285"
       x="125.71429"
       y="177.36218" />
    <path
       style="fill:none;stroke:#fbfcff;stroke-width:11.96032619;stroke-linecap:butt;stroke-linejoin:miter;stroke-miterlimit:4;stroke-opacity:1;stroke-dasharray:none"
       d="m 188.83217,213.34287 31.07103,0 0,29.59864 -41.34452,42.44104 -30.69516,-28.37556 z"
       id="path3923-17"
       inkscape:connector-curvature="0"
       sodipodi:nodetypes="cccccc"
       inkscape:export-filename="Z:\TagSpaces\repository\data\icons\icon16w.png"
       inkscape:export-xdpi="16.504297"
       inkscape:export-ydpi="16.504297" />
    <path
       transform="matrix(1.5935923,0,0,1.6535609,-353.58229,-342.76843)"
       sodipodi:type="arc"
       style="fill:#f2f4ff;fill-opacity:1;stroke:none"
       id="path4875-4-4"
       sodipodi:cx="346.96429"
       sodipodi:cy="347.71933"
       sodipodi:rx="3.75"
       sodipodi:ry="3.5714285"
       d="m 350.71429,347.71933 a 3.75,3.5714285 0 1 1 -7.5,0 3.75,3.5714285 0 1 1 7.5,0 z"
       inkscape:export-xdpi="16.504297"
       inkscape:export-ydpi="16.504297"
       inkscape:export-filename="Z:\TagSpaces\repository\data\icons\icon16w.png" />
    <rect
       style="fill:#ffffff;fill-opacity:1;stroke:none"
       id="rect3052-8"
       width="93"
       height="93"
       x="298.21426"
       y="195.43359"
       inkscape:export-filename="/media/z/TagSpaces/website2/content/TagSpacesLogoBig.png"
       inkscape:export-xdpi="483.87"
       inkscape:export-ydpi="483.87" />
    <path
       transform="matrix(1.5935856,0,0,1.6535653,-191.74909,-350.48483)"
       sodipodi:type="arc"
       style="fill:#616577;fill-opacity:1;stroke:none"
       id="path4875-4-7-5-3"
       sodipodi:cx="346.96429"
       sodipodi:cy="347.71933"
       sodipodi:rx="3.75"
       sodipodi:ry="3.5714285"
       d="m 350.71429,347.71933 a 3.75,3.5714285 0 1 1 -7.5,0 3.75,3.5714285 0 1 1 7.5,0 z"
       inkscape:export-xdpi="483.87"
       inkscape:export-ydpi="483.87"
       inkscape:export-filename="/media/z/TagSpaces/website2/content/TagSpacesLogoBig.png" />
    <path
       style="fill:none;stroke:#a466aa;stroke-width:10.29371548;stroke-linecap:butt;stroke-linejoin:miter;stroke-miterlimit:4;stroke-opacity:1;stroke-dasharray:none"
       d="m 348.93898,267.07459 -9.42604,-8.71773"
       id="path3108-5-3"
       inkscape:connector-curvature="0"
       sodipodi:nodetypes="cc"
       inkscape:export-filename="/media/z/TagSpaces/website2/content/TagSpacesLogoBig.png"
       inkscape:export-xdpi="483.87"
       inkscape:export-ydpi="483.87" />
    <path
       style="fill:#f7901e;fill-opacity:1;stroke:#33b5be;stroke-width:10.29371548;stroke-linecap:butt;stroke-linejoin:miter;stroke-miterlimit:4;stroke-opacity:1;stroke-dasharray:none"
       d="M 365.80661,246.85431 346.95455,229.90318"
       id="path3108-9-1-4"
       inkscape:connector-curvature="0"
       sodipodi:nodetypes="cc"
       inkscape:export-filename="/media/z/TagSpaces/website2/content/TagSpacesLogoBig.png"
       inkscape:export-xdpi="483.87"
       inkscape:export-ydpi="483.87" />
    <path
       style="fill:#616577;fill-opacity:1;stroke:#f7901e;stroke-width:10.29371548;stroke-linecap:butt;stroke-linejoin:miter;stroke-miterlimit:4;stroke-opacity:1;stroke-dasharray:none"
       d="M 357.62085,257.26715 343.23374,244.43272"
       id="path3108-0-7-3"
       inkscape:connector-curvature="0"
       sodipodi:nodetypes="cc"
       inkscape:export-filename="/media/z/TagSpaces/website2/content/TagSpacesLogoBig.png"
       inkscape:export-xdpi="483.87"
       inkscape:export-ydpi="483.87" />
    <path
       style="fill:none;stroke:#616577;stroke-width:11.96031666;stroke-linecap:butt;stroke-linejoin:miter;stroke-miterlimit:4;stroke-opacity:1;stroke-dasharray:none"
       d="m 350.66308,205.62796 31.07089,0 0,29.59872 -41.34434,42.44115 -30.69503,-28.37564 z"
       id="path3923-1-1-3"
       inkscape:connector-curvature="0"
       sodipodi:nodetypes="cccccc"
       inkscape:export-filename="/media/z/TagSpaces/website2/content/TagSpacesLogoBig.png"
       inkscape:export-xdpi="483.87"
       inkscape:export-ydpi="483.87" />
    <text
       xml:space="preserve"
       style="font-size:40px;font-style:normal;font-weight:normal;line-height:125%;letter-spacing:0px;word-spacing:0px;fill:#000000;fill-opacity:1;stroke:none;font-family:Sans"
       x="440.88205"
       y="252.4431"
       id="text3822"
       sodipodi:linespacing="125%"><tspan
         sodipodi:role="line"
         id="tspan3824"
         x="440.88205"
         y="252.4431"
         style="-inkscape-font-specification:Ubuntu Medium;font-family:Ubuntu;font-weight:500;font-style:normal;font-stretch:normal;font-variant:normal;font-size:40px;text-anchor:start;text-align:start;writing-mode:lr;line-height:125%;fill:#ffffff">TagSpaces</tspan></text>
    <g
       style="font-size:40px;font-style:normal;font-weight:normal;line-height:125%;letter-spacing:0px;word-spacing:0px;fill:#f2f2f2;fill-opacity:1;stroke:none;font-family:Sans"
       id="text3822-4"
       transform="translate(8.493349,-1.5442454)">
      <path
         d="m 464.62602,289.96381 0,4.36 -8.52,0 0,23.36 -5.08,0 0,-23.36 -8.52,0 0,-4.36 22.12,0"
         style="font-variant:normal;font-weight:500;font-stretch:normal;text-align:start;line-height:125%;writing-mode:lr-tb;text-anchor:start;fill:#f2f2f2;font-family:Ubuntu;-inkscape-font-specification:Ubuntu Medium"
         id="path3848"
         inkscape:connector-curvature="0" />
      <path
         d="m 473.95106,314.28381 c 1.49332,0 2.62666,-0.08 3.4,-0.24 l 0,-5.36 c -0.26668,-0.08 -0.65334,-0.15999 -1.16,-0.24 -0.50668,-0.08 -1.06668,-0.11999 -1.68,-0.12 -0.53334,1e-5 -1.08001,0.04 -1.64,0.12 -0.53334,0.08 -1.02667,0.22667 -1.48,0.44 -0.42667,0.21334 -0.77334,0.52001 -1.04,0.92 -0.26667,0.37334 -0.4,0.85334 -0.4,1.44 0,1.14667 0.36,1.94667 1.08,2.4 0.71999,0.42667 1.69333,0.64 2.92,0.64 m -0.4,-18.04 c 1.59999,2e-5 2.94666,0.20002 4.04,0.6 1.09332,0.40002 1.95999,0.96002 2.6,1.68 0.66665,0.72002 1.13332,1.60001 1.4,2.64 0.29332,1.01335 0.43998,2.13335 0.44,3.36 l 0,12.68 c -0.74668,0.16 -1.88001,0.34666 -3.4,0.56 -1.49334,0.24 -3.18668,0.36 -5.08,0.36 -1.25334,0 -2.40001,-0.12 -3.44,-0.36 -1.04,-0.24 -1.93334,-0.62667 -2.68,-1.16 -0.72,-0.53333 -1.29333,-1.22667 -1.72,-2.08 -0.4,-0.85333 -0.6,-1.90666 -0.6,-3.16 0,-1.2 0.22667,-2.21333 0.68,-3.04 0.48,-0.82666 1.12,-1.49333 1.92,-2 0.8,-0.53332 1.72,-0.90666 2.76,-1.12 1.06666,-0.23999 2.17333,-0.35999 3.32,-0.36 0.53333,10e-6 1.09332,0.04 1.68,0.12 0.58666,0.0533 1.21332,0.16001 1.88,0.32 l 0,-0.8 c -1e-5,-0.55999 -0.0667,-1.09332 -0.2,-1.6 -0.13334,-0.50665 -0.37334,-0.94665 -0.72,-1.32 -0.32001,-0.39999 -0.76001,-0.70665 -1.32,-0.92 -0.53334,-0.21332 -1.21334,-0.31999 -2.04,-0.32 -1.12001,1e-5 -2.14667,0.08 -3.08,0.24 -0.93334,0.16001 -1.69334,0.34668 -2.28,0.56 l -0.6,-3.92 c 0.61333,-0.21332 1.50666,-0.42665 2.68,-0.64 1.17333,-0.21331 2.42666,-0.31998 3.76,-0.32"
         style="font-variant:normal;font-weight:500;font-stretch:normal;text-align:start;line-height:125%;writing-mode:lr-tb;text-anchor:start;fill:#f2f2f2;font-family:Ubuntu;-inkscape-font-specification:Ubuntu Medium"
         id="path3850"
         inkscape:connector-curvature="0" />
      <path
         d="m 491.71919,306.68381 c -1e-5,2.05334 0.43999,3.56 1.32,4.52 0.90666,0.93334 2.06665,1.4 3.48,1.4 0.77332,0 1.49332,-0.10666 2.16,-0.32 0.69332,-0.21333 1.25332,-0.46666 1.68,-0.76 l 0,-10.84 c -0.34668,-0.08 -0.77335,-0.14665 -1.28,-0.2 -0.50668,-0.08 -1.14668,-0.11999 -1.92,-0.12 -1.76001,10e-6 -3.10668,0.58668 -4.04,1.76 -0.93334,1.14668 -1.40001,2.66668 -1.4,4.56 m 13.48,8.88 c -2e-5,3.33333 -0.85336,5.77333 -2.56,7.32 -1.68002,1.54666 -4.26668,2.31999 -7.76,2.32 -1.28001,-10e-6 -2.53334,-0.10668 -3.76,-0.32 -1.20001,-0.21334 -2.29334,-0.49334 -3.28,-0.84 l 0.88,-4.12 c 0.82666,0.34666 1.75999,0.62666 2.8,0.84 1.06666,0.21333 2.21332,0.31999 3.44,0.32 1.94665,-1e-5 3.33332,-0.40001 4.16,-1.2 0.82665,-0.8 1.23998,-1.98667 1.24,-3.56 l 0,-0.8 c -0.48002,0.24 -1.12002,0.48 -1.92,0.72 -0.77335,0.24 -1.66668,0.36 -2.68,0.36 -1.33335,0 -2.56001,-0.21333 -3.68,-0.64 -1.09334,-0.42667 -2.04001,-1.05333 -2.84,-1.88 -0.77334,-0.82666 -1.38667,-1.85333 -1.84,-3.08 -0.42667,-1.25333 -0.64,-2.69333 -0.64,-4.32 0,-1.51999 0.22666,-2.91999 0.68,-4.2 0.47999,-1.27999 1.15999,-2.37332 2.04,-3.28 0.90666,-0.90665 1.99999,-1.61332 3.28,-2.12 1.27999,-0.50665 2.73332,-0.75998 4.36,-0.76 1.57332,2e-5 3.06665,0.12002 4.48,0.36 1.41331,0.24002 2.61331,0.49335 3.6,0.76 l 0,18.12"
         style="font-variant:normal;font-weight:500;font-stretch:normal;text-align:start;line-height:125%;writing-mode:lr-tb;text-anchor:start;fill:#f2f2f2;font-family:Ubuntu;-inkscape-font-specification:Ubuntu Medium"
         id="path3852"
         inkscape:connector-curvature="0" />
      <path
         d="m 518.31669,313.92381 c 1.81332,0 3.13332,-0.30667 3.96,-0.92 0.82665,-0.61333 1.23998,-1.48 1.24,-2.6 -2e-5,-0.66666 -0.14668,-1.23999 -0.44,-1.72 -0.26668,-0.47999 -0.66668,-0.90666 -1.2,-1.28 -0.50668,-0.39999 -1.13335,-0.75999 -1.88,-1.08 -0.74668,-0.34666 -1.60001,-0.67999 -2.56,-1 -0.96001,-0.34666 -1.89334,-0.71999 -2.8,-1.12 -0.88001,-0.42666 -1.66667,-0.94665 -2.36,-1.56 -0.66667,-0.61332 -1.21334,-1.34665 -1.64,-2.2 -0.4,-0.85332 -0.6,-1.87998 -0.6,-3.08 0,-2.50665 0.86666,-4.46664 2.6,-5.88 1.73332,-1.43997 4.09332,-2.15997 7.08,-2.16 1.73332,3e-5 3.26665,0.20003 4.6,0.6 1.35998,0.37336 2.42665,0.78669 3.2,1.24 l -1.56,4.08 c -0.90669,-0.50665 -1.90668,-0.89331 -3,-1.16 -1.06668,-0.26665 -2.17335,-0.39998 -3.32,-0.4 -1.36001,2e-5 -2.42668,0.28002 -3.2,0.84 -0.74668,0.56002 -1.12001,1.34669 -1.12,2.36 -10e-6,0.61335 0.11999,1.14668 0.36,1.6 0.26666,0.42668 0.62666,0.81335 1.08,1.16 0.47999,0.34668 1.02665,0.66668 1.64,0.96 0.63999,0.29335 1.33332,0.57335 2.08,0.84 1.30665,0.48001 2.46665,0.97335 3.48,1.48 1.03998,0.48001 1.90665,1.06668 2.6,1.76 0.71998,0.66668 1.26664,1.46668 1.64,2.4 0.37331,0.90667 0.55998,2.01334 0.56,3.32 -2e-5,2.50667 -0.89336,4.45333 -2.68,5.84 -1.76002,1.36 -4.34668,2.04 -7.76,2.04 -1.14668,0 -2.20001,-0.08 -3.16,-0.24 -0.93334,-0.13334 -1.77334,-0.30667 -2.52,-0.52 -0.72001,-0.21334 -1.34667,-0.42667 -1.88,-0.64 -0.53334,-0.24 -0.96,-0.45333 -1.28,-0.64 l 1.48,-4.12 c 0.71999,0.4 1.69333,0.8 2.92,1.2 1.22666,0.4 2.70666,0.6 4.44,0.6"
         style="font-variant:normal;font-weight:500;font-stretch:normal;text-align:start;line-height:125%;writing-mode:lr-tb;text-anchor:start;fill:#f2f2f2;font-family:Ubuntu;-inkscape-font-specification:Ubuntu Medium"
         id="path3854"
         inkscape:connector-curvature="0" />
      <path
         d="m 546.79919,307.32381 c -2e-5,-2.15999 -0.49335,-3.83999 -1.48,-5.04 -0.96002,-1.19999 -2.52002,-1.79999 -4.68,-1.8 -0.45335,10e-6 -0.93335,0.0267 -1.44,0.08 -0.48001,0.0267 -0.96001,0.10668 -1.44,0.24 l 0,11.96 c 0.42666,0.29334 0.98666,0.57334 1.68,0.84 0.71999,0.24 1.47999,0.36 2.28,0.36 1.75998,0 3.03998,-0.6 3.84,-1.8 0.82665,-1.2 1.23998,-2.81333 1.24,-4.84 m 4.96,-0.08 c -2e-5,1.60001 -0.21336,3.06667 -0.64,4.4 -0.40002,1.33334 -0.98669,2.48 -1.76,3.44 -0.77335,0.96 -1.74669,1.70666 -2.92,2.24 -1.14668,0.53333 -2.45335,0.8 -3.92,0.8 -0.98668,0 -1.89335,-0.12 -2.72,-0.36 -0.82668,-0.24 -1.50668,-0.50667 -2.04,-0.8 l 0,8.12 -4.84,0 0,-27.64 c 0.98666,-0.26665 2.19999,-0.51998 3.64,-0.76 1.43999,-0.23998 2.95999,-0.35998 4.56,-0.36 1.65332,2e-5 3.13332,0.25335 4.44,0.76 1.30665,0.50668 2.41331,1.24002 3.32,2.2 0.93331,0.93335 1.63998,2.08001 2.12,3.44 0.50664,1.33334 0.75998,2.84001 0.76,4.52"
         style="font-variant:normal;font-weight:500;font-stretch:normal;text-align:start;line-height:125%;writing-mode:lr-tb;text-anchor:start;fill:#f2f2f2;font-family:Ubuntu;-inkscape-font-specification:Ubuntu Medium"
         id="path3856"
         inkscape:connector-curvature="0" />
      <path
         d="m 564.10731,314.28381 c 1.49332,0 2.62666,-0.08 3.4,-0.24 l 0,-5.36 c -0.26668,-0.08 -0.65334,-0.15999 -1.16,-0.24 -0.50668,-0.08 -1.06668,-0.11999 -1.68,-0.12 -0.53334,1e-5 -1.08001,0.04 -1.64,0.12 -0.53334,0.08 -1.02667,0.22667 -1.48,0.44 -0.42667,0.21334 -0.77334,0.52001 -1.04,0.92 -0.26667,0.37334 -0.4,0.85334 -0.4,1.44 0,1.14667 0.36,1.94667 1.08,2.4 0.71999,0.42667 1.69333,0.64 2.92,0.64 m -0.4,-18.04 c 1.59999,2e-5 2.94666,0.20002 4.04,0.6 1.09332,0.40002 1.95999,0.96002 2.6,1.68 0.66665,0.72002 1.13332,1.60001 1.4,2.64 0.29332,1.01335 0.43998,2.13335 0.44,3.36 l 0,12.68 c -0.74668,0.16 -1.88001,0.34666 -3.4,0.56 -1.49334,0.24 -3.18668,0.36 -5.08,0.36 -1.25334,0 -2.40001,-0.12 -3.44,-0.36 -1.04,-0.24 -1.93334,-0.62667 -2.68,-1.16 -0.72,-0.53333 -1.29333,-1.22667 -1.72,-2.08 -0.4,-0.85333 -0.6,-1.90666 -0.6,-3.16 0,-1.2 0.22667,-2.21333 0.68,-3.04 0.48,-0.82666 1.12,-1.49333 1.92,-2 0.8,-0.53332 1.72,-0.90666 2.76,-1.12 1.06666,-0.23999 2.17333,-0.35999 3.32,-0.36 0.53333,10e-6 1.09332,0.04 1.68,0.12 0.58666,0.0533 1.21332,0.16001 1.88,0.32 l 0,-0.8 c -10e-6,-0.55999 -0.0667,-1.09332 -0.2,-1.6 -0.13334,-0.50665 -0.37334,-0.94665 -0.72,-1.32 -0.32001,-0.39999 -0.76001,-0.70665 -1.32,-0.92 -0.53334,-0.21332 -1.21334,-0.31999 -2.04,-0.32 -1.12001,1e-5 -2.14667,0.08 -3.08,0.24 -0.93334,0.16001 -1.69334,0.34668 -2.28,0.56 l -0.6,-3.92 c 0.61333,-0.21332 1.50666,-0.42665 2.68,-0.64 1.17333,-0.21331 2.42666,-0.31998 3.76,-0.32"
         style="font-variant:normal;font-weight:500;font-stretch:normal;text-align:start;line-height:125%;writing-mode:lr-tb;text-anchor:start;fill:#f2f2f2;font-family:Ubuntu;-inkscape-font-specification:Ubuntu Medium"
         id="path3858"
         inkscape:connector-curvature="0" />
      <path
         d="m 576.91544,307.24381 c 0,-1.54666 0.24,-2.98666 0.72,-4.32 0.47999,-1.35999 1.15999,-2.53332 2.04,-3.52 0.90666,-0.98665 1.99999,-1.75998 3.28,-2.32 1.27999,-0.55998 2.71999,-0.83998 4.32,-0.84 1.97332,2e-5 3.83998,0.36002 5.6,1.08 l -1.04,3.96 c -0.56002,-0.23999 -1.20002,-0.43999 -1.92,-0.6 -0.69335,-0.15999 -1.44002,-0.23999 -2.24,-0.24 -1.89335,1e-5 -3.33335,0.60001 -4.32,1.8 -0.98668,1.17334 -1.48001,2.84001 -1.48,5 -10e-6,2.08001 0.46666,3.73334 1.4,4.96 0.93332,1.2 2.50665,1.8 4.72,1.8 0.82665,0 1.63998,-0.08 2.44,-0.24 0.79998,-0.16 1.49331,-0.36 2.08,-0.6 l 0.68,4 c -0.53335,0.26666 -1.34669,0.50666 -2.44,0.72 -1.06668,0.21333 -2.17335,0.32 -3.32,0.32 -1.78668,0 -3.34668,-0.26667 -4.68,-0.8 -1.30668,-0.56 -2.40001,-1.32 -3.28,-2.28 -0.85334,-0.98667 -1.49334,-2.14666 -1.92,-3.48 -0.42667,-1.36 -0.64,-2.82666 -0.64,-4.4"
         style="font-variant:normal;font-weight:500;font-stretch:normal;text-align:start;line-height:125%;writing-mode:lr-tb;text-anchor:start;fill:#f2f2f2;font-family:Ubuntu;-inkscape-font-specification:Ubuntu Medium"
         id="path3860"
         inkscape:connector-curvature="0" />
      <path
         d="m 595.82169,307.32381 c 0,-1.83999 0.26666,-3.45332 0.8,-4.84 0.55999,-1.38665 1.29333,-2.53332 2.2,-3.44 0.90666,-0.93332 1.94666,-1.62665 3.12,-2.08 1.17332,-0.47998 2.37332,-0.71998 3.6,-0.72 2.87998,2e-5 5.11998,0.89335 6.72,2.68 1.62664,1.78668 2.43998,4.45335 2.44,8 -2e-5,0.26667 -0.0134,0.57334 -0.04,0.92 -2e-5,0.32001 -0.0134,0.61334 -0.04,0.88 l -13.8,0 c 0.13332,1.68 0.71999,2.98667 1.76,3.92 1.06665,0.90667 2.59999,1.36 4.6,1.36 1.17332,0 2.23998,-0.10667 3.2,-0.32 0.98665,-0.21333 1.75998,-0.44 2.32,-0.68 l 0.64,3.96 c -0.26669,0.13333 -0.64002,0.28 -1.12,0.44 -0.45335,0.13333 -0.98669,0.25333 -1.6,0.36 -0.58669,0.13333 -1.22668,0.24 -1.92,0.32 -0.69335,0.08 -1.40002,0.12 -2.12,0.12 -1.84001,0 -3.44001,-0.26667 -4.8,-0.8 -1.36001,-0.56 -2.48001,-1.32 -3.36,-2.28 -0.88001,-0.98667 -1.53334,-2.13333 -1.96,-3.44 -0.42667,-1.33333 -0.64,-2.78666 -0.64,-4.36 m 14.04,-2.16 c -2e-5,-0.66666 -0.0933,-1.29332 -0.28,-1.88 -0.18668,-0.61332 -0.46668,-1.13332 -0.84,-1.56 -0.34668,-0.45332 -0.78668,-0.79999 -1.32,-1.04 -0.50668,-0.26665 -1.12001,-0.39999 -1.84,-0.4 -0.74668,10e-6 -1.40001,0.14668 -1.96,0.44 -0.56001,0.26668 -1.04001,0.62668 -1.44,1.08 -0.37334,0.45335 -0.66668,0.97335 -0.88,1.56 -0.21334,0.58668 -0.36001,1.18668 -0.44,1.8 l 9,0"
         style="font-variant:normal;font-weight:500;font-stretch:normal;text-align:start;line-height:125%;writing-mode:lr-tb;text-anchor:start;fill:#f2f2f2;font-family:Ubuntu;-inkscape-font-specification:Ubuntu Medium"
         id="path3862"
         inkscape:connector-curvature="0" />
      <path
         d="m 625.03419,314.20381 c 1.27999,0 2.21332,-0.14667 2.8,-0.44 0.58665,-0.32 0.87999,-0.85333 0.88,-1.6 -10e-6,-0.69333 -0.32001,-1.26666 -0.96,-1.72 -0.61335,-0.45333 -1.64001,-0.94666 -3.08,-1.48 -0.88001,-0.31999 -1.69334,-0.65333 -2.44,-1 -0.72001,-0.37333 -1.34667,-0.79999 -1.88,-1.28 -0.53334,-0.47999 -0.96001,-1.05332 -1.28,-1.72 -0.29334,-0.69332 -0.44,-1.53332 -0.44,-2.52 0,-1.91999 0.70666,-3.42665 2.12,-4.52 1.41333,-1.11998 3.33332,-1.67998 5.76,-1.68 1.22665,2e-5 2.39999,0.12002 3.52,0.36 1.11998,0.21335 1.95998,0.42668 2.52,0.64 l -0.88,3.92 c -0.53335,-0.23999 -1.21335,-0.45332 -2.04,-0.64 -0.82668,-0.21332 -1.78668,-0.31999 -2.88,-0.32 -0.98668,1e-5 -1.78668,0.17335 -2.4,0.52 -0.61334,0.32001 -0.92001,0.82668 -0.92,1.52 -10e-6,0.34668 0.0533,0.65335 0.16,0.92 0.13332,0.26668 0.34666,0.52001 0.64,0.76 0.29332,0.21334 0.67999,0.44001 1.16,0.68 0.47999,0.21334 1.06665,0.44001 1.76,0.68 1.14665,0.42668 2.11999,0.85334 2.92,1.28 0.79998,0.40001 1.45332,0.86667 1.96,1.4 0.53332,0.50667 0.91998,1.09334 1.16,1.76 0.23998,0.66667 0.35998,1.46667 0.36,2.4 -2e-5,2 -0.74669,3.52 -2.24,4.56 -1.46668,1.01333 -3.57335,1.52 -6.32,1.52 -1.84001,0 -3.32001,-0.16 -4.44,-0.48 -1.12001,-0.29334 -1.90667,-0.53334 -2.36,-0.72 l 0.84,-4.04 c 0.71999,0.29334 1.57333,0.57333 2.56,0.84 1.01333,0.26667 2.15999,0.4 3.44,0.4"
         style="font-variant:normal;font-weight:500;font-stretch:normal;text-align:start;line-height:125%;writing-mode:lr-tb;text-anchor:start;fill:#f2f2f2;font-family:Ubuntu;-inkscape-font-specification:Ubuntu Medium"
         id="path3864"
         inkscape:connector-curvature="0" />
    </g>
    <rect
       style="fill:url(#linearGradient4578);fill-opacity:1;stroke:none"
       id="rect3044"
       width="440"
       height="280"
       x="-91.477371"
       y="380.63913"
       inkscape:export-filename="/media/z/TagSpaces/marketing/chromestore/banner440x280.png"
       inkscape:export-xdpi="90"
       inkscape:export-ydpi="90" />
    <rect
       style="fill:url(#linearGradient4570);fill-opacity:1.0;stroke:none"
       id="rect3044-8"
       width="920"
       height="680"
       x="408.71426"
       y="378.72165"
       inkscape:export-filename="/media/z/TagSpaces/marketing/chromestore/banner920x680.png"
       inkscape:export-xdpi="90"
       inkscape:export-ydpi="90" />
    <rect
       style="fill:#000000;fill-opacity:1;stroke:none"
       id="rect3044-8-8"
       width="1400"
       height="560"
       x="-149.88724"
       y="1155.5784"
       inkscape:export-filename="/media/z/TagSpaces/marketing/chromestore/banner1400x560.png"
       inkscape:export-xdpi="90"
       inkscape:export-ydpi="90" />
    <path
       transform="matrix(2.3393454,0,0,2.4273941,-778.06397,-343.19255)"
       sodipodi:type="arc"
       style="fill:#616577;fill-opacity:1;stroke:none"
       id="path4875-4-7-5-0"
       sodipodi:cx="346.96429"
       sodipodi:cy="347.71933"
       sodipodi:rx="3.75"
       sodipodi:ry="3.5714285"
       d="m 350.71429,347.71933 a 3.75,3.5714285 0 1 1 -7.5,0 3.75,3.5714285 0 1 1 7.5,0 z"
       inkscape:export-xdpi="90"
       inkscape:export-ydpi="90"
       inkscape:export-filename="/media/z/TagSpaces/marketing/chromestore/banner440x280.png" />
    <path
       style="fill:none;stroke:#a466aa;stroke-width:15.11092663;stroke-linecap:butt;stroke-linejoin:miter;stroke-miterlimit:4;stroke-opacity:1;stroke-dasharray:none"
       d="M 15.653118,563.36982 1.8159178,550.5724"
       id="path3108-5-5"
       inkscape:connector-curvature="0"
       sodipodi:nodetypes="cc"
       inkscape:export-filename="/media/z/TagSpaces/marketing/chromestore/banner440x280.png"
       inkscape:export-xdpi="90"
       inkscape:export-ydpi="90" />
    <path
       style="fill:#f7901e;fill-opacity:1;stroke:#33b5be;stroke-width:15.11092663;stroke-linecap:butt;stroke-linejoin:miter;stroke-miterlimit:4;stroke-opacity:1;stroke-dasharray:none"
       d="M 40.414393,533.68695 12.740022,508.80309"
       id="path3108-9-1-6"
       inkscape:connector-curvature="0"
       sodipodi:nodetypes="cc"
       inkscape:export-filename="/media/z/TagSpaces/marketing/chromestore/banner440x280.png"
       inkscape:export-xdpi="90"
       inkscape:export-ydpi="90" />
    <path
       style="fill:#616577;fill-opacity:1;stroke:#f7901e;stroke-width:15.11092663;stroke-linecap:butt;stroke-linejoin:miter;stroke-miterlimit:4;stroke-opacity:1;stroke-dasharray:none"
       d="M 28.397894,548.97273 7.2779628,530.13211"
       id="path3108-0-7-2"
       inkscape:connector-curvature="0"
       sodipodi:nodetypes="cc"
       inkscape:export-filename="/media/z/TagSpaces/marketing/chromestore/banner440x280.png"
       inkscape:export-xdpi="90"
       inkscape:export-ydpi="90" />
    <path
       style="fill:none;stroke:#616577;stroke-width:17.55745697;stroke-linecap:butt;stroke-linejoin:miter;stroke-miterlimit:4;stroke-opacity:1;stroke-dasharray:none"
       d="m 18.184055,473.16764 45.611316,0 0,43.45021 -60.6924942,62.30259 -45.0595648,-41.65476 z"
       id="path3923-1-1-6"
       inkscape:connector-curvature="0"
       sodipodi:nodetypes="cccccc"
       inkscape:export-filename="/media/z/TagSpaces/marketing/chromestore/banner440x280.png"
       inkscape:export-xdpi="90"
       inkscape:export-ydpi="90" />
    <text
       xml:space="preserve"
       style="font-size:40px;font-style:normal;font-weight:normal;line-height:125%;letter-spacing:0px;word-spacing:0px;fill:#f3f3f3;fill-opacity:1;stroke:none;font-family:Sans"
       x="118.1613"
       y="493.77545"
       id="text3822-1"
       sodipodi:linespacing="125%"
       inkscape:export-filename="/media/z/TagSpaces/marketing/chromestore/banner440x280.png"
       inkscape:export-xdpi="90"
       inkscape:export-ydpi="90"><tspan
         sodipodi:role="line"
         id="tspan3824-8"
         x="118.1613"
         y="493.77545"
         style="font-size:40px;font-style:normal;font-variant:normal;font-weight:500;font-stretch:normal;text-align:start;line-height:125%;writing-mode:lr-tb;text-anchor:start;fill:#f3f3f3;font-family:Ubuntu;-inkscape-font-specification:Ubuntu Medium;fill-opacity:1">TagSpaces</tspan></text>
    <text
       xml:space="preserve"
       style="font-size:40px;font-style:normal;font-weight:normal;text-align:center;line-height:121.00000380999999550%;letter-spacing:0px;word-spacing:0px;text-anchor:middle;fill:#ffffff;fill-opacity:1;stroke:none;font-family:Sans"
       x="212.15097"
       y="551.37207"
       id="text3822-1-6"
       sodipodi:linespacing="121%"
       inkscape:export-filename="/media/z/TagSpaces/marketing/chromestore/banner440x280.png"
       inkscape:export-xdpi="90"
       inkscape:export-ydpi="90"><tspan
         sodipodi:role="line"
         id="tspan3824-8-7"
         x="212.15097"
         y="551.37207"
         style="font-size:32px;font-style:normal;font-variant:normal;font-weight:500;font-stretch:normal;text-align:center;line-height:121.00000380999999550%;writing-mode:lr-tb;text-anchor:middle;fill:#ffffff;fill-opacity:1;font-family:Ubuntu;-inkscape-font-specification:Ubuntu Medium">ReImagine</tspan><tspan
         sodipodi:role="line"
         x="212.15097"
         y="590.09204"
         style="font-size:32px;font-style:normal;font-variant:normal;font-weight:500;font-stretch:normal;text-align:center;line-height:121.00000380999999550%;writing-mode:lr-tb;text-anchor:middle;fill:#ffffff;fill-opacity:1;font-family:Ubuntu;-inkscape-font-specification:Ubuntu Medium"
         id="tspan3954">Your Files.</tspan></text>
    <path
       transform="matrix(5.5295399,0,0,5.7376617,-1238.3255,-1339.6746)"
       sodipodi:type="arc"
       style="fill:#616577;fill-opacity:1;stroke:none"
       id="path4875-4-7-5-0-4"
       sodipodi:cx="346.96429"
       sodipodi:cy="347.71933"
       sodipodi:rx="3.75"
       sodipodi:ry="3.5714285"
       d="m 350.71429,347.71933 a 3.75,3.5714285 0 1 1 -7.5,0 3.75,3.5714285 0 1 1 7.5,0 z"
       inkscape:export-xdpi="90"
       inkscape:export-ydpi="90"
       inkscape:export-filename="/media/z/TagSpaces/marketing/chromestore/banner920x680.png" />
    <path
       style="fill:none;stroke:#a466aa;stroke-width:35.71788406;stroke-linecap:butt;stroke-linejoin:miter;stroke-miterlimit:4;stroke-opacity:1;stroke-dasharray:none"
       d="M 637.79349,803.17817 605.08632,772.92875"
       id="path3108-5-5-3"
       inkscape:connector-curvature="0"
       sodipodi:nodetypes="cc"
       inkscape:export-filename="/media/z/TagSpaces/marketing/chromestore/banner920x680.png"
       inkscape:export-xdpi="90"
       inkscape:export-ydpi="90" />
    <path
       style="fill:#f7901e;fill-opacity:1;stroke:#33b5be;stroke-width:35.71788406;stroke-linecap:butt;stroke-linejoin:miter;stroke-miterlimit:4;stroke-opacity:1;stroke-dasharray:none"
       d="M 696.32203,733.0164 630.90778,674.19811"
       id="path3108-9-1-6-7"
       inkscape:connector-curvature="0"
       sodipodi:nodetypes="cc"
       inkscape:export-filename="/media/z/TagSpaces/marketing/chromestore/banner920x680.png"
       inkscape:export-xdpi="90"
       inkscape:export-ydpi="90" />
    <path
       style="fill:#616577;fill-opacity:1;stroke:#f7901e;stroke-width:35.71788406;stroke-linecap:butt;stroke-linejoin:miter;stroke-miterlimit:4;stroke-opacity:1;stroke-dasharray:none"
       d="M 667.91848,769.14759 617.99704,724.61378"
       id="path3108-0-7-2-4"
       inkscape:connector-curvature="0"
       sodipodi:nodetypes="cc"
       inkscape:export-filename="/media/z/TagSpaces/marketing/chromestore/banner920x680.png"
       inkscape:export-xdpi="90"
       inkscape:export-ydpi="90" />
    <path
       style="fill:none;stroke:#616577;stroke-width:41.50078201;stroke-linecap:butt;stroke-linejoin:miter;stroke-miterlimit:4;stroke-opacity:1;stroke-dasharray:none"
       d="m 643.7759,589.96615 107.81205,0 0,102.70381 -143.45962,147.26541 -106.50785,-98.45988 z"
       id="path3923-1-1-6-9"
       inkscape:connector-curvature="0"
       sodipodi:nodetypes="cccccc"
       inkscape:export-filename="/media/z/TagSpaces/marketing/chromestore/banner920x680.png"
       inkscape:export-xdpi="90"
       inkscape:export-ydpi="90" />
    <text
       xml:space="preserve"
       style="font-size:40px;font-style:normal;font-weight:normal;line-height:125%;letter-spacing:0px;word-spacing:0px;fill:#e8dfdf;fill-opacity:1;stroke:none;font-family:Sans"
       x="828.90594"
       y="680.01752"
       id="text3822-1-1-4"
       sodipodi:linespacing="125%"
       inkscape:export-filename="/media/z/TagSpaces/marketing/chromestore/banner920x680.png"
       inkscape:export-xdpi="90"
       inkscape:export-ydpi="90"><tspan
         sodipodi:role="line"
         id="tspan3824-8-77-3"
         x="828.90594"
         y="680.01752"
         style="font-size:72px;font-style:normal;font-variant:normal;font-weight:500;font-stretch:normal;text-align:start;line-height:125%;writing-mode:lr-tb;text-anchor:start;fill:#e8dfdf;fill-opacity:1;font-family:Ubuntu;-inkscape-font-specification:Ubuntu Medium">TagSpaces</tspan></text>
    <text
       xml:space="preserve"
       style="font-size:40px;font-style:normal;font-weight:normal;line-height:125%;letter-spacing:0px;word-spacing:0px;fill:#404040;fill-opacity:1;stroke:none;font-family:Sans"
       x="825.92645"
       y="678.21033"
       id="text3822-1-1"
       sodipodi:linespacing="125%"
       inkscape:export-filename="/media/z/TagSpaces/marketing/chromestore/banner920x680.png"
       inkscape:export-xdpi="90"
       inkscape:export-ydpi="90"><tspan
         sodipodi:role="line"
         id="tspan3824-8-77"
         x="825.92645"
         y="678.21033"
         style="font-size:72px;font-style:normal;font-variant:normal;font-weight:500;font-stretch:normal;text-align:start;line-height:125%;writing-mode:lr-tb;text-anchor:start;fill:#616577;fill-opacity:1;font-family:Ubuntu;-inkscape-font-specification:Ubuntu Medium">TagSpaces</tspan></text>
    <path
       style="font-size:40px;font-style:normal;font-weight:normal;line-height:121.00000381%;letter-spacing:0px;word-spacing:0px;fill:#cccccc;fill-opacity:1;stroke:none;font-family:Sans"
       d="m 1188.9375,718.9375 c -3.488,4e-5 -6.0853,0.89479 -7.7813,2.71875 -1.696,1.82403 -2.5625,4.39228 -2.5624,7.65625 l 0,26.875 5.8124,0 0,-20.28125 9.2188,0 0,-4.84375 -9.2188,0 0,-1.65625 c 0,-1.63197 0.3585,-2.97597 1.0626,-4 0.7359,-1.02397 2.0487,-1.53122 3.9687,-1.53125 0.736,3e-5 1.4232,0.0595 2.0313,0.1875 0.6399,0.12803 1.1769,0.27753 1.625,0.4375 L 1194,719.78125 c -0.48,-0.19196 -1.136,-0.37046 -2,-0.5625 -0.832,-0.19196 -1.8465,-0.28121 -3.0625,-0.28125 z m 28,0 -5.8125,0.9375 0,28.90625 c 0,1.24801 0.1502,2.38301 0.4062,3.375 0.288,0.96 0.7655,1.7655 1.4376,2.4375 0.6719,0.64 1.5674,1.148 2.6874,1.5 1.152,0.352 2.5845,0.5305 4.3126,0.5625 l 0.8124,-4.8125 c -0.768,-0.096 -1.3942,-0.215 -1.9062,-0.375 -0.48,-0.192 -0.8683,-0.42999 -1.1562,-0.75 -0.2881,-0.35199 -0.4971,-0.76999 -0.625,-1.25 -0.096,-0.47999 -0.1563,-1.07724 -0.1563,-1.78125 l 0,-28.75 z m -335.875,1.1875 c -0.99201,4e-5 -1.82725,0.32879 -2.53125,0.96875 -0.704,0.64003 -1.0625,1.50503 -1.0625,2.625 0,1.08803 0.3585,1.95378 1.0625,2.59375 0.704,0.64003 1.53924,0.96878 2.53125,0.96875 0.95999,3e-5 1.79599,-0.32872 2.5,-0.96875 0.70399,-0.63997 1.06249,-1.50572 1.0625,-2.59375 -10e-6,-1.11997 -0.35851,-1.98497 -1.0625,-2.625 -0.70401,-0.63996 -1.54001,-0.96871 -2.5,-0.96875 z m 108.4687,0 c -0.992,4e-5 -1.8272,0.32879 -2.5312,0.96875 -0.704,0.64003 -1.0625,1.50503 -1.0625,2.625 0,1.08803 0.3585,1.95378 1.0625,2.59375 0.704,0.64003 1.5392,0.96878 2.5312,0.96875 0.96,3e-5 1.796,-0.32872 2.5,-0.96875 0.704,-0.63997 1.0625,-1.50572 1.0626,-2.59375 -10e-5,-1.11997 -0.3586,-1.98497 -1.0626,-2.625 -0.704,-0.63996 -1.54,-0.96871 -2.5,-0.96875 z m 211.4063,0 c -0.992,4e-5 -1.8585,0.32879 -2.5625,0.96875 -0.704,0.64003 -1.0625,1.50503 -1.0625,2.625 0,1.08803 0.3585,1.95378 1.0625,2.59375 0.704,0.64003 1.5705,0.96878 2.5625,0.96875 0.96,3e-5 1.7647,-0.32872 2.4687,-0.96875 0.704,-0.63997 1.0625,-1.50572 1.0626,-2.59375 -1e-4,-1.11997 -0.3586,-1.98497 -1.0626,-2.625 -0.704,-0.63996 -1.5087,-0.96871 -2.4687,-0.96875 z m -339.90625,10.3125 c -1.47201,3e-5 -2.90451,0.29903 -4.3125,0.875 -1.40801,0.54402 -2.66201,1.38002 -3.75,2.5 -1.088,1.08802 -1.98425,2.46102 -2.65625,4.125 -0.64,1.66402 -0.9375,3.60451 -0.9375,5.8125 0,1.88801 0.238,3.61876 0.75,5.21875 0.512,1.56801 1.319,2.941 2.375,4.125 1.05599,1.152 2.39924,2.078 4.03125,2.75 1.63199,0.64 3.54199,0.96875 5.75,0.96875 0.86398,0 1.69923,-0.0602 2.53125,-0.15625 0.83198,-0.096 1.60848,-0.215 2.3125,-0.375 0.73598,-0.128 1.39348,-0.2775 1.9375,-0.4375 0.57598,-0.192 1.02373,-0.37125 1.34375,-0.53125 l -0.78125,-4.75 c -0.67202,0.28801 -1.59727,0.55651 -2.78125,0.8125 -1.15202,0.256 -2.43577,0.375 -3.84375,0.375 -2.40001,0 -4.25126,-0.537 -5.53125,-1.625 -1.24801,-1.11999 -1.93376,-2.67149 -2.09375,-4.6875 l 16.5625,0 c 0.032,-0.31999 0.0312,-0.67849 0.0312,-1.0625 0.032,-0.41599 0.0625,-0.80499 0.0625,-1.125 -2e-5,-4.25598 -0.98552,-7.44973 -2.9375,-9.59375 -1.92002,-2.14398 -4.60652,-3.21872 -8.0625,-3.21875 z m 80.21875,0 c -1.60001,3e-5 -3.12326,0.15028 -4.53125,0.40625 -1.40801,0.25603 -2.48276,0.49402 -3.21875,0.75 l 0.71875,4.71875 c 0.70399,-0.25598 1.62999,-0.49548 2.75,-0.6875 1.11999,-0.19198 2.34349,-0.28123 3.6875,-0.28125 0.99199,2e-5 1.79749,0.11902 2.4375,0.375 0.67199,0.25602 1.20973,0.64502 1.59375,1.125 0.41598,0.44802 0.71498,0.95452 0.875,1.5625 0.15998,0.60802 0.24998,1.26552 0.25,1.9375 l 0,0.96875 c -0.80002,-0.19198 -1.57727,-0.34223 -2.28125,-0.40625 -0.70401,-0.096 -1.36001,-0.12498 -2,-0.125 -1.37601,2e-5 -2.72001,0.11827 -4,0.40625 -1.24801,0.25601 -2.35251,0.70376 -3.3125,1.34375 -0.96,0.60801 -1.70525,1.41426 -2.28125,2.40625 -0.544,0.99201 -0.84375,2.21626 -0.84375,3.65625 0,1.50401 0.27,2.75725 0.75,3.78125 0.512,1.024 1.1985,1.86 2.0625,2.5 0.89599,0.64 1.93949,1.11825 3.1875,1.40625 1.24799,0.288 2.65224,0.4375 4.15625,0.4375 2.27199,0 4.30173,-0.1495 6.09375,-0.4375 1.82398,-0.256 3.16648,-0.4955 4.0625,-0.6875 l 0,-15.21875 c -2e-5,-1.47198 -0.17927,-2.81523 -0.53125,-4.03125 -0.32002,-1.24798 -0.85627,-2.29223 -1.65625,-3.15625 -0.76802,-0.86398 -1.81302,-1.55123 -3.125,-2.03125 -1.31202,-0.47997 -2.92376,-0.71872 -4.84375,-0.71875 z m 96.9688,0 c -1.4721,3e-5 -2.9046,0.29903 -4.3126,0.875 -1.408,0.54402 -2.662,1.38002 -3.75,2.5 -1.088,1.08802 -1.9842,2.46102 -2.6562,4.125 -0.64,1.66402 -0.9375,3.60451 -0.9375,5.8125 0,1.88801 0.238,3.61876 0.75,5.21875 0.512,1.56801 1.319,2.941 2.375,4.125 1.056,1.152 2.3992,2.078 4.0313,2.75 1.6319,0.64 3.5419,0.96875 5.75,0.96875 0.8639,0 1.6992,-0.0602 2.5312,-0.15625 0.832,-0.096 1.6085,-0.215 2.3125,-0.375 0.736,-0.128 1.3935,-0.2775 1.9375,-0.4375 0.576,-0.192 1.0237,-0.37125 1.3438,-0.53125 l -0.7813,-4.75 c -0.672,0.28801 -1.5973,0.55651 -2.7813,0.8125 -1.152,0.256 -2.4357,0.375 -3.8437,0.375 -2.4,0 -4.2513,-0.537 -5.5313,-1.625 -1.248,-1.11999 -1.9337,-2.67149 -2.0937,-4.6875 l 16.5625,0 c 0.032,-0.31999 0.031,-0.67849 0.031,-1.0625 0.032,-0.41599 0.062,-0.80499 0.063,-1.125 -10e-5,-4.25598 -0.9856,-7.44973 -2.9376,-9.59375 -1.92,-2.14398 -4.6065,-3.21872 -8.0624,-3.21875 z m 63.8437,0 c -1.76,3e-5 -3.3718,0.32878 -4.8437,0.96875 -1.4721,0.60802 -2.7558,1.50427 -3.8438,2.65625 -1.056,1.15202 -1.892,2.52427 -2.5,4.15625 -0.576,1.60002 -0.8438,3.39101 -0.8438,5.375 0,1.98401 0.2678,3.80551 0.8438,5.4375 0.608,1.63201 1.444,3.00425 2.5,4.15625 1.056,1.152 2.3405,2.0475 3.8125,2.6875 1.472,0.64 3.083,0.96875 4.875,0.96875 1.792,0 3.4342,-0.32875 4.9063,-0.96875 1.5039,-0.64 2.7877,-1.5355 3.8437,-2.6875 1.056,-1.152 1.8615,-2.52424 2.4375,-4.15625 0.576,-1.63199 0.875,-3.45349 0.875,-5.4375 0,-1.98399 -0.2983,-3.77498 -0.9062,-5.375 -0.5761,-1.63198 -1.4128,-3.00423 -2.4688,-4.15625 -1.056,-1.15198 -2.3398,-2.04823 -3.8438,-2.65625 -1.472,-0.63997 -3.0837,-0.96872 -4.8437,-0.96875 z m 133.6875,0 c -1.472,3e-5 -2.9045,0.29903 -4.3125,0.875 -1.408,0.54402 -2.662,1.38002 -3.75,2.5 -1.088,1.08802 -1.9843,2.46102 -2.6563,4.125 -0.64,1.66402 -0.9375,3.60451 -0.9374,5.8125 -1e-4,1.88801 0.2379,3.61876 0.75,5.21875 0.5119,1.56801 1.3189,2.941 2.375,4.125 1.0559,1.152 2.3992,2.078 4.0312,2.75 1.632,0.64 3.542,0.96875 5.75,0.96875 0.864,0 1.6992,-0.0602 2.5312,-0.15625 0.832,-0.096 1.6085,-0.215 2.3126,-0.375 0.7359,-0.128 1.3934,-0.2775 1.9374,-0.4375 0.576,-0.192 1.0238,-0.37125 1.3438,-0.53125 l -0.7812,-4.75 c -0.6721,0.28801 -1.5973,0.55651 -2.7813,0.8125 -1.152,0.256 -2.4358,0.375 -3.8437,0.375 -2.4001,0 -4.2513,-0.537 -5.5313,-1.625 -1.248,-1.11999 -1.9338,-2.67149 -2.0937,-4.6875 l 16.5624,0 c 0.032,-0.31999 0.031,-0.67849 0.031,-1.0625 0.032,-0.41599 0.062,-0.80499 0.062,-1.125 0,-4.25598 -0.9855,-7.44973 -2.9375,-9.59375 -1.92,-2.14398 -4.6065,-3.21872 -8.0625,-3.21875 z m 25.1562,0 c -2.912,3e-5 -5.2102,0.68728 -6.9062,2.03125 -1.696,1.31202 -2.5313,3.10227 -2.5312,5.40625 -1e-4,1.18402 0.1792,2.19927 0.5312,3.03125 0.384,0.80001 0.8912,1.48651 1.5312,2.0625 0.64,0.57601 1.386,1.08326 2.25,1.53125 0.896,0.41601 1.8815,0.83476 2.9376,1.21875 1.7279,0.64001 2.9514,1.23726 3.6874,1.78125 0.768,0.54401 1.1563,1.23051 1.1563,2.0625 0,0.89601 -0.3585,1.52226 -1.0625,1.90625 -0.704,0.352 -1.8078,0.53125 -3.3438,0.53125 -1.536,0 -2.9402,-0.14875 -4.1562,-0.46875 -1.184,-0.32 -2.1985,-0.67924 -3.0625,-1.03125 l -1,4.875 c 0.544,0.224 1.4997,0.49175 2.8437,0.84375 1.344,0.384 3.1045,0.59375 5.3126,0.59375 3.2959,0 5.8337,-0.62775 7.5937,-1.84375 1.792,-1.248 2.6875,-3.06875 2.6875,-5.46875 0,-1.11999 -0.1495,-2.07499 -0.4375,-2.875 -0.288,-0.79999 -0.7663,-1.51699 -1.4063,-2.125 -0.608,-0.63999 -1.3837,-1.17624 -2.3437,-1.65625 -0.96,-0.51199 -2.124,-1.01924 -3.5,-1.53125 -0.832,-0.28798 -1.549,-0.58773 -2.125,-0.84375 -0.576,-0.28798 -1.023,-0.55648 -1.375,-0.8125 -0.352,-0.28798 -0.6213,-0.58623 -0.7813,-0.90625 -0.128,-0.31998 -0.1875,-0.67773 -0.1874,-1.09375 -1e-4,-0.83198 0.3577,-1.45973 1.0937,-1.84375 0.736,-0.41598 1.7222,-0.62498 2.9063,-0.625 1.3119,2e-5 2.4454,0.15027 3.4374,0.40625 0.992,0.22402 1.8288,0.46202 2.4688,0.75 l 1.0312,-4.6875 c -0.672,-0.25598 -1.656,-0.52522 -3,-0.78125 -1.344,-0.28797 -2.778,-0.43747 -4.25,-0.4375 z M 841.25,730.5312 c -2.04801,3e-5 -3.92901,0.20978 -5.625,0.59375 -1.66401,0.35202 -3.0675,0.74027 -4.1875,1.15625 l 0,23.90625 5.8125,0 0,-20.125 c 0.28799,-0.096 0.79599,-0.21573 1.5,-0.34375 0.73599,-0.12798 1.42249,-0.18748 2.0625,-0.1875 1.11999,2e-5 2.10548,0.0893 2.9375,0.28125 0.86398,0.16002 1.51998,0.34002 2,0.5 l 1,-4.90625 c -0.28802,-0.096 -0.67627,-0.18523 -1.15625,-0.28125 -0.48002,-0.12797 -0.95677,-0.21722 -1.46875,-0.28125 -0.51202,-0.096 -1.01927,-0.15547 -1.53125,-0.1875 -0.51201,-0.064 -0.95976,-0.12497 -1.34375,-0.125 z m 60.21875,0 c -2.01601,3e-5 -3.92601,0.14953 -5.75,0.4375 -1.79201,0.28802 -3.255,0.58627 -4.375,0.90625 l 0,24.3125 5.8125,0 0,-20.28125 c 0.38399,-0.064 0.95074,-0.12273 1.71875,-0.21875 0.76799,-0.096 1.48499,-0.15623 2.125,-0.15625 1.79198,2e-5 3.01623,0.59727 3.65625,1.78125 0.67198,1.15202 0.99998,3.03227 1,5.65625 l 0,13.21875 5.8125,0 0,-13.875 c -2e-5,-1.02399 -0.0603,-1.97898 -0.15625,-2.875 -0.096,-0.89598 -0.27527,-1.76248 -0.53125,-2.5625 0.41598,-0.28798 1.04298,-0.55573 1.875,-0.84375 0.83197,-0.31998 1.72822,-0.49998 2.65625,-0.5 1.82397,2e-5 3.04747,0.59727 3.6875,1.78125 0.63997,1.15202 0.96872,3.03227 0.96875,5.65625 l 0,13.21875 5.8125,0 0,-14.125 c -4e-5,-1.69598 -0.14954,-3.24823 -0.4375,-4.65625 -0.25604,-1.43998 -0.76404,-2.66423 -1.5,-3.65625 -0.70404,-1.02398 -1.68878,-1.79973 -2.96875,-2.34375 -1.24803,-0.57597 -2.86053,-0.87497 -4.8125,-0.875 -0.76803,3e-5 -1.51328,0.09 -2.28125,0.25 -0.73603,0.16003 -1.45302,0.36903 -2.125,0.625 -0.67202,0.22402 -1.26852,0.49327 -1.8125,0.78125 -0.54402,0.28802 -0.99177,0.55652 -1.34375,0.8125 -0.73602,-0.73598 -1.66127,-1.33323 -2.78125,-1.78125 -1.08802,-0.44797 -2.52202,-0.68747 -4.25,-0.6875 z m 68.0625,0 c -1.95201,3e-5 -3.71401,0.32953 -5.25,0.9375 -1.53601,0.60802 -2.84951,1.44327 -3.9375,2.53125 -1.056,1.08802 -1.8615,2.40152 -2.4375,3.9375 -0.544,1.53602 -0.8125,3.20727 -0.8125,5.03125 0,1.95201 0.238,3.68351 0.75,5.1875 0.544,1.47201 1.29075,2.69551 2.21875,3.6875 0.95999,0.992 2.09424,1.76925 3.40625,2.28125 1.34399,0.512 2.80624,0.75 4.40625,0.75 1.21599,0 2.29073,-0.1495 3.21875,-0.4375 0.95998,-0.288 1.73648,-0.55575 2.3125,-0.84375 l 0,0.9375 c -2e-5,1.888 -0.50802,3.32125 -1.5,4.28125 -0.99202,0.96 -2.63276,1.4375 -4.96875,1.4375 -1.47201,0 -2.84501,-0.119 -4.125,-0.375 -1.24801,-0.256 -2.38301,-0.584 -3.375,-1 l -1.0625,4.9375 c 1.184,0.41599 2.49749,0.74399 3.9375,1 1.47199,0.25599 2.99524,0.37499 4.53125,0.375 4.19198,-10e-6 7.29648,-0.92526 9.3125,-2.78125 2.04798,-1.856 3.06248,-4.78125 3.0625,-8.78125 l 0,-21.75 c -1.18402,-0.31998 -2.61652,-0.61823 -4.3125,-0.90625 -1.69602,-0.28797 -3.48702,-0.43747 -5.375,-0.4375 z m 40.62495,0 c -2.176,3e-5 -4.1767,0.14953 -5.9687,0.4375 -1.792,0.28802 -3.255,0.58627 -4.375,0.90625 l 0,24.3125 5.8125,0 0,-20.28125 c 0.384,-0.064 0.9812,-0.12273 1.7812,-0.21875 0.8,-0.096 1.5765,-0.15623 2.3126,-0.15625 0.9919,2e-5 1.8279,0.14952 2.5,0.4375 0.7039,0.25602 1.2409,0.67327 1.625,1.28125 0.4159,0.57602 0.6837,1.35252 0.8437,2.3125 0.192,0.92802 0.3125,2.06226 0.3125,3.40625 l 0,13.21875 5.8125,0 0,-14.125 c 0,-1.69598 -0.1793,-3.24823 -0.5313,-4.65625 -0.32,-1.43998 -0.918,-2.66423 -1.75,-3.65625 -0.8,-1.02398 -1.874,-1.79973 -3.25,-2.34375 -1.376,-0.57597 -3.077,-0.87497 -5.125,-0.875 z m 147.7813,0 c -2.048,3e-5 -3.929,0.20978 -5.625,0.59375 -1.664,0.35202 -3.0675,0.74027 -4.1875,1.15625 l 0,23.90625 5.8125,0 0,-20.125 c 0.288,-0.096 0.796,-0.21573 1.5,-0.34375 0.736,-0.12798 1.4225,-0.18748 2.0625,-0.1875 1.12,2e-5 2.1055,0.0893 2.9375,0.28125 0.864,0.16002 1.52,0.34002 2,0.5 l 1,-4.90625 c -0.288,-0.096 -0.6763,-0.18523 -1.1563,-0.28125 -0.48,-0.12797 -0.9567,-0.21722 -1.4687,-0.28125 -0.512,-0.096 -1.0193,-0.15547 -1.5313,-0.1875 -0.512,-0.064 -0.9597,-0.12497 -1.3437,-0.125 z m -279.75,0.53125 0,25.125 5.8125,0 0,-25.125 -5.8125,0 z m 108.46875,0 0,25.125 5.81255,0 0,-25.125 -5.81255,0 z m 76.56255,0 c 1.3119,4.67202 2.8047,9.09002 4.4687,13.25 1.696,4.16001 3.4572,8.01125 5.2813,11.53125 -0.6401,1.504 -1.4173,2.6085 -2.2813,3.3125 -0.832,0.736 -1.996,1.09375 -3.5,1.09375 -1.12,0 -2.2543,-0.20825 -3.4063,-0.65625 l -1.0312,4.6563 c 0.448,0.22399 1.0735,0.43299 1.9375,0.625 0.896,0.19199 1.8227,0.28124 2.7187,0.28125 1.344,-10e-6 2.5073,-0.14876 3.5313,-0.46875 1.024,-0.28801 1.9492,-0.79676 2.7813,-1.46875 0.8319,-0.67201 1.5779,-1.50726 2.25,-2.53125 0.6719,-1.024 1.3287,-2.2475 1.9687,-3.6875 3.424,-7.74399 6.4392,-16.40148 9.0313,-25.9375 l -6,0 c -0.7361,3.00802 -1.5416,6.14302 -2.4376,9.375 -0.896,3.20001 -1.851,6.21451 -2.875,9.0625 -0.608,-1.37599 -1.2357,-2.86874 -1.8437,-4.46875 -0.608,-1.59999 -1.1748,-3.18124 -1.7187,-4.78125 -0.5441,-1.63198 -1.0513,-3.24448 -1.5313,-4.8125 -0.448,-1.56798 -0.8363,-3.03098 -1.1563,-4.375 l -6.1874,0 z m 56.5937,0 0,14.0625 c 0,1.69601 0.1792,3.27876 0.5313,4.71875 0.3519,1.408 0.9187,2.63225 1.7187,3.65625 0.832,1.024 1.9372,1.799 3.2813,2.375 1.3759,0.576 3.0777,0.875 5.0937,0.875 2.144,0 4.083,-0.14875 5.875,-0.46875 1.792,-0.288 3.255,-0.587 4.375,-0.875 l 0,-24.34375 -5.8125,0 0,20.3125 c -0.384,0.096 -0.95,0.186 -1.75,0.25 -0.768,0.064 -1.5148,0.0937 -2.2188,0.0937 -1.952,0 -3.325,-0.56674 -4.125,-1.71875 -0.768,-1.15199 -1.1562,-3.09324 -1.1562,-5.78125 l 0,-13.15625 -5.8125,0 z m 78.1875,0 0,25.125 5.8125,0 0,-25.125 -5.8125,0 z m -336.90625,4.25 c 0.86399,2e-5 1.57948,0.14877 2.1875,0.46875 0.63998,0.28802 1.17773,0.70602 1.59375,1.25 0.44798,0.51202 0.77598,1.13902 1,1.875 0.22398,0.70402 0.34373,1.45002 0.34375,2.25 l -10.8125,0 c 0.096,-0.73598 0.27524,-1.45223 0.53125,-2.15625 0.25599,-0.70398 0.61449,-1.33098 1.0625,-1.875 0.47999,-0.54398 1.04674,-0.99248 1.71875,-1.3125 0.67199,-0.35198 1.47899,-0.49998 2.375,-0.5 z m 177.18745,0 c 0.864,2e-5 1.5795,0.14877 2.1876,0.46875 0.6399,0.28802 1.1777,0.70602 1.5937,1.25 0.448,0.51202 0.776,1.13902 1,1.875 0.224,0.70402 0.3437,1.45002 0.3437,2.25 l -10.8124,0 c 0.096,-0.73598 0.2752,-1.45223 0.5312,-2.15625 0.256,-0.70398 0.6145,-1.33098 1.0625,-1.875 0.48,-0.54398 1.0467,-0.99248 1.7187,-1.3125 0.672,-0.35198 1.479,-0.49998 2.375,-0.5 z m 197.5313,0 c 0.864,2e-5 1.5795,0.14877 2.1875,0.46875 0.64,0.28802 1.1777,0.70602 1.5938,1.25 0.4479,0.51202 0.7759,1.13902 1,1.875 0.2239,0.70402 0.3437,1.45002 0.3437,2.25 l -10.8125,0 c 0.096,-0.73598 0.2752,-1.45223 0.5312,-2.15625 0.256,-0.70398 0.6145,-1.33098 1.0626,-1.875 0.4799,-0.54398 1.0467,-0.99248 1.7187,-1.3125 0.672,-0.35198 1.479,-0.49998 2.375,-0.5 z m -266.25,0.0937 c 0.92798,2e-5 1.70448,0.029 2.3125,0.125 0.60798,0.064 1.11523,0.15402 1.53125,0.25 l 0,13 c -0.51202,0.35201 -1.16802,0.65026 -2,0.90625 -0.80002,0.25601 -1.66576,0.40626 -2.59375,0.40625 -1.69601,10e-6 -3.09951,-0.56749 -4.1875,-1.6875 -1.05601,-1.15199 -1.59376,-2.97349 -1.59375,-5.4375 -10e-6,-2.27198 0.56749,-4.09273 1.6875,-5.46875 1.11999,-1.40798 2.73174,-2.09373 4.84375,-2.09375 z m 132.5,0.0937 c 1.92,2e-5 3.4127,0.71552 4.4687,2.1875 1.088,1.44002 1.625,3.41027 1.625,5.90625 0,2.52801 -0.537,4.52801 -1.625,6 -1.056,1.47201 -2.5487,2.21875 -4.4687,2.21875 -1.92,0 -3.412,-0.74674 -4.5,-2.21875 -1.056,-1.47199 -1.5938,-3.47199 -1.5937,-6 -1e-4,-2.49598 0.5377,-4.46623 1.5937,-5.90625 1.088,-1.47198 2.58,-2.18748 4.5,-2.1875 z m -159.6875,9.4375 c 0.73599,10e-6 1.42324,0.0603 2.03125,0.15625 0.60798,0.096 1.08623,0.18526 1.40625,0.28125 l 0,6.4375 c -0.92802,0.192 -2.30176,0.28125 -4.09375,0.28125 -1.47201,0 -2.63601,-0.238 -3.5,-0.75 -0.86401,-0.54399 -1.31251,-1.53024 -1.3125,-2.90625 -10e-6,-0.70399 0.17999,-1.27074 0.5,-1.71875 0.31999,-0.47999 0.73799,-0.83774 1.25,-1.09375 0.54399,-0.25599 1.10999,-0.43524 1.75,-0.53125 0.67199,-0.096 1.32874,-0.15624 1.96875,-0.15625 z"
       id="text3822-1-6-5-9"
       inkscape:connector-curvature="0"
       inkscape:export-filename="/media/z/TagSpaces/marketing/chromestore/banner920x680.png"
       inkscape:export-xdpi="90"
       inkscape:export-ydpi="90" />
    <text
       xml:space="preserve"
       style="font-size:40px;font-style:normal;font-weight:normal;line-height:121.00000381%;letter-spacing:0px;word-spacing:0px;fill:#404040;fill-opacity:1;stroke:none;font-family:Sans"
       x="1048.577"
       y="754.28125"
       id="text3822-1-6-5"
       sodipodi:linespacing="121%"
       inkscape:export-filename="/media/z/TagSpaces/marketing/chromestore/banner920x680.png"
       inkscape:export-xdpi="90"
       inkscape:export-ydpi="90"><tspan
         sodipodi:role="line"
         x="1048.577"
         y="754.28125"
         style="font-size:48px;font-style:normal;font-variant:normal;font-weight:500;font-stretch:normal;text-align:center;line-height:121.00000381%;writing-mode:lr-tb;text-anchor:middle;fill:#404040;fill-opacity:1;font-family:Ubuntu;-inkscape-font-specification:Ubuntu Medium"
         id="tspan3954-4">reimagine your files</tspan></text>
    <flowRoot
       xml:space="preserve"
       id="flowRoot4534"
       style="fill:black;stroke:none;stroke-opacity:1;stroke-width:1px;stroke-linejoin:miter;stroke-linecap:butt;fill-opacity:1;font-family:Sans;font-style:normal;font-weight:normal;font-size:40px;line-height:125%;letter-spacing:0px;word-spacing:0px"><flowRegion
         id="flowRegion4536"><rect
           id="rect4538"
           width="56.781208"
           height="76.436241"
           x="305.74496"
           y="670.18097" /></flowRegion><flowPara
         id="flowPara4540"></flowPara></flowRoot>    <path
       transform="matrix(5.5295399,0,0,5.7376617,-1737.4612,-631.25664)"
       sodipodi:type="arc"
       style="fill:#616577;fill-opacity:1;stroke:none"
       id="path4875-4-7-5-0-4-0"
       sodipodi:cx="346.96429"
       sodipodi:cy="347.71933"
       sodipodi:rx="3.75"
       sodipodi:ry="3.5714285"
       d="m 350.71429,347.71933 a 3.75,3.5714285 0 1 1 -7.5,0 3.75,3.5714285 0 1 1 7.5,0 z"
       inkscape:export-xdpi="90"
       inkscape:export-ydpi="90"
       inkscape:export-filename="/media/z/TagSpaces/marketing/chromestore/banner1400x560.png" />
    <path
       style="fill:none;stroke:#a466aa;stroke-width:35.71788406;stroke-linecap:butt;stroke-linejoin:miter;stroke-miterlimit:4;stroke-opacity:1;stroke-dasharray:none"
       d="m 138.65779,1511.5961 -32.70717,-30.2494"
       id="path3108-5-5-3-6"
       inkscape:connector-curvature="0"
       sodipodi:nodetypes="cc"
       inkscape:export-filename="/media/z/TagSpaces/marketing/chromestore/banner1400x560.png"
       inkscape:export-xdpi="90"
       inkscape:export-ydpi="90" />
    <path
       style="fill:#f7901e;fill-opacity:1;stroke:#33b5be;stroke-width:35.71788406;stroke-linecap:butt;stroke-linejoin:miter;stroke-miterlimit:4;stroke-opacity:1;stroke-dasharray:none"
       d="m 197.18633,1441.4344 -65.41425,-58.8183"
       id="path3108-9-1-6-7-1"
       inkscape:connector-curvature="0"
       sodipodi:nodetypes="cc"
       inkscape:export-filename="/media/z/TagSpaces/marketing/chromestore/banner1400x560.png"
       inkscape:export-xdpi="90"
       inkscape:export-ydpi="90" />
    <path
       style="fill:#616577;fill-opacity:1;stroke:#f7901e;stroke-width:35.71788406;stroke-linecap:butt;stroke-linejoin:miter;stroke-miterlimit:4;stroke-opacity:1;stroke-dasharray:none"
       d="m 168.78278,1477.5656 -49.92144,-44.5339"
       id="path3108-0-7-2-4-8"
       inkscape:connector-curvature="0"
       sodipodi:nodetypes="cc"
       inkscape:export-filename="/media/z/TagSpaces/marketing/chromestore/banner1400x560.png"
       inkscape:export-xdpi="90"
       inkscape:export-ydpi="90" />
    <path
       style="fill:none;stroke:#616577;stroke-width:41.50078201;stroke-linecap:butt;stroke-linejoin:miter;stroke-miterlimit:4;stroke-opacity:1;stroke-dasharray:none"
       d="m 144.6402,1298.3841 107.81205,0 0,102.7038 -143.45962,147.2654 -106.5078516,-98.4598 z"
       id="path3923-1-1-6-9-5"
       inkscape:connector-curvature="0"
       sodipodi:nodetypes="cccccc"
       inkscape:export-filename="/media/z/TagSpaces/marketing/chromestore/banner1400x560.png"
       inkscape:export-xdpi="90"
       inkscape:export-ydpi="90" />
    <text
       xml:space="preserve"
       style="font-size:40px;font-style:normal;font-weight:normal;line-height:125%;letter-spacing:0px;word-spacing:0px;fill:#000000;fill-opacity:1;stroke:none;font-family:Sans"
       x="358.2056"
       y="1327.7209"
       id="text3822-1-2"
       sodipodi:linespacing="125%"
       inkscape:export-filename="/media/z/TagSpaces/marketing/chromestore/banner1400x560.png"
       inkscape:export-xdpi="90"
       inkscape:export-ydpi="90"><tspan
         sodipodi:role="line"
         id="tspan3824-8-9"
         x="358.2056"
         y="1327.7209"
         style="font-size:72px;font-style:normal;font-variant:normal;font-weight:500;font-stretch:normal;text-align:start;line-height:125%;writing-mode:lr-tb;text-anchor:start;fill:#ffffff;font-family:Ubuntu;-inkscape-font-specification:Ubuntu Medium">TagSpaces</tspan></text>
    <text
       xml:space="preserve"
       style="font-size:40px;font-style:normal;font-weight:normal;text-align:start;line-height:121.00000381%;letter-spacing:0px;word-spacing:0px;text-anchor:start;fill:#000000;fill-opacity:1;stroke:none;font-family:Sans"
       x="723.75238"
       y="1661.5914"
       id="text3822-1-6-1"
       sodipodi:linespacing="121%"
       inkscape:export-filename="/media/z/TagSpaces/marketing/chromestore/banner1400x560.png"
       inkscape:export-xdpi="90"
       inkscape:export-ydpi="90"><tspan
         sodipodi:role="line"
         x="723.75238"
         y="1661.5914"
         style="font-size:48px;font-style:normal;font-variant:normal;font-weight:500;font-stretch:normal;text-align:start;line-height:121.00000381%;writing-mode:lr-tb;text-anchor:start;fill:#ffffff;font-family:Ubuntu;-inkscape-font-specification:Ubuntu Medium"
         id="tspan3954-3">ReImagine Your Files.</tspan></text>
  </g>
</svg>
