<?xml version="1.0" encoding="UTF-8" standalone="no"?>
<!-- Created with Inkscape (http://www.inkscape.org/) -->

<svg
   xmlns:dc="http://purl.org/dc/elements/1.1/"
   xmlns:cc="http://creativecommons.org/ns#"
   xmlns:rdf="http://www.w3.org/1999/02/22-rdf-syntax-ns#"
   xmlns:svg="http://www.w3.org/2000/svg"
   xmlns="http://www.w3.org/2000/svg"
   xmlns:sodipodi="http://sodipodi.sourceforge.net/DTD/sodipodi-0.dtd"
   xmlns:inkscape="http://www.inkscape.org/namespaces/inkscape"
   width="744.09448819"
   height="1052.3622047"
   id="svg3041"
   version="1.1"
   inkscape:version="0.48.4 r9939"
   sodipodi:docname="icon.svg">
  <defs
     id="defs3043" />
  <sodipodi:namedview
     id="base"
     pagecolor="#ffffff"
     bordercolor="#666666"
     borderopacity="1.0"
     inkscape:pageopacity="0.0"
     inkscape:pageshadow="2"
     inkscape:zoom="1.295131"
     inkscape:cx="410.62249"
     inkscape:cy="792.99383"
     inkscape:document-units="px"
     inkscape:current-layer="text3822-4"
     showgrid="false"
     showguides="true"
     inkscape:guide-bbox="true"
     inkscape:window-width="1615"
     inkscape:window-height="1026"
     inkscape:window-x="65"
     inkscape:window-y="24"
     inkscape:window-maximized="1">
    <sodipodi:guide
       orientation="0,1"
       position="236.42857,875"
       id="guide3115" />
  </sodipodi:namedview>
  <metadata
     id="metadata3046">
    <rdf:RDF>
      <cc:Work
         rdf:about="">
        <dc:format>image/svg+xml</dc:format>
        <dc:type
           rdf:resource="http://purl.org/dc/dcmitype/StillImage" />
        <dc:title></dc:title>
      </cc:Work>
    </rdf:RDF>
  </metadata>
  <g
     inkscape:label="Layer 1"
     inkscape:groupmode="layer"
     id="layer1">
    <path
       style="fill:none;stroke:#616577;stroke-width:11.96032715;stroke-linecap:butt;stroke-linejoin:miter;stroke-miterlimit:4;stroke-opacity:1;stroke-dasharray:none"
       d="m 191.22118,56.271882 31.07103,0 0,29.598641 -41.34452,42.441037 -30.69516,-28.375557 z"
       id="path3923"
       inkscape:connector-curvature="0"
       sodipodi:nodetypes="cccccc"
       inkscape:export-filename="/media/z/TagSpaces/repository/data/icons/icon32.png"
       inkscape:export-xdpi="33.290001"
       inkscape:export-ydpi="33.290001" />
    <path
       transform="matrix(1.5935923,0,0,1.6535609,-351.19328,-499.83944)"
       sodipodi:type="arc"
       style="fill:#616577;fill-opacity:1;stroke:none"
       id="path4875-4"
       sodipodi:cx="346.96429"
       sodipodi:cy="347.71933"
       sodipodi:rx="3.75"
       sodipodi:ry="3.5714285"
       d="m 350.71429,347.71933 a 3.75,3.5714285 0 1 1 -7.5,0 3.75,3.5714285 0 1 1 7.5,0 z"
       inkscape:export-xdpi="33.290001"
       inkscape:export-ydpi="33.290001"
       inkscape:export-filename="/media/z/TagSpaces/repository/data/icons/icon32.png" />
    <path
       transform="matrix(1.6060915,0,0,1.7071068,-75.034503,-521.24704)"
       sodipodi:type="arc"
       style="fill:#616577;fill-opacity:1;stroke:none"
       id="path4875-4-7"
       sodipodi:cx="346.96429"
       sodipodi:cy="347.71933"
       sodipodi:rx="3.75"
       sodipodi:ry="3.5714285"
       d="m 350.71429,347.71933 a 3.75,3.5714285 0 1 1 -7.5,0 3.75,3.5714285 0 1 1 7.5,0 z"
       inkscape:export-xdpi="16.504297"
       inkscape:export-ydpi="16.504297"
       inkscape:export-filename="Z:\Dev\tagspaces\data\img\icon.png" />
    <path
       style="fill:none;stroke:#a466aa;stroke-width:12.89999962;stroke-linecap:butt;stroke-linejoin:miter;stroke-miterlimit:4;stroke-opacity:1;stroke-dasharray:none"
       d="m 467.89671,116.30861 -26,-24.249996"
       id="path3108"
       inkscape:connector-curvature="0"
       sodipodi:nodetypes="cc" />
    <path
       style="fill:#f7901e;fill-opacity:1;stroke:#33b5be;stroke-width:12.89999962;stroke-linecap:butt;stroke-linejoin:miter;stroke-miterlimit:4;stroke-opacity:1;stroke-dasharray:none"
       d="m 486.89671,95.433614 -26,-24.25"
       id="path3108-9"
       inkscape:connector-curvature="0"
       sodipodi:nodetypes="cc" />
    <path
       style="fill:#616577;fill-opacity:1;stroke:#f7901e;stroke-width:12.89999962;stroke-linecap:butt;stroke-linejoin:miter;stroke-miterlimit:4;stroke-opacity:1;stroke-dasharray:none"
       d="m 477.64671,106.18361 -26,-24.249996"
       id="path3108-0"
       inkscape:connector-curvature="0"
       sodipodi:nodetypes="cc" />
    <path
       style="fill:none;stroke:#616577;stroke-width:12.19999981;stroke-linecap:butt;stroke-linejoin:miter;stroke-miterlimit:4;stroke-opacity:1;stroke-dasharray:none"
       d="m 471.63434,52.872374 31.31473,0 0,30.55711 -41.6688,43.815366 -30.93592,-29.294416 z"
       id="path3923-1"
       inkscape:connector-curvature="0"
       sodipodi:nodetypes="cccccc"
       inkscape:export-filename="Z:\Dev\tagspaces\data\img\icon.png"
       inkscape:export-xdpi="16.504297"
       inkscape:export-ydpi="16.504297" />
    <path
       transform="matrix(1.6060915,0,0,1.7071068,24.215498,-520.99704)"
       sodipodi:type="arc"
       style="fill:#616577;fill-opacity:1;stroke:none"
       id="path4875-4-7-4"
       sodipodi:cx="346.96429"
       sodipodi:cy="347.71933"
       sodipodi:rx="3.75"
       sodipodi:ry="3.5714285"
       d="m 350.71429,347.71933 a 3.75,3.5714285 0 1 1 -7.5,0 3.75,3.5714285 0 1 1 7.5,0 z"
       inkscape:export-xdpi="64.650002"
       inkscape:export-ydpi="64.650002"
       inkscape:export-filename="Z:\Dev\tagspaces\data\img\icon64.png" />
    <path
       style="fill:none;stroke:#a466aa;stroke-width:14.19999981;stroke-linecap:butt;stroke-linejoin:miter;stroke-miterlimit:4;stroke-opacity:1;stroke-dasharray:none"
       d="m 567.14671,116.55861 -11.75,-11"
       id="path3108-8"
       inkscape:connector-curvature="0"
       sodipodi:nodetypes="cc"
       inkscape:export-filename="Z:\Dev\tagspaces\data\img\icon64.png"
       inkscape:export-xdpi="64.650002"
       inkscape:export-ydpi="64.650002" />
    <path
       style="fill:#616577;fill-opacity:1;stroke:#f7901e;stroke-width:14.19999981;stroke-linecap:butt;stroke-linejoin:miter;stroke-miterlimit:4;stroke-opacity:1;stroke-dasharray:none"
       d="m 576.89671,106.43361 -19.25,-18.249996"
       id="path3108-0-2"
       inkscape:connector-curvature="0"
       sodipodi:nodetypes="cc"
       inkscape:export-filename="Z:\Dev\tagspaces\data\img\icon64.png"
       inkscape:export-xdpi="64.650002"
       inkscape:export-ydpi="64.650002" />
    <path
       style="fill:#f7901e;fill-opacity:1;stroke:#33b5be;stroke-width:14.19999981;stroke-linecap:butt;stroke-linejoin:miter;stroke-miterlimit:4;stroke-opacity:1;stroke-dasharray:none"
       d="m 586.14671,95.683614 -26,-24"
       id="path3108-9-8"
       inkscape:connector-curvature="0"
       sodipodi:nodetypes="cc"
       inkscape:export-filename="Z:\Dev\tagspaces\data\img\icon64.png"
       inkscape:export-xdpi="64.650002"
       inkscape:export-ydpi="64.650002" />
    <path
       style="fill:none;stroke:#616577;stroke-width:12.19999981;stroke-linecap:butt;stroke-linejoin:miter;stroke-miterlimit:4;stroke-opacity:1;stroke-dasharray:none"
       d="m 570.88434,53.122374 31.31473,0 0,30.55711 -41.6688,43.815366 -30.93592,-29.294416 z"
       id="path3923-1-4"
       inkscape:connector-curvature="0"
       sodipodi:nodetypes="cccccc"
       inkscape:export-filename="Z:\Dev\tagspaces\data\img\icon64.png"
       inkscape:export-xdpi="64.650002"
       inkscape:export-ydpi="64.650002" />
    <path
       transform="matrix(1.5935856,0,0,1.6535653,-235.53304,-499.56631)"
       sodipodi:type="arc"
       style="fill:#616577;fill-opacity:1;stroke:none"
       id="path4875-4-7-5"
       sodipodi:cx="346.96429"
       sodipodi:cy="347.71933"
       sodipodi:rx="3.75"
       sodipodi:ry="3.5714285"
       d="m 350.71429,347.71933 a 3.75,3.5714285 0 1 1 -7.5,0 3.75,3.5714285 0 1 1 7.5,0 z"
       inkscape:export-xdpi="33.290001"
       inkscape:export-ydpi="33.290001"
       inkscape:export-filename="/media/z/TagSpaces/website2/assets/ico/icon32.png" />
    <path
       style="fill:none;stroke:#a466aa;stroke-width:10.29371548;stroke-linecap:butt;stroke-linejoin:miter;stroke-miterlimit:4;stroke-opacity:1;stroke-dasharray:none"
       d="m 305.15503,117.99311 -9.42604,-8.71773"
       id="path3108-5"
       inkscape:connector-curvature="0"
       sodipodi:nodetypes="cc"
       inkscape:export-filename="/media/z/TagSpaces/website2/assets/ico/icon32.png"
       inkscape:export-xdpi="33.290001"
       inkscape:export-ydpi="33.290001" />
    <path
       style="fill:#f7901e;fill-opacity:1;stroke:#33b5be;stroke-width:10.29371548;stroke-linecap:butt;stroke-linejoin:miter;stroke-miterlimit:4;stroke-opacity:1;stroke-dasharray:none"
       d="M 322.02266,97.772832 303.1706,80.821701"
       id="path3108-9-1"
       inkscape:connector-curvature="0"
       sodipodi:nodetypes="cc"
       inkscape:export-filename="/media/z/TagSpaces/website2/assets/ico/icon32.png"
       inkscape:export-xdpi="33.290001"
       inkscape:export-ydpi="33.290001" />
    <path
       style="fill:#616577;fill-opacity:1;stroke:#f7901e;stroke-width:10.29371548;stroke-linecap:butt;stroke-linejoin:miter;stroke-miterlimit:4;stroke-opacity:1;stroke-dasharray:none"
       d="M 313.8369,108.18567 299.44979,95.351241"
       id="path3108-0-7"
       inkscape:connector-curvature="0"
       sodipodi:nodetypes="cc"
       inkscape:export-filename="/media/z/TagSpaces/website2/assets/ico/icon32.png"
       inkscape:export-xdpi="33.290001"
       inkscape:export-ydpi="33.290001" />
    <path
       style="fill:none;stroke:#616577;stroke-width:11.96031666;stroke-linecap:butt;stroke-linejoin:miter;stroke-miterlimit:4;stroke-opacity:1;stroke-dasharray:none"
       d="m 306.87913,56.54648 31.07089,0 0,29.598718 -41.34434,42.441152 -30.69503,-28.37564 z"
       id="path3923-1-1"
       inkscape:connector-curvature="0"
       sodipodi:nodetypes="cccccc"
       inkscape:export-filename="/media/z/TagSpaces/website2/assets/ico/icon32.png"
       inkscape:export-xdpi="33.290001"
       inkscape:export-ydpi="33.290001" />
    <rect
       style="fill:#404040;fill-opacity:1;stroke:none"
       id="rect3052"
       width="572.14288"
       height="172.14285"
       x="125.71429"
       y="177.36218" />
    <path
       style="fill:none;stroke:#fbfcff;stroke-width:11.96032619;stroke-linecap:butt;stroke-linejoin:miter;stroke-miterlimit:4;stroke-opacity:1;stroke-dasharray:none"
       d="m 188.83217,213.34287 31.07103,0 0,29.59864 -41.34452,42.44104 -30.69516,-28.37556 z"
       id="path3923-17"
       inkscape:connector-curvature="0"
       sodipodi:nodetypes="cccccc"
       inkscape:export-filename="Z:\TagSpaces\repository\data\icons\icon16w.png"
       inkscape:export-xdpi="16.504297"
       inkscape:export-ydpi="16.504297" />
    <path
       transform="matrix(1.5935923,0,0,1.6535609,-353.58229,-342.76843)"
       sodipodi:type="arc"
       style="fill:#f2f4ff;fill-opacity:1;stroke:none"
       id="path4875-4-4"
       sodipodi:cx="346.96429"
       sodipodi:cy="347.71933"
       sodipodi:rx="3.75"
       sodipodi:ry="3.5714285"
       d="m 350.71429,347.71933 a 3.75,3.5714285 0 1 1 -7.5,0 3.75,3.5714285 0 1 1 7.5,0 z"
       inkscape:export-xdpi="16.504297"
       inkscape:export-ydpi="16.504297"
       inkscape:export-filename="Z:\TagSpaces\repository\data\icons\icon16w.png" />
    <rect
       style="fill:#ffffff;fill-opacity:1;stroke:none"
       id="rect3052-8"
       width="93"
       height="93"
       x="298.21426"
       y="195.43359"
       inkscape:export-filename="/media/z/TagSpaces/website2/content/TagSpacesLogoBig.png"
       inkscape:export-xdpi="483.87"
       inkscape:export-ydpi="483.87" />
    <path
       transform="matrix(1.5935856,0,0,1.6535653,-191.74909,-350.48483)"
       sodipodi:type="arc"
       style="fill:#616577;fill-opacity:1;stroke:none"
       id="path4875-4-7-5-3"
       sodipodi:cx="346.96429"
       sodipodi:cy="347.71933"
       sodipodi:rx="3.75"
       sodipodi:ry="3.5714285"
       d="m 350.71429,347.71933 a 3.75,3.5714285 0 1 1 -7.5,0 3.75,3.5714285 0 1 1 7.5,0 z"
       inkscape:export-xdpi="483.87"
       inkscape:export-ydpi="483.87"
       inkscape:export-filename="/media/z/TagSpaces/website2/content/TagSpacesLogoBig.png" />
    <path
       style="fill:none;stroke:#a466aa;stroke-width:10.29371548;stroke-linecap:butt;stroke-linejoin:miter;stroke-miterlimit:4;stroke-opacity:1;stroke-dasharray:none"
       d="m 348.93898,267.07459 -9.42604,-8.71773"
       id="path3108-5-3"
       inkscape:connector-curvature="0"
       sodipodi:nodetypes="cc"
       inkscape:export-filename="/media/z/TagSpaces/website2/content/TagSpacesLogoBig.png"
       inkscape:export-xdpi="483.87"
       inkscape:export-ydpi="483.87" />
    <path
       style="fill:#f7901e;fill-opacity:1;stroke:#33b5be;stroke-width:10.29371548;stroke-linecap:butt;stroke-linejoin:miter;stroke-miterlimit:4;stroke-opacity:1;stroke-dasharray:none"
       d="M 365.80661,246.85431 346.95455,229.90318"
       id="path3108-9-1-4"
       inkscape:connector-curvature="0"
       sodipodi:nodetypes="cc"
       inkscape:export-filename="/media/z/TagSpaces/website2/content/TagSpacesLogoBig.png"
       inkscape:export-xdpi="483.87"
       inkscape:export-ydpi="483.87" />
    <path
       style="fill:#616577;fill-opacity:1;stroke:#f7901e;stroke-width:10.29371548;stroke-linecap:butt;stroke-linejoin:miter;stroke-miterlimit:4;stroke-opacity:1;stroke-dasharray:none"
       d="M 357.62085,257.26715 343.23374,244.43272"
       id="path3108-0-7-3"
       inkscape:connector-curvature="0"
       sodipodi:nodetypes="cc"
       inkscape:export-filename="/media/z/TagSpaces/website2/content/TagSpacesLogoBig.png"
       inkscape:export-xdpi="483.87"
       inkscape:export-ydpi="483.87" />
    <path
       style="fill:none;stroke:#616577;stroke-width:11.96031666;stroke-linecap:butt;stroke-linejoin:miter;stroke-miterlimit:4;stroke-opacity:1;stroke-dasharray:none"
       d="m 350.66308,205.62796 31.07089,0 0,29.59872 -41.34434,42.44115 -30.69503,-28.37564 z"
       id="path3923-1-1-3"
       inkscape:connector-curvature="0"
       sodipodi:nodetypes="cccccc"
       inkscape:export-filename="/media/z/TagSpaces/website2/content/TagSpacesLogoBig.png"
       inkscape:export-xdpi="483.87"
       inkscape:export-ydpi="483.87" />
    <text
       xml:space="preserve"
       style="font-size:40px;font-style:normal;font-weight:normal;line-height:125%;letter-spacing:0px;word-spacing:0px;fill:#000000;fill-opacity:1;stroke:none;font-family:Sans"
       x="440.88205"
       y="252.4431"
       id="text3822"
       sodipodi:linespacing="125%"><tspan
         sodipodi:role="line"
         id="tspan3824"
         x="440.88205"
         y="252.4431"
         style="-inkscape-font-specification:Ubuntu Medium;font-family:Ubuntu;font-weight:500;font-style:normal;font-stretch:normal;font-variant:normal;font-size:40px;text-anchor:start;text-align:start;writing-mode:lr;line-height:125%;fill:#ffffff">TagSpaces</tspan></text>
    <g
       style="font-size:40px;font-style:normal;font-weight:normal;line-height:125%;letter-spacing:0px;word-spacing:0px;fill:#f2f2f2;fill-opacity:1;stroke:none;font-family:Sans"
       id="text3822-4"
       transform="translate(8.493349,-1.5442454)">
      <path
         d="m 464.62602,289.96381 0,4.36 -8.52,0 0,23.36 -5.08,0 0,-23.36 -8.52,0 0,-4.36 22.12,0"
         style="font-variant:normal;font-weight:500;font-stretch:normal;text-align:start;line-height:125%;writing-mode:lr-tb;text-anchor:start;fill:#f2f2f2;font-family:Ubuntu;-inkscape-font-specification:Ubuntu Medium"
         id="path3848"
         inkscape:connector-curvature="0" />
      <path
         d="m 473.95106,314.28381 c 1.49332,0 2.62666,-0.08 3.4,-0.24 l 0,-5.36 c -0.26668,-0.08 -0.65334,-0.15999 -1.16,-0.24 -0.50668,-0.08 -1.06668,-0.11999 -1.68,-0.12 -0.53334,1e-5 -1.08001,0.04 -1.64,0.12 -0.53334,0.08 -1.02667,0.22667 -1.48,0.44 -0.42667,0.21334 -0.77334,0.52001 -1.04,0.92 -0.26667,0.37334 -0.4,0.85334 -0.4,1.44 0,1.14667 0.36,1.94667 1.08,2.4 0.71999,0.42667 1.69333,0.64 2.92,0.64 m -0.4,-18.04 c 1.59999,2e-5 2.94666,0.20002 4.04,0.6 1.09332,0.40002 1.95999,0.96002 2.6,1.68 0.66665,0.72002 1.13332,1.60001 1.4,2.64 0.29332,1.01335 0.43998,2.13335 0.44,3.36 l 0,12.68 c -0.74668,0.16 -1.88001,0.34666 -3.4,0.56 -1.49334,0.24 -3.18668,0.36 -5.08,0.36 -1.25334,0 -2.40001,-0.12 -3.44,-0.36 -1.04,-0.24 -1.93334,-0.62667 -2.68,-1.16 -0.72,-0.53333 -1.29333,-1.22667 -1.72,-2.08 -0.4,-0.85333 -0.6,-1.90666 -0.6,-3.16 0,-1.2 0.22667,-2.21333 0.68,-3.04 0.48,-0.82666 1.12,-1.49333 1.92,-2 0.8,-0.53332 1.72,-0.90666 2.76,-1.12 1.06666,-0.23999 2.17333,-0.35999 3.32,-0.36 0.53333,10e-6 1.09332,0.04 1.68,0.12 0.58666,0.0533 1.21332,0.16001 1.88,0.32 l 0,-0.8 c -1e-5,-0.55999 -0.0667,-1.09332 -0.2,-1.6 -0.13334,-0.50665 -0.37334,-0.94665 -0.72,-1.32 -0.32001,-0.39999 -0.76001,-0.70665 -1.32,-0.92 -0.53334,-0.21332 -1.21334,-0.31999 -2.04,-0.32 -1.12001,1e-5 -2.14667,0.08 -3.08,0.24 -0.93334,0.16001 -1.69334,0.34668 -2.28,0.56 l -0.6,-3.92 c 0.61333,-0.21332 1.50666,-0.42665 2.68,-0.64 1.17333,-0.21331 2.42666,-0.31998 3.76,-0.32"
         style="font-variant:normal;font-weight:500;font-stretch:normal;text-align:start;line-height:125%;writing-mode:lr-tb;text-anchor:start;fill:#f2f2f2;font-family:Ubuntu;-inkscape-font-specification:Ubuntu Medium"
         id="path3850"
         inkscape:connector-curvature="0" />
      <path
         d="m 491.71919,306.68381 c -1e-5,2.05334 0.43999,3.56 1.32,4.52 0.90666,0.93334 2.06665,1.4 3.48,1.4 0.77332,0 1.49332,-0.10666 2.16,-0.32 0.69332,-0.21333 1.25332,-0.46666 1.68,-0.76 l 0,-10.84 c -0.34668,-0.08 -0.77335,-0.14665 -1.28,-0.2 -0.50668,-0.08 -1.14668,-0.11999 -1.92,-0.12 -1.76001,10e-6 -3.10668,0.58668 -4.04,1.76 -0.93334,1.14668 -1.40001,2.66668 -1.4,4.56 m 13.48,8.88 c -2e-5,3.33333 -0.85336,5.77333 -2.56,7.32 -1.68002,1.54666 -4.26668,2.31999 -7.76,2.32 -1.28001,-10e-6 -2.53334,-0.10668 -3.76,-0.32 -1.20001,-0.21334 -2.29334,-0.49334 -3.28,-0.84 l 0.88,-4.12 c 0.82666,0.34666 1.75999,0.62666 2.8,0.84 1.06666,0.21333 2.21332,0.31999 3.44,0.32 1.94665,-1e-5 3.33332,-0.40001 4.16,-1.2 0.82665,-0.8 1.23998,-1.98667 1.24,-3.56 l 0,-0.8 c -0.48002,0.24 -1.12002,0.48 -1.92,0.72 -0.77335,0.24 -1.66668,0.36 -2.68,0.36 -1.33335,0 -2.56001,-0.21333 -3.68,-0.64 -1.09334,-0.42667 -2.04001,-1.05333 -2.84,-1.88 -0.77334,-0.82666 -1.38667,-1.85333 -1.84,-3.08 -0.42667,-1.25333 -0.64,-2.69333 -0.64,-4.32 0,-1.51999 0.22666,-2.91999 0.68,-4.2 0.47999,-1.27999 1.15999,-2.37332 2.04,-3.28 0.90666,-0.90665 1.99999,-1.61332 3.28,-2.12 1.27999,-0.50665 2.73332,-0.75998 4.36,-0.76 1.57332,2e-5 3.06665,0.12002 4.48,0.36 1.41331,0.24002 2.61331,0.49335 3.6,0.76 l 0,18.12"
         style="font-variant:normal;font-weight:500;font-stretch:normal;text-align:start;line-height:125%;writing-mode:lr-tb;text-anchor:start;fill:#f2f2f2;font-family:Ubuntu;-inkscape-font-specification:Ubuntu Medium"
         id="path3852"
         inkscape:connector-curvature="0" />
      <path
         d="m 518.31669,313.92381 c 1.81332,0 3.13332,-0.30667 3.96,-0.92 0.82665,-0.61333 1.23998,-1.48 1.24,-2.6 -2e-5,-0.66666 -0.14668,-1.23999 -0.44,-1.72 -0.26668,-0.47999 -0.66668,-0.90666 -1.2,-1.28 -0.50668,-0.39999 -1.13335,-0.75999 -1.88,-1.08 -0.74668,-0.34666 -1.60001,-0.67999 -2.56,-1 -0.96001,-0.34666 -1.89334,-0.71999 -2.8,-1.12 -0.88001,-0.42666 -1.66667,-0.94665 -2.36,-1.56 -0.66667,-0.61332 -1.21334,-1.34665 -1.64,-2.2 -0.4,-0.85332 -0.6,-1.87998 -0.6,-3.08 0,-2.50665 0.86666,-4.46664 2.6,-5.88 1.73332,-1.43997 4.09332,-2.15997 7.08,-2.16 1.73332,3e-5 3.26665,0.20003 4.6,0.6 1.35998,0.37336 2.42665,0.78669 3.2,1.24 l -1.56,4.08 c -0.90669,-0.50665 -1.90668,-0.89331 -3,-1.16 -1.06668,-0.26665 -2.17335,-0.39998 -3.32,-0.4 -1.36001,2e-5 -2.42668,0.28002 -3.2,0.84 -0.74668,0.56002 -1.12001,1.34669 -1.12,2.36 -10e-6,0.61335 0.11999,1.14668 0.36,1.6 0.26666,0.42668 0.62666,0.81335 1.08,1.16 0.47999,0.34668 1.02665,0.66668 1.64,0.96 0.63999,0.29335 1.33332,0.57335 2.08,0.84 1.30665,0.48001 2.46665,0.97335 3.48,1.48 1.03998,0.48001 1.90665,1.06668 2.6,1.76 0.71998,0.66668 1.26664,1.46668 1.64,2.4 0.37331,0.90667 0.55998,2.01334 0.56,3.32 -2e-5,2.50667 -0.89336,4.45333 -2.68,5.84 -1.76002,1.36 -4.34668,2.04 -7.76,2.04 -1.14668,0 -2.20001,-0.08 -3.16,-0.24 -0.93334,-0.13334 -1.77334,-0.30667 -2.52,-0.52 -0.72001,-0.21334 -1.34667,-0.42667 -1.88,-0.64 -0.53334,-0.24 -0.96,-0.45333 -1.28,-0.64 l 1.48,-4.12 c 0.71999,0.4 1.69333,0.8 2.92,1.2 1.22666,0.4 2.70666,0.6 4.44,0.6"
         style="font-variant:normal;font-weight:500;font-stretch:normal;text-align:start;line-height:125%;writing-mode:lr-tb;text-anchor:start;fill:#f2f2f2;font-family:Ubuntu;-inkscape-font-specification:Ubuntu Medium"
         id="path3854"
         inkscape:connector-curvature="0" />
      <path
         d="m 546.79919,307.32381 c -2e-5,-2.15999 -0.49335,-3.83999 -1.48,-5.04 -0.96002,-1.19999 -2.52002,-1.79999 -4.68,-1.8 -0.45335,10e-6 -0.93335,0.0267 -1.44,0.08 -0.48001,0.0267 -0.96001,0.10668 -1.44,0.24 l 0,11.96 c 0.42666,0.29334 0.98666,0.57334 1.68,0.84 0.71999,0.24 1.47999,0.36 2.28,0.36 1.75998,0 3.03998,-0.6 3.84,-1.8 0.82665,-1.2 1.23998,-2.81333 1.24,-4.84 m 4.96,-0.08 c -2e-5,1.60001 -0.21336,3.06667 -0.64,4.4 -0.40002,1.33334 -0.98669,2.48 -1.76,3.44 -0.77335,0.96 -1.74669,1.70666 -2.92,2.24 -1.14668,0.53333 -2.45335,0.8 -3.92,0.8 -0.98668,0 -1.89335,-0.12 -2.72,-0.36 -0.82668,-0.24 -1.50668,-0.50667 -2.04,-0.8 l 0,8.12 -4.84,0 0,-27.64 c 0.98666,-0.26665 2.19999,-0.51998 3.64,-0.76 1.43999,-0.23998 2.95999,-0.35998 4.56,-0.36 1.65332,2e-5 3.13332,0.25335 4.44,0.76 1.30665,0.50668 2.41331,1.24002 3.32,2.2 0.93331,0.93335 1.63998,2.08001 2.12,3.44 0.50664,1.33334 0.75998,2.84001 0.76,4.52"
         style="font-variant:normal;font-weight:500;font-stretch:normal;text-align:start;line-height:125%;writing-mode:lr-tb;text-anchor:start;fill:#f2f2f2;font-family:Ubuntu;-inkscape-font-specification:Ubuntu Medium"
         id="path3856"
         inkscape:connector-curvature="0" />
      <path
         d="m 564.10731,314.28381 c 1.49332,0 2.62666,-0.08 3.4,-0.24 l 0,-5.36 c -0.26668,-0.08 -0.65334,-0.15999 -1.16,-0.24 -0.50668,-0.08 -1.06668,-0.11999 -1.68,-0.12 -0.53334,1e-5 -1.08001,0.04 -1.64,0.12 -0.53334,0.08 -1.02667,0.22667 -1.48,0.44 -0.42667,0.21334 -0.77334,0.52001 -1.04,0.92 -0.26667,0.37334 -0.4,0.85334 -0.4,1.44 0,1.14667 0.36,1.94667 1.08,2.4 0.71999,0.42667 1.69333,0.64 2.92,0.64 m -0.4,-18.04 c 1.59999,2e-5 2.94666,0.20002 4.04,0.6 1.09332,0.40002 1.95999,0.96002 2.6,1.68 0.66665,0.72002 1.13332,1.60001 1.4,2.64 0.29332,1.01335 0.43998,2.13335 0.44,3.36 l 0,12.68 c -0.74668,0.16 -1.88001,0.34666 -3.4,0.56 -1.49334,0.24 -3.18668,0.36 -5.08,0.36 -1.25334,0 -2.40001,-0.12 -3.44,-0.36 -1.04,-0.24 -1.93334,-0.62667 -2.68,-1.16 -0.72,-0.53333 -1.29333,-1.22667 -1.72,-2.08 -0.4,-0.85333 -0.6,-1.90666 -0.6,-3.16 0,-1.2 0.22667,-2.21333 0.68,-3.04 0.48,-0.82666 1.12,-1.49333 1.92,-2 0.8,-0.53332 1.72,-0.90666 2.76,-1.12 1.06666,-0.23999 2.17333,-0.35999 3.32,-0.36 0.53333,10e-6 1.09332,0.04 1.68,0.12 0.58666,0.0533 1.21332,0.16001 1.88,0.32 l 0,-0.8 c -10e-6,-0.55999 -0.0667,-1.09332 -0.2,-1.6 -0.13334,-0.50665 -0.37334,-0.94665 -0.72,-1.32 -0.32001,-0.39999 -0.76001,-0.70665 -1.32,-0.92 -0.53334,-0.21332 -1.21334,-0.31999 -2.04,-0.32 -1.12001,1e-5 -2.14667,0.08 -3.08,0.24 -0.93334,0.16001 -1.69334,0.34668 -2.28,0.56 l -0.6,-3.92 c 0.61333,-0.21332 1.50666,-0.42665 2.68,-0.64 1.17333,-0.21331 2.42666,-0.31998 3.76,-0.32"
         style="font-variant:normal;font-weight:500;font-stretch:normal;text-align:start;line-height:125%;writing-mode:lr-tb;text-anchor:start;fill:#f2f2f2;font-family:Ubuntu;-inkscape-font-specification:Ubuntu Medium"
         id="path3858"
         inkscape:connector-curvature="0" />
      <path
         d="m 576.91544,307.24381 c 0,-1.54666 0.24,-2.98666 0.72,-4.32 0.47999,-1.35999 1.15999,-2.53332 2.04,-3.52 0.90666,-0.98665 1.99999,-1.75998 3.28,-2.32 1.27999,-0.55998 2.71999,-0.83998 4.32,-0.84 1.97332,2e-5 3.83998,0.36002 5.6,1.08 l -1.04,3.96 c -0.56002,-0.23999 -1.20002,-0.43999 -1.92,-0.6 -0.69335,-0.15999 -1.44002,-0.23999 -2.24,-0.24 -1.89335,1e-5 -3.33335,0.60001 -4.32,1.8 -0.98668,1.17334 -1.48001,2.84001 -1.48,5 -10e-6,2.08001 0.46666,3.73334 1.4,4.96 0.93332,1.2 2.50665,1.8 4.72,1.8 0.82665,0 1.63998,-0.08 2.44,-0.24 0.79998,-0.16 1.49331,-0.36 2.08,-0.6 l 0.68,4 c -0.53335,0.26666 -1.34669,0.50666 -2.44,0.72 -1.06668,0.21333 -2.17335,0.32 -3.32,0.32 -1.78668,0 -3.34668,-0.26667 -4.68,-0.8 -1.30668,-0.56 -2.40001,-1.32 -3.28,-2.28 -0.85334,-0.98667 -1.49334,-2.14666 -1.92,-3.48 -0.42667,-1.36 -0.64,-2.82666 -0.64,-4.4"
         style="font-variant:normal;font-weight:500;font-stretch:normal;text-align:start;line-height:125%;writing-mode:lr-tb;text-anchor:start;fill:#f2f2f2;font-family:Ubuntu;-inkscape-font-specification:Ubuntu Medium"
         id="path3860"
         inkscape:connector-curvature="0" />
      <path
         d="m 595.82169,307.32381 c 0,-1.83999 0.26666,-3.45332 0.8,-4.84 0.55999,-1.38665 1.29333,-2.53332 2.2,-3.44 0.90666,-0.93332 1.94666,-1.62665 3.12,-2.08 1.17332,-0.47998 2.37332,-0.71998 3.6,-0.72 2.87998,2e-5 5.11998,0.89335 6.72,2.68 1.62664,1.78668 2.43998,4.45335 2.44,8 -2e-5,0.26667 -0.0134,0.57334 -0.04,0.92 -2e-5,0.32001 -0.0134,0.61334 -0.04,0.88 l -13.8,0 c 0.13332,1.68 0.71999,2.98667 1.76,3.92 1.06665,0.90667 2.59999,1.36 4.6,1.36 1.17332,0 2.23998,-0.10667 3.2,-0.32 0.98665,-0.21333 1.75998,-0.44 2.32,-0.68 l 0.64,3.96 c -0.26669,0.13333 -0.64002,0.28 -1.12,0.44 -0.45335,0.13333 -0.98669,0.25333 -1.6,0.36 -0.58669,0.13333 -1.22668,0.24 -1.92,0.32 -0.69335,0.08 -1.40002,0.12 -2.12,0.12 -1.84001,0 -3.44001,-0.26667 -4.8,-0.8 -1.36001,-0.56 -2.48001,-1.32 -3.36,-2.28 -0.88001,-0.98667 -1.53334,-2.13333 -1.96,-3.44 -0.42667,-1.33333 -0.64,-2.78666 -0.64,-4.36 m 14.04,-2.16 c -2e-5,-0.66666 -0.0933,-1.29332 -0.28,-1.88 -0.18668,-0.61332 -0.46668,-1.13332 -0.84,-1.56 -0.34668,-0.45332 -0.78668,-0.79999 -1.32,-1.04 -0.50668,-0.26665 -1.12001,-0.39999 -1.84,-0.4 -0.74668,10e-6 -1.40001,0.14668 -1.96,0.44 -0.56001,0.26668 -1.04001,0.62668 -1.44,1.08 -0.37334,0.45335 -0.66668,0.97335 -0.88,1.56 -0.21334,0.58668 -0.36001,1.18668 -0.44,1.8 l 9,0"
         style="font-variant:normal;font-weight:500;font-stretch:normal;text-align:start;line-height:125%;writing-mode:lr-tb;text-anchor:start;fill:#f2f2f2;font-family:Ubuntu;-inkscape-font-specification:Ubuntu Medium"
         id="path3862"
         inkscape:connector-curvature="0" />
      <path
         d="m 625.03419,314.20381 c 1.27999,0 2.21332,-0.14667 2.8,-0.44 0.58665,-0.32 0.87999,-0.85333 0.88,-1.6 -10e-6,-0.69333 -0.32001,-1.26666 -0.96,-1.72 -0.61335,-0.45333 -1.64001,-0.94666 -3.08,-1.48 -0.88001,-0.31999 -1.69334,-0.65333 -2.44,-1 -0.72001,-0.37333 -1.34667,-0.79999 -1.88,-1.28 -0.53334,-0.47999 -0.96001,-1.05332 -1.28,-1.72 -0.29334,-0.69332 -0.44,-1.53332 -0.44,-2.52 0,-1.91999 0.70666,-3.42665 2.12,-4.52 1.41333,-1.11998 3.33332,-1.67998 5.76,-1.68 1.22665,2e-5 2.39999,0.12002 3.52,0.36 1.11998,0.21335 1.95998,0.42668 2.52,0.64 l -0.88,3.92 c -0.53335,-0.23999 -1.21335,-0.45332 -2.04,-0.64 -0.82668,-0.21332 -1.78668,-0.31999 -2.88,-0.32 -0.98668,1e-5 -1.78668,0.17335 -2.4,0.52 -0.61334,0.32001 -0.92001,0.82668 -0.92,1.52 -10e-6,0.34668 0.0533,0.65335 0.16,0.92 0.13332,0.26668 0.34666,0.52001 0.64,0.76 0.29332,0.21334 0.67999,0.44001 1.16,0.68 0.47999,0.21334 1.06665,0.44001 1.76,0.68 1.14665,0.42668 2.11999,0.85334 2.92,1.28 0.79998,0.40001 1.45332,0.86667 1.96,1.4 0.53332,0.50667 0.91998,1.09334 1.16,1.76 0.23998,0.66667 0.35998,1.46667 0.36,2.4 -2e-5,2 -0.74669,3.52 -2.24,4.56 -1.46668,1.01333 -3.57335,1.52 -6.32,1.52 -1.84001,0 -3.32001,-0.16 -4.44,-0.48 -1.12001,-0.29334 -1.90667,-0.53334 -2.36,-0.72 l 0.84,-4.04 c 0.71999,0.29334 1.57333,0.57333 2.56,0.84 1.01333,0.26667 2.15999,0.4 3.44,0.4"
         style="font-variant:normal;font-weight:500;font-stretch:normal;text-align:start;line-height:125%;writing-mode:lr-tb;text-anchor:start;fill:#f2f2f2;font-family:Ubuntu;-inkscape-font-specification:Ubuntu Medium"
         id="path3864"
         inkscape:connector-curvature="0" />
    </g>
  </g>
</svg>
