<?xml version="1.0" encoding="utf-8"?>
<!-- Generator: Adobe Illustrator 23.1.1, SVG Export Plug-In . SVG Version: 6.00 Build 0)  -->
<svg version="1.1" id="Layer_1" xmlns="http://www.w3.org/2000/svg" xmlns:xlink="http://www.w3.org/1999/xlink" x="0px" y="0px"
	 viewBox="0 0 1000 1000" style="enable-background:new 0 0 1000 1000;" xml:space="preserve">
<style type="text/css">
	.st0{fill:#D14657;}
	.st1{opacity:0.24;stroke:#000000;stroke-width:6;stroke-linecap:round;stroke-linejoin:round;stroke-miterlimit:10;}
	.st2{fill:#FCA417;}
	.st3{opacity:0.33;fill:#FFFFFF;}
	.st4{fill:#FCA84C;}
	.st5{opacity:0.66;fill:#FCA84C;}
	.st6{fill:none;stroke:#000000;stroke-width:6;stroke-linecap:round;stroke-linejoin:round;stroke-miterlimit:10;}
	.st7{fill:#514447;}
	.st8{fill:none;stroke:#000000;stroke-width:4;stroke-linecap:round;stroke-linejoin:round;stroke-miterlimit:10;}
	.st9{fill:#83906F;}
	.st10{fill:#664A4A;}
	.st11{fill:#FF1F1F;}
</style>
<rect class="st0" width="1000" height="1000"/>
<path id="XMLID_81_" class="st1" d="M630.6,766.8h-242c-5.5,0-10-4.5-10-10V285.9c0-5.5,4.5-10,10-10h280c5.5,0,10,4.5,10,10v432.9
	C678.6,745.3,657.1,766.8,630.6,766.8z"/>
<g id="XMLID_5_">
	<path id="XMLID_125_" class="st2" d="M602,745.5H360c-5.5,0-10-4.5-10-10V264.5c0-5.5,4.5-10,10-10h280c5.5,0,10,4.5,10,10v432.9
		C650,724,628.5,745.5,602,745.5z"/>
	<path id="XMLID_123_" class="st3" d="M361.8,731.8V268.2c0-7.5,6.1-13.6,13.6-13.6h-11.8c-7.5,0-13.6,6.1-13.6,13.6v463.6
		c0,7.5,6.1,13.6,13.6,13.6h11.8C367.9,745.5,361.8,739.3,361.8,731.8z"/>
	<circle id="XMLID_121_" class="st4" cx="440" cy="591.4" r="51.8"/>
	<path id="XMLID_119_" class="st5" d="M402.1,561c17.5-21.9,49.2-25.8,71.5-9.1c-0.4-0.3-0.8-0.7-1.2-1c-22.3-17.9-55-14.3-72.8,8.1
		s-14.3,55,8.1,72.8c0.4,0.3,0.9,0.7,1.3,1C387.7,614.7,384.5,582.9,402.1,561z"/>
	<g id="XMLID_112_">
		<path id="XMLID_117_" class="st4" d="M636.4,254.5h-12.5c7.5,0,13.9,6.1,13.9,13.6V680c0,36.1-29.5,65.5-65.7,65.5h12.5
			c36.1,0,65.5-29.3,65.5-65.5V268.2C650,260.7,643.9,254.5,636.4,254.5z"/>
		<path id="XMLID_115_" class="st4" d="M544.7,745.5h39.8c36.1,0,65.5-29.3,65.5-65.5v-39.8L544.7,745.5z"/>
		<path id="XMLID_113_" class="st4" d="M584.5,735.9H372c-5.1,0-9.3,4.2-9.3,9.3v0.2h221.8c58.1,0,65.5-29.3,65.5-65.5v-9.5
			C650,706.6,620.7,735.9,584.5,735.9z"/>
	</g>
	<path id="XMLID_111_" class="st6" d="M602,745.5H360c-5.5,0-10-4.5-10-10V264.5c0-5.5,4.5-10,10-10h280c5.5,0,10,4.5,10,10v432.9
		C650,724,628.5,745.5,602,745.5z"/>
	<path id="XMLID_110_" class="st7" d="M593.1,482.5H394.9c-2.2,0-4-1.8-4-4v-164c0-2.2,1.8-4,4-4h210.2c2.2,0,4,1.8,4,4v152
		C609.1,475.3,601.9,482.5,593.1,482.5z"/>
	<path id="XMLID_109_" class="st8" d="M593.1,482.5H394.9c-2.2,0-4-1.8-4-4v-164c0-2.2,1.8-4,4-4h210.2c2.2,0,4,1.8,4,4v152
		C609.1,475.3,601.9,482.5,593.1,482.5z"/>
	<path id="XMLID_108_" class="st9" d="M567.2,463.4H432.8c-0.6,0-1-0.4-1-1V338.9c0-0.6,0.4-1,1-1h134.4c0.6,0,1,0.4,1,1v123.5
		C568.2,463,567.7,463.4,567.2,463.4z"/>
	<path id="XMLID_107_" class="st8" d="M567.2,463.4H432.8c-0.6,0-1-0.4-1-1V338.9c0-0.6,0.4-1,1-1h134.4c0.6,0,1,0.4,1,1v123.5
		C568.2,463,567.7,463.4,567.2,463.4z"/>
	<path id="XMLID_106_" class="st8" d="M636.4,254.5H363.6c-7.5,0-13.6,6.1-13.6,13.6v13.6h300v-13.6
		C650,260.7,643.9,254.5,636.4,254.5z"/>
	<line id="XMLID_105_" class="st8" x1="528.6" y1="508.2" x2="609.1" y2="508.2"/>
	<line id="XMLID_104_" class="st8" x1="390.9" y1="508.2" x2="471.4" y2="508.2"/>
	<g id="XMLID_94_">
		<g>
			<g id="XMLID_152_">
				<path id="XMLID_153_" class="st10" d="M474.8,602.5h-67.2c-2.5,0-4.6-2-4.6-4.6v-13.1c0-2.5,2-4.6,4.6-4.6h67.2
					c2.5,0,4.6,2,4.6,4.6v13.1C479.3,600.5,477.3,602.5,474.8,602.5z"/>
			</g>
			<g id="XMLID_150_">
				<path id="XMLID_151_" class="st10" d="M430,625v-67.2c0-2.5,2-4.6,4.6-4.6h13.1c2.5,0,4.6,2,4.6,4.6V625c0,2.5-2,4.6-4.6,4.6
					h-13.1C432,629.5,430,627.5,430,625z"/>
			</g>
		</g>
	</g>
	<path id="XMLID_93_" class="st8" d="M473.6,580.5h-19.1c-1.2,0-2.1-1-2.1-2.1v-18.9c0-3.4-2.8-6.2-6.2-6.2h-9.8
		c-3.2,0-5.8,2.6-5.8,5.8v19.4c0,1.2-1,2.1-2.1,2.1h-19.1c-3.3,0-6,2.7-6,6v9.8c0,3.3,2.7,6,6,6h19.1c1.2,0,2.1,1,2.1,2.1v18.9
		c0,3.4,2.8,6.2,6.2,6.2h9.4c3.4,0,6.2-2.8,6.2-6.2v-18.9c0-1.2,1-2.1,2.1-2.1h18.7c3.6,0,6.4-2.9,6.4-6.4v-9.4
		C479.5,583.1,476.9,580.5,473.6,580.5z"/>
	<g id="XMLID_77_">
		<path id="XMLID_91_" class="st4" d="M557.1,629.2c-5.5,0-10.6-2.1-14.5-6c-3.9-3.9-6-9-6-14.5c0-5.5,2.1-10.6,6-14.5l34.7-34.7
			c3.9-3.9,9-6,14.5-6c5.5,0,10.6,2.1,14.5,6c8,8,8,21,0,28.9l-34.7,34.7C567.7,627,562.6,629.2,557.1,629.2z"/>
		<path id="XMLID_88_" class="st5" d="M544.2,623.2c-3.9-3.9-6-9-6-14.5c0-5.5,2.1-10.6,6-14.5l34.7-34.7c3.7-3.7,8.5-5.8,13.7-5.9
			c-0.3,0-0.5,0-0.8,0c-5.5,0-10.6,2.1-14.5,6l-34.7,34.7c-3.9,3.9-6,9-6,14.5c0,5.5,2.1,10.6,6,14.5c3.9,3.9,9,6,14.5,6
			c0.3,0,0.5,0,0.8,0C552.7,628.9,547.9,626.9,544.2,623.2z"/>
		<circle id="XMLID_86_" class="st11" cx="591.8" cy="574" r="13.6"/>
		<circle id="XMLID_80_" class="st11" cx="557.1" cy="608.7" r="13.6"/>
		<circle id="XMLID_79_" class="st8" cx="591.8" cy="574" r="13.6"/>
		<circle id="XMLID_78_" class="st8" cx="557.1" cy="608.7" r="13.6"/>
	</g>
	<path id="XMLID_76_" class="st8" d="M472,683.2l-2.1-2.1c-1.2-1.2-1.2-3.1,0-4.2l21.1-21.1c1.2-1.2,3.1-1.2,4.2,0l2.1,2.1
		c1.2,1.2,1.2,3.1,0,4.2l-21.1,21.1C475,684.4,473.1,684.4,472,683.2z"/>
	<path id="XMLID_75_" class="st8" d="M506.2,683.2l-2.1-2.1c-1.2-1.2-1.2-3.1,0-4.2l21.1-21.1c1.2-1.2,3.1-1.2,4.2,0l2.1,2.1
		c1.2,1.2,1.2,3.1,0,4.2l-21.1,21.1C509.3,684.4,507.4,684.4,506.2,683.2z"/>
	<g id="XMLID_61_">
		<line id="XMLID_74_" class="st6" x1="576.9" y1="690.4" x2="593.2" y2="706.8"/>
		<line id="XMLID_70_" class="st6" x1="566.2" y1="701" x2="582.6" y2="717.4"/>
		<line id="XMLID_64_" class="st6" x1="588.4" y1="678.8" x2="604.8" y2="695.2"/>
		<line id="XMLID_63_" class="st6" x1="599" y1="668.2" x2="615.4" y2="684.6"/>
		<line id="XMLID_62_" class="st6" x1="609.6" y1="657.6" x2="626" y2="674"/>
	</g>
	<rect id="XMLID_60_" x="381.4" y="254.5" class="st8" width="238" height="27.3"/>
	<g id="XMLID_57_">
		<line id="XMLID_59_" class="st8" x1="411.4" y1="325.5" x2="509.1" y2="325.5"/>
		<line id="XMLID_58_" class="st8" x1="561.4" y1="325.5" x2="592.7" y2="325.5"/>
	</g>
	<g id="XMLID_37_">
		<line id="XMLID_56_" class="st8" x1="485.2" y1="504.6" x2="485.2" y2="511.8"/>
		<line id="XMLID_46_" class="st8" x1="495.1" y1="504.6" x2="495.1" y2="511.8"/>
		<line id="XMLID_45_" class="st8" x1="504.9" y1="504.6" x2="504.9" y2="511.8"/>
		<line id="XMLID_41_" class="st8" x1="514.8" y1="504.6" x2="514.8" y2="511.8"/>
	</g>
</g>
<g>
	<g>
		<g>
			<g>
				<g>
					<path class="st2" d="M420.9,937.6c1.2,0,2.4-0.7,2.4-2.3c0-1.3-0.8-2.2-2.3-2.2c-1.6,0-2.5,1.1-2.4,2.1v0.1
						C418.7,936.7,419.7,937.6,420.9,937.6z"/>
				</g>
			</g>
		</g>
		<g>
			<g>
				<g>
					<path class="st2" d="M476.4,941.9c-0.1-0.8,1.2-0.9,1-1.6c-0.1-0.9-0.9-0.9-1.4-0.8c-2.9,0.3-3.5,1.3-3.8,3.2
						c-0.1,1.1,0.6,2.1,1.3,2.9c0.1,1-0.2,2.7-0.5,4.4c-0.3,0.1-0.5,0.3-0.5,0.6c-0.3,1-0.9,3.9-1.8,6.3c-0.3,0.4-0.7,0.9-0.7,1.2
						c0,0.1,0,0.3,0,0.3c-0.7,1.2-1.4,2.1-2.2,2.1c-0.4,0-0.5-1-0.5-2.4c0-2.4,1.2-9.1,1.2-10.5c0-1.9,0.3-3.5,0.3-5.1
						c0-0.6-0.5-0.8-1-0.8c-0.5,0-0.7,0.3-1.2,0.3c-1.9,0-2.2,1-2.2,2.6c0,0.6,0,9.9-0.1,11c-0.1,1.9-1.2,4.3-3.3,4.3
						c-1.9,0-2.8-2.6-2.8-5.4c0-2.5,0.5-5.7,0.8-6.8c0.2-0.6,1-3.6,1-4c0-0.7-0.1-0.9-0.9-0.9c-3,0.1-3.6,0.3-4.1,1.9
						c-0.5,1.9-1,5-1,8c0,0.3,0,0.6,0,0.8c-0.7,2.2-1.5,4.7-3.5,4.8c-1.4,0.1-1.8-3.4-1.8-6.9c0-7.1,2-13.9,2.3-21
						c0.1-0.6-0.4-1.1-1.2-1.1c-1,0.1-1.4,0.1-1.8,0.1c-0.8,0-1.1,0.3-1.2,1.1c-0.7,7.1-2.1,15.7-2.1,22.6c0,0.1,0,0.1,0,0.1
						c-0.7,2.3-1.5,5.2-3.7,5.3c-1.4,0.1-1.8-3.4-1.8-6.9c0-7.1,2-13.9,2.3-21c0.1-0.6-0.4-1.1-1.2-1.1c-1,0-1.4-0.1-1.9-0.1
						c-0.8,0-1.1,0.3-1.2,1.1c-0.7,7.1-2.1,15.7-2.1,22.6c0,0.1,0,0.1,0,0.1c-0.7,2.3-1.5,5.2-3.7,5.3c-1.4,0.1-1.8-3.4-1.8-6.9
						c0-7.1,2-13.9,2.3-21c0.1-0.6-0.4-1.1-1.2-1.1c-1.1,0-1.4-0.1-2-0.1c-0.8,0-1.1,0.3-1.2,1.1c-0.7,7.1-2.1,15.7-2.1,22.6
						c0,0.3,0,0.6,0,1c-0.7,2.3-1.6,4.7-2.9,4.7c-0.6-0.1-1-0.9-1-2.9c0-3.6,0.3-8.5,0.7-12.2c0.1-0.5-0.1-0.9-0.7-0.9
						c-0.5-0.1-1.9-0.2-2.4-0.2c-0.8,0-1.1,0.5-1.1,1.3v1.3c0.1,4.3-0.4,7.8-0.4,11.9c0,2.9,1.6,4.9,3.5,4.9c2.1,0,3.7-1.7,4.8-3.8
						c0.6,2.2,1.7,4.1,3.9,4.1c2.1,0,4.1-2.3,5.5-4.8c0.5,2.5,1.6,4.8,4.1,4.8c2.1,0,4.1-2.3,5.5-4.8c0.5,2.5,1.6,4.8,4.1,4.8
						c2,0,4.1-2.2,5.4-4.6c0.7,2.9,2.4,5.1,5.4,5.1c2.6,0,3.3-1,4.9-3.4c0.5,1.3,0.7,3.8,2.2,3.8c2.1,0,3.9-2.4,5-5.1
						c1.2,2.1,4.3,3.6,6.5,3.6c3.5,0,6.5-2.5,6.3-6.4C484.7,950.4,477,944.8,476.4,941.9z M477.3,959.3c-1,0-2.7-0.6-2.7-2
						c-0.1-0.8,1.8-1.2,2.4-1.6c0.5-0.3,0.7-0.6,0.7-0.8c-0.1-0.5-0.7-0.8-1.4-0.8c-0.6,0-1.4,0.2-2.4,0.8c0.2-0.9,1.6-5.6,1.9-7.8
						c2.6,1.9,4.9,6.2,5.2,9.3C481.1,959,478.2,959.3,477.3,959.3z"/>
				</g>
			</g>
		</g>
		<g>
			<g>
				<g>
					<path class="st2" d="M536,937.6c1.2,0,2.4-0.7,2.4-2.3c0-1.3-0.8-2.2-2.3-2.2c-1.6,0-2.5,1.1-2.4,2.1v0.1
						C533.7,936.7,534.8,937.6,536,937.6z"/>
				</g>
			</g>
		</g>
		<g>
			<g>
				<g>
					<path class="st2" d="M573.8,963.1c-1.2-0.8-2-2-1.8-7.1c0.1-3.2,0.8-7.7,0.8-10.9c0-1.4-0.7-3-2.5-3c-2.3,0-5.6,4.7-6.7,6.7
						c0.1-1.2,0.5-4.9,0.6-6.1c0.1-1.2,0.1-1.3-2.1-1.3c-1.4,0-1.6,0.3-1.6,0.8c0,3-0.3,6.4-0.5,9.9c-0.8,1.7-1.8,3.4-3.3,3.4
						c-0.5,0-0.9-0.1-1.3-0.3c0.7-1,1.1-3.2,1.1-4.3c0-1.8-1.3-3.2-3.1-3.2c-2.4,0-3.9,1.7-3.9,4c0,1.8,1.9,3.9,3.3,4.9
						c-0.9,1.7-2.6,2.7-4.5,2.7c-2.8,0-3.8-5.1-3.8-7c0-3.6,1.3-7.7,5.6-7.7c2.9,0,2.9,1.9,4.2,1.9c0.1,0,0.5-0.2,0.5-0.4
						c0-2.1-3.4-3.9-5.2-3.9c-6,0-10.2,4.7-10.2,10.6c0,1.2,0.2,2.4,0.6,3.6c-0.6,1.5-1.3,2.7-2.2,2.7c-0.6,0-1-0.8-1-2.8
						c0-3.6,0.3-8.5,0.7-12.2c0.1-0.5-0.1-0.9-0.7-0.9c-0.5-0.1-1.9-0.2-2.4-0.2c-0.8,0-1.1,0.5-1.1,1.3v1.3c0,2.3-0.1,4.2-0.2,6.2
						c-0.1,0.1-0.1,0.2-0.2,0.3c-0.7,1.9-1.6,7.3-3.8,7.3c-0.7,0-2-0.9-2-3.4c0-4.1,1.4-12.2,1.6-13.7c2.1-0.5,3.9-0.3,6.4-1
						c1.1-0.3,0.5-1.6-0.8-1.5c-0.7,0.1-2.7,0.2-5.4,0c0.1-2.1,0.6-3.5,0.6-5.7v-0.2c0-0.6-0.3-1-0.9-1c-1.2,0-3,0.4-3,2
						c0,1.7-0.3,3.2-0.3,4.9c-1.2,0.1-2.2-0.3-3.4-0.3c-0.9,0-1,1.6-1,2.1c0,0.6,0.1,1.1,0.5,1.1c1.6,0,3.1-0.3,3.7-0.3
						c-0.3,4.3-0.9,6.7-1.2,9.7c0,0.2-0.1,0.5-0.1,0.7c-0.7,2.3-2.1,5.8-3.2,5.8c-0.5,0-1.1-0.7-1.1-1.2c0-3.2,0.3-7.1,1.2-10.3
						c0.2-0.6,0.7-1.8,0.7-2.5c0-0.8-1.4-1.3-2.1-1.3c-1.2,0-1.1,0.6-1.6,1.7c-0.9-0.6-1-1.8-3.3-1.8c-4.2,0-6.7,6.7-6.7,11
						c0,0.7-0.1,1.1-0.1,1.5c0,2.4-1.4,5.4-2.8,5.4c-1.2,0-1.6-3.4-1.6-4.8c0-2,0.9-6.5,1.7-8.4c0.3-0.7,0.9-1.5,0.9-2.3
						c0-0.9-1-2.4-2.1-2.4c-1.2,0-1.9,0.6-3.1,0.6c-2,0-3.3-1.2-4.4-1.2c-0.7,0-1.1,0.5-1.1,1.1c0,1.7,1.9,1.4,1.4,3.6
						c-0.5,2.1-1.8,7.7-2.6,9.9c-0.1,0.1-0.1,0.2-0.1,0.3c0,0.3,0.1,0.5,0.1,0.6c-0.5,0.8-1,1.3-1.6,1.3c-0.7,0-2-0.9-2-3.4
						c0-4.1,1.4-12.2,1.6-13.7c2.1-0.5,3.9-0.3,6.4-1c1.1-0.3,0.5-1.6-0.8-1.5c-0.7,0.1-2.7,0.2-5.4,0c0.1-2.1,0.6-3.5,0.6-5.7
						c0-0.6-0.3-1-0.9-1c-1.2,0-3,0.4-3,2c0,1.7-0.3,3.2-0.3,4.9c-1.2,0.1-2.2-0.3-3.4-0.3c-0.9,0-1,1.6-1,2.1
						c0,0.6,0.1,1.1,0.5,1.1c1.6,0,3.1-0.3,3.7-0.3c-0.3,4.3-0.9,6.7-1.2,9.7c-0.2,1.6-0.5,4-0.5,5.6c0,2.8,2.4,5.1,4.4,5.1
						c3.6,0,6.5-7.3,6.5-10.2c0-0.1,0-0.3,0-0.4c0.4-1.7,0.7-3.5,1-5c0.1-0.2,0.3-0.8,0.8-0.8c1.2,0,1.3,0.8,1.3,1.8
						c0,2.4-0.9,6.7-0.9,9.2c0,2.5,0.7,5.5,3.5,5.5c2.4,0,4.4-1.6,5.5-3.6c0.8,1.9,2.1,3.4,3.9,3.4c1.8,0,3.3-1.3,4.3-2.5
						c0.3,0.6,0.7,2.4,2.6,2.4c1.8,0,3.1-1.5,4.2-3.4c0.6,2.2,2.6,3.8,4.3,3.8c2,0,3.9-2.4,5.1-5c0.1,2.7,1.6,4.5,3.5,4.5
						c2,0,3.6-1.6,4.7-3.5c1.2,2,3.2,3.4,5.8,3.4c3.6,0,5.8-2.3,7.7-5.1c0.7,0.1,1.2,0.3,1.8,0.3c1.2,0,2.5-0.8,3.5-2
						c-0.1,2.1-0.3,4.1-0.3,5.9c0,0.6,0.1,0.9,0.6,1c0.5,0.2,1.3,0.1,1.8,0.1c0.7,0,0.8,0.1,0.9-0.8c0.1-0.6,0.5-7.5,0.5-8
						c0-1.4,3.5-7.5,5.2-7.5c0.3,0,0.6,0.6,0.6,1c0,3.1-1,8.2-1,11.4c0,3.4,1.7,4.6,2.4,5c0.5,0.3,2,0.8,2.8,0.7
						C573.8,963.8,574.2,963.4,573.8,963.1z M516.3,956.5c-0.1,0.9-1.7,3.2-2.9,3.2c-1.4,0-2-3.9-1.9-6.5c0.1-3,1.6-8.5,3-8.5
						c1.9,0,2.2,4.5,2.2,6C516.7,952.4,516.5,954.9,516.3,956.5z M553.9,954.4c-0.9-0.5-1.4-2.1-1.4-3.1c0-0.6,0.2-1.9,1-1.9
						c0.8,0,1,1.4,1,2C554.6,952.2,554.1,953.7,553.9,954.4z"/>
				</g>
			</g>
		</g>
		<g>
			<g>
				<g>
					<path class="st2" d="M588.8,955.5c-0.3-5.1-8.1-10.7-8.6-13.6c-0.1-0.8,1.2-0.9,1-1.6c-0.1-0.9-0.9-0.9-1.4-0.8
						c-2.9,0.3-3.5,1.3-3.8,3.2c-0.1,1.1,0.6,2.1,1.3,2.9c0.1,2.3-1.2,8.6-2.6,11c-0.3,0.5-0.8,1.1-0.9,1.5c-0.1,0.8,0.5,1.2,1,0.6
						c0.5-0.4,0.4-0.6,0.9-1c1,2.4,4.3,4.1,6.8,4.1C586.1,961.8,589,959.3,588.8,955.5z M581.1,959.3c-1,0-2.7-0.6-2.7-2
						c-0.1-0.8,1.8-1.2,2.4-1.6c0.5-0.3,0.7-0.6,0.7-0.8c-0.1-0.5-0.7-0.8-1.4-0.8c-0.6,0-1.4,0.2-2.4,0.8c0.2-0.9,1.6-5.6,1.9-7.8
						c2.6,1.9,4.9,6.2,5.2,9.3C584.8,959,582,959.3,581.1,959.3z"/>
				</g>
			</g>
		</g>
	</g>
	<g>
		<g>
			<g>
				<g>
					<path class="st2" d="M63.2,959.2c0,2.5-1.2,3.7-2.6,3.7c-1.1,0-1.9-0.5-2.1-1.4c-0.4,0.5-1,0.8-1.8,0.8c-1.5,0-2.6-1.2-2.6-2.8
						s1.1-2.8,2.6-2.8c0.7,0,1.2,0.3,1.6,0.7v-0.5h1.6v3.9c0,0.8,0.3,1.4,1,1.4c0.9,0,1.7-0.9,1.7-3c0-3-2.3-5.3-5.4-5.3
						c-3.1,0-5.6,2.4-5.6,5.7s2.5,5.7,5.9,5.7c1.1,0,2.1-0.2,2.9-0.4v0.6c-0.8,0.3-1.7,0.4-2.9,0.4c-3.7,0-6.5-2.6-6.5-6.2
						c0-3.4,2.7-6.2,6.2-6.2C61.1,953.3,63.2,956.4,63.2,959.2z M58.3,959.5c0-0.8-0.6-1.4-1.3-1.4c-0.8,0-1.3,0.5-1.3,1.4
						c0,0.8,0.6,1.3,1.3,1.3C57.8,960.9,58.3,960.3,58.3,959.5z"/>
				</g>
			</g>
			<g>
				<g>
					<path class="st2" d="M69.4,955.1v2c-1.2-0.1-2.6,0.5-2.6,2.4v4.3h-1.9v-8.6h1.9v1.4C67.3,955.5,68.3,955.1,69.4,955.1z"/>
				</g>
			</g>
			<g>
				<g>
					<path class="st2" d="M74.6,962.3c1,0,1.8-0.5,2.2-1.1l1.5,0.9c-0.8,1.2-2.1,1.9-3.8,1.9c-2.8,0-4.7-1.9-4.7-4.5
						c0-2.5,1.8-4.5,4.5-4.5c2.6,0,4.3,2.1,4.3,4.5c0,0.3,0,0.5-0.1,0.8h-6.8C72.1,961.6,73.2,962.3,74.6,962.3z M76.9,958.8
						c-0.3-1.5-1.3-2.1-2.5-2.1c-1.4,0-2.3,0.8-2.6,2.1H76.9z"/>
				</g>
			</g>
			<g>
				<g>
					<path class="st2" d="M88.9,955.2v8.6H87v-1.2c-0.7,0.9-1.7,1.5-3,1.5c-2.3,0-4.3-2-4.3-4.5c0-2.6,1.9-4.5,4.3-4.5
						c1.3,0,2.3,0.5,3,1.4v-1.2L88.9,955.2L88.9,955.2z M87.1,959.5c0-1.6-1.2-2.7-2.7-2.7s-2.7,1.1-2.7,2.7c0,1.6,1.2,2.7,2.7,2.7
						C85.9,962.3,87.1,961.1,87.1,959.5z"/>
				</g>
			</g>
			<g>
				<g>
					<path class="st2" d="M91.1,951.3H93v12.5h-1.9V951.3z"/>
				</g>
			</g>
			<g>
				<g>
					<path class="st2" d="M102.9,955.2l-3.3,8.6h-2.1l-3.3-8.6h2l2.4,6.5l2.4-6.5H102.9z"/>
				</g>
			</g>
			<g>
				<g>
					<path class="st2" d="M104.2,955.2h1.9v8.9c0,2.4-1.2,3.5-3.5,3.3v-1.8c1.1,0.1,1.7-0.3,1.7-1.5L104.2,955.2L104.2,955.2z
						 M104,952.8c0-0.7,0.5-1.2,1.2-1.2s1.2,0.5,1.2,1.2c0,0.6-0.5,1.2-1.2,1.2S104,953.4,104,952.8z"/>
				</g>
			</g>
			<g>
				<g>
					<path class="st2" d="M116,955.2l-3.3,8.8c-0.8,2.2-2.2,3.3-4.2,3.2v-1.7c1.2,0.1,1.9-0.5,2.3-1.7l0.1-0.2l-3.6-8.4h2l2.6,6.2
						l2.2-6.2L116,955.2L116,955.2z"/>
				</g>
			</g>
		</g>
		<g>
			<g>
				<path class="st2" d="M58.9,938.7c0,2.1-1.5,3.8-3.6,3.8h-3v-7.6h3C57.4,934.9,58.9,936.6,58.9,938.7z M57.9,938.7
					c0-1.6-1.1-2.9-2.6-2.9h-2v5.7h2C56.8,941.6,57.9,940.3,57.9,938.7z"/>
			</g>
			<g>
				<path class="st2" d="M67,941.6v1h-4.6V935h4.5v1h-3.5v2.3h3.2v0.9h-3.2v2.4L67,941.6L67,941.6z"/>
			</g>
			<g>
				<path class="st2" d="M70,940.8l0.9-0.5c0.3,0.8,0.9,1.4,2,1.4s1.6-0.5,1.6-1.2c0-0.8-0.7-1-1.8-1.4c-1.2-0.4-2.4-0.8-2.4-2.2
					s1.1-2.2,2.4-2.2s2.2,0.7,2.6,1.7l-0.8,0.5c-0.3-0.7-0.8-1.2-1.7-1.2c-0.8,0-1.4,0.4-1.4,1.1c0,0.7,0.5,1,1.6,1.3
					c1.3,0.4,2.6,0.8,2.6,2.3c0,1.3-1.1,2.2-2.6,2.2C71.5,942.7,70.4,941.9,70,940.8z"/>
			</g>
			<g>
				<path class="st2" d="M80,934.9v7.6h-1v-7.6H80z"/>
			</g>
			<g>
				<path class="st2" d="M91.3,939.2c0,1.9-1.4,3.5-3.7,3.5c-2.4,0-4-1.8-4-4s1.7-4,4-4c1.4,0,2.7,0.8,3.3,1.8L90,937
					c-0.4-0.8-1.4-1.4-2.4-1.4c-1.8,0-3,1.3-3,3s1.2,3,3,3c1.6,0,2.5-0.9,2.7-2h-2.8v-0.9h3.8V939.2z"/>
			</g>
			<g>
				<path class="st2" d="M100.6,934.9v7.6h-0.8l-3.9-5.7v5.7h-1v-7.6h0.8l3.9,5.7v-5.7H100.6z"/>
			</g>
			<g>
				<path class="st2" d="M109.1,941.6v1h-4.6V935h4.5v1h-3.5v2.3h3.2v0.9h-3.2v2.4L109.1,941.6L109.1,941.6z"/>
			</g>
			<g>
				<path class="st2" d="M119.2,938.7c0,2.1-1.5,3.8-3.6,3.8h-3v-7.6h3C117.6,934.9,119.2,936.6,119.2,938.7z M118.2,938.7
					c0-1.6-1.1-2.9-2.6-2.9h-2v5.7h2C117.1,941.6,118.2,940.3,118.2,938.7z"/>
			</g>
			<g>
				<path class="st2" d="M133.2,940.4c0,1.2-1,2.2-2.2,2.2h-3.3V935h3c1.2,0,2.1,0.9,2.1,2.1c0,0.7-0.3,1.2-0.8,1.6
					C132.7,938.9,133.2,939.5,133.2,940.4z M128.7,935.8v2.3h2c0.6,0,1.1-0.5,1.1-1.2c0-0.6-0.5-1.2-1.1-1.2h-2V935.8z M132.2,940.3
					c0-0.7-0.5-1.2-1.2-1.2h-2.3v2.5h2.3C131.7,941.6,132.2,941,132.2,940.3z"/>
			</g>
			<g>
				<path class="st2" d="M139.4,939.4v3.1h-1v-3.1l-2.7-4.5h1.1l2.1,3.6l2.1-3.6h1.1L139.4,939.4z"/>
			</g>
		</g>
		<g>
			<path class="st2" d="M211,935v7.7h-0.8l-4-5.8v5.8h-1V935h0.8l4,5.7V935H211z"/>
			<path class="st2" d="M219.4,941.7v1h-4.6V935h4.5v1h-3.5v2.4h3.2v1h-3.2v2.4H219.4z"/>
			<path class="st2" d="M222.3,935h1.1l1.8,6.3l1.9-6.3h1l1.9,6.3l1.8-6.3h1.1l-2.2,7.7h-1.2l-1.8-6.1l-1.8,6.1h-1.2L222.3,935z"/>
			<path class="st2" d="M243.2,935v7.7h-1v-6.6l-1.6,0.5l-0.3-0.9l2-0.7H243.2z"/>
			<path class="st2" d="M249.3,935v7.7h-1v-6.6l-1.6,0.5l-0.3-0.9l2-0.7H249.3z"/>
			<path class="st2" d="M258,940.2c0,1.5-1.1,2.6-2.7,2.6c-1.6,0-2.7-1.1-2.7-2.6c0-0.6,0.2-1.1,0.5-1.5l2.5-3.7h1.2l-1.8,2.7
				c0.1,0,0.2,0,0.4,0C256.9,937.6,258,938.7,258,940.2z M257,940.2c0-1-0.7-1.6-1.6-1.6c-1,0-1.6,0.6-1.6,1.6c0,1,0.7,1.6,1.6,1.6
				C256.3,941.8,257,941.2,257,940.2z"/>
		</g>
		<g>
			<path class="st2" d="M217.8,957.9c0,3.6-2.5,6-6.1,6c-3.9,0-6.7-2.9-6.7-6.4c0-3.6,2.8-6.5,6.5-6.5c2.4,0,4.4,1.2,5.4,2.9
				l-2.1,1.2c-0.6-1-1.8-1.7-3.3-1.7c-2.4,0-4.1,1.7-4.1,4.1c0,2.3,1.7,4,4.2,4c2,0,3.2-0.9,3.6-2.4h-3.8v-2.2h6.2V957.9z"/>
			<path class="st2" d="M228.5,954.7v8.9h-2.3v-1c-0.6,0.8-1.6,1.3-2.9,1.3c-2.4,0-4.3-2-4.3-4.7s2-4.7,4.3-4.7
				c1.3,0,2.3,0.5,2.9,1.3v-1H228.5z M226.2,959.2c0-1.5-1-2.5-2.5-2.5c-1.4,0-2.5,1-2.5,2.5s1,2.5,2.5,2.5
				C225.2,961.7,226.2,960.7,226.2,959.2z"/>
			<path class="st2" d="M243.8,958.2v5.5h-2.3v-5.3c0-1-0.5-1.7-1.5-1.7c-1,0-1.7,0.7-1.7,2v5H236v-5.3c0-1-0.5-1.7-1.5-1.7
				c-1,0-1.7,0.7-1.7,2v5h-2.3v-8.9h2.3v0.9c0.5-0.7,1.3-1.2,2.5-1.2c1.1,0,1.9,0.5,2.4,1.3c0.6-0.8,1.4-1.3,2.6-1.3
				C242.4,954.5,243.8,955.9,243.8,958.2z"/>
			<path class="st2" d="M250.2,961.8c0.9,0,1.6-0.4,2-0.9l1.8,1.1c-0.8,1.2-2.2,1.9-3.9,1.9c-3,0-4.9-2-4.9-4.7s1.9-4.7,4.7-4.7
				c2.6,0,4.5,2.1,4.5,4.7c0,0.3,0,0.6-0.1,0.9h-6.7C248,961.3,248.9,961.8,250.2,961.8z M252.1,958.3c-0.3-1.3-1.2-1.8-2.2-1.8
				c-1.2,0-2.1,0.7-2.3,1.8H252.1z"/>
			<path class="st2" d="M265.5,959.2c0,2.6-2,4.7-4.3,4.7c-1.3,0-2.2-0.5-2.9-1.3v1H256v-12.4h2.3v4.6c0.6-0.8,1.6-1.3,2.9-1.3
				C263.6,954.5,265.5,956.5,265.5,959.2z M263.2,959.2c0-1.5-1-2.5-2.5-2.5c-1.4,0-2.5,1-2.5,2.5s1,2.5,2.5,2.5
				C262.2,961.7,263.2,960.7,263.2,959.2z"/>
			<path class="st2" d="M266.7,959.2c0-2.6,2.1-4.7,4.7-4.7c2.6,0,4.7,2,4.7,4.7s-2.1,4.7-4.7,4.7
				C268.8,963.9,266.7,961.8,266.7,959.2z M273.8,959.2c0-1.4-1-2.5-2.4-2.5c-1.4,0-2.4,1-2.4,2.5s1,2.5,2.4,2.5
				C272.7,961.6,273.8,960.6,273.8,959.2z"/>
			<path class="st2" d="M285.6,954.7l-3.2,8.9c-0.9,2.6-2.4,3.7-4.7,3.6V965c1.3,0,1.9-0.5,2.3-1.7l-3.6-8.6h2.5l2.3,6l2-6H285.6z"
				/>
		</g>
		<g>
			<g>
				<g>
					<g>
						<g>
							<path class="st2" d="M848.1,938.4c0,2.1-1.5,3.8-3.6,3.8h-3v-7.6h3C846.6,934.6,848.1,936.3,848.1,938.4z M847.2,938.4
								c0-1.6-1.1-2.9-2.6-2.9h-2v5.7h2C846.1,941.3,847.2,940.1,847.2,938.4z"/>
						</g>
					</g>
				</g>
				<g>
					<g>
						<g>
							<path class="st2" d="M851.3,938.4c0-2.2,1.7-4,3.9-4c2.2,0,4,1.8,4,4c0,2.2-1.7,4-4,4C853,942.4,851.3,940.6,851.3,938.4z
								 M858.1,938.4c0-1.7-1.3-3-2.9-3c-1.7,0-2.9,1.3-2.9,3c0,1.7,1.3,3,2.9,3C856.9,941.4,858.1,940.1,858.1,938.4z"/>
						</g>
					</g>
				</g>
				<g>
					<g>
						<g>
							<path class="st2" d="M861.8,934.6h1.1l1.7,6.3l1.9-6.3h1l1.9,6.3l1.7-6.3h1.1l-2.2,7.6h-1.2l-1.8-6.1l-1.8,6.1H864
								L861.8,934.6z"/>
						</g>
					</g>
				</g>
				<g>
					<g>
						<g>
							<path class="st2" d="M881.3,934.6v7.6h-0.8l-3.9-5.7v5.7h-1v-7.6h0.8l3.9,5.7v-5.7H881.3z"/>
						</g>
					</g>
				</g>
				<g>
					<g>
						<g>
							<path class="st2" d="M889.5,941.3v1h-4.3v-7.6h1v6.7H889.5z"/>
						</g>
					</g>
				</g>
				<g>
					<g>
						<g>
							<path class="st2" d="M891.9,938.4c0-2.2,1.7-4,3.9-4c2.2,0,4,1.8,4,4c0,2.2-1.7,4-4,4C893.6,942.4,891.9,940.6,891.9,938.4z
								 M898.8,938.4c0-1.7-1.3-3-2.9-3c-1.7,0-2.9,1.3-2.9,3c0,1.7,1.3,3,2.9,3C897.5,941.4,898.8,940.1,898.8,938.4z"/>
						</g>
					</g>
				</g>
				<g>
					<g>
						<g>
							<path class="st2" d="M907.4,940.6H904l-0.6,1.7h-1.1l2.8-7.6h1.1l2.8,7.6H908L907.4,940.6z M907.1,939.6l-1.4-3.8l-1.4,3.8
								H907.1z"/>
						</g>
					</g>
				</g>
				<g>
					<g>
						<g>
							<path class="st2" d="M918.9,938.4c0,2.1-1.5,3.8-3.6,3.8h-3v-7.6h3C917.4,934.6,918.9,936.3,918.9,938.4z M917.9,938.4
								c0-1.6-1.1-2.9-2.6-2.9h-2v5.7h2C916.9,941.3,917.9,940.1,917.9,938.4z"/>
						</g>
					</g>
				</g>
				<g>
					<g>
						<g>
							<path class="st2" d="M928.5,935.6v2.5h3.2v1h-3.2v3.2h-1v-7.6h4.4v1H928.5z"/>
						</g>
					</g>
				</g>
				<g>
					<g>
						<g>
							<path class="st2" d="M938.2,939.3h-1.8v2.9h-1v-7.6h3c1.3,0,2.4,1.1,2.4,2.4c0,1-0.7,1.9-1.6,2.2l1.8,3.1h-1.1L938.2,939.3z
								 M936.4,938.4h2c0.8,0,1.4-0.6,1.4-1.4c0-0.8-0.6-1.4-1.4-1.4h-2V938.4z"/>
						</g>
					</g>
				</g>
				<g>
					<g>
						<g>
							<path class="st2" d="M943.9,938.4c0-2.2,1.7-4,3.9-4c2.2,0,4,1.8,4,4c0,2.2-1.7,4-4,4C945.6,942.4,943.9,940.6,943.9,938.4z
								 M950.8,938.4c0-1.7-1.3-3-2.9-3c-1.7,0-2.9,1.3-2.9,3c0,1.7,1.3,3,2.9,3C949.5,941.4,950.8,940.1,950.8,938.4z"/>
						</g>
					</g>
				</g>
				<g>
					<g>
						<g>
							<path class="st2" d="M962.4,942.3h-1v-6l-2.5,4.2h-0.1l-2.5-4.1v5.9h-1v-7.6h1.1l2.4,4l2.4-4h1.1V942.3z"/>
						</g>
					</g>
				</g>
			</g>
			<g>
				<g>
					<g>
						<g>
							<path class="st2" d="M841.3,952.6c0-0.7,0.5-1.2,1.2-1.2c0.7,0,1.2,0.5,1.2,1.2c0,0.7-0.5,1.2-1.2,1.2
								C841.9,953.9,841.3,953.3,841.3,952.6z M841.6,955.2h1.9v8.9h-1.9V955.2z"/>
						</g>
					</g>
				</g>
				<g>
					<g>
						<g>
							<path class="st2" d="M845.7,951.1h1.9V964h-1.9V951.1z"/>
						</g>
					</g>
				</g>
				<g>
					<g>
						<g>
							<path class="st2" d="M849.8,951.1h1.9V964h-1.9V951.1z"/>
						</g>
					</g>
				</g>
				<g>
					<g>
						<g>
							<path class="st2" d="M854,951.1h1.9V964H854V951.1z"/>
						</g>
					</g>
				</g>
				<g>
					<g>
						<g>
							<path class="st2" d="M866,955.2v8.9h-1.9v-1.1c-0.6,0.9-1.5,1.4-2.7,1.4c-2,0-3.4-1.3-3.4-3.6v-5.4h1.9v5.2
								c0,1.3,0.8,2.1,2,2.1c1.3,0,2.2-0.7,2.2-2.5v-4.7H866z"/>
						</g>
					</g>
				</g>
				<g>
					<g>
						<g>
							<path class="st2" d="M874.6,961.6c0,1.8-1.5,2.7-3.5,2.7c-1.8,0-3-0.8-3.6-2.1l1.6-1c0.3,0.8,1,1.3,2,1.3
								c0.8,0,1.5-0.3,1.5-1c0-1.6-4.8-0.7-4.8-3.9c0-1.7,1.4-2.7,3.2-2.7c1.5,0,2.7,0.7,3.3,1.8l-1.6,0.9c-0.3-0.7-0.9-1-1.7-1
								c-0.7,0-1.3,0.3-1.3,0.9C869.9,959.3,874.6,958.3,874.6,961.6z"/>
						</g>
					</g>
				</g>
				<g>
					<g>
						<g>
							<path class="st2" d="M878.7,957v4.2c0,1.1,0.7,1.1,2.2,1v1.7c-2.9,0.4-4.1-0.5-4.1-2.8V957h-1.6v-1.8h1.6v-1.9l1.9-0.6v2.5
								h2.2v1.8H878.7z"/>
						</g>
					</g>
				</g>
				<g>
					<g>
						<g>
							<path class="st2" d="M887.4,955v2.1c-1.3-0.1-2.7,0.5-2.7,2.5v4.5h-1.9v-8.9h1.9v1.5C885.2,955.5,886.2,955,887.4,955z"/>
						</g>
					</g>
				</g>
				<g>
					<g>
						<g>
							<path class="st2" d="M897.3,955.2v8.9h-1.9v-1.3c-0.7,0.9-1.7,1.5-3.1,1.5c-2.4,0-4.4-2-4.4-4.7c0-2.6,2-4.7,4.4-4.7
								c1.4,0,2.4,0.6,3.1,1.5v-1.3H897.3z M895.4,959.6c0-1.6-1.2-2.8-2.8-2.8c-1.6,0-2.8,1.2-2.8,2.8c0,1.6,1.2,2.8,2.8,2.8
								C894.2,962.5,895.4,961.3,895.4,959.6z"/>
						</g>
					</g>
				</g>
				<g>
					<g>
						<g>
							<path class="st2" d="M902.3,957v4.2c0,1.1,0.7,1.1,2.2,1v1.7c-2.9,0.4-4.1-0.5-4.1-2.8V957h-1.6v-1.8h1.6v-1.9l1.9-0.6v2.5
								h2.2v1.8H902.3z"/>
						</g>
					</g>
				</g>
				<g>
					<g>
						<g>
							<path class="st2" d="M905.9,952.6c0-0.7,0.5-1.2,1.2-1.2c0.7,0,1.2,0.5,1.2,1.2c0,0.7-0.5,1.2-1.2,1.2
								C906.5,953.9,905.9,953.3,905.9,952.6z M906.2,955.2h1.9v8.9h-1.9V955.2z"/>
						</g>
					</g>
				</g>
				<g>
					<g>
						<g>
							<path class="st2" d="M909.8,959.6c0-2.6,2.1-4.7,4.7-4.7c2.6,0,4.7,2,4.7,4.7c0,2.6-2.1,4.7-4.7,4.7
								C911.9,964.3,909.8,962.2,909.8,959.6z M917.3,959.6c0-1.6-1.2-2.8-2.8-2.8c-1.6,0-2.8,1.2-2.8,2.8c0,1.6,1.2,2.8,2.8,2.8
								C916.1,962.4,917.3,961.2,917.3,959.6z"/>
						</g>
					</g>
				</g>
				<g>
					<g>
						<g>
							<path class="st2" d="M929,958.6v5.4h-1.9v-5.2c0-1.3-0.8-2.1-2-2.1c-1.3,0-2.2,0.7-2.2,2.5v4.7h-1.9v-8.9h1.9v1.1
								c0.6-0.9,1.5-1.4,2.7-1.4C927.5,955,929,956.3,929,958.6z"/>
						</g>
					</g>
				</g>
				<g>
					<g>
						<g>
							<path class="st2" d="M937.5,961.6c0,1.8-1.5,2.7-3.5,2.7c-1.8,0-3-0.8-3.6-2.1l1.6-1c0.3,0.8,1,1.3,2,1.3
								c0.8,0,1.5-0.3,1.5-1c0-1.6-4.8-0.7-4.8-3.9c0-1.7,1.4-2.7,3.2-2.7c1.5,0,2.7,0.7,3.3,1.8l-1.6,0.9c-0.3-0.7-0.9-1-1.7-1
								c-0.7,0-1.3,0.3-1.3,0.9C932.7,959.3,937.5,958.3,937.5,961.6z"/>
						</g>
					</g>
				</g>
				<g>
					<g>
						<g>
							<path class="st2" d="M938.8,962.9c0-0.7,0.6-1.3,1.3-1.3c0.7,0,1.3,0.6,1.3,1.3c0,0.7-0.6,1.3-1.3,1.3
								C939.4,964.3,938.8,963.7,938.8,962.9z"/>
						</g>
					</g>
				</g>
				<g>
					<g>
						<g>
							<path class="st2" d="M942.3,959.6c0-2.6,2-4.7,4.7-4.7c1.7,0,3.2,0.9,3.9,2.3l-1.6,1c-0.4-0.8-1.3-1.4-2.3-1.4
								c-1.6,0-2.7,1.2-2.7,2.8c0,1.6,1.2,2.8,2.7,2.8c1.1,0,1.9-0.5,2.4-1.4l1.6,0.9c-0.7,1.4-2.2,2.3-4,2.3
								C944.3,964.3,942.3,962.2,942.3,959.6z"/>
						</g>
					</g>
				</g>
				<g>
					<g>
						<g>
							<path class="st2" d="M951.7,959.6c0-2.6,2.1-4.7,4.7-4.7c2.6,0,4.7,2,4.7,4.7c0,2.6-2.1,4.7-4.7,4.7
								C953.8,964.3,951.7,962.2,951.7,959.6z M959.2,959.6c0-1.6-1.2-2.8-2.8-2.8s-2.8,1.2-2.8,2.8c0,1.6,1.2,2.8,2.8,2.8
								S959.2,961.2,959.2,959.6z"/>
						</g>
					</g>
				</g>
			</g>
		</g>
	</g>
</g>
</svg>
