<?xml version="1.0" encoding="utf-8"?>
<!-- Generator: Adobe Illustrator 23.1.1, SVG Export Plug-In . SVG Version: 6.00 Build 0)  -->
<svg version="1.1" id="Layer_1" xmlns="http://www.w3.org/2000/svg" xmlns:xlink="http://www.w3.org/1999/xlink" x="0px" y="0px"
	 viewBox="0 0 1000 1000" style="enable-background:new 0 0 1000 1000;" xml:space="preserve">
<style type="text/css">
	.st0{fill:#323232;}
	.st1{fill:#E7A24E;}
	.st2{fill:#DD2E2E;}
	.st3{fill:#B8FFFF;stroke:#000000;stroke-width:2.3141;stroke-miterlimit:10;}
	.st4{fill:#B9FFFF;}
	.st5{fill:#BAFFFF;}
	.st6{fill:#BBFFFF;}
	.st7{fill:#BCFFFF;}
	.st8{fill:#BDFFFF;}
	.st9{fill:#BEFFFF;}
	.st10{fill:#BFFFFF;}
	.st11{fill:#C0FFFF;}
	.st12{fill:#C1FFFF;}
	.st13{fill:#C2FFFF;}
	.st14{fill:#C3FFFF;}
	.st15{fill:#C4FFFF;}
	.st16{fill:#C5FFFF;}
	.st17{fill:#C6FFFF;}
	.st18{fill:#C7FFFF;}
	.st19{fill:#C8FFFF;}
	.st20{fill:#C9FFFF;}
	.st21{fill:#CAFFFF;}
	.st22{fill:#CBFFFF;}
	.st23{fill:#CCFFFF;}
	.st24{fill:#CDFFFF;}
	.st25{fill:#CEFFFF;}
	.st26{fill:#CFFFFF;}
	.st27{fill:#D0FFFF;}
	.st28{fill:#D1FFFF;}
	.st29{fill:#D2FFFF;}
	.st30{fill:#D3FFFF;}
	.st31{fill:#D4FFFF;}
	.st32{fill:#D5FFFF;}
	.st33{fill:#D6FFFF;}
	.st34{fill:#D7FFFF;}
	.st35{fill:#D8FFFF;}
	.st36{fill:#D9FFFF;}
	.st37{fill:#DAFFFF;}
	.st38{fill:#DBFFFF;}
	.st39{fill:#DCFFFF;}
	.st40{fill:#DDFFFF;}
	.st41{fill:#DEFFFF;}
	.st42{fill:#DFFFFF;}
	.st43{fill:#E0FFFF;}
	.st44{fill:#E1FFFF;}
	.st45{fill:#E2FFFF;}
	.st46{fill:#E3FFFF;}
	.st47{fill:#E4FFFF;}
	.st48{fill:#E5FFFF;}
	.st49{fill:#E6FFFF;}
	.st50{fill:#E7FFFF;}
	.st51{fill:#E8FFFF;}
	.st52{fill:#E9FFFF;}
	.st53{fill:#EAFFFF;}
	.st54{fill:#EBFFFF;}
	.st55{fill:#ECFFFF;}
	.st56{fill:#EDFFFF;}
	.st57{fill:#EEFFFF;}
	.st58{fill:#EFFFFF;}
	.st59{fill:#F0FFFF;}
	.st60{fill:#F1FFFF;}
	.st61{fill:#F2FFFF;}
	.st62{fill:#F3FFFF;}
	.st63{fill:#F4FFFF;}
	.st64{fill:#F5FFFF;}
	.st65{fill:#F6FFFF;}
	.st66{fill:#F7FFFF;}
	.st67{fill:#F8FFFF;}
	.st68{fill:#F9FFFF;}
	.st69{fill:#FAFFFF;}
	.st70{fill:#FBFFFF;}
	.st71{fill:#FCFFFF;}
	.st72{fill:#FDFFFF;}
	.st73{fill:#FEFFFF;}
	.st74{fill:#FFFFFF;}
	.st75{opacity:0.2;}
	.st76{opacity:0.1;}
	.st77{fill:#DB6833;stroke:#171717;stroke-width:4;stroke-linecap:round;stroke-linejoin:round;stroke-miterlimit:10;}
	.st78{fill:#E7A24E;stroke:#171717;stroke-width:2.3141;stroke-linecap:round;stroke-linejoin:round;stroke-miterlimit:10;}
	.st79{fill:#E38F3E;}
	.st80{fill:#DC8640;stroke:#171717;stroke-width:4;stroke-linecap:round;stroke-linejoin:round;stroke-miterlimit:10;}
	.st81{fill:#D87A3A;}
	.st82{fill:#DC9740;stroke:#171717;stroke-width:4;stroke-linecap:round;stroke-linejoin:round;stroke-miterlimit:10;}
	.st83{fill:#B1171C;stroke:#171717;stroke-width:2.3141;stroke-linecap:round;stroke-linejoin:round;stroke-miterlimit:10;}
	.st84{opacity:0.4;fill:#FFFFFF;}
	.st85{fill:#C71A1F;}
	.st86{fill:#E7A24E;stroke:#171717;stroke-width:4;stroke-linecap:round;stroke-linejoin:round;stroke-miterlimit:10;}
	.st87{fill:#B1171C;stroke:#171717;stroke-width:4;stroke-linecap:round;stroke-linejoin:round;stroke-miterlimit:10;}
	.st88{fill:none;stroke:#171717;stroke-width:4;stroke-linecap:round;stroke-linejoin:round;stroke-miterlimit:10;}
	
		.st89{opacity:0.6;fill:none;stroke:#FFFFFF;stroke-width:4.6282;stroke-linecap:round;stroke-linejoin:round;stroke-miterlimit:10;}
	.st90{fill:none;stroke:#FFFFFF;stroke-width:4.6282;stroke-linecap:round;stroke-linejoin:round;stroke-miterlimit:10;}
	
		.st91{opacity:0.5;fill:none;stroke:#FFFFFF;stroke-width:4.6282;stroke-linecap:round;stroke-linejoin:round;stroke-miterlimit:10;}
	
		.st92{opacity:0.1;fill:none;stroke:#000000;stroke-width:4.6282;stroke-linecap:round;stroke-linejoin:round;stroke-miterlimit:10;}
</style>
<rect class="st0" width="1000" height="1000"/>
<g>
	<g>
		<g>
			<g>
				<path class="st1" d="M420.9,937.6c1.2,0,2.4-0.7,2.4-2.3c0-1.3-0.8-2.2-2.3-2.2c-1.6,0-2.5,1.1-2.4,2.1v0.1
					C418.7,936.7,419.7,937.6,420.9,937.6z"/>
			</g>
		</g>
		<g>
			<g>
				<path class="st1" d="M476.4,941.9c-0.1-0.8,1.2-0.9,1-1.6c-0.1-0.9-0.9-0.9-1.4-0.8c-2.9,0.3-3.5,1.3-3.8,3.2
					c-0.1,1.1,0.6,2.1,1.3,2.9c0.1,1-0.2,2.7-0.5,4.4c-0.3,0.1-0.5,0.3-0.5,0.6c-0.3,1-0.9,3.9-1.8,6.3c-0.3,0.4-0.7,0.9-0.7,1.2
					c0,0.1,0,0.3,0,0.3c-0.7,1.2-1.4,2.1-2.2,2.1c-0.4,0-0.5-1-0.5-2.4c0-2.4,1.2-9.1,1.2-10.5c0-1.9,0.3-3.5,0.3-5.1
					c0-0.6-0.5-0.8-1-0.8c-0.5,0-0.7,0.3-1.2,0.3c-1.9,0-2.2,1-2.2,2.6c0,0.6,0,9.9-0.1,11c-0.1,1.9-1.2,4.3-3.3,4.3
					c-1.9,0-2.8-2.6-2.8-5.4c0-2.5,0.5-5.7,0.8-6.8c0.2-0.6,1-3.6,1-4c0-0.7-0.1-0.9-0.9-0.9c-3,0.1-3.6,0.3-4.1,1.9
					c-0.5,1.9-1,5-1,8c0,0.3,0,0.6,0,0.8c-0.7,2.2-1.5,4.7-3.5,4.8c-1.4,0.1-1.8-3.4-1.8-6.9c0-7.1,2-13.9,2.3-21
					c0.1-0.6-0.4-1.1-1.2-1.1c-1,0.1-1.4,0.1-1.8,0.1c-0.8,0-1.1,0.3-1.2,1.1c-0.7,7.1-2.1,15.7-2.1,22.6c0,0.1,0,0.1,0,0.1
					c-0.7,2.3-1.5,5.2-3.7,5.3c-1.4,0.1-1.8-3.4-1.8-6.9c0-7.1,2-13.9,2.3-21c0.1-0.6-0.4-1.1-1.2-1.1c-1,0-1.4-0.1-1.9-0.1
					c-0.8,0-1.1,0.3-1.2,1.1c-0.7,7.1-2.1,15.7-2.1,22.6c0,0.1,0,0.1,0,0.1c-0.7,2.3-1.5,5.2-3.7,5.3c-1.4,0.1-1.8-3.4-1.8-6.9
					c0-7.1,2-13.9,2.3-21c0.1-0.6-0.4-1.1-1.2-1.1c-1.1,0-1.4-0.1-2-0.1c-0.8,0-1.1,0.3-1.2,1.1c-0.7,7.1-2.1,15.7-2.1,22.6
					c0,0.3,0,0.6,0,1c-0.7,2.3-1.6,4.7-2.9,4.7c-0.6-0.1-1-0.9-1-2.9c0-3.6,0.3-8.5,0.7-12.2c0.1-0.5-0.1-0.9-0.7-0.9
					c-0.5-0.1-1.9-0.2-2.4-0.2c-0.8,0-1.1,0.5-1.1,1.3v1.3c0.1,4.3-0.4,7.8-0.4,11.9c0,2.9,1.6,4.9,3.5,4.9c2.1,0,3.7-1.7,4.8-3.8
					c0.6,2.2,1.7,4.1,3.9,4.1c2.1,0,4.1-2.3,5.5-4.8c0.5,2.5,1.6,4.8,4.1,4.8c2.1,0,4.1-2.3,5.5-4.8c0.5,2.5,1.6,4.8,4.1,4.8
					c2,0,4.1-2.2,5.4-4.6c0.7,2.9,2.4,5.1,5.4,5.1c2.6,0,3.3-1,4.9-3.4c0.5,1.3,0.7,3.8,2.2,3.8c2.1,0,3.9-2.4,5-5.1
					c1.2,2.1,4.3,3.6,6.5,3.6c3.5,0,6.5-2.5,6.3-6.4C484.7,950.4,477,944.8,476.4,941.9z M477.3,959.3c-1,0-2.7-0.6-2.7-2
					c-0.1-0.8,1.8-1.2,2.4-1.6c0.5-0.3,0.7-0.6,0.7-0.8c-0.1-0.5-0.7-0.8-1.4-0.8c-0.6,0-1.4,0.2-2.4,0.8c0.2-0.9,1.6-5.6,1.9-7.8
					c2.6,1.9,4.9,6.2,5.2,9.3C481.1,959,478.2,959.3,477.3,959.3z"/>
			</g>
		</g>
		<g>
			<g>
				<path class="st1" d="M536,937.6c1.2,0,2.4-0.7,2.4-2.3c0-1.3-0.8-2.2-2.3-2.2c-1.6,0-2.5,1.1-2.4,2.1v0.1
					C533.7,936.7,534.8,937.6,536,937.6z"/>
			</g>
		</g>
		<g>
			<g>
				<path class="st1" d="M573.8,963.1c-1.2-0.8-2-2-1.8-7.1c0.1-3.2,0.8-7.7,0.8-10.9c0-1.4-0.7-3-2.5-3c-2.3,0-5.6,4.7-6.7,6.7
					c0.1-1.2,0.5-4.9,0.6-6.1c0.1-1.2,0.1-1.3-2.1-1.3c-1.4,0-1.6,0.3-1.6,0.8c0,3-0.3,6.4-0.5,9.9c-0.8,1.7-1.8,3.4-3.3,3.4
					c-0.5,0-0.9-0.1-1.3-0.3c0.7-1,1.1-3.2,1.1-4.3c0-1.8-1.3-3.2-3.1-3.2c-2.4,0-3.9,1.7-3.9,4c0,1.8,1.9,3.9,3.3,4.9
					c-0.9,1.7-2.6,2.7-4.5,2.7c-2.8,0-3.8-5.1-3.8-7c0-3.6,1.3-7.7,5.6-7.7c2.9,0,2.9,1.9,4.2,1.9c0.1,0,0.5-0.2,0.5-0.4
					c0-2.1-3.4-3.9-5.2-3.9c-6,0-10.2,4.7-10.2,10.6c0,1.2,0.2,2.4,0.6,3.6c-0.6,1.5-1.3,2.7-2.2,2.7c-0.6,0-1-0.8-1-2.8
					c0-3.6,0.3-8.5,0.7-12.2c0.1-0.5-0.1-0.9-0.7-0.9c-0.5-0.1-1.9-0.2-2.4-0.2c-0.8,0-1.1,0.5-1.1,1.3v1.3c0,2.3-0.1,4.2-0.2,6.2
					c-0.1,0.1-0.1,0.2-0.2,0.3c-0.7,1.9-1.6,7.3-3.8,7.3c-0.7,0-2-0.9-2-3.4c0-4.1,1.4-12.2,1.6-13.7c2.1-0.5,3.9-0.3,6.4-1
					c1.1-0.3,0.5-1.6-0.8-1.5c-0.7,0.1-2.7,0.2-5.4,0c0.1-2.1,0.6-3.5,0.6-5.7v-0.2c0-0.6-0.3-1-0.9-1c-1.2,0-3,0.4-3,2
					c0,1.7-0.3,3.2-0.3,4.9c-1.2,0.1-2.2-0.3-3.4-0.3c-0.9,0-1,1.6-1,2.1c0,0.6,0.1,1.1,0.5,1.1c1.6,0,3.1-0.3,3.7-0.3
					c-0.3,4.3-0.9,6.7-1.2,9.7c0,0.2-0.1,0.5-0.1,0.7c-0.7,2.3-2.1,5.8-3.2,5.8c-0.5,0-1.1-0.7-1.1-1.2c0-3.2,0.3-7.1,1.2-10.3
					c0.2-0.6,0.7-1.8,0.7-2.5c0-0.8-1.4-1.3-2.1-1.3c-1.2,0-1.1,0.6-1.6,1.7c-0.9-0.6-1-1.8-3.3-1.8c-4.2,0-6.7,6.7-6.7,11
					c0,0.7-0.1,1.1-0.1,1.5c0,2.4-1.4,5.4-2.8,5.4c-1.2,0-1.6-3.4-1.6-4.8c0-2,0.9-6.5,1.7-8.4c0.3-0.7,0.9-1.5,0.9-2.3
					c0-0.9-1-2.4-2.1-2.4c-1.2,0-1.9,0.6-3.1,0.6c-2,0-3.3-1.2-4.4-1.2c-0.7,0-1.1,0.5-1.1,1.1c0,1.7,1.9,1.4,1.4,3.6
					c-0.5,2.1-1.8,7.7-2.6,9.9c-0.1,0.1-0.1,0.2-0.1,0.3c0,0.3,0.1,0.5,0.1,0.6c-0.5,0.8-1,1.3-1.6,1.3c-0.7,0-2-0.9-2-3.4
					c0-4.1,1.4-12.2,1.6-13.7c2.1-0.5,3.9-0.3,6.4-1c1.1-0.3,0.5-1.6-0.8-1.5c-0.7,0.1-2.7,0.2-5.4,0c0.1-2.1,0.6-3.5,0.6-5.7
					c0-0.6-0.3-1-0.9-1c-1.2,0-3,0.4-3,2c0,1.7-0.3,3.2-0.3,4.9c-1.2,0.1-2.2-0.3-3.4-0.3c-0.9,0-1,1.6-1,2.1c0,0.6,0.1,1.1,0.5,1.1
					c1.6,0,3.1-0.3,3.7-0.3c-0.3,4.3-0.9,6.7-1.2,9.7c-0.2,1.6-0.5,4-0.5,5.6c0,2.8,2.4,5.1,4.4,5.1c3.6,0,6.5-7.3,6.5-10.2
					c0-0.1,0-0.3,0-0.4c0.4-1.7,0.7-3.5,1-5c0.1-0.2,0.3-0.8,0.8-0.8c1.2,0,1.3,0.8,1.3,1.8c0,2.4-0.9,6.7-0.9,9.2
					c0,2.5,0.7,5.5,3.5,5.5c2.4,0,4.4-1.6,5.5-3.6c0.8,1.9,2.1,3.4,3.9,3.4c1.8,0,3.3-1.3,4.3-2.5c0.3,0.6,0.7,2.4,2.6,2.4
					c1.8,0,3.1-1.5,4.2-3.4c0.6,2.2,2.6,3.8,4.3,3.8c2,0,3.9-2.4,5.1-5c0.1,2.7,1.6,4.5,3.5,4.5c2,0,3.6-1.6,4.7-3.5
					c1.2,2,3.2,3.4,5.8,3.4c3.6,0,5.8-2.3,7.7-5.1c0.7,0.1,1.2,0.3,1.8,0.3c1.2,0,2.5-0.8,3.5-2c-0.1,2.1-0.3,4.1-0.3,5.9
					c0,0.6,0.1,0.9,0.6,1c0.5,0.2,1.3,0.1,1.8,0.1c0.7,0,0.8,0.1,0.9-0.8c0.1-0.6,0.5-7.5,0.5-8c0-1.4,3.5-7.5,5.2-7.5
					c0.3,0,0.6,0.6,0.6,1c0,3.1-1,8.2-1,11.4c0,3.4,1.7,4.6,2.4,5c0.5,0.3,2,0.8,2.8,0.7C573.8,963.8,574.2,963.4,573.8,963.1z
					 M516.3,956.5c-0.1,0.9-1.7,3.2-2.9,3.2c-1.4,0-2-3.9-1.9-6.5c0.1-3,1.6-8.5,3-8.5c1.9,0,2.2,4.5,2.2,6
					C516.7,952.4,516.5,954.9,516.3,956.5z M553.9,954.4c-0.9-0.5-1.4-2.1-1.4-3.1c0-0.6,0.2-1.9,1-1.9c0.8,0,1,1.4,1,2
					C554.6,952.2,554.1,953.7,553.9,954.4z"/>
			</g>
		</g>
		<g>
			<g>
				<path class="st1" d="M588.8,955.5c-0.3-5.1-8.1-10.7-8.6-13.6c-0.1-0.8,1.2-0.9,1-1.6c-0.1-0.9-0.9-0.9-1.4-0.8
					c-2.9,0.3-3.5,1.3-3.8,3.2c-0.1,1.1,0.6,2.1,1.3,2.9c0.1,2.3-1.2,8.6-2.6,11c-0.3,0.5-0.8,1.1-0.9,1.5c-0.1,0.8,0.5,1.2,1,0.6
					c0.5-0.4,0.4-0.6,0.9-1c1,2.4,4.3,4.1,6.8,4.1C586.1,961.8,589,959.3,588.8,955.5z M581.1,959.3c-1,0-2.7-0.6-2.7-2
					c-0.1-0.8,1.8-1.2,2.4-1.6c0.5-0.3,0.7-0.6,0.7-0.8c-0.1-0.5-0.7-0.8-1.4-0.8c-0.6,0-1.4,0.2-2.4,0.8c0.2-0.9,1.6-5.6,1.9-7.8
					c2.6,1.9,4.9,6.2,5.2,9.3C584.8,959,582,959.3,581.1,959.3z"/>
			</g>
		</g>
	</g>
	<g>
		<g>
			<g>
				<g>
					<path class="st1" d="M63.2,959.2c0,2.5-1.2,3.7-2.6,3.7c-1.1,0-1.9-0.5-2.1-1.4c-0.4,0.5-1,0.8-1.8,0.8c-1.5,0-2.6-1.2-2.6-2.8
						s1.1-2.8,2.6-2.8c0.7,0,1.2,0.3,1.6,0.7v-0.5h1.6v3.9c0,0.8,0.3,1.4,1,1.4c0.9,0,1.7-0.9,1.7-3c0-3-2.3-5.3-5.4-5.3
						c-3.1,0-5.6,2.4-5.6,5.7s2.5,5.7,5.9,5.7c1.1,0,2.1-0.2,2.9-0.4v0.6c-0.8,0.3-1.7,0.4-2.9,0.4c-3.7,0-6.5-2.6-6.5-6.2
						c0-3.4,2.7-6.2,6.2-6.2C61.1,953.3,63.2,956.4,63.2,959.2z M58.3,959.5c0-0.8-0.6-1.4-1.3-1.4c-0.8,0-1.3,0.5-1.3,1.4
						c0,0.8,0.6,1.3,1.3,1.3C57.8,960.9,58.3,960.3,58.3,959.5z"/>
				</g>
			</g>
			<g>
				<g>
					<path class="st1" d="M69.4,955.1v2c-1.2-0.1-2.6,0.5-2.6,2.4v4.3h-1.9v-8.6h1.9v1.4C67.3,955.5,68.3,955.1,69.4,955.1z"/>
				</g>
			</g>
			<g>
				<g>
					<path class="st1" d="M74.6,962.3c1,0,1.8-0.5,2.2-1.1l1.5,0.9c-0.8,1.2-2.1,1.9-3.8,1.9c-2.8,0-4.7-1.9-4.7-4.5
						c0-2.5,1.8-4.5,4.5-4.5c2.6,0,4.3,2.1,4.3,4.5c0,0.3,0,0.5-0.1,0.8h-6.8C72.1,961.6,73.2,962.3,74.6,962.3z M76.9,958.8
						c-0.3-1.5-1.3-2.1-2.5-2.1c-1.4,0-2.3,0.8-2.6,2.1H76.9z"/>
				</g>
			</g>
			<g>
				<g>
					<path class="st1" d="M88.9,955.2v8.6H87v-1.2c-0.7,0.9-1.7,1.5-3,1.5c-2.3,0-4.3-2-4.3-4.5c0-2.6,1.9-4.5,4.3-4.5
						c1.3,0,2.3,0.5,3,1.4v-1.2L88.9,955.2L88.9,955.2z M87.1,959.5c0-1.6-1.2-2.7-2.7-2.7s-2.7,1.1-2.7,2.7c0,1.6,1.2,2.7,2.7,2.7
						C85.9,962.3,87.1,961.1,87.1,959.5z"/>
				</g>
			</g>
			<g>
				<g>
					<path class="st1" d="M91.1,951.3H93v12.5h-1.9V951.3z"/>
				</g>
			</g>
			<g>
				<g>
					<path class="st1" d="M102.9,955.2l-3.3,8.6h-2.1l-3.3-8.6h2l2.4,6.5l2.4-6.5H102.9z"/>
				</g>
			</g>
			<g>
				<g>
					<path class="st1" d="M104.2,955.2h1.9v8.9c0,2.4-1.2,3.5-3.5,3.3v-1.8c1.1,0.1,1.7-0.3,1.7-1.5L104.2,955.2L104.2,955.2z
						 M104,952.8c0-0.7,0.5-1.2,1.2-1.2s1.2,0.5,1.2,1.2c0,0.6-0.5,1.2-1.2,1.2S104,953.4,104,952.8z"/>
				</g>
			</g>
			<g>
				<g>
					<path class="st1" d="M116,955.2l-3.3,8.8c-0.8,2.2-2.2,3.3-4.2,3.2v-1.7c1.2,0.1,1.9-0.5,2.3-1.7l0.1-0.2l-3.6-8.4h2l2.6,6.2
						l2.2-6.2L116,955.2L116,955.2z"/>
				</g>
			</g>
		</g>
		<g>
			<g>
				<path class="st1" d="M58.9,938.7c0,2.1-1.5,3.8-3.6,3.8h-3v-7.6h3C57.4,934.9,58.9,936.6,58.9,938.7z M57.9,938.7
					c0-1.6-1.1-2.9-2.6-2.9h-2v5.7h2C56.8,941.6,57.9,940.3,57.9,938.7z"/>
			</g>
			<g>
				<path class="st1" d="M67,941.6v1h-4.6V935h4.5v1h-3.5v2.3h3.2v0.9h-3.2v2.4L67,941.6L67,941.6z"/>
			</g>
			<g>
				<path class="st1" d="M70,940.8l0.9-0.5c0.3,0.8,0.9,1.4,2,1.4s1.6-0.5,1.6-1.2c0-0.8-0.7-1-1.8-1.4c-1.2-0.4-2.4-0.8-2.4-2.2
					s1.1-2.2,2.4-2.2s2.2,0.7,2.6,1.7l-0.8,0.5c-0.3-0.7-0.8-1.2-1.7-1.2c-0.8,0-1.4,0.4-1.4,1.1c0,0.7,0.5,1,1.6,1.3
					c1.3,0.4,2.6,0.8,2.6,2.3c0,1.3-1.1,2.2-2.6,2.2C71.5,942.7,70.4,941.9,70,940.8z"/>
			</g>
			<g>
				<path class="st1" d="M80,934.9v7.6h-1v-7.6H80z"/>
			</g>
			<g>
				<path class="st1" d="M91.3,939.2c0,1.9-1.4,3.5-3.7,3.5c-2.4,0-4-1.8-4-4s1.7-4,4-4c1.4,0,2.7,0.8,3.3,1.8L90,937
					c-0.4-0.8-1.4-1.4-2.4-1.4c-1.8,0-3,1.3-3,3s1.2,3,3,3c1.6,0,2.5-0.9,2.7-2h-2.8v-0.9h3.8V939.2z"/>
			</g>
			<g>
				<path class="st1" d="M100.6,934.9v7.6h-0.8l-3.9-5.7v5.7h-1v-7.6h0.8l3.9,5.7v-5.7H100.6z"/>
			</g>
			<g>
				<path class="st1" d="M109.1,941.6v1h-4.6V935h4.5v1h-3.5v2.3h3.2v0.9h-3.2v2.4L109.1,941.6L109.1,941.6z"/>
			</g>
			<g>
				<path class="st1" d="M119.2,938.7c0,2.1-1.5,3.8-3.6,3.8h-3v-7.6h3C117.6,934.9,119.2,936.6,119.2,938.7z M118.2,938.7
					c0-1.6-1.1-2.9-2.6-2.9h-2v5.7h2C117.1,941.6,118.2,940.3,118.2,938.7z"/>
			</g>
			<g>
				<path class="st1" d="M133.2,940.4c0,1.2-1,2.2-2.2,2.2h-3.3V935h3c1.2,0,2.1,0.9,2.1,2.1c0,0.7-0.3,1.2-0.8,1.6
					C132.7,938.9,133.2,939.5,133.2,940.4z M128.7,935.8v2.3h2c0.6,0,1.1-0.5,1.1-1.2c0-0.6-0.5-1.2-1.1-1.2h-2V935.8z M132.2,940.3
					c0-0.7-0.5-1.2-1.2-1.2h-2.3v2.5h2.3C131.7,941.6,132.2,941,132.2,940.3z"/>
			</g>
			<g>
				<path class="st1" d="M139.4,939.4v3.1h-1v-3.1l-2.7-4.5h1.1l2.1,3.6l2.1-3.6h1.1L139.4,939.4z"/>
			</g>
		</g>
		<g>
			<path class="st1" d="M211,935v7.7h-0.8l-4-5.8v5.8h-1V935h0.8l4,5.7V935H211z"/>
			<path class="st1" d="M219.4,941.7v1h-4.6V935h4.5v1h-3.5v2.4h3.2v1h-3.2v2.4H219.4z"/>
			<path class="st1" d="M222.3,935h1.1l1.8,6.3l1.9-6.3h1l1.9,6.3l1.8-6.3h1.1l-2.2,7.7h-1.2l-1.8-6.1l-1.8,6.1h-1.2L222.3,935z"/>
			<path class="st1" d="M243.2,935v7.7h-1v-6.6l-1.6,0.5l-0.3-0.9l2-0.7H243.2z"/>
			<path class="st1" d="M249.3,935v7.7h-1v-6.6l-1.6,0.5l-0.3-0.9l2-0.7H249.3z"/>
			<path class="st1" d="M257.4,935v0.9l-2.8,6.8h-1.1l2.8-6.7h-3.7v-1H257.4z"/>
		</g>
		<g>
			<path class="st1" d="M208.1,951.2v12.4h-2.5v-12.4H208.1z"/>
			<path class="st1" d="M215.3,954.6v2.6c-1.2-0.1-2.7,0.4-2.7,2.3v4.2h-2.3v-8.9h2.3v1.5C213,955.1,214.2,954.6,215.3,954.6z"/>
			<path class="st1" d="M215.8,959.2c0-2.6,2.1-4.7,4.7-4.7c2.6,0,4.7,2,4.7,4.7s-2.1,4.7-4.7,4.7
				C217.9,963.9,215.8,961.8,215.8,959.2z M222.9,959.2c0-1.4-1-2.5-2.4-2.5c-1.4,0-2.4,1-2.4,2.5s1,2.5,2.4,2.5
				C221.9,961.6,222.9,960.6,222.9,959.2z"/>
			<path class="st1" d="M235.1,958.2v5.5h-2.3v-5.2c0-1.2-0.7-1.8-1.8-1.8c-1.1,0-2,0.7-2,2.2v4.8h-2.3v-8.9h2.3v1
				c0.5-0.8,1.5-1.2,2.6-1.2C233.6,954.5,235.1,955.8,235.1,958.2z"/>
			<path class="st1" d="M250.2,958.2v5.5H248v-5.3c0-1-0.5-1.7-1.5-1.7c-1,0-1.7,0.7-1.7,2v5h-2.3v-5.3c0-1-0.5-1.7-1.5-1.7
				c-1,0-1.7,0.7-1.7,2v5h-2.3v-8.9h2.3v0.9c0.5-0.7,1.3-1.2,2.5-1.2c1.1,0,1.9,0.5,2.4,1.3c0.6-0.8,1.4-1.3,2.6-1.3
				C248.9,954.5,250.2,955.9,250.2,958.2z"/>
			<path class="st1" d="M261.2,954.7v8.9h-2.3v-1c-0.6,0.8-1.6,1.3-2.9,1.3c-2.4,0-4.3-2-4.3-4.7s2-4.7,4.3-4.7
				c1.3,0,2.3,0.5,2.9,1.3v-1H261.2z M258.9,959.2c0-1.5-1-2.5-2.5-2.5c-1.4,0-2.5,1-2.5,2.5s1,2.5,2.5,2.5
				C257.9,961.7,258.9,960.7,258.9,959.2z"/>
			<path class="st1" d="M271.6,958.2v5.5h-2.3v-5.2c0-1.2-0.7-1.8-1.8-1.8c-1.1,0-2,0.7-2,2.2v4.8h-2.3v-8.9h2.3v1
				c0.5-0.8,1.5-1.2,2.6-1.2C270.1,954.5,271.6,955.8,271.6,958.2z"/>
		</g>
		<g>
			<g>
				<g>
					<g>
						<path class="st1" d="M848.1,938.4c0,2.1-1.5,3.8-3.6,3.8h-3v-7.6h3C846.6,934.6,848.1,936.3,848.1,938.4z M847.2,938.4
							c0-1.6-1.1-2.9-2.6-2.9h-2v5.7h2C846.1,941.3,847.2,940.1,847.2,938.4z"/>
					</g>
				</g>
				<g>
					<g>
						<path class="st1" d="M851.3,938.4c0-2.2,1.7-4,3.9-4c2.2,0,4,1.8,4,4c0,2.2-1.7,4-4,4C853,942.4,851.3,940.6,851.3,938.4z
							 M858.1,938.4c0-1.7-1.3-3-2.9-3c-1.7,0-2.9,1.3-2.9,3c0,1.7,1.3,3,2.9,3C856.9,941.4,858.1,940.1,858.1,938.4z"/>
					</g>
				</g>
				<g>
					<g>
						<path class="st1" d="M861.8,934.6h1.1l1.7,6.3l1.9-6.3h1l1.9,6.3l1.7-6.3h1.1l-2.2,7.6h-1.2l-1.8-6.1l-1.8,6.1H864
							L861.8,934.6z"/>
					</g>
				</g>
				<g>
					<g>
						<path class="st1" d="M881.3,934.6v7.6h-0.8l-3.9-5.7v5.7h-1v-7.6h0.8l3.9,5.7v-5.7H881.3z"/>
					</g>
				</g>
				<g>
					<g>
						<path class="st1" d="M889.5,941.3v1h-4.3v-7.6h1v6.7H889.5z"/>
					</g>
				</g>
				<g>
					<g>
						<path class="st1" d="M891.9,938.4c0-2.2,1.7-4,3.9-4c2.2,0,4,1.8,4,4c0,2.2-1.7,4-4,4C893.6,942.4,891.9,940.6,891.9,938.4z
							 M898.8,938.4c0-1.7-1.3-3-2.9-3c-1.7,0-2.9,1.3-2.9,3c0,1.7,1.3,3,2.9,3C897.5,941.4,898.8,940.1,898.8,938.4z"/>
					</g>
				</g>
				<g>
					<g>
						<path class="st1" d="M907.4,940.6H904l-0.6,1.7h-1.1l2.8-7.6h1.1l2.8,7.6H908L907.4,940.6z M907.1,939.6l-1.4-3.8l-1.4,3.8
							H907.1z"/>
					</g>
				</g>
				<g>
					<g>
						<path class="st1" d="M918.9,938.4c0,2.1-1.5,3.8-3.6,3.8h-3v-7.6h3C917.4,934.6,918.9,936.3,918.9,938.4z M917.9,938.4
							c0-1.6-1.1-2.9-2.6-2.9h-2v5.7h2C916.9,941.3,917.9,940.1,917.9,938.4z"/>
					</g>
				</g>
				<g>
					<g>
						<path class="st1" d="M928.5,935.6v2.5h3.2v1h-3.2v3.2h-1v-7.6h4.4v1H928.5z"/>
					</g>
				</g>
				<g>
					<g>
						<path class="st1" d="M938.2,939.3h-1.8v2.9h-1v-7.6h3c1.3,0,2.4,1.1,2.4,2.4c0,1-0.7,1.9-1.6,2.2l1.8,3.1h-1.1L938.2,939.3z
							 M936.4,938.4h2c0.8,0,1.4-0.6,1.4-1.4c0-0.8-0.6-1.4-1.4-1.4h-2V938.4z"/>
					</g>
				</g>
				<g>
					<g>
						<path class="st1" d="M943.9,938.4c0-2.2,1.7-4,3.9-4c2.2,0,4,1.8,4,4c0,2.2-1.7,4-4,4C945.6,942.4,943.9,940.6,943.9,938.4z
							 M950.8,938.4c0-1.7-1.3-3-2.9-3c-1.7,0-2.9,1.3-2.9,3c0,1.7,1.3,3,2.9,3C949.5,941.4,950.8,940.1,950.8,938.4z"/>
					</g>
				</g>
				<g>
					<g>
						<path class="st1" d="M962.4,942.3h-1v-6l-2.5,4.2h-0.1l-2.5-4.1v5.9h-1v-7.6h1.1l2.4,4l2.4-4h1.1V942.3z"/>
					</g>
				</g>
			</g>
			<g>
				<g>
					<g>
						<path class="st1" d="M841.3,952.6c0-0.7,0.5-1.2,1.2-1.2c0.7,0,1.2,0.5,1.2,1.2c0,0.7-0.5,1.2-1.2,1.2
							C841.9,953.9,841.3,953.3,841.3,952.6z M841.6,955.2h1.9v8.9h-1.9V955.2z"/>
					</g>
				</g>
				<g>
					<g>
						<path class="st1" d="M845.7,951.1h1.9V964h-1.9V951.1z"/>
					</g>
				</g>
				<g>
					<g>
						<path class="st1" d="M849.8,951.1h1.9V964h-1.9V951.1z"/>
					</g>
				</g>
				<g>
					<g>
						<path class="st1" d="M854,951.1h1.9V964H854V951.1z"/>
					</g>
				</g>
				<g>
					<g>
						<path class="st1" d="M866,955.2v8.9h-1.9v-1.1c-0.6,0.9-1.5,1.4-2.7,1.4c-2,0-3.4-1.3-3.4-3.6v-5.4h1.9v5.2
							c0,1.3,0.8,2.1,2,2.1c1.3,0,2.2-0.7,2.2-2.5v-4.7H866z"/>
					</g>
				</g>
				<g>
					<g>
						<path class="st1" d="M874.6,961.6c0,1.8-1.5,2.7-3.5,2.7c-1.8,0-3-0.8-3.6-2.1l1.6-1c0.3,0.8,1,1.3,2,1.3c0.8,0,1.5-0.3,1.5-1
							c0-1.6-4.8-0.7-4.8-3.9c0-1.7,1.4-2.7,3.2-2.7c1.5,0,2.7,0.7,3.3,1.8l-1.6,0.9c-0.3-0.7-0.9-1-1.7-1c-0.7,0-1.3,0.3-1.3,0.9
							C869.9,959.3,874.6,958.3,874.6,961.6z"/>
					</g>
				</g>
				<g>
					<g>
						<path class="st1" d="M878.7,957v4.2c0,1.1,0.7,1.1,2.2,1v1.7c-2.9,0.4-4.1-0.5-4.1-2.8V957h-1.6v-1.8h1.6v-1.9l1.9-0.6v2.5
							h2.2v1.8H878.7z"/>
					</g>
				</g>
				<g>
					<g>
						<path class="st1" d="M887.4,955v2.1c-1.3-0.1-2.7,0.5-2.7,2.5v4.5h-1.9v-8.9h1.9v1.5C885.2,955.5,886.2,955,887.4,955z"/>
					</g>
				</g>
				<g>
					<g>
						<path class="st1" d="M897.3,955.2v8.9h-1.9v-1.3c-0.7,0.9-1.7,1.5-3.1,1.5c-2.4,0-4.4-2-4.4-4.7c0-2.6,2-4.7,4.4-4.7
							c1.4,0,2.4,0.6,3.1,1.5v-1.3H897.3z M895.4,959.6c0-1.6-1.2-2.8-2.8-2.8c-1.6,0-2.8,1.2-2.8,2.8c0,1.6,1.2,2.8,2.8,2.8
							C894.2,962.5,895.4,961.3,895.4,959.6z"/>
					</g>
				</g>
				<g>
					<g>
						<path class="st1" d="M902.3,957v4.2c0,1.1,0.7,1.1,2.2,1v1.7c-2.9,0.4-4.1-0.5-4.1-2.8V957h-1.6v-1.8h1.6v-1.9l1.9-0.6v2.5
							h2.2v1.8H902.3z"/>
					</g>
				</g>
				<g>
					<g>
						<path class="st1" d="M905.9,952.6c0-0.7,0.5-1.2,1.2-1.2c0.7,0,1.2,0.5,1.2,1.2c0,0.7-0.5,1.2-1.2,1.2
							C906.5,953.9,905.9,953.3,905.9,952.6z M906.2,955.2h1.9v8.9h-1.9V955.2z"/>
					</g>
				</g>
				<g>
					<g>
						<path class="st1" d="M909.8,959.6c0-2.6,2.1-4.7,4.7-4.7c2.6,0,4.7,2,4.7,4.7c0,2.6-2.1,4.7-4.7,4.7
							C911.9,964.3,909.8,962.2,909.8,959.6z M917.3,959.6c0-1.6-1.2-2.8-2.8-2.8c-1.6,0-2.8,1.2-2.8,2.8c0,1.6,1.2,2.8,2.8,2.8
							C916.1,962.4,917.3,961.2,917.3,959.6z"/>
					</g>
				</g>
				<g>
					<g>
						<path class="st1" d="M929,958.6v5.4h-1.9v-5.2c0-1.3-0.8-2.1-2-2.1c-1.3,0-2.2,0.7-2.2,2.5v4.7h-1.9v-8.9h1.9v1.1
							c0.6-0.9,1.5-1.4,2.7-1.4C927.5,955,929,956.3,929,958.6z"/>
					</g>
				</g>
				<g>
					<g>
						<path class="st1" d="M937.5,961.6c0,1.8-1.5,2.7-3.5,2.7c-1.8,0-3-0.8-3.6-2.1l1.6-1c0.3,0.8,1,1.3,2,1.3c0.8,0,1.5-0.3,1.5-1
							c0-1.6-4.8-0.7-4.8-3.9c0-1.7,1.4-2.7,3.2-2.7c1.5,0,2.7,0.7,3.3,1.8l-1.6,0.9c-0.3-0.7-0.9-1-1.7-1c-0.7,0-1.3,0.3-1.3,0.9
							C932.7,959.3,937.5,958.3,937.5,961.6z"/>
					</g>
				</g>
				<g>
					<g>
						<path class="st1" d="M938.8,962.9c0-0.7,0.6-1.3,1.3-1.3c0.7,0,1.3,0.6,1.3,1.3c0,0.7-0.6,1.3-1.3,1.3
							C939.4,964.3,938.8,963.7,938.8,962.9z"/>
					</g>
				</g>
				<g>
					<g>
						<path class="st1" d="M942.3,959.6c0-2.6,2-4.7,4.7-4.7c1.7,0,3.2,0.9,3.9,2.3l-1.6,1c-0.4-0.8-1.3-1.4-2.3-1.4
							c-1.6,0-2.7,1.2-2.7,2.8c0,1.6,1.2,2.8,2.7,2.8c1.1,0,1.9-0.5,2.4-1.4l1.6,0.9c-0.7,1.4-2.2,2.3-4,2.3
							C944.3,964.3,942.3,962.2,942.3,959.6z"/>
					</g>
				</g>
				<g>
					<g>
						<path class="st1" d="M951.7,959.6c0-2.6,2.1-4.7,4.7-4.7c2.6,0,4.7,2,4.7,4.7c0,2.6-2.1,4.7-4.7,4.7
							C953.8,964.3,951.7,962.2,951.7,959.6z M959.2,959.6c0-1.6-1.2-2.8-2.8-2.8s-2.8,1.2-2.8,2.8c0,1.6,1.2,2.8,2.8,2.8
							S959.2,961.2,959.2,959.6z"/>
					</g>
				</g>
			</g>
		</g>
	</g>
</g>
<g>
	<path class="st2" d="M649.6,316.4c-20.9-25.4-49.2-45.2-81.9-56.9c-20.9-7.4-43.6-11.5-67.3-11.5c-23.7,0-46.4,4.1-67.3,11.5
		c-32.7,11.6-61,31.5-81.9,56.9c-24.1,29.1-18.3,159.9-16,188.3c1.7,12.2,4.9,23.4,9,33.2c0.1,0.1,0.1,0.3,0.2,0.4
		c5.2,12.4,11.8,22.7,18.2,30.2c2.9,27.5,3.5,69.4,6.1,97.3c10.1,17.7,15.2,26.8,30.4,43.1l6.5,6.5c5.5,5.5,11.4,11.4,17.6,17.6
		l3.8,3.8c0,0,0.3,0.3,1,1.2c0.4,0.4,0.7,0.8,1,1.2c1.5,1.7,3.9,4.6,7.6,9.1c1,1.2,2.1,2.5,3.1,3.8h60.8h60.8c1-1.3,2.1-2.5,3.1-3.8
		c3.7-4.4,6.1-7.3,7.6-9.1c0.3-0.4,0.7-0.8,1-1.2c0.7-0.8,1-1.2,1-1.2l3.8-3.8c6.2-6.2,12-12.1,17.6-17.6l6.5-6.5
		c15.2-16.3,20.3-25.3,30.4-43.1c2.5-27.9,3.2-69.8,6.1-97.3c6.4-7.5,13-17.7,18.2-30.2c0.1-0.1,0.1-0.2,0.2-0.4
		c4.1-9.8,7.3-21,9-33.2C667.9,476.4,673.7,345.6,649.6,316.4z M634.7,496c-5.6,4.2-38.8,8.6-50.7,7.6c-30.4-2.5-45.8-7.4-48.8-8.3
		c-5.4-11.6-6.9-14.5-6.9-14.5h-27.9h-27.9c0,0-1.5,2.9-6.9,14.5c-3.1,0.9-18.4,5.8-48.8,8.3c-11.9,1-45.1-3.4-50.7-7.6
		c-5.1-15.2-7.6-32.9-7.6-32.9s3.2-8.6,5.4-17.4c17.4,17.7,116.8,21.8,133.9,22.3c0.5,0,0.9,0.1,1.2,0.1c0.1,0,0.1,0,0.2,0
		c0.8,0.1,1.2,0.1,1.2,0.1s0.4,0,1.2-0.1c0.1,0,0.1,0,0.2,0c0.3,0,0.7,0,1.2-0.1c17.2-0.6,116.5-4.6,133.9-22.3
		c2.2,8.7,5.4,17.4,5.4,17.4S639.8,480.8,634.7,496z"/>
	<g>
		<path class="st3" d="M642.3,463.5c0,0-2.5,17.7-7.6,32.9c-5.6,4.2-38.8,8.6-50.7,7.6c-30.4-2.5-45.8-7.1-48.8-8.1
			c-5.4-11.6-6.9-14.2-6.9-14.2h-55.8c0,0-1.5,2.6-6.9,14.2c-3.1,0.9-18.4,5.7-48.8,8.2c-11.9,1-45.1-3.5-50.7-7.7
			c-5.1-15.2-7.6-33-7.6-33s3.2-8.6,5.4-17.4c17.4,17.7,116.8,22,133.9,22.6c0.5,0,0.9,0.3,1.2,0.3h0.2c0.8,0,1.2,0.1,1.2,0.1
			s0.4-0.1,1.2-0.1h0.2c0.3,0,0.7-0.3,1.2-0.3c17.2-0.6,116.5-4.8,133.9-22.5C639.1,455,642.3,463.5,642.3,463.5z"/>
		<path class="st4" d="M642,463.6c0,0-2.5,17.6-7.6,32.7c-5.6,4.1-38.7,8.5-50.6,7.5c-30.3-2.5-45.7-7.1-48.7-8
			c-5.4-11.5-6.9-14.1-6.9-14.1h-55.6c0,0-1.5,2.6-6.9,14.1c-3.1,0.9-18.4,5.6-48.7,8.1c-11.9,1-45-3.5-50.6-7.6
			c-5.1-15.1-7.6-32.7-7.6-32.7s3.2-8.6,5.4-17.2c17.4,17.5,116.5,21.6,133.6,22.4c0.5,0,0.9,0.3,1.2,0.3h0.2c0.8,0,1.2,0.1,1.2,0.1
			s0.4-0.1,1.2-0.1h0.2c0.3,0,0.7-0.3,1.2-0.3c17.1-0.8,116.2-4.8,133.6-22.3C638.8,455.2,642,463.6,642,463.6z"/>
		<path class="st5" d="M641.6,463.7c0,0-2.5,17.4-7.6,32.4c-5.6,4.1-38.6,8.5-50.4,7.5c-30.3-2.5-45.5-7-48.6-7.9
			c-5.4-11.4-6.9-14-6.9-14h-55.5c0,0-1.5,2.6-6.9,14c-3.1,0.9-18.3,5.6-48.6,8c-11.9,1-44.9-3.4-50.4-7.5
			c-5-14.9-7.6-32.4-7.6-32.4s3.2-8.5,5.4-17.1c17.3,17.3,116.2,21.4,133.3,22.2c0.5,0,0.9,0.3,1.2,0.3h0.2c0.8,0,1.2,0,1.2,0
			s0.4,0,1.2,0h0.2c0.3,0,0.7-0.3,1.2-0.3c17.1-0.8,115.9-4.7,133.3-22.1C638.4,455.4,641.6,463.7,641.6,463.7z"/>
		<path class="st6" d="M641.3,463.8c0,0-2.5,17.3-7.5,32.1c-5.6,4.1-38.5,8.4-50.3,7.4c-30.2-2.5-45.4-7-48.5-7.8
			c-5.4-11.3-6.9-13.9-6.9-13.9h-55.3c0,0-1.5,2.5-6.9,13.9c-3,0.9-18.3,5.5-48.5,8c-11.8,1-44.7-3.4-50.3-7.5
			c-5-14.8-7.5-32.1-7.5-32.1s3.2-8.4,5.4-16.9c17.3,17.2,115.9,21.2,132.9,22c0.5,0,0.9,0.3,1.2,0.3h0.2c0.8,0,1.2,0,1.2,0
			s0.4,0,1.2,0h0.2c0.3,0,0.7-0.3,1.2-0.3c17-0.7,115.6-4.7,132.9-21.9C638.1,455.5,641.3,463.8,641.3,463.8z"/>
		<path class="st7" d="M640.9,463.9c0,0-2.5,17.1-7.5,31.8c-5.5,4-38.4,8.3-50.2,7.3c-30.1-2.4-45.3-6.9-48.3-7.8
			c-5.4-11.2-6.8-13.7-6.8-13.7h-55.2c0,0-1.5,2.5-6.8,13.7c-3,0.9-18.2,5.5-48.3,7.9c-11.8,1-44.6-3.4-50.2-7.4
			c-5-14.7-7.5-31.8-7.5-31.8s3.2-8.3,5.4-16.8c17.3,17,115.6,21.1,132.6,21.8c0.5,0,0.9,0.3,1.2,0.3h0.2c0.8,0,1.2,0,1.2,0
			s0.4,0,1.2,0h0.2c0.3,0,0.7-0.3,1.2-0.3c17-0.7,115.3-4.6,132.6-21.7C637.7,455.7,640.9,463.9,640.9,463.9z"/>
		<path class="st8" d="M640.5,464c0,0-2.5,17-7.5,31.5c-5.5,4-38.3,8.2-50,7.3c-30-2.4-45.2-6.8-48.2-7.7
			c-5.4-11.1-6.8-13.6-6.8-13.6h-55c0,0-1.5,2.5-6.8,13.6c-3,0.9-18.2,5.4-48.2,7.8c-11.8,1-44.5-3.3-50-7.3
			c-5-14.5-7.5-31.5-7.5-31.5s3.2-8.2,5.4-16.6c17.2,16.9,115.3,20.9,132.2,21.6c0.5,0,0.9,0.3,1.2,0.3h0.2c0.8,0,1.2,0,1.2,0
			s0.4,0,1.2,0h0.2c0.3,0,0.7-0.3,1.2-0.3c17-0.7,115-4.6,132.2-21.5C637.4,455.9,640.5,464,640.5,464z"/>
		<path class="st9" d="M640.2,464.1c0,0-2.5,16.8-7.5,31.2c-5.5,4-38.2,8.2-49.9,7.2c-30-2.4-45.1-6.8-48.1-7.6
			c-5.3-11-6.8-13.5-6.8-13.5H473c0,0-1.5,2.5-6.8,13.5c-3,0.9-18.1,5.3-48.1,7.7c-11.7,1-44.4-3.3-49.9-7.3
			c-5-14.4-7.5-31.2-7.5-31.2s3.2-8.2,5.4-16.4c17.2,16.7,115,20.7,131.9,21.4c0.4,0,0.9,0.3,1.2,0.3h0.2c0.8,0,1.1,0,1.1,0
			s0.4,0,1.1,0h0.2c0.3,0,0.7-0.3,1.2-0.3c16.9-0.7,114.7-4.5,131.9-21.3C637,456.1,640.2,464.1,640.2,464.1z"/>
		<path class="st10" d="M639.8,464.2c0,0-2.5,16.6-7.5,30.9c-5.5,3.9-38.1,8.1-49.8,7.1c-29.9-2.4-45-6.7-48-7.6
			c-5.3-10.9-6.8-13.4-6.8-13.4H473c0,0-1.5,2.4-6.8,13.4c-3,0.9-18.1,5.3-48,7.7c-11.7,1-44.3-3.3-49.8-7.2
			c-5-14.3-7.5-30.9-7.5-30.9s3.2-8.1,5.4-16.3c17.1,16.6,114.7,20.5,131.6,21.2c0.4,0,0.9,0.3,1.2,0.3h0.2c0.8,0,1.1,0,1.1,0
			s0.4,0,1.1,0h0.2c0.3,0,0.7-0.3,1.2-0.3c16.9-0.7,114.4-4.5,131.6-21.1C636.7,456.3,639.8,464.2,639.8,464.2z"/>
		<path class="st11" d="M639.5,464.4c0,0-2.5,16.5-7.4,30.6c-5.5,3.9-38,8-49.7,7.1c-29.8-2.4-44.8-6.6-47.8-7.5
			c-5.3-10.8-6.8-13.2-6.8-13.2h-54.6c0,0-1.5,2.4-6.8,13.2c-3,0.8-18.1,5.2-47.8,7.6c-11.7,0.9-44.2-3.2-49.7-7.1
			c-5-14.1-7.4-30.6-7.4-30.6s3.2-8,5.3-16.1c17.1,16.4,114.4,20.3,131.2,21c0.4,0,0.9,0.3,1.2,0.3h0.2c0.8,0,1.1,0,1.1,0
			s0.4,0,1.1,0h0.2c0.3,0,0.7-0.3,1.2-0.3c16.8-0.7,114.1-4.5,131.2-20.9C636.3,456.5,639.5,464.4,639.5,464.4z"/>
		<path class="st12" d="M639.1,464.5c0,0-2.5,16.3-7.4,30.3c-5.5,3.8-37.9,7.9-49.5,7c-29.7-2.3-44.7-6.6-47.7-7.4
			c-5.3-10.7-6.8-13.1-6.8-13.1h-54.5c0,0-1.5,2.4-6.8,13.1c-3,0.8-18,5.2-47.7,7.5c-11.6,0.9-44.1-3.2-49.5-7.1
			c-5-14-7.4-30.3-7.4-30.3s3.1-7.9,5.3-16c17,16.2,114.1,20.1,130.9,20.8c0.4,0,0.9,0.3,1.2,0.3h0.2c0.8,0,1.1,0,1.1,0s0.4,0,1.1,0
			h0.2c0.3,0,0.7-0.3,1.2-0.3c16.8-0.7,113.9-4.4,130.9-20.7C636,456.7,639.1,464.5,639.1,464.5z"/>
		<path class="st13" d="M638.8,464.6c0,0-2.5,16.2-7.4,30c-5.5,3.8-37.8,7.9-49.4,6.9c-29.6-2.3-44.6-6.5-47.6-7.3
			c-5.3-10.6-6.7-13-6.7-13h-54.3c0,0-1.5,2.4-6.7,13c-3,0.8-18,5.1-47.6,7.5c-11.6,0.9-43.9-3.2-49.4-7c-4.9-13.9-7.4-30-7.4-30
			s3.1-7.9,5.3-15.8c17,16.1,113.8,19.9,130.6,20.6c0.4,0,0.9,0.3,1.2,0.3h0.2c0.8,0,1.1,0,1.1,0s0.4,0,1.1,0h0.2
			c0.3,0,0.7-0.3,1.2-0.3c16.7-0.7,113.6-4.4,130.6-20.5C635.6,456.8,638.8,464.6,638.8,464.6z"/>
		<path class="st14" d="M638.4,464.7c0,0-2.5,16-7.4,29.7c-5.4,3.8-37.7,7.8-49.3,6.9c-29.6-2.3-44.5-6.4-47.5-7.3
			c-5.3-10.5-6.7-12.8-6.7-12.8h-54.2c0,0-1.5,2.4-6.7,12.8c-3,0.8-17.9,5.1-47.5,7.4c-11.6,0.9-43.8-3.1-49.3-6.9
			c-4.9-13.7-7.4-29.8-7.4-29.8s3.1-7.8,5.3-15.7c17,15.9,113.5,19.7,130.2,20.4c0.4,0,0.9,0.3,1.2,0.3h0.2c0.8,0,1.1,0,1.1,0
			s0.4,0,1.1,0h0.2c0.3,0,0.7-0.3,1.2-0.3c16.7-0.7,113.3-4.3,130.2-20.3C635.3,457,638.4,464.7,638.4,464.7z"/>
		<path class="st15" d="M638,464.8c0,0-2.5,15.8-7.4,29.4c-5.4,3.7-37.6,7.7-49.2,6.8c-29.5-2.3-44.4-6.4-47.4-7.2
			c-5.3-10.4-6.7-12.7-6.7-12.7h-54.1c0,0-1.5,2.3-6.7,12.7c-3,0.8-17.9,5-47.4,7.3c-11.6,0.9-43.7-3.1-49.2-6.8
			c-4.9-13.6-7.4-29.5-7.4-29.5s3.1-7.7,5.3-15.5c16.9,15.8,113.2,19.5,129.9,20.2c0.4,0,0.9,0.3,1.2,0.3h0.2c0.8,0,1.1,0,1.1,0
			s0.4,0,1.1,0h0.2c0.3,0,0.7-0.3,1.2-0.3c16.7-0.7,113-4.3,129.9-20.1C634.9,457.2,638,464.8,638,464.8z"/>
		<path class="st16" d="M637.7,464.9c0,0-2.5,15.7-7.4,29.1c-5.4,3.7-37.5,7.6-49,6.7c-29.4-2.2-44.3-6.3-47.2-7.1
			c-5.2-10.3-6.7-12.6-6.7-12.6h-53.9c0,0-1.4,2.3-6.7,12.6c-3,0.8-17.8,5-47.2,7.2c-11.5,0.9-43.6-3.1-49-6.8
			c-4.9-13.4-7.4-29.2-7.4-29.2s3.1-7.6,5.3-15.4c16.9,15.6,112.9,19.3,129.5,20c0.4,0,0.9,0.3,1.2,0.3h0.2c0.8,0,1.1,0,1.1,0
			s0.4,0,1.1,0h0.2c0.3,0,0.7-0.3,1.2-0.3c16.6-0.7,112.7-4.2,129.5-19.9C634.6,457.4,637.7,464.9,637.7,464.9z"/>
		<path class="st17" d="M637.3,465c0,0-2.4,15.5-7.3,28.8c-5.4,3.7-37.4,7.5-48.9,6.7c-29.3-2.2-44.2-6.3-47.1-7.1
			c-5.2-10.2-6.7-12.5-6.7-12.5h-53.8c0,0-1.4,2.3-6.7,12.5c-3,0.8-17.8,4.9-47.1,7.2c-11.5,0.9-43.5-3.1-48.9-6.7
			c-4.9-13.3-7.3-28.9-7.3-28.9s3.1-7.6,5.3-15.2c16.8,15.5,112.6,19.1,129.2,19.8c0.4,0,0.9,0.3,1.1,0.3h0.2c0.8,0,1.1,0,1.1,0
			s0.4,0,1.1,0h0.2c0.3,0,0.7-0.3,1.1-0.3c16.6-0.7,112.4-4.2,129.2-19.7C634.2,457.6,637.3,465,637.3,465z"/>
		<path class="st18" d="M637,465.1c0,0-2.4,15.4-7.3,28.6c-5.4,3.6-37.3,7.5-48.8,6.6c-29.3-2.2-44-6.2-47-7
			c-5.2-10.1-6.7-12.3-6.7-12.3h-53.6c0,0-1.4,2.3-6.7,12.3c-3,0.8-17.7,4.9-47,7.1c-11.5,0.9-43.4-3-48.8-6.6
			c-4.9-13.2-7.3-28.6-7.3-28.6s3.1-7.5,5.2-15.1c16.8,15.3,112.3,18.9,128.9,19.6c0.4,0,0.9,0.3,1.1,0.3h0.2c0.8,0,1.1,0,1.1,0
			s0.4,0,1.1,0h0.2c0.3,0,0.7-0.3,1.1-0.3c16.5-0.7,112.1-4.2,128.9-19.5C633.9,457.8,637,465.1,637,465.1z"/>
		<path class="st19" d="M636.6,465.2c0,0-2.4,15.2-7.3,28.3c-5.4,3.6-37.2,7.4-48.6,6.5c-29.2-2.2-43.9-6.1-46.9-6.9
			c-5.2-10-6.6-12.2-6.6-12.2h-53.5c0,0-1.4,2.2-6.6,12.2c-2.9,0.8-17.7,4.8-46.9,7c-11.4,0.9-43.3-3-48.6-6.6
			c-4.9-13-7.3-28.3-7.3-28.3s3.1-7.4,5.2-14.9c16.7,15.2,112,18.7,128.5,19.4c0.4,0,0.9,0.3,1.1,0.3h0.2c0.8,0,1.1,0,1.1,0
			s0.4,0,1.1,0h0.2c0.3,0,0.7-0.3,1.1-0.3c16.5-0.7,111.8-4.1,128.5-19.3C633.5,458,636.6,465.2,636.6,465.2z"/>
		<path class="st20" d="M636.3,465.3c0,0-2.4,15.1-7.3,28c-5.4,3.5-37.1,7.3-48.5,6.5c-29.1-2.2-43.8-6.1-46.7-6.8
			c-5.2-9.9-6.6-12.1-6.6-12.1h-53.4c0,0-1.4,2.2-6.6,12.1c-2.9,0.8-17.6,4.8-46.7,6.9c-11.4,0.9-43.2-3-48.5-6.5
			c-4.9-12.9-7.3-28-7.3-28s3.1-7.3,5.2-14.7c16.7,15,111.8,18.5,128.2,19.2c0.4,0,0.8,0.3,1.1,0.3h0.2c0.8,0,1.1,0,1.1,0
			s0.4,0,1.1,0h0.2c0.3,0,0.7-0.3,1.1-0.3c16.4-0.7,111.5-4.1,128.2-19.1C633.2,458.1,636.3,465.3,636.3,465.3z"/>
		<path class="st21" d="M635.9,465.5c0,0-2.4,14.9-7.3,27.7c-5.3,3.5-37,7.2-48.4,6.4c-29-2.1-43.7-6-46.6-6.8
			c-5.2-9.8-6.6-12-6.6-12h-53.2c0,0-1.4,2.2-6.6,12c-2.9,0.8-17.6,4.7-46.6,6.9c-11.4,0.9-43-2.9-48.4-6.4
			c-4.8-12.8-7.3-27.7-7.3-27.7s3.1-7.3,5.2-14.6c16.6,14.8,111.5,18.3,127.9,19c0.4,0,0.8,0.3,1.1,0.3h0.2c0.7,0,1.1,0,1.1,0
			s0.4,0,1.1,0h0.2c0.3,0,0.7-0.3,1.1-0.3c16.4-0.6,111.2-4,127.9-18.9C632.8,458.3,635.9,465.5,635.9,465.5z"/>
		<path class="st22" d="M635.5,465.6c0,0-2.4,14.7-7.2,27.4c-5.3,3.5-36.9,7.2-48.3,6.3c-29-2.1-43.6-5.9-46.5-6.7
			c-5.2-9.7-6.6-11.8-6.6-11.8h-53.1c0,0-1.4,2.2-6.6,11.8c-2.9,0.8-17.5,4.7-46.5,6.8c-11.3,0.8-42.9-2.9-48.3-6.4
			c-4.8-12.6-7.2-27.4-7.2-27.4s3.1-7.2,5.2-14.4c16.6,14.7,111.2,18.1,127.5,18.8c0.4,0,0.8,0.3,1.1,0.3h0.2c0.7,0,1.1,0,1.1,0
			s0.4,0,1.1,0h0.2c0.3,0,0.7-0.3,1.1-0.3c16.4-0.6,110.9-4,127.5-18.7C632.5,458.5,635.5,465.6,635.5,465.6z"/>
		<path class="st23" d="M635.2,465.7c0,0-2.4,14.6-7.2,27.1c-5.3,3.4-36.8,7.1-48.1,6.3c-28.9-2.1-43.5-5.9-46.4-6.6
			c-5.1-9.6-6.6-11.7-6.6-11.7h-52.9c0,0-1.4,2.1-6.6,11.7c-2.9,0.8-17.5,4.6-46.4,6.7c-11.3,0.8-42.8-2.9-48.1-6.3
			c-4.8-12.5-7.2-27.1-7.2-27.1s3.1-7.1,5.2-14.3c16.6,14.5,110.9,17.9,127.2,18.6c0.4,0,0.8,0.3,1.1,0.3h0.2c0.7,0,1.1,0,1.1,0
			s0.4,0,1.1,0h0.2c0.3,0,0.7-0.3,1.1-0.3c16.3-0.6,110.6-3.9,127.2-18.5C632.1,458.7,635.2,465.7,635.2,465.7z"/>
		<path class="st24" d="M634.8,465.8c0,0-2.4,14.4-7.2,26.8c-5.3,3.4-36.7,7-48,6.2c-28.8-2.1-43.3-5.8-46.2-6.6
			c-5.1-9.5-6.6-11.6-6.6-11.6H474c0,0-1.4,2.1-6.6,11.6c-2.9,0.7-17.4,4.6-46.2,6.7c-11.3,0.8-42.7-2.8-48-6.2
			c-4.8-12.4-7.2-26.8-7.2-26.8s3-7,5.2-14.1c16.5,14.4,110.6,17.8,126.8,18.4c0.4,0,0.8,0.3,1.1,0.3h0.2c0.7,0,1.1,0,1.1,0
			s0.4,0,1.1,0h0.2c0.3,0,0.7-0.3,1.1-0.3c16.3-0.6,110.3-3.9,126.8-18.3C631.8,458.9,634.8,465.8,634.8,465.8z"/>
		<path class="st25" d="M634.5,465.9c0,0-2.4,14.3-7.2,26.5c-5.3,3.4-36.6,6.9-47.9,6.1c-28.7-2-43.2-5.7-46.1-6.5
			c-5.1-9.4-6.5-11.5-6.5-11.5h-52.7c0,0-1.4,2.1-6.5,11.5c-2.9,0.7-17.4,4.5-46.1,6.6c-11.3,0.8-42.6-2.8-47.9-6.2
			c-4.8-12.2-7.2-26.5-7.2-26.5s3-6.9,5.1-14c16.5,14.2,110.3,17.6,126.5,18.2c0.4,0,0.8,0.3,1.1,0.3h0.2c0.7,0,1.1,0,1.1,0
			s0.4,0,1.1,0h0.2c0.3,0,0.7-0.2,1.1-0.3c16.2-0.6,110-3.9,126.5-18.1C631.4,459.1,634.5,465.9,634.5,465.9z"/>
		<path class="st26" d="M634.1,466c0,0-2.4,14.1-7.2,26.2c-5.3,3.3-36.5,6.9-47.7,6c-28.6-2-43.1-5.7-46-6.4
			c-5.1-9.3-6.5-11.3-6.5-11.3h-52.5c0,0-1.4,2.1-6.5,11.3c-2.9,0.7-17.4,4.5-46,6.5c-11.2,0.8-42.5-2.8-47.7-6.1
			c-4.8-12.1-7.2-26.2-7.2-26.2s3-6.9,5.1-13.8c16.4,14.1,110,17.4,126.2,18c0.4,0,0.8,0.3,1.1,0.3h0.2c0.7,0,1.1,0,1.1,0
			s0.4,0,1.1,0h0.2c0.3,0,0.7-0.2,1.1-0.3c16.2-0.6,109.7-3.8,126.2-17.9C631.1,459.3,634.1,466,634.1,466z"/>
		<path class="st27" d="M633.7,466.1c0,0-2.4,14-7.1,25.9c-5.3,3.3-36.4,6.8-47.6,6c-28.6-2-43-5.6-45.9-6.3
			c-5.1-9.1-6.5-11.2-6.5-11.2h-52.4c0,0-1.4,2.1-6.5,11.2c-2.9,0.7-17.3,4.4-45.9,6.4c-11.2,0.8-42.4-2.7-47.6-6
			c-4.8-12-7.1-25.9-7.1-25.9s3-6.8,5.1-13.7c16.4,13.9,109.7,17.2,125.8,17.8c0.4,0,0.8,0.3,1.1,0.3h0.2c0.7,0,1.1,0,1.1,0
			s0.4,0,1.1,0h0.2c0.3,0,0.7-0.2,1.1-0.3c16.1-0.6,109.4-3.8,125.8-17.7C630.7,459.5,633.7,466.1,633.7,466.1z"/>
		<path class="st28" d="M633.4,466.2c0,0-2.4,13.8-7.1,25.6c-5.2,3.3-36.3,6.7-47.5,5.9c-28.5-2-42.9-5.6-45.8-6.3
			c-5.1-9-6.5-11.1-6.5-11.1h-52.2c0,0-1.4,2-6.5,11.1c-2.9,0.7-17.3,4.4-45.8,6.4c-11.2,0.8-42.2-2.7-47.5-6
			c-4.7-11.8-7.1-25.6-7.1-25.6s3-6.7,5.1-13.5c16.3,13.7,109.4,17,125.5,17.6c0.4,0,0.8,0.2,1.1,0.2h0.2c0.7,0,1.1,0,1.1,0
			s0.4,0,1.1,0h0.2c0.3,0,0.7-0.2,1.1-0.3c16.1-0.6,109.2-3.7,125.5-17.5C630.4,459.6,633.4,466.2,633.4,466.2z"/>
		<path class="st29" d="M633,466.3c0,0-2.4,13.6-7.1,25.3c-5.2,3.2-36.2,6.6-47.4,5.8c-28.4-1.9-42.8-5.5-45.6-6.2
			c-5.1-8.9-6.5-10.9-6.5-10.9h-52.1c0,0-1.4,2-6.5,10.9c-2.9,0.7-17.2,4.3-45.6,6.3c-11.1,0.8-42.1-2.7-47.4-5.9
			c-4.7-11.7-7.1-25.4-7.1-25.4s3-6.6,5.1-13.4c16.3,13.6,109.1,16.8,125.2,17.4c0.4,0,0.8,0.2,1.1,0.2h0.2c0.7,0,1.1,0,1.1,0
			s0.4,0,1.1,0h0.2c0.3,0,0.7-0.2,1.1-0.3c16.1-0.6,108.9-3.7,125.2-17.3C630,459.8,633,466.3,633,466.3z"/>
		<path class="st30" d="M632.7,466.4c0,0-2.4,13.5-7.1,25c-5.2,3.2-36.1,6.5-47.2,5.8c-28.3-1.9-42.7-5.4-45.5-6.1
			c-5.1-8.8-6.4-10.8-6.4-10.8h-52c0,0-1.4,2-6.4,10.8c-2.9,0.7-17.2,4.3-45.5,6.2c-11.1,0.8-42-2.6-47.2-5.8
			c-4.7-11.6-7.1-25.1-7.1-25.1s3-6.6,5.1-13.2c16.2,13.4,108.8,16.6,124.8,17.2c0.4,0,0.8,0.2,1.1,0.2h0.2c0.7,0,1.1,0,1.1,0
			s0.4,0,1.1,0h0.2c0.3,0,0.7-0.2,1.1-0.3c16-0.6,108.6-3.6,124.8-17.1C629.7,460,632.7,466.4,632.7,466.4z"/>
		<path class="st31" d="M632.3,466.6c0,0-2.4,13.3-7.1,24.7c-5.2,3.1-36,6.5-47.1,5.7c-28.3-1.9-42.5-5.4-45.4-6.1
			c-5-8.7-6.4-10.7-6.4-10.7h-51.8c0,0-1.4,2-6.4,10.7c-2.8,0.7-17.1,4.2-45.4,6.1c-11.1,0.8-41.9-2.6-47.1-5.8
			c-4.7-11.4-7.1-24.8-7.1-24.8s3-6.5,5.1-13c16.2,13.3,108.5,16.4,124.5,17c0.4,0,0.8,0.2,1.1,0.2h0.2c0.7,0,1.1,0,1.1,0
			s0.4,0,1.1,0h0.2c0.3,0,0.7-0.2,1.1-0.2c16-0.6,108.3-3.6,124.5-16.9C629.3,460.2,632.3,466.6,632.3,466.6z"/>
		<path class="st32" d="M632,466.7c0,0-2.3,13.2-7,24.4c-5.2,3.1-35.9,6.4-47,5.6c-28.2-1.9-42.4-5.3-45.3-6
			c-5-8.6-6.4-10.6-6.4-10.6h-51.7c0,0-1.4,1.9-6.4,10.6c-2.8,0.7-17.1,4.2-45.3,6.1c-11,0.8-41.8-2.6-47-5.7
			c-4.7-11.3-7-24.5-7-24.5s3-6.4,5.1-12.9c16.2,13.1,108.2,16.2,124.1,16.8c0.4,0,0.8,0.2,1.1,0.2h0.2c0.7,0,1.1,0,1.1,0
			s0.4,0,1.1,0h0.2c0.3,0,0.7-0.2,1.1-0.2c15.9-0.6,108-3.6,124.1-16.7C629,460.4,632,466.7,632,466.7z"/>
		<path class="st33" d="M631.6,466.8c0,0-2.3,13-7,24.2c-5.2,3.1-35.8,6.3-46.8,5.6c-28.1-1.9-42.3-5.2-45.1-5.9
			c-5-8.5-6.4-10.4-6.4-10.4h-51.5c0,0-1.4,1.9-6.4,10.4c-2.8,0.7-17,4.1-45.1,6c-11,0.7-41.7-2.6-46.8-5.6c-4.7-11.1-7-24.2-7-24.2
			s3-6.3,5-12.7c16.1,13,107.9,16,123.8,16.6c0.4,0,0.8,0.2,1.1,0.2h0.2c0.7,0,1.1,0,1.1,0s0.4,0,1.1,0h0.2c0.3,0,0.7-0.2,1.1-0.2
			c15.9-0.6,107.7-3.5,123.8-16.5C628.6,460.6,631.6,466.8,631.6,466.8z"/>
		<path class="st34" d="M631.2,466.9c0,0-2.3,12.8-7,23.9c-5.2,3-35.7,6.2-46.7,5.5c-28-1.8-42.2-5.2-45-5.8
			c-5-8.4-6.4-10.3-6.4-10.3h-51.4c0,0-1.4,1.9-6.4,10.3c-2.8,0.7-17,4.1-45,5.9c-11,0.7-41.6-2.5-46.7-5.6c-4.7-11-7-23.9-7-23.9
			s3-6.3,5-12.6c16.1,12.8,107.6,15.8,123.5,16.4c0.4,0,0.8,0.2,1.1,0.2h0.2c0.7,0,1.1,0,1.1,0s0.4,0,1.1,0h0.2
			c0.3,0,0.7-0.2,1.1-0.2c15.8-0.6,107.4-3.5,123.5-16.3C628.3,460.8,631.2,466.9,631.2,466.9z"/>
		<path class="st35" d="M630.9,467c0,0-2.3,12.7-7,23.6c-5.1,3-35.6,6.2-46.6,5.4c-28-1.8-42.1-5.1-44.9-5.8
			c-5-8.3-6.4-10.2-6.4-10.2h-51.3c0,0-1.4,1.9-6.4,10.2c-2.8,0.7-16.9,4-44.9,5.9c-10.9,0.7-41.4-2.5-46.6-5.5
			c-4.7-10.9-7-23.6-7-23.6s3-6.2,5-12.4c16,12.6,107.3,15.6,123.1,16.2c0.4,0,0.8,0.2,1.1,0.2h0.2c0.7,0,1.1,0,1.1,0s0.3,0,1.1,0
			h0.2c0.3,0,0.7-0.2,1.1-0.2c15.8-0.5,107.1-3.4,123.1-16.1C627.9,460.9,630.9,467,630.9,467z"/>
		<path class="st36" d="M630.5,467.1c0,0-2.3,12.5-7,23.3c-5.1,3-35.5,6.1-46.5,5.4c-27.9-1.8-42-5-44.8-5.7
			c-5-8.2-6.3-10.1-6.3-10.1h-51.1c0,0-1.4,1.8-6.3,10.1c-2.8,0.6-16.9,4-44.8,5.8c-10.9,0.7-41.3-2.5-46.5-5.4
			c-4.6-10.7-7-23.3-7-23.3s3-6.1,5-12.3c16,12.5,107,15.4,122.8,16c0.4,0,0.8,0.2,1.1,0.2h0.2c0.7,0,1.1,0,1.1,0s0.3,0,1.1,0h0.2
			c0.3,0,0.7-0.2,1.1-0.2c15.7-0.5,106.8-3.4,122.8-15.9C627.6,461.1,630.5,467.1,630.5,467.1z"/>
		<path class="st37" d="M630.2,467.2c0,0-2.3,12.4-7,23c-5.1,2.9-35.4,6-46.3,5.3c-27.8-1.8-41.8-5-44.6-5.6c-5-8.1-6.3-9.9-6.3-9.9
			h-51c0,0-1.4,1.8-6.3,9.9c-2.8,0.6-16.8,3.9-44.6,5.7c-10.9,0.7-41.2-2.4-46.3-5.3c-4.6-10.6-7-23-7-23s2.9-6,5-12.1
			c15.9,12.3,106.7,15.2,122.4,15.8c0.4,0,0.8,0.2,1.1,0.2h0.2c0.7,0,1.1,0,1.1,0s0.3,0,1.1,0h0.2c0.3,0,0.7-0.2,1.1-0.2
			c15.7-0.5,106.5-3.4,122.4-15.7C627.2,461.3,630.2,467.2,630.2,467.2z"/>
		<path class="st38" d="M629.8,467.3c0,0-2.3,12.2-6.9,22.7c-5.1,2.9-35.4,5.9-46.2,5.2c-27.7-1.7-41.7-4.9-44.5-5.6
			c-4.9-8-6.3-9.8-6.3-9.8H475c0,0-1.4,1.8-6.3,9.8c-2.8,0.6-16.8,3.9-44.5,5.6c-10.9,0.7-41.1-2.4-46.2-5.3
			c-4.6-10.5-6.9-22.7-6.9-22.7s2.9-5.9,5-12c15.9,12.2,106.4,15,122.1,15.6c0.4,0,0.8,0.2,1.1,0.2h0.2c0.7,0,1.1,0,1.1,0
			s0.3,0,1.1,0h0.2c0.3,0,0.7-0.2,1.1-0.2c15.7-0.5,106.2-3.3,122.1-15.5C626.9,461.5,629.8,467.3,629.8,467.3z"/>
		<path class="st38" d="M629.5,467.4c0,0-2.3,12.1-6.9,22.4c-5.1,2.8-35.3,5.9-46.1,5.2c-27.6-1.7-41.6-4.9-44.4-5.5
			c-4.9-7.9-6.3-9.7-6.3-9.7h-50.7c0,0-1.4,1.8-6.3,9.7c-2.8,0.6-16.8,3.8-44.4,5.6c-10.8,0.7-41-2.4-46.1-5.2
			c-4.6-10.3-6.9-22.4-6.9-22.4s2.9-5.9,5-11.8c15.9,12,106.2,14.8,121.8,15.4c0.4,0,0.8,0.2,1.1,0.2h0.2c0.7,0,1.1,0,1.1,0
			s0.3,0,1.1,0h0.2c0.3,0,0.7-0.2,1.1-0.2c15.6-0.5,105.9-3.3,121.8-15.3C626.5,461.7,629.5,467.4,629.5,467.4z"/>
		<path class="st39" d="M629.1,467.6c0,0-2.3,11.9-6.9,22.1c-5.1,2.8-35.2,5.8-46,5.1c-27.6-1.7-41.5-4.8-44.3-5.4
			c-4.9-7.8-6.3-9.6-6.3-9.6h-50.6c0,0-1.4,1.8-6.3,9.6c-2.8,0.6-16.7,3.8-44.3,5.5c-10.8,0.7-40.9-2.3-46-5.1
			c-4.6-10.2-6.9-22.1-6.9-22.1s2.9-5.8,4.9-11.7c15.8,11.9,105.9,14.6,121.4,15.2c0.4,0,0.8,0.2,1.1,0.2h0.2c0.7,0,1.1,0,1.1,0
			s0.3,0,1.1,0h0.2c0.3,0,0.7-0.2,1.1-0.2c15.6-0.5,105.6-3.2,121.4-15.1C626.2,461.9,629.1,467.6,629.1,467.6z"/>
		<path class="st40" d="M628.7,467.7c0,0-2.3,11.7-6.9,21.8c-5.1,2.8-35.1,5.7-45.8,5c-27.5-1.7-41.4-4.7-44.2-5.3
			c-4.9-7.7-6.3-9.4-6.3-9.4h-50.4c0,0-1.4,1.7-6.3,9.4c-2.8,0.6-16.7,3.7-44.2,5.4c-10.8,0.7-40.8-2.3-45.8-5.1
			c-4.6-10.1-6.9-21.8-6.9-21.8s2.9-5.7,4.9-11.5c15.8,11.7,105.6,14.5,121.1,15c0.4,0,0.8,0.2,1.1,0.2h0.2c0.7,0,1.1,0,1.1,0
			s0.3,0,1.1,0h0.2c0.3,0,0.7-0.2,1.1-0.2c15.5-0.5,105.3-3.2,121.1-14.9C625.8,462.1,628.7,467.7,628.7,467.7z"/>
		<path class="st41" d="M628.4,467.8c0,0-2.3,11.6-6.9,21.5c-5,2.7-35,5.6-45.7,5c-27.4-1.7-41.3-4.7-44-5.3
			c-4.9-7.6-6.2-9.3-6.2-9.3h-50.3c0,0-1.3,1.7-6.2,9.3c-2.8,0.6-16.6,3.7-44,5.3c-10.7,0.7-40.6-2.3-45.7-5
			c-4.6-9.9-6.9-21.5-6.9-21.5s2.9-5.6,4.9-11.3c15.7,11.5,105.3,14.3,120.8,14.8c0.4,0,0.8,0.2,1.1,0.2h0.2c0.7,0,1.1,0,1.1,0
			s0.3,0,1.1,0h0.2c0.3,0,0.7-0.2,1.1-0.2c15.5-0.5,105-3.1,120.8-14.7C625.5,462.2,628.4,467.8,628.4,467.8z"/>
		<path class="st42" d="M628,467.9c0,0-2.3,11.4-6.8,21.2c-5,2.7-34.9,5.6-45.6,4.9c-27.3-1.6-41.2-4.6-43.9-5.2
			c-4.9-7.5-6.2-9.2-6.2-9.2h-50.1c0,0-1.3,1.7-6.2,9.2c-2.8,0.6-16.6,3.6-43.9,5.3c-10.7,0.7-40.5-2.2-45.6-4.9
			c-4.6-9.8-6.8-21.2-6.8-21.2s2.9-5.6,4.9-11.2c15.7,11.4,105,14.1,120.4,14.6c0.4,0,0.8,0.2,1.1,0.2h0.2c0.7,0,1,0,1,0s0.3,0,1,0
			h0.2c0.3,0,0.7-0.2,1.1-0.2c15.4-0.5,104.7-3.1,120.4-14.5C625.1,462.4,628,467.9,628,467.9z"/>
		<path class="st43" d="M627.7,468c0,0-2.3,11.3-6.8,20.9c-5,2.7-34.8,5.5-45.4,4.8c-27.3-1.6-41-4.5-43.8-5.1c-4.9-7.4-6.2-9-6.2-9
			h-50c0,0-1.3,1.7-6.2,9c-2.7,0.6-16.5,3.6-43.8,5.2c-10.7,0.6-40.4-2.2-45.4-4.9c-4.5-9.7-6.8-21-6.8-21s2.9-5.5,4.9-11
			c15.6,11.2,104.7,13.9,120.1,14.4c0.4,0,0.8,0.2,1.1,0.2h0.2c0.7,0,1,0,1,0s0.3,0,1,0h0.2c0.3,0,0.7-0.2,1.1-0.2
			c15.4-0.5,104.5-3.1,120.1-14.3C624.8,462.6,627.7,468,627.7,468z"/>
		<path class="st44" d="M627.3,468.1c0,0-2.3,11.1-6.8,20.6c-5,2.6-34.7,5.4-45.3,4.8c-27.2-1.6-40.9-4.5-43.7-5
			c-4.8-7.3-6.2-8.9-6.2-8.9h-49.8c0,0-1.3,1.6-6.2,8.9c-2.7,0.6-16.5,3.5-43.7,5.1c-10.6,0.6-40.3-2.2-45.3-4.8
			c-4.5-9.5-6.8-20.7-6.8-20.7s2.9-5.4,4.9-10.9c15.6,11.1,104.4,13.7,119.7,14.2c0.4,0,0.8,0.2,1.1,0.2h0.2c0.7,0,1,0,1,0
			s0.3,0,1,0h0.2c0.3,0,0.7-0.2,1.1-0.2c15.4-0.5,104.2-3,119.7-14.1C624.4,462.8,627.3,468.1,627.3,468.1z"/>
		<path class="st45" d="M626.9,468.2c0,0-2.3,11-6.8,20.3c-5,2.6-34.6,5.3-45.2,4.7c-27.1-1.6-40.8-4.4-43.5-5
			c-4.8-7.2-6.2-8.8-6.2-8.8h-49.7c0,0-1.3,1.6-6.2,8.8c-2.7,0.6-16.4,3.5-43.5,5.1c-10.6,0.6-40.2-2.2-45.2-4.7
			c-4.5-9.4-6.8-20.4-6.8-20.4s2.9-5.3,4.9-10.7c15.5,10.9,104.1,13.5,119.4,14c0.4,0,0.8,0.2,1.1,0.2h0.2c0.7,0,1,0,1,0s0.3,0,1,0
			h0.2c0.3,0,0.7-0.2,1.1-0.2c15.3-0.5,103.9-3,119.4-13.9C624.1,463,626.9,468.2,626.9,468.2z"/>
		<path class="st46" d="M626.6,468.3c0,0-2.3,10.8-6.8,20.1c-5,2.5-34.5,5.2-45.1,4.6c-27-1.5-40.7-4.3-43.4-4.9
			c-4.8-7.1-6.2-8.7-6.2-8.7h-49.6c0,0-1.3,1.6-6.2,8.7c-2.7,0.6-16.4,3.4-43.4,5c-10.6,0.6-40.1-2.1-45.1-4.7
			c-4.5-9.3-6.8-20.1-6.8-20.1s2.9-5.3,4.8-10.6c15.5,10.8,103.8,13.3,119.1,13.8c0.4,0,0.8,0.2,1.1,0.2h0.2c0.7,0,1,0,1,0
			s0.3,0,1,0h0.2c0.3,0,0.7-0.2,1.1-0.2c15.3-0.5,103.6-2.9,119.1-13.7C623.7,463.2,626.6,468.3,626.6,468.3z"/>
		<path class="st47" d="M626.2,468.4c0,0-2.2,10.6-6.7,19.8c-5,2.5-34.4,5.2-44.9,4.6c-27-1.5-40.6-4.3-43.3-4.8
			c-4.8-7-6.1-8.5-6.1-8.5h-49.4c0,0-1.3,1.6-6.1,8.5c-2.7,0.5-16.3,3.4-43.3,4.9c-10.6,0.6-40-2.1-44.9-4.6
			c-4.5-9.1-6.7-19.8-6.7-19.8s2.9-5.2,4.8-10.4c15.5,10.6,103.5,13.1,118.7,13.6c0.4,0,0.8,0.2,1.1,0.2h0.2c0.7,0,1,0,1,0
			s0.3,0,1,0h0.2c0.3,0,0.7-0.2,1.1-0.2c15.2-0.5,103.3-2.9,118.7-13.5C623.4,463.4,626.2,468.4,626.2,468.4z"/>
		<path class="st48" d="M625.9,468.5c0,0-2.2,10.5-6.7,19.5c-5,2.5-34.3,5.1-44.8,4.5c-26.9-1.5-40.5-4.2-43.2-4.8
			c-4.8-6.9-6.1-8.4-6.1-8.4h-49.3c0,0-1.3,1.5-6.1,8.4c-2.7,0.5-16.3,3.3-43.2,4.8c-10.5,0.6-39.9-2.1-44.8-4.5
			c-4.5-9-6.7-19.5-6.7-19.5s2.8-5.1,4.8-10.3c15.4,10.4,103.2,12.9,118.4,13.4c0.4,0,0.8,0.2,1.1,0.2h0.2c0.7,0,1,0,1,0s0.3,0,1,0
			h0.2c0.3,0,0.6-0.2,1.1-0.2c15.2-0.5,103-2.8,118.4-13.3C623,463.5,625.9,468.5,625.9,468.5z"/>
		<path class="st49" d="M625.5,468.7c0,0-2.2,10.3-6.7,19.2c-4.9,2.4-34.2,5-44.7,4.4c-26.8-1.5-40.3-4.2-43-4.7
			c-4.8-6.8-6.1-8.3-6.1-8.3h-49.1c0,0-1.3,1.5-6.1,8.3c-2.7,0.5-16.2,3.3-43,4.8c-10.5,0.6-39.7-2-44.7-4.5
			c-4.5-8.8-6.7-19.2-6.7-19.2s2.8-5,4.8-10.1c15.4,10.3,102.9,12.7,118.1,13.2c0.4,0,0.8,0.2,1,0.2h0.2c0.7,0,1,0,1,0s0.3,0,1,0
			h0.2c0.3,0,0.6-0.2,1-0.2c15.1-0.4,102.7-2.8,118.1-13.1C622.7,463.7,625.5,468.7,625.5,468.7z"/>
		<path class="st50" d="M625.2,468.8c0,0-2.2,10.2-6.7,18.9c-4.9,2.4-34.1,4.9-44.5,4.4c-26.7-1.5-40.2-4.1-42.9-4.6
			c-4.8-6.7-6.1-8.2-6.1-8.2h-49c0,0-1.3,1.5-6.1,8.2c-2.7,0.5-16.2,3.2-42.9,4.7c-10.5,0.6-39.6-2-44.5-4.4
			c-4.5-8.7-6.7-18.9-6.7-18.9s2.8-4.9,4.8-10c15.3,10.1,102.6,12.5,117.7,13c0.4,0,0.8,0.2,1,0.2h0.2c0.7,0,1,0,1,0s0.3,0,1,0h0.2
			c0.3,0,0.6-0.2,1-0.2c15.1-0.4,102.4-2.8,117.7-12.9C622.3,463.9,625.2,468.8,625.2,468.8z"/>
		<path class="st51" d="M624.8,468.9c0,0-2.2,10-6.7,18.6c-4.9,2.4-34,4.9-44.4,4.3c-26.7-1.4-40.1-4-42.8-4.5c-4.8-6.6-6.1-8-6.1-8
			H476c0,0-1.3,1.5-6.1,8c-2.7,0.5-16.1,3.2-42.8,4.6c-10.4,0.6-39.5-2-44.4-4.3c-4.4-8.6-6.7-18.6-6.7-18.6s2.8-4.9,4.8-9.8
			c15.3,10,102.3,12.3,117.4,12.7c0.4,0,0.8,0.2,1,0.2h0.2c0.7,0,1,0,1,0s0.3,0,1,0h0.2c0.3,0,0.6-0.2,1-0.2
			c15.1-0.4,102.1-2.7,117.4-12.7C622,464.1,624.8,468.9,624.8,468.9z"/>
		<path class="st52" d="M624.4,469c0,0-2.2,9.9-6.6,18.3c-4.9,2.3-33.9,4.8-44.3,4.2c-26.6-1.4-40-4-42.7-4.5c-4.7-6.5-6-7.9-6-7.9
			h-48.7c0,0-1.3,1.4-6,7.9c-2.7,0.5-16.1,3.1-42.7,4.5c-10.4,0.6-39.4-1.9-44.3-4.3c-4.4-8.4-6.6-18.3-6.6-18.3s2.8-4.8,4.8-9.6
			c15.2,9.8,102,12.1,117,12.5c0.4,0,0.8,0.2,1,0.2h0.2c0.7,0,1,0,1,0s0.3,0,1,0h0.2c0.3,0,0.6-0.2,1-0.2c15-0.4,101.8-2.7,117-12.5
			C621.6,464.3,624.4,469,624.4,469z"/>
		<path class="st53" d="M624.1,469.1c0,0-2.2,9.7-6.6,18c-4.9,2.3-33.8,4.7-44.2,4.2c-26.5-1.4-39.9-3.9-42.6-4.4
			c-4.7-6.4-6-7.8-6-7.8h-48.6c0,0-1.3,1.4-6,7.8c-2.7,0.5-16.1,3.1-42.6,4.5c-10.4,0.6-39.3-1.9-44.2-4.2c-4.4-8.3-6.6-18-6.6-18
			s2.8-4.7,4.7-9.5c15.2,9.7,101.7,11.9,116.7,12.3c0.4,0,0.8,0.2,1,0.2h0.2c0.7,0,1,0,1,0s0.3,0,1,0h0.2c0.3,0,0.6-0.2,1-0.2
			c15-0.4,101.5-2.6,116.7-12.3C621.3,464.5,624.1,469.1,624.1,469.1z"/>
		<path class="st54" d="M623.7,469.2c0,0-2.2,9.5-6.6,17.7c-4.9,2.2-33.7,4.6-44,4.1c-26.4-1.4-39.8-3.8-42.4-4.3
			c-4.7-6.3-6-7.7-6-7.7h-48.4c0,0-1.3,1.4-6,7.7c-2.7,0.5-16,3-42.4,4.4c-10.3,0.5-39.2-1.9-44-4.1c-4.4-8.2-6.6-17.7-6.6-17.7
			s2.8-4.6,4.7-9.3c15.1,9.5,101.4,11.7,116.4,12.1c0.4,0,0.8,0.2,1,0.2h0.2c0.7,0,1,0,1,0s0.3,0,1,0h0.2c0.3,0,0.6-0.2,1-0.2
			c14.9-0.4,101.2-2.6,116.4-12.1C620.9,464.7,623.7,469.2,623.7,469.2z"/>
		<path class="st55" d="M623.4,469.3c0,0-2.2,9.4-6.6,17.4c-4.9,2.2-33.6,4.6-43.9,4c-26.3-1.3-39.7-3.8-42.3-4.3
			c-4.7-6.1-6-7.5-6-7.5h-48.3c0,0-1.3,1.4-6,7.5c-2.7,0.5-16,3-42.3,4.3c-10.3,0.5-39.1-1.8-43.9-4.1c-4.4-8-6.6-17.4-6.6-17.4
			s2.8-4.6,4.7-9.2c15.1,9.3,101.1,11.5,116,11.9c0.4,0,0.8,0.2,1,0.2h0.2c0.7,0,1,0,1,0s0.3,0,1,0h0.2c0.3,0,0.6-0.2,1-0.2
			c14.9-0.4,100.9-2.5,116-11.9C620.6,464.8,623.4,469.3,623.4,469.3z"/>
		<path class="st56" d="M623,469.4c0,0-2.2,9.2-6.6,17.1c-4.8,2.2-33.5,4.5-43.8,4c-26.3-1.3-39.5-3.7-42.2-4.2c-4.7-6-6-7.4-6-7.4
			h-48.2c0,0-1.3,1.4-6,7.4c-2.6,0.5-15.9,2.9-42.2,4.3c-10.3,0.5-38.9-1.8-43.8-4c-4.4-7.9-6.6-17.1-6.6-17.1s2.8-4.5,4.7-9
			c15.1,9.2,100.9,11.3,115.7,11.7c0.4,0,0.8,0.2,1,0.2h0.2c0.7,0,1,0,1,0s0.3,0,1,0h0.2c0.3,0,0.6-0.2,1-0.2
			c14.8-0.4,100.6-2.5,115.7-11.7C620.2,465,623,469.4,623,469.4z"/>
		<path class="st57" d="M622.6,469.5c0,0-2.2,9.1-6.5,16.8c-4.8,2.1-33.4,4.4-43.7,3.9c-26.2-1.3-39.4-3.7-42.1-4.1
			c-4.7-5.9-6-7.3-6-7.3h-48c0,0-1.3,1.3-6,7.3c-2.6,0.5-15.9,2.9-42.1,4.2c-10.3,0.5-38.8-1.8-43.7-3.9c-4.4-7.8-6.5-16.8-6.5-16.8
			s2.8-4.4,4.7-8.9c15,9,100.6,11.2,115.4,11.5c0.4,0,0.8,0.2,1,0.2h0.2c0.7,0,1,0,1,0s0.3,0,1,0h0.2c0.3,0,0.6-0.2,1-0.2
			c14.8-0.4,100.3-2.5,115.4-11.5C619.9,465.2,622.6,469.5,622.6,469.5z"/>
		<path class="st58" d="M622.3,469.6c0,0-2.2,8.9-6.5,16.5c-4.8,2.1-33.3,4.3-43.5,3.8c-26.1-1.3-39.3-3.6-41.9-4
			c-4.7-5.8-5.9-7.1-5.9-7.1h-47.9c0,0-1.3,1.3-5.9,7.1c-2.6,0.5-15.8,2.8-41.9,4.1c-10.2,0.5-38.7-1.7-43.5-3.8
			c-4.4-7.6-6.5-16.6-6.5-16.6s2.8-4.3,4.7-8.7c15,8.9,100.3,11,115,11.3c0.4,0,0.8,0.2,1,0.2h0.2c0.7,0,1,0,1,0s0.3,0,1,0h0.2
			c0.3,0,0.6-0.2,1-0.2c14.8-0.4,100-2.4,115-11.3C619.5,465.4,622.3,469.6,622.3,469.6z"/>
		<path class="st59" d="M621.9,469.8c0,0-2.2,8.7-6.5,16.2c-4.8,2.1-33.2,4.2-43.4,3.7c-26-1.2-39.2-3.5-41.8-4
			c-4.6-5.7-5.9-7-5.9-7h-47.7c0,0-1.3,1.3-5.9,7c-2.6,0.4-15.8,2.8-41.8,4c-10.2,0.5-38.6-1.7-43.4-3.8c-4.3-7.5-6.5-16.3-6.5-16.3
			s2.8-4.3,4.7-8.6c14.9,8.7,100,10.8,114.7,11.1c0.4,0,0.8,0.2,1,0.2h0.2c0.7,0,1,0,1,0s0.3,0,1,0h0.2c0.3,0,0.6-0.2,1-0.2
			c14.7-0.4,99.8-2.4,114.7-11.1C619.2,465.6,621.9,469.8,621.9,469.8z"/>
		<path class="st60" d="M621.6,469.9c0,0-2.2,8.6-6.5,16c-4.8,2-33.1,4.2-43.3,3.7c-26-1.2-39.1-3.5-41.7-3.9
			c-4.6-5.6-5.9-6.9-5.9-6.9h-47.6c0,0-1.3,1.3-5.9,6.9c-2.6,0.4-15.7,2.7-41.7,4c-10.2,0.5-38.5-1.7-43.3-3.7
			c-4.3-7.4-6.5-16-6.5-16s2.7-4.2,4.7-8.4c14.9,8.6,99.7,10.6,114.3,10.9c0.4,0,0.8,0.2,1,0.2h0.2c0.7,0,1,0,1,0s0.3,0,1,0h0.2
			c0.3,0,0.6-0.1,1-0.2c14.7-0.4,99.5-2.3,114.3-10.9C618.8,465.8,621.6,469.9,621.6,469.9z"/>
		<path class="st61" d="M621.2,470c0,0-2.2,8.4-6.5,15.7c-4.8,2-33,4.1-43.1,3.6c-25.9-1.2-39-3.4-41.6-3.8
			c-4.6-5.5-5.9-6.8-5.9-6.8h-47.5c0,0-1.3,1.2-5.9,6.8c-2.6,0.4-15.7,2.7-41.6,3.9c-10.1,0.5-38.4-1.7-43.1-3.6
			c-4.3-7.2-6.5-15.7-6.5-15.7s2.7-4.1,4.6-8.3c14.8,8.4,99.4,10.4,114,10.7c0.4,0,0.8,0.2,1,0.2h0.2c0.7,0,1,0,1,0s0.3,0,1,0h0.2
			c0.3,0,0.6-0.1,1-0.2c14.6-0.4,99.2-2.3,114-10.7C618.5,466,621.2,470,621.2,470z"/>
		<path class="st62" d="M620.9,470.1c0,0-2.2,8.3-6.5,15.4c-4.8,2-32.9,4-43,3.5c-25.8-1.2-38.8-3.3-41.4-3.8
			c-4.6-5.4-5.9-6.6-5.9-6.6h-47.3c0,0-1.3,1.2-5.9,6.6c-2.6,0.4-15.6,2.6-41.4,3.8c-10.1,0.5-38.3-1.6-43-3.6
			c-4.3-7.1-6.5-15.4-6.5-15.4s2.7-4,4.6-8.1c14.8,8.2,99.1,10.2,113.7,10.5c0.4,0,0.8,0.1,1,0.1h0.2c0.7,0,1,0,1,0s0.3,0,1,0h0.2
			c0.3,0,0.6-0.1,1-0.2c14.6-0.4,98.9-2.2,113.7-10.5C618.1,466.1,620.9,470.1,620.9,470.1z"/>
		<path class="st63" d="M620.5,470.2c0,0-2.1,8.1-6.4,15.1c-4.7,1.9-32.8,3.9-42.9,3.5c-25.7-1.2-38.7-3.3-41.3-3.7
			c-4.6-5.3-5.9-6.5-5.9-6.5h-47.2c0,0-1.3,1.2-5.9,6.5c-2.6,0.4-15.6,2.6-41.3,3.7c-10.1,0.5-38.1-1.6-42.9-3.5
			c-4.3-7-6.4-15.1-6.4-15.1s2.7-3.9,4.6-7.9c14.8,8.1,98.8,10,113.3,10.3c0.4,0,0.8,0.1,1,0.1h0.2c0.7,0,1,0,1,0s0.3,0,1,0h0.2
			c0.3,0,0.6-0.1,1-0.2c14.5-0.4,98.6-2.2,113.3-10.3C617.8,466.3,620.5,470.2,620.5,470.2z"/>
		<path class="st64" d="M620.1,470.3c0,0-2.1,8-6.4,14.8C609,487,581,489,571,488.5c-25.7-1.1-38.6-3.2-41.2-3.6
			c-4.6-5.2-5.8-6.4-5.8-6.4h-47c0,0-1.3,1.2-5.8,6.4c-2.6,0.4-15.5,2.5-41.2,3.7c-10,0.5-38-1.6-42.8-3.4
			c-4.3-6.8-6.4-14.8-6.4-14.8s2.7-3.9,4.6-7.8c14.7,7.9,98.5,9.8,113,10.1c0.4,0,0.7,0.1,1,0.1h0.1c0.7,0,1,0,1,0s0.3,0,1,0h0.1
			c0.3,0,0.6-0.1,1-0.1c14.5-0.3,98.3-2.2,113-10.1C617.4,466.5,620.1,470.3,620.1,470.3z"/>
		<path class="st65" d="M619.8,470.4c0,0-2.1,7.8-6.4,14.5c-4.7,1.8-32.6,3.8-42.6,3.3c-25.6-1.1-38.5-3.1-41.1-3.5
			c-4.6-5.1-5.8-6.3-5.8-6.3H477c0,0-1.3,1.1-5.8,6.3c-2.6,0.4-15.5,2.5-41.1,3.6c-10,0.4-37.9-1.5-42.6-3.4
			c-4.3-6.7-6.4-14.5-6.4-14.5s2.7-3.8,4.6-7.6c14.7,7.8,98.2,9.6,112.7,9.9c0.4,0,0.7,0.1,1,0.1h0.1c0.7,0,1,0,1,0s0.3,0,1,0h0.1
			c0.3,0,0.6-0.1,1-0.1c14.5-0.3,98-2.1,112.7-9.9C617.1,466.7,619.8,470.4,619.8,470.4z"/>
		<path class="st66" d="M619.4,470.5c0,0-2.1,7.6-6.4,14.2c-4.7,1.8-32.5,3.7-42.5,3.3c-25.5-1.1-38.4-3.1-41-3.5
			c-4.5-5-5.8-6.1-5.8-6.1H477c0,0-1.3,1.1-5.8,6.1c-2.6,0.4-15.4,2.4-41,3.5c-10,0.4-37.8-1.5-42.5-3.3c-4.3-6.6-6.4-14.2-6.4-14.2
			s2.7-3.7,4.6-7.5c14.6,7.6,97.9,9.4,112.3,9.7c0.4,0,0.7,0.1,1,0.1h0.1c0.7,0,1,0,1,0s0.3,0,1,0h0.1c0.3,0,0.6-0.1,1-0.1
			c14.4-0.3,97.7-2.1,112.3-9.7C616.7,466.9,619.4,470.5,619.4,470.5z"/>
		<path class="st67" d="M619.1,470.6c0,0-2.1,7.5-6.4,13.9c-4.7,1.8-32.4,3.6-42.4,3.2c-25.4-1.1-38.3-3-40.8-3.4
			c-4.5-4.9-5.8-6-5.8-6h-46.6c0,0-1.3,1.1-5.8,6c-2.6,0.4-15.4,2.4-40.8,3.5c-10,0.4-37.7-1.5-42.4-3.2c-4.2-6.4-6.4-13.9-6.4-13.9
			s2.7-3.6,4.6-7.3c14.6,7.5,97.6,9.2,112,9.5c0.4,0,0.7,0.1,1,0.1h0.1c0.7,0,1,0,1,0s0.3,0,1,0h0.1c0.3,0,0.6-0.1,1-0.1
			c14.4-0.3,97.4-2,112-9.5C616.4,467.1,619.1,470.6,619.1,470.6z"/>
		<path class="st68" d="M618.7,470.8c0,0-2.1,7.3-6.3,13.6c-4.7,1.7-32.3,3.6-42.2,3.1c-25.3-1-38.1-3-40.7-3.3
			c-4.5-4.8-5.8-5.9-5.8-5.9h-46.5c0,0-1.2,1.1-5.8,5.9c-2.6,0.4-15.4,2.3-40.7,3.4c-9.9,0.4-37.6-1.4-42.2-3.2
			c-4.2-6.3-6.3-13.6-6.3-13.6s2.7-3.6,4.5-7.2c14.5,7.3,97.3,9,111.6,9.3c0.4,0,0.7,0.1,1,0.1h0.1c0.7,0,1,0,1,0s0.3,0,1,0h0.1
			c0.3,0,0.6-0.1,1-0.1c14.3-0.3,97.1-2,111.6-9.3C616,467.3,618.7,470.8,618.7,470.8z"/>
		<path class="st69" d="M618.4,470.9c0,0-2.1,7.2-6.3,13.3c-4.7,1.7-32.2,3.5-42.1,3.1c-25.3-1-38-2.9-40.6-3.3
			c-4.5-4.7-5.7-5.8-5.7-5.8h-46.3c0,0-1.2,1.1-5.7,5.8c-2.5,0.4-15.3,2.3-40.6,3.3c-9.9,0.4-37.5-1.4-42.1-3.1
			c-4.2-6.1-6.3-13.3-6.3-13.3s2.7-3.5,4.5-7c14.5,7.1,97,8.8,111.3,9.1c0.4,0,0.7,0.1,1,0.1h0.1c0.7,0,1,0,1,0s0.3,0,1,0h0.1
			c0.3,0,0.6-0.1,1-0.1c14.3-0.3,96.8-1.9,111.3-9.1C615.7,467.4,618.4,470.9,618.4,470.9z"/>
		<path class="st70" d="M618,471c0,0-2.1,7-6.3,13c-4.6,1.7-32.1,3.4-42,3c-25.2-1-37.9-2.8-40.5-3.2c-4.5-4.6-5.7-5.6-5.7-5.6
			h-46.2c0,0-1.2,1-5.7,5.6c-2.5,0.4-15.3,2.2-40.5,3.2c-9.9,0.4-37.4-1.4-42-3c-4.2-6-6.3-13-6.3-13s2.7-3.4,4.5-6.9
			c14.4,7,96.7,8.6,111,8.9c0.4,0,0.7,0.1,1,0.1h0.1c0.7,0,1,0,1,0s0.3,0,1,0h0.1c0.3,0,0.6-0.1,1-0.1c14.2-0.3,96.5-1.9,111-8.9
			C615.3,467.6,618,471,618,471z"/>
		<path class="st71" d="M617.6,471.1c0,0-2.1,6.9-6.3,12.7c-4.6,1.6-32,3.3-41.9,2.9c-25.1-1-37.8-2.8-40.3-3.1
			c-4.5-4.5-5.7-5.5-5.7-5.5h-46.1c0,0-1.2,1-5.7,5.5c-2.5,0.4-15.2,2.2-40.3,3.2c-9.8,0.4-37.2-1.3-41.9-3
			c-4.2-5.9-6.3-12.7-6.3-12.7s2.7-3.3,4.5-6.7c14.4,6.8,96.4,8.4,110.6,8.7c0.4,0,0.7,0.1,1,0.1h0.1c0.6,0,1,0,1,0s0.3,0,1,0h0.1
			c0.3,0,0.6-0.1,1-0.1c14.2-0.3,96.2-1.9,110.6-8.7C615,467.8,617.6,471.1,617.6,471.1z"/>
		<path class="st72" d="M617.3,471.2c0,0-2.1,6.7-6.3,12.4c-4.6,1.6-31.9,3.3-41.7,2.9c-25-1-37.7-2.7-40.2-3
			c-4.5-4.4-5.7-5.4-5.7-5.4h-45.9c0,0-1.2,1-5.7,5.4c-2.5,0.3-15.2,2.1-40.2,3.1c-9.8,0.4-37.1-1.3-41.7-2.9
			c-4.2-5.7-6.3-12.4-6.3-12.4s2.7-3.3,4.5-6.6c14.4,6.7,96.1,8.2,110.3,8.5c0.4,0,0.7,0.1,1,0.1h0.1c0.6,0,1,0,1,0s0.3,0,1,0h0.1
			c0.3,0,0.6-0.1,1-0.1c14.1-0.3,95.9-1.8,110.3-8.5C614.6,468,617.3,471.2,617.3,471.2z"/>
		<path class="st73" d="M616.9,471.3c0,0-2.1,6.5-6.2,12.1c-4.6,1.5-31.8,3.2-41.6,2.8c-25-0.9-37.6-2.6-40.1-3
			c-4.5-4.3-5.7-5.2-5.7-5.2h-45.8c0,0-1.2,1-5.7,5.2c-2.5,0.3-15.1,2.1-40.1,3c-9.8,0.4-37-1.3-41.6-2.8
			c-4.2-5.6-6.2-12.2-6.2-12.2s2.6-3.2,4.5-6.4c14.3,6.5,95.8,8,110,8.3c0.4,0,0.7,0.1,1,0.1h0.1c0.6,0,1,0,1,0s0.3,0,1,0h0.1
			c0.2,0,0.6-0.1,1-0.1c14.1-0.3,95.6-1.8,110-8.3C614.3,468.2,616.9,471.3,616.9,471.3z"/>
		<path class="st74" d="M616.6,471.4c0,0-2.1,6.4-6.2,11.8c-4.6,1.5-31.7,3.1-41.5,2.7c-24.9-0.9-37.5-2.6-40-2.9
			c-4.4-4.2-5.7-5.1-5.7-5.1h-45.6c0,0-1.2,0.9-5.7,5.1c-2.5,0.3-15.1,2-40,2.9c-9.7,0.4-36.9-1.3-41.5-2.8
			c-4.1-5.5-6.2-11.9-6.2-11.9s2.6-3.1,4.5-6.2c14.3,6.4,95.6,7.9,109.6,8.1c0.4,0,0.7,0.1,1,0.1h0.1c0.6,0,1,0,1,0s0.3,0,1,0h0.1
			c0.2,0,0.6-0.1,1-0.1c14.1-0.2,95.3-1.7,109.6-8.1C613.9,468.4,616.6,471.4,616.6,471.4z"/>
	</g>
	<path class="st75" d="M657.6,332.8c-0.2,0.8-0.5,1.7-0.7,2.8c-12.4,51.5,0,147.5,0,147.5c1.1,10.3,5.2,20.3,8.8,20.6
		C667.8,477.2,672,377.7,657.6,332.8z"/>
	<path class="st75" d="M342.4,330.3c0.2,0.8,0.5,1.7,0.7,2.8c12.4,51.5,0,147.5,0,147.5c-1.1,10.3-5.2,20.3-8.8,20.6
		C332.2,474.7,328,375.1,342.4,330.3z"/>
	<path class="st76" d="M356,560.2c0,0,38.2,39.2,41.5,97.1c2.3,40.2-1,44.2,5,48.7c16,12.2,120.8-27.5,125.4-47.3
		c4.6-19.8-113.2-89.5-143.8-101.8S352.4,542.1,356,560.2z"/>
	<path class="st76" d="M643.1,560.2c0,0-38.2,39.2-41.5,97.1c-2.3,40.2,1,44.2-5,48.7c-16,12.2-120.8-27.5-125.4-47.3
		c-4.6-19.8,113.2-89.5,143.8-101.8C645.7,544.6,646.7,542.1,643.1,560.2z"/>
	<path class="st77" d="M664.3,504.8c-2.1,12.9-5.3,23.9-9,33.2c-0.1,0.1-0.1,0.3-0.2,0.4c-5.7,14.1-12.5,24-18.2,30.2
		c-1.8,2-3.6,3.6-5.2,4.8c-19.9,15.3-38.9,54.5-36.4,97.6l-22.8,20.3c0,0-17.7-22.8-17.7-27.9c3.8-20.3,20.9-45.6,42.4-69.1
		s36.1-57.7,41.2-72.9c0,0,5.4-24.1,2.5-58.3c0,0-3.2-8.6-5.4-17.4c0.1-0.2,0.3-0.3,0.4-0.4c-2.1-21.4-0.2-45.3,2.4-65.2
		c0.2-1.5,0.4-2.9,0.6-4.3c1.1-7.8,2.2-14.8,3.2-20.7c1.1-6.5,3.3-19.1,3.7-21.6c0-0.1,0.1-0.2,0.1-0.4c0-0.1,0-0.1,0-0.1
		s-1.8,51.9,2.7,112.3C651.2,480.2,659.2,482,664.3,504.8z"/>
	<path class="st77" d="M598.2,678.4l-25.3,22.8l-20.3-27.9c0,0-7.6,25.3-10.1,43.1l30.4,20.3l27.9-27.9L598.2,678.4z"/>
	<path class="st78" d="M641.1,463.1c0,0-2.5,17.7-7.6,32.9c-5.6,4.2-38.8,8.6-50.7,7.6c-30.4-2.5-45.8-7.4-48.8-8.3
		c-5.4-11.6-6.9-14.5-6.9-14.5h-26.7h-1.2h-26.7c0,0-1.5,2.9-6.9,14.5c-3.1,0.9-18.4,5.8-48.8,8.3c-11.9,1-45.1-3.4-50.7-7.6
		c-5.1-15.2-7.6-32.9-7.6-32.9c-2.9,34.2,2.5,58.3,2.5,58.3c5.1,15.2,19.6,49.4,41.2,72.9s38.6,48.8,42.4,69.1h54.6h1.2H555
		c3.8-20.3,20.9-45.6,42.4-69.1c21.5-23.4,36.1-57.7,41.2-72.9C638.6,521.3,644,497.3,641.1,463.1z"/>
	<path class="st79" d="M500.4,663.3l54.6-0.8c3.8-20.3,20.9-45.2,42.4-68.7c21.5-23.4,36.1-57.5,41.2-72.7c0,0,5.4-24,2.5-58.2
		c0,0-2.5,17.8-7.6,33c-2,1.5-17.1,4.8-24.2,6.1c-0.6,7.3-4.4,26.7-8.6,36.3c-15.2,34.4-26.9,32.5-58.1,89.3
		C532.9,645.3,529.1,662.8,500.4,663.3z"/>
	<path class="st80" d="M335.2,504.8c2.1,12.9,5.3,23.9,9,33.2c0.1,0.1,0.1,0.3,0.2,0.4c5.7,14.1,12.5,24,18.2,30.2
		c1.8,2,3.6,3.6,5.2,4.8c19.9,15.3,38.9,54.5,36.4,97.6l22.8,20.3c0,0,17.7-22.8,17.7-27.9c-3.8-20.3-20.9-45.6-42.4-69.1
		c-21.5-23.4-36.1-57.7-41.2-72.9c0,0-5.4-24.1-2.5-58.3c0,0,3.2-8.6,5.4-17.4c-0.1-0.2-0.3-0.3-0.4-0.4c2.1-21.4,0.2-45.3-2.4-65.2
		c-0.2-1.5-0.4-2.9-0.6-4.3c-1.1-7.8-2.2-14.8-3.2-20.7c-1.1-6.5-3.3-19.1-3.7-21.6c0-0.1-0.1-0.2-0.1-0.4c0-0.1,0-0.1,0-0.1
		s1.8,51.9-2.7,112.3C348.3,480.2,340.3,482,335.2,504.8z"/>
	<path class="st81" d="M353.2,401.9c2.4,19.4,4.1,42.4,2.1,63c0.1,0.1,0.3,0.2,0.4,0.4c-2.2,8.7,1.9,56.5,1.9,56.5
		c5.1,15.2,1.9,28.3,32.3,71.4c17.3,24.5,40.9,65.4,45.7,86.1c4.5-6.4,9-13.5,9-16c-3.8-20.3-20.9-45.6-42.4-69.1
		s-36.1-57.7-41.2-72.9c0,0-5.4-24.1-2.5-58.3c0,0,3.2-8.6,5.4-17.4c-0.1-0.2-0.3-0.3-0.4-0.4c2.1-21.4,0.2-45.3-2.4-65.2
		c-0.2-1.5-0.4-2.9-0.6-4.3c-1.1-7.8-2.2-14.8-3.2-20.7c-1.1-6.5-3.3-19.1-3.7-21.6c0-0.1-0.1-0.2-0.1-0.4c0-0.1,0-0.1,0-0.1
		S354.6,362,353.2,401.9z"/>
	<path class="st82" d="M401.6,678.4l25.3,22.8l20.3-27.9c0,0,7.6,25.3,10.1,43.1l-30.4,20.3l-27.9-27.9L401.6,678.4z"/>
	<path class="st78" d="M500.4,673.4L500.4,673.4h-53.2c0,0,7.6,25.3,10.1,43.1h25.3l5.1-10.1h12.7h0h12.7l5.1,10.1h25.3
		c2.5-17.7,10.1-43.1,10.1-43.1H500.4z"/>
	<path class="st83" d="M543.5,716.5h-25.3l-5.1-10.1h-12.7h0h-12.7l-5.1,10.1h-25.3l-30.4,20.3c0,0,2.9,3.4,12.7,15.2h60.8h0h60.8
		c9.8-11.8,12.7-15.2,12.7-15.2L543.5,716.5z"/>
	<path class="st84" d="M531.7,709.6H513l-3.8-7.5h-9.4h0h-9.4l-3.8,7.5h-18.8l-10.6,1.9c0,0,2.4,12.3,6.8,40.5l36.3,0l38.7,0
		c4.8-35.5,3.4-35.5,3.4-35.5L531.7,709.6z"/>
	<path class="st85" d="M542.5,716.5l-10.7-6.9h-8.2c-1.2,9.8-1.7,35.7-7.9,42.3l23.5,0C543.9,716.5,542.5,716.5,542.5,716.5z"/>
	<path class="st86" d="M500.4,673.4L500.4,673.4h-53.2c0,0,7.6,25.3,10.1,43.1h25.3l5.1-10.1h12.7h0h12.7l5.1,10.1h25.3
		c2.5-17.7,10.1-43.1,10.1-43.1H500.4z"/>
	<path class="st79" d="M521.7,715.7h21.7c2.5-17.7,10.1-43.1,10.1-43.1h-23.4C526.7,687.8,530.4,706.3,521.7,715.7z"/>
	<path class="st87" d="M552.5,318.5l-9.4,36c0,0-21.6,2.6-41.5,2.6h-2.5c-19.9,0-41.5-2.6-41.5-2.6l-9-34.9
		c16-7.2,34.2-11.2,53.4-11.2C520.2,308.4,537.3,312.1,552.5,318.5z"/>
	<path class="st84" d="M538.1,321.7l-3,38.3c0,0-19.3,9.7-34.6,9.7l-5.9,2.5c-15.3,0-28.3-18.2-28.3-18.2l-8.1-31.5
		c12.3-5.6,26.3-8.6,41.1-8.6C513.1,314,526.3,316.8,538.1,321.7z"/>
	<path class="st86" d="M647.3,333.1C647.3,333.1,647.3,333.1,647.3,333.1c0,0.2-0.1,0.3-0.1,0.4c-0.2,1.2-0.4,2.4-0.6,3.6
		c-2,11.8-4.4,24.9-6.4,38.7c-0.2,1.4-0.4,2.9-0.6,4.4c-2.9,21.3-4.7,43.9-2.4,65.2c-0.1,0.1-0.3,0.2-0.4,0.4
		c-5,5.1-16.8,9-31.4,12.1c-36.3,7.6-90.2,9.8-102.5,10.2c-0.5,0-0.9,0.1-1.2,0.1h-0.2c-0.8,0.1-1.2,0.1-1.2,0.1s-0.4,0-1.2-0.1
		h-0.2c-0.3,0-0.7,0-1.2-0.1c-11.8-0.4-62.5-2.5-98.7-9.5c-16.4-3.2-29.8-7.3-35.2-12.9c-0.1-0.2-0.3-0.3-0.4-0.4
		c2.4-21.3,0.6-43.9-2.4-65.2c-0.2-1.5-0.4-2.9-0.6-4.4c-2-13.8-4.4-26.9-6.4-38.7c-0.2-1.2-0.4-2.4-0.6-3.6c0-0.1-0.1-0.2-0.1-0.4
		c0,0,0-0.1,0-0.1c15.4-11.7,32.8-21.2,51.6-27.9c11.9-4.2,24.4-7.3,37.3-9.2l6.1,23.8l9,35.1c0,0,21.6,2.8,41.5,3h2.5
		c19.9-0.1,41.5-3,41.5-3l9.4-36.4l5.8-22.5c12.9,1.9,25.4,5,37.3,9.2C614.5,311.9,631.9,321.4,647.3,333.1z"/>
	<path class="st88" d="M641.1,463.1c0,0-2.5,17.7-7.6,32.9c-5.6,4.2-38.8,8.6-50.7,7.6c-30.4-2.5-45.8-7.4-48.8-8.3
		c-5.4-11.6-6.9-14.5-6.9-14.5h-26.7h-1.2h-26.7c0,0-1.5,2.9-6.9,14.5c-3.1,0.9-18.4,5.8-48.8,8.3c-11.9,1-45.1-3.4-50.7-7.6
		c-5.1-15.2-7.6-32.9-7.6-32.9c-2.9,34.2,2.5,58.3,2.5,58.3c5.1,15.2,19.6,49.4,41.2,72.9s38.6,48.8,42.4,69.1h54.6h1.2H555
		c3.8-20.3,20.9-45.6,42.4-69.1c21.5-23.4,36.1-57.7,41.2-72.9C638.6,521.3,644,497.3,641.1,463.1z"/>
	<g class="st76">
		<g>
			<g>
				<path d="M507.2,263.6c43,0,83.1,10.1,117.1,27.6c-16.5-13.5-35.6-24.3-56.5-31.7c-20.9-7.4-43.6-11.5-67.3-11.5
					c-23.7,0-46.4,4.1-67.3,11.5c-32.7,11.6-61,31.5-81.9,56.9c-0.2,0.2-0.3,0.4-0.5,0.6C390.9,284,446.2,263.6,507.2,263.6z"/>
			</g>
		</g>
	</g>
	<path class="st89" d="M452.2,627.6c2.9,7.2,2.9,7.2,2.9,7.2"/>
	<path class="st90" d="M443.9,612.2"/>
	<path class="st89" d="M384.1,525c0,0,5.9,23.1,36.6,56.3c7.6,8.2,20.5,25.7,25.4,35.3"/>
	<path class="st91" d="M372.7,358.4c4.2,16.8,10.1,43.4,8.8,59.1"/>
	<path class="st91" d="M368.6,343.2c0,0,0.2,1.2,1.5,6"/>
	<path class="st91" d="M562.2,331.1"/>
	<line class="st91" x1="558.6" y1="345.7" x2="557" y2="352.5"/>
	<line class="st91" x1="567.6" y1="314" x2="562.2" y2="335.6"/>
	<path class="st88" d="M543.5,716.5h-25.3l-5.1-10.1h-12.7h0h-12.7l-5.1,10.1h-25.3l-30.4,20.3c0,0,2.9,3.4,12.7,15.2h60.8h0h60.8
		c9.8-11.8,12.7-15.2,12.7-15.2L543.5,716.5z"/>
	<path class="st79" d="M640.2,375.7c2-13.8,4.4-26.9,6.4-38.7c0.2-1.2,0.4-2.4,0.6-3.6c0-0.1,0.1-0.2,0.1-0.4c0,0,0-0.1,0-0.1
		c-7.4-5.6-27.1-14.5-35.3-19c22,11.2-5.1,76-2.4,111.9c0.9,11.9,2.2,21.7,3.6,30.1c11-2.8,19.6-6.2,23.7-10.3
		c0.1-0.2,0.3-0.3,0.4-0.4c-2.4-21.3-0.6-43.9,2.4-65.2C639.8,378.6,640,377.2,640.2,375.7z"/>
	<path class="st89" d="M467.4,702.1c0.2,1.8,0.3,1.2,0.4,3"/>
	<path class="st89" d="M464.8,686c0,0,0.6,2.6,1.3,7.6"/>
	<path class="st81" d="M446,724l11.3-7.5c-2.5-17.7-10.1-43.1-10.1-43.1l-8.7,12C441.3,692.4,445.2,705.5,446,724z"/>
	<polyline class="st92" points="474.4,727 476,741 485.2,741 	"/>
	<line class="st92" x1="492.8" y1="741" x2="495.4" y2="741"/>
	<path class="st75" d="M435.5,501.5l30.1-6.3l6.9-15.2h44.3c0,0-2.5,2.1-10.4,3c-12,1.3-31,0.8-31,0.8s-3.4,7-6.7,15
		C458.4,500.6,435.5,501.5,435.5,501.5z"/>
	<path class="st88" d="M649.6,316.4c-20.9-25.4-49.2-45.2-81.9-56.9c-20.9-7.4-43.6-11.5-67.3-11.5c-23.7,0-46.4,4.1-67.3,11.5
		c-32.7,11.6-61,31.5-81.9,56.9c-24.1,29.1-18.3,159.9-16,188.3c1.7,12.2,4.9,23.4,9,33.2c0.1,0.1,0.1,0.3,0.2,0.4
		c5.2,12.4,11.8,22.7,18.2,30.2c2.9,27.5,3.5,69.4,6.1,97.3c10.1,17.7,15.2,26.8,30.4,43.1l6.5,6.5c5.5,5.5,11.4,11.4,17.6,17.6
		l3.8,3.8c0,0,0.3,0.3,1,1.2c0.4,0.4,0.7,0.8,1,1.2c1.5,1.7,3.9,4.6,7.6,9.1c1,1.2,2.1,2.5,3.1,3.8h60.8h60.8c1-1.3,2.1-2.5,3.1-3.8
		c3.7-4.4,6.1-7.3,7.6-9.1c0.3-0.4,0.7-0.8,1-1.2c0.7-0.8,1-1.2,1-1.2l3.8-3.8c6.2-6.2,12-12.1,17.6-17.6l6.5-6.5
		c15.2-16.3,20.3-25.3,30.4-43.1c2.5-27.9,3.2-69.8,6.1-97.3c6.4-7.5,13-17.7,18.2-30.2c0.1-0.1,0.1-0.2,0.2-0.4
		c4.1-9.8,7.3-21,9-33.2C667.9,476.4,673.7,345.6,649.6,316.4z M634.7,496c-5.6,4.2-38.8,8.6-50.7,7.6c-30.4-2.5-45.8-7.4-48.8-8.3
		c-5.4-11.6-6.9-14.5-6.9-14.5h-27.9h-27.9c0,0-1.5,2.9-6.9,14.5c-3.1,0.9-18.4,5.8-48.8,8.3c-11.9,1-45.1-3.4-50.7-7.6
		c-5.1-15.2-7.6-32.9-7.6-32.9s3.2-8.6,5.4-17.4c17.4,17.7,116.8,21.8,133.9,22.3c0.5,0,0.9,0.1,1.2,0.1c0.1,0,0.1,0,0.2,0
		c0.8,0.1,1.2,0.1,1.2,0.1s0.4,0,1.2-0.1c0.1,0,0.1,0,0.2,0c0.3,0,0.7,0,1.2-0.1c17.2-0.6,116.5-4.6,133.9-22.3
		c2.2,8.7,5.4,17.4,5.4,17.4S639.8,480.8,634.7,496z"/>
</g>
</svg>
