<?xml version="1.0" encoding="utf-8"?>
<!-- Generator: Adobe Illustrator 23.1.1, SVG Export Plug-In . SVG Version: 6.00 Build 0)  -->
<svg version="1.1" id="Layer_1" xmlns="http://www.w3.org/2000/svg" xmlns:xlink="http://www.w3.org/1999/xlink" x="0px" y="0px"
	 viewBox="0 0 1000 1000" style="enable-background:new 0 0 1000 1000;" xml:space="preserve">
<style type="text/css">
	.st0{fill:#CCECFF;}
	.st1{fill:#F03A47;}
	.st2{fill:#72B579;}
	.st3{fill:none;stroke:#464950;stroke-width:10;stroke-linecap:round;stroke-linejoin:round;stroke-miterlimit:10;}
	.st4{fill:#AECC75;}
	.st5{opacity:0.51;fill:#464950;}
	.st6{fill:none;stroke:#DD2A40;stroke-width:6;stroke-miterlimit:10;}
	.st7{opacity:0.85;fill:none;stroke:#464950;stroke-width:6;stroke-linejoin:round;stroke-miterlimit:10;}
	.st8{fill:#DD2A40;}
	.st9{fill:#50B893;}
	.st10{opacity:0.55;fill:#464950;}
	.st11{fill:#429977;}
	.st12{opacity:0.31;fill:#464950;}
	.st13{fill:#5A646D;}
	.st14{fill:#F4FFC5;}
	.st15{fill:#B7C391;}
	.st16{fill:#4C555C;}
	.st17{fill:none;stroke:#464950;stroke-width:8;stroke-linecap:round;stroke-linejoin:round;stroke-miterlimit:10;}
	.st18{opacity:0.92;fill:#DD2A40;}
	.st19{opacity:0.4;}
	.st20{fill:none;stroke:#464950;stroke-width:3;stroke-linecap:round;stroke-linejoin:round;stroke-miterlimit:10;}
	.st21{opacity:0.97;}
	.st22{fill:#A58167;}
	.st23{opacity:0.38;fill:#464950;}
	.st24{fill:none;stroke:#464950;stroke-width:6;stroke-linecap:round;stroke-linejoin:round;stroke-miterlimit:10;}
	.st25{fill:none;stroke:#464950;stroke-width:7;stroke-linecap:round;stroke-linejoin:round;stroke-miterlimit:10;}
	.st26{opacity:0.47;fill:#A58167;}
	.st27{opacity:0.76;fill:#464950;}
	.st28{opacity:0.67;fill:#464950;}
	.st29{fill:#62A366;}
	.st30{opacity:0.3;fill:#464950;}
	.st31{opacity:0.43;fill:#C7CAD1;}
	.st32{opacity:0.35;fill:#C7CAD1;}
	.st33{fill:#464950;}
</style>
<rect id="XMLID_45_" class="st0" width="1000" height="1000"/>
<g>
	<g>
		<g>
			<path class="st1" d="M63.2,959.2c0,2.5-1.2,3.7-2.6,3.7c-1.1,0-1.9-0.5-2.1-1.4c-0.4,0.5-1,0.8-1.8,0.8c-1.5,0-2.6-1.2-2.6-2.8
				c0-1.6,1.1-2.8,2.6-2.8c0.7,0,1.2,0.3,1.6,0.7v-0.5h1.6v3.9c0,0.8,0.3,1.4,1,1.4c0.9,0,1.7-0.9,1.7-3c0-3-2.3-5.3-5.4-5.3
				c-3.1,0-5.6,2.4-5.6,5.7c0,3.3,2.5,5.7,5.9,5.7c1.1,0,2.1-0.2,2.9-0.4v0.6c-0.8,0.3-1.7,0.4-2.9,0.4c-3.7,0-6.5-2.6-6.5-6.2
				c0-3.4,2.7-6.2,6.2-6.2C61.1,953.3,63.2,956.4,63.2,959.2z M58.3,959.5c0-0.8-0.6-1.4-1.3-1.4c-0.8,0-1.3,0.5-1.3,1.4
				c0,0.8,0.6,1.3,1.3,1.3C57.8,960.9,58.3,960.3,58.3,959.5z"/>
		</g>
		<g>
			<path class="st1" d="M69.4,955.1v2c-1.2-0.1-2.6,0.5-2.6,2.4v4.3h-1.9v-8.6h1.9v1.4C67.3,955.5,68.3,955.1,69.4,955.1z"/>
		</g>
		<g>
			<path class="st1" d="M74.6,962.3c1,0,1.8-0.5,2.2-1.1l1.5,0.9c-0.8,1.2-2.1,1.9-3.8,1.9c-2.8,0-4.7-1.9-4.7-4.5
				c0-2.5,1.8-4.5,4.5-4.5c2.6,0,4.3,2.1,4.3,4.5c0,0.3,0,0.5-0.1,0.8h-6.8C72.1,961.6,73.2,962.3,74.6,962.3z M76.9,958.8
				c-0.3-1.5-1.3-2.1-2.5-2.1c-1.4,0-2.3,0.8-2.6,2.1H76.9z"/>
		</g>
		<g>
			<path class="st1" d="M88.9,955.2v8.6h-1.9v-1.2c-0.7,0.9-1.7,1.5-3,1.5c-2.3,0-4.3-2-4.3-4.5c0-2.6,1.9-4.5,4.3-4.5
				c1.3,0,2.3,0.5,3,1.4v-1.2H88.9z M87.1,959.5c0-1.6-1.2-2.7-2.7-2.7c-1.5,0-2.7,1.1-2.7,2.7c0,1.6,1.2,2.7,2.7,2.7
				C85.9,962.3,87.1,961.1,87.1,959.5z"/>
		</g>
		<g>
			<path class="st1" d="M91.1,951.3H93v12.5h-1.9V951.3z"/>
		</g>
		<g>
			<path class="st1" d="M102.9,955.2l-3.3,8.6h-2.1l-3.3-8.6h2l2.4,6.5l2.4-6.5H102.9z"/>
		</g>
		<g>
			<path class="st1" d="M104.2,955.2h1.9v8.9c0,2.4-1.2,3.5-3.5,3.3v-1.8c1.1,0.1,1.7-0.3,1.7-1.5V955.2z M104,952.8
				c0-0.7,0.5-1.2,1.2-1.2c0.7,0,1.2,0.5,1.2,1.2c0,0.6-0.5,1.2-1.2,1.2C104.5,954,104,953.4,104,952.8z"/>
		</g>
		<g>
			<path class="st1" d="M116,955.2l-3.3,8.8c-0.8,2.2-2.2,3.3-4.2,3.2v-1.7c1.2,0.1,1.9-0.5,2.3-1.7l0.1-0.2l-3.6-8.4h2l2.6,6.2
				l2.2-6.2H116z"/>
		</g>
	</g>
	<g>
		<path class="st1" d="M211.9,938.7c0,2.1-1.5,3.8-3.6,3.8h-3v-7.6h3C210.4,934.9,211.9,936.6,211.9,938.7z M210.9,938.7
			c0-1.6-1.1-2.9-2.6-2.9h-2v5.7h2C209.8,941.6,210.9,940.3,210.9,938.7z"/>
		<path class="st1" d="M219.5,940.8h-3.4l-0.6,1.7h-1.1l2.8-7.6h1.1l2.8,7.6h-1.1L219.5,940.8z M219.2,939.9l-1.4-3.8l-1.4,3.8
			H219.2z"/>
		<path class="st1" d="M226.4,939.4v3.1h-1v-3.1l-2.7-4.5h1.1l2.1,3.6l2.1-3.6h1.1L226.4,939.4z"/>
		<path class="st1" d="M242,940.3c0,1.5-1.2,2.4-2.6,2.4c-1.1,0-2.1-0.5-2.5-1.6l0.9-0.5c0.2,0.8,0.8,1.1,1.7,1.1
			c0.9,0,1.6-0.5,1.6-1.4c0-0.9-0.7-1.4-1.6-1.4h-2.2l0.3-4h4.2v0.9h-3.3l-0.1,2h1.1C240.8,937.9,242,938.7,242,940.3z"/>
		<path class="st1" d="M250,940.3c0,1.5-1.2,2.4-2.6,2.4c-1.1,0-2.1-0.5-2.5-1.5l0.9-0.5c0.2,0.7,0.8,1.1,1.7,1.1
			c0.9,0,1.6-0.5,1.6-1.4c0-0.9-0.7-1.4-1.6-1.4h-0.3l-0.4-0.6l1.8-2.4h-3.4v-0.9h4.6v0.9L248,938C249.1,938.2,250,939,250,940.3z"
			/>
	</g>
	<g>
		<path class="st1" d="M58.9,938.7c0,2.1-1.5,3.8-3.6,3.8h-3v-7.6h3C57.4,934.9,58.9,936.6,58.9,938.7z M57.9,938.7
			c0-1.6-1.1-2.9-2.6-2.9h-2v5.7h2C56.8,941.6,57.9,940.3,57.9,938.7z"/>
		<path class="st1" d="M67,941.6v1h-4.6v-7.6h4.5v1h-3.5v2.3h3.2v0.9h-3.2v2.4H67z"/>
		<path class="st1" d="M70,940.8l0.9-0.5c0.3,0.8,0.9,1.4,2,1.4c1.1,0,1.6-0.5,1.6-1.2c0-0.8-0.7-1-1.8-1.4
			c-1.2-0.4-2.4-0.8-2.4-2.2c0-1.4,1.1-2.2,2.4-2.2c1.3,0,2.2,0.7,2.6,1.7l-0.8,0.5c-0.3-0.7-0.8-1.2-1.7-1.2
			c-0.8,0-1.4,0.4-1.4,1.1c0,0.7,0.5,1,1.6,1.3c1.3,0.4,2.6,0.8,2.6,2.3c0,1.3-1.1,2.2-2.6,2.2C71.5,942.7,70.4,941.9,70,940.8z"/>
		<path class="st1" d="M80,934.9v7.6h-1v-7.6H80z"/>
		<path class="st1" d="M91.3,939.2c0,1.9-1.4,3.5-3.7,3.5c-2.4,0-4-1.8-4-4c0-2.2,1.7-4,4-4c1.4,0,2.7,0.8,3.3,1.8l-0.9,0.5
			c-0.4-0.8-1.4-1.4-2.4-1.4c-1.8,0-3,1.3-3,3c0,1.7,1.2,3,3,3c1.6,0,2.5-0.9,2.7-2h-2.8v-0.9h3.8V939.2z"/>
		<path class="st1" d="M100.6,934.9v7.6h-0.8l-3.9-5.7v5.7h-1v-7.6h0.8l3.9,5.7v-5.7H100.6z"/>
		<path class="st1" d="M109.1,941.6v1h-4.6v-7.6h4.5v1h-3.5v2.3h3.2v0.9h-3.2v2.4H109.1z"/>
		<path class="st1" d="M119.2,938.7c0,2.1-1.5,3.8-3.6,3.8h-3v-7.6h3C117.6,934.9,119.2,936.6,119.2,938.7z M118.2,938.7
			c0-1.6-1.1-2.9-2.6-2.9h-2v5.7h2C117.1,941.6,118.2,940.3,118.2,938.7z"/>
		<path class="st1" d="M133.2,940.4c0,1.2-1,2.2-2.2,2.2h-3.3v-7.6h3c1.2,0,2.1,0.9,2.1,2.1c0,0.7-0.3,1.2-0.8,1.6
			C132.7,938.9,133.2,939.5,133.2,940.4z M128.7,935.8v2.3h2c0.6,0,1.1-0.5,1.1-1.2c0-0.6-0.5-1.2-1.1-1.2H128.7z M132.2,940.3
			c0-0.7-0.5-1.2-1.2-1.2h-2.3v2.5h2.3C131.7,941.6,132.2,941,132.2,940.3z"/>
		<path class="st1" d="M139.4,939.4v3.1h-1v-3.1l-2.7-4.5h1.1l2.1,3.6l2.1-3.6h1.1L139.4,939.4z"/>
	</g>
	<g>
		<path class="st1" d="M207.5,953.9v3.5h5v1.9h-5v5h-2v-12.4h7.3v1.9H207.5z"/>
		<path class="st1" d="M223.4,955.4v8.9h-1.9V963c-0.7,0.9-1.7,1.5-3.1,1.5c-2.4,0-4.4-2-4.4-4.7c0-2.6,2-4.7,4.4-4.7
			c1.4,0,2.4,0.6,3.1,1.5v-1.3H223.4z M221.5,959.9c0-1.6-1.2-2.8-2.8-2.8c-1.6,0-2.8,1.2-2.8,2.8c0,1.6,1.2,2.8,2.8,2.8
			C220.3,962.7,221.5,961.5,221.5,959.9z"/>
		<path class="st1" d="M230.3,955.3v2.1c-1.3-0.1-2.7,0.5-2.7,2.5v4.5h-1.9v-8.9h1.9v1.5C228.1,955.7,229.2,955.3,230.3,955.3z"/>
		<path class="st1" d="M244.7,958.8v5.5h-1.9v-5.4c0-1.2-0.7-1.9-1.7-1.9c-1.1,0-1.9,0.7-1.9,2.3v5h-1.9v-5.4c0-1.2-0.6-1.9-1.7-1.9
			c-1.1,0-2,0.7-2,2.3v5h-1.9v-8.9h1.9v1.1c0.6-0.9,1.4-1.3,2.5-1.3c1.2,0,2,0.5,2.5,1.4c0.6-0.9,1.5-1.4,2.7-1.4
			C243.4,955.2,244.7,956.6,244.7,958.8z"/>
	</g>
	<g>
		<g>
			<g>
				<path class="st1" d="M846.1,938.7c0,2.1-1.5,3.8-3.6,3.8h-3v-7.6h3C844.6,934.9,846.1,936.6,846.1,938.7z M845.2,938.7
					c0-1.6-1.1-2.9-2.6-2.9h-2v5.7h2C844.1,941.6,845.2,940.3,845.2,938.7z"/>
			</g>
			<g>
				<path class="st1" d="M849.3,938.7c0-2.2,1.7-4,3.9-4c2.2,0,4,1.8,4,4c0,2.2-1.7,4-4,4C851,942.7,849.3,940.9,849.3,938.7z
					 M856.1,938.7c0-1.7-1.3-3-2.9-3c-1.7,0-2.9,1.3-2.9,3c0,1.7,1.3,3,2.9,3C854.9,941.7,856.1,940.4,856.1,938.7z"/>
			</g>
			<g>
				<path class="st1" d="M859.8,934.9h1.1l1.7,6.3l1.9-6.3h1l1.9,6.3l1.7-6.3h1.1l-2.2,7.6h-1.2l-1.8-6.1l-1.8,6.1H862L859.8,934.9z
					"/>
			</g>
			<g>
				<path class="st1" d="M879.3,934.9v7.6h-0.8l-3.9-5.7v5.7h-1v-7.6h0.8l3.9,5.7v-5.7H879.3z"/>
			</g>
			<g>
				<path class="st1" d="M887.5,941.6v1h-4.3v-7.6h1v6.7H887.5z"/>
			</g>
			<g>
				<path class="st1" d="M889.9,938.7c0-2.2,1.7-4,3.9-4c2.2,0,4,1.8,4,4c0,2.2-1.7,4-4,4C891.6,942.7,889.9,940.9,889.9,938.7z
					 M896.8,938.7c0-1.7-1.3-3-2.9-3c-1.7,0-2.9,1.3-2.9,3c0,1.7,1.3,3,2.9,3C895.5,941.7,896.8,940.4,896.8,938.7z"/>
			</g>
			<g>
				<path class="st1" d="M905.4,940.8H902l-0.6,1.7h-1.1l2.8-7.6h1.1l2.8,7.6H906L905.4,940.8z M905.1,939.9l-1.4-3.8l-1.4,3.8
					H905.1z"/>
			</g>
			<g>
				<path class="st1" d="M916.9,938.7c0,2.1-1.5,3.8-3.6,3.8h-3v-7.6h3C915.4,934.9,916.9,936.6,916.9,938.7z M915.9,938.7
					c0-1.6-1.1-2.9-2.6-2.9h-2v5.7h2C914.9,941.6,915.9,940.3,915.9,938.7z"/>
			</g>
			<g>
				<path class="st1" d="M926.5,935.8v2.5h3.2v1h-3.2v3.2h-1v-7.6h4.4v1H926.5z"/>
			</g>
			<g>
				<path class="st1" d="M936.2,939.6h-1.8v2.9h-1v-7.6h3c1.3,0,2.4,1.1,2.4,2.4c0,1-0.7,1.9-1.6,2.2l1.8,3.1h-1.1L936.2,939.6z
					 M934.4,938.7h2c0.8,0,1.4-0.6,1.4-1.4c0-0.8-0.6-1.4-1.4-1.4h-2V938.7z"/>
			</g>
			<g>
				<path class="st1" d="M941.9,938.7c0-2.2,1.7-4,3.9-4c2.2,0,4,1.8,4,4c0,2.2-1.7,4-4,4C943.6,942.7,941.9,940.9,941.9,938.7z
					 M948.8,938.7c0-1.7-1.3-3-2.9-3c-1.7,0-2.9,1.3-2.9,3c0,1.7,1.3,3,2.9,3C947.5,941.7,948.8,940.4,948.8,938.7z"/>
			</g>
			<g>
				<path class="st1" d="M960.4,942.5h-1v-6l-2.5,4.2h-0.1l-2.5-4.1v5.9h-1v-7.6h1.1l2.4,4l2.4-4h1.1V942.5z"/>
			</g>
		</g>
		<g>
			<g>
				<path class="st1" d="M839.3,952.9c0-0.7,0.5-1.2,1.2-1.2c0.7,0,1.2,0.5,1.2,1.2c0,0.7-0.5,1.2-1.2,1.2
					C839.9,954.1,839.3,953.6,839.3,952.9z M839.6,955.4h1.9v8.9h-1.9V955.4z"/>
			</g>
			<g>
				<path class="st1" d="M843.7,951.4h1.9v12.9h-1.9V951.4z"/>
			</g>
			<g>
				<path class="st1" d="M847.8,951.4h1.9v12.9h-1.9V951.4z"/>
			</g>
			<g>
				<path class="st1" d="M852,951.4h1.9v12.9H852V951.4z"/>
			</g>
			<g>
				<path class="st1" d="M864,955.4v8.9h-1.9v-1.1c-0.6,0.9-1.5,1.4-2.7,1.4c-2,0-3.4-1.3-3.4-3.6v-5.4h1.9v5.2c0,1.3,0.8,2.1,2,2.1
					c1.3,0,2.2-0.7,2.2-2.5v-4.7H864z"/>
			</g>
			<g>
				<path class="st1" d="M872.6,961.8c0,1.8-1.5,2.7-3.5,2.7c-1.8,0-3-0.8-3.6-2.1l1.6-1c0.3,0.8,1,1.3,2,1.3c0.8,0,1.5-0.3,1.5-1
					c0-1.6-4.8-0.7-4.8-3.9c0-1.7,1.4-2.7,3.2-2.7c1.5,0,2.7,0.7,3.3,1.8l-1.6,0.9c-0.3-0.7-0.9-1-1.7-1c-0.7,0-1.3,0.3-1.3,0.9
					C867.9,959.5,872.6,958.5,872.6,961.8z"/>
			</g>
			<g>
				<path class="st1" d="M876.7,957.3v4.2c0,1.1,0.7,1.1,2.2,1v1.7c-2.9,0.4-4.1-0.5-4.1-2.8v-4.2h-1.6v-1.8h1.6v-1.9l1.9-0.6v2.5
					h2.2v1.8H876.7z"/>
			</g>
			<g>
				<path class="st1" d="M885.4,955.3v2.1c-1.3-0.1-2.7,0.5-2.7,2.5v4.5h-1.9v-8.9h1.9v1.5C883.2,955.7,884.2,955.3,885.4,955.3z"/>
			</g>
			<g>
				<path class="st1" d="M895.3,955.4v8.9h-1.9V963c-0.7,0.9-1.7,1.5-3.1,1.5c-2.4,0-4.4-2-4.4-4.7c0-2.6,2-4.7,4.4-4.7
					c1.4,0,2.4,0.6,3.1,1.5v-1.3H895.3z M893.4,959.9c0-1.6-1.2-2.8-2.8-2.8c-1.6,0-2.8,1.2-2.8,2.8c0,1.6,1.2,2.8,2.8,2.8
					C892.2,962.7,893.4,961.5,893.4,959.9z"/>
			</g>
			<g>
				<path class="st1" d="M900.3,957.3v4.2c0,1.1,0.7,1.1,2.2,1v1.7c-2.9,0.4-4.1-0.5-4.1-2.8v-4.2h-1.6v-1.8h1.6v-1.9l1.9-0.6v2.5
					h2.2v1.8H900.3z"/>
			</g>
			<g>
				<path class="st1" d="M903.9,952.9c0-0.7,0.5-1.2,1.2-1.2c0.7,0,1.2,0.5,1.2,1.2c0,0.7-0.5,1.2-1.2,1.2
					C904.5,954.1,903.9,953.6,903.9,952.9z M904.2,955.4h1.9v8.9h-1.9V955.4z"/>
			</g>
			<g>
				<path class="st1" d="M907.8,959.9c0-2.6,2.1-4.7,4.7-4.7c2.6,0,4.7,2,4.7,4.7c0,2.6-2.1,4.7-4.7,4.7
					C909.9,964.5,907.8,962.5,907.8,959.9z M915.3,959.9c0-1.6-1.2-2.8-2.8-2.8c-1.6,0-2.8,1.2-2.8,2.8c0,1.6,1.2,2.8,2.8,2.8
					C914.1,962.7,915.3,961.5,915.3,959.9z"/>
			</g>
			<g>
				<path class="st1" d="M927,958.9v5.4h-1.9v-5.2c0-1.3-0.8-2.1-2-2.1c-1.3,0-2.2,0.7-2.2,2.5v4.7h-1.9v-8.9h1.9v1.1
					c0.6-0.9,1.5-1.4,2.7-1.4C925.5,955.2,927,956.6,927,958.9z"/>
			</g>
			<g>
				<path class="st1" d="M935.5,961.8c0,1.8-1.5,2.7-3.5,2.7c-1.8,0-3-0.8-3.6-2.1l1.6-1c0.3,0.8,1,1.3,2,1.3c0.8,0,1.5-0.3,1.5-1
					c0-1.6-4.8-0.7-4.8-3.9c0-1.7,1.4-2.7,3.2-2.7c1.5,0,2.7,0.7,3.3,1.8l-1.6,0.9c-0.3-0.7-0.9-1-1.7-1c-0.7,0-1.3,0.3-1.3,0.9
					C930.7,959.5,935.5,958.5,935.5,961.8z"/>
			</g>
			<g>
				<path class="st1" d="M936.8,963.2c0-0.7,0.6-1.3,1.3-1.3c0.7,0,1.3,0.6,1.3,1.3c0,0.7-0.6,1.3-1.3,1.3
					C937.4,964.5,936.8,963.9,936.8,963.2z"/>
			</g>
			<g>
				<path class="st1" d="M940.3,959.9c0-2.6,2-4.7,4.7-4.7c1.7,0,3.2,0.9,3.9,2.3l-1.6,1c-0.4-0.8-1.3-1.4-2.3-1.4
					c-1.6,0-2.7,1.2-2.7,2.8c0,1.6,1.2,2.8,2.7,2.8c1.1,0,1.9-0.5,2.4-1.4l1.6,0.9c-0.7,1.4-2.2,2.3-4,2.3
					C942.3,964.5,940.3,962.5,940.3,959.9z"/>
			</g>
			<g>
				<path class="st1" d="M949.7,959.9c0-2.6,2.1-4.7,4.7-4.7c2.6,0,4.7,2,4.7,4.7c0,2.6-2.1,4.7-4.7,4.7
					C951.8,964.5,949.7,962.5,949.7,959.9z M957.2,959.9c0-1.6-1.2-2.8-2.8-2.8s-2.8,1.2-2.8,2.8c0,1.6,1.2,2.8,2.8,2.8
					S957.2,961.5,957.2,959.9z"/>
			</g>
		</g>
	</g>
</g>
<path id="XMLID_40_" class="st2" d="M142.3,726c-8-6.5-13-16.4-13-27.5c0-19.5,15.8-35.4,35.4-35.4S200,679,200,698.6
	c0,11.1-5.1,21-13,27.5L142.3,726z"/>
<path id="XMLID_41_" class="st3" d="M142.3,726c-8-6.5-13-16.4-13-27.5c0-19.5,15.8-35.4,35.4-35.4S200,679,200,698.6
	c0,11.1-5.1,21-13,27.5L142.3,726z"/>
<ellipse id="XMLID_230_" class="st4" cx="627.3" cy="682.3" rx="21.3" ry="43.3"/>
<path id="XMLID_235_" class="st5" d="M614.9,682.3c0-20.8,7.2-38.1,16.8-42.3c-1.5-0.6-3-1-4.5-1c-11.8,0-21.3,19.4-21.3,43.3
	s9.5,43.3,21.3,43.3c1.5,0,3-0.3,4.5-1C622.1,720.4,614.9,703.1,614.9,682.3z"/>
<ellipse id="XMLID_229_" class="st3" cx="627.3" cy="682.3" rx="21.3" ry="43.3"/>
<polygon id="XMLID_124_" class="st1" points="287.3,560 284.7,447 179.7,447 177.1,560 173.3,726 291.1,726 "/>
<line id="XMLID_157_" class="st6" x1="240.5" y1="593.8" x2="287.6" y2="593.8"/>
<line id="XMLID_160_" class="st7" x1="209" y1="609.3" x2="239.2" y2="609.3"/>
<line id="XMLID_161_" class="st7" x1="274.2" y1="622" x2="289.3" y2="622"/>
<line id="XMLID_162_" class="st7" x1="259.1" y1="672" x2="272.7" y2="672"/>
<line id="XMLID_158_" class="st6" x1="272.7" y1="654.2" x2="287.6" y2="654.2"/>
<line id="XMLID_159_" class="st6" x1="269.7" y1="693.5" x2="278.6" y2="693.5"/>
<polygon id="XMLID_125_" class="st8" points="205.7,573 287.6,573 287.3,560 203.9,560 "/>
<polygon id="XMLID_135_" class="st8" points="173.3,726 207,726 211.9,456 284.9,455.8 284.7,447 179.7,447 177.1,560 "/>
<circle id="XMLID_52_" class="st9" cx="393.6" cy="431.1" r="82.6"/>
<path id="XMLID_200_" class="st10" d="M326.2,431.1c0-43.1,33-78.5,75.1-82.3c-2.5-0.2-5-0.4-7.6-0.4c-45.6,0-82.6,37-82.6,82.6
	c0,45.6,37,82.6,82.6,82.6c2.6,0,5.1-0.1,7.6-0.4C359.1,509.6,326.2,474.2,326.2,431.1z"/>
<polyline id="XMLID_138_" class="st3" points="393.6,431.1 393.6,452.7 393.6,494.5 "/>
<line id="XMLID_139_" class="st3" x1="424" y1="444.3" x2="393.6" y2="462.8"/>
<line id="XMLID_140_" class="st3" x1="393.6" y1="477.3" x2="368" y2="457"/>
<circle id="XMLID_38_" class="st3" cx="393.6" cy="431.1" r="82.6"/>
<circle id="XMLID_51_" class="st11" cx="338" cy="510.5" r="35"/>
<path id="XMLID_201_" class="st12" d="M315.9,510.5c0-17.1,12.3-31.4,28.6-34.4c-2.1-0.4-4.2-0.6-6.4-0.6c-19.3,0-35,15.7-35,35
	s15.7,35,35,35c2.2,0,4.3-0.2,6.4-0.6C328.2,541.9,315.9,527.6,315.9,510.5z"/>
<line id="XMLID_142_" class="st3" x1="346" y1="519.1" x2="375" y2="538.3"/>
<circle id="XMLID_44_" class="st3" cx="338" cy="510.5" r="35"/>
<polygon id="XMLID_131_" class="st3" points="287.3,560 284.7,447 179.7,447 177.1,560 173.3,726 291.1,726 "/>
<polygon id="XMLID_130_" class="st13" points="303,561 161.4,561 177.9,536 286.5,536 "/>
<polygon id="XMLID_7_" class="st3" points="303,561 161.4,561 177.9,536 286.5,536 "/>
<path id="XMLID_129_" class="st14" d="M222.7,511h-25v-27.5c0-6.9,5.6-12.5,12.5-12.5h0c6.9,0,12.5,5.6,12.5,12.5V511z"/>
<path id="XMLID_127_" class="st14" d="M266.7,511h-26v-27.5c0-6.9,5.6-12.5,12.5-12.5h1c6.9,0,12.5,5.6,12.5,12.5V511z"/>
<path id="XMLID_134_" class="st15" d="M210.2,471L210.2,471c-6.9,0-12.5,5.6-12.5,12.5v11c0-6.9,5.6-12.5,12.5-12.5h0
	c6.9,0,12.5,5.6,12.5,12.5v-11C222.7,476.6,217.1,471,210.2,471z"/>
<path id="XMLID_136_" class="st15" d="M254.2,471h-1c-6.9,0-12.5,5.6-12.5,12.5v11c0-6.9,5.6-12.5,12.5-12.5h1
	c6.9,0,12.5,5.6,12.5,12.5v-11C266.7,476.6,261.1,471,254.2,471z"/>
<path id="XMLID_10_" class="st3" d="M222.7,511h-25v-27.5c0-6.9,5.6-12.5,12.5-12.5h0c6.9,0,12.5,5.6,12.5,12.5V511z"/>
<path id="XMLID_14_" class="st3" d="M266.7,511h-26v-27.5c0-6.9,5.6-12.5,12.5-12.5h1c6.9,0,12.5,5.6,12.5,12.5V511z"/>
<polygon id="XMLID_126_" class="st13" points="297.2,447 167.2,447 232.2,383.6 "/>
<polygon id="XMLID_128_" class="st16" points="232.2,383.6 213.3,447 167.2,447 "/>
<polygon id="XMLID_8_" class="st3" points="297.2,447 167.2,447 232.2,383.6 "/>
<rect id="XMLID_12_" x="203.9" y="625" class="st14" width="56.7" height="101"/>
<rect id="XMLID_13_" x="203.9" y="625" class="st15" width="56.7" height="12.8"/>
<rect id="XMLID_231_" x="204.9" y="625" class="st15" width="8.1" height="101"/>
<rect id="XMLID_15_" x="203.9" y="625" class="st3" width="56.7" height="101"/>
<line id="XMLID_17_" class="st17" x1="214.1" y1="636" x2="250.3" y2="715"/>
<line id="XMLID_18_" class="st17" x1="250.3" y1="636" x2="214.1" y2="715"/>
<polygon id="XMLID_47_" class="st1" points="563.4,492.4 473.1,447 382.8,492.4 353.4,544 353.4,723.8 592.8,723.8 592.8,544 "/>
<polygon id="XMLID_60_" class="st1" points="563.4,492.4 473.1,447 382.8,492.4 353.4,544 353.4,723.8 592.8,723.8 592.8,544 "/>
<rect id="XMLID_216_" x="353.4" y="587.4" class="st18" width="10.2" height="137.6"/>
<polygon id="XMLID_66_" class="st18" points="476.1,447 385.8,492.4 356.4,544 356.4,596.4 404.5,517.1 476.1,481.1 547.7,517.1 
	595.8,596.4 595.8,544 566.4,492.4 "/>
<g id="XMLID_71_" class="st19">
	<g id="XMLID_97_">
		<line id="XMLID_98_" class="st20" x1="403.8" y1="489" x2="542.4" y2="489"/>
	</g>
	<g id="XMLID_95_">
		<line id="XMLID_96_" class="st20" x1="383.5" y1="507" x2="562.7" y2="507"/>
	</g>
	<g id="XMLID_93_">
		<line id="XMLID_94_" class="st20" x1="372.2" y1="525" x2="574" y2="525"/>
	</g>
	<g id="XMLID_91_">
		<line id="XMLID_92_" class="st20" x1="360.9" y1="543" x2="585.3" y2="543"/>
	</g>
	<g id="XMLID_89_">
		<line id="XMLID_90_" class="st20" x1="353.4" y1="561" x2="592.8" y2="561"/>
	</g>
	<g id="XMLID_87_">
		<line id="XMLID_88_" class="st20" x1="353.4" y1="579" x2="592.8" y2="579"/>
	</g>
	<g id="XMLID_85_">
		<line id="XMLID_86_" class="st20" x1="353.4" y1="597" x2="592.8" y2="597"/>
	</g>
	<g id="XMLID_83_">
		<line id="XMLID_84_" class="st20" x1="353.4" y1="615" x2="592.8" y2="615"/>
	</g>
	<g id="XMLID_81_">
		<line id="XMLID_82_" class="st20" x1="353.4" y1="633" x2="592.8" y2="633"/>
	</g>
	<g id="XMLID_78_">
		<line id="XMLID_79_" class="st20" x1="353.4" y1="651" x2="592.8" y2="651"/>
	</g>
	<g id="XMLID_76_">
		<line id="XMLID_77_" class="st20" x1="353.4" y1="669" x2="592.8" y2="669"/>
	</g>
	<g id="XMLID_74_">
		<line id="XMLID_75_" class="st20" x1="353.4" y1="687" x2="592.8" y2="687"/>
	</g>
	<g id="XMLID_72_">
		<line id="XMLID_73_" class="st20" x1="353.4" y1="705" x2="592.8" y2="705"/>
	</g>
</g>
<rect id="XMLID_16_" x="353.4" y="587.4" class="st8" width="239.4" height="9.8"/>
<g id="XMLID_69_" class="st21">
	<g id="XMLID_122_">
		<line id="XMLID_123_" class="st20" x1="403.8" y1="492" x2="542.4" y2="492"/>
	</g>
	<g id="XMLID_120_">
		<line id="XMLID_121_" class="st20" x1="383.5" y1="510" x2="562.7" y2="510"/>
	</g>
	<g id="XMLID_118_">
		<line id="XMLID_119_" class="st20" x1="372.2" y1="528" x2="574" y2="528"/>
	</g>
	<g id="XMLID_116_">
		<line id="XMLID_117_" class="st20" x1="360.9" y1="546" x2="585.3" y2="546"/>
	</g>
	<g id="XMLID_114_">
		<line id="XMLID_115_" class="st20" x1="353.4" y1="564" x2="592.8" y2="564"/>
	</g>
	<g id="XMLID_112_">
		<line id="XMLID_113_" class="st20" x1="353.4" y1="582" x2="592.8" y2="582"/>
	</g>
	<g id="XMLID_110_">
		<line id="XMLID_111_" class="st20" x1="353.4" y1="600" x2="592.8" y2="600"/>
	</g>
	<g id="XMLID_108_">
		<line id="XMLID_109_" class="st20" x1="353.4" y1="618" x2="592.8" y2="618"/>
	</g>
	<g id="XMLID_106_">
		<line id="XMLID_107_" class="st20" x1="353.4" y1="636" x2="592.8" y2="636"/>
	</g>
	<g id="XMLID_104_">
		<line id="XMLID_105_" class="st20" x1="353.4" y1="654" x2="592.8" y2="654"/>
	</g>
	<g id="XMLID_102_">
		<line id="XMLID_103_" class="st20" x1="353.4" y1="672" x2="592.8" y2="672"/>
	</g>
	<g id="XMLID_100_">
		<line id="XMLID_101_" class="st20" x1="353.4" y1="690" x2="592.8" y2="690"/>
	</g>
	<g id="XMLID_80_">
		<line id="XMLID_99_" class="st20" x1="353.4" y1="708" x2="592.8" y2="708"/>
	</g>
</g>
<polygon id="XMLID_28_" class="st3" points="563.4,492.4 473.1,447 382.8,492.4 353.4,544 353.4,723.8 592.8,723.8 592.8,544 "/>
<rect id="XMLID_55_" x="403.8" y="629.5" class="st14" width="69.3" height="94.3"/>
<rect id="XMLID_62_" x="403.8" y="629.5" class="st14" width="69.3" height="94.3"/>
<rect id="XMLID_64_" x="403.8" y="629.5" class="st15" width="69.3" height="13.5"/>
<rect id="XMLID_215_" x="403.8" y="629.5" class="st15" width="9.2" height="93.2"/>
<rect id="XMLID_53_" x="473.1" y="629.5" class="st14" width="69.3" height="94.3"/>
<rect id="XMLID_67_" x="473.1" y="629.5" class="st15" width="69.3" height="13.5"/>
<rect id="XMLID_217_" x="473.1" y="629.5" class="st15" width="9.2" height="93.2"/>
<rect id="XMLID_19_" x="403.8" y="629.5" class="st3" width="69.3" height="94.3"/>
<rect id="XMLID_21_" x="473.1" y="629.5" class="st3" width="69.3" height="94.3"/>
<rect id="XMLID_56_" x="443.1" y="507" class="st14" width="60" height="60"/>
<rect id="XMLID_65_" x="443.1" y="507" class="st14" width="60" height="60"/>
<rect id="XMLID_68_" x="443.1" y="507" class="st15" width="60" height="10.5"/>
<rect id="XMLID_70_" x="443.1" y="537.5" class="st15" width="60" height="8"/>
<rect id="XMLID_20_" x="443.1" y="507" class="st3" width="60" height="60"/>
<polygon id="XMLID_50_" class="st22" points="611.4,576.5 597.5,584.4 551.9,504.5 473.1,464.9 394.3,504.5 348.7,584.4 
	334.8,576.5 382.8,492.4 473.1,447 563.4,492.4 "/>
<polygon id="XMLID_33_" class="st3" points="611.4,576.5 597.5,584.4 551.9,504.5 473.1,464.9 394.3,504.5 348.7,584.4 334.8,576.5 
	382.8,492.4 473.1,447 563.4,492.4 "/>
<ellipse id="XMLID_171_" class="st4" cx="741.6" cy="565.5" rx="46.4" ry="83.9"/>
<path id="XMLID_202_" class="st5" d="M707.6,566.5c0-43.8,18.6-79.7,42.2-83.5c-2.7-0.9-5.4-1.4-8.3-1.4
	c-25.6,0-46.4,37.6-46.4,83.9c0,46.3,20.8,83.9,46.4,83.9c1.4,0,2.8-0.1,4.2-0.4C724.1,642,707.6,607.7,707.6,566.5z"/>
<ellipse id="XMLID_11_" class="st3" cx="741.6" cy="565.5" rx="46.4" ry="83.9"/>
<polyline id="XMLID_22_" class="st3" points="741.6,548.7 741.6,624 741.6,723.8 "/>
<path id="XMLID_163_" class="st2" d="M899.2,489.5c9.3,32.5,9.4,62.9-1.5,86.7c-10.5,23.6-31.9,40.7-57.3,40.5
	c-25.5,0.2-46.9-16.9-57.3-40.5c-10.8-23.9-10.8-54.3-1.5-86.7c21.5-64.9,37.2-119.5,58.8-119.5C862,369.9,877.7,424.6,899.2,489.5z
	"/>
<circle id="XMLID_208_" class="st5" cx="818.1" cy="567" r="8.1"/>
<path id="XMLID_206_" class="st23" d="M798.6,576c-11.4-25-11.3-57-1.5-91.1c16.8-51.2,30.1-101.4,44.8-110
	c-0.6-0.1-0.9-5.1-1.5-5.1c-21.6,0-37.3,54.7-58.8,119.5c-9.3,32.5-9.4,62.9,1.5,86.7c10.5,23.6,31.9,40.7,57.3,40.5
	c1.1,0,2.1,0,3.2-0.1C823.7,611.4,807.4,595.9,798.6,576z"/>
<path id="XMLID_29_" class="st3" d="M899.2,489.5c9.3,32.5,9.4,62.9-1.5,86.7c-10.5,23.6-31.9,40.7-57.3,40.5
	c-25.5,0.2-46.9-16.9-57.3-40.5c-10.8-23.9-10.8-54.3-1.5-86.7c21.5-64.9,37.2-119.5,58.8-119.5C862,369.9,877.7,424.6,899.2,489.5z
	"/>
<path id="XMLID_133_" class="st4" d="M284.3,723.8c0-14.7,11.9-26.6,26.6-26.6c14.7,0,26.6,11.9,26.6,26.6H284.3z"/>
<path id="XMLID_39_" class="st3" d="M284.3,723.8c0-14.7,11.9-26.6,26.6-26.6c14.7,0,26.6,11.9,26.6,26.6H284.3z"/>
<path id="XMLID_233_" class="st4" d="M91.8,725.8c0-14.7,11.9-26.6,26.6-26.6s26.6,11.9,26.6,26.6H91.8z"/>
<path id="XMLID_42_" class="st3" d="M91.8,725.8c0-14.7,11.9-26.6,26.6-26.6s26.6,11.9,26.6,26.6H91.8z"/>
<line id="XMLID_63_" class="st3" x1="564.3" y1="584.4" x2="594.8" y2="584.4"/>
<line id="XMLID_61_" class="st3" x1="537" y1="584.4" x2="549" y2="584.4"/>
<line id="XMLID_54_" class="st3" x1="348.7" y1="584.4" x2="523.7" y2="584.4"/>
<line id="XMLID_23_" class="st24" x1="473.1" y1="508" x2="473.1" y2="568.7"/>
<line id="XMLID_24_" class="st24" x1="501.1" y1="537" x2="445.1" y2="537"/>
<line id="XMLID_58_" class="st17" x1="416.1" y1="643" x2="460.8" y2="710.3"/>
<line id="XMLID_59_" class="st17" x1="460.8" y1="643" x2="416.1" y2="710.3"/>
<line id="XMLID_57_" class="st17" x1="485.4" y1="643" x2="530.1" y2="710.3"/>
<line id="XMLID_26_" class="st17" x1="530.1" y1="643" x2="485.4" y2="710.3"/>
<path id="XMLID_137_" class="st3" d="M393.6,477.3"/>
<g>
	<line id="XMLID_247_" class="st3" x1="257.5" y1="815.8" x2="396.6" y2="815.8"/>
	<line id="XMLID_175_" class="st3" x1="221" y1="815.8" x2="235.5" y2="815.8"/>
	<rect id="XMLID_172_" x="276.2" y="788.7" class="st25" width="120.4" height="7"/>
	<rect id="XMLID_174_" x="276.2" y="765.5" class="st25" width="120.4" height="7"/>
	<polygon id="XMLID_147_" class="st22" points="347.3,815.8 328.3,815.8 328.3,742.8 337.8,732.2 347.3,742.8 	"/>
	<polygon id="XMLID_253_" class="st26" points="337.3,747.8 345.6,738.6 340.8,733.2 331.3,743.8 331.3,816.8 337.3,816.8 	"/>
	<polygon id="XMLID_144_" class="st3" points="347.3,815.8 328.3,815.8 328.3,742.8 337.8,732.2 347.3,742.8 	"/>
	<polygon id="XMLID_173_" class="st22" points="385.6,815.8 366.6,815.8 366.6,742.8 376.1,732.2 385.6,742.8 	"/>
	<polygon id="XMLID_238_" class="st26" points="375.6,747.8 383.8,738.6 379.1,733.2 369.6,743.8 369.6,816.8 375.6,816.8 	"/>
	<polygon id="XMLID_185_" class="st3" points="385.6,815.8 366.6,815.8 366.6,742.8 376.1,732.2 385.6,742.8 	"/>
	<polygon id="XMLID_153_" class="st22" points="308.6,815.8 289.6,815.8 289.6,742.8 299.1,732.2 308.6,742.8 	"/>
	<polygon id="XMLID_150_" class="st22" points="308.6,815.8 289.6,815.8 289.6,742.8 299.1,732.2 308.6,742.8 	"/>
	<polygon id="XMLID_261_" class="st26" points="298.6,747.8 306.9,738.6 302.1,733.2 292.6,743.8 292.6,816.8 298.6,816.8 	"/>
	<polygon id="XMLID_151_" class="st3" points="308.6,815.8 289.6,815.8 289.6,742.8 299.1,732.2 308.6,742.8 	"/>
</g>
<circle id="XMLID_156_" class="st27" cx="415.4" cy="391.6" r="6.6"/>
<circle id="XMLID_170_" class="st27" cx="373.1" cy="383.6" r="12.3"/>
<circle id="XMLID_165_" class="st27" cx="368" cy="431.1" r="3.8"/>
<circle id="XMLID_164_" class="st28" cx="342.8" cy="422.8" r="8"/>
<circle id="XMLID_169_" class="st28" cx="386.7" cy="409.5" r="6.9"/>
<circle id="XMLID_167_" class="st28" cx="443.5" cy="426" r="3.2"/>
<circle id="XMLID_177_" class="st29" cx="893.5" cy="477" r="22.8"/>
<path id="XMLID_207_" class="st30" d="M882.9,477c0-11,7.8-20.2,18.2-22.4c-1.5-0.3-3-0.5-4.6-0.5c-12.6,0-22.8,10.2-22.8,22.8
	c0,12.6,10.2,22.8,22.8,22.8c1.6,0,3.1-0.2,4.6-0.5C890.7,497.2,882.9,488,882.9,477z"/>
<circle id="XMLID_43_" class="st3" cx="893.5" cy="477" r="22.8"/>
<polyline id="XMLID_30_" class="st3" points="840.4,498 840.4,582 840.4,723.8 "/>
<path id="XMLID_212_" class="st2" d="M778.6,724.7c0-29.2,23.7-52.9,52.9-52.9s52.9,23.7,52.9,52.9H778.6z"/>
<path id="XMLID_210_" class="st2" d="M778.6,724.7c0-29.2,23.7-52.9,52.9-52.9s52.9,23.7,52.9,52.9H778.6z"/>
<path id="XMLID_226_" class="st23" d="M840.8,672.6c-3-0.5-6.1-0.8-9.3-0.8c-29.2,0-52.9,23.7-52.9,52.9h18.7
	C797.3,698.7,816,677,840.8,672.6z"/>
<path id="XMLID_211_" class="st3" d="M778.6,724.7c0-29.2,23.7-52.9,52.9-52.9s52.9,23.7,52.9,52.9H778.6z"/>
<line id="XMLID_186_" class="st3" x1="870.6" y1="564" x2="840.4" y2="590"/>
<line id="XMLID_187_" class="st3" x1="840.4" y1="546" x2="812" y2="516.6"/>
<line id="XMLID_188_" class="st3" x1="760.5" y1="606.7" x2="741.6" y2="624"/>
<line id="XMLID_189_" class="st3" x1="741.6" y1="593.3" x2="721.8" y2="573.5"/>
<circle id="XMLID_166_" class="st5" cx="762.9" cy="575.4" r="6.9"/>
<circle id="XMLID_194_" class="st5" cx="720.9" cy="542.1" r="3.3"/>
<circle id="XMLID_196_" class="st31" cx="739.1" cy="517.4" r="7.4"/>
<circle id="XMLID_199_" class="st31" cx="843.6" cy="439.6" r="5.4"/>
<circle id="XMLID_203_" class="st5" cx="858" cy="503.5" r="5.5"/>
<circle id="XMLID_205_" class="st31" cx="826.2" cy="468.6" r="8.1"/>
<circle id="XMLID_204_" class="st31" cx="869.3" cy="528.9" r="7.7"/>
<circle id="XMLID_198_" class="st31" cx="757.3" cy="543.4" r="4.6"/>
<circle id="XMLID_197_" class="st32" cx="722.4" cy="595.8" r="3.4"/>
<path id="XMLID_209_" class="st4" d="M853.4,724.7c0-17.6,14.3-31.8,31.8-31.8s31.8,14.3,31.8,31.8H853.4z"/>
<path id="XMLID_227_" class="st5" d="M893.8,694c-2.7-0.8-5.6-1.2-8.6-1.2c-17.6,0-31.8,14.3-31.8,31.8h17.3
	C870.6,710.1,880.4,697.8,893.8,694z"/>
<path id="XMLID_168_" class="st3" d="M853.4,724.7c0-17.6,14.3-31.8,31.8-31.8s31.8,14.3,31.8,31.8H853.4z"/>
<g>
	<line id="XMLID_192_" class="st3" x1="864" y1="815.8" x2="883.8" y2="815.8"/>
	<line id="XMLID_190_" class="st3" x1="898.2" y1="815.8" x2="902.6" y2="815.8"/>
	<line id="XMLID_191_" class="st3" x1="566.5" y1="815.8" x2="848.5" y2="815.8"/>
	<line id="XMLID_46_" class="st3" x1="538" y1="815.8" x2="549" y2="815.8"/>
	<rect id="XMLID_31_" x="554.3" y="763.5" class="st17" width="286.1" height="4"/>
	<rect id="XMLID_37_" x="557.3" y="786.7" class="st17" width="286.1" height="7"/>
	<polygon id="XMLID_141_" class="st22" points="590.9,815.8 571.9,815.8 571.9,742.8 581.4,732.2 590.9,742.8 	"/>
	<polygon id="XMLID_237_" class="st26" points="580.9,747.8 589.2,738.6 584.4,733.2 574.9,743.8 574.9,816.8 580.9,816.8 	"/>
	<polygon id="XMLID_34_" class="st3" points="590.9,815.8 571.9,815.8 571.9,742.8 581.4,732.2 590.9,742.8 	"/>
	<polygon id="XMLID_155_" class="st22" points="686.5,815.8 667.5,815.8 667.5,742.8 677,732.2 686.5,742.8 	"/>
	<polygon id="XMLID_240_" class="st26" points="676.5,747.8 684.8,738.6 680,733.2 670.5,743.8 670.5,816.8 676.5,816.8 	"/>
	<polygon id="XMLID_154_" class="st22" points="734.3,815.8 715.3,815.8 715.3,742.8 724.8,732.2 734.3,742.8 	"/>
	<polygon id="XMLID_243_" class="st26" points="723.3,746.8 731.6,737.6 726.8,732.2 717.3,742.8 717.3,815.8 723.3,815.8 	"/>
	<polygon id="XMLID_146_" class="st22" points="638.7,815.8 619.7,815.8 619.7,742.8 629.2,732.2 638.7,742.8 	"/>
	<polygon id="XMLID_244_" class="st26" points="628.7,747.8 637,738.6 632.2,733.2 622.7,743.8 622.7,816.8 628.7,816.8 	"/>
	<polygon id="XMLID_27_" class="st3" points="686.5,815.8 667.5,815.8 667.5,742.8 677,732.2 686.5,742.8 	"/>
	<polygon id="XMLID_36_" class="st3" points="734.3,815.8 715.3,815.8 715.3,742.8 724.8,732.2 734.3,742.8 	"/>
	<polygon id="XMLID_32_" class="st3" points="638.7,815.8 619.7,815.8 619.7,742.8 629.2,732.2 638.7,742.8 	"/>
	<polygon id="XMLID_149_" class="st22" points="828,815.8 809,815.8 809,742.8 818.5,732.2 828,742.8 	"/>
	<polygon id="XMLID_236_" class="st26" points="818,747.8 826.3,738.6 821.5,733.2 812,743.8 812,816.8 818,816.8 	"/>
	<polygon id="XMLID_49_" class="st3" points="828,815.8 809,815.8 809,742.8 818.5,732.2 828,742.8 	"/>
	<polygon id="XMLID_152_" class="st22" points="781.6,815.8 762.6,815.8 762.6,742.8 772.1,732.2 781.6,742.8 	"/>
	<polygon id="XMLID_242_" class="st26" points="771.6,747.8 779.9,738.6 775.1,733.2 765.6,743.8 765.6,816.8 771.6,816.8 	"/>
	<polygon id="XMLID_48_" class="st3" points="781.6,815.8 762.6,815.8 762.6,742.8 772.1,732.2 781.6,742.8 	"/>
</g>
<circle id="XMLID_219_" class="st28" cx="346" cy="500" r="3.5"/>
<circle id="XMLID_223_" class="st27" cx="326.5" cy="507.5" r="5.8"/>
<circle id="XMLID_228_" class="st31" cx="639.3" cy="678" r="4.3"/>
<circle id="XMLID_232_" class="st5" cx="627.3" cy="665.8" r="3.5"/>
<line id="XMLID_25_" class="st3" x1="65.3" y1="726" x2="945.6" y2="726"/>
<path id="XMLID_132_" class="st4" d="M715.6,725.2c-0.2-1.5-0.2-3,0-4.6c1.3-11.6,11.7-20,23.3-18.8c11.6,1.3,20,11.7,18.8,23.3
	L715.6,725.2z"/>
<path id="XMLID_35_" class="st3" d="M715.6,725.2c-0.2-1.5-0.2-3,0-4.6c1.3-11.6,11.7-20,23.3-18.8c11.6,1.3,20,11.7,18.8,23.3
	L715.6,725.2z"/>
<path id="XMLID_148_" class="st33" d="M688.8,726.5c-0.1-0.5-0.1-0.9-0.1-1.4c0-6.4,5.2-11.6,11.6-11.6c6.4,0,11.6,5.2,11.6,11.6
	c0,0.6,0,1.2-0.1,1.7L688.8,726.5z"/>
<path id="XMLID_221_" class="st33" d="M592.9,725.8c-0.1-0.7-0.1-1.3-0.1-2c0-9.5,7.7-17.2,17.2-17.2c9.5,0,17.2,7.7,17.2,17.2
	c0,0.9-0.1,1.7-0.2,2.6L592.9,725.8z"/>
<path id="XMLID_5_" class="st3" d="M729.9,205.1c-12.2,0-22.4,8.5-25,19.9c-4.6-7.2-12.6-11.9-21.7-11.9c-3.9,0-7.7,0.9-11,2.5"/>
<path id="XMLID_225_" class="st3" d="M772.8,236.9c-9.2,0-16.9,6.4-18.9,15c-3.4-5.4-9.5-9-16.3-9c-3,0-5.8,0.7-8.3,1.9"/>
<path id="XMLID_1_" class="st3" d="M177.8,264.2c-13.3,1.6-23.5,12.9-23.5,26.6c0,0.7,0,1.3,0.1,2H131"/>
<path id="XMLID_3_" class="st3" d="M177.8,264.2c0.8-19.8,17.2-35.6,37.2-35.6c18.3,0,33.5,13.2,36.6,30.6"/>
<path id="XMLID_4_" class="st3" d="M236.5,268.8c6-6.8,14.9-11.1,24.7-11.1c18.2,0,33,14.8,33,33c0,0.7,0,1.3-0.1,2h33.2"/>
<path id="XMLID_234_" class="st3" d="M888.4,170.3c9.3,1.1,16.4,9,16.4,18.6c0,0.5,0,0.9-0.1,1.4h16.3"/>
<path id="XMLID_9_" class="st3" d="M888.4,170.3c-0.6-13.9-12-24.9-26-24.9c-12.8,0-23.4,9.2-25.6,21.4"/>
<path id="XMLID_6_" class="st3" d="M847.3,173.5c-4.2-4.7-10.4-7.7-17.2-7.7c-12.7,0-23.1,10.3-23.1,23.1c0,0.5,0,0.9,0,1.4h-23.2"
	/>
<line id="XMLID_259_" class="st3" x1="737.5" y1="396" x2="774.7" y2="396"/>
<line id="XMLID_254_" class="st3" x1="709.3" y1="396" x2="717.7" y2="396"/>
<line id="XMLID_256_" class="st3" x1="772.8" y1="422.8" x2="837.2" y2="422.8"/>
<line id="XMLID_255_" class="st3" x1="742.7" y1="422.8" x2="756.1" y2="422.8"/>
<line id="XMLID_263_" class="st3" x1="627.3" y1="444.3" x2="683.4" y2="444.3"/>
<line id="XMLID_264_" class="st3" x1="660.6" y1="422.8" x2="705.3" y2="422.8"/>
<line id="XMLID_266_" class="st3" x1="450.7" y1="391.6" x2="495.5" y2="391.6"/>
<line id="XMLID_267_" class="st3" x1="495.5" y1="422.8" x2="517.9" y2="422.8"/>
<line id="XMLID_257_" class="st3" x1="62.1" y1="374.2" x2="114.6" y2="374.2"/>
<path id="XMLID_252_" class="st3" d="M759.9,381.5c0-8,6.5-14.5,14.5-14.5s14.5,6.5,14.5,14.5c0,8-6.5,14.5-14.5,14.5"/>
<path id="XMLID_265_" class="st3" d="M671.2,456.5c0,6.7,5.4,12.1,12.1,12.1c6.7,0,12.1-5.4,12.1-12.1s-5.4-12.1-12.1-12.1"/>
<line id="XMLID_260_" class="st3" x1="133.8" y1="396" x2="158.8" y2="396"/>
<line id="XMLID_262_" class="st3" x1="92.5" y1="396" x2="114.6" y2="396"/>
<path id="XMLID_258_" class="st3" d="M144,381.5c0-8,6.5-14.5,14.5-14.5c8,0,14.5,6.5,14.5,14.5c0,8-6.5,14.5-14.5,14.5"/>
</svg>
