<?xml version="1.0" encoding="utf-8"?>
<!-- Generator: Adobe Illustrator 23.1.1, SVG Export Plug-In . SVG Version: 6.00 Build 0)  -->
<svg version="1.1" id="Layer_1" xmlns="http://www.w3.org/2000/svg" xmlns:xlink="http://www.w3.org/1999/xlink" x="0px" y="0px"
	 viewBox="0 0 1000 1000" style="enable-background:new 0 0 1000 1000;" xml:space="preserve">
<style type="text/css">
	.st0{fill:#E0F4FB;}
	.st1{fill:#135677;}
	.st2{opacity:0.15;fill:none;stroke:#135677;stroke-width:4;stroke-linecap:round;stroke-linejoin:round;stroke-miterlimit:10;}
	.st3{opacity:0.6;}
	.st4{opacity:0.15;}
	.st5{fill:none;stroke:#02283F;stroke-width:4;stroke-linecap:round;stroke-linejoin:round;stroke-miterlimit:10;}
	.st6{fill:none;stroke:#02283F;stroke-width:4;stroke-linejoin:round;stroke-miterlimit:10;}
	.st7{fill:#FFBF73;}
	.st8{opacity:0.43;fill:#FFBF73;}
	.st9{fill:none;stroke:#135677;stroke-width:8;stroke-linecap:round;stroke-linejoin:round;stroke-miterlimit:10;}
	.st10{fill:#4DCBAB;}
	.st11{opacity:0.49;fill:#4DCBAB;}
	.st12{opacity:0.21;fill:none;stroke:#72757C;stroke-width:3;stroke-linecap:round;stroke-miterlimit:10;}
	.st13{opacity:0.2;fill:#72757C;}
	.st14{fill:#FFC88D;}
	.st15{opacity:0.2;fill:#FFBF73;}
	.st16{fill:#FFFFFF;}
	.st17{fill:#82818C;}
	.st18{fill:none;stroke:#135677;stroke-width:6;stroke-linecap:round;stroke-linejoin:round;stroke-miterlimit:10;}
	.st19{fill:#FFAA58;}
	.st20{fill:none;stroke:#CCE1EA;stroke-width:4;stroke-linecap:round;stroke-linejoin:round;stroke-miterlimit:10;}
</style>
<rect id="XMLID_78_" class="st0" width="1000" height="1000"/>
<g>
	<g>
		<g>
			<path class="st1" d="M63.2,959.2c0,2.5-1.2,3.7-2.6,3.7c-1.1,0-1.9-0.5-2.1-1.4c-0.4,0.5-1,0.8-1.8,0.8c-1.5,0-2.6-1.2-2.6-2.8
				c0-1.6,1.1-2.8,2.6-2.8c0.7,0,1.2,0.3,1.6,0.7v-0.5h1.6v3.9c0,0.8,0.3,1.4,1,1.4c0.9,0,1.7-0.9,1.7-3c0-3-2.3-5.3-5.4-5.3
				c-3.1,0-5.6,2.4-5.6,5.7c0,3.3,2.5,5.7,5.9,5.7c1.1,0,2.1-0.2,2.9-0.4v0.6c-0.8,0.3-1.7,0.4-2.9,0.4c-3.7,0-6.5-2.6-6.5-6.2
				c0-3.4,2.7-6.2,6.2-6.2C61.1,953.3,63.2,956.4,63.2,959.2z M58.3,959.5c0-0.8-0.6-1.4-1.3-1.4c-0.8,0-1.3,0.5-1.3,1.4
				c0,0.8,0.6,1.3,1.3,1.3C57.8,960.9,58.3,960.3,58.3,959.5z"/>
		</g>
		<g>
			<path class="st1" d="M69.4,955.1v2c-1.2-0.1-2.6,0.5-2.6,2.4v4.3h-1.9v-8.6h1.9v1.4C67.3,955.5,68.3,955.1,69.4,955.1z"/>
		</g>
		<g>
			<path class="st1" d="M74.6,962.3c1,0,1.8-0.5,2.2-1.1l1.5,0.9c-0.8,1.2-2.1,1.9-3.8,1.9c-2.8,0-4.7-1.9-4.7-4.5
				c0-2.5,1.8-4.5,4.5-4.5c2.6,0,4.3,2.1,4.3,4.5c0,0.3,0,0.5-0.1,0.8h-6.8C72.1,961.6,73.2,962.3,74.6,962.3z M76.9,958.8
				c-0.3-1.5-1.3-2.1-2.5-2.1c-1.4,0-2.3,0.8-2.6,2.1H76.9z"/>
		</g>
		<g>
			<path class="st1" d="M88.9,955.2v8.6h-1.9v-1.2c-0.7,0.9-1.7,1.5-3,1.5c-2.3,0-4.3-2-4.3-4.5c0-2.6,1.9-4.5,4.3-4.5
				c1.3,0,2.3,0.5,3,1.4v-1.2H88.9z M87.1,959.5c0-1.6-1.2-2.7-2.7-2.7c-1.5,0-2.7,1.1-2.7,2.7c0,1.6,1.2,2.7,2.7,2.7
				C85.9,962.3,87.1,961.1,87.1,959.5z"/>
		</g>
		<g>
			<path class="st1" d="M91.1,951.3H93v12.5h-1.9V951.3z"/>
		</g>
		<g>
			<path class="st1" d="M102.9,955.2l-3.3,8.6h-2.1l-3.3-8.6h2l2.4,6.5l2.4-6.5H102.9z"/>
		</g>
		<g>
			<path class="st1" d="M104.2,955.2h1.9v8.9c0,2.4-1.2,3.5-3.5,3.3v-1.8c1.1,0.1,1.7-0.3,1.7-1.5V955.2z M104,952.8
				c0-0.7,0.5-1.2,1.2-1.2c0.7,0,1.2,0.5,1.2,1.2c0,0.6-0.5,1.2-1.2,1.2C104.5,954,104,953.4,104,952.8z"/>
		</g>
		<g>
			<path class="st1" d="M116,955.2l-3.3,8.8c-0.8,2.2-2.2,3.3-4.2,3.2v-1.7c1.2,0.1,1.9-0.5,2.3-1.7l0.1-0.2l-3.6-8.4h2l2.6,6.2
				l2.2-6.2H116z"/>
		</g>
	</g>
	<g>
		<path class="st1" d="M211.9,938.7c0,2.1-1.5,3.8-3.6,3.8h-3v-7.6h3C210.4,934.9,211.9,936.6,211.9,938.7z M210.9,938.7
			c0-1.6-1.1-2.9-2.6-2.9h-2v5.7h2C209.8,941.6,210.9,940.3,210.9,938.7z"/>
		<path class="st1" d="M219.5,940.8h-3.4l-0.6,1.7h-1.1l2.8-7.6h1.1l2.8,7.6h-1.1L219.5,940.8z M219.2,939.9l-1.4-3.8l-1.4,3.8
			H219.2z"/>
		<path class="st1" d="M226.4,939.4v3.1h-1v-3.1l-2.7-4.5h1.1l2.1,3.6l2.1-3.6h1.1L226.4,939.4z"/>
		<path class="st1" d="M242.1,940.1c0,1.5-1.1,2.6-2.6,2.6c-1.5,0-2.6-1.1-2.6-2.6c0-0.6,0.2-1.1,0.5-1.5l2.5-3.7h1.2l-1.8,2.7
			c0.1,0,0.2,0,0.4,0C241,937.5,242.1,938.6,242.1,940.1z M241.1,940.1c0-1-0.7-1.6-1.6-1.6c-1,0-1.6,0.6-1.6,1.6s0.7,1.6,1.6,1.6
			C240.4,941.7,241.1,941,241.1,940.1z"/>
		<path class="st1" d="M250.1,940.3c0,1.5-1.2,2.4-2.6,2.4c-1.1,0-2.1-0.5-2.5-1.6l0.9-0.5c0.2,0.8,0.8,1.1,1.7,1.1
			c0.9,0,1.6-0.5,1.6-1.4c0-0.9-0.7-1.4-1.6-1.4h-2.2l0.3-4h4.2v0.9h-3.3l-0.1,2h1.1C248.9,937.9,250.1,938.7,250.1,940.3z"/>
	</g>
	<g>
		<path class="st1" d="M58.9,938.7c0,2.1-1.5,3.8-3.6,3.8h-3v-7.6h3C57.4,934.9,58.9,936.6,58.9,938.7z M57.9,938.7
			c0-1.6-1.1-2.9-2.6-2.9h-2v5.7h2C56.8,941.6,57.9,940.3,57.9,938.7z"/>
		<path class="st1" d="M67,941.6v1h-4.6v-7.6h4.5v1h-3.5v2.3h3.2v0.9h-3.2v2.4H67z"/>
		<path class="st1" d="M70,940.8l0.9-0.5c0.3,0.8,0.9,1.4,2,1.4c1.1,0,1.6-0.5,1.6-1.2c0-0.8-0.7-1-1.8-1.4
			c-1.2-0.4-2.4-0.8-2.4-2.2c0-1.4,1.1-2.2,2.4-2.2c1.3,0,2.2,0.7,2.6,1.7l-0.8,0.5c-0.3-0.7-0.8-1.2-1.7-1.2
			c-0.8,0-1.4,0.4-1.4,1.1c0,0.7,0.5,1,1.6,1.3c1.3,0.4,2.6,0.8,2.6,2.3c0,1.3-1.1,2.2-2.6,2.2C71.5,942.7,70.4,941.9,70,940.8z"/>
		<path class="st1" d="M80,934.9v7.6h-1v-7.6H80z"/>
		<path class="st1" d="M91.3,939.2c0,1.9-1.4,3.5-3.7,3.5c-2.4,0-4-1.8-4-4c0-2.2,1.7-4,4-4c1.4,0,2.7,0.8,3.3,1.8l-0.9,0.5
			c-0.4-0.8-1.4-1.4-2.4-1.4c-1.8,0-3,1.3-3,3c0,1.7,1.2,3,3,3c1.6,0,2.5-0.9,2.7-2h-2.8v-0.9h3.8V939.2z"/>
		<path class="st1" d="M100.6,934.9v7.6h-0.8l-3.9-5.7v5.7h-1v-7.6h0.8l3.9,5.7v-5.7H100.6z"/>
		<path class="st1" d="M109.1,941.6v1h-4.6v-7.6h4.5v1h-3.5v2.3h3.2v0.9h-3.2v2.4H109.1z"/>
		<path class="st1" d="M119.2,938.7c0,2.1-1.5,3.8-3.6,3.8h-3v-7.6h3C117.6,934.9,119.2,936.6,119.2,938.7z M118.2,938.7
			c0-1.6-1.1-2.9-2.6-2.9h-2v5.7h2C117.1,941.6,118.2,940.3,118.2,938.7z"/>
		<path class="st1" d="M133.2,940.4c0,1.2-1,2.2-2.2,2.2h-3.3v-7.6h3c1.2,0,2.1,0.9,2.1,2.1c0,0.7-0.3,1.2-0.8,1.6
			C132.7,938.9,133.2,939.5,133.2,940.4z M128.7,935.8v2.3h2c0.6,0,1.1-0.5,1.1-1.2c0-0.6-0.5-1.2-1.1-1.2H128.7z M132.2,940.3
			c0-0.7-0.5-1.2-1.2-1.2h-2.3v2.5h2.3C131.7,941.6,132.2,941,132.2,940.3z"/>
		<path class="st1" d="M139.4,939.4v3.1h-1v-3.1l-2.7-4.5h1.1l2.1,3.6l2.1-3.6h1.1L139.4,939.4z"/>
	</g>
	<g>
		<path class="st1" d="M204.8,958.1c0-3.6,2.7-6.4,6.5-6.4c2.3,0,4.3,1.2,5.3,3l-1.8,1c-0.7-1.2-2-2-3.6-2c-2.7,0-4.4,1.9-4.4,4.4
			s1.8,4.4,4.4,4.4c1.6,0,2.9-0.8,3.6-2l1.8,1c-1,1.8-3,3-5.3,3C207.5,964.5,204.8,961.7,204.8,958.1z"/>
		<path class="st1" d="M218,952.9c0-0.7,0.5-1.2,1.2-1.2c0.7,0,1.2,0.5,1.2,1.2c0,0.7-0.5,1.2-1.2,1.2
			C218.6,954.1,218,953.6,218,952.9z M218.3,955.4h1.9v8.9h-1.9V955.4z"/>
		<path class="st1" d="M225.2,957.3v4.2c0,1.1,0.7,1.1,2.2,1v1.7c-2.9,0.4-4.1-0.5-4.1-2.8v-4.2h-1.6v-1.8h1.6v-1.9l1.9-0.6v2.5h2.2
			v1.8H225.2z"/>
		<path class="st1" d="M237.3,955.4l-3.4,9.1c-0.8,2.2-2.3,3.4-4.3,3.3V966c1.2,0.1,1.9-0.6,2.4-1.7l0.1-0.2l-3.8-8.7h2.1l2.6,6.4
			l2.3-6.4H237.3z"/>
		<path class="st1" d="M247.5,959.8h-2.4v4.5h-2v-12.4h5c2.2,0,4,1.8,4,4c0,1.6-1,3-2.5,3.6l2.8,4.8h-2.2L247.5,959.8z M245.1,958
			h2.9c1.1,0,1.9-0.9,1.9-2.1c0-1.2-0.9-2.1-1.9-2.1h-2.9V958z"/>
		<path class="st1" d="M252.8,959.9c0-2.6,2.1-4.7,4.7-4.7c2.6,0,4.7,2,4.7,4.7c0,2.6-2.1,4.7-4.7,4.7
			C254.9,964.5,252.8,962.5,252.8,959.9z M260.2,959.9c0-1.6-1.2-2.8-2.8-2.8s-2.8,1.2-2.8,2.8c0,1.6,1.2,2.8,2.8,2.8
			S260.2,961.5,260.2,959.9z"/>
		<path class="st1" d="M272.8,955.4v8.9h-1.9V963c-0.7,0.9-1.7,1.5-3.1,1.5c-2.4,0-4.4-2-4.4-4.7c0-2.6,2-4.7,4.4-4.7
			c1.4,0,2.4,0.6,3.1,1.5v-1.3H272.8z M270.9,959.9c0-1.6-1.2-2.8-2.8-2.8c-1.6,0-2.8,1.2-2.8,2.8c0,1.6,1.2,2.8,2.8,2.8
			C269.7,962.7,270.9,961.5,270.9,959.9z"/>
		<path class="st1" d="M284,951.9v12.4h-1.9V963c-0.7,0.9-1.7,1.5-3.1,1.5c-2.4,0-4.4-2-4.4-4.7c0-2.6,2-4.7,4.4-4.7
			c1.4,0,2.4,0.6,3.1,1.5v-4.8H284z M282.1,959.9c0-1.6-1.2-2.8-2.8-2.8c-1.6,0-2.8,1.2-2.8,2.8c0,1.6,1.2,2.8,2.8,2.8
			C280.8,962.7,282.1,961.5,282.1,959.9z"/>
	</g>
	<g>
		<g>
			<g>
				<path class="st1" d="M846.1,938.7c0,2.1-1.5,3.8-3.6,3.8h-3v-7.6h3C844.6,934.9,846.1,936.6,846.1,938.7z M845.2,938.7
					c0-1.6-1.1-2.9-2.6-2.9h-2v5.7h2C844.1,941.6,845.2,940.3,845.2,938.7z"/>
			</g>
			<g>
				<path class="st1" d="M849.3,938.7c0-2.2,1.7-4,3.9-4c2.2,0,4,1.8,4,4c0,2.2-1.7,4-4,4C851,942.7,849.3,940.9,849.3,938.7z
					 M856.1,938.7c0-1.7-1.3-3-2.9-3c-1.7,0-2.9,1.3-2.9,3c0,1.7,1.3,3,2.9,3C854.9,941.7,856.1,940.4,856.1,938.7z"/>
			</g>
			<g>
				<path class="st1" d="M859.8,934.9h1.1l1.7,6.3l1.9-6.3h1l1.9,6.3l1.7-6.3h1.1l-2.2,7.6h-1.2l-1.8-6.1l-1.8,6.1H862L859.8,934.9z
					"/>
			</g>
			<g>
				<path class="st1" d="M879.3,934.9v7.6h-0.8l-3.9-5.7v5.7h-1v-7.6h0.8l3.9,5.7v-5.7H879.3z"/>
			</g>
			<g>
				<path class="st1" d="M887.5,941.6v1h-4.3v-7.6h1v6.7H887.5z"/>
			</g>
			<g>
				<path class="st1" d="M889.9,938.7c0-2.2,1.7-4,3.9-4c2.2,0,4,1.8,4,4c0,2.2-1.7,4-4,4C891.6,942.7,889.9,940.9,889.9,938.7z
					 M896.8,938.7c0-1.7-1.3-3-2.9-3c-1.7,0-2.9,1.3-2.9,3c0,1.7,1.3,3,2.9,3C895.5,941.7,896.8,940.4,896.8,938.7z"/>
			</g>
			<g>
				<path class="st1" d="M905.4,940.8H902l-0.6,1.7h-1.1l2.8-7.6h1.1l2.8,7.6H906L905.4,940.8z M905.1,939.9l-1.4-3.8l-1.4,3.8
					H905.1z"/>
			</g>
			<g>
				<path class="st1" d="M916.9,938.7c0,2.1-1.5,3.8-3.6,3.8h-3v-7.6h3C915.4,934.9,916.9,936.6,916.9,938.7z M915.9,938.7
					c0-1.6-1.1-2.9-2.6-2.9h-2v5.7h2C914.9,941.6,915.9,940.3,915.9,938.7z"/>
			</g>
			<g>
				<path class="st1" d="M926.5,935.8v2.5h3.2v1h-3.2v3.2h-1v-7.6h4.4v1H926.5z"/>
			</g>
			<g>
				<path class="st1" d="M936.2,939.6h-1.8v2.9h-1v-7.6h3c1.3,0,2.4,1.1,2.4,2.4c0,1-0.7,1.9-1.6,2.2l1.8,3.1h-1.1L936.2,939.6z
					 M934.4,938.7h2c0.8,0,1.4-0.6,1.4-1.4c0-0.8-0.6-1.4-1.4-1.4h-2V938.7z"/>
			</g>
			<g>
				<path class="st1" d="M941.9,938.7c0-2.2,1.7-4,3.9-4c2.2,0,4,1.8,4,4c0,2.2-1.7,4-4,4C943.6,942.7,941.9,940.9,941.9,938.7z
					 M948.8,938.7c0-1.7-1.3-3-2.9-3c-1.7,0-2.9,1.3-2.9,3c0,1.7,1.3,3,2.9,3C947.5,941.7,948.8,940.4,948.8,938.7z"/>
			</g>
			<g>
				<path class="st1" d="M960.4,942.5h-1v-6l-2.5,4.2h-0.1l-2.5-4.1v5.9h-1v-7.6h1.1l2.4,4l2.4-4h1.1V942.5z"/>
			</g>
		</g>
		<g>
			<g>
				<path class="st1" d="M839.3,952.9c0-0.7,0.5-1.2,1.2-1.2c0.7,0,1.2,0.5,1.2,1.2c0,0.7-0.5,1.2-1.2,1.2
					C839.9,954.1,839.3,953.6,839.3,952.9z M839.6,955.4h1.9v8.9h-1.9V955.4z"/>
			</g>
			<g>
				<path class="st1" d="M843.7,951.4h1.9v12.9h-1.9V951.4z"/>
			</g>
			<g>
				<path class="st1" d="M847.8,951.4h1.9v12.9h-1.9V951.4z"/>
			</g>
			<g>
				<path class="st1" d="M852,951.4h1.9v12.9H852V951.4z"/>
			</g>
			<g>
				<path class="st1" d="M864,955.4v8.9h-1.9v-1.1c-0.6,0.9-1.5,1.4-2.7,1.4c-2,0-3.4-1.3-3.4-3.6v-5.4h1.9v5.2c0,1.3,0.8,2.1,2,2.1
					c1.3,0,2.2-0.7,2.2-2.5v-4.7H864z"/>
			</g>
			<g>
				<path class="st1" d="M872.6,961.8c0,1.8-1.5,2.7-3.5,2.7c-1.8,0-3-0.8-3.6-2.1l1.6-1c0.3,0.8,1,1.3,2,1.3c0.8,0,1.5-0.3,1.5-1
					c0-1.6-4.8-0.7-4.8-3.9c0-1.7,1.4-2.7,3.2-2.7c1.5,0,2.7,0.7,3.3,1.8l-1.6,0.9c-0.3-0.7-0.9-1-1.7-1c-0.7,0-1.3,0.3-1.3,0.9
					C867.9,959.5,872.6,958.5,872.6,961.8z"/>
			</g>
			<g>
				<path class="st1" d="M876.7,957.3v4.2c0,1.1,0.7,1.1,2.2,1v1.7c-2.9,0.4-4.1-0.5-4.1-2.8v-4.2h-1.6v-1.8h1.6v-1.9l1.9-0.6v2.5
					h2.2v1.8H876.7z"/>
			</g>
			<g>
				<path class="st1" d="M885.4,955.3v2.1c-1.3-0.1-2.7,0.5-2.7,2.5v4.5h-1.9v-8.9h1.9v1.5C883.2,955.7,884.2,955.3,885.4,955.3z"/>
			</g>
			<g>
				<path class="st1" d="M895.3,955.4v8.9h-1.9V963c-0.7,0.9-1.7,1.5-3.1,1.5c-2.4,0-4.4-2-4.4-4.7c0-2.6,2-4.7,4.4-4.7
					c1.4,0,2.4,0.6,3.1,1.5v-1.3H895.3z M893.4,959.9c0-1.6-1.2-2.8-2.8-2.8c-1.6,0-2.8,1.2-2.8,2.8c0,1.6,1.2,2.8,2.8,2.8
					C892.2,962.7,893.4,961.5,893.4,959.9z"/>
			</g>
			<g>
				<path class="st1" d="M900.3,957.3v4.2c0,1.1,0.7,1.1,2.2,1v1.7c-2.9,0.4-4.1-0.5-4.1-2.8v-4.2h-1.6v-1.8h1.6v-1.9l1.9-0.6v2.5
					h2.2v1.8H900.3z"/>
			</g>
			<g>
				<path class="st1" d="M903.9,952.9c0-0.7,0.5-1.2,1.2-1.2c0.7,0,1.2,0.5,1.2,1.2c0,0.7-0.5,1.2-1.2,1.2
					C904.5,954.1,903.9,953.6,903.9,952.9z M904.2,955.4h1.9v8.9h-1.9V955.4z"/>
			</g>
			<g>
				<path class="st1" d="M907.8,959.9c0-2.6,2.1-4.7,4.7-4.7c2.6,0,4.7,2,4.7,4.7c0,2.6-2.1,4.7-4.7,4.7
					C909.9,964.5,907.8,962.5,907.8,959.9z M915.3,959.9c0-1.6-1.2-2.8-2.8-2.8c-1.6,0-2.8,1.2-2.8,2.8c0,1.6,1.2,2.8,2.8,2.8
					C914.1,962.7,915.3,961.5,915.3,959.9z"/>
			</g>
			<g>
				<path class="st1" d="M927,958.9v5.4h-1.9v-5.2c0-1.3-0.8-2.1-2-2.1c-1.3,0-2.2,0.7-2.2,2.5v4.7h-1.9v-8.9h1.9v1.1
					c0.6-0.9,1.5-1.4,2.7-1.4C925.5,955.2,927,956.6,927,958.9z"/>
			</g>
			<g>
				<path class="st1" d="M935.5,961.8c0,1.8-1.5,2.7-3.5,2.7c-1.8,0-3-0.8-3.6-2.1l1.6-1c0.3,0.8,1,1.3,2,1.3c0.8,0,1.5-0.3,1.5-1
					c0-1.6-4.8-0.7-4.8-3.9c0-1.7,1.4-2.7,3.2-2.7c1.5,0,2.7,0.7,3.3,1.8l-1.6,0.9c-0.3-0.7-0.9-1-1.7-1c-0.7,0-1.3,0.3-1.3,0.9
					C930.7,959.5,935.5,958.5,935.5,961.8z"/>
			</g>
			<g>
				<path class="st1" d="M936.8,963.2c0-0.7,0.6-1.3,1.3-1.3c0.7,0,1.3,0.6,1.3,1.3c0,0.7-0.6,1.3-1.3,1.3
					C937.4,964.5,936.8,963.9,936.8,963.2z"/>
			</g>
			<g>
				<path class="st1" d="M940.3,959.9c0-2.6,2-4.7,4.7-4.7c1.7,0,3.2,0.9,3.9,2.3l-1.6,1c-0.4-0.8-1.3-1.4-2.3-1.4
					c-1.6,0-2.7,1.2-2.7,2.8c0,1.6,1.2,2.8,2.7,2.8c1.1,0,1.9-0.5,2.4-1.4l1.6,0.9c-0.7,1.4-2.2,2.3-4,2.3
					C942.3,964.5,940.3,962.5,940.3,959.9z"/>
			</g>
			<g>
				<path class="st1" d="M949.7,959.9c0-2.6,2.1-4.7,4.7-4.7c2.6,0,4.7,2,4.7,4.7c0,2.6-2.1,4.7-4.7,4.7
					C951.8,964.5,949.7,962.5,949.7,959.9z M957.2,959.9c0-1.6-1.2-2.8-2.8-2.8s-2.8,1.2-2.8,2.8c0,1.6,1.2,2.8,2.8,2.8
					S957.2,961.5,957.2,959.9z"/>
			</g>
		</g>
	</g>
</g>
<line id="XMLID_59_" class="st2" x1="562.7" y1="315.7" x2="584.1" y2="339.6"/>
<g id="XMLID_187_" class="st3">
	<g id="XMLID_72_" class="st4">
		<g id="XMLID_70_">
			<rect id="XMLID_67_" x="108.8" y="329" class="st5" width="152.5" height="371.6"/>
		</g>
		<line id="XMLID_73_" class="st5" x1="142" y1="698" x2="142" y2="329"/>
		<line id="XMLID_74_" class="st5" x1="230" y1="698" x2="230" y2="329"/>
		<line id="XMLID_75_" class="st5" x1="186" y1="698" x2="186" y2="329"/>
		<line id="XMLID_76_" class="st5" x1="109" y1="368" x2="262" y2="368"/>
		<line id="XMLID_77_" class="st5" x1="109" y1="387" x2="262" y2="387"/>
		<line id="XMLID_80_" class="st5" x1="109" y1="434" x2="262" y2="434"/>
		<line id="XMLID_79_" class="st5" x1="109" y1="455" x2="262" y2="455"/>
		<line id="XMLID_82_" class="st5" x1="109" y1="504" x2="262" y2="504"/>
		<line id="XMLID_81_" class="st5" x1="109" y1="525" x2="262" y2="525"/>
		<line id="XMLID_85_" class="st5" x1="109" y1="576" x2="262" y2="576"/>
		<line id="XMLID_83_" class="st5" x1="109" y1="596" x2="262" y2="596"/>
		<line id="XMLID_90_" class="st5" x1="109" y1="639" x2="262" y2="639"/>
		<line id="XMLID_89_" class="st5" x1="109" y1="658" x2="262" y2="658"/>
		<rect id="XMLID_71_" x="142.8" y="296.4" class="st5" width="87.7" height="33.4"/>
		<rect id="XMLID_92_" x="163.2" y="263" class="st5" width="46.9" height="33.4"/>
	</g>
	<g id="XMLID_69_" class="st4">
		<polyline id="XMLID_20_" class="st5" points="748.3,699.7 686.5,699.7 686.5,327.6 849.5,327.6 849.5,699.7 801.5,699.7 		"/>
		<rect id="XMLID_23_" x="707.6" y="361.7" class="st5" width="19.7" height="34.6"/>
		<rect id="XMLID_26_" x="741.3" y="361.7" class="st5" width="19.7" height="34.6"/>
		<rect id="XMLID_27_" x="775" y="361.7" class="st5" width="19.7" height="34.6"/>
		<rect id="XMLID_28_" x="808.8" y="361.7" class="st5" width="19.7" height="34.6"/>
		<rect id="XMLID_32_" x="707.6" y="413.7" class="st5" width="19.7" height="34.6"/>
		<rect id="XMLID_31_" x="741.3" y="413.7" class="st5" width="19.7" height="34.6"/>
		<rect id="XMLID_30_" x="775" y="413.7" class="st5" width="19.7" height="34.6"/>
		<rect id="XMLID_29_" x="808.8" y="413.7" class="st5" width="19.7" height="34.6"/>
		<rect id="XMLID_38_" x="707.6" y="512.7" class="st5" width="19.7" height="29.6"/>
		<rect id="XMLID_37_" x="741.3" y="512.7" class="st5" width="19.7" height="29.6"/>
		<rect id="XMLID_36_" x="775" y="512.7" class="st5" width="19.7" height="29.6"/>
		<rect id="XMLID_35_" x="808.8" y="512.7" class="st5" width="19.7" height="29.6"/>
		<rect id="XMLID_45_" x="707.6" y="618.1" class="st5" width="19.7" height="29.6"/>
		<rect id="XMLID_44_" x="741.3" y="618.1" class="st5" width="19.7" height="29.6"/>
		<rect id="XMLID_43_" x="775" y="618.1" class="st5" width="19.7" height="29.6"/>
		<rect id="XMLID_42_" x="808.8" y="618.1" class="st5" width="19.7" height="29.6"/>
		<line id="XMLID_33_" class="st5" x1="707" y1="478" x2="828" y2="478"/>
		<line id="XMLID_34_" class="st5" x1="707" y1="494" x2="828" y2="494"/>
		<line id="XMLID_39_" class="st5" x1="707" y1="562" x2="828" y2="562"/>
		<line id="XMLID_40_" class="st5" x1="707" y1="579" x2="828" y2="579"/>
		<line id="XMLID_41_" class="st5" x1="707" y1="596" x2="828" y2="596"/>
		<rect id="XMLID_24_" x="717.4" y="292" class="st5" width="110.6" height="35.6"/>
		<rect id="XMLID_47_" x="741.3" y="256.4" class="st5" width="62.8" height="35.6"/>
		<line id="XMLID_48_" class="st5" x1="771" y1="256" x2="771" y2="200"/>
	</g>
	<g id="XMLID_53_" class="st4">
		<polygon id="XMLID_52_" class="st5" points="604.7,700 520.6,700 520.6,339.1 562.7,293.2 604.7,339.1 		"/>
		<path id="XMLID_46_" class="st5" d="M675.2,700h-70.5V409.1c0-40.6,26.7-47.2,70.5-68.3L675.2,700z"/>
		<g id="XMLID_49_">
			<g id="XMLID_315_">
				<g id="XMLID_323_">
					<line id="XMLID_325_" class="st6" x1="630" y1="620" x2="630" y2="638"/>
					<line id="XMLID_324_" class="st6" x1="649" y1="620" x2="649" y2="638"/>
				</g>
			</g>
			<g id="XMLID_300_">
				<g id="XMLID_305_">
					<line id="XMLID_310_" class="st6" x1="630" y1="582" x2="630" y2="600"/>
					<line id="XMLID_309_" class="st6" x1="649" y1="582" x2="649" y2="600"/>
				</g>
			</g>
			<g id="XMLID_283_">
				<g id="XMLID_290_">
					<line id="XMLID_293_" class="st6" x1="630" y1="544" x2="630" y2="562"/>
					<line id="XMLID_291_" class="st6" x1="649" y1="544" x2="649" y2="562"/>
				</g>
			</g>
			<g id="XMLID_269_">
				<g id="XMLID_276_">
					<line id="XMLID_278_" class="st6" x1="630" y1="506" x2="630" y2="524"/>
					<line id="XMLID_277_" class="st6" x1="649" y1="506" x2="649" y2="524"/>
				</g>
			</g>
			<g id="XMLID_255_">
				<g id="XMLID_262_">
					<line id="XMLID_264_" class="st6" x1="630" y1="468" x2="630" y2="486"/>
					<line id="XMLID_263_" class="st6" x1="649" y1="468" x2="649" y2="486"/>
				</g>
			</g>
			<g id="XMLID_244_">
				<g id="XMLID_248_">
					<line id="XMLID_250_" class="st6" x1="630" y1="430" x2="630" y2="448"/>
					<line id="XMLID_249_" class="st6" x1="649" y1="430" x2="649" y2="448"/>
				</g>
			</g>
			<g id="XMLID_234_">
				<g id="XMLID_238_">
					<line id="XMLID_240_" class="st6" x1="630" y1="392" x2="630" y2="410"/>
					<line id="XMLID_239_" class="st6" x1="649" y1="392" x2="649" y2="410"/>
				</g>
			</g>
		</g>
		<path id="XMLID_88_" class="st5" d="M449.8,700h70.5V409.1c0-40.6-26.7-47.2-70.5-68.3L449.8,700z"/>
		<g id="XMLID_54_">
			<g id="XMLID_322_">
				<g id="XMLID_326_">
					<line id="XMLID_328_" class="st6" x1="492" y1="620" x2="492" y2="638"/>
					<line id="XMLID_327_" class="st6" x1="474" y1="620" x2="474" y2="638"/>
				</g>
			</g>
			<g id="XMLID_312_">
				<g id="XMLID_316_">
					<line id="XMLID_318_" class="st6" x1="492" y1="582" x2="492" y2="600"/>
					<line id="XMLID_317_" class="st6" x1="474" y1="582" x2="474" y2="600"/>
				</g>
			</g>
			<g id="XMLID_302_">
				<g id="XMLID_306_">
					<line id="XMLID_308_" class="st6" x1="492" y1="544" x2="492" y2="562"/>
					<line id="XMLID_307_" class="st6" x1="474" y1="544" x2="474" y2="562"/>
				</g>
			</g>
			<g id="XMLID_292_">
				<g id="XMLID_296_">
					<line id="XMLID_298_" class="st6" x1="492" y1="506" x2="492" y2="524"/>
					<line id="XMLID_297_" class="st6" x1="474" y1="506" x2="474" y2="524"/>
				</g>
			</g>
			<g id="XMLID_279_">
				<g id="XMLID_286_">
					<line id="XMLID_288_" class="st6" x1="492" y1="468" x2="492" y2="486"/>
					<line id="XMLID_287_" class="st6" x1="474" y1="468" x2="474" y2="486"/>
				</g>
			</g>
			<g id="XMLID_265_">
				<g id="XMLID_272_">
					<line id="XMLID_274_" class="st6" x1="492" y1="430" x2="492" y2="448"/>
					<line id="XMLID_273_" class="st6" x1="474" y1="430" x2="474" y2="448"/>
				</g>
			</g>
			<g id="XMLID_251_">
				<g id="XMLID_258_">
					<line id="XMLID_260_" class="st6" x1="492" y1="392" x2="492" y2="410"/>
					<line id="XMLID_259_" class="st6" x1="474" y1="392" x2="474" y2="410"/>
				</g>
			</g>
		</g>
		<line id="XMLID_55_" class="st5" x1="546" y1="352" x2="546" y2="611"/>
		<line id="XMLID_56_" class="st5" x1="582" y1="352" x2="582" y2="611"/>
		<g id="XMLID_58_">
			<g id="XMLID_181_">
				<line id="XMLID_182_" class="st5" x1="534.6" y1="604" x2="590.1" y2="604"/>
			</g>
			<g id="XMLID_178_">
				<line id="XMLID_179_" class="st5" x1="534.6" y1="566" x2="590.1" y2="566"/>
			</g>
			<g id="XMLID_175_">
				<line id="XMLID_176_" class="st5" x1="534.6" y1="528" x2="590.1" y2="528"/>
			</g>
			<g id="XMLID_172_">
				<line id="XMLID_173_" class="st5" x1="534.6" y1="490" x2="590.1" y2="490"/>
			</g>
			<g id="XMLID_169_">
				<line id="XMLID_170_" class="st5" x1="534.6" y1="452" x2="590.1" y2="452"/>
			</g>
			<g id="XMLID_166_">
				<line id="XMLID_167_" class="st5" x1="534.6" y1="414" x2="590.1" y2="414"/>
			</g>
			<g id="XMLID_163_">
				<line id="XMLID_164_" class="st5" x1="534.6" y1="376" x2="590.1" y2="376"/>
			</g>
		</g>
	</g>
	<g id="XMLID_61_" class="st4">
		<rect id="XMLID_57_" x="286.8" y="293.2" class="st5" width="147.1" height="406.5"/>
		<rect id="XMLID_60_" x="306.4" y="323.4" class="st5" width="17.3" height="288.6"/>
		<rect id="XMLID_63_" x="337" y="323.4" class="st5" width="17.3" height="288.6"/>
		<rect id="XMLID_64_" x="367.7" y="323.4" class="st5" width="17.3" height="288.6"/>
		<rect id="XMLID_65_" x="398.3" y="323.4" class="st5" width="17.3" height="288.6"/>
		<rect id="XMLID_62_" x="367.7" y="252" class="st5" width="47.9" height="41.2"/>
		<line id="XMLID_68_" class="st5" x1="390" y1="252" x2="390" y2="216"/>
		<rect id="XMLID_66_" x="304.5" y="266.3" class="st5" width="45.4" height="26.9"/>
	</g>
</g>
<path id="XMLID_25_" class="st7" d="M209.8,388.5c-8.7-7-21-7-29.7,0c-30,24.4-66.1,72.3-61.8,127.9c1.1,13.5,4.4,26.4,9.1,38.7
	c0.3,0.9,0.7,1.7,1.2,2.6c31.6,59.1,101.1,59.1,132.6,0c0.4-0.8,0.8-1.7,1.2-2.6c4.8-12.2,8.1-25.2,9.1-38.7
	C276,460.7,239.9,412.9,209.8,388.5z"/>
<path id="XMLID_180_" class="st8" d="M234.7,566.7c-35,0-63.3-44.3-63.3-99c0-35.3,11.8-66.2,29.6-83.8c-7.1-1.9-14.8-0.4-20.8,4.5
	c-30,24.4-66.1,72.3-61.8,127.9c1.1,13.5,4.4,26.4,9.1,38.7c0.3,0.9,0.7,1.7,1.2,2.6c31.6,59.1,101.1,59.1,132.6,0
	c0,0,0-0.1,0.1-0.1C253.3,563.4,244.2,566.7,234.7,566.7z"/>
<line id="XMLID_22_" class="st9" x1="195" y1="698" x2="195" y2="485"/>
<path id="XMLID_115_" class="st7" d="M98,700.9c0-31.4,25.5-56.9,56.9-56.9s56.9,25.5,56.9,56.9"/>
<path id="XMLID_12_" class="st8" d="M170.5,646.2c-4.9-1.4-10.1-2.2-15.5-2.2c-31.4,0-56.9,25.5-56.9,56.9h31.1
	C129.1,674.9,146.6,652.9,170.5,646.2z"/>
<g>
	<path id="XMLID_91_" class="st10" d="M285.6,628.2c-1.9-16.2,0.8-52.2,8.7-76.1c5.2-15.7,10-37.2,31.4-49.1
		c17.6-9.9,131.6-18,195.4-11.5c35.6,3.6,65.1,38.5,83.5,67.5c60.6,11.1,62.1,11.1,76.3,15.5c14.2,4.3,28.1,15.2,28.1,31.5
		c0,10.5,0,39.7,0,39.7H287.3C286.7,635.7,286.2,638.1,285.6,628.2z"/>
	<path id="XMLID_189_" class="st11" d="M681.9,571.4c-14.2-4.3-15.7-4.3-76.3-15.5c-18.4-29-47.9-63.9-83.5-67.5
		c-63.8-6.5-177.8,1.6-195.4,11.5c-4.8,2.7-8.7,5.9-12.1,9.3c0,0,0.1,0,0.1-0.1c17.6-9.9,131.6-18,195.4-11.5
		c33.5,3.4,64,34.6,82.7,62.4c2.2,3.3,5.7,5.5,9.6,6.2c54.3,10,53.7,10.1,67.5,14.3c14.2,4.3,28.1,15.2,28.1,31.5c0,6.7,0,21,0,30.4
		h12c0,0,0-29.2,0-39.7C710,586.6,696.1,575.7,681.9,571.4z"/>
	<line id="XMLID_174_" class="st12" x1="515" y1="553.7" x2="515" y2="642.8"/>
	<line id="XMLID_177_" class="st12" x1="375" y1="553.7" x2="372.7" y2="642.8"/>
	<path id="XMLID_183_" class="st13" d="M324.8,552.1c5.2-15.7,10-37.2,31.4-49.1c12.1-6.8,69.5-12.7,125-13.7
		c-63-1.2-141.1,5.6-155.5,13.7c-21.4,12-26.2,33.4-31.4,49.1c-7.9,23.9-10.5,59.9-8.7,76.1c0.6,9.9,1.1,7.5,1.7,17.5h30.5
		c-0.6-10-1.1-7.6-1.7-17.5C314.2,612,316.9,576,324.8,552.1z"/>
	<path id="XMLID_8_" class="st9" d="M285.6,628.2c-1.9-16.2,0.8-52.2,8.7-76.1c5.2-15.7,10-37.2,31.4-49.1
		c17.6-9.9,131.6-18,195.4-11.5c33.4,3.4,61.4,34.3,79.9,62c2.4,3.5,6.1,6,10.3,6.7c54,9.9,55.9,10.1,69.6,14.2
		c14.2,4.3,28.1,15.2,28.1,31.5c0,10.5,0,39.7,0,39.7H287.3C286.7,635.7,286.2,638.1,285.6,628.2z"/>
	<path id="XMLID_108_" class="st14" d="M515.1,559.3c-7.4-23.9-20.2-44.7-29.5-57.8c12.9,0.5,24.3,1.4,34.1,2.5
		c29.6,3.5,54,31.5,70.3,56.5L515.1,559.3z"/>
	<path id="XMLID_186_" class="st15" d="M530.2,539.5c-5.5-10,2.4-22,13.7-20.9c2.1,0.2,4.1,0.4,6.1,0.7c1.7,0.2,3.4,0.5,5,0.9
		c-10.6-8.5-22.5-14.6-35.3-16.1c-9.8-1.2-21.3-2-34.1-2.5c9.3,13.1,22.1,33.9,29.5,57.8l24.9,0.4
		C537,552.5,533.6,545.7,530.2,539.5z"/>
	<path id="XMLID_21_" class="st9" d="M515.1,559.3c-7.4-23.9-20.2-44.7-29.5-57.8c12.9,0.5,24.3,1.4,34.1,2.5
		c29.6,3.5,54,31.5,70.3,56.5L515.1,559.3z"/>
	<path id="XMLID_100_" class="st14" d="M385,558.3l4.3-53.2c23.3-1.7,49-2.5,72.6-2.4c2.5,0,5,0,7.4,0.1c9,11.2,23.8,31.9,32.5,56.2
		L385,558.3z"/>
	<path id="XMLID_185_" class="st15" d="M403.1,532c0.7-9.2,9.1-16.5,19.6-17.1c17.3-0.9,35.2-1.3,52.1-1.2c0.9,0,1.8,0,2.8,0
		c-3-4.3-5.8-8-8.3-11c-2.5,0-4.9-0.1-7.4-0.1c-23.6-0.1-49.3,0.7-72.6,2.4l-4.3,53.2l16,0.1L403.1,532z"/>
	<path id="XMLID_18_" class="st9" d="M385,558.3l4.3-53.2c23.3-1.7,49-2.5,72.6-2.4c2.5,0,5,0,7.4,0.1c9,11.2,23.8,31.9,32.5,56.2
		L385,558.3z"/>
	<path id="XMLID_93_" class="st16" d="M356.8,658.8h-73.4c-9.9,0-18-8.1-18-18v0c0-9.9,8.1-18,18-18h73.4V658.8z"/>
	<path id="XMLID_190_" class="st13" d="M286.8,645.6c0-9.9,8.1-18,18-18h51.9v-4.7h-73.4c-9.9,0-18,8.1-18,18v0c0,9.9,8.1,18,18,18
		h9.4C289.1,655.6,286.8,650.8,286.8,645.6z"/>
	<path id="XMLID_7_" class="st9" d="M356.8,658.8h-73.4c-9.9,0-18-8.1-18-18v0c0-9.9,8.1-18,18-18h73.4V658.8z"/>
	<path id="XMLID_99_" class="st16" d="M712,658.8h-60.1v-30H712c8.3,0,15,6.7,15,15v0C727,652.1,720.3,658.8,712,658.8z"/>
	<path id="XMLID_192_" class="st13" d="M655.8,640.4H716c4.3,0,8.2,1.9,11,4.8c0-0.5,0.1-0.9,0.1-1.4v0c0-8.3-6.7-15-15-15h-60.1v30
		h4V640.4z"/>
	<path id="XMLID_9_" class="st9" d="M712,658.8h-60.1v-30H712c8.3,0,15,6.7,15,15v0C727,652.1,720.3,658.8,712,658.8z"/>
	<rect id="XMLID_96_" x="389.9" y="642.8" class="st16" width="185.5" height="16"/>
	<rect id="XMLID_160_" x="389.9" y="642.8" class="st13" width="185.5" height="8"/>
	<rect id="XMLID_10_" x="389.9" y="642.8" class="st9" width="185.5" height="16"/>
	<circle id="XMLID_97_" class="st17" cx="620.3" cy="655.1" r="44.5"/>
	<circle id="XMLID_17_" class="st9" cx="620.3" cy="655.1" r="44.5"/>
	<circle id="XMLID_98_" class="st16" cx="620.3" cy="655.1" r="24.1"/>
	<circle id="XMLID_16_" class="st9" cx="620.3" cy="655.1" r="24.1"/>
	<circle id="XMLID_15_" class="st9" cx="620.3" cy="655.1" r="7.4"/>
	<path id="XMLID_19_" class="st9" d="M534.5,645.6"/>
	<circle id="XMLID_94_" class="st17" cx="362.4" cy="655.1" r="44.5"/>
	<circle id="XMLID_11_" class="st9" cx="362.4" cy="655.1" r="44.5"/>
	<circle id="XMLID_95_" class="st16" cx="362.4" cy="655.1" r="24.1"/>
	<circle id="XMLID_13_" class="st9" cx="362.4" cy="655.1" r="24.1"/>
	<circle id="XMLID_14_" class="st9" cx="362.4" cy="655.1" r="7.4"/>
	<path id="XMLID_105_" class="st14" d="M376.8,504.1c-26.5,2.8-40.1,6.3-44.1,8.7c-15.7,9.6-20.5,25.8-24.7,40.1
		c-0.5,1.6-0.9,3.1-1.4,4.6c-0.1,0.4-0.2,0.8-0.4,1.2h66.9L376.8,504.1z"/>
	<path id="XMLID_184_" class="st15" d="M323.3,558.1c4.2-14.3,8.9-30.5,24.7-40.1c3.1-1.9,12.1-4.4,28.4-6.7l0.5-7.2
		c-26.5,2.8-40.1,6.3-44.1,8.7c-15.7,9.6-20.5,25.8-24.7,40.1c-0.5,1.6-0.9,3.1-1.4,4.6c-0.1,0.4-0.2,0.8-0.4,1.2h16.7
		C323.2,558.5,323.2,558.3,323.3,558.1z"/>
	<path id="XMLID_109_" class="st9" d="M376.8,504.1c-26.5,2.8-40.1,6.3-44.1,8.7c-15.7,9.6-20.5,25.8-24.7,40.1
		c-0.5,1.6-0.9,3.1-1.4,4.6c-0.1,0.4-0.2,0.8-0.4,1.2h66.9L376.8,504.1z"/>
	<g id="XMLID_111_">
		<path class="st16" d="M717.1,597.8c1.1,6.8-5.2,12.4-15.2,13.3c-9.5,0.9-20.4-3.3-22.2-10.1c-1.1-6.8,10.3-12.9,19.9-13.8
			C709.1,586.3,715.8,591,717.1,597.8z"/>
	</g>
	<g id="XMLID_110_">
		<path class="st9" d="M717.1,597.8c1.1,6.8-5.2,12.4-15.2,13.3c-9.5,0.9-20.4-3.3-22.2-10.1c-1.1-6.8,10.3-12.9,19.9-13.8
			C709.1,586.3,715.8,591,717.1,597.8z"/>
	</g>
	<line id="XMLID_113_" class="st9" x1="544" y1="576.7" x2="525" y2="576.7"/>
	<line id="XMLID_114_" class="st9" x1="407" y1="576.7" x2="387" y2="576.7"/>
</g>
<path id="XMLID_120_" class="st18" d="M215.8,455.5c-3.6,4.1-4.5,9.6-3.1,14.5c4.6,0.2,9.2-1.6,12.4-5.3c3.6-4.1,4.5-9.6,3.1-14.5
	C223.7,450,219.1,451.8,215.8,455.5z"/>
<path id="XMLID_137_" class="st18" d="M188,425.1c-0.2,5.3,2.4,10,6.5,12.9c3.6-2.7,6-6.8,6.2-11.6c0.2-5.3-2.4-10-6.5-12.9
	C190.6,416.1,188.2,420.3,188,425.1z"/>
<path id="XMLID_119_" class="st18" d="M158.1,471.3c1.4,5.3,5.3,9.2,10.2,10.8c2.7-3.7,3.9-8.5,2.6-13.3c-1.4-5.3-5.3-9.2-10.2-10.8
	C157.9,461.7,156.8,466.6,158.1,471.3z"/>
<path id="XMLID_146_" class="st18" d="M92.2,589.3c-1.2,5.3,0.6,10.6,4.2,14.3c4.1-2,7.3-5.8,8.4-10.6c1.2-5.3-0.6-10.6-4.2-14.3
	C96.4,580.7,93.3,584.5,92.2,589.3z"/>
<path id="XMLID_116_" class="st18" d="M225.3,546.7c-3.6,3.2-5.1,8-4.4,12.5c4,0.7,8.3-0.4,11.6-3.4c3.6-3.2,5.1-8,4.4-12.5
	C232.8,542.7,228.5,543.8,225.3,546.7z"/>
<path id="XMLID_128_" class="st9" d="M164.3,538c0,0,9.2,24.7,30.7,26.3"/>
<path id="XMLID_134_" class="st9" d="M194.9,538.6c0,0,19.5-8.4,21.1-28.9"/>
<path id="XMLID_145_" class="st7" d="M143.8,697c-5.1-14.2-18.7-24.3-34.7-24.3S79.6,682.8,74.4,697H143.8z"/>
<path id="XMLID_102_" class="st19" d="M121.7,674.9c-3.9-1.4-8.1-2.2-12.6-2.2c-16,0-29.5,10.1-34.7,24.3h25.1
	C103.3,686.7,111.4,678.6,121.7,674.9z"/>
<line id="XMLID_3_" class="st9" x1="267.5" y1="699.7" x2="68.1" y2="699.7"/>
<line id="XMLID_5_" class="st9" x1="748.3" y1="699.7" x2="283" y2="699.7"/>
<line id="XMLID_2_" class="st9" x1="782.7" y1="699.7" x2="769" y2="699.7"/>
<line id="XMLID_84_" class="st9" x1="931.9" y1="699.7" x2="799.8" y2="699.7"/>
<line id="XMLID_143_" class="st9" x1="155" y1="666" x2="155" y2="697"/>
<line id="XMLID_144_" class="st9" x1="174.7" y1="678" x2="155" y2="697"/>
<line id="XMLID_147_" class="st18" x1="887" y1="442" x2="887" y2="697"/>
<line id="XMLID_148_" class="st18" x1="841.7" y1="397.1" x2="887" y2="442.3"/>
<rect id="XMLID_122_" x="822.3" y="421.5" transform="matrix(0.7071 0.7071 -0.7071 0.7071 553.0488 -472.6724)" class="st7" width="49.5" height="19.6"/>
<rect id="XMLID_140_" x="822.3" y="421.5" transform="matrix(0.7071 0.7071 -0.7071 0.7071 553.0488 -472.6724)" class="st18" width="49.5" height="19.6"/>
<line id="XMLID_121_" class="st18" x1="899.7" y1="490" x2="899.7" y2="697"/>
<line id="XMLID_118_" class="st18" x1="944.9" y1="445.1" x2="899.7" y2="490.3"/>
<rect id="XMLID_101_" x="914.8" y="469.5" transform="matrix(-0.7071 0.7071 -0.7071 -0.7071 1942.8821 153.7374)" class="st7" width="49.5" height="19.6"/>
<rect id="XMLID_117_" x="914.8" y="469.5" transform="matrix(-0.7071 0.7071 -0.7071 -0.7071 1942.8821 153.7374)" class="st18" width="49.5" height="19.6"/>
<g id="XMLID_124_">
	<line id="XMLID_125_" class="st20" x1="500" y1="154.6" x2="500" y2="177.7"/>
	<line id="XMLID_126_" class="st20" x1="479.2" y1="158.3" x2="487.1" y2="180"/>
	<line id="XMLID_127_" class="st20" x1="460.8" y1="168.8" x2="475.7" y2="186.6"/>
	<line id="XMLID_129_" class="st20" x1="447.2" y1="185.1" x2="467.3" y2="196.6"/>
	<line id="XMLID_131_" class="st20" x1="440" y1="204.9" x2="462.8" y2="209"/>
	<line id="XMLID_132_" class="st20" x1="440" y1="226.1" x2="462.8" y2="222.1"/>
	<line id="XMLID_133_" class="st20" x1="447.2" y1="246" x2="467.3" y2="234.4"/>
	<line id="XMLID_135_" class="st20" x1="460.8" y1="262.2" x2="475.7" y2="244.5"/>
	<line id="XMLID_136_" class="st20" x1="479.2" y1="272.8" x2="487.1" y2="251"/>
	<line id="XMLID_138_" class="st20" x1="500" y1="276.4" x2="500" y2="253.3"/>
	<line id="XMLID_139_" class="st20" x1="520.8" y1="272.8" x2="512.9" y2="251"/>
	<line id="XMLID_141_" class="st20" x1="539.2" y1="262.2" x2="524.3" y2="244.5"/>
	<line id="XMLID_142_" class="st20" x1="552.8" y1="246" x2="532.7" y2="234.4"/>
	<line id="XMLID_149_" class="st20" x1="560" y1="226.1" x2="537.2" y2="222.1"/>
	<line id="XMLID_150_" class="st20" x1="560" y1="204.9" x2="537.2" y2="209"/>
	<line id="XMLID_151_" class="st20" x1="552.8" y1="185.1" x2="532.7" y2="196.6"/>
	<line id="XMLID_153_" class="st20" x1="539.2" y1="168.8" x2="524.3" y2="186.6"/>
	<line id="XMLID_159_" class="st20" x1="520.8" y1="158.3" x2="512.9" y2="180"/>
</g>
<circle id="XMLID_123_" class="st7" cx="500" cy="215.5" r="20.8"/>
<path id="XMLID_161_" class="st20" d="M808.7,163.5c0.1-0.7,0.1-1.5,0.1-2.2c0-14.8-12-26.7-26.7-26.7c-5.7,0-11,1.8-15.3,4.8
	c-3.2-11.2-13.5-19.3-25.7-19.3c-2.1,0-4.1,0.2-6.1,0.7c-6.7-7.5-16.5-12.3-27.4-12.3c-18.7,0-34.2,14-36.5,32.1
	c-0.4,0-0.8-0.1-1.3-0.1c-11.5,0-20.8,9.3-20.8,20.8c0,0.7,0,1.5,0.1,2.2H808.7z"/>
<path id="XMLID_162_" class="st20" d="M191.2,174.1c-4.5-6.4-12-10.7-20.5-10.7c-2,0-3.9,0.2-5.7,0.7c-6.3-7-15.5-11.5-25.7-11.5
	c-17.5,0-32,13.1-34.1,30c-0.4,0-0.8-0.1-1.2-0.1c-10.7,0-19.5,8.7-19.5,19.5c0,0.7,0,1.4,0.1,2.1h101.9"/>
<line id="XMLID_165_" class="st20" x1="272" y1="212.3" x2="358.1" y2="212.3"/>
<line id="XMLID_168_" class="st20" x1="331.2" y1="234.4" x2="352.1" y2="234.4"/>
<line id="XMLID_171_" class="st20" x1="307.3" y1="222.1" x2="345.9" y2="222.1"/>
<line id="XMLID_188_" class="st20" x1="527.4" y1="93" x2="592.6" y2="93"/>
<line id="XMLID_191_" class="st20" x1="562.7" y1="108.5" x2="640" y2="108.5"/>
<path id="XMLID_194_" class="st20" d="M257.1,204.1c0.9-2.1,1.4-4.4,1.4-6.9c0-9.3-7.4-16.8-16.6-16.8c-2.3,0-4.5,0.5-6.5,1.3
	c-3.7-9.9-13.2-17-24.3-17c-13.3,0-24.2,10-25.7,22.8c-1.1-0.2-2.2-0.4-3.3-0.4c-8.4,0-15.1,6.6-15.1,14.7c0,0.7,0.1,1.5,0.2,2.2
	H257.1z"/>
</svg>
