<?xml version="1.0" encoding="utf-8"?>
<!-- Generator: Adobe Illustrator 23.1.1, SVG Export Plug-In . SVG Version: 6.00 Build 0)  -->
<svg version="1.1" id="Layer_1" xmlns="http://www.w3.org/2000/svg" xmlns:xlink="http://www.w3.org/1999/xlink" x="0px" y="0px"
	 viewBox="0 0 1000 1000" style="enable-background:new 0 0 1000 1000;" xml:space="preserve">
<style type="text/css">
	.st0{fill:#FFFFFF;}
	.st1{fill:#646464;}
	.st2{opacity:0.15;}
	.st3{fill:none;stroke:#474747;stroke-width:6;stroke-linecap:round;stroke-linejoin:round;stroke-miterlimit:10;}
	.st4{fill:#D6D6D4;}
	.st5{fill:#BABABA;}
	.st6{fill:#5EB173;}
	.st7{opacity:0.34;fill:#60A06C;}
	.st8{fill:#60A06C;}
	.st9{fill:#7C7C7C;}
	.st10{fill:#F6F9E4;}
</style>
<rect id="XMLID_5_" class="st0" width="1000" height="1000"/>
<g>
	<g>
		<g>
			<path class="st1" d="M63.2,959.2c0,2.5-1.2,3.7-2.6,3.7c-1.1,0-1.9-0.5-2.1-1.4c-0.4,0.5-1,0.8-1.8,0.8c-1.5,0-2.6-1.2-2.6-2.8
				c0-1.6,1.1-2.8,2.6-2.8c0.7,0,1.2,0.3,1.6,0.7v-0.5h1.6v3.9c0,0.8,0.3,1.4,1,1.4c0.9,0,1.7-0.9,1.7-3c0-3-2.3-5.3-5.4-5.3
				c-3.1,0-5.6,2.4-5.6,5.7c0,3.3,2.5,5.7,5.9,5.7c1.1,0,2.1-0.2,2.9-0.4v0.6c-0.8,0.3-1.7,0.4-2.9,0.4c-3.7,0-6.5-2.6-6.5-6.2
				c0-3.4,2.7-6.2,6.2-6.2C61.1,953.3,63.2,956.4,63.2,959.2z M58.3,959.5c0-0.8-0.6-1.4-1.3-1.4c-0.8,0-1.3,0.5-1.3,1.4
				c0,0.8,0.6,1.3,1.3,1.3C57.8,960.9,58.3,960.3,58.3,959.5z"/>
		</g>
		<g>
			<path class="st1" d="M69.4,955.1v2c-1.2-0.1-2.6,0.5-2.6,2.4v4.3h-1.9v-8.6h1.9v1.4C67.3,955.5,68.3,955.1,69.4,955.1z"/>
		</g>
		<g>
			<path class="st1" d="M74.6,962.3c1,0,1.8-0.5,2.2-1.1l1.5,0.9c-0.8,1.2-2.1,1.9-3.8,1.9c-2.8,0-4.7-1.9-4.7-4.5
				c0-2.5,1.8-4.5,4.5-4.5c2.6,0,4.3,2.1,4.3,4.5c0,0.3,0,0.5-0.1,0.8h-6.8C72.1,961.6,73.2,962.3,74.6,962.3z M76.9,958.8
				c-0.3-1.5-1.3-2.1-2.5-2.1c-1.4,0-2.3,0.8-2.6,2.1H76.9z"/>
		</g>
		<g>
			<path class="st1" d="M88.9,955.2v8.6h-1.9v-1.2c-0.7,0.9-1.7,1.5-3,1.5c-2.3,0-4.3-2-4.3-4.5c0-2.6,1.9-4.5,4.3-4.5
				c1.3,0,2.3,0.5,3,1.4v-1.2H88.9z M87.1,959.5c0-1.6-1.2-2.7-2.7-2.7c-1.5,0-2.7,1.1-2.7,2.7c0,1.6,1.2,2.7,2.7,2.7
				C85.9,962.3,87.1,961.1,87.1,959.5z"/>
		</g>
		<g>
			<path class="st1" d="M91.1,951.3H93v12.5h-1.9V951.3z"/>
		</g>
		<g>
			<path class="st1" d="M102.9,955.2l-3.3,8.6h-2.1l-3.3-8.6h2l2.4,6.5l2.4-6.5H102.9z"/>
		</g>
		<g>
			<path class="st1" d="M104.2,955.2h1.9v8.9c0,2.4-1.2,3.5-3.5,3.3v-1.8c1.1,0.1,1.7-0.3,1.7-1.5V955.2z M104,952.8
				c0-0.7,0.5-1.2,1.2-1.2c0.7,0,1.2,0.5,1.2,1.2c0,0.6-0.5,1.2-1.2,1.2C104.5,954,104,953.4,104,952.8z"/>
		</g>
		<g>
			<path class="st1" d="M116,955.2l-3.3,8.8c-0.8,2.2-2.2,3.3-4.2,3.2v-1.7c1.2,0.1,1.9-0.5,2.3-1.7l0.1-0.2l-3.6-8.4h2l2.6,6.2
				l2.2-6.2H116z"/>
		</g>
	</g>
	<g>
		<path class="st1" d="M211.9,938.7c0,2.1-1.5,3.8-3.6,3.8h-3v-7.6h3C210.4,934.9,211.9,936.6,211.9,938.7z M210.9,938.7
			c0-1.6-1.1-2.9-2.6-2.9h-2v5.7h2C209.8,941.6,210.9,940.3,210.9,938.7z"/>
		<path class="st1" d="M219.5,940.8h-3.4l-0.6,1.7h-1.1l2.8-7.6h1.1l2.8,7.6h-1.1L219.5,940.8z M219.2,939.9l-1.4-3.8l-1.4,3.8
			H219.2z"/>
		<path class="st1" d="M226.4,939.4v3.1h-1v-3.1l-2.7-4.5h1.1l2.1,3.6l2.1-3.6h1.1L226.4,939.4z"/>
		<path class="st1" d="M241.5,934.9v0.9l-2.8,6.7h-1.1l2.8-6.7h-3.7v-1H241.5z"/>
		<path class="st1" d="M249.2,938.8L249.2,938.8l-2.5,3.7h-1.1l1.8-2.7c-0.1,0-0.2,0-0.4,0c-1.5,0-2.6-1-2.6-2.6
			c0-1.5,1.1-2.6,2.6-2.6s2.6,1,2.6,2.6C249.7,937.9,249.5,938.4,249.2,938.8z M247.1,938.9c1,0,1.6-0.6,1.6-1.6s-0.7-1.6-1.6-1.6
			s-1.6,0.6-1.6,1.6C245.4,938.3,246.1,938.9,247.1,938.9z"/>
	</g>
	<g>
		<path class="st1" d="M58.9,938.7c0,2.1-1.5,3.8-3.6,3.8h-3v-7.6h3C57.4,934.9,58.9,936.6,58.9,938.7z M57.9,938.7
			c0-1.6-1.1-2.9-2.6-2.9h-2v5.7h2C56.8,941.6,57.9,940.3,57.9,938.7z"/>
		<path class="st1" d="M67,941.6v1h-4.6v-7.6h4.5v1h-3.5v2.3h3.2v0.9h-3.2v2.4H67z"/>
		<path class="st1" d="M70,940.8l0.9-0.5c0.3,0.8,0.9,1.4,2,1.4c1.1,0,1.6-0.5,1.6-1.2c0-0.8-0.7-1-1.8-1.4
			c-1.2-0.4-2.4-0.8-2.4-2.2c0-1.4,1.1-2.2,2.4-2.2c1.3,0,2.2,0.7,2.6,1.7l-0.8,0.5c-0.3-0.7-0.8-1.2-1.7-1.2
			c-0.8,0-1.4,0.4-1.4,1.1c0,0.7,0.5,1,1.6,1.3c1.3,0.4,2.6,0.8,2.6,2.3c0,1.3-1.1,2.2-2.6,2.2C71.5,942.7,70.4,941.9,70,940.8z"/>
		<path class="st1" d="M80,934.9v7.6h-1v-7.6H80z"/>
		<path class="st1" d="M91.3,939.2c0,1.9-1.4,3.5-3.7,3.5c-2.4,0-4-1.8-4-4c0-2.2,1.7-4,4-4c1.4,0,2.7,0.8,3.3,1.8l-0.9,0.5
			c-0.4-0.8-1.4-1.4-2.4-1.4c-1.8,0-3,1.3-3,3c0,1.7,1.2,3,3,3c1.6,0,2.5-0.9,2.7-2h-2.8v-0.9h3.8V939.2z"/>
		<path class="st1" d="M100.6,934.9v7.6h-0.8l-3.9-5.7v5.7h-1v-7.6h0.8l3.9,5.7v-5.7H100.6z"/>
		<path class="st1" d="M109.1,941.6v1h-4.6v-7.6h4.5v1h-3.5v2.3h3.2v0.9h-3.2v2.4H109.1z"/>
		<path class="st1" d="M119.2,938.7c0,2.1-1.5,3.8-3.6,3.8h-3v-7.6h3C117.6,934.9,119.2,936.6,119.2,938.7z M118.2,938.7
			c0-1.6-1.1-2.9-2.6-2.9h-2v5.7h2C117.1,941.6,118.2,940.3,118.2,938.7z"/>
		<path class="st1" d="M133.2,940.4c0,1.2-1,2.2-2.2,2.2h-3.3v-7.6h3c1.2,0,2.1,0.9,2.1,2.1c0,0.7-0.3,1.2-0.8,1.6
			C132.7,938.9,133.2,939.5,133.2,940.4z M128.7,935.8v2.3h2c0.6,0,1.1-0.5,1.1-1.2c0-0.6-0.5-1.2-1.1-1.2H128.7z M132.2,940.3
			c0-0.7-0.5-1.2-1.2-1.2h-2.3v2.5h2.3C131.7,941.6,132.2,941,132.2,940.3z"/>
		<path class="st1" d="M139.4,939.4v3.1h-1v-3.1l-2.7-4.5h1.1l2.1,3.6l2.1-3.6h1.1L139.4,939.4z"/>
	</g>
	<g>
		<path class="st1" d="M204.8,958.1c0-3.6,2.7-6.4,6.5-6.4c2.3,0,4.3,1.2,5.3,3l-1.8,1c-0.7-1.2-2-2-3.6-2c-2.7,0-4.4,1.9-4.4,4.4
			s1.8,4.4,4.4,4.4c1.6,0,2.9-0.8,3.6-2l1.8,1c-1,1.8-3,3-5.3,3C207.5,964.5,204.8,961.7,204.8,958.1z"/>
		<path class="st1" d="M217.7,959.9c0-2.6,2.1-4.7,4.7-4.7c2.6,0,4.7,2,4.7,4.7c0,2.6-2.1,4.7-4.7,4.7
			C219.8,964.5,217.7,962.5,217.7,959.9z M225.1,959.9c0-1.6-1.2-2.8-2.8-2.8s-2.8,1.2-2.8,2.8c0,1.6,1.2,2.8,2.8,2.8
			S225.1,961.5,225.1,959.9z"/>
		<path class="st1" d="M235.9,955.1v0.4h2.1v1.8h-2.1v7H234v-7h-3v7h-1.9v-7h-1.3v-1.8h1.3v-0.2c0-2.4,1.3-3.8,4-3.6v1.8
			c-1.3-0.1-2.1,0.4-2.1,1.8v0.2h3v-0.4c0-2.4,1.3-3.8,4-3.6v1.8C236.6,953.2,235.9,953.7,235.9,955.1z"/>
		<path class="st1" d="M243,962.8c1.1,0,1.9-0.5,2.3-1.1l1.6,0.9c-0.8,1.2-2.1,1.9-3.9,1.9c-2.9,0-4.8-2-4.8-4.7
			c0-2.6,1.9-4.7,4.7-4.7c2.6,0,4.4,2.1,4.4,4.7c0,0.3,0,0.5-0.1,0.8h-7C240.5,962.1,241.6,962.8,243,962.8z M245.4,959.1
			c-0.3-1.5-1.4-2.2-2.5-2.2c-1.4,0-2.4,0.8-2.7,2.2H245.4z"/>
		<path class="st1" d="M253.3,962.8c1.1,0,1.9-0.5,2.3-1.1l1.6,0.9c-0.8,1.2-2.1,1.9-3.9,1.9c-2.9,0-4.8-2-4.8-4.7
			c0-2.6,1.9-4.7,4.7-4.7c2.6,0,4.4,2.1,4.4,4.7c0,0.3,0,0.5-0.1,0.8h-7C250.7,962.1,251.8,962.8,253.3,962.8z M255.6,959.1
			c-0.3-1.5-1.4-2.2-2.5-2.2c-1.4,0-2.4,0.8-2.7,2.2H255.6z"/>
	</g>
	<g>
		<g>
			<g>
				<path class="st1" d="M846.1,938.7c0,2.1-1.5,3.8-3.6,3.8h-3v-7.6h3C844.6,934.9,846.1,936.6,846.1,938.7z M845.2,938.7
					c0-1.6-1.1-2.9-2.6-2.9h-2v5.7h2C844.1,941.6,845.2,940.3,845.2,938.7z"/>
			</g>
			<g>
				<path class="st1" d="M849.3,938.7c0-2.2,1.7-4,3.9-4c2.2,0,4,1.8,4,4c0,2.2-1.7,4-4,4C851,942.7,849.3,940.9,849.3,938.7z
					 M856.1,938.7c0-1.7-1.3-3-2.9-3c-1.7,0-2.9,1.3-2.9,3c0,1.7,1.3,3,2.9,3C854.9,941.7,856.1,940.4,856.1,938.7z"/>
			</g>
			<g>
				<path class="st1" d="M859.8,934.9h1.1l1.7,6.3l1.9-6.3h1l1.9,6.3l1.7-6.3h1.1l-2.2,7.6h-1.2l-1.8-6.1l-1.8,6.1H862L859.8,934.9z
					"/>
			</g>
			<g>
				<path class="st1" d="M879.3,934.9v7.6h-0.8l-3.9-5.7v5.7h-1v-7.6h0.8l3.9,5.7v-5.7H879.3z"/>
			</g>
			<g>
				<path class="st1" d="M887.5,941.6v1h-4.3v-7.6h1v6.7H887.5z"/>
			</g>
			<g>
				<path class="st1" d="M889.9,938.7c0-2.2,1.7-4,3.9-4c2.2,0,4,1.8,4,4c0,2.2-1.7,4-4,4C891.6,942.7,889.9,940.9,889.9,938.7z
					 M896.8,938.7c0-1.7-1.3-3-2.9-3c-1.7,0-2.9,1.3-2.9,3c0,1.7,1.3,3,2.9,3C895.5,941.7,896.8,940.4,896.8,938.7z"/>
			</g>
			<g>
				<path class="st1" d="M905.4,940.8H902l-0.6,1.7h-1.1l2.8-7.6h1.1l2.8,7.6H906L905.4,940.8z M905.1,939.9l-1.4-3.8l-1.4,3.8
					H905.1z"/>
			</g>
			<g>
				<path class="st1" d="M916.9,938.7c0,2.1-1.5,3.8-3.6,3.8h-3v-7.6h3C915.4,934.9,916.9,936.6,916.9,938.7z M915.9,938.7
					c0-1.6-1.1-2.9-2.6-2.9h-2v5.7h2C914.9,941.6,915.9,940.3,915.9,938.7z"/>
			</g>
			<g>
				<path class="st1" d="M926.5,935.8v2.5h3.2v1h-3.2v3.2h-1v-7.6h4.4v1H926.5z"/>
			</g>
			<g>
				<path class="st1" d="M936.2,939.6h-1.8v2.9h-1v-7.6h3c1.3,0,2.4,1.1,2.4,2.4c0,1-0.7,1.9-1.6,2.2l1.8,3.1h-1.1L936.2,939.6z
					 M934.4,938.7h2c0.8,0,1.4-0.6,1.4-1.4c0-0.8-0.6-1.4-1.4-1.4h-2V938.7z"/>
			</g>
			<g>
				<path class="st1" d="M941.9,938.7c0-2.2,1.7-4,3.9-4c2.2,0,4,1.8,4,4c0,2.2-1.7,4-4,4C943.6,942.7,941.9,940.9,941.9,938.7z
					 M948.8,938.7c0-1.7-1.3-3-2.9-3c-1.7,0-2.9,1.3-2.9,3c0,1.7,1.3,3,2.9,3C947.5,941.7,948.8,940.4,948.8,938.7z"/>
			</g>
			<g>
				<path class="st1" d="M960.4,942.5h-1v-6l-2.5,4.2h-0.1l-2.5-4.1v5.9h-1v-7.6h1.1l2.4,4l2.4-4h1.1V942.5z"/>
			</g>
		</g>
		<g>
			<g>
				<path class="st1" d="M839.3,952.9c0-0.7,0.5-1.2,1.2-1.2c0.7,0,1.2,0.5,1.2,1.2c0,0.7-0.5,1.2-1.2,1.2
					C839.9,954.1,839.3,953.6,839.3,952.9z M839.6,955.4h1.9v8.9h-1.9V955.4z"/>
			</g>
			<g>
				<path class="st1" d="M843.7,951.4h1.9v12.9h-1.9V951.4z"/>
			</g>
			<g>
				<path class="st1" d="M847.8,951.4h1.9v12.9h-1.9V951.4z"/>
			</g>
			<g>
				<path class="st1" d="M852,951.4h1.9v12.9H852V951.4z"/>
			</g>
			<g>
				<path class="st1" d="M864,955.4v8.9h-1.9v-1.1c-0.6,0.9-1.5,1.4-2.7,1.4c-2,0-3.4-1.3-3.4-3.6v-5.4h1.9v5.2c0,1.3,0.8,2.1,2,2.1
					c1.3,0,2.2-0.7,2.2-2.5v-4.7H864z"/>
			</g>
			<g>
				<path class="st1" d="M872.6,961.8c0,1.8-1.5,2.7-3.5,2.7c-1.8,0-3-0.8-3.6-2.1l1.6-1c0.3,0.8,1,1.3,2,1.3c0.8,0,1.5-0.3,1.5-1
					c0-1.6-4.8-0.7-4.8-3.9c0-1.7,1.4-2.7,3.2-2.7c1.5,0,2.7,0.7,3.3,1.8l-1.6,0.9c-0.3-0.7-0.9-1-1.7-1c-0.7,0-1.3,0.3-1.3,0.9
					C867.9,959.5,872.6,958.5,872.6,961.8z"/>
			</g>
			<g>
				<path class="st1" d="M876.7,957.3v4.2c0,1.1,0.7,1.1,2.2,1v1.7c-2.9,0.4-4.1-0.5-4.1-2.8v-4.2h-1.6v-1.8h1.6v-1.9l1.9-0.6v2.5
					h2.2v1.8H876.7z"/>
			</g>
			<g>
				<path class="st1" d="M885.4,955.3v2.1c-1.3-0.1-2.7,0.5-2.7,2.5v4.5h-1.9v-8.9h1.9v1.5C883.2,955.7,884.2,955.3,885.4,955.3z"/>
			</g>
			<g>
				<path class="st1" d="M895.3,955.4v8.9h-1.9V963c-0.7,0.9-1.7,1.5-3.1,1.5c-2.4,0-4.4-2-4.4-4.7c0-2.6,2-4.7,4.4-4.7
					c1.4,0,2.4,0.6,3.1,1.5v-1.3H895.3z M893.4,959.9c0-1.6-1.2-2.8-2.8-2.8c-1.6,0-2.8,1.2-2.8,2.8c0,1.6,1.2,2.8,2.8,2.8
					C892.2,962.7,893.4,961.5,893.4,959.9z"/>
			</g>
			<g>
				<path class="st1" d="M900.3,957.3v4.2c0,1.1,0.7,1.1,2.2,1v1.7c-2.9,0.4-4.1-0.5-4.1-2.8v-4.2h-1.6v-1.8h1.6v-1.9l1.9-0.6v2.5
					h2.2v1.8H900.3z"/>
			</g>
			<g>
				<path class="st1" d="M903.9,952.9c0-0.7,0.5-1.2,1.2-1.2c0.7,0,1.2,0.5,1.2,1.2c0,0.7-0.5,1.2-1.2,1.2
					C904.5,954.1,903.9,953.6,903.9,952.9z M904.2,955.4h1.9v8.9h-1.9V955.4z"/>
			</g>
			<g>
				<path class="st1" d="M907.8,959.9c0-2.6,2.1-4.7,4.7-4.7c2.6,0,4.7,2,4.7,4.7c0,2.6-2.1,4.7-4.7,4.7
					C909.9,964.5,907.8,962.5,907.8,959.9z M915.3,959.9c0-1.6-1.2-2.8-2.8-2.8c-1.6,0-2.8,1.2-2.8,2.8c0,1.6,1.2,2.8,2.8,2.8
					C914.1,962.7,915.3,961.5,915.3,959.9z"/>
			</g>
			<g>
				<path class="st1" d="M927,958.9v5.4h-1.9v-5.2c0-1.3-0.8-2.1-2-2.1c-1.3,0-2.2,0.7-2.2,2.5v4.7h-1.9v-8.9h1.9v1.1
					c0.6-0.9,1.5-1.4,2.7-1.4C925.5,955.2,927,956.6,927,958.9z"/>
			</g>
			<g>
				<path class="st1" d="M935.5,961.8c0,1.8-1.5,2.7-3.5,2.7c-1.8,0-3-0.8-3.6-2.1l1.6-1c0.3,0.8,1,1.3,2,1.3c0.8,0,1.5-0.3,1.5-1
					c0-1.6-4.8-0.7-4.8-3.9c0-1.7,1.4-2.7,3.2-2.7c1.5,0,2.7,0.7,3.3,1.8l-1.6,0.9c-0.3-0.7-0.9-1-1.7-1c-0.7,0-1.3,0.3-1.3,0.9
					C930.7,959.5,935.5,958.5,935.5,961.8z"/>
			</g>
			<g>
				<path class="st1" d="M936.8,963.2c0-0.7,0.6-1.3,1.3-1.3c0.7,0,1.3,0.6,1.3,1.3c0,0.7-0.6,1.3-1.3,1.3
					C937.4,964.5,936.8,963.9,936.8,963.2z"/>
			</g>
			<g>
				<path class="st1" d="M940.3,959.9c0-2.6,2-4.7,4.7-4.7c1.7,0,3.2,0.9,3.9,2.3l-1.6,1c-0.4-0.8-1.3-1.4-2.3-1.4
					c-1.6,0-2.7,1.2-2.7,2.8c0,1.6,1.2,2.8,2.7,2.8c1.1,0,1.9-0.5,2.4-1.4l1.6,0.9c-0.7,1.4-2.2,2.3-4,2.3
					C942.3,964.5,940.3,962.5,940.3,959.9z"/>
			</g>
			<g>
				<path class="st1" d="M949.7,959.9c0-2.6,2.1-4.7,4.7-4.7c2.6,0,4.7,2,4.7,4.7c0,2.6-2.1,4.7-4.7,4.7
					C951.8,964.5,949.7,962.5,949.7,959.9z M957.2,959.9c0-1.6-1.2-2.8-2.8-2.8s-2.8,1.2-2.8,2.8c0,1.6,1.2,2.8,2.8,2.8
					S957.2,961.5,957.2,959.9z"/>
			</g>
		</g>
	</g>
</g>
<g id="XMLID_11_" class="st2">
	<line id="XMLID_73_" class="st3" x1="169" y1="748.7" x2="831" y2="748.7"/>
	<g id="XMLID_10_">
		<line id="XMLID_3_" class="st3" x1="732.5" y1="748.7" x2="732.5" y2="423.4"/>
		<path id="XMLID_2_" class="st3" d="M758.6,335.1C782.9,366.6,846,568,732.5,568s-50.3-201.4-26.1-232.9
			c8.5-11,18.4-15.8,26.1-15.8S750.1,324.1,758.6,335.1z"/>
		<line id="XMLID_7_" class="st3" x1="732.5" y1="473.5" x2="757.7" y2="448.3"/>
		<line id="XMLID_8_" class="st3" x1="732.5" y1="532.2" x2="698.2" y2="497.9"/>
		<circle id="XMLID_12_" class="st0" cx="815.7" cy="557.1" r="49.4"/>
		<circle id="XMLID_4_" class="st3" cx="815.7" cy="557.1" r="49.4"/>
		<line id="XMLID_9_" class="st3" x1="732.5" y1="640.3" x2="823.9" y2="548.9"/>
		<line id="XMLID_14_" class="st3" x1="825.8" y1="586.1" x2="786.7" y2="586.1"/>
		<line id="XMLID_15_" class="st3" x1="806.3" y1="566.5" x2="806.3" y2="548.9"/>
		<line id="XMLID_16_" class="st3" x1="732.5" y1="699.8" x2="650.5" y2="617.7"/>
		
			<ellipse id="XMLID_13_" transform="matrix(0.7983 -0.6022 0.6022 0.7983 -241.9206 524.1381)" class="st3" cx="661.6" cy="623.3" rx="42.3" ry="57.5"/>
		<line id="XMLID_79_" class="st3" x1="691.8" y1="659" x2="691.8" y2="632.5"/>
		<line id="XMLID_80_" class="st3" x1="650.5" y1="638" x2="670.8" y2="638"/>
		<rect id="XMLID_86_" x="238.4" y="689.9" class="st3" width="22.3" height="55.2"/>
		<rect id="XMLID_85_" x="469" y="689.9" class="st3" width="22.3" height="55.2"/>
		<rect id="XMLID_84_" x="252.7" y="546.5" class="st3" width="15.6" height="118.3"/>
		<rect id="XMLID_83_" x="461.3" y="546.5" class="st3" width="15.6" height="118.3"/>
		<rect id="XMLID_89_" x="201.8" y="564.5" class="st0" width="312.3" height="33.5"/>
		<rect id="XMLID_82_" x="201.8" y="564.5" class="st3" width="312.3" height="33.5"/>
		<rect id="XMLID_88_" x="201.8" y="598" class="st0" width="312.3" height="33.5"/>
		<rect id="XMLID_81_" x="201.8" y="598" class="st3" width="312.3" height="33.5"/>
		<circle id="XMLID_77_" class="st3" cx="469.1" cy="582.5" r="4.5"/>
		<circle id="XMLID_91_" class="st3" cx="469.1" cy="614.7" r="4.5"/>
		<circle id="XMLID_93_" class="st3" cx="260.6" cy="582.5" r="4.5"/>
		<circle id="XMLID_92_" class="st3" cx="260.6" cy="614.7" r="4.5"/>
		<rect id="XMLID_87_" x="185.8" y="664.8" class="st3" width="353.5" height="25.2"/>
	</g>
</g>
<g>
	<path id="XMLID_104_" class="st4" d="M422,712.6l4,28.6c0.6,4.3,4.6,7.5,9.4,7.5h128.2c4.8,0,8.8-3.2,9.4-7.5l4-28.6H422z"/>
	<path id="XMLID_74_" class="st5" d="M560.7,748.7l9.3-2.4l6.8-33.7H422l1.5,11h127.8c0.1,0,0.1,0,0.2,0
		C569.8,723.6,560.7,748.7,560.7,748.7z"/>
	<path id="XMLID_103_" class="st6" d="M592.3,702.9l35-279.5H371.5l35,279.5c0.7,5.5,5.5,9.7,11.2,9.7h163.5
		C586.9,712.6,591.6,708.5,592.3,702.9z"/>
	<g id="XMLID_30_">
		<path id="XMLID_134_" class="st7" d="M492.3,652.2c-2.5,0-4.4-1.3-5.1-1.8c-2.2-1.8-3.5-4.8-3.6-8.4c-0.2-4.4,1.4-8.7,4.2-11.4
			c0.8-0.7,3.1-3,6.1-3c0.3,0,0.6,0,0.9,0.1c2,0.3,3.8,1.6,5.2,3.8c2.2,3.3,2.9,7.8,2,11.6c-1.1,4.4-4.8,9.1-9.5,9.2L492.3,652.2z
			 M493.3,638.4c-0.9,2.1-0.7,3.4-0.4,3.7c0,0,0.1,0,0.1,0.1c0.1-0.1,0.3-0.4,0.5-0.9C493.8,640.3,493.6,639.2,493.3,638.4z"/>
		<path id="XMLID_19_" class="st7" d="M503.9,664.6c-1.3,0-2.6-0.4-3.6-1.1c-2.2-1.5-2.1-3.5-1.5-10.8c0.4-4.6,1-11.7,1.5-22.7
			c0-0.6,0.1-1.1,0.1-1.7c-0.1,0-0.1,0-0.2,0c-0.2,0-0.5,0-0.7,0c-0.8,0.1-1.6,0.1-2.4,0.1c-0.9,0-1.7,0.1-2.5,0.2
			c-0.3,0-0.6,0.1-0.9,0.1c-0.6,0.1-1.1,0.1-1.5,0.1c-0.9,0-1.6-0.3-2.2-0.9c-2.1-2.1,0.2-6.6,1.9-8.3c1.4-1.3,3.3-2,5.6-2
			c1.3,0,2.8,0.2,4.6,0.6c1.1-3.2,2.7-5.5,4.7-6.9c0.8-0.6,3-2.1,5.9-2.1c0.4,0,0.8,0,1.2,0.1c0.6,0.1,2.5,0.4,4.1,1.9
			c1.5,1.5,1.9,3.5,1.9,4.9c0.8-0.3,1.6-0.5,2.6-0.5c0.4,0,0.7,0,1.1,0.1c0.6,0.1,2.3,0.3,3.7,1.8c2.3,2.3,1.7,5.6,1.6,6.2l-0.4,1.7
			c0.3-0.1,0.6-0.3,0.8-0.5c0.6-0.6,1-1.5,1.1-2.8l0.3-4.1l5.1,4.8l0.2,0.3c0.9,1.8,0.3,4.1-1.8,6.7c-1.5,1.9-4.4,2.8-8.8,2.8
			c-1.3,0-2.8-0.1-4.4-0.3c-0.6,4.9-0.5,10.3-0.5,10.3c0.1,2,0.1,3.9,0.2,5.5c0.3,8.9,0.4,12.5-2.4,14.6c-1,0.7-2.3,1.1-3.6,1.1
			c0,0,0,0,0,0c-1.2,0-2.3-0.3-3.3-1c-1-0.7-1.5-1.4-1.7-2.8c-0.4,1.2-1.1,2.1-2.1,2.9C506.8,664.1,505.4,664.6,503.9,664.6z
			 M510.7,630.5c-0.4,5-0.3,9.8-0.3,9.8c0.1,2.3,0.1,4.4,0.2,6.3c0,0.8,0.1,1.5,0.1,2.2c0.3-3.7,0.6-8.5,0.9-14.9
			c0-1.1,0.1-2.1,0.2-3.1C511.4,630.7,511.1,630.6,510.7,630.5z M523.6,625.6c1.2,0.2,2.2,0.4,3,0.4c0.3,0,0.6,0,0.9-0.1l-1.3-0.7
			c-0.4-0.2-0.8-0.3-1.1-0.3c-0.1,0-0.2,0-0.3,0C524.7,624.9,524.1,625.1,523.6,625.6z M513.8,622.3c0.5-1.2,1.2-2.3,1.9-3.1
			c-0.1,0-0.1,0-0.2,0c-0.1,0-0.3,0-0.4,0c0,0-1,0.2-2,1.3c-0.2,0.2-0.5,0.6-0.8,1.3C512.5,621.8,513.5,622.2,513.8,622.3z"/>
		<path id="XMLID_26_" class="st7" d="M526.5,654.7c-2.3,0-4.3-0.7-5.6-2c-1.9-1.9-2.6-5.4-1.7-9.4c0.9-4.4,3.8-10.3,9.1-12.5
			c0.5-0.2,2.3-0.9,4.4-0.9c1.9,0,3.5,0.6,4.8,1.6c2.5,2.1,2.9,5.7,2.2,8.2c-0.7,2.6-2.6,4.3-4.8,5.4c0.2,0.3,0.5,0.7,0.5,1.4
			c0.2,1.5-0.6,3.9-2.3,5.6C531.6,653.7,529.1,654.7,526.5,654.7z M531.6,637.8c-0.3,0.1-0.6,0.3-1,0.6
			C531,638.2,531.3,638,531.6,637.8z"/>
		<path id="XMLID_24_" class="st7" d="M542.6,655.1c-2.3,0-4.6-0.8-5.9-2.3c-1.9-2-2.5-5.2-1.8-9c1-4.8,4-8.9,7.6-10.4
			c1.3-0.5,2.8-0.8,4.2-0.8c2.3,0,4.1,0.7,5.3,2.1c2.2,2.5,1.4,6,1.1,7c-0.6,2.1-2,3.7-3.7,4.8c0.3,0.3,0.6,0.8,0.6,1.5
			c0.1,1.4-0.6,3.7-2.2,5.1C546.6,654.4,544.7,655.1,542.6,655.1z"/>
		<path id="XMLID_21_" class="st7" d="M469.4,663c-1.6,0-3.1-0.2-4.6-0.7c-5-1.5-9-5.6-11.3-11.5c-2.5-6.4-1.7-14.5,1.9-21.8
			c-1.5,0.3-2.8,1.1-4,1.8c-1.3,0.8-2.4,1.4-3.6,1.4c-0.7,0-1.3-0.2-1.9-0.6c-1.1-0.9-1.7-2.5-1.6-4.5c0.1-2.4,1.2-5.7,3.9-7.2
			c1-0.6,2.2-0.9,3.5-0.9c2.6,0,5.6,1.2,8.7,2.6c3-3.4,6.5-5.7,10.1-6.9c2-0.6,4-1,5.7-1c2.6,0,4.7,0.8,6,2.3
			c3,3.4,1.6,9.5-1.5,13.1c-1.5,1.7-4.3,3.8-9.3,4.1c-0.3,0-0.5,0-0.8,0c-1.9,0-3.5-0.4-5.3-1c-0.5-0.1-0.9-0.3-1.3-0.4
			c-1.9,6.7-1,13.9,2.2,16.6c1,0.8,2.7,1.7,4.5,1.7c0.4,0,0.8,0,1.1-0.1c0.1,0,2.8-0.7,3.3-2.8c0.3-1,0.1-2.3-0.5-3
			c-0.4-0.5-1-0.7-1.6-1c-0.6-0.2-2.2-0.9-2-2.6c0.2-1.9,2.6-2.8,4.7-2.8c0.6,0,1.2,0.1,1.8,0.2c4.6,1.2,8,7.7,6.9,13.4
			c-0.9,4.8-4.5,7.4-5.7,8.3C476.1,662,472.8,663,469.4,663L469.4,663z M467.5,625.2c1.2,0.6,2,0.9,2.8,0.9c0.2,0,0.4,0,0.6,0
			c1.7-0.2,3.7-1.2,4.2-2.8c0.3-0.8,0.2-1.6,0-1.7c0,0-0.3-0.2-0.8-0.2c-1.2,0-2.7,0.5-3.7,1.1l-0.1,0.1
			C469.4,623.2,468.4,624.1,467.5,625.2z"/>
	</g>
	<path id="XMLID_72_" class="st8" d="M371.5,423.4l2.7,22H587c8.1,0,14.4,7.1,13.4,15.2l-22.2,230c-0.9,8.8-7.5,16-16.2,17.6
		l-25,4.5l35.6,0l0,0h8.5c5.7,0,10.5-4.1,11.2-9.7l35-279.5H371.5z"/>
	<path id="XMLID_63_" class="st3" d="M422,712.6l4,28.6c0.6,4.3,4.6,7.5,9.4,7.5h128.2c4.8,0,8.8-3.2,9.4-7.5l4-28.6H422z"/>
	<path id="XMLID_59_" class="st3" d="M592.3,702.9l35-279.5H371.5l35,279.5c0.7,5.5,5.5,9.7,11.2,9.7h163.5
		C586.9,712.6,591.6,708.5,592.3,702.9z"/>
	<path id="XMLID_108_" class="st1" d="M632.8,423.4c-88.9,0-177.9,0-266.8,0c-8.7,0.1-7.5-4.6-4.5-13.5c1.8-5.3,1.8-11,0-16.2
		c-3-9-4.2-13.6,4.5-13.5c88.9,0,177.9,0,266.8,0c8.7-0.1,7.5,4.6,4.5,13.5c-1.8,5.3-1.8,11,0,16.2
		C640.3,418.8,641.5,423.5,632.8,423.4z"/>
	<g>
		<path class="st9" d="M637.3,393.6c1.9-5.8,3.1-9.8,1.4-11.9c-0.4,1.3-0.9,2.8-1.4,4.4c-1.3,3.8-1.6,7.9-1.1,11.9
			C636.5,396.5,636.8,395.1,637.3,393.6z"/>
		<path class="st9" d="M362.6,398c0.6-4,0.3-8-1.1-11.9c-0.5-1.6-1-3-1.4-4.4c-1.7,2.1-0.6,6.1,1.4,11.9
			C362,395.1,362.4,396.5,362.6,398z"/>
		<path class="st9" d="M638.7,414.2c-1,1.1-2.8,1.7-5.9,1.7c-88.9,0-177.9,0-266.8,0c-3.1,0-4.9-0.5-5.9-1.7
			c-1.7,6.1-1.3,9.2,5.9,9.2c88.9,0,177.9,0,266.8,0C640,423.5,640.4,420.3,638.7,414.2z"/>
	</g>
	<g id="XMLID_68_">
		<path id="XMLID_69_" class="st1" d="M637.3,409.9c-0.2-0.5-0.3-1-0.4-1.5c-1.3,4.7-1.2,9.7,0.3,14.4
			C640.9,421.3,639.6,416.9,637.3,409.9z"/>
		<path id="XMLID_70_" class="st1" d="M362.9,403.5c1-0.4,4.9-10.1,10.9-10.1c88.9,0,164.6,0,253.5,0c7.2,0,8.5,14.6,9.6,15
			c0-0.1,0.4-14.7,0.4-14.8c3-9,4.2-13.6-4.5-13.5c-88.8,0-177.7,0-266.5,0c-9-0.2-7.8,4.5-4.8,13.5
			C361.6,393.8,362.8,403.4,362.9,403.5z"/>
		<path id="XMLID_71_" class="st1" d="M361.7,422.8c1.5-4.7,1.6-9.7,0.3-14.4c-0.1,0.5-0.3,1-0.4,1.5
			C359.2,416.9,357.9,421.3,361.7,422.8z"/>
	</g>
	<path id="XMLID_44_" class="st3" d="M632.8,423.4c-88.9,0-177.9,0-266.8,0c-8.7,0.1-7.5-4.6-4.5-13.5c1.8-5.3,1.8-11,0-16.2
		c-3-9-4.2-13.6,4.5-13.5c88.9,0,177.9,0,266.8,0c8.7-0.1,7.5,4.6,4.5,13.5c-1.8,5.3-1.8,11,0,16.2
		C640.3,418.8,641.5,423.5,632.8,423.4z"/>
	<path id="XMLID_106_" class="st4" d="M625.1,380.1H373.8l2.5-8.8c3.9-14,17.3-23.7,32.6-23.7H590c15.3,0,28.6,9.7,32.6,23.7
		L625.1,380.1z"/>
	<path id="XMLID_66_" class="st4" d="M625.1,380.1H373.8l2.5-8.8c3.9-14,17.3-23.7,32.6-23.7H590c15.3,0,28.6,9.7,32.6,23.7
		L625.1,380.1z"/>
	<path id="XMLID_76_" class="st0" d="M426.5,358l171.5-0.1c12.4,0,20,8.9,23.5,10c-6.1-9.1-19.6-20.3-31.4-20.3H408.8
		c-15.3,0-28.6,9.7-32.6,23.7l-2.5,8.8h21.8C400.8,368.5,412.9,358,426.5,358z"/>
	<path id="XMLID_43_" class="st3" d="M625.1,380.1H373.8l2.5-8.8c3.9-14,17.3-23.7,32.6-23.7H590c15.3,0,28.6,9.7,32.6,23.7
		L625.1,380.1z"/>
	<path id="XMLID_107_" class="st4" d="M575.6,347.6H507v-6.4c0-7.4,6-13.5,13.5-13.5h41.7c7.4,0,13.5,6,13.5,13.5V347.6z"/>
	<path id="XMLID_67_" class="st4" d="M575.6,347.6H507v-6.4c0-7.4,6-13.5,13.5-13.5h41.7c7.4,0,13.5,6,13.5,13.5V347.6z"/>
	<path id="XMLID_78_" class="st0" d="M507.1,347.4c0-7.1,5.7-12.8,12.8-12.8h43c6.5,0,11.9,4.9,12.7,11.2v-5.2
		c0-7.1-5.7-12.8-12.8-12.8h-43c-7.1,0-12.8,5.7-12.8,12.8v7h0.1V347.4z"/>
	<path id="XMLID_32_" class="st8" d="M491.3,582.4c-10.6,0-29.8-7.5-35.9-27.6c-6-16.4-3.4-35.7,6.7-50.2
		c7.4-10.6,17.5-16.6,27.7-16.6c3.1,0,6.2,0.6,9.2,1.7l0.1,0.1l0.1,0.1c2.1,1.2,3.3,2.6,3.7,4.3c0.6,2.9-1.3,5.6-3.8,9
		c-5,6.9-11.8,16.3-5.1,33.8c7.8,20.2,7.8,39.4,3,44C496,581.9,494,582.4,491.3,582.4z"/>
	<path id="XMLID_42_" class="st3" d="M575.6,347.6H507v-6.4c0-7.4,6-13.5,13.5-13.5h41.7c7.4,0,13.5,6,13.5,13.5V347.6z"/>
	<path id="XMLID_31_" class="st8" d="M518.8,582.1c-3.9,0-7.5-1.5-10-4.1c-2.1-2.3-3.2-5.2-3-8.3c0.5-8-2.2-15.6-4.8-23
		c-2.4-6.7-4.7-13.1-4.7-19.7c-0.1-24.4,16.3-32.1,18.3-32.9c1.3-0.8,2.8-1.2,4.4-1.2c6.5,0,14.5,6.4,20.3,16.3
		c3.9,6.6,15.4,30.3,0.3,57.5C534.1,576.5,526.6,582.1,518.8,582.1L518.8,582.1z"/>
	<path id="XMLID_33_" class="st10" d="M499.3,488.5c11.8,6.7-18.1,14.9-6.1,46.1c8.2,21.3,7,38.5,3.5,41.8s-30.9-0.6-38.5-25.2
		C445.8,517.4,472.8,478.6,499.3,488.5z"/>
	<path id="XMLID_27_" class="st10" d="M516.5,492.9c0,0-17.3,6.8-17.2,31.2c0,13.6,10.5,27.3,9.5,42.8c-0.7,10.8,17.8,18,30.1-4.1
		C560.4,523.8,528.4,485.3,516.5,492.9z"/>
	<g id="XMLID_102_">
		<path id="XMLID_39_" class="st10" d="M488.2,630c-4.6,4.4-4.8,13.5-0.7,16.8c0.3,0.2,1.8,1.5,4,1.4c3.8-0.1,6.7-4.3,7.6-7.7
			c1.4-5.4-1.5-12.2-5.5-12.9C491.1,627.2,488.9,629.3,488.2,630z M494.3,639.9c-0.1,0.3-0.7,2.1-2.1,2.3c-0.9,0.1-1.6-0.5-1.7-0.6
			c-1.2-1.1-1.1-3.6,0.1-6.3c0.8-1.2,1.4-1.5,1.8-1.4C493.8,633.9,495.3,637.3,494.3,639.9z"/>
		<path id="XMLID_38_" class="st10" d="M500.4,659.9c-2.1-1.4-0.3-4.6,0.9-31.8c0.3-7.5,1.9-14.3,5.8-17c0.8-0.5,3-2.1,5.7-1.7
			c0.6,0.1,1.9,0.3,2.9,1.4c1.9,1.9,1.3,4.8,1.2,5c-0.6-0.3-1.7-0.8-3.1-0.6c0,0-1.6,0.3-3.1,1.9c-3.8,4.1-3.4,21.3-3.4,21.3
			c0.4,14.3,1.1,19.3-1.7,21.3C504.3,660.8,502,660.9,500.4,659.9z"/>
		<path id="XMLID_37_" class="st10" d="M511.8,659.6c-1.8-1.2-0.3-4,0.8-27.5c0.3-6.5,1.7-12.4,5-14.7c0.7-0.5,2.6-1.8,4.9-1.4
			c0.5,0.1,1.6,0.3,2.6,1.2c1.6,1.6,1.1,4.1,1,4.4c-0.5-0.3-1.5-0.7-2.7-0.5c0,0-1.4,0.2-2.7,1.6c-3.3,3.6-2.9,18.4-2.9,18.4
			c0.3,12.4,0.9,16.7-1.5,18.4C515.1,660.4,513.2,660.5,511.8,659.6z"/>
		<path id="XMLID_36_" class="st10" d="M528.6,646.4c-0.9,0.2-2.1,0.2-3-0.4c-2.1-1.5-1.4-6.8,1.2-9.9c0.4-0.4,2.7-3,4.8-2.3
			c0.6,0.2,1.4,0.8,1.4,1.5c0.1,1.7-3.4,3.6-6.5,3.8c-1.7,0.1-3.1-0.3-3.9-0.6c-0.9,1.3-0.8,2.1-0.7,2.4c0.6,1.9,4.9,1.8,5.5,1.7
			c0.4,0,7.9-0.5,9.3-5.6c0.5-1.9,0.2-4.6-1.6-6.2c-2.6-2.2-6.6-0.7-7.1-0.4c-7.1,2.8-10.3,15-6.7,18.6c2.1,2.1,7,1.8,9.4-0.5
			c1.6-1.6,2-4.1,1.5-4.4C531.9,644.1,530.9,645.9,528.6,646.4z"/>
		<path id="XMLID_35_" class="st10" d="M543.7,647.7c-0.8,0.2-1.9,0.2-2.6-0.3c-1.9-1.4-1.1-6.1,1.1-8.8c0.3-0.4,2-2.5,3.4-2
			c0.7,0.2,1.2,1,1.2,1.7c-0.1,1.6-2.8,2.8-4.8,3c-1.5,0.2-2.8-0.2-3.5-0.5c-0.8,1.1-0.7,1.9-0.6,2.1c0.5,1.5,3.4,1.7,4.9,1.5
			c2.6-0.2,6.5-1.8,7.5-5.3c0.1-0.4,0.9-3.3-0.7-5.1c-1.8-2-5.2-1.6-7.3-0.8c-5.9,2.4-8.6,12.7-5.2,16.2c2,2,6.4,2.2,8.5,0.3
			c1.5-1.3,1.8-3.6,1.4-3.9C546.6,645.6,545.7,647.2,543.7,647.7z"/>
		<path id="XMLID_34_" class="st10" d="M531.6,620.4c-0.1,1.3-0.5,2.9-1.7,4.1c-6.9,6.6-30.7-11.9-37.4-5.3
			c-1.5,1.4-2.7,4.6-1.9,5.5c0.4,0.4,1.1,0.2,2.9,0c1.6-0.2,3.3-0.1,4.9-0.3c4-0.4,10.1,2,16.4,3.4c1.6,0.3,14.2,2.9,17.2-0.9
			c0.4-0.5,2.3-3,1.5-4.6l0,0C532.8,621.6,532.2,621,531.6,620.4z"/>
		<path id="XMLID_25_" class="st10" d="M461.6,622.9c4.3,2.1,5.7,3.5,8.5,3.2c2.2-0.3,5.1-1.6,5.9-4.2c0.3-1,0.5-2.8-0.4-3.7
			c-1.4-1.5-4.9-0.5-6.9,0.5c0,0-0.1,0.1-0.2,0.1c-8.7,4.7-11.4,23.5-4.4,29.4c1.8,1.5,4.6,2.7,7.4,2c0.4-0.1,3.9-1,4.8-4.2
			c0.4-1.6,0.1-3.5-0.9-4.8c-1.3-1.5-3.2-1.6-3.1-2.1c0-0.5,2.1-1.3,4-0.8c3.6,0.9,6.3,6.4,5.4,11.1c-0.8,4-3.9,6.3-4.9,7
			c-3.6,2.6-8.3,3.2-12.3,2c-6.8-2.1-9.4-8.9-10-10.3c-4.9-12.6,4.3-29.8,15.8-33.4c0.8-0.3,7-2.2,9.6,0.7c2.2,2.5,1,7.6-1.5,10.4
			c-2.8,3.2-6.8,3.4-7.9,3.5c-2,0.1-3.5-0.3-5.5-0.9c-5.1-1.4-5.4-3-8.2-3.5c-5.4-0.8-8.8,4.4-10.6,3.1c-1.6-1.2-0.9-6.7,2.1-8.4
			C451.2,617.9,456,620.2,461.6,622.9z"/>
	</g>
	<path id="XMLID_125_" class="st3" d="M576.7,202.4c-7.8,10.9-16.4,13.6-23,26.3c-1.8,3.5-7.1,13.7-5.5,26
		c2.1,16.2,14.3,20.4,15.5,35c0.5,6.6-1.3,14.6-8,24"/>
	<path id="XMLID_62_" class="st3" d="M601.7,151.1c6.1,25.3,1.7,40.9-3.5,50.5c-9.5,17.5-26.8,24.3-28,41.9
		c-0.6,8.3,2.7,15.3,5.4,19.7"/>
	<path id="XMLID_6_" class="st3" d="M544.4,211.1c0,0-12,14-12,26.7"/>
</g>
</svg>
