<?xml version="1.0" encoding="utf-8"?>
<!-- Generator: Adobe Illustrator 23.1.1, SVG Export Plug-In . SVG Version: 6.00 Build 0)  -->
<svg version="1.1" id="Layer_1" xmlns="http://www.w3.org/2000/svg" xmlns:xlink="http://www.w3.org/1999/xlink" x="0px" y="0px"
	 viewBox="0 0 1000 1000" style="enable-background:new 0 0 1000 1000;" xml:space="preserve">
<style type="text/css">
	.st0{fill:#1478C9;}
	.st1{fill:#EEF2F4;}
	
		.st2{opacity:0.5;fill:#232323;stroke:#232323;stroke-width:8;stroke-linecap:round;stroke-linejoin:round;stroke-miterlimit:10;enable-background:new    ;}
	.st3{fill:#43597A;}
	.st4{opacity:0.7;fill:#6A87AD;}
	.st5{fill:#394E6B;}
	.st6{fill:none;stroke:#202454;stroke-width:8;stroke-linecap:round;stroke-linejoin:round;stroke-miterlimit:10;}
	.st7{fill:#2F3F56;}
	.st8{fill:none;stroke:#283356;stroke-linecap:round;stroke-linejoin:round;stroke-miterlimit:10;}
	.st9{opacity:0.8;}
	.st10{opacity:0.8;fill:#B4C7E7;enable-background:new    ;}
	.st11{fill:none;stroke:#22293F;stroke-width:6;stroke-linecap:round;stroke-linejoin:round;stroke-miterlimit:10;}
	.st12{fill:none;stroke:#202454;stroke-width:5;stroke-linecap:round;stroke-linejoin:round;stroke-miterlimit:10;}
	.st13{fill:none;stroke:#707A99;stroke-width:3;stroke-linecap:round;stroke-linejoin:round;stroke-miterlimit:10;}
	.st14{opacity:0.4;}
	.st15{fill:#232323;stroke:#232323;stroke-width:8.0001;stroke-linecap:round;stroke-linejoin:round;stroke-miterlimit:10.0001;}
	.st16{fill:#232323;stroke:#232323;stroke-width:8;stroke-linecap:round;stroke-linejoin:round;stroke-miterlimit:10;}
	.st17{fill:none;stroke:#232323;stroke-width:8;stroke-linecap:round;stroke-linejoin:round;stroke-miterlimit:10;}
	.st18{opacity:0.5;fill:#6A87AD;}
	.st19{fill:none;stroke:#202454;stroke-width:8.0001;stroke-linecap:round;stroke-linejoin:round;stroke-miterlimit:10.0001;}
	.st20{fill:#6A87AD;}
	.st21{fill:#334665;}
	.st22{opacity:0.4;fill:#43597A;enable-background:new    ;}
	.st23{fill:#81A0C1;}
	.st24{fill:#E2E9F2;}
</style>
<rect id="XMLID_72_" class="st0" width="1000" height="1000"/>
<g>
	<g>
		<g>
			<path class="st1" d="M63.2,959.2c0,2.5-1.2,3.7-2.6,3.7c-1.1,0-1.9-0.5-2.1-1.4c-0.4,0.5-1,0.8-1.8,0.8c-1.5,0-2.6-1.2-2.6-2.8
				s1.1-2.8,2.6-2.8c0.7,0,1.2,0.3,1.6,0.7v-0.5h1.6v3.9c0,0.8,0.3,1.4,1,1.4c0.9,0,1.7-0.9,1.7-3c0-3-2.3-5.3-5.4-5.3
				c-3.1,0-5.6,2.4-5.6,5.7s2.5,5.7,5.9,5.7c1.1,0,2.1-0.2,2.9-0.4v0.6c-0.8,0.3-1.7,0.4-2.9,0.4c-3.7,0-6.5-2.6-6.5-6.2
				c0-3.4,2.7-6.2,6.2-6.2C61.1,953.3,63.2,956.4,63.2,959.2z M58.3,959.5c0-0.8-0.6-1.4-1.3-1.4c-0.8,0-1.3,0.5-1.3,1.4
				c0,0.8,0.6,1.3,1.3,1.3C57.8,960.9,58.3,960.3,58.3,959.5z"/>
		</g>
		<g>
			<path class="st1" d="M69.4,955.1v2c-1.2-0.1-2.6,0.5-2.6,2.4v4.3h-1.9v-8.6h1.9v1.4C67.3,955.5,68.3,955.1,69.4,955.1z"/>
		</g>
		<g>
			<path class="st1" d="M74.6,962.3c1,0,1.8-0.5,2.2-1.1l1.5,0.9c-0.8,1.2-2.1,1.9-3.8,1.9c-2.8,0-4.7-1.9-4.7-4.5
				c0-2.5,1.8-4.5,4.5-4.5c2.6,0,4.3,2.1,4.3,4.5c0,0.3,0,0.5-0.1,0.8h-6.8C72.1,961.6,73.2,962.3,74.6,962.3z M76.9,958.8
				c-0.3-1.5-1.3-2.1-2.5-2.1c-1.4,0-2.3,0.8-2.6,2.1H76.9z"/>
		</g>
		<g>
			<path class="st1" d="M88.9,955.2v8.6H87v-1.2c-0.7,0.9-1.7,1.5-3,1.5c-2.3,0-4.3-2-4.3-4.5c0-2.6,1.9-4.5,4.3-4.5
				c1.3,0,2.3,0.5,3,1.4v-1.2L88.9,955.2L88.9,955.2z M87.1,959.5c0-1.6-1.2-2.7-2.7-2.7s-2.7,1.1-2.7,2.7c0,1.6,1.2,2.7,2.7,2.7
				C85.9,962.3,87.1,961.1,87.1,959.5z"/>
		</g>
		<g>
			<path class="st1" d="M91.1,951.3H93v12.5h-1.9V951.3z"/>
		</g>
		<g>
			<path class="st1" d="M102.9,955.2l-3.3,8.6h-2.1l-3.3-8.6h2l2.4,6.5l2.4-6.5H102.9z"/>
		</g>
		<g>
			<path class="st1" d="M104.2,955.2h1.9v8.9c0,2.4-1.2,3.5-3.5,3.3v-1.8c1.1,0.1,1.7-0.3,1.7-1.5L104.2,955.2L104.2,955.2z
				 M104,952.8c0-0.7,0.5-1.2,1.2-1.2s1.2,0.5,1.2,1.2c0,0.6-0.5,1.2-1.2,1.2S104,953.4,104,952.8z"/>
		</g>
		<g>
			<path class="st1" d="M116,955.2l-3.3,8.8c-0.8,2.2-2.2,3.3-4.2,3.2v-1.7c1.2,0.1,1.9-0.5,2.3-1.7l0.1-0.2l-3.6-8.4h2l2.6,6.2
				l2.2-6.2L116,955.2L116,955.2z"/>
		</g>
	</g>
	<g>
		<path class="st1" d="M211.9,938.7c0,2.1-1.5,3.8-3.6,3.8h-3v-7.6h3C210.4,934.9,211.9,936.6,211.9,938.7z M210.9,938.7
			c0-1.6-1.1-2.9-2.6-2.9h-2v5.7h2C209.8,941.6,210.9,940.3,210.9,938.7z"/>
		<path class="st1" d="M219.5,940.8h-3.4l-0.6,1.7h-1.1l2.8-7.6h1.1l2.8,7.6H220L219.5,940.8z M219.2,939.9l-1.4-3.8l-1.4,3.8H219.2
			z"/>
		<path class="st1" d="M226.4,939.4v3.1h-1v-3.1l-2.7-4.5h1.1l2.1,3.6l2.1-3.6h1.1L226.4,939.4z"/>
		<path class="st1" d="M241.5,934.9v0.9l-2.8,6.7h-1.1l2.8-6.7h-3.7v-1L241.5,934.9L241.5,934.9z"/>
		<path class="st1" d="M244.4,938.7c0-2.4,1.1-4,2.9-4c1.9,0,2.9,1.6,2.9,4s-1,4-2.9,4C245.5,942.7,244.4,941,244.4,938.7z
			 M249.3,938.7c0-1.9-0.7-3-1.9-3s-1.9,1.1-1.9,3s0.7,3,1.9,3S249.3,940.6,249.3,938.7z"/>
	</g>
	<g>
		<path class="st1" d="M58.9,938.7c0,2.1-1.5,3.8-3.6,3.8h-3v-7.6h3C57.4,934.9,58.9,936.6,58.9,938.7z M57.9,938.7
			c0-1.6-1.1-2.9-2.6-2.9h-2v5.7h2C56.8,941.6,57.9,940.3,57.9,938.7z"/>
		<path class="st1" d="M67,941.6v1h-4.6V935h4.5v1h-3.5v2.3h3.2v0.9h-3.2v2.4L67,941.6L67,941.6z"/>
		<path class="st1" d="M70,940.8l0.9-0.5c0.3,0.8,0.9,1.4,2,1.4s1.6-0.5,1.6-1.2c0-0.8-0.7-1-1.8-1.4c-1.2-0.4-2.4-0.8-2.4-2.2
			s1.1-2.2,2.4-2.2s2.2,0.7,2.6,1.7l-0.8,0.5c-0.3-0.7-0.8-1.2-1.7-1.2c-0.8,0-1.4,0.4-1.4,1.1c0,0.7,0.5,1,1.6,1.3
			c1.3,0.4,2.6,0.8,2.6,2.3c0,1.3-1.1,2.2-2.6,2.2C71.5,942.7,70.4,941.9,70,940.8z"/>
		<path class="st1" d="M80,934.9v7.6h-1v-7.6H80z"/>
		<path class="st1" d="M91.3,939.2c0,1.9-1.4,3.5-3.7,3.5c-2.4,0-4-1.8-4-4s1.7-4,4-4c1.4,0,2.7,0.8,3.3,1.8L90,937
			c-0.4-0.8-1.4-1.4-2.4-1.4c-1.8,0-3,1.3-3,3s1.2,3,3,3c1.6,0,2.5-0.9,2.7-2h-2.8v-0.9h3.8V939.2z"/>
		<path class="st1" d="M100.6,934.9v7.6h-0.8l-3.9-5.7v5.7h-1v-7.6h0.8l3.9,5.7v-5.7H100.6z"/>
		<path class="st1" d="M109.1,941.6v1h-4.6V935h4.5v1h-3.5v2.3h3.2v0.9h-3.2v2.4L109.1,941.6L109.1,941.6z"/>
		<path class="st1" d="M119.2,938.7c0,2.1-1.5,3.8-3.6,3.8h-3v-7.6h3C117.6,934.9,119.2,936.6,119.2,938.7z M118.2,938.7
			c0-1.6-1.1-2.9-2.6-2.9h-2v5.7h2C117.1,941.6,118.2,940.3,118.2,938.7z"/>
		<path class="st1" d="M133.2,940.4c0,1.2-1,2.2-2.2,2.2h-3.3V935h3c1.2,0,2.1,0.9,2.1,2.1c0,0.7-0.3,1.2-0.8,1.6
			C132.7,938.9,133.2,939.5,133.2,940.4z M128.7,935.8v2.3h2c0.6,0,1.1-0.5,1.1-1.2c0-0.6-0.5-1.2-1.1-1.2h-2V935.8z M132.2,940.3
			c0-0.7-0.5-1.2-1.2-1.2h-2.3v2.5h2.3C131.7,941.6,132.2,941,132.2,940.3z"/>
		<path class="st1" d="M139.4,939.4v3.1h-1v-3.1l-2.7-4.5h1.1l2.1,3.6l2.1-3.6h1.1L139.4,939.4z"/>
	</g>
	<g>
		<path class="st1" d="M216.2,958.1c0,3.5-2.5,6.2-5.9,6.2h-4.9v-12.4h4.9C213.7,951.9,216.2,954.6,216.2,958.1z M214.3,958.1
			c0-2.5-1.6-4.2-4-4.2h-2.8v8.5h2.8C212.7,962.3,214.3,960.5,214.3,958.1z"/>
		<path class="st1" d="M222.3,962.8c1.1,0,1.9-0.5,2.3-1.1l1.6,0.9c-0.8,1.2-2.1,1.9-3.9,1.9c-2.9,0-4.8-2-4.8-4.7
			c0-2.6,1.9-4.7,4.7-4.7c2.6,0,4.4,2.1,4.4,4.7c0,0.3,0,0.5-0.1,0.8h-7C219.8,962.1,220.9,962.8,222.3,962.8z M224.7,959.1
			c-0.3-1.5-1.4-2.2-2.5-2.2c-1.4,0-2.4,0.8-2.7,2.2H224.7z"/>
		<path class="st1" d="M234.4,961.8c0,1.8-1.5,2.7-3.5,2.7c-1.8,0-3-0.8-3.6-2.1l1.6-1c0.3,0.8,1,1.3,2,1.3c0.8,0,1.5-0.3,1.5-1
			c0-1.6-4.8-0.7-4.8-3.9c0-1.7,1.4-2.7,3.2-2.7c1.5,0,2.7,0.7,3.3,1.8l-1.6,0.9c-0.3-0.7-0.9-1-1.7-1c-0.7,0-1.3,0.3-1.3,0.9
			C229.7,959.5,234.4,958.5,234.4,961.8z"/>
		<path class="st1" d="M235.7,952.9c0-0.7,0.5-1.2,1.2-1.2s1.2,0.5,1.2,1.2s-0.5,1.2-1.2,1.2C236.3,954.1,235.7,953.6,235.7,952.9z
			 M236,955.4h1.9v8.9H236V955.4z"/>
		<path class="st1" d="M249,955.4v8.4c0,2.8-2.2,4.2-4.5,4.2c-1.9,0-3.5-0.7-4.2-2.1l1.6-1c0.4,0.8,1,1.4,2.6,1.4s2.6-0.9,2.6-2.4
			v-1.1c-0.7,1-1.7,1.5-3.1,1.5c-2.5,0-4.5-2-4.5-4.6s2-4.6,4.5-4.6c1.4,0,2.4,0.6,3.1,1.5v-1.3L249,955.4L249,955.4z M247.2,959.8
			c0-1.6-1.2-2.8-2.8-2.8s-2.8,1.2-2.8,2.8s1.2,2.8,2.8,2.8S247.2,961.4,247.2,959.8z"/>
		<path class="st1" d="M259.3,958.9v5.4h-1.9v-5.2c0-1.3-0.8-2.1-2-2.1c-1.3,0-2.2,0.7-2.2,2.5v4.7h-1.9v-8.9h1.9v1.1
			c0.6-0.9,1.5-1.4,2.7-1.4C257.9,955.2,259.3,956.6,259.3,958.9z"/>
		<path class="st1" d="M265.7,962.8c1.1,0,1.9-0.5,2.3-1.1l1.6,0.9c-0.8,1.2-2.1,1.9-3.9,1.9c-2.9,0-4.8-2-4.8-4.7
			c0-2.6,1.9-4.7,4.7-4.7c2.6,0,4.4,2.1,4.4,4.7c0,0.3,0,0.5-0.1,0.8h-7C263.2,962.1,264.3,962.8,265.7,962.8z M268.1,959.1
			c-0.3-1.5-1.4-2.2-2.5-2.2c-1.4,0-2.4,0.8-2.7,2.2H268.1z"/>
		<path class="st1" d="M276.3,955.3v2.1c-1.3-0.1-2.7,0.5-2.7,2.5v4.5h-1.9v-8.9h1.9v1.5C274.1,955.7,275.2,955.3,276.3,955.3z"/>
		<path class="st1" d="M290.4,953.9h-3.5v10.4h-2v-10.4h-3.5V952h9V953.9z"/>
		<path class="st1" d="M289.7,959.9c0-2.6,2.1-4.7,4.7-4.7s4.7,2,4.7,4.7c0,2.6-2.1,4.7-4.7,4.7
			C291.7,964.5,289.7,962.5,289.7,959.9z M297.1,959.9c0-1.6-1.2-2.8-2.8-2.8s-2.8,1.2-2.8,2.8s1.2,2.8,2.8,2.8
			S297.1,961.5,297.1,959.9z"/>
		<path class="st1" d="M300.2,959.9c0-2.6,2.1-4.7,4.7-4.7s4.7,2,4.7,4.7c0,2.6-2.1,4.7-4.7,4.7
			C302.3,964.5,300.2,962.5,300.2,959.9z M307.7,959.9c0-1.6-1.2-2.8-2.8-2.8s-2.8,1.2-2.8,2.8s1.2,2.8,2.8,2.8
			S307.7,961.5,307.7,959.9z"/>
		<path class="st1" d="M311.3,951.4h1.9v12.9h-1.9V951.4z"/>
		<path class="st1" d="M320,958h6.5v1.8H320V958z"/>
		<path class="st1" d="M332.6,951.9h2.1l2.6,9.7l2.8-9.7h1.9l2.8,9.7l2.6-9.7h2.1l-3.5,12.4h-2.4l-2.6-9l-2.6,9H336L332.6,951.9z"/>
		<path class="st1" d="M358.9,955.4v8.9H357V963c-0.7,0.9-1.7,1.5-3.1,1.5c-2.4,0-4.4-2-4.4-4.7c0-2.6,2-4.7,4.4-4.7
			c1.4,0,2.4,0.6,3.1,1.5v-1.3h1.9V955.4z M357,959.9c0-1.6-1.2-2.8-2.8-2.8c-1.6,0-2.8,1.2-2.8,2.8s1.2,2.8,2.8,2.8
			S357,961.5,357,959.9z"/>
		<path class="st1" d="M360.6,959.9c0-2.6,2-4.7,4.7-4.7c1.7,0,3.2,0.9,3.9,2.3l-1.6,1c-0.4-0.8-1.3-1.4-2.3-1.4
			c-1.6,0-2.7,1.2-2.7,2.8s1.2,2.8,2.7,2.8c1.1,0,1.9-0.5,2.4-1.4l1.6,0.9c-0.7,1.4-2.2,2.3-4,2.3
			C362.6,964.5,360.6,962.5,360.6,959.9z"/>
		<path class="st1" d="M370,959.9c0-2.6,2.1-4.7,4.7-4.7s4.7,2,4.7,4.7c0,2.6-2.1,4.7-4.7,4.7C372.1,964.5,370,962.5,370,959.9z
			 M377.5,959.9c0-1.6-1.2-2.8-2.8-2.8s-2.8,1.2-2.8,2.8s1.2,2.8,2.8,2.8S377.5,961.5,377.5,959.9z"/>
		<path class="st1" d="M394.1,958.8v5.5h-1.9v-5.4c0-1.2-0.7-1.9-1.7-1.9c-1.1,0-1.9,0.7-1.9,2.3v5h-1.9v-5.4c0-1.2-0.6-1.9-1.7-1.9
			s-2,0.7-2,2.3v5h-1.9v-8.9h1.9v1.1c0.6-0.9,1.4-1.3,2.5-1.3c1.2,0,2,0.5,2.5,1.4c0.6-0.9,1.5-1.4,2.7-1.4
			C392.8,955.2,394.1,956.6,394.1,958.8z"/>
	</g>
	<g>
		<g>
			<g>
				<path class="st1" d="M846.1,938.7c0,2.1-1.5,3.8-3.6,3.8h-3v-7.6h3C844.6,934.9,846.1,936.6,846.1,938.7z M845.2,938.7
					c0-1.6-1.1-2.9-2.6-2.9h-2v5.7h2C844.1,941.6,845.2,940.3,845.2,938.7z"/>
			</g>
			<g>
				<path class="st1" d="M849.3,938.7c0-2.2,1.7-4,3.9-4s4,1.8,4,4s-1.7,4-4,4C851,942.7,849.3,940.9,849.3,938.7z M856.1,938.7
					c0-1.7-1.3-3-2.9-3c-1.7,0-2.9,1.3-2.9,3s1.3,3,2.9,3C854.9,941.7,856.1,940.4,856.1,938.7z"/>
			</g>
			<g>
				<path class="st1" d="M859.8,934.9h1.1l1.7,6.3l1.9-6.3h1l1.9,6.3l1.7-6.3h1.1l-2.2,7.6h-1.2l-1.8-6.1l-1.8,6.1H862L859.8,934.9z
					"/>
			</g>
			<g>
				<path class="st1" d="M879.3,934.9v7.6h-0.8l-3.9-5.7v5.7h-1v-7.6h0.8l3.9,5.7v-5.7H879.3z"/>
			</g>
			<g>
				<path class="st1" d="M887.5,941.6v1h-4.3V935h1v6.7h3.3V941.6z"/>
			</g>
			<g>
				<path class="st1" d="M889.9,938.7c0-2.2,1.7-4,3.9-4s4,1.8,4,4s-1.7,4-4,4C891.6,942.7,889.9,940.9,889.9,938.7z M896.8,938.7
					c0-1.7-1.3-3-2.9-3c-1.7,0-2.9,1.3-2.9,3s1.3,3,2.9,3S896.8,940.4,896.8,938.7z"/>
			</g>
			<g>
				<path class="st1" d="M905.4,940.8H902l-0.6,1.7h-1.1l2.8-7.6h1.1l2.8,7.6h-1L905.4,940.8z M905.1,939.9l-1.4-3.8l-1.4,3.8H905.1
					z"/>
			</g>
			<g>
				<path class="st1" d="M916.9,938.7c0,2.1-1.5,3.8-3.6,3.8h-3v-7.6h3C915.4,934.9,916.9,936.6,916.9,938.7z M915.9,938.7
					c0-1.6-1.1-2.9-2.6-2.9h-2v5.7h2C914.9,941.6,915.9,940.3,915.9,938.7z"/>
			</g>
			<g>
				<path class="st1" d="M926.5,935.8v2.5h3.2v1h-3.2v3.2h-1v-7.6h4.4v1h-3.4V935.8z"/>
			</g>
			<g>
				<path class="st1" d="M936.2,939.6h-1.8v2.9h-1v-7.6h3c1.3,0,2.4,1.1,2.4,2.4c0,1-0.7,1.9-1.6,2.2l1.8,3.1h-1.1L936.2,939.6z
					 M934.4,938.7h2c0.8,0,1.4-0.6,1.4-1.4c0-0.8-0.6-1.4-1.4-1.4h-2V938.7z"/>
			</g>
			<g>
				<path class="st1" d="M941.9,938.7c0-2.2,1.7-4,3.9-4s4,1.8,4,4s-1.7,4-4,4C943.6,942.7,941.9,940.9,941.9,938.7z M948.8,938.7
					c0-1.7-1.3-3-2.9-3c-1.7,0-2.9,1.3-2.9,3s1.3,3,2.9,3S948.8,940.4,948.8,938.7z"/>
			</g>
			<g>
				<path class="st1" d="M960.4,942.5h-1v-6l-2.5,4.2h-0.1l-2.5-4.1v5.9h-1v-7.6h1.1l2.4,4l2.4-4h1.1L960.4,942.5L960.4,942.5z"/>
			</g>
		</g>
		<g>
			<g>
				<path class="st1" d="M839.3,952.9c0-0.7,0.5-1.2,1.2-1.2s1.2,0.5,1.2,1.2s-0.5,1.2-1.2,1.2C839.9,954.1,839.3,953.6,839.3,952.9
					z M839.6,955.4h1.9v8.9h-1.9V955.4z"/>
			</g>
			<g>
				<path class="st1" d="M843.7,951.4h1.9v12.9h-1.9V951.4z"/>
			</g>
			<g>
				<path class="st1" d="M847.8,951.4h1.9v12.9h-1.9V951.4z"/>
			</g>
			<g>
				<path class="st1" d="M852,951.4h1.9v12.9H852V951.4z"/>
			</g>
			<g>
				<path class="st1" d="M864,955.4v8.9h-1.9v-1.1c-0.6,0.9-1.5,1.4-2.7,1.4c-2,0-3.4-1.3-3.4-3.6v-5.4h1.9v5.2c0,1.3,0.8,2.1,2,2.1
					c1.3,0,2.2-0.7,2.2-2.5v-4.7h1.9V955.4z"/>
			</g>
			<g>
				<path class="st1" d="M872.6,961.8c0,1.8-1.5,2.7-3.5,2.7c-1.8,0-3-0.8-3.6-2.1l1.6-1c0.3,0.8,1,1.3,2,1.3c0.8,0,1.5-0.3,1.5-1
					c0-1.6-4.8-0.7-4.8-3.9c0-1.7,1.4-2.7,3.2-2.7c1.5,0,2.7,0.7,3.3,1.8l-1.6,0.9c-0.3-0.7-0.9-1-1.7-1c-0.7,0-1.3,0.3-1.3,0.9
					C867.9,959.5,872.6,958.5,872.6,961.8z"/>
			</g>
			<g>
				<path class="st1" d="M876.7,957.3v4.2c0,1.1,0.7,1.1,2.2,1v1.7c-2.9,0.4-4.1-0.5-4.1-2.8v-4.2h-1.6v-1.8h1.6v-1.9l1.9-0.6v2.5
					h2.2v1.8L876.7,957.3L876.7,957.3z"/>
			</g>
			<g>
				<path class="st1" d="M885.4,955.3v2.1c-1.3-0.1-2.7,0.5-2.7,2.5v4.5h-1.9v-8.9h1.9v1.5C883.2,955.7,884.2,955.3,885.4,955.3z"/>
			</g>
			<g>
				<path class="st1" d="M895.3,955.4v8.9h-1.9V963c-0.7,0.9-1.7,1.5-3.1,1.5c-2.4,0-4.4-2-4.4-4.7c0-2.6,2-4.7,4.4-4.7
					c1.4,0,2.4,0.6,3.1,1.5v-1.3h1.9V955.4z M893.4,959.9c0-1.6-1.2-2.8-2.8-2.8s-2.8,1.2-2.8,2.8s1.2,2.8,2.8,2.8
					S893.4,961.5,893.4,959.9z"/>
			</g>
			<g>
				<path class="st1" d="M900.3,957.3v4.2c0,1.1,0.7,1.1,2.2,1v1.7c-2.9,0.4-4.1-0.5-4.1-2.8v-4.2h-1.6v-1.8h1.6v-1.9l1.9-0.6v2.5
					h2.2v1.8L900.3,957.3L900.3,957.3z"/>
			</g>
			<g>
				<path class="st1" d="M903.9,952.9c0-0.7,0.5-1.2,1.2-1.2s1.2,0.5,1.2,1.2s-0.5,1.2-1.2,1.2C904.5,954.1,903.9,953.6,903.9,952.9
					z M904.2,955.4h1.9v8.9h-1.9V955.4z"/>
			</g>
			<g>
				<path class="st1" d="M907.8,959.9c0-2.6,2.1-4.7,4.7-4.7c2.6,0,4.7,2,4.7,4.7c0,2.6-2.1,4.7-4.7,4.7
					C909.9,964.5,907.8,962.5,907.8,959.9z M915.3,959.9c0-1.6-1.2-2.8-2.8-2.8s-2.8,1.2-2.8,2.8s1.2,2.8,2.8,2.8
					S915.3,961.5,915.3,959.9z"/>
			</g>
			<g>
				<path class="st1" d="M927,958.9v5.4h-1.9v-5.2c0-1.3-0.8-2.1-2-2.1c-1.3,0-2.2,0.7-2.2,2.5v4.7H919v-8.9h1.9v1.1
					c0.6-0.9,1.5-1.4,2.7-1.4C925.5,955.2,927,956.6,927,958.9z"/>
			</g>
			<g>
				<path class="st1" d="M935.5,961.8c0,1.8-1.5,2.7-3.5,2.7c-1.8,0-3-0.8-3.6-2.1l1.6-1c0.3,0.8,1,1.3,2,1.3c0.8,0,1.5-0.3,1.5-1
					c0-1.6-4.8-0.7-4.8-3.9c0-1.7,1.4-2.7,3.2-2.7c1.5,0,2.7,0.7,3.3,1.8l-1.6,0.9c-0.3-0.7-0.9-1-1.7-1c-0.7,0-1.3,0.3-1.3,0.9
					C930.7,959.5,935.5,958.5,935.5,961.8z"/>
			</g>
			<g>
				<path class="st1" d="M936.8,963.2c0-0.7,0.6-1.3,1.3-1.3s1.3,0.6,1.3,1.3s-0.6,1.3-1.3,1.3C937.4,964.5,936.8,963.9,936.8,963.2
					z"/>
			</g>
			<g>
				<path class="st1" d="M940.3,959.9c0-2.6,2-4.7,4.7-4.7c1.7,0,3.2,0.9,3.9,2.3l-1.6,1c-0.4-0.8-1.3-1.4-2.3-1.4
					c-1.6,0-2.7,1.2-2.7,2.8s1.2,2.8,2.7,2.8c1.1,0,1.9-0.5,2.4-1.4l1.6,0.9c-0.7,1.4-2.2,2.3-4,2.3
					C942.3,964.5,940.3,962.5,940.3,959.9z"/>
			</g>
			<g>
				<path class="st1" d="M949.7,959.9c0-2.6,2.1-4.7,4.7-4.7c2.6,0,4.7,2,4.7,4.7c0,2.6-2.1,4.7-4.7,4.7
					C951.8,964.5,949.7,962.5,949.7,959.9z M957.2,959.9c0-1.6-1.2-2.8-2.8-2.8s-2.8,1.2-2.8,2.8s1.2,2.8,2.8,2.8
					S957.2,961.5,957.2,959.9z"/>
			</g>
		</g>
	</g>
</g>
<path id="XMLID_276_" class="st2" d="M765,498.6l-456.9,279c-14.1,8.6-32.6,4.2-41.2-10L109.3,509.5c-8.6-14.1-4.2-32.6,10-41.2
	l456.9-278.9c14.1-8.6,32.6-4.2,41.2,10L775,457.5C783.6,471.5,779.1,490,765,498.6z"/>
<g>
	<path id="XMLID_74_" class="st3" d="M767.7,477L310.8,755.9c-14.1,8.6-32.6,4.2-41.2-10L112,487.9c-8.6-14.1-4.2-32.6,10-41.2
		l456.9-278.9c14.1-8.6,32.6-4.2,41.2,10l157.6,258.1C786.3,449.9,781.9,468.4,767.7,477z"/>
	<path id="XMLID_148_" class="st4" d="M571.4,172.3l-9.9,6.1c18.3-11.2,42.2-5.4,53.4,12.9l148.4,243c11.2,18.3,5.4,42.2-12.9,53.4
		l9.9-6.1c18.3-11.2,24.1-35.1,12.9-53.4l-148.4-243C613.6,166.9,589.7,161.2,571.4,172.3z"/>
	<path id="XMLID_147_" class="st5" d="M277.7,730.7l-148.4-243c-11.2-18.3-5.4-42.2,12.9-53.4l-14.9,9.1
		c-18.3,11.2-24.1,35.1-12.9,53.4l148.4,243c11.2,18.3,35.1,24.1,53.4,12.9l14.9-9.1C312.8,754.8,288.9,749,277.7,730.7z"/>
	<path id="XMLID_1_" class="st6" d="M767.7,477L310.8,755.9c-14.1,8.6-32.6,4.2-41.2-10L112,487.9c-8.6-14.1-4.2-32.6,10-41.2
		l456.9-278.9c14.1-8.6,32.6-4.2,41.2,10l157.6,258.1C786.3,449.9,781.9,468.4,767.7,477z"/>
	<path id="XMLID_234_" class="st7" d="M746.1,462.9L388,681.5c-8.5,5.2-19.6,2.5-24.7-6L217.5,436.8c-5.2-8.5-2.5-19.6,6-24.7
		l358.1-218.6c8.5-5.2,19.6-2.5,24.7,6l145.8,238.8C757.3,446.7,754.6,457.7,746.1,462.9z"/>
	<g id="XMLID_21_">
		<line id="XMLID_56_" class="st8" x1="270" y1="383.6" x2="434.5" y2="653.1"/>
		<line id="XMLID_58_" class="st8" x1="323" y1="351.3" x2="487.5" y2="620.8"/>
		<line id="XMLID_59_" class="st8" x1="376" y1="318.9" x2="540.6" y2="588.4"/>
		<line id="XMLID_60_" class="st8" x1="429" y1="286.5" x2="593.6" y2="556"/>
		<line id="XMLID_62_" class="st8" x1="482.1" y1="254.2" x2="646.6" y2="523.7"/>
		<line id="XMLID_63_" class="st8" x1="535.1" y1="221.8" x2="699.6" y2="491.3"/>
		<line id="XMLID_64_" class="st8" x1="241.8" y1="476.6" x2="630.7" y2="239.2"/>
		<line id="XMLID_66_" class="st8" x1="274.2" y1="529.6" x2="663" y2="292.3"/>
		<line id="XMLID_67_" class="st8" x1="306.6" y1="582.7" x2="695.4" y2="345.3"/>
		<line id="XMLID_68_" class="st8" x1="338.9" y1="635.7" x2="727.8" y2="398.3"/>
	</g>
	<path id="XMLID_4_" class="st6" d="M746.1,462.9L388,681.5c-8.5,5.2-19.6,2.5-24.7-6L217.5,436.8c-5.2-8.5-2.5-19.6,6-24.7
		l358.1-218.6c8.5-5.2,19.6-2.5,24.7,6l145.8,238.8C757.3,446.7,754.6,457.7,746.1,462.9z"/>
	<g id="XMLID_75_" class="st9">
		<path id="XMLID_78_" class="st3" d="M328.4,696.7L303.3,712c-2.8,1.7-6.5,0.8-8.2-2l-9.9-16.3c-1.7-2.8-0.8-6.5,2-8.2l25.1-15.3
			c2.8-1.7,6.5-0.8,8.2,2l9.9,16.3C332.1,691.3,331.2,695,328.4,696.7z"/>
		<path id="XMLID_76_" class="st3" d="M301.4,652.5l-25.1,15.3c-2.8,1.7-6.5,0.8-8.2-2l-9.9-16.3c-1.7-2.8-0.8-6.5,2-8.2l25.1-15.3
			c2.8-1.7,6.5-0.8,8.2,2l9.9,16.3C305.2,647.1,304.3,650.8,301.4,652.5z"/>
	</g>
	<g id="XMLID_7_">
		<path id="XMLID_11_" class="st6" d="M328.4,696.7L303.3,712c-2.8,1.7-6.5,0.8-8.2-2l-9.9-16.3c-1.7-2.8-0.8-6.5,2-8.2l25.1-15.3
			c2.8-1.7,6.5-0.8,8.2,2l9.9,16.3C332.1,691.3,331.2,695,328.4,696.7z"/>
		<path id="XMLID_13_" class="st6" d="M301.4,652.5l-25.1,15.3c-2.8,1.7-6.5,0.8-8.2-2l-9.9-16.3c-1.7-2.8-0.8-6.5,2-8.2l25.1-15.3
			c2.8-1.7,6.5-0.8,8.2,2l9.9,16.3C305.2,647.1,304.3,650.8,301.4,652.5z"/>
	</g>
	<g id="XMLID_14_" class="st9">
		<path id="XMLID_16_" class="st3" d="M230.4,536.2l-25.1,15.3c-2.8,1.7-6.5,0.8-8.2-2l-9.9-16.3c-1.7-2.8-0.8-6.5,2-8.2l25.1-15.3
			c2.8-1.7,6.5-0.8,8.2,2l9.9,16.3C234.1,530.7,233.2,534.4,230.4,536.2z"/>
		<path id="XMLID_15_" class="st3" d="M203.4,492l-25.1,15.3c-2.8,1.7-6.5,0.8-8.2-2l-9.9-16.3c-1.7-2.8-0.8-6.5,2-8.2l25.1-15.3
			c2.8-1.7,6.5-0.8,8.2,2l9.9,16.3C207.2,486.6,206.3,490.3,203.4,492z"/>
	</g>
	<g id="XMLID_193_">
		<path id="XMLID_227_" class="st6" d="M230.4,536.2l-25.1,15.3c-2.8,1.7-6.5,0.8-8.2-2l-9.9-16.3c-1.7-2.8-0.8-6.5,2-8.2l25.1-15.3
			c2.8-1.7,6.5-0.8,8.2,2l9.9,16.3C234.1,530.7,233.2,534.4,230.4,536.2z"/>
		<path id="XMLID_213_" class="st6" d="M203.4,492l-25.1,15.3c-2.8,1.7-6.5,0.8-8.2-2l-9.9-16.3c-1.7-2.8-0.8-6.5,2-8.2l25.1-15.3
			c2.8-1.7,6.5-0.8,8.2,2l9.9,16.3C207.2,486.6,206.3,490.3,203.4,492z"/>
	</g>
	
		<ellipse id="XMLID_79_" transform="matrix(0.9951 -9.853759e-02 9.853759e-02 0.9951 -56.8153 27.0363)" class="st10" cx="245.3" cy="588.7" rx="31.1" ry="31.1"/>
	
		<ellipse id="XMLID_8_" transform="matrix(0.9951 -9.853759e-02 9.853759e-02 0.9951 -56.8153 27.0363)" class="st11" cx="245.3" cy="588.7" rx="31.1" ry="31.1"/>
	
		<ellipse id="XMLID_141_" transform="matrix(0.9951 -9.853759e-02 9.853759e-02 0.9951 -56.8153 27.0363)" class="st6" cx="245.3" cy="588.7" rx="31.1" ry="31.1"/>
	<path id="XMLID_143_" class="st12" d="M232,596.8c-4.5-7.3-2.1-16.9,5.2-21.3"/>
	<g id="XMLID_25_">
		<g id="XMLID_253_">
			<g id="XMLID_270_">
				<line id="XMLID_272_" class="st13" x1="663.9" y1="432.8" x2="667.9" y2="439.4"/>
				<line id="XMLID_271_" class="st13" x1="669.2" y1="434" x2="662.6" y2="438.1"/>
			</g>
			<g id="XMLID_267_">
				<line id="XMLID_269_" class="st13" x1="610.9" y1="465.1" x2="614.9" y2="471.8"/>
				<line id="XMLID_268_" class="st13" x1="616.2" y1="466.4" x2="609.6" y2="470.5"/>
			</g>
			<g id="XMLID_264_">
				<line id="XMLID_266_" class="st13" x1="557.8" y1="497.5" x2="561.9" y2="504.1"/>
				<line id="XMLID_265_" class="st13" x1="563.2" y1="498.8" x2="556.5" y2="502.8"/>
			</g>
			<g id="XMLID_261_">
				<line id="XMLID_263_" class="st13" x1="504.8" y1="529.9" x2="508.9" y2="536.5"/>
				<line id="XMLID_262_" class="st13" x1="510.2" y1="531.2" x2="503.5" y2="535.2"/>
			</g>
			<g id="XMLID_258_">
				<line id="XMLID_260_" class="st13" x1="451.8" y1="562.2" x2="455.8" y2="568.9"/>
				<line id="XMLID_259_" class="st13" x1="457.1" y1="563.5" x2="450.5" y2="567.6"/>
			</g>
			<g id="XMLID_255_">
				<line id="XMLID_257_" class="st13" x1="398.8" y1="594.6" x2="402.8" y2="601.2"/>
				<line id="XMLID_256_" class="st13" x1="404.1" y1="595.9" x2="397.5" y2="599.9"/>
			</g>
		</g>
		<g id="XMLID_233_">
			<g id="XMLID_250_">
				<line id="XMLID_252_" class="st13" x1="631.5" y1="379.7" x2="635.6" y2="386.4"/>
				<line id="XMLID_251_" class="st13" x1="636.8" y1="381" x2="630.2" y2="385.1"/>
			</g>
			<g id="XMLID_247_">
				<line id="XMLID_249_" class="st13" x1="578.5" y1="412.1" x2="582.5" y2="418.7"/>
				<line id="XMLID_248_" class="st13" x1="583.8" y1="413.4" x2="577.2" y2="417.4"/>
			</g>
			<g id="XMLID_244_">
				<line id="XMLID_246_" class="st13" x1="525.5" y1="444.5" x2="529.5" y2="451.1"/>
				<line id="XMLID_245_" class="st13" x1="530.8" y1="445.8" x2="524.2" y2="449.8"/>
			</g>
			<g id="XMLID_241_">
				<line id="XMLID_243_" class="st13" x1="472.5" y1="476.8" x2="476.5" y2="483.5"/>
				<line id="XMLID_242_" class="st13" x1="477.8" y1="478.1" x2="471.2" y2="482.2"/>
			</g>
			<g id="XMLID_238_">
				<line id="XMLID_240_" class="st13" x1="419.4" y1="509.2" x2="423.5" y2="515.8"/>
				<line id="XMLID_239_" class="st13" x1="424.8" y1="510.5" x2="418.1" y2="514.5"/>
			</g>
			<g id="XMLID_235_">
				<line id="XMLID_237_" class="st13" x1="366.4" y1="541.6" x2="370.5" y2="548.2"/>
				<line id="XMLID_236_" class="st13" x1="371.7" y1="542.9" x2="365.1" y2="546.9"/>
			</g>
		</g>
		<g id="XMLID_212_">
			<g id="XMLID_230_">
				<line id="XMLID_232_" class="st13" x1="599.1" y1="326.7" x2="603.2" y2="333.3"/>
				<line id="XMLID_231_" class="st13" x1="604.5" y1="328" x2="597.9" y2="332.1"/>
			</g>
			<g id="XMLID_226_">
				<line id="XMLID_229_" class="st13" x1="546.1" y1="359.1" x2="550.2" y2="365.7"/>
				<line id="XMLID_228_" class="st13" x1="551.5" y1="360.4" x2="544.8" y2="364.4"/>
			</g>
			<g id="XMLID_223_">
				<line id="XMLID_225_" class="st13" x1="493.1" y1="391.5" x2="497.1" y2="398.1"/>
				<line id="XMLID_224_" class="st13" x1="498.4" y1="392.7" x2="491.8" y2="396.8"/>
			</g>
			<g id="XMLID_220_">
				<line id="XMLID_222_" class="st13" x1="440.1" y1="423.8" x2="444.1" y2="430.5"/>
				<line id="XMLID_221_" class="st13" x1="445.4" y1="425.1" x2="438.8" y2="429.2"/>
			</g>
			<g id="XMLID_217_">
				<line id="XMLID_219_" class="st13" x1="387.1" y1="456.2" x2="391.1" y2="462.8"/>
				<line id="XMLID_218_" class="st13" x1="392.4" y1="457.5" x2="385.8" y2="461.5"/>
			</g>
			<g id="XMLID_214_">
				<line id="XMLID_216_" class="st13" x1="334" y1="488.6" x2="338.1" y2="495.2"/>
				<line id="XMLID_215_" class="st13" x1="339.4" y1="489.9" x2="332.8" y2="493.9"/>
			</g>
		</g>
		<g id="XMLID_192_">
			<g id="XMLID_209_">
				<line id="XMLID_211_" class="st13" x1="566.8" y1="273.7" x2="570.8" y2="280.3"/>
				<line id="XMLID_210_" class="st13" x1="572.1" y1="275" x2="565.5" y2="279"/>
			</g>
			<g id="XMLID_206_">
				<line id="XMLID_208_" class="st13" x1="513.8" y1="306.1" x2="517.8" y2="312.7"/>
				<line id="XMLID_207_" class="st13" x1="519.1" y1="307.4" x2="512.5" y2="311.4"/>
			</g>
			<g id="XMLID_203_">
				<line id="XMLID_205_" class="st13" x1="460.7" y1="338.4" x2="464.8" y2="345.1"/>
				<line id="XMLID_204_" class="st13" x1="466.1" y1="339.7" x2="459.4" y2="343.8"/>
			</g>
			<g id="XMLID_200_">
				<line id="XMLID_202_" class="st13" x1="407.7" y1="370.8" x2="411.8" y2="377.4"/>
				<line id="XMLID_201_" class="st13" x1="413.1" y1="372.1" x2="406.4" y2="376.1"/>
			</g>
			<g id="XMLID_197_">
				<line id="XMLID_199_" class="st13" x1="354.7" y1="403.2" x2="358.7" y2="409.8"/>
				<line id="XMLID_198_" class="st13" x1="360" y1="404.5" x2="353.4" y2="408.5"/>
			</g>
			<g id="XMLID_194_">
				<line id="XMLID_196_" class="st13" x1="301.7" y1="435.5" x2="305.7" y2="442.2"/>
				<line id="XMLID_195_" class="st13" x1="307" y1="436.8" x2="300.4" y2="440.9"/>
			</g>
		</g>
	</g>
	<g id="XMLID_139_" class="st14">
		
			<rect id="XMLID_138_" x="455.4" y="340.5" transform="matrix(0.3877 -0.9218 0.9218 0.3877 -142.4644 723.6895)" class="st15" width="36.2" height="257.1"/>
		<path id="XMLID_137_" class="st16" d="M597.6,505.7l-11.1,26.5l11,3.7c1.9,0.6,3.9-0.3,4.7-2.1l7.5-17.9c0.8-1.8,0-3.9-1.8-4.8
			L597.6,505.7z"/>
		
			<rect id="XMLID_136_" x="537.8" y="482.3" transform="matrix(0.3877 -0.9218 0.9218 0.3877 -123.3121 823.8091)" class="st15" width="41.2" height="44.9"/>
		<path id="XMLID_135_" class="st16" d="M470.5,450.4l-0.6,1.3c-1.2,2.8-4.4,4.1-7.2,2.9l-67.5-28.4c-2.8-1.2-4.1-4.4-2.9-7.2
			l0.6-1.3c1.2-2.8,4.4-4.1,7.2-2.9l67.5,28.4C470.4,444.4,471.7,447.6,470.5,450.4z"/>
		<polygon id="XMLID_116_" class="st16" points="320.4,399.2 316.5,408.5 348,435.9 362,402.5 		"/>
		<polygon id="XMLID_115_" class="st16" points="317.2,406.9 309.3,400 319.7,400.9 		"/>
		<line id="XMLID_114_" class="st17" x1="301.8" y1="396.8" x2="309.1" y2="399.9"/>
	</g>
	<g id="XMLID_2_">
		
			<rect id="XMLID_254_" x="448.9" y="326.1" transform="matrix(0.3877 -0.9218 0.9218 0.3877 -133.1178 708.853)" class="st3" width="36.2" height="257.1"/>
		
			<rect id="XMLID_9_" x="456.5" y="337.6" transform="matrix(0.3877 -0.9218 0.9218 0.3877 -146.6813 711.452)" class="st5" width="11.3" height="257.1"/>
		
			<rect id="XMLID_110_" x="466.2" y="314.6" transform="matrix(0.3877 -0.9218 0.9218 0.3877 -119.5542 706.2537)" class="st18" width="11.3" height="257.1"/>
		
			<rect id="XMLID_12_" x="448.9" y="326.1" transform="matrix(0.3877 -0.9218 0.9218 0.3877 -133.1178 708.853)" class="st19" width="36.2" height="257.1"/>
		<path id="XMLID_274_" class="st20" d="M591.1,491.3L580,517.8l11,3.7c1.9,0.6,3.9-0.3,4.7-2.1l7.5-17.9c0.8-1.8,0-3.9-1.8-4.8
			L591.1,491.3z"/>
		<path id="XMLID_17_" class="st6" d="M591.1,491.3L580,517.8l11,3.7c1.9,0.6,3.9-0.3,4.7-2.1l7.5-17.9c0.8-1.8,0-3.9-1.8-4.8
			L591.1,491.3z"/>
		
			<rect id="XMLID_273_" x="531.3" y="467.9" transform="matrix(0.3877 -0.9218 0.9218 0.3877 -114.0742 808.9932)" class="st21" width="41.2" height="44.9"/>
		
			<rect id="XMLID_10_" x="540.2" y="481.3" transform="matrix(0.3877 -0.9218 0.9218 0.3877 -129.8927 812.0058)" class="st7" width="12.1" height="44.9"/>
		
			<rect id="XMLID_145_" x="551.4" y="454.3" transform="matrix(0.3877 -0.9218 0.9218 0.3877 -98.0165 805.918)" class="st22" width="12.5" height="44.9"/>
		
			<rect id="XMLID_19_" x="531.3" y="467.9" transform="matrix(0.3877 -0.9218 0.9218 0.3877 -114.0742 808.9932)" class="st19" width="41.2" height="44.9"/>
		<path id="XMLID_3_" class="st23" d="M464,436l-0.6,1.3c-1.2,2.8-4.4,4.1-7.2,2.9l-67.5-28.4c-2.8-1.2-4.1-4.4-2.9-7.2l0.6-1.3
			c1.2-2.8,4.4-4.1,7.2-2.9l67.5,28.4C463.8,430,465.2,433.2,464,436z"/>
		<path id="XMLID_20_" class="st6" d="M464,436l-0.6,1.3c-1.2,2.8-4.4,4.1-7.2,2.9l-67.5-28.4c-2.8-1.2-4.1-4.4-2.9-7.2l0.6-1.3
			c1.2-2.8,4.4-4.1,7.2-2.9l67.5,28.4C463.8,430,465.2,433.2,464,436z"/>
		<polygon id="XMLID_275_" class="st21" points="313.9,384.8 310,394.1 341.4,421.5 355.5,388.1 		"/>
		<polygon id="XMLID_134_" class="st22" points="310,394.1 341.4,421.5 345.8,411.1 311.9,389.4 		"/>
		<polygon id="XMLID_144_" class="st22" points="313.9,384.8 355.5,388.1 351.1,398.5 311.9,389.4 		"/>
		<polygon id="XMLID_23_" class="st6" points="313.9,384.8 310,394.1 341.4,421.5 355.5,388.1 		"/>
		<polygon id="XMLID_18_" class="st6" points="310.7,392.4 302.8,385.6 313.2,386.4 		"/>
		<line id="XMLID_22_" class="st6" x1="295.2" y1="382.4" x2="302.5" y2="385.5"/>
	</g>
</g>
<g>
	<path id="XMLID_53_" class="st2" d="M820.1,769.6h-18.7c-23.4,0-42.4-19-42.4-42.4l-1.5-100.7c0.8-19.9,19.1-35.5,40.9-35.5H823
		c21.8,0,40.1,15.6,40.9,35.5l-1.5,100.7C862.5,750.6,843.5,769.6,820.1,769.6z"/>
	<path id="XMLID_51_" class="st24" d="M810.1,755.1h-18.7c-23.4,0-42.4-19-42.4-42.4L747.5,612c0.8-19.9,19.1-35.5,40.9-35.5H813
		c21.8,0,40.1,15.6,40.9,35.5l-1.5,100.7C852.5,736.1,833.5,755.1,810.1,755.1z"/>
	<path id="XMLID_65_" class="st10" d="M816.8,576.7l-1.4,92.3c0,23.4-19,42.4-42.4,42.4h-18.7c-1.8,0-3.6-0.1-5.4-0.4v1.7
		c0,23.4,19,42.4,42.4,42.4H810c23.4,0,42.4-19,42.4-42.4L854,612C853.2,593.3,836.9,578.4,816.8,576.7z"/>
	<path id="XMLID_32_" class="st6" d="M810.1,755.1h-18.7c-23.4,0-42.4-19-42.4-42.4L747.5,612c0.8-19.9,19.1-35.5,40.9-35.5H813
		c21.8,0,40.1,15.6,40.9,35.5l-1.5,100.7C852.5,736.1,833.5,755.1,810.1,755.1z"/>
	<line id="XMLID_52_" class="st6" x1="800.7" y1="576.5" x2="800.7" y2="634.7"/>
</g>
</svg>
