<?xml version="1.0" encoding="utf-8"?>
<!-- Generator: Adobe Illustrator 23.1.1, SVG Export Plug-In . SVG Version: 6.00 Build 0)  -->
<svg version="1.1" id="Layer_1" xmlns="http://www.w3.org/2000/svg" xmlns:xlink="http://www.w3.org/1999/xlink" x="0px" y="0px"
	 viewBox="0 0 1000 1000" style="enable-background:new 0 0 1000 1000;" xml:space="preserve">
<style type="text/css">
	.st0{fill:#114EFF;}
	.st1{fill:#EEF2F4;}
	.st2{fill:#0C3A84;stroke:#0C3A84;stroke-width:8;stroke-linecap:round;stroke-linejoin:round;stroke-miterlimit:10;}
	.st3{fill:#F9B03A;}
	.st4{opacity:0.4;fill:#F9B03A;}
	.st5{opacity:0.68;fill:#F9B03A;}
	.st6{fill:#EF3E1B;}
	.st7{opacity:0.69;fill:#EF3E1B;}
	.st8{opacity:0.48;fill:#C6321A;}
	.st9{fill:none;stroke:#030037;stroke-width:8;stroke-linecap:round;stroke-linejoin:round;stroke-miterlimit:10;}
	.st10{fill:#FF524E;}
	.st11{opacity:0.8;fill:#FF524E;}
	.st12{opacity:0.5;fill:#FF524E;}
	.st13{opacity:0.43;fill:#FF524E;}
	.st14{fill:none;stroke:#030037;stroke-width:4;stroke-linecap:round;stroke-linejoin:round;}
	.st15{fill:none;stroke:#030037;stroke-width:4;stroke-linecap:round;stroke-linejoin:round;stroke-dasharray:3.8378,9.5945;}
	.st16{fill:#D9D9FF;}
	.st17{fill:#FFCED2;}
	.st18{opacity:0.2;fill:#FFCED2;}
	.st19{fill:#FF1D1D;}
	.st20{opacity:0.22;}
	.st21{opacity:0.2;fill:#D8B2B6;}
	.st22{fill:#D8B2B6;}
	.st23{fill:#38AD3D;}
	.st24{opacity:0.84;fill:#38AD3D;}
	.st25{opacity:0.6;fill:#38AD3D;}
	.st26{fill:#247C1A;}
</style>
<rect id="XMLID_39_" class="st0" width="1000" height="1000"/>
<g>
	<g>
		<g>
			<path class="st1" d="M63.2,959.2c0,2.5-1.2,3.7-2.6,3.7c-1.1,0-1.9-0.5-2.1-1.4c-0.4,0.5-1,0.8-1.8,0.8c-1.5,0-2.6-1.2-2.6-2.8
				c0-1.6,1.1-2.8,2.6-2.8c0.7,0,1.2,0.3,1.6,0.7v-0.5h1.6v3.9c0,0.8,0.3,1.4,1,1.4c0.9,0,1.7-0.9,1.7-3c0-3-2.3-5.3-5.4-5.3
				c-3.1,0-5.6,2.4-5.6,5.7c0,3.3,2.5,5.7,5.9,5.7c1.1,0,2.1-0.2,2.9-0.4v0.6c-0.8,0.3-1.7,0.4-2.9,0.4c-3.7,0-6.5-2.6-6.5-6.2
				c0-3.4,2.7-6.2,6.2-6.2C61.1,953.3,63.2,956.4,63.2,959.2z M58.3,959.5c0-0.8-0.6-1.4-1.3-1.4c-0.8,0-1.3,0.5-1.3,1.4
				c0,0.8,0.6,1.3,1.3,1.3C57.8,960.9,58.3,960.3,58.3,959.5z"/>
		</g>
		<g>
			<path class="st1" d="M69.4,955.1v2c-1.2-0.1-2.6,0.5-2.6,2.4v4.3h-1.9v-8.6h1.9v1.4C67.3,955.5,68.3,955.1,69.4,955.1z"/>
		</g>
		<g>
			<path class="st1" d="M74.6,962.3c1,0,1.8-0.5,2.2-1.1l1.5,0.9c-0.8,1.2-2.1,1.9-3.8,1.9c-2.8,0-4.7-1.9-4.7-4.5
				c0-2.5,1.8-4.5,4.5-4.5c2.6,0,4.3,2.1,4.3,4.5c0,0.3,0,0.5-0.1,0.8h-6.8C72.1,961.6,73.2,962.3,74.6,962.3z M76.9,958.8
				c-0.3-1.5-1.3-2.1-2.5-2.1c-1.4,0-2.3,0.8-2.6,2.1H76.9z"/>
		</g>
		<g>
			<path class="st1" d="M88.9,955.2v8.6h-1.9v-1.2c-0.7,0.9-1.7,1.5-3,1.5c-2.3,0-4.3-2-4.3-4.5c0-2.6,1.9-4.5,4.3-4.5
				c1.3,0,2.3,0.5,3,1.4v-1.2H88.9z M87.1,959.5c0-1.6-1.2-2.7-2.7-2.7c-1.5,0-2.7,1.1-2.7,2.7c0,1.6,1.2,2.7,2.7,2.7
				C85.9,962.3,87.1,961.1,87.1,959.5z"/>
		</g>
		<g>
			<path class="st1" d="M91.1,951.3H93v12.5h-1.9V951.3z"/>
		</g>
		<g>
			<path class="st1" d="M102.9,955.2l-3.3,8.6h-2.1l-3.3-8.6h2l2.4,6.5l2.4-6.5H102.9z"/>
		</g>
		<g>
			<path class="st1" d="M104.2,955.2h1.9v8.9c0,2.4-1.2,3.5-3.5,3.3v-1.8c1.1,0.1,1.7-0.3,1.7-1.5V955.2z M104,952.8
				c0-0.7,0.5-1.2,1.2-1.2c0.7,0,1.2,0.5,1.2,1.2c0,0.6-0.5,1.2-1.2,1.2C104.5,954,104,953.4,104,952.8z"/>
		</g>
		<g>
			<path class="st1" d="M116,955.2l-3.3,8.8c-0.8,2.2-2.2,3.3-4.2,3.2v-1.7c1.2,0.1,1.9-0.5,2.3-1.7l0.1-0.2l-3.6-8.4h2l2.6,6.2
				l2.2-6.2H116z"/>
		</g>
	</g>
	<g>
		<path class="st1" d="M211.9,938.7c0,2.1-1.5,3.8-3.6,3.8h-3v-7.6h3C210.4,934.9,211.9,936.6,211.9,938.7z M210.9,938.7
			c0-1.6-1.1-2.9-2.6-2.9h-2v5.7h2C209.8,941.6,210.9,940.3,210.9,938.7z"/>
		<path class="st1" d="M219.5,940.8h-3.4l-0.6,1.7h-1.1l2.8-7.6h1.1l2.8,7.6h-1.1L219.5,940.8z M219.2,939.9l-1.4-3.8l-1.4,3.8
			H219.2z"/>
		<path class="st1" d="M226.4,939.4v3.1h-1v-3.1l-2.7-4.5h1.1l2.1,3.6l2.1-3.6h1.1L226.4,939.4z"/>
		<path class="st1" d="M241.5,934.9v0.9l-2.8,6.7h-1.1l2.8-6.7h-3.7v-1H241.5z"/>
		<path class="st1" d="M249.3,940.3c0,1.5-1.2,2.4-2.6,2.4c-1.1,0-2.1-0.5-2.5-1.6l0.9-0.5c0.2,0.8,0.8,1.1,1.7,1.1
			c0.9,0,1.6-0.5,1.6-1.4c0-0.9-0.7-1.4-1.6-1.4h-2.2l0.3-4h4.2v0.9h-3.3l-0.1,2h1.1C248.1,937.9,249.3,938.7,249.3,940.3z"/>
	</g>
	<g>
		<path class="st1" d="M58.9,938.7c0,2.1-1.5,3.8-3.6,3.8h-3v-7.6h3C57.4,934.9,58.9,936.6,58.9,938.7z M57.9,938.7
			c0-1.6-1.1-2.9-2.6-2.9h-2v5.7h2C56.8,941.6,57.9,940.3,57.9,938.7z"/>
		<path class="st1" d="M67,941.6v1h-4.6v-7.6h4.5v1h-3.5v2.3h3.2v0.9h-3.2v2.4H67z"/>
		<path class="st1" d="M70,940.8l0.9-0.5c0.3,0.8,0.9,1.4,2,1.4c1.1,0,1.6-0.5,1.6-1.2c0-0.8-0.7-1-1.8-1.4
			c-1.2-0.4-2.4-0.8-2.4-2.2c0-1.4,1.1-2.2,2.4-2.2c1.3,0,2.2,0.7,2.6,1.7l-0.8,0.5c-0.3-0.7-0.8-1.2-1.7-1.2
			c-0.8,0-1.4,0.4-1.4,1.1c0,0.7,0.5,1,1.6,1.3c1.3,0.4,2.6,0.8,2.6,2.3c0,1.3-1.1,2.2-2.6,2.2C71.5,942.7,70.4,941.9,70,940.8z"/>
		<path class="st1" d="M80,934.9v7.6h-1v-7.6H80z"/>
		<path class="st1" d="M91.3,939.2c0,1.9-1.4,3.5-3.7,3.5c-2.4,0-4-1.8-4-4c0-2.2,1.7-4,4-4c1.4,0,2.7,0.8,3.3,1.8l-0.9,0.5
			c-0.4-0.8-1.4-1.4-2.4-1.4c-1.8,0-3,1.3-3,3c0,1.7,1.2,3,3,3c1.6,0,2.5-0.9,2.7-2h-2.8v-0.9h3.8V939.2z"/>
		<path class="st1" d="M100.6,934.9v7.6h-0.8l-3.9-5.7v5.7h-1v-7.6h0.8l3.9,5.7v-5.7H100.6z"/>
		<path class="st1" d="M109.1,941.6v1h-4.6v-7.6h4.5v1h-3.5v2.3h3.2v0.9h-3.2v2.4H109.1z"/>
		<path class="st1" d="M119.2,938.7c0,2.1-1.5,3.8-3.6,3.8h-3v-7.6h3C117.6,934.9,119.2,936.6,119.2,938.7z M118.2,938.7
			c0-1.6-1.1-2.9-2.6-2.9h-2v5.7h2C117.1,941.6,118.2,940.3,118.2,938.7z"/>
		<path class="st1" d="M133.2,940.4c0,1.2-1,2.2-2.2,2.2h-3.3v-7.6h3c1.2,0,2.1,0.9,2.1,2.1c0,0.7-0.3,1.2-0.8,1.6
			C132.7,938.9,133.2,939.5,133.2,940.4z M128.7,935.8v2.3h2c0.6,0,1.1-0.5,1.1-1.2c0-0.6-0.5-1.2-1.1-1.2H128.7z M132.2,940.3
			c0-0.7-0.5-1.2-1.2-1.2h-2.3v2.5h2.3C131.7,941.6,132.2,941,132.2,940.3z"/>
		<path class="st1" d="M139.4,939.4v3.1h-1v-3.1l-2.7-4.5h1.1l2.1,3.6l2.1-3.6h1.1L139.4,939.4z"/>
	</g>
	<g>
		<path class="st1" d="M204.8,961.5l1.8-1c0.4,1.3,1.4,2.1,3.1,2.1c1.6,0,2.3-0.7,2.3-1.6c0-1.1-1-1.5-2.8-2
			c-1.9-0.6-3.8-1.3-3.8-3.6c0-2.3,1.9-3.6,4-3.6c2,0,3.5,1.1,4.3,2.7l-1.7,1c-0.4-1-1.2-1.7-2.6-1.7c-1.2,0-1.9,0.6-1.9,1.5
			c0,1,0.7,1.4,2.5,1.9c2.1,0.7,4.1,1.3,4.1,3.8c0,2.3-1.8,3.6-4.4,3.6C207.1,964.5,205.5,963.3,204.8,961.5z"/>
		<path class="st1" d="M218.1,957.3v4.2c0,1.1,0.7,1.1,2.2,1v1.7c-2.9,0.4-4.1-0.5-4.1-2.8v-4.2h-1.6v-1.8h1.6v-1.9l1.9-0.6v2.5h2.2
			v1.8H218.1z"/>
		<path class="st1" d="M230.6,955.4v8.9h-1.9V963c-0.7,0.9-1.7,1.5-3.1,1.5c-2.4,0-4.4-2-4.4-4.7c0-2.6,2-4.7,4.4-4.7
			c1.4,0,2.4,0.6,3.1,1.5v-1.3H230.6z M228.7,959.9c0-1.6-1.2-2.8-2.8-2.8c-1.6,0-2.8,1.2-2.8,2.8c0,1.6,1.2,2.8,2.8,2.8
			C227.5,962.7,228.7,961.5,228.7,959.9z"/>
		<path class="st1" d="M235.6,957.3v4.2c0,1.1,0.7,1.1,2.2,1v1.7c-2.9,0.4-4.1-0.5-4.1-2.8v-4.2H232v-1.8h1.6v-1.9l1.9-0.6v2.5h2.2
			v1.8H235.6z"/>
		<path class="st1" d="M239.2,952.9c0-0.7,0.5-1.2,1.2-1.2c0.7,0,1.2,0.5,1.2,1.2c0,0.7-0.5,1.2-1.2,1.2
			C239.8,954.1,239.2,953.6,239.2,952.9z M239.5,955.4h1.9v8.9h-1.9V955.4z"/>
		<path class="st1" d="M243.1,959.9c0-2.6,2.1-4.7,4.7-4.7c2.6,0,4.7,2,4.7,4.7c0,2.6-2.1,4.7-4.7,4.7
			C245.2,964.5,243.1,962.5,243.1,959.9z M250.6,959.9c0-1.6-1.2-2.8-2.8-2.8s-2.8,1.2-2.8,2.8c0,1.6,1.2,2.8,2.8,2.8
			S250.6,961.5,250.6,959.9z"/>
		<path class="st1" d="M262.3,958.9v5.4h-1.9v-5.2c0-1.3-0.8-2.1-2-2.1c-1.3,0-2.2,0.7-2.2,2.5v4.7h-1.9v-8.9h1.9v1.1
			c0.6-0.9,1.5-1.4,2.7-1.4C260.8,955.2,262.3,956.6,262.3,958.9z"/>
		<path class="st1" d="M273.2,955.4v8.9h-1.9V963c-0.7,0.9-1.7,1.5-3.1,1.5c-2.4,0-4.4-2-4.4-4.7c0-2.6,2-4.7,4.4-4.7
			c1.4,0,2.4,0.6,3.1,1.5v-1.3H273.2z M271.3,959.9c0-1.6-1.2-2.8-2.8-2.8c-1.6,0-2.8,1.2-2.8,2.8c0,1.6,1.2,2.8,2.8,2.8
			C270.1,962.7,271.3,961.5,271.3,959.9z"/>
		<path class="st1" d="M280.1,955.3v2.1c-1.3-0.1-2.7,0.5-2.7,2.5v4.5h-1.9v-8.9h1.9v1.5C277.9,955.7,279,955.3,280.1,955.3z"/>
		<path class="st1" d="M289.7,955.4l-3.4,9.1c-0.8,2.2-2.3,3.4-4.3,3.3V966c1.2,0.1,1.9-0.6,2.4-1.7l0.1-0.2l-3.8-8.7h2.1l2.6,6.4
			l2.3-6.4H289.7z"/>
		<path class="st1" d="M294.8,961.5l1.8-1c0.4,1.3,1.4,2.1,3.1,2.1c1.6,0,2.3-0.7,2.3-1.6c0-1.1-1-1.5-2.8-2
			c-1.9-0.6-3.8-1.3-3.8-3.6c0-2.3,1.9-3.6,4-3.6c2,0,3.5,1.1,4.3,2.7l-1.7,1c-0.4-1-1.2-1.7-2.6-1.7c-1.2,0-1.9,0.6-1.9,1.5
			c0,1,0.7,1.4,2.5,1.9c2.1,0.7,4.1,1.3,4.1,3.8c0,2.3-1.8,3.6-4.4,3.6C297.1,964.5,295.5,963.3,294.8,961.5z"/>
		<path class="st1" d="M310.2,962.8c1.1,0,1.9-0.5,2.3-1.1l1.6,0.9c-0.8,1.2-2.1,1.9-3.9,1.9c-2.9,0-4.8-2-4.8-4.7
			c0-2.6,1.9-4.7,4.7-4.7c2.6,0,4.4,2.1,4.4,4.7c0,0.3,0,0.5-0.1,0.8h-7C307.7,962.1,308.8,962.8,310.2,962.8z M312.5,959.1
			c-0.3-1.5-1.4-2.2-2.5-2.2c-1.4,0-2.4,0.8-2.7,2.2H312.5z"/>
		<path class="st1" d="M318.6,957.3v4.2c0,1.1,0.7,1.1,2.2,1v1.7c-2.9,0.4-4.1-0.5-4.1-2.8v-4.2h-1.6v-1.8h1.6v-1.9l1.9-0.6v2.5h2.2
			v1.8H318.6z"/>
		<path class="st1" d="M326.5,962.7l4.3-4.4c0.9-0.9,1.6-1.8,1.6-2.7c0-1.2-0.8-1.9-1.9-1.9c-1,0-1.8,0.5-2.3,1.5l-1.7-1
			c0.8-1.7,2.4-2.5,4-2.5c2,0,4,1.4,4,3.8c0,1.5-0.9,2.8-2.1,4l-2.8,2.8h5.1v2h-8.2V962.7z"/>
	</g>
	<g>
		<g>
			<g>
				<path class="st1" d="M846.1,938.7c0,2.1-1.5,3.8-3.6,3.8h-3v-7.6h3C844.6,934.9,846.1,936.6,846.1,938.7z M845.2,938.7
					c0-1.6-1.1-2.9-2.6-2.9h-2v5.7h2C844.1,941.6,845.2,940.3,845.2,938.7z"/>
			</g>
			<g>
				<path class="st1" d="M849.3,938.7c0-2.2,1.7-4,3.9-4c2.2,0,4,1.8,4,4c0,2.2-1.7,4-4,4C851,942.7,849.3,940.9,849.3,938.7z
					 M856.1,938.7c0-1.7-1.3-3-2.9-3c-1.7,0-2.9,1.3-2.9,3c0,1.7,1.3,3,2.9,3C854.9,941.7,856.1,940.4,856.1,938.7z"/>
			</g>
			<g>
				<path class="st1" d="M859.8,934.9h1.1l1.7,6.3l1.9-6.3h1l1.9,6.3l1.7-6.3h1.1l-2.2,7.6h-1.2l-1.8-6.1l-1.8,6.1H862L859.8,934.9z
					"/>
			</g>
			<g>
				<path class="st1" d="M879.3,934.9v7.6h-0.8l-3.9-5.7v5.7h-1v-7.6h0.8l3.9,5.7v-5.7H879.3z"/>
			</g>
			<g>
				<path class="st1" d="M887.5,941.6v1h-4.3v-7.6h1v6.7H887.5z"/>
			</g>
			<g>
				<path class="st1" d="M889.9,938.7c0-2.2,1.7-4,3.9-4c2.2,0,4,1.8,4,4c0,2.2-1.7,4-4,4C891.6,942.7,889.9,940.9,889.9,938.7z
					 M896.8,938.7c0-1.7-1.3-3-2.9-3c-1.7,0-2.9,1.3-2.9,3c0,1.7,1.3,3,2.9,3C895.5,941.7,896.8,940.4,896.8,938.7z"/>
			</g>
			<g>
				<path class="st1" d="M905.4,940.8H902l-0.6,1.7h-1.1l2.8-7.6h1.1l2.8,7.6H906L905.4,940.8z M905.1,939.9l-1.4-3.8l-1.4,3.8
					H905.1z"/>
			</g>
			<g>
				<path class="st1" d="M916.9,938.7c0,2.1-1.5,3.8-3.6,3.8h-3v-7.6h3C915.4,934.9,916.9,936.6,916.9,938.7z M915.9,938.7
					c0-1.6-1.1-2.9-2.6-2.9h-2v5.7h2C914.9,941.6,915.9,940.3,915.9,938.7z"/>
			</g>
			<g>
				<path class="st1" d="M926.5,935.8v2.5h3.2v1h-3.2v3.2h-1v-7.6h4.4v1H926.5z"/>
			</g>
			<g>
				<path class="st1" d="M936.2,939.6h-1.8v2.9h-1v-7.6h3c1.3,0,2.4,1.1,2.4,2.4c0,1-0.7,1.9-1.6,2.2l1.8,3.1h-1.1L936.2,939.6z
					 M934.4,938.7h2c0.8,0,1.4-0.6,1.4-1.4c0-0.8-0.6-1.4-1.4-1.4h-2V938.7z"/>
			</g>
			<g>
				<path class="st1" d="M941.9,938.7c0-2.2,1.7-4,3.9-4c2.2,0,4,1.8,4,4c0,2.2-1.7,4-4,4C943.6,942.7,941.9,940.9,941.9,938.7z
					 M948.8,938.7c0-1.7-1.3-3-2.9-3c-1.7,0-2.9,1.3-2.9,3c0,1.7,1.3,3,2.9,3C947.5,941.7,948.8,940.4,948.8,938.7z"/>
			</g>
			<g>
				<path class="st1" d="M960.4,942.5h-1v-6l-2.5,4.2h-0.1l-2.5-4.1v5.9h-1v-7.6h1.1l2.4,4l2.4-4h1.1V942.5z"/>
			</g>
		</g>
		<g>
			<g>
				<path class="st1" d="M839.3,952.9c0-0.7,0.5-1.2,1.2-1.2c0.7,0,1.2,0.5,1.2,1.2c0,0.7-0.5,1.2-1.2,1.2
					C839.9,954.1,839.3,953.6,839.3,952.9z M839.6,955.4h1.9v8.9h-1.9V955.4z"/>
			</g>
			<g>
				<path class="st1" d="M843.7,951.4h1.9v12.9h-1.9V951.4z"/>
			</g>
			<g>
				<path class="st1" d="M847.8,951.4h1.9v12.9h-1.9V951.4z"/>
			</g>
			<g>
				<path class="st1" d="M852,951.4h1.9v12.9H852V951.4z"/>
			</g>
			<g>
				<path class="st1" d="M864,955.4v8.9h-1.9v-1.1c-0.6,0.9-1.5,1.4-2.7,1.4c-2,0-3.4-1.3-3.4-3.6v-5.4h1.9v5.2c0,1.3,0.8,2.1,2,2.1
					c1.3,0,2.2-0.7,2.2-2.5v-4.7H864z"/>
			</g>
			<g>
				<path class="st1" d="M872.6,961.8c0,1.8-1.5,2.7-3.5,2.7c-1.8,0-3-0.8-3.6-2.1l1.6-1c0.3,0.8,1,1.3,2,1.3c0.8,0,1.5-0.3,1.5-1
					c0-1.6-4.8-0.7-4.8-3.9c0-1.7,1.4-2.7,3.2-2.7c1.5,0,2.7,0.7,3.3,1.8l-1.6,0.9c-0.3-0.7-0.9-1-1.7-1c-0.7,0-1.3,0.3-1.3,0.9
					C867.9,959.5,872.6,958.5,872.6,961.8z"/>
			</g>
			<g>
				<path class="st1" d="M876.7,957.3v4.2c0,1.1,0.7,1.1,2.2,1v1.7c-2.9,0.4-4.1-0.5-4.1-2.8v-4.2h-1.6v-1.8h1.6v-1.9l1.9-0.6v2.5
					h2.2v1.8H876.7z"/>
			</g>
			<g>
				<path class="st1" d="M885.4,955.3v2.1c-1.3-0.1-2.7,0.5-2.7,2.5v4.5h-1.9v-8.9h1.9v1.5C883.2,955.7,884.2,955.3,885.4,955.3z"/>
			</g>
			<g>
				<path class="st1" d="M895.3,955.4v8.9h-1.9V963c-0.7,0.9-1.7,1.5-3.1,1.5c-2.4,0-4.4-2-4.4-4.7c0-2.6,2-4.7,4.4-4.7
					c1.4,0,2.4,0.6,3.1,1.5v-1.3H895.3z M893.4,959.9c0-1.6-1.2-2.8-2.8-2.8c-1.6,0-2.8,1.2-2.8,2.8c0,1.6,1.2,2.8,2.8,2.8
					C892.2,962.7,893.4,961.5,893.4,959.9z"/>
			</g>
			<g>
				<path class="st1" d="M900.3,957.3v4.2c0,1.1,0.7,1.1,2.2,1v1.7c-2.9,0.4-4.1-0.5-4.1-2.8v-4.2h-1.6v-1.8h1.6v-1.9l1.9-0.6v2.5
					h2.2v1.8H900.3z"/>
			</g>
			<g>
				<path class="st1" d="M903.9,952.9c0-0.7,0.5-1.2,1.2-1.2c0.7,0,1.2,0.5,1.2,1.2c0,0.7-0.5,1.2-1.2,1.2
					C904.5,954.1,903.9,953.6,903.9,952.9z M904.2,955.4h1.9v8.9h-1.9V955.4z"/>
			</g>
			<g>
				<path class="st1" d="M907.8,959.9c0-2.6,2.1-4.7,4.7-4.7c2.6,0,4.7,2,4.7,4.7c0,2.6-2.1,4.7-4.7,4.7
					C909.9,964.5,907.8,962.5,907.8,959.9z M915.3,959.9c0-1.6-1.2-2.8-2.8-2.8c-1.6,0-2.8,1.2-2.8,2.8c0,1.6,1.2,2.8,2.8,2.8
					C914.1,962.7,915.3,961.5,915.3,959.9z"/>
			</g>
			<g>
				<path class="st1" d="M927,958.9v5.4h-1.9v-5.2c0-1.3-0.8-2.1-2-2.1c-1.3,0-2.2,0.7-2.2,2.5v4.7h-1.9v-8.9h1.9v1.1
					c0.6-0.9,1.5-1.4,2.7-1.4C925.5,955.2,927,956.6,927,958.9z"/>
			</g>
			<g>
				<path class="st1" d="M935.5,961.8c0,1.8-1.5,2.7-3.5,2.7c-1.8,0-3-0.8-3.6-2.1l1.6-1c0.3,0.8,1,1.3,2,1.3c0.8,0,1.5-0.3,1.5-1
					c0-1.6-4.8-0.7-4.8-3.9c0-1.7,1.4-2.7,3.2-2.7c1.5,0,2.7,0.7,3.3,1.8l-1.6,0.9c-0.3-0.7-0.9-1-1.7-1c-0.7,0-1.3,0.3-1.3,0.9
					C930.7,959.5,935.5,958.5,935.5,961.8z"/>
			</g>
			<g>
				<path class="st1" d="M936.8,963.2c0-0.7,0.6-1.3,1.3-1.3c0.7,0,1.3,0.6,1.3,1.3c0,0.7-0.6,1.3-1.3,1.3
					C937.4,964.5,936.8,963.9,936.8,963.2z"/>
			</g>
			<g>
				<path class="st1" d="M940.3,959.9c0-2.6,2-4.7,4.7-4.7c1.7,0,3.2,0.9,3.9,2.3l-1.6,1c-0.4-0.8-1.3-1.4-2.3-1.4
					c-1.6,0-2.7,1.2-2.7,2.8c0,1.6,1.2,2.8,2.7,2.8c1.1,0,1.9-0.5,2.4-1.4l1.6,0.9c-0.7,1.4-2.2,2.3-4,2.3
					C942.3,964.5,940.3,962.5,940.3,959.9z"/>
			</g>
			<g>
				<path class="st1" d="M949.7,959.9c0-2.6,2.1-4.7,4.7-4.7c2.6,0,4.7,2,4.7,4.7c0,2.6-2.1,4.7-4.7,4.7
					C951.8,964.5,949.7,962.5,949.7,959.9z M957.2,959.9c0-1.6-1.2-2.8-2.8-2.8s-2.8,1.2-2.8,2.8c0,1.6,1.2,2.8,2.8,2.8
					S957.2,961.5,957.2,959.9z"/>
			</g>
		</g>
	</g>
</g>
<g>
	<g id="XMLID_128_">
		<path id="XMLID_127_" class="st2" d="M356.8,450.1c-0.6-6.6-3.3-12.9-7.7-18.1l-21.5-25.5c-4.5-5.4-7-12-7-18.8v-14.4h-78.8v14.4
			c0,6.8-2.5,13.4-7,18.8l-21.5,25.5c-4.4,5.2-7.1,11.5-7.7,18.1l-22.7,254.1h196.6L356.8,450.1z"/>
		<polygon id="XMLID_126_" class="st2" points="385.4,748.6 176.8,748.6 172.8,693 389.4,693 		"/>
		<path id="XMLID_125_" class="st2" d="M335.4,373.2H226.7l3.3-27.5c1.5-12.9,11.7-22.7,23.1-22.7H309c11.5,0,21.6,9.8,23.1,22.7
			L335.4,373.2z"/>
	</g>
	<path id="XMLID_129_" class="st3" d="M334.4,432.6c-0.6-6.6-3.3-12.9-7.7-18.1L305.2,389c-4.5-5.4-7-12-7-18.8v-14.4h-78.8v14.4
		c0,6.8-2.5,13.4-7,18.8l-21.5,25.5c-4.4,5.2-7.1,11.5-7.7,18.1l-22.7,254.1h196.6L334.4,432.6z"/>
	<path id="XMLID_119_" class="st4" d="M357.5,686.8l-22.7-254.1c-0.6-6.6-3.3-12.9-7.7-18.1L305.6,389c-4.5-5.4-7-12-7-18.8v-14.4
		h-33.8l-0.1,15.3c-0.1,8.1,2.8,16,8.1,22.4l25.2,30.1c5.1,6.1,8.2,13.5,8.8,21.1l13.5,155.3c2.8,32.3-13.1,57.1-44.3,65.6
		l-78.4,7.9l152.2,32.7l-5.1-19.4H357.5z"/>
	<path id="XMLID_110_" class="st5" d="M211.1,444.7c0.6-7.7,3.7-15,8.8-21.1l25.2-30.1c5.3-6.4,8.2-14.2,8.1-22.4l-0.1-15.3h-33.8
		v14.4c0,6.8-2.5,13.4-7,18.8l-21.5,25.5c-4.4,5.2-7.1,11.5-7.7,18.1l-22.7,254.1l18,6.2L211.1,444.7z"/>
	<polygon id="XMLID_130_" class="st6" points="349.4,600.8 168.1,600.8 179,478.9 338.6,478.9 	"/>
	<polygon id="XMLID_111_" class="st7" points="207.9,478.9 179,478.9 176.8,503.7 168.1,600.8 190.6,600.8 	"/>
	<polygon id="XMLID_107_" class="st8" points="310,478.9 339,478.9 341.2,503.7 349.9,600.8 321.2,600.8 	"/>
	<path id="XMLID_13_" class="st9" d="M334.4,432.6c-0.6-6.6-3.3-12.9-7.7-18.1L305.2,389c-4.5-5.4-7-12-7-18.8v-14.4h-78.8v14.4
		c0,6.8-2.5,13.4-7,18.8l-21.5,25.5c-4.4,5.2-7.1,11.5-7.7,18.1l-22.7,254.1h196.6L334.4,432.6z"/>
	<polygon id="XMLID_132_" class="st10" points="363.1,731.2 154.4,731.2 150.5,675.6 367.1,675.6 	"/>
	<polygon id="XMLID_109_" class="st11" points="150.5,675.6 154.4,731.2 173.4,731.2 169.5,675.6 	"/>
	<path id="XMLID_116_" class="st12" d="M286.7,718.8H154.4l-2.4-43.2h-1.5l4,55.6h208.7l4-55.6h-34.7v0
		C331,699.8,311,718.8,286.7,718.8z"/>
	<polygon id="XMLID_7_" class="st9" points="363.1,731.2 154.4,731.2 150.5,675.6 367.1,675.6 	"/>
	<path id="XMLID_133_" class="st10" d="M313.1,355.7H204.4l3.3-27.5c1.5-12.9,11.7-22.7,23.1-22.7h55.9c11.5,0,21.6,9.8,23.1,22.7
		L313.1,355.7z"/>
	<path id="XMLID_113_" class="st10" d="M309.9,328.2c-1.5-12.9-11.7-22.7-23.1-22.7h-55.9c-11.5,0-21.6,9.8-23.1,22.7l-3.3,27.5h0.8
		l2.4-20.5c1.5-12.9,11.7-22.7,23.1-22.7h55.9c11.5,0,21.6,9.8,23.1,22.7l2.4,20.5h0.8L309.9,328.2z"/>
	<path id="XMLID_120_" class="st13" d="M309.9,328.2c-1.5-12.9-11.7-22.7-23.1-22.7h-16.4c11.5,0,21.6,9.8,23.1,22.7l3.3,27.5h16.4
		L309.9,328.2z"/>
	<path id="XMLID_114_" class="st10" d="M246.7,305.5h-15.9c-11.5,0-21.6,9.8-23.1,22.7l-3.3,27.5h15.9l3.3-27.5
		C225.1,315.3,235.2,305.5,246.7,305.5z"/>
	<path id="XMLID_4_" class="st9" d="M313.1,355.7H204.4l3.3-27.5c1.5-12.9,11.7-22.7,23.1-22.7h55.9c11.5,0,21.6,9.8,23.1,22.7
		L313.1,355.7z"/>
	<g id="XMLID_5_">
		<line id="XMLID_6_" class="st9" x1="227.9" y1="332.5" x2="227.9" y2="355.7"/>
		<line id="XMLID_8_" class="st9" x1="248.5" y1="332.5" x2="248.5" y2="355.7"/>
		<line id="XMLID_14_" class="st9" x1="269.1" y1="332.5" x2="269.1" y2="355.7"/>
		<line id="XMLID_15_" class="st9" x1="289.7" y1="332.5" x2="289.7" y2="355.7"/>
	</g>
	<g id="XMLID_16_">
		<line id="XMLID_12_" class="st9" x1="178.5" y1="675.6" x2="181.1" y2="731.2"/>
		<line class="st9" x1="205.3" y1="675.6" x2="207" y2="731.2"/>
		<line class="st9" x1="232" y1="675.6" x2="232.9" y2="731.2"/>
		<line class="st9" x1="258.8" y1="675.6" x2="258.8" y2="731.2"/>
		<line class="st9" x1="285.5" y1="675.6" x2="284.7" y2="731.2"/>
		<line class="st9" x1="312.3" y1="675.6" x2="310.6" y2="731.2"/>
		<line id="XMLID_1_" class="st9" x1="339" y1="675.6" x2="336.5" y2="731.2"/>
	</g>
	<g id="XMLID_29_">
		<g>
			<line class="st14" x1="184.8" y1="425" x2="186.8" y2="425"/>
			<line class="st15" x1="196.4" y1="425" x2="325.9" y2="425"/>
			<line class="st14" x1="330.7" y1="425" x2="332.7" y2="425"/>
		</g>
	</g>
	<polygon id="XMLID_47_" class="st9" points="349.4,600.8 168.1,600.8 179,478.9 338.6,478.9 	"/>
	<polygon id="XMLID_46_" class="st9" points="350.9,617.1 166.7,617.1 168.1,600.8 349.4,600.8 	"/>
	<path id="XMLID_131_" class="st16" d="M243.6,531l15.2-27.7l15.2,27.7c6.3,11.5-2,25.6-15.2,25.6h0
		C245.6,556.6,237.3,542.6,243.6,531z"/>
	<path id="XMLID_28_" class="st9" d="M243.6,531l15.2-27.7l15.2,27.7c6.3,11.5-2,25.6-15.2,25.6h0
		C245.6,556.6,237.3,542.6,243.6,531z"/>
	<line id="XMLID_31_" class="st9" x1="230.2" y1="577.9" x2="289.7" y2="577.9"/>
</g>
<g>
	<g id="XMLID_72_">
		<path id="XMLID_97_" class="st2" d="M834.2,415.8H552.1v-19.9l104-66.3h178c26.5,0,48.1,19.3,48.1,43.1c0,11.9-5.4,22.7-14.1,30.5
			C859.5,411,847.5,415.8,834.2,415.8z"/>
		<path id="XMLID_96_" class="st2" d="M834.2,415.8H659.8l-107.6-68.6v-17.6h111.6l214.1,61.2c-2.4,4.7-5.7,8.9-9.7,12.5
			C859.5,411,847.5,415.8,834.2,415.8z"/>
		<g id="XMLID_79_">
			<g id="XMLID_88_">
				<path id="XMLID_94_" class="st2" d="M479.8,259.6c-1.3,0.2-2.6,0.5-3.8,0.8C477.2,260.1,478.5,259.8,479.8,259.6z"/>
				<path id="XMLID_93_" class="st2" d="M468.5,263c1.2-0.5,2.4-1,3.6-1.4C470.9,262,469.7,262.5,468.5,263z"/>
				<path id="XMLID_92_" class="st2" d="M438.9,294.8c4.9-14.4,15.7-26,29.6-31.9C454.6,268.9,443.8,280.5,438.9,294.8z"/>
				<path id="XMLID_91_" class="st2" d="M438.9,328.9c0.6,1.6,1.2,3.3,1.9,4.8C440.1,332.1,439.4,330.5,438.9,328.9z"/>
				<path id="XMLID_90_" class="st2" d="M468.5,360.8c-12.3-5.2-22.2-14.9-27.7-27.1C446.3,345.8,456.2,355.6,468.5,360.8z"/>
				<path id="XMLID_101_" class="st2" d="M594.7,301l-33.8-5c-11.8-1.8-22.7-7.7-30.2-17.1c-9.7-12.2-24.7-20.1-41.6-20.1
					c-3.2,0-6.3,0.3-9.4,0.8c-1.3,0.2-2.6,0.5-3.8,0.8c-0.4,0.1-0.9,0.2-1.3,0.3c-0.8,0.2-1.7,0.5-2.5,0.8c0,0,0,0,0,0
					c-1.2,0.4-2.4,0.9-3.6,1.4c0,0,0,0,0,0c-13.9,5.9-24.7,17.5-29.6,31.9c0,0,0,0,0,0c-0.3,0.8-0.5,1.6-0.8,2.5
					c-0.1,0.4-0.2,0.8-0.3,1.3c-0.3,1.3-0.6,2.5-0.8,3.9c-0.5,3-0.8,6.2-0.8,9.4c0,3.2,0.3,6.3,0.8,9.4c0.2,1.3,0.5,2.6,0.8,3.9
					c0.1,0.4,0.2,0.8,0.3,1.3c0.2,0.8,0.5,1.7,0.8,2.5c0.6,1.6,1.2,3.3,1.9,4.8c0,0,0,0,0,0c5.5,12.1,15.4,21.8,27.7,27.1
					c0,0,0,0,0,0c0.8,0.3,1.6,0.6,2.4,1c5.7,2.1,11.8,3.2,18.2,3.2h70.9l44.9-51.8L594.7,301z M489.2,337.7
					c-14.2,0-25.8-11.5-25.8-25.8c0-14.2,11.5-25.8,25.8-25.8s25.8,11.5,25.8,25.8C515,326.1,503.4,337.7,489.2,337.7z"/>
			</g>
			<g id="XMLID_80_">
				<path id="XMLID_86_" class="st2" d="M479.8,485.8c-1.3-0.2-2.6-0.5-3.8-0.8C477.2,485.3,478.5,485.5,479.8,485.8z"/>
				<path id="XMLID_85_" class="st2" d="M468.5,482.4c1.2,0.5,2.4,1,3.6,1.4C470.9,483.4,469.7,482.9,468.5,482.4z"/>
				<path id="XMLID_84_" class="st2" d="M438.9,450.5c4.9,14.4,15.7,26,29.6,31.9C454.6,476.5,443.8,464.9,438.9,450.5z"/>
				<path id="XMLID_83_" class="st2" d="M438.9,416.5c0.6-1.6,1.2-3.3,1.9-4.8C440.1,413.3,439.4,414.9,438.9,416.5z"/>
				<path id="XMLID_82_" class="st2" d="M468.5,384.6c-12.3,5.2-22.2,14.9-27.7,27.1C446.3,399.6,456.2,389.8,468.5,384.6z"/>
				<path id="XMLID_103_" class="st2" d="M560.1,380.4h-70.9c-6.4,0-12.6,1.1-18.2,3.2c-0.8,0.3-1.6,0.6-2.4,1c0,0,0,0,0,0
					c-12.3,5.2-22.2,14.9-27.7,27.1c0,0,0,0,0,0c-0.7,1.6-1.3,3.2-1.9,4.8c-0.3,0.8-0.5,1.6-0.8,2.5c-0.1,0.4-0.2,0.8-0.3,1.3
					c-0.3,1.3-0.6,2.6-0.8,3.9c-0.5,3.1-0.8,6.2-0.8,9.4c0,3.2,0.3,6.3,0.8,9.4c0.2,1.3,0.5,2.6,0.8,3.9c0.1,0.4,0.2,0.9,0.3,1.3
					c0.2,0.8,0.5,1.7,0.8,2.5c0,0,0,0,0,0c4.9,14.4,15.8,26,29.6,31.9c0,0,0,0,0,0c1.2,0.5,2.4,1,3.6,1.4c0,0,0,0,0,0
					c0.8,0.3,1.7,0.5,2.5,0.8c0.4,0.1,0.9,0.2,1.3,0.3c1.3,0.3,2.5,0.6,3.8,0.8c3.1,0.5,6.2,0.8,9.4,0.8c16.8,0,31.8-7.9,41.6-20.1
					c7.4-9.4,18.3-15.3,30.2-17.1l33.8-5l10.4-12.1L560.1,380.4z M489.2,459.3c-14.2,0-25.8-11.5-25.8-25.8s11.5-25.8,25.8-25.8
					s25.8,11.5,25.8,25.8S503.4,459.3,489.2,459.3z"/>
			</g>
		</g>
		<circle id="XMLID_73_" class="st2" cx="669.2" cy="372.7" r="10.3"/>
	</g>
	<g id="XMLID_62_">
		<path id="XMLID_140_" class="st17" d="M817.9,404.1H535.8v-19.9l104-66.3h178c26.5,0,48.1,19.3,48.1,43.1
			c0,11.9-5.4,22.7-14.1,30.5C843.2,399.3,831.1,404.1,817.9,404.1z"/>
		<polygon id="XMLID_156_" class="st18" points="558.8,369.5 535.8,384.1 535.8,404.1 587.6,404.1 		"/>
		<path id="XMLID_154_" class="st18" d="M676.5,317.8h-36.7l-73.3,46.7l62,39.5h189.3c13.3,0,25.3-4.8,34-12.6
			c6-5.4,10.5-12.3,12.6-19.9L676.5,317.8z"/>
		<path id="XMLID_153_" class="st18" d="M851.8,380.1c-8.7,7.8-20.7,12.6-34,12.6H535.8v11.3h282.1c13.3,0,25.3-4.8,34-12.6
			c8.7-7.8,14.1-18.6,14.1-30.5c0-1.9-0.2-3.8-0.4-5.7C864.1,364.9,859.1,373.6,851.8,380.1z"/>
		<path id="XMLID_122_" class="st18" d="M817.9,317.8h-15.2c26.5,0,48.1,19.3,48.1,43.1c0,11.9-5.4,22.7-14.1,30.5
			c-8.7,7.8-20.7,12.6-34,12.6h15.2c13.3,0,25.3-4.8,34-12.6c8.7-7.8,14.1-18.6,14.1-30.5C865.9,337.1,844.4,317.8,817.9,317.8z"/>
		<path id="XMLID_63_" class="st9" d="M817.9,404.1H535.8v-19.9l104-66.3h178c26.5,0,48.1,19.3,48.1,43.1c0,11.9-5.4,22.7-14.1,30.5
			C843.2,399.3,831.1,404.1,817.9,404.1z"/>
		<path id="XMLID_139_" class="st17" d="M817.9,404.1H643.4l-107.6-68.6v-17.6h111.6L861.5,379c-2.4,4.7-5.7,8.9-9.7,12.5
			C843.2,399.3,831.1,404.1,817.9,404.1z"/>
		<path id="XMLID_2_" class="st17" d="M817.9,404.1H643.4l-107.6-68.6v-17.6h111.6L861.5,379c-2.4,4.7-5.7,8.9-9.7,12.5
			C843.2,399.3,831.1,404.1,817.9,404.1z"/>
		<polygon id="XMLID_155_" class="st18" points="588.4,317.8 535.8,317.8 535.8,335.5 559.7,350.7 		"/>
		<path id="XMLID_121_" class="st18" d="M848.5,375.3c-1.4,1.7-3,3.4-4.7,4.9c-8.7,7.8-20.7,12.6-34,12.6H635.4l-99.6-63.5v6.2
			l107.6,68.6h174.4c13.3,0,25.3-4.8,34-12.6c4-3.6,7.3-7.8,9.7-12.5L848.5,375.3z"/>
		<path id="XMLID_71_" class="st9" d="M817.9,404.1H643.4l-107.6-68.6v-17.6h111.6L861.5,379c-2.4,4.7-5.7,8.9-9.7,12.5
			C843.2,399.3,831.1,404.1,817.9,404.1z"/>
		<path id="XMLID_64_" class="st9" d="M463.4,247.9c-1.3,0.2-2.6,0.5-3.8,0.8C460.8,248.4,462.1,248.1,463.4,247.9z"/>
		<path id="XMLID_65_" class="st9" d="M452.2,251.2c1.2-0.5,2.4-1,3.6-1.4C454.6,250.3,453.4,250.7,452.2,251.2z"/>
		<path id="XMLID_66_" class="st9" d="M422.5,283.1c4.9-14.4,15.7-26,29.6-31.9C438.3,257.1,427.4,268.7,422.5,283.1z"/>
		<path id="XMLID_68_" class="st9" d="M422.5,317.1c0.6,1.6,1.2,3.3,1.9,4.8C423.7,320.4,423.1,318.8,422.5,317.1z"/>
		<path id="XMLID_69_" class="st9" d="M452.2,349c-12.3-5.2-22.2-14.9-27.7-27.1C430,334.1,439.9,343.8,452.2,349z"/>
		<path id="XMLID_50_" class="st9" d="M463.4,474c-1.3-0.2-2.6-0.5-3.8-0.8C460.8,473.5,462.1,473.8,463.4,474z"/>
		<path id="XMLID_49_" class="st9" d="M452.2,470.7c1.2,0.5,2.4,1,3.6,1.4C454.6,471.6,453.4,471.2,452.2,470.7z"/>
		<path id="XMLID_48_" class="st9" d="M422.5,438.8c4.9,14.4,15.7,26,29.6,31.9C438.3,464.8,427.4,453.2,422.5,438.8z"/>
		<path id="XMLID_45_" class="st9" d="M422.5,404.8c0.6-1.6,1.2-3.3,1.9-4.8C423.7,401.5,423.1,403.1,422.5,404.8z"/>
		<path id="XMLID_44_" class="st9" d="M452.2,372.9c-12.3,5.2-22.2,14.9-27.7,27.1C430,387.8,439.9,378.1,452.2,372.9z"/>
		<circle id="XMLID_141_" class="st10" cx="652.9" cy="360.9" r="10.3"/>
		<circle id="XMLID_30_" class="st9" cx="652.9" cy="360.9" r="10.3"/>
		<path id="XMLID_136_" class="st19" d="M543.8,368.7h-70.9c-6.4,0-12.6,1.1-18.2,3.2c-0.8,0.3-1.6,0.6-2.4,1c0,0,0,0,0,0
			c-12.3,5.2-22.2,14.9-27.7,27.1c0,0,0,0,0,0c-0.7,1.6-1.3,3.2-1.9,4.8c-0.3,0.8-0.5,1.6-0.8,2.5c-0.1,0.4-0.2,0.8-0.3,1.3
			c-0.3,1.3-0.6,2.6-0.8,3.9c-0.5,3.1-0.8,6.2-0.8,9.4c0,3.2,0.3,6.3,0.8,9.4c0.2,1.3,0.5,2.6,0.8,3.9c0.1,0.4,0.2,0.9,0.3,1.3
			c0.2,0.8,0.5,1.7,0.8,2.5c0,0,0,0,0,0c4.9,14.4,15.8,26,29.6,31.9c0,0,0,0,0,0c1.2,0.5,2.4,1,3.6,1.4c0,0,0,0,0,0
			c0.8,0.3,1.7,0.5,2.5,0.8c0.4,0.1,0.9,0.2,1.3,0.3c1.3,0.3,2.5,0.6,3.8,0.8c3.1,0.5,6.2,0.8,9.4,0.8c16.8,0,31.8-7.9,41.6-20.1
			c7.4-9.4,18.3-15.3,30.2-17.1l33.8-5l10.4-12.1L543.8,368.7z M472.8,447.6c-14.2,0-25.8-11.5-25.8-25.8s11.5-25.8,25.8-25.8
			c14.2,0,25.8,11.5,25.8,25.8S487.1,447.6,472.8,447.6z"/>
		<g id="XMLID_160_" class="st20">
			<path id="XMLID_161_" class="st19" d="M447,421.8c0-11.6,7.7-21.5,18.3-24.7c-2.4-0.7-4.9-1.1-7.5-1.1
				c-14.2,0-25.8,11.5-25.8,25.8s11.5,25.8,25.8,25.8c2.6,0,5.2-0.4,7.5-1.1C454.7,443.2,447,433.4,447,421.8z"/>
			<path id="XMLID_162_" class="st19" d="M543.8,368.7h-15.1l44.9,51.8l-10.4,12.1l-33.8,5c-11.8,1.8-22.7,7.7-30.2,17.1
				c-8.3,10.4-20.3,17.6-34.1,19.6c2.5,0.4,5,0.5,7.6,0.5c16.8,0,31.8-7.9,41.6-20.1c7.4-9.4,18.3-15.3,30.2-17.1l33.8-5l10.4-12.1
				L543.8,368.7z"/>
		</g>
		<g id="XMLID_150_">
			<path id="XMLID_151_" class="st19" d="M507.4,425.8c0-12.1-8.4-22.3-19.6-25c6.6,4.7,10.9,12.4,10.9,21
				c0,14.2-11.5,25.8-25.8,25.8c-2.1,0-4.2-0.3-6.2-0.8c4.2,3,9.4,4.8,14.9,4.8C495.8,451.6,507.4,440,507.4,425.8z"/>
			<path id="XMLID_152_" class="st19" d="M431.3,442.8C431.3,442.8,431.3,442.8,431.3,442.8c-0.3-0.8-0.5-1.7-0.8-2.5
				c-0.1-0.4-0.2-0.8-0.3-1.3c-0.3-1.3-0.6-2.5-0.8-3.9c-0.5-3-0.8-6.2-0.8-9.4c0-3.2,0.3-6.3,0.8-9.4c0.2-1.3,0.5-2.6,0.8-3.9
				c0.1-0.4,0.2-0.8,0.3-1.3c0.2-0.8,0.5-1.7,0.8-2.5c0.6-1.6,1.2-3.3,1.9-4.8c0,0,0,0,0,0c5.5-12.1,15.4-21.8,27.7-27.1
				c0,0,0,0,0,0c0.8-0.3,1.6-0.6,2.4-1c5.7-2.1,11.8-3.2,18.2-3.2h65.7l-3.5-4h-70.9c-6.4,0-12.6,1.1-18.2,3.2
				c-0.8,0.3-1.6,0.6-2.4,1c0,0,0,0,0,0c-12.3,5.2-22.2,14.9-27.7,27.1c0,0,0,0,0,0c-0.7,1.6-1.3,3.2-1.9,4.8
				c-0.3,0.8-0.5,1.6-0.8,2.5c-0.1,0.4-0.2,0.8-0.3,1.3c-0.3,1.3-0.6,2.6-0.8,3.9c-0.5,3.1-0.8,6.2-0.8,9.4c0,3.2,0.3,6.3,0.8,9.4
				c0.2,1.3,0.5,2.6,0.8,3.9c0.1,0.4,0.2,0.9,0.3,1.3c0.2,0.8,0.5,1.7,0.8,2.5c0,0,0,0,0,0c4.9,14.4,15.8,26,29.6,31.9c0,0,0,0,0,0
				c1,0.4,2,0.8,3,1.2C444.1,465.4,435.5,455.1,431.3,442.8z"/>
		</g>
		<path id="XMLID_135_" class="st9" d="M543.8,368.7h-70.9c-6.4,0-12.6,1.1-18.2,3.2c-0.8,0.3-1.6,0.6-2.4,1c0,0,0,0,0,0
			c-12.3,5.2-22.2,14.9-27.7,27.1c0,0,0,0,0,0c-0.7,1.6-1.3,3.2-1.9,4.8c-0.3,0.8-0.5,1.6-0.8,2.5c-0.1,0.4-0.2,0.8-0.3,1.3
			c-0.3,1.3-0.6,2.6-0.8,3.9c-0.5,3.1-0.8,6.2-0.8,9.4c0,3.2,0.3,6.3,0.8,9.4c0.2,1.3,0.5,2.6,0.8,3.9c0.1,0.4,0.2,0.9,0.3,1.3
			c0.2,0.8,0.5,1.7,0.8,2.5c0,0,0,0,0,0c4.9,14.4,15.8,26,29.6,31.9c0,0,0,0,0,0c1.2,0.5,2.4,1,3.6,1.4c0,0,0,0,0,0
			c0.8,0.3,1.7,0.5,2.5,0.8c0.4,0.1,3.8,1,5.1,1.2c3.1,0.5,6.2,0.8,9.4,0.8c16.8,0,31.8-7.9,41.6-20.1c7.4-9.4,18.3-15.3,30.2-17.1
			l33.8-5l10.4-12.1L543.8,368.7z M472.8,447.6c-14.2,0-25.8-11.5-25.8-25.8s11.5-25.8,25.8-25.8c14.2,0,25.8,11.5,25.8,25.8
			S487.1,447.6,472.8,447.6z"/>
		<path id="XMLID_33_" class="st19" d="M578.3,289.3l-33.8-5c-11.8-1.8-22.7-7.7-30.2-17.1c-9.7-12.2-24.7-20.1-41.6-20.1
			c-3.2,0-6.3,0.3-9.4,0.8c-1.3,0.2-2.6,0.5-3.8,0.8c-0.4,0.1-0.9,0.2-1.3,0.3c-0.8,0.2-1.7,0.5-2.5,0.8c0,0,0,0,0,0
			c-1.2,0.4-2.4,0.9-3.6,1.4c0,0,0,0,0,0c-13.9,5.9-24.7,17.5-29.6,31.9c0,0,0,0,0,0c-0.3,0.8-0.5,1.6-0.8,2.5
			c-0.1,0.4-0.2,0.8-0.3,1.3c-0.3,1.3-0.6,2.5-0.8,3.9c-0.5,3-0.8,6.2-0.8,9.4c0,3.2,0.3,6.3,0.8,9.4c0.2,1.3,0.5,2.6,0.8,3.9
			c0.1,0.4,0.2,0.8,0.3,1.3c0.2,0.8,0.5,1.7,0.8,2.5c0.6,1.6,1.2,3.3,1.9,4.8c0,0,0,0,0,0c5.5,12.1,15.4,21.8,27.7,27.1c0,0,0,0,0,0
			c0.8,0.3,1.6,0.6,2.4,1c5.7,2.1,11.8,3.2,18.2,3.2h70.9l44.9-51.8L578.3,289.3z M472.8,325.9c-14.2,0-25.8-11.5-25.8-25.8
			c0-14.2,11.5-25.8,25.8-25.8c14.2,0,25.8,11.5,25.8,25.8C498.6,314.4,487.1,325.9,472.8,325.9z"/>
		<g id="XMLID_163_" class="st20">
			<path id="XMLID_164_" class="st19" d="M578.3,289.3l-33.8-5c-11.8-1.8-22.7-7.7-30.2-17.1c-9.7-12.2-24.7-20.1-41.6-20.1
				c0,0,0,0,0,0c11.5,2.9,21.5,9.5,28.6,18.5c7.4,9.4,18.3,15.3,30.2,17.1l33.8,5l10.4,12.1l-44.9,51.8h-70.9c0,0,0,0,0,0
				c4.2,1,8.5,1.6,13,1.6h70.9l44.9-51.8L578.3,289.3z"/>
			<path id="XMLID_165_" class="st19" d="M469.4,274.6c-3-1.2-6.2-1.8-9.6-1.8c-14.2,0-25.8,11.5-25.8,25.8
				c0,14.2,11.5,25.8,25.8,25.8c1.2,0,2.3-0.1,3.4-0.2c-9.5-3.8-16.2-13.1-16.2-23.9C447,287,456.8,276.2,469.4,274.6z"/>
		</g>
		<g id="XMLID_123_">
			<path id="XMLID_124_" class="st19" d="M509.4,305.5c0-12.2-8.5-22.4-19.9-25.1c5.6,4.7,9.1,11.8,9.1,19.7
				c0,14.2-11.5,25.8-25.8,25.8c-2,0-4-0.2-5.9-0.7c4.5,3.8,10.3,6.1,16.7,6.1C497.8,331.3,509.4,319.8,509.4,305.5z"/>
			<path id="XMLID_148_" class="st19" d="M555.3,289.7l26.8,4l-3.7-4.4l-33.8-5c-3.2-0.5-6.3-1.3-9.3-2.3
				C541.2,285.9,548.1,288.6,555.3,289.7z"/>
			<path id="XMLID_149_" class="st19" d="M435.2,327.4C435.2,327.4,435.2,327.4,435.2,327.4c-0.7-1.6-1.3-3.2-1.9-4.8
				c-0.3-0.8-0.5-1.6-0.8-2.5c-0.1-0.4-0.2-0.8-0.3-1.3c-0.3-1.3-0.6-2.6-0.8-3.9c-0.5-3.1-0.8-6.2-0.8-9.4c0-3.2,0.3-6.3,0.8-9.4
				c0.2-1.3,0.5-2.6,0.8-3.9c0.1-0.4,0.2-0.9,0.3-1.3c0.2-0.8,0.5-1.7,0.8-2.5c0,0,0,0,0,0c4.9-14.4,15.8-26,29.6-31.9c0,0,0,0,0,0
				c1.2-0.5,2.4-1,3.6-1.4c0,0,0,0,0,0c0.8-0.3,1.7-0.5,2.5-0.8c0.4-0.1,0.9-0.2,1.3-0.3c1.3-0.3,2.5-0.6,3.8-0.8
				c3.1-0.5,6.2-0.8,9.4-0.8c6.4,0,12.6,1.2,18.3,3.3c-8.3-5.5-18.3-8.7-29-8.7c-3.2,0-6.3,0.3-9.4,0.8c-1.3,0.2-2.6,0.5-3.8,0.8
				c-0.4,0.1-0.9,0.2-1.3,0.3c-0.8,0.2-1.7,0.5-2.5,0.8c0,0,0,0,0,0c-1.2,0.4-2.4,0.9-3.6,1.4c0,0,0,0,0,0
				c-13.9,5.9-24.7,17.5-29.6,31.9c0,0,0,0,0,0c-0.3,0.8-0.5,1.6-0.8,2.5c-0.1,0.4-0.2,0.8-0.3,1.3c-0.3,1.3-0.6,2.5-0.8,3.9
				c-0.5,3-0.8,6.2-0.8,9.4c0,3.2,0.3,6.3,0.8,9.4c0.2,1.3,0.5,2.6,0.8,3.9c0.1,0.4,0.2,0.8,0.3,1.3c0.2,0.8,0.5,1.7,0.8,2.5
				c0.6,1.6,1.2,3.3,1.9,4.8c0,0,0,0,0,0c5.5,12.1,15.4,21.8,27.7,27.1c0,0,0,0,0,0c0.8,0.3,1.6,0.6,2.4,0.9
				C446.1,344.5,439.4,336.6,435.2,327.4z"/>
		</g>
		<path id="XMLID_51_" class="st9" d="M578.3,289.3l-33.8-5c-11.8-1.8-22.7-7.7-30.2-17.1c-9.7-12.2-24.7-20.1-41.6-20.1
			c-3.2,0-6.3,0.3-9.4,0.8c-1.3,0.2-2.6,0.5-3.8,0.8c-0.4,0.1-0.9,0.2-1.3,0.3c-0.8,0.2-1.7,0.5-2.5,0.8c0,0,0,0,0,0
			c-1.2,0.4-2.4,0.9-3.6,1.4c0,0,0,0,0,0c-13.9,5.9-24.7,17.5-29.6,31.9c0,0,0,0,0,0c-0.3,0.8-0.5,1.6-0.8,2.5
			c-0.1,0.4-0.2,0.8-0.3,1.3c-0.3,1.3-0.6,2.5-0.8,3.9c-0.5,3-0.8,6.2-0.8,9.4c0,3.2,0.3,6.3,0.8,9.4c0.2,1.3,0.5,2.6,0.8,3.9
			c0.1,0.4,0.2,0.8,0.3,1.3c0.2,0.8,0.5,1.7,0.8,2.5c0.6,1.6,1.2,3.3,1.9,4.8c0,0,0,0,0,0c5.5,12.1,15.4,21.8,27.7,27.1c0,0,0,0,0,0
			c0.8,0.3,1.6,0.6,2.4,1c5.7,2.1,11.8,3.2,18.2,3.2h70.9l44.9-51.8L578.3,289.3z M472.8,325.9c-14.2,0-25.8-11.5-25.8-25.8
			c0-14.2,11.5-25.8,25.8-25.8c14.2,0,25.8,11.5,25.8,25.8C498.6,314.4,487.1,325.9,472.8,325.9z"/>
	</g>
</g>
<g>
	<g id="XMLID_81_">
		<rect id="XMLID_106_" x="550.8" y="690" class="st2" width="306.7" height="46.9"/>
		<path id="XMLID_105_" class="st2" d="M797.2,529.6L549.1,709.8l-17.4-24c-13.7-18.9-9.6-45.4,9.4-59.1l213.8-155.4L797.2,529.6z"
			/>
		<rect id="XMLID_104_" x="576.2" y="659.1" class="st2" width="255.9" height="31"/>
		<polygon id="XMLID_102_" class="st2" points="767.2,551.4 781,584 618.9,659.1 657.9,590.5 		"/>
		<circle id="XMLID_98_" class="st2" cx="587.3" cy="674.5" r="31.7"/>
		<circle id="XMLID_95_" class="st2" cx="587.3" cy="674.5" r="16.6"/>
	</g>
	<g id="XMLID_60_">
		<rect id="XMLID_142_" x="531.5" y="673.5" class="st17" width="306.7" height="46.9"/>
		<rect id="XMLID_108_" x="531.5" y="706.2" class="st21" width="306.7" height="14.1"/>
		<polygon id="XMLID_144_" class="st22" points="747.9,534.8 761.7,567.5 599.6,642.5 638.6,574 		"/>
		<polygon id="XMLID_56_" class="st9" points="747.9,534.8 761.7,567.5 599.6,642.5 638.6,574 		"/>
		<rect id="XMLID_54_" x="531.5" y="673.5" class="st9" width="306.7" height="46.9"/>
		<path id="XMLID_143_" class="st23" d="M777.9,513L529.8,693.2l-17.4-24c-13.7-18.9-9.6-45.4,9.4-59.1l213.8-155.4L777.9,513z"/>
		<path id="XMLID_166_" class="st24" d="M526.3,673.1c-13.7-18.9-9.6-45.4,9.4-59.1L739,459.5l-3.5-4.8L521.7,610.1
			c-18.9,13.7-23.1,40.2-9.4,59.1l17.4,24l7.3-5.3L526.3,673.1z"/>
		<polygon id="XMLID_159_" class="st25" points="735.5,454.7 721,465.3 755.7,513 522.1,682.7 529.8,693.2 777.9,513 		"/>
		<path id="XMLID_57_" class="st9" d="M777.9,513L529.8,693.2l-17.4-24c-13.7-18.9-9.6-45.4,9.4-59.1l213.8-155.4L777.9,513z"/>
		<rect id="XMLID_145_" x="556.9" y="642.5" class="st22" width="255.9" height="31"/>
		<rect id="XMLID_34_" x="556.9" y="659.1" class="st21" width="255.9" height="14.4"/>
		<rect id="XMLID_55_" x="556.9" y="642.5" class="st9" width="255.9" height="31"/>
		<circle id="XMLID_146_" class="st22" cx="567.9" cy="658" r="31.7"/>
		<circle id="XMLID_58_" class="st9" cx="567.9" cy="658" r="31.7"/>
		<circle id="XMLID_147_" class="st26" cx="567.9" cy="658" r="16.6"/>
		<circle id="XMLID_59_" class="st9" cx="567.9" cy="658" r="16.6"/>
	</g>
</g>
</svg>
