<?xml version="1.0" encoding="utf-8"?>
<!-- Generator: Adobe Illustrator 23.1.1, SVG Export Plug-In . SVG Version: 6.00 Build 0)  -->
<svg version="1.1" id="Layer_1" xmlns="http://www.w3.org/2000/svg" xmlns:xlink="http://www.w3.org/1999/xlink" x="0px" y="0px"
	 viewBox="0 0 1000 1000" style="enable-background:new 0 0 1000 1000;" xml:space="preserve">
<style type="text/css">
	.st0{fill:#9057EA;}
	.st1{fill:#EEF2F4;}
	.st2{fill:#543889;stroke:#543889;stroke-width:8;stroke-linecap:round;stroke-linejoin:round;stroke-miterlimit:10;}
	.st3{fill:#FFA124;}
	.st4{opacity:0.34;fill:#3F4545;}
	.st5{opacity:0.78;fill:#3F4545;}
	.st6{fill:none;stroke:#1F2120;stroke-width:8;stroke-linecap:round;stroke-linejoin:round;stroke-miterlimit:10;}
	.st7{fill:#B5B4B4;}
	.st8{opacity:0.39;fill:#B5B4B4;}
	.st9{opacity:0.5;fill:#FFFFFF;}
	.st10{fill:#FF1A1A;}
	.st11{opacity:0.63;fill:#E02F2F;}
	.st12{fill:#EA4949;}
	.st13{fill:#E02F2F;}
	.st14{fill:none;stroke:#1F2120;stroke-width:10;stroke-linecap:round;stroke-linejoin:round;stroke-miterlimit:10;}
	.st15{fill:none;stroke:#543889;stroke-width:8;stroke-linecap:round;stroke-linejoin:round;stroke-miterlimit:10;}
	.st16{opacity:0.2;fill:#FF1A1A;}
	.st17{opacity:0.68;fill:#3F4545;}
	.st18{fill:#EAEAEA;}
	.st19{opacity:0.37;fill:#B5B4B4;}
	.st20{fill:#1F2120;}
	.st21{fill:#47A942;}
	.st22{fill:#C4C4C4;}
	.st23{fill:#CCCC00;}
	.st24{fill:#00B3C6;}
	.st25{opacity:0.53;fill:#00B3C6;}
	.st26{fill:#414141;}
	.st27{fill:#FFC41D;}
	.st28{opacity:0.4;fill:#414141;}
</style>
<path id="XMLID_26_" class="st0" d="M992.7,1000H7.3c-4,0-7.3-3.3-7.3-7.3V7.3C0,3.3,3.3,0,7.3,0h985.5c4,0,7.3,3.3,7.3,7.3v985.5
	C1000,996.7,996.7,1000,992.7,1000z"/>
<g>
	<g>
		<g>
			<path class="st1" d="M63.2,959.2c0,2.5-1.2,3.7-2.6,3.7c-1.1,0-1.9-0.5-2.1-1.4c-0.4,0.5-1,0.8-1.8,0.8c-1.5,0-2.6-1.2-2.6-2.8
				c0-1.6,1.1-2.8,2.6-2.8c0.7,0,1.2,0.3,1.6,0.7v-0.5h1.6v3.9c0,0.8,0.3,1.4,1,1.4c0.9,0,1.7-0.9,1.7-3c0-3-2.3-5.3-5.4-5.3
				c-3.1,0-5.6,2.4-5.6,5.7c0,3.3,2.5,5.7,5.9,5.7c1.1,0,2.1-0.2,2.9-0.4v0.6c-0.8,0.3-1.7,0.4-2.9,0.4c-3.7,0-6.5-2.6-6.5-6.2
				c0-3.4,2.7-6.2,6.2-6.2C61.1,953.3,63.2,956.4,63.2,959.2z M58.3,959.5c0-0.8-0.6-1.4-1.3-1.4c-0.8,0-1.3,0.5-1.3,1.4
				c0,0.8,0.6,1.3,1.3,1.3C57.8,960.9,58.3,960.3,58.3,959.5z"/>
		</g>
		<g>
			<path class="st1" d="M69.4,955.1v2c-1.2-0.1-2.6,0.5-2.6,2.4v4.3h-1.9v-8.6h1.9v1.4C67.3,955.5,68.3,955.1,69.4,955.1z"/>
		</g>
		<g>
			<path class="st1" d="M74.6,962.3c1,0,1.8-0.5,2.2-1.1l1.5,0.9c-0.8,1.2-2.1,1.9-3.8,1.9c-2.8,0-4.7-1.9-4.7-4.5
				c0-2.5,1.8-4.5,4.5-4.5c2.6,0,4.3,2.1,4.3,4.5c0,0.3,0,0.5-0.1,0.8h-6.8C72.1,961.6,73.2,962.3,74.6,962.3z M76.9,958.8
				c-0.3-1.5-1.3-2.1-2.5-2.1c-1.4,0-2.3,0.8-2.6,2.1H76.9z"/>
		</g>
		<g>
			<path class="st1" d="M88.9,955.2v8.6h-1.9v-1.2c-0.7,0.9-1.7,1.5-3,1.5c-2.3,0-4.3-2-4.3-4.5c0-2.6,1.9-4.5,4.3-4.5
				c1.3,0,2.3,0.5,3,1.4v-1.2H88.9z M87.1,959.5c0-1.6-1.2-2.7-2.7-2.7c-1.5,0-2.7,1.1-2.7,2.7c0,1.6,1.2,2.7,2.7,2.7
				C85.9,962.3,87.1,961.1,87.1,959.5z"/>
		</g>
		<g>
			<path class="st1" d="M91.1,951.3H93v12.5h-1.9V951.3z"/>
		</g>
		<g>
			<path class="st1" d="M102.9,955.2l-3.3,8.6h-2.1l-3.3-8.6h2l2.4,6.5l2.4-6.5H102.9z"/>
		</g>
		<g>
			<path class="st1" d="M104.2,955.2h1.9v8.9c0,2.4-1.2,3.5-3.5,3.3v-1.8c1.1,0.1,1.7-0.3,1.7-1.5V955.2z M104,952.8
				c0-0.7,0.5-1.2,1.2-1.2c0.7,0,1.2,0.5,1.2,1.2c0,0.6-0.5,1.2-1.2,1.2C104.5,954,104,953.4,104,952.8z"/>
		</g>
		<g>
			<path class="st1" d="M116,955.2l-3.3,8.8c-0.8,2.2-2.2,3.3-4.2,3.2v-1.7c1.2,0.1,1.9-0.5,2.3-1.7l0.1-0.2l-3.6-8.4h2l2.6,6.2
				l2.2-6.2H116z"/>
		</g>
	</g>
	<g>
		<path class="st1" d="M211.9,938.7c0,2.1-1.5,3.8-3.6,3.8h-3v-7.6h3C210.4,934.9,211.9,936.6,211.9,938.7z M210.9,938.7
			c0-1.6-1.1-2.9-2.6-2.9h-2v5.7h2C209.8,941.6,210.9,940.3,210.9,938.7z"/>
		<path class="st1" d="M219.5,940.8h-3.4l-0.6,1.7h-1.1l2.8-7.6h1.1l2.8,7.6h-1.1L219.5,940.8z M219.2,939.9l-1.4-3.8l-1.4,3.8
			H219.2z"/>
		<path class="st1" d="M226.4,939.4v3.1h-1v-3.1l-2.7-4.5h1.1l2.1,3.6l2.1-3.6h1.1L226.4,939.4z"/>
		<path class="st1" d="M241.5,934.9v0.9l-2.8,6.7h-1.1l2.8-6.7h-3.7v-1H241.5z"/>
		<path class="st1" d="M249.6,940.3c0,1.5-1.2,2.4-2.6,2.4c-1.1,0-2.1-0.5-2.5-1.5l0.9-0.5c0.2,0.7,0.8,1.1,1.7,1.1
			c0.9,0,1.6-0.5,1.6-1.4c0-0.9-0.7-1.4-1.6-1.4h-0.3l-0.4-0.6l1.8-2.4h-3.4v-0.9h4.6v0.9l-1.7,2.2
			C248.7,938.2,249.6,939,249.6,940.3z"/>
	</g>
	<g>
		<path class="st1" d="M58.9,938.7c0,2.1-1.5,3.8-3.6,3.8h-3v-7.6h3C57.4,934.9,58.9,936.6,58.9,938.7z M57.9,938.7
			c0-1.6-1.1-2.9-2.6-2.9h-2v5.7h2C56.8,941.6,57.9,940.3,57.9,938.7z"/>
		<path class="st1" d="M67,941.6v1h-4.6v-7.6h4.5v1h-3.5v2.3h3.2v0.9h-3.2v2.4H67z"/>
		<path class="st1" d="M70,940.8l0.9-0.5c0.3,0.8,0.9,1.4,2,1.4c1.1,0,1.6-0.5,1.6-1.2c0-0.8-0.7-1-1.8-1.4
			c-1.2-0.4-2.4-0.8-2.4-2.2c0-1.4,1.1-2.2,2.4-2.2c1.3,0,2.2,0.7,2.6,1.7l-0.8,0.5c-0.3-0.7-0.8-1.2-1.7-1.2
			c-0.8,0-1.4,0.4-1.4,1.1c0,0.7,0.5,1,1.6,1.3c1.3,0.4,2.6,0.8,2.6,2.3c0,1.3-1.1,2.2-2.6,2.2C71.5,942.7,70.4,941.9,70,940.8z"/>
		<path class="st1" d="M80,934.9v7.6h-1v-7.6H80z"/>
		<path class="st1" d="M91.3,939.2c0,1.9-1.4,3.5-3.7,3.5c-2.4,0-4-1.8-4-4c0-2.2,1.7-4,4-4c1.4,0,2.7,0.8,3.3,1.8l-0.9,0.5
			c-0.4-0.8-1.4-1.4-2.4-1.4c-1.8,0-3,1.3-3,3c0,1.7,1.2,3,3,3c1.6,0,2.5-0.9,2.7-2h-2.8v-0.9h3.8V939.2z"/>
		<path class="st1" d="M100.6,934.9v7.6h-0.8l-3.9-5.7v5.7h-1v-7.6h0.8l3.9,5.7v-5.7H100.6z"/>
		<path class="st1" d="M109.1,941.6v1h-4.6v-7.6h4.5v1h-3.5v2.3h3.2v0.9h-3.2v2.4H109.1z"/>
		<path class="st1" d="M119.2,938.7c0,2.1-1.5,3.8-3.6,3.8h-3v-7.6h3C117.6,934.9,119.2,936.6,119.2,938.7z M118.2,938.7
			c0-1.6-1.1-2.9-2.6-2.9h-2v5.7h2C117.1,941.6,118.2,940.3,118.2,938.7z"/>
		<path class="st1" d="M133.2,940.4c0,1.2-1,2.2-2.2,2.2h-3.3v-7.6h3c1.2,0,2.1,0.9,2.1,2.1c0,0.7-0.3,1.2-0.8,1.6
			C132.7,938.9,133.2,939.5,133.2,940.4z M128.7,935.8v2.3h2c0.6,0,1.1-0.5,1.1-1.2c0-0.6-0.5-1.2-1.1-1.2H128.7z M132.2,940.3
			c0-0.7-0.5-1.2-1.2-1.2h-2.3v2.5h2.3C131.7,941.6,132.2,941,132.2,940.3z"/>
		<path class="st1" d="M139.4,939.4v3.1h-1v-3.1l-2.7-4.5h1.1l2.1,3.6l2.1-3.6h1.1L139.4,939.4z"/>
	</g>
	<g>
		<path class="st1" d="M204.6,951.9h2.1l2.6,9.7l2.8-9.7h1.9l2.8,9.7l2.6-9.7h2.1l-3.5,12.4h-2.4l-2.6-9l-2.6,9h-2.4L204.6,951.9z"
			/>
		<path class="st1" d="M226.9,955.3v2.1c-1.3-0.1-2.7,0.5-2.7,2.5v4.5h-1.9v-8.9h1.9v1.5C224.8,955.7,225.8,955.3,226.9,955.3z"/>
		<path class="st1" d="M228.1,952.9c0-0.7,0.5-1.2,1.2-1.2c0.7,0,1.2,0.5,1.2,1.2c0,0.7-0.5,1.2-1.2,1.2
			C228.6,954.1,228.1,953.6,228.1,952.9z M228.4,955.4h1.9v8.9h-1.9V955.4z"/>
		<path class="st1" d="M235.2,957.3v4.2c0,1.1,0.7,1.1,2.2,1v1.7c-2.9,0.4-4.1-0.5-4.1-2.8v-4.2h-1.6v-1.8h1.6v-1.9l1.9-0.6v2.5h2.2
			v1.8H235.2z"/>
		<path class="st1" d="M238.9,952.9c0-0.7,0.5-1.2,1.2-1.2c0.7,0,1.2,0.5,1.2,1.2c0,0.7-0.5,1.2-1.2,1.2
			C239.5,954.1,238.9,953.6,238.9,952.9z M239.2,955.4h1.9v8.9h-1.9V955.4z"/>
		<path class="st1" d="M251.3,958.9v5.4h-1.9v-5.2c0-1.3-0.8-2.1-2-2.1c-1.3,0-2.2,0.7-2.2,2.5v4.7h-1.9v-8.9h1.9v1.1
			c0.6-0.9,1.5-1.4,2.7-1.4C249.9,955.2,251.3,956.6,251.3,958.9z"/>
		<path class="st1" d="M262.3,955.4v8.4c0,2.8-2.2,4.2-4.5,4.2c-1.9,0-3.5-0.7-4.2-2.1l1.6-1c0.4,0.8,1,1.4,2.6,1.4
			c1.6,0,2.6-0.9,2.6-2.4v-1.1c-0.7,1-1.7,1.5-3.1,1.5c-2.5,0-4.5-2-4.5-4.6s2-4.6,4.5-4.6c1.4,0,2.4,0.6,3.1,1.5v-1.3H262.3z
			 M260.4,959.8c0-1.6-1.2-2.8-2.8-2.8c-1.6,0-2.8,1.2-2.8,2.8s1.2,2.8,2.8,2.8C259.2,962.6,260.4,961.4,260.4,959.8z"/>
		<path class="st1" d="M277.2,953.9h-3.5v10.4h-2v-10.4h-3.5v-1.9h9V953.9z"/>
		<path class="st1" d="M276.5,959.9c0-2.6,2.1-4.7,4.7-4.7c2.6,0,4.7,2,4.7,4.7c0,2.6-2.1,4.7-4.7,4.7
			C278.5,964.5,276.5,962.5,276.5,959.9z M283.9,959.9c0-1.6-1.2-2.8-2.8-2.8s-2.8,1.2-2.8,2.8c0,1.6,1.2,2.8,2.8,2.8
			S283.9,961.5,283.9,959.9z"/>
		<path class="st1" d="M287,959.9c0-2.6,2.1-4.7,4.7-4.7c2.6,0,4.7,2,4.7,4.7c0,2.6-2.1,4.7-4.7,4.7
			C289.1,964.5,287,962.5,287,959.9z M294.5,959.9c0-1.6-1.2-2.8-2.8-2.8s-2.8,1.2-2.8,2.8c0,1.6,1.2,2.8,2.8,2.8
			S294.5,961.5,294.5,959.9z"/>
		<path class="st1" d="M298.1,951.4h1.9v12.9h-1.9V951.4z"/>
	</g>
	<g>
		<g>
			<g>
				<path class="st1" d="M846.1,938.7c0,2.1-1.5,3.8-3.6,3.8h-3v-7.6h3C844.6,934.9,846.1,936.6,846.1,938.7z M845.2,938.7
					c0-1.6-1.1-2.9-2.6-2.9h-2v5.7h2C844.1,941.6,845.2,940.3,845.2,938.7z"/>
			</g>
			<g>
				<path class="st1" d="M849.3,938.7c0-2.2,1.7-4,3.9-4c2.2,0,4,1.8,4,4c0,2.2-1.7,4-4,4C851,942.7,849.3,940.9,849.3,938.7z
					 M856.1,938.7c0-1.7-1.3-3-2.9-3c-1.7,0-2.9,1.3-2.9,3c0,1.7,1.3,3,2.9,3C854.9,941.7,856.1,940.4,856.1,938.7z"/>
			</g>
			<g>
				<path class="st1" d="M859.8,934.9h1.1l1.7,6.3l1.9-6.3h1l1.9,6.3l1.7-6.3h1.1l-2.2,7.6h-1.2l-1.8-6.1l-1.8,6.1H862L859.8,934.9z
					"/>
			</g>
			<g>
				<path class="st1" d="M879.3,934.9v7.6h-0.8l-3.9-5.7v5.7h-1v-7.6h0.8l3.9,5.7v-5.7H879.3z"/>
			</g>
			<g>
				<path class="st1" d="M887.5,941.6v1h-4.3v-7.6h1v6.7H887.5z"/>
			</g>
			<g>
				<path class="st1" d="M889.9,938.7c0-2.2,1.7-4,3.9-4c2.2,0,4,1.8,4,4c0,2.2-1.7,4-4,4C891.6,942.7,889.9,940.9,889.9,938.7z
					 M896.8,938.7c0-1.7-1.3-3-2.9-3c-1.7,0-2.9,1.3-2.9,3c0,1.7,1.3,3,2.9,3C895.5,941.7,896.8,940.4,896.8,938.7z"/>
			</g>
			<g>
				<path class="st1" d="M905.4,940.8H902l-0.6,1.7h-1.1l2.8-7.6h1.1l2.8,7.6H906L905.4,940.8z M905.1,939.9l-1.4-3.8l-1.4,3.8
					H905.1z"/>
			</g>
			<g>
				<path class="st1" d="M916.9,938.7c0,2.1-1.5,3.8-3.6,3.8h-3v-7.6h3C915.4,934.9,916.9,936.6,916.9,938.7z M915.9,938.7
					c0-1.6-1.1-2.9-2.6-2.9h-2v5.7h2C914.9,941.6,915.9,940.3,915.9,938.7z"/>
			</g>
			<g>
				<path class="st1" d="M926.5,935.8v2.5h3.2v1h-3.2v3.2h-1v-7.6h4.4v1H926.5z"/>
			</g>
			<g>
				<path class="st1" d="M936.2,939.6h-1.8v2.9h-1v-7.6h3c1.3,0,2.4,1.1,2.4,2.4c0,1-0.7,1.9-1.6,2.2l1.8,3.1h-1.1L936.2,939.6z
					 M934.4,938.7h2c0.8,0,1.4-0.6,1.4-1.4c0-0.8-0.6-1.4-1.4-1.4h-2V938.7z"/>
			</g>
			<g>
				<path class="st1" d="M941.9,938.7c0-2.2,1.7-4,3.9-4c2.2,0,4,1.8,4,4c0,2.2-1.7,4-4,4C943.6,942.7,941.9,940.9,941.9,938.7z
					 M948.8,938.7c0-1.7-1.3-3-2.9-3c-1.7,0-2.9,1.3-2.9,3c0,1.7,1.3,3,2.9,3C947.5,941.7,948.8,940.4,948.8,938.7z"/>
			</g>
			<g>
				<path class="st1" d="M960.4,942.5h-1v-6l-2.5,4.2h-0.1l-2.5-4.1v5.9h-1v-7.6h1.1l2.4,4l2.4-4h1.1V942.5z"/>
			</g>
		</g>
		<g>
			<g>
				<path class="st1" d="M839.3,952.9c0-0.7,0.5-1.2,1.2-1.2c0.7,0,1.2,0.5,1.2,1.2c0,0.7-0.5,1.2-1.2,1.2
					C839.9,954.1,839.3,953.6,839.3,952.9z M839.6,955.4h1.9v8.9h-1.9V955.4z"/>
			</g>
			<g>
				<path class="st1" d="M843.7,951.4h1.9v12.9h-1.9V951.4z"/>
			</g>
			<g>
				<path class="st1" d="M847.8,951.4h1.9v12.9h-1.9V951.4z"/>
			</g>
			<g>
				<path class="st1" d="M852,951.4h1.9v12.9H852V951.4z"/>
			</g>
			<g>
				<path class="st1" d="M864,955.4v8.9h-1.9v-1.1c-0.6,0.9-1.5,1.4-2.7,1.4c-2,0-3.4-1.3-3.4-3.6v-5.4h1.9v5.2c0,1.3,0.8,2.1,2,2.1
					c1.3,0,2.2-0.7,2.2-2.5v-4.7H864z"/>
			</g>
			<g>
				<path class="st1" d="M872.6,961.8c0,1.8-1.5,2.7-3.5,2.7c-1.8,0-3-0.8-3.6-2.1l1.6-1c0.3,0.8,1,1.3,2,1.3c0.8,0,1.5-0.3,1.5-1
					c0-1.6-4.8-0.7-4.8-3.9c0-1.7,1.4-2.7,3.2-2.7c1.5,0,2.7,0.7,3.3,1.8l-1.6,0.9c-0.3-0.7-0.9-1-1.7-1c-0.7,0-1.3,0.3-1.3,0.9
					C867.9,959.5,872.6,958.5,872.6,961.8z"/>
			</g>
			<g>
				<path class="st1" d="M876.7,957.3v4.2c0,1.1,0.7,1.1,2.2,1v1.7c-2.9,0.4-4.1-0.5-4.1-2.8v-4.2h-1.6v-1.8h1.6v-1.9l1.9-0.6v2.5
					h2.2v1.8H876.7z"/>
			</g>
			<g>
				<path class="st1" d="M885.4,955.3v2.1c-1.3-0.1-2.7,0.5-2.7,2.5v4.5h-1.9v-8.9h1.9v1.5C883.2,955.7,884.2,955.3,885.4,955.3z"/>
			</g>
			<g>
				<path class="st1" d="M895.3,955.4v8.9h-1.9V963c-0.7,0.9-1.7,1.5-3.1,1.5c-2.4,0-4.4-2-4.4-4.7c0-2.6,2-4.7,4.4-4.7
					c1.4,0,2.4,0.6,3.1,1.5v-1.3H895.3z M893.4,959.9c0-1.6-1.2-2.8-2.8-2.8c-1.6,0-2.8,1.2-2.8,2.8c0,1.6,1.2,2.8,2.8,2.8
					C892.2,962.7,893.4,961.5,893.4,959.9z"/>
			</g>
			<g>
				<path class="st1" d="M900.3,957.3v4.2c0,1.1,0.7,1.1,2.2,1v1.7c-2.9,0.4-4.1-0.5-4.1-2.8v-4.2h-1.6v-1.8h1.6v-1.9l1.9-0.6v2.5
					h2.2v1.8H900.3z"/>
			</g>
			<g>
				<path class="st1" d="M903.9,952.9c0-0.7,0.5-1.2,1.2-1.2c0.7,0,1.2,0.5,1.2,1.2c0,0.7-0.5,1.2-1.2,1.2
					C904.5,954.1,903.9,953.6,903.9,952.9z M904.2,955.4h1.9v8.9h-1.9V955.4z"/>
			</g>
			<g>
				<path class="st1" d="M907.8,959.9c0-2.6,2.1-4.7,4.7-4.7c2.6,0,4.7,2,4.7,4.7c0,2.6-2.1,4.7-4.7,4.7
					C909.9,964.5,907.8,962.5,907.8,959.9z M915.3,959.9c0-1.6-1.2-2.8-2.8-2.8c-1.6,0-2.8,1.2-2.8,2.8c0,1.6,1.2,2.8,2.8,2.8
					C914.1,962.7,915.3,961.5,915.3,959.9z"/>
			</g>
			<g>
				<path class="st1" d="M927,958.9v5.4h-1.9v-5.2c0-1.3-0.8-2.1-2-2.1c-1.3,0-2.2,0.7-2.2,2.5v4.7h-1.9v-8.9h1.9v1.1
					c0.6-0.9,1.5-1.4,2.7-1.4C925.5,955.2,927,956.6,927,958.9z"/>
			</g>
			<g>
				<path class="st1" d="M935.5,961.8c0,1.8-1.5,2.7-3.5,2.7c-1.8,0-3-0.8-3.6-2.1l1.6-1c0.3,0.8,1,1.3,2,1.3c0.8,0,1.5-0.3,1.5-1
					c0-1.6-4.8-0.7-4.8-3.9c0-1.7,1.4-2.7,3.2-2.7c1.5,0,2.7,0.7,3.3,1.8l-1.6,0.9c-0.3-0.7-0.9-1-1.7-1c-0.7,0-1.3,0.3-1.3,0.9
					C930.7,959.5,935.5,958.5,935.5,961.8z"/>
			</g>
			<g>
				<path class="st1" d="M936.8,963.2c0-0.7,0.6-1.3,1.3-1.3c0.7,0,1.3,0.6,1.3,1.3c0,0.7-0.6,1.3-1.3,1.3
					C937.4,964.5,936.8,963.9,936.8,963.2z"/>
			</g>
			<g>
				<path class="st1" d="M940.3,959.9c0-2.6,2-4.7,4.7-4.7c1.7,0,3.2,0.9,3.9,2.3l-1.6,1c-0.4-0.8-1.3-1.4-2.3-1.4
					c-1.6,0-2.7,1.2-2.7,2.8c0,1.6,1.2,2.8,2.7,2.8c1.1,0,1.9-0.5,2.4-1.4l1.6,0.9c-0.7,1.4-2.2,2.3-4,2.3
					C942.3,964.5,940.3,962.5,940.3,959.9z"/>
			</g>
			<g>
				<path class="st1" d="M949.7,959.9c0-2.6,2.1-4.7,4.7-4.7c2.6,0,4.7,2,4.7,4.7c0,2.6-2.1,4.7-4.7,4.7
					C951.8,964.5,949.7,962.5,949.7,959.9z M957.2,959.9c0-1.6-1.2-2.8-2.8-2.8s-2.8,1.2-2.8,2.8c0,1.6,1.2,2.8,2.8,2.8
					S957.2,961.5,957.2,959.9z"/>
			</g>
		</g>
	</g>
</g>
<g>
	<g id="XMLID_97_">
		<path id="XMLID_91_" class="st2" d="M290.4,780.9h-31.5c-4,0-7.3-3.3-7.3-7.3V395.9h46.1v377.7
			C297.7,777.6,294.5,780.9,290.4,780.9z"/>
		<polygon id="XMLID_89_" class="st2" points="289.3,330.9 260.1,330.9 258.4,395.9 290.9,395.9 		"/>
		<polygon id="XMLID_88_" class="st2" points="280.7,323.9 268.7,323.9 260.1,330.9 289.3,330.9 		"/>
		<rect id="XMLID_87_" x="267.7" y="297.9" class="st2" width="13.9" height="27.2"/>
		<line id="XMLID_85_" class="st2" x1="274.7" y1="279.4" x2="274.7" y2="297"/>
	</g>
	<path id="XMLID_52_" class="st3" d="M278.2,772.9h-31.5c-4,0-7.3-3.3-7.3-7.3V387.9h46.1v377.7
		C285.4,769.6,282.2,772.9,278.2,772.9z"/>
	<path id="XMLID_58_" class="st4" d="M278.2,772.9L278.2,772.9c-4,0-7.3-3.3-7.3-7.3V387.9h14.5v377.7
		C285.4,769.6,282.2,772.9,278.2,772.9z"/>
	<path id="XMLID_57_" class="st5" d="M247.4,772.9h-0.8c-4,0-7.3-3.3-7.3-7.3V387.9h15.3v377.7C254.7,769.6,251.4,772.9,247.4,772.9
		z"/>
	<path id="XMLID_4_" class="st6" d="M278.2,772.9h-31.5c-4,0-7.3-3.3-7.3-7.3V387.9h46.1v377.7C285.4,769.6,282.2,772.9,278.2,772.9
		z"/>
	<polygon id="XMLID_55_" class="st7" points="277,322.9 247.8,322.9 246.1,387.9 278.7,387.9 	"/>
	<polygon id="XMLID_76_" class="st8" points="277,322.9 266.9,322.9 268.6,387.9 278.7,387.9 	"/>
	<polygon id="XMLID_77_" class="st9" points="247.8,322.9 246.1,387.9 256.9,387.9 258.5,322.9 	"/>
	<polygon id="XMLID_6_" class="st6" points="277,322.9 247.8,322.9 246.1,387.9 278.7,387.9 	"/>
	<rect id="XMLID_53_" x="239.3" y="729" class="st10" width="46.1" height="20"/>
	<rect id="XMLID_66_" x="276.1" y="730" class="st11" width="9.4" height="20"/>
	<rect id="XMLID_64_" x="239.3" y="729.2" class="st12" width="17.5" height="20"/>
	<rect id="XMLID_5_" x="239.3" y="729" class="st6" width="46.1" height="20"/>
	<rect id="XMLID_54_" x="239.3" y="426.9" class="st13" width="46.1" height="20"/>
	<rect id="XMLID_62_" x="276.1" y="426.9" class="st11" width="9.4" height="20"/>
	<rect id="XMLID_61_" x="239.3" y="426.9" class="st12" width="17.5" height="20"/>
	<rect id="XMLID_7_" x="239.3" y="426.9" class="st6" width="46.1" height="20"/>
	<polygon id="XMLID_8_" class="st6" points="268.4,315.9 256.4,315.9 247.8,322.9 277,322.9 	"/>
	<rect id="XMLID_56_" x="255.4" y="289.9" class="st7" width="13.9" height="27.2"/>
	<rect id="XMLID_9_" x="255.4" y="289.9" class="st6" width="13.9" height="27.2"/>
	<line id="XMLID_11_" class="st14" x1="262.4" y1="271.4" x2="262.4" y2="289"/>
</g>
<g>
	<g id="XMLID_105_">
		<path id="XMLID_104_" class="st15" d="M448,764.7h6.5c15.8,0,28.7-12.8,28.7-28.7v-136l-9.7,26.3l9.7,14"/>
		<path id="XMLID_102_" class="st2" d="M457.2,669.4c-15.2,0-30.5,0-45.7,0c-9.9-78.6-1.4-224.3,7.5-282.5c10.2,0,20.5,0,30.7,0
			C458.6,445.1,467.1,590.8,457.2,669.4z"/>
		<path id="XMLID_100_" class="st2" d="M465.4,712.6c-6.5,53.4-21.9,85.9-31,85.9c-9.2,0-24.6-32.5-31-85.9
			c-5.1-46.8-3.6-93.7-1.7-140.2c21.8,0,43.6,0,65.5,0C469,618.9,470.4,665.8,465.4,712.6z"/>
		<path id="XMLID_99_" class="st2" d="M457.4,331.4c-14.3-20.3-23.1-60.1-23.1-60.1s-8.7,39.8-23.1,60.1c-0.7,1-0.7,2.2,0,3.2
			c10.2,15.2,13.4,35.3,9.2,52.2h13.9h13.9c-4.3-16.9-1.1-37,9.2-52.2C458.1,333.7,458.1,332.4,457.4,331.4z"/>
	</g>
	<path id="XMLID_15_" class="st6" d="M435,757.7h6.5c15.8,0,28.7-12.8,28.7-28.7v-136l-9.7,26.3l9.7,14"/>
	<path id="XMLID_68_" class="st10" d="M444.2,662.4c-15.2,0-30.5,0-45.7,0c-9.9-78.6-1.4-224.3,7.5-282.5c10.2,0,20.5,0,30.7,0
		C445.6,438.1,454.1,583.8,444.2,662.4z"/>
	<path id="XMLID_98_" class="st16" d="M436.7,379.9c-2.1,0-4.3,0-6.4,0c4.8,61.6,15.1,203.9,5.2,282.5c2.9,0,5.8,0,8.7,0
		C454.1,583.8,445.6,438.1,436.7,379.9z"/>
	<path id="XMLID_73_" class="st17" d="M425.8,657.9c-9.6-76.2-8.7-203.7-4.5-278.1c-6.3,0-9,0-15.4,0
		c-8.9,58.2-17.4,203.9-7.5,282.5c15.2,0,30.5,0,45.7,0c0.2-1.5,0.4-3,0.5-4.5C438.4,657.9,432.1,657.9,425.8,657.9z"/>
	<path id="XMLID_10_" class="st6" d="M444.2,662.4c-15.2,0-30.5,0-45.7,0c-9.9-78.6-1.4-224.3,7.5-282.5c10.2,0,20.5,0,30.7,0
		C445.6,438.1,454.1,583.8,444.2,662.4z"/>
	<path id="XMLID_69_" class="st10" d="M452.4,705.6c-6.5,53.4-21.9,85.9-31,85.9c-9.2,0-24.6-32.5-31-85.9
		c-5.1-46.8-3.6-93.7-1.7-140.2c21.8,0,43.6,0,65.5,0C456,611.9,457.4,658.8,452.4,705.6z"/>
	<path id="XMLID_96_" class="st16" d="M454.1,565.3c-3.7,0-7.4,0-11.1,0c1.9,46.5,3.4,93.4-1.7,140.2c-5.3,43.6-16.5,73.3-25.5,82.7
		c2,2.1,3.9,3.2,5.6,3.2c9.2,0,24.6-32.5,31-85.9C457.4,658.8,456,611.9,454.1,565.3z"/>
	<path id="XMLID_72_" class="st17" d="M390.3,705.6c2.3,19.4,5.9,36,9.9,49.4c19.4-4.1,26.4-69.2,26.4-156.2
		c0-9.3-0.4-24.4-0.7-33.4c-15.3,0-22,0-37.3,0C386.6,611.9,385.2,658.8,390.3,705.6z"/>
	<path id="XMLID_13_" class="st6" d="M452.4,705.6c-6.5,53.4-21.9,85.9-31,85.9c-9.2,0-24.6-32.5-31-85.9
		c-5.1-46.8-3.6-93.7-1.7-140.2c21.8,0,43.6,0,65.5,0C456,611.9,457.4,658.8,452.4,705.6z"/>
	<path id="XMLID_74_" class="st18" d="M444.4,324.4c-14.3-20.3-23.1-60.1-23.1-60.1s-8.7,39.8-23.1,60.1c-0.7,1-0.7,2.2,0,3.2
		c10.2,15.2,13.4,35.3,9.2,52.2h13.9h13.9c-4.3-16.9-1.1-37,9.2-52.2C445.1,326.7,445.1,325.4,444.4,324.4z"/>
	<path id="XMLID_75_" class="st19" d="M444.4,324.4c-14.3-20.3-23.1-60.1-23.1-60.1s-2,9.3-5.8,21.2c4,12.7,9.9,28.4,17.3,38.9
		c0.7,1,0.7,2.2,0,3.2c-10.2,15.2-13.4,35.3-9.2,52.2h11.5c-4.3-16.9-1.1-37,9.2-52.2C445.1,326.7,445.1,325.4,444.4,324.4z"/>
	<path id="XMLID_16_" class="st6" d="M444.4,324.4c-14.3-20.3-23.1-60.1-23.1-60.1s-8.7,39.8-23.1,60.1c-0.7,1-0.7,2.2,0,3.2
		c10.2,15.2,13.4,35.3,9.2,52.2h13.9h13.9c-4.3-16.9-1.1-37,9.2-52.2C445.1,326.7,445.1,325.4,444.4,324.4z"/>
	<line id="XMLID_14_" class="st6" x1="421.3" y1="264.4" x2="421.3" y2="322.1"/>
	<circle id="XMLID_12_" class="st20" cx="421.3" cy="324.3" r="7.8"/>
</g>
<g>
	<g id="XMLID_113_">
		<rect id="XMLID_112_" x="731.5" y="374" class="st2" width="54" height="348.9"/>
		<polygon id="XMLID_111_" class="st2" points="785.5,374 731.5,374 758.5,293.4 		"/>
		<path id="XMLID_110_" class="st2" d="M731.5,722.9h54v17.9c0,11.2-9.1,20.3-20.3,20.3h-13.4c-11.2,0-20.3-9.1-20.3-20.3V722.9z"/>
	</g>
	<rect id="XMLID_126_" x="718.5" y="365" class="st21" width="54" height="348.9"/>
	<rect id="XMLID_22_" x="718.5" y="365" class="st6" width="54" height="348.9"/>
	<rect id="XMLID_128_" x="735.5" y="365" class="st6" width="20" height="348.9"/>
	<polygon id="XMLID_129_" class="st22" points="772.5,365 718.5,365 745.5,284.4 	"/>
	<polygon id="XMLID_23_" class="st6" points="772.5,365 718.5,365 745.5,284.4 	"/>
	<path id="XMLID_130_" class="st22" d="M718.5,713.9h54v17.9c0,11.2-9.1,20.3-20.3,20.3h-13.4c-11.2,0-20.3-9.1-20.3-20.3V713.9z"/>
	<path id="XMLID_24_" class="st6" d="M718.5,713.9h54v17.9c0,11.2-9.1,20.3-20.3,20.3h-13.4c-11.2,0-20.3-9.1-20.3-20.3V713.9z"/>
	<rect id="XMLID_127_" x="718.5" y="678.4" class="st23" width="54" height="35.4"/>
	<rect id="XMLID_25_" x="718.5" y="678.4" class="st6" width="54" height="35.4"/>
	<polygon id="XMLID_29_" class="st20" points="745.5,284.4 734.6,316.9 756.4,316.9 	"/>
</g>
<g>
	<path id="XMLID_109_" class="st2" d="M624.6,776.3h-41c-4.4,0-8-3.6-8-8l-1.5-359h60l-1.5,359C632.6,772.8,629,776.3,624.6,776.3z"
		/>
	<polygon id="XMLID_108_" class="st2" points="629.1,405.4 579.1,405.4 581.4,387.2 626.7,387.2 	"/>
	<polygon id="XMLID_107_" class="st2" points="623.5,387.2 584.6,387.2 587.2,339.4 621,339.4 	"/>
	<polygon id="XMLID_106_" class="st2" points="615.3,339.4 592.5,339.4 592.5,311.1 615.3,291.1 	"/>
	<path id="XMLID_67_" class="st24" d="M611.6,764.3h-41c-4.4,0-8-3.6-8-8l-1.5-359h60l-1.5,359C619.6,760.8,616,764.3,611.6,764.3z"
		/>
	<path id="XMLID_78_" class="st24" d="M582,756.4l-1.5-359h-19.5l1.5,359c0,4.4,3.6,8,8,8H590C585.6,764.3,582,760.8,582,756.4z"/>
	<path id="XMLID_84_" class="st25" d="M600.1,756.4l1.5-359h19.5l-1.5,359c0,4.4-3.6,8-8,8h-19.5
		C596.5,764.3,600.1,760.8,600.1,756.4z"/>
	<path id="XMLID_17_" class="st6" d="M611.6,764.3h-41c-4.4,0-8-3.6-8-8l-1.5-359h60l-1.5,359C619.6,760.8,616,764.3,611.6,764.3z"
		/>
	<polygon id="XMLID_65_" class="st26" points="616.1,397.4 566.1,397.4 568.4,379.2 613.7,379.2 	"/>
	<polygon id="XMLID_18_" class="st6" points="616.1,397.4 566.1,397.4 568.4,379.2 613.7,379.2 	"/>
	<polygon id="XMLID_90_" class="st24" points="610.5,379.2 571.6,379.2 574.2,331.4 608,331.4 	"/>
	<polygon id="XMLID_86_" class="st24" points="574.2,331.4 571.6,379.2 585.2,379.2 585.5,331.4 	"/>
	<polygon id="XMLID_81_" class="st25" points="609,331.4 611.5,379.2 597.9,379.2 596.5,331.4 	"/>
	<polygon id="XMLID_71_" class="st6" points="610.5,379.2 571.6,379.2 574.2,331.4 608,331.4 	"/>
	<polygon id="XMLID_19_" class="st6" points="610.5,379.2 571.6,379.2 574.2,331.4 608,331.4 	"/>
	<polygon id="XMLID_59_" class="st6" points="610.5,379.2 571.6,379.2 574.2,331.4 608,331.4 	"/>
	<polygon id="XMLID_70_" class="st6" points="610.5,379.2 571.6,379.2 574.2,331.4 608,331.4 	"/>
	<polygon id="XMLID_93_" class="st27" points="602.3,331.4 579.5,331.4 579.5,303.1 602.3,283.1 	"/>
	<polygon id="XMLID_20_" class="st6" points="602.3,331.4 579.5,331.4 579.5,303.1 602.3,283.1 	"/>
	<path id="XMLID_21_" class="st26" d="M562.4,731.3l0.1,25c0,4.4,3.6,8,8,8h41c4.4,0,8-3.6,8-8l0.1-25H562.4z"/>
	<path id="XMLID_95_" class="st28" d="M600.3,731.3l-0.1,25c0,4.4-3.6,8-8,8h19.3c4.4,0,8-3.6,8-8l0.1-25H600.3z"/>
	<path id="XMLID_94_" class="st26" d="M582.5,756.4l-0.1-25h-20l0.1,25c0,4.4,3.6,8,8,8h20C586.1,764.3,582.6,760.8,582.5,756.4z"/>
	<path id="XMLID_92_" class="st6" d="M562.4,731.3l0.1,25c0,4.4,3.6,8,8,8h41c4.4,0,8-3.6,8-8l0.1-25H562.4z"/>
</g>
</svg>
