<svg id="aa6a79dc-91b4-4c18-945f-8bd34f390323" data-name="Layer 1" xmlns="http://www.w3.org/2000/svg" width="862.67369" height="714.50889" viewBox="0 0 862.67369 714.50889"><title>decide</title><circle cx="161.31733" cy="27.19468" r="18.13944" fill="#f1f1f1"/><circle cx="244.91174" cy="66.53322" r="11.44272" fill="#f1f1f1"/><circle cx="322.35951" cy="100.95445" r="8.1723" fill="#f1f1f1"/><circle cx="706.7909" cy="27.19468" r="18.13944" fill="#f1f1f1"/><circle cx="623.19648" cy="66.53322" r="11.44272" fill="#f1f1f1"/><circle cx="545.74871" cy="100.95445" r="8.1723" fill="#f1f1f1"/><ellipse cx="442.40081" cy="642.71007" rx="97.11704" ry="11.06397" fill="#f1f1f1"/><polygon points="787.888 581.282 131.511 576.859 138.135 127.046 794.525 136.712 787.888 581.282" fill="#f1f1f1"/><line x1="1.07147" y1="712.78186" x2="861.60222" y2="712.78186" fill="none" stroke="#3f3d56" stroke-miterlimit="10" stroke-width="2"/><line x1="1.07147" y1="1" x2="861.60222" y2="1" fill="none" stroke="#3f3d56" stroke-miterlimit="10" stroke-width="2"/><polygon points="861.674 2.447 539.446 132.578 539.446 576.673 861.674 713 861.674 2.447" fill="#3f3d56" stroke="#3f3d56" stroke-miterlimit="10" stroke-width="2"/><line x1="566.29866" y1="481.65731" x2="797.64134" y2="535.36187" fill="none" stroke="#fff" stroke-miterlimit="10" stroke-width="2"/><line x1="566.29866" y1="446.5428" x2="797.64134" y2="481.65731" fill="none" stroke="#fff" stroke-miterlimit="10" stroke-width="2"/><line x1="566.29866" y1="409.36273" x2="797.64134" y2="434.14944" fill="none" stroke="#fff" stroke-miterlimit="10" stroke-width="2"/><polygon points="768.724 283.285 768.724 336.989 582.823 324.596 582.823 283.285 768.724 283.285" fill="#1dd19f"/><polygon points="768.724 283.285 768.724 336.989 582.823 324.596 582.823 322.53 764.592 332.858 764.592 283.285 768.724 283.285" opacity="0.2"/><polygon points="1 2.447 323.227 132.578 323.227 576.673 1 713 1 2.447" fill="#3f3d56" stroke="#3f3d56" stroke-miterlimit="10" stroke-width="2"/><line x1="296.37504" y1="481.65731" x2="65.03235" y2="535.36187" fill="none" stroke="#fff" stroke-miterlimit="10" stroke-width="2"/><line x1="296.37504" y1="446.5428" x2="65.03235" y2="481.65731" fill="none" stroke="#fff" stroke-miterlimit="10" stroke-width="2"/><line x1="296.37504" y1="409.36273" x2="65.03235" y2="434.14944" fill="none" stroke="#fff" stroke-miterlimit="10" stroke-width="2"/><polygon points="93.95 283.285 93.95 336.989 279.851 324.596 279.851 283.285 93.95 283.285" fill="#1dd19f"/><polygon points="93.95 283.285 93.95 336.989 279.851 324.596 279.851 322.53 98.081 332.858 98.081 283.285 93.95 283.285" opacity="0.2"/><line x1="353.24944" y1="168.53329" x2="514.85876" y2="170.52115" fill="none" stroke="#3f3d56" stroke-miterlimit="10" stroke-width="2"/><polygon points="359.775 176.794 361.158 175.346 354.017 168.545 361.323 161.919 359.977 160.438 351.081 168.509 359.775 176.794" fill="#3f3d56"/><polygon points="508.132 178.619 506.786 177.137 514.091 170.514 506.951 163.71 508.333 162.263 517.028 170.55 508.132 178.619" fill="#3f3d56"/><circle cx="434.05411" cy="169.52723" r="13.52263" fill="#3f3d56"/><path d="M584.63338,692.06887s-3.688,15.98129-2.45866,22.12793,1.22933,19.66928,1.22933,19.66928h3.688v-14.752s9.83464,4.91732,12.2933,12.2933,28.27458,4.91732,29.50391,2.45866-12.2933-7.376-12.2933-7.376l-11.064-33.1919Z" transform="translate(-168.66315 -93)" fill="#2f2e41"/><path d="M576.02807,547.008s6.14665,22.12794,6.14665,30.73324-4.91732,119.245,0,119.245,24.58659,2.45866,25.81592-2.45866-2.45866-50.40252,0-55.31983,19.66928-109.41034,18.44-110.63967S582.17472,523.65071,576.02807,547.008Z" transform="translate(-168.66315 -93)" fill="#2f2e41"/><path d="M573.56941,526.10937s-11.064,29.50391-1.22933,29.50391,15.98129-8.60531,23.35727-6.14665,29.50391-28.27458,29.50391-28.27458Z" transform="translate(-168.66315 -93)" fill="#3f3d56"/><circle cx="451.00612" cy="289.89247" r="19.66927" fill="#ffb9b9"/><path d="M629.50391,389.03911s-8.60531,28.27459-6.14665,31.96257S600,419.77235,600,419.77235s8.60531-23.35726,7.376-28.27458S629.50391,389.03911,629.50391,389.03911Z" transform="translate(-168.66315 -93)" fill="#ffb9b9"/><path d="M615.36662,408.09372s-11.064-3.688-14.752,0-17.21061,90.9704-25.81592,99.5757-14.75195,20.89861-7.376,22.12794,67.61313,8.60531,70.07179,4.91732,1.844-39.95322.61467-48.55852S627.65992,409.32305,615.36662,408.09372Z" transform="translate(-168.66315 -93)" fill="#1dd19f"/><polygon points="436.869 436.797 441.786 449.091 452.85 440.485 451.621 431.88 436.869 436.797" fill="#ffb9b9"/><path d="M600,428.37766s-.61466-15.36662-7.99064,4.30266-23.35727,45.48519-9.83464,65.15447,13.8963,28.25164,20.28394,27.65991,26.43059,6.76132,26.43059,4.30266S605.532,489.22948,605.532,489.22948a22.63166,22.63166,0,0,1,6.14665-19.66927C620.28394,460.9549,615.98129,432.06565,600,428.37766Z" transform="translate(-168.66315 -93)" opacity="0.1"/><path d="M607.99064,413.011s-13.52262-2.45866-20.8986,17.21062-23.35726,45.48519-9.83464,65.15447,20.41662,39.29267,26.80426,38.70094,19.91027-4.27971,19.91027-6.73837-23.35727-40.56788-23.35727-40.56788a22.6317,22.6317,0,0,1,6.14665-19.66927C615.36662,458.49624,623.97193,416.699,607.99064,413.011Z" transform="translate(-168.66315 -93)" fill="#1dd19f"/><path d="M613.57267,353.4583c-10.11449-1.42905-20.0873,4.98055-25.68105,13.52778s-7.62067,18.89334-9.09421,29.00146a34.65445,34.65445,0,0,1-2.08063,8.92582c-2.44482,5.61515-7.98094,9.85512-8.882,15.91276-.57,3.83155.85771,7.63615,1.60348,11.43739,1.981,10.0973-.95418,20.71611-6.33877,29.48459-2.40376,3.91437-5.90786,7.8688-10.49924,8.009l9.62166,1.49156a16.7957,16.7957,0,0,1-7.96258,8.13637,48.7518,48.7518,0,0,0,42.64325-46.4297c.13892-3.48343-.03012-7.22149,1.86212-10.14945,1.63693-2.5329,4.49375-3.93811,7.09-5.47266,8.91987-5.2723,16.37285-14.01437,17.56348-24.30756.52328-4.5243-.16733-9.05161-.346-13.57319-.18827-4.76448,7.8123-7.9801,8.89049-12.54127C633.60118,359.97924,619.93775,354.3576,613.57267,353.4583Z" transform="translate(-168.66315 -93)" fill="#2f2e41"/></svg>