<?xml version="1.0" encoding="UTF-8" standalone="no"?>
<svg
   viewBox="0 0 2500 800"
   version="1.1"
   id="svg186"
   sodipodi:docname="pro-teaser.svg"
   width="2500"
   height="800"
   inkscape:version="1.1.1 (eb90963e84, 2021-10-02)"
   xmlns:inkscape="http://www.inkscape.org/namespaces/inkscape"
   xmlns:sodipodi="http://sodipodi.sourceforge.net/DTD/sodipodi-0.dtd"
   xmlns="http://www.w3.org/2000/svg"
   xmlns:svg="http://www.w3.org/2000/svg"
   xmlns:rdf="http://www.w3.org/1999/02/22-rdf-syntax-ns#"
   xmlns:cc="http://creativecommons.org/ns#"
   xmlns:dc="http://purl.org/dc/elements/1.1/">
  <defs
     id="defs190">
    <mask
       maskUnits="userSpaceOnUse"
       x="188.8"
       y="373.6"
       width="622.5"
       height="343.2"
       id="XMLID_6_">
      <g
         id="XMLID_30_"
         class="st13">
        <rect
           id="XMLID_33_"
           x="232.89999"
           y="428.20001"
           class="st11"
           width="536"
           height="204.39999" />
      </g>
    </mask>
    <filter
       id="Adobe_OpacityMaskFilter"
       filterUnits="userSpaceOnUse"
       x="188.8"
       y="373.60001"
       width="622.5"
       height="343.20001">
      <feColorMatrix
         type="matrix"
         values="1 0 0 0 0  0 1 0 0 0  0 0 1 0 0  0 0 0 1 0"
         id="feColorMatrix58" />
    </filter>
  </defs>
  <sodipodi:namedview
     id="namedview188"
     pagecolor="#ffffff"
     bordercolor="#666666"
     borderopacity="1.0"
     inkscape:pageshadow="2"
     inkscape:pageopacity="0.0"
     inkscape:pagecheckerboard="0"
     showgrid="false"
     inkscape:zoom="0.35800224"
     inkscape:cx="1303.0645"
     inkscape:cy="627.09104"
     inkscape:window-width="1852"
     inkscape:window-height="1016"
     inkscape:window-x="0"
     inkscape:window-y="0"
     inkscape:window-maximized="1"
     inkscape:current-layer="svg186" />
  <title
     id="title2">109-map-location</title>
  <path
     d="m 1560.9616,612.1255 -137.692,86.831 a 56.955,56.955 0 0 1 -47.809,6.048 l -150.931,-48.516 a 56.955,56.955 0 0 0 -48.072,6.215 l -110.5,70.537 a 25.806,25.806 0 0 1 -38.6,-14.736 l -95.36997,-334.34 a 25.807,25.807 0 0 1 11.03,-28.893 l 139.15997,-87.949 a 62.363,62.363 0 0 1 52.4,-6.655 l 146.115,46.968 a 62.365,62.365 0 0 0 52.566,-6.758 l 104.638,-66.589 a 25.807,25.807 0 0 1 38.671,14.693 l 95.355,334.294 a 25.806,25.806 0 0 1 -10.961,28.85 z"
     style="opacity:0.4;fill:#cccdcf"
     id="path6" />
  <path
     d="m 1566.3376,576.6425 -117.578,74.822 a 62.365,62.365 0 0 1 -52.566,6.758 l -146.125,-46.968 a 62.366,62.366 0 0 0 -52.4,6.654 l -126.339,79.849 a 25.806,25.806 0 0 1 -38.6,-14.736 l -95.36897,-334.34 a 25.806,25.806 0 0 1 11.029,-28.893 l 139.15297,-87.953 a 62.365,62.365 0 0 1 52.4,-6.654 l 146.124,46.969 a 62.362,62.362 0 0 0 52.566,-6.759 l 104.638,-66.588 a 25.807,25.807 0 0 1 38.671,14.693 l 95.355,334.292 a 25.807,25.807 0 0 1 -10.959,28.854 z"
     style="fill:#ffffff"
     id="path8" />
  <path
     d="m 1236.0426,573.4615 -21.863,-61.686 -103.319,35.371 -32.307,-93.606 -84.15097,16.748 58.99997,206.834 a 4.335,4.335 0 0 0 4.184,3.137 4.114,4.114 0 0 0 2.251,-0.681 l 120.114,-75.913 c -0.522,-0.611 56.091,-30.204 56.091,-30.204 z"
     style="fill:#eaf4f7"
     id="path10" />
  <path
     d="m 1566.3376,576.6425 -117.578,74.822 a 62.365,62.365 0 0 1 -52.566,6.758 l -146.125,-46.968 a 62.366,62.366 0 0 0 -52.4,6.654 l -126.339,79.849 a 25.806,25.806 0 0 1 -38.6,-14.736 l -95.36897,-334.34 a 25.806,25.806 0 0 1 11.029,-28.893 l 139.15297,-87.953 a 62.365,62.365 0 0 1 52.4,-6.654 l 146.124,46.969 a 62.362,62.362 0 0 0 52.566,-6.759 l 104.638,-66.588 a 25.807,25.807 0 0 1 38.671,14.693 l 95.355,334.292 a 25.807,25.807 0 0 1 -10.959,28.854 z"
     style="fill:none;stroke:#363a5a;stroke-width:6px;stroke-miterlimit:10"
     id="path12" />
  <path
     d="m 1127.5956,535.1105 c 0,0 1.792,-0.467 4.812,-1.349"
     style="fill:none;stroke:#363a5a;stroke-width:4px;stroke-linecap:round;stroke-linejoin:round"
     id="path14" />
  <path
     d="m 1146.9456,529.1075 c 21.234,-7.387 52.394,-20.943 52.768,-36.975 0.5,-21.3 -102.732,-127.866 -47.233,-134.308 185.288,-21.506 102.267,132.6 186.772,129.156 35.7,-1.455 -30.321,-50.539 71.682,-86.018 15.121,-5.26 7.609,-43.716 2.536,-63.822"
     style="fill:none;stroke:#363a5a;stroke-width:4px;stroke-linecap:round;stroke-linejoin:round;stroke-dasharray:10.1761, 15.2642"
     id="path16" />
  <path
     d="m 1411.5086,329.7615 c -0.844,-3.017 -1.4,-4.8 -1.4,-4.8"
     style="fill:none;stroke:#363a5a;stroke-width:4px;stroke-linecap:round;stroke-linejoin:round"
     id="path18" />
  <circle
     cx="1121.1417"
     cy="537.7135"
     r="48.192001"
     style="opacity:0.22;fill:#3dc0cb"
     id="circle20" />
  <circle
     cx="1121.1417"
     cy="537.7135"
     r="27.945999"
     style="fill:#3dc0cb"
     id="circle22" />
  <path
     d="m 1121.1416,509.7675 a 27.9,27.9 0 0 0 -22.158,10.924 27.942,27.942 0 0 1 37.86,40.139 27.946,27.946 0 0 0 -15.7,-51.063 z"
     style="fill:#64c7cf"
     id="path24" />
  <circle
     cx="1121.1417"
     cy="537.7135"
     r="27.945999"
     style="fill:none;stroke:#363a5a;stroke-width:6px;stroke-miterlimit:10"
     id="circle26" />
  <path
     d="m 1133.8766,288.3755 80.153,15.193 -18.407,-32.352 -66.339,-23.145 a 30.94,30.94 0 0 0 -23.645,1.352 l -145.76697,88.543 a 4.325,4.325 0 0 0 -1.839,4.816 l 23.508,82.412 64.08897,-15.847 -11.77,-47.212 z"
     style="fill:#87d5f7;stroke:#259ad6;stroke-width:4px;stroke-linecap:round;stroke-linejoin:round"
     id="path28" />
  <polygon
     points="539.109,554.445 561.222,605.126 511.949,597.049 493.37,542.929 "
     style="fill:#fddcbf;stroke:#ecb072;stroke-width:4px;stroke-linecap:round;stroke-linejoin:round"
     id="polygon30"
     transform="translate(767.52967,-50.464505)" />
  <path
     d="m 1410.9556,340.6455 c -37.157,0 -67.278,-10.776 -67.278,-24.069 0,-13.293 30.121,-24.07 67.278,-24.07 37.157,0 67.277,10.777 67.277,24.07 0,13.293 -30.121,24.069 -67.277,24.069 z"
     style="fill:#eaf4f7"
     id="path32" />
  <polygon
     points="673.948,569.002 664.538,527.486 748.465,490.952 781.62,591.961 645.718,669.193 620.808,598.893 "
     style="fill:#fddcbf;stroke:#ecb072;stroke-width:4px;stroke-linecap:round;stroke-linejoin:round"
     id="polygon34"
     transform="translate(767.52967,-50.464505)" />
  <path
     d="m 1510.0106,199.2165 c 0,-57.8 -46.914,-104.344004 -103.761,-101.642004 -50.9,2.42 -94.292,45.782004 -94.292,98.124004 0,75.717 99,134.1 99,134.1 0,0 99.053,-58.383 99.053,-130.582 z"
     style="fill:#ee4637"
     id="path36" />
  <path
     d="m 1447.1146,300.4995 a 44.189,44.189 0 0 1 -54.6,-0.188 c -29.3,-23.2 -71.677,-65.323 -71.677,-114.86 a 96.3,96.3 0 0 1 19.808,-58.17 c -17.573,17.746 -28.689,41.93 -28.689,68.417 0,75.717 99,134.1 99,134.1 0,0 40.374,-23.8 69.571,-59.8 a 282.957,282.957 0 0 1 -33.413,30.501 z"
     style="fill:#cd3c27"
     id="path38" />
  <path
     d="m 1406.2496,97.574496 a 97.984,97.984 0 0 0 -49.9,16.723004 96.75,96.75 0 0 1 37.234,-9.485 c 56.847,-2.7 103.762,43.841 103.762,101.642 0,56.61 -60.894,104.724 -87.192,122.863 0.515,0.314 0.8,0.484 0.8,0.484 0,0 99.055,-58.386 99.055,-130.585 0,-57.8 -46.912,-104.344004 -103.759,-101.642004 z"
     style="fill:#f07378"
     id="path40" />
  <path
     d="m 1410.9556,238.1405 a 40.756,40.756 0 1 1 40.755,-40.756 40.756,40.756 0 0 1 -40.755,40.756 z"
     style="fill:#ffffff"
     id="path42" />
  <path
     d="m 1410.9556,238.1405 a 40.756,40.756 0 1 1 40.755,-40.756 40.756,40.756 0 0 1 -40.755,40.756 z"
     style="fill:none;stroke:#363a5a;stroke-width:6px;stroke-miterlimit:10"
     id="path44" />
  <path
     d="m 1510.0106,199.2165 c 0,-57.8 -46.914,-104.344004 -103.761,-101.642004 -50.9,2.42 -94.292,45.782004 -94.292,98.124004 0,75.717 99,134.1 99,134.1 0,0 99.053,-58.383 99.053,-130.582 z"
     style="fill:none;stroke:#363a5a;stroke-width:6px;stroke-linecap:round;stroke-linejoin:round"
     id="path46" />
  <metadata
     id="metadata1007">
    <rdf:RDF>
      <cc:Work
         rdf:about="">
        <dc:title>109-map-location</dc:title>
      </cc:Work>
    </rdf:RDF>
  </metadata>
  <ellipse
     id="XMLID_1_"
     class="st7"
     cx="389.74966"
     cy="542.98444"
     rx="325"
     ry="29"
     style="fill:#493b3b" />
  <path
     id="XMLID_89_"
     class="st8"
     d="m 293.24965,266.8844 h -84 v -14 c 0,-8.8 7.2,-16 16,-16 h 52 c 8.8,0 16,7.2 16,16 z"
     style="fill:#c1a7a7" />
  <path
     id="XMLID_2_"
     class="st9"
     d="m 293.24965,266.8844 h -84 v -14 c 0,-8.8 7.2,-16 16,-16 h 52 c 8.8,0 16,7.2 16,16 z"
     style="fill:none;stroke:#493b3b;stroke-width:6;stroke-linecap:round;stroke-linejoin:round;stroke-miterlimit:10" />
  <g
     id="XMLID_190_"
     transform="translate(-110.25035,-117.7156)">
    <g
       id="XMLID_217_">
      <line
         id="XMLID_218_"
         class="st10"
         x1="398.79999"
         y1="357.89999"
         x2="398.79999"
         y2="384.60001" />
    </g>
    <g
       id="XMLID_214_">
      <line
         id="XMLID_215_"
         class="st10"
         x1="389.79999"
         y1="357.89999"
         x2="389.79999"
         y2="384.60001" />
    </g>
    <g
       id="XMLID_211_">
      <line
         id="XMLID_212_"
         class="st10"
         x1="380.79999"
         y1="357.89999"
         x2="380.79999"
         y2="384.60001" />
    </g>
    <g
       id="XMLID_208_">
      <line
         id="XMLID_209_"
         class="st10"
         x1="371.79999"
         y1="357.89999"
         x2="371.79999"
         y2="384.60001" />
    </g>
    <g
       id="XMLID_205_">
      <line
         id="XMLID_206_"
         class="st10"
         x1="362.79999"
         y1="357.89999"
         x2="362.79999"
         y2="384.60001" />
    </g>
    <g
       id="XMLID_202_">
      <line
         id="XMLID_203_"
         class="st10"
         x1="353.79999"
         y1="357.89999"
         x2="353.79999"
         y2="384.60001" />
    </g>
    <g
       id="XMLID_199_">
      <line
         id="XMLID_200_"
         class="st10"
         x1="344.79999"
         y1="357.89999"
         x2="344.79999"
         y2="384.60001" />
    </g>
    <g
       id="XMLID_196_">
      <line
         id="XMLID_197_"
         class="st10"
         x1="335.79999"
         y1="357.89999"
         x2="335.79999"
         y2="384.60001" />
    </g>
    <g
       id="XMLID_193_">
      <line
         id="XMLID_194_"
         class="st10"
         x1="326.79999"
         y1="357.89999"
         x2="326.79999"
         y2="384.60001" />
    </g>
  </g>
  <path
     id="XMLID_53_"
     class="st11"
     d="m 634.64965,230.9844 h -322 c -8.9,0 -17.1,4.3 -22.5,11.3 -11.3,15 -29.3,24.7 -49.5,24.7 h -118 v 252 c 0,13.3 10.7,24 24,24 h 488 c 13.3,0 24,-10.7 24,-24 v -264 c 0,-13.3 -10.8,-24 -24,-24 z"
     style="fill:#e2a86d" />
  <rect
     id="XMLID_80_"
     x="122.64964"
     y="310.68442"
     class="st12"
     width="29"
     height="204.10001"
     style="fill:#d6975f" />
  <rect
     id="XMLID_111_"
     x="629.64966"
     y="310.68442"
     class="st12"
     width="29"
     height="204.10001"
     style="fill:#d6975f" />
  <g
     id="XMLID_69_"
     class="st14"
     mask="url(#XMLID_6_)"
     transform="translate(-110.25035,-117.7156)">
    <g
       id="XMLID_336_">
      <g
         id="XMLID_358_">
        <path
           id="XMLID_359_"
           class="st15"
           d="m 280.3,407.8 c 56,33.1 81.8,97.6 64.5,153 -20.4,65.5 -90.4,84.5 -94.5,85.5" />
      </g>
      <path
         id="XMLID_357_"
         class="st15"
         d="m 300.2,575.8 c -24,26 -68.3,36.4 -108.4,16.5" />
      <path
         id="XMLID_356_"
         class="st15"
         d="m 205.3,436.3 c 60.7,5.1 106,40.7 112.5,82.5 0.3,2.2 3.1,21.6 -5.4,41.7" />
      <path
         id="XMLID_355_"
         class="st15"
         d="m 194.8,496.3 c 24,-17 46.4,-18.8 67.2,-8.7 14.6,7.2 32.7,25 30.6,38.7 -3.6,24 -44.6,52.2 -79.9,51" />
      <path
         id="XMLID_354_"
         class="st15"
         d="m 250.3,498.4 c 2.8,2.2 18,10.8 14.6,29.7 -1.1,6.2 -16.8,28.1 -43.1,23.7" />
      <path
         id="XMLID_353_"
         class="st15"
         d="m 206.8,521.8 c 13.7,-10.1 34.4,-19.7 43.5,-4.4" />
      <path
         id="XMLID_352_"
         class="st15"
         d="m 206.8,631.3 c 9.8,0.8 66.9,4.4 103.5,-36 9.5,-10.5 15.6,-21.7 19.5,-31.5" />
      <path
         id="XMLID_351_"
         class="st15"
         d="m 337.3,407.8 c 7.1,16.7 25.7,53.2 64.5,70.5 58.4,26.1 140.3,-1.2 192,-73.5" />
      <path
         id="XMLID_350_"
         class="st15"
         d="m 385.3,409.3 c 0.7,5.4 3.6,22.2 18,36 19.4,18.6 44.1,16.8 48,16.5" />
      <path
         id="XMLID_349_"
         class="st15"
         d="m 397.1,594.3 c -14,-9.1 -35,-23.9 -35,-66.1 0,-13.9 4.3,-21.7 7.6,-23.5 11.5,-6.2 48.3,35.1 95.1,47.1 36.4,9.4 96.9,-13.2 182.6,-85.7" />
      <path
         id="XMLID_348_"
         class="st15"
         d="m 676.2,415.3 c -31.4,4 -93.9,17.1 -133.5,67.5 -2.2,2.7 -26,33.3 -19.5,40.5 4.3,4.7 36.9,-46.2 98.6,-68.9 14.9,-5.5 27.9,-8 36.9,-9.3" />
      <path
         id="XMLID_347_"
         class="st15"
         d="m 301.3,674.8 c 7.3,-35.2 29.4,-59 52.5,-60 0.8,0 20,-0.6 28.5,12 10.2,15.2 1.7,45 -27,69" />
      <path
         id="XMLID_346_"
         class="st15"
         d="m 350.1,597.8 c 27.3,-2.8 51.7,11 64.3,32.9 16.1,27.7 13.4,61.2 -15.7,83.1" />
      <path
         id="XMLID_345_"
         class="st15"
         d="m 674.1,473.3 c -4.3,4.9 -26,21.3 -34.5,26.1 -44.2,25 -50.3,11.6 -94,61.1 -23.6,26.7 -44.1,91.9 -79.4,136.8" />
      <path
         id="XMLID_344_"
         class="st15"
         d="m 721.6,376.6 c -0.8,26.2 -14.7,54.9 -35.2,81.7" />
      <path
         id="XMLID_343_"
         class="st15"
         d="m 796.2,437.8 c -9.3,1.3 -63.9,10.1 -94.5,58.5 -3.9,6.1 -16.9,27.3 -18,55.5 -1.9,48.7 32.9,97 87,124.5" />
      <path
         id="XMLID_342_"
         class="st15"
         d="m 724,583.9 c 8.8,31.1 40.5,56.4 79.7,65.5" />
      <path
         id="XMLID_341_"
         class="st15"
         d="m 797.7,494.8 c -32.2,6 -65.5,26.5 -73.4,53.3 -1.7,5.7 -2.6,11.4 -2.7,17" />
      <path
         id="XMLID_340_"
         class="st15"
         d="m 569.7,697.3 c 12.5,-71.9 52.6,-107.4 74.2,-121.6 22.2,-14.5 46.2,-8.5 24.7,31.6 -15.2,28.4 0.9,69 -33,94.5" />
      <path
         id="XMLID_339_"
         class="st15"
         d="m 808.2,526.3 c -37.2,5.5 -58.8,25.5 -57,39 1.5,11.1 19.2,20.5 40.5,24" />
      <path
         id="XMLID_338_"
         class="st15"
         d="m 652.2,548.8 c 4.4,-17.4 15.9,-52.5 46.5,-85.5 34,-36.7 72.7,-50.5 90,-55.5" />
      <path
         id="XMLID_337_"
         class="st15"
         d="m 624.7,636.4 c -1.9,-18 5.7,-31.8 15.3,-34 1.7,-0.4 12.2,-1.3 12.2,12.4" />
    </g>
  </g>
  <g
     id="XMLID_120_"
     transform="translate(-110.25035,-117.7156)">
    <path
       id="XMLID_117_"
       class="st16"
       d="M 390.1,615.9 440.4,593.7 421,549.8 370.7,572 c -12.1,5.4 -17.6,19.5 -12.3,31.6 v 0 c 5.4,12.2 19.6,17.6 31.7,12.3 z" />
    <path
       id="XMLID_106_"
       class="st9"
       d="M 390.1,615.9 440.4,593.7 421,549.8 370.7,572 c -12.1,5.4 -17.6,19.5 -12.3,31.6 v 0 c 5.4,12.2 19.6,17.6 31.7,12.3 z" />
    <circle
       id="XMLID_119_"
       class="st17"
       cx="380.39999"
       cy="593.90002"
       r="14.4" />
    <circle
       id="XMLID_110_"
       class="st10"
       cx="380.39999"
       cy="593.90002"
       r="14.4" />
  </g>
  <path
     id="XMLID_55_"
     class="st16"
     d="m 122.64965,514.7844 v 4.1 c 0,13.3 10.7,24 24,24 h 488 c 13.3,0 24,-10.7 24,-24 v -4.1 z"
     style="fill:#e5d6d6" />
  <path
     id="XMLID_147_"
     class="st18"
     d="m 390.64965,313.5844 c -62.7,0 -113.5,51 -113.5,113.8 0,8 0.8,15.8 2.4,23.4 l -19.1,8.4 c -12.1,5.4 -17.6,19.5 -12.3,31.6 v 0 c 5.4,12.1 19.5,17.6 31.6,12.3 l 19.2,-8.5 c 20.6,28.3 54,46.6 91.6,46.6 62.7,0 113.5,-51 113.5,-113.8 0.1,-62.8 -50.7,-113.8 -113.4,-113.8 z"
     style="opacity:0.2;fill:#2d2d2d;stroke:#2d2d2d;stroke-width:8;stroke-linecap:round;stroke-linejoin:round;stroke-miterlimit:10" />
  <path
     id="XMLID_153_"
     class="st19"
     d="m 634.64965,542.9844 h -5 v -28.1 h 29 v 4.1 c 0,13.2 -10.8,24 -24,24 z"
     style="fill:#dbc8c8" />
  <path
     id="XMLID_133_"
     class="st19"
     d="m 146.64965,542.9844 h 5 v -28.1 h -29 v 4.1 c 0,13.2 10.7,24 24,24 z"
     style="fill:#dbc8c8" />
  <path
     id="XMLID_54_"
     class="st16"
     d="m 634.64965,230.6844 h -322 c -8.9,0 -17.2,4.3 -22.5,11.4 -11.3,15.1 -29.3,24.8 -49.5,24.8 h -118 v 43.8 h 536 v -55.9 c 0,-13.3 -10.8,-24.1 -24,-24.1 z"
     style="fill:#e5d6d6" />
  <rect
     id="XMLID_4_"
     x="122.64964"
     y="267.8844"
     class="st19"
     width="29"
     height="42.799999"
     style="fill:#dbc8c8" />
  <path
     id="XMLID_166_"
     class="st8"
     d="m 489.84965,294.8844 h -335 c -1.8,0 -3.3,-1.5 -3.3,-3.3 v 0 c 0,-1.8 1.5,-3.3 3.3,-3.3 h 335 c 1.8,0 3.3,1.5 3.3,3.3 v 0 c 0,1.8 -1.5,3.3 -3.3,3.3 z"
     style="fill:#c1a7a7" />
  <path
     id="XMLID_142_"
     class="st19"
     d="m 634.54965,230.6844 h -5 v 80 h 29 v -56 c 0,-13.2 -10.7,-24 -24,-24 z"
     style="fill:#dbc8c8" />
  <ellipse
     id="XMLID_22_"
     class="st16"
     cx="390.64966"
     cy="410.48444"
     rx="113.5"
     ry="113.8"
     style="fill:#e5d6d6" />
  <circle
     id="XMLID_90_"
     class="st20"
     cx="390.64966"
     cy="410.48444"
     r="91"
     style="fill:#845b5b" />
  <path
     id="XMLID_126_"
     class="st21"
     d="m 390.64965,339.4844 c 46.8,0 85.5,35.5 90.4,81 0.4,-3.3 0.6,-6.6 0.6,-10 0,-50.2 -40.8,-91 -91,-91 -50.2,0 -91,40.8 -91,91 0,3.4 0.2,6.7 0.6,10 4.9,-45.5 43.6,-81 90.4,-81 z"
     style="fill:#704848" />
  <path
     id="XMLID_52_"
     class="st9"
     d="m 634.64965,230.9844 h -322 c -8.9,0 -17.1,4.3 -22.5,11.3 -11.3,15 -29.3,24.7 -49.5,24.7 h -118 v 252 c 0,13.3 10.7,24 24,24 h 488 c 13.3,0 24,-10.7 24,-24 v -264 c 0,-13.3 -10.8,-24 -24,-24 z"
     style="fill:none;stroke:#493b3b;stroke-width:6;stroke-linecap:round;stroke-linejoin:round;stroke-miterlimit:10" />
  <circle
     id="XMLID_24_"
     class="st22"
     cx="390.64966"
     cy="410.48444"
     r="102.5"
     style="fill:none;stroke:#493b3b;stroke-width:3;stroke-linecap:round;stroke-linejoin:round;stroke-miterlimit:10" />
  <circle
     id="XMLID_25_"
     class="st23"
     cx="390.64966"
     cy="410.48444"
     r="91"
     style="fill:none;stroke:#493b3b;stroke-width:8;stroke-linecap:round;stroke-linejoin:round;stroke-miterlimit:10" />
  <circle
     id="XMLID_82_"
     class="st24"
     cx="390.64966"
     cy="410.48444"
     r="62"
     style="fill:#b57f7f" />
  <path
     id="XMLID_91_"
     class="st25"
     d="m 433.34965,410.4844 c 30,0 46.5,35 27.3,58 -16.7,20.1 -41.9,33 -70,33 -28.1,0 -53.3,-12.8 -70,-33 -19.2,-23.1 -2.6,-58 27.3,-58 z"
     style="opacity:0.34;fill:#ffffff" />
  <path
     id="XMLID_108_"
     class="st26"
     d="m 390.64965,368.4844 c 30.8,0 56.4,22.6 61.2,52 0.5,-3.3 0.8,-6.6 0.8,-10 0,-34.2 -27.8,-62 -62,-62 -34.2,0 -62,27.8 -62,62 0,3.4 0.3,6.7 0.8,10 4.8,-29.5 30.4,-52 61.2,-52 z"
     style="fill:#ad6d6d" />
  <circle
     id="XMLID_27_"
     class="st9"
     cx="390.64966"
     cy="410.48444"
     r="62"
     style="fill:none;stroke:#493b3b;stroke-width:6;stroke-linecap:round;stroke-linejoin:round;stroke-miterlimit:10" />
  <circle
     id="XMLID_84_"
     class="st27"
     cx="390.64966"
     cy="410.48444"
     r="37"
     style="fill:#4c3535" />
  <circle
     id="XMLID_37_"
     class="st22"
     cx="390.64966"
     cy="410.48444"
     r="37"
     style="fill:none;stroke:#493b3b;stroke-width:3;stroke-linecap:round;stroke-linejoin:round;stroke-miterlimit:10" />
  <circle
     id="XMLID_85_"
     class="st28"
     cx="390.64966"
     cy="410.48444"
     r="23.5"
     style="fill:#3f2e2e" />
  <path
     id="XMLID_150_"
     class="st29"
     d="m 198.04965,266.8844 h -52.3 v -10 c 0,-3.3 2.7,-6 6,-6 h 40.3 c 3.3,0 6,2.7 6,6 z"
     style="fill:#6a4949" />
  <path
     id="XMLID_20_"
     class="st9"
     d="m 198.04965,266.8844 h -52.3 v -10 c 0,-3.3 2.7,-6 6,-6 h 40.3 c 3.3,0 6,2.7 6,6 z"
     style="fill:none;stroke:#493b3b;stroke-width:6;stroke-linecap:round;stroke-linejoin:round;stroke-miterlimit:10" />
  <rect
     id="XMLID_29_"
     x="153.94966"
     y="238.98441"
     class="st9"
     width="36"
     height="11.9"
     style="fill:none;stroke:#493b3b;stroke-width:6;stroke-linecap:round;stroke-linejoin:round;stroke-miterlimit:10" />
  <rect
     id="XMLID_115_"
     x="153.94966"
     y="238.98441"
     class="st7"
     width="36"
     height="11.9"
     style="fill:#493b3b" />
  <ellipse
     id="XMLID_79_"
     class="st23"
     cx="390.64966"
     cy="410.48444"
     rx="113.5"
     ry="113.8"
     style="fill:none;stroke:#493b3b;stroke-width:8;stroke-linecap:round;stroke-linejoin:round;stroke-miterlimit:10" />
  <path
     id="XMLID_98_"
     class="st30"
     d="m 390.64965,386.9844 c -13,0 -23.5,10.5 -23.5,23.5 0,0.1 0,0.1 0,0.2 3.1,-2.6 7.7,-4 13.8,-3.5 6.1,0.5 7.2,2.4 14,4.4 6,1.7 13.7,1.1 19.2,-1.6 -0.3,-12.8 -10.7,-23 -23.5,-23 z"
     style="opacity:0.38;fill:#ffffff" />
  <circle
     id="XMLID_26_"
     class="st22"
     cx="390.64966"
     cy="410.48444"
     r="76"
     style="fill:none;stroke:#493b3b;stroke-width:3;stroke-linecap:round;stroke-linejoin:round;stroke-miterlimit:10" />
  <circle
     id="XMLID_86_"
     class="st23"
     cx="390.64966"
     cy="410.48444"
     r="91"
     style="fill:none;stroke:#493b3b;stroke-width:8;stroke-linecap:round;stroke-linejoin:round;stroke-miterlimit:10" />
  <path
     id="XMLID_114_"
     class="st31"
     d="m 604.14965,302.6844 h -85.7 c -6.5,0 -11.8,-5.3 -11.8,-11.8 v -34.2 c 0,-6.5 5.3,-11.8 11.8,-11.8 h 85.7 c 6.5,0 11.8,5.3 11.8,11.8 v 34.2 c 0,6.5 -5.3,11.8 -11.8,11.8 z"
     style="fill:#443636" />
  <path
     id="XMLID_151_"
     class="st10"
     d="m 604.14965,302.6844 h -85.7 c -6.5,0 -11.8,-5.3 -11.8,-11.8 v -34.2 c 0,-6.5 5.3,-11.8 11.8,-11.8 h 85.7 c 6.5,0 11.8,5.3 11.8,11.8 v 34.2 c 0,6.5 -5.3,11.8 -11.8,11.8 z"
     style="fill:none;stroke:#493b3b;stroke-width:4;stroke-linecap:round;stroke-linejoin:round;stroke-miterlimit:10" />
  <path
     id="XMLID_149_"
     class="st20"
     d="m 596.64965,296.6844 h -70.7 c -5.5,0 -10,-4.5 -10,-10 v -25.8 c 0,-5.5 4.5,-10 10,-10 h 70.7 c 5.5,0 10,4.5 10,10 v 25.8 c 0,5.6 -4.5,10 -10,10 z"
     style="fill:#845b5b" />
  <path
     id="XMLID_395_"
     class="st30"
     d="m 579.34965,296.6844 27.2,-37.2 c -0.7,-4.8 -4.8,-8.6 -9.9,-8.6 h -3.2 l -33.4,45.8 z"
     style="opacity:0.38;fill:#ffffff" />
  <polygon
     id="XMLID_394_"
     class="st30"
     points="657.1,414.4 663,414.4 696.4,368.6 690.5,368.6 "
     style="opacity:0.38;fill:#ffffff"
     transform="translate(-110.25035,-117.7156)" />
  <g
     id="XMLID_3_"
     class="st2"
     style="opacity:0.15"
     transform="translate(1586.2494,-126.67379)">
    <path
       id="XMLID_10_"
       class="st3"
       d="m 813,237 v 456.9 c 0,30.3 -12.4,54.9 -27.8,54.9 H 543 c -15.3,0 -27.8,-24.6 -27.8,-54.9 V 335" />
    <line
       id="XMLID_9_"
       class="st3"
       x1="203"
       y1="748.70001"
       x2="865"
       y2="748.70001" />
    <line
       id="XMLID_18_"
       class="st3"
       x1="515.20001"
       y1="454"
       x2="813"
       y2="454" />
    <line
       id="XMLID_22_-7"
       class="st3"
       x1="515.20001"
       y1="666.90002"
       x2="813"
       y2="666.90002" />
    <path
       id="XMLID_17_"
       class="st3"
       d="m 780.1,653.4 h -20.3 c -6,0 -10.9,-4.9 -10.9,-10.9 V 486.3 c 0,-6 4.9,-10.9 10.9,-10.9 h 20.3 c 6,0 10.9,4.9 10.9,10.9 v 156.2 c 0,6 -4.9,10.9 -10.9,10.9 z" />
    <path
       id="XMLID_25_-9"
       class="st3"
       d="m 721,653.4 h -20.3 c -6,0 -10.9,-4.9 -10.9,-10.9 V 486.3 c 0,-6 4.9,-10.9 10.9,-10.9 H 721 c 6,0 10.9,4.9 10.9,10.9 v 156.2 c 0,6 -4.8,10.9 -10.9,10.9 z" />
    <path
       id="XMLID_60_"
       class="st3"
       d="m 780.1,440.4 h -20.3 c -6,0 -10.9,-4.9 -10.9,-10.9 V 273.3 c 0,-6 4.9,-10.9 10.9,-10.9 h 20.3 c 6,0 10.9,4.9 10.9,10.9 v 156.2 c 0,6 -4.9,10.9 -10.9,10.9 z" />
    <path
       id="XMLID_58_"
       class="st3"
       d="m 734,409.1 v 20.3 c 0,6 -4.9,10.9 -10.9,10.9 H 566.9 c -6,0 -10.9,-4.9 -10.9,-10.9 v -20.3 c 0,-6 4.9,-10.9 10.9,-10.9 h 156.2 c 6,0 10.9,4.9 10.9,10.9 z" />
    <path
       id="XMLID_61_"
       class="st3"
       d="m 734,362.3 v 13.3 c 0,6 -4.9,10.9 -10.9,10.9 H 576.6 c -6,0 -10.9,-4.9 -10.9,-10.9 v -13.3 c 0,-6 4.9,-10.9 10.9,-10.9 h 146.5 c 6,0 10.9,4.9 10.9,10.9 z" />
    <path
       id="XMLID_34_"
       class="st3"
       d="m 613,650.6 -13.8,-5.8 c -3.8,-1.6 -5.7,-6 -4.1,-9.8 l 50.5,-121.2 c 1.6,-3.8 6,-5.7 9.8,-4.1 l 13.8,5.8 c 3.8,1.6 5.7,6 4.1,9.8 l -50.5,121.2 c -1.6,3.9 -6,5.7 -9.8,4.1 z" />
    <polyline
       id="XMLID_57_"
       class="st3"
       points="147.4,460.7 226.7,460.7 226.7,499.4 147.4,499.4  " />
    <line
       id="XMLID_59_"
       class="st3"
       x1="306.10001"
       y1="499.39999"
       x2="226.7"
       y2="499.39999" />
    <line
       id="XMLID_38_"
       class="st3"
       x1="226.7"
       y1="460.70001"
       x2="257.10001"
       y2="460.70001" />
    <rect
       id="XMLID_42_"
       x="187"
       y="499.39999"
       class="st3"
       width="79.300003"
       height="38.700001" />
    <polyline
       id="XMLID_52_-2"
       class="st3"
       points="159.7,538.3 226.7,538.3 226.7,576.9 201,576.9  " />
    <rect
       id="XMLID_54_-0"
       x="226.7"
       y="538.29999"
       class="st3"
       width="79.300003"
       height="38.700001" />
    <rect
       id="XMLID_23_"
       x="311.60001"
       y="315.79999"
       class="st3"
       width="123.1"
       height="99.800003" />
    <polyline
       id="XMLID_62_"
       class="st3"
       points="328.6,392.5 351.2,359.8 374.5,388.7  " />
    <polyline
       id="XMLID_64_"
       class="st3"
       points="365.9,378.1 397.4,347.5 419.8,392.5  " />
    <path
       id="XMLID_63_"
       class="st3"
       d="m 357.7,367.9 c 1.6,-4.7 6,-8.1 11.2,-8.1 4.3,0 8.1,2.3 10.2,5.8" />
  </g>
  <path
     id="XMLID_16_"
     class="st4"
     d="m 2058.6494,495.42621 4.4,-9 9.6,2.7 4.4,-9 9.7,2.7 4.4,-9 9.7,2.7 4.4,-9 9.7,2.7 4.4,-9 9.7,2.7 4.4,-9 9.7,2.7 4.4,-9 9.7,2.7 4.4,-9 9.7,2.7 4.4,-9 9.7,2.7 4.4,-9 9.7,2.7 4.4,-9 -5.8,-7.8 c -7.1,-9.6 -19.9,-13 -30.8,-8.1 l -127.8,57.6 z"
     style="fill:#d2dde1" />
  <path
     id="XMLID_5_"
     class="st3"
     d="m 2058.6494,495.42621 4.4,-9 9.6,2.7 4.4,-9 9.7,2.7 4.4,-9 9.7,2.7 4.4,-9 9.7,2.7 4.4,-9 9.7,2.7 4.4,-9 9.7,2.7 4.4,-9 9.7,2.7 4.4,-9 9.7,2.7 4.4,-9 9.7,2.7 4.4,-9 9.7,2.7 4.4,-9 -5.8,-7.8 c -7.1,-9.6 -19.9,-13 -30.8,-8.1 l -127.8,57.6 z"
     style="fill:none;stroke:#474747;stroke-width:6;stroke-linecap:round;stroke-linejoin:round;stroke-miterlimit:10" />
  <path
     id="XMLID_11_"
     class="st5"
     d="m 1996.1494,530.22621 -74.7,15 -62.1,-309.9 v 0 c 41.9,11.4 74.4,44.4 85.4,86.4 z"
     style="fill:#baced3" />
  <path
     id="XMLID_13_"
     class="st4"
     d="m 2035.1494,455.02621 c -11.2,10.6 -20.9,4.1 -20.7,-4.8 0.4,-14.3 7.9,-29.3 15.9,-40.7 4.7,-6.8 16.8,-19 23.5,-13.7 l 16.4,-72.2 -26.2,-34.2 -4.8,8.2 c -11.5,19.8 -21.7,40.2 -30.6,61.3 -9,21.2 -16.3,43 -22.3,65.3 l -27,100.8 47.2,15.2 c 0,0 15.6,-16.7 20.2,-27.1 12.6,-28.6 18.7,-54.3 18.7,-54.3 z"
     style="fill:#d2dde1" />
  <path
     id="XMLID_7_"
     class="st3"
     d="m 2035.1494,455.02621 c -11.2,10.6 -20.9,4.1 -20.7,-4.8 0.4,-14.3 7.9,-29.3 15.9,-40.7 4.7,-6.8 16.1,-16.3 23.5,-13.7 l 16.4,-72.2 -26.2,-34.2 -4.8,8.2 c -11.5,19.8 -21.7,40.2 -30.6,61.3 -9,21.2 -16.3,43 -22.3,65.3 l -27,100.8 47.2,15.2 c 0,0 15.6,-16.7 20.2,-27.1 12.6,-28.6 18.7,-54.3 18.7,-54.3 z"
     style="fill:none;stroke:#474747;stroke-width:6;stroke-linecap:round;stroke-linejoin:round;stroke-miterlimit:10" />
  <path
     id="XMLID_12_"
     class="st6"
     d="m 1880.6494,243.32621 65.7,296.9 49.7,-10 -51.4,-208.6 c -8.9,-34.5 -32.6,-62.9 -64,-78.3 z"
     style="fill:#e7eff1" />
  <path
     id="XMLID_4_-2"
     class="st3"
     d="m 1996.1494,530.22621 -74.7,15 -62.1,-309.9 v 0 c 41.9,11.4 74.4,44.4 85.4,86.4 z"
     style="fill:none;stroke:#474747;stroke-width:6;stroke-linecap:round;stroke-linejoin:round;stroke-miterlimit:10" />
  <path
     id="XMLID_15_"
     class="st7"
     d="m 2032.0494,475.12621 14.3,-0.5 c 3,-0.1 4.9,-2.3 4.5,-5.3 l -2,-14.2 14.3,-0.5 c 3,-0.1 4.9,-2.3 4.5,-5.3 l -2,-14.2 14.3,-0.5 c 3,-0.1 4.9,-2.3 4.5,-5.3 l -2,-14.2 14.3,-0.5 c 3,-0.1 4.9,-2.3 4.5,-5.3 l -2,-14.2 14.3,-0.5 c 3,-0.1 4.9,-2.3 4.5,-5.3 l -2,-14.2 15.6,-1.5 c 3.4,-0.3 5.1,-3.4 3.7,-6.9 l -13.4,-33.5 -3.6,26.8 -13.8,0.5 c -3.3,0.1 -5.4,2.6 -4.9,5.8 l 1.9,13.7 -13.8,0.5 c -3.3,0.1 -5.4,2.6 -4.9,5.8 l 1.9,13.7 -13.8,0.5 c -3.3,0.1 -5.4,2.6 -4.9,5.8 l 1.9,13.7 -13.8,0.5 c -3.3,0.1 -5.4,2.6 -4.9,5.8 l 1.9,13.7 -13.8,0.5 c -3.3,0.1 -5.4,2.6 -4.9,5.8 l 1.9,13.7 -19.5,0.7 -18.7,22.3 23.4,19.6 z"
     style="fill:#bcc6c9" />
  <path
     id="XMLID_6_-3"
     class="st3"
     d="m 2032.0494,475.12621 14.3,-0.5 c 3,-0.1 4.9,-2.3 4.5,-5.3 l -2,-14.2 14.3,-0.5 c 3,-0.1 4.9,-2.3 4.5,-5.3 l -2,-14.2 14.3,-0.5 c 3,-0.1 4.9,-2.3 4.5,-5.3 l -2,-14.2 14.3,-0.5 c 3,-0.1 4.9,-2.3 4.5,-5.3 l -2,-14.2 14.3,-0.5 c 3,-0.1 4.9,-2.3 4.5,-5.3 l -2,-14.2 15.6,-1.5 c 3.4,-0.3 5.1,-3.4 3.7,-6.9 l -13.4,-33.5 -3.6,26.8 -13.8,0.5 c -3.3,0.1 -5.4,2.6 -4.9,5.8 l 1.9,13.7 -13.8,0.5 c -3.3,0.1 -5.4,2.6 -4.9,5.8 l 1.9,13.7 -13.8,0.5 c -3.3,0.1 -5.4,2.6 -4.9,5.8 l 1.9,13.7 -13.8,0.5 c -3.3,0.1 -5.4,2.6 -4.9,5.8 l 1.9,13.7 -13.8,0.5 c -3.3,0.1 -5.4,2.6 -4.9,5.8 l 1.9,13.7 -19.5,0.7 -18.7,22.3 23.4,19.6 z"
     style="fill:none;stroke:#474747;stroke-width:6;stroke-linecap:round;stroke-linejoin:round;stroke-miterlimit:10" />
  <path
     id="XMLID_8_"
     class="st8"
     d="m 2243.1494,622.02621 h -260 c -38.7,0 -70,-31.3 -70,-70 v 0 c 0,-38.7 31.3,-70 70,-70 h 260 c 38.7,0 70,31.3 70,70 v 0 c 0,38.7 -31.3,70 -70,70 z"
     style="fill:#9acf8d" />
  <path
     id="XMLID_47_"
     class="st9"
     d="m 2243.1494,606.02621 h -260 c -35.9,0 -65.5,-27.1 -69.5,-62 -0.3,2.6 -0.5,5.3 -0.5,8 v 0 c 0,38.7 31.3,70 70,70 h 260 c 38.7,0 70,-31.3 70,-70 v 0 c 0,-2.7 -0.2,-5.4 -0.5,-8 -3.9,34.9 -33.5,62 -69.5,62 z"
     style="fill:#85b578" />
  <path
     id="XMLID_46_"
     class="st10"
     d="m 2243.1494,482.02621 h -260 c -38.7,0 -70,31.3 -70,70 v 0 c 0,2.5 0.1,5.1 0.4,7.5 3.8,-35.1 33.5,-62.5 69.6,-62.5 h 260 c 36.1,0 65.8,27.4 69.6,62.5 0.3,-2.5 0.4,-5 0.4,-7.5 v 0 c 0,-38.6 -31.3,-70 -70,-70 z"
     style="fill:#bfe8b3" />
  <path
     id="XMLID_1_-7"
     class="st3"
     d="m 2243.1494,622.02621 h -260 c -38.7,0 -70,-31.3 -70,-70 v 0 c 0,-38.7 31.3,-70 70,-70 h 260 c 38.7,0 70,31.3 70,70 v 0 c 0,38.7 -31.3,70 -70,70 z"
     style="fill:none;stroke:#474747;stroke-width:6;stroke-linecap:round;stroke-linejoin:round;stroke-miterlimit:10" />
  <line
     id="XMLID_14_"
     class="st11"
     x1="1942.0494"
     y1="475.02625"
     x2="1972.8495"
     y2="466.52625"
     style="fill:none;stroke:#474747;stroke-width:3;stroke-linecap:round;stroke-linejoin:round;stroke-miterlimit:10" />
  <circle
     id="XMLID_21_"
     class="st4"
     cx="1987.4495"
     cy="552.02625"
     r="25.200001"
     style="fill:#d2dde1" />
  <path
     id="XMLID_36_"
     class="st12"
     d="m 1967.0494,588.92621 c -13,-7.2 -21.8,-21 -21.8,-36.9 0,-9.4 3.1,-18.1 8.4,-25.2"
     style="opacity:0.2;fill:none;stroke:#474747;stroke-width:6;stroke-linecap:round;stroke-linejoin:round;stroke-miterlimit:10;enable-background:new" />
  <circle
     id="XMLID_19_"
     class="st3"
     cx="1987.4495"
     cy="552.02625"
     r="25.200001"
     style="fill:none;stroke:#474747;stroke-width:6;stroke-linecap:round;stroke-linejoin:round;stroke-miterlimit:10" />
  <path
     id="XMLID_32_"
     class="st11"
     d="m 2022.1494,362.12621 c 0,0 -15.3,38.7 -19.6,60"
     style="fill:none;stroke:#474747;stroke-width:3;stroke-linecap:round;stroke-linejoin:round;stroke-miterlimit:10" />
  <line
     id="XMLID_27_-5"
     class="st3"
     x1="1987.4495"
     y1="536.02625"
     x2="1987.4495"
     y2="568.12622"
     style="fill:none;stroke:#474747;stroke-width:6;stroke-linecap:round;stroke-linejoin:round;stroke-miterlimit:10" />
  <line
     id="XMLID_24_-9"
     class="st3"
     x1="2003.4495"
     y1="552.02625"
     x2="1971.3495"
     y2="552.02625"
     style="fill:none;stroke:#474747;stroke-width:6;stroke-linecap:round;stroke-linejoin:round;stroke-miterlimit:10" />
  <line
     id="XMLID_30_-2"
     class="st11"
     x1="1918.6494"
     y1="414.82623"
     x2="1928.7494"
     y2="460.52625"
     style="fill:none;stroke:#474747;stroke-width:3;stroke-linecap:round;stroke-linejoin:round;stroke-miterlimit:10" />
  <line
     id="XMLID_20_-2"
     class="st11"
     x1="1886.4495"
     y1="269.2262"
     x2="1914.8495"
     y2="397.62622"
     style="fill:none;stroke:#474747;stroke-width:3;stroke-linecap:round;stroke-linejoin:round;stroke-miterlimit:10" />
</svg>
