<?xml version="1.0" encoding="UTF-8" standalone="no"?>
<svg
   viewBox="0 0 2500 800"
   version="1.1"
   id="svg186"
   sodipodi:docname="pro-teaser.svg"
   width="2500"
   height="800"
   inkscape:version="1.1.1 (eb90963e84, 2021-10-02)"
   xmlns:inkscape="http://www.inkscape.org/namespaces/inkscape"
   xmlns:sodipodi="http://sodipodi.sourceforge.net/DTD/sodipodi-0.dtd"
   xmlns="http://www.w3.org/2000/svg"
   xmlns:svg="http://www.w3.org/2000/svg"
   xmlns:rdf="http://www.w3.org/1999/02/22-rdf-syntax-ns#"
   xmlns:cc="http://creativecommons.org/ns#"
   xmlns:dc="http://purl.org/dc/elements/1.1/">
  <defs
     id="defs190">
    <mask
       maskUnits="userSpaceOnUse"
       x="188.8"
       y="373.6"
       width="622.5"
       height="343.2"
       id="XMLID_6_">
      <g
         id="XMLID_30_"
         class="st13">
        <rect
           id="XMLID_33_"
           x="232.89999"
           y="428.20001"
           class="st11"
           width="536"
           height="204.39999" />
      </g>
    </mask>
    <filter
       id="Adobe_OpacityMaskFilter"
       filterUnits="userSpaceOnUse"
       x="188.8"
       y="373.60001"
       width="622.5"
       height="343.20001">
      <feColorMatrix
         type="matrix"
         values="1 0 0 0 0  0 1 0 0 0  0 0 1 0 0  0 0 0 1 0"
         id="feColorMatrix58" />
    </filter>
  </defs>
  <sodipodi:namedview
     id="namedview188"
     pagecolor="#ffffff"
     bordercolor="#666666"
     borderopacity="1.0"
     inkscape:pageshadow="2"
     inkscape:pageopacity="0.0"
     inkscape:pagecheckerboard="0"
     showgrid="false"
     inkscape:zoom="0.25314581"
     inkscape:cx="760.43131"
     inkscape:cy="373.30264"
     inkscape:window-width="2048"
     inkscape:window-height="1082"
     inkscape:window-x="26"
     inkscape:window-y="23"
     inkscape:window-maximized="0"
     inkscape:current-layer="svg186" />
  <title
     id="title2">109-map-location</title>
  <path
     d="m 1560.9616,612.1255 -137.692,86.831 a 56.955,56.955 0 0 1 -47.809,6.048 l -150.931,-48.516 a 56.955,56.955 0 0 0 -48.072,6.215 l -110.5,70.537 a 25.806,25.806 0 0 1 -38.6,-14.736 l -95.36997,-334.34 a 25.807,25.807 0 0 1 11.03,-28.893 l 139.15997,-87.949 a 62.363,62.363 0 0 1 52.4,-6.655 l 146.115,46.968 a 62.365,62.365 0 0 0 52.566,-6.758 l 104.638,-66.589 a 25.807,25.807 0 0 1 38.671,14.693 l 95.355,334.294 a 25.806,25.806 0 0 1 -10.961,28.85 z"
     style="opacity:0.4;fill:#cccdcf"
     id="path6" />
  <path
     d="m 1566.3376,576.6425 -117.578,74.822 a 62.365,62.365 0 0 1 -52.566,6.758 l -146.125,-46.968 a 62.366,62.366 0 0 0 -52.4,6.654 l -126.339,79.849 a 25.806,25.806 0 0 1 -38.6,-14.736 l -95.36897,-334.34 a 25.806,25.806 0 0 1 11.029,-28.893 l 139.15297,-87.953 a 62.365,62.365 0 0 1 52.4,-6.654 l 146.124,46.969 a 62.362,62.362 0 0 0 52.566,-6.759 l 104.638,-66.588 a 25.807,25.807 0 0 1 38.671,14.693 l 95.355,334.292 a 25.807,25.807 0 0 1 -10.959,28.854 z"
     style="fill:#ffffff"
     id="path8" />
  <path
     d="m 1236.0426,573.4615 -21.863,-61.686 -103.319,35.371 -32.307,-93.606 -84.15097,16.748 58.99997,206.834 a 4.335,4.335 0 0 0 4.184,3.137 4.114,4.114 0 0 0 2.251,-0.681 l 120.114,-75.913 c -0.522,-0.611 56.091,-30.204 56.091,-30.204 z"
     style="fill:#eaf4f7"
     id="path10" />
  <path
     d="m 1566.3376,576.6425 -117.578,74.822 a 62.365,62.365 0 0 1 -52.566,6.758 l -146.125,-46.968 a 62.366,62.366 0 0 0 -52.4,6.654 l -126.339,79.849 a 25.806,25.806 0 0 1 -38.6,-14.736 l -95.36897,-334.34 a 25.806,25.806 0 0 1 11.029,-28.893 l 139.15297,-87.953 a 62.365,62.365 0 0 1 52.4,-6.654 l 146.124,46.969 a 62.362,62.362 0 0 0 52.566,-6.759 l 104.638,-66.588 a 25.807,25.807 0 0 1 38.671,14.693 l 95.355,334.292 a 25.807,25.807 0 0 1 -10.959,28.854 z"
     style="fill:none;stroke:#363a5a;stroke-width:6px;stroke-miterlimit:10"
     id="path12" />
  <path
     d="m 1127.5956,535.1105 c 0,0 1.792,-0.467 4.812,-1.349"
     style="fill:none;stroke:#363a5a;stroke-width:4px;stroke-linecap:round;stroke-linejoin:round"
     id="path14" />
  <path
     d="m 1146.9456,529.1075 c 21.234,-7.387 52.394,-20.943 52.768,-36.975 0.5,-21.3 -102.732,-127.866 -47.233,-134.308 185.288,-21.506 102.267,132.6 186.772,129.156 35.7,-1.455 -30.321,-50.539 71.682,-86.018 15.121,-5.26 7.609,-43.716 2.536,-63.822"
     style="fill:none;stroke:#363a5a;stroke-width:4px;stroke-linecap:round;stroke-linejoin:round;stroke-dasharray:10.1761, 15.2642"
     id="path16" />
  <path
     d="m 1411.5086,329.7615 c -0.844,-3.017 -1.4,-4.8 -1.4,-4.8"
     style="fill:none;stroke:#363a5a;stroke-width:4px;stroke-linecap:round;stroke-linejoin:round"
     id="path18" />
  <circle
     cx="1121.1417"
     cy="537.7135"
     r="48.192001"
     style="opacity:0.22;fill:#3dc0cb"
     id="circle20" />
  <circle
     cx="1121.1417"
     cy="537.7135"
     r="27.945999"
     style="fill:#3dc0cb"
     id="circle22" />
  <path
     d="m 1121.1416,509.7675 a 27.9,27.9 0 0 0 -22.158,10.924 27.942,27.942 0 0 1 37.86,40.139 27.946,27.946 0 0 0 -15.7,-51.063 z"
     style="fill:#64c7cf"
     id="path24" />
  <circle
     cx="1121.1417"
     cy="537.7135"
     r="27.945999"
     style="fill:none;stroke:#363a5a;stroke-width:6px;stroke-miterlimit:10"
     id="circle26" />
  <path
     d="m 1133.8766,288.3755 80.153,15.193 -18.407,-32.352 -66.339,-23.145 a 30.94,30.94 0 0 0 -23.645,1.352 l -145.76697,88.543 a 4.325,4.325 0 0 0 -1.839,4.816 l 23.508,82.412 64.08897,-15.847 -11.77,-47.212 z"
     style="fill:#87d5f7;stroke:#259ad6;stroke-width:4px;stroke-linecap:round;stroke-linejoin:round"
     id="path28" />
  <polygon
     points="539.109,554.445 561.222,605.126 511.949,597.049 493.37,542.929 "
     style="fill:#fddcbf;stroke:#ecb072;stroke-width:4px;stroke-linecap:round;stroke-linejoin:round"
     id="polygon30"
     transform="translate(767.52967,-50.464505)" />
  <path
     d="m 1410.9556,340.6455 c -37.157,0 -67.278,-10.776 -67.278,-24.069 0,-13.293 30.121,-24.07 67.278,-24.07 37.157,0 67.277,10.777 67.277,24.07 0,13.293 -30.121,24.069 -67.277,24.069 z"
     style="fill:#eaf4f7"
     id="path32" />
  <polygon
     points="673.948,569.002 664.538,527.486 748.465,490.952 781.62,591.961 645.718,669.193 620.808,598.893 "
     style="fill:#fddcbf;stroke:#ecb072;stroke-width:4px;stroke-linecap:round;stroke-linejoin:round"
     id="polygon34"
     transform="translate(767.52967,-50.464505)" />
  <path
     d="m 1510.0106,199.2165 c 0,-57.8 -46.914,-104.344004 -103.761,-101.642004 -50.9,2.42 -94.292,45.782004 -94.292,98.124004 0,75.717 99,134.1 99,134.1 0,0 99.053,-58.383 99.053,-130.582 z"
     style="fill:#ee4637"
     id="path36" />
  <path
     d="m 1447.1146,300.4995 a 44.189,44.189 0 0 1 -54.6,-0.188 c -29.3,-23.2 -71.677,-65.323 -71.677,-114.86 a 96.3,96.3 0 0 1 19.808,-58.17 c -17.573,17.746 -28.689,41.93 -28.689,68.417 0,75.717 99,134.1 99,134.1 0,0 40.374,-23.8 69.571,-59.8 a 282.957,282.957 0 0 1 -33.413,30.501 z"
     style="fill:#cd3c27"
     id="path38" />
  <path
     d="m 1406.2496,97.574496 a 97.984,97.984 0 0 0 -49.9,16.723004 96.75,96.75 0 0 1 37.234,-9.485 c 56.847,-2.7 103.762,43.841 103.762,101.642 0,56.61 -60.894,104.724 -87.192,122.863 0.515,0.314 0.8,0.484 0.8,0.484 0,0 99.055,-58.386 99.055,-130.585 0,-57.8 -46.912,-104.344004 -103.759,-101.642004 z"
     style="fill:#f07378"
     id="path40" />
  <path
     d="m 1410.9556,238.1405 a 40.756,40.756 0 1 1 40.755,-40.756 40.756,40.756 0 0 1 -40.755,40.756 z"
     style="fill:#ffffff"
     id="path42" />
  <path
     d="m 1410.9556,238.1405 a 40.756,40.756 0 1 1 40.755,-40.756 40.756,40.756 0 0 1 -40.755,40.756 z"
     style="fill:none;stroke:#363a5a;stroke-width:6px;stroke-miterlimit:10"
     id="path44" />
  <path
     d="m 1510.0106,199.2165 c 0,-57.8 -46.914,-104.344004 -103.761,-101.642004 -50.9,2.42 -94.292,45.782004 -94.292,98.124004 0,75.717 99,134.1 99,134.1 0,0 99.053,-58.383 99.053,-130.582 z"
     style="fill:none;stroke:#363a5a;stroke-width:6px;stroke-linecap:round;stroke-linejoin:round"
     id="path46" />
  <metadata
     id="metadata1007">
    <rdf:RDF>
      <cc:Work
         rdf:about="">
        <dc:title>109-map-location</dc:title>
      </cc:Work>
    </rdf:RDF>
  </metadata>
  <g
     id="XMLID_3_"
     class="st2"
     style="opacity:0.15"
     transform="translate(1586.2494,-126.67379)">
    <path
       id="XMLID_10_"
       class="st3"
       d="m 813,237 v 456.9 c 0,30.3 -12.4,54.9 -27.8,54.9 H 543 c -15.3,0 -27.8,-24.6 -27.8,-54.9 V 335" />
    <line
       id="XMLID_9_"
       class="st3"
       x1="203"
       y1="748.70001"
       x2="865"
       y2="748.70001" />
    <line
       id="XMLID_18_"
       class="st3"
       x1="515.20001"
       y1="454"
       x2="813"
       y2="454" />
    <line
       id="XMLID_22_-7"
       class="st3"
       x1="515.20001"
       y1="666.90002"
       x2="813"
       y2="666.90002" />
    <path
       id="XMLID_17_"
       class="st3"
       d="m 780.1,653.4 h -20.3 c -6,0 -10.9,-4.9 -10.9,-10.9 V 486.3 c 0,-6 4.9,-10.9 10.9,-10.9 h 20.3 c 6,0 10.9,4.9 10.9,10.9 v 156.2 c 0,6 -4.9,10.9 -10.9,10.9 z" />
    <path
       id="XMLID_25_-9"
       class="st3"
       d="m 721,653.4 h -20.3 c -6,0 -10.9,-4.9 -10.9,-10.9 V 486.3 c 0,-6 4.9,-10.9 10.9,-10.9 H 721 c 6,0 10.9,4.9 10.9,10.9 v 156.2 c 0,6 -4.8,10.9 -10.9,10.9 z" />
    <path
       id="XMLID_60_"
       class="st3"
       d="m 780.1,440.4 h -20.3 c -6,0 -10.9,-4.9 -10.9,-10.9 V 273.3 c 0,-6 4.9,-10.9 10.9,-10.9 h 20.3 c 6,0 10.9,4.9 10.9,10.9 v 156.2 c 0,6 -4.9,10.9 -10.9,10.9 z" />
    <path
       id="XMLID_58_"
       class="st3"
       d="m 734,409.1 v 20.3 c 0,6 -4.9,10.9 -10.9,10.9 H 566.9 c -6,0 -10.9,-4.9 -10.9,-10.9 v -20.3 c 0,-6 4.9,-10.9 10.9,-10.9 h 156.2 c 6,0 10.9,4.9 10.9,10.9 z" />
    <path
       id="XMLID_61_"
       class="st3"
       d="m 734,362.3 v 13.3 c 0,6 -4.9,10.9 -10.9,10.9 H 576.6 c -6,0 -10.9,-4.9 -10.9,-10.9 v -13.3 c 0,-6 4.9,-10.9 10.9,-10.9 h 146.5 c 6,0 10.9,4.9 10.9,10.9 z" />
    <path
       id="XMLID_34_"
       class="st3"
       d="m 613,650.6 -13.8,-5.8 c -3.8,-1.6 -5.7,-6 -4.1,-9.8 l 50.5,-121.2 c 1.6,-3.8 6,-5.7 9.8,-4.1 l 13.8,5.8 c 3.8,1.6 5.7,6 4.1,9.8 l -50.5,121.2 c -1.6,3.9 -6,5.7 -9.8,4.1 z" />
    <polyline
       id="XMLID_57_"
       class="st3"
       points="147.4,460.7 226.7,460.7 226.7,499.4 147.4,499.4  " />
    <line
       id="XMLID_59_"
       class="st3"
       x1="306.10001"
       y1="499.39999"
       x2="226.7"
       y2="499.39999" />
    <line
       id="XMLID_38_"
       class="st3"
       x1="226.7"
       y1="460.70001"
       x2="257.10001"
       y2="460.70001" />
    <rect
       id="XMLID_42_"
       x="187"
       y="499.39999"
       class="st3"
       width="79.300003"
       height="38.700001" />
    <polyline
       id="XMLID_52_-2"
       class="st3"
       points="159.7,538.3 226.7,538.3 226.7,576.9 201,576.9  " />
    <rect
       id="XMLID_54_-0"
       x="226.7"
       y="538.29999"
       class="st3"
       width="79.300003"
       height="38.700001" />
    <rect
       id="XMLID_23_"
       x="311.60001"
       y="315.79999"
       class="st3"
       width="123.1"
       height="99.800003" />
    <polyline
       id="XMLID_62_"
       class="st3"
       points="328.6,392.5 351.2,359.8 374.5,388.7  " />
    <polyline
       id="XMLID_64_"
       class="st3"
       points="365.9,378.1 397.4,347.5 419.8,392.5  " />
    <path
       id="XMLID_63_"
       class="st3"
       d="m 357.7,367.9 c 1.6,-4.7 6,-8.1 11.2,-8.1 4.3,0 8.1,2.3 10.2,5.8" />
  </g>
  <path
     id="XMLID_16_"
     class="st4"
     d="m 2058.6494,495.42621 4.4,-9 9.6,2.7 4.4,-9 9.7,2.7 4.4,-9 9.7,2.7 4.4,-9 9.7,2.7 4.4,-9 9.7,2.7 4.4,-9 9.7,2.7 4.4,-9 9.7,2.7 4.4,-9 9.7,2.7 4.4,-9 9.7,2.7 4.4,-9 9.7,2.7 4.4,-9 -5.8,-7.8 c -7.1,-9.6 -19.9,-13 -30.8,-8.1 l -127.8,57.6 z"
     style="fill:#d2dde1" />
  <path
     id="XMLID_5_"
     class="st3"
     d="m 2058.6494,495.42621 4.4,-9 9.6,2.7 4.4,-9 9.7,2.7 4.4,-9 9.7,2.7 4.4,-9 9.7,2.7 4.4,-9 9.7,2.7 4.4,-9 9.7,2.7 4.4,-9 9.7,2.7 4.4,-9 9.7,2.7 4.4,-9 9.7,2.7 4.4,-9 9.7,2.7 4.4,-9 -5.8,-7.8 c -7.1,-9.6 -19.9,-13 -30.8,-8.1 l -127.8,57.6 z"
     style="fill:none;stroke:#474747;stroke-width:6;stroke-linecap:round;stroke-linejoin:round;stroke-miterlimit:10" />
  <path
     id="XMLID_11_"
     class="st5"
     d="m 1996.1494,530.22621 -74.7,15 -62.1,-309.9 v 0 c 41.9,11.4 74.4,44.4 85.4,86.4 z"
     style="fill:#baced3" />
  <path
     id="XMLID_13_"
     class="st4"
     d="m 2035.1494,455.02621 c -11.2,10.6 -20.9,4.1 -20.7,-4.8 0.4,-14.3 7.9,-29.3 15.9,-40.7 4.7,-6.8 16.8,-19 23.5,-13.7 l 16.4,-72.2 -26.2,-34.2 -4.8,8.2 c -11.5,19.8 -21.7,40.2 -30.6,61.3 -9,21.2 -16.3,43 -22.3,65.3 l -27,100.8 47.2,15.2 c 0,0 15.6,-16.7 20.2,-27.1 12.6,-28.6 18.7,-54.3 18.7,-54.3 z"
     style="fill:#d2dde1" />
  <path
     id="XMLID_7_"
     class="st3"
     d="m 2035.1494,455.02621 c -11.2,10.6 -20.9,4.1 -20.7,-4.8 0.4,-14.3 7.9,-29.3 15.9,-40.7 4.7,-6.8 16.1,-16.3 23.5,-13.7 l 16.4,-72.2 -26.2,-34.2 -4.8,8.2 c -11.5,19.8 -21.7,40.2 -30.6,61.3 -9,21.2 -16.3,43 -22.3,65.3 l -27,100.8 47.2,15.2 c 0,0 15.6,-16.7 20.2,-27.1 12.6,-28.6 18.7,-54.3 18.7,-54.3 z"
     style="fill:none;stroke:#474747;stroke-width:6;stroke-linecap:round;stroke-linejoin:round;stroke-miterlimit:10" />
  <path
     id="XMLID_12_"
     class="st6"
     d="m 1880.6494,243.32621 65.7,296.9 49.7,-10 -51.4,-208.6 c -8.9,-34.5 -32.6,-62.9 -64,-78.3 z"
     style="fill:#e7eff1" />
  <path
     id="XMLID_4_-2"
     class="st3"
     d="m 1996.1494,530.22621 -74.7,15 -62.1,-309.9 v 0 c 41.9,11.4 74.4,44.4 85.4,86.4 z"
     style="fill:none;stroke:#474747;stroke-width:6;stroke-linecap:round;stroke-linejoin:round;stroke-miterlimit:10" />
  <path
     id="XMLID_15_"
     class="st7"
     d="m 2032.0494,475.12621 14.3,-0.5 c 3,-0.1 4.9,-2.3 4.5,-5.3 l -2,-14.2 14.3,-0.5 c 3,-0.1 4.9,-2.3 4.5,-5.3 l -2,-14.2 14.3,-0.5 c 3,-0.1 4.9,-2.3 4.5,-5.3 l -2,-14.2 14.3,-0.5 c 3,-0.1 4.9,-2.3 4.5,-5.3 l -2,-14.2 14.3,-0.5 c 3,-0.1 4.9,-2.3 4.5,-5.3 l -2,-14.2 15.6,-1.5 c 3.4,-0.3 5.1,-3.4 3.7,-6.9 l -13.4,-33.5 -3.6,26.8 -13.8,0.5 c -3.3,0.1 -5.4,2.6 -4.9,5.8 l 1.9,13.7 -13.8,0.5 c -3.3,0.1 -5.4,2.6 -4.9,5.8 l 1.9,13.7 -13.8,0.5 c -3.3,0.1 -5.4,2.6 -4.9,5.8 l 1.9,13.7 -13.8,0.5 c -3.3,0.1 -5.4,2.6 -4.9,5.8 l 1.9,13.7 -13.8,0.5 c -3.3,0.1 -5.4,2.6 -4.9,5.8 l 1.9,13.7 -19.5,0.7 -18.7,22.3 23.4,19.6 z"
     style="fill:#bcc6c9" />
  <path
     id="XMLID_6_-3"
     class="st3"
     d="m 2032.0494,475.12621 14.3,-0.5 c 3,-0.1 4.9,-2.3 4.5,-5.3 l -2,-14.2 14.3,-0.5 c 3,-0.1 4.9,-2.3 4.5,-5.3 l -2,-14.2 14.3,-0.5 c 3,-0.1 4.9,-2.3 4.5,-5.3 l -2,-14.2 14.3,-0.5 c 3,-0.1 4.9,-2.3 4.5,-5.3 l -2,-14.2 14.3,-0.5 c 3,-0.1 4.9,-2.3 4.5,-5.3 l -2,-14.2 15.6,-1.5 c 3.4,-0.3 5.1,-3.4 3.7,-6.9 l -13.4,-33.5 -3.6,26.8 -13.8,0.5 c -3.3,0.1 -5.4,2.6 -4.9,5.8 l 1.9,13.7 -13.8,0.5 c -3.3,0.1 -5.4,2.6 -4.9,5.8 l 1.9,13.7 -13.8,0.5 c -3.3,0.1 -5.4,2.6 -4.9,5.8 l 1.9,13.7 -13.8,0.5 c -3.3,0.1 -5.4,2.6 -4.9,5.8 l 1.9,13.7 -13.8,0.5 c -3.3,0.1 -5.4,2.6 -4.9,5.8 l 1.9,13.7 -19.5,0.7 -18.7,22.3 23.4,19.6 z"
     style="fill:none;stroke:#474747;stroke-width:6;stroke-linecap:round;stroke-linejoin:round;stroke-miterlimit:10" />
  <path
     id="XMLID_8_"
     class="st8"
     d="m 2243.1494,622.02621 h -260 c -38.7,0 -70,-31.3 -70,-70 v 0 c 0,-38.7 31.3,-70 70,-70 h 260 c 38.7,0 70,31.3 70,70 v 0 c 0,38.7 -31.3,70 -70,70 z"
     style="fill:#9acf8d" />
  <path
     id="XMLID_47_"
     class="st9"
     d="m 2243.1494,606.02621 h -260 c -35.9,0 -65.5,-27.1 -69.5,-62 -0.3,2.6 -0.5,5.3 -0.5,8 v 0 c 0,38.7 31.3,70 70,70 h 260 c 38.7,0 70,-31.3 70,-70 v 0 c 0,-2.7 -0.2,-5.4 -0.5,-8 -3.9,34.9 -33.5,62 -69.5,62 z"
     style="fill:#85b578" />
  <path
     id="XMLID_46_"
     class="st10"
     d="m 2243.1494,482.02621 h -260 c -38.7,0 -70,31.3 -70,70 v 0 c 0,2.5 0.1,5.1 0.4,7.5 3.8,-35.1 33.5,-62.5 69.6,-62.5 h 260 c 36.1,0 65.8,27.4 69.6,62.5 0.3,-2.5 0.4,-5 0.4,-7.5 v 0 c 0,-38.6 -31.3,-70 -70,-70 z"
     style="fill:#bfe8b3" />
  <path
     id="XMLID_1_-7"
     class="st3"
     d="m 2243.1494,622.02621 h -260 c -38.7,0 -70,-31.3 -70,-70 v 0 c 0,-38.7 31.3,-70 70,-70 h 260 c 38.7,0 70,31.3 70,70 v 0 c 0,38.7 -31.3,70 -70,70 z"
     style="fill:none;stroke:#474747;stroke-width:6;stroke-linecap:round;stroke-linejoin:round;stroke-miterlimit:10" />
  <line
     id="XMLID_14_"
     class="st11"
     x1="1942.0494"
     y1="475.02625"
     x2="1972.8495"
     y2="466.52625"
     style="fill:none;stroke:#474747;stroke-width:3;stroke-linecap:round;stroke-linejoin:round;stroke-miterlimit:10" />
  <circle
     id="XMLID_21_"
     class="st4"
     cx="1987.4495"
     cy="552.02625"
     r="25.200001"
     style="fill:#d2dde1" />
  <path
     id="XMLID_36_"
     class="st12"
     d="m 1967.0494,588.92621 c -13,-7.2 -21.8,-21 -21.8,-36.9 0,-9.4 3.1,-18.1 8.4,-25.2"
     style="opacity:0.2;fill:none;stroke:#474747;stroke-width:6;stroke-linecap:round;stroke-linejoin:round;stroke-miterlimit:10;enable-background:new" />
  <circle
     id="XMLID_19_"
     class="st3"
     cx="1987.4495"
     cy="552.02625"
     r="25.200001"
     style="fill:none;stroke:#474747;stroke-width:6;stroke-linecap:round;stroke-linejoin:round;stroke-miterlimit:10" />
  <path
     id="XMLID_32_"
     class="st11"
     d="m 2022.1494,362.12621 c 0,0 -15.3,38.7 -19.6,60"
     style="fill:none;stroke:#474747;stroke-width:3;stroke-linecap:round;stroke-linejoin:round;stroke-miterlimit:10" />
  <line
     id="XMLID_27_-5"
     class="st3"
     x1="1987.4495"
     y1="536.02625"
     x2="1987.4495"
     y2="568.12622"
     style="fill:none;stroke:#474747;stroke-width:6;stroke-linecap:round;stroke-linejoin:round;stroke-miterlimit:10" />
  <line
     id="XMLID_24_-9"
     class="st3"
     x1="2003.4495"
     y1="552.02625"
     x2="1971.3495"
     y2="552.02625"
     style="fill:none;stroke:#474747;stroke-width:6;stroke-linecap:round;stroke-linejoin:round;stroke-miterlimit:10" />
  <line
     id="XMLID_30_-2"
     class="st11"
     x1="1918.6494"
     y1="414.82623"
     x2="1928.7494"
     y2="460.52625"
     style="fill:none;stroke:#474747;stroke-width:3;stroke-linecap:round;stroke-linejoin:round;stroke-miterlimit:10" />
  <line
     id="XMLID_20_-2"
     class="st11"
     x1="1886.4495"
     y1="269.2262"
     x2="1914.8495"
     y2="397.62622"
     style="fill:none;stroke:#474747;stroke-width:3;stroke-linecap:round;stroke-linejoin:round;stroke-miterlimit:10" />
  <style
     type="text/css"
     id="style2">
	.st0{fill:#FFB600;}
	.st1{fill:#330E00;}
	.st2{opacity:0.3;}
	.st3{fill:#2D2D2D;stroke:#2D2D2D;stroke-width:8;stroke-linecap:round;stroke-linejoin:round;stroke-miterlimit:10;}
	.st4{fill:#00B3C6;}
	.st5{opacity:0.5;fill:#00B3C6;}
	.st6{opacity:0.35;fill:#00B3C6;}
	.st7{fill:none;stroke:#330E00;stroke-width:8;stroke-linecap:round;stroke-linejoin:round;stroke-miterlimit:10;}
	.st8{fill:#565656;}
	.st9{opacity:0.27;fill:#565656;}
	.st10{fill:#FF1F1F;}
	.st11{fill:#FDD2A7;}
	.st12{opacity:0.5;fill:#FDD2A7;}
	.st13{fill:#3BABFF;}
	.st14{opacity:0.3;fill:#2D2D2D;stroke:#2D2D2D;stroke-width:8;stroke-linecap:round;stroke-linejoin:round;stroke-miterlimit:10;}
	.st15{fill:#FFFFFF;}
	.st16{fill:#C0C0C0;stroke:#C0C0C0;stroke-width:8;stroke-linecap:round;stroke-linejoin:round;stroke-miterlimit:10;}
	.st17{fill:none;stroke:#330E00;stroke-width:4;stroke-linecap:round;stroke-linejoin:round;stroke-miterlimit:10;}
	.st18{fill:none;stroke:#FFFFFF;stroke-width:5;stroke-linecap:round;stroke-miterlimit:10;}
	.st19{fill:none;stroke:#330E00;stroke-width:6;stroke-linecap:round;stroke-linejoin:round;stroke-miterlimit:10;}
	.st20{fill:#8C6239;}
	.st21{fill:#42210B;}
	.st22{fill:#603813;}
	.st23{fill:#BD3F3A;}
	.st24{fill:#A33500;}
	.st25{fill:#6D2300;}
	.st26{fill:#FF9999;}
	.st27{fill:#FF0000;}
	.st28{fill:#FF3333;stroke:#330E00;stroke-width:8;stroke-linecap:round;stroke-linejoin:round;stroke-miterlimit:10;}
	.st29{fill:#BF0000;}
</style>
  <g
     id="g2249"
     transform="matrix(1.2483706,0,0,1.3389405,-388.70786,-253.95371)">
    <g
       id="XMLID_96_"
       class="st2">
		<rect
   id="XMLID_77_"
   x="430.29999"
   y="388.79999"
   class="st3"
   width="42"
   height="246.5" />

		<rect
   id="XMLID_76_"
   x="424.70001"
   y="635.20001"
   class="st3"
   width="53.299999"
   height="30" />

		<path
   id="XMLID_75_"
   class="st3"
   d="M 463.7,691 H 439 c -4.8,0 -8.7,-3.9 -8.7,-8.7 v -17.2 h 42 v 17.2 c 0,4.8 -3.8,8.7 -8.6,8.7 z" />

		<polygon
   id="XMLID_73_"
   class="st3"
   points="451.3,322.3 472.3,388.8 430.3,388.8 " />

	</g>
    <g
       id="XMLID_89_"
       class="st2">
		<rect
   id="XMLID_95_"
   x="564.90002"
   y="482.5"
   class="st3"
   width="37.299999"
   height="212" />

		<rect
   id="XMLID_94_"
   x="559.59998"
   y="339.5"
   class="st3"
   width="48"
   height="143" />

		<path
   id="XMLID_93_"
   class="st3"
   d="m 602.2,339.5 h -37.3 v -2.3 c 0,-10.3 8.4,-18.7 18.7,-18.7 v 0 c 10.3,0 18.7,8.4 18.7,18.7 v 2.3 z" />

		<line
   id="XMLID_92_"
   class="st3"
   x1="545.70001"
   y1="361.89999"
   x2="545.70001"
   y2="451.20001" />

		<line
   id="XMLID_91_"
   class="st3"
   x1="559.59998"
   y1="376.29999"
   x2="545.70001"
   y2="376.29999" />

		<path
   id="XMLID_90_"
   class="st3"
   d="m 597.8,694.5 c 0,7.9 -6.4,14.3 -14.3,14.3 -7.9,0 -14.3,-6.4 -14.3,-14.3 z" />

	</g>
    <g
       id="XMLID_65_">
		<rect
   id="XMLID_66_"
   x="555.90002"
   y="472.5"
   class="st4"
   width="37.299999"
   height="212" />

		<rect
   id="XMLID_105_"
   x="579.70001"
   y="472.5"
   class="st5"
   width="13.6"
   height="212" />

		<rect
   id="XMLID_101_"
   x="555.90002"
   y="472.5"
   class="st6"
   width="13.4"
   height="212" />

		<rect
   id="XMLID_26_"
   x="555.90002"
   y="472.5"
   class="st7"
   width="37.299999"
   height="212" />

		<rect
   id="XMLID_67_"
   x="550.59998"
   y="329.5"
   class="st8"
   width="48"
   height="143" />

		<rect
   id="XMLID_100_"
   x="550.59998"
   y="329.5"
   class="st9"
   width="14.3"
   height="143" />

		<rect
   id="XMLID_102_"
   x="583.59998"
   y="329.5"
   class="st9"
   width="14.3"
   height="143" />

		<rect
   id="XMLID_27_"
   x="550.59998"
   y="329.5"
   class="st7"
   width="48"
   height="143" />

		<path
   id="XMLID_68_"
   class="st4"
   d="m 593.2,329.5 h -37.3 v -2.3 c 0,-10.3 8.4,-18.7 18.7,-18.7 v 0 c 10.3,0 18.7,8.4 18.7,18.7 v 2.3 z" />

		<path
   id="XMLID_29_"
   class="st7"
   d="m 593.2,329.5 h -37.3 v -2.3 c 0,-10.3 8.4,-18.7 18.7,-18.7 v 0 c 10.3,0 18.7,8.4 18.7,18.7 v 2.3 z" />

		<line
   id="XMLID_31_"
   class="st7"
   x1="536.70001"
   y1="351.89999"
   x2="536.70001"
   y2="441.20001" />

		<line
   id="XMLID_32_-1"
   class="st7"
   x1="550.59998"
   y1="366.29999"
   x2="536.70001"
   y2="366.29999" />

		<path
   id="XMLID_72_"
   class="st8"
   d="m 588.8,684.5 c 0,7.9 -6.4,14.3 -14.3,14.3 -7.9,0 -14.3,-6.4 -14.3,-14.3 z" />

		<path
   id="XMLID_74_"
   class="st7"
   d="m 588.8,684.5 c 0,7.9 -6.4,14.3 -14.3,14.3 -7.9,0 -14.3,-6.4 -14.3,-14.3 z" />

	</g>
    <g
       id="XMLID_47_-0">
		<rect
   id="XMLID_48_"
   x="419.29999"
   y="376.79999"
   class="st10"
   width="42"
   height="246.5" />

		<rect
   id="XMLID_28_"
   x="419.29999"
   y="376.79999"
   class="st7"
   width="42"
   height="246.5" />

		<rect
   id="XMLID_38_-6"
   x="433"
   y="376.79999"
   class="st7"
   width="14.6"
   height="246.5" />

		<rect
   id="XMLID_50_"
   x="413.70001"
   y="623.20001"
   class="st11"
   width="53.299999"
   height="30" />

		<rect
   id="XMLID_107_"
   x="451.29999"
   y="623.20001"
   class="st12"
   width="15.7"
   height="30" />

		<rect
   id="XMLID_106_"
   x="413.70001"
   y="623.20001"
   class="st11"
   width="14.3"
   height="30" />

		<rect
   id="XMLID_39_"
   x="413.70001"
   y="623.20001"
   class="st7"
   width="53.299999"
   height="30" />

		<path
   id="XMLID_49_"
   class="st13"
   d="M 452.7,679 H 428 c -4.8,0 -8.7,-3.9 -8.7,-8.7 v -17.2 h 42 v 17.2 c 0,4.8 -3.8,8.7 -8.6,8.7 z" />

		<path
   id="XMLID_40_"
   class="st7"
   d="M 452.7,679 H 428 c -4.8,0 -8.7,-3.9 -8.7,-8.7 v -17.2 h 42 v 17.2 c 0,4.8 -3.8,8.7 -8.6,8.7 z" />

		<polygon
   id="XMLID_51_"
   class="st11"
   points="440.3,310.3 461.3,376.8 419.3,376.8 " />

		<polygon
   id="XMLID_41_"
   class="st7"
   points="440.3,310.3 461.3,376.8 419.3,376.8 " />

		<polygon
   id="XMLID_45_"
   class="st1"
   points="449.2,338.5 440.3,310.3 431.4,338.5 " />

	</g>
    <line
       id="XMLID_69_"
       class="st19"
       x1="569.70001"
       y1="585.5"
       x2="569.70001"
       y2="666.29999" />
    <g
       id="XMLID_84_">
		<rect
   id="XMLID_83_"
   x="555.90002"
   y="472.5"
   class="st7"
   width="37.299999"
   height="212" />

		<rect
   id="XMLID_82_"
   x="550.59998"
   y="329.5"
   class="st7"
   width="48"
   height="143" />

		<path
   id="XMLID_81_"
   class="st7"
   d="m 593.2,329.5 h -37.3 v -2.3 c 0,-10.3 8.4,-18.7 18.7,-18.7 v 0 c 10.3,0 18.7,8.4 18.7,18.7 v 2.3 z" />

		<line
   id="XMLID_80_"
   class="st7"
   x1="536.70001"
   y1="351.89999"
   x2="536.70001"
   y2="441.20001" />

		<line
   id="XMLID_79_"
   class="st7"
   x1="550.59998"
   y1="366.29999"
   x2="536.70001"
   y2="366.29999" />

		<path
   id="XMLID_78_"
   class="st7"
   d="m 588.8,684.5 c 0,7.9 -6.4,14.3 -14.3,14.3 -7.9,0 -14.3,-6.4 -14.3,-14.3 z" />

	</g>
    <g
       id="g297">
	<g
   id="XMLID_88_"
   class="st2">
		<path
   id="XMLID_85_"
   class="st3"
   d="m 723,681.4 -48.5,-35.3 c -8,-5.8 -9.8,-17.1 -4,-25.1 L 830.4,400.9 c 5.8,-8 17.1,-9.8 25.1,-4 l 48.5,35.3 c 8,5.8 9.8,17.1 4,25.1 L 748.1,677.4 c -5.8,8 -17.1,9.8 -25.1,4 z" />

		<path
   id="XMLID_86_"
   class="st3"
   d="m 745.1,653.6 h -60 c -9.9,0 -18,-8.1 -18,-18 v -272 c 0,-9.9 8.1,-18 18,-18 h 60 c 9.9,0 18,8.1 18,18 v 272 c 0,10 -8,18 -18,18 z" />

		<path
   id="XMLID_87_"
   class="st3"
   d="M 737.8,668.8 680.1,652.3 C 670.5,649.6 665,639.6 667.8,630 l 75,-261.5 c 2.7,-9.6 12.7,-15.1 22.3,-12.3 l 57.7,16.5 c 9.6,2.7 15.1,12.7 12.3,22.3 l -75,261.5 c -2.8,9.5 -12.7,15 -22.3,12.3 z" />

	</g>

	<g
   id="XMLID_35_">
		<g
   id="XMLID_18_-3">
			<path
   id="XMLID_52_"
   class="st15"
   d="m 718,665.4 -48.5,-35.3 c -8,-5.8 -9.8,-17.1 -4,-25.1 L 825.4,384.9 c 5.8,-8 17.1,-9.8 25.1,-4 l 48.5,35.3 c 8,5.8 9.8,17.1 4,25.1 L 743.1,661.4 c -5.8,8 -17.1,9.8 -25.1,4 z" />

			<path
   id="XMLID_24_"
   class="st7"
   d="m 718,665.4 -48.5,-35.3 c -8,-5.8 -9.8,-17.1 -4,-25.1 L 825.4,384.9 c 5.8,-8 17.1,-9.8 25.1,-4 l 48.5,35.3 c 8,5.8 9.8,17.1 4,25.1 L 743.1,661.4 c -5.8,8 -17.1,9.8 -25.1,4 z" />

			<path
   id="XMLID_23_-2"
   class="st7"
   d="M 797.2,586.9 719.5,530.5 825.3,384.9 c 5.8,-8 17.1,-9.8 25.1,-4 l 48.5,35.3 c 8,5.8 9.8,17.1 4,25.1 z" />

			<path
   id="XMLID_62_-0"
   class="st20"
   d="M 874.8,480.2 797.1,423.8 825.3,385 c 5.8,-8 17.1,-9.8 25.1,-4 l 48.5,35.3 c 8,5.8 9.8,17.1 4,25.1 z" />

			<path
   id="XMLID_22_"
   class="st7"
   d="M 874.8,480.2 797.1,423.8 825.3,385 c 5.8,-8 17.1,-9.8 25.1,-4 l 48.5,35.3 c 8,5.8 9.8,17.1 4,25.1 z" />

			
				<rect
   id="XMLID_60_-6"
   x="729.70001"
   y="499"
   transform="matrix(0.809,0.5878,-0.5878,0.809,461.26,-355.5381)"
   class="st21"
   width="96"
   height="66" />

			
				<rect
   id="XMLID_61_-1"
   x="768.5"
   y="445.60001"
   transform="matrix(0.809,0.5878,-0.5878,0.809,437.2841,-388.5381)"
   class="st22"
   width="96"
   height="66" />

			
				<rect
   id="XMLID_21_-5"
   x="768.5"
   y="445.60001"
   transform="matrix(0.809,0.5878,-0.5878,0.809,437.2841,-388.5381)"
   class="st7"
   width="96"
   height="66" />

			
				<rect
   id="XMLID_20_"
   x="729.70001"
   y="499"
   transform="matrix(0.809,0.5878,-0.5878,0.809,461.26,-355.5381)"
   class="st7"
   width="96"
   height="66" />

			<circle
   id="XMLID_19_-5"
   class="st7"
   cx="687.29999"
   cy="614.59998"
   r="8" />

		</g>

		<path
   id="XMLID_112_"
   class="st14"
   d="M 824.7,360.7 767,344.2 c -9.6,-2.7 -19.5,2.8 -22.3,12.3 l -75,261.5 c -2.7,9.6 2.8,19.5 12.3,22.3 l 52.6,-3 c 0.5,0.1 4.9,0.3 5.4,0.4 h 4.8 l 7.7,-0.8 c 8.2,-0.9 15,-6.6 17.2,-14.6 L 837.1,383 c 2.7,-9.6 -2.8,-19.5 -12.4,-22.3 z" />

		<g
   id="XMLID_11_-4">
			<path
   id="XMLID_53_"
   class="st15"
   d="M 732.8,652.8 675.1,636.3 C 665.5,633.6 660,623.6 662.8,614 l 75,-261.5 c 2.7,-9.6 12.7,-15.1 22.3,-12.3 l 57.7,16.5 c 9.6,2.7 15.1,12.7 12.3,22.3 l -75,261.5 c -2.8,9.5 -12.7,15 -22.3,12.3 z" />

			<path
   id="XMLID_17_-7"
   class="st7"
   d="M 732.8,652.8 675.1,636.3 C 665.5,633.6 660,623.6 662.8,614 l 75,-261.5 c 2.7,-9.6 12.7,-15.1 22.3,-12.3 l 57.7,16.5 c 9.6,2.7 15.1,12.7 12.3,22.3 l -75,261.5 c -2.8,9.5 -12.7,15 -22.3,12.3 z" />

			<path
   id="XMLID_15_-6"
   class="st23"
   d="m 816.8,425.1 -92.3,-26.5 13.2,-46.1 c 2.7,-9.6 12.7,-15.1 22.3,-12.3 l 57.7,16.5 c 9.6,2.7 15.1,12.7 12.3,22.3 z" />

			<path
   id="XMLID_16_-5"
   class="st7"
   d="m 780.4,552 -92.3,-26.5 49.6,-173 c 2.7,-9.6 12.7,-15.1 22.3,-12.3 l 57.7,16.5 c 9.6,2.7 15.1,12.7 12.3,22.3 z" />

			
				<rect
   id="XMLID_64_-6"
   x="713.59998"
   y="410.60001"
   transform="matrix(0.9613,0.2756,-0.2756,0.9613,151.7833,-192.7368)"
   class="st24"
   width="96"
   height="66" />

			
				<rect
   id="XMLID_14_-9"
   x="713.59998"
   y="410.60001"
   transform="matrix(0.9613,0.2756,-0.2756,0.9613,151.7833,-192.7368)"
   class="st7"
   width="96"
   height="66" />

			
				<rect
   id="XMLID_63_-3"
   x="695.40002"
   y="474.10001"
   transform="matrix(0.9613,0.2756,-0.2756,0.9613,168.5659,-185.2647)"
   class="st25"
   width="96"
   height="66" />

			
				<rect
   id="XMLID_13_-7"
   x="695.40002"
   y="474.10001"
   transform="matrix(0.9613,0.2756,-0.2756,0.9613,168.5659,-185.2647)"
   class="st7"
   width="96"
   height="66" />

			<circle
   id="XMLID_12_-4"
   class="st7"
   cx="686.59998"
   cy="615.59998"
   r="8" />

		</g>

		<path
   id="XMLID_108_"
   class="st14"
   d="m 748.1,641.6 h -60 c -9.9,0 -18,-8.1 -18,-18 v -272 c 0,-9.9 8.1,-18 18,-18 h 60 c 9.9,0 18,8.1 18,18 v 272 c 0,10 -8,18 -18,18 z" />

		<g
   id="XMLID_9_-5">
			<path
   id="XMLID_54_"
   class="st15"
   d="m 740.1,637.6 h -60 c -9.9,0 -18,-8.1 -18,-18 v -272 c 0,-9.9 8.1,-18 18,-18 h 60 c 9.9,0 18,8.1 18,18 v 272 c 0,10 -8,18 -18,18 z" />

			<path
   id="XMLID_1_"
   class="st7"
   d="m 740.1,637.6 h -60 c -9.9,0 -18,-8.1 -18,-18 v -272 c 0,-9.9 8.1,-18 18,-18 h 60 c 9.9,0 18,8.1 18,18 v 272 c 0,10 -8,18 -18,18 z" />

			<path
   id="XMLID_4_"
   class="st7"
   d="m 758.1,527.6 h -96 v -180 c 0,-9.9 8.1,-18 18,-18 h 60 c 9.9,0 18,8.1 18,18 z" />

			<path
   id="XMLID_59_-2"
   class="st26"
   d="m 758.1,395.6 h -96 v -48 c 0,-9.9 8.1,-18 18,-18 h 60 c 9.9,0 18,8.1 18,18 z" />

			<path
   id="XMLID_5_-5"
   class="st7"
   d="m 758.1,395.6 h -96 v -48 c 0,-9.9 8.1,-18 18,-18 h 60 c 9.9,0 18,8.1 18,18 z" />

			<rect
   id="XMLID_58_-4"
   x="662.09998"
   y="395.60001"
   class="st27"
   width="96"
   height="66" />

			<rect
   id="XMLID_7_-7"
   x="662.09998"
   y="395.60001"
   class="st28"
   width="96"
   height="66" />

			<rect
   id="XMLID_56_"
   x="662.09998"
   y="461.60001"
   class="st29"
   width="96"
   height="66" />

			<rect
   id="XMLID_8_-4"
   x="662.09998"
   y="461.60001"
   class="st7"
   width="96"
   height="66" />

			<circle
   id="XMLID_6_-4"
   class="st7"
   cx="685.5"
   cy="614.59998"
   r="8" />

			<g
   id="g287">
				<path
   class="st1"
   d="m 676.3,544.2 h -1.7 v 2.9 h -0.8 v -6.8 h 2.5 c 2,0 2.8,0.8 2.8,2 0,1.1 -0.8,1.9 -2.8,1.9 z m 0,-0.6 c 1.4,0 2,-0.5 2,-1.4 0,-0.9 -0.6,-1.4 -2,-1.4 h -1.7 v 2.8 z"
   id="path273" />

				<path
   class="st1"
   d="m 685.6,545.5 h -3.8 l -0.7,1.6 h -0.9 l 3.1,-6.7 h 1 l 3.1,6.7 h -0.9 z m -1.9,-4.2 -1.7,3.7 h 3.3 z"
   id="path275" />

				<path
   class="st1"
   d="m 695.1,540.3 v 6.8 h -0.8 l -4.7,-5.7 v 5.7 h -0.8 v -6.8 h 0.8 l 4.7,5.7 v -5.7 z"
   id="path277" />

				<path
   class="st1"
   d="m 696.6,540.3 h 5.5 v 0.6 h -2.3 v 6.2 H 699 v -6.2 h -2.4 z"
   id="path279" />

				<path
   class="st1"
   d="m 707.4,547.2 c -2.4,0 -4.2,-1.4 -4.2,-3.5 0,-2 1.8,-3.5 4.2,-3.5 2.4,0 4.2,1.4 4.2,3.5 0,2.1 -1.8,3.5 -4.2,3.5 z m 0,-0.6 c 1.9,0 3.3,-1.1 3.3,-2.9 0,-1.8 -1.4,-2.9 -3.3,-2.9 -1.9,0 -3.3,1.1 -3.3,2.9 0,1.8 1.5,2.9 3.3,2.9 z"
   id="path281" />

				<path
   class="st1"
   d="m 719.7,540.3 v 6.8 h -0.8 l -4.7,-5.7 v 5.7 h -0.8 v -6.8 h 0.8 l 4.7,5.7 v -5.7 z"
   id="path283" />

				<path
   class="st1"
   d="m 726.2,540.9 h -3.6 v 2.5 h 3.2 v 0.6 h -3.2 v 2.6 h 3.6 v 0.6 h -4.4 v -6.8 h 4.4 z"
   id="path285" />

			</g>

			<g
   id="g293">
				<path
   class="st1"
   d="m 728.4,540.2 h 1.6 v 0.2 h -0.6 v 2 H 729 v -2 h -0.6 z"
   id="path289" />

				<path
   class="st1"
   d="m 730.4,540.2 h 0.3 l 0.8,1.8 0.8,-1.8 h 0.3 v 2.2 h -0.3 v -1.7 l -0.8,1.7 h -0.2 l -0.8,-1.7 v 1.7 h -0.3 v -2.2 z"
   id="path291" />

			</g>

		</g>

	</g>

</g>
  </g>
</svg>
