<?xml version="1.0" encoding="UTF-8" standalone="no"?>
<!-- Created with Inkscape (http://www.inkscape.org/) -->

<svg
   width="110.63mm"
   height="21.562mm"
   version="1.1"
   viewBox="0 0 110.62999 21.562"
   xml:space="preserve"
   id="svg3646"
   sodipodi:docname="text-logo-pro.svg"
   inkscape:version="1.2.2 (732a01da63, 2022-12-09, custom)"
   xmlns:inkscape="http://www.inkscape.org/namespaces/inkscape"
   xmlns:sodipodi="http://sodipodi.sourceforge.net/DTD/sodipodi-0.dtd"
   xmlns="http://www.w3.org/2000/svg"
   xmlns:svg="http://www.w3.org/2000/svg"><defs
     id="defs3650" /><sodipodi:namedview
     id="namedview3648"
     pagecolor="#ffffff"
     bordercolor="#666666"
     borderopacity="1.0"
     inkscape:showpageshadow="2"
     inkscape:pageopacity="0.0"
     inkscape:pagecheckerboard="0"
     inkscape:deskcolor="#d1d1d1"
     inkscape:document-units="mm"
     showgrid="false"
     inkscape:zoom="1.5983989"
     inkscape:cx="254.31699"
     inkscape:cy="53.178215"
     inkscape:window-width="1850"
     inkscape:window-height="1011"
     inkscape:window-x="0"
     inkscape:window-y="0"
     inkscape:window-maximized="1"
     inkscape:current-layer="svg3646" /><g
     id="g8717"><g
       fill="#808080"
       stroke-width="0.018522"
       aria-label="tagspaces pro"
       id="g3638"
       style="fill:#616577;fill-opacity:1"
       transform="translate(-7.2898,-320.64)"><path
         d="m 13.363,336.92 q -1.1289,0 -2.032,-0.56444 -0.90311,-0.58703 -1.4224,-1.5804 -0.51929,-0.99342 -0.51929,-2.2352 v -10.77 q 0,-0.49671 0.31609,-0.8128 0.31609,-0.31609 0.8128,-0.31609 0.49671,0 0.8128,0.31609 0.31609,0.31609 0.31609,0.8128 v 10.77 q 0,0.90311 0.49671,1.5127 0.49671,0.6096 1.2192,0.6096 h 0.76764 q 0.4064,0 0.67733,0.31609 0.29351,0.31609 0.29351,0.8128 0,0.49671 -0.38382,0.8128 -0.36124,0.31609 -0.94827,0.31609 z m -5.0123,-9.9568 q -0.47413,0 -0.76765,-0.27093 -0.29351,-0.27094 -0.29351,-0.67734 0,-0.45155 0.29351,-0.72249 0.29351,-0.27093 0.76765,-0.27093 h 5.2155 q 0.47413,0 0.76764,0.27093 0.29351,0.27094 0.29351,0.72249 0,0.4064 -0.29351,0.67734 -0.29351,0.27093 -0.76764,0.27093 z"
         id="path3614"
         style="fill:#616577;fill-opacity:1" /><path
         d="m 21.733,337.01 q -1.6482,0 -2.9577,-0.8128 -1.3095,-0.83538 -2.0772,-2.2352 -0.74507,-1.4224 -0.74507,-3.206 0,-1.7836 0.8128,-3.206 0.83538,-1.4224 2.2352,-2.2352 1.4224,-0.83538 3.1835,-0.83538 1.7611,0 3.1609,0.83538 1.3998,0.8128 2.2126,2.2352 0.83538,1.4224 0.83538,3.206 h -0.88053 q 0,1.7836 -0.76764,3.206 -0.74507,1.3998 -2.0546,2.2352 -1.3095,0.8128 -2.9577,0.8128 z m 0.45156,-2.032 q 1.1515,0 2.0546,-0.54187 0.90311,-0.56444 1.4224,-1.5127 0.51929,-0.97084 0.51929,-2.1675 0,-1.2192 -0.51929,-2.1675 -0.51929,-0.97084 -1.4224,-1.5127 -0.90311,-0.56444 -2.0546,-0.56444 -1.1289,0 -2.0546,0.56444 -0.90311,0.54187 -1.445,1.5127 -0.51929,0.94827 -0.51929,2.1675 0,1.1966 0.51929,2.1675 0.54187,0.94827 1.445,1.5127 0.92569,0.54187 2.0546,0.54187 z m 5.0574,1.9643 q -0.49671,0 -0.83538,-0.31609 -0.31609,-0.33867 -0.31609,-0.83538 v -3.4544 l 0.42898,-2.3932 1.874,0.8128 v 5.0348 q 0,0.49671 -0.33867,0.83538 -0.31609,0.31609 -0.8128,0.31609 z"
         id="path3616"
         style="fill:#616577;fill-opacity:1" /><path
         d="m 35.634,337.01 q -1.6933,0 -3.0028,-0.79022 -1.2869,-0.8128 -2.032,-2.2126 -0.74507,-1.4224 -0.74507,-3.2512 0,-1.8514 0.79022,-3.2512 0.8128,-1.4224 2.2126,-2.2126 1.3998,-0.8128 3.2286,-0.8128 1.8062,0 3.206,0.8128 1.3998,0.79023 2.19,2.2126 0.8128,1.3998 0.8128,3.2512 h -1.3321 q 0,1.8288 -0.69991,3.2512 -0.67733,1.3998 -1.874,2.2126 -1.1966,0.79022 -2.7545,0.79022 z m 0.4064,5.0348 q -1.603,0 -3.0028,-0.63218 -1.3998,-0.63217 -2.3707,-1.8514 -0.29351,-0.38382 -0.22578,-0.79022 0.09031,-0.4064 0.45156,-0.65475 0.4064,-0.27094 0.83538,-0.18063 0.45156,0.0903 0.72249,0.45156 0.6096,0.76764 1.5353,1.1966 0.92569,0.42898 2.0997,0.42898 1.0837,0 1.9868,-0.51929 0.92569,-0.51929 1.4676,-1.5353 0.54187,-1.016 0.54187,-2.4836 v -3.206 l 0.74507,-1.9868 1.4676,0.47413 v 4.8768 q 0,1.7836 -0.79022,3.2286 -0.79022,1.4676 -2.2126,2.3255 -1.3998,0.85795 -3.2512,0.85795 z m 0.04516,-7.0668 q 1.174,0 2.0772,-0.54187 0.90311,-0.54186 1.3998,-1.4901 0.51929,-0.94827 0.51929,-2.19 0,-1.24173 -0.51929,-2.19 -0.49671,-0.97085 -1.3998,-1.5127 -0.90311,-0.54186 -2.0772,-0.54186 -1.174,0 -2.0772,0.54186 -0.90311,0.54187 -1.4224,1.5127 -0.51929,0.94826 -0.51929,2.19 0,1.24174 0.51929,2.19 0.51929,0.94827 1.4224,1.4901 0.90311,0.54187 2.0772,0.54187 z"
         id="path3618"
         style="fill:#616577;fill-opacity:1" /><path
         d="m 48.88,337.01 q -1.5804,0 -2.9351,-0.47413 -1.3321,-0.49671 -2.0772,-1.2418 -0.33867,-0.36124 -0.29351,-0.8128 0.06773,-0.47413 0.45156,-0.76765 0.45156,-0.36124 0.88054,-0.29351 0.45156,0.0452 0.76764,0.38383 0.38382,0.42897 1.2192,0.8128 0.85796,0.36124 1.8965,0.36124 1.3095,0 1.9868,-0.42898 0.69991,-0.42898 0.72249,-1.1063 0.02258,-0.67733 -0.65476,-1.174 -0.65476,-0.49671 -2.4158,-0.8128 -2.2804,-0.45155 -3.3189,-1.3547 -1.016,-0.90312 -1.016,-2.2126 0,-1.1515 0.67733,-1.8965 0.67733,-0.76765 1.7385,-1.1289 1.0612,-0.38383 2.2126,-0.38383 1.4901,0 2.6416,0.47414 1.1515,0.47413 1.8288,1.3095 0.31609,0.36124 0.29351,0.76764 -0.02258,0.38383 -0.38382,0.65476 -0.36124,0.24836 -0.85796,0.15805 -0.49671,-0.0903 -0.83538,-0.4064 -0.56444,-0.54187 -1.2192,-0.74507 -0.65476,-0.2032 -1.5127,-0.2032 -0.99342,0 -1.6933,0.33866 -0.67733,0.33867 -0.67733,0.99343 0,0.4064 0.2032,0.74507 0.22578,0.31608 0.85796,0.58702 0.63218,0.24835 1.8514,0.49671 1.6933,0.33867 2.6642,0.85796 0.99342,0.51929 1.4224,1.2192 0.42898,0.67733 0.42898,1.5804 0,1.0386 -0.56444,1.874 -0.54187,0.83538 -1.6256,1.3321 -1.0612,0.49671 -2.6642,0.49671 z"
         id="path3620"
         style="fill:#616577;fill-opacity:1" /><path
         d="m 56.46,342.2 q -0.49671,0 -0.83538,-0.33867 -0.31609,-0.31609 -0.31609,-0.8128 v -10.295 q 0.02258,-1.7836 0.83538,-3.206 0.8128,-1.4224 2.2126,-2.2352 1.3998,-0.83538 3.1609,-0.83538 1.7836,0 3.1835,0.83538 1.3998,0.8128 2.2126,2.2352 0.83538,1.4224 0.83538,3.206 0,1.7836 -0.76764,3.206 -0.74507,1.3998 -2.0546,2.2352 -1.3095,0.8128 -2.9577,0.8128 -1.3321,0 -2.461,-0.54186 -1.1063,-0.56445 -1.8965,-1.5127 v 6.096 q 0,0.49671 -0.31609,0.8128 -0.31609,0.33867 -0.83538,0.33867 z m 5.0574,-7.2249 q 1.1515,0 2.0546,-0.54187 0.90311,-0.56444 1.4224,-1.5127 0.54187,-0.97084 0.54187,-2.1675 0,-1.2192 -0.54187,-2.1675 -0.51929,-0.97084 -1.4224,-1.5127 -0.90311,-0.56444 -2.0546,-0.56444 -1.1289,0 -2.0546,0.56444 -0.90311,0.54187 -1.4224,1.5127 -0.51929,0.94827 -0.51929,2.1675 0,1.1966 0.51929,2.1675 0.51929,0.94827 1.4224,1.5127 0.92569,0.54187 2.0546,0.54187 z"
         id="path3622"
         style="fill:#616577;fill-opacity:1" /><path
         d="m 74.99,337.01 q -1.6482,0 -2.9577,-0.8128 -1.3095,-0.83538 -2.0772,-2.2352 -0.74507,-1.4224 -0.74507,-3.206 0,-1.7836 0.8128,-3.206 0.83538,-1.4224 2.2352,-2.2352 1.4224,-0.83538 3.1835,-0.83538 1.7611,0 3.1609,0.83538 1.3998,0.8128 2.2126,2.2352 0.83538,1.4224 0.83538,3.206 h -0.88054 q 0,1.7836 -0.76764,3.206 -0.74507,1.3998 -2.0546,2.2352 -1.3095,0.8128 -2.9577,0.8128 z m 0.45156,-2.032 q 1.1515,0 2.0546,-0.54187 0.90311,-0.56444 1.4224,-1.5127 0.51929,-0.97084 0.51929,-2.1675 0,-1.2192 -0.51929,-2.1675 -0.51929,-0.97084 -1.4224,-1.5127 -0.90311,-0.56444 -2.0546,-0.56444 -1.1289,0 -2.0546,0.56444 -0.90311,0.54187 -1.445,1.5127 -0.51929,0.94827 -0.51929,2.1675 0,1.1966 0.51929,2.1675 0.54187,0.94827 1.445,1.5127 0.92569,0.54187 2.0546,0.54187 z m 5.0574,1.9643 q -0.49671,0 -0.83538,-0.31609 -0.31609,-0.33867 -0.31609,-0.83538 v -3.4544 l 0.42898,-2.3932 1.874,0.8128 v 5.0348 q 0,0.49671 -0.33867,0.83538 -0.31609,0.31609 -0.8128,0.31609 z"
         id="path3624"
         style="fill:#616577;fill-opacity:1" /><path
         d="m 89.342,337.01 q -1.8062,0 -3.2286,-0.8128 -1.3998,-0.83538 -2.2126,-2.2352 -0.79022,-1.4224 -0.79022,-3.206 0,-1.8288 0.79022,-3.2512 0.79022,-1.4224 2.1675,-2.2126 1.3772,-0.8128 3.1609,-0.8128 1.3321,0 2.4384,0.51929 1.1063,0.49671 1.9868,1.5127 0.31609,0.36124 0.22578,0.74506 -0.09031,0.38383 -0.49671,0.67734 -0.31609,0.22578 -0.69991,0.15804 -0.38382,-0.0903 -0.69991,-0.4064 -1.1063,-1.174 -2.7545,-1.174 -1.1515,0 -2.032,0.54186 -0.88053,0.51929 -1.3772,1.4676 -0.49671,0.94827 -0.49671,2.2352 0,1.2192 0.49671,2.1675 0.51929,0.94827 1.4224,1.5127 0.90311,0.54187 2.0997,0.54187 0.79022,0 1.3772,-0.18062 0.6096,-0.2032 1.1063,-0.6096 0.36124,-0.29351 0.74507,-0.31609 0.38382,-0.0452 0.67733,0.2032 0.38382,0.31609 0.42898,0.72249 0.04516,0.38382 -0.27093,0.69991 -1.6256,1.5127 -4.064,1.5127 z"
         id="path3626"
         style="fill:#616577;fill-opacity:1" /><path
         d="m 101.78,337.01 q -1.874,0 -3.3415,-0.79022 -1.445,-0.8128 -2.2804,-2.2126 -0.8128,-1.4224 -0.8128,-3.2512 0,-1.8514 0.76764,-3.2512 0.79022,-1.4224 2.1675,-2.2126 1.3772,-0.8128 3.1609,-0.8128 1.7611,0 3.0254,0.79023 1.2644,0.76764 1.9191,2.1449 0.67733,1.3547 0.67733,3.1383 0,0.42898 -0.29351,0.72249 -0.29351,0.27094 -0.74506,0.27094 h -9.0989 v -1.8062 h 9.0311 l -0.92569,0.63218 q -0.0226,-1.1289 -0.45155,-2.0094 -0.42898,-0.90312 -1.2192,-1.4224 -0.79023,-0.51929 -1.9191,-0.51929 -1.2869,0 -2.2126,0.56445 -0.90311,0.56444 -1.3772,1.5579 -0.47413,0.97084 -0.47413,2.2126 0,1.24176 0.56444,2.2126 0.56444,0.97084 1.5579,1.5353 0.99342,0.56444 2.2804,0.56444 0.69991,0 1.4224,-0.24835 0.74507,-0.27094 1.1966,-0.6096 0.33867,-0.24836 0.72249,-0.24836 0.4064,-0.0226 0.69992,0.22578 0.38382,0.33866 0.4064,0.74507 0.0226,0.4064 -0.36125,0.69991 -0.76764,0.6096 -1.9191,0.99342 -1.1289,0.38382 -2.1675,0.38382 z"
         id="path3628"
         style="fill:#616577;fill-opacity:1" /><path
         d="m 113.15,337.01 q -1.5804,0 -2.9351,-0.47413 -1.3321,-0.49671 -2.0772,-1.2418 -0.33867,-0.36124 -0.29351,-0.8128 0.0677,-0.47413 0.45155,-0.76765 0.45156,-0.36124 0.88054,-0.29351 0.45155,0.0452 0.76764,0.38383 0.38383,0.42897 1.2192,0.8128 0.85796,0.36124 1.8965,0.36124 1.3095,0 1.9868,-0.42898 0.69991,-0.42898 0.72249,-1.1063 0.0226,-0.67733 -0.65476,-1.174 -0.65476,-0.49671 -2.4158,-0.8128 -2.2804,-0.45155 -3.3189,-1.3547 -1.016,-0.90312 -1.016,-2.2126 0,-1.1515 0.67733,-1.8965 0.67734,-0.76765 1.7385,-1.1289 1.0612,-0.38383 2.2126,-0.38383 1.4901,0 2.6416,0.47414 1.1515,0.47413 1.8288,1.3095 0.31609,0.36124 0.29351,0.76764 -0.0226,0.38383 -0.38382,0.65476 -0.36125,0.24836 -0.85796,0.15805 -0.49671,-0.0903 -0.83538,-0.4064 -0.56444,-0.54187 -1.2192,-0.74507 -0.65475,-0.2032 -1.5127,-0.2032 -0.99342,0 -1.6933,0.33866 -0.67734,0.33867 -0.67734,0.99343 0,0.4064 0.2032,0.74507 0.22578,0.31608 0.85796,0.58702 0.63218,0.24835 1.8514,0.49671 1.6933,0.33867 2.6642,0.85796 0.99342,0.51929 1.4224,1.2192 0.42898,0.67733 0.42898,1.5804 0,1.0386 -0.56445,1.874 -0.54186,0.83538 -1.6256,1.3321 -1.0612,0.49671 -2.6642,0.49671 z"
         id="path3630"
         style="fill:#616577;fill-opacity:1" /><path
         d="m 126,342.2 q -0.49672,0 -0.83538,-0.33867 -0.31609,-0.31609 -0.31609,-0.8128 v -10.295 q 0.0226,-1.7836 0.83538,-3.206 0.8128,-1.4224 2.2126,-2.2352 1.3998,-0.83538 3.1609,-0.83538 1.7836,0 3.1835,0.83538 1.3998,0.8128 2.2126,2.2352 0.83538,1.4224 0.83538,3.206 0,1.7836 -0.76765,3.206 -0.74507,1.3998 -2.0546,2.2352 -1.3095,0.8128 -2.9577,0.8128 -1.3321,0 -2.461,-0.54186 -1.1063,-0.56445 -1.8965,-1.5127 v 6.096 q 0,0.49671 -0.31609,0.8128 -0.31609,0.33867 -0.83537,0.33867 z m 5.0574,-7.2249 q 1.1515,0 2.0546,-0.54187 0.90311,-0.56444 1.4224,-1.5127 0.54187,-0.97084 0.54187,-2.1675 0,-1.2192 -0.54187,-2.1675 -0.51929,-0.97084 -1.4224,-1.5127 -0.90311,-0.56444 -2.0546,-0.56444 -1.1289,0 -2.0546,0.56444 -0.90311,0.54187 -1.4224,1.5127 -0.51929,0.94827 -0.51929,2.1675 0,1.1966 0.51929,2.1675 0.51929,0.94827 1.4224,1.5127 0.92569,0.54187 2.0546,0.54187 z"
         id="path3632"
         style="fill:#616577;fill-opacity:1" /><path
         d="m 140.49,329.2 q 0,-1.3547 0.65475,-2.4158 0.67734,-1.0837 1.8062,-1.7159 1.1289,-0.63218 2.4836,-0.63218 1.3547,0 2.0094,0.45155 0.67733,0.42898 0.51929,1.0386 -0.0677,0.31609 -0.27093,0.49671 -0.18063,0.15805 -0.42898,0.2032 -0.24836,0.0452 -0.54187,-0.0226 -1.445,-0.29351 -2.5964,-0.0452 -1.1515,0.24836 -1.8288,0.92569 -0.65475,0.67734 -0.65475,1.7159 z m 0.0226,7.7216 q -0.54187,0 -0.83538,-0.27093 -0.29351,-0.29351 -0.29351,-0.85796 v -10.092 q 0,-0.54186 0.29351,-0.83537 0.29351,-0.29352 0.83538,-0.29352 0.56444,0 0.83537,0.29352 0.29352,0.27093 0.29352,0.83537 v 10.092 q 0,0.54187 -0.29352,0.83538 -0.27093,0.29351 -0.83537,0.29351 z"
         id="path3634"
         style="fill:#616577;fill-opacity:1" /><path
         d="m 153.71,337.01 q -1.8288,0 -3.2286,-0.79022 -1.3998,-0.8128 -2.2126,-2.2126 -0.79022,-1.4224 -0.79022,-3.2512 0,-1.8514 0.79022,-3.2512 0.8128,-1.4224 2.2126,-2.2126 1.3998,-0.8128 3.2286,-0.8128 1.8062,0 3.206,0.8128 1.3998,0.79023 2.19,2.2126 0.8128,1.3998 0.8128,3.2512 0,1.8288 -0.79023,3.2512 -0.79022,1.3998 -2.19,2.2126 -1.3998,0.79022 -3.2286,0.79022 z m 0,-2.032 q 1.174,0 2.0772,-0.54187 0.90311,-0.54186 1.3998,-1.4901 0.51929,-0.94827 0.51929,-2.19 0,-1.24173 -0.51929,-2.19 -0.49671,-0.97085 -1.3998,-1.5127 -0.90311,-0.54186 -2.0772,-0.54186 -1.174,0 -2.0772,0.54186 -0.90311,0.54187 -1.4224,1.5127 -0.51929,0.94826 -0.51929,2.19 0,1.24174 0.51929,2.19 0.51929,0.94826 1.4224,1.4901 0.90312,0.54187 2.0772,0.54187 z"
         id="path3636"
         style="fill:#616577;fill-opacity:1" /></g></g></svg>
