<?xml version="1.0" encoding="UTF-8" standalone="no"?>
<svg
   xmlns:dc="http://purl.org/dc/elements/1.1/"
   xmlns:cc="http://creativecommons.org/ns#"
   xmlns:rdf="http://www.w3.org/1999/02/22-rdf-syntax-ns#"
   xmlns:svg="http://www.w3.org/2000/svg"
   xmlns="http://www.w3.org/2000/svg"
   xmlns:sodipodi="http://sodipodi.sourceforge.net/DTD/sodipodi-0.dtd"
   xmlns:inkscape="http://www.inkscape.org/namespaces/inkscape"
   version="1.1"
   id="svg5321"
   viewBox="0 0 500 130"
   height="130"
   width="500"
   sodipodi:docname="text-logo-app.svg"
   inkscape:version="1.0.1 (0767f8302a, 2020-10-17)">
  <sodipodi:namedview
     pagecolor="#ffffff"
     bordercolor="#666666"
     borderopacity="1"
     objecttolerance="10"
     gridtolerance="10"
     guidetolerance="10"
     inkscape:pageopacity="0"
     inkscape:pageshadow="2"
     inkscape:window-width="3010"
     inkscape:window-height="1158"
     id="namedview15"
     showgrid="false"
     inkscape:zoom="3.76"
     inkscape:cx="260.75371"
     inkscape:cy="1.1702128"
     inkscape:window-x="185"
     inkscape:window-y="177"
     inkscape:window-maximized="0"
     inkscape:current-layer="layer1" />
  <defs
     id="defs5323" />
  <metadata
     id="metadata5326">
    <rdf:RDF>
      <cc:Work
         rdf:about="">
        <dc:format>image/svg+xml</dc:format>
        <dc:type
           rdf:resource="http://purl.org/dc/dcmitype/StillImage" />
        <dc:title></dc:title>
      </cc:Work>
    </rdf:RDF>
  </metadata>
  <g
     transform="translate(0,-922.36216)"
     id="layer1">
    <path
       id="path5277"
       style="font-style:normal;font-variant:normal;font-weight:normal;font-stretch:normal;font-size:80px;line-height:125%;font-family:Pacifico;-inkscape-font-specification:Pacifico;letter-spacing:0px;word-spacing:0px;fill:#616877;fill-opacity:1;stroke:none;stroke-width:1px;stroke-linecap:butt;stroke-linejoin:miter;stroke-opacity:1"
       d="m 13.039464,958.45495 q 0,-3.2813 1.3281,-5.7031 1.3672,-2.461 3.7891,-4.1797 2.4609,-1.7188 5.8593,-2.8125 3.4375,-1.1328 7.5391,-1.7578 4.1016,-0.625 8.7891,-0.8594 4.6875,-0.2344 9.6875,-0.2344 6.7968,0 14.2187,0.5469 7.4609,0.5469 15.5469,1.9922 1.875,0.3906 2.6172,1.4062 0.7812,1.0156 0.7812,2.2656 0,0.7813 -0.3515,1.5235 -0.3516,0.7422 -0.9375,1.3672 -0.586,0.625 -1.3672,1.0156 -0.7813,0.3516 -1.6407,0.3516 -3.0078,0 -6.289,-0.3125 -3.2422,-0.3125 -6.7969,-0.7032 -3.5156,-0.3906 -7.2656,-0.7812 -3.75,-0.3906 -7.7344,-0.586 -0.7031,4.375 -1.7969,9.4141 -1.0937,5.0391 -2.4218,10.3125 -1.2891,5.2344 -2.7344,10.4688 -1.4063,5.1953 -2.7344,9.9609 -1.3281,4.7266 -2.5,8.75005 -1.1328,4.0234 -1.875,6.9141 -0.3125,1.3281 -0.9766,2.4609 -0.625,1.0937 -1.4453,1.9141 -0.7812,0.8203 -1.6406,1.25 -0.8594,0.4687 -1.6016,0.4687 -2.2265,0 -3.6718,-1.0547 -1.4453,-1.0547 -1.4453,-3.3984 0,-0.7422 0.2343,-1.6406 0.5078,-3.5547 1.3282,-6.9922 0.8593,-3.43755 1.9921,-7.14855 1.1329,-3.75 2.5782,-7.9297 1.4453,-4.1796 3.2031,-9.1796 1.7578,-5.0391 3.7891,-11.0938 2.0703,-6.0547 4.4531,-13.4766 -2.0703,0.1563 -4.2188,0.3516 -2.1093,0.1953 -4.1406,0.5469 -1.9922,0.3125 -3.75,0.8203 -1.7187,0.5078 -3.0469,1.2891 -1.289,0.7812 -2.0703,1.875 -0.7422,1.0937 -0.7422,2.5781 0,0.078 -0.1172,0.8594 -0.078,0.7812 -0.664,1.7187 -0.586,0.8984 -1.875,1.6797 -1.25,0.7422 -3.5938,0.7422 -2.3437,0 -3.6328,-0.7813 -1.289,-0.7812 -1.875,-1.7187 -0.7031,-1.0938 -0.7812,-2.5 z" />
    <path
       id="path5279"
       style="font-style:normal;font-variant:normal;font-weight:normal;font-stretch:normal;font-size:80px;line-height:125%;font-family:Pacifico;-inkscape-font-specification:Pacifico;letter-spacing:0px;word-spacing:0px;fill:#616577;fill-opacity:1;stroke:none;stroke-width:1px;stroke-linecap:butt;stroke-linejoin:miter;stroke-opacity:1"
       d="m 90.453664,999.8991 q -0.8984,1.25 -2.4219,2.9297 -1.4843,1.6797 -3.3593,3.2031 -1.875,1.5234 -4.0235,2.5781 -2.1484,1.0547 -4.2969,1.0547 -2.5781,0 -4.2968,-1.6406 -1.7188,-1.6797 -2.9688,-4.8438 -0.9375,1.0938 -2.3047,2.2266 -1.3672,1.1328 -3.0078,2.0703 -1.6015,0.8985 -3.3594,1.4844 -1.7578,0.5859 -3.5156,0.5859 -1.875,0 -3.6719,-0.7422 -1.7578,-0.7812 -3.125,-2.1875 -1.3671,-1.4453 -2.1875,-3.4765 -0.8203,-2.0703 -0.8203,-4.6485 0,-2.92965 0.8203,-6.01565 0.8204,-3.0859 2.2657,-6.0156 1.4453,-2.9688 3.3984,-5.5859 1.9922,-2.6172 4.3359,-4.5704 2.3438,-1.9531 4.9219,-3.0859 2.6172,-1.1719 5.3125,-1.1719 0.8985,0 1.4063,0.3516 0.5078,0.3516 0.8203,0.8203 0.3515,0.4297 0.664,0.8594 0.3125,0.4297 0.7813,0.625 0.4687,0.1953 0.9375,0.2734 0.5078,0.039 1.0156,0.039 0.4297,0 0.8594,0 0.4687,-0.039 0.8984,-0.039 0.586,0 1.0938,0.1172 0.5078,0.1172 0.8984,0.5078 0.3906,0.3906 0.586,1.0938 0.2343,0.7031 0.2343,1.914 0,1.875 -0.3906,4.1797 -0.3906,2.2656 -0.8594,4.6875 -0.4687,2.3828 -0.8593,4.8047 -0.3907,2.3828 -0.3907,4.5313 0,1.83595 0.3125,2.89065 0.3516,1.0156 1.4453,1.0156 0.8204,0 1.7188,-0.3906 0.8984,-0.4297 1.7969,-1.0938 0.9375,-0.664 1.8359,-1.48435 0.9375,-0.8594 1.7578,-1.7579 1.9141,-2.1093 3.8672,-4.7656 z m -33.3594,-3.08595 q 0,0.9765 0.1172,1.91405 0.1563,0.8985 0.5078,1.6406 0.3516,0.7032 0.9375,1.1719 0.586,0.4297 1.4844,0.4297 1.4453,0 2.6172,-1.25 1.1719,-1.25 2.0312,-3.00785 0.8594,-1.7578 1.3672,-3.6328 0.5469,-1.875 0.7032,-3.125 l 2.3828,-11.4844 q -1.6016,0 -3.125,0.8203 -1.5235,0.7813 -2.8907,2.1485 -1.3281,1.3671 -2.4609,3.125 -1.1328,1.7578 -1.9531,3.7109 -0.8203,1.9141 -1.2891,3.8672 -0.4297,1.9531 -0.4297,3.6719 z" />
    <path
       id="path5281"
       style="font-style:normal;font-variant:normal;font-weight:normal;font-stretch:normal;font-size:80px;line-height:125%;font-family:Pacifico;-inkscape-font-specification:Pacifico;letter-spacing:0px;word-spacing:0px;fill:#616577;fill-opacity:1;stroke:none;stroke-width:1px;stroke-linecap:butt;stroke-linejoin:miter;stroke-opacity:1"
       d="m 101.97706,1005.3678 q -2.1093,1.875 -4.414,3.0469 -2.265596,1.1328 -4.414096,1.1328 -1.875,0 -3.6719,-0.7422 -1.7578,-0.7812 -3.125,-2.1875 -1.3671,-1.4453 -2.1875,-3.4765 -0.8203,-2.0703 -0.8203,-4.6485 0,-2.92965 0.8203,-6.01565 0.8204,-3.0859 2.2657,-6.0156 1.4453,-2.9688 3.3984,-5.5859 1.9922,-2.6172 4.3359,-4.5704 2.343796,-1.9531 4.921896,-3.0859 2.6172,-1.1719 5.3125,-1.1719 0.8985,0 1.4063,0.3516 0.5078,0.3516 0.8203,0.8203 0.3515,0.4297 0.664,0.8594 0.3125,0.4297 0.7813,0.625 0.4687,0.1953 0.9375,0.2734 0.5078,0.039 1.0156,0.039 0.4297,0 0.8594,0 0.4687,-0.039 0.8984,-0.039 0.586,0 1.0938,0.1172 0.5078,0.1172 0.8984,0.5078 0.3906,0.3906 0.586,1.0938 0.2343,0.7031 0.2343,1.914 0,1.0157 -0.1562,2.7344 -0.1563,1.7188 -0.4297,3.8281 -0.2734,2.1094 -0.625,4.4922 -0.3125,2.3438 -0.6641,4.6094 -0.8203,5.39065 -1.875,11.52345 1.1719,-0.664 2.5391,-1.6406 1.3672,-0.9766 3.0469,-2.6172 1.6797,-1.6406 3.75,-4.10155 2.0703,-2.5 4.6484,-6.211 l 1.875,8.67195 q -0.7031,1.2109 -1.8359,2.5 -1.0938,1.25 -2.461,2.5391 -1.3281,1.25 -2.8125,2.4609 -1.4453,1.1719 -2.8515,2.2266 -3.3203,2.5 -7.1485,4.8437 -0.7422,4.1797 -1.7578,8.125 -1.0156,3.9844 -2.4219,7.4219 -1.3671,3.4765 -3.164,6.3672 -1.7578,2.8906 -4.0235,4.9609 -2.2265,2.0703 -4.999996,3.2031 -2.7734,1.1719 -6.1328,1.1719 -1.3281,0 -2.8906,-0.2734 -1.5234,-0.2735 -2.8516,-1.0938 -1.289,-0.8203 -2.1484,-2.3437 -0.8594,-1.5235 -0.8594,-4.0625 0,-1.7578 0.8985,-3.9844 0.8984,-2.1875 2.4609,-4.6484 1.5625,-2.4219 3.7109,-5.0782 2.1485,-2.6172 4.6485,-5.2343 2.539,-2.6172 5.2734,-5.1563 2.773496,-2.5391 5.585996,-4.8437 z m -8.632796,-8.55465 q 0,0.9765 0.1172,1.91405 0.1563,0.8985 0.5078,1.6406 0.3516,0.7032 0.9375,1.1719 0.586,0.4297 1.484396,0.4297 1.4453,0 2.6172,-1.25 1.1719,-1.25 2.0312,-3.00785 0.8594,-1.7578 1.3672,-3.6328 0.5469,-1.875 0.7032,-3.125 l 2.3828,-11.4844 q -1.6016,0 -3.125,0.8203 -1.5235,0.7813 -2.8907,2.1485 -1.3281,1.3671 -2.4609,3.125 -1.132796,1.7578 -1.953096,3.7109 -0.8203,1.9141 -1.2891,3.8672 -0.4297,1.9531 -0.4297,3.6719 z m -5.7812,41.40625 q 1.6406,0 3.0859,-0.9766 1.4844,-0.9375 2.6953,-2.5 1.25,-1.5625 2.2657,-3.5546 1.015596,-1.9922 1.796796,-4.1016 0.7813,-2.0703 1.3282,-4.0625 0.5468,-1.9922 0.8593,-3.5547 -1.5234,1.0156 -3.125,2.4219 -1.562496,1.4062 -3.085896,3.0078 -1.4844,1.6406 -2.8516,3.3594 -1.3281,1.7187 -2.3437,3.2812 -1.0156,1.6016 -1.6016,2.9688 -0.5859,1.3672 -0.5859,2.2656 0,1.4453 1.5625,1.4453 z" />
    <path
       id="path5283"
       style="font-style:normal;font-variant:normal;font-weight:normal;font-stretch:normal;font-size:80px;line-height:125%;font-family:Pacifico;-inkscape-font-specification:Pacifico;letter-spacing:0px;word-spacing:0px;fill:#616577;fill-opacity:1;stroke:none;stroke-width:1px;stroke-linecap:butt;stroke-linejoin:miter;stroke-opacity:1"
       d="m 138.41706,958.21935 q 0,2.5781 1.4844,4.6094 1.5235,2.0312 3.9844,3.789 2.5,1.7188 5.625,3.2813 3.1641,1.5625 6.4453,3.2422 3.3203,1.6406 6.4453,3.5547 3.1641,1.875 5.625,4.2578 2.5,2.3828 3.9844,5.3906 1.5234,3.0078 1.5234,6.875 0,3.5156 -1.1328,6.48445 -1.1328,2.9297 -3.125,5.2734 -1.9531,2.3438 -4.6484,4.1406 -2.6953,1.7969 -5.8203,2.9688 -3.125,1.1719 -6.5625,1.7578 -3.4375,0.625 -6.9141,0.625 -4.8828,0 -9.4922,-1.2109 -4.6094,-1.1719 -8.2031,-3.5938 -3.5938,-2.3828 -5.7813,-5.9765 -2.1484,-3.6329 -2.1484,-8.47665 0,-2.5 0.7813,-4.375 0.8203,-1.9141 1.9921,-3.1641 1.211,-1.289 2.6172,-1.914 1.4063,-0.6641 2.6172,-0.6641 1.25,0 2.0703,0.7031 0.8594,0.6641 0.8594,2.1094 0,0.6641 -0.1562,1.4063 -0.1563,0.7421 -0.3516,1.6406 -0.1563,0.8594 -0.3125,1.914 -0.1563,1.0547 -0.1563,2.3047 0,2.7344 1.25,4.72665 1.25,1.9922 3.3204,3.2812 2.0703,1.2891 4.7656,1.9141 2.6953,0.625 5.5859,0.625 3.3985,0 6.7969,-0.8203 3.3984,-0.8203 6.0937,-2.4219 2.6954,-1.6015 4.375,-3.9062 1.6797,-2.34385 1.6797,-5.35165 0,-2.7734 -1.5234,-4.9609 -1.4844,-2.1875 -3.9844,-4.0235 -2.4609,-1.875 -5.625,-3.5156 -3.164,-1.6406 -6.4453,-3.3203 -3.2812,-1.6797 -6.4453,-3.5156 -3.1641,-1.875 -5.6641,-4.1016 -2.4609,-2.2266 -3.9843,-4.9609 -1.4844,-2.7735 -1.4844,-6.2891 0,-3.2812 1.5625,-6.4453 1.6015,-3.2031 4.7656,-5.7031 3.2031,-2.5391 7.9688,-4.1016 4.7656,-1.5625 11.1718,-1.5625 4.0625,0 7.9297,1.2109 3.9063,1.211 6.9531,3.4375 3.0469,2.2266 4.8829,5.3125 1.87501,3.086 1.87501,6.836 0,2.2265 -0.78131,4.5703 -0.7422,2.3437 -2.4219,4.8828 -1.6406,2.4609 -3.5937,3.6719 -1.9141,1.1719 -3.4766,1.1719 -1.1719,0 -1.914,-0.6641 -0.7422,-0.7031 -0.7422,-2.0703 0,-1.0156 0.4687,-2.3828 0.4688,-1.4063 1.6016,-3.2032 1.0547,-1.7187 1.5625,-3.2031 0.5078,-1.5234 0.5078,-2.8125 0,-1.9922 -1.0938,-3.4765 -1.0546,-1.5235 -2.9687,-2.5391 -1.875,-1.0156 -4.5313,-1.5234 -2.6562,-0.5079 -5.8203,-0.5079 -3.5156,0 -6.1328,0.8204 -2.5781,0.7812 -4.3359,2.0703 -1.7188,1.25 -2.5781,2.8125 -0.8204,1.5625 -0.8204,3.0859 z" />
    <path
       id="path5285"
       style="font-style:normal;font-variant:normal;font-weight:normal;font-stretch:normal;font-size:80px;line-height:125%;font-family:Pacifico;-inkscape-font-specification:Pacifico;letter-spacing:0px;word-spacing:0px;fill:#616577;fill-opacity:1;stroke:none;stroke-width:1px;stroke-linecap:butt;stroke-linejoin:miter;stroke-opacity:1"
       d="m 191.96177,1002.5163 q 3.9453,0 7.1875,-0.7813 3.2422,-0.7812 5.8594,-2.1093 2.6563,-1.3282 4.7656,-3.08605 2.1485,-1.7969 3.8672,-3.8281 l 0.4297,8.94535 q -1.25,1.5234 -3.0469,2.9688 -1.7578,1.4062 -3.8672,2.5 -2.1093,1.0546 -4.4531,1.7187 -2.3047,0.625 -4.5703,0.625 -0.2734,0 -0.7031,-0.078 -0.3906,-0.078 -1.4063,-0.2735 -1.0156,-0.1953 -2.9297,-0.5078 -1.875,-0.3515 -5.1171,-0.8203 v 0.7031 q 0,7.1094 -1.211,12.8907 -1.1719,5.8203 -3.164,9.9218 -1.9922,4.1016 -4.5704,6.3282 -2.5781,2.2265 -5.35151,2.2265 -2.2266,0 -3.711,-1.0937 -1.4843,-1.0938 -2.3437,-2.9688 -0.8984,-1.8359 -1.25,-4.3359 -0.3906,-2.4609 -0.3906,-5.2344 0,-1.6015 0.5078,-3.6328 0.5078,-1.9922 1.3672,-4.2187 0.8593,-2.1875 1.9531,-4.4922 1.0547,-2.2657 2.1875,-4.4141 2.6562,-5 6.05471,-10.3125 0.4297,-3.04695 0.8594,-6.25005 0.4687,-3.2031 1.1328,-6.2109 0.7031,-3.0078 1.7187,-5.7032 1.0547,-2.6953 2.6563,-4.6875 1.6406,-1.9921 3.9062,-3.164 2.2656,-1.1719 5.4688,-1.1719 2.3828,0 4.4531,0.6641 2.0703,0.625 3.6328,2.0703 1.5625,1.4453 2.4609,3.75 0.8985,2.2656 0.8985,5.5859 0,2.6563 -0.7813,5.1563 -0.7812,2.4609 -2.4609,4.7265 -1.6406,2.2657 -4.2188,4.25785 -2.539,1.9532 -6.0546,3.5157 l 0.2343,0.8203 z m -4.9218,-3.9453 q 2.3437,-1.17195 4.0234,-2.61725 1.7187,-1.4453 2.9297,-3.086 1.25,-1.6406 2.0312,-3.3984 0.7813,-1.7578 1.25,-3.5937 0.1953,-0.8594 0.2344,-1.9922 0.078,-1.1719 -0.2344,-2.1875 -0.2734,-1.0157 -1.0156,-1.7188 -0.7031,-0.7422 -1.9922,-0.7422 -1.4453,0 -2.539,0.8203 -1.0938,0.7813 -1.9141,2.1485 -0.7813,1.3672 -1.3281,3.2422 -0.5078,1.875 -0.8594,4.0234 -0.3125,2.1484 -0.4688,4.4922 -0.1171,2.3047 -0.1171,4.60945 z m -13.59381,28.125 q 0,0.3125 0.1172,1.0156 0.1562,0.7031 0.4687,1.4062 0.3125,0.7032 0.8204,1.25 0.50781,0.5469 1.25001,0.5469 0.664,0 1.0937,-0.7422 0.4297,-0.7031 0.7031,-1.914 0.2735,-1.211 0.3907,-2.7344 0.1171,-1.5234 0.1953,-3.125 0.078,-1.6016 0.078,-3.125 0.039,-1.5234 0.1172,-2.7344 0.1172,-2.1094 0.1562,-3.5937 0.078,-1.4453 0.1172,-2.4219 0.039,-1.0938 0.078,-1.8359 -0.7421,1.289 -1.4453,2.9687 -0.7031,1.7188 -1.3281,3.5547 -0.625,1.8359 -1.13281,3.6719 -0.5078,1.8359 -0.8984,3.3984 -0.3516,1.6016 -0.586,2.7344 -0.1953,1.1719 -0.1953,1.6797 z" />
    <path
       id="path5287"
       style="font-style:normal;font-variant:normal;font-weight:normal;font-stretch:normal;font-size:80px;line-height:125%;font-family:Pacifico;-inkscape-font-specification:Pacifico;letter-spacing:0px;word-spacing:0px;fill:#616577;fill-opacity:1;stroke:none;stroke-width:1px;stroke-linecap:butt;stroke-linejoin:miter;stroke-opacity:1"
       d="m 250.32117,999.8991 q -0.8984,1.25 -2.4219,2.9297 -1.4843,1.6797 -3.3593,3.2031 -1.875,1.5234 -4.0235,2.5781 -2.1484,1.0547 -4.2969,1.0547 -2.5781,0 -4.2968,-1.6406 -1.7188,-1.6797 -2.9688,-4.8438 -0.9375,1.0938 -2.3047,2.2266 -1.3672,1.1328 -3.0078,2.0703 -1.6015,0.8985 -3.3594,1.4844 -1.7578,0.5859 -3.5156,0.5859 -1.875,0 -3.6719,-0.7422 -1.7578,-0.7812 -3.125,-2.1875 -1.3671,-1.4453 -2.1875,-3.4765 -0.8203,-2.0703 -0.8203,-4.6485 0,-2.92965 0.8203,-6.01565 0.8204,-3.0859 2.2657,-6.0156 1.4453,-2.9688 3.3984,-5.5859 1.9922,-2.6172 4.3359,-4.5704 2.3438,-1.9531 4.9219,-3.0859 2.6172,-1.1719 5.3125,-1.1719 0.8985,0 1.4063,0.3516 0.5078,0.3516 0.8203,0.8203 0.3515,0.4297 0.664,0.8594 0.3125,0.4297 0.7813,0.625 0.4687,0.1953 0.9375,0.2734 0.5078,0.039 1.0156,0.039 0.4297,0 0.8594,0 0.4687,-0.039 0.8984,-0.039 0.586,0 1.0938,0.1172 0.5078,0.1172 0.8984,0.5078 0.3906,0.3906 0.586,1.0938 0.2343,0.7031 0.2343,1.914 0,1.875 -0.3906,4.1797 -0.3906,2.2656 -0.8594,4.6875 -0.4687,2.3828 -0.8593,4.8047 -0.3907,2.3828 -0.3907,4.5313 0,1.83595 0.3125,2.89065 0.3516,1.0156 1.4453,1.0156 0.8204,0 1.7188,-0.3906 0.8984,-0.4297 1.7969,-1.0938 0.9375,-0.664 1.8359,-1.48435 0.9375,-0.8594 1.7578,-1.7579 1.9141,-2.1093 3.8672,-4.7656 z m -33.3594,-3.08595 q 0,0.9765 0.1172,1.91405 0.1563,0.8985 0.5078,1.6406 0.3516,0.7032 0.9375,1.1719 0.586,0.4297 1.4844,0.4297 1.4453,0 2.6172,-1.25 1.1719,-1.25 2.0312,-3.00785 0.8594,-1.7578 1.3672,-3.6328 0.5469,-1.875 0.7032,-3.125 l 2.3828,-11.4844 q -1.6016,0 -3.125,0.8203 -1.5235,0.7813 -2.8907,2.1485 -1.3281,1.3671 -2.4609,3.125 -1.1328,1.7578 -1.9531,3.7109 -0.8203,1.9141 -1.2891,3.8672 -0.4297,1.9531 -0.4297,3.6719 z" />
    <path
       id="path5289"
       style="font-style:normal;font-variant:normal;font-weight:normal;font-stretch:normal;font-size:80px;line-height:125%;font-family:Pacifico;-inkscape-font-specification:Pacifico;letter-spacing:0px;word-spacing:0px;fill:#616577;fill-opacity:1;stroke:none;stroke-width:1px;stroke-linecap:butt;stroke-linejoin:miter;stroke-opacity:1"
       d="m 257.78207,1009.4694 q -3.5937,0 -6.3281,-1.3281 -2.6953,-1.3281 -4.5312,-3.5547 -1.836,-2.2266 -2.7735,-5.1563 -0.9375,-2.92965 -0.9375,-6.09375 0,-2.2656 0.4688,-4.7266 0.4687,-2.4609 1.3672,-4.8047 0.9375,-2.3828 2.2656,-4.5312 1.3672,-2.1484 3.125,-3.75 1.7969,-1.6406 3.9844,-2.5781 2.1875,-0.9766 4.8047,-0.9766 2.2265,0 4.1015,0.7031 1.9141,0.6641 3.2422,1.875 1.3672,1.211 2.1094,2.8907 0.7812,1.6406 0.7812,3.5546 0,1.3282 -0.3515,2.6172 -0.3516,1.2891 -1.0547,2.3438 -0.6641,1.0156 -1.6406,1.6406 -0.9766,0.625 -2.1875,0.625 -1.836,0 -2.4219,-0.9766 -0.5469,-0.9765 -0.5469,-2.6953 0,-0.7031 0.039,-1.4843 0.078,-0.7813 0.078,-1.4063 0,-0.9375 -0.1953,-1.5625 -0.1953,-0.625 -0.8594,-0.625 -1.6016,0 -2.7344,0.7813 -1.1328,0.7421 -1.9531,1.9921 -0.7812,1.211 -1.25,2.7735 -0.4687,1.5234 -0.7422,3.0469 -0.2734,1.5234 -0.3515,2.9296 -0.078,1.3672 -0.078,2.3047 0,1.4063 0.2344,2.9297 0.2734,1.5235 0.9766,2.81255 0.7031,1.25 1.914,2.1094 1.211,0.8203 3.125,0.8203 1.875,0 4.1407,-1.1328 2.2656,-1.1719 4.5312,-2.92975 2.3047,-1.7578 4.375,-3.8672 2.0703,-2.1094 3.5547,-3.9844 l 2.6953,4.5313 q -2.9297,4.17975 -6.3281,7.46095 -1.4453,1.4063 -3.1641,2.7344 -1.6797,1.3281 -3.5547,2.3828 -1.8359,1.0156 -3.8672,1.6797 -1.9921,0.625 -4.0625,0.625 z" />
    <path
       id="path5291"
       style="font-style:normal;font-variant:normal;font-weight:normal;font-stretch:normal;font-size:80px;line-height:125%;font-family:Pacifico;-inkscape-font-specification:Pacifico;letter-spacing:0px;word-spacing:0px;fill:#616577;fill-opacity:1;stroke:none;stroke-width:1px;stroke-linecap:butt;stroke-linejoin:miter;stroke-opacity:1"
       d="m 287.66497,1009.4694 q -3.6719,0 -6.4453,-1.3281 -2.7344,-1.3281 -4.5704,-3.5547 -1.8359,-2.2656 -2.7734,-5.1953 -0.8984,-2.96885 -0.8984,-6.21105 0,-2.1875 0.4297,-4.6093 0.4296,-2.461 1.289,-4.8047 0.8985,-2.3438 2.2266,-4.4531 1.3281,-2.1485 3.0859,-3.75 1.7969,-1.6407 3.9844,-2.5782 2.2266,-0.9765 4.9219,-0.9765 2.1875,0 4.0625,0.7031 1.875,0.7031 3.2422,1.9922 1.4062,1.25 2.1875,3.0469 0.7812,1.7968 0.7812,4.0234 0,2.4219 -1.2109,4.8437 -1.1719,2.4219 -3.2813,4.5704 -2.1094,2.1484 -5.039,3.8281 -2.8907,1.6797 -6.2891,2.6172 0.5859,1.05475 1.1328,1.75785 0.5859,0.7031 1.1719,1.0937 0.5859,0.3907 1.2109,0.5469 0.6641,0.1563 1.4063,0.1563 2.3437,0 4.9218,-0.9375 2.6172,-0.9375 5.0782,-2.34385 2.4609,-1.4062 4.6484,-3.0469 2.1875,-1.6797 3.7109,-3.164 l 5.0391,5.2343 q -3.4375,3.55475 -7.3047,6.28915 -1.6797,1.1719 -3.6328,2.3047 -1.9141,1.1328 -4.0625,2.0312 -2.1094,0.8594 -4.4141,1.4063 -2.2656,0.5078 -4.6093,0.5078 z m -5.1953,-18.35945 q 1.4062,0 3.0468,-0.7031 1.6797,-0.7422 3.086,-1.875 1.4453,-1.1328 2.4218,-2.4609 0.9766,-1.3282 0.9766,-2.5782 0,-1.7578 -0.6641,-2.8906 -0.625,-1.1328 -1.5625,-1.1328 -1.6796,0 -2.8906,0.625 -1.1719,0.625 -1.9922,1.6406 -0.7812,0.9766 -1.289,2.2657 -0.4688,1.25 -0.7422,2.539 -0.2344,1.2891 -0.3125,2.5 -0.078,1.211 -0.078,2.0703 z" />
    <path
       id="path5293"
       style="font-style:normal;font-variant:normal;font-weight:normal;font-stretch:normal;font-size:80px;line-height:125%;font-family:Pacifico;-inkscape-font-specification:Pacifico;letter-spacing:0px;word-spacing:0px;fill:#616577;fill-opacity:1;stroke:none;stroke-width:1px;stroke-linecap:butt;stroke-linejoin:miter;stroke-opacity:1"
       d="m 328.14277,1004.9081 c 0,0 -2.3009,3.715 -4.6968,4.2097 -2.3698,0.4688 -4.6224,0.7032 -6.7578,0.7032 -1.5365,0 -2.9688,-0.1432 -4.2969,-0.4297 -1.3281,-0.2865 -2.5,-0.7292 -3.5156,-1.3281 -0.9896,-0.625 -1.7969,-1.4323 -2.4219,-2.4219 -0.625,-0.9896 -1.0026,-2.1875 -1.1328,-3.5938 -0.3646,0.078 -0.7292,0.1302 -1.0937,0.1563 -0.3385,0.026 -0.6771,0.039 -1.0157,0.039 -0.4167,0 -0.8073,-0.013 -1.1718,-0.039 -0.3646,-0.026 -0.6771,-0.1172 -0.9375,-0.2735 -0.2605,-0.1823 -0.4688,-0.4557 -0.625,-0.8203 -0.1563,-0.3906 -0.2344,-0.9375 -0.2344,-1.6406 0,-0.625 0.1562,-1.1979 0.4687,-1.71875 0.3125,-0.5469 0.6771,-1.0287 1.0938,-1.4454 0.4167,-0.4167 0.8333,-0.7812 1.25,-1.0937 0.4167,-0.3125 0.7292,-0.5599 0.9375,-0.7422 h 2e-4 c 1.4583,-1.25 2.6432,-2.2917 3.5547,-3.125 0.9115,-0.8333 1.6927,-1.5885 2.3437,-2.2656 0.6511,-0.7031 1.237,-1.4063 1.7578,-2.1094 0.5469,-0.7031 1.185,-1.5365 1.9141,-2.5 0.7292,-0.9635 1.6146,-2.1354 2.6563,-3.5156 1.0417,-1.4063 2.3958,-3.1511 4.0625,-5.2344 0.3385,-0.4687 0.7161,-0.9245 1.1328,-1.3672 0.4167,-0.4427 0.8724,-0.8333 1.3672,-1.1719 0.5208,-0.3645 1.0807,-0.651 1.6796,-0.8593 0.625,-0.2344 1.3151,-0.3516 2.0704,-0.3516 1.25,0 2.2135,0.1432 2.8906,0.4297 0.6771,0.2604 1.1719,0.5859 1.4844,0.9766 0.3125,0.3906 0.4947,0.8073 0.5468,1.25 0.052,0.4167 0.078,0.7812 0.078,1.0937 0,0.625 -0.2474,1.3151 -0.7422,2.0703 -0.4948,0.7552 -1.0417,1.4844 -1.6407,2.1875 -0.5989,0.7031 -1.1718,1.3542 -1.7187,1.9531 -0.5209,0.5729 -0.8203,1.0026 -0.8984,1.2891 0,0.8073 0.052,1.5495 0.1562,2.2266 0.1302,0.651 0.2865,1.302 0.4688,1.9531 0.2083,0.625 0.4167,1.3021 0.625,2.0312 0.2083,0.7031 0.4036,1.5235 0.5859,2.461 0.2083,0.9375 0.3646,2.0182 0.4687,3.2422 0.1303,1.2239 0.1954,4.33595 0.1954,4.33595 m -20.0389,0 c 0.3125,0 0.651,0.1953 1.0156,0.5859 0.3907,0.3907 0.8334,0.8204 1.3281,1.2891 0.4948,0.4687 1.0677,0.8984 1.7188,1.2891 0.6511,0.3906 1.3933,0.5859 2.2266,0.5859 1.0156,0 1.8489,-0.1693 2.5,-0.5078 0.6771,-0.3385 1.2109,-0.7812 1.6015,-1.3281 0.3907,-0.5729 0.6641,-1.224 0.8203,-1.9532 0.1563,-0.7552 0.2344,-1.53645 0.2344,-2.34375 0,-0.7031 -0.052,-1.4193 -0.1562,-2.1484 -0.078,-0.7292 -0.1953,-1.4193 -0.3516,-2.0704 -0.1302,-0.6771 -0.2865,-1.3021 -0.4688,-1.875 -0.1562,-0.5989 -0.2994,-1.1067 -0.4296,-1.5234 z" />
    <g
       aria-label="Web"
       id="text48"
       style="font-size:40px;line-height:1.25;font-family:Pacifico;-inkscape-font-specification:Pacifico;fill:#880e4f;fill-opacity:0.541659">
      <path
         d="m 358.37849,953.36301 q 0,1.23958 -0.61979,3.68229 -0.58333,2.40625 -1.49479,5.57813 -0.91146,3.17188 -1.96875,6.89063 -1.05729,3.71875 -1.96875,7.54688 -0.91146,3.82813 -1.53125,7.54688 -0.58334,3.68229 -0.58334,6.85417 0,2.58854 0.32813,4.84896 0.36458,2.22396 1.09375,3.90105 0.72917,1.6406 1.82292,2.5885 1.09375,0.948 2.58854,0.948 1.49479,0 2.88021,-0.875 1.42187,-0.875 2.73438,-2.4063 1.3125,-1.53125 2.51562,-3.64584 1.20313,-2.11458 2.29688,-4.55729 1.13021,-2.47917 2.11458,-5.17709 0.98438,-2.73437 1.85938,-5.50521 3.0625,-9.77083 5.43229,-22.20313 0.4375,-2.00521 1.02084,-3.35417 0.61979,-1.34896 1.45833,-2.15104 0.83854,-0.80209 1.93229,-1.13021 1.13021,-0.32813 2.58855,-0.32813 1.38541,0 2.26041,0.25521 0.91146,0.25521 1.42188,0.69271 0.54687,0.4375 0.76562,1.05729 0.21875,0.61979 0.21875,1.38542 0,0.25521 -0.29166,2.15104 -0.29167,1.85938 -0.76563,4.8125 -0.4375,2.91667 -0.98437,6.63542 -0.51042,3.71876 -0.98438,7.65626 -0.4375,3.90104 -0.72917,7.72917 -0.29166,3.82813 -0.29166,7.03646 0,3.28125 0.21875,5.94271 0.25521,2.62502 0.80208,4.48442 0.58334,1.8593 1.49479,2.8437 0.91146,0.9844 2.26042,0.9844 2.33334,0 4.22917,-1.8229 1.93229,-1.8229 3.5,-4.84899 1.60417,-3.0625 2.84375,-7.07292 1.27605,-4.01042 2.22396,-8.38542 0.98438,-4.37501 1.67709,-8.82292 0.72916,-4.44792 1.20312,-8.38542 0.47396,-3.97397 0.72917,-7.10938 0.29167,-3.17188 0.40104,-4.95834 0.10938,-1.85937 0.65625,-2.98958 0.58334,-1.13021 1.45834,-1.75 0.875,-0.6198 1.96875,-0.80209 1.13021,-0.21875 2.29687,-0.21875 0.91146,0 1.64063,0.21875 0.76562,0.18229 1.3125,0.69271 0.54687,0.47396 0.83854,1.3125 0.29167,0.80208 0.29167,2.07813 0,3.53646 -0.47396,7.65625 -0.4375,4.08334 -1.13021,8.20313 -0.65625,4.11979 -1.45833,8.02084 -0.76563,3.90104 -1.45834,7.03646 -0.65625,3.13542 -1.13021,5.28646 -0.4375,2.15104 -0.4375,2.73438 0,1.42187 0.40105,2.4427 0.40104,0.98438 1.05729,1.64063 0.69271,0.65625 1.60416,0.94792 0.94792,0.29166 2.00521,0.29166 1.0573,0 2.15105,-0.47395 1.13021,-0.51042 2.15104,-1.38542 1.02083,-0.875 1.85938,-2.07813 0.875,-1.23958 1.45833,-2.73437 l 0.61979,7.54688 q -2.69792,3.09898 -5.57813,4.88538 -2.84375,1.7865 -5.35937,1.7865 -1.20313,0 -2.26042,-0.3646 -1.05729,-0.401 -1.89584,-1.2031 -0.80208,-0.8021 -1.34895,-2.0781 -0.54688,-1.2761 -0.76563,-3.02608 -1.82292,3.39058 -3.9375,6.12498 -2.07813,2.6979 -4.44792,4.6302 -2.33334,1.8959 -4.92188,2.9167 -2.55208,1.0573 -5.28646,1.0573 -3.46354,0 -5.90625,-1.8229 -2.40625,-1.8229 -3.9375,-4.9584 -1.4948,-3.1354 -2.1875,-7.36455 -0.69271,-4.22917 -0.69271,-9.00521 0,-1.75 0.18229,-3.28126 0.18229,-1.53125 0.29167,-2.73437 -1.31251,8.3125 -3.31771,13.92709 -1.96876,5.5781 -4.66667,8.9688 -2.66146,3.3906 -6.12501,4.8125 -3.42708,1.4583 -7.61979,1.4583 -2.40625,0 -4.59375,-1.6042 -2.18751,-1.5677 -3.86459,-4.7031 -1.64063,-3.1354 -2.66146,-7.83855 -0.98437,-4.73959 -0.98437,-11.04688 0,-3.86459 0.4375,-7.91146 0.4375,-4.08334 1.23958,-8.16667 0.83854,-4.08334 2.04167,-8.09376 1.20312,-4.01042 2.73437,-7.80209 0.91146,-2.11458 1.82292,-3.28125 0.91146,-1.20312 1.85938,-1.75 0.94791,-0.58333 1.89583,-0.69271 0.98438,-0.10937 1.96875,-0.10937 0.80209,0 1.45834,0.10937 0.65625,0.10938 1.09375,0.47396 0.47396,0.32813 0.69271,0.98438 0.2552,0.61979 0.2552,1.71354 z"
         style="font-size:74.6667px;fill:#880e4f;fill-opacity:0.541659"
         id="path873" />
      <path
         d="m 431.36811,1009.5818 q -3.42709,0 -6.01563,-1.2396 -2.55208,-1.2396 -4.26563,-3.3177 -1.71354,-2.1146 -2.58854,-4.849 -0.83854,-2.7708 -0.83854,-5.79685 0,-2.04166 0.40104,-4.30208 0.40104,-2.29688 1.20313,-4.48438 0.83854,-2.1875 2.07812,-4.15625 1.23959,-2.00521 2.88021,-3.5 1.67709,-1.53125 3.71875,-2.40625 2.07813,-0.91146 4.59376,-0.91146 2.04166,0 3.79166,0.65625 1.75001,0.65625 3.02605,1.85937 1.3125,1.16667 2.04167,2.84376 0.72916,1.67708 0.72916,3.75521 0,2.26041 -1.13021,4.52083 -1.09375,2.26042 -3.0625,4.26563 -1.96875,2.00521 -4.70313,3.57292 -2.69791,1.56771 -5.86979,2.44271 0.54688,0.98437 1.05729,1.64059 0.54688,0.6563 1.09375,1.0209 0.54688,0.3645 1.13021,0.5104 0.61979,0.1458 1.3125,0.1458 2.1875,0 4.59375,-0.875 2.44271,-0.875 4.73959,-2.18748 2.29688,-1.31251 4.33854,-2.84376 2.04167,-1.56771 3.46355,-2.95312 l 4.70312,4.88542 q -3.20833,3.31774 -6.81771,5.86984 -1.56771,1.0937 -3.39062,2.151 -1.78646,1.0573 -3.79167,1.8958 -1.96875,0.8021 -4.1198,1.3125 -2.11458,0.474 -4.30208,0.474 z m -4.84896,-17.13544 q 1.3125,0 2.84375,-0.65625 1.56771,-0.69271 2.88021,-1.75 1.34896,-1.05729 2.26042,-2.29687 0.91146,-1.23959 0.91146,-2.40626 0,-1.64062 -0.6198,-2.69791 -0.58333,-1.0573 -1.45833,-1.0573 -1.56771,0 -2.69792,0.58334 -1.09375,0.58333 -1.85937,1.53125 -0.72917,0.91146 -1.20313,2.11458 -0.4375,1.16667 -0.69271,2.3698 -0.21875,1.20312 -0.29167,2.33333 -0.0729,1.13021 -0.0729,1.93229 z"
         style="font-size:74.6667px;fill:#880e4f;fill-opacity:0.541659"
         id="path875" />
      <path
         d="m 459.58687,980.23281 q 2.04167,-2.55208 3.71875,-4.08333 1.71355,-1.56771 3.39063,-1.56771 2.15104,0 3.82813,0.94792 1.67708,0.94791 2.84375,2.51562 1.16666,1.56771 1.78646,3.60938 0.61979,2.04167 0.61979,4.26563 0,1.85937 -0.14583,3.53646 -0.14584,1.64062 -0.54688,3.24479 -0.36458,1.56771 -1.05729,3.13542 -0.65625,1.56771 -1.75,3.24479 1.3125,-0.76562 2.66146,-1.49479 1.34896,-0.72917 2.69791,-1.60417 1.38542,-0.875 2.77084,-1.93229 1.38542,-1.09375 2.84375,-2.55208 l 2.80729,6.01562 q -2.00521,1.82292 -4.01041,3.17183 -1.96876,1.349 -4.08334,2.3698 -2.07813,0.9844 -4.375,1.7136 -2.26042,0.7292 -4.8125,1.3125 -0.6198,0.6198 -1.71355,1.2396 -1.05729,0.6198 -2.11458,1.1302 -1.20313,0.5833 -2.58854,1.1302 h -0.91146 q -3.09896,0 -6.16146,-0.8386 -3.02605,-0.875 -5.50522,-1.9322 -2.8802,-1.2032 -5.50521,-2.7709 0.10938,-2.9531 0.4375,-6.67186 0.29167,-3.20834 0.80209,-7.54688 0.51041,-4.375 1.38542,-9.73438 0.58333,-3.57292 1.45833,-7.94792 0.875,-4.41146 2.04167,-8.89584 1.20312,-4.52083 2.66146,-8.75 1.49479,-4.26563 3.28125,-7.58334 1.82292,-3.31771 3.9375,-5.32292 2.15104,-2.00521 4.63021,-2.00521 2.77083,0 4.44792,0.94792 1.67708,0.94792 2.58854,2.58854 0.91146,1.60417 1.20313,3.79167 0.29166,2.1875 0.29166,4.66667 0,3.46354 -1.3125,7.14584 -1.27604,3.68229 -3.35416,7.36458 -2.07813,3.64584 -4.66667,7.14584 -2.55209,3.5 -5.10417,6.59896 z m 3.28125,2.66146 q -1.27604,0 -2.55208,0.54688 -1.27604,0.51042 -2.36979,1.64063 -1.09376,1.09375 -1.9323,2.84375 -0.83854,1.71354 -1.23958,4.15625 -0.32813,1.96875 -0.54688,3.64583 -0.21875,1.64063 -0.36458,2.91667 -0.14583,1.45832 -0.25521,2.73442 1.20313,0.3645 2.40625,0.6198 1.05729,0.2187 2.22396,0.401 1.16667,0.1823 2.22396,0.1823 1.23959,0 2.26042,-0.7292 1.02083,-0.7292 1.82292,-1.93228 0.80208,-1.23958 1.38541,-2.80729 0.58334,-1.56771 0.94792,-3.24479 0.36458,-1.71354 0.54688,-3.35417 0.18229,-1.67708 0.18229,-3.0625 0,-0.91146 -0.21875,-1.71354 -0.18229,-0.83855 -0.72917,-1.45834 -0.51042,-0.61979 -1.45833,-0.98437 -0.91146,-0.40105 -2.33334,-0.40105 z m 3.57292,-33.39584 q 0,-0.14584 -0.0729,-0.6198 -0.0365,-0.47396 -0.2552,-0.98437 -0.1823,-0.51042 -0.54688,-0.91146 -0.36458,-0.40104 -0.98437,-0.40104 -0.72917,0 -1.53126,1.05729 -0.76562,1.02083 -1.53125,2.80729 -0.76562,1.75 -1.49479,4.08334 -0.72917,2.29687 -1.42187,4.84896 -0.69271,2.51562 -1.31251,5.14063 -0.58333,2.625 -1.09375,4.99479 -0.47395,2.33333 -0.83854,4.30209 -0.36458,1.93229 -0.58333,3.13541 0.98437,-1.89583 2.1875,-3.9375 1.23958,-2.04167 2.47917,-4.22917 1.23958,-2.22396 2.40625,-4.52083 1.20312,-2.33334 2.15104,-4.73959 0.98438,-2.44271 1.60417,-4.92188 0.65625,-2.51562 0.83854,-5.10416 z"
         style="font-size:74.6667px;fill:#880e4f;fill-opacity:0.541659"
         id="path877" />
    </g>
  </g>
</svg>
