<?xml version="1.0" encoding="UTF-8" standalone="no"?>
<!-- Created with Inkscape (http://www.inkscape.org/) -->

<svg
   width="69mm"
   height="12mm"
   viewBox="0 0 69 12"
   version="1.1"
   id="svg5"
   inkscape:version="1.2.2 (b0a8486541, 2022-12-01, custom)"
   sodipodi:docname="logo-next-trace.svg"
   xmlns:inkscape="http://www.inkscape.org/namespaces/inkscape"
   xmlns:sodipodi="http://sodipodi.sourceforge.net/DTD/sodipodi-0.dtd"
   xmlns="http://www.w3.org/2000/svg"
   xmlns:svg="http://www.w3.org/2000/svg">
  <sodipodi:namedview
     id="namedview7"
     pagecolor="#ffffff"
     bordercolor="#666666"
     borderopacity="1.0"
     inkscape:showpageshadow="2"
     inkscape:pageopacity="0.0"
     inkscape:pagecheckerboard="0"
     inkscape:deskcolor="#d1d1d1"
     inkscape:document-units="mm"
     showgrid="false"
     inkscape:zoom="11.669331"
     inkscape:cx="54.758924"
     inkscape:cy="8.2695401"
     inkscape:window-width="1846"
     inkscape:window-height="1016"
     inkscape:window-x="74"
     inkscape:window-y="27"
     inkscape:window-maximized="1"
     inkscape:current-layer="layer1" />
  <defs
     id="defs2" />
  <g
     inkscape:label="Layer 1"
     inkscape:groupmode="layer"
     id="layer1">
    <path
       style="fill:#808080;stroke:none;stroke-width:0.0412526"
       d="m 0.9191538,3.8362305 h 0.9900571 c 0,1.5997712 -0.381638,3.7719195 1.6913526,4.1490072 0.3973931,0.072274 1.0281004,0.097373 1.4312608,0.097373 V 7.1338019 C 5.0317833,7.0258443 5.0627636,6.8405382 4.9656965,6.7636846 4.8545209,6.6756543 4.3930226,6.7294699 4.2606022,6.7201881 3.9454409,6.6981232 3.6090025,6.5958146 3.4359029,6.3112128 3.2819645,6.0581282 3.3117949,5.7283572 3.3117949,5.4450767 V 3.8362305 H 4.343107 L 5.0373202,3.8114133 5.1034482,3.2294083 5.0821974,2.5044495 4.3843641,2.474895 H 3.3117992 V 1.4435825 C 2.9234576,1.4449785 2.7489184,1.676444 2.4867491,1.9386124 L 1.3316797,3.0936818 C 1.091421,3.3339562 0.9203936,3.4853948 0.9191573,3.8362271 M 22.375013,10.560378 h 1.402584 V 7.8377169 c 0.758798,0.3154959 1.497424,0.5036086 2.310138,0.2463176 1.810983,-0.573246 2.554972,-2.8321885 1.5388,-4.4128189 -1.169426,-1.8190064 -3.97517,-1.7053311 -4.951616,0.247514 -0.38765,0.7752994 -0.299906,1.6362388 -0.299906,2.4751495 V 10.560378 M 36.607116,2.3686776 c -0.458069,0.06235 -0.88767,0.1846132 -1.278826,0.440407 -1.615983,1.0567451 -1.71598,3.5856601 -0.247514,4.8089204 0.788292,0.6566568 1.954912,0.7391627 2.887672,0.3820384 0.203496,-0.077926 0.899014,-0.3598456 0.899014,-0.6198185 0,-0.163979 -0.255767,-0.3461476 -0.362734,-0.4484561 -0.130233,-0.1244981 -0.349368,-0.3902054 -0.53628,-0.4132244 -0.168973,-0.020819 -0.382287,0.1672379 -0.536283,0.2274657 -0.35477,0.1388158 -0.764572,0.1402584 -1.113818,-0.018163 -1.098883,-0.4984974 -1.084608,-2.510696 0.0825,-2.9285595 0.341983,-0.1224424 0.696754,-0.10281 1.031311,0.029735 0.157173,0.062271 0.405389,0.280359 0.577535,0.2363112 0.197889,-0.050635 0.857762,-0.6749026 0.857762,-0.885303 0,-0.1744153 -0.358442,-0.3317111 -0.486491,-0.404538 C 37.854135,2.4758187 37.218021,2.2855087 36.607115,2.3686688 M 52.118042,10.56037 h 1.402583 V 7.8377088 c 0.758634,0.315496 1.497465,0.5036087 2.310138,0.2463177 1.810984,-0.5732461 2.554765,-2.8321493 1.538716,-4.4128196 -1.169507,-1.819044 -3.975087,-1.7053023 -4.951531,0.2475147 -0.387776,0.7752993 -0.299906,1.6362388 -0.299906,2.4751495 V 10.56037 M 64.658788,2.368681 c -0.532568,0.072515 -1.010686,0.2276518 -1.443837,0.5558563 -2.258985,1.7112052 -0.813086,5.6258188 2.062623,5.272655 0.440165,-0.05408 0.865064,-0.1942994 1.237574,-0.4364105 2.420283,-1.5720079 1.134857,-5.7992625 -1.85636,-5.3921008 M 44.115061,7.4251946 C 43.942212,7.179867 43.473584,6.5640484 43.166254,6.5127319 c -0.180273,-0.030065 -0.443052,0.1953715 -0.618785,0.2512256 -0.504933,0.16072 -1.073143,0.09183 -1.481378,-0.2656253 -1.045915,-0.9157609 -0.360961,-2.9747318 1.110103,-2.7780918 0.510707,0.068292 0.598161,0.7079604 0.202552,0.9945425 -0.378698,0.2740414 -1.576506,0.1200692 -2.016671,0.1200692 l 0.33233,1.3115164 c 0.835773,0 1.959907,0.069428 2.678112,-0.4450726 C 44.249955,5.0726908 44.378253,3.4650015 43.496274,2.7855006 42.741355,2.2036871 41.3299,2.255195 40.526097,2.6940516 c -1.743332,0.9518175 -1.91791,3.8101396 -0.33002,4.9817915 1.215628,0.896955 2.77918,0.5657381 3.918984,-0.2506485 M 5.9977797,2.4748982 v 1.3613323 c 0.9622964,0 2.5928828,-0.3660061 2.9701784,0.7837944 C 8.0617233,4.4329876 7.2264439,4.2816214 6.3690523,4.7566538 5.3982167,5.2945861 5.2185619,6.8453487 6.080904,7.5766328 c 1.0408409,0.8826374 3.0245072,0.508602 4.289638,0.508602 V 5.3213197 c 0,-1.0119745 -0.01749,-2.0133627 -1.0313121,-2.5617301 C 8.3951262,2.248933 7.0322268,2.4748982 5.9977797,2.4748982 M 15.155828,7.7139601 C 15.079388,9.4940468 13.228059,9.199049 11.938136,9.199049 v 1.361332 c 0.998887,0 2.12017,0.134235 3.052683,-0.30209 1.5553,-0.7277757 1.567593,-2.181433 1.567593,-3.6581452 V 2.4748982 c -1.570522,0 -3.654927,-0.3889288 -4.850135,0.873307 -1.261377,1.3321328 -0.932265,3.6714369 0.766141,4.4693422 0.910525,0.4277452 1.792668,0.265953 2.68141,-0.1035873 M 17.465966,6.723903 v 1.3613318 c 1.07273,0 2.421603,0.2149251 3.423955,-0.2337376 0.916712,-0.4103392 1.144467,-1.725879 0.514913,-2.487277 -0.42952,-0.5194509 -1.312323,-0.6307493 -1.917497,-0.840891 -0.176972,-0.061464 -0.613012,-0.1825816 -0.580793,-0.4378039 0.03226,-0.255042 0.440328,-0.2490025 0.622046,-0.2492948 h 2.021371 V 2.8874223 c -4.2e-5,-0.107949 0.03094,-0.2932472 -0.06613,-0.3701252 -0.210677,-0.1668411 -0.906977,-0.042395 -1.171447,-0.042395 -1.172683,0 -2.702077,-0.015129 -2.869521,1.4850897 -0.132751,1.1892252 1.027764,1.6756738 1.961967,1.9446825 0.207377,0.059733 1.023969,0.2630254 0.856484,0.6041403 -0.115548,0.2353474 -0.517223,0.2150102 -0.732726,0.2150922 H 17.465966 M 29.057909,2.4749017 V 3.836234 c 0.962338,0 2.592882,-0.3660061 2.970178,0.7837944 -0.906235,-0.1870373 -1.741514,-0.3384035 -2.598906,0.1366289 -0.970836,0.5379323 -1.15049,2.0886949 -0.288148,2.819979 1.040841,0.8826374 3.024507,0.508602 4.289637,0.508602 V 5.3213232 c 0,-1.0119746 -0.01748,-2.0133627 -1.031311,-2.5617301 -0.944104,-0.5106566 -2.307003,-0.2846914 -3.34145,-0.2846914 m 15.634686,4.2490047 v 1.3613319 c 1.072563,0 2.421522,0.2149251 3.423955,-0.2337376 C 49.03318,7.4412041 49.260895,6.1255791 48.631381,5.3642236 48.201941,4.8447728 47.31914,4.7334744 46.713967,4.5233327 46.536992,4.4618686 46.100954,4.3407511 46.133131,4.0855288 46.165292,3.8304903 46.573296,3.8365263 46.755218,3.836234 h 2.021373 V 2.8874258 c 0,-0.107949 0.03095,-0.2932507 -0.06601,-0.3701252 -0.210801,-0.1668455 -0.907141,-0.042396 -1.17157,-0.042396 -1.17281,0 -2.702038,-0.015129 -2.869522,1.4850898 -0.132832,1.1892252 1.027601,1.6757163 1.961967,1.9446825 0.207499,0.059733 1.023886,0.2630254 0.856402,0.6041403 -0.115508,0.2353474 -0.517306,0.2150102 -0.732645,0.2150922 H 44.692594 M 62.01863,3.8362305 V 2.4748982 c -1.120417,0 -2.862096,-0.2520368 -3.404979,1.0313121 -0.438925,1.0389019 -0.225239,2.4024207 -0.225239,3.5064582 0,0.2342327 -0.129531,1.0571372 0.167487,1.1077129 0.227711,0.038776 0.985932,0.1085346 1.169095,-0.036303 0.175322,-0.1390191 0.066,-0.819849 0.066,-1.0301545 V 5.0738022 c 0,-0.3016767 -0.05197,-0.6794693 0.117567,-0.948042 0.329608,-0.5221128 1.577497,-0.2895297 2.110065,-0.2895297 M 25.015167,3.724411 c 1.910856,-0.2489306 2.295577,2.8453323 0.453778,3.1108724 -0.47923,0.0691 -1.365292,-0.098964 -1.648944,-0.5452731 -0.109608,-0.1724377 -0.0424,-0.5236606 -0.0424,-0.7211762 0,-0.8549594 0.256178,-1.7165772 1.237574,-1.8444231 m 29.74303,0 c 1.910814,-0.2489306 2.295698,2.8453323 0.453777,3.1108724 -0.479353,0.0691 -1.365456,-0.098964 -1.648861,-0.5452731 -0.109731,-0.1724377 -0.04249,-0.5236606 -0.04249,-0.7211762 0,-0.8549594 0.256176,-1.7165772 1.237575,-1.8444231 m 9.983096,0 c 1.89802,-0.2472353 2.312195,2.8488798 0.495023,3.1108724 C 63.257857,7.1205048 62.832958,3.9730137 64.741298,3.724411 M 15.155832,3.8362305 v 1.6088464 c 0,0.2027975 0.05742,0.5141297 -0.0424,0.6974556 -0.128213,0.2353868 -0.503735,0.36896 -0.74139,0.4553839 -0.550596,0.2002828 -1.203623,0.1859684 -1.642508,-0.2528782 -0.801659,-0.8016985 -0.3096,-2.2942267 0.776207,-2.4896473 0.523328,-0.094184 1.118767,-0.019152 1.650098,-0.019152 M 8.9679651,6.7239117 H 8.0604102 c -0.1773025,0 -0.3598035,0.012033 -0.5362815,-0.00718 C 7.1043016,6.6711063 6.713394,6.2379969 7.1204318,5.8748924 7.5427743,5.4981359 8.6414105,5.7276638 8.9255575,6.2010766 9.0089695,6.3399744 9.0475043,6.4581108 9.0475043,6.6141687 M 32.02809,6.723911 h -0.907554 c -0.177303,0 -0.359804,0.012033 -0.536282,-0.00718 C 30.164387,6.671106 29.773519,6.237997 30.180557,5.8748925 30.6029,5.498136 31.701536,5.7276639 31.985683,6.2010768 c 0.08341,0.1388977 0.104473,0.2105534 0.104473,0.3666113 z"
       id="path381"
       sodipodi:nodetypes="ccccccccscccccccccccccccscscccscsccccssssccccccccsccccccccccccccccsccccccccsscccccsccccccccccccccscccccccccccssccccccsccscscsccccccsscsscccccsccscscccccsccccccscscccscsccc" />
  </g>
</svg>
