<?xml version="1.0" encoding="UTF-8"?>
<!-- Created with Inkscape (http://www.inkscape.org/) -->
<svg width="152.63mm" height="21.562mm" version="1.1" viewBox="0 0 152.63 21.562" xml:space="preserve" xmlns="http://www.w3.org/2000/svg"><g transform="translate(-7.2898 -320.64)"><g stroke-width=".26458" aria-label="tagspaces pro"><g stroke-width=".070004" aria-label="tagspaces pro"><g fill="#808080" stroke-width=".018522" aria-label="tagspaces pro"><path d="m13.363 336.92q-1.1289 0-2.032-0.56444-0.90311-0.58703-1.4224-1.5804-0.51929-0.99342-0.51929-2.2352v-10.77q0-0.49671 0.31609-0.8128 0.31609-0.31609 0.8128-0.31609t0.8128 0.31609 0.31609 0.8128v10.77q0 0.90311 0.49671 1.5127 0.49671 0.6096 1.2192 0.6096h0.76764q0.4064 0 0.67733 0.31609 0.29351 0.31609 0.29351 0.8128t-0.38382 0.8128q-0.36124 0.31609-0.94827 0.31609zm-5.0123-9.9568q-0.47413 0-0.76765-0.27093-0.29351-0.27094-0.29351-0.67734 0-0.45155 0.29351-0.72249 0.29351-0.27093 0.76765-0.27093h5.2155q0.47413 0 0.76764 0.27093 0.29351 0.27094 0.29351 0.72249 0 0.4064-0.29351 0.67734-0.29351 0.27093-0.76764 0.27093z"/><path d="m21.733 337.01q-1.6482 0-2.9577-0.8128-1.3095-0.83538-2.0772-2.2352-0.74507-1.4224-0.74507-3.206 0-1.7836 0.8128-3.206 0.83538-1.4224 2.2352-2.2352 1.4224-0.83538 3.1835-0.83538 1.7611 0 3.1609 0.83538 1.3998 0.8128 2.2126 2.2352 0.83538 1.4224 0.83538 3.206h-0.88053q0 1.7836-0.76764 3.206-0.74507 1.3998-2.0546 2.2352-1.3095 0.8128-2.9577 0.8128zm0.45156-2.032q1.1515 0 2.0546-0.54187 0.90311-0.56444 1.4224-1.5127 0.51929-0.97084 0.51929-2.1675 0-1.2192-0.51929-2.1675-0.51929-0.97084-1.4224-1.5127-0.90311-0.56444-2.0546-0.56444-1.1289 0-2.0546 0.56444-0.90311 0.54187-1.445 1.5127-0.51929 0.94827-0.51929 2.1675 0 1.1966 0.51929 2.1675 0.54187 0.94827 1.445 1.5127 0.92569 0.54187 2.0546 0.54187zm5.0574 1.9643q-0.49671 0-0.83538-0.31609-0.31609-0.33867-0.31609-0.83538v-3.4544l0.42898-2.3932 1.874 0.8128v5.0348q0 0.49671-0.33867 0.83538-0.31609 0.31609-0.8128 0.31609z"/><path d="m35.634 337.01q-1.6933 0-3.0028-0.79022-1.2869-0.8128-2.032-2.2126-0.74507-1.4224-0.74507-3.2512 0-1.8514 0.79022-3.2512 0.8128-1.4224 2.2126-2.2126 1.3998-0.8128 3.2286-0.8128 1.8062 0 3.206 0.8128 1.3998 0.79023 2.19 2.2126 0.8128 1.3998 0.8128 3.2512h-1.3321q0 1.8288-0.69991 3.2512-0.67733 1.3998-1.874 2.2126-1.1966 0.79022-2.7545 0.79022zm0.4064 5.0348q-1.603 0-3.0028-0.63218-1.3998-0.63217-2.3707-1.8514-0.29351-0.38382-0.22578-0.79022 0.09031-0.4064 0.45156-0.65475 0.4064-0.27094 0.83538-0.18063 0.45156 0.0903 0.72249 0.45156 0.6096 0.76764 1.5353 1.1966 0.92569 0.42898 2.0997 0.42898 1.0837 0 1.9868-0.51929 0.92569-0.51929 1.4676-1.5353 0.54187-1.016 0.54187-2.4836v-3.206l0.74507-1.9868 1.4676 0.47413v4.8768q0 1.7836-0.79022 3.2286-0.79022 1.4676-2.2126 2.3255-1.3998 0.85795-3.2512 0.85795zm0.04516-7.0668q1.174 0 2.0772-0.54187 0.90311-0.54186 1.3998-1.4901 0.51929-0.94827 0.51929-2.19t-0.51929-2.19q-0.49671-0.97085-1.3998-1.5127-0.90311-0.54186-2.0772-0.54186-1.174 0-2.0772 0.54186-0.90311 0.54187-1.4224 1.5127-0.51929 0.94826-0.51929 2.19t0.51929 2.19q0.51929 0.94827 1.4224 1.4901 0.90311 0.54187 2.0772 0.54187z"/><path d="m48.88 337.01q-1.5804 0-2.9351-0.47413-1.3321-0.49671-2.0772-1.2418-0.33867-0.36124-0.29351-0.8128 0.06773-0.47413 0.45156-0.76765 0.45156-0.36124 0.88054-0.29351 0.45156 0.0452 0.76764 0.38383 0.38382 0.42897 1.2192 0.8128 0.85796 0.36124 1.8965 0.36124 1.3095 0 1.9868-0.42898 0.69991-0.42898 0.72249-1.1063 0.02258-0.67733-0.65476-1.174-0.65476-0.49671-2.4158-0.8128-2.2804-0.45155-3.3189-1.3547-1.016-0.90312-1.016-2.2126 0-1.1515 0.67733-1.8965 0.67733-0.76765 1.7385-1.1289 1.0612-0.38383 2.2126-0.38383 1.4901 0 2.6416 0.47414 1.1515 0.47413 1.8288 1.3095 0.31609 0.36124 0.29351 0.76764-0.02258 0.38383-0.38382 0.65476-0.36124 0.24836-0.85796 0.15805-0.49671-0.0903-0.83538-0.4064-0.56444-0.54187-1.2192-0.74507t-1.5127-0.2032q-0.99342 0-1.6933 0.33866-0.67733 0.33867-0.67733 0.99343 0 0.4064 0.2032 0.74507 0.22578 0.31608 0.85796 0.58702 0.63218 0.24835 1.8514 0.49671 1.6933 0.33867 2.6642 0.85796 0.99342 0.51929 1.4224 1.2192 0.42898 0.67733 0.42898 1.5804 0 1.0386-0.56444 1.874-0.54187 0.83538-1.6256 1.3321-1.0612 0.49671-2.6642 0.49671z"/><path d="m56.46 342.2q-0.49671 0-0.83538-0.33867-0.31609-0.31609-0.31609-0.8128v-10.295q0.02258-1.7836 0.83538-3.206 0.8128-1.4224 2.2126-2.2352 1.3998-0.83538 3.1609-0.83538 1.7836 0 3.1835 0.83538 1.3998 0.8128 2.2126 2.2352 0.83538 1.4224 0.83538 3.206 0 1.7836-0.76764 3.206-0.74507 1.3998-2.0546 2.2352-1.3095 0.8128-2.9577 0.8128-1.3321 0-2.461-0.54186-1.1063-0.56445-1.8965-1.5127v6.096q0 0.49671-0.31609 0.8128-0.31609 0.33867-0.83538 0.33867zm5.0574-7.2249q1.1515 0 2.0546-0.54187 0.90311-0.56444 1.4224-1.5127 0.54187-0.97084 0.54187-2.1675 0-1.2192-0.54187-2.1675-0.51929-0.97084-1.4224-1.5127-0.90311-0.56444-2.0546-0.56444-1.1289 0-2.0546 0.56444-0.90311 0.54187-1.4224 1.5127-0.51929 0.94827-0.51929 2.1675 0 1.1966 0.51929 2.1675 0.51929 0.94827 1.4224 1.5127 0.92569 0.54187 2.0546 0.54187z"/><path d="m74.99 337.01q-1.6482 0-2.9577-0.8128-1.3095-0.83538-2.0772-2.2352-0.74507-1.4224-0.74507-3.206 0-1.7836 0.8128-3.206 0.83538-1.4224 2.2352-2.2352 1.4224-0.83538 3.1835-0.83538 1.7611 0 3.1609 0.83538 1.3998 0.8128 2.2126 2.2352 0.83538 1.4224 0.83538 3.206h-0.88054q0 1.7836-0.76764 3.206-0.74507 1.3998-2.0546 2.2352-1.3095 0.8128-2.9577 0.8128zm0.45156-2.032q1.1515 0 2.0546-0.54187 0.90311-0.56444 1.4224-1.5127 0.51929-0.97084 0.51929-2.1675 0-1.2192-0.51929-2.1675-0.51929-0.97084-1.4224-1.5127-0.90311-0.56444-2.0546-0.56444-1.1289 0-2.0546 0.56444-0.90311 0.54187-1.445 1.5127-0.51929 0.94827-0.51929 2.1675 0 1.1966 0.51929 2.1675 0.54187 0.94827 1.445 1.5127 0.92569 0.54187 2.0546 0.54187zm5.0574 1.9643q-0.49671 0-0.83538-0.31609-0.31609-0.33867-0.31609-0.83538v-3.4544l0.42898-2.3932 1.874 0.8128v5.0348q0 0.49671-0.33867 0.83538-0.31609 0.31609-0.8128 0.31609z"/><path d="m89.342 337.01q-1.8062 0-3.2286-0.8128-1.3998-0.83538-2.2126-2.2352-0.79022-1.4224-0.79022-3.206 0-1.8288 0.79022-3.2512 0.79022-1.4224 2.1675-2.2126 1.3772-0.8128 3.1609-0.8128 1.3321 0 2.4384 0.51929 1.1063 0.49671 1.9868 1.5127 0.31609 0.36124 0.22578 0.74506-0.09031 0.38383-0.49671 0.67734-0.31609 0.22578-0.69991 0.15804-0.38382-0.0903-0.69991-0.4064-1.1063-1.174-2.7545-1.174-1.1515 0-2.032 0.54186-0.88053 0.51929-1.3772 1.4676-0.49671 0.94827-0.49671 2.2352 0 1.2192 0.49671 2.1675 0.51929 0.94827 1.4224 1.5127 0.90311 0.54187 2.0997 0.54187 0.79022 0 1.3772-0.18062 0.6096-0.2032 1.1063-0.6096 0.36124-0.29351 0.74507-0.31609 0.38382-0.0452 0.67733 0.2032 0.38382 0.31609 0.42898 0.72249 0.04516 0.38382-0.27093 0.69991-1.6256 1.5127-4.064 1.5127z"/><path d="m101.78 337.01q-1.874 0-3.3415-0.79022-1.445-0.8128-2.2804-2.2126-0.8128-1.4224-0.8128-3.2512 0-1.8514 0.76764-3.2512 0.79022-1.4224 2.1675-2.2126 1.3772-0.8128 3.1609-0.8128 1.7611 0 3.0254 0.79023 1.2644 0.76764 1.9191 2.1449 0.67733 1.3547 0.67733 3.1383 0 0.42898-0.29351 0.72249-0.29351 0.27094-0.74506 0.27094h-9.0989v-1.8062h9.0311l-0.92569 0.63218q-0.0226-1.1289-0.45155-2.0094-0.42898-0.90312-1.2192-1.4224-0.79023-0.51929-1.9191-0.51929-1.2869 0-2.2126 0.56445-0.90311 0.56444-1.3772 1.5579-0.47413 0.97084-0.47413 2.2126t0.56444 2.2126q0.56444 0.97084 1.5579 1.5353 0.99342 0.56444 2.2804 0.56444 0.69991 0 1.4224-0.24835 0.74507-0.27094 1.1966-0.6096 0.33867-0.24836 0.72249-0.24836 0.4064-0.0226 0.69992 0.22578 0.38382 0.33866 0.4064 0.74507 0.0226 0.4064-0.36125 0.69991-0.76764 0.6096-1.9191 0.99342-1.1289 0.38382-2.1675 0.38382z"/><path d="m113.15 337.01q-1.5804 0-2.9351-0.47413-1.3321-0.49671-2.0772-1.2418-0.33867-0.36124-0.29351-0.8128 0.0677-0.47413 0.45155-0.76765 0.45156-0.36124 0.88054-0.29351 0.45155 0.0452 0.76764 0.38383 0.38383 0.42897 1.2192 0.8128 0.85796 0.36124 1.8965 0.36124 1.3095 0 1.9868-0.42898 0.69991-0.42898 0.72249-1.1063 0.0226-0.67733-0.65476-1.174-0.65476-0.49671-2.4158-0.8128-2.2804-0.45155-3.3189-1.3547-1.016-0.90312-1.016-2.2126 0-1.1515 0.67733-1.8965 0.67734-0.76765 1.7385-1.1289 1.0612-0.38383 2.2126-0.38383 1.4901 0 2.6416 0.47414 1.1515 0.47413 1.8288 1.3095 0.31609 0.36124 0.29351 0.76764-0.0226 0.38383-0.38382 0.65476-0.36125 0.24836-0.85796 0.15805-0.49671-0.0903-0.83538-0.4064-0.56444-0.54187-1.2192-0.74507-0.65475-0.2032-1.5127-0.2032-0.99342 0-1.6933 0.33866-0.67734 0.33867-0.67734 0.99343 0 0.4064 0.2032 0.74507 0.22578 0.31608 0.85796 0.58702 0.63218 0.24835 1.8514 0.49671 1.6933 0.33867 2.6642 0.85796 0.99342 0.51929 1.4224 1.2192 0.42898 0.67733 0.42898 1.5804 0 1.0386-0.56445 1.874-0.54186 0.83538-1.6256 1.3321-1.0612 0.49671-2.6642 0.49671z"/><path d="m126 342.2q-0.49672 0-0.83538-0.33867-0.31609-0.31609-0.31609-0.8128v-10.295q0.0226-1.7836 0.83538-3.206 0.8128-1.4224 2.2126-2.2352 1.3998-0.83538 3.1609-0.83538 1.7836 0 3.1835 0.83538 1.3998 0.8128 2.2126 2.2352 0.83538 1.4224 0.83538 3.206 0 1.7836-0.76765 3.206-0.74507 1.3998-2.0546 2.2352-1.3095 0.8128-2.9577 0.8128-1.3321 0-2.461-0.54186-1.1063-0.56445-1.8965-1.5127v6.096q0 0.49671-0.31609 0.8128-0.31609 0.33867-0.83537 0.33867zm5.0574-7.2249q1.1515 0 2.0546-0.54187 0.90311-0.56444 1.4224-1.5127 0.54187-0.97084 0.54187-2.1675 0-1.2192-0.54187-2.1675-0.51929-0.97084-1.4224-1.5127-0.90311-0.56444-2.0546-0.56444-1.1289 0-2.0546 0.56444-0.90311 0.54187-1.4224 1.5127-0.51929 0.94827-0.51929 2.1675 0 1.1966 0.51929 2.1675 0.51929 0.94827 1.4224 1.5127 0.92569 0.54187 2.0546 0.54187z"/><path d="m140.49 329.2q0-1.3547 0.65475-2.4158 0.67734-1.0837 1.8062-1.7159 1.1289-0.63218 2.4836-0.63218 1.3547 0 2.0094 0.45155 0.67733 0.42898 0.51929 1.0386-0.0677 0.31609-0.27093 0.49671-0.18063 0.15805-0.42898 0.2032-0.24836 0.0452-0.54187-0.0226-1.445-0.29351-2.5964-0.0452-1.1515 0.24836-1.8288 0.92569-0.65475 0.67734-0.65475 1.7159zm0.0226 7.7216q-0.54187 0-0.83538-0.27093-0.29351-0.29351-0.29351-0.85796v-10.092q0-0.54186 0.29351-0.83537 0.29351-0.29352 0.83538-0.29352 0.56444 0 0.83537 0.29352 0.29352 0.27093 0.29352 0.83537v10.092q0 0.54187-0.29352 0.83538-0.27093 0.29351-0.83537 0.29351z"/><path d="m153.71 337.01q-1.8288 0-3.2286-0.79022-1.3998-0.8128-2.2126-2.2126-0.79022-1.4224-0.79022-3.2512 0-1.8514 0.79022-3.2512 0.8128-1.4224 2.2126-2.2126 1.3998-0.8128 3.2286-0.8128 1.8062 0 3.206 0.8128 1.3998 0.79023 2.19 2.2126 0.8128 1.3998 0.8128 3.2512 0 1.8288-0.79023 3.2512-0.79022 1.3998-2.19 2.2126-1.3998 0.79022-3.2286 0.79022zm0-2.032q1.174 0 2.0772-0.54187 0.90311-0.54186 1.3998-1.4901 0.51929-0.94827 0.51929-2.19t-0.51929-2.19q-0.49671-0.97085-1.3998-1.5127-0.90311-0.54186-2.0772-0.54186-1.174 0-2.0772 0.54186-0.90311 0.54187-1.4224 1.5127-0.51929 0.94826-0.51929 2.19t0.51929 2.19 1.4224 1.4901q0.90312 0.54187 2.0772 0.54187z"/></g></g></g></g></svg>
