<?xml version="1.0" encoding="UTF-8" standalone="no"?>
<svg
   xmlns:dc="http://purl.org/dc/elements/1.1/"
   xmlns:cc="http://creativecommons.org/ns#"
   xmlns:rdf="http://www.w3.org/1999/02/22-rdf-syntax-ns#"
   xmlns:svg="http://www.w3.org/2000/svg"
   xmlns="http://www.w3.org/2000/svg"
   version="1.1"
   id="svg5321"
   viewBox="0 0 350 130"
   height="130"
   width="350">
  <defs
     id="defs5323" />
  <metadata
     id="metadata5326">
    <rdf:RDF>
      <cc:Work
         rdf:about="">
        <dc:format>image/svg+xml</dc:format>
        <dc:type
           rdf:resource="http://purl.org/dc/dcmitype/StillImage" />
        <dc:title></dc:title>
      </cc:Work>
    </rdf:RDF>
  </metadata>
  <g
     transform="translate(0,-922.36216)"
     id="layer1">
    <path
       id="path5277"
       style="font-style:normal;font-variant:normal;font-weight:normal;font-stretch:normal;font-size:80px;line-height:125%;font-family:Pacifico;-inkscape-font-specification:Pacifico;letter-spacing:0px;word-spacing:0px;fill:#616877;fill-opacity:1;stroke:none;stroke-width:1px;stroke-linecap:butt;stroke-linejoin:miter;stroke-opacity:1"
       d="m 17.039464,958.45495 q 0,-3.2813 1.3281,-5.7031 1.3672,-2.461 3.7891,-4.1797 2.4609,-1.7188 5.8593,-2.8125 3.4375,-1.1328 7.5391,-1.7578 4.1016,-0.625 8.7891,-0.8594 4.6875,-0.2344 9.6875,-0.2344 6.7968,0 14.2187,0.5469 7.4609,0.5469 15.5469,1.9922 1.875,0.3906 2.6172,1.4062 0.7812,1.0156 0.7812,2.2656 0,0.7813 -0.3515,1.5235 -0.3516,0.7422 -0.9375,1.3672 -0.586,0.625 -1.3672,1.0156 -0.7813,0.3516 -1.6407,0.3516 -3.0078,0 -6.289,-0.3125 -3.2422,-0.3125 -6.7969,-0.7032 -3.5156,-0.3906 -7.2656,-0.7812 -3.75,-0.3906 -7.7344,-0.586 -0.7031,4.375 -1.7969,9.4141 -1.0937,5.0391 -2.4218,10.3125 -1.2891,5.2344 -2.7344,10.4688 -1.4063,5.1953 -2.7344,9.9609 -1.3281,4.7266 -2.5,8.75005 -1.1328,4.0234 -1.875,6.9141 -0.3125,1.3281 -0.9766,2.4609 -0.625,1.0937 -1.4453,1.9141 -0.7812,0.8203 -1.6406,1.25 -0.8594,0.4687 -1.6016,0.4687 -2.2265,0 -3.6718,-1.0547 -1.4453,-1.0547 -1.4453,-3.3984 0,-0.7422 0.2343,-1.6406 0.5078,-3.5547 1.3282,-6.9922 0.8593,-3.43755 1.9921,-7.14855 1.1329,-3.75 2.5782,-7.9297 1.4453,-4.1796 3.2031,-9.1796 1.7578,-5.0391 3.7891,-11.0938 2.0703,-6.0547 4.4531,-13.4766 -2.0703,0.1563 -4.2188,0.3516 -2.1093,0.1953 -4.1406,0.5469 -1.9922,0.3125 -3.75,0.8203 -1.7187,0.5078 -3.0469,1.2891 -1.289,0.7812 -2.0703,1.875 -0.7422,1.0937 -0.7422,2.5781 0,0.078 -0.1172,0.8594 -0.078,0.7812 -0.664,1.7187 -0.586,0.8984 -1.875,1.6797 -1.25,0.7422 -3.5938,0.7422 -2.3437,0 -3.6328,-0.7813 -1.289,-0.7812 -1.875,-1.7187 -0.7031,-1.0938 -0.7812,-2.5 z" />
    <path
       id="path5279"
       style="font-style:normal;font-variant:normal;font-weight:normal;font-stretch:normal;font-size:80px;line-height:125%;font-family:Pacifico;-inkscape-font-specification:Pacifico;letter-spacing:0px;word-spacing:0px;fill:#616577;fill-opacity:1;stroke:none;stroke-width:1px;stroke-linecap:butt;stroke-linejoin:miter;stroke-opacity:1"
       d="m 94.453664,999.8991 q -0.8984,1.25 -2.4219,2.9297 -1.4843,1.6797 -3.3593,3.2031 -1.875,1.5234 -4.0235,2.5781 -2.1484,1.0547 -4.2969,1.0547 -2.5781,0 -4.2968,-1.6406 -1.7188,-1.6797 -2.9688,-4.8438 -0.9375,1.0938 -2.3047,2.2266 -1.3672,1.1328 -3.0078,2.0703 -1.6015,0.8985 -3.3594,1.4844 -1.7578,0.5859 -3.5156,0.5859 -1.875,0 -3.6719,-0.7422 -1.7578,-0.7812 -3.125,-2.1875 -1.3671,-1.4453 -2.1875,-3.4765 -0.8203,-2.0703 -0.8203,-4.6485 0,-2.92965 0.8203,-6.01565 0.8204,-3.0859 2.2657,-6.0156 1.4453,-2.9688 3.3984,-5.5859 1.9922,-2.6172 4.3359,-4.5704 2.3438,-1.9531 4.9219,-3.0859 2.6172,-1.1719 5.3125,-1.1719 0.8985,0 1.4063,0.3516 0.5078,0.3516 0.8203,0.8203 0.3515,0.4297 0.664,0.8594 0.3125,0.4297 0.7813,0.625 0.4687,0.1953 0.9375,0.2734 0.5078,0.039 1.0156,0.039 0.4297,0 0.8594,0 0.4687,-0.039 0.8984,-0.039 0.586,0 1.0938,0.1172 0.5078,0.1172 0.8984,0.5078 0.3906,0.3906 0.586,1.0938 0.2343,0.7031 0.2343,1.914 0,1.875 -0.3906,4.1797 -0.3906,2.2656 -0.8594,4.6875 -0.4687,2.3828 -0.8593,4.8047 -0.3907,2.3828 -0.3907,4.5313 0,1.83595 0.3125,2.89065 0.3516,1.0156 1.4453,1.0156 0.8204,0 1.7188,-0.3906 0.8984,-0.4297 1.7969,-1.0938 0.9375,-0.664 1.8359,-1.48435 0.9375,-0.8594 1.7578,-1.7579 1.9141,-2.1093 3.8672,-4.7656 l 1.875,8.67195 z m -33.3594,-3.08595 q 0,0.9765 0.1172,1.91405 0.1563,0.8985 0.5078,1.6406 0.3516,0.7032 0.9375,1.1719 0.586,0.4297 1.4844,0.4297 1.4453,0 2.6172,-1.25 1.1719,-1.25 2.0312,-3.00785 0.8594,-1.7578 1.3672,-3.6328 0.5469,-1.875 0.7032,-3.125 l 2.3828,-11.4844 q -1.6016,0 -3.125,0.8203 -1.5235,0.7813 -2.8907,2.1485 -1.3281,1.3671 -2.4609,3.125 -1.1328,1.7578 -1.9531,3.7109 -0.8203,1.9141 -1.2891,3.8672 -0.4297,1.9531 -0.4297,3.6719 z" />
    <path
       id="path5281"
       style="font-style:normal;font-variant:normal;font-weight:normal;font-stretch:normal;font-size:80px;line-height:125%;font-family:Pacifico;-inkscape-font-specification:Pacifico;letter-spacing:0px;word-spacing:0px;fill:#616577;fill-opacity:1;stroke:none;stroke-width:1px;stroke-linecap:butt;stroke-linejoin:miter;stroke-opacity:1"
       d="m 105.97706,1005.3678 q -2.1093,1.875 -4.414,3.0469 -2.265596,1.1328 -4.414096,1.1328 -1.875,0 -3.6719,-0.7422 -1.7578,-0.7812 -3.125,-2.1875 -1.3671,-1.4453 -2.1875,-3.4765 -0.8203,-2.0703 -0.8203,-4.6485 0,-2.92965 0.8203,-6.01565 0.8204,-3.0859 2.2657,-6.0156 1.4453,-2.9688 3.3984,-5.5859 1.9922,-2.6172 4.3359,-4.5704 2.343796,-1.9531 4.921896,-3.0859 2.6172,-1.1719 5.3125,-1.1719 0.8985,0 1.4063,0.3516 0.5078,0.3516 0.8203,0.8203 0.3515,0.4297 0.664,0.8594 0.3125,0.4297 0.7813,0.625 0.4687,0.1953 0.9375,0.2734 0.5078,0.039 1.0156,0.039 0.4297,0 0.8594,0 0.4687,-0.039 0.8984,-0.039 0.586,0 1.0938,0.1172 0.5078,0.1172 0.8984,0.5078 0.3906,0.3906 0.586,1.0938 0.2343,0.7031 0.2343,1.914 0,1.0157 -0.1562,2.7344 -0.1563,1.7188 -0.4297,3.8281 -0.2734,2.1094 -0.625,4.4922 -0.3125,2.3438 -0.6641,4.6094 -0.8203,5.39065 -1.875,11.52345 1.1719,-0.664 2.5391,-1.6406 1.3672,-0.9766 3.0469,-2.6172 1.6797,-1.6406 3.75,-4.10155 2.0703,-2.5 4.6484,-6.211 l 1.875,8.67195 q -0.7031,1.2109 -1.8359,2.5 -1.0938,1.25 -2.461,2.5391 -1.3281,1.25 -2.8125,2.4609 -1.4453,1.1719 -2.8515,2.2266 -3.3203,2.5 -7.1485,4.8437 -0.7422,4.1797 -1.7578,8.125 -1.0156,3.9844 -2.4219,7.4219 -1.3671,3.4765 -3.164,6.3672 -1.7578,2.8906 -4.0235,4.9609 -2.2265,2.0703 -4.999996,3.2031 -2.7734,1.1719 -6.1328,1.1719 -1.3281,0 -2.8906,-0.2734 -1.5234,-0.2735 -2.8516,-1.0938 -1.289,-0.8203 -2.1484,-2.3437 -0.8594,-1.5235 -0.8594,-4.0625 0,-1.7578 0.8985,-3.9844 0.8984,-2.1875 2.4609,-4.6484 1.5625,-2.4219 3.7109,-5.0782 2.1485,-2.6172 4.6485,-5.2343 2.539,-2.6172 5.2734,-5.1563 2.773496,-2.5391 5.585996,-4.8437 l 1.0546,-3.6329 z m -8.632796,-8.55465 q 0,0.9765 0.1172,1.91405 0.1563,0.8985 0.5078,1.6406 0.3516,0.7032 0.9375,1.1719 0.586,0.4297 1.484396,0.4297 1.4453,0 2.6172,-1.25 1.1719,-1.25 2.0312,-3.00785 0.8594,-1.7578 1.3672,-3.6328 0.5469,-1.875 0.7032,-3.125 l 2.3828,-11.4844 q -1.6016,0 -3.125,0.8203 -1.5235,0.7813 -2.8907,2.1485 -1.3281,1.3671 -2.4609,3.125 -1.132796,1.7578 -1.953096,3.7109 -0.8203,1.9141 -1.2891,3.8672 -0.4297,1.9531 -0.4297,3.6719 z m -5.7812,41.40625 q 1.6406,0 3.0859,-0.9766 1.4844,-0.9375 2.6953,-2.5 1.25,-1.5625 2.2657,-3.5546 1.015596,-1.9922 1.796796,-4.1016 0.7813,-2.0703 1.3282,-4.0625 0.5468,-1.9922 0.8593,-3.5547 -1.5234,1.0156 -3.125,2.4219 -1.562496,1.4062 -3.085896,3.0078 -1.4844,1.6406 -2.8516,3.3594 -1.3281,1.7187 -2.3437,3.2812 -1.0156,1.6016 -1.6016,2.9688 -0.5859,1.3672 -0.5859,2.2656 0,1.4453 1.5625,1.4453 z" />
    <path
       id="path5283"
       style="font-style:normal;font-variant:normal;font-weight:normal;font-stretch:normal;font-size:80px;line-height:125%;font-family:Pacifico;-inkscape-font-specification:Pacifico;letter-spacing:0px;word-spacing:0px;fill:#616577;fill-opacity:1;stroke:none;stroke-width:1px;stroke-linecap:butt;stroke-linejoin:miter;stroke-opacity:1"
       d="m 142.41706,958.21935 q 0,2.5781 1.4844,4.6094 1.5235,2.0312 3.9844,3.789 2.5,1.7188 5.625,3.2813 3.1641,1.5625 6.4453,3.2422 3.3203,1.6406 6.4453,3.5547 3.1641,1.875 5.625,4.2578 2.5,2.3828 3.9844,5.3906 1.5234,3.0078 1.5234,6.875 0,3.5156 -1.1328,6.48445 -1.1328,2.9297 -3.125,5.2734 -1.9531,2.3438 -4.6484,4.1406 -2.6953,1.7969 -5.8203,2.9688 -3.125,1.1719 -6.5625,1.7578 -3.4375,0.625 -6.9141,0.625 -4.8828,0 -9.4922,-1.2109 -4.6094,-1.1719 -8.2031,-3.5938 -3.5938,-2.3828 -5.7813,-5.9765 -2.1484,-3.6329 -2.1484,-8.47665 0,-2.5 0.7813,-4.375 0.8203,-1.9141 1.9921,-3.1641 1.211,-1.289 2.6172,-1.914 1.4063,-0.6641 2.6172,-0.6641 1.25,0 2.0703,0.7031 0.8594,0.6641 0.8594,2.1094 0,0.6641 -0.1562,1.4063 -0.1563,0.7421 -0.3516,1.6406 -0.1563,0.8594 -0.3125,1.914 -0.1563,1.0547 -0.1563,2.3047 0,2.7344 1.25,4.72665 1.25,1.9922 3.3204,3.2812 2.0703,1.2891 4.7656,1.9141 2.6953,0.625 5.5859,0.625 3.3985,0 6.7969,-0.8203 3.3984,-0.8203 6.0937,-2.4219 2.6954,-1.6015 4.375,-3.9062 1.6797,-2.34385 1.6797,-5.35165 0,-2.7734 -1.5234,-4.9609 -1.4844,-2.1875 -3.9844,-4.0235 -2.4609,-1.875 -5.625,-3.5156 -3.164,-1.6406 -6.4453,-3.3203 -3.2812,-1.6797 -6.4453,-3.5156 -3.1641,-1.875 -5.6641,-4.1016 -2.4609,-2.2266 -3.9843,-4.9609 -1.4844,-2.7735 -1.4844,-6.2891 0,-3.2812 1.5625,-6.4453 1.6015,-3.2031 4.7656,-5.7031 3.2031,-2.5391 7.9688,-4.1016 4.7656,-1.5625 11.1718,-1.5625 4.0625,0 7.9297,1.2109 3.9063,1.211 6.9531,3.4375 3.0469,2.2266 4.8829,5.3125 1.87501,3.086 1.87501,6.836 0,2.2265 -0.78131,4.5703 -0.7422,2.3437 -2.4219,4.8828 -1.6406,2.4609 -3.5937,3.6719 -1.9141,1.1719 -3.4766,1.1719 -1.1719,0 -1.914,-0.6641 -0.7422,-0.7031 -0.7422,-2.0703 0,-1.0156 0.4687,-2.3828 0.4688,-1.4063 1.6016,-3.2032 1.0547,-1.7187 1.5625,-3.2031 0.5078,-1.5234 0.5078,-2.8125 0,-1.9922 -1.0938,-3.4765 -1.0546,-1.5235 -2.9687,-2.5391 -1.875,-1.0156 -4.5313,-1.5234 -2.6562,-0.5079 -5.8203,-0.5079 -3.5156,0 -6.1328,0.8204 -2.5781,0.7812 -4.3359,2.0703 -1.7188,1.25 -2.5781,2.8125 -0.8204,1.5625 -0.8204,3.0859 z" />
    <path
       id="path5285"
       style="font-style:normal;font-variant:normal;font-weight:normal;font-stretch:normal;font-size:80px;line-height:125%;font-family:Pacifico;-inkscape-font-specification:Pacifico;letter-spacing:0px;word-spacing:0px;fill:#616577;fill-opacity:1;stroke:none;stroke-width:1px;stroke-linecap:butt;stroke-linejoin:miter;stroke-opacity:1"
       d="m 195.96177,1002.5163 q 3.9453,0 7.1875,-0.7813 3.2422,-0.7812 5.8594,-2.1093 2.6563,-1.3282 4.7656,-3.08605 2.1485,-1.7969 3.8672,-3.8281 l 0.4297,8.94535 q -1.25,1.5234 -3.0469,2.9688 -1.7578,1.4062 -3.8672,2.5 -2.1093,1.0546 -4.4531,1.7187 -2.3047,0.625 -4.5703,0.625 -0.2734,0 -0.7031,-0.078 -0.3906,-0.078 -1.4063,-0.2735 -1.0156,-0.1953 -2.9297,-0.5078 -1.875,-0.3515 -5.1171,-0.8203 l 0,0.7031 q 0,7.1094 -1.211,12.8907 -1.1719,5.8203 -3.164,9.9218 -1.9922,4.1016 -4.5704,6.3282 -2.5781,2.2265 -5.35151,2.2265 -2.2266,0 -3.711,-1.0937 -1.4843,-1.0938 -2.3437,-2.9688 -0.8984,-1.8359 -1.25,-4.3359 -0.3906,-2.4609 -0.3906,-5.2344 0,-1.6015 0.5078,-3.6328 0.5078,-1.9922 1.3672,-4.2187 0.8593,-2.1875 1.9531,-4.4922 1.0547,-2.2657 2.1875,-4.4141 2.6562,-5 6.05471,-10.3125 0.4297,-3.04695 0.8594,-6.25005 0.4687,-3.2031 1.1328,-6.2109 0.7031,-3.0078 1.7187,-5.7032 1.0547,-2.6953 2.6563,-4.6875 1.6406,-1.9921 3.9062,-3.164 2.2656,-1.1719 5.4688,-1.1719 2.3828,0 4.4531,0.6641 2.0703,0.625 3.6328,2.0703 1.5625,1.4453 2.4609,3.75 0.8985,2.2656 0.8985,5.5859 0,2.6563 -0.7813,5.1563 -0.7812,2.4609 -2.4609,4.7265 -1.6406,2.2657 -4.2188,4.25785 -2.539,1.9532 -6.0546,3.5157 l 0.2343,0.8203 z m -4.9218,-3.9453 q 2.3437,-1.17195 4.0234,-2.61725 1.7187,-1.4453 2.9297,-3.086 1.25,-1.6406 2.0312,-3.3984 0.7813,-1.7578 1.25,-3.5937 0.1953,-0.8594 0.2344,-1.9922 0.078,-1.1719 -0.2344,-2.1875 -0.2734,-1.0157 -1.0156,-1.7188 -0.7031,-0.7422 -1.9922,-0.7422 -1.4453,0 -2.539,0.8203 -1.0938,0.7813 -1.9141,2.1485 -0.7813,1.3672 -1.3281,3.2422 -0.5078,1.875 -0.8594,4.0234 -0.3125,2.1484 -0.4688,4.4922 -0.1171,2.3047 -0.1171,4.60945 z m -13.59381,28.125 q 0,0.3125 0.1172,1.0156 0.1562,0.7031 0.4687,1.4062 0.3125,0.7032 0.8204,1.25 0.50781,0.5469 1.25001,0.5469 0.664,0 1.0937,-0.7422 0.4297,-0.7031 0.7031,-1.914 0.2735,-1.211 0.3907,-2.7344 0.1171,-1.5234 0.1953,-3.125 0.078,-1.6016 0.078,-3.125 0.039,-1.5234 0.1172,-2.7344 0.1172,-2.1094 0.1562,-3.5937 0.078,-1.4453 0.1172,-2.4219 0.039,-1.0938 0.078,-1.8359 -0.7421,1.289 -1.4453,2.9687 -0.7031,1.7188 -1.3281,3.5547 -0.625,1.8359 -1.13281,3.6719 -0.5078,1.8359 -0.8984,3.3984 -0.3516,1.6016 -0.586,2.7344 -0.1953,1.1719 -0.1953,1.6797 z" />
    <path
       id="path5287"
       style="font-style:normal;font-variant:normal;font-weight:normal;font-stretch:normal;font-size:80px;line-height:125%;font-family:Pacifico;-inkscape-font-specification:Pacifico;letter-spacing:0px;word-spacing:0px;fill:#616577;fill-opacity:1;stroke:none;stroke-width:1px;stroke-linecap:butt;stroke-linejoin:miter;stroke-opacity:1"
       d="m 254.32117,999.8991 q -0.8984,1.25 -2.4219,2.9297 -1.4843,1.6797 -3.3593,3.2031 -1.875,1.5234 -4.0235,2.5781 -2.1484,1.0547 -4.2969,1.0547 -2.5781,0 -4.2968,-1.6406 -1.7188,-1.6797 -2.9688,-4.8438 -0.9375,1.0938 -2.3047,2.2266 -1.3672,1.1328 -3.0078,2.0703 -1.6015,0.8985 -3.3594,1.4844 -1.7578,0.5859 -3.5156,0.5859 -1.875,0 -3.6719,-0.7422 -1.7578,-0.7812 -3.125,-2.1875 -1.3671,-1.4453 -2.1875,-3.4765 -0.8203,-2.0703 -0.8203,-4.6485 0,-2.92965 0.8203,-6.01565 0.8204,-3.0859 2.2657,-6.0156 1.4453,-2.9688 3.3984,-5.5859 1.9922,-2.6172 4.3359,-4.5704 2.3438,-1.9531 4.9219,-3.0859 2.6172,-1.1719 5.3125,-1.1719 0.8985,0 1.4063,0.3516 0.5078,0.3516 0.8203,0.8203 0.3515,0.4297 0.664,0.8594 0.3125,0.4297 0.7813,0.625 0.4687,0.1953 0.9375,0.2734 0.5078,0.039 1.0156,0.039 0.4297,0 0.8594,0 0.4687,-0.039 0.8984,-0.039 0.586,0 1.0938,0.1172 0.5078,0.1172 0.8984,0.5078 0.3906,0.3906 0.586,1.0938 0.2343,0.7031 0.2343,1.914 0,1.875 -0.3906,4.1797 -0.3906,2.2656 -0.8594,4.6875 -0.4687,2.3828 -0.8593,4.8047 -0.3907,2.3828 -0.3907,4.5313 0,1.83595 0.3125,2.89065 0.3516,1.0156 1.4453,1.0156 0.8204,0 1.7188,-0.3906 0.8984,-0.4297 1.7969,-1.0938 0.9375,-0.664 1.8359,-1.48435 0.9375,-0.8594 1.7578,-1.7579 1.9141,-2.1093 3.8672,-4.7656 l 1.875,8.67195 z m -33.3594,-3.08595 q 0,0.9765 0.1172,1.91405 0.1563,0.8985 0.5078,1.6406 0.3516,0.7032 0.9375,1.1719 0.586,0.4297 1.4844,0.4297 1.4453,0 2.6172,-1.25 1.1719,-1.25 2.0312,-3.00785 0.8594,-1.7578 1.3672,-3.6328 0.5469,-1.875 0.7032,-3.125 l 2.3828,-11.4844 q -1.6016,0 -3.125,0.8203 -1.5235,0.7813 -2.8907,2.1485 -1.3281,1.3671 -2.4609,3.125 -1.1328,1.7578 -1.9531,3.7109 -0.8203,1.9141 -1.2891,3.8672 -0.4297,1.9531 -0.4297,3.6719 z" />
    <path
       id="path5289"
       style="font-style:normal;font-variant:normal;font-weight:normal;font-stretch:normal;font-size:80px;line-height:125%;font-family:Pacifico;-inkscape-font-specification:Pacifico;letter-spacing:0px;word-spacing:0px;fill:#616577;fill-opacity:1;stroke:none;stroke-width:1px;stroke-linecap:butt;stroke-linejoin:miter;stroke-opacity:1"
       d="m 261.78207,1009.4694 q -3.5937,0 -6.3281,-1.3281 -2.6953,-1.3281 -4.5312,-3.5547 -1.836,-2.2266 -2.7735,-5.1563 -0.9375,-2.92965 -0.9375,-6.09375 0,-2.2656 0.4688,-4.7266 0.4687,-2.4609 1.3672,-4.8047 0.9375,-2.3828 2.2656,-4.5312 1.3672,-2.1484 3.125,-3.75 1.7969,-1.6406 3.9844,-2.5781 2.1875,-0.9766 4.8047,-0.9766 2.2265,0 4.1015,0.7031 1.9141,0.6641 3.2422,1.875 1.3672,1.211 2.1094,2.8907 0.7812,1.6406 0.7812,3.5546 0,1.3282 -0.3515,2.6172 -0.3516,1.2891 -1.0547,2.3438 -0.6641,1.0156 -1.6406,1.6406 -0.9766,0.625 -2.1875,0.625 -1.836,0 -2.4219,-0.9766 -0.5469,-0.9765 -0.5469,-2.6953 0,-0.7031 0.039,-1.4843 0.078,-0.7813 0.078,-1.4063 0,-0.9375 -0.1953,-1.5625 -0.1953,-0.625 -0.8594,-0.625 -1.6016,0 -2.7344,0.7813 -1.1328,0.7421 -1.9531,1.9921 -0.7812,1.211 -1.25,2.7735 -0.4687,1.5234 -0.7422,3.0469 -0.2734,1.5234 -0.3515,2.9296 -0.078,1.3672 -0.078,2.3047 0,1.4063 0.2344,2.9297 0.2734,1.5235 0.9766,2.81255 0.7031,1.25 1.914,2.1094 1.211,0.8203 3.125,0.8203 1.875,0 4.1407,-1.1328 2.2656,-1.1719 4.5312,-2.92975 2.3047,-1.7578 4.375,-3.8672 2.0703,-2.1094 3.5547,-3.9844 l 2.6953,4.5313 q -2.9297,4.17975 -6.3281,7.46095 -1.4453,1.4063 -3.1641,2.7344 -1.6797,1.3281 -3.5547,2.3828 -1.8359,1.0156 -3.8672,1.6797 -1.9921,0.625 -4.0625,0.625 z" />
    <path
       id="path5291"
       style="font-style:normal;font-variant:normal;font-weight:normal;font-stretch:normal;font-size:80px;line-height:125%;font-family:Pacifico;-inkscape-font-specification:Pacifico;letter-spacing:0px;word-spacing:0px;fill:#616577;fill-opacity:1;stroke:none;stroke-width:1px;stroke-linecap:butt;stroke-linejoin:miter;stroke-opacity:1"
       d="m 291.66497,1009.4694 q -3.6719,0 -6.4453,-1.3281 -2.7344,-1.3281 -4.5704,-3.5547 -1.8359,-2.2656 -2.7734,-5.1953 -0.8984,-2.96885 -0.8984,-6.21105 0,-2.1875 0.4297,-4.6093 0.4296,-2.461 1.289,-4.8047 0.8985,-2.3438 2.2266,-4.4531 1.3281,-2.1485 3.0859,-3.75 1.7969,-1.6407 3.9844,-2.5782 2.2266,-0.9765 4.9219,-0.9765 2.1875,0 4.0625,0.7031 1.875,0.7031 3.2422,1.9922 1.4062,1.25 2.1875,3.0469 0.7812,1.7968 0.7812,4.0234 0,2.4219 -1.2109,4.8437 -1.1719,2.4219 -3.2813,4.5704 -2.1094,2.1484 -5.039,3.8281 -2.8907,1.6797 -6.2891,2.6172 0.5859,1.05475 1.1328,1.75785 0.5859,0.7031 1.1719,1.0937 0.5859,0.3907 1.2109,0.5469 0.6641,0.1563 1.4063,0.1563 2.3437,0 4.9218,-0.9375 2.6172,-0.9375 5.0782,-2.34385 2.4609,-1.4062 4.6484,-3.0469 2.1875,-1.6797 3.7109,-3.164 l 5.0391,5.2343 q -3.4375,3.55475 -7.3047,6.28915 -1.6797,1.1719 -3.6328,2.3047 -1.9141,1.1328 -4.0625,2.0312 -2.1094,0.8594 -4.4141,1.4063 -2.2656,0.5078 -4.6093,0.5078 z m -5.1953,-18.35945 q 1.4062,0 3.0468,-0.7031 1.6797,-0.7422 3.086,-1.875 1.4453,-1.1328 2.4218,-2.4609 0.9766,-1.3282 0.9766,-2.5782 0,-1.7578 -0.6641,-2.8906 -0.625,-1.1328 -1.5625,-1.1328 -1.6796,0 -2.8906,0.625 -1.1719,0.625 -1.9922,1.6406 -0.7812,0.9766 -1.289,2.2657 -0.4688,1.25 -0.7422,2.539 -0.2344,1.2891 -0.3125,2.5 -0.078,1.211 -0.078,2.0703 z" />
    <path
       id="path5293"
       style="font-style:normal;font-variant:normal;font-weight:normal;font-stretch:normal;font-size:80px;line-height:125%;font-family:Pacifico;-inkscape-font-specification:Pacifico;letter-spacing:0px;word-spacing:0px;fill:#616577;fill-opacity:1;stroke:none;stroke-width:1px;stroke-linecap:butt;stroke-linejoin:miter;stroke-opacity:1"
       d="m 332.14277,1004.9081 c 0,0 -2.3009,3.715 -4.6968,4.2097 -2.3698,0.4688 -4.6224,0.7032 -6.7578,0.7032 -1.5365,0 -2.9688,-0.1432 -4.2969,-0.4297 -1.3281,-0.2865 -2.5,-0.7292 -3.5156,-1.3281 -0.9896,-0.625 -1.7969,-1.4323 -2.4219,-2.4219 -0.625,-0.9896 -1.0026,-2.1875 -1.1328,-3.5938 -0.3646,0.078 -0.7292,0.1302 -1.0937,0.1563 -0.3385,0.026 -0.6771,0.039 -1.0157,0.039 -0.4167,0 -0.8073,-0.013 -1.1718,-0.039 -0.3646,-0.026 -0.6771,-0.1172 -0.9375,-0.2735 -0.2605,-0.1823 -0.4688,-0.4557 -0.625,-0.8203 -0.1563,-0.3906 -0.2344,-0.9375 -0.2344,-1.6406 0,-0.625 0.1562,-1.1979 0.4687,-1.71875 0.3125,-0.5469 0.6771,-1.0287 1.0938,-1.4454 0.4167,-0.4167 0.8333,-0.7812 1.25,-1.0937 0.4167,-0.3125 0.7292,-0.5599 0.9375,-0.7422 l 2e-4,0 c 1.4583,-1.25 2.6432,-2.2917 3.5547,-3.125 0.9115,-0.8333 1.6927,-1.5885 2.3437,-2.2656 0.6511,-0.7031 1.237,-1.4063 1.7578,-2.1094 0.5469,-0.7031 1.185,-1.5365 1.9141,-2.5 0.7292,-0.9635 1.6146,-2.1354 2.6563,-3.5156 1.0417,-1.4063 2.3958,-3.1511 4.0625,-5.2344 0.3385,-0.4687 0.7161,-0.9245 1.1328,-1.3672 0.4167,-0.4427 0.8724,-0.8333 1.3672,-1.1719 0.5208,-0.3645 1.0807,-0.651 1.6796,-0.8593 0.625,-0.2344 1.3151,-0.3516 2.0704,-0.3516 1.25,0 2.2135,0.1432 2.8906,0.4297 0.6771,0.2604 1.1719,0.5859 1.4844,0.9766 0.3125,0.3906 0.4947,0.8073 0.5468,1.25 0.052,0.4167 0.078,0.7812 0.078,1.0937 0,0.625 -0.2474,1.3151 -0.7422,2.0703 -0.4948,0.7552 -1.0417,1.4844 -1.6407,2.1875 -0.5989,0.7031 -1.1718,1.3542 -1.7187,1.9531 -0.5209,0.5729 -0.8203,1.0026 -0.8984,1.2891 0,0.8073 0.052,1.5495 0.1562,2.2266 0.1302,0.651 0.2865,1.302 0.4688,1.9531 0.2083,0.625 0.4167,1.3021 0.625,2.0312 0.2083,0.7031 0.4036,1.5235 0.5859,2.461 0.2083,0.9375 0.3646,2.0182 0.4687,3.2422 0.1303,1.2239 0.1954,4.33595 0.1954,4.33595 m -20.0389,0 c 0.3125,0 0.651,0.1953 1.0156,0.5859 0.3907,0.3907 0.8334,0.8204 1.3281,1.2891 0.4948,0.4687 1.0677,0.8984 1.7188,1.2891 0.6511,0.3906 1.3933,0.5859 2.2266,0.5859 1.0156,0 1.8489,-0.1693 2.5,-0.5078 0.6771,-0.3385 1.2109,-0.7812 1.6015,-1.3281 0.3907,-0.5729 0.6641,-1.224 0.8203,-1.9532 0.1563,-0.7552 0.2344,-1.53645 0.2344,-2.34375 0,-0.7031 -0.052,-1.4193 -0.1562,-2.1484 -0.078,-0.7292 -0.1953,-1.4193 -0.3516,-2.0704 -0.1302,-0.6771 -0.2865,-1.3021 -0.4688,-1.875 -0.1562,-0.5989 -0.2994,-1.1067 -0.4296,-1.5234 z" />
  </g>
</svg>
