<svg version="1.1" id="Layer_1" x="0" y="0" viewBox="0 0 1000 500" xml:space="preserve" width="1000" height="500" xmlns="http://www.w3.org/2000/svg">
  <style type="text/css" id="style2">
    .st2{fill:#fff}.st3{fill:#444e59}.st4{fill:#bbbfc2}.st6{opacity:.4;fill:#848484}.st7{fill:none;stroke:#444e59;stroke-width:4;stroke-linecap:round;stroke-linejoin:round;stroke-miterlimit:10}.st8{opacity:.32;fill:#848484}.st11{fill:#6567c3}.st12,.st13{opacity:.2;fill:#444e59}.st13{fill:none;stroke:#444e59;stroke-width:4;stroke-linecap:round;stroke-linejoin:round;stroke-miterlimit:10}.st16{fill:#f09f54}.st17{fill:#ed8b3b}.st19{fill:#8d91db}.st21{opacity:.3;fill:none;stroke:#444e59;stroke-width:4;stroke-linecap:round;stroke-linejoin:round;stroke-miterlimit:10}.st26,.st27{stroke-width:2}.st26{fill:none;stroke:#444e59;stroke-linejoin:round}.st27{stroke-dasharray:2.858,1.9053}.st27,.st28,.st29{fill:none;stroke:#444e59;stroke-linejoin:round}.st28{stroke-width:2;stroke-dasharray:3.0046,2.003}.st29{stroke-miterlimit:10}
  </style>
	<path id="XMLID_1313_" class="st3" d="M903.58 406.975H89.48c-5 0-9-4-9-9s4-9 9-9h814.2c5 0 9 4 9 9-.1 5-4.1 9-9.1 9z"/>
	<path id="XMLID_6_" class="st3" d="M401.18 388.475h140.8v8.4h-140.8z"/>
	<path id="XMLID_76_" class="st4" d="M639.78 333.575h-332.2c-6.6 0-12-5.4-12-12v-222.5c0-6.6 5.4-12 12-12h332.2c6.6 0 12 5.4 12 12v222.4c0 6.7-5.3 12.1-12 12.1z"/>
	<path id="XMLID_80_" transform="rotate(90)" style="fill:#1abc8f;fill-opacity:1" d="M109.654-630.668h181.7v312.6h-181.7z"/>
	<path id="XMLID_18_" class="st6" d="M640.58 333.575h-52.1v-94.8c0-7.6 6.1-13.7 13.7-13.7h38.4z"/>
	<path id="XMLID_107_" class="st6" d="M320.88 241.975h-25.3v74.7c0 9.3 8 16.9 17.4 16.9h29.1v-70c-.1-11.7-9.6-21.6-21.2-21.6z"/>
	<path id="XMLID_5_" class="st7" d="M640.78 333.575h-332.8c-6.6 0-12-5.4-12-12v-222.5c0-6.6 5.4-12 12-12h332.8c6.6 0 12 5.4 12 12v222.4c0 6.7-5.4 12.1-12 12.1z"/>
	<path id="XMLID_7_" transform="rotate(90)" class="st7" d="M109.652-630.265h181.7v311.7h-181.7z"/>
	<path id="XMLID_179_" class="st8" d="M569.68 282.575h-171.8c-3.9 0-7-3.2-7-7v-122.6c0-3.9 3.2-7 7-7h171.8c3.9 0 7 3.2 7 7v122.5c0 3.9-3.1 7.1-7 7.1z"/>
	<path id="XMLID_134_" d="M561.68 275.775h-171.8c-3.9 0-7-3.2-7-7v-122.5c0-3.9 3.2-7 7-7h171.8c3.9 0 7 3.2 7 7v122.5c.1 3.9-3.1 7-7 7z" style="fill:#afb1b2"/>
	<path id="XMLID_137_" class="st7" d="M561.68 275.775h-171.8c-3.9 0-7-3.2-7-7v-122.5c0-3.9 3.2-7 7-7h171.8c3.9 0 7 3.2 7 7v122.5c.1 3.9-3.1 7-7 7z"/>
	<path id="XMLID_96_" transform="translate(-6.22 -259.325)" style="fill:#aeaeaf" d="m512.1 592.9 10.4 54.9h-83.8l10.4-54.9z"/>
	<path id="XMLID_99_" class="st8" transform="translate(-6.22 -259.325)" d="M446.3 608.4h68.6l-2.8-15.5h-63z"/>
	<path id="XMLID_3_" class="st7" transform="translate(-6.22 -259.325)" d="m512.1 592.9 10.4 54.9h-83.8l10.4-54.9z"/>
	<path id="XMLID_8_" class="st7" d="M401.18 388.475h140.8v8.4h-140.8z"/>
	<circle id="XMLID_9_" class="st3" cx="473.88" cy="308.375" r="6.2"/>
	<path id="XMLID_133_" class="st2" d="M547.58 263.175h-171.8c-3.9 0-7-3.2-7-7v-122.6c0-3.9 3.2-7 7-7h171.8c3.9 0 7 3.2 7 7v122.5c.1 3.9-3.1 7.1-7 7.1z"/>
	<path id="XMLID_25_" class="st7" d="M547.58 263.175h-171.8c-3.9 0-7-3.2-7-7v-122.6c0-3.9 3.2-7 7-7h171.8c3.9 0 7 3.2 7 7v122.5c.1 3.9-3.1 7.1-7 7.1z"/>
	<path id="XMLID_105_" class="st4" d="M554.68 147.675h-185.9v-13.8c0-4 3.3-7.4 7.4-7.4h171.6c3.8 0 6.9 3.1 6.9 6.9z"/>
	<path id="XMLID_26_" class="st7" d="M554.68 147.675h-185.9v-13.8c0-4 3.3-7.4 7.4-7.4h171.6c3.8 0 6.9 3.1 6.9 6.9z"/>
	<g id="XMLID_108_" transform="translate(-6.22 -259.325)">
    <circle id="XMLID_106_" class="st3" cx="392.9" cy="396.5" r="3.3"/>
		<circle id="XMLID_109_" class="st3" cx="403.8" cy="396.5" r="3.3"/>
		<circle id="XMLID_120_" class="st3" cx="414.6" cy="396.5" r="3.3"/>
  </g>
	<path id="XMLID_122_" class="st11" d="M537.18 184.275h-152.3c-1.1 0-2-.9-2-2v-21.3c0-1.1.9-2 2-2h152.3c1.1 0 2 .9 2 2v21.3c0 1.1-.9 2-2 2z"/>
	<g id="XMLID_123_" transform="translate(-6.22 -259.325)">
    <path id="XMLID_124_" class="st12" d="M434.9 470.3H391c-1.1 0-2-.9-2-2v-11.5c0-1.1.9-2 2-2h43.9c1.1 0 2 .9 2 2v11.5c0 1.1-.8 2-2 2z"/>
		<path id="XMLID_125_" class="st13" d="M396.1 481.6h35.2"/>
		<path id="XMLID_128_" class="st13" d="M396.1 492.9h35.2"/>
  </g>
	<g id="XMLID_127_" transform="translate(-6.22 -259.325)">
    <path id="XMLID_131_" class="st12" d="M489.9 470.3H446c-1.1 0-2-.9-2-2v-11.5c0-1.1.9-2 2-2h43.9c1.1 0 2 .9 2 2v11.5c0 1.1-.9 2-2 2z"/>
		<path id="XMLID_130_" class="st13" d="M451 481.6h33.8"/>
		<path id="XMLID_129_" class="st13" d="M451 492.9h33.8"/>
  </g>
	<g id="XMLID_132_" transform="translate(-6.22 -259.325)" style="opacity:.2">
    <path id="XMLID_135_" class="st3" d="M544.8 494.3h-43.9c-1.1 0-2-.9-2-2v-35.4c0-1.1.9-2 2-2h43.9c1.1 0 2 .9 2 2v35.4c0 1.1-.9 2-2 2z"/>
  </g>
	<g id="XMLID_126_" transform="translate(-6.22 -259.325)" style="opacity:9.000000e-02">
    <path id="XMLID_136_" class="st3" d="M543.4 505.6h-41.8c-1.6 0-2.8-1.3-2.8-2.8 0-1.5 1.3-2.8 2.8-2.8h41.8c1.6 0 2.8 1.3 2.8 2.8 0 1.5-1.3 2.8-2.8 2.8z"/>
  </g>
	<g id="XMLID_23_" transform="translate(-6.22 -259.325)">
    <g id="XMLID_12_">
      <path id="XMLID_71_" class="st2" d="M229.2 613.4h-80.6c-1 0-1.9.3-2.6 1l-19.5 17c-1.8 1.6-1.8 4.4 0 5.9l19.5 17.3c.7.6 1.6 1.2 2.6 1.2h80.6c4.6 0 8.4-4.2 8.4-8.8v-25.5c-.1-4.4-3.8-8.1-8.4-8.1zm-82.8 25.9c-2.7 0-5-2.2-5-5s2.2-5 5-5 5 2.2 5 5-2.2 5-5 5z"/>
		<path id="XMLID_70_" class="st16" d="M167.1 613.4h23.5v42.5h-23.5z"/>
		<path id="XMLID_69_" class="st17" d="M190.6 613.4h23.5v42.5h-23.5z"/>
		<path id="XMLID_58_" d="M227.1 655.9h-13v-42.5h13.4c5.5 0 10.1 4.5 10.1 10.1v22c-.1 5.7-4.8 10.4-10.5 10.4z" style="fill:#ff6c37"/>
		<path id="XMLID_117_" class="st6" d="M231.4 615.5c-.4-.1-.8-.1-1.2-.1h-80.6c-1 0-1.9.3-2.6 1l-19.5 17c-1.8 1.6-1.8 4.4 0 5.9l12.2 10.7 13.2 3.3c.6.2 1.3.2 2 .2 1.3 0 2.5-.3 3.7-.9l71.8-36.6c.3-.1.7-.3 1-.5zm-84 25.8c-2.7 0-5-2.2-5-5s2.2-5 5-5 5 2.2 5 5-2.2 5-5 5z"/>
		<path id="XMLID_29_" class="st7" d="M229.2 613.4h-80.6c-1 0-1.9.3-2.6 1l-19.5 17c-1.8 1.6-1.8 4.4 0 5.9l19.5 17.3c.7.6 1.6 1.2 2.6 1.2h80.6c4.6 0 8.4-4.2 8.4-8.8v-25.5c-.1-4.4-3.8-8.1-8.4-8.1zm-82.8 25.9c-2.7 0-5-2.2-5-5s2.2-5 5-5 5 2.2 5 5-2.2 5-5 5z"/>
		<path id="XMLID_17_" class="st7" d="M167.1 613.4h23.5v42.5h-23.5z"/>
		<path id="XMLID_21_" class="st7" d="M190.6 613.4h23.5v42.5h-23.5z"/>
		<path id="XMLID_22_" class="st7" d="M227.1 655.9h-13v-42.5h13.4c5.5 0 10.1 4.5 10.1 10.1v22c-.1 5.7-4.8 10.4-10.5 10.4z"/>
    </g>
		<g id="XMLID_20_">
      <path id="XMLID_74_" class="st2" d="m208.4 573-71.8 36.6c-.9.4-1.5 1.2-1.9 2.1l-9.6 24c-.9 2.2.4 4.7 2.7 5.3l25.1 6.4c.9.2 1.9.1 2.8-.3l71.8-36.6c4.1-2.1 5.7-7.1 3.6-11.1l-11.6-22.7c-2.1-4.2-7.1-5.8-11.1-3.7z"/>
			<path id="XMLID_77_" transform="rotate(-27.031 193.882 603.896)" class="st19" d="M182.2 582.9h23.5v42h-23.5z"/>
			<path id="XMLID_33_" class="st7" d="m208.4 573-71.8 36.6c-.9.4-1.5 1.2-1.9 2.1l-9.6 24c-.9 2.2.4 4.7 2.7 5.3l25.1 6.4c.9.2 1.9.1 2.8-.3l71.8-36.6c4.1-2.1 5.7-7.1 3.6-11.1l-11.6-22.7c-2.1-4.2-7.1-5.8-11.1-3.7z"/>
			<circle id="XMLID_34_" class="st3" cx="144.2" cy="629.3" r="5.8"/>
			<path id="XMLID_79_" transform="rotate(-27.031 172.965 614.568)" style="fill:#beccd5;stroke:#444e59;stroke-width:4;stroke-linecap:round;stroke-linejoin:round;stroke-miterlimit:10" d="M161.2 593.6h23.5v42h-23.5z"/>
			<path id="XMLID_32_" transform="rotate(-27.031 172.965 614.568)" class="st7" d="M161.2 593.6h23.5v42h-23.5z"/>
			<path id="XMLID_31_" transform="rotate(-27.031 193.882 603.896)" class="st7" d="M182.2 582.9h23.5v42h-23.5z"/>
			<path id="XMLID_30_" class="st11" d="m225.9 611.2-12 6.1-19.1-37.4 12-6.1c4.9-2.5 10.9-.6 13.5 4.4l10 19.6c2.5 4.9.5 10.9-4.4 13.4z"/>
			<path id="XMLID_78_" class="st7" d="m225.9 611.2-12 6.1-19.1-37.4 12-6.1c4.9-2.5 10.9-.6 13.5 4.4l10 19.6c2.5 4.9.5 10.9-4.4 13.4z"/>
    </g>
  </g>
	<g id="XMLID_90_" transform="translate(-6.22 -259.325)">
    <path id="XMLID_102_" class="st2" d="M327 656.2h-67.3c-5.5 0-10-4.5-10-10V511.3c0-5.5 4.5-10 10-10H327c5.5 0 10 4.5 10 10v134.9c0 5.6-4.5 10-10 10z"/>
		<path id="XMLID_83_" class="st11" d="M338.4 547.8h-88.7v-36.7c0-5.4 4.4-9.8 9.8-9.8H328c5.7 0 10.3 4.7 10.3 10.3v36.2z"/>
		<path id="XMLID_10_" class="st7" d="M327 656.2h-67.3c-5.5 0-10-4.5-10-10V511.3c0-5.5 4.5-10 10-10H327c5.5 0 10 4.5 10 10v134.9c0 5.6-4.5 10-10 10z"/>
		<path id="XMLID_82_" class="st4" d="M327.1 656.2H260c-5.7 0-10.4-4.7-10.4-10.4v-19.2H337v19.7c0 5.5-4.5 9.9-9.9 9.9z"/>
		<path id="XMLID_81_" class="st7" d="M327.3 656.2H260c-5.7 0-10.4-4.7-10.4-10.4v-19.2H337v19.9c0 5.4-4.4 9.7-9.7 9.7z"/>
		<circle id="XMLID_84_" class="st3" cx="294" cy="640.8" r="5"/>
		<path id="XMLID_86_" class="st21" d="M269.4 563.3h49.3"/>
		<path id="XMLID_87_" class="st21" d="M279.2 578.8h31"/>
		<path id="XMLID_88_" class="st21" d="M269.4 592.9h49.3"/>
		<circle id="XMLID_85_" cx="294" cy="528.1" r="11.2" style="opacity:.62;fill:#fff"/>
		<path id="XMLID_89_" class="st17" d="M310.2 608.4c0 3.1-2.5 5.6-5.6 5.6h-21.1c-3.1 0-5.6-2.5-5.6-5.6 0-3.1 2.5-5.6 5.6-5.6h21.1c3.1-.1 5.6 2.4 5.6 5.6z"/>
  </g>
	<g id="XMLID_111_" transform="translate(-6.22 -259.325)">
    <path id="XMLID_100_" class="st4" d="M848.2 637.9H605.9V492.3c0-4.3 3.5-7.8 7.8-7.8h226.8c4.2 0 7.6 3.4 7.6 7.6v145.8z"/>
		<path id="XMLID_11_" class="st7" d="M848.8 638.2H606.6v-146c0-4.4 3.6-8 8-8h226.2c4.4 0 8 3.6 8 8z"/>
		<path id="XMLID_101_" transform="rotate(90 727.75 561.177)" style="opacity:.71;fill:#5d5d5d" d="M663.7 453.4h128.2v215.5H663.7z"/>
		<path id="XMLID_183_" class="st8" d="M672.7 600.9h-18.6c-1.1 0-2-.9-2-2v-63.7c0-1.1.9-2 2-2h18.6c1.1 0 2 .9 2 2V599c0 1-.9 1.9-2 1.9z"/>
		<path id="XMLID_178_" class="st8" d="M807 613.8H699.6c-2.2 0-4-1.8-4-4v-82.1c0-2.2 1.8-4 4-4H807c2.2 0 4 1.8 4 4v82.1c0 2.2-1.7 4-4 4z"/>
		<path id="XMLID_103_" transform="rotate(90 727.659 561.179)" class="st7" d="M664.1 453.5h127.1v215.3H664.1z"/>
		<path id="XMLID_110_" class="st2" d="M875.2 638.2H580.1v9.4c0 4.4 3.6 8 8 8h279.1c4.4 0 8-3.6 8-8z"/>
		<path id="XMLID_206_" d="M591.4 656.2H864c5.5 0 10-4.2 11-9.9H580.3c1 5.7 5.6 9.9 11.1 9.9z" style="opacity:.8;fill:#bbbfc2"/>
		<path id="XMLID_15_" class="st7" d="M875.2 638.2H580.1v9.4c0 4.4 3.6 8 8 8h279.1c4.4 0 8-3.6 8-8z"/>
		<path id="XMLID_201_" class="st16" d="M646.8 528.1h22.5v22.5h-22.5z"/>
		<path id="XMLID_138_" class="st7" d="M647.2 528.3h22.5v22.5h-22.5z"/>
		<path id="XMLID_180_" class="st7" d="M647.2 528.3h22.5v22.5h-22.5z"/>
		<path id="XMLID_156_" class="st19" d="M646.8 550.6h22.5v22.5h-22.5z"/>
		<path id="XMLID_140_" class="st7" d="M647.2 550.9h22.5v22.5h-22.5z"/>
		<path id="XMLID_202_" class="st11" d="M646.8 573.1h22.5v22.5h-22.5z"/>
		<path id="XMLID_143_" class="st7" d="M647.2 573.4h22.5v22.5h-22.5z"/>
		<path id="XMLID_115_" class="st2" d="M800.5 606.9H693c-2.2 0-4-1.8-4-4v-82.1c0-2.2 1.8-4 4-4h107.5c2.2 0 4 1.8 4 4v82.1c0 2.3-1.8 4-4 4z"/>
		<path id="XMLID_139_" class="st7" d="M800.5 606.9H693c-2.2 0-4-1.8-4-4v-82.1c0-2.2 1.8-4 4-4h107.5c2.2 0 4 1.8 4 4v82.1c0 2.3-1.8 4-4 4z"/>
		<g id="XMLID_147_" style="opacity:.3">
      <g id="XMLID_205_">
        <path id="XMLID_419_" class="st26" d="M770.7 583.2v1.5h-1.5"/>
		  <path id="XMLID_418_" class="st27" d="M767.3 584.7h-41.9"/>
		  <path id="XMLID_417_" class="st26" d="M724.4 584.7h-1.5v-1.5"/>
		  <path id="XMLID_416_" class="st28" d="M722.9 581.1v-39"/>
		  <path id="XMLID_415_" class="st26" d="M722.9 541.1v-1.5h1.5"/>
		  <path id="XMLID_214_" class="st27" d="M726.3 539.6h41.9"/>
		  <path id="XMLID_213_" class="st26" d="M769.2 539.6h1.5v1.5"/>
		  <path id="XMLID_211_" class="st28" d="M770.7 543.1v39.1"/>
      </g>
    </g>
		<g id="XMLID_155_">
      <path id="XMLID_154_" class="st2" d="M719.6 536.1h7.1v7.1h-7.1z"/>
			<path id="XMLID_153_" class="st29" d="M719.3 535.8h7v7h-7z"/>
    </g>
		<g id="XMLID_157_">
      <path id="XMLID_159_" class="st2" d="M719.6 581.1h7.1v7.1h-7.1z"/>
			<path id="XMLID_158_" class="st29" d="M719.3 580.9h7v7h-7z"/>
    </g>
		<g id="XMLID_162_">
      <path id="XMLID_166_" class="st2" d="M767.2 536.1h7.1v7.1h-7.1z"/>
			<path id="XMLID_164_" class="st29" d="M767.2 535.8h7v7h-7z"/>
    </g>
		<g id="XMLID_196_">
      <path id="XMLID_198_" class="st2" d="M767.2 581.1h7.1v7.1h-7.1z"/>
			<path id="XMLID_197_" class="st29" d="M767.2 580.9h7v7h-7z"/>
    </g>
		<g id="XMLID_229_">
      <g id="XMLID_225_">
        <path id="XMLID_230_" class="st2" d="m658.5 562.5 7.1 15.2 6.9 3.6 4.8-4.8-3.5-7z"/>
		  <path id="XMLID_227_" class="st29" d="m658.5 562.5 7.1 15.2 6.9 3.6 4.8-4.8-3.5-7z"/>
		  <circle id="XMLID_224_" class="st3" cx="667.5" cy="571.1" r="1.9"/>
		  <path id="XMLID_226_" style="fill:none;stroke:#444e59;stroke-linecap:round;stroke-linejoin:round;stroke-miterlimit:10" d="m658.5 562.5 7.9 7.9"/>
      </g>
			<path id="XMLID_231_" transform="rotate(-45.001 676.688 580.604)" class="st2" d="M673.3 578.1h6.8v4.9h-6.8z"/>
			<path id="XMLID_228_" transform="rotate(-45.001 676.688 580.604)" class="st29" d="M673.3 578.1h6.8v4.9h-6.8z"/>
    </g>
  </g>
</svg>
