<svg viewBox="0 0 2500 800" version="1.1" id="svg186" width="2500" height="800" xmlns="http://www.w3.org/2000/svg">
	<defs id="defs190">
		<filter id="Adobe_OpacityMaskFilter" filterUnits="userSpaceOnUse" x="188.8" y="373.6" width="622.5" height="343.2">
			<feColorMatrix type="matrix" values="1 0 0 0 0 0 1 0 0 0 0 0 1 0 0 0 0 0 1 0" id="feColorMatrix58"/>
		</filter>
		<mask maskUnits="userSpaceOnUse" x="188.8" y="373.6" width="622.5" height="343.2" id="XMLID_6_">
			<g id="XMLID_30_" class="st13">
				<path id="XMLID_33_" class="st11" d="M232.9 428.2h536v204.4h-536z"/>
			</g>
		</mask>
	</defs>
	<path d="m1560.962 612.125-137.692 86.831a56.955 56.955 0 0 1-47.81 6.048l-150.93-48.516a56.955 56.955 0 0 0-48.072 6.215l-110.5 70.538a25.806 25.806 0 0 1-38.6-14.736l-95.37-334.34a25.807 25.807 0 0 1 11.03-28.893l139.16-87.95a62.363 62.363 0 0 1 52.4-6.654l146.115 46.968a62.365 62.365 0 0 0 52.566-6.758l104.638-66.59a25.807 25.807 0 0 1 38.67 14.694l95.356 334.294a25.806 25.806 0 0 1-10.961 28.85z" style="opacity:.4;fill:#cccdcf" id="path6"/>
	<path d="m1566.338 576.643-117.578 74.822a62.365 62.365 0 0 1-52.566 6.758l-146.125-46.968a62.366 62.366 0 0 0-52.4 6.654l-126.34 79.849a25.806 25.806 0 0 1-38.6-14.736l-95.368-334.34a25.806 25.806 0 0 1 11.029-28.893l139.153-87.953a62.365 62.365 0 0 1 52.4-6.654l146.124 46.969a62.362 62.362 0 0 0 52.566-6.76l104.638-66.587a25.807 25.807 0 0 1 38.67 14.693l95.356 334.292a25.807 25.807 0 0 1-10.96 28.854z" style="fill:#fff" id="path8"/>
	<path d="m1236.043 573.462-21.863-61.686-103.32 35.37-32.306-93.605-84.151 16.748 59 206.834a4.335 4.335 0 0 0 4.184 3.137 4.114 4.114 0 0 0 2.25-.681l120.115-75.913c-.522-.612 56.09-30.205 56.09-30.205z" style="fill:#eaf4f7" id="path10"/>
	<path d="m1566.338 576.643-117.578 74.822a62.365 62.365 0 0 1-52.566 6.758l-146.125-46.968a62.366 62.366 0 0 0-52.4 6.654l-126.34 79.849a25.806 25.806 0 0 1-38.6-14.736l-95.368-334.34a25.806 25.806 0 0 1 11.029-28.893l139.153-87.953a62.365 62.365 0 0 1 52.4-6.654l146.124 46.969a62.362 62.362 0 0 0 52.566-6.76l104.638-66.587a25.807 25.807 0 0 1 38.67 14.693l95.356 334.292a25.807 25.807 0 0 1-10.96 28.854z" style="fill:none;stroke:#363a5a;stroke-width:6px;stroke-miterlimit:10" id="path12"/>
	<path d="M1127.596 535.11s1.792-.467 4.812-1.349" style="fill:none;stroke:#363a5a;stroke-width:4px;stroke-linecap:round;stroke-linejoin:round" id="path14"/>
	<path d="M1146.946 529.107c21.234-7.387 52.394-20.943 52.768-36.975.5-21.3-102.732-127.866-47.233-134.308 185.288-21.506 102.267 132.6 186.772 129.156 35.7-1.455-30.321-50.539 71.682-86.018 15.12-5.26 7.609-43.716 2.536-63.822" style="fill:none;stroke:#363a5a;stroke-width:4px;stroke-linecap:round;stroke-linejoin:round;stroke-dasharray:10.1761,15.2642" id="path16"/>
	<path d="M1411.509 329.762c-.844-3.017-1.4-4.8-1.4-4.8" style="fill:none;stroke:#363a5a;stroke-width:4px;stroke-linecap:round;stroke-linejoin:round" id="path18"/>
	<circle cx="1121.142" cy="537.713" r="48.192" style="opacity:.22;fill:#3dc0cb" id="circle20"/>
	<circle cx="1121.142" cy="537.713" r="27.946" style="fill:#3dc0cb" id="circle22"/>
	<path d="M1121.142 509.767a27.9 27.9 0 0 0-22.158 10.924 27.942 27.942 0 0 1 37.86 40.14 27.946 27.946 0 0 0-15.7-51.063z" style="fill:#64c7cf" id="path24"/>
	<circle cx="1121.142" cy="537.713" r="27.946" style="fill:none;stroke:#363a5a;stroke-width:6px;stroke-miterlimit:10" id="circle26"/>
	<path d="m1133.877 288.375 80.153 15.193-18.407-32.352-66.34-23.145a30.94 30.94 0 0 0-23.644 1.352l-145.767 88.543a4.325 4.325 0 0 0-1.84 4.816l23.509 82.412 64.089-15.847-11.77-47.212z" style="fill:#87d5f7;stroke:#259ad6;stroke-width:4px;stroke-linecap:round;stroke-linejoin:round" id="path28"/>
	<path style="fill:#fddcbf;stroke:#ecb072;stroke-width:4px;stroke-linecap:round;stroke-linejoin:round" id="polygon30" transform="translate(767.53 -50.465)" d="m539.109 554.445 22.113 50.681-49.273-8.077-18.579-54.12z"/>
	<path d="M1410.956 340.646c-37.157 0-67.278-10.776-67.278-24.07 0-13.293 30.12-24.07 67.278-24.07 37.157 0 67.277 10.778 67.277 24.07 0 13.293-30.121 24.07-67.277 24.07z" style="fill:#eaf4f7" id="path32"/>
	<path style="fill:#fddcbf;stroke:#ecb072;stroke-width:4px;stroke-linecap:round;stroke-linejoin:round" id="polygon34" transform="translate(767.53 -50.465)" d="m673.948 569.002-9.41-41.516 83.927-36.534 33.155 101.009-135.902 77.232-24.91-70.3z"/>
	<path d="M1510.01 199.216c0-57.8-46.913-104.344-103.76-101.642-50.9 2.42-94.292 45.782-94.292 98.124 0 75.717 99 134.1 99 134.1s99.053-58.383 99.053-130.582z" style="fill:#ee4637" id="path36"/>
	<path d="M1447.115 300.5a44.189 44.189 0 0 1-54.6-.188c-29.3-23.2-71.677-65.323-71.677-114.86a96.3 96.3 0 0 1 19.808-58.17c-17.573 17.746-28.69 41.93-28.69 68.417 0 75.717 99 134.1 99 134.1s40.375-23.8 69.572-59.8a282.957 282.957 0 0 1-33.413 30.5z" style="fill:#cd3c27" id="path38"/>
	<path d="M1406.25 97.574a97.984 97.984 0 0 0-49.9 16.723 96.75 96.75 0 0 1 37.234-9.484c56.847-2.7 103.762 43.84 103.762 101.641 0 56.61-60.894 104.724-87.192 122.863.515.314.8.484.8.484s99.055-58.386 99.055-130.585c0-57.8-46.912-104.344-103.76-101.642z" style="fill:#f07378" id="path40"/>
	<path d="M1410.956 238.14a40.756 40.756 0 1 1 40.755-40.755 40.756 40.756 0 0 1-40.755 40.756z" style="fill:#fff" id="path42"/>
	<path d="M1410.956 238.14a40.756 40.756 0 1 1 40.755-40.755 40.756 40.756 0 0 1-40.755 40.756z" style="fill:none;stroke:#363a5a;stroke-width:6px;stroke-miterlimit:10" id="path44"/>
	<path d="M1510.01 199.216c0-57.8-46.913-104.344-103.76-101.642-50.9 2.42-94.292 45.782-94.292 98.124 0 75.717 99 134.1 99 134.1s99.053-58.383 99.053-130.582z" style="fill:none;stroke:#363a5a;stroke-width:6px;stroke-linecap:round;stroke-linejoin:round" id="path46"/>
	<g id="XMLID_3_" class="st2" style="opacity:.15" transform="translate(1586.25 -126.674)">
		<path id="XMLID_10_" class="st3" d="M813 237v456.9c0 30.3-12.4 54.9-27.8 54.9H543c-15.3 0-27.8-24.6-27.8-54.9V335"/>
		<path id="XMLID_9_" class="st3" d="M203 748.7h662"/>
		<path id="XMLID_18_" class="st3" d="M515.2 454H813"/>
		<path id="XMLID_22_-7" class="st3" d="M515.2 666.9H813"/>
		<path id="XMLID_17_" class="st3" d="M780.1 653.4h-20.3c-6 0-10.9-4.9-10.9-10.9V486.3c0-6 4.9-10.9 10.9-10.9h20.3c6 0 10.9 4.9 10.9 10.9v156.2c0 6-4.9 10.9-10.9 10.9z"/>
		<path id="XMLID_25_-9" class="st3" d="M721 653.4h-20.3c-6 0-10.9-4.9-10.9-10.9V486.3c0-6 4.9-10.9 10.9-10.9H721c6 0 10.9 4.9 10.9 10.9v156.2c0 6-4.8 10.9-10.9 10.9z"/>
		<path id="XMLID_60_" class="st3" d="M780.1 440.4h-20.3c-6 0-10.9-4.9-10.9-10.9V273.3c0-6 4.9-10.9 10.9-10.9h20.3c6 0 10.9 4.9 10.9 10.9v156.2c0 6-4.9 10.9-10.9 10.9z"/>
		<path id="XMLID_58_" class="st3" d="M734 409.1v20.3c0 6-4.9 10.9-10.9 10.9H566.9c-6 0-10.9-4.9-10.9-10.9v-20.3c0-6 4.9-10.9 10.9-10.9h156.2c6 0 10.9 4.9 10.9 10.9z"/>
		<path id="XMLID_61_" class="st3" d="M734 362.3v13.3c0 6-4.9 10.9-10.9 10.9H576.6c-6 0-10.9-4.9-10.9-10.9v-13.3c0-6 4.9-10.9 10.9-10.9h146.5c6 0 10.9 4.9 10.9 10.9z"/>
		<path id="XMLID_34_" class="st3" d="m613 650.6-13.8-5.8c-3.8-1.6-5.7-6-4.1-9.8l50.5-121.2c1.6-3.8 6-5.7 9.8-4.1l13.8 5.8c3.8 1.6 5.7 6 4.1 9.8l-50.5 121.2c-1.6 3.9-6 5.7-9.8 4.1z"/>
		<path id="XMLID_57_" class="st3" d="M147.4 460.7h79.3v38.7h-79.3"/>
		<path id="XMLID_59_" class="st3" d="M306.1 499.4h-79.4"/>
		<path id="XMLID_38_" class="st3" d="M226.7 460.7h30.4"/>
		<path id="XMLID_42_" class="st3" d="M187 499.4h79.3v38.7H187z"/>
		<path id="XMLID_52_-2" class="st3" d="M159.7 538.3h67v38.6H201"/>
		<path id="XMLID_54_-0" class="st3" d="M226.7 538.3H306V577h-79.3z"/>
		<path id="XMLID_23_" class="st3" d="M311.6 315.8h123.1v99.8H311.6z"/>
		<path id="XMLID_62_" class="st3" d="m328.6 392.5 22.6-32.7 23.3 28.9"/>
		<path id="XMLID_64_" class="st3" d="m365.9 378.1 31.5-30.6 22.4 45"/>
		<path id="XMLID_63_" class="st3" d="M357.7 367.9c1.6-4.7 6-8.1 11.2-8.1 4.3 0 8.1 2.3 10.2 5.8"/>
	</g>
	<path id="XMLID_16_" class="st4" d="m2058.65 495.426 4.4-9 9.6 2.7 4.4-9 9.7 2.7 4.4-9 9.7 2.7 4.4-9 9.7 2.7 4.4-9 9.7 2.7 4.4-9 9.7 2.7 4.4-9 9.7 2.7 4.4-9 9.7 2.7 4.4-9 9.7 2.7 4.4-9 9.7 2.7 4.4-9-5.8-7.8c-7.1-9.6-19.9-13-30.8-8.1l-127.8 57.6z" style="fill:#d2dde1"/>
	<path id="XMLID_5_" class="st3" d="m2058.65 495.426 4.4-9 9.6 2.7 4.4-9 9.7 2.7 4.4-9 9.7 2.7 4.4-9 9.7 2.7 4.4-9 9.7 2.7 4.4-9 9.7 2.7 4.4-9 9.7 2.7 4.4-9 9.7 2.7 4.4-9 9.7 2.7 4.4-9 9.7 2.7 4.4-9-5.8-7.8c-7.1-9.6-19.9-13-30.8-8.1l-127.8 57.6z" style="fill:none;stroke:#474747;stroke-width:6;stroke-linecap:round;stroke-linejoin:round;stroke-miterlimit:10"/>
	<path id="XMLID_11_" class="st5" d="m1996.15 530.226-74.7 15-62.1-309.9c41.9 11.4 74.4 44.4 85.4 86.4z" style="fill:#baced3"/>
	<path id="XMLID_13_" class="st4" d="M2035.15 455.026c-11.2 10.6-20.9 4.1-20.7-4.8.4-14.3 7.9-29.3 15.9-40.7 4.7-6.8 16.8-19 23.5-13.7l16.4-72.2-26.2-34.2-4.8 8.2c-11.5 19.8-21.7 40.2-30.6 61.3-9 21.2-16.3 43-22.3 65.3l-27 100.8 47.2 15.2s15.6-16.7 20.2-27.1c12.6-28.6 18.7-54.3 18.7-54.3z" style="fill:#d2dde1"/>
	<path id="XMLID_7_" class="st3" d="M2035.15 455.026c-11.2 10.6-20.9 4.1-20.7-4.8.4-14.3 7.9-29.3 15.9-40.7 4.7-6.8 16.1-16.3 23.5-13.7l16.4-72.2-26.2-34.2-4.8 8.2c-11.5 19.8-21.7 40.2-30.6 61.3-9 21.2-16.3 43-22.3 65.3l-27 100.8 47.2 15.2s15.6-16.7 20.2-27.1c12.6-28.6 18.7-54.3 18.7-54.3z" style="fill:none;stroke:#474747;stroke-width:6;stroke-linecap:round;stroke-linejoin:round;stroke-miterlimit:10"/>
	<path id="XMLID_12_" class="st6" d="m1880.65 243.326 65.7 296.9 49.7-10-51.4-208.6c-8.9-34.5-32.6-62.9-64-78.3z" style="fill:#e7eff1"/>
	<path id="XMLID_4_-2" class="st3" d="m1996.15 530.226-74.7 15-62.1-309.9v0c41.9 11.4 74.4 44.4 85.4 86.4z" style="fill:none;stroke:#474747;stroke-width:6;stroke-linecap:round;stroke-linejoin:round;stroke-miterlimit:10"/>
	<path id="XMLID_15_" class="st7" d="m2032.05 475.126 14.3-.5c3-.1 4.9-2.3 4.5-5.3l-2-14.2 14.3-.5c3-.1 4.9-2.3 4.5-5.3l-2-14.2 14.3-.5c3-.1 4.9-2.3 4.5-5.3l-2-14.2 14.3-.5c3-.1 4.9-2.3 4.5-5.3l-2-14.2 14.3-.5c3-.1 4.9-2.3 4.5-5.3l-2-14.2 15.6-1.5c3.4-.3 5.1-3.4 3.7-6.9l-13.4-33.5-3.6 26.8-13.8.5c-3.3.1-5.4 2.6-4.9 5.8l1.9 13.7-13.8.5c-3.3.1-5.4 2.6-4.9 5.8l1.9 13.7-13.8.5c-3.3.1-5.4 2.6-4.9 5.8l1.9 13.7-13.8.5c-3.3.1-5.4 2.6-4.9 5.8l1.9 13.7-13.8.5c-3.3.1-5.4 2.6-4.9 5.8l1.9 13.7-19.5.7-18.7 22.3 23.4 19.6z" style="fill:#bcc6c9"/>
	<path id="XMLID_6_-3" class="st3" d="m2032.05 475.126 14.3-.5c3-.1 4.9-2.3 4.5-5.3l-2-14.2 14.3-.5c3-.1 4.9-2.3 4.5-5.3l-2-14.2 14.3-.5c3-.1 4.9-2.3 4.5-5.3l-2-14.2 14.3-.5c3-.1 4.9-2.3 4.5-5.3l-2-14.2 14.3-.5c3-.1 4.9-2.3 4.5-5.3l-2-14.2 15.6-1.5c3.4-.3 5.1-3.4 3.7-6.9l-13.4-33.5-3.6 26.8-13.8.5c-3.3.1-5.4 2.6-4.9 5.8l1.9 13.7-13.8.5c-3.3.1-5.4 2.6-4.9 5.8l1.9 13.7-13.8.5c-3.3.1-5.4 2.6-4.9 5.8l1.9 13.7-13.8.5c-3.3.1-5.4 2.6-4.9 5.8l1.9 13.7-13.8.5c-3.3.1-5.4 2.6-4.9 5.8l1.9 13.7-19.5.7-18.7 22.3 23.4 19.6z" style="fill:none;stroke:#474747;stroke-width:6;stroke-linecap:round;stroke-linejoin:round;stroke-miterlimit:10"/>
	<path id="XMLID_8_" class="st8" d="M2243.15 622.026h-260c-38.7 0-70-31.3-70-70s31.3-70 70-70h260c38.7 0 70 31.3 70 70s-31.3 70-70 70z" style="fill:#9acf8d"/>
	<path id="XMLID_47_" class="st9" d="M2243.15 606.026h-260c-35.9 0-65.5-27.1-69.5-62-.3 2.6-.5 5.3-.5 8 0 38.7 31.3 70 70 70h260c38.7 0 70-31.3 70-70 0-2.7-.2-5.4-.5-8-3.9 34.9-33.5 62-69.5 62z" style="fill:#85b578"/>
	<path id="XMLID_46_" class="st10" d="M2243.15 482.026h-260c-38.7 0-70 31.3-70 70 0 2.5.1 5.1.4 7.5 3.8-35.1 33.5-62.5 69.6-62.5h260c36.1 0 65.8 27.4 69.6 62.5.3-2.5.4-5 .4-7.5 0-38.6-31.3-70-70-70z" style="fill:#bfe8b3"/>
	<path id="XMLID_1_-7" class="st3" d="M2243.15 622.026h-260c-38.7 0-70-31.3-70-70v0c0-38.7 31.3-70 70-70h260c38.7 0 70 31.3 70 70v0c0 38.7-31.3 70-70 70z" style="fill:none;stroke:#474747;stroke-width:6;stroke-linecap:round;stroke-linejoin:round;stroke-miterlimit:10"/>
	<path id="XMLID_14_" class="st11" style="fill:none;stroke:#474747;stroke-width:3;stroke-linecap:round;stroke-linejoin:round;stroke-miterlimit:10" d="m1942.049 475.026 30.801-8.5"/>
	<circle id="XMLID_21_" class="st4" cx="1987.449" cy="552.026" r="25.2" style="fill:#d2dde1"/>
	<path id="XMLID_36_" class="st12" d="M1967.05 588.926c-13-7.2-21.8-21-21.8-36.9 0-9.4 3.1-18.1 8.4-25.2" style="opacity:.2;fill:none;stroke:#474747;stroke-width:6;stroke-linecap:round;stroke-linejoin:round;stroke-miterlimit:10;enable-background:new"/>
	<circle id="XMLID_19_" class="st3" cx="1987.449" cy="552.026" r="25.2" style="fill:none;stroke:#474747;stroke-width:6;stroke-linecap:round;stroke-linejoin:round;stroke-miterlimit:10"/>
	<path id="XMLID_32_" class="st11" d="M2022.15 362.126s-15.3 38.7-19.6 60" style="fill:none;stroke:#474747;stroke-width:3;stroke-linecap:round;stroke-linejoin:round;stroke-miterlimit:10"/>
	<path id="XMLID_27_-5" class="st3" style="fill:none;stroke:#474747;stroke-width:6;stroke-linecap:round;stroke-linejoin:round;stroke-miterlimit:10" d="M1987.449 536.026v32.1"/>
	<path id="XMLID_24_-9" class="st3" style="fill:none;stroke:#474747;stroke-width:6;stroke-linecap:round;stroke-linejoin:round;stroke-miterlimit:10" d="M2003.449 552.026h-32.099"/>
	<path id="XMLID_30_-2" class="st11" style="fill:none;stroke:#474747;stroke-width:3;stroke-linecap:round;stroke-linejoin:round;stroke-miterlimit:10" d="m1918.649 414.826 10.1 45.7"/>
	<path id="XMLID_20_-2" class="st11" style="fill:none;stroke:#474747;stroke-width:3;stroke-linecap:round;stroke-linejoin:round;stroke-miterlimit:10" d="m1886.449 269.226 28.401 128.4"/>
	<style type="text/css" id="style2">
		.st1{fill:#330e00}.st2{opacity:.3}.st3{fill:#2d2d2d;stroke:#2d2d2d;stroke-width:8;stroke-linecap:round;stroke-linejoin:round;stroke-miterlimit:10}.st4,.st5,.st6{fill:#00b3c6}.st5{opacity:.5}.st6{opacity:.35}.st7{fill:none;stroke:#330e00;stroke-width:8;stroke-linecap:round;stroke-linejoin:round;stroke-miterlimit:10}.st8,.st9{fill:#565656}.st9{opacity:.27}.st10{fill:#ff1f1f}.st11,.st12{fill:#fdd2a7}.st12{opacity:.5}.st13{fill:#3babff}.st14{opacity:.3;fill:#2d2d2d;stroke:#2d2d2d;stroke-width:8;stroke-linecap:round;stroke-linejoin:round;stroke-miterlimit:10}.st15{fill:#fff}
	</style>
	<g id="g2249" transform="matrix(1.24837 0 0 1.33894 -388.708 -253.954)">
		<g id="XMLID_96_" class="st2">
			<path id="XMLID_77_" class="st3" d="M430.3 388.8h42v246.5h-42z"/>
			<path id="XMLID_76_" class="st3" d="M424.7 635.2H478v30h-53.3z"/>
			<path id="XMLID_75_" class="st3" d="M463.7 691H439c-4.8 0-8.7-3.9-8.7-8.7v-17.2h42v17.2c0 4.8-3.8 8.7-8.6 8.7z"/>
			<path id="XMLID_73_" class="st3" d="m451.3 322.3 21 66.5h-42z"/>
		</g>
		<g id="XMLID_89_" class="st2">
			<path id="XMLID_95_" class="st3" d="M564.9 482.5h37.3v212h-37.3z"/>
			<path id="XMLID_94_" class="st3" d="M559.6 339.5h48v143h-48z"/>
			<path id="XMLID_93_" class="st3" d="M602.2 339.5h-37.3v-2.3c0-10.3 8.4-18.7 18.7-18.7v0c10.3 0 18.7 8.4 18.7 18.7v2.3z"/>
			<path id="XMLID_92_" class="st3" d="M545.7 361.9v89.3"/>
			<path id="XMLID_91_" class="st3" d="M559.6 376.3h-13.9"/>
			<path id="XMLID_90_" class="st3" d="M597.8 694.5c0 7.9-6.4 14.3-14.3 14.3s-14.3-6.4-14.3-14.3z"/>
		</g>
		<g id="XMLID_65_">
			<path id="XMLID_66_" class="st4" d="M555.9 472.5h37.3v212h-37.3z"/>
			<path id="XMLID_105_" class="st5" d="M579.7 472.5h13.6v212h-13.6z"/>
			<path id="XMLID_101_" class="st6" d="M555.9 472.5h13.4v212h-13.4z"/>
			<path id="XMLID_26_" class="st7" d="M555.9 472.5h37.3v212h-37.3z"/>
			<path id="XMLID_67_" class="st8" d="M550.6 329.5h48v143h-48z"/>
			<path id="XMLID_100_" class="st9" d="M550.6 329.5h14.3v143h-14.3z"/>
			<path id="XMLID_102_" class="st9" d="M583.6 329.5h14.3v143h-14.3z"/>
			<path id="XMLID_27_" class="st7" d="M550.6 329.5h48v143h-48z"/>
			<path id="XMLID_68_" class="st4" d="M593.2 329.5h-37.3v-2.3c0-10.3 8.4-18.7 18.7-18.7 10.3 0 18.7 8.4 18.7 18.7v2.3z"/>
			<path id="XMLID_29_" class="st7" d="M593.2 329.5h-37.3v-2.3c0-10.3 8.4-18.7 18.7-18.7v0c10.3 0 18.7 8.4 18.7 18.7v2.3z"/>
			<path id="XMLID_31_" class="st7" d="M536.7 351.9v89.3"/>
			<path id="XMLID_32_-1" class="st7" d="M550.6 366.3h-13.9"/>
			<path id="XMLID_72_" class="st8" d="M588.8 684.5c0 7.9-6.4 14.3-14.3 14.3s-14.3-6.4-14.3-14.3z"/>
			<path id="XMLID_74_" class="st7" d="M588.8 684.5c0 7.9-6.4 14.3-14.3 14.3s-14.3-6.4-14.3-14.3z"/>
		</g>
		<g id="XMLID_47_-0">
			<path id="XMLID_48_" class="st10" d="M419.3 376.8h42v246.5h-42z"/>
			<path id="XMLID_28_" class="st7" d="M419.3 376.8h42v246.5h-42z"/>
			<path id="XMLID_38_-6" class="st7" d="M433 376.8h14.6v246.5H433z"/>
			<path id="XMLID_50_" class="st11" d="M413.7 623.2H467v30h-53.3z"/>
			<path id="XMLID_107_" class="st12" d="M451.3 623.2H467v30h-15.7z"/>
			<path id="XMLID_106_" class="st11" d="M413.7 623.2H428v30h-14.3z"/>
			<path id="XMLID_39_" class="st7" d="M413.7 623.2H467v30h-53.3z"/>
			<path id="XMLID_49_" class="st13" d="M452.7 679H428c-4.8 0-8.7-3.9-8.7-8.7v-17.2h42v17.2c0 4.8-3.8 8.7-8.6 8.7z"/>
			<path id="XMLID_40_" class="st7" d="M452.7 679H428c-4.8 0-8.7-3.9-8.7-8.7v-17.2h42v17.2c0 4.8-3.8 8.7-8.6 8.7z"/>
			<path id="XMLID_51_" class="st11" d="m440.3 310.3 21 66.5h-42z"/>
			<path id="XMLID_41_" class="st7" d="m440.3 310.3 21 66.5h-42z"/>
			<path id="XMLID_45_" class="st1" d="m449.2 338.5-8.9-28.2-8.9 28.2z"/>
		</g>
		<path id="XMLID_69_" style="fill:none;stroke:#330e00;stroke-width:6;stroke-linecap:round;stroke-linejoin:round;stroke-miterlimit:10" d="M569.7 585.5v80.8"/>
		<g id="XMLID_84_">
			<path id="XMLID_83_" class="st7" d="M555.9 472.5h37.3v212h-37.3z"/>
			<path id="XMLID_82_" class="st7" d="M550.6 329.5h48v143h-48z"/>
			<path id="XMLID_81_" class="st7" d="M593.2 329.5h-37.3v-2.3c0-10.3 8.4-18.7 18.7-18.7v0c10.3 0 18.7 8.4 18.7 18.7v2.3z"/>
			<path id="XMLID_80_" class="st7" d="M536.7 351.9v89.3"/>
			<path id="XMLID_79_" class="st7" d="M550.6 366.3h-13.9"/>
			<path id="XMLID_78_" class="st7" d="M588.8 684.5c0 7.9-6.4 14.3-14.3 14.3s-14.3-6.4-14.3-14.3z"/>
		</g>
		<g id="g297">
			<g id="XMLID_88_" class="st2">
				<path id="XMLID_85_" class="st3" d="m723 681.4-48.5-35.3c-8-5.8-9.8-17.1-4-25.1l159.9-220.1c5.8-8 17.1-9.8 25.1-4l48.5 35.3c8 5.8 9.8 17.1 4 25.1L748.1 677.4c-5.8 8-17.1 9.8-25.1 4z"/>
				<path id="XMLID_86_" class="st3" d="M745.1 653.6h-60c-9.9 0-18-8.1-18-18v-272c0-9.9 8.1-18 18-18h60c9.9 0 18 8.1 18 18v272c0 10-8 18-18 18z"/>
				<path id="XMLID_87_" class="st3" d="m737.8 668.8-57.7-16.5c-9.6-2.7-15.1-12.7-12.3-22.3l75-261.5c2.7-9.6 12.7-15.1 22.3-12.3l57.7 16.5c9.6 2.7 15.1 12.7 12.3 22.3l-75 261.5c-2.8 9.5-12.7 15-22.3 12.3z"/>
			</g>
			<g id="XMLID_35_">
				<g id="XMLID_18_-3">
					<path id="XMLID_52_" class="st15" d="m718 665.4-48.5-35.3c-8-5.8-9.8-17.1-4-25.1l159.9-220.1c5.8-8 17.1-9.8 25.1-4l48.5 35.3c8 5.8 9.8 17.1 4 25.1L743.1 661.4c-5.8 8-17.1 9.8-25.1 4z"/>
					<path id="XMLID_24_" class="st7" d="m718 665.4-48.5-35.3c-8-5.8-9.8-17.1-4-25.1l159.9-220.1c5.8-8 17.1-9.8 25.1-4l48.5 35.3c8 5.8 9.8 17.1 4 25.1L743.1 661.4c-5.8 8-17.1 9.8-25.1 4z"/>
					<path id="XMLID_23_-2" class="st7" d="m797.2 586.9-77.7-56.4 105.8-145.6c5.8-8 17.1-9.8 25.1-4l48.5 35.3c8 5.8 9.8 17.1 4 25.1z"/>
					<path id="XMLID_62_-0" d="m874.8 480.2-77.7-56.4 28.2-38.8c5.8-8 17.1-9.8 25.1-4l48.5 35.3c8 5.8 9.8 17.1 4 25.1z" style="fill:#8c6239"/>
					<path id="XMLID_22_" class="st7" d="m874.8 480.2-77.7-56.4 28.2-38.8c5.8-8 17.1-9.8 25.1-4l48.5 35.3c8 5.8 9.8 17.1 4 25.1z"/>
					<path id="XMLID_60_-6" transform="rotate(36.002 777.733 532.006)" style="fill:#42210b" d="M729.7 499h96v66h-96z"/>
					<path id="XMLID_61_-1" transform="rotate(36.002 816.524 478.612)" style="fill:#603813" d="M768.5 445.6h96v66h-96z"/>
					<path id="XMLID_21_-5" transform="rotate(36.002 816.524 478.612)" class="st7" d="M768.5 445.6h96v66h-96z"/>
					<path id="XMLID_20_" transform="rotate(36.002 777.733 532.006)" class="st7" d="M729.7 499h96v66h-96z"/>
					<circle id="XMLID_19_-5" class="st7" cx="687.3" cy="614.6" r="8"/>
				</g>
				<path id="XMLID_112_" class="st14" d="M824.7 360.7 767 344.2c-9.6-2.7-19.5 2.8-22.3 12.3l-75 261.5c-2.7 9.6 2.8 19.5 12.3 22.3l52.6-3c.5.1 4.9.3 5.4.4h4.8l7.7-.8c8.2-.9 15-6.6 17.2-14.6L837.1 383c2.7-9.6-2.8-19.5-12.4-22.3z"/>
				<g id="XMLID_11_-4">
					<path id="XMLID_53_" class="st15" d="m732.8 652.8-57.7-16.5c-9.6-2.7-15.1-12.7-12.3-22.3l75-261.5c2.7-9.6 12.7-15.1 22.3-12.3l57.7 16.5c9.6 2.7 15.1 12.7 12.3 22.3l-75 261.5c-2.8 9.5-12.7 15-22.3 12.3z"/>
					<path id="XMLID_17_-7" class="st7" d="m732.8 652.8-57.7-16.5c-9.6-2.7-15.1-12.7-12.3-22.3l75-261.5c2.7-9.6 12.7-15.1 22.3-12.3l57.7 16.5c9.6 2.7 15.1 12.7 12.3 22.3l-75 261.5c-2.8 9.5-12.7 15-22.3 12.3z"/>
					<path id="XMLID_15_-6" d="m816.8 425.1-92.3-26.5 13.2-46.1c2.7-9.6 12.7-15.1 22.3-12.3l57.7 16.5c9.6 2.7 15.1 12.7 12.3 22.3z" style="fill:#bd3f3a"/>
					<path id="XMLID_16_-5" class="st7" d="m780.4 552-92.3-26.5 49.6-173c2.7-9.6 12.7-15.1 22.3-12.3l57.7 16.5c9.6 2.7 15.1 12.7 12.3 22.3z"/>
					<path id="XMLID_64_-6" transform="rotate(15.997 761.684 443.708)" style="fill:#a33500" d="M713.6 410.6h96v66h-96z"/>
					<path id="XMLID_14_-9" transform="rotate(15.997 761.684 443.708)" class="st7" d="M713.6 410.6h96v66h-96z"/>
					<path id="XMLID_63_-3" transform="rotate(15.997 743.488 507.16)" style="fill:#6d2300" d="M695.4 474.1h96v66h-96z"/>
					<path id="XMLID_13_-7" transform="rotate(15.997 743.488 507.16)" class="st7" d="M695.4 474.1h96v66h-96z"/>
					<circle id="XMLID_12_-4" class="st7" cx="686.6" cy="615.6" r="8"/>
				</g>
				<path id="XMLID_108_" class="st14" d="M748.1 641.6h-60c-9.9 0-18-8.1-18-18v-272c0-9.9 8.1-18 18-18h60c9.9 0 18 8.1 18 18v272c0 10-8 18-18 18z"/>
				<g id="XMLID_9_-5">
					<path id="XMLID_54_" class="st15" d="M740.1 637.6h-60c-9.9 0-18-8.1-18-18v-272c0-9.9 8.1-18 18-18h60c9.9 0 18 8.1 18 18v272c0 10-8 18-18 18z"/>
					<path id="XMLID_1_" class="st7" d="M740.1 637.6h-60c-9.9 0-18-8.1-18-18v-272c0-9.9 8.1-18 18-18h60c9.9 0 18 8.1 18 18v272c0 10-8 18-18 18z"/>
					<path id="XMLID_4_" class="st7" d="M758.1 527.6h-96v-180c0-9.9 8.1-18 18-18h60c9.9 0 18 8.1 18 18z"/>
					<path id="XMLID_59_-2" d="M758.1 395.6h-96v-48c0-9.9 8.1-18 18-18h60c9.9 0 18 8.1 18 18z" style="fill:#f99"/>
					<path id="XMLID_5_-5" class="st7" d="M758.1 395.6h-96v-48c0-9.9 8.1-18 18-18h60c9.9 0 18 8.1 18 18z"/>
					<path id="XMLID_58_-4" style="fill:red" d="M662.1 395.6h96v66h-96z"/>
					<path id="XMLID_7_-7" style="fill:#f33;stroke:#330e00;stroke-width:8;stroke-linecap:round;stroke-linejoin:round;stroke-miterlimit:10" d="M662.1 395.6h96v66h-96z"/>
					<path id="XMLID_56_" style="fill:#bf0000" d="M662.1 461.6h96v66h-96z"/>
					<path id="XMLID_8_-4" class="st7" d="M662.1 461.6h96v66h-96z"/>
					<circle id="XMLID_6_-4" class="st7" cx="685.5" cy="614.6" r="8"/>
					<g id="g287">
						<path class="st1" d="M676.3 544.2h-1.7v2.9h-.8v-6.8h2.5c2 0 2.8.8 2.8 2 0 1.1-.8 1.9-2.8 1.9zm0-.6c1.4 0 2-.5 2-1.4 0-.9-.6-1.4-2-1.4h-1.7v2.8z" id="path273"/>
						<path class="st1" d="M685.6 545.5h-3.8l-.7 1.6h-.9l3.1-6.7h1l3.1 6.7h-.9zm-1.9-4.2L682 545h3.3z" id="path275"/>
						<path class="st1" d="M695.1 540.3v6.8h-.8l-4.7-5.7v5.7h-.8v-6.8h.8l4.7 5.7v-5.7z" id="path277"/>
						<path class="st1" d="M696.6 540.3h5.5v.6h-2.3v6.2h-.8v-6.2h-2.4z" id="path279"/>
						<path class="st1" d="M707.4 547.2c-2.4 0-4.2-1.4-4.2-3.5 0-2 1.8-3.5 4.2-3.5 2.4 0 4.2 1.4 4.2 3.5s-1.8 3.5-4.2 3.5zm0-.6c1.9 0 3.3-1.1 3.3-2.9 0-1.8-1.4-2.9-3.3-2.9s-3.3 1.1-3.3 2.9c0 1.8 1.5 2.9 3.3 2.9z" id="path281"/>
						<path class="st1" d="M719.7 540.3v6.8h-.8l-4.7-5.7v5.7h-.8v-6.8h.8l4.7 5.7v-5.7z" id="path283"/>
						<path class="st1" d="M726.2 540.9h-3.6v2.5h3.2v.6h-3.2v2.6h3.6v.6h-4.4v-6.8h4.4z" id="path285"/>
					</g>
					<g id="g293">
						<path class="st1" d="M728.4 540.2h1.6v.2h-.6v2h-.4v-2h-.6z" id="path289"/>
						<path class="st1" d="M730.4 540.2h.3l.8 1.8.8-1.8h.3v2.2h-.3v-1.7l-.8 1.7h-.2l-.8-1.7v1.7h-.3v-2.2z" id="path291"/>
					</g>
				</g>
			</g>
		</g>
	</g>
</svg>
