<svg xmlns="http://www.w3.org/2000/svg" viewBox="0 0 1000 1000"><title>107-healthy</title><rect width="1000" height="1000" style="fill:#f9f9f7"/><path d="M420.925,937.592a2.267,2.267,0,0,0,2.421-2.334,2.071,2.071,0,0,0-2.29-2.2,2.2,2.2,0,0,0-2.421,2.139v.064A2.277,2.277,0,0,0,420.925,937.592Z" transform="translate(0 0)" style="fill:#ff7d00"/><path d="M476.412,941.87c-.13-.778,1.178-.908,1.047-1.556-.131-.907-.916-.907-1.439-.843-2.945.325-3.534,1.3-3.795,3.176a4.023,4.023,0,0,0,1.308,2.917,21.625,21.625,0,0,1-.523,4.407.925.925,0,0,0-.524.583,56.18,56.18,0,0,1-1.766,6.287,3.239,3.239,0,0,0-.655,1.232v.324c-.654,1.231-1.374,2.138-2.224,2.138-.393,0-.524-1.037-.524-2.4,0-2.4,1.243-9.073,1.243-10.5,0-1.88.328-3.5.328-5.056,0-.648-.459-.842-1.047-.842-.458,0-.72.324-1.178.324-1.9,0-2.16,1.037-2.16,2.592,0,.649,0,9.852-.13,11.018-.131,1.945-1.244,4.343-3.337,4.343-1.9,0-2.814-2.593-2.814-5.38a31.409,31.409,0,0,1,.785-6.8c.2-.648,1.047-3.629,1.047-4.018,0-.713-.065-.907-.851-.907-3.01.064-3.6.324-4.056,1.944a36.319,36.319,0,0,0-.982,8.037v.842c-.72,2.2-1.5,4.667-3.533,4.8-1.375.065-1.833-3.37-1.833-6.935,0-7.064,2.029-13.934,2.291-21,.065-.648-.393-1.1-1.178-1.1a9.691,9.691,0,0,1-1.832.065c-.785,0-1.113.324-1.178,1.1-.654,7.065-2.094,15.685-2.094,22.555v.129c-.72,2.269-1.5,5.185-3.664,5.315-1.374.065-1.832-3.37-1.832-6.935,0-7.065,2.028-13.935,2.29-21,.065-.648-.393-1.1-1.178-1.1-1.047,0-1.374-.065-1.9-.065-.785,0-1.112.324-1.177,1.1-.655,7.065-2.094,15.685-2.094,22.555v.129c-.72,2.269-1.5,5.185-3.664,5.315-1.375.065-1.833-3.37-1.833-6.935,0-7.065,2.029-13.935,2.291-21,.065-.648-.393-1.1-1.178-1.1-1.113,0-1.44-.065-1.963-.065-.785,0-1.113.324-1.178,1.1-.654,7.065-2.094,15.685-2.094,22.555v1.037c-.654,2.268-1.636,4.731-2.879,4.731-.589-.065-1.047-.907-1.047-2.852,0-3.564.327-8.49.654-12.249.066-.454-.13-.908-.654-.908-.458-.064-1.9-.194-2.421-.194-.785,0-1.112.454-1.112,1.3v1.3c.065,4.343-.393,7.778-.393,11.861,0,2.917,1.57,4.926,3.533,4.926,2.094,0,3.73-1.75,4.843-3.824.588,2.2,1.7,4.148,3.926,4.148,2.093,0,4.122-2.269,5.5-4.8.523,2.463,1.636,4.8,4.057,4.8,2.094,0,4.122-2.269,5.5-4.8.524,2.463,1.636,4.8,4.057,4.8,2.029,0,4.057-2.2,5.431-4.6.72,2.917,2.356,5.12,5.431,5.12,2.552,0,3.272-1.037,4.908-3.37.523,1.3.719,3.759,2.224,3.759,2.094,0,3.861-2.4,5.039-5.12a8.291,8.291,0,0,0,6.543,3.629c3.533,0,6.543-2.527,6.282-6.351C484.722,950.36,477,944.786,476.412,941.87Zm.916,17.434c-1.046,0-2.682-.648-2.748-2.009-.065-.778,1.767-1.167,2.421-1.556.524-.324.655-.583.655-.777-.066-.454-.72-.778-1.44-.778a4.5,4.5,0,0,0-2.421.842c.2-.907,1.57-5.573,1.9-7.842a14.918,14.918,0,0,1,5.169,9.333C481.058,959.045,478.179,959.3,477.328,959.3Z" transform="translate(0 0)" style="fill:#ff7d00"/><path d="M535.957,937.592a2.267,2.267,0,0,0,2.421-2.334,2.071,2.071,0,0,0-2.29-2.2,2.2,2.2,0,0,0-2.421,2.139v.064A2.277,2.277,0,0,0,535.957,937.592Z" transform="translate(0 0)" style="fill:#ff7d00"/><path d="M573.777,963.128c-1.178-.778-2.028-2.009-1.832-7.065.131-3.24.785-7.712.785-10.888,0-1.426-.654-3.046-2.486-3.046-2.29,0-5.628,4.666-6.675,6.74.131-1.231.524-4.861.589-6.092s.066-1.3-2.094-1.3c-1.439,0-1.569.259-1.569.777,0,2.982-.263,6.417-.524,9.852-.786,1.685-1.833,3.37-3.338,3.37a3.006,3.006,0,0,1-1.308-.324,9.938,9.938,0,0,0,1.113-4.342,3.117,3.117,0,0,0-3.141-3.241,3.709,3.709,0,0,0-3.861,4.018c0,1.815,1.9,3.889,3.337,4.861a4.97,4.97,0,0,1-4.515,2.722c-2.813,0-3.8-5.12-3.8-7,0-3.63,1.309-7.713,5.627-7.713,2.945,0,2.945,1.944,4.188,1.944.131,0,.524-.194.524-.388,0-2.139-3.4-3.889-5.17-3.889-6.02,0-10.207,4.731-10.207,10.629a11.3,11.3,0,0,0,.589,3.565c-.589,1.49-1.309,2.657-2.225,2.657-.589,0-1.047-.843-1.047-2.787,0-3.565.327-8.49.654-12.249.066-.454-.131-.908-.654-.908-.458-.065-1.9-.194-2.421-.194-.785,0-1.113.453-1.113,1.3v1.3c0,2.269-.13,4.213-.2,6.157a1.432,1.432,0,0,0-.2.324c-.72,1.945-1.636,7.324-3.8,7.324-.655,0-2.029-.907-2.029-3.435,0-4.083,1.374-12.249,1.571-13.675,2.093-.454,3.926-.324,6.412-1.037,1.113-.324.458-1.62-.785-1.491a34.906,34.906,0,0,1-5.431,0c.065-2.139.589-3.5.589-5.7v-.2c0-.583-.262-1.037-.851-1.037-1.178,0-3.01.389-3.01,2.009,0,1.686-.326,3.176-.262,4.861-1.177.065-2.224-.259-3.4-.259-.85,0-1.047,1.556-1.047,2.139,0,.648.066,1.1.458,1.1a30.272,30.272,0,0,0,3.73-.324c-.327,4.277-.85,6.675-1.178,9.657,0,.194-.066.453-.066.713-.719,2.268-2.093,5.768-3.205,5.768A1.464,1.464,0,0,1,519.4,957.1,42.575,42.575,0,0,1,520.58,946.8a11.062,11.062,0,0,0,.654-2.527c0-.843-1.374-1.3-2.093-1.3-1.178,0-1.113.648-1.571,1.685-.851-.648-1.047-1.814-3.337-1.814-4.188,0-6.74,6.74-6.74,10.953,0,.713-.065,1.1-.065,1.491,0,2.4-1.374,5.379-2.814,5.379-1.243,0-1.636-3.37-1.636-4.8a31.6,31.6,0,0,1,1.7-8.426,6.148,6.148,0,0,0,.916-2.268c0-.907-1.047-2.4-2.094-2.4-1.178,0-1.9.648-3.141.648-1.963,0-3.272-1.231-4.384-1.231a1.026,1.026,0,0,0-1.113,1.1c0,1.75,1.9,1.426,1.44,3.63-.458,2.074-1.832,7.713-2.617,9.851a.48.48,0,0,0-.066.324,1.892,1.892,0,0,0,.132.649c-.459.777-.982,1.3-1.637,1.3s-2.028-.908-2.028-3.435c0-4.083,1.374-12.25,1.571-13.676,2.094-.453,3.925-.324,6.412-1.037,1.112-.324.458-1.62-.786-1.49a35.035,35.035,0,0,1-5.431,0c.066-2.139.589-3.5.589-5.7,0-.583-.261-1.037-.85-1.037-1.178,0-3.01.389-3.01,2.009,0,1.686-.327,3.176-.262,4.861-1.177.065-2.224-.259-3.4-.259-.851,0-1.047,1.556-1.047,2.139,0,.648.065,1.1.458,1.1a30.272,30.272,0,0,0,3.73-.324c-.327,4.277-.851,6.675-1.178,9.657a53.122,53.122,0,0,0-.458,5.573c0,2.787,2.42,5.056,4.449,5.056,3.6,0,6.543-7.259,6.543-10.24v-.389c.393-1.75.655-3.5.982-4.991.065-.194.262-.778.785-.778,1.178,0,1.309.843,1.309,1.75,0,2.4-.851,6.676-.851,9.2,0,2.462.654,5.509,3.534,5.509a6.357,6.357,0,0,0,5.5-3.63c.785,1.88,2.094,3.37,3.926,3.37,1.767,0,3.272-1.3,4.319-2.527.262.648.654,2.4,2.552,2.4,1.766,0,3.141-1.491,4.188-3.371a4.919,4.919,0,0,0,4.252,3.76c2.029,0,3.926-2.4,5.1-4.991.131,2.722,1.636,4.537,3.534,4.537,1.963,0,3.6-1.556,4.711-3.5a6.643,6.643,0,0,0,5.758,3.37c3.6,0,5.758-2.333,7.655-5.12a9.921,9.921,0,0,0,1.833.324,4.887,4.887,0,0,0,3.468-2.009c-.131,2.074-.262,4.083-.262,5.9,0,.648.131.907.589,1.037a5.742,5.742,0,0,0,1.832.065c.654,0,.785.065.916-.778.065-.583.458-7.518.458-8.037,0-1.426,3.468-7.453,5.169-7.453.328,0,.589.583.589.972,0,3.111-.981,8.166-.981,11.407,0,3.435,1.7,4.6,2.421,4.991a6.445,6.445,0,0,0,2.813.713C573.777,963.776,574.235,963.387,573.777,963.128Zm-57.45-6.611c-.066.907-1.7,3.241-2.945,3.241-1.374,0-1.963-3.889-1.9-6.481.065-3.047,1.57-8.491,3.01-8.491,1.9,0,2.159,4.537,2.159,5.963C516.654,952.369,516.458,954.9,516.327,956.517Zm37.559-2.139a4.186,4.186,0,0,1-1.374-3.111c0-.583.2-1.879,1.047-1.879.785,0,1.046,1.426,1.046,2.009A11.079,11.079,0,0,1,553.886,954.378Z" transform="translate(0 0)" style="fill:#ff7d00"/><path d="M588.826,955.48c-.327-5.12-8.114-10.694-8.637-13.611-.13-.777,1.178-.907,1.047-1.555-.13-.907-.916-.907-1.44-.843-2.944.324-3.533,1.3-3.794,3.176a4.027,4.027,0,0,0,1.308,2.917c.066,2.268-1.177,8.555-2.617,11.018a5.056,5.056,0,0,0-.851,1.491c-.131.777.458,1.166.982.648.458-.389.392-.648.85-.973,1.047,2.4,4.319,4.084,6.806,4.084C586.079,961.832,589.023,959.3,588.826,955.48Zm-7.72,3.824c-1.047,0-2.683-.648-2.749-2.009-.065-.778,1.767-1.167,2.421-1.556.523-.324.655-.583.655-.777-.066-.454-.721-.778-1.44-.778a4.5,4.5,0,0,0-2.421.842c.2-.907,1.571-5.574,1.9-7.842a14.907,14.907,0,0,1,5.168,9.333C584.835,959.045,581.956,959.3,581.106,959.3Z" transform="translate(0 0)" style="fill:#ff7d00"/><path d="M63.2,959.2c0,2.5-1.2,3.7-2.6,3.7a1.928,1.928,0,0,1-2.1-1.4,2.2,2.2,0,0,1-1.8.8,2.808,2.808,0,0,1,0-5.6,2.175,2.175,0,0,1,1.6.7v-.5h1.6v3.9c0,.8.3,1.4,1,1.4.9,0,1.7-.9,1.7-3a5.233,5.233,0,0,0-5.4-5.3,5.552,5.552,0,0,0-5.6,5.7,5.624,5.624,0,0,0,5.9,5.7,11.935,11.935,0,0,0,2.9-.4v.6a8.119,8.119,0,0,1-2.9.4,6.2,6.2,0,1,1-.3-12.4A5.593,5.593,0,0,1,63.2,959.2Zm-4.9.3a1.347,1.347,0,0,0-1.3-1.4,1.238,1.238,0,0,0-1.3,1.4,1.261,1.261,0,0,0,1.3,1.3C57.8,960.9,58.3,960.3,58.3,959.5Z" transform="translate(0 0)" style="fill:#ff7d00"/><path d="M69.4,955.1v2a2.244,2.244,0,0,0-2.6,2.4v4.3H64.9v-8.6h1.9v1.4A2.632,2.632,0,0,1,69.4,955.1Z" transform="translate(0 0)" style="fill:#ff7d00"/><path d="M74.6,962.3a2.641,2.641,0,0,0,2.2-1.1l1.5.9a4.346,4.346,0,0,1-3.8,1.9,4.414,4.414,0,0,1-4.7-4.5,4.36,4.36,0,0,1,4.5-4.5,4.313,4.313,0,0,1,4.3,4.5,2.2,2.2,0,0,1-.1.8H71.7A2.832,2.832,0,0,0,74.6,962.3Zm2.3-3.5a2.375,2.375,0,0,0-2.5-2.1,2.506,2.506,0,0,0-2.6,2.1Z" transform="translate(0 0)" style="fill:#ff7d00"/><path d="M88.9,955.2v8.6H87v-1.2a3.692,3.692,0,0,1-3,1.5,4.443,4.443,0,0,1-4.3-4.5,4.317,4.317,0,0,1,4.3-4.5,3.613,3.613,0,0,1,3,1.4v-1.2h1.9Zm-1.8,4.3a2.7,2.7,0,1,0-2.7,2.7A2.571,2.571,0,0,0,87.1,959.5Z" transform="translate(0 0)" style="fill:#ff7d00"/><path d="M91.1,951.3H93v12.5H91.1Z" transform="translate(0 0)" style="fill:#ff7d00"/><path d="M102.9,955.2l-3.3,8.6H97.5l-3.3-8.6h2l2.4,6.5,2.4-6.5Z" transform="translate(0 0)" style="fill:#ff7d00"/><path d="M104.2,955.2h1.9v8.9c0,2.4-1.2,3.5-3.5,3.3v-1.8c1.1.1,1.7-.3,1.7-1.5v-8.9Zm-.2-2.4a1.2,1.2,0,0,1,2.4,0,1.2,1.2,0,1,1-2.4,0Z" transform="translate(0 0)" style="fill:#ff7d00"/><path d="M116,955.2l-3.3,8.8c-.8,2.2-2.2,3.3-4.2,3.2v-1.7a2.076,2.076,0,0,0,2.3-1.7l.1-.2-3.6-8.4h2l2.6,6.2,2.2-6.2Z" transform="translate(0 0)" style="fill:#ff7d00"/><path d="M58.9,938.7a3.633,3.633,0,0,1-3.6,3.8h-3v-7.6h3A3.633,3.633,0,0,1,58.9,938.7Zm-1,0a2.722,2.722,0,0,0-2.6-2.9h-2v5.7h2A2.577,2.577,0,0,0,57.9,938.7Z" transform="translate(0 0)" style="fill:#ff7d00"/><path d="M67,941.6v1H62.4V935h4.5v1H63.4v2.3h3.2v.9H63.4v2.4Z" transform="translate(0 0)" style="fill:#ff7d00"/><path d="M70,940.8l.9-.5a1.987,1.987,0,0,0,2,1.4c1.1,0,1.6-.5,1.6-1.2,0-.8-.7-1-1.8-1.4-1.2-.4-2.4-.8-2.4-2.2a2.208,2.208,0,0,1,2.4-2.2,2.664,2.664,0,0,1,2.6,1.7l-.8.5a1.743,1.743,0,0,0-1.7-1.2c-.8,0-1.4.4-1.4,1.1s.5,1,1.6,1.3c1.3.4,2.6.8,2.6,2.3a2.333,2.333,0,0,1-2.6,2.2A2.847,2.847,0,0,1,70,940.8Z" transform="translate(0 0)" style="fill:#ff7d00"/><path d="M80,934.9v7.6H79v-7.6Z" transform="translate(0 0)" style="fill:#ff7d00"/><path d="M91.3,939.2a3.47,3.47,0,0,1-3.7,3.5,3.888,3.888,0,0,1-4-4,3.974,3.974,0,0,1,7.3-2.2l-.9.5a2.775,2.775,0,0,0-2.4-1.4,3,3,0,0,0,0,6,2.5,2.5,0,0,0,2.7-2H87.5v-.9h3.8Z" transform="translate(0 0)" style="fill:#ff7d00"/><path d="M100.6,934.9v7.6h-.8l-3.9-5.7v5.7h-1v-7.6h.8l3.9,5.7v-5.7Z" transform="translate(0 0)" style="fill:#ff7d00"/><path d="M109.1,941.6v1h-4.6V935H109v1h-3.5v2.3h3.2v.9h-3.2v2.4Z" transform="translate(0 0)" style="fill:#ff7d00"/><path d="M119.2,938.7a3.633,3.633,0,0,1-3.6,3.8h-3v-7.6h3A3.7,3.7,0,0,1,119.2,938.7Zm-1,0a2.722,2.722,0,0,0-2.6-2.9h-2v5.7h2A2.577,2.577,0,0,0,118.2,938.7Z" transform="translate(0 0)" style="fill:#ff7d00"/><path d="M133.2,940.4a2.22,2.22,0,0,1-2.2,2.2h-3.3V935h3a2.051,2.051,0,0,1,2.1,2.1,1.943,1.943,0,0,1-.8,1.6A1.658,1.658,0,0,1,133.2,940.4Zm-4.5-4.6v2.3h2a1.135,1.135,0,0,0,1.1-1.2,1.2,1.2,0,0,0-1.1-1.2h-2Zm3.5,4.5a1.155,1.155,0,0,0-1.2-1.2h-2.3v2.5H131A1.24,1.24,0,0,0,132.2,940.3Z" transform="translate(0 0)" style="fill:#ff7d00"/><path d="M139.4,939.4v3.1h-1v-3.1l-2.7-4.5h1.1l2.1,3.6,2.1-3.6h1.1Z" transform="translate(0 0)" style="fill:#ff7d00"/><path d="M210.957,934.972v7.7h-.825l-3.96-5.754v5.754h-1.024v-7.7h.826l3.96,5.743v-5.743Z" transform="translate(0 0)" style="fill:#ff7d00"/><path d="M219.405,941.705v.968h-4.6v-7.7h4.544v.967H215.83v2.367h3.245v.957H215.83v2.442Z" transform="translate(0 0)" style="fill:#ff7d00"/><path d="M222.286,934.972h1.078l1.76,6.337,1.87-6.337h1.034l1.87,6.337,1.761-6.337h1.078l-2.211,7.7h-1.188l-1.826-6.15-1.826,6.15H224.5Z" transform="translate(0 0)" style="fill:#ff7d00"/><path d="M243.22,934.972v7.7h-1.013v-6.6l-1.639.484-.253-.88,2.025-.7Z" transform="translate(0 0)" style="fill:#ff7d00"/><path d="M246.772,938.822c0-2.376,1.068-3.993,2.971-3.993s2.97,1.617,2.97,3.993-1.056,3.993-2.97,3.993S246.772,941.2,246.772,938.822Zm4.929,0c0-1.914-.715-3-1.958-3s-1.947,1.089-1.947,3,.7,2.992,1.947,2.992S251.7,940.736,251.7,938.822Z" transform="translate(0 0)" style="fill:#ff7d00"/><path d="M260.193,934.972v.913l-2.805,6.788H256.32l2.784-6.734h-3.718v-.967Z" transform="translate(0 0)" style="fill:#ff7d00"/><path d="M215.146,951.191v12.433h-2.434v-5.15h-4.618v5.15h-2.451V951.191h2.451v4.938h4.618v-4.938Z" transform="translate(0 0)" style="fill:#ff7d00"/><path d="M221.783,961.8a2.458,2.458,0,0,0,1.989-.889l1.847,1.067a4.492,4.492,0,0,1-3.871,1.9,4.691,4.691,0,1,1-.178-9.378,4.49,4.49,0,0,1,4.493,4.689,5.322,5.322,0,0,1-.088.941h-6.7A2.334,2.334,0,0,0,221.783,961.8Zm1.989-3.446a2.154,2.154,0,0,0-2.2-1.794,2.216,2.216,0,0,0-2.327,1.794Z" transform="translate(0 0)" style="fill:#ff7d00"/><path d="M236.628,954.743v8.881h-2.292v-1.048a3.536,3.536,0,0,1-2.9,1.3,4.705,4.705,0,0,1,0-9.378,3.536,3.536,0,0,1,2.9,1.3v-1.048Zm-2.292,4.441a2.46,2.46,0,1,0-2.469,2.5A2.387,2.387,0,0,0,234.336,959.184Z" transform="translate(0 0)" style="fill:#ff7d00"/><path d="M238.7,950.658h2.291v12.966H238.7Z" transform="translate(0 0)" style="fill:#ff7d00"/><path d="M246.159,956.945v3.7c0,.959.693.976,2.007.905v2.078c-3.215.355-4.3-.586-4.3-2.983v-3.7h-1.545v-2.2h1.545v-1.794l2.292-.692v2.486h2.007v2.2Z" transform="translate(0 0)" style="fill:#ff7d00"/><path d="M258.074,958.171v5.453h-2.292v-5.169a1.652,1.652,0,0,0-1.758-1.829c-1.119,0-1.954.657-1.954,2.2v4.8h-2.291V951.191h2.291v4.547a3.02,3.02,0,0,1,2.647-1.243C256.6,954.5,258.074,955.809,258.074,958.171Z" transform="translate(0 0)" style="fill:#ff7d00"/><path d="M268.07,954.743l-3.232,8.881c-.924,2.558-2.434,3.677-4.69,3.552v-2.131a2.166,2.166,0,0,0,2.328-1.7l-3.641-8.6h2.5l2.308,5.968,1.972-5.968Z" transform="translate(0 0)" style="fill:#ff7d00"/><path d="M848.133,938.45a3.648,3.648,0,0,1-3.617,3.813h-2.973v-7.626h2.973A3.648,3.648,0,0,1,848.133,938.45Zm-.969,0a2.669,2.669,0,0,0-2.648-2.855h-1.961V941.3h1.961A2.669,2.669,0,0,0,847.164,938.45Z" transform="translate(0 0)" style="fill:#ff7d00"/><path d="M851.254,938.45a3.949,3.949,0,1,1,3.943,3.955A3.917,3.917,0,0,1,851.254,938.45Zm6.887,0a2.943,2.943,0,1,0-2.944,2.964A2.911,2.911,0,0,0,858.141,938.45Z" transform="translate(0 0)" style="fill:#ff7d00"/><path d="M861.783,934.637h1.069l1.742,6.276,1.853-6.276h1.024l1.851,6.276,1.744-6.276h1.067l-2.19,7.626h-1.175l-1.809-6.09-1.809,6.09h-1.177Z" transform="translate(0 0)" style="fill:#ff7d00"/><path d="M881.27,934.637v7.626h-.819l-3.922-5.7v5.7h-1.011v-7.626h.816l3.922,5.687v-5.687Z" transform="translate(0 0)" style="fill:#ff7d00"/><path d="M889.5,941.3v.959h-4.3v-7.626h1.014V941.3Z" transform="translate(0 0)" style="fill:#ff7d00"/><path d="M891.877,938.45a3.949,3.949,0,1,1,3.943,3.955A3.917,3.917,0,0,1,891.877,938.45Zm6.887,0a2.943,2.943,0,1,0-2.944,2.964A2.911,2.911,0,0,0,898.764,938.45Z" transform="translate(0 0)" style="fill:#ff7d00"/><path d="M907.418,940.552h-3.432l-.621,1.711h-1.078l2.844-7.626h1.142l2.844,7.626h-1.078Zm-.348-.947-1.373-3.759-1.361,3.759Z" transform="translate(0 0)" style="fill:#ff7d00"/><path d="M918.906,938.45a3.647,3.647,0,0,1-3.617,3.813h-2.975v-7.626h2.975A3.647,3.647,0,0,1,918.906,938.45Zm-.97,0a2.67,2.67,0,0,0-2.647-2.855h-1.961V941.3h1.961A2.669,2.669,0,0,0,917.936,938.45Z" transform="translate(0 0)" style="fill:#ff7d00"/><path d="M928.457,935.6v2.474h3.236v.959h-3.236v3.235h-1.014v-7.626h4.391v.958Z" transform="translate(0 0)" style="fill:#ff7d00"/><path d="M938.168,939.343h-1.8v2.92h-1.012v-7.626h3.049a2.353,2.353,0,0,1,.8,4.575l1.8,3.051h-1.121Zm-1.8-.915h2.037a1.423,1.423,0,0,0,0-2.843h-2.037Z" transform="translate(0 0)" style="fill:#ff7d00"/><path d="M943.869,938.45a3.95,3.95,0,1,1,3.943,3.955A3.918,3.918,0,0,1,943.869,938.45Zm6.887,0a2.943,2.943,0,1,0-2.944,2.964A2.911,2.911,0,0,0,950.756,938.45Z" transform="translate(0 0)" style="fill:#ff7d00"/><path d="M962.418,942.263h-1V936.3l-2.5,4.151h-.131l-2.494-4.14v5.948h-1.014v-7.626h1.145l2.429,4.031,2.418-4.031h1.145Z" transform="translate(0 0)" style="fill:#ff7d00"/><path d="M841.318,952.65a1.221,1.221,0,1,1,1.221,1.222A1.224,1.224,0,0,1,841.318,952.65Zm.266,2.549H843.5v8.85h-1.911Z" transform="translate(0 0)" style="fill:#ff7d00"/><path d="M845.709,951.128h1.912v12.921h-1.912Z" transform="translate(0 0)" style="fill:#ff7d00"/><path d="M849.834,951.128h1.912v12.921h-1.912Z" transform="translate(0 0)" style="fill:#ff7d00"/><path d="M853.96,951.128h1.911v12.921H853.96Z" transform="translate(0 0)" style="fill:#ff7d00"/><path d="M865.963,955.2v8.85h-1.912v-1.132a3.048,3.048,0,0,1-2.744,1.363,3.305,3.305,0,0,1-3.4-3.647V955.2h1.912v5.24a1.845,1.845,0,0,0,1.983,2.053c1.257,0,2.248-.743,2.248-2.549V955.2Z" transform="translate(0 0)" style="fill:#ff7d00"/><path d="M874.621,961.553c0,1.771-1.539,2.727-3.451,2.727a3.694,3.694,0,0,1-3.611-2.071l1.646-.956a1.945,1.945,0,0,0,1.965,1.274c.85,0,1.5-.283,1.5-.991,0-1.575-4.761-.691-4.761-3.859,0-1.664,1.434-2.708,3.238-2.708a3.566,3.566,0,0,1,3.276,1.841l-1.612.9a1.723,1.723,0,0,0-1.664-1.008c-.689,0-1.292.3-1.292.938C869.86,959.253,874.621,958.279,874.621,961.553Z" transform="translate(0 0)" style="fill:#ff7d00"/><path d="M878.7,957.041v4.248c0,1.132.744,1.114,2.2,1.044v1.716c-2.938.355-4.106-.46-4.106-2.76v-4.248h-1.629V955.2h1.629v-1.911l1.91-.567V955.2h2.2v1.842Z" transform="translate(0 0)" style="fill:#ff7d00"/><path d="M887.354,955.04v2.071a2.337,2.337,0,0,0-2.725,2.478v4.46h-1.912V955.2h1.912v1.487A2.782,2.782,0,0,1,887.354,955.04Z" transform="translate(0 0)" style="fill:#ff7d00"/><path d="M897.286,955.2v8.85h-1.911v-1.274a3.639,3.639,0,0,1-3.1,1.5,4.662,4.662,0,0,1,0-9.311,3.672,3.672,0,0,1,3.1,1.487V955.2Zm-1.911,4.426a2.8,2.8,0,1,0-2.8,2.832A2.735,2.735,0,0,0,895.375,959.625Z" transform="translate(0 0)" style="fill:#ff7d00"/><path d="M902.264,957.041v4.248c0,1.132.744,1.114,2.195,1.044v1.716c-2.938.355-4.1-.46-4.1-2.76v-4.248h-1.629V955.2h1.629v-1.911l1.91-.567V955.2h2.195v1.842Z" transform="translate(0 0)" style="fill:#ff7d00"/><path d="M905.931,952.65a1.221,1.221,0,0,1,2.442,0,1.221,1.221,0,1,1-2.442,0Zm.265,2.549h1.911v8.85H906.2Z" transform="translate(0 0)" style="fill:#ff7d00"/><path d="M909.826,959.625a4.673,4.673,0,1,1,4.674,4.655A4.621,4.621,0,0,1,909.826,959.625Zm7.435,0a2.762,2.762,0,1,0-2.761,2.8A2.718,2.718,0,0,0,917.261,959.625Z" transform="translate(0 0)" style="fill:#ff7d00"/><path d="M928.965,958.616v5.433h-1.912V958.81a1.845,1.845,0,0,0-1.983-2.053c-1.257,0-2.248.744-2.248,2.549v4.743H920.91V955.2h1.912v1.133a3.047,3.047,0,0,1,2.744-1.363A3.3,3.3,0,0,1,928.965,958.616Z" transform="translate(0 0)" style="fill:#ff7d00"/><path d="M937.5,961.553c0,1.771-1.541,2.727-3.451,2.727a3.692,3.692,0,0,1-3.611-2.071l1.646-.956a1.943,1.943,0,0,0,1.965,1.274c.849,0,1.5-.283,1.5-.991,0-1.575-4.762-.691-4.762-3.859,0-1.664,1.434-2.708,3.239-2.708a3.563,3.563,0,0,1,3.275,1.841l-1.611.9a1.725,1.725,0,0,0-1.664-1.008c-.69,0-1.292.3-1.292.938C932.738,959.253,937.5,958.279,937.5,961.553Z" transform="translate(0 0)" style="fill:#ff7d00"/><path d="M938.83,962.934a1.328,1.328,0,0,1,2.656,0,1.328,1.328,0,0,1-2.656,0Z" transform="translate(0 0)" style="fill:#ff7d00"/><path d="M942.319,959.625a4.567,4.567,0,0,1,4.673-4.656,4.373,4.373,0,0,1,3.947,2.284l-1.646.956a2.473,2.473,0,0,0-2.318-1.364,2.779,2.779,0,0,0,0,5.558,2.6,2.6,0,0,0,2.353-1.362l1.647.937a4.451,4.451,0,0,1-3.983,2.3A4.577,4.577,0,0,1,942.319,959.625Z" transform="translate(0 0)" style="fill:#ff7d00"/><path d="M951.722,959.625a4.673,4.673,0,1,1,4.673,4.655A4.62,4.62,0,0,1,951.722,959.625Zm7.434,0a2.762,2.762,0,1,0-2.761,2.8A2.718,2.718,0,0,0,959.156,959.625Z" transform="translate(0 0)" style="fill:#ff7d00"/><ellipse cx="481.171" cy="743.5" rx="412.829" ry="64.5" style="fill:#eae8ea"/><path d="M630.084,297H523.916C495.244,297,472,319.953,472,348.268V709.855a34.2,34.2,0,0,0,40.473,33.537,18.1,18.1,0,0,0,3.7-1.062c20.426-8.826,36.779-20.589,60.832-20.589s40.407,11.763,60.833,20.589a18.066,18.066,0,0,0,3.694,1.062A34.2,34.2,0,0,0,682,709.855V348.268C682,319.953,658.756,297,630.084,297Z" transform="translate(0 0)" style="fill:#fff"/><path d="M630.083,297h-28C630.756,297,654,319.953,654,348.268V709.855a34.261,34.261,0,0,1-19.687,30.909q1.743.795,3.52,1.566a18.066,18.066,0,0,0,3.694,1.062A34.2,34.2,0,0,0,682,709.855V348.268C682,319.953,658.756,297,630.083,297Z" transform="translate(0 0)" style="fill:#eae8ea"/><path d="M549,721.741c-22.656,0-38.482,10.435-57.313,19.023a33.535,33.535,0,0,0,20.786,2.628,18.1,18.1,0,0,0,3.7-1.062c16.213-7.006,29.864-15.856,46.832-19.21A71.684,71.684,0,0,0,549,721.741Z" transform="translate(0 0)" style="fill:#d9cedb"/><path d="M630.084,297H523.916C495.244,297,472,319.953,472,348.268V709.855a34.2,34.2,0,0,0,40.473,33.537,18.1,18.1,0,0,0,3.7-1.062c20.426-8.826,36.779-20.589,60.832-20.589s40.407,11.763,60.833,20.589a18.066,18.066,0,0,0,3.694,1.062A34.2,34.2,0,0,0,682,709.855V348.268C682,319.953,658.756,297,630.084,297Z" transform="translate(0 0)" style="fill:none;stroke:#363a5a;stroke-linecap:round;stroke-linejoin:round;stroke-width:6px"/><rect x="535.224" y="283" width="84" height="14" style="fill:#eae8ea"/><rect x="535.224" y="283" width="84" height="14" style="fill:none;stroke:#363a5a;stroke-linecap:round;stroke-linejoin:round;stroke-width:6px"/><path d="M620.349,283.333a781.317,781.317,0,0,1-86.248,0,6,6,0,0,1-5.653-6q0-17.365,0-34.731c0-11.041,8.826-22.01,19.607-24.4a133.129,133.129,0,0,1,58.3.039c10.8,2.384,19.648,13.344,19.648,24.4q0,17.343,0,34.684A6,6,0,0,1,620.349,283.333Z" transform="translate(0 0)" style="fill:#fff"/><path d="M626,242.654c0-11.06-8.847-22.02-19.647-24.4a134.006,134.006,0,0,0-38.29-2.929,137.554,137.554,0,0,1,20.29,2.929c10.8,2.384,19.647,13.344,19.647,24.4q0,17.343,0,34.684a6,6,0,0,1-5.651,6q-17.052.942-34.124,1.129,26.068.3,52.124-1.129a6,6,0,0,0,5.651-6Q626,260,626,242.654Z" transform="translate(0 0)" style="fill:#eae8ea"/><path d="M620.349,283.333a781.317,781.317,0,0,1-86.248,0,6,6,0,0,1-5.653-6q0-17.365,0-34.731c0-11.041,8.826-22.01,19.607-24.4a133.129,133.129,0,0,1,58.3.039c10.8,2.384,19.648,13.344,19.648,24.4q0,17.343,0,34.684A6,6,0,0,1,620.349,283.333Z" transform="translate(0 0)" style="fill:none;stroke:#363a5a;stroke-linecap:round;stroke-linejoin:round;stroke-width:6px"/><path d="M472,393V709.855a34.2,34.2,0,0,0,40.473,33.537,18.1,18.1,0,0,0,3.7-1.062c20.426-8.826,36.779-20.589,60.832-20.589s40.407,11.763,60.833,20.589a18.066,18.066,0,0,0,3.694,1.062A34.2,34.2,0,0,0,682,709.855V393Z" transform="translate(0 0)" style="fill:#73e1ff"/><path d="M653,393V695.855a34.2,34.2,0,0,1-40.473,33.537,18.066,18.066,0,0,1-3.694-1.062C588.407,719.5,572.054,707.741,548,707.741S507.594,719.5,487.168,728.33a18.1,18.1,0,0,1-3.695,1.062,34.116,34.116,0,0,1-4.869.566,34,34,0,0,0,33.869,13.434,18.1,18.1,0,0,0,3.7-1.062c20.426-8.826,36.779-20.589,60.832-20.589s40.407,11.763,60.833,20.589a18.066,18.066,0,0,0,3.694,1.062A34.2,34.2,0,0,0,682,709.855V393Z" transform="translate(0 0)" style="fill:#48d8f9"/><path d="M472,393V709.855a34.2,34.2,0,0,0,40.473,33.537,18.1,18.1,0,0,0,3.7-1.062c20.426-8.826,36.779-20.589,60.832-20.589s40.407,11.763,60.833,20.589a18.066,18.066,0,0,0,3.694,1.062A34.2,34.2,0,0,0,682,709.855V393Z" transform="translate(0 0)" style="fill:none;stroke:#363a5a;stroke-linecap:round;stroke-linejoin:round;stroke-width:6px"/><line x1="549" y1="258" x2="549" y2="283" style="fill:none;stroke:#363a5a;stroke-linecap:round;stroke-linejoin:round;stroke-width:6px"/><line x1="568" y1="258" x2="568" y2="283" style="fill:none;stroke:#363a5a;stroke-linecap:round;stroke-linejoin:round;stroke-width:6px"/><line x1="587" y1="258" x2="587" y2="283" style="fill:none;stroke:#363a5a;stroke-linecap:round;stroke-linejoin:round;stroke-width:6px"/><line x1="606" y1="258" x2="606" y2="283" style="fill:none;stroke:#363a5a;stroke-linecap:round;stroke-linejoin:round;stroke-width:6px"/><circle cx="528" cy="481" r="12" style="fill:#abefff"/><circle cx="600" cy="533" r="8" style="fill:#abefff"/><circle cx="552" cy="595" r="6" style="fill:#abefff"/><circle cx="578" cy="459" r="6" style="fill:#abefff"/><line x1="652" y1="420" x2="652" y2="566" style="fill:none;stroke:#363a5a;stroke-linecap:round;stroke-linejoin:round;stroke-width:6px"/><path d="M179,447.816a109.194,109.194,0,0,0-24.949,4.27c-.073,2.865-.069,5.747.084,8.658a108.981,108.981,0,0,0,139.557,98.833c.073-2.865.07-5.747-.084-8.658A109.008,109.008,0,0,0,179,447.816Z" transform="translate(0 0)" style="fill:#76c526"/><path d="M179,447.816a109.194,109.194,0,0,0-24.949,4.27c-.073,2.865-.069,5.747.084,8.658a108.981,108.981,0,0,0,139.557,98.833c.073-2.865.07-5.747-.084-8.658A109.008,109.008,0,0,0,179,447.816Z" transform="translate(0 0)" style="fill:none;stroke:#363a5a;stroke-linecap:round;stroke-linejoin:round;stroke-width:6px"/><path d="M373.368,425.722a95.453,95.453,0,0,0-7.356-20.863c-2.479.36-4.962.788-7.446,1.349A95.246,95.246,0,0,0,294,541c2.479-.359,4.962-.787,7.446-1.349A95.268,95.268,0,0,0,373.368,425.722Z" transform="translate(0 0)" style="fill:#76c526"/><path d="M373.368,425.721a94.551,94.551,0,0,0-3.283-11.218A95.3,95.3,0,0,1,295.9,511.651c-2.484.562-4.967.99-7.445,1.349a96.215,96.215,0,0,1-4.073-9.642A95.585,95.585,0,0,0,294,541c2.479-.359,4.961-.787,7.446-1.349A95.269,95.269,0,0,0,373.368,425.721Z" transform="translate(0 0)" style="fill:#5fa412"/><path d="M373.368,425.722a95.453,95.453,0,0,0-7.356-20.863c-2.479.36-4.962.788-7.446,1.349A95.246,95.246,0,0,0,294,541c2.479-.359,4.962-.787,7.446-1.349A95.268,95.268,0,0,0,373.368,425.722Z" transform="translate(0 0)" style="fill:none;stroke:#363a5a;stroke-linecap:round;stroke-linejoin:round;stroke-width:6px"/><path d="M337.733,457S315.275,486,294,541" transform="translate(0 0)" style="fill:none;stroke:#363a5a;stroke-linecap:round;stroke-linejoin:round;stroke-width:6px"/><path d="M200.733,490s63.908,61.154,92.954,69.577" transform="translate(0 0)" style="fill:none;stroke:#363a5a;stroke-linecap:round;stroke-linejoin:round;stroke-width:6px"/><path d="M403.262,634.5a112.5,112.5,0,1,1-224.953-3.362c1.645-58.247,45.923-106.1,105.174-101.019a109.523,109.523,0,0,0,14.389.321C357.422,527.691,403.262,574.726,403.262,634.5Z" transform="translate(0 0)" style="fill:#ff7d00"/><path d="M375.134,561.34a120.464,120.464,0,0,1,7.276,41.572A122.6,122.6,0,0,1,212.984,715.951,112.628,112.628,0,0,0,403.262,634.5C403.262,605.813,392.7,580.064,375.134,561.34Z" transform="translate(0 0)" style="fill:#ff6c22"/><path d="M352,544c-40,11-66.5,51.118-73,95-4,27,13,92,61.561,96.4a112.5,112.5,0,0,0,62.7-100.9C403.262,592.526,386.082,560.584,352,544Z" transform="translate(0 0)" style="fill:#ff6c22"/><path d="M403.262,634.5a112.5,112.5,0,1,1-224.953-3.362c1.645-58.247,45.923-106.1,105.174-101.019a109.523,109.523,0,0,0,14.389.321C357.422,527.691,403.262,574.726,403.262,634.5Z" transform="translate(0 0)" style="fill:none;stroke:#363a5a;stroke-linecap:round;stroke-linejoin:round;stroke-width:6px"/><path d="M213,596a5,5,0,0,1-4.442-7.288c19.008-36.961,56.315-41.507,57.894-41.683a5,5,0,0,1,1.116,9.938h0c-1.365.159-33.625,4.249-50.118,36.319A5,5,0,0,1,213,596Z" transform="translate(0 0)" style="fill:#ff9636"/><circle cx="216" cy="627" r="4" style="fill:#ff9636"/><circle cx="246" cy="701" r="4" style="fill:#ff9636"/><circle cx="218" cy="672" r="6" style="fill:#ff9636"/><circle cx="262.5" cy="647.5" r="3.5" style="fill:#ff9636"/><circle cx="403.969" cy="639.236" r="107.764" style="fill:#ff7d00"/><path d="M461.7,548.227A107.768,107.768,0,0,1,324.713,712.245,107.765,107.765,0,1,0,461.7,548.227Z" transform="translate(0 0)" style="fill:#ff5b00"/><circle cx="403.969" cy="639.236" r="96.236" style="fill:#fff"/><path d="M500.145,636q-.013-.416-.032-.831c-.04-.978-.092-1.953-.162-2.923-.008-.1-.012-.2-.019-.3-.08-1.066-.182-2.125-.3-3.181-.027-.248-.056-.495-.085-.743q-.165-1.412-.367-2.811c-.018-.129-.035-.258-.054-.386q-.238-1.59-.531-3.162c-.036-.194-.075-.388-.112-.582q-.27-1.414-.581-2.816c-.028-.125-.053-.251-.082-.375q-.36-1.593-.774-3.164c-.03-.116-.063-.232-.094-.347q-.392-1.466-.826-2.912c-.031-.1-.061-.207-.092-.31q-.487-1.6-1.027-3.175l-.014-.04q-.534-1.552-1.121-3.08l-.083-.219q-1.209-3.132-2.626-6.157c-.019-.042-.038-.084-.058-.125q-1.435-3.055-3.077-5.992l-.029-.051q-1.656-2.96-3.511-5.788h0A107.839,107.839,0,0,1,366.23,727.786h0a95.575,95.575,0,0,0,13.478,4.6l.024.007q1.131.292,2.272.559l.066.016q1.1.257,2.213.486l.149.033c.712.147,1.427.283,2.145.414l.236.046c.7.126,1.406.242,2.112.353l.287.047c.662.1,1.327.193,1.993.282.144.019.286.041.43.06.641.082,1.285.153,1.929.222.169.018.337.041.5.058.614.063,1.229.114,1.846.165.2.017.405.039.608.054.582.045,1.168.078,1.753.112.239.014.477.034.716.046.6.031,1.21.05,1.816.069.222.008.442.02.665.026q1.243.031,2.5.032A96.15,96.15,0,0,0,491.7,678.84q.963-2.132,1.826-4.317,1.293-3.278,2.348-6.67a95.352,95.352,0,0,0,2.824-11.582q.423-2.37.73-4.778a97.214,97.214,0,0,0,.773-12.257C500.205,638.152,500.181,637.074,500.145,636Z" transform="translate(0 0)" style="fill:#eae8ea"/><circle cx="403.969" cy="639.236" r="107.764" style="fill:none;stroke:#363a5a;stroke-linecap:round;stroke-linejoin:round;stroke-width:6px"/><path d="M427.659,625.96a26.949,26.949,0,0,0-3.193-4.519,13.025,13.025,0,0,1-1.621-15.079l16.564-28.815A12.9,12.9,0,0,1,458.9,574.1a84.882,84.882,0,0,1,24.957,35.417,12.9,12.9,0,0,1-9.835,17.183l-32.742,5.843A13.029,13.029,0,0,1,427.659,625.96Z" transform="translate(0 0)" style="fill:#ffce43"/><path d="M380.279,652.512a27.057,27.057,0,0,0,3.193,4.518,13.025,13.025,0,0,1,1.622,15.08l-16.565,28.815a12.9,12.9,0,0,1-19.488,3.449,84.876,84.876,0,0,1-24.956-35.418,12.9,12.9,0,0,1,9.835-17.183l32.742-5.843A13.028,13.028,0,0,1,380.279,652.512Z" transform="translate(0 0)" style="fill:#ffce43"/><path d="M404.3,612.082a26.911,26.911,0,0,0-5.509.51,13.025,13.025,0,0,1-13.874-6.126l-16.693-28.741a12.9,12.9,0,0,1,6.743-18.607,84.88,84.88,0,0,1,43.148-3.934,12.9,12.9,0,0,1,9.976,17.1L416.8,603.57A13.031,13.031,0,0,1,404.3,612.082Z" transform="translate(0 0)" style="fill:#ffce43"/><path d="M403.641,666.39a27.045,27.045,0,0,0,5.509-.51,13.025,13.025,0,0,1,13.874,6.126l16.694,28.741a12.9,12.9,0,0,1-6.744,18.606,84.868,84.868,0,0,1-43.148,3.935,12.9,12.9,0,0,1-9.975-17.1L391.139,674.9A13.029,13.029,0,0,1,403.641,666.39Z" transform="translate(0 0)" style="fill:#ffce43"/><path d="M380.635,625.344a27,27,0,0,0-2.319,5.023,13.026,13.026,0,0,1-12.254,8.936l-33.237.043a12.9,12.9,0,0,1-12.722-15.16,84.879,84.879,0,0,1,18.218-39.311,12.9,12.9,0,0,1,19.8-.062l21.416,25.446A13.03,13.03,0,0,1,380.635,625.344Z" transform="translate(0 0)" style="fill:#ffce43"/><path d="M427.3,653.128a27.037,27.037,0,0,0,2.32-5.023,13.026,13.026,0,0,1,12.254-8.937l33.237-.043a12.9,12.9,0,0,1,12.722,15.161A84.884,84.884,0,0,1,469.618,693.6a12.9,12.9,0,0,1-19.8.062L428.4,668.212A13.029,13.029,0,0,1,427.3,653.128Z" transform="translate(0 0)" style="fill:#ffce43"/><path d="M424.466,621.441a27.007,27.007,0,0,1,3.193,4.519,13.029,13.029,0,0,0,13.618,6.581l32.742-5.843a12.9,12.9,0,0,0,9.835-17.182A84.879,84.879,0,0,0,458.9,574.1a12.9,12.9,0,0,0-19.488,3.449l-16.564,28.815A13.025,13.025,0,0,0,424.466,621.441Z" transform="translate(0 0)" style="fill:#ffce43"/><path d="M363.205,678a31.488,31.488,0,0,1,14.749,6.53l7.14-12.421a13.026,13.026,0,0,0-1.621-15.079,27,27,0,0,1-3.194-4.518,13.029,13.029,0,0,0-13.617-6.582L345.8,649.654C347.339,671.714,352.157,676.422,363.205,678Z" transform="translate(0 0)" style="fill:#ffce43"/><path d="M384.914,606.466a13.026,13.026,0,0,0,13.874,6.126,26.911,26.911,0,0,1,5.509-.51,13.031,13.031,0,0,0,12.5-8.512l11.288-31.285a12.9,12.9,0,0,0-9.976-17.1,84.88,84.88,0,0,0-43.148,3.934,12.9,12.9,0,0,0-6.743,18.607Z" transform="translate(0 0)" style="fill:#ffce43"/><path d="M423.024,672.006a13.025,13.025,0,0,0-13.874-6.126,27.045,27.045,0,0,1-5.509.51,13.029,13.029,0,0,0-12.5,8.512l-5.875,16.282A65.368,65.368,0,0,0,390.205,696c5,4,24,6,24,9,0,2.121,3.5,12.238,5.549,17.985a85.057,85.057,0,0,0,13.22-3.632,12.9,12.9,0,0,0,6.744-18.606Z" transform="translate(0 0)" style="fill:#ffce43"/><path d="M345.205,628c0,4.114.043,7.871.129,11.33l20.728-.027a13.027,13.027,0,0,0,12.254-8.936,26.974,26.974,0,0,1,2.319-5.023,13.03,13.03,0,0,0-1.1-15.085l-21.416-25.446a12.9,12.9,0,0,0-19.8.062,84.812,84.812,0,0,0-10.807,16.708C336.855,603.325,345.205,609.933,345.205,628Z" transform="translate(0 0)" style="fill:#ffce43"/><path d="M475.114,639.125l-33.238.043a13.025,13.025,0,0,0-12.253,8.937,27.037,27.037,0,0,1-2.32,5.023,13.029,13.029,0,0,0,1.1,15.084l21.416,25.447a12.9,12.9,0,0,0,19.8-.062,84.884,84.884,0,0,0,18.218-39.311A12.9,12.9,0,0,0,475.114,639.125Z" transform="translate(0 0)" style="fill:#ffce43"/><path d="M324.085,668.956a84.876,84.876,0,0,0,24.956,35.418,12.9,12.9,0,0,0,19.488-3.449l9.425-16.395A31.488,31.488,0,0,0,363.205,678c-11.048-1.578-15.866-6.286-17.408-28.346l-11.877,2.119A12.9,12.9,0,0,0,324.085,668.956Z" transform="translate(0 0)" style="fill:#ffb345"/><path d="M390.205,696a65.368,65.368,0,0,1-4.941-4.816l-5.413,15a12.9,12.9,0,0,0,9.975,17.1,84.8,84.8,0,0,0,29.928-.3C417.7,717.238,395.205,700,390.205,696Z" transform="translate(0 0)" style="fill:#ffb345"/><path d="M332.825,639.346l12.509-.016c-.086-3.459-.129-7.216-.129-11.33,0-18.067-8.35-24.675-17.691-26.417a85,85,0,0,0-7.411,22.6A12.9,12.9,0,0,0,332.825,639.346Z" transform="translate(0 0)" style="fill:#ffb345"/></svg>