<svg xmlns="http://www.w3.org/2000/svg" xmlns:xlink="http://www.w3.org/1999/xlink" viewBox="0 0 1000 1000"><defs><clipPath id="a" transform="translate(0)"><path d="M370.546,440.135c-28.437,9.049-48.735,37.394-49.8,71.862-1.6,51.49,6.678,116.225,36.806,140.982,28.039,23.041,73.35,18.567,107.133,18.171,45.78-.536,96.094-2.258,138.282-22.3C664.823,619.46,643.8,522.736,619.7,472.486c-15.951-33.251-41.934-44.675-79.437-49.609C484.756,415.576,411.653,427.056,370.546,440.135Z" style="fill:none"/></clipPath><linearGradient id="b" x1="296.565" y1="368.237" x2="575.921" y2="652.176" gradientUnits="userSpaceOnUse"><stop offset="0.231" stop-color="#fff" stop-opacity="0"/><stop offset="1" stop-color="#fff"/></linearGradient><clipPath id="c" transform="translate(0)"><ellipse cx="584.832" cy="690.53" rx="31.606" ry="14.654" transform="translate(-60.518 56.193) rotate(-5.231)" style="fill:none"/></clipPath></defs><title>114-retro-tv</title><rect width="1000" height="1000" style="fill:#e6faff"/><ellipse cx="523.083" cy="687.214" rx="258.026" ry="54.631" transform="translate(-32.679 26.149) rotate(-2.777)" style="fill:#b3b1b1"/><polygon points="696.429 650.554 744.115 627.88 743.42 625.89 690.407 648.972 696.429 650.554" style="fill:#b3b1b1"/><ellipse cx="747.222" cy="623.669" rx="6.167" ry="7.5" transform="translate(-207.747 811.656) rotate(-50.986)" style="fill:#b3b1b1"/><path d="M629.844,268.563l78.391-120.132a.342.342,0,0,1,.584.357l-71.486,124.2Z" transform="translate(0)" style="fill:#595959"/><path d="M549.505,255.205l-13.058-67.3a.5.5,0,0,1,.977-.239l19.331,65.065Z" transform="translate(0)" style="fill:#595959"/><polygon points="632 271.027 697.099 166.894 697.489 167.218 634.805 272.745 632 271.027" style="fill:#666"/><path d="M538.5,195.813l14.849,58.744,2.2-1.037-18.908-65.075a.5.5,0,0,0-.977.239Z" transform="translate(0)" style="fill:#666"/><path d="M557.288,252.221l21.294,73.98a.5.5,0,0,1-.612.63l-15.058-4.016a.5.5,0,0,1-.364-.39l-14.007-66.957Z" transform="translate(0)" style="fill:#d94a44"/><path d="M555.962,252.713l-2.482.922L572.617,325.3l3.73.986a.5.5,0,0,0,.612-.63Z" transform="translate(0)" style="fill:#eaeaea;opacity:0.14"/><path d="M638.105,272.755l-34.548,60.87a.343.343,0,0,1-.451.137l-12.35-6.175a.343.343,0,0,1-.134-.493L629.3,267.921Z" transform="translate(0)" style="fill:#d94a44"/><polygon points="633.608 270.286 598.284 327.113 602.563 330.031 635.922 271.557 633.608 270.286" style="fill:#eaeaea;opacity:0.14"/><path d="M456.568,347.621s56.9-57.272,128.488-32.373c39.476,13.73,54.376,69.162,54.376,69.162Z" transform="translate(0)" style="fill:#d34444"/><path d="M443.341,355.142s62.515-54.2,135.491-26.537c48.241,18.284,70.027,71.064,70.027,71.064Z" transform="translate(0)" style="fill:#ce3a3a"/><path d="M534.85,741.521c-66.133,3.157-203.065,13.238-237.448-60.955-17.167-37.043-12.206-84.139-11.916-124.022.254-34.909-5.195-75.245,3.8-109.369,20.149-76.4,131.834-108.133,200.6-110.588,63.786-2.277,110.723,16.232,154.994,45.444,42.42,27.99,49.564,96.744,49.809,141.2.287,52,6.313,106.738-11.949,157.049C663.988,731.946,580.266,739.376,534.85,741.521Z" transform="translate(0)" style="fill:#d94a44"/><path d="M402.727,731.649C361.875,728.99,335,718.22,317.933,707.476c51.559,44.536,160.237,36.75,216.917,34.045,28.821-1.361,73.062-4.856,106.343-20.428C588.458,734.5,486.578,737.107,402.727,731.649Z" transform="translate(0)" style="fill:#ce3a3a"/><path d="M453.863,725.793c-37.649,0-80.754-1.5-104.417-8.656-29.6-8.948-39.547-17.325-49.1-37.935-13.928-30.054-12.967-66.468-12.038-101.682.192-7.271.373-14.138.423-20.952.071-9.813-.3-19.8-.684-30.379-.976-26.572-3.123-54.378,4.381-78.186C321.407,356.065,568.6,358.5,631.9,396.637c18.567,11.188,42.83,21.518,50.746,50.92,5.679,21.1,8.641,46.562,8.8,75.692.055,9.909.322,20.093.58,29.941,1.106,42.184,2.249,85.8-12.335,125.982-7.344,20.234-24.165,33.861-51.424,41.66C604.457,727.644,479.281,725.793,453.863,725.793Z" transform="translate(0)" style="fill:#595959"/><path d="M681.513,673.852c.3-.906.591-1.812.872-2.721.16-.517.312-1.036.467-1.555.251-.836.5-1.673.738-2.512.154-.542.3-1.085.452-1.628q.339-1.234.664-2.474.213-.817.417-1.636.315-1.254.614-2.512.189-.8.372-1.592c.2-.874.393-1.75.582-2.627.106-.494.214-.987.317-1.482q.3-1.434.573-2.873c.08-.414.164-.828.242-1.243q.329-1.752.628-3.509c.036-.206.074-.412.109-.618q.722-4.272,1.288-8.574c.019-.14.035-.282.054-.422q.249-1.9.472-3.815c.032-.275.061-.551.092-.826q.2-1.722.371-3.449.047-.468.091-.936.165-1.689.311-3.381c.027-.308.053-.617.079-.925q.144-1.733.269-3.466.03-.4.058-.8.13-1.854.239-3.711c.011-.18-.091-.361-.081-.542.082-1.414.108-2.828.108-4.244h0c0-5.924.3-11.5.567-16.781.128-13.31-.164-26.627-.51-39.8-.258-9.848-.5-20.032-.551-29.941-.157-28.517-2.991-53.51-8.439-74.341.385,5.215,1.345,10.8,1.77,16.411,1.871,24.726,2.983,54.533-1.133,103.038-2.351,27.719-9.734,78.988-36.067,99.547-19.108,14.917-38.955,9.738-38.955,9.738s-47.111,14.756-56.266,18.936c-10.065,4.6-26.794,4.207-44.689,2.651,0,0-19.691-.758-20.908,2.218s-6.222-3.246-6.222-4.6c-.811,5.546-13.255,7.034-16.771,2.029-4.87-5-8.657,2.931-12.309,3.2s-3.769-13.542-10.766-6.906c-3.192,3.027-12.973-6.161-22.912-.893-13.525,7.168-54.747,2.435-66.32-1.488-16.04-5.438-47.609-10.821-54.462-68.169-5.162-43.2-4.869-62.758-8.368-81.31.106,4.477.164,8.886.132,13.256-.05,6.814-.231,13.681-.423,20.952-.929,35.214-1.89,71.628,12.038,101.682,9.552,20.61,19.5,28.987,49.1,37.935a149.271,149.271,0,0,0,21.824,4.483q2.4.277,4.905.645c.476.058.959.114,1.44.17.414.048.829.1,1.247.144.5.056,1,.112,1.5.166.45.049.905.1,1.358.143q1.222.127,2.46.248l1.263.122q.787.073,1.58.145l1.312.115q1.276.111,2.568.215l1.372.11,1.62.122,1.335.1q1.17.082,2.351.162l1.726.113c.534.034,1.071.066,1.608.1q.716.044,1.434.085c.523.03,1.045.061,1.57.09q1.29.071,2.589.137c.509.026,1.02.051,1.53.075s1.043.05,1.566.075,1.024.047,1.537.069q1.084.048,2.173.092.921.037,1.845.072t1.823.068l1.437.05q1.046.036,2.091.068l1.606.049q1.147.034,2.3.065l1.3.034,2.133.051,1.037.024,2.98.06,1.1.019q1.14.021,2.277.038l.977.015q1.528.023,3.054.04l.874.009,2.459.024.9.008q1.565.014,3.122.021l.541,0,2.688.011.872,0q1.572,0,3.136,0c25.418,0,150.594,1.851,174.4-4.961.772-.221,1.533-.448,2.288-.678.244-.074.486-.15.728-.226q.769-.239,1.527-.485.416-.135.827-.271.723-.24,1.434-.488c.261-.09.524-.179.782-.27q1-.354,1.98-.72c.314-.117.622-.238.932-.358q.543-.208,1.081-.419c.369-.147.734-.3,1.1-.444q.418-.173.834-.346c.4-.166.791-.333,1.18-.5.191-.083.378-.168.567-.251q2.231-.986,4.335-2.045l.258-.13q.721-.366,1.43-.743l.156-.084q3.063-1.636,5.845-3.441a85.508,85.508,0,0,0,17.057-16.123v0a56.637,56.637,0,0,0,3.964-6.516c.022-.042.042-.085.064-.127q.406-.786.791-1.587c.056-.117.107-.236.162-.352.219-.465.435-.931.643-1.4.107-.246.208-.5.313-.746.148-.35.3-.7.441-1.053q.366-.915.705-1.849.726-2,1.4-4.007C681.233,674.729,681.37,674.29,681.513,673.852Z" transform="translate(0)" style="fill:#5e5e5e"/><path d="M431.407,674.46c-25.875,0-55.111-2.29-75.772-19.267-14.181-11.654-24.625-32.4-31.039-61.676-5.122-23.376-7.451-52.159-6.556-81.046a85.594,85.594,0,0,1,15.027-46.637c9.228-13.191,21.774-22.6,36.282-27.22,28.468-9.058,80.252-19.636,132.5-19.636a294.806,294.806,0,0,1,38.149,2.3c20.862,2.744,36.305,7.338,48.6,14.458,14.031,8.123,24.663,20.017,32.5,36.36,19.226,40.08,32.27,98.491,18.069,138.638-6.656,18.819-18.709,32.484-35.823,40.615-41.614,19.771-89.584,21.93-139.185,22.511-4.129.048-8.374.157-12.868.271-6.443.164-13.106.334-19.89.334Z" transform="translate(0)" style="fill:#727272"/><path d="M431.948,677.1c-27.024,0-57.65-2.433-79.893-20.711-15.336-12.6-26.526-34.557-33.26-65.286-5.233-23.883-7.614-53.223-6.7-82.629a92.047,92.047,0,0,1,16.2-50.153c10.051-14.369,23.757-24.632,39.634-29.684,28.911-9.2,81.476-19.94,134.471-19.94a301.444,301.444,0,0,1,39,2.35c21.738,2.86,37.946,7.714,51.009,15.277,15.2,8.8,26.681,21.612,35.1,39.171,19.807,41.29,33.158,101.709,18.336,143.611-7.253,20.506-20.428,35.415-39.158,44.314-42.8,20.335-91.543,22.549-141.895,23.139-4.051.047-8.237.153-12.668.266l-.111-.029c-6.479.165-13.178.3-20.055.3Z" transform="translate(0)" style="fill:#424242;opacity:0.71"/><path d="M432.408,674.46c-26.1,0-55.6-2.31-76.439-19.437-14.307-11.757-24.843-32.69-31.313-62.219-5.168-23.582-7.517-52.619-6.615-81.761A86.35,86.35,0,0,1,333.2,464c9.309-13.308,21.966-22.8,36.6-27.46,28.719-9.138,80.959-19.809,133.671-19.809a297.506,297.506,0,0,1,38.486,2.315c21.045,2.768,36.625,7.4,49.031,14.585,14.155,8.2,24.88,20.194,32.789,36.681,19.4,40.433,32.555,99.36,18.229,139.86-6.716,18.985-18.875,32.771-36.14,40.973-41.98,19.946-90.372,22.124-140.411,22.71-4.166.048-8.448.158-12.982.273-6.5.165-13.221.337-20.065.337Z" transform="translate(0)" style="fill:#6b5245"/><g style="clip-path:url(#a)"><rect x="315.535" y="405.023" width="49.865" height="288.308" style="fill:#711c43"/><rect x="364.543" y="405.023" width="49.865" height="288.308" style="fill:#b71046"/><rect x="413.552" y="405.023" width="49.865" height="288.308" style="fill:#e90101"/><rect x="462.56" y="405.023" width="49.865" height="288.308" style="fill:#f5640b"/><rect x="511.568" y="405.023" width="49.865" height="288.308" style="fill:#fe9402"/><rect x="560.577" y="405.023" width="49.865" height="288.308" style="fill:#cdd555"/><rect x="609.585" y="405.023" width="49.865" height="288.308" style="fill:#8a90bc"/></g><ellipse cx="538.128" cy="188.576" rx="14.066" ry="13.525" style="fill:#595959"/><path d="M551.319,183.914a14.043,14.043,0,0,0-13.191-8.864,14.35,14.35,0,0,0-8.548,2.8A10.985,10.985,0,0,0,527.693,184a11.824,11.824,0,0,0,23.63,0C551.323,183.969,551.319,183.942,551.319,183.914Z" transform="translate(0)" style="fill:#666"/><ellipse cx="703.475" cy="157.077" rx="12.443" ry="12.877" style="fill:#595959"/><path d="M703.475,144.2a12.409,12.409,0,0,0-11.223,7.345,12.617,12.617,0,0,0,12.39,11.8A12.41,12.41,0,0,0,715.866,156,12.617,12.617,0,0,0,703.475,144.2Z" transform="translate(0)" style="fill:#666"/><circle cx="499.965" cy="698.389" r="13.977" style="fill:#919191"/><circle cx="499.965" cy="698.569" r="13.797" style="fill:#424242"/><path d="M500.044,712.1a13.85,13.85,0,0,1-10.353-23.055A13.886,13.886,0,1,0,512.135,705,13.848,13.848,0,0,1,500.044,712.1Z" transform="translate(0)" style="fill:#919191"/><circle cx="499.875" cy="698.479" r="12.67" style="fill:#8b8b8b"/><path d="M512.457,697.01a12.67,12.67,0,0,1-25.188,2.758,12.67,12.67,0,1,0,25.188-2.758Z" transform="translate(0)" style="fill:#b2b2b2"/><circle cx="499.875" cy="698.479" r="10.641" style="fill:#666"/><circle cx="499.875" cy="698.479" r="9.694" style="fill:#b2b2b2"/><circle cx="499.875" cy="698.479" r="9.559" style="fill:#8b8b8b"/><path d="M441.633,666.822c-22.545,0-47.923-1.887-65.211-16.093-25.81-21.211-33.458-78.752-32.01-125.544.9-28.991,17.9-53.68,42.3-61.445,27.715-8.818,75.46-17.713,119.651-17.713a264.14,264.14,0,0,1,34.149,2.051c31.154,4.1,54.838,12.948,69.163,42.809a235.355,235.355,0,0,1,18.858,59.548c4.174,24.4,3.3,46.023-2.54,62.52-5.477,15.485-15.35,26.709-29.344,33.357-36.968,17.563-80.22,19.488-125,20.013-3.842.045-7.767.116-11.921.222-5.876.149-11.953.275-18.1.275Z" transform="translate(0)" style="opacity:0.76;fill:url(#b)"/><path d="M332.646,522.818c1.067-34.468,21.365-62.814,49.8-71.862,41.107-13.08,114.209-24.56,169.713-17.258,21.932,2.885,39.921,7.992,54.27,18.383-15.845-17.96-37.684-25.456-66.172-29.2-55.5-7.3-128.607,4.179-169.714,17.258-28.437,9.049-48.735,37.395-49.8,71.862-1.6,51.49,6.678,116.225,36.806,140.982q2.107,1.732,4.342,3.257C337.928,627.57,331.194,569.705,332.646,522.818Z" transform="translate(0)" style="fill:#0a0a0a;opacity:0.3"/><path d="M370.546,440.135c-28.437,9.049-48.735,37.394-49.8,71.862-1.6,51.49,6.678,116.225,36.806,140.982,28.039,23.041,73.35,18.567,107.133,18.171,45.78-.536,96.094-2.258,138.282-22.3C664.823,619.46,643.8,522.736,619.7,472.486c-15.951-33.251-41.934-44.675-79.437-49.609C484.756,415.576,411.653,427.056,370.546,440.135Z" transform="translate(0)" style="fill:none"/><ellipse cx="569.1" cy="507.763" rx="18.395" ry="29.215" transform="translate(-85.61 116.543) rotate(-10.88)" style="fill:#fff;opacity:0.68"/><path d="M579.777,707.211c-16.357,0-28.292-5.577-29.023-13.561-.841-9.184,13.469-17.748,32.578-19.5,2.2-.2,4.4-.3,6.554-.3,16.357,0,28.292,5.577,29.023,13.561.841,9.184-13.469,17.748-32.578,19.5C584.135,707.109,581.931,707.211,579.777,707.211Z" transform="translate(0)" style="fill:#424242;opacity:0.71"/><path d="M587.155,706.364c-2.214.2-4.436.306-6.606.306-16.487,0-28.517-5.621-29.254-13.669a10.039,10.039,0,0,1,2.261-6.982,10.343,10.343,0,0,0-2.8,7.631c.731,7.984,12.666,13.561,29.023,13.561,2.154,0,4.358-.1,6.554-.3,9.754-.893,18.251-3.563,24.128-7.184C604.591,703.066,596.438,705.514,587.155,706.364Z" transform="translate(0)" style="fill:#c4c4c4;opacity:0.39"/><path d="M618.909,687.41c-.731-7.984-12.666-13.561-29.023-13.561-2.154,0-4.359.1-6.554.3-12.908,1.181-23.618,5.474-28.956,10.965,5.5-5.231,15.933-9.282,28.415-10.424,2.195-.2,4.4-.3,6.554-.3,16.357,0,28.292,5.577,29.023,13.561.273,2.98-1.058,5.894-3.622,8.532C617.667,693.705,619.2,690.6,618.909,687.41Z" transform="translate(0)" style="fill:#c4c4c4;opacity:0.39"/><ellipse cx="584.948" cy="690.519" rx="32.732" ry="15.364" transform="translate(-60.517 56.204) rotate(-5.231)" style="fill:#595959"/><g style="clip-path:url(#c)"><rect x="545.971" y="690.71" width="70.917" height="1.224" transform="translate(-63.86 59.193) rotate(-5.525)" style="fill:#424242"/><rect x="545.744" y="688.36" width="70.917" height="1.224" transform="translate(-63.635 59.16) rotate(-5.525)" style="fill:#424242"/><rect x="545.517" y="686.01" width="70.917" height="1.224" transform="matrix(0.995, -0.096, 0.096, 0.995, -63.41, 59.127)" style="fill:#424242"/><rect x="545.289" y="683.66" width="70.917" height="1.224" transform="translate(-63.185 59.094) rotate(-5.525)" style="fill:#424242"/><rect x="545.062" y="681.31" width="70.917" height="1.224" transform="translate(-62.959 59.061) rotate(-5.525)" style="fill:#424242"/><rect x="544.835" y="678.96" width="70.917" height="1.224" transform="translate(-62.734 59.029) rotate(-5.525)" style="fill:#424242"/><rect x="544.607" y="676.61" width="70.917" height="1.224" transform="matrix(0.995, -0.096, 0.096, 0.995, -62.509, 58.996)" style="fill:#424242"/><rect x="544.38" y="674.26" width="70.917" height="1.224" transform="translate(-62.284 58.963) rotate(-5.525)" style="fill:#424242"/><rect x="546.877" y="707.219" width="70.917" height="1.224" transform="translate(-65.446 59.357) rotate(-5.525)" style="fill:#424242"/><rect x="546.65" y="704.869" width="70.917" height="1.224" transform="translate(-65.22 59.324) rotate(-5.525)" style="fill:#424242"/><rect x="546.422" y="702.519" width="70.917" height="1.224" transform="translate(-64.995 59.291) rotate(-5.525)" style="fill:#424242"/><rect x="546.195" y="700.169" width="70.917" height="1.224" transform="translate(-64.77 59.258) rotate(-5.525)" style="fill:#424242"/><rect x="545.968" y="697.819" width="70.917" height="1.224" transform="translate(-64.545 59.225) rotate(-5.525)" style="fill:#424242"/><rect x="545.74" y="695.469" width="70.917" height="1.224" transform="translate(-64.319 59.193) rotate(-5.525)" style="fill:#424242"/><rect x="545.513" y="693.119" width="70.917" height="1.224" transform="translate(-64.094 59.16) rotate(-5.525)" style="fill:#424242"/><rect x="545.286" y="690.769" width="70.917" height="1.224" transform="translate(-63.869 59.127) rotate(-5.525)" style="fill:#424242"/></g><rect x="498.786" y="688.192" width="1.984" height="9.333" style="fill:#666"/><rect x="498.786" y="699.554" width="1.984" height="9.378" style="fill:#666"/><circle cx="472.612" cy="695.037" r="9.363" style="fill:#919191"/><circle cx="472.567" cy="695.082" r="9.182" style="fill:#424242"/><circle cx="472.477" cy="695.172" r="8.551" style="fill:#8b8b8b"/><path d="M477.516,695.172a4.989,4.989,0,0,0-3.119-4.624l-1.15-3.889-.1-.02a3.963,3.963,0,0,0-1.515.009l-.034.056-.95,3.846a4.987,4.987,0,0,0,.007,9.247l.943,3.815.034.056a5.706,5.706,0,0,0,1.535.056l.383-.068.833-3.857A4.989,4.989,0,0,0,477.516,695.172Z" transform="translate(0)" style="fill:#666;opacity:0.52"/><path d="M472.549,703.209a4.159,4.159,0,0,1-.5-.028l-.935-3.783-.256-.1a4.445,4.445,0,0,1-.007-8.244l.256-.1.942-3.812a3.827,3.827,0,0,1,.411-.024,3.066,3.066,0,0,1,.36.022l1.128,3.819.241.1a4.445,4.445,0,0,1-.008,8.247l-.266.108-.817,3.781C472.893,703.2,472.715,703.209,472.549,703.209Z" transform="translate(0)" style="fill:#8b8b8b"/><circle cx="472.477" cy="695.172" r="4.133" style="fill:#b2b2b2"/><circle cx="449.349" cy="695.037" r="9.363" style="fill:#919191"/><circle cx="449.303" cy="695.082" r="9.182" style="fill:#424242"/><circle cx="449.213" cy="695.172" r="8.551" style="fill:#8b8b8b"/><path d="M454.252,695.172a4.989,4.989,0,0,0-3.119-4.624l-1.149-3.889-.1-.02a3.963,3.963,0,0,0-1.515.009l-.034.056-.95,3.846a4.987,4.987,0,0,0,.007,9.247l.943,3.815.034.056a5.707,5.707,0,0,0,1.535.056l.383-.068.834-3.857A4.988,4.988,0,0,0,454.252,695.172Z" transform="translate(0)" style="fill:#666;opacity:0.52"/><path d="M449.286,703.209a4.163,4.163,0,0,1-.5-.028l-.935-3.783-.256-.1a4.446,4.446,0,0,1-.007-8.244l.256-.1.942-3.812a3.842,3.842,0,0,1,.411-.024,3.066,3.066,0,0,1,.36.022l1.128,3.819.242.1a4.445,4.445,0,0,1-.009,8.247l-.266.108-.817,3.781C449.629,703.2,449.451,703.209,449.286,703.209Z" transform="translate(0)" style="fill:#8b8b8b"/><circle cx="449.213" cy="695.172" r="4.133" style="fill:#b2b2b2"/><circle cx="426.626" cy="695.037" r="9.363" style="fill:#919191"/><circle cx="426.581" cy="695.082" r="9.182" style="fill:#424242"/><circle cx="426.49" cy="695.172" r="8.551" style="fill:#8b8b8b"/><path d="M430.758,697.825a4.989,4.989,0,0,0-.181-5.575l1.1-3.9-.071-.068a3.953,3.953,0,0,0-1.287-.8l-.059.03-2.851,2.75a4.987,4.987,0,0,0-4.913,7.834l-1.232,3.731v.066a5.7,5.7,0,0,0,1.27.864l.36.146,2.758-2.822A4.988,4.988,0,0,0,430.758,697.825Z" transform="translate(0)" style="fill:#666;opacity:0.52"/><path d="M422.276,701.987a4.1,4.1,0,0,1-.405-.288l1.221-3.7-.162-.223a4.445,4.445,0,0,1,4.381-6.984l.272.048,2.825-2.726a3.616,3.616,0,0,1,.361.2,2.868,2.868,0,0,1,.293.21l-1.077,3.834.153.211a4.445,4.445,0,0,1-4.395,6.979l-.282-.051-2.705,2.767C422.572,702.163,422.416,702.075,422.276,701.987Z" transform="translate(0)" style="fill:#8b8b8b"/><circle cx="426.49" cy="695.172" r="4.133" style="fill:#b2b2b2"/><path d="M682.644,447.557c-7.916-29.4-32.179-39.732-50.746-50.92-51.921-31.286-227.584-38.545-305.038,10.6-16.968,10.768-29.223,24.242-34.431,40.764-2.5,7.95-6.414,37-5.376,60.856,1.037-22.564,20-64.445,29.567-73.658,21.008-20.23,71.7-39.89,148.872-44.869,48.241-3.112,99.075-2.269,137.46,7.262s66.007,27.233,77.419,50.316c2.86,5.785,3.634,11.037,5.751,14.893Q684.6,454.847,682.644,447.557Z" transform="translate(0)" style="fill:#5e5e5e"/><ellipse cx="539.58" cy="180.866" rx="5.058" ry="3.235" transform="translate(-4.214 13.096) rotate(-1.385)" style="fill:#a0a0a0;opacity:0.81"/><ellipse cx="705.01" cy="148.869" rx="2.853" ry="5.058" transform="translate(455.261 824.758) rotate(-81.643)" style="fill:#a0a0a0;opacity:0.81"/><path d="M300.177,421.749c12.941-17.93,46.094-45.39,97.752-61.762,71.194-22.564,122.116-23.265,170.956-14.236-23.671-6.824-49.534-10.215-79-9.164C429.318,338.749,335.458,363.635,300.177,421.749Z" transform="translate(0)" style="fill:#d34444"/><path d="M420.925,937.592a2.267,2.267,0,0,0,2.421-2.334,2.071,2.071,0,0,0-2.29-2.2,2.2,2.2,0,0,0-2.421,2.139v.064A2.277,2.277,0,0,0,420.925,937.592Z" transform="translate(0)" style="fill:#595959"/><path d="M476.412,941.87c-.13-.778,1.178-.908,1.047-1.556-.131-.907-.916-.907-1.439-.843-2.945.325-3.534,1.3-3.795,3.176a4.023,4.023,0,0,0,1.308,2.917,21.625,21.625,0,0,1-.523,4.407.925.925,0,0,0-.524.583,56.18,56.18,0,0,1-1.766,6.287,3.239,3.239,0,0,0-.655,1.232v.324c-.654,1.231-1.374,2.138-2.224,2.138-.393,0-.524-1.037-.524-2.4,0-2.4,1.243-9.073,1.243-10.5,0-1.88.328-3.5.328-5.056,0-.648-.459-.842-1.047-.842-.458,0-.72.324-1.178.324-1.9,0-2.16,1.037-2.16,2.592,0,.649,0,9.852-.13,11.018-.131,1.945-1.244,4.343-3.337,4.343-1.9,0-2.814-2.593-2.814-5.38a31.409,31.409,0,0,1,.785-6.8c.2-.648,1.047-3.629,1.047-4.018,0-.713-.065-.907-.851-.907-3.01.064-3.6.324-4.056,1.944a36.319,36.319,0,0,0-.982,8.037v.842c-.72,2.2-1.5,4.667-3.533,4.8-1.375.065-1.833-3.37-1.833-6.935,0-7.064,2.029-13.934,2.291-21,.065-.648-.393-1.1-1.178-1.1a9.691,9.691,0,0,1-1.832.065c-.785,0-1.113.324-1.178,1.1-.654,7.065-2.094,15.685-2.094,22.555v.129c-.72,2.269-1.5,5.185-3.664,5.315-1.374.065-1.832-3.37-1.832-6.935,0-7.065,2.028-13.935,2.29-21,.065-.648-.393-1.1-1.178-1.1-1.047,0-1.374-.065-1.9-.065-.785,0-1.112.324-1.177,1.1-.655,7.065-2.094,15.685-2.094,22.555v.129c-.72,2.269-1.5,5.185-3.664,5.315-1.375.065-1.833-3.37-1.833-6.935,0-7.065,2.029-13.935,2.291-21,.065-.648-.393-1.1-1.178-1.1-1.113,0-1.44-.065-1.963-.065-.785,0-1.113.324-1.178,1.1-.654,7.065-2.094,15.685-2.094,22.555v1.037c-.654,2.268-1.636,4.731-2.879,4.731-.589-.065-1.047-.907-1.047-2.852,0-3.564.327-8.49.654-12.249.066-.454-.13-.908-.654-.908-.458-.064-1.9-.194-2.421-.194-.785,0-1.112.454-1.112,1.3v1.3c.065,4.343-.393,7.778-.393,11.861,0,2.917,1.57,4.926,3.533,4.926,2.094,0,3.73-1.75,4.843-3.824.588,2.2,1.7,4.148,3.926,4.148,2.093,0,4.122-2.269,5.5-4.8.523,2.463,1.636,4.8,4.057,4.8,2.094,0,4.122-2.269,5.5-4.8.524,2.463,1.636,4.8,4.057,4.8,2.029,0,4.057-2.2,5.431-4.6.72,2.917,2.356,5.12,5.431,5.12,2.552,0,3.272-1.037,4.908-3.37.523,1.3.719,3.759,2.224,3.759,2.094,0,3.861-2.4,5.039-5.12a8.291,8.291,0,0,0,6.543,3.629c3.533,0,6.543-2.527,6.282-6.351C484.722,950.36,477,944.786,476.412,941.87Zm.916,17.434c-1.046,0-2.682-.648-2.748-2.009-.065-.778,1.767-1.167,2.421-1.556.524-.324.655-.583.655-.777-.066-.454-.72-.778-1.44-.778a4.5,4.5,0,0,0-2.421.842c.2-.907,1.57-5.573,1.9-7.842a14.918,14.918,0,0,1,5.169,9.333C481.058,959.045,478.179,959.3,477.328,959.3Z" transform="translate(0)" style="fill:#595959"/><path d="M535.957,937.592a2.267,2.267,0,0,0,2.421-2.334,2.071,2.071,0,0,0-2.29-2.2,2.2,2.2,0,0,0-2.421,2.139v.064A2.277,2.277,0,0,0,535.957,937.592Z" transform="translate(0)" style="fill:#595959"/><path d="M573.777,963.128c-1.178-.778-2.028-2.009-1.832-7.065.131-3.24.785-7.712.785-10.888,0-1.426-.654-3.046-2.486-3.046-2.29,0-5.628,4.666-6.675,6.74.131-1.231.524-4.861.589-6.092s.066-1.3-2.094-1.3c-1.439,0-1.569.259-1.569.777,0,2.982-.263,6.417-.524,9.852-.786,1.685-1.833,3.37-3.338,3.37a3.006,3.006,0,0,1-1.308-.324,9.938,9.938,0,0,0,1.113-4.342,3.117,3.117,0,0,0-3.141-3.241,3.709,3.709,0,0,0-3.861,4.018c0,1.815,1.9,3.889,3.337,4.861a4.97,4.97,0,0,1-4.515,2.722c-2.813,0-3.8-5.12-3.8-7,0-3.63,1.309-7.713,5.627-7.713,2.945,0,2.945,1.944,4.188,1.944.131,0,.524-.194.524-.388,0-2.139-3.4-3.889-5.17-3.889-6.02,0-10.207,4.731-10.207,10.629a11.3,11.3,0,0,0,.589,3.565c-.589,1.49-1.309,2.657-2.225,2.657-.589,0-1.047-.843-1.047-2.787,0-3.565.327-8.49.654-12.249.066-.454-.131-.908-.654-.908-.458-.065-1.9-.194-2.421-.194-.785,0-1.113.453-1.113,1.3v1.3c0,2.269-.13,4.213-.2,6.157a1.432,1.432,0,0,0-.2.324c-.72,1.945-1.636,7.324-3.8,7.324-.655,0-2.029-.907-2.029-3.435,0-4.083,1.374-12.249,1.571-13.675,2.093-.454,3.926-.324,6.412-1.037,1.113-.324.458-1.62-.785-1.491a34.906,34.906,0,0,1-5.431,0c.065-2.139.589-3.5.589-5.7v-.2c0-.583-.262-1.037-.851-1.037-1.178,0-3.01.389-3.01,2.009,0,1.686-.326,3.176-.262,4.861-1.177.065-2.224-.259-3.4-.259-.85,0-1.047,1.556-1.047,2.139,0,.648.066,1.1.458,1.1a30.272,30.272,0,0,0,3.73-.324c-.327,4.277-.85,6.675-1.178,9.657,0,.194-.066.453-.066.713-.719,2.268-2.093,5.768-3.205,5.768A1.464,1.464,0,0,1,519.4,957.1,42.575,42.575,0,0,1,520.58,946.8a11.062,11.062,0,0,0,.654-2.527c0-.843-1.374-1.3-2.093-1.3-1.178,0-1.113.648-1.571,1.685-.851-.648-1.047-1.814-3.337-1.814-4.188,0-6.74,6.74-6.74,10.953,0,.713-.065,1.1-.065,1.491,0,2.4-1.374,5.379-2.814,5.379-1.243,0-1.636-3.37-1.636-4.8a31.6,31.6,0,0,1,1.7-8.426,6.148,6.148,0,0,0,.916-2.268c0-.907-1.047-2.4-2.094-2.4-1.178,0-1.9.648-3.141.648-1.963,0-3.272-1.231-4.384-1.231a1.026,1.026,0,0,0-1.113,1.1c0,1.75,1.9,1.426,1.44,3.63-.458,2.074-1.832,7.713-2.617,9.851a.48.48,0,0,0-.066.324,1.892,1.892,0,0,0,.132.649c-.459.777-.982,1.3-1.637,1.3s-2.028-.908-2.028-3.435c0-4.083,1.374-12.25,1.571-13.676,2.094-.453,3.925-.324,6.412-1.037,1.112-.324.458-1.62-.786-1.49a35.035,35.035,0,0,1-5.431,0c.066-2.139.589-3.5.589-5.7,0-.583-.261-1.037-.85-1.037-1.178,0-3.01.389-3.01,2.009,0,1.686-.327,3.176-.262,4.861-1.177.065-2.224-.259-3.4-.259-.851,0-1.047,1.556-1.047,2.139,0,.648.065,1.1.458,1.1a30.272,30.272,0,0,0,3.73-.324c-.327,4.277-.851,6.675-1.178,9.657a53.122,53.122,0,0,0-.458,5.573c0,2.787,2.42,5.056,4.449,5.056,3.6,0,6.543-7.259,6.543-10.24v-.389c.393-1.75.655-3.5.982-4.991.065-.194.262-.778.785-.778,1.178,0,1.309.843,1.309,1.75,0,2.4-.851,6.676-.851,9.2,0,2.462.654,5.509,3.534,5.509a6.357,6.357,0,0,0,5.5-3.63c.785,1.88,2.094,3.37,3.926,3.37,1.767,0,3.272-1.3,4.319-2.527.262.648.654,2.4,2.552,2.4,1.766,0,3.141-1.491,4.188-3.371a4.919,4.919,0,0,0,4.252,3.76c2.029,0,3.926-2.4,5.1-4.991.131,2.722,1.636,4.537,3.534,4.537,1.963,0,3.6-1.556,4.711-3.5a6.643,6.643,0,0,0,5.758,3.37c3.6,0,5.758-2.333,7.655-5.12a9.921,9.921,0,0,0,1.833.324,4.887,4.887,0,0,0,3.468-2.009c-.131,2.074-.262,4.083-.262,5.9,0,.648.131.907.589,1.037a5.742,5.742,0,0,0,1.832.065c.654,0,.785.065.916-.778.065-.583.458-7.518.458-8.037,0-1.426,3.468-7.453,5.169-7.453.328,0,.589.583.589.972,0,3.111-.981,8.166-.981,11.407,0,3.435,1.7,4.6,2.421,4.991a6.445,6.445,0,0,0,2.813.713C573.777,963.776,574.235,963.387,573.777,963.128Zm-57.45-6.611c-.066.907-1.7,3.241-2.945,3.241-1.374,0-1.963-3.889-1.9-6.481.065-3.047,1.57-8.491,3.01-8.491,1.9,0,2.159,4.537,2.159,5.963C516.654,952.369,516.458,954.9,516.327,956.517Zm37.559-2.139a4.186,4.186,0,0,1-1.374-3.111c0-.583.2-1.879,1.047-1.879.785,0,1.046,1.426,1.046,2.009A11.079,11.079,0,0,1,553.886,954.378Z" transform="translate(0)" style="fill:#595959"/><path d="M588.826,955.48c-.327-5.12-8.114-10.694-8.637-13.611-.13-.777,1.178-.907,1.047-1.555-.13-.907-.916-.907-1.44-.843-2.944.324-3.533,1.3-3.794,3.176a4.027,4.027,0,0,0,1.308,2.917c.066,2.268-1.177,8.555-2.617,11.018a5.056,5.056,0,0,0-.851,1.491c-.131.777.458,1.166.982.648.458-.389.392-.648.85-.973,1.047,2.4,4.319,4.084,6.806,4.084C586.079,961.832,589.023,959.3,588.826,955.48Zm-7.72,3.824c-1.047,0-2.683-.648-2.749-2.009-.065-.778,1.767-1.167,2.421-1.556.523-.324.655-.583.655-.777-.066-.454-.721-.778-1.44-.778a4.5,4.5,0,0,0-2.421.842c.2-.907,1.571-5.574,1.9-7.842a14.907,14.907,0,0,1,5.168,9.333C584.835,959.045,581.956,959.3,581.106,959.3Z" transform="translate(0)" style="fill:#595959"/><path d="M63.2,959.2c0,2.5-1.2,3.7-2.6,3.7a1.928,1.928,0,0,1-2.1-1.4,2.2,2.2,0,0,1-1.8.8,2.808,2.808,0,0,1,0-5.6,2.175,2.175,0,0,1,1.6.7v-.5h1.6v3.9c0,.8.3,1.4,1,1.4.9,0,1.7-.9,1.7-3a5.233,5.233,0,0,0-5.4-5.3,5.552,5.552,0,0,0-5.6,5.7,5.624,5.624,0,0,0,5.9,5.7,11.935,11.935,0,0,0,2.9-.4v.6a8.119,8.119,0,0,1-2.9.4,6.2,6.2,0,1,1-.3-12.4A5.593,5.593,0,0,1,63.2,959.2Zm-4.9.3a1.347,1.347,0,0,0-1.3-1.4,1.238,1.238,0,0,0-1.3,1.4,1.261,1.261,0,0,0,1.3,1.3C57.8,960.9,58.3,960.3,58.3,959.5Z" transform="translate(0)" style="fill:#595959"/><path d="M69.4,955.1v2a2.244,2.244,0,0,0-2.6,2.4v4.3H64.9v-8.6h1.9v1.4A2.632,2.632,0,0,1,69.4,955.1Z" transform="translate(0)" style="fill:#595959"/><path d="M74.6,962.3a2.641,2.641,0,0,0,2.2-1.1l1.5.9a4.346,4.346,0,0,1-3.8,1.9,4.414,4.414,0,0,1-4.7-4.5,4.36,4.36,0,0,1,4.5-4.5,4.313,4.313,0,0,1,4.3,4.5,2.2,2.2,0,0,1-.1.8H71.7A2.832,2.832,0,0,0,74.6,962.3Zm2.3-3.5a2.375,2.375,0,0,0-2.5-2.1,2.506,2.506,0,0,0-2.6,2.1Z" transform="translate(0)" style="fill:#595959"/><path d="M88.9,955.2v8.6H87v-1.2a3.692,3.692,0,0,1-3,1.5,4.443,4.443,0,0,1-4.3-4.5,4.317,4.317,0,0,1,4.3-4.5,3.613,3.613,0,0,1,3,1.4v-1.2h1.9Zm-1.8,4.3a2.7,2.7,0,1,0-2.7,2.7A2.571,2.571,0,0,0,87.1,959.5Z" transform="translate(0)" style="fill:#595959"/><path d="M91.1,951.3H93v12.5H91.1Z" transform="translate(0)" style="fill:#595959"/><path d="M102.9,955.2l-3.3,8.6H97.5l-3.3-8.6h2l2.4,6.5,2.4-6.5Z" transform="translate(0)" style="fill:#595959"/><path d="M104.2,955.2h1.9v8.9c0,2.4-1.2,3.5-3.5,3.3v-1.8c1.1.1,1.7-.3,1.7-1.5v-8.9Zm-.2-2.4a1.2,1.2,0,0,1,2.4,0,1.2,1.2,0,1,1-2.4,0Z" transform="translate(0)" style="fill:#595959"/><path d="M116,955.2l-3.3,8.8c-.8,2.2-2.2,3.3-4.2,3.2v-1.7a2.076,2.076,0,0,0,2.3-1.7l.1-.2-3.6-8.4h2l2.6,6.2,2.2-6.2Z" transform="translate(0)" style="fill:#595959"/><path d="M58.9,938.7a3.633,3.633,0,0,1-3.6,3.8h-3v-7.6h3A3.633,3.633,0,0,1,58.9,938.7Zm-1,0a2.722,2.722,0,0,0-2.6-2.9h-2v5.7h2A2.577,2.577,0,0,0,57.9,938.7Z" transform="translate(0)" style="fill:#595959"/><path d="M67,941.6v1H62.4V935h4.5v1H63.4v2.3h3.2v.9H63.4v2.4Z" transform="translate(0)" style="fill:#595959"/><path d="M70,940.8l.9-.5a1.987,1.987,0,0,0,2,1.4c1.1,0,1.6-.5,1.6-1.2,0-.8-.7-1-1.8-1.4-1.2-.4-2.4-.8-2.4-2.2a2.208,2.208,0,0,1,2.4-2.2,2.664,2.664,0,0,1,2.6,1.7l-.8.5a1.743,1.743,0,0,0-1.7-1.2c-.8,0-1.4.4-1.4,1.1s.5,1,1.6,1.3c1.3.4,2.6.8,2.6,2.3a2.333,2.333,0,0,1-2.6,2.2A2.847,2.847,0,0,1,70,940.8Z" transform="translate(0)" style="fill:#595959"/><path d="M80,934.9v7.6H79v-7.6Z" transform="translate(0)" style="fill:#595959"/><path d="M91.3,939.2a3.47,3.47,0,0,1-3.7,3.5,3.888,3.888,0,0,1-4-4,3.974,3.974,0,0,1,7.3-2.2l-.9.5a2.775,2.775,0,0,0-2.4-1.4,3,3,0,0,0,0,6,2.5,2.5,0,0,0,2.7-2H87.5v-.9h3.8Z" transform="translate(0)" style="fill:#595959"/><path d="M100.6,934.9v7.6h-.8l-3.9-5.7v5.7h-1v-7.6h.8l3.9,5.7v-5.7Z" transform="translate(0)" style="fill:#595959"/><path d="M109.1,941.6v1h-4.6V935H109v1h-3.5v2.3h3.2v.9h-3.2v2.4Z" transform="translate(0)" style="fill:#595959"/><path d="M119.2,938.7a3.633,3.633,0,0,1-3.6,3.8h-3v-7.6h3A3.7,3.7,0,0,1,119.2,938.7Zm-1,0a2.722,2.722,0,0,0-2.6-2.9h-2v5.7h2A2.577,2.577,0,0,0,118.2,938.7Z" transform="translate(0)" style="fill:#595959"/><path d="M133.2,940.4a2.22,2.22,0,0,1-2.2,2.2h-3.3V935h3a2.051,2.051,0,0,1,2.1,2.1,1.943,1.943,0,0,1-.8,1.6A1.658,1.658,0,0,1,133.2,940.4Zm-4.5-4.6v2.3h2a1.135,1.135,0,0,0,1.1-1.2,1.2,1.2,0,0,0-1.1-1.2h-2Zm3.5,4.5a1.155,1.155,0,0,0-1.2-1.2h-2.3v2.5H131A1.24,1.24,0,0,0,132.2,940.3Z" transform="translate(0)" style="fill:#595959"/><path d="M139.4,939.4v3.1h-1v-3.1l-2.7-4.5h1.1l2.1,3.6,2.1-3.6h1.1Z" transform="translate(0)" style="fill:#595959"/><path d="M210.957,934.972v7.7h-.825l-3.96-5.754v5.754h-1.024v-7.7h.826l3.96,5.743v-5.743Z" transform="translate(0)" style="fill:#595959"/><path d="M219.405,941.705v.968h-4.6v-7.7h4.544v.967H215.83v2.367h3.245v.957H215.83v2.442Z" transform="translate(0)" style="fill:#595959"/><path d="M222.286,934.972h1.078l1.76,6.337,1.87-6.337h1.034l1.87,6.337,1.761-6.337h1.078l-2.211,7.7h-1.188l-1.826-6.15-1.826,6.15H224.5Z" transform="translate(0)" style="fill:#595959"/><path d="M243.22,934.972v7.7h-1.013v-6.6l-1.639.484-.253-.88,2.025-.7Z" transform="translate(0)" style="fill:#595959"/><path d="M249.336,934.972v7.7h-1.013v-6.6l-1.638.484-.253-.88,2.024-.7Z" transform="translate(0)" style="fill:#595959"/><path d="M258.542,941.21h-.935v1.463h-1.023V941.21h-3.928v-.957l2.762-5.281h1.1l-2.762,5.281h2.827v-2.179h1.023v2.179h.935Z" transform="translate(0)" style="fill:#595959"/><path d="M209.959,959.308h-1.865v4.316h-2.451V951.191h4.973a4.127,4.127,0,0,1,4.138,4.121,4.053,4.053,0,0,1-2.4,3.624l2.753,4.688h-2.646Zm-1.865-2.149h2.522a1.845,1.845,0,0,0,0-3.677h-2.522Z" transform="translate(0)" style="fill:#595959"/><path d="M220.434,961.8a2.461,2.461,0,0,0,1.989-.889l1.847,1.067a4.493,4.493,0,0,1-3.872,1.9,4.691,4.691,0,1,1-.177-9.378,4.49,4.49,0,0,1,4.493,4.689,5.227,5.227,0,0,1-.089.941h-6.7A2.333,2.333,0,0,0,220.434,961.8Zm1.989-3.446a2.154,2.154,0,0,0-2.2-1.794,2.214,2.214,0,0,0-2.327,1.794Z" transform="translate(0)" style="fill:#595959"/><path d="M229.114,956.945v3.7c0,.959.694.976,2.008.905v2.078c-3.215.355-4.3-.586-4.3-2.983v-3.7h-1.545v-2.2h1.545v-1.794l2.291-.692v2.486h2.008v2.2Z" transform="translate(0)" style="fill:#595959"/><path d="M237.869,954.565v2.558a2.217,2.217,0,0,0-2.7,2.256v4.245h-2.291v-8.881h2.291v1.528A2.734,2.734,0,0,1,237.869,954.565Z" transform="translate(0)" style="fill:#595959"/><path d="M238.4,959.184a4.7,4.7,0,1,1,4.69,4.689A4.64,4.64,0,0,1,238.4,959.184Zm7.1,0a2.407,2.407,0,1,0-2.415,2.451A2.362,2.362,0,0,0,245.5,959.184Z" transform="translate(0)" style="fill:#595959"/><path d="M262.176,953.535h-3.357v10.089h-2.451V953.535h-3.34v-2.344h9.148Z" transform="translate(0)" style="fill:#595959"/><path d="M262.438,951.191H265.1l3.037,9.556,3.019-9.556h2.682l-4.192,12.433h-3.037Z" transform="translate(0)" style="fill:#595959"/><path d="M848.133,938.45a3.648,3.648,0,0,1-3.617,3.813h-2.973v-7.626h2.973A3.648,3.648,0,0,1,848.133,938.45Zm-.969,0a2.669,2.669,0,0,0-2.648-2.855h-1.961V941.3h1.961A2.669,2.669,0,0,0,847.164,938.45Z" transform="translate(0)" style="fill:#595959"/><path d="M851.254,938.45a3.949,3.949,0,1,1,3.943,3.955A3.917,3.917,0,0,1,851.254,938.45Zm6.887,0a2.943,2.943,0,1,0-2.944,2.964A2.911,2.911,0,0,0,858.141,938.45Z" transform="translate(0)" style="fill:#595959"/><path d="M861.783,934.637h1.069l1.742,6.276,1.853-6.276h1.024l1.851,6.276,1.744-6.276h1.067l-2.19,7.626h-1.175l-1.809-6.09-1.809,6.09h-1.177Z" transform="translate(0)" style="fill:#595959"/><path d="M881.27,934.637v7.626h-.819l-3.922-5.7v5.7h-1.011v-7.626h.816l3.922,5.687v-5.687Z" transform="translate(0)" style="fill:#595959"/><path d="M889.5,941.3v.959h-4.3v-7.626h1.014V941.3Z" transform="translate(0)" style="fill:#595959"/><path d="M891.877,938.45a3.949,3.949,0,1,1,3.943,3.955A3.917,3.917,0,0,1,891.877,938.45Zm6.887,0a2.943,2.943,0,1,0-2.944,2.964A2.911,2.911,0,0,0,898.764,938.45Z" transform="translate(0)" style="fill:#595959"/><path d="M907.418,940.552h-3.432l-.621,1.711h-1.078l2.844-7.626h1.142l2.844,7.626h-1.078Zm-.348-.947-1.373-3.759-1.361,3.759Z" transform="translate(0)" style="fill:#595959"/><path d="M918.906,938.45a3.647,3.647,0,0,1-3.617,3.813h-2.975v-7.626h2.975A3.647,3.647,0,0,1,918.906,938.45Zm-.97,0a2.67,2.67,0,0,0-2.647-2.855h-1.961V941.3h1.961A2.669,2.669,0,0,0,917.936,938.45Z" transform="translate(0)" style="fill:#595959"/><path d="M928.457,935.6v2.474h3.236v.959h-3.236v3.235h-1.014v-7.626h4.391v.958Z" transform="translate(0)" style="fill:#595959"/><path d="M938.168,939.343h-1.8v2.92h-1.012v-7.626h3.049a2.353,2.353,0,0,1,.8,4.575l1.8,3.051h-1.121Zm-1.8-.915h2.037a1.423,1.423,0,0,0,0-2.843h-2.037Z" transform="translate(0)" style="fill:#595959"/><path d="M943.869,938.45a3.95,3.95,0,1,1,3.943,3.955A3.918,3.918,0,0,1,943.869,938.45Zm6.887,0a2.943,2.943,0,1,0-2.944,2.964A2.911,2.911,0,0,0,950.756,938.45Z" transform="translate(0)" style="fill:#595959"/><path d="M962.418,942.263h-1V936.3l-2.5,4.151h-.131l-2.494-4.14v5.948h-1.014v-7.626h1.145l2.429,4.031,2.418-4.031h1.145Z" transform="translate(0)" style="fill:#595959"/><path d="M841.318,952.65a1.221,1.221,0,1,1,1.221,1.222A1.224,1.224,0,0,1,841.318,952.65Zm.266,2.549H843.5v8.85h-1.911Z" transform="translate(0)" style="fill:#595959"/><path d="M845.709,951.128h1.912v12.921h-1.912Z" transform="translate(0)" style="fill:#595959"/><path d="M849.834,951.128h1.912v12.921h-1.912Z" transform="translate(0)" style="fill:#595959"/><path d="M853.96,951.128h1.911v12.921H853.96Z" transform="translate(0)" style="fill:#595959"/><path d="M865.963,955.2v8.85h-1.912v-1.132a3.048,3.048,0,0,1-2.744,1.363,3.305,3.305,0,0,1-3.4-3.647V955.2h1.912v5.24a1.845,1.845,0,0,0,1.983,2.053c1.257,0,2.248-.743,2.248-2.549V955.2Z" transform="translate(0)" style="fill:#595959"/><path d="M874.621,961.553c0,1.771-1.539,2.727-3.451,2.727a3.694,3.694,0,0,1-3.611-2.071l1.646-.956a1.945,1.945,0,0,0,1.965,1.274c.85,0,1.5-.283,1.5-.991,0-1.575-4.761-.691-4.761-3.859,0-1.664,1.434-2.708,3.238-2.708a3.566,3.566,0,0,1,3.276,1.841l-1.612.9a1.723,1.723,0,0,0-1.664-1.008c-.689,0-1.292.3-1.292.938C869.86,959.253,874.621,958.279,874.621,961.553Z" transform="translate(0)" style="fill:#595959"/><path d="M878.7,957.041v4.248c0,1.132.744,1.114,2.2,1.044v1.716c-2.938.355-4.106-.46-4.106-2.76v-4.248h-1.629V955.2h1.629v-1.911l1.91-.567V955.2h2.2v1.842Z" transform="translate(0)" style="fill:#595959"/><path d="M887.354,955.04v2.071a2.337,2.337,0,0,0-2.725,2.478v4.46h-1.912V955.2h1.912v1.487A2.782,2.782,0,0,1,887.354,955.04Z" transform="translate(0)" style="fill:#595959"/><path d="M897.286,955.2v8.85h-1.911v-1.274a3.639,3.639,0,0,1-3.1,1.5,4.662,4.662,0,0,1,0-9.311,3.672,3.672,0,0,1,3.1,1.487V955.2Zm-1.911,4.426a2.8,2.8,0,1,0-2.8,2.832A2.735,2.735,0,0,0,895.375,959.625Z" transform="translate(0)" style="fill:#595959"/><path d="M902.264,957.041v4.248c0,1.132.744,1.114,2.195,1.044v1.716c-2.938.355-4.1-.46-4.1-2.76v-4.248h-1.629V955.2h1.629v-1.911l1.91-.567V955.2h2.195v1.842Z" transform="translate(0)" style="fill:#595959"/><path d="M905.931,952.65a1.221,1.221,0,0,1,2.442,0,1.221,1.221,0,1,1-2.442,0Zm.265,2.549h1.911v8.85H906.2Z" transform="translate(0)" style="fill:#595959"/><path d="M909.826,959.625a4.673,4.673,0,1,1,4.674,4.655A4.621,4.621,0,0,1,909.826,959.625Zm7.435,0a2.762,2.762,0,1,0-2.761,2.8A2.718,2.718,0,0,0,917.261,959.625Z" transform="translate(0)" style="fill:#595959"/><path d="M928.965,958.616v5.433h-1.912V958.81a1.845,1.845,0,0,0-1.983-2.053c-1.257,0-2.248.744-2.248,2.549v4.743H920.91V955.2h1.912v1.133a3.047,3.047,0,0,1,2.744-1.363A3.3,3.3,0,0,1,928.965,958.616Z" transform="translate(0)" style="fill:#595959"/><path d="M937.5,961.553c0,1.771-1.541,2.727-3.451,2.727a3.692,3.692,0,0,1-3.611-2.071l1.646-.956a1.943,1.943,0,0,0,1.965,1.274c.849,0,1.5-.283,1.5-.991,0-1.575-4.762-.691-4.762-3.859,0-1.664,1.434-2.708,3.239-2.708a3.563,3.563,0,0,1,3.275,1.841l-1.611.9a1.725,1.725,0,0,0-1.664-1.008c-.69,0-1.292.3-1.292.938C932.738,959.253,937.5,958.279,937.5,961.553Z" transform="translate(0)" style="fill:#595959"/><path d="M938.83,962.934a1.328,1.328,0,0,1,2.656,0,1.328,1.328,0,0,1-2.656,0Z" transform="translate(0)" style="fill:#595959"/><path d="M942.319,959.625a4.567,4.567,0,0,1,4.673-4.656,4.373,4.373,0,0,1,3.947,2.284l-1.646.956a2.473,2.473,0,0,0-2.318-1.364,2.779,2.779,0,0,0,0,5.558,2.6,2.6,0,0,0,2.353-1.362l1.647.937a4.451,4.451,0,0,1-3.983,2.3A4.577,4.577,0,0,1,942.319,959.625Z" transform="translate(0)" style="fill:#595959"/><path d="M951.722,959.625a4.673,4.673,0,1,1,4.673,4.655A4.62,4.62,0,0,1,951.722,959.625Zm7.434,0a2.762,2.762,0,1,0-2.761,2.8A2.718,2.718,0,0,0,959.156,959.625Z" transform="translate(0)" style="fill:#595959"/></svg>