<?xml version="1.0" encoding="utf-8"?>
<!-- Generator: Adobe Illustrator 23.1.1, SVG Export Plug-In . SVG Version: 6.00 Build 0)  -->
<svg version="1.1" id="Layer_1" xmlns="http://www.w3.org/2000/svg" xmlns:xlink="http://www.w3.org/1999/xlink" x="0px" y="0px"
	 viewBox="0 0 1000 1000" style="enable-background:new 0 0 1000 1000;" xml:space="preserve">
<style type="text/css">
	.st0{fill:#A6A6A6;}
	.st1{fill:#EEF2F4;}
	.st2{fill:none;stroke:#5A1A3C;stroke-width:5;stroke-linecap:round;stroke-linejoin:round;stroke-miterlimit:10;}
	.st3{fill:#FFFFFF;}
	.st4{fill:#BFB3C1;}
	.st5{fill:none;stroke:#5A1A3C;stroke-width:4;stroke-linecap:round;stroke-linejoin:round;stroke-miterlimit:10;}
	.st6{fill:#601D43;}
	.st7{fill:#A84582;}
	.st8{fill:#5A1A3C;}
	.st9{fill:none;stroke:#5A1A3C;stroke-width:6;stroke-linecap:round;stroke-linejoin:round;stroke-miterlimit:10;}
	.st10{fill:#AF6D88;}
	.st11{fill:#CB3272;}
	.st12{fill:#B7B7B7;}
	.st13{fill:#CCCACB;}
	.st14{fill:none;stroke:#FFFAFD;stroke-width:4;stroke-linecap:round;stroke-linejoin:round;stroke-miterlimit:10;}
	.st15{fill:#ED457D;}
	.st16{fill:#F55384;}
	.st17{fill:#C6C6C6;}
	.st18{fill:#AFAFAF;}
	.st19{opacity:0.57;fill:#CB3272;}
	.st20{fill:none;stroke:#FFFAFD;stroke-width:2;stroke-linecap:round;stroke-linejoin:round;stroke-miterlimit:10;}
	.st21{opacity:0.29;fill:none;stroke:#FFFAFD;stroke-width:2;stroke-linecap:round;stroke-linejoin:round;stroke-miterlimit:10;}
</style>
<rect id="XMLID_38_" class="st0" width="1000" height="1000"/>
<g>
	<g>
		<g>
			<path class="st1" d="M63.2,959.2c0,2.5-1.2,3.7-2.6,3.7c-1.1,0-1.9-0.5-2.1-1.4c-0.4,0.5-1,0.8-1.8,0.8c-1.5,0-2.6-1.2-2.6-2.8
				c0-1.6,1.1-2.8,2.6-2.8c0.7,0,1.2,0.3,1.6,0.7v-0.5h1.6v3.9c0,0.8,0.3,1.4,1,1.4c0.9,0,1.7-0.9,1.7-3c0-3-2.3-5.3-5.4-5.3
				c-3.1,0-5.6,2.4-5.6,5.7c0,3.3,2.5,5.7,5.9,5.7c1.1,0,2.1-0.2,2.9-0.4v0.6c-0.8,0.3-1.7,0.4-2.9,0.4c-3.7,0-6.5-2.6-6.5-6.2
				c0-3.4,2.7-6.2,6.2-6.2C61.1,953.3,63.2,956.4,63.2,959.2z M58.3,959.5c0-0.8-0.6-1.4-1.3-1.4c-0.8,0-1.3,0.5-1.3,1.4
				c0,0.8,0.6,1.3,1.3,1.3C57.8,960.9,58.3,960.3,58.3,959.5z"/>
		</g>
		<g>
			<path class="st1" d="M69.4,955.1v2c-1.2-0.1-2.6,0.5-2.6,2.4v4.3h-1.9v-8.6h1.9v1.4C67.3,955.5,68.3,955.1,69.4,955.1z"/>
		</g>
		<g>
			<path class="st1" d="M74.6,962.3c1,0,1.8-0.5,2.2-1.1l1.5,0.9c-0.8,1.2-2.1,1.9-3.8,1.9c-2.8,0-4.7-1.9-4.7-4.5
				c0-2.5,1.8-4.5,4.5-4.5c2.6,0,4.3,2.1,4.3,4.5c0,0.3,0,0.5-0.1,0.8h-6.8C72.1,961.6,73.2,962.3,74.6,962.3z M76.9,958.8
				c-0.3-1.5-1.3-2.1-2.5-2.1c-1.4,0-2.3,0.8-2.6,2.1H76.9z"/>
		</g>
		<g>
			<path class="st1" d="M88.9,955.2v8.6h-1.9v-1.2c-0.7,0.9-1.7,1.5-3,1.5c-2.3,0-4.3-2-4.3-4.5c0-2.6,1.9-4.5,4.3-4.5
				c1.3,0,2.3,0.5,3,1.4v-1.2H88.9z M87.1,959.5c0-1.6-1.2-2.7-2.7-2.7c-1.5,0-2.7,1.1-2.7,2.7c0,1.6,1.2,2.7,2.7,2.7
				C85.9,962.3,87.1,961.1,87.1,959.5z"/>
		</g>
		<g>
			<path class="st1" d="M91.1,951.3H93v12.5h-1.9V951.3z"/>
		</g>
		<g>
			<path class="st1" d="M102.9,955.2l-3.3,8.6h-2.1l-3.3-8.6h2l2.4,6.5l2.4-6.5H102.9z"/>
		</g>
		<g>
			<path class="st1" d="M104.2,955.2h1.9v8.9c0,2.4-1.2,3.5-3.5,3.3v-1.8c1.1,0.1,1.7-0.3,1.7-1.5V955.2z M104,952.8
				c0-0.7,0.5-1.2,1.2-1.2c0.7,0,1.2,0.5,1.2,1.2c0,0.6-0.5,1.2-1.2,1.2C104.5,954,104,953.4,104,952.8z"/>
		</g>
		<g>
			<path class="st1" d="M116,955.2l-3.3,8.8c-0.8,2.2-2.2,3.3-4.2,3.2v-1.7c1.2,0.1,1.9-0.5,2.3-1.7l0.1-0.2l-3.6-8.4h2l2.6,6.2
				l2.2-6.2H116z"/>
		</g>
	</g>
	<g>
		<path class="st1" d="M211.9,938.7c0,2.1-1.5,3.8-3.6,3.8h-3v-7.6h3C210.4,934.9,211.9,936.6,211.9,938.7z M210.9,938.7
			c0-1.6-1.1-2.9-2.6-2.9h-2v5.7h2C209.8,941.6,210.9,940.3,210.9,938.7z"/>
		<path class="st1" d="M219.5,940.8h-3.4l-0.6,1.7h-1.1l2.8-7.6h1.1l2.8,7.6h-1.1L219.5,940.8z M219.2,939.9l-1.4-3.8l-1.4,3.8
			H219.2z"/>
		<path class="st1" d="M226.4,939.4v3.1h-1v-3.1l-2.7-4.5h1.1l2.1,3.6l2.1-3.6h1.1L226.4,939.4z"/>
		<path class="st1" d="M236.9,941.7l2.7-2.7c0.6-0.6,1.1-1.2,1.1-1.9c0-0.9-0.6-1.4-1.4-1.4c-0.7,0-1.2,0.3-1.6,1l-0.8-0.5
			c0.5-1,1.4-1.5,2.4-1.5c1.2,0,2.4,0.8,2.4,2.3c0,0.9-0.6,1.8-1.4,2.5l-2,1.9h3.5v1h-4.9V941.7z"/>
		<path class="st1" d="M250.4,941.1h-0.9v1.4h-1v-1.4h-3.9v-0.9l2.7-5.2h1.1l-2.7,5.2h2.8V938h1v2.2h0.9V941.1z"/>
	</g>
	<g>
		<path class="st1" d="M58.9,938.7c0,2.1-1.5,3.8-3.6,3.8h-3v-7.6h3C57.4,934.9,58.9,936.6,58.9,938.7z M57.9,938.7
			c0-1.6-1.1-2.9-2.6-2.9h-2v5.7h2C56.8,941.6,57.9,940.3,57.9,938.7z"/>
		<path class="st1" d="M67,941.6v1h-4.6v-7.6h4.5v1h-3.5v2.3h3.2v0.9h-3.2v2.4H67z"/>
		<path class="st1" d="M70,940.8l0.9-0.5c0.3,0.8,0.9,1.4,2,1.4c1.1,0,1.6-0.5,1.6-1.2c0-0.8-0.7-1-1.8-1.4
			c-1.2-0.4-2.4-0.8-2.4-2.2c0-1.4,1.1-2.2,2.4-2.2c1.3,0,2.2,0.7,2.6,1.7l-0.8,0.5c-0.3-0.7-0.8-1.2-1.7-1.2
			c-0.8,0-1.4,0.4-1.4,1.1c0,0.7,0.5,1,1.6,1.3c1.3,0.4,2.6,0.8,2.6,2.3c0,1.3-1.1,2.2-2.6,2.2C71.5,942.7,70.4,941.9,70,940.8z"/>
		<path class="st1" d="M80,934.9v7.6h-1v-7.6H80z"/>
		<path class="st1" d="M91.3,939.2c0,1.9-1.4,3.5-3.7,3.5c-2.4,0-4-1.8-4-4c0-2.2,1.7-4,4-4c1.4,0,2.7,0.8,3.3,1.8l-0.9,0.5
			c-0.4-0.8-1.4-1.4-2.4-1.4c-1.8,0-3,1.3-3,3c0,1.7,1.2,3,3,3c1.6,0,2.5-0.9,2.7-2h-2.8v-0.9h3.8V939.2z"/>
		<path class="st1" d="M100.6,934.9v7.6h-0.8l-3.9-5.7v5.7h-1v-7.6h0.8l3.9,5.7v-5.7H100.6z"/>
		<path class="st1" d="M109.1,941.6v1h-4.6v-7.6h4.5v1h-3.5v2.3h3.2v0.9h-3.2v2.4H109.1z"/>
		<path class="st1" d="M119.2,938.7c0,2.1-1.5,3.8-3.6,3.8h-3v-7.6h3C117.6,934.9,119.2,936.6,119.2,938.7z M118.2,938.7
			c0-1.6-1.1-2.9-2.6-2.9h-2v5.7h2C117.1,941.6,118.2,940.3,118.2,938.7z"/>
		<path class="st1" d="M133.2,940.4c0,1.2-1,2.2-2.2,2.2h-3.3v-7.6h3c1.2,0,2.1,0.9,2.1,2.1c0,0.7-0.3,1.2-0.8,1.6
			C132.7,938.9,133.2,939.5,133.2,940.4z M128.7,935.8v2.3h2c0.6,0,1.1-0.5,1.1-1.2c0-0.6-0.5-1.2-1.1-1.2H128.7z M132.2,940.3
			c0-0.7-0.5-1.2-1.2-1.2h-2.3v2.5h2.3C131.7,941.6,132.2,941,132.2,940.3z"/>
		<path class="st1" d="M139.4,939.4v3.1h-1v-3.1l-2.7-4.5h1.1l2.1,3.6l2.1-3.6h1.1L139.4,939.4z"/>
	</g>
	<g>
		<path class="st1" d="M213,962.3v1.9h-7.5v-12.4h7.4v1.9h-5.4v3.2h5v1.9h-5v3.3H213z"/>
		<path class="st1" d="M214.8,958h6.5v1.8h-6.5V958z"/>
		<path class="st1" d="M223,961.5l1.8-1c0.4,1.3,1.4,2.1,3.1,2.1c1.6,0,2.3-0.7,2.3-1.6c0-1.1-1-1.5-2.8-2c-1.9-0.6-3.8-1.3-3.8-3.6
			c0-2.3,1.9-3.6,4-3.6c2,0,3.5,1.1,4.3,2.7l-1.7,1c-0.4-1-1.2-1.7-2.6-1.7c-1.2,0-1.9,0.6-1.9,1.5c0,1,0.7,1.4,2.5,1.9
			c2.1,0.7,4.1,1.3,4.1,3.8c0,2.3-1.8,3.6-4.4,3.6C225.4,964.5,223.7,963.3,223,961.5z"/>
		<path class="st1" d="M233.6,959.9c0-2.6,2-4.7,4.7-4.7c1.7,0,3.2,0.9,3.9,2.3l-1.6,1c-0.4-0.8-1.3-1.4-2.3-1.4
			c-1.6,0-2.7,1.2-2.7,2.8c0,1.6,1.2,2.8,2.7,2.8c1.1,0,1.9-0.5,2.4-1.4l1.6,0.9c-0.7,1.4-2.2,2.3-4,2.3
			C235.6,964.5,233.6,962.5,233.6,959.9z"/>
		<path class="st1" d="M243,959.9c0-2.6,2.1-4.7,4.7-4.7c2.6,0,4.7,2,4.7,4.7c0,2.6-2.1,4.7-4.7,4.7
			C245.1,964.5,243,962.5,243,959.9z M250.4,959.9c0-1.6-1.2-2.8-2.8-2.8s-2.8,1.2-2.8,2.8c0,1.6,1.2,2.8,2.8,2.8
			S250.4,961.5,250.4,959.9z"/>
		<path class="st1" d="M253.6,959.9c0-2.6,2.1-4.7,4.7-4.7c2.6,0,4.7,2,4.7,4.7c0,2.6-2.1,4.7-4.7,4.7
			C255.7,964.5,253.6,962.5,253.6,959.9z M261,959.9c0-1.6-1.2-2.8-2.8-2.8s-2.8,1.2-2.8,2.8c0,1.6,1.2,2.8,2.8,2.8
			S261,961.5,261,959.9z"/>
		<path class="st1" d="M267.2,957.3v4.2c0,1.1,0.7,1.1,2.2,1v1.7c-2.9,0.4-4.1-0.5-4.1-2.8v-4.2h-1.6v-1.8h1.6v-1.9l1.9-0.6v2.5h2.2
			v1.8H267.2z"/>
		<path class="st1" d="M275.1,962.8c1.1,0,1.9-0.5,2.3-1.1l1.6,0.9c-0.8,1.2-2.1,1.9-3.9,1.9c-2.9,0-4.8-2-4.8-4.7
			c0-2.6,1.9-4.7,4.7-4.7c2.6,0,4.4,2.1,4.4,4.7c0,0.3,0,0.5-0.1,0.8h-7C272.6,962.1,273.7,962.8,275.1,962.8z M277.5,959.1
			c-0.3-1.5-1.4-2.2-2.5-2.2c-1.4,0-2.4,0.8-2.7,2.2H277.5z"/>
		<path class="st1" d="M285.8,955.3v2.1c-1.3-0.1-2.7,0.5-2.7,2.5v4.5h-1.9v-8.9h1.9v1.5C283.6,955.7,284.6,955.3,285.8,955.3z"/>
	</g>
	<g>
		<g>
			<path class="st1" d="M846.1,938.7c0,2.1-1.5,3.8-3.6,3.8h-3v-7.6h3C844.6,934.9,846.1,936.6,846.1,938.7z M845.2,938.7
				c0-1.6-1.1-2.9-2.6-2.9h-2v5.7h2C844.1,941.6,845.2,940.3,845.2,938.7z"/>
		</g>
		<g>
			<path class="st1" d="M849.3,938.7c0-2.2,1.7-4,3.9-4c2.2,0,4,1.8,4,4c0,2.2-1.7,4-4,4C851,942.7,849.3,940.9,849.3,938.7z
				 M856.1,938.7c0-1.7-1.3-3-2.9-3c-1.7,0-2.9,1.3-2.9,3c0,1.7,1.3,3,2.9,3C854.9,941.7,856.1,940.4,856.1,938.7z"/>
		</g>
		<g>
			<path class="st1" d="M859.8,934.9h1.1l1.7,6.3l1.9-6.3h1l1.9,6.3l1.7-6.3h1.1l-2.2,7.6h-1.2l-1.8-6.1l-1.8,6.1H862L859.8,934.9z"
				/>
		</g>
		<g>
			<path class="st1" d="M879.3,934.9v7.6h-0.8l-3.9-5.7v5.7h-1v-7.6h0.8l3.9,5.7v-5.7H879.3z"/>
		</g>
		<g>
			<path class="st1" d="M887.5,941.6v1h-4.3v-7.6h1v6.7H887.5z"/>
		</g>
		<g>
			<path class="st1" d="M889.9,938.7c0-2.2,1.7-4,3.9-4c2.2,0,4,1.8,4,4c0,2.2-1.7,4-4,4C891.6,942.7,889.9,940.9,889.9,938.7z
				 M896.8,938.7c0-1.7-1.3-3-2.9-3c-1.7,0-2.9,1.3-2.9,3c0,1.7,1.3,3,2.9,3C895.5,941.7,896.8,940.4,896.8,938.7z"/>
		</g>
		<g>
			<path class="st1" d="M905.4,940.8H902l-0.6,1.7h-1.1l2.8-7.6h1.1l2.8,7.6H906L905.4,940.8z M905.1,939.9l-1.4-3.8l-1.4,3.8H905.1
				z"/>
		</g>
		<g>
			<path class="st1" d="M916.9,938.7c0,2.1-1.5,3.8-3.6,3.8h-3v-7.6h3C915.4,934.9,916.9,936.6,916.9,938.7z M915.9,938.7
				c0-1.6-1.1-2.9-2.6-2.9h-2v5.7h2C914.9,941.6,915.9,940.3,915.9,938.7z"/>
		</g>
		<g>
			<path class="st1" d="M926.5,935.8v2.5h3.2v1h-3.2v3.2h-1v-7.6h4.4v1H926.5z"/>
		</g>
		<g>
			<path class="st1" d="M936.2,939.6h-1.8v2.9h-1v-7.6h3c1.3,0,2.4,1.1,2.4,2.4c0,1-0.7,1.9-1.6,2.2l1.8,3.1h-1.1L936.2,939.6z
				 M934.4,938.7h2c0.8,0,1.4-0.6,1.4-1.4c0-0.8-0.6-1.4-1.4-1.4h-2V938.7z"/>
		</g>
		<g>
			<path class="st1" d="M941.9,938.7c0-2.2,1.7-4,3.9-4c2.2,0,4,1.8,4,4c0,2.2-1.7,4-4,4C943.6,942.7,941.9,940.9,941.9,938.7z
				 M948.8,938.7c0-1.7-1.3-3-2.9-3c-1.7,0-2.9,1.3-2.9,3c0,1.7,1.3,3,2.9,3C947.5,941.7,948.8,940.4,948.8,938.7z"/>
		</g>
		<g>
			<path class="st1" d="M960.4,942.5h-1v-6l-2.5,4.2h-0.1l-2.5-4.1v5.9h-1v-7.6h1.1l2.4,4l2.4-4h1.1V942.5z"/>
		</g>
	</g>
	<g>
		<g>
			<path class="st1" d="M839.3,952.9c0-0.7,0.5-1.2,1.2-1.2c0.7,0,1.2,0.5,1.2,1.2c0,0.7-0.5,1.2-1.2,1.2
				C839.9,954.1,839.3,953.6,839.3,952.9z M839.6,955.4h1.9v8.9h-1.9V955.4z"/>
		</g>
		<g>
			<path class="st1" d="M843.7,951.4h1.9v12.9h-1.9V951.4z"/>
		</g>
		<g>
			<path class="st1" d="M847.8,951.4h1.9v12.9h-1.9V951.4z"/>
		</g>
		<g>
			<path class="st1" d="M852,951.4h1.9v12.9H852V951.4z"/>
		</g>
		<g>
			<path class="st1" d="M864,955.4v8.9h-1.9v-1.1c-0.6,0.9-1.5,1.4-2.7,1.4c-2,0-3.4-1.3-3.4-3.6v-5.4h1.9v5.2c0,1.3,0.8,2.1,2,2.1
				c1.3,0,2.2-0.7,2.2-2.5v-4.7H864z"/>
		</g>
		<g>
			<path class="st1" d="M872.6,961.8c0,1.8-1.5,2.7-3.5,2.7c-1.8,0-3-0.8-3.6-2.1l1.6-1c0.3,0.8,1,1.3,2,1.3c0.8,0,1.5-0.3,1.5-1
				c0-1.6-4.8-0.7-4.8-3.9c0-1.7,1.4-2.7,3.2-2.7c1.5,0,2.7,0.7,3.3,1.8l-1.6,0.9c-0.3-0.7-0.9-1-1.7-1c-0.7,0-1.3,0.3-1.3,0.9
				C867.9,959.5,872.6,958.5,872.6,961.8z"/>
		</g>
		<g>
			<path class="st1" d="M876.7,957.3v4.2c0,1.1,0.7,1.1,2.2,1v1.7c-2.9,0.4-4.1-0.5-4.1-2.8v-4.2h-1.6v-1.8h1.6v-1.9l1.9-0.6v2.5
				h2.2v1.8H876.7z"/>
		</g>
		<g>
			<path class="st1" d="M885.4,955.3v2.1c-1.3-0.1-2.7,0.5-2.7,2.5v4.5h-1.9v-8.9h1.9v1.5C883.2,955.7,884.2,955.3,885.4,955.3z"/>
		</g>
		<g>
			<path class="st1" d="M895.3,955.4v8.9h-1.9V963c-0.7,0.9-1.7,1.5-3.1,1.5c-2.4,0-4.4-2-4.4-4.7c0-2.6,2-4.7,4.4-4.7
				c1.4,0,2.4,0.6,3.1,1.5v-1.3H895.3z M893.4,959.9c0-1.6-1.2-2.8-2.8-2.8c-1.6,0-2.8,1.2-2.8,2.8c0,1.6,1.2,2.8,2.8,2.8
				C892.2,962.7,893.4,961.5,893.4,959.9z"/>
		</g>
		<g>
			<path class="st1" d="M900.3,957.3v4.2c0,1.1,0.7,1.1,2.2,1v1.7c-2.9,0.4-4.1-0.5-4.1-2.8v-4.2h-1.6v-1.8h1.6v-1.9l1.9-0.6v2.5
				h2.2v1.8H900.3z"/>
		</g>
		<g>
			<path class="st1" d="M903.9,952.9c0-0.7,0.5-1.2,1.2-1.2c0.7,0,1.2,0.5,1.2,1.2c0,0.7-0.5,1.2-1.2,1.2
				C904.5,954.1,903.9,953.6,903.9,952.9z M904.2,955.4h1.9v8.9h-1.9V955.4z"/>
		</g>
		<g>
			<path class="st1" d="M907.8,959.9c0-2.6,2.1-4.7,4.7-4.7c2.6,0,4.7,2,4.7,4.7c0,2.6-2.1,4.7-4.7,4.7
				C909.9,964.5,907.8,962.5,907.8,959.9z M915.3,959.9c0-1.6-1.2-2.8-2.8-2.8c-1.6,0-2.8,1.2-2.8,2.8c0,1.6,1.2,2.8,2.8,2.8
				C914.1,962.7,915.3,961.5,915.3,959.9z"/>
		</g>
		<g>
			<path class="st1" d="M927,958.9v5.4h-1.9v-5.2c0-1.3-0.8-2.1-2-2.1c-1.3,0-2.2,0.7-2.2,2.5v4.7h-1.9v-8.9h1.9v1.1
				c0.6-0.9,1.5-1.4,2.7-1.4C925.5,955.2,927,956.6,927,958.9z"/>
		</g>
		<g>
			<path class="st1" d="M935.5,961.8c0,1.8-1.5,2.7-3.5,2.7c-1.8,0-3-0.8-3.6-2.1l1.6-1c0.3,0.8,1,1.3,2,1.3c0.8,0,1.5-0.3,1.5-1
				c0-1.6-4.8-0.7-4.8-3.9c0-1.7,1.4-2.7,3.2-2.7c1.5,0,2.7,0.7,3.3,1.8l-1.6,0.9c-0.3-0.7-0.9-1-1.7-1c-0.7,0-1.3,0.3-1.3,0.9
				C930.7,959.5,935.5,958.5,935.5,961.8z"/>
		</g>
		<g>
			<path class="st1" d="M936.8,963.2c0-0.7,0.6-1.3,1.3-1.3c0.7,0,1.3,0.6,1.3,1.3c0,0.7-0.6,1.3-1.3,1.3
				C937.4,964.5,936.8,963.9,936.8,963.2z"/>
		</g>
		<g>
			<path class="st1" d="M940.3,959.9c0-2.6,2-4.7,4.7-4.7c1.7,0,3.2,0.9,3.9,2.3l-1.6,1c-0.4-0.8-1.3-1.4-2.3-1.4
				c-1.6,0-2.7,1.2-2.7,2.8c0,1.6,1.2,2.8,2.7,2.8c1.1,0,1.9-0.5,2.4-1.4l1.6,0.9c-0.7,1.4-2.2,2.3-4,2.3
				C942.3,964.5,940.3,962.5,940.3,959.9z"/>
		</g>
		<g>
			<path class="st1" d="M949.7,959.9c0-2.6,2.1-4.7,4.7-4.7c2.6,0,4.7,2,4.7,4.7c0,2.6-2.1,4.7-4.7,4.7
				C951.8,964.5,949.7,962.5,949.7,959.9z M957.2,959.9c0-1.6-1.2-2.8-2.8-2.8s-2.8,1.2-2.8,2.8c0,1.6,1.2,2.8,2.8,2.8
				S957.2,961.5,957.2,959.9z"/>
		</g>
	</g>
</g>
<path id="XMLID_200_" class="st2" d="M599.3,216.3c10.8,1.7,30.9,6.5,47.7,22.7c11.7,11.2,20.6,26.8,26,56
	c11.9,64.2-4.6,132.3-13.5,163.5"/>
<rect id="XMLID_80_" x="610.3" y="251.3" transform="matrix(0.9659 -0.2588 0.2588 0.9659 -61.828 171.1922)" class="st3" width="18" height="138.2"/>
<polygon id="XMLID_178_" class="st4" points="601.8,276.4 615.6,272.2 613.6,264.6 597.5,268.2 "/>
<polygon id="XMLID_168_" class="st4" points="633.7,387.7 598,254.6 592.7,256 628.4,389.5 645.8,384.8 645.7,384.5 "/>
<rect id="XMLID_34_" x="610.3" y="251.3" transform="matrix(0.9659 -0.2588 0.2588 0.9659 -61.828 171.1922)" class="st5" width="18" height="138.2"/>
<path id="XMLID_199_" class="st4" d="M560.3,221.2c-0.6,2.9,1,5.9,3.8,7c4.1,1.7,9.9,5.1,14.4,11.6c4.5,6.6,7.8,15.7,9.7,21.9
	c1.1,3.7,5.3,5.5,8.7,3.9l0,0c2.9-1.4,4.3-4.6,3.3-7.6c-2.6-8.1-8-23.5-13.2-30.7c-4.2-5.8-12.2-9.7-18-12c-3.7-1.4-7.8,0.8-8.5,4.7
	L560.3,221.2z"/>
<path id="XMLID_198_" class="st5" d="M560.3,221.2c-0.6,2.9,1,5.9,3.8,7c4.1,1.7,9.9,5.1,14.4,11.6c4.5,6.6,7.8,15.7,9.7,21.9
	c1.1,3.7,5.3,5.5,8.7,3.9l0,0c2.9-1.4,4.3-4.6,3.3-7.6c-2.6-8.1-8-23.5-13.2-30.7c-4.2-5.8-12.2-9.7-18-12c-3.7-1.4-7.8,0.8-8.5,4.7
	L560.3,221.2z"/>
<path id="XMLID_194_" class="st6" d="M582.6,225.5c0-7.9-6.4-14.4-14.4-14.4c-1.8,0-3.4,0.3-5,0.9l-19.1,5.4l8,28.7l18.7-6.6
	C577.5,238.3,582.6,232.5,582.6,225.5z"/>
<path id="XMLID_183_" class="st7" d="M553.3,221.2l19.1-5.4c1.6-0.6,3.2-0.9,5-0.9c0.2,0,0.3,0,0.5,0c-2.6-2.3-5.9-3.7-9.6-3.7
	c-1.8,0-3.4,0.3-5,0.9l-19.1,5.4l8,28.7l7.4-2.6L553.3,221.2z"/>
<path id="XMLID_182_" class="st5" d="M582.6,225.5c0-7.9-6.4-14.4-14.4-14.4c-1.8,0-3.4,0.3-5,0.9l-19.1,5.4l8,28.7l18.7-6.6
	C577.5,238.3,582.6,232.5,582.6,225.5z"/>
<circle id="XMLID_175_" class="st8" cx="543.7" cy="233.4" r="17.8"/>
<circle id="XMLID_172_" class="st9" cx="543.7" cy="233.4" r="17.8"/>
<ellipse id="XMLID_85_" class="st10" cx="258.5" cy="732.5" rx="74.6" ry="7.5"/>
<ellipse id="XMLID_104_" class="st10" cx="713.4" cy="730.5" rx="74.6" ry="7.5"/>
<rect id="XMLID_61_" x="659.7" y="515.7" transform="matrix(0.9659 -0.2588 0.2588 0.9659 -113.348 192.392)" class="st11" width="28.6" height="21.9"/>
<rect id="XMLID_60_" x="659.7" y="515.7" transform="matrix(0.9659 -0.2588 0.2588 0.9659 -113.348 192.392)" class="st5" width="28.6" height="21.9"/>
<g>
	<path id="XMLID_21_" class="st12" d="M799.7,695.3c4.7-6,8.7-12.7,11.6-19.9l-49.1-28.3c-11.7-6.8-19-19.3-19-32.9v-57
		c-3.7-0.5-7.5-0.8-11.4-0.8c-4,0-7.8,0.3-11.7,0.8v57c0,13.6-7.2,26.1-19,32.9l-48.9,28.2c3,7.2,6.9,13.9,11.6,19.9l48.8-28.2
		c11.7-6.8,26.2-6.8,37.9,0L799.7,695.3z"/>
	<path id="XMLID_88_" class="st13" d="M753.8,661.9c-6.7-3.9-14.3-5.9-22-5.9c-7.7,0-15.3,2-22,5.9l-44.1,25.5
		c-2.1-3.1-4-6.3-5.6-9.6l44.2-25.5c13.6-7.8,22-22.4,22-38.1v-51.6c1.9-0.1,3.8-0.2,5.7-0.2c1.8,0,3.6,0.1,5.4,0.2v51.6
		c0,15.7,8.4,30.2,22,38.1l44.3,25.6c-1.6,3.3-3.5,6.5-5.6,9.6L753.8,661.9z"/>
	<path id="XMLID_11_" class="st5" d="M799.7,695.3c4.7-6,8.7-12.7,11.6-19.9l-49.1-28.3c-11.7-6.8-19-19.3-19-32.9v-57
		c-3.7-0.5-7.5-0.8-11.4-0.8c-4,0-7.8,0.3-11.7,0.8v57c0,13.6-7.2,26.1-19,32.9l-48.9,28.2c3,7.2,6.9,13.9,11.6,19.9l48.8-28.2
		c11.7-6.8,26.2-6.8,37.9,0L799.7,695.3z"/>
	<path id="XMLID_4_" class="st6" d="M731.9,556.4c-47.5,0-86,38.5-86,86c0,47.5,38.5,86,86,86c47.5,0,86-38.5,86-86
		C817.9,594.9,779.4,556.4,731.9,556.4z M731.9,699.1c-31.3,0-56.6-25.4-56.6-56.6c0-31.3,25.4-56.6,56.6-56.6
		c31.3,0,56.6,25.4,56.6,56.6C788.5,673.7,763.2,699.1,731.9,699.1z"/>
	<circle id="XMLID_32_" class="st5" cx="731.9" cy="642.4" r="86"/>
	<circle id="XMLID_12_" class="st5" cx="731.9" cy="642.4" r="86"/>
	<path id="XMLID_65_" class="st5" d="M731.9,556.4c-47.5,0-86,38.5-86,86c0,47.5,38.5,86,86,86c47.5,0,86-38.5,86-86
		C817.9,594.9,779.4,556.4,731.9,556.4z M731.9,699.1c-31.3,0-56.6-25.4-56.6-56.6c0-31.3,25.4-56.6,56.6-56.6
		c31.3,0,56.6,25.4,56.6,56.6C788.5,673.7,763.2,699.1,731.9,699.1z"/>
	<circle id="XMLID_1_" class="st5" cx="731.9" cy="642.4" r="86"/>
	<path id="XMLID_67_" class="st14" d="M778,580.8c18.7,14.1,30.9,36.4,30.9,61.6"/>
	<path id="XMLID_68_" class="st14" d="M754.8,568.9c3.9,1.2,7.7,2.7,11.3,4.5"/>
</g>
<circle id="XMLID_10_" class="st5" cx="731.9" cy="642.4" r="11"/>
<path id="XMLID_6_" class="st5" d="M682,601.3"/>
<path id="XMLID_53_" class="st15" d="M747.7,637.5l-15-27.8c-1.1-2-3.1-3.4-5.4-3.7c-7.3-0.9-15.2-3.4-20.5-7.7l-0.7,0.2l16.7,62.2
	l13-1.1C746.5,658.7,752.8,647,747.7,637.5z"/>
<path id="XMLID_100_" class="st11" d="M741.4,650.3l-13-0.9l-13-46.3c-3.2-1.2-6.2-2.8-8.6-4.8l-0.7,0.2l16.7,62.2l13-1.1
	c7.2-0.6,12.3-6,13.5-12.3C747.1,649,744.4,650.1,741.4,650.3z"/>
<path id="XMLID_14_" class="st5" d="M747.7,637.5l-15-27.8c-1.1-2-3.1-3.4-5.4-3.7c-7.3-0.9-15.2-3.4-20.5-7.7l-0.7,0.2l16.7,62.2
	l13-1.1C746.5,658.7,752.8,647,747.7,637.5z"/>
<circle id="XMLID_79_" class="st6" cx="731.9" cy="642.4" r="7"/>
<circle id="XMLID_3_" class="st5" cx="731.9" cy="642.4" r="7"/>
<g>
	<circle id="XMLID_25_" class="st5" cx="284.4" cy="642.7" r="86"/>
	<path id="XMLID_27_" class="st12" d="M352.2,695.5c4.7-6,8.7-12.7,11.6-19.9l-49.1-28.3c-11.7-6.8-19-19.3-19-32.9v-57
		c-3.7-0.5-7.5-0.8-11.4-0.8c-4,0-7.8,0.3-11.7,0.8v57c0,13.6-7.2,26.1-19,32.9l-48.9,28.2c3,7.2,6.9,13.9,11.6,19.9l48.8-28.2
		c11.7-6.8,26.2-6.8,37.9,0L352.2,695.5z"/>
	<path id="XMLID_202_" class="st13" d="M306.2,662.1c-6.7-3.9-14.3-5.9-22-5.9s-15.3,2-22,5.9l-44.1,25.5c-2.1-3.1-3.9-6.3-5.6-9.6
		l44.2-25.5c13.6-7.8,22-22.4,22-38.1v-51.6c1.9-0.1,3.8-0.2,5.7-0.2c1.8,0,3.6,0.1,5.4,0.2v51.6c0,15.7,8.4,30.2,22,38.1l44.3,25.6
		c-1.6,3.3-3.5,6.5-5.6,9.6L306.2,662.1z"/>
	<path id="XMLID_24_" class="st5" d="M352.2,695.5c4.7-6,8.7-12.7,11.6-19.9l-49.1-28.3c-11.7-6.8-19-19.3-19-32.9v-57
		c-3.7-0.5-7.5-0.8-11.4-0.8c-4,0-7.8,0.3-11.7,0.8v57c0,13.6-7.2,26.1-19,32.9l-48.9,28.2c3,7.2,6.9,13.9,11.6,19.9l48.8-28.2
		c11.7-6.8,26.2-6.8,37.9,0L352.2,695.5z"/>
	<path id="XMLID_43_" class="st6" d="M284.4,556.7c-47.5,0-86,38.5-86,86c0,47.5,38.5,86,86,86c47.5,0,86-38.5,86-86
		C370.4,595.2,331.9,556.7,284.4,556.7z M284.4,699.3c-31.3,0-56.6-25.4-56.6-56.6c0-31.3,25.4-56.6,56.6-56.6s56.6,25.4,56.6,56.6
		C341,673.9,315.6,699.3,284.4,699.3z"/>
	<path id="XMLID_23_" class="st5" d="M284.4,556.7c-47.5,0-86,38.5-86,86c0,47.5,38.5,86,86,86c47.5,0,86-38.5,86-86
		C370.4,595.2,331.9,556.7,284.4,556.7z M284.4,699.3c-31.3,0-56.6-25.4-56.6-56.6c0-31.3,25.4-56.6,56.6-56.6s56.6,25.4,56.6,56.6
		C341,673.9,315.6,699.3,284.4,699.3z"/>
	<circle id="XMLID_28_" class="st5" cx="284.4" cy="642.7" r="86"/>
	<path id="XMLID_45_" class="st14" d="M360.2,629c0.8,4.4,1.2,9,1.2,13.6c0,20.2-7.8,38.7-20.7,52.4"/>
	<path id="XMLID_36_" class="st14" d="M352.6,607c1.5,2.9,2.9,5.9,4,9"/>
</g>
<circle id="XMLID_29_" class="st4" cx="284.3" cy="642.6" r="7"/>
<line id="XMLID_37_" class="st5" x1="614" y1="530.5" x2="581" y2="619"/>
<path id="XMLID_26_" class="st6" d="M546.9,625.1l-10.1,6.4c-11,6.9-23.7,10.6-36.7,10.6h-96.6c-2.9,0-3.5-2.5-3.2-5.5
	c0.2-1.6,0-5.8-0.3-7.5c-1.5-10.9-8.4-18-14.7-18.8v8.2c1.6,5.7,2.6,12.5,2.6,19.8c0,2.4-0.1,4.7-0.3,6.9l0.7,3.6l0,0l3.9,0.7
	c0,0,4.1,0,11,0v10h100.5V649c2.2,0,4.3,0,6.3,0c17.1-0.1,32.5-9.8,40.1-24.7C549,624.2,547.9,624.5,546.9,625.1z"/>
<path id="XMLID_39_" class="st5" d="M546.9,625.1l-10.1,6.4c-11,6.9-23.7,10.6-36.7,10.6h-96.6c-2.9,0-3.5-2.5-3.2-5.5
	c0.2-1.6,0-5.8-0.3-7.5c-1.5-10.9-8.4-18-14.7-18.8v8.2c1.6,5.7,2.6,12.5,2.6,19.8c0,2.4-0.1,4.7-0.3,6.9l0.7,3.6l0,0l3.9,0.7
	c0,0,4.1,0,11,0v10h100.5V649c2.2,0,4.3,0,6.3,0c16.1-0.1,30.7-8.7,38.7-22.2C549.3,625.7,548,624.4,546.9,625.1
	C547,625.1,546.9,625.1,546.9,625.1z"/>
<rect id="XMLID_89_" x="644.7" y="411.2" transform="matrix(0.9659 -0.2588 0.2588 0.9659 -98.4697 186.4124)" class="st16" width="28" height="112"/>
<polygon id="XMLID_72_" class="st11" points="667.7,520.4 639.3,414.4 630.7,416.7 659.7,524.9 686.8,517.7 686.2,515.4 "/>
<path id="XMLID_55_" class="st11" d="M643.5,446.2c0,0,7.4,5.8,12.7,15.6c8.6,15.9,5.4,35.5,5.4,35.5l-2.8,2.6L643.5,446.2z"/>
<path id="XMLID_81_" class="st6" d="M661.6,408.4c-11.6,3.1-23.2,6.2-34.8,9.3c-3-9.3-4.1-19.2-4.1-29.3c9.3-2.5,18.6-5,27.8-7.5
	C655.5,389.8,659.6,398.9,661.6,408.4z"/>
<path id="XMLID_46_" class="st6" d="M661.6,408.4c-11.6,3.1-23.2,6.2-34.8,9.3c-3-9.3-4.1-19.2-4.1-29.3c9.3-2.5,18.6-5,27.8-7.5
	C655.5,389.8,659.6,398.9,661.6,408.4z"/>
<path id="XMLID_132_" class="st8" d="M637.5,414.4c-2.9-9.1-4-18.9-4.1-28.8c-3.5,1-7.1,1.9-10.6,2.9c0.1,10,1.1,20,4.1,29.3
	c11.6-3.1,23.2-6.2,34.8-9.3c0-0.2-0.1-0.3-0.1-0.5C653.5,410.1,645.5,412.3,637.5,414.4z"/>
<rect id="XMLID_31_" x="644.7" y="411.2" transform="matrix(0.9659 -0.2588 0.2588 0.9659 -98.4697 186.4124)" class="st5" width="28" height="112"/>
<path id="XMLID_52_" class="st17" d="M682.4,522.1l-18.8,5c-4,1.1-8.2-1.3-9.3-5.3v0c-1.1-4,1.3-8.2,5.3-9.3l18.8-5
	c4-1.1,8.2,1.3,9.3,5.3l0,0C688.9,516.9,686.5,521,682.4,522.1z"/>
<path id="XMLID_90_" class="st18" d="M673.6,524.2c-4,1.1-8.2-1.3-9.3-5.3c-0.9-3.3,0.6-6.7,3.4-8.4l-8,2.1c-4,1.1-6.4,5.2-5.3,9.3
	s5.2,6.4,9.3,5.3l18.8-5c0.7-0.2,1.4-0.5,2-0.9L673.6,524.2z"/>
<path id="XMLID_35_" class="st5" d="M682.4,522.1l-18.8,5c-4,1.1-8.2-1.3-9.3-5.3v0c-1.1-4,1.3-8.2,5.3-9.3l18.8-5
	c4-1.1,8.2,1.3,9.3,5.3l0,0C688.9,516.9,686.5,521,682.4,522.1z"/>
<path id="XMLID_33_" class="st5" d="M661.6,408.4c-11.6,3.1-23.2,6.2-34.8,9.3c-3-9.3-4.1-19.2-4.1-29.3c9.3-2.5,18.6-5,27.8-7.5
	C655.5,389.8,659.6,398.9,661.6,408.4z"/>
<path id="XMLID_30_" class="st16" d="M656.2,489l-47.6,130.6c-11.8,32.3-42.5,53.8-76.9,53.8l-141.6,0v-0.3l0,0.3l-53.5-9.4
	l-32.5-1.7l-27.7-4.9c-5.2-0.9-8.6-5.9-7.7-11l2.2-12.8c0.9-5.2,5.9-8.6,11-7.7l27.7,4.9l31.2,9.6l51.5,9.1c0,0,73.4-0.2,117.8-0.5
	c19.6-0.1,37-12.9,42.9-31.6l16.3-51.4c5.3-12.8,15.5-23,28.2-28.4l16.6-7l27.6-76.6C646.9,458.4,654,468.2,656.2,489z"/>
<path id="XMLID_136_" class="st15" d="M309.5,630.8l-27.7-4.9c-5.2-0.9-10.1,2.5-11,7.7l-2.2,12.8c-0.9,5.2,2.5,10.1,7.7,11
	l27.7,4.9l32.5,1.7l53.5,9.4l-0.4-22.4l-5.4-3l-43.6-7.7L309.5,630.8z"/>
<path id="XMLID_20_" class="st11" d="M608.6,615.2c-11.8,32.3-42.5,53.8-76.9,53.8l-141.6,0v-0.3l0,0.3l-53.5-9.4l-32.5-1.7
	l-27.7-4.9c-3.9-0.7-6.8-3.6-7.6-7.2l-0.1,0.6c-0.9,5.2,2.5,10.1,7.7,11l27.7,4.9l32.5,1.7l53.5,9.4l0-0.3v0.3l141.6,0
	c34.4,0,65.1-21.5,76.9-53.8L656.2,489c-0.1-1.1-0.3-2.2-0.4-3.3L608.6,615.2z"/>
<path id="XMLID_70_" class="st11" d="M274,649.4l2.2-12.8c0.9-5.2,5.9-8.6,11-7.7l27.7,4.9l31.2,9.6l51.5,9.1
	c0,0,73.4-0.2,117.8-0.5c19.6-0.1,37-12.9,42.9-31.6l16.3-51.4c5.3-12.8,15.5-23,28.2-28.4l24-10l23.9-66.3
	c-1.7-2.3-7.5-9.9-9.1-11.2L614,529.5l-16.6,7c-12.8,5.4-22.9,15.6-28.2,28.4l-16.3,51.4c-5.9,18.7-23.3,31.5-42.9,31.6
	c-44.4,0.3-117.8,0.5-117.8,0.5l-51.5-9.1l-31.2-9.6l-27.7-4.9c-5.2-0.9-10.1,2.5-11,7.7l-2.2,12.8c-0.9,4.9,2.1,9.5,6.8,10.8
	C274.1,654.3,273.5,651.9,274,649.4z"/>
<polygon id="XMLID_166_" class="st19" points="389.7,651 384.3,648 340.7,640.4 336.5,664 390.1,673.4 "/>
<path id="XMLID_103_" class="st5" d="M656.2,489l-47.6,130.6c-11.8,32.3-42.5,53.8-76.9,53.8l-141.6,0v-0.3l0,0.3l-53.5-9.4
	l-32.5-1.7l-27.7-4.9c-5.2-0.9-8.6-5.9-7.7-11l2.2-12.8c0.9-5.2,5.9-8.6,11-7.7l27.7,4.9l31.2,9.6l51.5,9.1c0,0,73.4-0.2,117.8-0.5
	c19.6-0.1,37-12.9,42.9-31.6l16.3-51.4c5.3-12.8,15.5-23,28.2-28.4l16.6-7l27.6-76.6C646.9,458.4,654,468.2,656.2,489z"/>
<g id="XMLID_66_">
	<path id="XMLID_7_" class="st16" d="M722.8,660.7l-33.8-126c-1.7-6.4-8.3-10.2-14.7-8.5l0,0c-6.4,1.7-10.2,8.3-8.5,14.7L695.9,653
		c1.5,5.6,6.8,9.3,12.6,8.9L722.8,660.7z"/>
	<path id="XMLID_73_" class="st11" d="M713.5,655.5c-5.8,0.5-11.1-3.2-12.6-8.9l-30.1-112.2c-0.6-2.3-0.5-4.7,0.2-6.8
		c-4.4,2.7-6.6,8.1-5.2,13.3L695.9,653c1.5,5.6,6.8,9.3,12.6,8.9l14.3-1.2l-1.6-5.9L713.5,655.5z"/>
	<path id="XMLID_13_" class="st5" d="M722.8,660.7l-33.8-126c-1.7-6.4-8.3-10.2-14.7-8.5l0,0c-6.4,1.7-10.2,8.3-8.5,14.7L695.9,653
		c1.5,5.6,6.8,9.3,12.6,8.9L722.8,660.7z"/>
</g>
<circle id="XMLID_44_" class="st11" cx="286.3" cy="642.6" r="9.5"/>
<circle id="XMLID_54_" class="st6" cx="284.3" cy="642.6" r="7"/>
<circle id="XMLID_22_" class="st5" cx="284.3" cy="642.6" r="7"/>
<path id="XMLID_86_" class="st14" d="M589.9,633.8c-1.4,1.7-2.9,3.3-4.5,4.8"/>
<path id="XMLID_74_" class="st14" d="M618.5,563.7c0,0-11.8,35.2-16.8,48.3c-2,5.3-4.5,10.8-7.7,16"/>
<path id="XMLID_119_" class="st14" d="M649,406"/>
<path id="XMLID_117_" class="st14" d="M647.2,396.8"/>
<path id="XMLID_105_" class="st20" d="M645.2,387.8c0,0,0.3-0.1,1.5,2.8"/>
<path id="XMLID_124_" class="st20" d="M648.3,395.1c0,0,2.2,6,2.8,10.1"/>
<line id="XMLID_84_" class="st20" x1="668.2" y1="516.2" x2="679" y2="513.2"/>
<path id="XMLID_87_" class="st20" d="M677.8,532.2c0,0,2.3,0.2,4,1.8"/>
<line id="XMLID_126_" class="st20" x1="392" y1="656.2" x2="392" y2="662.1"/>
<line id="XMLID_129_" class="st20" x1="392" y1="666.2" x2="392" y2="669"/>
<path id="XMLID_125_" class="st6" d="M618.2,262.9l-25.4,9.2l-6.7-18.3c-2.5-7,1.1-14.8,8.1-17.3l0,0c7-2.6,14.8,1.1,17.3,8.1
	L618.2,262.9z"/>
<circle id="XMLID_177_" class="st8" cx="601.2" cy="254.6" r="10.1"/>
<path id="XMLID_82_" class="st5" d="M618.2,262.9l-25.4,9.2l-6.7-18.3c-2.5-7,1.1-14.8,8.1-17.3l0,0c7-2.6,14.8,1.1,17.3,8.1
	L618.2,262.9z"/>
<path id="XMLID_134_" class="st3" d="M566.3,213.2c-0.6,2.9,1,5.9,3.8,7c4.1,1.7,9.9,5.1,14.4,11.6c4.5,6.6,7.8,15.7,9.7,21.9
	c1.1,3.7,5.3,5.5,8.7,3.9l0,0c2.9-1.4,4.3-4.6,3.3-7.6c-2.6-8.1-8-23.5-13.2-30.7c-4.2-5.8-12.2-9.7-18-12c-3.7-1.4-7.8,0.8-8.5,4.7
	L566.3,213.2z"/>
<path id="XMLID_205_" class="st4" d="M599,253c-1.9-6.2-5.2-15.3-9.7-21.9c-4.5-6.5-10.3-9.9-14.4-11.6c-2.8-1.1-4.3-4.1-3.8-7
	l0.2-1.2c0.4-1.9,1.5-3.4,3-4.3c-3.5-0.9-7.1,1.3-7.8,4.9l-0.2,1.2c-0.6,2.9,1,5.9,3.8,7c4.1,1.7,9.9,5.1,14.4,11.6
	c4.5,6.6,7.8,15.7,9.7,21.9c1.1,3.7,5.3,5.5,8.7,3.9c0.2-0.1,0.3-0.2,0.5-0.3C601.4,256.7,599.6,255.2,599,253z"/>
<path id="XMLID_128_" class="st5" d="M566.3,213.2c-0.6,2.9,1,5.9,3.8,7c4.1,1.7,9.9,5.1,14.4,11.6c4.5,6.6,7.8,15.7,9.7,21.9
	c1.1,3.7,5.3,5.5,8.7,3.9l0,0c2.9-1.4,4.3-4.6,3.3-7.6c-2.6-8.1-8-23.5-13.2-30.7c-4.2-5.8-12.2-9.7-18-12c-3.7-1.4-7.8,0.8-8.5,4.7
	L566.3,213.2z"/>
<rect id="XMLID_180_" x="588.9" y="208.5" transform="matrix(-0.1358 0.9907 -0.9907 -0.1358 889.1683 -342.8883)" class="st5" width="10.4" height="15.7"/>
<rect id="XMLID_181_" x="588.9" y="208.5" transform="matrix(-0.1358 0.9907 -0.9907 -0.1358 889.1683 -342.8883)" class="st8" width="10.4" height="15.7"/>
<path id="XMLID_170_" class="st6" d="M588.6,217.5c0-7.9-6.4-14.4-14.4-14.4c-1.8,0-3.4,0.3-5,0.9l-19.1,5.4l8,28.7l18.7-6.6
	C583.5,230.3,588.6,224.5,588.6,217.5z"/>
<path id="XMLID_185_" class="st7" d="M559.3,213.2l19.1-5.4c1.6-0.6,3.2-0.9,5-0.9c0.2,0,0.3,0,0.5,0c-2.6-2.3-5.9-3.7-9.6-3.7
	c-1.8,0-3.4,0.3-5,0.9l-19.1,5.4l8,28.7l7.4-2.6L559.3,213.2z"/>
<path id="XMLID_179_" class="st5" d="M588.6,217.5c0-7.9-6.4-14.4-14.4-14.4c-1.8,0-3.4,0.3-5,0.9l-19.1,5.4l8,28.7l18.7-6.6
	C583.5,230.3,588.6,224.5,588.6,217.5z"/>
<circle id="XMLID_169_" class="st6" cx="549.7" cy="225.4" r="17.8"/>
<circle id="XMLID_135_" class="st9" cx="549.7" cy="225.4" r="17.8"/>
<ellipse id="XMLID_201_" transform="matrix(0.2092 -0.9779 0.9779 0.2092 272.5429 752.262)" class="st8" cx="601.4" cy="207.6" rx="1.8" ry="3.1"/>
<line id="XMLID_203_" class="st5" x1="599.8" y1="212.4" x2="601.4" y2="208.2"/>
<line id="XMLID_206_" class="st20" x1="592.7" y1="212.4" x2="599.3" y2="213.5"/>
<line id="XMLID_5_" class="st21" x1="292.4" y1="632.6" x2="301.4" y2="634.3"/>
<path id="XMLID_2_" class="st20" d="M303.2,634.3"/>
<line id="XMLID_19_" class="st21" x1="304.7" y1="634.8" x2="309.2" y2="635.6"/>
</svg>
