<?xml version="1.0" encoding="utf-8"?>
<!-- Generator: Adobe Illustrator 23.1.1, SVG Export Plug-In . SVG Version: 6.00 Build 0)  -->
<svg version="1.1" id="Layer_1" xmlns="http://www.w3.org/2000/svg" xmlns:xlink="http://www.w3.org/1999/xlink" x="0px" y="0px"
	 viewBox="0 0 1000 1000" style="enable-background:new 0 0 1000 1000;" xml:space="preserve">
<style type="text/css">
	.st0{fill:#77C3B7;}
	.st1{fill:#EEF2F4;}
	.st2{fill:none;stroke:#579AA3;stroke-width:6;stroke-miterlimit:10;}
	.st3{fill:#579AA3;}
	.st4{fill:none;stroke:#2F3140;stroke-width:8;stroke-linecap:round;stroke-linejoin:round;stroke-miterlimit:10;}
	.st5{fill:#2F3140;}
	.st6{fill:#579AA3;stroke:#579AA3;stroke-width:6;stroke-miterlimit:10;}
	.st7{fill:#7C7C94;}
	.st8{fill:none;stroke:#2F3140;stroke-width:3;stroke-linecap:round;stroke-linejoin:round;stroke-miterlimit:10;}
	.st9{fill:#6C6D81;}
	.st10{fill:#565864;}
	.st11{fill:none;stroke:#C06D4F;stroke-width:2;stroke-linecap:round;stroke-linejoin:round;stroke-miterlimit:10;}
	.st12{fill:#51566A;}
	.st13{fill:none;stroke:#2F3140;stroke-width:6;stroke-linecap:round;stroke-linejoin:round;stroke-miterlimit:10;}
	.st14{fill:#9093A2;}
	.st15{fill:#3C4155;}
	.st16{fill:#3B4254;}
</style>
<rect id="XMLID_4_" class="st0" width="1000" height="1000"/>
<g>
	<path class="st1" d="M57.2,953.3c-3.6,0-6.2,2.8-6.2,6.2c0,3.6,2.8,6.2,6.5,6.2c1.2,0,2.1-0.2,2.9-0.4v-0.6
		c-0.8,0.3-1.7,0.4-2.9,0.4c-3.4,0-5.9-2.4-5.9-5.7c0-3.2,2.5-5.7,5.6-5.7c3.1,0,5.4,2.3,5.4,5.3c0,2.1-0.8,3-1.7,3
		c-0.8,0-1-0.6-1-1.4v-3.9h-1.6v0.5c-0.4-0.4-1-0.7-1.6-0.7c-1.5,0-2.6,1.2-2.6,2.8c0,1.6,1.1,2.8,2.6,2.8c0.7,0,1.4-0.3,1.8-0.8
		c0.3,0.9,1.1,1.4,2.1,1.4c1.4,0,2.6-1.1,2.6-3.7C63.2,956.4,61.1,953.3,57.2,953.3z M57,960.9c-0.8,0-1.3-0.5-1.3-1.3
		c0-0.8,0.6-1.4,1.3-1.4c0.7,0,1.3,0.5,1.3,1.4C58.3,960.3,57.8,960.9,57,960.9z"/>
	<path class="st1" d="M66.8,956.7v-1.4h-1.9v8.6h1.9v-4.3c0-1.9,1.4-2.5,2.6-2.4v-2C68.3,955.1,67.3,955.5,66.8,956.7z"/>
	<path class="st1" d="M74.4,955c-2.7,0-4.5,2-4.5,4.5c0,2.6,1.8,4.5,4.7,4.5c1.7,0,3-0.7,3.8-1.9l-1.5-0.9c-0.4,0.6-1.2,1.1-2.2,1.1
		c-1.4,0-2.5-0.7-2.7-2h6.8c0-0.2,0.1-0.5,0.1-0.8C78.7,957.1,77,955,74.4,955z M71.8,958.8c0.3-1.3,1.2-2.1,2.6-2.1
		c1.1,0,2.2,0.6,2.5,2.1H71.8z"/>
	<path class="st1" d="M87.1,956.5c-0.7-0.9-1.7-1.4-3-1.4c-2.3,0-4.3,2-4.3,4.5c0,2.5,1.9,4.5,4.3,4.5c1.3,0,2.3-0.5,3-1.5v1.2h1.9
		v-8.6h-1.9V956.5z M84.4,962.3c-1.5,0-2.7-1.1-2.7-2.7c0-1.6,1.2-2.7,2.7-2.7c1.5,0,2.7,1.1,2.7,2.7
		C87.1,961.1,85.9,962.3,84.4,962.3z"/>
	<rect x="91.1" y="951.3" class="st1" width="1.9" height="12.5"/>
	<polygon class="st1" points="100.9,955.2 98.5,961.8 96.1,955.2 94.1,955.2 97.4,963.8 99.6,963.8 102.9,955.2 	"/>
	<path class="st1" d="M105.2,951.6c-0.7,0-1.2,0.5-1.2,1.2c0,0.6,0.5,1.2,1.2,1.2c0.7,0,1.2-0.5,1.2-1.2
		C106.4,952.1,105.8,951.6,105.2,951.6z"/>
	<path class="st1" d="M104.2,964.2c0,1.2-0.5,1.6-1.7,1.5v1.8c2.3,0.2,3.5-0.9,3.5-3.3v-8.9h-1.9V964.2z"/>
	<path class="st1" d="M111.8,961.5l-2.6-6.2h-2l3.6,8.4l-0.1,0.2c-0.4,1.1-1.1,1.7-2.3,1.7v1.7c2,0.1,3.4-1,4.2-3.2l3.3-8.8h-2
		L111.8,961.5z"/>
	<path class="st1" d="M211.9,938.7c0-2.1-1.5-3.8-3.6-3.8h-3v7.6h3C210.4,942.5,211.9,940.8,211.9,938.7z M206.3,935.8h2
		c1.6,0,2.6,1.2,2.6,2.9s-1.1,2.9-2.6,2.9h-2V935.8z"/>
	<path class="st1" d="M216.1,940.8h3.4l0.6,1.7h1.1l-2.8-7.6h-1.1l-2.8,7.6h1.1L216.1,940.8z M217.8,936.1l1.4,3.8h-2.7L217.8,936.1
		z"/>
	<polygon class="st1" points="225.9,938.5 223.8,934.9 222.7,934.9 225.4,939.4 225.4,942.5 226.4,942.5 226.4,939.4 229.1,934.9 
		228,934.9 	"/>
	<path class="st1" d="M239.9,942.7c1.9,0,2.9-1.6,2.9-4c0-2.4-1-4-2.9-4c-1.9,0-2.9,1.6-2.9,4C237,941,238.1,942.7,239.9,942.7z
		 M239.9,935.7c1.2,0,1.9,1.1,1.9,3s-0.7,3-1.9,3c-1.2,0-1.9-1.1-1.9-3S238.7,935.7,239.9,935.7z"/>
	<path class="st1" d="M250.8,940.3c0-1.3-0.9-2-2-2.2l1.7-2.2v-0.9h-4.6v0.9h3.4l-1.8,2.4l0.4,0.6h0.3c0.9,0,1.6,0.5,1.6,1.4
		c0,0.9-0.7,1.4-1.6,1.4c-0.8,0-1.4-0.3-1.7-1.1l-0.9,0.5c0.4,1,1.4,1.5,2.5,1.5C249.6,942.7,250.8,941.8,250.8,940.3z"/>
	<polygon class="st1" points="841.3,936.6 843.8,940.7 843.9,940.7 846.4,936.6 846.4,942.5 847.4,942.5 847.4,934.9 846.3,934.9 
		843.9,938.9 841.4,934.9 840.3,934.9 840.3,942.5 841.3,942.5 	"/>
	<path class="st1" d="M854.9,934.7c-2.2,0-3.9,1.8-3.9,4c0,2.2,1.7,4,3.9,4c2.2,0,4-1.8,4-4C858.8,936.5,857.1,934.7,854.9,934.7z
		 M854.9,941.7c-1.7,0-2.9-1.3-2.9-3c0-1.7,1.3-3,2.9-3c1.7,0,2.9,1.3,2.9,3C857.8,940.4,856.6,941.7,854.9,941.7z"/>
	<path class="st1" d="M867.8,937.2c0-1.3-1.1-2.4-2.4-2.4h-3v7.6h1v-2.9h1.8l1.7,2.9h1.1l-1.8-3.1
		C867.1,939.1,867.8,938.2,867.8,937.2z M863.4,938.7v-2.8h2c0.8,0,1.4,0.6,1.4,1.4c0,0.8-0.6,1.4-1.4,1.4H863.4z"/>
	<polygon class="st1" points="875.9,941.6 872.3,941.6 872.3,939.1 875.5,939.1 875.5,938.2 872.3,938.2 872.3,935.8 875.8,935.8 
		875.8,934.9 871.3,934.9 871.3,942.5 875.9,942.5 	"/>
	<path class="st1" d="M58.9,938.7c0-2.1-1.5-3.8-3.6-3.8h-3v7.6h3C57.4,942.5,58.9,940.8,58.9,938.7z M53.3,935.8h2
		c1.6,0,2.6,1.2,2.6,2.9s-1.1,2.9-2.6,2.9h-2V935.8z"/>
	<polygon class="st1" points="67,941.6 63.4,941.6 63.4,939.1 66.6,939.1 66.6,938.2 63.4,938.2 63.4,935.8 66.9,935.8 66.9,934.9 
		62.4,934.9 62.4,942.5 67,942.5 	"/>
	<path class="st1" d="M73,941.7c-1.1,0-1.8-0.5-2-1.4l-0.9,0.5c0.4,1.1,1.4,1.9,2.9,1.9c1.6,0,2.6-0.8,2.6-2.2
		c0-1.5-1.3-1.9-2.6-2.3c-1.1-0.3-1.6-0.6-1.6-1.3c0-0.7,0.6-1.1,1.4-1.1c0.9,0,1.5,0.5,1.7,1.2l0.8-0.5c-0.4-1-1.3-1.7-2.6-1.7
		c-1.3,0-2.4,0.8-2.4,2.2c0,1.4,1.2,1.8,2.4,2.2c1.1,0.3,1.8,0.6,1.8,1.4C74.6,941.2,74,941.7,73,941.7z"/>
	<rect x="79" y="934.9" class="st1" width="1" height="7.6"/>
	<path class="st1" d="M91.3,938.7h-3.8v0.9h2.8c-0.2,1.1-1.1,2-2.7,2c-1.8,0-3-1.3-3-3c0-1.7,1.2-3,3-3c1.1,0,2,0.6,2.4,1.4l0.9-0.5
		c-0.6-1.1-1.9-1.8-3.3-1.8c-2.3,0-4,1.8-4,4c0,2.2,1.7,4,4,4c2.3,0,3.7-1.5,3.7-3.5V938.7z"/>
	<polygon class="st1" points="95.8,936.8 99.8,942.5 100.6,942.5 100.6,934.9 99.6,934.9 99.6,940.6 95.6,934.9 94.8,934.9 
		94.8,942.5 95.8,942.5 	"/>
	<polygon class="st1" points="109.1,941.6 105.5,941.6 105.5,939.1 108.7,939.1 108.7,938.2 105.5,938.2 105.5,935.8 109,935.8 
		109,934.9 104.5,934.9 104.5,942.5 109.1,942.5 	"/>
	<path class="st1" d="M115.5,934.9h-3v7.6h3c2.1,0,3.6-1.7,3.6-3.8C119.2,936.6,117.6,934.9,115.5,934.9z M115.5,941.6h-2v-5.7h2
		c1.6,0,2.6,1.2,2.6,2.9S117.1,941.6,115.5,941.6z"/>
	<path class="st1" d="M132.1,938.6c0.5-0.3,0.8-0.9,0.8-1.6c0-1.2-0.9-2.1-2.1-2.1h-3v7.6h3.3c1.2,0,2.2-0.9,2.2-2.2
		C133.2,939.5,132.7,938.9,132.1,938.6z M128.7,935.8h2c0.6,0,1.1,0.5,1.1,1.2c0,0.7-0.5,1.2-1.1,1.2h-2V935.8z M131,941.6h-2.3
		v-2.5h2.3c0.7,0,1.2,0.5,1.2,1.2C132.2,941,131.7,941.6,131,941.6z"/>
	<polygon class="st1" points="138.9,938.5 136.8,934.9 135.6,934.9 138.3,939.4 138.3,942.5 139.4,942.5 139.4,939.4 142.1,934.9 
		140.9,934.9 	"/>
	<path class="st1" d="M211.3,959.7h4.1c-0.4,1.7-1.8,2.8-4,2.8c-2.8,0-4.6-1.9-4.6-4.4c0-2.5,1.8-4.5,4.5-4.5c1.6,0,3,0.8,3.6,2
		l1.8-1c-1-1.8-3-2.9-5.4-2.9c-3.7,0-6.5,2.9-6.5,6.4s2.7,6.4,6.6,6.4c3.6,0,6.1-2.4,6.1-5.8v-0.8h-6.2V959.7z"/>
	<path class="st1" d="M226.3,956.7c-0.7-0.9-1.7-1.5-3.1-1.5c-2.4,0-4.4,2-4.4,4.7c0,2.6,2,4.7,4.4,4.7c1.4,0,2.4-0.6,3.1-1.5v1.3
		h1.9v-8.9h-1.9V956.7z M223.5,962.7c-1.6,0-2.8-1.2-2.8-2.8c0-1.6,1.2-2.8,2.8-2.8c1.6,0,2.8,1.2,2.8,2.8
		C226.3,961.5,225.1,962.7,223.5,962.7z"/>
	<path class="st1" d="M240.1,955.2c-1.2,0-2.1,0.5-2.7,1.4c-0.5-0.9-1.4-1.4-2.5-1.4c-1.1,0-2,0.4-2.5,1.3v-1.1h-1.9v8.9h1.9v-5
		c0-1.6,0.9-2.3,2-2.3c1,0,1.7,0.7,1.7,1.9v5.4h1.9v-5c0-1.6,0.8-2.3,1.9-2.3c1,0,1.7,0.7,1.7,1.9v5.4h1.9v-5.5
		C243.4,956.6,242.1,955.2,240.1,955.2z"/>
	<rect x="245.5" y="955.4" class="st1" width="1.9" height="8.9"/>
	<path class="st1" d="M246.4,951.7c-0.7,0-1.2,0.5-1.2,1.2c0,0.7,0.5,1.2,1.2,1.2c0.7,0,1.2-0.6,1.2-1.2
		C247.6,952.2,247.1,951.7,246.4,951.7z"/>
	<path class="st1" d="M254.3,955.2c-1.2,0-2.2,0.4-2.7,1.4v-1.1h-1.9v8.9h1.9v-4.7c0-1.8,1-2.5,2.2-2.5c1.2,0,2,0.7,2,2.1v5.2h1.9
		v-5.4C257.7,956.6,256.2,955.2,254.3,955.2z"/>
	<path class="st1" d="M266.8,956.8c-0.7-1-1.7-1.5-3.1-1.5c-2.5,0-4.5,2-4.5,4.6s2,4.6,4.5,4.6c1.4,0,2.4-0.6,3.1-1.5v1.1
		c0,1.5-1,2.4-2.6,2.4c-1.5,0-2.2-0.6-2.6-1.4l-1.6,1c0.7,1.4,2.2,2.1,4.2,2.1c2.3,0,4.5-1.3,4.5-4.2v-8.4h-1.9V956.8z M263.9,962.6
		c-1.6,0-2.8-1.2-2.8-2.8s1.2-2.8,2.8-2.8c1.6,0,2.8,1.2,2.8,2.8S265.5,962.6,263.9,962.6z"/>
	<polygon class="st1" points="281.3,958.1 277.6,951.9 275.4,951.9 275.4,964.3 277.4,964.3 277.4,955.4 281.2,961.7 281.5,961.7 
		285.2,955.5 285.2,964.3 287.3,964.3 287.3,951.9 285.1,951.9 	"/>
	<path class="st1" d="M293.8,955.2c-2.6,0-4.7,2-4.7,4.7c0,2.6,2.1,4.7,4.7,4.7c2.6,0,4.7-2,4.7-4.7
		C298.5,957.2,296.4,955.2,293.8,955.2z M293.8,962.7c-1.6,0-2.8-1.2-2.8-2.8c0-1.6,1.2-2.8,2.8-2.8s2.8,1.2,2.8,2.8
		C296.6,961.5,295.4,962.7,293.8,962.7z"/>
	<path class="st1" d="M306.2,960.2c0,1.8-1,2.5-2.2,2.5c-1.2,0-2-0.7-2-2.1v-5.2H300v5.4c0,2.3,1.4,3.6,3.4,3.6
		c1.2,0,2.2-0.4,2.7-1.4v1.1h1.9v-8.9h-1.9V960.2z"/>
	<path class="st1" d="M312,957.9c0-0.6,0.6-0.9,1.3-0.9c0.7,0,1.3,0.3,1.7,1l1.6-0.9c-0.6-1.2-1.8-1.8-3.3-1.8c-1.8,0-3.2,1-3.2,2.7
		c0,3.2,4.8,2.3,4.8,3.9c0,0.7-0.7,1-1.5,1c-1,0-1.7-0.5-2-1.3l-1.6,1c0.6,1.3,1.8,2.1,3.6,2.1c1.9,0,3.5-1,3.5-2.7
		C316.8,958.5,312,959.5,312,957.9z"/>
	<path class="st1" d="M322.4,955.2c-2.8,0-4.7,2-4.7,4.7c0,2.7,1.9,4.7,4.8,4.7c1.7,0,3.1-0.7,3.9-1.9l-1.6-0.9
		c-0.4,0.6-1.2,1.1-2.3,1.1c-1.4,0-2.5-0.7-2.8-2.1h7c0-0.2,0.1-0.5,0.1-0.8C326.8,957.3,325,955.2,322.4,955.2z M319.7,959.1
		c0.3-1.3,1.2-2.2,2.7-2.2c1.2,0,2.3,0.7,2.5,2.2H319.7z"/>
	<polygon class="st1" points="844.2,962.2 841.8,955.4 839.7,955.4 843.1,964.3 845.3,964.3 848.8,955.4 846.7,955.4 	"/>
	<rect x="850" y="955.4" class="st1" width="1.9" height="8.9"/>
	<path class="st1" d="M851,951.7c-0.7,0-1.2,0.5-1.2,1.2c0,0.7,0.5,1.2,1.2,1.2c0.7,0,1.2-0.6,1.2-1.2
		C852.2,952.2,851.6,951.7,851,951.7z"/>
	<path class="st1" d="M854.3,964.7c0,1.2-0.5,1.7-1.7,1.6v1.8c2.4,0.2,3.6-1,3.6-3.4v-9.2h-1.9V964.7z"/>
	<path class="st1" d="M855.2,951.7c-0.7,0-1.2,0.5-1.2,1.2c0,0.7,0.5,1.2,1.2,1.2c0.7,0,1.2-0.6,1.2-1.2
		C856.5,952.2,855.9,951.7,855.2,951.7z"/>
	<path class="st1" d="M865.4,956.7c-0.7-0.9-1.7-1.5-3.1-1.5c-2.4,0-4.4,2-4.4,4.7c0,2.6,2,4.7,4.4,4.7c1.4,0,2.4-0.6,3.1-1.5v1.3
		h1.9v-8.9h-1.9V956.7z M862.6,962.7c-1.6,0-2.8-1.2-2.8-2.8c0-1.6,1.2-2.8,2.8-2.8c1.6,0,2.8,1.2,2.8,2.8
		C865.4,961.5,864.2,962.7,862.6,962.7z"/>
	<path class="st1" d="M873.3,961.9l-2.6-6.4h-2.1l3.8,8.7l-0.1,0.2c-0.4,1.2-1.1,1.8-2.4,1.7v1.8c2,0.1,3.5-1,4.3-3.3l3.4-9.1h-2
		L873.3,961.9z"/>
	<polygon class="st1" points="882.3,962.2 879.9,955.4 877.8,955.4 881.2,964.3 883.4,964.3 886.9,955.4 884.8,955.4 	"/>
	<path class="st1" d="M891.9,955.2c-2.8,0-4.7,2-4.7,4.7c0,2.7,1.9,4.7,4.8,4.7c1.7,0,3.1-0.7,3.9-1.9l-1.6-0.9
		c-0.4,0.6-1.2,1.1-2.3,1.1c-1.4,0-2.5-0.7-2.8-2.1h7c0-0.2,0.1-0.5,0.1-0.8C896.4,957.3,894.5,955.2,891.9,955.2z M889.2,959.1
		c0.3-1.3,1.2-2.2,2.7-2.2c1.2,0,2.3,0.7,2.5,2.2H889.2z"/>
	<path class="st1" d="M899.9,956.9v-1.5H898v8.9h1.9v-4.5c0-2,1.5-2.6,2.7-2.5v-2.1C901.6,955.3,900.5,955.7,899.9,956.9z"/>
	<path class="st1" d="M913.8,955.2c-1.2,0-2.1,0.5-2.7,1.4c-0.5-0.9-1.4-1.4-2.5-1.4c-1.1,0-2,0.4-2.5,1.3v-1.1h-1.9v8.9h1.9v-5
		c0-1.6,0.9-2.3,2-2.3c1,0,1.7,0.7,1.7,1.9v5.4h1.9v-5c0-1.6,0.8-2.3,1.9-2.3c1,0,1.7,0.7,1.7,1.9v5.4h1.9v-5.5
		C917.1,956.6,915.8,955.2,913.8,955.2z"/>
	<path class="st1" d="M926.2,956.7c-0.7-0.9-1.7-1.5-3.1-1.5c-2.4,0-4.4,2-4.4,4.7c0,2.6,2,4.7,4.4,4.7c1.4,0,2.4-0.6,3.1-1.5v1.3
		h1.9v-8.9h-1.9V956.7z M923.4,962.7c-1.6,0-2.8-1.2-2.8-2.8c0-1.6,1.2-2.8,2.8-2.8c1.6,0,2.8,1.2,2.8,2.8
		C926.2,961.5,925,962.7,923.4,962.7z"/>
	<circle class="st1" cx="931.5" cy="963.2" r="1.3"/>
	<path class="st1" d="M938.3,962.6c-1.6,0-2.7-1.2-2.7-2.8c0-1.6,1.2-2.8,2.7-2.8c1.1,0,1.9,0.5,2.3,1.4l1.6-1
		c-0.7-1.4-2.2-2.3-3.9-2.3c-2.7,0-4.7,2-4.7,4.7c0,2.6,2,4.7,4.7,4.7c1.7,0,3.2-0.9,4-2.3l-1.6-0.9
		C940.2,962.1,939.3,962.6,938.3,962.6z"/>
	<path class="st1" d="M947.7,955.2c-2.6,0-4.7,2-4.7,4.7c0,2.6,2.1,4.7,4.7,4.7c2.6,0,4.7-2,4.7-4.7
		C952.4,957.2,950.3,955.2,947.7,955.2z M947.7,962.7c-1.6,0-2.8-1.2-2.8-2.8c0-1.6,1.2-2.8,2.8-2.8s2.8,1.2,2.8,2.8
		C950.5,961.5,949.3,962.7,947.7,962.7z"/>
</g>
<path id="XMLID_27_" class="st2" d="M501,282.6c0,0,0-32.7,0-58.3c0-16.6-13.4-30-30-30H308c-16.6,0-30-13.4-30-30v0
	c0-16.6,13.4-30,30-30h286.4c16.6,0,30-13.4,30-30v0c0-16.6-13.4-30-30-30H531c-16.6,0-30-13.4-30-30c0-17.6,0-36.3,0-36.3"/>
<path id="XMLID_39_" class="st3" d="M510.8,295.6h-21.7c-1.6,0-2.8-1.3-2.8-2.8v-2.5c0-1.6,1.3-2.8,2.8-2.8h21.7
	c1.6,0,2.8,1.3,2.8,2.8v2.5C513.7,294.3,512.4,295.6,510.8,295.6z"/>
<path id="XMLID_38_" class="st3" d="M510.4,282.8h-20.8c-1.8,0-3.3-1.5-3.3-3.3v-1.7c0-1.8,1.5-3.3,3.3-3.3h20.8
	c1.8,0,3.3,1.5,3.3,3.3v1.7C513.7,281.3,512.2,282.8,510.4,282.8z"/>
<path id="XMLID_37_" class="st3" d="M509.9,288.8h-19.8c-1.2,0-2.2-1-2.2-2.2v-2.9c0-1.2,1-2.2,2.2-2.2h19.8c1.2,0,2.3,1,2.3,2.2
	v2.9C512.2,287.8,511.2,288.8,509.9,288.8z"/>
<path id="XMLID_35_" class="st4" d="M492,274.6c0,0,0-32.7,0-58.3c0-16.6-13.4-30-30-30H299c-16.6,0-30-13.4-30-30v0
	c0-16.6,13.4-30,30-30h286.4c16.6,0,30-13.4,30-30v0c0-16.6-13.4-30-30-30H522c-16.6,0-30-13.4-30-30c0-17.6,0-36.3,0-36.3"/>
<path id="XMLID_26_" class="st5" d="M502.8,295.6h-21.7c-1.6,0-2.8-1.3-2.8-2.8v-2.5c0-1.6,1.3-2.8,2.8-2.8h21.7
	c1.6,0,2.8,1.3,2.8,2.8v2.5C505.7,294.3,504.4,295.6,502.8,295.6z"/>
<path id="XMLID_33_" class="st5" d="M502.4,282.8h-20.8c-1.8,0-3.3-1.5-3.3-3.3v-1.7c0-1.8,1.5-3.3,3.3-3.3h20.8
	c1.8,0,3.3,1.5,3.3,3.3v1.7C505.7,281.3,504.2,282.8,502.4,282.8z"/>
<path id="XMLID_31_" class="st5" d="M501.9,288.3h-19.8c-1.2,0-2.2-1-2.2-2.2v-1.9c0-1.2,1-2.2,2.2-2.2h19.8c1.2,0,2.2,1,2.2,2.2
	v1.9C504.2,287.3,503.2,288.3,501.9,288.3z"/>
<path id="XMLID_36_" class="st6" d="M599.8,360.1c-1.5-3.5-3.6-6.7-5.9-9.6c-0.2-0.4-0.3-0.8-0.5-1.2c-5.6-14.4-21.8-23.4-21.8-23.4
	c-15.1-9.1-30.4-14.6-44.9-18.3c-3.8-1-7.5,1.9-7.5,5.8v17.8h-36v-17.8c0-3.9-3.7-6.8-7.5-5.8c-14.6,3.7-29.8,9.2-44.9,18.3
	c0,0-16.2,8.9-21.8,23.4c-5.1,13-12,35-18.3,61.4l-9.3,3c-4.9,21.1-9.3,44.7-12.1,68.5l8.7-2.7c-0.9,6.9-1.6,13.9-2.2,20.9l-8.5,2.2
	c-2.3,29.8-1.5,59,4.6,83.1l9.2,1.4c0.1,0.3,0.2,0.7,0.3,1c31.7,75.9,49.7,120.8,63.4,130c13.5,9.1,40.8,11.3,56.5,10.7
	c15.5,0.7,42.4-0.8,56.1-9.7l0,0c1.2-0.6,1.8-1.3,2.9-2c14.7-9.2,31.9-45.4,62-112.4l6-13.4l0.1-0.3
	C651,520.1,615.3,396.9,599.8,360.1z"/>
<path id="XMLID_14_" class="st7" d="M384,480.3h-11l-15,3.9c-2.3,29.8-1.5,59,4.6,83.1l29.8,4.5L384,480.3z"/>
<path id="XMLID_12_" class="st8" d="M384,480.3h-11l-15,3.9c-2.3,29.8-1.5,59,4.6,83.1l29.8,4.5L384,480.3z"/>
<path id="XMLID_15_" class="st7" d="M374.7,459.3l13-69l-15.5,5c-4.9,21.1-9.3,44.7-12.1,68.5L374.7,459.3z"/>
<path id="XMLID_24_" class="st9" d="M387,480.3h-11l-15,3.9c-2.3,29.8-1.5,59,4.6,83.1l29.8,4.5L387,480.3z"/>
<path id="XMLID_20_" class="st9" d="M377.7,459.3l13-69l-15.5,5c-4.9,21.1-9.3,44.7-12.1,68.5L377.7,459.3z"/>
<path id="XMLID_13_" class="st8" d="M374.7,459.3l13-69l-15.5,5c-4.9,21.1-9.3,44.7-12.1,68.5L374.7,459.3z"/>
<path id="XMLID_10_" class="st10" d="M590.6,341.8c-6.3-15-23.3-24.2-25.1-25.1c-5.6-3.1-11.4-5.9-17.4-8.4v392.9
	c1.2-0.6,2.5-1.3,3.6-2c14.7-9.2,31.2-46.1,61.4-113l6-13.4l0.1-0.3C641.8,501.8,606.1,378.7,590.6,341.8z"/>
<path id="XMLID_11_" class="st8" d="M590.6,341.8c-6.3-15-23.3-24.2-25.1-25.1c-5.6-3.1-11.4-5.9-17.4-8.4v392.9
	c1.2-0.6,2.5-1.3,3.6-2c14.7-9.2,31.2-46.1,61.4-113l6-13.4l0.1-0.3C641.8,501.8,606.1,378.7,590.6,341.8z"/>
<path id="XMLID_17_" class="st11" d="M482,359.3"/>
<path id="XMLID_7_" class="st12" d="M584.2,331c-5.6-14.4-21.8-23.4-21.8-23.4c-15.1-9.1-30.4-14.6-44.9-18.3
	c-3.8-1-7.5,1.9-7.5,5.8V313h-36v-17.8c0-3.9-3.7-6.8-7.5-5.8c-14.6,3.7-29.8,9.2-44.9,18.3c0,0-16.2,8.9-21.8,23.4
	c-15.7,40.1-49,167-27.7,238.7c31.7,75.9,49.7,120.8,63.4,130c13.5,9.1,40.8,11.3,56.5,10.7c15.7,0.7,43-1.5,56.5-10.7
	c13.6-9.2,31.7-54.1,63.4-130C633.2,498,599.9,371.1,584.2,331z"/>
<path id="XMLID_34_" class="st9" d="M579.3,390.3c0-26.1-2.2-51.3-6.4-74.9c-5.5-5-10.5-7.8-10.5-7.8c-15.1-9.1-30.4-14.6-44.9-18.3
	c-3.8-1-7.5,1.9-7.5,5.8V313h-36v-17.8c0-3.9-3.7-6.8-7.5-5.8c-14.6,3.7-29.8,9.2-44.9,18.3c0,0-16.2,8.9-21.8,23.4
	c-15.7,40.1-49,167-27.7,238.7c9.3,22.4,17.5,42,24.7,58.8c13.4,7.6,27.6,11.7,42.4,11.7C516.6,640.2,579.3,528.3,579.3,390.3z"/>
<path id="XMLID_6_" class="st13" d="M584.2,331c-5.6-14.4-21.8-23.4-21.8-23.4c-15.1-9.1-30.4-14.6-44.9-18.3
	c-3.8-1-7.5,1.9-7.5,5.8V313h-36v-17.8c0-3.9-3.7-6.8-7.5-5.8c-14.6,3.7-29.8,9.2-44.9,18.3c0,0-16.2,8.9-21.8,23.4
	c-15.7,40.1-49,167-27.7,238.7c31.7,75.9,49.7,120.8,63.4,130c13.5,9.1,40.8,11.3,56.5,10.7c15.7,0.7,43-1.5,56.5-10.7
	c13.6-9.2,31.7-54.1,63.4-130C633.2,498,599.9,371.1,584.2,331z"/>
<path id="XMLID_8_" class="st13" d="M474,307.1V295c0-3.9-3.6-6.7-7.4-5.8c-14.7,3.7-30,9.2-45.2,18.4c0,0-16.4,8.9-22,23.4
	c-9.2,23.4-24.3,76.4-31.1,130.7c-0.6,4.8,4.4,8.3,8.7,6c14.7-7.9,30.4-16.2,41.2-21.3c24.4-11.6,57.7-21.5,69.4-24.8
	c2.6-0.7,4.3-3.1,4.3-5.7v-96.9c0-3.3-2.7-5.9-5.9-5.9h-6.1C476.7,313,474,310.4,474,307.1z"/>
<path id="XMLID_9_" class="st13" d="M584.2,331c-5.6-14.4-21.8-23.4-21.8-23.4c-15.1-9.1-30.4-14.6-44.9-18.3
	c-3.8-1-7.5,1.9-7.5,5.8V313h-18v107.4c0,0,43.3,11.6,73.5,26c10.8,5.1,26.5,13.4,41.1,21.3c4.3,2.3,9.3-1.2,8.7-6
	C608.5,407.4,593.4,354.4,584.2,331z"/>
<path id="XMLID_16_" class="st7" d="M492,534L492,534c-9.9,0-18-8.1-18-18V306c0-5.3,4.3-9.7,9.7-9.7h16.7c5.3,0,9.7,4.3,9.7,9.7
	v210C510,526,501.9,534,492,534z"/>
<path id="XMLID_32_" class="st14" d="M510,352.3V306c0-5.3-4.3-9.7-9.7-9.7h-16.7c-5.3,0-9.7,4.3-9.7,9.7v198.8L510,352.3z"/>
<path id="XMLID_23_" class="st15" d="M499.9,468.6v-28.3c0-4.3-3.5-7.9-7.9-7.9s-7.9,3.5-7.9,7.9v28.3H499.9z"/>
<path id="XMLID_22_" class="st15" d="M499.9,476.6v28.3c0,4.3-3.5,7.9-7.9,7.9s-7.9-3.5-7.9-7.9v-28.3H499.9z"/>
<path id="XMLID_3_" class="st13" d="M492,534L492,534c-9.9,0-18-8.1-18-18V306.1c0-5.4,4.4-9.8,9.8-9.8h16.5c5.4,0,9.8,4.4,9.8,9.8
	V516C510,526,501.9,534,492,534z"/>
<path id="XMLID_5_" class="st16" d="M495.2,402.3h-6.5c-3.7,0-6.7-3-6.7-6.7v-44.5c0-3.7,3-6.7,6.7-6.7h6.5c3.7,0,6.7,3,6.7,6.7
	v44.5C502,399.3,498.9,402.3,495.2,402.3z"/>
<g id="XMLID_18_">
	<g id="XMLID_79_">
		<line id="XMLID_80_" class="st11" x1="483.1" y1="396.5" x2="500.9" y2="396.5"/>
	</g>
	<g id="XMLID_76_">
		<line id="XMLID_77_" class="st11" x1="483.1" y1="390.5" x2="500.9" y2="390.5"/>
	</g>
	<g id="XMLID_73_">
		<line id="XMLID_74_" class="st11" x1="483.1" y1="384.5" x2="500.9" y2="384.5"/>
	</g>
	<g id="XMLID_70_">
		<line id="XMLID_71_" class="st11" x1="483.1" y1="378.5" x2="500.9" y2="378.5"/>
	</g>
	<g id="XMLID_67_">
		<line id="XMLID_68_" class="st11" x1="483.1" y1="372.5" x2="500.9" y2="372.5"/>
	</g>
	<g id="XMLID_64_">
		<line id="XMLID_65_" class="st11" x1="483.1" y1="366.5" x2="500.9" y2="366.5"/>
	</g>
	<g id="XMLID_61_">
		<line id="XMLID_62_" class="st11" x1="483.1" y1="360.5" x2="500.9" y2="360.5"/>
	</g>
	<g id="XMLID_58_">
		<line id="XMLID_59_" class="st11" x1="483.1" y1="354.5" x2="500.9" y2="354.5"/>
	</g>
	<g id="XMLID_55_">
		<line id="XMLID_56_" class="st11" x1="483.1" y1="348.5" x2="500.9" y2="348.5"/>
	</g>
</g>
<g id="XMLID_19_">
	<path id="XMLID_30_" class="st8" d="M495.2,402.3c-2.2,0-4.3,0-6.5,0c-3.7,0-7-3-7.4-6.7c-1.3-14.8-1.3-29.7,0-44.5
		c0.4-3.7,3.7-6.7,7.4-6.7c2.2,0,4.3,0,6.5,0c3.7,0,7,3,7.4,6.7c1.3,14.8,1.3,29.7,0,44.5C502.3,399.3,498.9,402.3,495.2,402.3z"/>
</g>
<path id="XMLID_2_" class="st8" d="M497,402.3h-10c-2.8,0-5-2.2-5-5v-48c0-2.8,2.2-5,5-5h10c2.8,0,5,2.2,5,5v48
	C502,400.1,499.7,402.3,497,402.3z"/>
<path id="XMLID_25_" class="st8" d="M499.9,468.6v-28.3c0-4.3-3.5-7.9-7.9-7.9s-7.9,3.5-7.9,7.9v28.3H499.9z"/>
<path id="XMLID_21_" class="st8" d="M499.9,476.6v28.3c0,4.3-3.5,7.9-7.9,7.9s-7.9-3.5-7.9-7.9v-28.3H499.9z"/>
</svg>
