<?xml version="1.0" encoding="utf-8"?>
<!-- Generator: Adobe Illustrator 23.1.1, SVG Export Plug-In . SVG Version: 6.00 Build 0)  -->
<svg version="1.1" id="Layer_1" xmlns="http://www.w3.org/2000/svg" xmlns:xlink="http://www.w3.org/1999/xlink" x="0px" y="0px"
	 viewBox="0 0 1000 1000" style="enable-background:new 0 0 1000 1000;" xml:space="preserve">
<style type="text/css">
	.st0{fill:#E2E2E2;}
	.st1{fill:#DB6B7B;}
	.st2{fill:#ECF9FF;}
	.st3{fill:#FFFFFF;}
	.st4{fill:#F5A623;}
	.st5{fill:#F5969C;}
	.st6{opacity:0.18;fill:#282828;stroke:#282828;stroke-width:6;stroke-linecap:round;stroke-linejoin:round;stroke-miterlimit:10;}
	.st7{fill:#DF747C;}
	.st8{fill:none;stroke:#2D255E;stroke-width:6;stroke-linecap:round;stroke-linejoin:round;stroke-miterlimit:10;}
	.st9{fill:#66CDFD;}
	.st10{fill:#3297D9;}
	.st11{opacity:0.3;fill:#FFFFFF;}
	.st12{fill:#D49D7F;}
	.st13{fill:#CE5569;}
	.st14{fill:#2D255E;}
	.st15{fill:#D68821;}
	.st16{fill:#D6D6D6;}
	.st17{fill:#14A56A;}
	.st18{fill:#12B075;}
	.st19{fill:#69351F;}
	.st20{fill:#632D1B;}
	.st21{fill:#562314;}
	.st22{fill:#E8E8E8;}
	.st23{fill:none;stroke:#2D255E;stroke-width:3;stroke-linecap:round;stroke-linejoin:round;stroke-miterlimit:10;}
	.st24{fill:#D3D3D3;}
	.st25{fill:none;stroke:#2D255E;stroke-width:2;stroke-linecap:round;stroke-linejoin:round;stroke-miterlimit:10;}
	.st26{opacity:0.38;fill:none;stroke:#006837;stroke-width:6;stroke-linecap:round;stroke-linejoin:round;stroke-miterlimit:10;}
	.st27{fill:none;stroke:#39D188;stroke-width:6;stroke-linecap:round;stroke-linejoin:round;stroke-miterlimit:10;}
	.st28{fill:none;stroke:#2D255E;stroke-width:8;stroke-linecap:round;stroke-linejoin:round;stroke-miterlimit:10;}
</style>
<rect id="XMLID_3_" class="st0" width="1000" height="1000"/>
<g>
	<g>
		<g>
			<path class="st1" d="M63.2,959.2c0,2.5-1.2,3.7-2.6,3.7c-1.1,0-1.9-0.5-2.1-1.4c-0.4,0.5-1,0.8-1.8,0.8c-1.5,0-2.6-1.2-2.6-2.8
				c0-1.6,1.1-2.8,2.6-2.8c0.7,0,1.2,0.3,1.6,0.7v-0.5h1.6v3.9c0,0.8,0.3,1.4,1,1.4c0.9,0,1.7-0.9,1.7-3c0-3-2.3-5.3-5.4-5.3
				c-3.1,0-5.6,2.4-5.6,5.7c0,3.3,2.5,5.7,5.9,5.7c1.1,0,2.1-0.2,2.9-0.4v0.6c-0.8,0.3-1.7,0.4-2.9,0.4c-3.7,0-6.5-2.6-6.5-6.2
				c0-3.4,2.7-6.2,6.2-6.2C61.1,953.3,63.2,956.4,63.2,959.2z M58.3,959.5c0-0.8-0.6-1.4-1.3-1.4c-0.8,0-1.3,0.5-1.3,1.4
				c0,0.8,0.6,1.3,1.3,1.3C57.8,960.9,58.3,960.3,58.3,959.5z"/>
		</g>
		<g>
			<path class="st1" d="M69.4,955.1v2c-1.2-0.1-2.6,0.5-2.6,2.4v4.3h-1.9v-8.6h1.9v1.4C67.3,955.5,68.3,955.1,69.4,955.1z"/>
		</g>
		<g>
			<path class="st1" d="M74.6,962.3c1,0,1.8-0.5,2.2-1.1l1.5,0.9c-0.8,1.2-2.1,1.9-3.8,1.9c-2.8,0-4.7-1.9-4.7-4.5
				c0-2.5,1.8-4.5,4.5-4.5c2.6,0,4.3,2.1,4.3,4.5c0,0.3,0,0.5-0.1,0.8h-6.8C72.1,961.6,73.2,962.3,74.6,962.3z M76.9,958.8
				c-0.3-1.5-1.3-2.1-2.5-2.1c-1.4,0-2.3,0.8-2.6,2.1H76.9z"/>
		</g>
		<g>
			<path class="st1" d="M88.9,955.2v8.6h-1.9v-1.2c-0.7,0.9-1.7,1.5-3,1.5c-2.3,0-4.3-2-4.3-4.5c0-2.6,1.9-4.5,4.3-4.5
				c1.3,0,2.3,0.5,3,1.4v-1.2H88.9z M87.1,959.5c0-1.6-1.2-2.7-2.7-2.7c-1.5,0-2.7,1.1-2.7,2.7c0,1.6,1.2,2.7,2.7,2.7
				C85.9,962.3,87.1,961.1,87.1,959.5z"/>
		</g>
		<g>
			<path class="st1" d="M91.1,951.3H93v12.5h-1.9V951.3z"/>
		</g>
		<g>
			<path class="st1" d="M102.9,955.2l-3.3,8.6h-2.1l-3.3-8.6h2l2.4,6.5l2.4-6.5H102.9z"/>
		</g>
		<g>
			<path class="st1" d="M104.2,955.2h1.9v8.9c0,2.4-1.2,3.5-3.5,3.3v-1.8c1.1,0.1,1.7-0.3,1.7-1.5V955.2z M104,952.8
				c0-0.7,0.5-1.2,1.2-1.2c0.7,0,1.2,0.5,1.2,1.2c0,0.6-0.5,1.2-1.2,1.2C104.5,954,104,953.4,104,952.8z"/>
		</g>
		<g>
			<path class="st1" d="M116,955.2l-3.3,8.8c-0.8,2.2-2.2,3.3-4.2,3.2v-1.7c1.2,0.1,1.9-0.5,2.3-1.7l0.1-0.2l-3.6-8.4h2l2.6,6.2
				l2.2-6.2H116z"/>
		</g>
	</g>
	<g>
		<path class="st1" d="M211.9,938.7c0,2.1-1.5,3.8-3.6,3.8h-3v-7.6h3C210.4,934.9,211.9,936.6,211.9,938.7z M210.9,938.7
			c0-1.6-1.1-2.9-2.6-2.9h-2v5.7h2C209.8,941.6,210.9,940.3,210.9,938.7z"/>
		<path class="st1" d="M219.5,940.8h-3.4l-0.6,1.7h-1.1l2.8-7.6h1.1l2.8,7.6h-1.1L219.5,940.8z M219.2,939.9l-1.4-3.8l-1.4,3.8
			H219.2z"/>
		<path class="st1" d="M226.4,939.4v3.1h-1v-3.1l-2.7-4.5h1.1l2.1,3.6l2.1-3.6h1.1L226.4,939.4z"/>
		<path class="st1" d="M241.9,940.3c0,1.5-1.2,2.4-2.6,2.4c-1.1,0-2.1-0.5-2.5-1.5l0.9-0.5c0.2,0.7,0.8,1.1,1.7,1.1
			c0.9,0,1.6-0.5,1.6-1.4c0-0.9-0.7-1.4-1.6-1.4h-0.3l-0.4-0.6l1.8-2.4H237v-0.9h4.6v0.9l-1.7,2.2C241,938.2,241.9,939,241.9,940.3z
			"/>
		<path class="st1" d="M245.1,938.7c0-2.4,1.1-4,2.9-4c1.9,0,2.9,1.6,2.9,4c0,2.4-1,4-2.9,4C246.2,942.7,245.1,941,245.1,938.7z
			 M250,938.7c0-1.9-0.7-3-1.9-3c-1.2,0-1.9,1.1-1.9,3s0.7,3,1.9,3C249.3,941.7,250,940.6,250,938.7z"/>
	</g>
	<g>
		<path class="st1" d="M58.9,938.7c0,2.1-1.5,3.8-3.6,3.8h-3v-7.6h3C57.4,934.9,58.9,936.6,58.9,938.7z M57.9,938.7
			c0-1.6-1.1-2.9-2.6-2.9h-2v5.7h2C56.8,941.6,57.9,940.3,57.9,938.7z"/>
		<path class="st1" d="M67,941.6v1h-4.6v-7.6h4.5v1h-3.5v2.3h3.2v0.9h-3.2v2.4H67z"/>
		<path class="st1" d="M70,940.8l0.9-0.5c0.3,0.8,0.9,1.4,2,1.4c1.1,0,1.6-0.5,1.6-1.2c0-0.8-0.7-1-1.8-1.4
			c-1.2-0.4-2.4-0.8-2.4-2.2c0-1.4,1.1-2.2,2.4-2.2c1.3,0,2.2,0.7,2.6,1.7l-0.8,0.5c-0.3-0.7-0.8-1.2-1.7-1.2
			c-0.8,0-1.4,0.4-1.4,1.1c0,0.7,0.5,1,1.6,1.3c1.3,0.4,2.6,0.8,2.6,2.3c0,1.3-1.1,2.2-2.6,2.2C71.5,942.7,70.4,941.9,70,940.8z"/>
		<path class="st1" d="M80,934.9v7.6h-1v-7.6H80z"/>
		<path class="st1" d="M91.3,939.2c0,1.9-1.4,3.5-3.7,3.5c-2.4,0-4-1.8-4-4c0-2.2,1.7-4,4-4c1.4,0,2.7,0.8,3.3,1.8l-0.9,0.5
			c-0.4-0.8-1.4-1.4-2.4-1.4c-1.8,0-3,1.3-3,3c0,1.7,1.2,3,3,3c1.6,0,2.5-0.9,2.7-2h-2.8v-0.9h3.8V939.2z"/>
		<path class="st1" d="M100.6,934.9v7.6h-0.8l-3.9-5.7v5.7h-1v-7.6h0.8l3.9,5.7v-5.7H100.6z"/>
		<path class="st1" d="M109.1,941.6v1h-4.6v-7.6h4.5v1h-3.5v2.3h3.2v0.9h-3.2v2.4H109.1z"/>
		<path class="st1" d="M119.2,938.7c0,2.1-1.5,3.8-3.6,3.8h-3v-7.6h3C117.6,934.9,119.2,936.6,119.2,938.7z M118.2,938.7
			c0-1.6-1.1-2.9-2.6-2.9h-2v5.7h2C117.1,941.6,118.2,940.3,118.2,938.7z"/>
		<path class="st1" d="M133.2,940.4c0,1.2-1,2.2-2.2,2.2h-3.3v-7.6h3c1.2,0,2.1,0.9,2.1,2.1c0,0.7-0.3,1.2-0.8,1.6
			C132.7,938.9,133.2,939.5,133.2,940.4z M128.7,935.8v2.3h2c0.6,0,1.1-0.5,1.1-1.2c0-0.6-0.5-1.2-1.1-1.2H128.7z M132.2,940.3
			c0-0.7-0.5-1.2-1.2-1.2h-2.3v2.5h2.3C131.7,941.6,132.2,941,132.2,940.3z"/>
		<path class="st1" d="M139.4,939.4v3.1h-1v-3.1l-2.7-4.5h1.1l2.1,3.6l2.1-3.6h1.1L139.4,939.4z"/>
	</g>
	<g>
		<path class="st1" d="M204.8,958.1c0-3.6,2.7-6.4,6.5-6.4c2.3,0,4.3,1.2,5.3,3l-1.8,1c-0.7-1.2-2-2-3.6-2c-2.7,0-4.4,1.9-4.4,4.4
			s1.8,4.4,4.4,4.4c1.6,0,2.9-0.8,3.6-2l1.8,1c-1,1.8-3,3-5.3,3C207.5,964.5,204.8,961.7,204.8,958.1z"/>
		<path class="st1" d="M227.1,955.4v8.9h-1.9V963c-0.7,0.9-1.7,1.5-3.1,1.5c-2.4,0-4.4-2-4.4-4.7c0-2.6,2-4.7,4.4-4.7
			c1.4,0,2.4,0.6,3.1,1.5v-1.3H227.1z M225.2,959.9c0-1.6-1.2-2.8-2.8-2.8c-1.6,0-2.8,1.2-2.8,2.8c0,1.6,1.2,2.8,2.8,2.8
			C224,962.7,225.2,961.5,225.2,959.9z"/>
		<path class="st1" d="M231.9,955.3v0.2h2.1v1.8h-2.1v7H230v-7h-1.3v-1.8h1.3v-0.2c0-2.4,1.3-3.8,4-3.6v1.8
			C232.6,953.4,231.9,953.9,231.9,955.3z"/>
		<path class="st1" d="M239,962.8c1.1,0,1.9-0.5,2.3-1.1l1.6,0.9c-0.8,1.2-2.1,1.9-3.9,1.9c-2.9,0-4.8-2-4.8-4.7
			c0-2.6,1.9-4.7,4.7-4.7c2.6,0,4.4,2.1,4.4,4.7c0,0.3,0,0.5-0.1,0.8h-7C236.5,962.1,237.6,962.8,239,962.8z M241.4,959.1
			c-0.3-1.5-1.4-2.2-2.5-2.2c-1.4,0-2.4,0.8-2.7,2.2H241.4z"/>
	</g>
	<g>
		<g>
			<path class="st1" d="M846.1,938.7c0,2.1-1.5,3.8-3.6,3.8h-3v-7.6h3C844.6,934.9,846.1,936.6,846.1,938.7z M845.2,938.7
				c0-1.6-1.1-2.9-2.6-2.9h-2v5.7h2C844.1,941.6,845.2,940.3,845.2,938.7z"/>
		</g>
		<g>
			<path class="st1" d="M849.3,938.7c0-2.2,1.7-4,3.9-4c2.2,0,4,1.8,4,4c0,2.2-1.7,4-4,4C851,942.7,849.3,940.9,849.3,938.7z
				 M856.1,938.7c0-1.7-1.3-3-2.9-3c-1.7,0-2.9,1.3-2.9,3c0,1.7,1.3,3,2.9,3C854.9,941.7,856.1,940.4,856.1,938.7z"/>
		</g>
		<g>
			<path class="st1" d="M859.8,934.9h1.1l1.7,6.3l1.9-6.3h1l1.9,6.3l1.7-6.3h1.1l-2.2,7.6h-1.2l-1.8-6.1l-1.8,6.1H862L859.8,934.9z"
				/>
		</g>
		<g>
			<path class="st1" d="M879.3,934.9v7.6h-0.8l-3.9-5.7v5.7h-1v-7.6h0.8l3.9,5.7v-5.7H879.3z"/>
		</g>
		<g>
			<path class="st1" d="M887.5,941.6v1h-4.3v-7.6h1v6.7H887.5z"/>
		</g>
		<g>
			<path class="st1" d="M889.9,938.7c0-2.2,1.7-4,3.9-4c2.2,0,4,1.8,4,4c0,2.2-1.7,4-4,4C891.6,942.7,889.9,940.9,889.9,938.7z
				 M896.8,938.7c0-1.7-1.3-3-2.9-3c-1.7,0-2.9,1.3-2.9,3c0,1.7,1.3,3,2.9,3C895.5,941.7,896.8,940.4,896.8,938.7z"/>
		</g>
		<g>
			<path class="st1" d="M905.4,940.8H902l-0.6,1.7h-1.1l2.8-7.6h1.1l2.8,7.6H906L905.4,940.8z M905.1,939.9l-1.4-3.8l-1.4,3.8H905.1
				z"/>
		</g>
		<g>
			<path class="st1" d="M916.9,938.7c0,2.1-1.5,3.8-3.6,3.8h-3v-7.6h3C915.4,934.9,916.9,936.6,916.9,938.7z M915.9,938.7
				c0-1.6-1.1-2.9-2.6-2.9h-2v5.7h2C914.9,941.6,915.9,940.3,915.9,938.7z"/>
		</g>
		<g>
			<path class="st1" d="M926.5,935.8v2.5h3.2v1h-3.2v3.2h-1v-7.6h4.4v1H926.5z"/>
		</g>
		<g>
			<path class="st1" d="M936.2,939.6h-1.8v2.9h-1v-7.6h3c1.3,0,2.4,1.1,2.4,2.4c0,1-0.7,1.9-1.6,2.2l1.8,3.1h-1.1L936.2,939.6z
				 M934.4,938.7h2c0.8,0,1.4-0.6,1.4-1.4c0-0.8-0.6-1.4-1.4-1.4h-2V938.7z"/>
		</g>
		<g>
			<path class="st1" d="M941.9,938.7c0-2.2,1.7-4,3.9-4c2.2,0,4,1.8,4,4c0,2.2-1.7,4-4,4C943.6,942.7,941.9,940.9,941.9,938.7z
				 M948.8,938.7c0-1.7-1.3-3-2.9-3c-1.7,0-2.9,1.3-2.9,3c0,1.7,1.3,3,2.9,3C947.5,941.7,948.8,940.4,948.8,938.7z"/>
		</g>
		<g>
			<path class="st1" d="M960.4,942.5h-1v-6l-2.5,4.2h-0.1l-2.5-4.1v5.9h-1v-7.6h1.1l2.4,4l2.4-4h1.1V942.5z"/>
		</g>
	</g>
	<g>
		<g>
			<path class="st1" d="M839.3,952.9c0-0.7,0.5-1.2,1.2-1.2c0.7,0,1.2,0.5,1.2,1.2c0,0.7-0.5,1.2-1.2,1.2
				C839.9,954.1,839.3,953.6,839.3,952.9z M839.6,955.4h1.9v8.9h-1.9V955.4z"/>
		</g>
		<g>
			<path class="st1" d="M843.7,951.4h1.9v12.9h-1.9V951.4z"/>
		</g>
		<g>
			<path class="st1" d="M847.8,951.4h1.9v12.9h-1.9V951.4z"/>
		</g>
		<g>
			<path class="st1" d="M852,951.4h1.9v12.9H852V951.4z"/>
		</g>
		<g>
			<path class="st1" d="M864,955.4v8.9h-1.9v-1.1c-0.6,0.9-1.5,1.4-2.7,1.4c-2,0-3.4-1.3-3.4-3.6v-5.4h1.9v5.2c0,1.3,0.8,2.1,2,2.1
				c1.3,0,2.2-0.7,2.2-2.5v-4.7H864z"/>
		</g>
		<g>
			<path class="st1" d="M872.6,961.8c0,1.8-1.5,2.7-3.5,2.7c-1.8,0-3-0.8-3.6-2.1l1.6-1c0.3,0.8,1,1.3,2,1.3c0.8,0,1.5-0.3,1.5-1
				c0-1.6-4.8-0.7-4.8-3.9c0-1.7,1.4-2.7,3.2-2.7c1.5,0,2.7,0.7,3.3,1.8l-1.6,0.9c-0.3-0.7-0.9-1-1.7-1c-0.7,0-1.3,0.3-1.3,0.9
				C867.9,959.5,872.6,958.5,872.6,961.8z"/>
		</g>
		<g>
			<path class="st1" d="M876.7,957.3v4.2c0,1.1,0.7,1.1,2.2,1v1.7c-2.9,0.4-4.1-0.5-4.1-2.8v-4.2h-1.6v-1.8h1.6v-1.9l1.9-0.6v2.5
				h2.2v1.8H876.7z"/>
		</g>
		<g>
			<path class="st1" d="M885.4,955.3v2.1c-1.3-0.1-2.7,0.5-2.7,2.5v4.5h-1.9v-8.9h1.9v1.5C883.2,955.7,884.2,955.3,885.4,955.3z"/>
		</g>
		<g>
			<path class="st1" d="M895.3,955.4v8.9h-1.9V963c-0.7,0.9-1.7,1.5-3.1,1.5c-2.4,0-4.4-2-4.4-4.7c0-2.6,2-4.7,4.4-4.7
				c1.4,0,2.4,0.6,3.1,1.5v-1.3H895.3z M893.4,959.9c0-1.6-1.2-2.8-2.8-2.8c-1.6,0-2.8,1.2-2.8,2.8c0,1.6,1.2,2.8,2.8,2.8
				C892.2,962.7,893.4,961.5,893.4,959.9z"/>
		</g>
		<g>
			<path class="st1" d="M900.3,957.3v4.2c0,1.1,0.7,1.1,2.2,1v1.7c-2.9,0.4-4.1-0.5-4.1-2.8v-4.2h-1.6v-1.8h1.6v-1.9l1.9-0.6v2.5
				h2.2v1.8H900.3z"/>
		</g>
		<g>
			<path class="st1" d="M903.9,952.9c0-0.7,0.5-1.2,1.2-1.2c0.7,0,1.2,0.5,1.2,1.2c0,0.7-0.5,1.2-1.2,1.2
				C904.5,954.1,903.9,953.6,903.9,952.9z M904.2,955.4h1.9v8.9h-1.9V955.4z"/>
		</g>
		<g>
			<path class="st1" d="M907.8,959.9c0-2.6,2.1-4.7,4.7-4.7c2.6,0,4.7,2,4.7,4.7c0,2.6-2.1,4.7-4.7,4.7
				C909.9,964.5,907.8,962.5,907.8,959.9z M915.3,959.9c0-1.6-1.2-2.8-2.8-2.8c-1.6,0-2.8,1.2-2.8,2.8c0,1.6,1.2,2.8,2.8,2.8
				C914.1,962.7,915.3,961.5,915.3,959.9z"/>
		</g>
		<g>
			<path class="st1" d="M927,958.9v5.4h-1.9v-5.2c0-1.3-0.8-2.1-2-2.1c-1.3,0-2.2,0.7-2.2,2.5v4.7h-1.9v-8.9h1.9v1.1
				c0.6-0.9,1.5-1.4,2.7-1.4C925.5,955.2,927,956.6,927,958.9z"/>
		</g>
		<g>
			<path class="st1" d="M935.5,961.8c0,1.8-1.5,2.7-3.5,2.7c-1.8,0-3-0.8-3.6-2.1l1.6-1c0.3,0.8,1,1.3,2,1.3c0.8,0,1.5-0.3,1.5-1
				c0-1.6-4.8-0.7-4.8-3.9c0-1.7,1.4-2.7,3.2-2.7c1.5,0,2.7,0.7,3.3,1.8l-1.6,0.9c-0.3-0.7-0.9-1-1.7-1c-0.7,0-1.3,0.3-1.3,0.9
				C930.7,959.5,935.5,958.5,935.5,961.8z"/>
		</g>
		<g>
			<path class="st1" d="M936.8,963.2c0-0.7,0.6-1.3,1.3-1.3c0.7,0,1.3,0.6,1.3,1.3c0,0.7-0.6,1.3-1.3,1.3
				C937.4,964.5,936.8,963.9,936.8,963.2z"/>
		</g>
		<g>
			<path class="st1" d="M940.3,959.9c0-2.6,2-4.7,4.7-4.7c1.7,0,3.2,0.9,3.9,2.3l-1.6,1c-0.4-0.8-1.3-1.4-2.3-1.4
				c-1.6,0-2.7,1.2-2.7,2.8c0,1.6,1.2,2.8,2.7,2.8c1.1,0,1.9-0.5,2.4-1.4l1.6,0.9c-0.7,1.4-2.2,2.3-4,2.3
				C942.3,964.5,940.3,962.5,940.3,959.9z"/>
		</g>
		<g>
			<path class="st1" d="M949.7,959.9c0-2.6,2.1-4.7,4.7-4.7c2.6,0,4.7,2,4.7,4.7c0,2.6-2.1,4.7-4.7,4.7
				C951.8,964.5,949.7,962.5,949.7,959.9z M957.2,959.9c0-1.6-1.2-2.8-2.8-2.8s-2.8,1.2-2.8,2.8c0,1.6,1.2,2.8,2.8,2.8
				S957.2,961.5,957.2,959.9z"/>
		</g>
	</g>
</g>
<path id="XMLID_62_" class="st2" d="M252.8,330.1c-2.9,0-5.6,0.7-7.9,2c-5-8.2-14-13.7-24.3-13.7c-5,0-9.8,1.3-13.9,3.6
	c-7.9-11.5-21.1-19.1-36.2-19.1c-24.2,0-43.8,19.6-43.8,43.8h65.5h22.1h21.8H249h20.5C269.5,337.5,262,330.1,252.8,330.1z"/>
<g id="XMLID_155_">
	<g id="XMLID_197_">
		<polygon id="XMLID_198_" class="st3" points="785.9,388.8 727.9,388.8 710.8,292.8 763.9,292.8 		"/>
	</g>
</g>
<g id="XMLID_151_">
	<g id="XMLID_210_">
		<polygon id="XMLID_211_" class="st4" points="727.9,388.8 669.9,388.8 657.7,292.8 710.8,292.8 		"/>
	</g>
</g>
<g id="XMLID_149_">
	<g id="XMLID_194_">
		<polygon id="XMLID_195_" class="st3" points="669.9,388.8 611.9,388.8 604.6,292.8 657.7,292.8 		"/>
	</g>
</g>
<g id="XMLID_147_">
	<g id="XMLID_206_">
		<polygon id="XMLID_207_" class="st4" points="611.9,388.8 553.9,388.8 551.5,292.8 604.6,292.8 		"/>
	</g>
</g>
<g id="XMLID_145_">
	<g id="XMLID_191_">
		<polygon id="XMLID_192_" class="st3" points="553.9,388.8 495.9,388.8 498.4,292.8 551.5,292.8 		"/>
	</g>
</g>
<g id="XMLID_143_">
	<g id="XMLID_203_">
		<polygon id="XMLID_204_" class="st4" points="495.9,388.8 437.9,388.8 445.3,292.8 498.4,292.8 		"/>
	</g>
</g>
<g id="XMLID_141_">
	<g id="XMLID_188_">
		<polygon id="XMLID_189_" class="st3" points="437.9,388.8 379.9,388.8 392.1,292.8 445.3,292.8 		"/>
	</g>
</g>
<g id="XMLID_139_">
	<g id="XMLID_200_">
		<polygon id="XMLID_201_" class="st4" points="379.9,388.8 321.9,388.8 339,292.8 392.1,292.8 		"/>
	</g>
</g>
<g id="XMLID_17_">
	<g id="XMLID_185_">
		<polygon id="XMLID_186_" class="st3" points="321.9,388.8 263.9,388.8 285.9,292.8 339,292.8 		"/>
	</g>
</g>
<rect id="XMLID_113_" x="285.9" y="425.2" class="st5" width="169" height="236"/>
<rect id="XMLID_2_" x="312.4" y="613.2" class="st6" width="116" height="6.1"/>
<rect id="XMLID_244_" x="421.5" y="484.3" class="st7" width="25.3" height="11.7"/>
<rect id="XMLID_263_" x="285.9" y="463.9" class="st7" width="16.9" height="11.7"/>
<rect id="XMLID_253_" x="438.8" y="499" class="st7" width="18" height="11.7"/>
<rect id="XMLID_242_" x="440.5" y="623.3" class="st7" width="12.7" height="11.7"/>
<rect id="XMLID_152_" x="330.5" y="623.3" class="st7" width="25.3" height="11.7"/>
<rect id="XMLID_261_" x="316.5" y="638" class="st7" width="25.3" height="11.7"/>
<rect id="XMLID_10_" x="285.9" y="425.2" class="st8" width="170" height="236"/>
<rect id="XMLID_114_" x="318.4" y="433.2" class="st9" width="104" height="172"/>
<path id="XMLID_209_" class="st10" d="M385.4,595.4h-38.3c-1.5,0-2.7-1.2-2.7-2.7v-1.2c0-1.5,1.2-2.7,2.7-2.7h38.3
	c1.5,0,2.7,1.2,2.7,2.7v1.2C388.2,594.2,386.9,595.4,385.4,595.4z"/>
<rect id="XMLID_223_" x="358.2" y="594.2" class="st10" width="16.3" height="11.8"/>
<path id="XMLID_220_" class="st10" d="M403.4,606.3h-8v-37.8c0-2.2,1.8-4,4-4l0,0c2.2,0,4,1.8,4,4V606.3z"/>
<path id="XMLID_205_" class="st10" d="M338.3,606.3h-8v-37.8c0-2.2,1.8-4,4-4l0,0c2.2,0,4,1.8,4,4V606.3z"/>
<polygon id="XMLID_173_" class="st11" points="418.6,605.2 422.4,599.8 422.4,527.3 367.9,605.2 "/>
<polygon id="XMLID_176_" class="st11" points="361,605.2 422.4,517.6 422.4,501.2 349.6,605.2 "/>
<polygon id="XMLID_178_" class="st11" points="340.6,605.2 422.4,488.4 422.4,480.2 334.9,605.2 "/>
<rect id="XMLID_5_" x="318.4" y="433.2" class="st8" width="104" height="172"/>
<rect id="XMLID_112_" x="312.4" y="605.2" class="st12" width="116" height="12"/>
<rect id="XMLID_105_" x="312.4" y="605.2" class="st8" width="116" height="12"/>
<rect id="XMLID_110_" x="378.6" y="506" transform="matrix(-1.836970e-16 1 -1 -1.836970e-16 1099.8652 50.0359)" class="st12" width="292.6" height="138"/>
<rect id="XMLID_109_" x="378.6" y="506" transform="matrix(-1.836970e-16 1 -1 -1.836970e-16 1099.8652 50.0359)" class="st8" width="292.6" height="138"/>
<rect id="XMLID_111_" x="470.9" y="445" class="st9" width="108" height="202.7"/>
<polygon id="XMLID_227_" class="st11" points="579.9,648.7 579.9,552.3 524.3,648.7 "/>
<polygon id="XMLID_226_" class="st11" points="517.7,647.7 578.9,541.7 578.9,508.5 498.6,647.7 "/>
<polygon id="XMLID_225_" class="st11" points="489.7,647.7 578.9,493.1 578.9,482.3 483.5,647.7 "/>
<rect id="XMLID_106_" x="470.9" y="445" class="st8" width="108" height="202.7"/>
<rect id="XMLID_104_" x="266.9" y="661.2" class="st1" width="196.8" height="60"/>
<rect id="XMLID_119_" x="266.9" y="661.2" class="st13" width="8.4" height="60"/>
<rect id="XMLID_6_" x="457" y="661.2" class="st13" width="4.9" height="60"/>
<rect id="XMLID_1_" x="266.9" y="661.2" class="st8" width="196.8" height="60"/>
<rect id="XMLID_252_" x="594.3" y="425.2" transform="matrix(-1 -4.489354e-11 4.489354e-11 -1 1357.6631 1086.4847)" class="st5" width="169" height="236"/>
<rect id="XMLID_245_" x="724.2" y="638" class="st7" width="25.3" height="11.7"/>
<rect id="XMLID_265_" x="594.3" y="638" class="st7" width="25.3" height="11.7"/>
<rect id="XMLID_255_" x="709" y="623.3" class="st7" width="25.3" height="11.7"/>
<rect id="XMLID_231_" x="611.9" y="458.8" class="st7" width="15.5" height="11.7"/>
<rect id="XMLID_241_" x="593.3" y="572.2" class="st7" width="15.5" height="11.7"/>
<rect id="XMLID_251_" x="593.3" y="425.2" transform="matrix(-1 -4.489710e-11 4.489710e-11 -1 1356.663 1086.4847)" class="st8" width="170" height="236"/>
<rect id="XMLID_248_" x="626.8" y="433.2" class="st9" width="104" height="172"/>
<path id="XMLID_247_" class="st10" d="M663.8,595.4h38.3c1.5,0,2.7-1.2,2.7-2.7v-1.2c0-1.5-1.2-2.7-2.7-2.7h-38.3
	c-1.5,0-2.7,1.2-2.7,2.7v1.2C661.1,594.2,662.3,595.4,663.8,595.4z"/>
<rect id="XMLID_246_" x="674.7" y="594.2" transform="matrix(-1 -4.488111e-11 4.488111e-11 -1 1365.8298 1200.2229)" class="st10" width="16.3" height="11.8"/>
<path id="XMLID_243_" class="st10" d="M645.9,606.3h8v-37.8c0-2.2-1.8-4-4-4l0,0c-2.2,0-4,1.8-4,4V606.3z"/>
<path id="XMLID_240_" class="st10" d="M710.9,606.3h8v-37.8c0-2.2-1.8-4-4-4l0,0c-2.2,0-4,1.8-4,4V606.3z"/>
<polygon id="XMLID_237_" class="st11" points="727.1,605.2 730.8,599.8 730.8,527.3 676.3,605.2 "/>
<polygon id="XMLID_234_" class="st11" points="669.5,605.2 730.8,517.6 730.8,501.2 658,605.2 "/>
<polygon id="XMLID_233_" class="st11" points="649,605.2 730.8,488.4 730.8,480.2 643.3,605.2 "/>
<rect id="XMLID_232_" x="626.8" y="433.2" class="st8" width="104" height="172"/>
<rect id="XMLID_4_" x="620.8" y="613.2" class="st6" width="116" height="6.1"/>
<rect id="XMLID_230_" x="620.8" y="605.2" transform="matrix(-1 -4.489488e-11 4.489488e-11 -1 1357.6631 1222.4154)" class="st12" width="116" height="12"/>
<rect id="XMLID_228_" x="620.8" y="605.2" transform="matrix(-1 -4.489488e-11 4.489488e-11 -1 1357.6631 1222.4154)" class="st8" width="116" height="12"/>
<rect id="XMLID_224_" x="587.2" y="661.2" transform="matrix(-1 -4.324553e-11 4.324553e-11 -1 1369.4963 1382.4847)" class="st1" width="195.2" height="60"/>
<rect id="XMLID_7_" x="587.2" y="661.2" class="st13" width="7.2" height="60"/>
<rect id="XMLID_222_" x="587.2" y="661.2" transform="matrix(-1 -4.324553e-11 4.324553e-11 -1 1369.4963 1382.4847)" class="st8" width="195.2" height="60"/>
<path id="XMLID_108_" class="st14" d="M490.3,587L490.3,587c-2.5,0-4.5-2-4.5-4.5v-48.3c0-2.5,2-4.5,4.5-4.5l0,0
	c2.5,0,4.5,2,4.5,4.5v48.3C494.8,585,492.8,587,490.3,587z"/>
<path id="XMLID_283_" class="st6" d="M727.9,394.8h-58h-58h-58h-58h-58h-58h-58h-36v61.1c2.2,0.6,4.6,0.9,7,0.9h0c16,0,29-13,29-29
	c0,16,13,29,29,29h0c16,0,29-13,29-29c0,16,13,29,29,29h0c16,0,29-13,29-29c0,16,13,29,29,29h0c16,0,29-13,29-29c0,16,13,29,29,29h0
	c16,0,29-13,29-29c0,16,13,29,29,29h0c16,0,29-13,29-29c0,16,13,29,29,29h0c16,0,29-13,29-29c0,16,13,29,29,29h0c16,0,29-13,29-29
	c0,16,13,29,29,29h0c2.2,0,4.4-0.3,6.4-0.7v-61.3H727.9z"/>
<g id="XMLID_134_">
	<path id="XMLID_135_" class="st15" d="M698.9,450.8L698.9,450.8c-16,0-29-13-29-29v-33h58v33C727.9,437.8,714.9,450.8,698.9,450.8z
		"/>
</g>
<g id="XMLID_132_">
	<path id="XMLID_133_" class="st16" d="M640.9,450.8L640.9,450.8c-16,0-29-13-29-29v-33h58v33C669.9,437.8,656.9,450.8,640.9,450.8z
		"/>
</g>
<g id="XMLID_130_">
	<path id="XMLID_131_" class="st15" d="M582.9,450.8L582.9,450.8c-16,0-29-13-29-29v-33h58v33C611.9,437.8,598.9,450.8,582.9,450.8z
		"/>
</g>
<g id="XMLID_127_">
	<path id="XMLID_129_" class="st16" d="M524.9,450.8L524.9,450.8c-16,0-29-13-29-29v-33h58v33C553.9,437.8,540.9,450.8,524.9,450.8z
		"/>
</g>
<g id="XMLID_124_">
	<path id="XMLID_125_" class="st15" d="M466.9,450.8L466.9,450.8c-16,0-29-13-29-29v-33h58v33C495.9,437.8,482.9,450.8,466.9,450.8z
		"/>
</g>
<g id="XMLID_122_">
	<path id="XMLID_123_" class="st16" d="M408.9,450.8L408.9,450.8c-16,0-29-13-29-29v-33h58v33C437.9,437.8,424.9,450.8,408.9,450.8z
		"/>
</g>
<g id="XMLID_120_">
	<path id="XMLID_121_" class="st15" d="M350.9,450.8L350.9,450.8c-16,0-29-13-29-29v-33h58v33C379.9,437.8,366.9,450.8,350.9,450.8z
		"/>
</g>
<g id="XMLID_12_">
	<path id="XMLID_117_" class="st16" d="M292.9,450.8L292.9,450.8c-16,0-29-13-29-29v-33h58v33C321.9,437.8,308.9,450.8,292.9,450.8z
		"/>
</g>
<g id="XMLID_33_">
	<path id="XMLID_34_" class="st8" d="M698.9,450.8L698.9,450.8c-16,0-29-13-29-29v-33h58v33C727.9,437.8,714.9,450.8,698.9,450.8z"
		/>
</g>
<g id="XMLID_31_">
	<path id="XMLID_32_" class="st8" d="M640.9,450.8L640.9,450.8c-16,0-29-13-29-29v-33h58v33C669.9,437.8,656.9,450.8,640.9,450.8z"
		/>
</g>
<g id="XMLID_29_">
	<path id="XMLID_30_" class="st8" d="M582.9,450.8L582.9,450.8c-16,0-29-13-29-29v-33h58v33C611.9,437.8,598.9,450.8,582.9,450.8z"
		/>
</g>
<g id="XMLID_27_">
	<path id="XMLID_28_" class="st8" d="M524.9,450.8L524.9,450.8c-16,0-29-13-29-29v-33h58v33C553.9,437.8,540.9,450.8,524.9,450.8z"
		/>
</g>
<g id="XMLID_24_">
	<path id="XMLID_25_" class="st8" d="M466.9,450.8L466.9,450.8c-16,0-29-13-29-29v-33h58v33C495.9,437.8,482.9,450.8,466.9,450.8z"
		/>
</g>
<g id="XMLID_22_">
	<path id="XMLID_23_" class="st8" d="M408.9,450.8L408.9,450.8c-16,0-29-13-29-29v-33h58v33C437.9,437.8,424.9,450.8,408.9,450.8z"
		/>
</g>
<g id="XMLID_20_">
	<path id="XMLID_21_" class="st8" d="M350.9,450.8L350.9,450.8c-16,0-29-13-29-29v-33h58v33C379.9,437.8,366.9,450.8,350.9,450.8z"
		/>
</g>
<g id="XMLID_18_">
	<path id="XMLID_19_" class="st8" d="M292.9,450.8L292.9,450.8c-16,0-29-13-29-29v-33h58v33C321.9,437.8,308.9,450.8,292.9,450.8z"
		/>
</g>
<g id="XMLID_54_">
	<polygon id="XMLID_55_" class="st8" points="785.9,388.8 727.9,388.8 710.8,292.8 763.9,292.8 	"/>
</g>
<g id="XMLID_52_">
	<polygon id="XMLID_53_" class="st8" points="727.9,388.8 669.9,388.8 657.7,292.8 710.8,292.8 	"/>
</g>
<g id="XMLID_50_">
	<polygon id="XMLID_51_" class="st8" points="669.9,388.8 611.9,388.8 604.6,292.8 657.7,292.8 	"/>
</g>
<g id="XMLID_48_">
	<polygon id="XMLID_49_" class="st8" points="611.9,388.8 553.9,388.8 551.5,292.8 604.6,292.8 	"/>
</g>
<g id="XMLID_46_">
	<polygon id="XMLID_47_" class="st8" points="553.9,388.8 495.9,388.8 498.4,292.8 551.5,292.8 	"/>
</g>
<g id="XMLID_43_">
	<polygon id="XMLID_44_" class="st8" points="495.9,388.8 437.9,388.8 445.3,292.8 498.4,292.8 	"/>
</g>
<g id="XMLID_41_">
	<polygon id="XMLID_42_" class="st8" points="437.9,388.8 379.9,388.8 392.1,292.8 445.3,292.8 	"/>
</g>
<g id="XMLID_39_">
	<polygon id="XMLID_40_" class="st8" points="379.9,388.8 321.9,388.8 339,292.8 392.1,292.8 	"/>
</g>
<g id="XMLID_37_">
	<polygon id="XMLID_38_" class="st8" points="321.9,388.8 263.9,388.8 285.9,292.8 339,292.8 	"/>
</g>
<rect id="XMLID_289_" x="285.9" y="274.8" class="st1" width="478" height="18"/>
<rect id="XMLID_294_" x="285.9" y="274.8" class="st5" width="478" height="6.2"/>
<rect id="XMLID_26_" x="285.9" y="274.8" class="st8" width="478" height="18"/>
<line id="XMLID_13_" class="st8" x1="215.4" y1="606" x2="215.4" y2="663"/>
<path id="XMLID_15_" class="st17" d="M234.2,607.8h-6c-11.8,0-21.4-9.6-21.4-21.4v-49.2c0-11.8,9.6-21.4,21.4-21.4h6
	c11.8,0,21.4,9.6,21.4,21.4v49.2C255.7,598.2,246.1,607.8,234.2,607.8z"/>
<path id="XMLID_14_" class="st8" d="M234.2,607.8h-6c-11.8,0-21.4-9.6-21.4-21.4v-49.2c0-11.8,9.6-21.4,21.4-21.4h6
	c11.8,0,21.4,9.6,21.4,21.4v49.2C255.7,598.2,246.1,607.8,234.2,607.8z"/>
<polyline id="XMLID_45_" class="st8" points="199.2,625.9 202.2,641.1 215.4,646.1 "/>
<path id="XMLID_107_" class="st18" d="M192.9,628.4L192.9,628.4c-9.7,0-17.6-7.9-17.6-17.6v-26.1c0-9.7,7.9-17.6,17.6-17.6h0
	c9.7,0,17.6,7.9,17.6,17.6v26.1C210.5,620.5,202.6,628.4,192.9,628.4z"/>
<path id="XMLID_16_" class="st8" d="M192.9,628.4L192.9,628.4c-9.7,0-17.6-7.9-17.6-17.6v-26.1c0-9.7,7.9-17.6,17.6-17.6h0
	c9.7,0,17.6,7.9,17.6,17.6v26.1C210.5,620.5,202.6,628.4,192.9,628.4z"/>
<polygon id="XMLID_115_" class="st19" points="238.2,719.6 192.7,719.6 186.6,660.1 244.3,660.1 "/>
<polygon id="XMLID_300_" class="st20" points="227,660.1 220.8,719.6 238.2,719.6 244.3,660.1 "/>
<rect id="XMLID_116_" x="220.6" y="672.5" class="st21" width="21.6" height="8.3"/>
<rect id="XMLID_153_" x="188.9" y="687.1" class="st21" width="18.4" height="8.3"/>
<rect id="XMLID_157_" x="214.4" y="700.1" class="st21" width="25.3" height="8.3"/>
<polygon id="XMLID_9_" class="st8" points="238.2,719.6 192.7,719.6 186.6,660.1 244.3,660.1 "/>
<polyline id="XMLID_11_" class="st8" points="216.5,640.8 230.7,633 230.7,561.8 "/>
<line id="XMLID_158_" class="st8" x1="231.4" y1="583.7" x2="242.2" y2="575"/>
<rect id="XMLID_161_" x="504.4" y="515" transform="matrix(0.9781 -0.2079 0.2079 0.9781 -98.0857 122.0147)" class="st22" width="54" height="25.3"/>
<rect id="XMLID_159_" x="504.4" y="515" transform="matrix(0.9781 -0.2079 0.2079 0.9781 -98.0857 122.0147)" class="st23" width="54" height="25.3"/>
<path id="XMLID_56_" class="st24" d="M514.2,526.5l32.5-6.9c1.3-0.3,2.5,0.5,2.8,1.8l1,4.5c0.3,1.3-0.5,2.5-1.8,2.8l-32.5,6.9
	c-1.3,0.3-2.5-0.5-2.8-1.8l-1-4.5C512.1,528,512.9,526.8,514.2,526.5z"/>
<polyline id="XMLID_219_" class="st25" points="518.8,516.3 527.1,492 537.2,511.7 "/>
<circle id="XMLID_164_" class="st14" cx="527.1" cy="493.3" r="3"/>
<rect id="XMLID_229_" x="344.8" y="638" class="st7" width="25.3" height="11.7"/>
<line id="XMLID_276_" class="st26" x1="218.7" y1="553.2" x2="223.6" y2="561.8"/>
<line id="XMLID_281_" class="st26" x1="222.8" y1="534.3" x2="227.7" y2="542.8"/>
<line id="XMLID_282_" class="st27" x1="234.3" y1="532.7" x2="239.2" y2="541.2"/>
<line id="XMLID_278_" class="st26" x1="189.6" y1="601.3" x2="192.6" y2="606.4"/>
<line id="XMLID_279_" class="st27" x1="191.3" y1="587.2" x2="194.4" y2="592.4"/>
<g id="XMLID_136_">
	<path id="XMLID_137_" class="st16" d="M756.9,450.8L756.9,450.8c-16,0-29-13-29-29v-33h58v33C785.9,437.8,772.9,450.8,756.9,450.8z
		"/>
</g>
<g id="XMLID_35_">
	<path id="XMLID_36_" class="st8" d="M756.9,450.8L756.9,450.8c-16,0-29-13-29-29v-33h58v33C785.9,437.8,772.9,450.8,756.9,450.8z"
		/>
</g>
<rect id="XMLID_221_" x="756.8" y="566.3" class="st16" width="38" height="155"/>
<rect id="XMLID_270_" x="765.2" y="566.3" class="st3" width="19.3" height="155"/>
<rect id="XMLID_162_" x="756.8" y="566.3" class="st8" width="38" height="155"/>
<path id="XMLID_284_" class="st14" d="M777.9,587.2h-5.1c-2.7,0-4.8-2.1-4.8-4.8v-13.9h14.7v13.9C782.7,585,780.5,587.2,777.9,587.2
	z"/>
<line id="XMLID_165_" class="st28" x1="142.8" y1="721.2" x2="841" y2="721.2"/>
<path id="XMLID_59_" class="st2" d="M850.3,232.3c-4.7,0-9,1.7-12.3,4.4c-5.8-13.9-19.5-23.7-35.6-23.7c-21.3,0-38.5,17.3-38.5,38.5
	h67.2h9.9h28.6C869.6,240.9,861,232.3,850.3,232.3z"/>
<path id="XMLID_64_" class="st2" d="M572.8,213c-0.2-14.7-12.2-26.5-26.9-26.5c-4.8,0-9.3,1.3-13.2,3.4c-4.2-7.1-11.7-12.1-20.3-13
	c-2.9-11.8-13.5-20.5-26.2-20.5c-3.5,0-6.7,0.7-9.8,1.8C467,143.1,450.2,133,431,133c-25.3,0-46.5,17.6-52.1,41.1
	c-4-1.8-8.4-2.7-13-2.7c-17.9,0-32.3,14.5-32.3,32.3c0,3.2,0.5,6.4,1.4,9.3H572.8z"/>
</svg>
