<?xml version="1.0" encoding="utf-8"?>
<!-- Generator: Adobe Illustrator 23.1.1, SVG Export Plug-In . SVG Version: 6.00 Build 0)  -->
<svg version="1.1" id="Layer_1" xmlns="http://www.w3.org/2000/svg" xmlns:xlink="http://www.w3.org/1999/xlink" x="0px" y="0px"
	 viewBox="0 0 1000 1000" style="enable-background:new 0 0 1000 1000;" xml:space="preserve">
<style type="text/css">
	.st0{fill:#362C44;}
	.st1{fill:#EEF2F4;}
	.st2{fill:#0F0021;}
	.st3{fill:#D14C18;}
	.st4{fill:none;stroke:#0F0021;stroke-width:6;stroke-linecap:round;stroke-linejoin:round;stroke-miterlimit:10;}
	.st5{fill:#1F0938;}
	.st6{fill:#1A0A30;}
	.st7{fill:#E25A1E;}
	.st8{fill:#ED8037;}
	.st9{fill:#E87D34;}
	.st10{fill:#F7984B;}
</style>
<rect id="XMLID_16_" class="st0" width="1000" height="1000"/>
<g>
	<g>
		<g>
			<path class="st1" d="M63.2,959.2c0,2.5-1.2,3.7-2.6,3.7c-1.1,0-1.9-0.5-2.1-1.4c-0.4,0.5-1,0.8-1.8,0.8c-1.5,0-2.6-1.2-2.6-2.8
				c0-1.6,1.1-2.8,2.6-2.8c0.7,0,1.2,0.3,1.6,0.7v-0.5h1.6v3.9c0,0.8,0.3,1.4,1,1.4c0.9,0,1.7-0.9,1.7-3c0-3-2.3-5.3-5.4-5.3
				c-3.1,0-5.6,2.4-5.6,5.7c0,3.3,2.5,5.7,5.9,5.7c1.1,0,2.1-0.2,2.9-0.4v0.6c-0.8,0.3-1.7,0.4-2.9,0.4c-3.7,0-6.5-2.6-6.5-6.2
				c0-3.4,2.7-6.2,6.2-6.2C61.1,953.3,63.2,956.4,63.2,959.2z M58.3,959.5c0-0.8-0.6-1.4-1.3-1.4c-0.8,0-1.3,0.5-1.3,1.4
				c0,0.8,0.6,1.3,1.3,1.3C57.8,960.9,58.3,960.3,58.3,959.5z"/>
		</g>
		<g>
			<path class="st1" d="M69.4,955.1v2c-1.2-0.1-2.6,0.5-2.6,2.4v4.3h-1.9v-8.6h1.9v1.4C67.3,955.5,68.3,955.1,69.4,955.1z"/>
		</g>
		<g>
			<path class="st1" d="M74.6,962.3c1,0,1.8-0.5,2.2-1.1l1.5,0.9c-0.8,1.2-2.1,1.9-3.8,1.9c-2.8,0-4.7-1.9-4.7-4.5
				c0-2.5,1.8-4.5,4.5-4.5c2.6,0,4.3,2.1,4.3,4.5c0,0.3,0,0.5-0.1,0.8h-6.8C72.1,961.6,73.2,962.3,74.6,962.3z M76.9,958.8
				c-0.3-1.5-1.3-2.1-2.5-2.1c-1.4,0-2.3,0.8-2.6,2.1H76.9z"/>
		</g>
		<g>
			<path class="st1" d="M88.9,955.2v8.6h-1.9v-1.2c-0.7,0.9-1.7,1.5-3,1.5c-2.3,0-4.3-2-4.3-4.5c0-2.6,1.9-4.5,4.3-4.5
				c1.3,0,2.3,0.5,3,1.4v-1.2H88.9z M87.1,959.5c0-1.6-1.2-2.7-2.7-2.7c-1.5,0-2.7,1.1-2.7,2.7c0,1.6,1.2,2.7,2.7,2.7
				C85.9,962.3,87.1,961.1,87.1,959.5z"/>
		</g>
		<g>
			<path class="st1" d="M91.1,951.3H93v12.5h-1.9V951.3z"/>
		</g>
		<g>
			<path class="st1" d="M102.9,955.2l-3.3,8.6h-2.1l-3.3-8.6h2l2.4,6.5l2.4-6.5H102.9z"/>
		</g>
		<g>
			<path class="st1" d="M104.2,955.2h1.9v8.9c0,2.4-1.2,3.5-3.5,3.3v-1.8c1.1,0.1,1.7-0.3,1.7-1.5V955.2z M104,952.8
				c0-0.7,0.5-1.2,1.2-1.2c0.7,0,1.2,0.5,1.2,1.2c0,0.6-0.5,1.2-1.2,1.2C104.5,954,104,953.4,104,952.8z"/>
		</g>
		<g>
			<path class="st1" d="M116,955.2l-3.3,8.8c-0.8,2.2-2.2,3.3-4.2,3.2v-1.7c1.2,0.1,1.9-0.5,2.3-1.7l0.1-0.2l-3.6-8.4h2l2.6,6.2
				l2.2-6.2H116z"/>
		</g>
	</g>
	<g>
		<path class="st1" d="M211.9,938.7c0,2.1-1.5,3.8-3.6,3.8h-3v-7.6h3C210.4,934.9,211.9,936.6,211.9,938.7z M210.9,938.7
			c0-1.6-1.1-2.9-2.6-2.9h-2v5.7h2C209.8,941.6,210.9,940.3,210.9,938.7z"/>
		<path class="st1" d="M219.5,940.8h-3.4l-0.6,1.7h-1.1l2.8-7.6h1.1l2.8,7.6h-1.1L219.5,940.8z M219.2,939.9l-1.4-3.8l-1.4,3.8
			H219.2z"/>
		<path class="st1" d="M226.4,939.4v3.1h-1v-3.1l-2.7-4.5h1.1l2.1,3.6l2.1-3.6h1.1L226.4,939.4z"/>
		<path class="st1" d="M241.9,940.3c0,1.5-1.2,2.4-2.6,2.4c-1.1,0-2.1-0.5-2.5-1.5l0.9-0.5c0.2,0.7,0.8,1.1,1.7,1.1
			c0.9,0,1.6-0.5,1.6-1.4c0-0.9-0.7-1.4-1.6-1.4h-0.3l-0.4-0.6l1.8-2.4H237v-0.9h4.6v0.9l-1.7,2.2C241,938.2,241.9,939,241.9,940.3z
			"/>
		<path class="st1" d="M249.9,940.3c0,1.5-1.2,2.4-2.6,2.4c-1.1,0-2.1-0.5-2.5-1.5l0.9-0.5c0.2,0.7,0.8,1.1,1.7,1.1
			c0.9,0,1.6-0.5,1.6-1.4c0-0.9-0.7-1.4-1.6-1.4h-0.3l-0.4-0.6l1.8-2.4H245v-0.9h4.6v0.9L248,938C249.1,938.2,249.9,939,249.9,940.3
			z"/>
	</g>
	<g>
		<path class="st1" d="M58.9,938.7c0,2.1-1.5,3.8-3.6,3.8h-3v-7.6h3C57.4,934.9,58.9,936.6,58.9,938.7z M57.9,938.7
			c0-1.6-1.1-2.9-2.6-2.9h-2v5.7h2C56.8,941.6,57.9,940.3,57.9,938.7z"/>
		<path class="st1" d="M67,941.6v1h-4.6v-7.6h4.5v1h-3.5v2.3h3.2v0.9h-3.2v2.4H67z"/>
		<path class="st1" d="M70,940.8l0.9-0.5c0.3,0.8,0.9,1.4,2,1.4c1.1,0,1.6-0.5,1.6-1.2c0-0.8-0.7-1-1.8-1.4
			c-1.2-0.4-2.4-0.8-2.4-2.2c0-1.4,1.1-2.2,2.4-2.2c1.3,0,2.2,0.7,2.6,1.7l-0.8,0.5c-0.3-0.7-0.8-1.2-1.7-1.2
			c-0.8,0-1.4,0.4-1.4,1.1c0,0.7,0.5,1,1.6,1.3c1.3,0.4,2.6,0.8,2.6,2.3c0,1.3-1.1,2.2-2.6,2.2C71.5,942.7,70.4,941.9,70,940.8z"/>
		<path class="st1" d="M80,934.9v7.6h-1v-7.6H80z"/>
		<path class="st1" d="M91.3,939.2c0,1.9-1.4,3.5-3.7,3.5c-2.4,0-4-1.8-4-4c0-2.2,1.7-4,4-4c1.4,0,2.7,0.8,3.3,1.8l-0.9,0.5
			c-0.4-0.8-1.4-1.4-2.4-1.4c-1.8,0-3,1.3-3,3c0,1.7,1.2,3,3,3c1.6,0,2.5-0.9,2.7-2h-2.8v-0.9h3.8V939.2z"/>
		<path class="st1" d="M100.6,934.9v7.6h-0.8l-3.9-5.7v5.7h-1v-7.6h0.8l3.9,5.7v-5.7H100.6z"/>
		<path class="st1" d="M109.1,941.6v1h-4.6v-7.6h4.5v1h-3.5v2.3h3.2v0.9h-3.2v2.4H109.1z"/>
		<path class="st1" d="M119.2,938.7c0,2.1-1.5,3.8-3.6,3.8h-3v-7.6h3C117.6,934.9,119.2,936.6,119.2,938.7z M118.2,938.7
			c0-1.6-1.1-2.9-2.6-2.9h-2v5.7h2C117.1,941.6,118.2,940.3,118.2,938.7z"/>
		<path class="st1" d="M133.2,940.4c0,1.2-1,2.2-2.2,2.2h-3.3v-7.6h3c1.2,0,2.1,0.9,2.1,2.1c0,0.7-0.3,1.2-0.8,1.6
			C132.7,938.9,133.2,939.5,133.2,940.4z M128.7,935.8v2.3h2c0.6,0,1.1-0.5,1.1-1.2c0-0.6-0.5-1.2-1.1-1.2H128.7z M132.2,940.3
			c0-0.7-0.5-1.2-1.2-1.2h-2.3v2.5h2.3C131.7,941.6,132.2,941,132.2,940.3z"/>
		<path class="st1" d="M139.4,939.4v3.1h-1v-3.1l-2.7-4.5h1.1l2.1,3.6l2.1-3.6h1.1L139.4,939.4z"/>
	</g>
	<g>
		<path class="st1" d="M214.1,956c0,2.3-1.8,4.1-4.1,4.1h-2.5v4.2h-2v-12.4h4.6C212.4,951.9,214.1,953.7,214.1,956z M212.1,956
			c0-1.3-0.9-2.2-2.1-2.2h-2.5v4.3h2.5C211.2,958.1,212.1,957.2,212.1,956z"/>
		<path class="st1" d="M223.7,955.4v8.9h-1.9v-1.1c-0.6,0.9-1.5,1.4-2.7,1.4c-2,0-3.4-1.3-3.4-3.6v-5.4h1.9v5.2c0,1.3,0.8,2.1,2,2.1
			c1.3,0,2.2-0.7,2.2-2.5v-4.7H223.7z"/>
		<path class="st1" d="M238.9,958.8v5.5H237v-5.4c0-1.2-0.7-1.9-1.7-1.9c-1.1,0-1.9,0.7-1.9,2.3v5h-1.9v-5.4c0-1.2-0.6-1.9-1.7-1.9
			c-1.1,0-2,0.7-2,2.3v5h-1.9v-8.9h1.9v1.1c0.6-0.9,1.4-1.3,2.5-1.3c1.2,0,2,0.5,2.5,1.4c0.6-0.9,1.5-1.4,2.7-1.4
			C237.6,955.2,238.9,956.6,238.9,958.8z"/>
		<path class="st1" d="M250.4,959.9c0,2.6-2,4.7-4.4,4.7c-1.4,0-2.4-0.6-3.1-1.5v4.8H241v-12.4h1.9v1.3c0.7-0.9,1.7-1.5,3.1-1.5
			C248.4,955.2,250.4,957.3,250.4,959.9z M248.5,959.9c0-1.6-1.2-2.8-2.8-2.8c-1.6,0-2.8,1.2-2.8,2.8c0,1.6,1.2,2.8,2.8,2.8
			C247.3,962.7,248.5,961.5,248.5,959.9z"/>
		<path class="st1" d="M257.7,964.3l-3.6-4.1v4.1h-1.9v-12.4h1.9v7.5l3.4-3.9h2.3l-3.9,4.3l4,4.5H257.7z"/>
		<path class="st1" d="M261,952.9c0-0.7,0.5-1.2,1.2-1.2c0.7,0,1.2,0.5,1.2,1.2c0,0.7-0.5,1.2-1.2,1.2
			C261.5,954.1,261,953.6,261,952.9z M261.2,955.4h1.9v8.9h-1.9V955.4z"/>
		<path class="st1" d="M273.4,958.9v5.4h-1.9v-5.2c0-1.3-0.8-2.1-2-2.1c-1.3,0-2.2,0.7-2.2,2.5v4.7h-1.9v-8.9h1.9v1.1
			c0.6-0.9,1.5-1.4,2.7-1.4C272,955.2,273.4,956.6,273.4,958.9z"/>
	</g>
	<g>
		<g>
			<path class="st1" d="M846.1,938.7c0,2.1-1.5,3.8-3.6,3.8h-3v-7.6h3C844.6,934.9,846.1,936.6,846.1,938.7z M845.2,938.7
				c0-1.6-1.1-2.9-2.6-2.9h-2v5.7h2C844.1,941.6,845.2,940.3,845.2,938.7z"/>
		</g>
		<g>
			<path class="st1" d="M849.3,938.7c0-2.2,1.7-4,3.9-4c2.2,0,4,1.8,4,4c0,2.2-1.7,4-4,4C851,942.7,849.3,940.9,849.3,938.7z
				 M856.1,938.7c0-1.7-1.3-3-2.9-3c-1.7,0-2.9,1.3-2.9,3c0,1.7,1.3,3,2.9,3C854.9,941.7,856.1,940.4,856.1,938.7z"/>
		</g>
		<g>
			<path class="st1" d="M859.8,934.9h1.1l1.7,6.3l1.9-6.3h1l1.9,6.3l1.7-6.3h1.1l-2.2,7.6h-1.2l-1.8-6.1l-1.8,6.1H862L859.8,934.9z"
				/>
		</g>
		<g>
			<path class="st1" d="M879.3,934.9v7.6h-0.8l-3.9-5.7v5.7h-1v-7.6h0.8l3.9,5.7v-5.7H879.3z"/>
		</g>
		<g>
			<path class="st1" d="M887.5,941.6v1h-4.3v-7.6h1v6.7H887.5z"/>
		</g>
		<g>
			<path class="st1" d="M889.9,938.7c0-2.2,1.7-4,3.9-4c2.2,0,4,1.8,4,4c0,2.2-1.7,4-4,4C891.6,942.7,889.9,940.9,889.9,938.7z
				 M896.8,938.7c0-1.7-1.3-3-2.9-3c-1.7,0-2.9,1.3-2.9,3c0,1.7,1.3,3,2.9,3C895.5,941.7,896.8,940.4,896.8,938.7z"/>
		</g>
		<g>
			<path class="st1" d="M905.4,940.8H902l-0.6,1.7h-1.1l2.8-7.6h1.1l2.8,7.6H906L905.4,940.8z M905.1,939.9l-1.4-3.8l-1.4,3.8H905.1
				z"/>
		</g>
		<g>
			<path class="st1" d="M916.9,938.7c0,2.1-1.5,3.8-3.6,3.8h-3v-7.6h3C915.4,934.9,916.9,936.6,916.9,938.7z M915.9,938.7
				c0-1.6-1.1-2.9-2.6-2.9h-2v5.7h2C914.9,941.6,915.9,940.3,915.9,938.7z"/>
		</g>
		<g>
			<path class="st1" d="M926.5,935.8v2.5h3.2v1h-3.2v3.2h-1v-7.6h4.4v1H926.5z"/>
		</g>
		<g>
			<path class="st1" d="M936.2,939.6h-1.8v2.9h-1v-7.6h3c1.3,0,2.4,1.1,2.4,2.4c0,1-0.7,1.9-1.6,2.2l1.8,3.1h-1.1L936.2,939.6z
				 M934.4,938.7h2c0.8,0,1.4-0.6,1.4-1.4c0-0.8-0.6-1.4-1.4-1.4h-2V938.7z"/>
		</g>
		<g>
			<path class="st1" d="M941.9,938.7c0-2.2,1.7-4,3.9-4c2.2,0,4,1.8,4,4c0,2.2-1.7,4-4,4C943.6,942.7,941.9,940.9,941.9,938.7z
				 M948.8,938.7c0-1.7-1.3-3-2.9-3c-1.7,0-2.9,1.3-2.9,3c0,1.7,1.3,3,2.9,3C947.5,941.7,948.8,940.4,948.8,938.7z"/>
		</g>
		<g>
			<path class="st1" d="M960.4,942.5h-1v-6l-2.5,4.2h-0.1l-2.5-4.1v5.9h-1v-7.6h1.1l2.4,4l2.4-4h1.1V942.5z"/>
		</g>
	</g>
	<g>
		<g>
			<path class="st1" d="M839.3,952.9c0-0.7,0.5-1.2,1.2-1.2c0.7,0,1.2,0.5,1.2,1.2c0,0.7-0.5,1.2-1.2,1.2
				C839.9,954.1,839.3,953.6,839.3,952.9z M839.6,955.4h1.9v8.9h-1.9V955.4z"/>
		</g>
		<g>
			<path class="st1" d="M843.7,951.4h1.9v12.9h-1.9V951.4z"/>
		</g>
		<g>
			<path class="st1" d="M847.8,951.4h1.9v12.9h-1.9V951.4z"/>
		</g>
		<g>
			<path class="st1" d="M852,951.4h1.9v12.9H852V951.4z"/>
		</g>
		<g>
			<path class="st1" d="M864,955.4v8.9h-1.9v-1.1c-0.6,0.9-1.5,1.4-2.7,1.4c-2,0-3.4-1.3-3.4-3.6v-5.4h1.9v5.2c0,1.3,0.8,2.1,2,2.1
				c1.3,0,2.2-0.7,2.2-2.5v-4.7H864z"/>
		</g>
		<g>
			<path class="st1" d="M872.6,961.8c0,1.8-1.5,2.7-3.5,2.7c-1.8,0-3-0.8-3.6-2.1l1.6-1c0.3,0.8,1,1.3,2,1.3c0.8,0,1.5-0.3,1.5-1
				c0-1.6-4.8-0.7-4.8-3.9c0-1.7,1.4-2.7,3.2-2.7c1.5,0,2.7,0.7,3.3,1.8l-1.6,0.9c-0.3-0.7-0.9-1-1.7-1c-0.7,0-1.3,0.3-1.3,0.9
				C867.9,959.5,872.6,958.5,872.6,961.8z"/>
		</g>
		<g>
			<path class="st1" d="M876.7,957.3v4.2c0,1.1,0.7,1.1,2.2,1v1.7c-2.9,0.4-4.1-0.5-4.1-2.8v-4.2h-1.6v-1.8h1.6v-1.9l1.9-0.6v2.5
				h2.2v1.8H876.7z"/>
		</g>
		<g>
			<path class="st1" d="M885.4,955.3v2.1c-1.3-0.1-2.7,0.5-2.7,2.5v4.5h-1.9v-8.9h1.9v1.5C883.2,955.7,884.2,955.3,885.4,955.3z"/>
		</g>
		<g>
			<path class="st1" d="M895.3,955.4v8.9h-1.9V963c-0.7,0.9-1.7,1.5-3.1,1.5c-2.4,0-4.4-2-4.4-4.7c0-2.6,2-4.7,4.4-4.7
				c1.4,0,2.4,0.6,3.1,1.5v-1.3H895.3z M893.4,959.9c0-1.6-1.2-2.8-2.8-2.8c-1.6,0-2.8,1.2-2.8,2.8c0,1.6,1.2,2.8,2.8,2.8
				C892.2,962.7,893.4,961.5,893.4,959.9z"/>
		</g>
		<g>
			<path class="st1" d="M900.3,957.3v4.2c0,1.1,0.7,1.1,2.2,1v1.7c-2.9,0.4-4.1-0.5-4.1-2.8v-4.2h-1.6v-1.8h1.6v-1.9l1.9-0.6v2.5
				h2.2v1.8H900.3z"/>
		</g>
		<g>
			<path class="st1" d="M903.9,952.9c0-0.7,0.5-1.2,1.2-1.2c0.7,0,1.2,0.5,1.2,1.2c0,0.7-0.5,1.2-1.2,1.2
				C904.5,954.1,903.9,953.6,903.9,952.9z M904.2,955.4h1.9v8.9h-1.9V955.4z"/>
		</g>
		<g>
			<path class="st1" d="M907.8,959.9c0-2.6,2.1-4.7,4.7-4.7c2.6,0,4.7,2,4.7,4.7c0,2.6-2.1,4.7-4.7,4.7
				C909.9,964.5,907.8,962.5,907.8,959.9z M915.3,959.9c0-1.6-1.2-2.8-2.8-2.8c-1.6,0-2.8,1.2-2.8,2.8c0,1.6,1.2,2.8,2.8,2.8
				C914.1,962.7,915.3,961.5,915.3,959.9z"/>
		</g>
		<g>
			<path class="st1" d="M927,958.9v5.4h-1.9v-5.2c0-1.3-0.8-2.1-2-2.1c-1.3,0-2.2,0.7-2.2,2.5v4.7h-1.9v-8.9h1.9v1.1
				c0.6-0.9,1.5-1.4,2.7-1.4C925.5,955.2,927,956.6,927,958.9z"/>
		</g>
		<g>
			<path class="st1" d="M935.5,961.8c0,1.8-1.5,2.7-3.5,2.7c-1.8,0-3-0.8-3.6-2.1l1.6-1c0.3,0.8,1,1.3,2,1.3c0.8,0,1.5-0.3,1.5-1
				c0-1.6-4.8-0.7-4.8-3.9c0-1.7,1.4-2.7,3.2-2.7c1.5,0,2.7,0.7,3.3,1.8l-1.6,0.9c-0.3-0.7-0.9-1-1.7-1c-0.7,0-1.3,0.3-1.3,0.9
				C930.7,959.5,935.5,958.5,935.5,961.8z"/>
		</g>
		<g>
			<path class="st1" d="M936.8,963.2c0-0.7,0.6-1.3,1.3-1.3c0.7,0,1.3,0.6,1.3,1.3c0,0.7-0.6,1.3-1.3,1.3
				C937.4,964.5,936.8,963.9,936.8,963.2z"/>
		</g>
		<g>
			<path class="st1" d="M940.3,959.9c0-2.6,2-4.7,4.7-4.7c1.7,0,3.2,0.9,3.9,2.3l-1.6,1c-0.4-0.8-1.3-1.4-2.3-1.4
				c-1.6,0-2.7,1.2-2.7,2.8c0,1.6,1.2,2.8,2.7,2.8c1.1,0,1.9-0.5,2.4-1.4l1.6,0.9c-0.7,1.4-2.2,2.3-4,2.3
				C942.3,964.5,940.3,962.5,940.3,959.9z"/>
		</g>
		<g>
			<path class="st1" d="M949.7,959.9c0-2.6,2.1-4.7,4.7-4.7c2.6,0,4.7,2,4.7,4.7c0,2.6-2.1,4.7-4.7,4.7
				C951.8,964.5,949.7,962.5,949.7,959.9z M957.2,959.9c0-1.6-1.2-2.8-2.8-2.8s-2.8,1.2-2.8,2.8c0,1.6,1.2,2.8,2.8,2.8
				S957.2,961.5,957.2,959.9z"/>
		</g>
	</g>
</g>
<ellipse id="XMLID_28_" class="st2" cx="500" cy="676.9" rx="198.6" ry="18.1"/>
<ellipse id="XMLID_10_" class="st3" cx="500.3" cy="398.5" rx="67.2" ry="31.5"/>
<ellipse id="XMLID_9_" class="st4" cx="500.3" cy="398.5" rx="67.2" ry="31.5"/>
<path id="XMLID_24_" class="st2" d="M523.2,299.5c0,0-16.1,4.6-26.1,28.6s-0.6,63.9-0.6,63.9H516c0,0-7-25,0.5-42.8
	c4.2-10,23.1-22.9,23.1-22.9S545,305.5,523.2,299.5z"/>
<path id="XMLID_41_" class="st5" d="M503.1,334.1c10-24,26.1-28.6,26.1-28.6c3.2,0.9,5.7,2.1,7.8,3.4c-2.5-3.9-6.7-7.5-13.8-9.4
	c0,0-16.1,4.6-26.1,28.6s-0.6,63.9-0.6,63.9h4.8C499.1,379.9,495.5,352.4,503.1,334.1z"/>
<ellipse id="XMLID_31_" transform="matrix(0.8594 -0.5114 0.5114 0.8594 -86.0281 314.5572)" class="st6" cx="528.9" cy="313.7" rx="6.9" ry="13.9"/>
<path id="XMLID_15_" class="st4" d="M523.2,299.5c0,0-16.1,4.6-26.1,28.6s-0.6,63.9-0.6,63.9H516c0,0-7-25,0.5-42.8
	c4.2-10,23.1-22.9,23.1-22.9S545,305.5,523.2,299.5z"/>
<path id="XMLID_17_" class="st7" d="M688.7,484.2c-3.4-30.5-11.7-57.1-28.3-73.8c-15.6-17-38.6-23.1-63.5-23.2
	c6.3,3.1,12,7.6,17,13.8c14.9,16.8,22.4,45.6,25.5,79.3c2.8,34.3,0.9,71.8-9.2,106.8c-10.8,38.9-31.6,72.2-61.2,84.4
	c57.2-1.9,93.9-43.5,109.7-90.8C689.7,548.8,691.8,515.1,688.7,484.2z"/>
<path id="XMLID_35_" class="st3" d="M688.7,484.2c-3.4-30.5-11.7-57.1-28.3-73.8c-15.6-17-38.6-23.1-63.5-23.2
	c1.1,0.5,2.2,1.1,3.2,1.8c16.5,2.8,31.3,9.4,42.3,21.4c16.7,16.6,25,43.3,28.3,73.8c3.1,30.9,1,64.7-10.1,96.6
	c-13.3,39.8-41.4,75.6-84,87c-2.5,1.4-5.1,2.7-7.7,3.8c57.2-1.9,93.9-43.5,109.7-90.8C689.7,548.8,691.8,515.1,688.7,484.2z"/>
<path id="XMLID_7_" class="st4" d="M688.7,484.2c-3.4-30.5-11.7-57.1-28.3-73.8c-15.6-17-38.6-23.1-63.5-23.2
	c6.3,3.1,12,7.6,17,13.8c14.9,16.8,22.4,45.6,25.5,79.3c2.8,34.3,0.9,71.8-9.2,106.8c-10.8,38.9-31.6,72.2-61.2,84.4
	c57.2-1.9,93.9-43.5,109.7-90.8C689.7,548.8,691.8,515.1,688.7,484.2z"/>
<path id="XMLID_19_" class="st8" d="M639.4,480.3c-3.1-33.7-10.6-62.5-25.5-79.3c-20.8-25.9-55.2-21.9-85.7-10.6
	c12.4,6.1,23.1,17.3,29.1,37.5c5.3,16.2,7.8,38.5,8.8,62.8c0.9,24.4,0.3,50.8-3,76.6c-5.4,43.5-20.2,90.5-50,103
	c59.7,23.8,100.4-23,117.1-83C640.3,552.1,642.2,514.6,639.4,480.3z"/>
<path id="XMLID_37_" class="st9" d="M639.4,480.3c-3.1-33.7-10.6-62.5-25.5-79.3c-14.9-18.6-36.8-21.8-59.2-18
	c11.1,2.4,21.2,7.9,29.2,18c14.9,16.8,22.4,45.6,25.5,79.3c2.8,34.3,0.9,71.8-9.2,106.8c-12,43.3-36.6,79.7-71.7,87.7
	c51.3,10.7,86.5-33,101.7-87.7C640.3,552.1,642.2,514.6,639.4,480.3z"/>
<path id="XMLID_8_" class="st4" d="M639.4,480.3c-3.1-33.7-10.6-62.5-25.5-79.3c-20.8-25.9-55.2-21.9-85.7-10.6
	c12.4,6.1,23.1,17.3,29.1,37.5c5.3,16.2,7.8,38.5,8.8,62.8c0.9,24.4,0.3,50.8-3,76.6c-5.4,43.5-20.2,90.5-50,103
	c59.7,23.8,100.4-23,117.1-83C640.3,552.1,642.2,514.6,639.4,480.3z"/>
<path id="XMLID_20_" class="st7" d="M310.3,484.2c3.4-30.5,11.7-57.1,28.3-73.8c15.6-17,38.6-23.1,63.5-23.2
	c-6.3,3.1-12,7.6-17,13.8c-14.9,16.8-22.4,45.6-25.5,79.3c-2.8,34.3-0.9,71.8,9.2,106.8c10.8,38.9,31.6,72.2,61.2,84.4
	c-57.2-1.9-93.9-43.5-109.7-90.8C309.4,548.8,307.3,515.1,310.3,484.2z"/>
<path id="XMLID_34_" class="st3" d="M342.4,580.7c-11.1-31.9-13.2-65.6-10.1-96.6c3.4-30.5,11.7-57.1,28.3-73.8
	c9.7-10.6,22.2-16.9,36.3-20.2c1.7-1.1,3.4-2.1,5.2-3c-24.9,0.1-47.9,6.2-63.5,23.2c-16.7,16.6-25,43.3-28.3,73.8
	c-3.1,30.9-1,64.7,10.1,96.6c15.8,47.3,52.5,88.9,109.7,90.8c-4.1-1.7-8.1-3.8-11.9-6.3C380.2,651.6,354.9,617.9,342.4,580.7z"/>
<path id="XMLID_6_" class="st4" d="M310.3,484.2c3.4-30.5,11.7-57.1,28.3-73.8c15.6-17,38.6-23.1,63.5-23.2c-6.3,3.1-12,7.6-17,13.8
	c-14.9,16.8-22.4,45.6-25.5,79.3c-2.8,34.3-0.9,71.8,9.2,106.8c10.8,38.9,31.6,72.2,61.2,84.4c-57.2-1.9-93.9-43.5-109.7-90.8
	C309.4,548.8,307.3,515.1,310.3,484.2z"/>
<path id="XMLID_22_" class="st8" d="M359.7,480.3c3.1-33.7,10.6-62.5,25.5-79.3c20.8-25.9,55.2-21.9,85.7-10.6
	c-12.4,6.1-23.1,17.3-29.1,37.5c-5.3,16.2-7.8,38.5-8.8,62.8c-0.9,24.4-0.3,50.8,3,76.6c5.4,43.5,20.2,90.5,50,103
	c-59.7,23.8-100.4-23-117.1-83C358.8,552.1,356.9,514.6,359.7,480.3z"/>
<path id="XMLID_36_" class="st9" d="M402.9,587.1c-10.1-35-12-72.5-9.2-106.8c3.1-33.7,10.6-62.5,25.5-79.3
	c7.6-9.5,17.1-15,27.5-17.6c-23.2-4.4-46.1-1.7-61.5,17.6c-14.9,16.8-22.4,45.6-25.5,79.3c-2.8,34.3-0.9,71.8,9.2,106.8
	c15.4,55.5,51.3,99.7,103.8,87.3C438.6,665.5,414.7,629.7,402.9,587.1z"/>
<path id="XMLID_1_" class="st4" d="M359.7,480.3c3.1-33.7,10.6-62.5,25.5-79.3c20.8-25.9,55.2-21.9,85.7-10.6
	c-12.4,6.1-23.1,17.3-29.1,37.5c-5.3,16.2-7.8,38.5-8.8,62.8c-0.9,24.4-0.3,50.8,3,76.6c5.4,43.5,20.2,90.5,50,103
	c-59.7,23.8-100.4-23-117.1-83C358.8,552.1,356.9,514.6,359.7,480.3z"/>
<path id="XMLID_23_" class="st10" d="M441.7,428.3c-5.3,16.4-7.8,38.9-8.8,63.5c-0.9,24.7-0.3,51.4,3,77.4
	c6.2,50.5,24.8,105.5,64.1,107.3c0,0,0,0,0,0c39.3-1.7,57.9-56.8,64.1-107.3c3.3-26,3.9-52.8,3-77.4c-1-24.6-3.5-47.1-8.8-63.5
	c-10.6-35.5-35.1-43.7-58.3-44.6c0,0,0,0,0,0C476.8,384.6,452.3,392.8,441.7,428.3z"/>
<path id="XMLID_21_" class="st4" d="M441.7,428.3c-5.3,16.4-7.8,38.9-8.8,63.5c-0.9,24.7-0.3,51.4,3,77.4
	c6.2,50.5,24.8,105.5,64.1,107.3c0,0,0,0,0,0c39.3-1.7,57.9-56.8,64.1-107.3c3.3-26,3.9-52.8,3-77.4c-1-24.6-3.5-47.1-8.8-63.5
	c-10.6-35.5-35.1-43.7-58.3-44.6c0,0,0,0,0,0C476.8,384.6,452.3,392.8,441.7,428.3z"/>
<path id="XMLID_30_" class="st7" d="M530.8,501c-1.5-2.7-0.6-6.3,2-7.4c9.5-3.8,30.2-14.2,34.9-33.2c6.1-24.9,29.4,13.8,24.6,38.9
	C588.5,519.4,546.7,528.3,530.8,501z"/>
<path id="XMLID_29_" class="st2" d="M530.8,494.4c-1.5-2.7-0.6-6.3,2-7.4c9.5-3.8,30.2-14.2,34.9-33.2c6.1-24.9,29.4,13.8,24.6,38.9
	C588.5,512.8,546.7,521.7,530.8,494.4z"/>
<path id="XMLID_11_" class="st4" d="M530.8,494.4c-1.5-2.7-0.6-6.3,2-7.4c9.5-3.8,30.2-14.2,34.9-33.2c6.1-24.9,29.4,13.8,24.6,38.9
	C588.5,512.8,546.7,521.7,530.8,494.4z"/>
<path id="XMLID_4_" class="st7" d="M469,499.2c1.6-2.8,0.6-6.8-2.1-7.9c-9.8-4.1-31.3-15.1-36.1-35.5c-6.3-26.6-30.4,14.8-25.4,41.5
	C409.3,518.9,452.6,528.4,469,499.2z"/>
<path id="XMLID_26_" class="st2" d="M469.2,494.4c1.5-2.7,0.6-6.3-2-7.4c-9.5-3.8-30.2-14.2-34.9-33.2
	c-6.1-24.9-29.4,13.8-24.6,38.9C411.5,512.8,453.3,521.7,469.2,494.4z"/>
<circle id="XMLID_12_" class="st10" cx="453.1" cy="494" r="8.8"/>
<circle id="XMLID_27_" class="st10" cx="544.1" cy="494" r="8.8"/>
<path id="XMLID_13_" class="st4" d="M469.2,494.4c1.5-2.7,0.6-6.3-2-7.4c-9.5-3.8-30.2-14.2-34.9-33.2
	c-6.1-24.9-29.4,13.8-24.6,38.9C411.5,512.8,453.3,521.7,469.2,494.4z"/>
<path id="XMLID_32_" class="st7" d="M557.8,573.5l2.2,11.5l-24.1,7.1l-2-10.6c-10.6,2.3-21.9,3.5-33.6,3.5
	c-35.3,0-66.7-11.2-86.5-28.4c2.4,20.1,16.6,37.5,37.2,48.4c1.8,0.9,3.9,0.1,4.6-1.9l2.9-8.1l21.2,6l-3.3,9.1
	c-0.7,2,0.5,4.1,2.5,4.5c6.8,1.3,14,2,21.3,2c45.3,0,82.5-26.4,86.5-60C578.1,564,570,568.7,557.8,573.5z"/>
<path id="XMLID_25_" class="st2" d="M556.5,570.1l2.2,11.5l-21.9,5.5l-2.1-10.6c-10.8,2.3-22.3,3.5-34.2,3.5
	c-36,0-67.9-11.2-88.1-28.4c2.6,21.1,18.4,39.4,41.3,50.1l4.2-11.7l21.6,6l-4.7,12.8c8.1,1.8,16.7,2.8,25.6,2.8
	c46.1,0,84-26.4,88.1-60C580,559,569,565.3,556.5,570.1z"/>
</svg>
