<?xml version="1.0" encoding="utf-8"?>
<!-- Generator: Adobe Illustrator 23.1.1, SVG Export Plug-In . SVG Version: 6.00 Build 0)  -->
<svg version="1.1" id="Layer_1" xmlns="http://www.w3.org/2000/svg" xmlns:xlink="http://www.w3.org/1999/xlink" x="0px" y="0px"
	 viewBox="0 0 1600 1600" style="enable-background:new 0 0 1600 1600;" xml:space="preserve">
<style type="text/css">
	.st0{fill:url(#XMLID_17_);}
	.st1{fill:#EEF2F4;}
	.st2{fill:#DB283E;}
	.st3{opacity:0.56;fill-rule:evenodd;clip-rule:evenodd;fill:#EA4965;}
	.st4{fill:#FAF1D2;}
	.st5{fill:none;stroke:#9B0D2F;stroke-width:4;stroke-linecap:round;stroke-linejoin:round;stroke-miterlimit:10;}
	.st6{fill-rule:evenodd;clip-rule:evenodd;fill:#FFFCFF;}
	.st7{fill-rule:evenodd;clip-rule:evenodd;fill:#CECECE;}
	.st8{clip-path:url(#XMLID_20_);}
	.st9{fill:none;stroke:#3D3D3D;stroke-width:4;stroke-linejoin:round;stroke-miterlimit:10;}
	.st10{fill:none;stroke:#3D3D3D;stroke-width:2;stroke-linejoin:round;stroke-miterlimit:10;}
	.st11{fill:none;stroke:#3D3D3D;stroke-width:5;stroke-linejoin:round;stroke-miterlimit:10;}
	.st12{fill:none;stroke:#3D3D3D;stroke-width:3;stroke-linejoin:round;stroke-miterlimit:10;}
	.st13{fill:none;stroke:#3D3D3D;stroke-width:7;stroke-linejoin:round;stroke-miterlimit:10;}
	.st14{fill-rule:evenodd;clip-rule:evenodd;fill:#8DB64E;}
	.st15{fill:none;stroke:#A5D647;stroke-miterlimit:10;}
	.st16{fill:#FFFCFF;}
	.st17{clip-path:url(#XMLID_24_);}
	.st18{opacity:8.000000e-02;fill-rule:evenodd;clip-rule:evenodd;fill:#FFFFFF;}
</style>
<linearGradient id="XMLID_17_" gradientUnits="userSpaceOnUse" x1="0" y1="800" x2="1600" y2="800">
	<stop  offset="0" style="stop-color:#ED552E"/>
	<stop  offset="1" style="stop-color:#EF165B"/>
</linearGradient>
<rect id="XMLID_676_" y="0" class="st0" width="1600" height="1600"/>
<g>
	<g>
		<g>
			<path class="st1" d="M101.2,1534.7c0,4.1-2,5.9-4.2,5.9c-1.7,0-3-0.8-3.4-2.2c-0.7,0.9-1.6,1.3-2.8,1.3c-2.4,0-4.2-1.9-4.2-4.4
				c0-2.6,1.8-4.5,4.2-4.5c1.1,0,2,0.4,2.6,1.1v-0.8h2.5v6.2c0,1.2,0.4,2.2,1.7,2.2c1.5,0,2.7-1.4,2.7-4.8c0-4.8-3.8-8.5-8.6-8.5
				c-5,0-9,3.9-9,9.1c0,5.2,4,9,9.5,9c1.8,0,3.3-0.2,4.6-0.7v0.9c-1.3,0.4-2.7,0.7-4.6,0.7c-6,0-10.5-4.2-10.5-9.9
				c0-5.5,4.3-9.9,10-9.9C97.7,1525.3,101.2,1530.2,101.2,1534.7z M93.3,1535.2c0-1.3-0.9-2.2-2.1-2.2c-1.2,0-2.1,0.9-2.1,2.2
				c0,1.3,0.9,2.1,2.1,2.1C92.4,1537.4,93.3,1536.5,93.3,1535.2z"/>
		</g>
		<g>
			<path class="st1" d="M111.1,1528.1v3.2c-1.9-0.1-4.2,0.8-4.2,3.8v6.9h-3v-13.7h3v2.3C107.7,1528.8,109.3,1528.1,111.1,1528.1z"/>
		</g>
		<g>
			<path class="st1" d="M119.3,1539.7c1.6,0,2.9-0.7,3.5-1.7l2.4,1.4c-1.3,1.9-3.3,3-6,3c-4.5,0-7.5-3.1-7.5-7.2
				c0-4.1,2.9-7.2,7.2-7.2c4.1,0,6.9,3.3,6.9,7.2c0,0.4-0.1,0.9-0.1,1.2h-10.9C115.4,1538.6,117.1,1539.7,119.3,1539.7z M123,1534.1
				c-0.4-2.4-2.1-3.4-3.9-3.4c-2.2,0-3.7,1.3-4.1,3.4H123z"/>
		</g>
		<g>
			<path class="st1" d="M142.3,1528.4v13.7h-3v-2c-1,1.5-2.7,2.3-4.8,2.3c-3.7,0-6.8-3.2-6.8-7.2c0-4.1,3.1-7.2,6.8-7.2
				c2.1,0,3.8,0.9,4.8,2.3v-1.9H142.3z M139.3,1535.2c0-2.6-1.9-4.4-4.3-4.4c-2.5,0-4.3,1.8-4.3,4.4c0,2.5,1.9,4.4,4.3,4.4
				C137.5,1539.6,139.3,1537.8,139.3,1535.2z"/>
		</g>
		<g>
			<path class="st1" d="M145.8,1522.1h3v20h-3V1522.1z"/>
		</g>
		<g>
			<path class="st1" d="M164.7,1528.4l-5.3,13.7h-3.4l-5.3-13.7h3.2l3.8,10.4l3.8-10.4H164.7z"/>
		</g>
		<g>
			<path class="st1" d="M166.8,1528.4h3v14.3c0,3.8-1.9,5.6-5.6,5.3v-2.9c1.8,0.2,2.7-0.5,2.7-2.4V1528.4z M166.4,1524.4
				c0-1,0.9-1.9,1.9-1.9c1,0,1.9,0.9,1.9,1.9c0,1-0.9,1.9-1.9,1.9C167.2,1526.3,166.4,1525.4,166.4,1524.4z"/>
		</g>
		<g>
			<path class="st1" d="M185.6,1528.4l-5.3,14.1c-1.3,3.5-3.5,5.2-6.7,5v-2.8c1.9,0.1,3-0.9,3.6-2.7l0.1-0.3l-5.8-13.5h3.2l4.1,10
				l3.5-10H185.6z"/>
		</g>
	</g>
	<g>
		<path class="st1" d="M339,1501.9c0,3.4-2.4,6.1-5.8,6.1h-4.8v-12.2h4.8C336.6,1495.8,339,1498.5,339,1501.9z M337.5,1501.9
			c0-2.6-1.7-4.6-4.2-4.6h-3.1v9.1h3.1C335.7,1506.5,337.5,1504.5,337.5,1501.9z"/>
		<path class="st1" d="M351.3,1505.3h-5.5l-1,2.7H343l4.6-12.2h1.8l4.6,12.2h-1.7L351.3,1505.3z M350.7,1503.8l-2.2-6l-2.2,6H350.7z
			"/>
		<path class="st1" d="M362.3,1503.1v4.9h-1.6v-5l-4.3-7.3h1.8l3.3,5.7l3.3-5.7h1.8L362.3,1503.1z"/>
		<path class="st1" d="M387.1,1504.4c0,2.5-2,3.8-4.2,3.8c-1.8,0-3.4-0.8-4-2.5l1.4-0.8c0.4,1.1,1.3,1.7,2.7,1.7
			c1.5,0,2.6-0.8,2.6-2.2c0-1.5-1.1-2.3-2.6-2.3h-0.4l-0.6-1l2.8-3.8h-5.4v-1.5h7.3v1.4l-2.7,3.6
			C385.7,1501.1,387.1,1502.4,387.1,1504.4z"/>
		<path class="st1" d="M401.3,1505.7h-1.5v2.3h-1.6v-2.3H392v-1.5l4.4-8.4h1.7l-4.4,8.4h4.5v-3.5h1.6v3.5h1.5V1505.7z"/>
	</g>
	<g>
		<path class="st1" d="M94.2,1501.9c0,3.4-2.4,6.1-5.8,6.1h-4.8v-12.2h4.8C91.8,1495.8,94.2,1498.5,94.2,1501.9z M92.7,1501.9
			c0-2.6-1.7-4.6-4.2-4.6h-3.1v9.1h3.1C90.9,1506.5,92.7,1504.5,92.7,1501.9z"/>
		<path class="st1" d="M107.1,1506.5v1.5h-7.3v-12.2h7.2v1.5h-5.6v3.8h5.1v1.5h-5.1v3.9H107.1z"/>
		<path class="st1" d="M112.1,1505.2l1.4-0.8c0.4,1.3,1.5,2.2,3.3,2.2c1.7,0,2.6-0.8,2.6-1.9c0-1.3-1.1-1.7-2.9-2.2
			c-2-0.6-3.8-1.2-3.8-3.5c0-2.2,1.8-3.5,3.8-3.5c2,0,3.5,1.1,4.1,2.7l-1.4,0.8c-0.4-1-1.3-1.9-2.8-1.9c-1.3,0-2.2,0.7-2.2,1.8
			c0,1.1,0.9,1.6,2.6,2.1c2.1,0.7,4.1,1.3,4.1,3.7c0,2.1-1.7,3.5-4.2,3.5C114.4,1508.2,112.7,1507.1,112.1,1505.2z"/>
		<path class="st1" d="M128,1495.8v12.2h-1.6v-12.2H128z"/>
		<path class="st1" d="M146.1,1502.7c0,3.1-2.3,5.5-6,5.5c-3.8,0-6.4-2.8-6.4-6.3c0-3.5,2.7-6.3,6.4-6.3c2.3,0,4.3,1.2,5.3,2.9
			l-1.4,0.8c-0.7-1.3-2.2-2.2-3.9-2.2c-2.8,0-4.8,2.1-4.8,4.8c0,2.7,1.9,4.7,4.8,4.7c2.5,0,4-1.4,4.3-3.2H140v-1.5h6.1V1502.7z"/>
		<path class="st1" d="M160.9,1495.8v12.2h-1.3l-6.3-9.1v9.1h-1.6v-12.2h1.3l6.3,9.1v-9.1H160.9z"/>
		<path class="st1" d="M174.5,1506.5v1.5h-7.3v-12.2h7.2v1.5h-5.6v3.8h5.1v1.5h-5.1v3.9H174.5z"/>
		<path class="st1" d="M190.7,1501.9c0,3.4-2.4,6.1-5.8,6.1h-4.8v-12.2h4.8C188.2,1495.8,190.7,1498.5,190.7,1501.9z M189.1,1501.9
			c0-2.6-1.7-4.6-4.2-4.6h-3.1v9.1h3.1C187.4,1506.5,189.1,1504.5,189.1,1501.9z"/>
		<path class="st1" d="M213.1,1504.6c0,2-1.6,3.5-3.5,3.5h-5.3v-12.2h4.9c1.9,0,3.4,1.4,3.4,3.3c0,1.1-0.5,2-1.3,2.5
			C212.4,1502.2,213.1,1503.2,213.1,1504.6z M205.9,1497.3v3.7h3.3c1,0,1.8-0.8,1.8-1.9c0-1-0.8-1.9-1.8-1.9H205.9z M211.5,1504.5
			c0-1.1-0.9-2-1.9-2h-3.6v4h3.6C210.7,1506.5,211.5,1505.6,211.5,1504.5z"/>
		<path class="st1" d="M223,1503.1v4.9h-1.6v-5l-4.3-7.3h1.8l3.3,5.7l3.3-5.7h1.8L223,1503.1z"/>
	</g>
	<g>
		<path class="st1" d="M341.6,1526.2H336v16.7h-3.3v-16.7h-5.6v-3.1h14.5V1526.2z"/>
		<path class="st1" d="M343.4,1524.6c0-1.1,0.9-2,2-2c1.1,0,2,0.9,2,2c0,1-0.9,2-2,2C344.3,1526.6,343.4,1525.7,343.4,1524.6z
			 M343.8,1528.7h3.1v14.2h-3.1V1528.7z"/>
		<path class="st1" d="M349.6,1535.8c0-4.2,3.2-7.5,7.5-7.5c2.8,0,5.2,1.4,6.3,3.7l-2.6,1.5c-0.6-1.3-2-2.2-3.7-2.2
			c-2.5,0-4.4,1.9-4.4,4.4c0,2.6,1.9,4.4,4.4,4.4c1.7,0,3.1-0.9,3.8-2.2l2.6,1.5c-1.2,2.2-3.6,3.7-6.4,3.7
			C352.8,1543.2,349.6,1540,349.6,1535.8z"/>
		<path class="st1" d="M374.6,1542.9l-5.8-6.5v6.5h-3.1V1523h3.1v11.9l5.5-6.3h3.7l-6.2,6.9l6.5,7.2H374.6z"/>
		<path class="st1" d="M386.1,1540.4c1.7,0,3-0.8,3.7-1.8l2.5,1.5c-1.3,1.9-3.4,3.1-6.2,3.1c-4.7,0-7.7-3.2-7.7-7.5
			c0-4.2,3-7.5,7.5-7.5c4.2,0,7.1,3.4,7.1,7.5c0,0.4-0.1,0.9-0.1,1.3h-11.3C382,1539.3,383.8,1540.4,386.1,1540.4z M389.9,1534.6
			c-0.4-2.4-2.2-3.5-4.1-3.5c-2.3,0-3.9,1.4-4.3,3.5H389.9z"/>
		<path class="st1" d="M399.6,1531.7v6.8c0,1.8,1.2,1.8,3.5,1.7v2.7c-4.7,0.6-6.6-0.7-6.6-4.4v-6.8h-2.6v-2.9h2.6v-3.1l3.1-0.9v4
			h3.5v2.9H399.6z"/>
	</g>
	<g>
		<g>
			<path class="st1" d="M1353.8,1501.9c0,3.4-2.4,6.1-5.8,6.1h-4.8v-12.2h4.8C1351.4,1495.8,1353.8,1498.5,1353.8,1501.9z
				 M1352.3,1501.9c0-2.6-1.7-4.6-4.2-4.6h-3.1v9.1h3.1C1350.5,1506.5,1352.3,1504.5,1352.3,1501.9z"/>
		</g>
		<g>
			<path class="st1" d="M1358.8,1501.9c0-3.5,2.8-6.3,6.3-6.3c3.5,0,6.3,2.8,6.3,6.3c0,3.5-2.8,6.3-6.3,6.3
				C1361.6,1508.2,1358.8,1505.4,1358.8,1501.9z M1369.8,1501.9c0-2.7-2-4.8-4.7-4.8c-2.7,0-4.7,2.1-4.7,4.8c0,2.7,2,4.7,4.7,4.7
				C1367.8,1506.7,1369.8,1504.6,1369.8,1501.9z"/>
		</g>
		<g>
			<path class="st1" d="M1375.7,1495.8h1.7l2.8,10l3-10h1.6l3,10l2.8-10h1.7l-3.5,12.2h-1.9l-2.9-9.7l-2.9,9.7h-1.9L1375.7,1495.8z"
				/>
		</g>
		<g>
			<path class="st1" d="M1406.8,1495.8v12.2h-1.3l-6.3-9.1v9.1h-1.6v-12.2h1.3l6.3,9.1v-9.1H1406.8z"/>
		</g>
		<g>
			<path class="st1" d="M1420,1506.5v1.5h-6.9v-12.2h1.6v10.7H1420z"/>
		</g>
		<g>
			<path class="st1" d="M1423.8,1501.9c0-3.5,2.8-6.3,6.3-6.3c3.5,0,6.3,2.8,6.3,6.3c0,3.5-2.8,6.3-6.3,6.3
				C1426.6,1508.2,1423.8,1505.4,1423.8,1501.9z M1434.8,1501.9c0-2.7-2-4.8-4.7-4.8c-2.7,0-4.7,2.1-4.7,4.8c0,2.7,2,4.7,4.7,4.7
				C1432.8,1506.7,1434.8,1504.6,1434.8,1501.9z"/>
		</g>
		<g>
			<path class="st1" d="M1448.7,1505.3h-5.5l-1,2.7h-1.7l4.6-12.2h1.8l4.5,12.2h-1.7L1448.7,1505.3z M1448.1,1503.8l-2.2-6l-2.2,6
				H1448.1z"/>
		</g>
		<g>
			<path class="st1" d="M1467.1,1501.9c0,3.4-2.4,6.1-5.8,6.1h-4.8v-12.2h4.8C1464.6,1495.8,1467.1,1498.5,1467.1,1501.9z
				 M1465.5,1501.9c0-2.6-1.7-4.6-4.2-4.6h-3.1v9.1h3.1C1463.8,1506.5,1465.5,1504.5,1465.5,1501.9z"/>
		</g>
		<g>
			<path class="st1" d="M1482.3,1497.3v4h5.2v1.5h-5.2v5.2h-1.6v-12.2h7v1.5H1482.3z"/>
		</g>
		<g>
			<path class="st1" d="M1497.9,1503.3h-2.9v4.7h-1.6v-12.2h4.9c2.1,0,3.8,1.7,3.8,3.8c0,1.6-1.1,3-2.5,3.5l2.9,4.9h-1.8
				L1497.9,1503.3z M1495,1501.9h3.3c1.2,0,2.2-1,2.2-2.3c0-1.3-1-2.3-2.2-2.3h-3.3V1501.9z"/>
		</g>
		<g>
			<path class="st1" d="M1507,1501.9c0-3.5,2.8-6.3,6.3-6.3c3.5,0,6.3,2.8,6.3,6.3c0,3.5-2.8,6.3-6.3,6.3
				C1509.8,1508.2,1507,1505.4,1507,1501.9z M1518,1501.9c0-2.7-2-4.8-4.7-4.8c-2.7,0-4.7,2.1-4.7,4.8c0,2.7,2,4.7,4.7,4.7
				C1516,1506.7,1518,1504.6,1518,1501.9z"/>
		</g>
		<g>
			<path class="st1" d="M1536.7,1508h-1.6v-9.5l-4,6.6h-0.2l-4-6.6v9.5h-1.6v-12.2h1.8l3.9,6.4l3.9-6.4h1.8V1508z"/>
		</g>
	</g>
	<g>
		<g>
			<path class="st1" d="M1342.9,1524.6c0-1.1,0.9-2,2-2c1.1,0,2,0.9,2,2c0,1-0.9,2-2,2C1343.8,1526.6,1342.9,1525.7,1342.9,1524.6z
				 M1343.3,1528.7h3.1v14.2h-3.1V1528.7z"/>
		</g>
		<g>
			<path class="st1" d="M1349.9,1522.2h3.1v20.7h-3.1V1522.2z"/>
		</g>
		<g>
			<path class="st1" d="M1356.5,1522.2h3.1v20.7h-3.1V1522.2z"/>
		</g>
		<g>
			<path class="st1" d="M1363.1,1522.2h3.1v20.7h-3.1V1522.2z"/>
		</g>
		<g>
			<path class="st1" d="M1382.3,1528.7v14.2h-3.1v-1.8c-0.9,1.5-2.5,2.2-4.4,2.2c-3.2,0-5.4-2.2-5.4-5.8v-8.7h3.1v8.4
				c0,2.2,1.2,3.3,3.2,3.3c2,0,3.6-1.2,3.6-4.1v-7.6H1382.3z"/>
		</g>
		<g>
			<path class="st1" d="M1396.2,1538.9c0,2.8-2.5,4.4-5.5,4.4c-2.8,0-4.9-1.3-5.8-3.3l2.6-1.5c0.5,1.3,1.6,2,3.1,2
				c1.4,0,2.4-0.5,2.4-1.6c0-2.5-7.6-1.1-7.6-6.2c0-2.7,2.3-4.3,5.2-4.3c2.3,0,4.2,1.1,5.2,2.9l-2.6,1.4c-0.5-1.1-1.5-1.6-2.7-1.6
				c-1.1,0-2.1,0.5-2.1,1.5C1388.6,1535.2,1396.2,1533.6,1396.2,1538.9z"/>
		</g>
		<g>
			<path class="st1" d="M1402.7,1531.7v6.8c0,1.8,1.2,1.8,3.5,1.7v2.7c-4.7,0.6-6.6-0.7-6.6-4.4v-6.8h-2.6v-2.9h2.6v-3.1l3.1-0.9v4
				h3.5v2.9H1402.7z"/>
		</g>
		<g>
			<path class="st1" d="M1416.6,1528.5v3.3c-2-0.1-4.4,0.8-4.4,4v7.1h-3.1v-14.2h3.1v2.4C1413.1,1529.2,1414.8,1528.5,1416.6,1528.5
				z"/>
		</g>
		<g>
			<path class="st1" d="M1432.5,1528.7v14.2h-3.1v-2c-1.1,1.5-2.7,2.4-5,2.4c-3.9,0-7.1-3.3-7.1-7.4c0-4.2,3.2-7.4,7.1-7.4
				c2.2,0,3.9,0.9,5,2.4v-2H1432.5z M1429.4,1535.8c0-2.6-1.9-4.5-4.5-4.5c-2.6,0-4.5,1.9-4.5,4.5c0,2.6,1.9,4.5,4.5,4.5
				C1427.5,1540.3,1429.4,1538.4,1429.4,1535.8z"/>
		</g>
		<g>
			<path class="st1" d="M1440.4,1531.7v6.8c0,1.8,1.2,1.8,3.5,1.7v2.7c-4.7,0.6-6.6-0.7-6.6-4.4v-6.8h-2.6v-2.9h2.6v-3.1l3.1-0.9v4
				h3.5v2.9H1440.4z"/>
		</g>
		<g>
			<path class="st1" d="M1446.3,1524.6c0-1.1,0.9-2,2-2c1.1,0,2,0.9,2,2c0,1-0.9,2-2,2C1447.2,1526.6,1446.3,1525.7,1446.3,1524.6z
				 M1446.7,1528.7h3.1v14.2h-3.1V1528.7z"/>
		</g>
		<g>
			<path class="st1" d="M1452.5,1535.8c0-4.2,3.3-7.4,7.5-7.4c4.2,0,7.5,3.2,7.5,7.4c0,4.2-3.3,7.4-7.5,7.4
				C1455.9,1543.2,1452.5,1540,1452.5,1535.8z M1464.4,1535.8c0-2.6-1.9-4.5-4.4-4.5c-2.5,0-4.4,1.9-4.4,4.5c0,2.6,1.9,4.5,4.4,4.5
				C1462.5,1540.3,1464.4,1538.4,1464.4,1535.8z"/>
		</g>
		<g>
			<path class="st1" d="M1483.1,1534.2v8.7h-3.1v-8.4c0-2.2-1.2-3.3-3.2-3.3c-2,0-3.6,1.2-3.6,4.1v7.6h-3.1v-14.2h3.1v1.8
				c0.9-1.5,2.5-2.2,4.4-2.2C1480.9,1528.3,1483.1,1530.5,1483.1,1534.2z"/>
		</g>
		<g>
			<path class="st1" d="M1496.8,1538.9c0,2.8-2.5,4.4-5.5,4.4c-2.8,0-4.9-1.3-5.8-3.3l2.6-1.5c0.5,1.3,1.6,2,3.1,2
				c1.4,0,2.4-0.5,2.4-1.6c0-2.5-7.6-1.1-7.6-6.2c0-2.7,2.3-4.3,5.2-4.3c2.3,0,4.2,1.1,5.2,2.9l-2.6,1.4c-0.5-1.1-1.5-1.6-2.7-1.6
				c-1.1,0-2.1,0.5-2.1,1.5C1489.2,1535.2,1496.8,1533.6,1496.8,1538.9z"/>
		</g>
		<g>
			<path class="st1" d="M1498.9,1541.1c0-1.2,0.9-2.1,2.1-2.1c1.2,0,2.1,0.9,2.1,2.1c0,1.2-1,2.1-2.1,2.1
				C1499.9,1543.2,1498.9,1542.2,1498.9,1541.1z"/>
		</g>
		<g>
			<path class="st1" d="M1504.5,1535.8c0-4.2,3.2-7.4,7.5-7.4c2.8,0,5.2,1.4,6.3,3.7l-2.6,1.5c-0.6-1.3-2-2.2-3.7-2.2
				c-2.5,0-4.4,1.9-4.4,4.4c0,2.5,1.9,4.4,4.4,4.4c1.7,0,3.1-0.9,3.8-2.2l2.6,1.5c-1.2,2.2-3.6,3.7-6.4,3.7
				C1507.7,1543.2,1504.5,1540,1504.5,1535.8z"/>
		</g>
		<g>
			<path class="st1" d="M1519.6,1535.8c0-4.2,3.3-7.4,7.5-7.4c4.2,0,7.5,3.2,7.5,7.4c0,4.2-3.3,7.4-7.5,7.4
				C1522.9,1543.2,1519.6,1540,1519.6,1535.8z M1531.4,1535.8c0-2.6-1.9-4.5-4.4-4.5s-4.4,1.9-4.4,4.5c0,2.6,1.9,4.5,4.4,4.5
				S1531.4,1538.4,1531.4,1535.8z"/>
		</g>
	</g>
</g>
<g id="XMLID_537_">
	
		<image style="overflow:visible;opacity:0.2;" width="473" height="446" id="XMLID_541_" xlink:href="E60EF05D0751356A.png"  transform="matrix(1 0 0 1 278.5958 559.7429)">
	</image>
	<g id="XMLID_539_">
		<path id="XMLID_540_" class="st2" d="M717.2,911.4c0-6.5,5.3-11.7,11.7-11.7V893c-6.5,0-11.7-5.3-11.7-11.7
			c0-6.5,5.3-11.7,11.7-11.7v-6.7c-6.5,0-11.7-5.3-11.7-11.7c0-6.5,5.3-11.7,11.7-11.7v-6.7c-6.5,0-11.7-5.3-11.7-11.7
			c0-6.5,5.3-11.7,11.7-11.7v-6.7c-6.5,0-11.7-5.3-11.7-11.7c0-6.5,5.3-11.7,11.7-11.7v-6.7c-6.5,0-11.7-5.3-11.7-11.7
			c0-6.5,5.3-11.7,11.7-11.7v-6.7c-6.5,0-11.7-5.3-11.7-11.7c0-6.5,5.3-11.7,11.7-11.7v-6.7c-6.5,0-11.7-5.3-11.7-11.7
			c0-6.5,5.3-11.7,11.7-11.7v-6.7c-6.5,0-11.7-5.3-11.7-11.7c0-6.5,5.3-11.7,11.7-11.7v-6.7c-6.5,0-11.7-5.3-11.7-11.7
			c0-6.5,5.3-11.7,11.7-11.7v-13.4c-25.9,0-46.9-21-46.9-46.9H334.2c0,25.9-21,46.9-46.9,46.9v13.4c6.5,0,11.7,5.3,11.7,11.7
			c0,6.5-5.3,11.7-11.7,11.7v6.7c6.5,0,11.7,5.3,11.7,11.7c0,6.5-5.3,11.7-11.7,11.7v6.7c6.5,0,11.7,5.3,11.7,11.7
			c0,6.5-5.3,11.7-11.7,11.7v6.7c6.5,0,11.7,5.3,11.7,11.7c0,6.5-5.3,11.7-11.7,11.7v6.7c6.5,0,11.7,5.3,11.7,11.7
			c0,6.5-5.3,11.7-11.7,11.7v6.7c6.5,0,11.7,5.3,11.7,11.7c0,6.5-5.3,11.7-11.7,11.7v6.7c6.5,0,11.7,5.3,11.7,11.7
			c0,6.5-5.3,11.7-11.7,11.7v6.7c6.5,0,11.7,5.3,11.7,11.7c0,6.5-5.3,11.7-11.7,11.7v6.7c6.5,0,11.7,5.3,11.7,11.7
			c0,6.5-5.3,11.7-11.7,11.7v6.7c6.5,0,11.7,5.3,11.7,11.7c0,6.5-5.3,11.7-11.7,11.7v13.4c25.9,0,46.9,21,46.9,46.9H682
			c0-25.9,21-46.9,46.9-46.9v-13.4C722.5,923.1,717.2,917.9,717.2,911.4z"/>
	</g>
</g>
<path id="XMLID_519_" class="st3" d="M504.9,894.4c-63.7,0-115.4-51.8-115.4-115.4s51.8-115.4,115.4-115.4s115.4,51.8,115.4,115.4
	S568.5,894.4,504.9,894.4z M602.2,794.7c-3.4-1.1-30.5-9.2-61.4-4.2c12.9,35.4,18.1,64.3,19.2,70.3
	C582.1,845.9,597.8,822.2,602.2,794.7z M543.4,869.9c-1.5-8.7-7.2-38.8-21-74.8c-0.2,0.1-0.4,0.1-0.7,0.2
	c-55.6,19.4-75.6,58-77.4,61.6c16.7,13,37.7,20.8,60.5,20.8C518.5,877.7,531.6,874.9,543.4,869.9z M431.6,845
	c2.2-3.8,29.3-48.6,80.2-65.1c1.3-0.4,2.6-0.8,3.9-1.2c-2.5-5.6-5.2-11.2-8-16.7c-49.2,14.7-97,14.1-101.3,14c0,1-0.1,2-0.1,3
	C406.3,804.4,415.9,827.5,431.6,845z M408.4,758.9c4.4,0.1,45,0.2,91.2-12c-16.3-29-34-53.5-36.6-57
	C435.4,702.9,414.7,728.3,408.4,758.9z M481.8,683.2c2.7,3.6,20.6,28,36.8,57.7c35.1-13.1,49.9-33.1,51.7-35.6
	c-17.4-15.4-40.3-24.8-65.4-24.8C496.9,680.5,489.2,681.4,481.8,683.2z M581.2,716.7c-2.1,2.8-18.6,24-55.1,38.9
	c2.3,4.7,4.5,9.5,6.5,14.3c0.7,1.7,1.4,3.4,2.1,5.1c32.8-4.1,65.4,2.5,68.7,3.2C603.3,754.9,594.9,733.5,581.2,716.7z"/>
<g id="XMLID_514_">
	
		<image style="overflow:visible;opacity:0.17;" width="290" height="440" id="XMLID_518_" xlink:href="E60EF05D0751356D.png"  transform="matrix(1 0 0 1 723.5958 562.7429)">
	</image>
	<g id="XMLID_516_">
		<path id="XMLID_517_" class="st4" d="M982.2,911.4c0-6.5,5.3-11.7,11.7-11.7V893c-6.5,0-11.7-5.3-11.7-11.7
			c0-6.5,5.3-11.7,11.7-11.7v-6.7c-6.5,0-11.7-5.3-11.7-11.7c0-6.5,5.3-11.7,11.7-11.7v-6.7c-6.5,0-11.7-5.3-11.7-11.7
			c0-6.5,5.3-11.7,11.7-11.7v-6.7c-6.5,0-11.7-5.3-11.7-11.7c0-6.5,5.3-11.7,11.7-11.7v-6.7c-6.5,0-11.7-5.3-11.7-11.7
			c0-6.5,5.3-11.7,11.7-11.7v-6.7c-6.5,0-11.7-5.3-11.7-11.7c0-6.5,5.3-11.7,11.7-11.7v-6.7c-6.5,0-11.7-5.3-11.7-11.7
			c0-6.5,5.3-11.7,11.7-11.7v-6.7c-6.5,0-11.7-5.3-11.7-11.7c0-6.5,5.3-11.7,11.7-11.7v-6.7c-6.5,0-11.7-5.3-11.7-11.7
			c0-6.5,5.3-11.7,11.7-11.7v-13.4c-25.9,0-46.9-21-46.9-46.9H775.9c0,25.9-21,46.9-46.9,46.9v13.4c6.5,0,11.7,5.3,11.7,11.7
			c0,6.5-5.3,11.7-11.7,11.7v6.7c6.5,0,11.7,5.3,11.7,11.7c0,6.5-5.3,11.7-11.7,11.7v6.7c6.5,0,11.7,5.3,11.7,11.7
			c0,6.5-5.3,11.7-11.7,11.7v6.7c6.5,0,11.7,5.3,11.7,11.7c0,6.5-5.3,11.7-11.7,11.7v6.7c6.5,0,11.7,5.3,11.7,11.7
			c0,6.5-5.3,11.7-11.7,11.7v6.7c6.5,0,11.7,5.3,11.7,11.7c0,6.5-5.3,11.7-11.7,11.7v6.7c6.5,0,11.7,5.3,11.7,11.7
			c0,6.5-5.3,11.7-11.7,11.7v6.7c6.5,0,11.7,5.3,11.7,11.7c0,6.5-5.3,11.7-11.7,11.7v6.7c6.5,0,11.7,5.3,11.7,11.7
			c0,6.5-5.3,11.7-11.7,11.7v6.7c6.5,0,11.7,5.3,11.7,11.7c0,6.5-5.3,11.7-11.7,11.7v13.4c25.9,0,46.9,21,46.9,46.9H947
			c0-25.9,21-46.9,46.9-46.9v-13.4C987.5,923.1,982.2,917.9,982.2,911.4z"/>
	</g>
</g>
<path id="XMLID_511_" class="st5" d="M717.2,911.4c0-6.5,5.3-11.7,11.7-11.7V893c-6.5,0-11.7-5.3-11.7-11.7
	c0-6.5,5.3-11.7,11.7-11.7v-6.7c-6.5,0-11.7-5.3-11.7-11.7c0-6.5,5.3-11.7,11.7-11.7v-6.7c-6.5,0-11.7-5.3-11.7-11.7
	c0-6.5,5.3-11.7,11.7-11.7v-6.7c-6.5,0-11.7-5.3-11.7-11.7c0-6.5,5.3-11.7,11.7-11.7v-6.7c-6.5,0-11.7-5.3-11.7-11.7
	c0-6.5,5.3-11.7,11.7-11.7v-6.7c-6.5,0-11.7-5.3-11.7-11.7c0-6.5,5.3-11.7,11.7-11.7v-6.7c-6.5,0-11.7-5.3-11.7-11.7
	c0-6.5,5.3-11.7,11.7-11.7v-6.7c-6.5,0-11.7-5.3-11.7-11.7c0-6.5,5.3-11.7,11.7-11.7v-6.7c-6.5,0-11.7-5.3-11.7-11.7
	c0-6.5,5.3-11.7,11.7-11.7v-13.4c-25.9,0-46.9-21-46.9-46.9H334.2c0,25.9-21,46.9-46.9,46.9v13.4c6.5,0,11.7,5.3,11.7,11.7
	c0,6.5-5.3,11.7-11.7,11.7v6.7c6.5,0,11.7,5.3,11.7,11.7c0,6.5-5.3,11.7-11.7,11.7v6.7c6.5,0,11.7,5.3,11.7,11.7
	c0,6.5-5.3,11.7-11.7,11.7v6.7c6.5,0,11.7,5.3,11.7,11.7c0,6.5-5.3,11.7-11.7,11.7v6.7c6.5,0,11.7,5.3,11.7,11.7
	c0,6.5-5.3,11.7-11.7,11.7v6.7c6.5,0,11.7,5.3,11.7,11.7c0,6.5-5.3,11.7-11.7,11.7v6.7c6.5,0,11.7,5.3,11.7,11.7
	c0,6.5-5.3,11.7-11.7,11.7v6.7c6.5,0,11.7,5.3,11.7,11.7c0,6.5-5.3,11.7-11.7,11.7v6.7c6.5,0,11.7,5.3,11.7,11.7
	c0,6.5-5.3,11.7-11.7,11.7v6.7c6.5,0,11.7,5.3,11.7,11.7c0,6.5-5.3,11.7-11.7,11.7v13.4c25.9,0,46.9,21,46.9,46.9H682
	c0-25.9,21-46.9,46.9-46.9v-13.4C722.5,923.1,717.2,917.9,717.2,911.4z"/>
<path id="XMLID_510_" class="st5" d="M982.2,911.4c0-6.5,5.3-11.7,11.7-11.7V893c-6.5,0-11.7-5.3-11.7-11.7
	c0-6.5,5.3-11.7,11.7-11.7v-6.7c-6.5,0-11.7-5.3-11.7-11.7c0-6.5,5.3-11.7,11.7-11.7v-6.7c-6.5,0-11.7-5.3-11.7-11.7
	c0-6.5,5.3-11.7,11.7-11.7v-6.7c-6.5,0-11.7-5.3-11.7-11.7c0-6.5,5.3-11.7,11.7-11.7v-6.7c-6.5,0-11.7-5.3-11.7-11.7
	c0-6.5,5.3-11.7,11.7-11.7v-6.7c-6.5,0-11.7-5.3-11.7-11.7c0-6.5,5.3-11.7,11.7-11.7v-6.7c-6.5,0-11.7-5.3-11.7-11.7
	c0-6.5,5.3-11.7,11.7-11.7v-6.7c-6.5,0-11.7-5.3-11.7-11.7c0-6.5,5.3-11.7,11.7-11.7v-6.7c-6.5,0-11.7-5.3-11.7-11.7
	c0-6.5,5.3-11.7,11.7-11.7v-13.4c-25.9,0-46.9-21-46.9-46.9H775.9c0,25.9-21,46.9-46.9,46.9v13.4c6.5,0,11.7,5.3,11.7,11.7
	c0,6.5-5.3,11.7-11.7,11.7v6.7c6.5,0,11.7,5.3,11.7,11.7c0,6.5-5.3,11.7-11.7,11.7v6.7c6.5,0,11.7,5.3,11.7,11.7
	c0,6.5-5.3,11.7-11.7,11.7v6.7c6.5,0,11.7,5.3,11.7,11.7c0,6.5-5.3,11.7-11.7,11.7v6.7c6.5,0,11.7,5.3,11.7,11.7
	c0,6.5-5.3,11.7-11.7,11.7v6.7c6.5,0,11.7,5.3,11.7,11.7c0,6.5-5.3,11.7-11.7,11.7v6.7c6.5,0,11.7,5.3,11.7,11.7
	c0,6.5-5.3,11.7-11.7,11.7v6.7c6.5,0,11.7,5.3,11.7,11.7c0,6.5-5.3,11.7-11.7,11.7v6.7c6.5,0,11.7,5.3,11.7,11.7
	c0,6.5-5.3,11.7-11.7,11.7v6.7c6.5,0,11.7,5.3,11.7,11.7c0,6.5-5.3,11.7-11.7,11.7v13.4c25.9,0,46.9,21,46.9,46.9H947
	c0-25.9,21-46.9,46.9-46.9v-13.4C987.5,923.1,982.2,917.9,982.2,911.4z"/>
<g id="XMLID_486_">
	
		<image style="overflow:visible;opacity:0.2;" width="324" height="102" id="XMLID_635_" xlink:href="E60EF05D0751356F.png"  transform="matrix(1 0 0 1 353.7685 722)">
	</image>
	<g id="XMLID_585_">
		<g id="XMLID_624_">
			<path id="XMLID_625_" class="st6" d="M655.2,786.7c-12.3,20.8-31.7,14.7-37.5,10c-2.5,1.7-6.8,5.4-12.6,4.9
				c-12.4-0.9-16.8-18.6-16.8-18.6c0.1,0.1-3.7,1.3-5.7,1.3c0,5.2-4.5,17.5-16.6,17.4c-13.6-0.2-16.3-20.4-16.3-20.4
				s-1.3,1.9-6.5,3.7c0.3-4,0.1,16-16.2,16.3c-12.8,0.2-16.3-20.4-16.3-20.4s-2.2,2.3-6.5,3.1c0.3-4-0.2,17.3-16.4,17.2
				c-11,0-14.7-12.7-14.4-14.4c0.4-2.2-3.7,14.8-14.4,14.5c-4.4-0.1-7.7-3.3-9.7-7.6c-2.8,3.2-6.8,7.6-11.2,7.6
				c-8.1,0-11.6-6.7-11-26c0.1-2.3-0.1-3.2-2.4-3.5c-1.4-0.2-2.8-0.7-4.2-0.9c-0.5,1.6-4.5,29.9-18.3,30.4c-4.6,0.2-7.2-3.8-9.2-6.8
				c-3.2,4.2-7.4,6.9-13.4,6.9c-10.1,0-17.1-8.2-17.1-18.3s6.9-18.3,17.1-18.3c1.8,0,2.3,0.3,3.9,0.7c-3.4-30.7,4.6-35.5,11.6-35.5
				c6.7,0,18.1,15.5,2,54.9c3.6,11.7,11.3,11.1,15-13.1c0.8-4.9-1.3-11.5,1.9-12.5c5.7-1.7,6.3,3.4,9,4.2c2.8,0.9,4.5,0.8,7.2,1.4
				c4.7,0.9,6.5,3.4,5.9,9c-0.7,7-1.9,17.3,1.8,18.5c2.6,0.9,7.4-4.5,8.2-7.5c0.8-3,1-4,1.1-6.2c0.1-4.7,0.3-8.1,1-11.6
				c0.3-1.4,0.7-2.3,2.3-2.3c1.3,0,3.6-0.4,4.6,0.4c1.4,1,1.2,2.1,1,4.8c-1.6,38.9,10.6,19.5,14.2,3.9c-1.3-17.6-0.4-43.6,10.6-44.1
				c5.7-0.2,8.3,4.4,8.6,7.8c0.8,9.7-3.6,25.7-9.4,36.5c-3.3,22,14.5,26.4,17.4,8.8c-4.7-2.2-9.7-11.2-5.6-15.6
				c2.3-2.5,11.9,1.1,12.1,8.8c4.7-1.3,5.3-3.9,5.4-3.5c-1.3-17.6-0.1-42.4,10.9-42.8c5.7-0.2,8.3,4.4,8.6,7.8
				c0.8,9.7-3.6,25.7-9.4,36.5c-3.3,22,14.5,26.4,17.4,8.8c-3.5-0.7-10.8-10.2-6.5-15.6c2.2-2.9,11.8,3.1,12.9,9
				c4.5-1.3,5.1-3.9,5.2-3.4c-1.3-17.6-0.1-42.4,10.9-42.8c5.7-0.2,8.3,4.4,8.6,7.8c0.8,9.7-3.6,25.7-9.4,36.5
				c-3.3,22,14.5,26.4,17.4,8.8c-4.8-0.8-11.5-10.9-6.1-16c2.2-2.1,10.5,3.3,12.4,9.4c2.7-0.1,4.4-1,4.7-1.1
				c-4.3-20.7-1.1-45.5,10.8-45.7c6.4-0.1,12.7,3.5,9.9,23.1c-2.6,18.8-12.1,26.6-12,26.7c0.5,2.2,5.4,21.1,17.6,11.1
				c-0.6-1.4-1.3-2.9-1.6-4.7c-2-10.3,2-22,12.7-23.8c6.2-1.1,12,1.9,12.9,8.7c1.5,11.1-8.5,19.2-12.3,20.9
				c-1.7-1,15.5,10.1,25.7-12c0.6-1.3,1.3-1.2,2.2-0.5C653.2,780.2,657,783.7,655.2,786.7z M386.9,780.6c-0.5-1.6-1.6-5-2-6.5
				c-2.1-1.8-3.6-2.1-6.2-2.1c-5.9,0-9.4,5.5-9.4,11.4c0,5.9,3.8,11.4,9.7,11.4c5.1,0,9-3.5,10.2-8.4
				C388.4,784.5,387.6,782.7,386.9,780.6z M394.9,738.4c-4.2,0-5.6,9.9-5.3,18.4c0.2,7.5,2.3,14.1,3.4,17c0.3,0.4,0.2,0.1,0.5,0.5
				C400.7,758.5,397.7,738.4,394.9,738.4z M481.5,738.7c-5.4-0.6-5.3,21.8-4.7,26.8C479.6,761,484.5,739.9,481.5,738.7z
				 M520.8,738.7c-5.4-0.6-5.3,21.8-4.7,26.8C518.9,761,523.7,739.9,520.8,738.7z M559.7,739c-5.4-0.6-5.3,21.8-4.7,26.8
				C557.8,761.3,562.7,740.2,559.7,739z M598,737.4c-8.4,1.7-6.4,29.6-5.2,34.5C602.8,758.3,603,736.9,598,737.4z M629.4,772.3
				c-0.4-1.8-2.6-2.7-4-2.5c-4.2,0.6-8.3,5.8-6.7,13.8c0.4,1.8,1.2,3.4,1.2,3.4C629.3,780.6,630.1,775.6,629.4,772.3z M452,759
				c-3.4,0-6.1-2.7-6.1-6.1s2.7-6.1,6.1-6.1c3.4,0,6.1,2.7,6.1,6.1S455.4,759,452,759z"/>
		</g>
	</g>
</g>
<g id="XMLID_479_">
	<g id="XMLID_481_">
		<path id="XMLID_483_" class="st7" d="M637.6,865c-21.9-4.2-44-7.3-66.2-9.4c-1.3,13.9-2.6,27.9-3.9,41.8
			c20.8,1.9,41.6,4.9,62.2,8.8c-5.6-8.2-11.5-16.3-17.6-24.4C620.4,876,628.9,870.4,637.6,865z"/>
		<path id="XMLID_482_" class="st7" d="M401.6,881.8c-6.1,8-12,16.2-17.6,24.4c20.6-3.9,41.4-6.9,62.2-8.8
			c-1.3-13.9-2.6-27.9-3.9-41.8c-22.2,2.1-44.2,5.2-66.2,9.4C384.8,870.4,393.3,876,401.6,881.8z"/>
	</g>
</g>
<g id="XMLID_476_">
	<path id="XMLID_478_" class="st6" d="M599.8,891.2c-61.4-11.7-124.5-11.7-185.9,0c-2.6-13.7-5.2-27.5-7.9-41.2
		c66.6-12.7,135-12.7,201.7,0C605.1,863.7,602.5,877.4,599.8,891.2z"/>
</g>
<g id="XMLID_418_">
	<path id="XMLID_15_" d="M430.2,875.5c-0.1-0.5-0.2-1-0.3-1.5c0.4-0.1,0.8-0.2,1.2-0.2c-0.6-3.1-1.2-6.3-1.8-9.4
		c-0.4,0.1-0.8,0.2-1.3,0.2c-0.1-0.5-0.2-1-0.3-1.5c1.4-0.3,2.9-0.5,4.3-0.8c0.1,0.5,0.2,1,0.3,1.5c-0.4,0.1-0.8,0.2-1.3,0.2
		c0.6,3.1,1.2,6.3,1.7,9.4c0.4-0.1,0.8-0.2,1.2-0.2c0.1,0.5,0.2,1,0.3,1.5C432.9,875,431.6,875.3,430.2,875.5z"/>
	<path id="XMLID_13_" d="M450.1,872.2c-0.1-0.5-0.1-1-0.2-1.5c0.3,0,0.5-0.1,0.8-0.1c0.3,0,0.4-0.2,0.3-0.4c-0.5-3.6-1-7.1-1.5-10.7
		c0.6-0.1,1.1-0.2,1.7-0.2c2.3,2.4,4.5,4.8,6.8,7.3c0.4,0.5,0.8,1.1,1.3,1.6c0,0,0,0,0,0c-0.2-0.7-0.3-1.2-0.3-1.7
		c-0.3-2.3-0.5-4.6-0.8-6.8c-0.1-0.8,0.2-1.2,1.1-1.3c0.6-0.1,1.2-0.1,1.9-0.2c0.1,0.5,0.1,1,0.2,1.5c-0.3,0-0.5,0.1-0.8,0.1
		c-0.3,0-0.4,0.2-0.4,0.4c0.4,3.6,0.8,7.1,1.2,10.7c-0.5,0.1-1.1,0.1-1.6,0.2c-2.2-2.4-4.4-4.9-6.7-7.3c-0.4-0.5-0.9-1-1.3-1.6
		c0,0,0,0,0,0c0.2,0.7,0.3,1.2,0.3,1.7c0.3,2.3,0.6,4.6,0.9,6.8c0.1,0.8-0.2,1.2-1,1.3C451.3,872.1,450.7,872.1,450.1,872.2z"/>
	<path id="XMLID_10_" d="M482.7,869c-1.5-3.5-3.1-7-4.7-10.5c-0.1-0.3-0.3-0.4-0.6-0.4c-0.1,0-0.2,0-0.3,0c0-0.5-0.1-1-0.1-1.5
		c0.3,0,0.7,0,1-0.1c0.9-0.1,1.3,0.1,1.6,0.9c1.1,2.5,2.2,5.1,3.3,7.6c0.2,0.6,0.4,1.1,0.6,1.7c0,0,0,0,0,0c0.1-0.7,0.3-1.3,0.4-1.8
		c0.8-2.7,1.6-5.3,2.4-8c0.3-0.9,0.5-1.1,1.5-1.1c0.3,0,0.7,0,1,0c0,0.5,0,1,0.1,1.5c-0.1,0-0.2,0-0.3,0c-0.3,0-0.5,0.1-0.6,0.4
		c-1.2,3.6-2.4,7.3-3.5,10.9C483.9,868.9,483.3,869,482.7,869z"/>
	<path id="XMLID_8_" d="M504.9,868.3c0-0.5,0-1,0-1.5c0.4,0,0.8,0,1.3,0c0-3.2,0-6.4,0-9.6c-0.4,0-0.9,0-1.3,0c0-0.5,0-1,0-1.5
		c1.4,0,2.9,0,4.3,0c0,0.5,0,1,0,1.5c-0.4,0-0.9,0-1.3,0c0,3.2,0,6.4,0,9.6c0.4,0,0.8,0,1.3,0c0,0.5,0,1,0,1.5
		C507.7,868.3,506.3,868.3,504.9,868.3z"/>
	<path id="XMLID_6_" d="M529.1,868.9c0.2-3.7,0.4-7.4,0.6-11.1c-0.9,0-1.8-0.1-2.6-0.1c-0.3,0-0.4,0.1-0.4,0.4c0,0.3,0,0.5,0,0.8
		c-0.5,0-1.1-0.1-1.6-0.1c0-0.6,0-1.1,0.1-1.7c0-0.8,0.3-1.1,1.2-1c3,0.1,6,0.3,9,0.5c0.8,0.1,1.1,0.3,1,1.2c0,0.6-0.1,1.1-0.1,1.7
		c-0.5,0-1.1-0.1-1.6-0.1c0-0.3,0-0.5,0.1-0.8c0-0.3-0.1-0.4-0.4-0.4c-0.9-0.1-1.8-0.1-2.6-0.2c-0.2,3.7-0.4,7.4-0.7,11.1
		C530.3,868.9,529.7,868.9,529.1,868.9z"/>
	<path id="XMLID_4_" d="M553.3,859.7c-0.4,0-0.8-0.1-1.2-0.1c0.1-0.5,0.1-1,0.2-1.5c2.6,0.3,5.1,0.6,7.7,0.9c0.8,0.1,1.1,0.5,1,1.3
		c-0.1,0.5-0.1,1.1-0.2,1.6c-0.6-0.1-1.1-0.1-1.7-0.2c0-0.3,0.1-0.5,0.1-0.8c0-0.3-0.1-0.4-0.4-0.4c-1.2-0.2-2.5-0.3-3.7-0.4
		c-0.2,1.3-0.3,2.6-0.5,3.9c1.5,0.2,3,0.4,4.5,0.5c-0.1,0.5-0.1,1-0.2,1.5c-1.5-0.2-3-0.4-4.5-0.5c-0.1,1.2-0.3,2.4-0.4,3.7
		c0,0.3,0.1,0.4,0.4,0.4c1.2,0.1,2.5,0.3,3.7,0.5c0.3,0,0.4-0.1,0.4-0.3c0-0.3,0.1-0.5,0.1-0.8c0.6,0.1,1.1,0.1,1.7,0.2
		c-0.1,0.5-0.1,1.1-0.2,1.6c-0.1,0.8-0.5,1.1-1.3,1c-1.9-0.2-3.8-0.5-5.6-0.7c-0.8-0.1-1.1-0.5-1-1.3
		C552.6,866.3,552.9,863,553.3,859.7z"/>
	<path id="XMLID_2_" d="M575.7,872.4c0.4-0.4,0.8-0.7,1.3-1.1c0.1,0.1,0.1,0.2,0.5,0.6c0.5,0.5,1.3,1.2,2.4,1.4
		c1.2,0.2,2.3-0.3,2.5-1.5c0.2-1.3-1.2-2.1-2.6-3.1c-0.5-0.4-0.9-0.7-1.3-1.1c-0.8-0.7-1.3-1.8-1.1-3c0.2-0.9,0.7-1.7,1.6-2.2
		c0.9-0.5,2-0.7,3.2-0.4c0.5,0.1,1,0.3,1.5,0.5c0.5,0.2,0.9,0.6,1.3,1c0.4,0.5,0.5,0.9,0.4,1.5c-0.1,0.3-0.1,0.7-0.2,1
		c-0.6-0.1-1.1-0.2-1.7-0.3c0-0.2,0.1-0.4,0.1-0.6c0.1-0.6-0.7-1.3-1.8-1.5c-1.4-0.2-2.4,0.3-2.6,1.3c-0.2,1.3,1.2,2,2.7,3
		c1.4,0.9,2.8,2.2,2.4,4.2c-0.2,1-0.7,1.8-1.6,2.3c-0.9,0.6-1.9,0.7-3.1,0.5c-1-0.2-1.9-0.7-2.5-1.1c-0.6-0.5-1-0.9-1.2-1.2
		C575.8,872.6,575.7,872.5,575.7,872.4z"/>
</g>
<g id="XMLID_383_">
	<g id="XMLID_414_">
		<defs>
			<path id="XMLID_416_" d="M860.8,703.5c29.6,0,53.6,24,53.6,53.5c0,29.6-24,53.5-53.6,53.5c-29.6,0-53.6-24-53.6-53.5
				C807.2,727.4,831.2,703.5,860.8,703.5L860.8,703.5z"/>
		</defs>
		<clipPath id="XMLID_18_">
			<use xlink:href="#XMLID_416_"  style="overflow:visible;"/>
		</clipPath>
		<g style="clip-path:url(#XMLID_18_);">
			
				<image style="overflow:visible;" width="1200" height="1200" id="XMLID_417_" xlink:href="E60EF05D0751356E.jpg"  transform="matrix(9.616936e-02 0 0 9.616936e-02 800.553 697.2554)">
			</image>
		</g>
	</g>
	<g id="XMLID_404_">
		<defs>
			<path id="XMLID_405_" d="M858.3,812.3c-31.7,0-57.4-25.7-57.4-57.3c0-31.6,25.8-57.3,57.4-57.3c31.7,0,57.4,25.7,57.4,57.3
				C915.7,786.6,889.9,812.3,858.3,812.3L858.3,812.3z M906.7,762.9c-1.7-0.5-15.2-4.6-30.5-2.1c6.4,17.6,9,31.9,9.5,34.9
				C896.7,788.2,904.5,776.5,906.7,762.9L906.7,762.9z M877.4,800.2c-0.7-4.3-3.6-19.3-10.5-37.1c-0.1,0-0.2,0.1-0.3,0.1
				c-27.7,9.6-37.6,28.8-38.5,30.6c8.3,6.5,18.8,10.3,30.1,10.3C865,804.1,871.5,802.7,877.4,800.2L877.4,800.2z M821.8,787.8
				c1.1-1.9,14.6-24.2,39.9-32.3c0.6-0.2,1.3-0.4,1.9-0.6c-1.2-2.8-2.6-5.6-4-8.3c-24.5,7.3-48.3,7-50.4,7c0,0.5,0,1,0,1.5
				C809.2,767.7,814,779.1,821.8,787.8L821.8,787.8z M810.2,745c2.2,0,22.4,0.1,45.3-6c-8.1-14.4-16.9-26.6-18.2-28.3
				C823.7,717.2,813.4,729.8,810.2,745L810.2,745z M846.8,707.5c1.4,1.8,10.3,13.9,18.3,28.7c17.4-6.5,24.8-16.4,25.7-17.7
				c-8.7-7.7-20-12.3-32.5-12.3C854.3,706.1,850.4,706.6,846.8,707.5L846.8,707.5z M896.2,724.1c-1,1.4-9.3,11.9-27.4,19.3
				c1.1,2.3,2.2,4.7,3.3,7.1c0.4,0.8,0.7,1.7,1.1,2.5c16.3-2,32.5,1.2,34.1,1.6C907.2,743.1,903,732.4,896.2,724.1L896.2,724.1z"/>
		</defs>
		<clipPath id="XMLID_19_">
			<use xlink:href="#XMLID_405_"  style="overflow:visible;"/>
		</clipPath>
		<g style="clip-path:url(#XMLID_19_);">
			
				<image style="overflow:visible;" width="1200" height="1200" id="XMLID_413_" xlink:href="E60EF05D0751356A.jpg"  transform="matrix(9.616936e-02 0 0 9.616936e-02 800.553 697.2554)">
			</image>
		</g>
	</g>
	<g id="XMLID_384_">
		<defs>
			<path id="XMLID_386_" d="M858.3,812.3V812c-15.7,0-30-6.4-40.4-16.7c-10.3-10.3-16.7-24.6-16.7-40.3l0,0c0-15.7,6.4-30,16.7-40.3
				c10.3-10.3,24.6-16.7,40.4-16.7c15.7,0,30,6.4,40.4,16.7c10.3,10.3,16.7,24.6,16.7,40.3c0,15.7-6.4,30-16.7,40.3
				C888.3,805.7,874,812,858.3,812V812.3v0.3c31.8,0,57.7-25.8,57.7-57.6c0-31.8-25.9-57.6-57.7-57.6c-31.8,0-57.7,25.8-57.7,57.6
				l0,0c0,31.8,25.9,57.6,57.7,57.6V812.3L858.3,812.3L858.3,812.3z M906.7,762.9l0.1-0.3c-1.3-0.4-9.6-2.9-20.4-2.9
				c-3.2,0-6.7,0.2-10.3,0.8l-0.3,0.1l0.1,0.3c6.4,17.6,9,31.9,9.5,34.9l0.1,0.4l0.4-0.3c11.1-7.5,18.9-19.3,21.1-33l0-0.2l-0.2-0.1
				L906.7,762.9l-0.3,0c-2.2,13.5-10,25.2-20.9,32.6l0.2,0.2l0.3,0c-0.5-3-3.1-17.3-9.5-35l-0.3,0.1l0,0.3c3.5-0.6,7-0.8,10.2-0.8
				c10.7,0,19,2.5,20.3,2.9L906.7,762.9l-0.3,0L906.7,762.9L906.7,762.9L906.7,762.9z M877.4,800.2l0.3,0
				c-0.7-4.3-3.6-19.3-10.5-37.2l-0.1-0.3l-0.3,0.1c-0.1,0-0.2,0.1-0.3,0.1c-27.8,9.7-37.7,28.9-38.6,30.7l-0.1,0.2l0.2,0.1
				c8.4,6.5,18.9,10.4,30.3,10.4c6.8,0,13.3-1.4,19.3-3.9l0.2-0.1l0-0.2L877.4,800.2l-0.1-0.3c-5.9,2.5-12.3,3.9-19,3.9
				c-11.3,0-21.7-3.8-29.9-10.3l-0.2,0.2l0.3,0.1c0.9-1.8,10.7-20.8,38.3-30.4c0.1,0,0.2-0.1,0.3-0.1l-0.1-0.3l-0.3,0.1
				c6.9,17.8,9.7,32.8,10.4,37.1L877.4,800.2l-0.1-0.3L877.4,800.2L877.4,800.2L877.4,800.2z M821.8,787.8l0.3,0.1
				c1.1-1.9,14.5-24.1,39.7-32.2c0.6-0.2,1.3-0.4,1.9-0.6l0.3-0.1l-0.1-0.3c-1.2-2.8-2.6-5.6-4-8.3l-0.1-0.2l-0.2,0.1
				c-21.6,6.5-42.7,7-48.8,7c-0.8,0-1.3,0-1.6,0l-0.3,0l0,0.3c0,0.5,0,1,0,1.5c0,12.7,4.8,24.2,12.7,32.9l0.3,0.3l0.2-0.3
				L821.8,787.8l0.2-0.2c-7.8-8.6-12.5-20-12.5-32.6c0-0.5,0-1,0-1.5l-0.3,0l0,0.3c0.2,0,0.8,0,1.6,0c6.1,0,27.2-0.5,48.9-7
				l-0.1-0.3l-0.3,0.1c1.4,2.7,2.7,5.5,4,8.3l0.3-0.1l-0.1-0.3c-0.7,0.2-1.3,0.4-1.9,0.6c-25.4,8.2-38.9,30.5-40,32.4L821.8,787.8
				l0.2-0.2L821.8,787.8L821.8,787.8L821.8,787.8z M810.2,745l0,0.3c0.2,0,0.5,0,0.8,0c4.5,0,23.4-0.4,44.6-6l0.4-0.1l-0.2-0.3
				c-8.1-14.4-16.9-26.6-18.2-28.4l-0.1-0.2l-0.2,0.1c-13.8,6.5-24.1,19.2-27.3,34.5l-0.1,0.3l0.4,0L810.2,745l0.3,0.1
				c3.2-15.1,13.4-27.7,27-34.1l-0.1-0.3l-0.2,0.2c1.3,1.8,10,13.9,18.2,28.3l0.3-0.1l-0.1-0.3c-21.1,5.6-39.9,6-44.4,6
				c-0.4,0-0.7,0-0.8,0L810.2,745l0.3,0.1L810.2,745L810.2,745L810.2,745z M846.8,707.5l-0.2,0.2c1.4,1.8,10.3,13.9,18.3,28.6
				l0.1,0.2l0.2-0.1c17.5-6.6,24.9-16.5,25.8-17.8l0.1-0.2l-0.2-0.2c-8.7-7.7-20.2-12.4-32.7-12.4c-4,0-7.9,0.5-11.6,1.4l-0.4,0.1
				l0.3,0.4L846.8,707.5l0.1,0.3c3.7-0.9,7.5-1.4,11.4-1.4c12.4,0,23.7,4.6,32.3,12.3l0.2-0.2l-0.2-0.2c-0.9,1.2-8.2,11.1-25.6,17.6
				l0.1,0.3l0.3-0.1c-8-14.8-17-26.9-18.3-28.7L846.8,707.5l0.1,0.3L846.8,707.5L846.8,707.5L846.8,707.5z M896.2,724.1l-0.2-0.2
				c-1,1.4-9.2,11.8-27.3,19.2l-0.3,0.1l0.1,0.3c1.1,2.3,2.2,4.7,3.2,7.1c0.4,0.8,0.7,1.7,1.1,2.5l0.1,0.2l0.2,0
				c3.8-0.5,7.6-0.7,11.3-0.7c11.8,0,21.6,2,22.8,2.2l0.4,0.1l0-0.4c-0.1-11.6-4.3-22.3-11.1-30.7l-0.2-0.3l-0.2,0.3L896.2,724.1
				l-0.2,0.2c6.8,8.3,10.9,18.8,11,30.3l0.3,0l0.1-0.3c-1.2-0.3-11-2.3-22.9-2.3c-3.6,0-7.5,0.2-11.3,0.7l0,0.3l0.3-0.1
				c-0.3-0.8-0.7-1.7-1.1-2.5c-1-2.4-2.1-4.8-3.3-7.1l-0.3,0.1l0.1,0.3c18.2-7.4,26.5-18,27.5-19.4L896.2,724.1l-0.2,0.2
				L896.2,724.1L896.2,724.1L896.2,724.1z"/>
		</defs>
		<defs>
			<rect id="XMLID_385_" x="800.6" y="495.3" width="245.2" height="317.4"/>
		</defs>
		<clipPath id="XMLID_20_">
			<use xlink:href="#XMLID_386_"  style="overflow:visible;"/>
		</clipPath>
		<clipPath id="XMLID_21_" class="st8">
			<use xlink:href="#XMLID_385_"  style="overflow:visible;"/>
		</clipPath>
		<g style="clip-path:url(#XMLID_21_);">
			
				<image style="overflow:visible;" width="1200" height="1200" id="XMLID_403_" xlink:href="E60EF05D07513565.jpg"  transform="matrix(9.616936e-02 0 0 9.616936e-02 800.553 697.2554)">
			</image>
		</g>
	</g>
</g>
<g id="XMLID_349_">
	<g id="XMLID_381_">
		<line id="XMLID_382_" class="st9" x1="909" y1="870.6" x2="909" y2="897.5"/>
	</g>
	<g id="XMLID_378_">
		<line id="XMLID_379_" class="st10" x1="916.3" y1="870.6" x2="916.3" y2="897.5"/>
	</g>
	<g id="XMLID_376_">
		<line id="XMLID_377_" class="st10" x1="902.6" y1="870.6" x2="902.6" y2="897.5"/>
	</g>
	<g id="XMLID_374_">
		<line id="XMLID_375_" class="st10" x1="897.8" y1="870.6" x2="897.8" y2="897.5"/>
	</g>
	<g id="XMLID_372_">
		<line id="XMLID_373_" class="st11" x1="891.1" y1="870.6" x2="891.1" y2="897.5"/>
	</g>
	<g id="XMLID_370_">
		<line id="XMLID_371_" class="st12" x1="884.2" y1="870.6" x2="884.2" y2="897.5"/>
	</g>
	<g id="XMLID_368_">
		<line id="XMLID_369_" class="st10" x1="876.2" y1="870.6" x2="876.2" y2="897.5"/>
	</g>
	<g id="XMLID_366_">
		<line id="XMLID_367_" class="st13" x1="868.2" y1="870.6" x2="868.2" y2="897.5"/>
	</g>
	<g id="XMLID_364_">
		<line id="XMLID_365_" class="st12" x1="860.3" y1="870.6" x2="860.3" y2="897.5"/>
	</g>
	<g id="XMLID_362_">
		<line id="XMLID_363_" class="st9" x1="852.3" y1="870.6" x2="852.3" y2="897.5"/>
	</g>
	<g id="XMLID_360_">
		<line id="XMLID_361_" class="st10" x1="844.4" y1="870.6" x2="844.4" y2="897.5"/>
	</g>
	<g id="XMLID_358_">
		<line id="XMLID_359_" class="st11" x1="836.4" y1="870.6" x2="836.4" y2="897.5"/>
	</g>
	<g id="XMLID_356_">
		<line id="XMLID_357_" class="st12" x1="828.5" y1="870.6" x2="828.5" y2="897.5"/>
	</g>
	<g id="XMLID_354_">
		<line id="XMLID_355_" class="st10" x1="820.5" y1="870.6" x2="820.5" y2="897.5"/>
	</g>
	<g id="XMLID_352_">
		<line id="XMLID_353_" class="st12" x1="812.6" y1="870.6" x2="812.6" y2="897.5"/>
	</g>
	<g id="XMLID_350_">
		<line id="XMLID_351_" class="st9" x1="804.6" y1="870.6" x2="804.6" y2="897.5"/>
	</g>
</g>
<g id="XMLID_322_">
	
		<image style="overflow:visible;opacity:0.2;" width="100" height="100" id="XMLID_348_" xlink:href="E60EF05D07513564.png"  transform="matrix(1 0 0 1 458.5958 622.7429)">
	</image>
	<g id="XMLID_345_">
		<circle id="XMLID_347_" class="st14" cx="501.4" cy="665.6" r="33.8"/>
		<circle id="XMLID_346_" class="st15" cx="501.4" cy="665.6" r="33.8"/>
	</g>
</g>
<g id="XMLID_316_">
	<path id="XMLID_317_" class="st16" d="M507.9,654.5c0-3.8-2.8-6.5-7.2-6.5c-3.5,0-6.3,1.8-6.3,3.9v1.8H489v-3.5
		c0-1.7,0.7-3.1,2-4.3c2.7-2.4,6.4-3.2,9.9-3.2c3.8,0,6.8,1.1,9.2,3.3c2.4,2.1,3.7,5,3.7,8.5c0,5.2-3.2,9.3-7.4,11.8
		c-5.8,3.6-13.5,6.6-13.4,11.9c0,0.8,0.5,1.1,1.4,1.1H509c0.9,0,1.3-0.4,1.3-1.3v-2.6h5.3v5.2c0,2.6-1.1,3.7-3.7,3.7h-21
		c-3.1,0-3.9-1.2-3.9-4.7C487.1,664.5,507.9,665.6,507.9,654.5z"/>
</g>
<g id="XMLID_295_">
	<path id="XMLID_314_" class="st2" d="M786.1,646v-3h1.5v-8.3h-1.5v-3h6.4v3h-1.5v8.3h1.5v3H786.1z"/>
	<path id="XMLID_307_" class="st2" d="M809.6,646v-3h0.9c0.3,0,0.4-0.1,0.4-0.4v-10.9h3.2l4,6.1c0.3,0.5,0.8,1.4,1,1.8l0.2,0.3h0
		c-0.1-0.8-0.2-1.5-0.2-2.1v-4.7c0-1,0.4-1.5,1.5-1.5h3.4v3h-0.9c-0.3,0-0.4,0.1-0.4,0.4V646h-3.2l-4-6.1c-0.3-0.5-0.8-1.3-1-1.8
		l-0.2-0.3h0c0.1,0.8,0.2,1.5,0.2,2.1v4.7c0,1-0.4,1.5-1.5,1.5H809.6z"/>
	<path id="XMLID_302_" class="st2" d="M845.8,646l-4-10.9c-0.1-0.3-0.2-0.4-0.5-0.4h-0.5v-3h2.5c1,0,1.4,0.3,1.7,1.2l2.1,6.7
		c0.2,0.5,0.4,1.4,0.5,1.9l0.1,0.4h0c0.2-0.9,0.3-1.7,0.5-2.3l2.1-6.7c0.3-0.9,0.7-1.2,1.7-1.2h2.5v3h-0.5c-0.3,0-0.4,0.1-0.5,0.4
		l-4,10.9H845.8z"/>
	<path id="XMLID_300_" class="st2" d="M871.4,646v-3h1.5v-8.3h-1.5v-3h6.4v3h-1.5v8.3h1.5v3H871.4z"/>
	<path id="XMLID_298_" class="st2" d="M899.4,646v-11.3h-1.2c-0.3,0-0.4,0.1-0.4,0.4v0.8h-3.1v-2.8c0-1,0.4-1.4,1.4-1.4h10.2
		c1,0,1.4,0.4,1.4,1.4v2.8h-3.1v-0.8c0-0.3-0.1-0.4-0.4-0.4H903V646H899.4z"/>
	<path id="XMLID_296_" class="st2" d="M925.8,634.7h-1.3v-3h9c1,0,1.5,0.4,1.5,1.5v2.8h-3.2v-0.8c0-0.3-0.1-0.4-0.4-0.4h-1.9v2.6
		h4.1v3h-4.1v2.3c0,0.3,0.1,0.4,0.4,0.4h2c0.3,0,0.4-0.1,0.4-0.4v-0.8h3.2v2.8c0,1-0.4,1.5-1.5,1.5h-6.7c-1,0-1.5-0.4-1.5-1.5V634.7
		z"/>
</g>
<g>
	<path d="M785.5,931.7v-1l1.2-1.2c3-2.8,4.3-4.4,4.4-6.1c0-1.2-0.6-2.3-2.3-2.3c-1.1,0-1.9,0.5-2.5,1l-0.5-1.1
		c0.8-0.7,2-1.2,3.3-1.2c2.5,0,3.6,1.7,3.6,3.4c0,2.2-1.6,3.9-4,6.3l-0.9,0.9v0h5.3v1.3H785.5z"/>
	<path d="M816.1,921.4h-4.5l-0.4,3c0.3,0,0.5-0.1,1-0.1c0.9,0,1.8,0.2,2.5,0.6c0.9,0.5,1.7,1.5,1.7,3c0,2.3-1.8,4-4.4,4
		c-1.3,0-2.4-0.4-2.9-0.7l0.4-1.2c0.5,0.3,1.4,0.6,2.5,0.6c1.5,0,2.8-1,2.8-2.5c0-1.5-1-2.6-3.4-2.6c-0.7,0-1.2,0.1-1.6,0.1l0.8-5.6
		h5.6V921.4z"/>
	<path d="M836.2,921.5L836.2,921.5l-2.1,1.1l-0.3-1.2l2.6-1.4h1.3v11.7h-1.5V921.5z"/>
	<path d="M864.1,925.8c0,4-1.5,6.2-4.1,6.2c-2.3,0-3.8-2.1-3.9-6c0-3.9,1.7-6.1,4.1-6.1C862.7,919.8,864.1,922,864.1,925.8z
		 M857.8,925.9c0,3,0.9,4.8,2.4,4.8c1.6,0,2.4-1.9,2.4-4.9c0-2.9-0.7-4.8-2.4-4.8C858.8,921.1,857.8,922.8,857.8,925.9z"/>
	<path d="M883.4,921.5L883.4,921.5l-2.1,1.1l-0.3-1.2l2.6-1.4h1.3v11.7h-1.5V921.5z"/>
	<path d="M910.3,921.2c-0.3,0-0.7,0-1.2,0.1c-2.5,0.4-3.8,2.2-4.1,4.2h0.1c0.6-0.7,1.5-1.4,2.8-1.4c2.1,0,3.5,1.5,3.5,3.8
		c0,2.1-1.5,4.1-3.9,4.1c-2.5,0-4.1-1.9-4.1-5c0-2.3,0.8-4.1,2-5.3c1-1,2.3-1.5,3.7-1.7c0.5-0.1,0.9-0.1,1.2-0.1V921.2z
		 M909.8,927.9c0-1.7-1-2.7-2.4-2.7c-1,0-1.8,0.6-2.3,1.4c-0.1,0.2-0.2,0.4-0.2,0.7c0,1.9,0.9,3.3,2.6,3.3
		C908.9,930.7,909.8,929.6,909.8,927.9z"/>
	<path d="M929.7,927.9l-1.3,3.8h-1.6l4.1-12.1h1.9l4.1,12.1h-1.7l-1.3-3.8H929.7z M933.7,926.7l-1.2-3.5c-0.3-0.8-0.4-1.5-0.6-2.2h0
		c-0.2,0.7-0.4,1.5-0.6,2.2l-1.2,3.5H933.7z"/>
</g>
<g id="XMLID_289_">
	
		<image style="overflow:visible;opacity:0.17;" width="342" height="464" id="XMLID_293_" xlink:href="E60EF05D07513565.png"  transform="matrix(1 0 0 1 996.5958 576.7429)">
	</image>
	<g id="XMLID_291_">
		<path id="XMLID_292_" class="st4" d="M1255.7,956.4c1.1-6.4,7.2-10.6,13.6-9.5l1.2-6.6c-6.4-1.1-10.6-7.2-9.5-13.6
			c1.1-6.4,7.2-10.6,13.6-9.5l1.2-6.6c-6.4-1.1-10.6-7.2-9.5-13.6c1.1-6.4,7.2-10.6,13.6-9.5l1.2-6.6c-6.4-1.1-10.6-7.2-9.5-13.6
			c1.1-6.4,7.2-10.6,13.6-9.5l1.2-6.6c-6.4-1.1-10.6-7.2-9.5-13.6c1.1-6.4,7.2-10.6,13.6-9.5l1.2-6.6c-6.4-1.1-10.6-7.2-9.5-13.6
			c1.1-6.4,7.2-10.6,13.6-9.5l1.2-6.6c-6.4-1.1-10.6-7.2-9.5-13.6c1.1-6.4,7.2-10.6,13.6-9.5l1.2-6.6c-6.4-1.1-10.6-7.2-9.5-13.6
			c1.1-6.4,7.2-10.6,13.6-9.5l1.2-6.6c-6.4-1.1-10.6-7.2-9.5-13.6c1.1-6.4,7.2-10.6,13.6-9.5l1.2-6.6c-6.4-1.1-10.6-7.2-9.5-13.6
			c1.1-6.4,7.2-10.6,13.6-9.5l2.3-13.2c-25.5-4.5-42.5-28.8-38-54.3l-168.6-29.7c-4.5,25.5-28.8,42.5-54.3,38l-2.3,13.2
			c6.4,1.1,10.6,7.2,9.5,13.6c-1.1,6.4-7.2,10.6-13.6,9.5l-1.2,6.6c6.4,1.1,10.6,7.2,9.5,13.6c-1.1,6.4-7.2,10.6-13.6,9.5l-1.2,6.6
			c6.4,1.1,10.6,7.2,9.5,13.6c-1.1,6.4-7.2,10.6-13.6,9.5l-1.2,6.6c6.4,1.1,10.6,7.2,9.5,13.6c-1.1,6.4-7.2,10.6-13.6,9.5l-1.2,6.6
			c6.4,1.1,10.6,7.2,9.5,13.6c-1.1,6.4-7.2,10.6-13.6,9.5l-1.2,6.6c6.4,1.1,10.6,7.2,9.5,13.6c-1.1,6.4-7.2,10.6-13.6,9.5l-1.2,6.6
			c6.4,1.1,10.6,7.2,9.5,13.6c-1.1,6.4-7.2,10.6-13.6,9.5l-1.2,6.6c6.4,1.1,10.6,7.2,9.5,13.6c-1.1,6.4-7.2,10.6-13.6,9.5l-1.2,6.6
			c6.4,1.1,10.6,7.2,9.5,13.6c-1.1,6.4-7.2,10.6-13.6,9.5l-1.2,6.6c6.4,1.1,10.6,7.2,9.5,13.6c-1.1,6.4-7.2,10.6-13.6,9.5l-2.3,13.2
			c25.5,4.5,42.5,28.8,38,54.3l168.6,29.7c4.5-25.5,28.8-42.5,54.3-38l2.3-13.2C1258.9,968.9,1254.6,962.8,1255.7,956.4z"/>
	</g>
</g>
<path id="XMLID_288_" class="st5" d="M1255.7,956.4c1.1-6.4,7.2-10.6,13.6-9.5l1.2-6.6c-6.4-1.1-10.6-7.2-9.5-13.6
	c1.1-6.4,7.2-10.6,13.6-9.5l1.2-6.6c-6.4-1.1-10.6-7.2-9.5-13.6c1.1-6.4,7.2-10.6,13.6-9.5l1.2-6.6c-6.4-1.1-10.6-7.2-9.5-13.6
	c1.1-6.4,7.2-10.6,13.6-9.5l1.2-6.6c-6.4-1.1-10.6-7.2-9.5-13.6c1.1-6.4,7.2-10.6,13.6-9.5l1.2-6.6c-6.4-1.1-10.6-7.2-9.5-13.6
	c1.1-6.4,7.2-10.6,13.6-9.5l1.2-6.6c-6.4-1.1-10.6-7.2-9.5-13.6c1.1-6.4,7.2-10.6,13.6-9.5l1.2-6.6c-6.4-1.1-10.6-7.2-9.5-13.6
	c1.1-6.4,7.2-10.6,13.6-9.5l1.2-6.6c-6.4-1.1-10.6-7.2-9.5-13.6c1.1-6.4,7.2-10.6,13.6-9.5l1.2-6.6c-6.4-1.1-10.6-7.2-9.5-13.6
	c1.1-6.4,7.2-10.6,13.6-9.5l2.3-13.2c-25.5-4.5-42.5-28.8-38-54.3l-168.6-29.7c-4.5,25.5-28.8,42.5-54.3,38l-2.3,13.2
	c6.4,1.1,10.6,7.2,9.5,13.6c-1.1,6.4-7.2,10.6-13.6,9.5l-1.2,6.6c6.4,1.1,10.6,7.2,9.5,13.6c-1.1,6.4-7.2,10.6-13.6,9.5l-1.2,6.6
	c6.4,1.1,10.6,7.2,9.5,13.6c-1.1,6.4-7.2,10.6-13.6,9.5l-1.2,6.6c6.4,1.1,10.6,7.2,9.5,13.6c-1.1,6.4-7.2,10.6-13.6,9.5l-1.2,6.6
	c6.4,1.1,10.6,7.2,9.5,13.6c-1.1,6.4-7.2,10.6-13.6,9.5l-1.2,6.6c6.4,1.1,10.6,7.2,9.5,13.6c-1.1,6.4-7.2,10.6-13.6,9.5l-1.2,6.6
	c6.4,1.1,10.6,7.2,9.5,13.6c-1.1,6.4-7.2,10.6-13.6,9.5l-1.2,6.6c6.4,1.1,10.6,7.2,9.5,13.6c-1.1,6.4-7.2,10.6-13.6,9.5l-1.2,6.6
	c6.4,1.1,10.6,7.2,9.5,13.6c-1.1,6.4-7.2,10.6-13.6,9.5l-1.2,6.6c6.4,1.1,10.6,7.2,9.5,13.6c-1.1,6.4-7.2,10.6-13.6,9.5l-2.3,13.2
	c25.5,4.5,42.5,28.8,38,54.3l168.6,29.7c4.5-25.5,28.8-42.5,54.3-38l2.3-13.2C1258.9,968.9,1254.6,962.8,1255.7,956.4z"/>
<g id="XMLID_213_">
	<g id="XMLID_285_">
		<defs>
			<path id="XMLID_286_" d="M1172.3,730.6c29.1,5.1,48.6,32.9,43.5,62s-32.9,48.5-62.1,43.4c-29.1-5.1-48.6-32.9-43.5-62
				S1143.1,725.4,1172.3,730.6L1172.3,730.6z"/>
		</defs>
		<clipPath id="XMLID_22_">
			<use xlink:href="#XMLID_286_"  style="overflow:visible;"/>
		</clipPath>
		<g transform="matrix(1 0 0 1 0 6.103516e-05)" style="clip-path:url(#XMLID_22_);">
			
				<image style="overflow:visible;" width="1200" height="1200" id="XMLID_287_" xlink:href="E60EF05D0751357A.jpg"  transform="matrix(9.470833e-02 1.669963e-02 -1.669963e-02 9.470833e-02 1114.0349 713.9998)">
			</image>
		</g>
	</g>
	<g id="XMLID_275_">
		<defs>
			<path id="XMLID_276_" d="M1150.9,837.4c-31.2-5.5-52.1-35.3-46.6-66.4c5.5-31.1,35.3-52,66.5-46.5c31.2,5.5,52.1,35.3,46.6,66.4
				C1211.9,822,1182,842.9,1150.9,837.4L1150.9,837.4z M1207.1,797c-1.6-0.8-14.2-7.1-29.7-7.4c3.3,18.4,3.3,33,3.3,36
				C1192.9,820.3,1202.6,810.1,1207.1,797L1207.1,797z M1171.9,828.7c0-4.4-0.2-19.6-3.9-38.4c-0.1,0-0.2,0-0.3,0.1
				c-28.9,4.7-42,21.8-43.2,23.4c7.1,7.8,16.7,13.4,27.8,15.4C1159,830.4,1165.6,830.1,1171.9,828.7L1171.9,828.7z M1119.2,806.9
				c1.4-1.7,18.5-21.3,44.9-24.9c0.7-0.1,1.3-0.2,2-0.2c-0.7-3-1.6-5.9-2.5-8.9c-25.4,3-48.7-1.5-50.8-1.9c-0.1,0.5-0.2,1-0.3,1.5
				C1110.3,784.8,1113,797,1119.2,806.9L1119.2,806.9z M1115.3,762.7c2.2,0.4,22,4,45.7,2c-5.5-15.6-12-29.1-13-31.1
				C1133.3,737.7,1121.1,748.3,1115.3,762.7L1115.3,762.7z M1157.8,732.1c1,2,7.7,15.5,13,31.4c18.3-3.4,27.3-11.9,28.4-13
				c-7.2-9.1-17.6-15.6-29.9-17.8C1165.4,732,1161.6,731.8,1157.8,732.1L1157.8,732.1z M1203.6,757.1c-1.3,1.2-11.2,10.1-30.3,14.3
				c0.7,2.5,1.4,5,2,7.6c0.2,0.9,0.4,1.8,0.6,2.7c16.4,0.8,31.8,6.9,33.4,7.5C1211.1,777.6,1208.9,766.4,1203.6,757.1L1203.6,757.1z
				"/>
		</defs>
		<clipPath id="XMLID_23_">
			<use xlink:href="#XMLID_276_"  style="overflow:visible;"/>
		</clipPath>
		<g transform="matrix(1 0 0 1 0 6.103516e-05)" style="clip-path:url(#XMLID_23_);">
			
				<image style="overflow:visible;" width="1200" height="1200" id="XMLID_284_" xlink:href="4028BD720EBCB833.jpg"  transform="matrix(9.470833e-02 1.669963e-02 -1.669963e-02 9.470833e-02 1114.0349 713.9998)">
			</image>
		</g>
	</g>
	<g id="XMLID_257_">
		<defs>
			<path id="XMLID_262_" d="M1150.9,837.4l0.1-0.3c-15.5-2.7-28.5-11.5-36.9-23.5c-8.4-12-12.2-27.1-9.5-42.6l0,0
				c2.7-15.5,11.5-28.4,23.5-36.8c12-8.4,27.2-12.2,42.7-9.5c15.5,2.7,28.5,11.5,36.9,23.5c8.4,12,12.2,27.1,9.5,42.6
				c-2.7,15.5-11.5,28.4-23.5,36.8c-12,8.4-27.2,12.2-42.7,9.5L1150.9,837.4l-0.1,0.3c31.3,5.5,61.3-15.4,66.8-46.7
				c5.5-31.3-15.5-61.2-46.8-66.8c-31.3-5.5-61.3,15.4-66.8,46.7l0,0c-5.5,31.3,15.5,61.2,46.8,66.8L1150.9,837.4L1150.9,837.4
				L1150.9,837.4z M1207.1,797l0.1-0.3c-1.2-0.6-9-4.5-19.6-6.4c-3.2-0.6-6.6-0.9-10.2-1l-0.4,0l0.1,0.3c3.3,18.4,3.3,33,3.3,36
				l0,0.5l0.4-0.2c12.2-5.4,22-15.7,26.6-28.8l0.1-0.2l-0.2-0.1L1207.1,797l-0.3-0.1c-4.5,13-14.2,23.1-26.2,28.5l0.1,0.3l0.3,0
				c0-3-0.1-17.6-3.3-36.1l-0.3,0.1l0,0.3c3.6,0.1,7,0.4,10.1,1c10.5,1.9,18.3,5.7,19.4,6.3L1207.1,797l-0.3-0.1L1207.1,797
				L1207.1,797L1207.1,797z M1171.9,828.7l0.3,0c0-4.4-0.2-19.6-3.9-38.4l-0.1-0.3l-0.3,0c-0.1,0-0.2,0-0.3,0.1
				c-29,4.7-42.2,21.9-43.4,23.6l-0.1,0.2l0.2,0.2c7.1,7.9,16.8,13.5,28,15.5c6.7,1.2,13.4,0.9,19.7-0.5l0.2-0.1l0-0.2L1171.9,828.7
				l-0.1-0.3c-6.2,1.4-12.8,1.7-19.4,0.5c-11.1-2-20.7-7.5-27.7-15.3l-0.2,0.2l0.2,0.2c1.2-1.6,14.2-18.7,43-23.3
				c0.1,0,0.2,0,0.3-0.1l0-0.3l-0.3,0.1c3.7,18.8,3.9,34,3.8,38.3L1171.9,828.7l-0.1-0.3L1171.9,828.7L1171.9,828.7L1171.9,828.7z
				 M1119.2,806.9l0.2,0.2c1.4-1.7,18.5-21.2,44.7-24.8c0.7-0.1,1.3-0.2,2-0.2l0.3,0l-0.1-0.3c-0.7-3-1.6-5.9-2.5-8.9l-0.1-0.2
				l-0.2,0c-22.4,2.6-43.3-0.6-49.2-1.6c-0.8-0.1-1.3-0.2-1.5-0.3l-0.3-0.1l-0.1,0.3c-0.1,0.5-0.2,1-0.3,1.5
				c-2.2,12.5,0.5,24.7,6.8,34.6l0.2,0.3l0.3-0.3L1119.2,806.9l0.2-0.2c-6.2-9.9-8.9-21.9-6.7-34.2c0.1-0.5,0.2-1,0.3-1.5l-0.3-0.1
				l-0.1,0.3c0.2,0,0.8,0.1,1.5,0.3c6,1.1,26.9,4.2,49.4,1.6l0-0.3l-0.3,0.1c0.9,2.9,1.7,5.9,2.5,8.9l0.3-0.1l0-0.3
				c-0.7,0.1-1.3,0.1-2,0.2c-26.5,3.7-43.6,23.3-45,25L1119.2,806.9l0.2-0.2L1119.2,806.9L1119.2,806.9L1119.2,806.9z M1115.3,762.7
				l-0.1,0.3c0.2,0,0.4,0.1,0.8,0.2c4.5,0.8,23.1,3.7,44.9,1.8l0.4,0l-0.1-0.4c-5.5-15.6-12-29.1-13-31.1l-0.1-0.2l-0.2,0.1
				c-14.7,4-27.1,14.7-32.9,29.2l-0.1,0.3l0.3,0.1L1115.3,762.7l0.3,0.1c5.7-14.3,18-24.9,32.5-28.9l-0.1-0.3l-0.3,0.1
				c1,2,7.5,15.4,13,31l0.3-0.1l0-0.3c-21.8,1.8-40.3-1.1-44.8-1.8c-0.4-0.1-0.7-0.1-0.8-0.1L1115.3,762.7l0.3,0.1L1115.3,762.7
				L1115.3,762.7L1115.3,762.7z M1157.8,732.1l-0.3,0.1c1,2,7.7,15.5,13,31.4l0.1,0.2l0.2,0c18.4-3.4,27.4-11.9,28.5-13l0.2-0.2
				l-0.2-0.2c-7.2-9.1-17.7-15.7-30-17.9c-3.9-0.7-7.8-0.9-11.6-0.7l-0.4,0l0.2,0.4L1157.8,732.1l0,0.3c3.8-0.2,7.6,0,11.5,0.7
				c12.2,2.2,22.5,8.7,29.7,17.7l0.2-0.2l-0.2-0.2c-1.1,1.1-10,9.5-28.2,12.9l0.1,0.3l0.3-0.1c-5.4-15.9-12-29.4-13.1-31.5
				L1157.8,732.1l0,0.3L1157.8,732.1L1157.8,732.1L1157.8,732.1z M1203.6,757.1l-0.2-0.2c-1.2,1.2-11.1,10.1-30.2,14.2l-0.3,0.1
				l0.1,0.3c0.7,2.5,1.4,5,2,7.5c0.2,0.9,0.4,1.8,0.6,2.7l0,0.2l0.2,0c3.8,0.2,7.6,0.7,11.2,1.3c11.6,2,20.9,5.7,22.1,6.2l0.3,0.1
				l0.1-0.4c1.9-11.5-0.3-22.7-5.6-32.2l-0.2-0.3l-0.3,0.3L1203.6,757.1l-0.3,0.1c5.2,9.3,7.5,20.4,5.6,31.8l0.3,0l0.1-0.3
				c-1.2-0.5-10.5-4.1-22.2-6.2c-3.6-0.6-7.4-1.1-11.3-1.3l0,0.3l0.3-0.1c-0.2-0.9-0.4-1.8-0.6-2.7c-0.6-2.5-1.3-5.1-2-7.6l-0.3,0.1
				l0.1,0.3c19.2-4.1,29.2-13.1,30.5-14.3L1203.6,757.1l-0.3,0.1L1203.6,757.1L1203.6,757.1L1203.6,757.1z"/>
		</defs>
		<defs>
			
				<rect id="XMLID_258_" x="1083.6" y="570.1" transform="matrix(0.1736 -0.9848 0.9848 0.1736 344.4294 1795.8212)" width="317.4" height="245.2"/>
		</defs>
		<clipPath id="XMLID_24_">
			<use xlink:href="#XMLID_262_"  style="overflow:visible;"/>
		</clipPath>
		<clipPath id="XMLID_25_" class="st17">
			<use xlink:href="#XMLID_258_"  style="overflow:visible;"/>
		</clipPath>
		<g transform="matrix(1 0 0 1 0 6.103516e-05)" style="clip-path:url(#XMLID_25_);">
			
				<image style="overflow:visible;" width="1200" height="1200" id="XMLID_274_" xlink:href="4028BD720EBCB834.jpg"  transform="matrix(9.470833e-02 1.669963e-02 -1.669963e-02 9.470833e-02 1114.0349 713.9998)">
			</image>
		</g>
	</g>
</g>
<g id="XMLID_49_">
	<g id="XMLID_205_">
		<line id="XMLID_210_" class="st9" x1="1190.8" y1="903.5" x2="1186.1" y2="930.1"/>
	</g>
	<g id="XMLID_195_">
		<line id="XMLID_196_" class="st10" x1="1197.9" y1="904.8" x2="1193.3" y2="931.3"/>
	</g>
	<g id="XMLID_193_">
		<line id="XMLID_194_" class="st10" x1="1184.4" y1="902.4" x2="1179.7" y2="929"/>
	</g>
	<g id="XMLID_186_">
		<line id="XMLID_188_" class="st10" x1="1179.7" y1="901.6" x2="1175" y2="928.1"/>
	</g>
	<g id="XMLID_163_">
		<line id="XMLID_165_" class="st11" x1="1173.1" y1="900.4" x2="1168.4" y2="927"/>
	</g>
	<g id="XMLID_141_">
		<line id="XMLID_142_" class="st12" x1="1166.3" y1="899.2" x2="1161.6" y2="925.8"/>
	</g>
	<g id="XMLID_99_">
		<line id="XMLID_140_" class="st10" x1="1158.4" y1="897.8" x2="1153.8" y2="924.4"/>
	</g>
	<g id="XMLID_66_">
		<line id="XMLID_84_" class="st13" x1="1150.6" y1="896.4" x2="1145.9" y2="923"/>
	</g>
	<g id="XMLID_64_">
		<line id="XMLID_65_" class="st12" x1="1142.8" y1="895" x2="1138.1" y2="921.6"/>
	</g>
	<g id="XMLID_62_">
		<line id="XMLID_63_" class="st9" x1="1134.9" y1="893.7" x2="1130.3" y2="920.2"/>
	</g>
	<g id="XMLID_60_">
		<line id="XMLID_61_" class="st10" x1="1127.1" y1="892.3" x2="1122.4" y2="918.9"/>
	</g>
	<g id="XMLID_58_">
		<line id="XMLID_59_" class="st11" x1="1119.3" y1="890.9" x2="1114.6" y2="917.5"/>
	</g>
	<g id="XMLID_56_">
		<line id="XMLID_57_" class="st12" x1="1111.4" y1="889.5" x2="1106.7" y2="916.1"/>
	</g>
	<g id="XMLID_54_">
		<line id="XMLID_55_" class="st10" x1="1103.6" y1="888.1" x2="1098.9" y2="914.7"/>
	</g>
	<g id="XMLID_52_">
		<line id="XMLID_53_" class="st12" x1="1095.8" y1="886.7" x2="1091.1" y2="913.3"/>
	</g>
	<g id="XMLID_50_">
		<line id="XMLID_51_" class="st9" x1="1087.9" y1="885.4" x2="1083.2" y2="911.9"/>
	</g>
</g>
<g id="XMLID_11_">
	<path id="XMLID_47_" class="st2" d="M1108.7,661.1l0.5-3l1.5,0.3l1.4-8.2l-1.5-0.3l0.5-3l6.3,1.1l-0.5,3l-1.5-0.3l-1.4,8.2l1.5,0.3
		l-0.5,3L1108.7,661.1z"/>
	<path id="XMLID_45_" class="st2" d="M1131.9,665.1l0.5-3l0.8,0.1c0.3,0.1,0.5-0.1,0.5-0.4l1.9-10.7l3.2,0.6l2.8,6.7
		c0.2,0.6,0.5,1.5,0.7,2l0.1,0.4l0,0c0-0.8,0.1-1.5,0.2-2.1l0.8-4.6c0.2-1,0.7-1.4,1.7-1.2l3.4,0.6l-0.5,3l-0.8-0.1
		c-0.3-0.1-0.5,0.1-0.5,0.4l-1.9,10.7l-3.2-0.6l-2.9-6.7c-0.2-0.6-0.6-1.5-0.7-2l-0.1-0.4l0,0c0,0.8-0.1,1.5-0.2,2.1l-0.8,4.6
		c-0.2,1-0.7,1.4-1.7,1.2L1131.9,665.1z"/>
	<path id="XMLID_43_" class="st2" d="M1167.5,671.4l-2-11.4c-0.1-0.4-0.1-0.5-0.5-0.5l-0.5-0.1l0.5-3l2.5,0.4c1,0.2,1.3,0.5,1.5,1.4
		l0.9,7c0.1,0.6,0.1,1.5,0.1,2l0,0.4l0,0c0.3-0.9,0.6-1.6,0.9-2.2l3.3-6.2c0.4-0.8,0.9-1,1.9-0.9l2.5,0.4l-0.5,3l-0.5-0.1
		c-0.3-0.1-0.4,0-0.6,0.3l-5.8,10L1167.5,671.4z"/>
	<path id="XMLID_39_" class="st2" d="M1192.7,675.9l0.5-3l1.5,0.3l1.4-8.2l-1.5-0.3l0.5-3l6.3,1.1l-0.5,3l-1.5-0.3l-1.4,8.2l1.5,0.3
		l-0.5,3L1192.7,675.9z"/>
	<path id="XMLID_37_" class="st2" d="M1220.3,680.7l2-11.1l-1.1-0.2c-0.3-0.1-0.5,0.1-0.5,0.4l-0.1,0.8l-3.1-0.5l0.5-2.8
		c0.2-1,0.6-1.3,1.6-1.1l10.1,1.8c1,0.2,1.3,0.6,1.1,1.6l-0.5,2.8l-3.1-0.5l0.1-0.8c0.1-0.3-0.1-0.5-0.4-0.5l-1.1-0.2l-2,11.1
		L1220.3,680.7z"/>
	<path id="XMLID_35_" class="st2" d="M1248.3,674.2l-1.3-0.2l0.5-3l8.9,1.6c1,0.2,1.4,0.7,1.2,1.7l-0.5,2.7l-3.2-0.6l0.1-0.8
		c0.1-0.3-0.1-0.5-0.4-0.5l-1.9-0.3l-0.5,2.6l4,0.7l-0.5,3l-4-0.7l-0.4,2.2c-0.1,0.3,0.1,0.5,0.4,0.5l2,0.3c0.3,0.1,0.5-0.1,0.5-0.4
		l0.1-0.8l3.2,0.6l-0.5,2.7c-0.2,1-0.7,1.4-1.7,1.2l-6.6-1.2c-1-0.2-1.4-0.7-1.2-1.7L1248.3,674.2z"/>
</g>
<g>
	<path d="M1058.5,942.3l0.2-1l1.4-1c3.4-2.3,5-3.5,5.4-5.3c0.2-1.2-0.2-2.4-1.9-2.7c-1-0.2-2,0.2-2.6,0.5l-0.3-1.2
		c0.9-0.5,2.1-0.8,3.5-0.6c2.5,0.4,3.2,2.3,2.9,4c-0.4,2.1-2.2,3.6-5.1,5.5l-1.1,0.7l0,0l5.2,0.9l-0.2,1.3L1058.5,942.3z"/>
	<path d="M1090.4,937.4l-4.4-0.8l-1,2.9c0.3,0,0.5,0,1,0.1c0.9,0.2,1.7,0.5,2.4,1.1c0.8,0.7,1.4,1.8,1.1,3.3c-0.4,2.3-2.5,3.6-5,3.2
		c-1.3-0.2-2.3-0.8-2.7-1.2l0.6-1.1c0.4,0.4,1.3,0.9,2.4,1.1c1.5,0.3,2.9-0.5,3.2-2c0.2-1.5-0.6-2.7-2.9-3.1
		c-0.7-0.1-1.2-0.1-1.6-0.2l1.7-5.4l5.5,1L1090.4,937.4z"/>
	<path d="M1110.2,941.1L1110.2,941.1l-2.2,0.7l-0.1-1.2l2.8-0.9l1.3,0.2l-2,11.5l-1.5-0.3L1110.2,941.1z"/>
	<path d="M1137,950.1c-0.7,3.9-2.5,5.8-5.1,5.4c-2.3-0.4-3.4-2.8-2.8-6.6c0.7-3.9,2.7-5.7,5.1-5.3
		C1136.6,944,1137.6,946.4,1137,950.1z M1130.7,949.2c-0.5,3,0.1,4.9,1.5,5.1c1.6,0.3,2.7-1.4,3.2-4.4c0.5-2.8,0.1-4.8-1.5-5.1
		C1132.5,944.6,1131.2,946,1130.7,949.2z"/>
	<path d="M1156.7,949.3L1156.7,949.3l-2.2,0.7l-0.1-1.2l2.8-0.9l1.3,0.2l-2,11.5l-1.5-0.3L1156.7,949.3z"/>
	<path d="M1183.2,953.6c-0.3-0.1-0.7-0.1-1.2-0.1c-2.5,0-4.1,1.5-4.7,3.4l0.1,0c0.7-0.6,1.7-1.1,3-0.8c2,0.4,3.2,2.1,2.8,4.3
		c-0.4,2.1-2.2,3.8-4.5,3.4c-2.5-0.4-3.7-2.6-3.2-5.6c0.4-2.3,1.5-3.9,2.9-4.9c1.1-0.8,2.5-1.1,4-1.1c0.5,0,0.9,0.1,1.2,0.1
		L1183.2,953.6z M1181.6,960.2c0.3-1.6-0.5-2.8-1.9-3.1c-0.9-0.2-1.9,0.3-2.5,1c-0.1,0.2-0.2,0.4-0.3,0.7c-0.3,1.9,0.3,3.5,2,3.7
		C1180.2,962.8,1181.3,961.8,1181.6,960.2z"/>
	<path d="M1200.7,955.3c0.7,0,1.8,0.1,2.9,0.2c1.5,0.3,2.5,0.7,3.1,1.4c0.5,0.6,0.8,1.3,0.6,2.3c-0.2,1.2-1.1,2-2.5,2.3l0,0
		c1.1,0.5,2.2,1.7,1.9,3.4c-0.2,1-0.7,1.7-1.4,2.2c-1,0.6-2.4,0.7-4.3,0.4c-1.1-0.2-1.9-0.4-2.4-0.6L1200.7,955.3z M1200.3,966.1
		c0.3,0.1,0.7,0.2,1.3,0.3c1.6,0.3,3.2,0,3.5-1.8c0.3-1.6-1-2.6-2.7-2.8l-1.3-0.2L1200.3,966.1z M1201.3,960.4l1.4,0.2
		c1.6,0.3,2.7-0.4,2.9-1.5c0.2-1.4-0.7-2.1-2.3-2.4c-0.7-0.1-1.1-0.1-1.4-0.1L1201.3,960.4z"/>
</g>
<path class="st18" d="M1229.7,1600c-37.9-47-60.7-106.8-60.7-171.8c0-2.8,0.1-5.6,0.1-8.4c12,0.2,144.8,2,281.7-39
	c7.8,15.4,15.3,30.9,22.2,46.5c-3.6,1-7.2,2.1-10.8,3.3c-120.6,39-193,135.3-215.6,169.4h57.7c31.1-38.6,89-93.1,185.5-126.7
	c0.6-0.2,1.2-0.4,1.8-0.6c18.4,47.7,31.6,91.7,40.8,127.3h52.3c-8.4-35.7-21.8-85-41.8-140c19.8-3.2,39-4.4,56.9-4.4v-42.4
	c-23.4-0.4-48.5,0.5-73.6,3.6c-1.9-4.7-3.9-9.4-5.9-14.1c-5.7-13.4-11.8-26.6-18.2-39.7c41.5-17,73.7-36.8,97.7-55v-57.2
	c-22.3,21-60.5,49.6-118.8,71.4c-44.9-82.5-94.7-150.3-102.3-160.5c20.6-5,42.1-7.6,64.2-7.6c58.3,0,112.4,18.3,156.8,49.4v-55.6
	c-46.4-26.1-99.9-41-156.8-41c-177,0-320.9,144-320.9,320.9c0,63.3,18.4,122.4,50.2,172.2H1229.7z M1326.6,1180.1
	c7.2,9.9,56.2,77.8,101.6,158.5c-128.2,34.1-241.2,33.6-253.4,33.4C1192.6,1287,1249.9,1216.3,1326.6,1180.1z"/>
</svg>
