<?xml version="1.0" encoding="utf-8"?>
<!-- Generator: Adobe Illustrator 23.1.1, SVG Export Plug-In . SVG Version: 6.00 Build 0)  -->
<svg version="1.1" id="Layer_1" xmlns="http://www.w3.org/2000/svg" xmlns:xlink="http://www.w3.org/1999/xlink" x="0px" y="0px"
	 viewBox="0 0 1000 1000" style="enable-background:new 0 0 1000 1000;" xml:space="preserve">
<style type="text/css">
	.st0{fill:#FAE791;}
	.st1{fill:#53325A;}
	.st2{fill:#202B52;}
	.st3{fill:#3A4775;}
	.st4{fill:#3BCEFF;}
	.st5{fill:#2FAFDC;}
	.st6{fill:none;stroke:#202B52;stroke-width:6;stroke-linecap:round;stroke-linejoin:round;stroke-miterlimit:10;}
	.st7{fill:#12B0FF;}
	.st8{fill:#129BE5;}
	.st9{fill:#5392FF;}
	.st10{fill:#487FDF;}
	.st11{fill:#F8D96B;}
	.st12{fill:#F2B955;}
	.st13{fill:#FC3A4D;}
	.st14{fill:#E82E4A;}
	.st15{fill:#87D14B;}
	.st16{fill:#79BA3A;}
	.st17{fill:none;stroke:#FFFFFF;stroke-width:3;stroke-linecap:round;stroke-linejoin:round;stroke-miterlimit:10;}
	.st18{fill:#78D698;}
	.st19{fill:#5BC47B;}
	.st20{fill:#E17555;}
	.st21{fill:#E45E5B;}
	.st22{fill:#9E3B53;}
	.st23{fill:#883042;}
	.st24{fill:#4A2D51;}
	.st25{fill:#FDBA4F;}
	.st26{fill:#E89D3A;}
</style>
<rect id="XMLID_14_" class="st0" width="1000" height="1000"/>
<g>
	<g>
		<g>
			<path class="st1" d="M63.2,959.2c0,2.5-1.2,3.7-2.6,3.7c-1.1,0-1.9-0.5-2.1-1.4c-0.4,0.5-1,0.8-1.8,0.8c-1.5,0-2.6-1.2-2.6-2.8
				c0-1.6,1.1-2.8,2.6-2.8c0.7,0,1.2,0.3,1.6,0.7v-0.5h1.6v3.9c0,0.8,0.3,1.4,1,1.4c0.9,0,1.7-0.9,1.7-3c0-3-2.3-5.3-5.4-5.3
				c-3.1,0-5.6,2.4-5.6,5.7c0,3.3,2.5,5.7,5.9,5.7c1.1,0,2.1-0.2,2.9-0.4v0.6c-0.8,0.3-1.7,0.4-2.9,0.4c-3.7,0-6.5-2.6-6.5-6.2
				c0-3.4,2.7-6.2,6.2-6.2C61.1,953.3,63.2,956.4,63.2,959.2z M58.3,959.5c0-0.8-0.6-1.4-1.3-1.4c-0.8,0-1.3,0.5-1.3,1.4
				c0,0.8,0.6,1.3,1.3,1.3C57.8,960.9,58.3,960.3,58.3,959.5z"/>
		</g>
		<g>
			<path class="st1" d="M69.4,955.1v2c-1.2-0.1-2.6,0.5-2.6,2.4v4.3h-1.9v-8.6h1.9v1.4C67.3,955.5,68.3,955.1,69.4,955.1z"/>
		</g>
		<g>
			<path class="st1" d="M74.6,962.3c1,0,1.8-0.5,2.2-1.1l1.5,0.9c-0.8,1.2-2.1,1.9-3.8,1.9c-2.8,0-4.7-1.9-4.7-4.5
				c0-2.5,1.8-4.5,4.5-4.5c2.6,0,4.3,2.1,4.3,4.5c0,0.3,0,0.5-0.1,0.8h-6.8C72.1,961.6,73.2,962.3,74.6,962.3z M76.9,958.8
				c-0.3-1.5-1.3-2.1-2.5-2.1c-1.4,0-2.3,0.8-2.6,2.1H76.9z"/>
		</g>
		<g>
			<path class="st1" d="M88.9,955.2v8.6h-1.9v-1.2c-0.7,0.9-1.7,1.5-3,1.5c-2.3,0-4.3-2-4.3-4.5c0-2.6,1.9-4.5,4.3-4.5
				c1.3,0,2.3,0.5,3,1.4v-1.2H88.9z M87.1,959.5c0-1.6-1.2-2.7-2.7-2.7c-1.5,0-2.7,1.1-2.7,2.7c0,1.6,1.2,2.7,2.7,2.7
				C85.9,962.3,87.1,961.1,87.1,959.5z"/>
		</g>
		<g>
			<path class="st1" d="M91.1,951.3H93v12.5h-1.9V951.3z"/>
		</g>
		<g>
			<path class="st1" d="M102.9,955.2l-3.3,8.6h-2.1l-3.3-8.6h2l2.4,6.5l2.4-6.5H102.9z"/>
		</g>
		<g>
			<path class="st1" d="M104.2,955.2h1.9v8.9c0,2.4-1.2,3.5-3.5,3.3v-1.8c1.1,0.1,1.7-0.3,1.7-1.5V955.2z M104,952.8
				c0-0.7,0.5-1.2,1.2-1.2c0.7,0,1.2,0.5,1.2,1.2c0,0.6-0.5,1.2-1.2,1.2C104.5,954,104,953.4,104,952.8z"/>
		</g>
		<g>
			<path class="st1" d="M116,955.2l-3.3,8.8c-0.8,2.2-2.2,3.3-4.2,3.2v-1.7c1.2,0.1,1.9-0.5,2.3-1.7l0.1-0.2l-3.6-8.4h2l2.6,6.2
				l2.2-6.2H116z"/>
		</g>
	</g>
	<g>
		<path class="st1" d="M211.9,938.7c0,2.1-1.5,3.8-3.6,3.8h-3v-7.6h3C210.4,934.9,211.9,936.6,211.9,938.7z M210.9,938.7
			c0-1.6-1.1-2.9-2.6-2.9h-2v5.7h2C209.8,941.6,210.9,940.3,210.9,938.7z"/>
		<path class="st1" d="M219.5,940.8h-3.4l-0.6,1.7h-1.1l2.8-7.6h1.1l2.8,7.6h-1.1L219.5,940.8z M219.2,939.9l-1.4-3.8l-1.4,3.8
			H219.2z"/>
		<path class="st1" d="M226.4,939.4v3.1h-1v-3.1l-2.7-4.5h1.1l2.1,3.6l2.1-3.6h1.1L226.4,939.4z"/>
		<path class="st1" d="M241.9,940.3c0,1.5-1.2,2.4-2.6,2.4c-1.1,0-2.1-0.5-2.5-1.5l0.9-0.5c0.2,0.7,0.8,1.1,1.7,1.1
			c0.9,0,1.6-0.5,1.6-1.4c0-0.9-0.7-1.4-1.6-1.4h-0.3l-0.4-0.6l1.8-2.4H237v-0.9h4.6v0.9l-1.7,2.2C241,938.2,241.9,939,241.9,940.3z
			"/>
		<path class="st1" d="M250.2,940.1c0,1.5-1.1,2.6-2.6,2.6c-1.5,0-2.6-1.1-2.6-2.6c0-0.6,0.2-1.1,0.5-1.5l2.5-3.7h1.2l-1.8,2.7
			c0.1,0,0.2,0,0.4,0C249.1,937.5,250.2,938.6,250.2,940.1z M249.2,940.1c0-1-0.7-1.6-1.6-1.6c-1,0-1.6,0.6-1.6,1.6s0.7,1.6,1.6,1.6
			C248.5,941.7,249.2,941,249.2,940.1z"/>
	</g>
	<g>
		<path class="st1" d="M58.9,938.7c0,2.1-1.5,3.8-3.6,3.8h-3v-7.6h3C57.4,934.9,58.9,936.6,58.9,938.7z M57.9,938.7
			c0-1.6-1.1-2.9-2.6-2.9h-2v5.7h2C56.8,941.6,57.9,940.3,57.9,938.7z"/>
		<path class="st1" d="M67,941.6v1h-4.6v-7.6h4.5v1h-3.5v2.3h3.2v0.9h-3.2v2.4H67z"/>
		<path class="st1" d="M70,940.8l0.9-0.5c0.3,0.8,0.9,1.4,2,1.4c1.1,0,1.6-0.5,1.6-1.2c0-0.8-0.7-1-1.8-1.4
			c-1.2-0.4-2.4-0.8-2.4-2.2c0-1.4,1.1-2.2,2.4-2.2c1.3,0,2.2,0.7,2.6,1.7l-0.8,0.5c-0.3-0.7-0.8-1.2-1.7-1.2
			c-0.8,0-1.4,0.4-1.4,1.1c0,0.7,0.5,1,1.6,1.3c1.3,0.4,2.6,0.8,2.6,2.3c0,1.3-1.1,2.2-2.6,2.2C71.5,942.7,70.4,941.9,70,940.8z"/>
		<path class="st1" d="M80,934.9v7.6h-1v-7.6H80z"/>
		<path class="st1" d="M91.3,939.2c0,1.9-1.4,3.5-3.7,3.5c-2.4,0-4-1.8-4-4c0-2.2,1.7-4,4-4c1.4,0,2.7,0.8,3.3,1.8l-0.9,0.5
			c-0.4-0.8-1.4-1.4-2.4-1.4c-1.8,0-3,1.3-3,3c0,1.7,1.2,3,3,3c1.6,0,2.5-0.9,2.7-2h-2.8v-0.9h3.8V939.2z"/>
		<path class="st1" d="M100.6,934.9v7.6h-0.8l-3.9-5.7v5.7h-1v-7.6h0.8l3.9,5.7v-5.7H100.6z"/>
		<path class="st1" d="M109.1,941.6v1h-4.6v-7.6h4.5v1h-3.5v2.3h3.2v0.9h-3.2v2.4H109.1z"/>
		<path class="st1" d="M119.2,938.7c0,2.1-1.5,3.8-3.6,3.8h-3v-7.6h3C117.6,934.9,119.2,936.6,119.2,938.7z M118.2,938.7
			c0-1.6-1.1-2.9-2.6-2.9h-2v5.7h2C117.1,941.6,118.2,940.3,118.2,938.7z"/>
		<path class="st1" d="M133.2,940.4c0,1.2-1,2.2-2.2,2.2h-3.3v-7.6h3c1.2,0,2.1,0.9,2.1,2.1c0,0.7-0.3,1.2-0.8,1.6
			C132.7,938.9,133.2,939.5,133.2,940.4z M128.7,935.8v2.3h2c0.6,0,1.1-0.5,1.1-1.2c0-0.6-0.5-1.2-1.1-1.2H128.7z M132.2,940.3
			c0-0.7-0.5-1.2-1.2-1.2h-2.3v2.5h2.3C131.7,941.6,132.2,941,132.2,940.3z"/>
		<path class="st1" d="M139.4,939.4v3.1h-1v-3.1l-2.7-4.5h1.1l2.1,3.6l2.1-3.6h1.1L139.4,939.4z"/>
	</g>
	<g>
		<path class="st1" d="M212.7,961.8h-5.3l-0.9,2.5h-2.2l4.5-12.4h2.4l4.5,12.4h-2.2L212.7,961.8z M212,959.9l-2-5.6l-2,5.6H212z"/>
		<path class="st1" d="M226.3,959.9c0,2.6-2,4.7-4.4,4.7c-1.4,0-2.4-0.6-3.1-1.5v1.3h-1.9v-12.4h1.9v4.8c0.7-0.9,1.7-1.5,3.1-1.5
			C224.3,955.2,226.3,957.2,226.3,959.9z M224.4,959.9c0-1.6-1.2-2.8-2.8-2.8c-1.6,0-2.8,1.2-2.8,2.8c0,1.6,1.2,2.8,2.8,2.8
			C223.2,962.7,224.4,961.5,224.4,959.9z"/>
		<path class="st1" d="M237,955.4v8.9h-1.9V963c-0.7,0.9-1.7,1.5-3.1,1.5c-2.4,0-4.4-2-4.4-4.7c0-2.6,2-4.7,4.4-4.7
			c1.4,0,2.4,0.6,3.1,1.5v-1.3H237z M235.1,959.9c0-1.6-1.2-2.8-2.8-2.8c-1.6,0-2.8,1.2-2.8,2.8c0,1.6,1.2,2.8,2.8,2.8
			C233.9,962.7,235.1,961.5,235.1,959.9z"/>
		<path class="st1" d="M238.7,959.9c0-2.6,2-4.7,4.7-4.7c1.7,0,3.2,0.9,3.9,2.3l-1.6,1c-0.4-0.8-1.3-1.4-2.3-1.4
			c-1.6,0-2.7,1.2-2.7,2.8c0,1.6,1.2,2.8,2.7,2.8c1.1,0,1.9-0.5,2.4-1.4l1.6,0.9c-0.7,1.4-2.2,2.3-4,2.3
			C240.7,964.5,238.7,962.5,238.7,959.9z"/>
		<path class="st1" d="M256.7,955.4v8.9h-1.9v-1.1c-0.6,0.9-1.5,1.4-2.7,1.4c-2,0-3.4-1.3-3.4-3.6v-5.4h1.9v5.2c0,1.3,0.8,2.1,2,2.1
			c1.3,0,2.2-0.7,2.2-2.5v-4.7H256.7z"/>
		<path class="st1" d="M265.4,961.8c0,1.8-1.5,2.7-3.5,2.7c-1.8,0-3-0.8-3.6-2.1l1.6-1c0.3,0.8,1,1.3,2,1.3c0.8,0,1.5-0.3,1.5-1
			c0-1.6-4.8-0.7-4.8-3.9c0-1.7,1.4-2.7,3.2-2.7c1.5,0,2.7,0.7,3.3,1.8l-1.6,0.9c-0.3-0.7-0.9-1-1.7-1c-0.7,0-1.3,0.3-1.3,0.9
			C260.6,959.5,265.4,958.5,265.4,961.8z"/>
	</g>
	<g>
		<g>
			<path class="st1" d="M846.1,938.7c0,2.1-1.5,3.8-3.6,3.8h-3v-7.6h3C844.6,934.9,846.1,936.6,846.1,938.7z M845.2,938.7
				c0-1.6-1.1-2.9-2.6-2.9h-2v5.7h2C844.1,941.6,845.2,940.3,845.2,938.7z"/>
		</g>
		<g>
			<path class="st1" d="M849.3,938.7c0-2.2,1.7-4,3.9-4c2.2,0,4,1.8,4,4c0,2.2-1.7,4-4,4C851,942.7,849.3,940.9,849.3,938.7z
				 M856.1,938.7c0-1.7-1.3-3-2.9-3c-1.7,0-2.9,1.3-2.9,3c0,1.7,1.3,3,2.9,3C854.9,941.7,856.1,940.4,856.1,938.7z"/>
		</g>
		<g>
			<path class="st1" d="M859.8,934.9h1.1l1.7,6.3l1.9-6.3h1l1.9,6.3l1.7-6.3h1.1l-2.2,7.6h-1.2l-1.8-6.1l-1.8,6.1H862L859.8,934.9z"
				/>
		</g>
		<g>
			<path class="st1" d="M879.3,934.9v7.6h-0.8l-3.9-5.7v5.7h-1v-7.6h0.8l3.9,5.7v-5.7H879.3z"/>
		</g>
		<g>
			<path class="st1" d="M887.5,941.6v1h-4.3v-7.6h1v6.7H887.5z"/>
		</g>
		<g>
			<path class="st1" d="M889.9,938.7c0-2.2,1.7-4,3.9-4c2.2,0,4,1.8,4,4c0,2.2-1.7,4-4,4C891.6,942.7,889.9,940.9,889.9,938.7z
				 M896.8,938.7c0-1.7-1.3-3-2.9-3c-1.7,0-2.9,1.3-2.9,3c0,1.7,1.3,3,2.9,3C895.5,941.7,896.8,940.4,896.8,938.7z"/>
		</g>
		<g>
			<path class="st1" d="M905.4,940.8H902l-0.6,1.7h-1.1l2.8-7.6h1.1l2.8,7.6H906L905.4,940.8z M905.1,939.9l-1.4-3.8l-1.4,3.8H905.1
				z"/>
		</g>
		<g>
			<path class="st1" d="M916.9,938.7c0,2.1-1.5,3.8-3.6,3.8h-3v-7.6h3C915.4,934.9,916.9,936.6,916.9,938.7z M915.9,938.7
				c0-1.6-1.1-2.9-2.6-2.9h-2v5.7h2C914.9,941.6,915.9,940.3,915.9,938.7z"/>
		</g>
		<g>
			<path class="st1" d="M926.5,935.8v2.5h3.2v1h-3.2v3.2h-1v-7.6h4.4v1H926.5z"/>
		</g>
		<g>
			<path class="st1" d="M936.2,939.6h-1.8v2.9h-1v-7.6h3c1.3,0,2.4,1.1,2.4,2.4c0,1-0.7,1.9-1.6,2.2l1.8,3.1h-1.1L936.2,939.6z
				 M934.4,938.7h2c0.8,0,1.4-0.6,1.4-1.4c0-0.8-0.6-1.4-1.4-1.4h-2V938.7z"/>
		</g>
		<g>
			<path class="st1" d="M941.9,938.7c0-2.2,1.7-4,3.9-4c2.2,0,4,1.8,4,4c0,2.2-1.7,4-4,4C943.6,942.7,941.9,940.9,941.9,938.7z
				 M948.8,938.7c0-1.7-1.3-3-2.9-3c-1.7,0-2.9,1.3-2.9,3c0,1.7,1.3,3,2.9,3C947.5,941.7,948.8,940.4,948.8,938.7z"/>
		</g>
		<g>
			<path class="st1" d="M960.4,942.5h-1v-6l-2.5,4.2h-0.1l-2.5-4.1v5.9h-1v-7.6h1.1l2.4,4l2.4-4h1.1V942.5z"/>
		</g>
	</g>
	<g>
		<g>
			<path class="st1" d="M839.3,952.9c0-0.7,0.5-1.2,1.2-1.2c0.7,0,1.2,0.5,1.2,1.2c0,0.7-0.5,1.2-1.2,1.2
				C839.9,954.1,839.3,953.6,839.3,952.9z M839.6,955.4h1.9v8.9h-1.9V955.4z"/>
		</g>
		<g>
			<path class="st1" d="M843.7,951.4h1.9v12.9h-1.9V951.4z"/>
		</g>
		<g>
			<path class="st1" d="M847.8,951.4h1.9v12.9h-1.9V951.4z"/>
		</g>
		<g>
			<path class="st1" d="M852,951.4h1.9v12.9H852V951.4z"/>
		</g>
		<g>
			<path class="st1" d="M864,955.4v8.9h-1.9v-1.1c-0.6,0.9-1.5,1.4-2.7,1.4c-2,0-3.4-1.3-3.4-3.6v-5.4h1.9v5.2c0,1.3,0.8,2.1,2,2.1
				c1.3,0,2.2-0.7,2.2-2.5v-4.7H864z"/>
		</g>
		<g>
			<path class="st1" d="M872.6,961.8c0,1.8-1.5,2.7-3.5,2.7c-1.8,0-3-0.8-3.6-2.1l1.6-1c0.3,0.8,1,1.3,2,1.3c0.8,0,1.5-0.3,1.5-1
				c0-1.6-4.8-0.7-4.8-3.9c0-1.7,1.4-2.7,3.2-2.7c1.5,0,2.7,0.7,3.3,1.8l-1.6,0.9c-0.3-0.7-0.9-1-1.7-1c-0.7,0-1.3,0.3-1.3,0.9
				C867.9,959.5,872.6,958.5,872.6,961.8z"/>
		</g>
		<g>
			<path class="st1" d="M876.7,957.3v4.2c0,1.1,0.7,1.1,2.2,1v1.7c-2.9,0.4-4.1-0.5-4.1-2.8v-4.2h-1.6v-1.8h1.6v-1.9l1.9-0.6v2.5
				h2.2v1.8H876.7z"/>
		</g>
		<g>
			<path class="st1" d="M885.4,955.3v2.1c-1.3-0.1-2.7,0.5-2.7,2.5v4.5h-1.9v-8.9h1.9v1.5C883.2,955.7,884.2,955.3,885.4,955.3z"/>
		</g>
		<g>
			<path class="st1" d="M895.3,955.4v8.9h-1.9V963c-0.7,0.9-1.7,1.5-3.1,1.5c-2.4,0-4.4-2-4.4-4.7c0-2.6,2-4.7,4.4-4.7
				c1.4,0,2.4,0.6,3.1,1.5v-1.3H895.3z M893.4,959.9c0-1.6-1.2-2.8-2.8-2.8c-1.6,0-2.8,1.2-2.8,2.8c0,1.6,1.2,2.8,2.8,2.8
				C892.2,962.7,893.4,961.5,893.4,959.9z"/>
		</g>
		<g>
			<path class="st1" d="M900.3,957.3v4.2c0,1.1,0.7,1.1,2.2,1v1.7c-2.9,0.4-4.1-0.5-4.1-2.8v-4.2h-1.6v-1.8h1.6v-1.9l1.9-0.6v2.5
				h2.2v1.8H900.3z"/>
		</g>
		<g>
			<path class="st1" d="M903.9,952.9c0-0.7,0.5-1.2,1.2-1.2c0.7,0,1.2,0.5,1.2,1.2c0,0.7-0.5,1.2-1.2,1.2
				C904.5,954.1,903.9,953.6,903.9,952.9z M904.2,955.4h1.9v8.9h-1.9V955.4z"/>
		</g>
		<g>
			<path class="st1" d="M907.8,959.9c0-2.6,2.1-4.7,4.7-4.7c2.6,0,4.7,2,4.7,4.7c0,2.6-2.1,4.7-4.7,4.7
				C909.9,964.5,907.8,962.5,907.8,959.9z M915.3,959.9c0-1.6-1.2-2.8-2.8-2.8c-1.6,0-2.8,1.2-2.8,2.8c0,1.6,1.2,2.8,2.8,2.8
				C914.1,962.7,915.3,961.5,915.3,959.9z"/>
		</g>
		<g>
			<path class="st1" d="M927,958.9v5.4h-1.9v-5.2c0-1.3-0.8-2.1-2-2.1c-1.3,0-2.2,0.7-2.2,2.5v4.7h-1.9v-8.9h1.9v1.1
				c0.6-0.9,1.5-1.4,2.7-1.4C925.5,955.2,927,956.6,927,958.9z"/>
		</g>
		<g>
			<path class="st1" d="M935.5,961.8c0,1.8-1.5,2.7-3.5,2.7c-1.8,0-3-0.8-3.6-2.1l1.6-1c0.3,0.8,1,1.3,2,1.3c0.8,0,1.5-0.3,1.5-1
				c0-1.6-4.8-0.7-4.8-3.9c0-1.7,1.4-2.7,3.2-2.7c1.5,0,2.7,0.7,3.3,1.8l-1.6,0.9c-0.3-0.7-0.9-1-1.7-1c-0.7,0-1.3,0.3-1.3,0.9
				C930.7,959.5,935.5,958.5,935.5,961.8z"/>
		</g>
		<g>
			<path class="st1" d="M936.8,963.2c0-0.7,0.6-1.3,1.3-1.3c0.7,0,1.3,0.6,1.3,1.3c0,0.7-0.6,1.3-1.3,1.3
				C937.4,964.5,936.8,963.9,936.8,963.2z"/>
		</g>
		<g>
			<path class="st1" d="M940.3,959.9c0-2.6,2-4.7,4.7-4.7c1.7,0,3.2,0.9,3.9,2.3l-1.6,1c-0.4-0.8-1.3-1.4-2.3-1.4
				c-1.6,0-2.7,1.2-2.7,2.8c0,1.6,1.2,2.8,2.7,2.8c1.1,0,1.9-0.5,2.4-1.4l1.6,0.9c-0.7,1.4-2.2,2.3-4,2.3
				C942.3,964.5,940.3,962.5,940.3,959.9z"/>
		</g>
		<g>
			<path class="st1" d="M949.7,959.9c0-2.6,2.1-4.7,4.7-4.7c2.6,0,4.7,2,4.7,4.7c0,2.6-2.1,4.7-4.7,4.7
				C951.8,964.5,949.7,962.5,949.7,959.9z M957.2,959.9c0-1.6-1.2-2.8-2.8-2.8s-2.8,1.2-2.8,2.8c0,1.6,1.2,2.8,2.8,2.8
				S957.2,961.5,957.2,959.9z"/>
		</g>
	</g>
</g>
<g>
	<rect id="XMLID_6_" x="348.3" y="371.6" class="st2" width="318" height="8"/>
	<rect id="XMLID_9_" x="348.3" y="363.6" class="st3" width="318" height="8"/>
	<rect id="XMLID_47_" x="348.3" y="450.1" class="st2" width="318" height="8"/>
	<rect id="XMLID_15_" x="348.3" y="442.1" class="st3" width="318" height="8"/>
	<rect id="XMLID_97_" x="348.3" y="531.7" class="st2" width="318" height="8"/>
	<rect id="XMLID_55_" x="348.3" y="523.7" class="st3" width="318" height="8"/>
	<rect id="XMLID_110_" x="348.3" y="625.6" class="st2" width="318" height="8"/>
	<rect id="XMLID_18_" x="348.3" y="617.6" class="st3" width="318" height="8"/>
	<circle id="XMLID_21_" class="st4" cx="410" cy="371.6" r="27"/>
	<path id="XMLID_74_" class="st5" d="M415,390.6c-14.9,0-27-12.1-27-27c0-3.6,0.7-7,2-10.1c-4.3,4.8-7,11.1-7,18.1
		c0,14.9,12.1,27,27,27c11.3,0,21-7,25-16.9C430.1,387.2,423,390.6,415,390.6z"/>
	<circle id="XMLID_8_" class="st6" cx="410" cy="371.6" r="27"/>
	<circle id="XMLID_23_" class="st7" cx="475" cy="371.6" r="27"/>
	<path id="XMLID_71_" class="st8" d="M480,390.6c-14.9,0-27-12.1-27-27c0-3.6,0.7-7,2-10.1c-4.3,4.8-7,11.1-7,18.1
		c0,14.9,12.1,27,27,27c11.3,0,21-7,25-16.9C495.1,387.2,488,390.6,480,390.6z"/>
	<circle id="XMLID_10_" class="st6" cx="475" cy="371.6" r="27"/>
	<circle id="XMLID_24_" class="st9" cx="539" cy="371.6" r="27"/>
	<path id="XMLID_61_" class="st10" d="M544,390.6c-14.9,0-27-12.1-27-27c0-3.6,0.7-7,2-10.1c-4.3,4.8-7,11.1-7,18.1
		c0,14.9,12.1,27,27,27c11.3,0,21-7,25-16.9C559.1,387.2,552,390.6,544,390.6z"/>
	<circle id="XMLID_11_" class="st6" cx="539" cy="371.6" r="27"/>
	<circle id="XMLID_25_" class="st11" cx="507.3" cy="450.1" r="27"/>
	<path id="XMLID_87_" class="st12" d="M513.3,470.1c-14.9,0-27-12.1-27-27c0-5,1.4-9.8,3.8-13.8c-6,5-9.8,12.4-9.8,20.8
		c0,14.9,12.1,27,27,27c9.9,0,18.5-5.3,23.2-13.2C525.9,467.8,519.9,470.1,513.3,470.1z"/>
	<circle id="XMLID_16_" class="st6" cx="507.3" cy="450.1" r="27"/>
	<circle id="XMLID_26_" class="st13" cx="608.1" cy="450.1" r="27"/>
	<path id="XMLID_84_" class="st14" d="M614.1,470.1c-14.9,0-27-12.1-27-27c0-5,1.4-9.8,3.8-13.8c-6,5-9.8,12.4-9.8,20.8
		c0,14.9,12.1,27,27,27c9.9,0,18.5-5.3,23.2-13.2C626.6,467.8,620.6,470.1,614.1,470.1z"/>
	<circle id="XMLID_12_" class="st6" cx="608.1" cy="450.1" r="27"/>
	<circle id="XMLID_28_" class="st15" cx="410" cy="531.7" r="27"/>
	<path id="XMLID_101_" class="st16" d="M416,551.7c-14.9,0-27-12.1-27-27c0-5,1.4-9.8,3.8-13.8c-6,5-9.8,12.4-9.8,20.8
		c0,14.9,12.1,27,27,27c9.9,0,18.5-5.3,23.2-13.2C428.5,549.3,422.5,551.7,416,551.7z"/>
	<path id="XMLID_113_" class="st17" d="M427,531.7c0-9.4-7.6-17-17-17"/>
	<circle id="XMLID_17_" class="st6" cx="410" cy="531.7" r="27"/>
	<circle id="XMLID_30_" class="st18" cx="480.3" cy="531.7" r="27"/>
	<circle id="XMLID_89_" class="st18" cx="480.3" cy="531.7" r="27"/>
	<path id="XMLID_98_" class="st19" d="M486.3,551.7c-14.9,0-27-12.1-27-27c0-5,1.4-9.8,3.8-13.8c-6,5-9.8,12.4-9.8,20.8
		c0,14.9,12.1,27,27,27c9.9,0,18.5-5.3,23.2-13.2C498.9,549.3,492.9,551.7,486.3,551.7z"/>
	<path id="XMLID_67_" class="st17" d="M497.3,531.7c0-9.4-7.6-17-17-17"/>
	<circle id="XMLID_13_" class="st6" cx="480.3" cy="531.7" r="27"/>
	<circle id="XMLID_32_" class="st20" cx="451.3" cy="625.6" r="27"/>
	<path id="XMLID_116_" class="st21" d="M457.3,645.6c-14.9,0-27-12.1-27-27c0-5,1.4-9.8,3.8-13.8c-6,5-9.8,12.4-9.8,20.8
		c0,14.9,12.1,27,27,27c9.9,0,18.5-5.3,23.2-13.2C469.9,643.3,463.9,645.6,457.3,645.6z"/>
	<path id="XMLID_122_" class="st17" d="M468.3,625.6c0-9.4-7.6-17-17-17"/>
	<circle id="XMLID_20_" class="st6" cx="451.3" cy="625.6" r="27"/>
	<circle id="XMLID_34_" class="st22" cx="512.7" cy="625.6" r="27"/>
	<path id="XMLID_96_" class="st23" d="M518.7,645.6c-14.9,0-27-12.1-27-27c0-5,1.4-9.8,3.8-13.8c-6,5-9.8,12.4-9.8,20.8
		c0,14.9,12.1,27,27,27c9.9,0,18.5-5.3,23.2-13.2C531.2,643.3,525.2,645.6,518.7,645.6z"/>
	<path id="XMLID_49_" class="st17" d="M529.7,625.6c0-9.4-7.6-17-17-17"/>
	<circle id="XMLID_19_" class="st6" cx="512.7" cy="625.6" r="27"/>
	<circle id="XMLID_37_" class="st1" cx="623.5" cy="625.6" r="27"/>
	<path id="XMLID_60_" class="st24" d="M629.5,645.6c-14.9,0-27-12.1-27-27c0-5,1.4-9.8,3.8-13.8c-6,5-9.8,12.4-9.8,20.8
		c0,14.9,12.1,27,27,27c9.9,0,18.5-5.3,23.2-13.2C642,643.3,636,645.6,629.5,645.6z"/>
	<path id="XMLID_35_" class="st17" d="M640.5,625.6c0-9.4-7.6-17-17-17"/>
	<circle id="XMLID_22_" class="st6" cx="623.5" cy="625.6" r="27"/>
	<path id="XMLID_42_" class="st25" d="M331.3,682.9L331.3,682.9c-9.9,0-18-8.1-18-18V335.1c0-9.9,8.1-18,18-18h0c9.9,0,18,8.1,18,18
		v329.8C349.3,674.8,341.3,682.9,331.3,682.9z"/>
	<path id="XMLID_65_" class="st26" d="M328.3,664.9V335.1c0-7.3,4.3-13.5,10.5-16.3c-2.3-1.1-4.8-1.7-7.5-1.7c-9.9,0-18,8.1-18,18
		v329.8c0,9.9,8.1,18,18,18c2.7,0,5.2-0.6,7.5-1.7C332.6,678.4,328.3,672.2,328.3,664.9z"/>
	<path id="XMLID_40_" class="st25" d="M683.3,682.9L683.3,682.9c-9.9,0-18-8.1-18-18V335.1c0-9.9,8.1-18,18-18h0c9.9,0,18,8.1,18,18
		v329.8C701.3,674.8,693.3,682.9,683.3,682.9z"/>
	<path id="XMLID_66_" class="st26" d="M680.3,664.9V335.1c0-7.3,4.3-13.5,10.5-16.3c-2.3-1.1-4.8-1.7-7.5-1.7c-9.9,0-18,8.1-18,18
		v329.8c0,9.9,8.1,18,18,18c2.7,0,5.2-0.6,7.5-1.7C684.6,678.4,680.3,672.2,680.3,664.9z"/>
	<path id="XMLID_1_" class="st6" d="M331.3,682.9L331.3,682.9c-9.9,0-18-8.1-18-18V335.1c0-9.9,8.1-18,18-18h0c9.9,0,18,8.1,18,18
		v329.8C349.3,674.8,341.3,682.9,331.3,682.9z"/>
	<path id="XMLID_7_" class="st6" d="M683.3,682.9L683.3,682.9c-9.9,0-18-8.1-18-18V335.1c0-9.9,8.1-18,18-18h0c9.9,0,18,8.1,18,18
		v329.8C701.3,674.8,693.3,682.9,683.3,682.9z"/>
	<path id="XMLID_111_" class="st17" d="M427,371.6c0-9.4-7.6-17-17-17"/>
	<path id="XMLID_69_" class="st17" d="M492,371.6c0-9.4-7.6-17-17-17"/>
	<path id="XMLID_39_" class="st17" d="M556,371.6c0-9.4-7.6-17-17-17"/>
	<path id="XMLID_38_" class="st17" d="M539,352.6"/>
	<path id="XMLID_115_" class="st17" d="M524.3,450.1c0-9.4-7.6-17-17-17"/>
	<path id="XMLID_36_" class="st17" d="M625.1,450.1c0-9.4-7.6-17-17-17"/>
</g>
</svg>
