<?xml version="1.0" encoding="utf-8"?>
<!-- Generator: Adobe Illustrator 23.1.1, SVG Export Plug-In . SVG Version: 6.00 Build 0)  -->
<svg version="1.1" id="Layer_1" xmlns="http://www.w3.org/2000/svg" xmlns:xlink="http://www.w3.org/1999/xlink" x="0px" y="0px"
	 viewBox="0 0 1000 1000" style="enable-background:new 0 0 1000 1000;" xml:space="preserve">
<style type="text/css">
	.st0{fill:#5E5D60;}
	.st1{fill:#EEF2F4;}
	.st2{fill:#4C3142;}
	.st3{fill:#F04E64;}
	.st4{opacity:0.26;fill:#F1A899;}
	.st5{opacity:0.15;fill:#F1A899;}
	.st6{fill:#AF3457;}
	.st7{fill:none;stroke:#4C3142;stroke-width:8;stroke-linecap:round;stroke-linejoin:round;stroke-miterlimit:10;}
	.st8{fill:#F1A899;}
	.st9{fill:#F9CCC5;}
	.st10{fill:#E59588;}
	.st11{fill:none;stroke:#4C3142;stroke-width:9;stroke-linejoin:round;stroke-miterlimit:10;}
	.st12{fill:none;stroke:#4C3142;stroke-width:9;stroke-linecap:round;stroke-linejoin:round;stroke-miterlimit:10;}
	.st13{fill:none;stroke:#FFFDFD;stroke-width:8;stroke-linecap:round;stroke-linejoin:round;stroke-miterlimit:10;}
	.st14{fill:#FFDFAC;}
	.st15{fill:#FCE47E;}
	.st16{fill:#F73152;}
	.st17{fill:none;stroke:#FFFFFF;stroke-width:7;stroke-linecap:round;stroke-linejoin:round;stroke-miterlimit:10;}
	.st18{fill:#FEE35E;}
	.st19{fill:#F9EBB2;}
</style>
<rect id="XMLID_23_" class="st0" width="1000" height="1000"/>
<g>
	<g>
		<g>
			<path class="st1" d="M63.2,959.2c0,2.5-1.2,3.7-2.6,3.7c-1.1,0-1.9-0.5-2.1-1.4c-0.4,0.5-1,0.8-1.8,0.8c-1.5,0-2.6-1.2-2.6-2.8
				c0-1.6,1.1-2.8,2.6-2.8c0.7,0,1.2,0.3,1.6,0.7v-0.5h1.6v3.9c0,0.8,0.3,1.4,1,1.4c0.9,0,1.7-0.9,1.7-3c0-3-2.3-5.3-5.4-5.3
				c-3.1,0-5.6,2.4-5.6,5.7c0,3.3,2.5,5.7,5.9,5.7c1.1,0,2.1-0.2,2.9-0.4v0.6c-0.8,0.3-1.7,0.4-2.9,0.4c-3.7,0-6.5-2.6-6.5-6.2
				c0-3.4,2.7-6.2,6.2-6.2C61.1,953.3,63.2,956.4,63.2,959.2z M58.3,959.5c0-0.8-0.6-1.4-1.3-1.4c-0.8,0-1.3,0.5-1.3,1.4
				c0,0.8,0.6,1.3,1.3,1.3C57.8,960.9,58.3,960.3,58.3,959.5z"/>
		</g>
		<g>
			<path class="st1" d="M69.4,955.1v2c-1.2-0.1-2.6,0.5-2.6,2.4v4.3h-1.9v-8.6h1.9v1.4C67.3,955.5,68.3,955.1,69.4,955.1z"/>
		</g>
		<g>
			<path class="st1" d="M74.6,962.3c1,0,1.8-0.5,2.2-1.1l1.5,0.9c-0.8,1.2-2.1,1.9-3.8,1.9c-2.8,0-4.7-1.9-4.7-4.5
				c0-2.5,1.8-4.5,4.5-4.5c2.6,0,4.3,2.1,4.3,4.5c0,0.3,0,0.5-0.1,0.8h-6.8C72.1,961.6,73.2,962.3,74.6,962.3z M76.9,958.8
				c-0.3-1.5-1.3-2.1-2.5-2.1c-1.4,0-2.3,0.8-2.6,2.1H76.9z"/>
		</g>
		<g>
			<path class="st1" d="M88.9,955.2v8.6h-1.9v-1.2c-0.7,0.9-1.7,1.5-3,1.5c-2.3,0-4.3-2-4.3-4.5c0-2.6,1.9-4.5,4.3-4.5
				c1.3,0,2.3,0.5,3,1.4v-1.2H88.9z M87.1,959.5c0-1.6-1.2-2.7-2.7-2.7c-1.5,0-2.7,1.1-2.7,2.7c0,1.6,1.2,2.7,2.7,2.7
				C85.9,962.3,87.1,961.1,87.1,959.5z"/>
		</g>
		<g>
			<path class="st1" d="M91.1,951.3H93v12.5h-1.9V951.3z"/>
		</g>
		<g>
			<path class="st1" d="M102.9,955.2l-3.3,8.6h-2.1l-3.3-8.6h2l2.4,6.5l2.4-6.5H102.9z"/>
		</g>
		<g>
			<path class="st1" d="M104.2,955.2h1.9v8.9c0,2.4-1.2,3.5-3.5,3.3v-1.8c1.1,0.1,1.7-0.3,1.7-1.5V955.2z M104,952.8
				c0-0.7,0.5-1.2,1.2-1.2c0.7,0,1.2,0.5,1.2,1.2c0,0.6-0.5,1.2-1.2,1.2C104.5,954,104,953.4,104,952.8z"/>
		</g>
		<g>
			<path class="st1" d="M116,955.2l-3.3,8.8c-0.8,2.2-2.2,3.3-4.2,3.2v-1.7c1.2,0.1,1.9-0.5,2.3-1.7l0.1-0.2l-3.6-8.4h2l2.6,6.2
				l2.2-6.2H116z"/>
		</g>
	</g>
	<g>
		<path class="st1" d="M211.9,938.7c0,2.1-1.5,3.8-3.6,3.8h-3v-7.6h3C210.4,934.9,211.9,936.6,211.9,938.7z M210.9,938.7
			c0-1.6-1.1-2.9-2.6-2.9h-2v5.7h2C209.8,941.6,210.9,940.3,210.9,938.7z"/>
		<path class="st1" d="M219.5,940.8h-3.4l-0.6,1.7h-1.1l2.8-7.6h1.1l2.8,7.6h-1.1L219.5,940.8z M219.2,939.9l-1.4-3.8l-1.4,3.8
			H219.2z"/>
		<path class="st1" d="M226.4,939.4v3.1h-1v-3.1l-2.7-4.5h1.1l2.1,3.6l2.1-3.6h1.1L226.4,939.4z"/>
		<path class="st1" d="M241.9,940.3c0,1.5-1.2,2.4-2.6,2.4c-1.1,0-2.1-0.5-2.5-1.5l0.9-0.5c0.2,0.7,0.8,1.1,1.7,1.1
			c0.9,0,1.6-0.5,1.6-1.4c0-0.9-0.7-1.4-1.6-1.4h-0.3l-0.4-0.6l1.8-2.4H237v-0.9h4.6v0.9l-1.7,2.2C241,938.2,241.9,939,241.9,940.3z
			"/>
		<path class="st1" d="M250.1,940.3c0,1.5-1.2,2.4-2.6,2.4c-1.1,0-2.1-0.5-2.5-1.6l0.9-0.5c0.2,0.8,0.8,1.1,1.7,1.1
			c0.9,0,1.6-0.5,1.6-1.4c0-0.9-0.7-1.4-1.6-1.4h-2.2l0.3-4h4.2v0.9h-3.3l-0.1,2h1.1C248.9,937.9,250.1,938.7,250.1,940.3z"/>
	</g>
	<g>
		<path class="st1" d="M58.9,938.7c0,2.1-1.5,3.8-3.6,3.8h-3v-7.6h3C57.4,934.9,58.9,936.6,58.9,938.7z M57.9,938.7
			c0-1.6-1.1-2.9-2.6-2.9h-2v5.7h2C56.8,941.6,57.9,940.3,57.9,938.7z"/>
		<path class="st1" d="M67,941.6v1h-4.6v-7.6h4.5v1h-3.5v2.3h3.2v0.9h-3.2v2.4H67z"/>
		<path class="st1" d="M70,940.8l0.9-0.5c0.3,0.8,0.9,1.4,2,1.4c1.1,0,1.6-0.5,1.6-1.2c0-0.8-0.7-1-1.8-1.4
			c-1.2-0.4-2.4-0.8-2.4-2.2c0-1.4,1.1-2.2,2.4-2.2c1.3,0,2.2,0.7,2.6,1.7l-0.8,0.5c-0.3-0.7-0.8-1.2-1.7-1.2
			c-0.8,0-1.4,0.4-1.4,1.1c0,0.7,0.5,1,1.6,1.3c1.3,0.4,2.6,0.8,2.6,2.3c0,1.3-1.1,2.2-2.6,2.2C71.5,942.7,70.4,941.9,70,940.8z"/>
		<path class="st1" d="M80,934.9v7.6h-1v-7.6H80z"/>
		<path class="st1" d="M91.3,939.2c0,1.9-1.4,3.5-3.7,3.5c-2.4,0-4-1.8-4-4c0-2.2,1.7-4,4-4c1.4,0,2.7,0.8,3.3,1.8l-0.9,0.5
			c-0.4-0.8-1.4-1.4-2.4-1.4c-1.8,0-3,1.3-3,3c0,1.7,1.2,3,3,3c1.6,0,2.5-0.9,2.7-2h-2.8v-0.9h3.8V939.2z"/>
		<path class="st1" d="M100.6,934.9v7.6h-0.8l-3.9-5.7v5.7h-1v-7.6h0.8l3.9,5.7v-5.7H100.6z"/>
		<path class="st1" d="M109.1,941.6v1h-4.6v-7.6h4.5v1h-3.5v2.3h3.2v0.9h-3.2v2.4H109.1z"/>
		<path class="st1" d="M119.2,938.7c0,2.1-1.5,3.8-3.6,3.8h-3v-7.6h3C117.6,934.9,119.2,936.6,119.2,938.7z M118.2,938.7
			c0-1.6-1.1-2.9-2.6-2.9h-2v5.7h2C117.1,941.6,118.2,940.3,118.2,938.7z"/>
		<path class="st1" d="M133.2,940.4c0,1.2-1,2.2-2.2,2.2h-3.3v-7.6h3c1.2,0,2.1,0.9,2.1,2.1c0,0.7-0.3,1.2-0.8,1.6
			C132.7,938.9,133.2,939.5,133.2,940.4z M128.7,935.8v2.3h2c0.6,0,1.1-0.5,1.1-1.2c0-0.6-0.5-1.2-1.1-1.2H128.7z M132.2,940.3
			c0-0.7-0.5-1.2-1.2-1.2h-2.3v2.5h2.3C131.7,941.6,132.2,941,132.2,940.3z"/>
		<path class="st1" d="M139.4,939.4v3.1h-1v-3.1l-2.7-4.5h1.1l2.1,3.6l2.1-3.6h1.1L139.4,939.4z"/>
	</g>
	<g>
		<path class="st1" d="M207.5,953.9v3.5h5v1.9h-5v5h-2v-12.4h7.3v1.9H207.5z"/>
		<path class="st1" d="M214.2,952.9c0-0.7,0.5-1.2,1.2-1.2c0.7,0,1.2,0.5,1.2,1.2c0,0.7-0.5,1.2-1.2,1.2
			C214.8,954.1,214.2,953.6,214.2,952.9z M214.5,955.4h1.9v8.9h-1.9V955.4z"/>
		<path class="st1" d="M223.3,955.3v2.1c-1.3-0.1-2.7,0.5-2.7,2.5v4.5h-1.9v-8.9h1.9v1.5C221.1,955.7,222.1,955.3,223.3,955.3z"/>
		<path class="st1" d="M228.6,962.8c1.1,0,1.9-0.5,2.3-1.1l1.6,0.9c-0.8,1.2-2.1,1.9-3.9,1.9c-2.9,0-4.8-2-4.8-4.7
			c0-2.6,1.9-4.7,4.7-4.7c2.6,0,4.4,2.1,4.4,4.7c0,0.3,0,0.5-0.1,0.8h-7C226.1,962.1,227.2,962.8,228.6,962.8z M231,959.1
			c-0.3-1.5-1.4-2.2-2.5-2.2c-1.4,0-2.4,0.8-2.7,2.2H231z"/>
		<path class="st1" d="M246.4,955.4l-2.8,8.9h-1.9l-1.8-6l-1.9,6h-1.9l-2.8-8.9h2l1.7,6.1l1.9-6.1h1.8l1.8,6.1l1.7-6.1H246.4z"/>
		<path class="st1" d="M247,959.9c0-2.6,2.1-4.7,4.7-4.7c2.6,0,4.7,2,4.7,4.7c0,2.6-2.1,4.7-4.7,4.7
			C249.1,964.5,247,962.5,247,959.9z M254.4,959.9c0-1.6-1.2-2.8-2.8-2.8s-2.8,1.2-2.8,2.8c0,1.6,1.2,2.8,2.8,2.8
			S254.4,961.5,254.4,959.9z"/>
		<path class="st1" d="M262.7,955.3v2.1c-1.3-0.1-2.7,0.5-2.7,2.5v4.5h-1.9v-8.9h1.9v1.5C260.5,955.7,261.6,955.3,262.7,955.3z"/>
		<path class="st1" d="M269.7,964.3l-3.6-4.1v4.1h-1.9v-12.4h1.9v7.5l3.4-3.9h2.3l-3.9,4.3l4,4.5H269.7z"/>
	</g>
	<g>
		<g>
			<path class="st1" d="M846.1,938.7c0,2.1-1.5,3.8-3.6,3.8h-3v-7.6h3C844.6,934.9,846.1,936.6,846.1,938.7z M845.2,938.7
				c0-1.6-1.1-2.9-2.6-2.9h-2v5.7h2C844.1,941.6,845.2,940.3,845.2,938.7z"/>
		</g>
		<g>
			<path class="st1" d="M849.3,938.7c0-2.2,1.7-4,3.9-4c2.2,0,4,1.8,4,4c0,2.2-1.7,4-4,4C851,942.7,849.3,940.9,849.3,938.7z
				 M856.1,938.7c0-1.7-1.3-3-2.9-3c-1.7,0-2.9,1.3-2.9,3c0,1.7,1.3,3,2.9,3C854.9,941.7,856.1,940.4,856.1,938.7z"/>
		</g>
		<g>
			<path class="st1" d="M859.8,934.9h1.1l1.7,6.3l1.9-6.3h1l1.9,6.3l1.7-6.3h1.1l-2.2,7.6h-1.2l-1.8-6.1l-1.8,6.1H862L859.8,934.9z"
				/>
		</g>
		<g>
			<path class="st1" d="M879.3,934.9v7.6h-0.8l-3.9-5.7v5.7h-1v-7.6h0.8l3.9,5.7v-5.7H879.3z"/>
		</g>
		<g>
			<path class="st1" d="M887.5,941.6v1h-4.3v-7.6h1v6.7H887.5z"/>
		</g>
		<g>
			<path class="st1" d="M889.9,938.7c0-2.2,1.7-4,3.9-4c2.2,0,4,1.8,4,4c0,2.2-1.7,4-4,4C891.6,942.7,889.9,940.9,889.9,938.7z
				 M896.8,938.7c0-1.7-1.3-3-2.9-3c-1.7,0-2.9,1.3-2.9,3c0,1.7,1.3,3,2.9,3C895.5,941.7,896.8,940.4,896.8,938.7z"/>
		</g>
		<g>
			<path class="st1" d="M905.4,940.8H902l-0.6,1.7h-1.1l2.8-7.6h1.1l2.8,7.6H906L905.4,940.8z M905.1,939.9l-1.4-3.8l-1.4,3.8H905.1
				z"/>
		</g>
		<g>
			<path class="st1" d="M916.9,938.7c0,2.1-1.5,3.8-3.6,3.8h-3v-7.6h3C915.4,934.9,916.9,936.6,916.9,938.7z M915.9,938.7
				c0-1.6-1.1-2.9-2.6-2.9h-2v5.7h2C914.9,941.6,915.9,940.3,915.9,938.7z"/>
		</g>
		<g>
			<path class="st1" d="M926.5,935.8v2.5h3.2v1h-3.2v3.2h-1v-7.6h4.4v1H926.5z"/>
		</g>
		<g>
			<path class="st1" d="M936.2,939.6h-1.8v2.9h-1v-7.6h3c1.3,0,2.4,1.1,2.4,2.4c0,1-0.7,1.9-1.6,2.2l1.8,3.1h-1.1L936.2,939.6z
				 M934.4,938.7h2c0.8,0,1.4-0.6,1.4-1.4c0-0.8-0.6-1.4-1.4-1.4h-2V938.7z"/>
		</g>
		<g>
			<path class="st1" d="M941.9,938.7c0-2.2,1.7-4,3.9-4c2.2,0,4,1.8,4,4c0,2.2-1.7,4-4,4C943.6,942.7,941.9,940.9,941.9,938.7z
				 M948.8,938.7c0-1.7-1.3-3-2.9-3c-1.7,0-2.9,1.3-2.9,3c0,1.7,1.3,3,2.9,3C947.5,941.7,948.8,940.4,948.8,938.7z"/>
		</g>
		<g>
			<path class="st1" d="M960.4,942.5h-1v-6l-2.5,4.2h-0.1l-2.5-4.1v5.9h-1v-7.6h1.1l2.4,4l2.4-4h1.1V942.5z"/>
		</g>
	</g>
	<g>
		<g>
			<path class="st1" d="M839.3,952.9c0-0.7,0.5-1.2,1.2-1.2c0.7,0,1.2,0.5,1.2,1.2c0,0.7-0.5,1.2-1.2,1.2
				C839.9,954.1,839.3,953.6,839.3,952.9z M839.6,955.4h1.9v8.9h-1.9V955.4z"/>
		</g>
		<g>
			<path class="st1" d="M843.7,951.4h1.9v12.9h-1.9V951.4z"/>
		</g>
		<g>
			<path class="st1" d="M847.8,951.4h1.9v12.9h-1.9V951.4z"/>
		</g>
		<g>
			<path class="st1" d="M852,951.4h1.9v12.9H852V951.4z"/>
		</g>
		<g>
			<path class="st1" d="M864,955.4v8.9h-1.9v-1.1c-0.6,0.9-1.5,1.4-2.7,1.4c-2,0-3.4-1.3-3.4-3.6v-5.4h1.9v5.2c0,1.3,0.8,2.1,2,2.1
				c1.3,0,2.2-0.7,2.2-2.5v-4.7H864z"/>
		</g>
		<g>
			<path class="st1" d="M872.6,961.8c0,1.8-1.5,2.7-3.5,2.7c-1.8,0-3-0.8-3.6-2.1l1.6-1c0.3,0.8,1,1.3,2,1.3c0.8,0,1.5-0.3,1.5-1
				c0-1.6-4.8-0.7-4.8-3.9c0-1.7,1.4-2.7,3.2-2.7c1.5,0,2.7,0.7,3.3,1.8l-1.6,0.9c-0.3-0.7-0.9-1-1.7-1c-0.7,0-1.3,0.3-1.3,0.9
				C867.9,959.5,872.6,958.5,872.6,961.8z"/>
		</g>
		<g>
			<path class="st1" d="M876.7,957.3v4.2c0,1.1,0.7,1.1,2.2,1v1.7c-2.9,0.4-4.1-0.5-4.1-2.8v-4.2h-1.6v-1.8h1.6v-1.9l1.9-0.6v2.5
				h2.2v1.8H876.7z"/>
		</g>
		<g>
			<path class="st1" d="M885.4,955.3v2.1c-1.3-0.1-2.7,0.5-2.7,2.5v4.5h-1.9v-8.9h1.9v1.5C883.2,955.7,884.2,955.3,885.4,955.3z"/>
		</g>
		<g>
			<path class="st1" d="M895.3,955.4v8.9h-1.9V963c-0.7,0.9-1.7,1.5-3.1,1.5c-2.4,0-4.4-2-4.4-4.7c0-2.6,2-4.7,4.4-4.7
				c1.4,0,2.4,0.6,3.1,1.5v-1.3H895.3z M893.4,959.9c0-1.6-1.2-2.8-2.8-2.8c-1.6,0-2.8,1.2-2.8,2.8c0,1.6,1.2,2.8,2.8,2.8
				C892.2,962.7,893.4,961.5,893.4,959.9z"/>
		</g>
		<g>
			<path class="st1" d="M900.3,957.3v4.2c0,1.1,0.7,1.1,2.2,1v1.7c-2.9,0.4-4.1-0.5-4.1-2.8v-4.2h-1.6v-1.8h1.6v-1.9l1.9-0.6v2.5
				h2.2v1.8H900.3z"/>
		</g>
		<g>
			<path class="st1" d="M903.9,952.9c0-0.7,0.5-1.2,1.2-1.2c0.7,0,1.2,0.5,1.2,1.2c0,0.7-0.5,1.2-1.2,1.2
				C904.5,954.1,903.9,953.6,903.9,952.9z M904.2,955.4h1.9v8.9h-1.9V955.4z"/>
		</g>
		<g>
			<path class="st1" d="M907.8,959.9c0-2.6,2.1-4.7,4.7-4.7c2.6,0,4.7,2,4.7,4.7c0,2.6-2.1,4.7-4.7,4.7
				C909.9,964.5,907.8,962.5,907.8,959.9z M915.3,959.9c0-1.6-1.2-2.8-2.8-2.8c-1.6,0-2.8,1.2-2.8,2.8c0,1.6,1.2,2.8,2.8,2.8
				C914.1,962.7,915.3,961.5,915.3,959.9z"/>
		</g>
		<g>
			<path class="st1" d="M927,958.9v5.4h-1.9v-5.2c0-1.3-0.8-2.1-2-2.1c-1.3,0-2.2,0.7-2.2,2.5v4.7h-1.9v-8.9h1.9v1.1
				c0.6-0.9,1.5-1.4,2.7-1.4C925.5,955.2,927,956.6,927,958.9z"/>
		</g>
		<g>
			<path class="st1" d="M935.5,961.8c0,1.8-1.5,2.7-3.5,2.7c-1.8,0-3-0.8-3.6-2.1l1.6-1c0.3,0.8,1,1.3,2,1.3c0.8,0,1.5-0.3,1.5-1
				c0-1.6-4.8-0.7-4.8-3.9c0-1.7,1.4-2.7,3.2-2.7c1.5,0,2.7,0.7,3.3,1.8l-1.6,0.9c-0.3-0.7-0.9-1-1.7-1c-0.7,0-1.3,0.3-1.3,0.9
				C930.7,959.5,935.5,958.5,935.5,961.8z"/>
		</g>
		<g>
			<path class="st1" d="M936.8,963.2c0-0.7,0.6-1.3,1.3-1.3c0.7,0,1.3,0.6,1.3,1.3c0,0.7-0.6,1.3-1.3,1.3
				C937.4,964.5,936.8,963.9,936.8,963.2z"/>
		</g>
		<g>
			<path class="st1" d="M940.3,959.9c0-2.6,2-4.7,4.7-4.7c1.7,0,3.2,0.9,3.9,2.3l-1.6,1c-0.4-0.8-1.3-1.4-2.3-1.4
				c-1.6,0-2.7,1.2-2.7,2.8c0,1.6,1.2,2.8,2.7,2.8c1.1,0,1.9-0.5,2.4-1.4l1.6,0.9c-0.7,1.4-2.2,2.3-4,2.3
				C942.3,964.5,940.3,962.5,940.3,959.9z"/>
		</g>
		<g>
			<path class="st1" d="M949.7,959.9c0-2.6,2.1-4.7,4.7-4.7c2.6,0,4.7,2,4.7,4.7c0,2.6-2.1,4.7-4.7,4.7
				C951.8,964.5,949.7,962.5,949.7,959.9z M957.2,959.9c0-1.6-1.2-2.8-2.8-2.8s-2.8,1.2-2.8,2.8c0,1.6,1.2,2.8,2.8,2.8
				S957.2,961.5,957.2,959.9z"/>
		</g>
	</g>
</g>
<g>
	<ellipse id="XMLID_25_" class="st2" cx="507.3" cy="636.3" rx="99.6" ry="22.1"/>
	<path id="XMLID_1_" class="st3" d="M429.7,403.1v224l0,0c0,9.5,29.5,17.1,66,17.1s66-7.7,66-17.1l0,0v-224H429.7z"/>
	<path id="XMLID_84_" class="st3" d="M429.7,403.1v224l0,0c0,9.5,29.5,17.1,66,17.1s66-7.7,66-17.1l0,0v-224H429.7z"/>
	<circle id="XMLID_94_" class="st4" cx="481.9" cy="505.2" r="18.5"/>
	<circle id="XMLID_130_" class="st5" cx="488.8" cy="523.7" r="11.4"/>
	<circle id="XMLID_136_" class="st5" cx="528.3" cy="514.6" r="11.4"/>
	<circle id="XMLID_146_" class="st5" cx="533.7" cy="594.6" r="11.4"/>
	<circle id="XMLID_177_" class="st5" cx="483.1" cy="621.3" r="11.4"/>
	<circle id="XMLID_154_" class="st5" cx="475.5" cy="439" r="11.4"/>
	<circle id="XMLID_164_" class="st5" cx="541.5" cy="454.2" r="11.4"/>
	<circle id="XMLID_132_" class="st5" cx="477.4" cy="583.2" r="7.5"/>
	<circle id="XMLID_134_" class="st5" cx="440.8" cy="537.9" r="7.5"/>
	<path id="XMLID_96_" class="st6" d="M541.5,403.1v236.3c12.4-3.1,20.2-7.5,20.2-12.3v-224H541.5z"/>
	<path id="XMLID_24_" class="st7" d="M429.4,403.1v224l0,0c0,9.5,29.5,17.1,66,17.1s66-7.7,66-17.1l0,0v-224H429.4z"/>
	<ellipse id="XMLID_9_" class="st8" cx="495.7" cy="403.5" rx="66" ry="17.1"/>
	<path id="XMLID_175_" class="st9" d="M495.7,394.4c31.1,0,57.2,5.6,64.2,13.1c1.2-1.3,1.8-2.6,1.8-4c0-9.5-29.5-17.1-66-17.1
		s-66,7.7-66,17.1c0,1.4,0.6,2.7,1.8,4C438.5,400,464.6,394.4,495.7,394.4z"/>
	<path id="XMLID_174_" class="st10" d="M559.2,398.8c-7.9,7.2-33.3,12.4-63.5,12.4s-55.6-5.3-63.5-12.4c-1.6,1.5-2.5,3.1-2.5,4.7
		c0,9.5,29.5,17.1,66,17.1s66-7.7,66-17.1C561.7,401.9,560.8,400.3,559.2,398.8z"/>
	<ellipse id="XMLID_85_" class="st2" cx="498.8" cy="407.3" rx="9.7" ry="3.9"/>
	<ellipse id="XMLID_7_" class="st7" cx="495.4" cy="403.5" rx="66" ry="17.1"/>
	<line id="XMLID_83_" class="st11" x1="429.7" y1="478.1" x2="561.4" y2="422.7"/>
	<line id="XMLID_129_" class="st12" x1="509.5" y1="493.2" x2="558" y2="472.8"/>
	<line id="XMLID_98_" class="st12" x1="431.2" y1="526.1" x2="488.8" y2="501.9"/>
	<line id="XMLID_133_" class="st11" x1="429.7" y1="575.4" x2="561.4" y2="520.1"/>
	<line id="XMLID_145_" class="st11" x1="429.7" y1="624.1" x2="561.4" y2="568.7"/>
	<line id="XMLID_87_" class="st13" x1="455.4" y1="579.7" x2="455.4" y2="614.4"/>
	<line id="XMLID_86_" class="st13" x1="455.4" y1="442.7" x2="455.4" y2="557.7"/>
</g>
<g id="XMLID_13_">
	<path id="XMLID_183_" class="st14" d="M512.1,342.7c0,0,4.1,1.3,10.3,3.3c6.1,2,14.4,4.6,22.6,7.2c4.1,1.3,8.3,2.6,12.1,3.7
		c1.9,0.6,3.8,1.2,5.6,1.7c1.8,0.5,3.4,1.1,5,1.6c1.5,0.5,2.9,1,4.2,1.5c1.2,0.5,2.3,1,3.1,1.4c1.7,0.9,2.6,1.7,2.6,1.7
		c0.7,0.6,0.8,1.7,0.1,2.3c-0.3,0.4-0.8,0.5-1.2,0.6c0,0-1.2,0-3-0.4c-0.9-0.2-2.1-0.5-3.3-0.9c-1.2-0.5-2.6-1-4.1-1.5
		c-1.5-0.6-3.2-1.2-4.9-1.9c-1.7-0.7-3.5-1.4-5.4-2.2c-3.7-1.6-7.7-3.2-11.7-4.9c-8-3.2-16-6.5-22-8.9c-6-2.4-10-4-10-4
		c-0.1,0-0.2-0.2-0.1-0.3C511.9,342.7,512,342.7,512.1,342.7z"/>
</g>
<g id="XMLID_14_">
	<path id="XMLID_160_" class="st14" d="M512.1,337.3c0,0,6.8,0.2,16.9,0.5c10.1,0.3,23.6,0.6,37.2,1c6.8,0.1,13.5,0.2,19.9,0.4
		c3.2,0.1,6.2,0.1,9.1,0.2c2.9,0.1,5.6,0.2,8.2,0.3c2.5,0.1,4.9,0.2,6.9,0.3c2.1,0.1,3.8,0.3,5.3,0.5c2.9,0.4,4.6,0.9,4.6,0.9
		c0.8,0.3,1.3,1.1,1.1,2c-0.2,0.6-0.7,1-1.2,1.1c0,0-1.7,0.3-4.7,0.5c-1.5,0.1-3.3,0.1-5.3,0c-2.1-0.1-4.4-0.2-6.9-0.4
		c-2.5-0.2-5.3-0.3-8.2-0.6c-2.9-0.2-6-0.5-9.1-0.7c-6.3-0.5-13.1-1-19.8-1.6c-13.5-1-27-2-37.1-2.7c-10.1-0.7-16.9-1.2-16.9-1.2
		c-0.1,0-0.2-0.1-0.2-0.2C511.8,337.4,511.9,337.3,512.1,337.3z"/>
</g>
<g id="XMLID_15_">
	<path id="XMLID_73_" class="st14" d="M511.6,333.4c0,0,4.1-1,10.1-2.5c6.1-1.5,14.2-3.6,22.3-5.7c4-1.1,8.1-2.2,11.9-3.2
		c1.9-0.5,3.7-1,5.5-1.4c1.7-0.5,3.4-0.8,4.9-1.2c1.5-0.3,2.9-0.7,4.2-0.9c1.2-0.3,2.4-0.4,3.3-0.4c1.8-0.1,3,0.1,3,0.1
		c0.9,0.2,1.5,1,1.3,1.9c-0.1,0.5-0.3,0.8-0.7,1.1c0,0-0.9,0.6-2.7,1.3c-0.9,0.3-1.9,0.7-3.2,1c-1.2,0.3-2.7,0.6-4.2,0.9
		c-1.5,0.3-3.2,0.6-5,0.9c-1.8,0.3-3.6,0.6-5.6,0.9c-3.9,0.6-8,1.3-12.1,2c-8.2,1.5-16.5,2.9-22.7,4c-6.2,1.1-10.3,1.9-10.3,1.9
		c-0.1,0-0.2-0.1-0.3-0.2C511.4,333.5,511.5,333.4,511.6,333.4z"/>
</g>
<g id="XMLID_16_">
	<path id="XMLID_71_" class="st14" d="M516.9,319.3c0,0,4.8-2.8,11.9-6.9c7.1-4.1,16.6-9.7,26.1-15.3c4.7-2.8,9.4-5.6,13.9-8.3
		c2.2-1.3,4.4-2.6,6.4-3.8c2-1.2,4-2.3,5.8-3.3c1.8-1,3.5-1.9,4.9-2.7c1.5-0.8,2.8-1.4,3.9-1.8c2.2-0.9,3.6-1.2,3.6-1.2
		c0.9-0.2,1.7,0.4,1.9,1.3c0.1,0.5-0.1,1.1-0.4,1.4c0,0-1,1-3,2.4c-1,0.7-2.2,1.5-3.7,2.3c-1.5,0.8-3.1,1.7-4.9,2.7
		c-1.8,1-3.8,2-5.9,3.1c-2.1,1.1-4.3,2.2-6.6,3.3c-4.6,2.3-9.5,4.7-14.4,7.2c-9.8,5-19.6,9.9-26.9,13.7c-7.3,3.8-12.2,6.3-12.2,6.3
		c-0.1,0.1-0.3,0-0.3-0.1C516.7,319.5,516.8,319.3,516.9,319.3z"/>
</g>
<g id="XMLID_17_">
	<path id="XMLID_185_" class="st14" d="M509.9,315.1c0,0,6.2-5.1,15.5-12.8c9.3-7.6,21.7-17.9,34-28.2c6.2-5.2,12.3-10.3,18.1-15.2
		c2.9-2.4,5.7-4.7,8.3-7c2.6-2.2,5.2-4.3,7.5-6.2c2.4-1.9,4.5-3.6,6.4-5.1c1.9-1.5,3.7-2.8,5.1-3.7c2.9-2,4.8-2.9,4.8-2.9
		c0.8-0.4,1.7-0.1,2.1,0.7c0.3,0.6,0.2,1.2-0.2,1.7c0,0-1.3,1.6-3.9,4c-1.3,1.2-2.9,2.6-4.8,4.2c-1.9,1.5-4.1,3.2-6.5,5.1
		c-2.4,1.8-5,3.9-7.7,5.9c-2.8,2.1-5.7,4.3-8.7,6.6c-6,4.5-12.4,9.4-18.9,14.2c-12.8,9.7-25.6,19.5-35.1,26.8
		c-9.6,7.3-15.9,12.2-15.9,12.2c-0.1,0.1-0.2,0.1-0.3,0C509.8,315.4,509.8,315.2,509.9,315.1z"/>
</g>
<g id="XMLID_42_">
	<path id="XMLID_69_" class="st14" d="M498.7,341.1c0,0-2.5,1.5-6.2,3.9c-3.7,2.3-8.7,5.5-13.7,8.6c-2.5,1.6-4.9,3.2-7.2,4.7
		c-1.2,0.7-2.3,1.5-3.3,2.1c-1.1,0.7-2.1,1.3-3,1.9c-0.9,0.6-1.8,1.1-2.6,1.5c-0.8,0.4-1.5,0.8-2.1,1c-1.2,0.5-1.9,0.7-1.9,0.7
		c-0.5,0.1-1-0.2-1.1-0.8c-0.1-0.3,0-0.6,0.2-0.8c0,0,0.5-0.6,1.5-1.4c0.5-0.4,1.2-0.8,1.9-1.3c0.8-0.5,1.7-0.9,2.6-1.5
		c1-0.5,2-1.1,3.1-1.7c1.1-0.6,2.3-1.2,3.5-1.9c2.4-1.3,5-2.7,7.6-4c5.2-2.8,10.3-5.6,14.2-7.7c3.9-2.1,6.4-3.5,6.4-3.5
		c0.1,0,0.2,0,0.2,0.1C498.7,340.9,498.7,341,498.7,341.1z"/>
</g>
<g id="XMLID_39_">
	<path id="XMLID_67_" class="st14" d="M497.9,337.5c0,0-4.4,1.1-11.1,2.8c-6.7,1.7-15.6,4-24.5,6.3c-4.4,1.2-8.9,2.4-13,3.5
		c-2.1,0.5-4.1,1.1-6,1.6c-1.9,0.5-3.7,0.9-5.4,1.4c-1.7,0.4-3.2,0.8-4.6,1.1c-1.4,0.3-2.6,0.5-3.6,0.7c-2,0.3-3.2,0.3-3.2,0.3
		c-0.5,0-1-0.4-1-0.9c0-0.4,0.2-0.7,0.5-0.9c0,0,1.1-0.5,3-1.1c1-0.3,2.1-0.7,3.5-1c1.4-0.3,2.9-0.7,4.6-1.1
		c1.7-0.4,3.5-0.8,5.4-1.2c1.9-0.4,4-0.8,6.1-1.3c4.2-0.9,8.7-1.8,13.2-2.7c9-1.9,18-3.9,24.7-5.3c6.7-1.5,11.2-2.5,11.2-2.5
		c0.1,0,0.1,0,0.2,0.1C498.1,337.4,498,337.4,497.9,337.5z"/>
</g>
<g id="XMLID_36_">
	<path id="XMLID_65_" class="st14" d="M497.7,334.8c0,0-2.8,0-7.1,0c-4.3,0-9.9,0-15.6,0.1c-2.8,0-5.7,0.1-8.3,0.1
		c-1.3,0-2.6,0-3.8,0c-1.2,0-2.4,0-3.4,0c-1.1,0-2,0-2.9-0.1c-0.9,0-1.6-0.1-2.2-0.2c-1.2-0.2-1.9-0.5-1.9-0.5
		c-0.5-0.2-0.7-0.8-0.5-1.3c0.1-0.3,0.3-0.5,0.6-0.6c0,0,0.7-0.2,2-0.4c0.6-0.1,1.4-0.1,2.2-0.1c0.9,0,1.8,0.1,2.9,0.1
		c1.1,0.1,2.2,0.1,3.4,0.2c1.2,0.1,2.5,0.2,3.8,0.3c2.7,0.2,5.5,0.4,8.3,0.6c5.7,0.4,11.3,0.8,15.6,1c4.3,0.2,7.1,0.4,7.1,0.4
		c0.1,0,0.1,0.1,0.1,0.1C497.8,334.8,497.8,334.8,497.7,334.8z"/>
</g>
<g id="XMLID_19_">
	<path id="XMLID_62_" class="st14" d="M499.4,326.7c0,0-4.4-1.9-11-4.9c-6.6-2.9-15.4-6.8-24.2-10.6c-4.4-1.9-8.8-3.8-13-5.6
		c-2.1-0.9-4.1-1.8-6-2.6c-1.9-0.8-3.7-1.6-5.3-2.4c-1.6-0.7-3.1-1.4-4.5-2c-1.3-0.6-2.5-1.2-3.4-1.7c-1.8-1-2.8-1.8-2.8-1.8
		c-0.4-0.3-0.5-0.9-0.2-1.3c0.2-0.3,0.6-0.4,1-0.4c0,0,1.2,0.3,3.2,1c1,0.4,2.2,0.8,3.5,1.5c1.3,0.6,2.8,1.3,4.4,2.1
		c1.6,0.8,3.4,1.6,5.2,2.5c1.9,0.9,3.8,1.9,5.8,2.9c4,2,8.3,4.1,12.6,6.3c8.6,4.2,17.3,8.4,23.7,11.6c6.5,3.1,10.8,5.2,10.8,5.2
		c0.1,0,0.1,0.1,0.1,0.2C499.5,326.7,499.4,326.7,499.4,326.7z"/>
</g>
<g id="XMLID_29_">
	<path id="XMLID_59_" class="st14" d="M492.3,326c0,0-4.7-1.1-11.8-2.7c-7.1-1.6-16.5-3.7-25.9-5.9c-4.7-1-9.4-2.1-13.9-3.1
		c-2.2-0.5-4.3-1-6.4-1.4c-2-0.4-3.9-0.9-5.7-1.3c-1.8-0.4-3.4-0.8-4.8-1.2c-1.4-0.4-2.7-0.7-3.7-1.1c-2-0.7-3.1-1.2-3.1-1.2
		c-0.5-0.2-0.7-0.8-0.4-1.3c0.2-0.3,0.5-0.5,0.9-0.5c0,0,1.2,0,3.3,0.4c1,0.2,2.3,0.4,3.7,0.8c1.4,0.4,3,0.8,4.8,1.2
		c1.8,0.5,3.7,0.9,5.7,1.5c2,0.5,4.1,1.1,6.3,1.7c4.4,1.2,9,2.5,13.7,3.8c9.3,2.5,18.7,5,25.7,6.9c7,1.9,11.7,3.1,11.7,3.1
		c0.1,0,0.1,0.1,0.1,0.2C492.5,326,492.4,326,492.3,326z"/>
</g>
<g id="XMLID_18_">
	<path id="XMLID_52_" class="st14" d="M496.4,322.4c0,0-5.2-3.7-13.1-9.4c-7.9-5.6-18.4-13.1-28.9-20.5c-5.3-3.7-10.5-7.4-15.5-10.9
		c-2.5-1.7-4.8-3.4-7.1-5c-2.3-1.6-4.4-3.1-6.3-4.6c-2-1.4-3.7-2.7-5.3-3.9c-1.6-1.2-2.9-2.2-4-3.1c-2.2-1.8-3.3-3-3.3-3
		c-0.4-0.4-0.4-1,0-1.3c0.3-0.3,0.7-0.3,1.1-0.2c0,0,1.5,0.7,3.8,2.3c1.2,0.8,2.6,1.7,4.2,2.9c1.6,1.2,3.4,2.5,5.3,3.9
		c1.9,1.4,4,3,6.2,4.7c2.2,1.7,4.5,3.4,6.9,5.3c4.8,3.7,9.9,7.6,15,11.5c10.3,7.8,20.6,15.5,28.3,21.4c7.7,5.8,12.9,9.7,12.9,9.7
		c0.1,0,0.1,0.1,0,0.2C496.5,322.4,496.5,322.4,496.4,322.4z"/>
</g>
<g id="XMLID_63_">
	<path id="XMLID_206_" class="st14" d="M497.6,318.5c0,0-1.5-1.3-3.7-3.1c-2.2-1.9-5.2-4.4-8.1-6.8c-3-2.5-6-4.9-8.2-6.8
		c-0.5-0.5-1-0.9-1.5-1.3c-0.4-0.4-0.8-0.8-1-1.2c-0.5-0.7-0.7-1.2-0.7-1.2c-0.2-0.5,0.1-1.1,0.7-1.3c0.2-0.1,0.4-0.1,0.6,0
		c0,0,0.5,0.1,1.3,0.6c0.4,0.2,0.8,0.5,1.2,0.9c0.4,0.4,0.9,0.9,1.4,1.4c2.1,2,4.7,4.9,7.3,7.7c2.7,2.8,5.3,5.6,7.4,7.6
		c2,2.1,3.4,3.4,3.4,3.4c0.1,0.1,0.1,0.1,0,0.2C497.7,318.5,497.7,318.5,497.6,318.5z"/>
</g>
<g id="XMLID_60_">
	<path id="XMLID_199_" class="st14" d="M501.6,316.6c0,0-1.7-2.4-4.2-5.9c-2.5-3.6-5.9-8.3-9.2-13c-1.7-2.3-3.4-4.7-5-6.9
		c-0.8-1.1-1.6-2.2-2.3-3.2c-0.7-1-1.4-2-2-2.9c-0.6-0.9-1.2-1.7-1.7-2.5c-0.5-0.7-0.9-1.4-1.1-2c-0.6-1.1-0.8-1.9-0.8-1.9
		c-0.1-0.5,0.2-1.1,0.7-1.2c0.3-0.1,0.6,0,0.8,0.2c0,0,0.6,0.5,1.4,1.4c0.4,0.5,0.9,1.1,1.4,1.8c0.5,0.7,1,1.6,1.6,2.5
		c0.6,0.9,1.2,1.9,1.9,3c0.6,1.1,1.3,2.2,2,3.4c1.4,2.3,2.9,4.8,4.4,7.3c3,4.9,6.1,9.9,8.4,13.6c2.3,3.7,3.8,6.2,3.8,6.2
		c0,0.1,0,0.2,0,0.2C501.8,316.7,501.7,316.7,501.6,316.6z"/>
</g>
<g id="XMLID_57_">
	<path id="XMLID_219_" class="st14" d="M506.7,314c0,0-3.7-7.2-7.5-14.5c-1-1.8-1.9-3.6-2.8-5.3c-0.9-1.7-1.7-3.3-2.4-4.6
		c-0.7-1.4-1.3-2.5-1.5-3.4c-0.3-0.8-0.4-1.4-0.4-1.4c0-0.4,0.2-0.7,0.6-0.7c0.2,0,0.4,0.1,0.5,0.2c0,0,0.4,0.4,0.9,1.1
		c0.5,0.7,1,1.9,1.7,3.3c0.7,1.4,1.4,3,2.1,4.8c0.8,1.8,1.6,3.6,2.4,5.5c3.3,7.5,6.6,14.9,6.6,14.9c0,0,0,0.1,0,0.1
		C506.8,314.1,506.7,314,506.7,314z"/>
</g>
<g id="XMLID_54_">
	<path id="XMLID_44_" class="st14" d="M506.7,307.4c0,0,0.1-11.6,0.2-23.1c0-2.9,0-5.8,0-8.5c0-2.7,0-5.2,0.1-7.4
		c0-2.2,0.1-4,0.2-5.2c0.1-1.3,0.3-2,0.3-2c0.1-0.3,0.4-0.5,0.8-0.5c0.2,0.1,0.4,0.3,0.5,0.5c0,0,0.1,0.7,0.2,2
		c0.1,1.3,0,3.1-0.1,5.2c-0.1,2.2-0.2,4.7-0.4,7.4c-0.2,2.7-0.3,5.6-0.5,8.5c-0.6,11.6-1.1,23.1-1.1,23.1
		C506.9,307.4,506.8,307.5,506.7,307.4C506.7,307.5,506.7,307.4,506.7,307.4z"/>
</g>
<g id="XMLID_32_">
	<path id="XMLID_40_" class="st14" d="M507.4,312.6c0,0,3.1-9.4,6.2-18.8c0.7-2.4,1.5-4.7,2.2-6.9c0.7-2.2,1.4-4.3,2-6
		c0.6-1.8,1.1-3.2,1.6-4.2c0.5-1,0.8-1.5,0.8-1.5c0.2-0.3,0.6-0.4,0.9-0.2c0.2,0.1,0.3,0.4,0.3,0.6c0,0,0,0.6-0.3,1.7
		c-0.2,1.1-0.8,2.5-1.4,4.3c-0.6,1.7-1.4,3.8-2.3,5.9c-0.9,2.2-1.8,4.5-2.7,6.8c-3.6,9.2-7.1,18.5-7.1,18.5c0,0-0.1,0.1-0.1,0.1
		C507.4,312.7,507.3,312.6,507.4,312.6z"/>
</g>
<g id="XMLID_37_">
	<path id="XMLID_50_" class="st14" d="M506.7,314c0,0-1-4.9-2.5-12.3c-1.5-7.3-3.6-17.1-5.7-26.9c-1.1-4.9-2.1-9.8-3.1-14.4
		c-0.5-2.3-1-4.5-1.4-6.6c-0.5-2.1-0.8-4.1-1.2-5.9c-0.4-1.8-0.7-3.5-1-5c-0.3-1.5-0.5-2.8-0.6-3.9c-0.3-2.2-0.2-3.5-0.2-3.5
		c0-0.5,0.4-0.9,1-0.9c0.4,0,0.7,0.2,0.9,0.6c0,0,0.5,1.2,1.1,3.3c0.3,1.1,0.6,2.4,0.9,3.9c0.3,1.5,0.6,3.2,0.9,5
		c0.3,1.8,0.7,3.8,1.1,6c0.4,2.1,0.7,4.4,1.1,6.7c0.8,4.6,1.6,9.6,2.4,14.5c1.7,9.9,3.4,19.7,4.6,27.1c1.3,7.4,2.1,12.3,2.1,12.3
		c0,0.1,0,0.1-0.1,0.2C506.7,314.1,506.7,314.1,506.7,314z"/>
</g>
<g id="XMLID_22_">
	<path id="XMLID_31_" class="st14" d="M508.3,304.7c0,0,0.8-4.8,2-11.9c1.2-7.2,2.7-16.7,4.3-26.3c0.7-4.8,1.5-9.6,2.2-14
		c0.4-2.2,0.7-4.4,1-6.5c0.3-2.1,0.7-4,1-5.8c0.3-1.8,0.6-3.4,0.9-4.9c0.3-1.4,0.6-2.7,0.8-3.7c0.5-2.1,1-3.2,1-3.2
		c0.2-0.5,0.8-0.7,1.2-0.5c0.4,0.1,0.6,0.5,0.6,0.8c0,0,0,1.2-0.2,3.3c-0.1,1.1-0.3,2.3-0.5,3.8c-0.3,1.4-0.6,3.1-0.9,4.9
		c-0.3,1.8-0.7,3.7-1.1,5.7c-0.4,2-0.9,4.2-1.3,6.4c-0.9,4.4-1.9,9.2-2.9,13.9c-1.9,9.5-3.9,19-5.3,26.1c-1.4,7.1-2.4,11.9-2.4,11.9
		c0,0.1-0.1,0.1-0.2,0.1C508.4,304.8,508.3,304.8,508.3,304.7z"/>
</g>
<polygon id="XMLID_35_" class="st14" points="529.8,250.8 531,256.6 536.8,257.8 531.6,260.8 532.3,266.7 527.9,262.7 522.5,265.1 
	524.9,259.7 520.9,255.3 526.8,256 "/>
<polygon id="XMLID_95_" class="st14" points="456.2,266.8 456.9,270 460.1,270.6 457.2,272.2 457.6,275.5 455.2,273.3 452.2,274.6 
	453.6,271.7 451.4,269.3 454.6,269.6 "/>
<polygon id="XMLID_41_" class="st14" points="433.9,316.7 434.7,320.8 438.8,321.6 435.2,323.7 435.6,327.8 432.6,325 428.8,326.7 
	430.5,322.9 427.7,319.9 431.8,320.3 "/>
<polygon id="XMLID_112_" class="st14" points="477.9,360.3 478.2,362 479.9,362.3 478.4,363.1 478.6,364.8 477.3,363.7 475.8,364.4 
	476.5,362.8 475.4,361.6 477,361.8 "/>
<polygon id="XMLID_91_" class="st15" points="453.3,335.7 453.7,337.3 455.2,337.6 453.8,338.4 454,340 452.8,338.9 451.4,339.6 
	452,338.1 451,336.9 452.6,337.1 "/>
<polygon id="XMLID_53_" class="st14" points="580.8,294 582.1,299.8 587.9,301 582.7,304 583.4,309.9 579,305.9 573.6,308.4 
	576,302.9 572,298.5 577.9,299.2 "/>
<polygon id="XMLID_26_" class="st14" points="589.5,285.4 590,288 592.7,288.5 590.3,289.9 590.6,292.5 588.6,290.7 586.2,291.8 
	587.3,289.4 585.5,287.4 588.2,287.7 "/>
<polygon id="XMLID_27_" class="st14" points="554.7,284.1 555.1,285.8 556.8,286.2 555.3,287.1 555.5,288.8 554.2,287.6 
	552.5,288.4 553.3,286.7 552.1,285.4 553.8,285.6 "/>
<circle id="XMLID_11_" class="st16" cx="482.4" cy="262.6" r="4.1"/>
<circle id="XMLID_82_" class="st16" cx="444.1" cy="337" r="2"/>
<circle id="XMLID_55_" class="st16" cx="564.5" cy="330.7" r="2.8"/>
<circle id="XMLID_97_" class="st16" cx="520.7" cy="357.1" r="2.8"/>
<circle id="XMLID_28_" class="st16" cx="563.1" cy="282.6" r="1.4"/>
<circle id="XMLID_107_" class="st16" cx="530.9" cy="273.6" r="1.4"/>
<circle id="XMLID_194_" class="st16" cx="475" cy="285.4" r="1.4"/>
<path id="XMLID_10_" class="st17" d="M503.1,339c-10.3,34.2-29.8,59-5.2,67.2"/>
<path id="XMLID_79_" class="st3" d="M512.7,307.6l2.1,10.1c0.1,0.4,0.4,0.7,0.8,0.8l10.1,2.1c3.6,0.7,4.3,5.5,1.2,7.3l-8.9,5.1
	c-0.3,0.2-0.5,0.6-0.5,1l1.1,10.2c0.4,3.6-3.9,5.8-6.6,3.4l-7.6-6.9c-0.3-0.3-0.7-0.3-1.1-0.2l-9.4,4.3c-3.3,1.5-6.7-1.9-5.2-5.2
	l4.2-9.4c0.2-0.4,0.1-0.8-0.2-1.1l-6.9-7.6c-2.4-2.7-0.3-7,3.3-6.6l10.2,1.1c0.4,0,0.8-0.2,1-0.5l5.1-8.9
	C507.2,303.3,512,304.1,512.7,307.6z"/>
<path id="XMLID_20_" class="st18" d="M514.5,307.3l2.2,10.2c0.1,0.4,0.4,0.7,0.8,0.8l10.2,2.1c3.6,0.7,4.4,5.6,1.2,7.4l-9.1,5.2
	c-0.4,0.2-0.6,0.6-0.5,1l1.2,10.4c0.4,3.7-3.9,5.9-6.7,3.4l-7.8-7c-0.3-0.3-0.7-0.3-1.1-0.2l-9.5,4.3c-3.4,1.5-6.8-1.9-5.3-5.3
	l4.3-9.5c0.2-0.4,0.1-0.8-0.2-1.1l-7.1-7.7c-2.5-2.7-0.3-7.1,3.4-6.7l10.4,1.1c0.4,0,0.8-0.2,1-0.5l5.2-9.1
	C508.9,303,513.7,303.7,514.5,307.3z"/>
<path id="XMLID_8_" class="st15" d="M512.6,310.1l2.3,8.5c0.1,0.3,0.4,0.6,0.7,0.6l8.7,1.3c3.1,0.5,3.9,4.5,1.3,6.1l-7.3,4.8
	c-0.3,0.2-0.4,0.5-0.4,0.9l1.4,8.6c0.5,3-3,5.1-5.4,3.2l-6.8-5.5c-0.3-0.2-0.6-0.3-0.9-0.1l-7.8,4c-2.7,1.4-5.8-1.3-4.7-4.2l3.1-8.2
	c0.1-0.3,0-0.7-0.2-0.9l-6.2-6.1c-2.2-2.2-0.6-5.9,2.5-5.7l8.7,0.5c0.3,0,0.7-0.2,0.8-0.5l3.9-7.8
	C507.7,306.7,511.8,307.1,512.6,310.1z"/>
<path id="XMLID_21_" class="st19" d="M513.6,312.9l1,7.5c0,0.3,0.2,0.5,0.5,0.6l7.2,2.1c2.6,0.7,2.9,4.2,0.5,5.4l-6.8,3.3
	c-0.3,0.1-0.4,0.4-0.4,0.7l0.3,7.5c0.1,2.7-3.1,4-5,2.1l-5.2-5.4c-0.2-0.2-0.5-0.3-0.8-0.2l-7.1,2.6c-2.5,0.9-4.8-1.7-3.5-4.1
	l3.6-6.6c0.1-0.3,0.1-0.6-0.1-0.8l-4.6-5.9c-1.6-2.1,0.2-5.1,2.8-4.6l7.4,1.4c0.3,0.1,0.6-0.1,0.7-0.3l4.2-6.2
	C509.8,309.5,513.2,310.3,513.6,312.9z"/>
</svg>
