<?xml version="1.0" encoding="utf-8"?>
<!-- Generator: Adobe Illustrator 23.1.1, SVG Export Plug-In . SVG Version: 6.00 Build 0)  -->
<svg version="1.1" id="Layer_1" xmlns="http://www.w3.org/2000/svg" xmlns:xlink="http://www.w3.org/1999/xlink" x="0px" y="0px"
	 viewBox="0 0 1000 1000" style="enable-background:new 0 0 1000 1000;" xml:space="preserve">
<style type="text/css">
	.st0{fill:#602A77;}
	.st1{fill:#EEF2F4;}
	.st2{opacity:0.2;fill:#241228;stroke:#241228;stroke-width:6;stroke-linecap:round;stroke-linejoin:round;stroke-miterlimit:10;}
	.st3{fill:#EB6331;}
	.st4{fill:#DD562C;}
	.st5{fill:none;stroke:#511C64;stroke-width:6;stroke-linecap:round;stroke-linejoin:round;stroke-miterlimit:10;}
	.st6{fill:#FDA22F;}
	.st7{fill:#FC9435;}
	.st8{fill:#FFB331;}
	.st9{fill:#A5F3FF;}
	.st10{fill:#511C64;}
	.st11{opacity:0.2;fill:#511C64;}
	.st12{opacity:0.2;}
	.st13{opacity:0.43;fill:#D2FCFB;}
	.st14{fill:#FC9435;stroke:#FC9435;stroke-width:6;stroke-miterlimit:10;}
	.st15{fill:#FF82A0;}
	.st16{fill:#B078FD;}
	.st17{fill:#A270F2;}
	.st18{fill:none;stroke:#FFFFFF;stroke-width:3;stroke-linecap:round;stroke-linejoin:round;stroke-miterlimit:10;}
	.st19{fill:#F27095;}
</style>
<rect id="XMLID_6_" class="st0" width="1000" height="1000"/>
<g>
	<g>
		<g>
			<path class="st1" d="M63.2,959.2c0,2.5-1.2,3.7-2.6,3.7c-1.1,0-1.9-0.5-2.1-1.4c-0.4,0.5-1,0.8-1.8,0.8c-1.5,0-2.6-1.2-2.6-2.8
				c0-1.6,1.1-2.8,2.6-2.8c0.7,0,1.2,0.3,1.6,0.7v-0.5h1.6v3.9c0,0.8,0.3,1.4,1,1.4c0.9,0,1.7-0.9,1.7-3c0-3-2.3-5.3-5.4-5.3
				c-3.1,0-5.6,2.4-5.6,5.7c0,3.3,2.5,5.7,5.9,5.7c1.1,0,2.1-0.2,2.9-0.4v0.6c-0.8,0.3-1.7,0.4-2.9,0.4c-3.7,0-6.5-2.6-6.5-6.2
				c0-3.4,2.7-6.2,6.2-6.2C61.1,953.3,63.2,956.4,63.2,959.2z M58.3,959.5c0-0.8-0.6-1.4-1.3-1.4c-0.8,0-1.3,0.5-1.3,1.4
				c0,0.8,0.6,1.3,1.3,1.3C57.8,960.9,58.3,960.3,58.3,959.5z"/>
		</g>
		<g>
			<path class="st1" d="M69.4,955.1v2c-1.2-0.1-2.6,0.5-2.6,2.4v4.3h-1.9v-8.6h1.9v1.4C67.3,955.5,68.3,955.1,69.4,955.1z"/>
		</g>
		<g>
			<path class="st1" d="M74.6,962.3c1,0,1.8-0.5,2.2-1.1l1.5,0.9c-0.8,1.2-2.1,1.9-3.8,1.9c-2.8,0-4.7-1.9-4.7-4.5
				c0-2.5,1.8-4.5,4.5-4.5c2.6,0,4.3,2.1,4.3,4.5c0,0.3,0,0.5-0.1,0.8h-6.8C72.1,961.6,73.2,962.3,74.6,962.3z M76.9,958.8
				c-0.3-1.5-1.3-2.1-2.5-2.1c-1.4,0-2.3,0.8-2.6,2.1H76.9z"/>
		</g>
		<g>
			<path class="st1" d="M88.9,955.2v8.6h-1.9v-1.2c-0.7,0.9-1.7,1.5-3,1.5c-2.3,0-4.3-2-4.3-4.5c0-2.6,1.9-4.5,4.3-4.5
				c1.3,0,2.3,0.5,3,1.4v-1.2H88.9z M87.1,959.5c0-1.6-1.2-2.7-2.7-2.7c-1.5,0-2.7,1.1-2.7,2.7c0,1.6,1.2,2.7,2.7,2.7
				C85.9,962.3,87.1,961.1,87.1,959.5z"/>
		</g>
		<g>
			<path class="st1" d="M91.1,951.3H93v12.5h-1.9V951.3z"/>
		</g>
		<g>
			<path class="st1" d="M102.9,955.2l-3.3,8.6h-2.1l-3.3-8.6h2l2.4,6.5l2.4-6.5H102.9z"/>
		</g>
		<g>
			<path class="st1" d="M104.2,955.2h1.9v8.9c0,2.4-1.2,3.5-3.5,3.3v-1.8c1.1,0.1,1.7-0.3,1.7-1.5V955.2z M104,952.8
				c0-0.7,0.5-1.2,1.2-1.2c0.7,0,1.2,0.5,1.2,1.2c0,0.6-0.5,1.2-1.2,1.2C104.5,954,104,953.4,104,952.8z"/>
		</g>
		<g>
			<path class="st1" d="M116,955.2l-3.3,8.8c-0.8,2.2-2.2,3.3-4.2,3.2v-1.7c1.2,0.1,1.9-0.5,2.3-1.7l0.1-0.2l-3.6-8.4h2l2.6,6.2
				l2.2-6.2H116z"/>
		</g>
	</g>
	<g>
		<path class="st1" d="M211.9,938.7c0,2.1-1.5,3.8-3.6,3.8h-3v-7.6h3C210.4,934.9,211.9,936.6,211.9,938.7z M210.9,938.7
			c0-1.6-1.1-2.9-2.6-2.9h-2v5.7h2C209.8,941.6,210.9,940.3,210.9,938.7z"/>
		<path class="st1" d="M219.5,940.8h-3.4l-0.6,1.7h-1.1l2.8-7.6h1.1l2.8,7.6h-1.1L219.5,940.8z M219.2,939.9l-1.4-3.8l-1.4,3.8
			H219.2z"/>
		<path class="st1" d="M226.4,939.4v3.1h-1v-3.1l-2.7-4.5h1.1l2.1,3.6l2.1-3.6h1.1L226.4,939.4z"/>
		<path class="st1" d="M241.9,940.3c0,1.5-1.2,2.4-2.6,2.4c-1.1,0-2.1-0.5-2.5-1.5l0.9-0.5c0.2,0.7,0.8,1.1,1.7,1.1
			c0.9,0,1.6-0.5,1.6-1.4c0-0.9-0.7-1.4-1.6-1.4h-0.3l-0.4-0.6l1.8-2.4H237v-0.9h4.6v0.9l-1.7,2.2C241,938.2,241.9,939,241.9,940.3z
			"/>
		<path class="st1" d="M249.6,934.9v0.9l-2.8,6.7h-1.1l2.8-6.7h-3.7v-1H249.6z"/>
	</g>
	<g>
		<path class="st1" d="M58.9,938.7c0,2.1-1.5,3.8-3.6,3.8h-3v-7.6h3C57.4,934.9,58.9,936.6,58.9,938.7z M57.9,938.7
			c0-1.6-1.1-2.9-2.6-2.9h-2v5.7h2C56.8,941.6,57.9,940.3,57.9,938.7z"/>
		<path class="st1" d="M67,941.6v1h-4.6v-7.6h4.5v1h-3.5v2.3h3.2v0.9h-3.2v2.4H67z"/>
		<path class="st1" d="M70,940.8l0.9-0.5c0.3,0.8,0.9,1.4,2,1.4c1.1,0,1.6-0.5,1.6-1.2c0-0.8-0.7-1-1.8-1.4
			c-1.2-0.4-2.4-0.8-2.4-2.2c0-1.4,1.1-2.2,2.4-2.2c1.3,0,2.2,0.7,2.6,1.7l-0.8,0.5c-0.3-0.7-0.8-1.2-1.7-1.2
			c-0.8,0-1.4,0.4-1.4,1.1c0,0.7,0.5,1,1.6,1.3c1.3,0.4,2.6,0.8,2.6,2.3c0,1.3-1.1,2.2-2.6,2.2C71.5,942.7,70.4,941.9,70,940.8z"/>
		<path class="st1" d="M80,934.9v7.6h-1v-7.6H80z"/>
		<path class="st1" d="M91.3,939.2c0,1.9-1.4,3.5-3.7,3.5c-2.4,0-4-1.8-4-4c0-2.2,1.7-4,4-4c1.4,0,2.7,0.8,3.3,1.8l-0.9,0.5
			c-0.4-0.8-1.4-1.4-2.4-1.4c-1.8,0-3,1.3-3,3c0,1.7,1.2,3,3,3c1.6,0,2.5-0.9,2.7-2h-2.8v-0.9h3.8V939.2z"/>
		<path class="st1" d="M100.6,934.9v7.6h-0.8l-3.9-5.7v5.7h-1v-7.6h0.8l3.9,5.7v-5.7H100.6z"/>
		<path class="st1" d="M109.1,941.6v1h-4.6v-7.6h4.5v1h-3.5v2.3h3.2v0.9h-3.2v2.4H109.1z"/>
		<path class="st1" d="M119.2,938.7c0,2.1-1.5,3.8-3.6,3.8h-3v-7.6h3C117.6,934.9,119.2,936.6,119.2,938.7z M118.2,938.7
			c0-1.6-1.1-2.9-2.6-2.9h-2v5.7h2C117.1,941.6,118.2,940.3,118.2,938.7z"/>
		<path class="st1" d="M133.2,940.4c0,1.2-1,2.2-2.2,2.2h-3.3v-7.6h3c1.2,0,2.1,0.9,2.1,2.1c0,0.7-0.3,1.2-0.8,1.6
			C132.7,938.9,133.2,939.5,133.2,940.4z M128.7,935.8v2.3h2c0.6,0,1.1-0.5,1.1-1.2c0-0.6-0.5-1.2-1.1-1.2H128.7z M132.2,940.3
			c0-0.7-0.5-1.2-1.2-1.2h-2.3v2.5h2.3C131.7,941.6,132.2,941,132.2,940.3z"/>
		<path class="st1" d="M139.4,939.4v3.1h-1v-3.1l-2.7-4.5h1.1l2.1,3.6l2.1-3.6h1.1L139.4,939.4z"/>
	</g>
	<g>
		<path class="st1" d="M204.8,958.1c0-3.6,2.7-6.4,6.5-6.4c2.3,0,4.3,1.2,5.3,3l-1.8,1c-0.7-1.2-2-2-3.6-2c-2.7,0-4.4,1.9-4.4,4.4
			s1.8,4.4,4.4,4.4c1.6,0,2.9-0.8,3.6-2l1.8,1c-1,1.8-3,3-5.3,3C207.5,964.5,204.8,961.7,204.8,958.1z"/>
		<path class="st1" d="M227.1,955.4v8.9h-1.9V963c-0.7,0.9-1.7,1.5-3.1,1.5c-2.4,0-4.4-2-4.4-4.7c0-2.6,2-4.7,4.4-4.7
			c1.4,0,2.4,0.6,3.1,1.5v-1.3H227.1z M225.2,959.9c0-1.6-1.2-2.8-2.8-2.8c-1.6,0-2.8,1.2-2.8,2.8c0,1.6,1.2,2.8,2.8,2.8
			C224,962.7,225.2,961.5,225.2,959.9z"/>
		<path class="st1" d="M229.3,951.4h1.9v12.9h-1.9V951.4z"/>
		<path class="st1" d="M233,959.9c0-2.6,2-4.7,4.7-4.7c1.7,0,3.2,0.9,3.9,2.3l-1.6,1c-0.4-0.8-1.3-1.4-2.3-1.4
			c-1.6,0-2.7,1.2-2.7,2.8c0,1.6,1.2,2.8,2.7,2.8c1.1,0,1.9-0.5,2.4-1.4l1.6,0.9c-0.7,1.4-2.2,2.3-4,2.3
			C235,964.5,233,962.5,233,959.9z"/>
		<path class="st1" d="M250.9,955.4v8.9H249v-1.1c-0.6,0.9-1.5,1.4-2.7,1.4c-2,0-3.4-1.3-3.4-3.6v-5.4h1.9v5.2c0,1.3,0.8,2.1,2,2.1
			c1.3,0,2.2-0.7,2.2-2.5v-4.7H250.9z"/>
		<path class="st1" d="M253.2,951.4h1.9v12.9h-1.9V951.4z"/>
		<path class="st1" d="M266.2,955.4v8.9h-1.9V963c-0.7,0.9-1.7,1.5-3.1,1.5c-2.4,0-4.4-2-4.4-4.7c0-2.6,2-4.7,4.4-4.7
			c1.4,0,2.4,0.6,3.1,1.5v-1.3H266.2z M264.3,959.9c0-1.6-1.2-2.8-2.8-2.8c-1.6,0-2.8,1.2-2.8,2.8c0,1.6,1.2,2.8,2.8,2.8
			C263.1,962.7,264.3,961.5,264.3,959.9z"/>
		<path class="st1" d="M271.2,957.3v4.2c0,1.1,0.7,1.1,2.2,1v1.7c-2.9,0.4-4.1-0.5-4.1-2.8v-4.2h-1.6v-1.8h1.6v-1.9l1.9-0.6v2.5h2.2
			v1.8H271.2z"/>
		<path class="st1" d="M274.3,959.9c0-2.6,2.1-4.7,4.7-4.7c2.6,0,4.7,2,4.7,4.7c0,2.6-2.1,4.7-4.7,4.7
			C276.4,964.5,274.3,962.5,274.3,959.9z M281.7,959.9c0-1.6-1.2-2.8-2.8-2.8s-2.8,1.2-2.8,2.8c0,1.6,1.2,2.8,2.8,2.8
			S281.7,961.5,281.7,959.9z"/>
		<path class="st1" d="M290,955.3v2.1c-1.3-0.1-2.7,0.5-2.7,2.5v4.5h-1.9v-8.9h1.9v1.5C287.8,955.7,288.9,955.3,290,955.3z"/>
	</g>
	<g>
		<g>
			<path class="st1" d="M846.1,938.7c0,2.1-1.5,3.8-3.6,3.8h-3v-7.6h3C844.6,934.9,846.1,936.6,846.1,938.7z M845.2,938.7
				c0-1.6-1.1-2.9-2.6-2.9h-2v5.7h2C844.1,941.6,845.2,940.3,845.2,938.7z"/>
		</g>
		<g>
			<path class="st1" d="M849.3,938.7c0-2.2,1.7-4,3.9-4c2.2,0,4,1.8,4,4c0,2.2-1.7,4-4,4C851,942.7,849.3,940.9,849.3,938.7z
				 M856.1,938.7c0-1.7-1.3-3-2.9-3c-1.7,0-2.9,1.3-2.9,3c0,1.7,1.3,3,2.9,3C854.9,941.7,856.1,940.4,856.1,938.7z"/>
		</g>
		<g>
			<path class="st1" d="M859.8,934.9h1.1l1.7,6.3l1.9-6.3h1l1.9,6.3l1.7-6.3h1.1l-2.2,7.6h-1.2l-1.8-6.1l-1.8,6.1H862L859.8,934.9z"
				/>
		</g>
		<g>
			<path class="st1" d="M879.3,934.9v7.6h-0.8l-3.9-5.7v5.7h-1v-7.6h0.8l3.9,5.7v-5.7H879.3z"/>
		</g>
		<g>
			<path class="st1" d="M887.5,941.6v1h-4.3v-7.6h1v6.7H887.5z"/>
		</g>
		<g>
			<path class="st1" d="M889.9,938.7c0-2.2,1.7-4,3.9-4c2.2,0,4,1.8,4,4c0,2.2-1.7,4-4,4C891.6,942.7,889.9,940.9,889.9,938.7z
				 M896.8,938.7c0-1.7-1.3-3-2.9-3c-1.7,0-2.9,1.3-2.9,3c0,1.7,1.3,3,2.9,3C895.5,941.7,896.8,940.4,896.8,938.7z"/>
		</g>
		<g>
			<path class="st1" d="M905.4,940.8H902l-0.6,1.7h-1.1l2.8-7.6h1.1l2.8,7.6H906L905.4,940.8z M905.1,939.9l-1.4-3.8l-1.4,3.8H905.1
				z"/>
		</g>
		<g>
			<path class="st1" d="M916.9,938.7c0,2.1-1.5,3.8-3.6,3.8h-3v-7.6h3C915.4,934.9,916.9,936.6,916.9,938.7z M915.9,938.7
				c0-1.6-1.1-2.9-2.6-2.9h-2v5.7h2C914.9,941.6,915.9,940.3,915.9,938.7z"/>
		</g>
		<g>
			<path class="st1" d="M926.5,935.8v2.5h3.2v1h-3.2v3.2h-1v-7.6h4.4v1H926.5z"/>
		</g>
		<g>
			<path class="st1" d="M936.2,939.6h-1.8v2.9h-1v-7.6h3c1.3,0,2.4,1.1,2.4,2.4c0,1-0.7,1.9-1.6,2.2l1.8,3.1h-1.1L936.2,939.6z
				 M934.4,938.7h2c0.8,0,1.4-0.6,1.4-1.4c0-0.8-0.6-1.4-1.4-1.4h-2V938.7z"/>
		</g>
		<g>
			<path class="st1" d="M941.9,938.7c0-2.2,1.7-4,3.9-4c2.2,0,4,1.8,4,4c0,2.2-1.7,4-4,4C943.6,942.7,941.9,940.9,941.9,938.7z
				 M948.8,938.7c0-1.7-1.3-3-2.9-3c-1.7,0-2.9,1.3-2.9,3c0,1.7,1.3,3,2.9,3C947.5,941.7,948.8,940.4,948.8,938.7z"/>
		</g>
		<g>
			<path class="st1" d="M960.4,942.5h-1v-6l-2.5,4.2h-0.1l-2.5-4.1v5.9h-1v-7.6h1.1l2.4,4l2.4-4h1.1V942.5z"/>
		</g>
	</g>
	<g>
		<g>
			<path class="st1" d="M839.3,952.9c0-0.7,0.5-1.2,1.2-1.2c0.7,0,1.2,0.5,1.2,1.2c0,0.7-0.5,1.2-1.2,1.2
				C839.9,954.1,839.3,953.6,839.3,952.9z M839.6,955.4h1.9v8.9h-1.9V955.4z"/>
		</g>
		<g>
			<path class="st1" d="M843.7,951.4h1.9v12.9h-1.9V951.4z"/>
		</g>
		<g>
			<path class="st1" d="M847.8,951.4h1.9v12.9h-1.9V951.4z"/>
		</g>
		<g>
			<path class="st1" d="M852,951.4h1.9v12.9H852V951.4z"/>
		</g>
		<g>
			<path class="st1" d="M864,955.4v8.9h-1.9v-1.1c-0.6,0.9-1.5,1.4-2.7,1.4c-2,0-3.4-1.3-3.4-3.6v-5.4h1.9v5.2c0,1.3,0.8,2.1,2,2.1
				c1.3,0,2.2-0.7,2.2-2.5v-4.7H864z"/>
		</g>
		<g>
			<path class="st1" d="M872.6,961.8c0,1.8-1.5,2.7-3.5,2.7c-1.8,0-3-0.8-3.6-2.1l1.6-1c0.3,0.8,1,1.3,2,1.3c0.8,0,1.5-0.3,1.5-1
				c0-1.6-4.8-0.7-4.8-3.9c0-1.7,1.4-2.7,3.2-2.7c1.5,0,2.7,0.7,3.3,1.8l-1.6,0.9c-0.3-0.7-0.9-1-1.7-1c-0.7,0-1.3,0.3-1.3,0.9
				C867.9,959.5,872.6,958.5,872.6,961.8z"/>
		</g>
		<g>
			<path class="st1" d="M876.7,957.3v4.2c0,1.1,0.7,1.1,2.2,1v1.7c-2.9,0.4-4.1-0.5-4.1-2.8v-4.2h-1.6v-1.8h1.6v-1.9l1.9-0.6v2.5
				h2.2v1.8H876.7z"/>
		</g>
		<g>
			<path class="st1" d="M885.4,955.3v2.1c-1.3-0.1-2.7,0.5-2.7,2.5v4.5h-1.9v-8.9h1.9v1.5C883.2,955.7,884.2,955.3,885.4,955.3z"/>
		</g>
		<g>
			<path class="st1" d="M895.3,955.4v8.9h-1.9V963c-0.7,0.9-1.7,1.5-3.1,1.5c-2.4,0-4.4-2-4.4-4.7c0-2.6,2-4.7,4.4-4.7
				c1.4,0,2.4,0.6,3.1,1.5v-1.3H895.3z M893.4,959.9c0-1.6-1.2-2.8-2.8-2.8c-1.6,0-2.8,1.2-2.8,2.8c0,1.6,1.2,2.8,2.8,2.8
				C892.2,962.7,893.4,961.5,893.4,959.9z"/>
		</g>
		<g>
			<path class="st1" d="M900.3,957.3v4.2c0,1.1,0.7,1.1,2.2,1v1.7c-2.9,0.4-4.1-0.5-4.1-2.8v-4.2h-1.6v-1.8h1.6v-1.9l1.9-0.6v2.5
				h2.2v1.8H900.3z"/>
		</g>
		<g>
			<path class="st1" d="M903.9,952.9c0-0.7,0.5-1.2,1.2-1.2c0.7,0,1.2,0.5,1.2,1.2c0,0.7-0.5,1.2-1.2,1.2
				C904.5,954.1,903.9,953.6,903.9,952.9z M904.2,955.4h1.9v8.9h-1.9V955.4z"/>
		</g>
		<g>
			<path class="st1" d="M907.8,959.9c0-2.6,2.1-4.7,4.7-4.7c2.6,0,4.7,2,4.7,4.7c0,2.6-2.1,4.7-4.7,4.7
				C909.9,964.5,907.8,962.5,907.8,959.9z M915.3,959.9c0-1.6-1.2-2.8-2.8-2.8c-1.6,0-2.8,1.2-2.8,2.8c0,1.6,1.2,2.8,2.8,2.8
				C914.1,962.7,915.3,961.5,915.3,959.9z"/>
		</g>
		<g>
			<path class="st1" d="M927,958.9v5.4h-1.9v-5.2c0-1.3-0.8-2.1-2-2.1c-1.3,0-2.2,0.7-2.2,2.5v4.7h-1.9v-8.9h1.9v1.1
				c0.6-0.9,1.5-1.4,2.7-1.4C925.5,955.2,927,956.6,927,958.9z"/>
		</g>
		<g>
			<path class="st1" d="M935.5,961.8c0,1.8-1.5,2.7-3.5,2.7c-1.8,0-3-0.8-3.6-2.1l1.6-1c0.3,0.8,1,1.3,2,1.3c0.8,0,1.5-0.3,1.5-1
				c0-1.6-4.8-0.7-4.8-3.9c0-1.7,1.4-2.7,3.2-2.7c1.5,0,2.7,0.7,3.3,1.8l-1.6,0.9c-0.3-0.7-0.9-1-1.7-1c-0.7,0-1.3,0.3-1.3,0.9
				C930.7,959.5,935.5,958.5,935.5,961.8z"/>
		</g>
		<g>
			<path class="st1" d="M936.8,963.2c0-0.7,0.6-1.3,1.3-1.3c0.7,0,1.3,0.6,1.3,1.3c0,0.7-0.6,1.3-1.3,1.3
				C937.4,964.5,936.8,963.9,936.8,963.2z"/>
		</g>
		<g>
			<path class="st1" d="M940.3,959.9c0-2.6,2-4.7,4.7-4.7c1.7,0,3.2,0.9,3.9,2.3l-1.6,1c-0.4-0.8-1.3-1.4-2.3-1.4
				c-1.6,0-2.7,1.2-2.7,2.8c0,1.6,1.2,2.8,2.7,2.8c1.1,0,1.9-0.5,2.4-1.4l1.6,0.9c-0.7,1.4-2.2,2.3-4,2.3
				C942.3,964.5,940.3,962.5,940.3,959.9z"/>
		</g>
		<g>
			<path class="st1" d="M949.7,959.9c0-2.6,2.1-4.7,4.7-4.7c2.6,0,4.7,2,4.7,4.7c0,2.6-2.1,4.7-4.7,4.7
				C951.8,964.5,949.7,962.5,949.7,959.9z M957.2,959.9c0-1.6-1.2-2.8-2.8-2.8s-2.8,1.2-2.8,2.8c0,1.6,1.2,2.8,2.8,2.8
				S957.2,961.5,957.2,959.9z"/>
		</g>
	</g>
</g>
<path id="XMLID_2_" class="st2" d="M622.6,681.4h-252c-17.7,0-32-14.3-32-32V348.3c0-17.7,14.3-32,32-32h252c17.7,0,32,14.3,32,32
	v301.1C654.6,667.1,640.3,681.4,622.6,681.4z"/>
<path id="XMLID_17_" class="st3" d="M635.6,664h-252c-17.7,0-32-14.3-32-32V361.3c0-17.7,14.3-32,32-32h252c17.7,0,32,14.3,32,32
	V632C667.6,649.7,653.3,664,635.6,664z"/>
<path id="XMLID_27_" class="st4" d="M635.6,649h-252c-17.7,0-32-14.3-32-32v15c0,17.7,14.3,32,32,32h252c17.7,0,32-14.3,32-32v-15
	C667.6,634.7,653.3,649,635.6,649z"/>
<path id="XMLID_16_" class="st5" d="M635.6,664h-252c-17.7,0-32-14.3-32-32V361.3c0-17.7,14.3-32,32-32h252c17.7,0,32,14.3,32,32
	V632C667.6,649.7,653.3,664,635.6,664z"/>
<path id="XMLID_9_" class="st6" d="M635.6,641h-252c-17.7,0-32-14.3-32-32V338.3c0-17.7,14.3-32,32-32h252c17.7,0,32,14.3,32,32V609
	C667.6,626.7,653.3,641,635.6,641z"/>
<path id="XMLID_15_" class="st6" d="M635.6,641h-252c-17.7,0-32-14.3-32-32V338.3c0-17.7,14.3-32,32-32h252c17.7,0,32,14.3,32,32
	V609C667.6,626.7,653.3,641,635.6,641z"/>
<path id="XMLID_25_" class="st7" d="M370.3,609V338.3c0-17.7,14.3-32,32-32h-18.7c-17.7,0-32,14.3-32,32V609c0,17.7,14.3,32,32,32
	h18.7C384.6,641,370.3,626.7,370.3,609z"/>
<path id="XMLID_24_" class="st8" d="M635.6,306.3h-18.7c17.7,0,32,14.3,32,32V609c0,17.7-14.3,32-32,32h18.7c17.7,0,32-14.3,32-32
	V338.3C667.6,320.6,653.3,306.3,635.6,306.3z"/>
<path id="XMLID_1_" class="st5" d="M635.6,641h-252c-17.7,0-32-14.3-32-32V338.3c0-17.7,14.3-32,32-32h252c17.7,0,32,14.3,32,32V609
	C667.6,626.7,653.3,641,635.6,641z"/>
<path id="XMLID_11_" class="st9" d="M621.6,412h-224c-4.4,0-8-3.6-8-8v-52c0-4.4,3.6-8,8-8h224c4.4,0,8,3.6,8,8v52
	C629.6,408.4,626,412,621.6,412z"/>
<g id="XMLID_47_">
	<polygon id="XMLID_73_" class="st10" points="592.9,360.5 591,358.5 592.9,356.6 607.6,356.6 609.5,358.2 607.5,360.5 	"/>
	<polygon id="XMLID_72_" class="st11" points="588.5,375.7 588.5,361 590.4,359.1 592.3,361 592.3,375.7 590.4,377.6 	"/>
	<polygon id="XMLID_71_" class="st10" points="608.1,375.7 608.1,361 610,358.7 611.9,361 611.9,375.7 610,377.6 	"/>
	<polygon id="XMLID_70_" class="st11" points="592.9,380 591,378.1 592.9,376.2 607.5,376.2 609.5,378.1 607.5,380 	"/>
	<polygon id="XMLID_69_" class="st11" points="588.5,395.6 588.5,380.9 590.4,379 592.3,380.9 592.3,395.6 590.4,397.5 	"/>
	<polygon id="XMLID_68_" class="st10" points="608.1,395.6 608.1,380.9 610,378.7 611.9,380.9 611.9,395.6 610,397.5 	"/>
	<polygon id="XMLID_67_" class="st11" points="592.9,400 591,398 592.9,396.1 607.5,396.1 609.5,398 607.5,400 	"/>
</g>
<g id="XMLID_54_">
	<polygon id="XMLID_74_" class="st10" points="558.3,360.5 556.3,358.5 558.3,356.6 572.9,356.6 574.8,358.2 572.9,360.5 	"/>
	<polygon id="XMLID_65_" class="st11" points="553.9,375.7 553.9,361 555.8,359.1 557.7,361 557.7,375.7 555.8,377.6 	"/>
	<polygon id="XMLID_64_" class="st10" points="573.5,375.7 573.5,361 575.4,358.7 577.3,361 577.3,375.7 575.4,377.6 	"/>
	<polygon id="XMLID_63_" class="st10" points="558.3,380 556.3,378.1 558.3,376.2 572.9,376.2 574.8,378.1 572.9,380 	"/>
	<polygon id="XMLID_62_" class="st11" points="553.9,395.6 553.9,380.9 555.8,379 557.7,380.9 557.7,395.6 555.8,397.5 	"/>
	<polygon id="XMLID_57_" class="st10" points="573.5,395.6 573.5,380.9 575.4,378.7 577.3,380.9 577.3,395.6 575.4,397.5 	"/>
	<polygon id="XMLID_55_" class="st10" points="558.3,400 556.3,398 558.3,396.1 572.9,396.1 574.8,398 572.9,400 	"/>
</g>
<g id="XMLID_83_" class="st12">
	<polygon id="XMLID_90_" class="st10" points="488.8,360.5 486.9,358.5 488.8,356.6 503.5,356.6 505.4,358.2 503.5,360.5 	"/>
	<polygon id="XMLID_89_" class="st10" points="484.4,375.7 484.4,361 486.4,359.1 488.3,361 488.3,375.7 486.4,377.6 	"/>
	<polygon id="XMLID_88_" class="st10" points="504,375.7 504,361 505.9,358.7 507.9,361 507.9,375.7 505.9,377.6 	"/>
	<polygon id="XMLID_87_" class="st10" points="488.8,380 486.9,378.1 488.8,376.2 503.5,376.2 505.4,378.1 503.5,380 	"/>
	<polygon id="XMLID_86_" class="st10" points="484.4,395.6 484.4,380.9 486.4,379 488.3,380.9 488.3,395.6 486.4,397.5 	"/>
	<polygon id="XMLID_85_" class="st10" points="504,395.6 504,380.9 505.9,378.7 507.9,380.9 507.9,395.6 505.9,397.5 	"/>
	<polygon id="XMLID_84_" class="st10" points="488.8,400 486.9,398 488.8,396.1 503.5,396.1 505.4,398 503.5,400 	"/>
</g>
<g id="XMLID_76_" class="st12">
	<polygon id="XMLID_107_" class="st10" points="523.5,360.5 521.6,358.5 523.5,356.6 538.2,356.6 540.1,358.2 538.1,360.5 	"/>
	<polygon id="XMLID_82_" class="st10" points="519.1,375.7 519.1,361 521,359.1 523,361 523,375.7 521,377.6 	"/>
	<polygon id="XMLID_81_" class="st10" points="538.7,375.7 538.7,361 540.6,358.7 542.6,361 542.6,375.7 540.6,377.6 	"/>
	<polygon id="XMLID_80_" class="st10" points="523.5,380 521.6,378.1 523.5,376.2 538.2,376.2 540.1,378.1 538.2,380 	"/>
	<polygon id="XMLID_79_" class="st10" points="519.1,395.6 519.1,380.9 521,379 523,380.9 523,395.6 521,397.5 	"/>
	<polygon id="XMLID_78_" class="st10" points="538.7,395.6 538.7,380.9 540.6,378.7 542.6,380.9 542.6,395.6 540.6,397.5 	"/>
	<polygon id="XMLID_77_" class="st10" points="523.5,400 521.6,398 523.5,396.1 538.2,396.1 540.1,398 538.2,400 	"/>
</g>
<g id="XMLID_91_" class="st12">
	<polygon id="XMLID_98_" class="st10" points="419.5,360.5 417.5,358.5 419.5,356.6 434.1,356.6 436,358.2 434.1,360.5 	"/>
	<polygon id="XMLID_97_" class="st10" points="415.1,375.7 415.1,361 417,359.1 418.9,361 418.9,375.7 417,377.6 	"/>
	<polygon id="XMLID_96_" class="st10" points="434.7,375.7 434.7,361 436.6,358.7 438.5,361 438.5,375.7 436.6,377.6 	"/>
	<polygon id="XMLID_95_" class="st10" points="419.5,380 417.5,378.1 419.5,376.2 434.1,376.2 436,378.1 434.1,380 	"/>
	<polygon id="XMLID_94_" class="st10" points="415.1,395.6 415.1,380.9 417,379 418.9,380.9 418.9,395.6 417,397.5 	"/>
	<polygon id="XMLID_93_" class="st10" points="434.7,395.6 434.7,380.9 436.6,378.7 438.5,380.9 438.5,395.6 436.6,397.5 	"/>
	<polygon id="XMLID_92_" class="st10" points="419.5,400 417.5,398 419.5,396.1 434.1,396.1 436,398 434.1,400 	"/>
</g>
<g id="XMLID_99_" class="st12">
	<polygon id="XMLID_106_" class="st10" points="454.1,360.5 452.2,358.5 454.1,356.6 468.8,356.6 470.7,358.2 468.8,360.5 	"/>
	<polygon id="XMLID_105_" class="st10" points="449.8,375.7 449.8,361 451.7,359.1 453.6,361 453.6,375.7 451.7,377.6 	"/>
	<polygon id="XMLID_104_" class="st10" points="469.3,375.7 469.3,361 471.3,358.7 473.2,361 473.2,375.7 471.3,377.6 	"/>
	<polygon id="XMLID_103_" class="st10" points="454.1,380 452.2,378.1 454.1,376.2 468.8,376.2 470.7,378.1 468.8,380 	"/>
	<polygon id="XMLID_102_" class="st10" points="449.8,395.6 449.8,380.9 451.7,379 453.6,380.9 453.6,395.6 451.7,397.5 	"/>
	<polygon id="XMLID_101_" class="st10" points="469.3,395.6 469.3,380.9 471.3,378.7 473.2,380.9 473.2,395.6 471.3,397.5 	"/>
	<polygon id="XMLID_100_" class="st10" points="454.1,400 452.2,398 454.1,396.1 468.8,396.1 470.7,398 468.8,400 	"/>
</g>
<path id="XMLID_42_" class="st13" d="M621.6,366h-224c-4.4,0-8-3.6-8-8v-6c0-4.4,3.6-8,8-8h224c4.4,0,8,3.6,8,8v6
	C629.6,362.4,626,366,621.6,366z"/>
<path id="XMLID_3_" class="st5" d="M621.6,412h-224c-4.4,0-8-3.6-8-8v-52c0-4.4,3.6-8,8-8h224c4.4,0,8,3.6,8,8v52
	C629.6,408.4,626,412,621.6,412z"/>
<path id="XMLID_41_" class="st14" d="M438.6,512.8h-48c-4.4,0-8-3.6-8-8v-48c0-4.4,3.6-8,8-8h48c4.4,0,8,3.6,8,8v48
	C446.6,509.3,443,512.8,438.6,512.8z"/>
<path id="XMLID_43_" class="st14" d="M527.2,512.8h-48c-4.4,0-8-3.6-8-8v-48c0-4.4,3.6-8,8-8h48c4.4,0,8,3.6,8,8v48
	C535.2,509.3,531.6,512.8,527.2,512.8z"/>
<path id="XMLID_45_" class="st14" d="M438.6,601.3h-48c-4.4,0-8-3.6-8-8v-48c0-4.4,3.6-8,8-8h48c4.4,0,8,3.6,8,8v48
	C446.6,597.8,443,601.3,438.6,601.3z"/>
<path id="XMLID_44_" class="st14" d="M527.2,601.3h-48c-4.4,0-8-3.6-8-8v-48c0-4.4,3.6-8,8-8h48c4.4,0,8,3.6,8,8v48
	C535.2,597.8,531.6,601.3,527.2,601.3z"/>
<path id="XMLID_46_" class="st14" d="M615.2,601.3h-48c-4.4,0-8-3.6-8-8V456.8c0-4.4,3.6-8,8-8h48c4.4,0,8,3.6,8,8v136.5
	C623.2,597.8,619.6,601.3,615.2,601.3z"/>
<path id="XMLID_19_" class="st15" d="M533.6,506.8h-48c-4.4,0-8-3.6-8-8v-48c0-4.4,3.6-8,8-8h48c4.4,0,8,3.6,8,8v48
	C541.6,503.3,538,506.8,533.6,506.8z"/>
<g>
	<path id="XMLID_14_" class="st16" d="M621.6,594.8h-48c-4.4,0-8-3.6-8-8v-136c0-4.4,3.6-8,8-8h48c4.4,0,8,3.6,8,8v136
		C629.6,591.3,626,594.8,621.6,594.8z"/>
	<path id="XMLID_56_" class="st17" d="M577.5,587.8c-2.1,0-3.9-1.7-3.9-3.9V442.8c-4.4,0-8,3.6-8,8v136c0,4.4,3.6,8,8,8h48
		c4.1,0,7.4-3.1,7.9-7H577.5z"/>
	<path id="XMLID_8_" class="st5" d="M621.6,594.8h-48c-4.4,0-8-3.6-8-8v-136c0-4.4,3.6-8,8-8h48c4.4,0,8,3.6,8,8v136
		C629.6,591.3,626,594.8,621.6,594.8z"/>
	<g id="XMLID_29_">
		<rect id="XMLID_38_" x="583.2" y="506" class="st10" width="28.8" height="7.2"/>
		<rect id="XMLID_39_" x="583.2" y="516.8" class="st10" width="28.8" height="7.2"/>
	</g>
	<path id="XMLID_50_" class="st18" d="M609,451.5h4.8c3.7,0,6.7,3,6.7,6.7v19.7"/>
</g>
<g>
	<path id="XMLID_59_" class="st19" d="M489.5,499.8c-2.1,0-3.9-1.7-3.9-3.9v-53.1c-4.4,0-8,3.6-8,8v48c0,4.4,3.6,8,8,8h48
		c4.1,0,7.4-3.1,7.9-7H489.5z"/>
	<path id="XMLID_7_" class="st5" d="M533.6,506.8h-48c-4.4,0-8-3.6-8-8v-48c0-4.4,3.6-8,8-8h48c4.4,0,8,3.6,8,8v48
		C541.6,503.3,538,506.8,533.6,506.8z"/>
	<rect id="XMLID_30_" x="497" y="471.7" class="st10" width="25.1" height="6.3"/>
	<path id="XMLID_49_" class="st18" d="M525.8,451.5h2.2c2.5,0,4.6,2.1,4.6,4.6v6.9"/>
</g>
<g>
	<path id="XMLID_10_" class="st15" d="M445.6,506.8h-48c-4.4,0-8-3.6-8-8v-48c0-4.4,3.6-8,8-8h48c4.4,0,8,3.6,8,8v48
		C453.6,503.3,450,506.8,445.6,506.8z"/>
	<path id="XMLID_60_" class="st19" d="M401.5,499.8c-2.1,0-3.9-1.7-3.9-3.9v-53.1c-4.4,0-8,3.6-8,8v48c0,4.4,3.6,8,8,8h48
		c4.1,0,7.4-3.1,7.9-7H401.5z"/>
	<path id="XMLID_5_" class="st5" d="M445.6,506.8h-48c-4.4,0-8-3.6-8-8v-48c0-4.4,3.6-8,8-8h48c4.4,0,8,3.6,8,8v48
		C453.6,503.3,450,506.8,445.6,506.8z"/>
	<g id="XMLID_37_">
		<rect id="XMLID_21_" x="407.6" y="471.7" class="st10" width="25.1" height="6.3"/>
		
			<rect id="XMLID_22_" x="407.6" y="471.7" transform="matrix(4.485460e-11 1 -1 4.485460e-11 894.9758 54.7098)" class="st10" width="25.1" height="6.3"/>
	</g>
	<path id="XMLID_48_" class="st18" d="M437.3,451.5h2.2c2.5,0,4.6,2.1,4.6,4.6v6.9"/>
</g>
<g>
	<path id="XMLID_18_" class="st15" d="M445.6,594.8h-48c-4.4,0-8-3.6-8-8v-48c0-4.4,3.6-8,8-8h48c4.4,0,8,3.6,8,8v48
		C453.6,591.3,450,594.8,445.6,594.8z"/>
	<path id="XMLID_61_" class="st19" d="M401.5,587.8c-2.1,0-3.9-1.7-3.9-3.9v-53.1c-4.4,0-8,3.6-8,8v48c0,4.4,3.6,8,8,8h48
		c4.1,0,7.4-3.1,7.9-7H401.5z"/>
	<path id="XMLID_13_" class="st5" d="M445.6,594.8h-48c-4.4,0-8-3.6-8-8v-48c0-4.4,3.6-8,8-8h48c4.4,0,8,3.6,8,8v48
		C453.6,591.3,450,594.8,445.6,594.8z"/>
	<g id="XMLID_36_">
		
			<rect id="XMLID_32_" x="409" y="559.7" transform="matrix(0.7071 0.7071 -0.7071 0.7071 521.4716 -133.2583)" class="st10" width="25.1" height="6.3"/>
		
			<rect id="XMLID_31_" x="409" y="559.7" transform="matrix(-0.7071 0.7071 -0.7071 -0.7071 1117.6938 662.7217)" class="st10" width="25.1" height="6.3"/>
	</g>
	<path id="XMLID_40_" class="st18" d="M437.3,540.2h2.2c2.5,0,4.6,2.1,4.6,4.6v6.9"/>
</g>
<g>
	<path id="XMLID_20_" class="st15" d="M533.6,594.8h-48c-4.4,0-8-3.6-8-8v-48c0-4.4,3.6-8,8-8h48c4.4,0,8,3.6,8,8v48
		C541.6,591.3,538,594.8,533.6,594.8z"/>
	<path id="XMLID_58_" class="st19" d="M489.5,587.8c-2.1,0-3.9-1.7-3.9-3.9v-53.1c-4.4,0-8,3.6-8,8v48c0,4.4,3.6,8,8,8h48
		c4.1,0,7.4-3.1,7.9-7H489.5z"/>
	<path id="XMLID_12_" class="st5" d="M533.6,594.8h-48c-4.4,0-8-3.6-8-8v-48c0-4.4,3.6-8,8-8h48c4.4,0,8,3.6,8,8v48
		C541.6,591.3,538,594.8,533.6,594.8z"/>
	<g id="XMLID_35_">
		<rect id="XMLID_34_" x="497" y="559.7" class="st10" width="25.1" height="6.3"/>
		
			<rect id="XMLID_33_" x="506.4" y="569.1" transform="matrix(1.794181e-10 1 -1 1.794181e-10 1081.8641 62.6786)" class="st10" width="6.3" height="6.3"/>
		
			<rect id="XMLID_23_" x="506.4" y="550.3" transform="matrix(1.794181e-10 1 -1 1.794181e-10 1063.0071 43.8215)" class="st10" width="6.3" height="6.3"/>
	</g>
	<path id="XMLID_4_" class="st18" d="M525.8,540.2h2.2c2.5,0,4.6,2.1,4.6,4.6v6.9"/>
</g>
</svg>
