<?xml version="1.0" encoding="utf-8"?>
<!-- Generator: Adobe Illustrator 23.1.1, SVG Export Plug-In . SVG Version: 6.00 Build 0)  -->
<svg version="1.1" id="Layer_1" xmlns="http://www.w3.org/2000/svg" xmlns:xlink="http://www.w3.org/1999/xlink" x="0px" y="0px"
	 viewBox="0 0 1000 1000" style="enable-background:new 0 0 1000 1000;" xml:space="preserve">
<style type="text/css">
	.st0{fill:#91A1AE;}
	.st1{fill:#EEF2F4;}
	.st2{opacity:0.32;fill:#FFFFFF;}
	.st3{fill:#EA633A;}
	.st4{fill:#D85335;}
	.st5{fill:#CE4829;stroke:#CE4829;stroke-width:6;stroke-linecap:round;stroke-linejoin:round;stroke-miterlimit:10;}
	.st6{fill:none;stroke:#1C1A34;stroke-width:6;stroke-linecap:round;stroke-linejoin:round;stroke-miterlimit:10;}
	.st7{fill:#EC1E39;}
	.st8{fill:#F22F50;}
	.st9{fill:#DD1738;}
	.st10{opacity:0.82;fill:#C91B38;}
	.st11{fill:#1C1931;}
	.st12{fill:#272544;}
	.st13{fill:#282642;}
	.st14{fill:#71B8BC;}
	.st15{opacity:0.62;fill:#D0F6FB;}
	.st16{fill:#D14D2F;stroke:#CE4829;stroke-width:6;stroke-linecap:round;stroke-linejoin:round;stroke-miterlimit:10;}
	.st17{fill:#656B82;}
	.st18{fill:#1FBE6A;}
	.st19{fill:#2CDF78;}
	.st20{fill:#2BCCA0;}
	.st21{fill:#21AA7F;}
	.st22{fill:#FF9839;}
	.st23{fill:#ED852F;}
	.st24{fill:#99393E;}
	.st25{fill:#822E36;}
	.st26{fill:#89C6CC;}
	.st27{opacity:0.92;fill:#D0F6FB;}
	.st28{fill:#EA633A;stroke:#EA633A;stroke-width:6;stroke-linecap:round;stroke-linejoin:round;stroke-miterlimit:10;}
	.st29{fill:#98AAB5;}
	.st30{fill:#7B929E;}
	.st31{fill:#6E818E;}
	.st32{fill:#5C6F7A;}
	.st33{fill:none;stroke:#1C1A34;stroke-width:8;stroke-linecap:round;stroke-linejoin:round;stroke-miterlimit:10;}
	.st34{fill:#FF4B53;}
	.st35{fill:#EA3F54;}
	.st36{fill:#663333;}
</style>
<rect id="XMLID_82_" x="0" class="st0" width="1000" height="1000"/>
<g>
	<g>
		<g>
			<path class="st1" d="M63.2,959.2c0,2.5-1.2,3.7-2.6,3.7c-1.1,0-1.9-0.5-2.1-1.4c-0.4,0.5-1,0.8-1.8,0.8c-1.5,0-2.6-1.2-2.6-2.8
				c0-1.6,1.1-2.8,2.6-2.8c0.7,0,1.2,0.3,1.6,0.7v-0.5h1.6v3.9c0,0.8,0.3,1.4,1,1.4c0.9,0,1.7-0.9,1.7-3c0-3-2.3-5.3-5.4-5.3
				c-3.1,0-5.6,2.4-5.6,5.7c0,3.3,2.5,5.7,5.9,5.7c1.1,0,2.1-0.2,2.9-0.4v0.6c-0.8,0.3-1.7,0.4-2.9,0.4c-3.7,0-6.5-2.6-6.5-6.2
				c0-3.4,2.7-6.2,6.2-6.2C61.1,953.3,63.2,956.4,63.2,959.2z M58.3,959.5c0-0.8-0.6-1.4-1.3-1.4c-0.8,0-1.3,0.5-1.3,1.4
				c0,0.8,0.6,1.3,1.3,1.3C57.8,960.9,58.3,960.3,58.3,959.5z"/>
		</g>
		<g>
			<path class="st1" d="M69.4,955.1v2c-1.2-0.1-2.6,0.5-2.6,2.4v4.3h-1.9v-8.6h1.9v1.4C67.3,955.5,68.3,955.1,69.4,955.1z"/>
		</g>
		<g>
			<path class="st1" d="M74.6,962.3c1,0,1.8-0.5,2.2-1.1l1.5,0.9c-0.8,1.2-2.1,1.9-3.8,1.9c-2.8,0-4.7-1.9-4.7-4.5
				c0-2.5,1.8-4.5,4.5-4.5c2.6,0,4.3,2.1,4.3,4.5c0,0.3,0,0.5-0.1,0.8h-6.8C72.1,961.6,73.2,962.3,74.6,962.3z M76.9,958.8
				c-0.3-1.5-1.3-2.1-2.5-2.1c-1.4,0-2.3,0.8-2.6,2.1H76.9z"/>
		</g>
		<g>
			<path class="st1" d="M88.9,955.2v8.6h-1.9v-1.2c-0.7,0.9-1.7,1.5-3,1.5c-2.3,0-4.3-2-4.3-4.5c0-2.6,1.9-4.5,4.3-4.5
				c1.3,0,2.3,0.5,3,1.4v-1.2H88.9z M87.1,959.5c0-1.6-1.2-2.7-2.7-2.7c-1.5,0-2.7,1.1-2.7,2.7c0,1.6,1.2,2.7,2.7,2.7
				C85.9,962.3,87.1,961.1,87.1,959.5z"/>
		</g>
		<g>
			<path class="st1" d="M91.1,951.3H93v12.5h-1.9V951.3z"/>
		</g>
		<g>
			<path class="st1" d="M102.9,955.2l-3.3,8.6h-2.1l-3.3-8.6h2l2.4,6.5l2.4-6.5H102.9z"/>
		</g>
		<g>
			<path class="st1" d="M104.2,955.2h1.9v8.9c0,2.4-1.2,3.5-3.5,3.3v-1.8c1.1,0.1,1.7-0.3,1.7-1.5V955.2z M104,952.8
				c0-0.7,0.5-1.2,1.2-1.2c0.7,0,1.2,0.5,1.2,1.2c0,0.6-0.5,1.2-1.2,1.2C104.5,954,104,953.4,104,952.8z"/>
		</g>
		<g>
			<path class="st1" d="M116,955.2l-3.3,8.8c-0.8,2.2-2.2,3.3-4.2,3.2v-1.7c1.2,0.1,1.9-0.5,2.3-1.7l0.1-0.2l-3.6-8.4h2l2.6,6.2
				l2.2-6.2H116z"/>
		</g>
	</g>
	<g>
		<path class="st1" d="M211.9,938.7c0,2.1-1.5,3.8-3.6,3.8h-3v-7.6h3C210.4,934.9,211.9,936.6,211.9,938.7z M210.9,938.7
			c0-1.6-1.1-2.9-2.6-2.9h-2v5.7h2C209.8,941.6,210.9,940.3,210.9,938.7z"/>
		<path class="st1" d="M219.5,940.8h-3.4l-0.6,1.7h-1.1l2.8-7.6h1.1l2.8,7.6h-1.1L219.5,940.8z M219.2,939.9l-1.4-3.8l-1.4,3.8
			H219.2z"/>
		<path class="st1" d="M226.4,939.4v3.1h-1v-3.1l-2.7-4.5h1.1l2.1,3.6l2.1-3.6h1.1L226.4,939.4z"/>
		<path class="st1" d="M241.9,940.3c0,1.5-1.2,2.4-2.6,2.4c-1.1,0-2.1-0.5-2.5-1.5l0.9-0.5c0.2,0.7,0.8,1.1,1.7,1.1
			c0.9,0,1.6-0.5,1.6-1.4c0-0.9-0.7-1.4-1.6-1.4h-0.3l-0.4-0.6l1.8-2.4H237v-0.9h4.6v0.9l-1.7,2.2C241,938.2,241.9,939,241.9,940.3z
			"/>
		<path class="st1" d="M247.5,934.9v7.6h-1V936l-1.6,0.5l-0.3-0.9l2-0.7H247.5z"/>
	</g>
	<g>
		<path class="st1" d="M58.9,938.7c0,2.1-1.5,3.8-3.6,3.8h-3v-7.6h3C57.4,934.9,58.9,936.6,58.9,938.7z M57.9,938.7
			c0-1.6-1.1-2.9-2.6-2.9h-2v5.7h2C56.8,941.6,57.9,940.3,57.9,938.7z"/>
		<path class="st1" d="M67,941.6v1h-4.6v-7.6h4.5v1h-3.5v2.3h3.2v0.9h-3.2v2.4H67z"/>
		<path class="st1" d="M70,940.8l0.9-0.5c0.3,0.8,0.9,1.4,2,1.4c1.1,0,1.6-0.5,1.6-1.2c0-0.8-0.7-1-1.8-1.4
			c-1.2-0.4-2.4-0.8-2.4-2.2c0-1.4,1.1-2.2,2.4-2.2c1.3,0,2.2,0.7,2.6,1.7l-0.8,0.5c-0.3-0.7-0.8-1.2-1.7-1.2
			c-0.8,0-1.4,0.4-1.4,1.1c0,0.7,0.5,1,1.6,1.3c1.3,0.4,2.6,0.8,2.6,2.3c0,1.3-1.1,2.2-2.6,2.2C71.5,942.7,70.4,941.9,70,940.8z"/>
		<path class="st1" d="M80,934.9v7.6h-1v-7.6H80z"/>
		<path class="st1" d="M91.3,939.2c0,1.9-1.4,3.5-3.7,3.5c-2.4,0-4-1.8-4-4c0-2.2,1.7-4,4-4c1.4,0,2.7,0.8,3.3,1.8l-0.9,0.5
			c-0.4-0.8-1.4-1.4-2.4-1.4c-1.8,0-3,1.3-3,3c0,1.7,1.2,3,3,3c1.6,0,2.5-0.9,2.7-2h-2.8v-0.9h3.8V939.2z"/>
		<path class="st1" d="M100.6,934.9v7.6h-0.8l-3.9-5.7v5.7h-1v-7.6h0.8l3.9,5.7v-5.7H100.6z"/>
		<path class="st1" d="M109.1,941.6v1h-4.6v-7.6h4.5v1h-3.5v2.3h3.2v0.9h-3.2v2.4H109.1z"/>
		<path class="st1" d="M119.2,938.7c0,2.1-1.5,3.8-3.6,3.8h-3v-7.6h3C117.6,934.9,119.2,936.6,119.2,938.7z M118.2,938.7
			c0-1.6-1.1-2.9-2.6-2.9h-2v5.7h2C117.1,941.6,118.2,940.3,118.2,938.7z"/>
		<path class="st1" d="M133.2,940.4c0,1.2-1,2.2-2.2,2.2h-3.3v-7.6h3c1.2,0,2.1,0.9,2.1,2.1c0,0.7-0.3,1.2-0.8,1.6
			C132.7,938.9,133.2,939.5,133.2,940.4z M128.7,935.8v2.3h2c0.6,0,1.1-0.5,1.1-1.2c0-0.6-0.5-1.2-1.1-1.2H128.7z M132.2,940.3
			c0-0.7-0.5-1.2-1.2-1.2h-2.3v2.5h2.3C131.7,941.6,132.2,941,132.2,940.3z"/>
		<path class="st1" d="M139.4,939.4v3.1h-1v-3.1l-2.7-4.5h1.1l2.1,3.6l2.1-3.6h1.1L139.4,939.4z"/>
	</g>
	<g>
		<path class="st1" d="M204.8,961.5l1.8-1c0.4,1.3,1.4,2.1,3.1,2.1c1.6,0,2.3-0.7,2.3-1.6c0-1.1-1-1.5-2.8-2
			c-1.9-0.6-3.8-1.3-3.8-3.6c0-2.3,1.9-3.6,4-3.6c2,0,3.5,1.1,4.3,2.7l-1.7,1c-0.4-1-1.2-1.7-2.6-1.7c-1.2,0-1.9,0.6-1.9,1.5
			c0,1,0.7,1.4,2.5,1.9c2.1,0.7,4.1,1.3,4.1,3.8c0,2.3-1.8,3.6-4.4,3.6C207.1,964.5,205.5,963.3,204.8,961.5z"/>
		<path class="st1" d="M227.5,955.4l-2.8,8.9h-1.9l-1.8-6l-1.9,6h-1.9l-2.8-8.9h2l1.7,6.1l1.9-6.1h1.8l1.8,6.1l1.7-6.1H227.5z"/>
		<path class="st1" d="M232.9,962.8c1.1,0,1.9-0.5,2.3-1.1l1.6,0.9c-0.8,1.2-2.1,1.9-3.9,1.9c-2.9,0-4.8-2-4.8-4.7
			c0-2.6,1.9-4.7,4.7-4.7c2.6,0,4.4,2.1,4.4,4.7c0,0.3,0,0.5-0.1,0.8h-7C230.3,962.1,231.5,962.8,232.9,962.8z M235.2,959.1
			c-0.3-1.5-1.4-2.2-2.5-2.2c-1.4,0-2.4,0.8-2.7,2.2H235.2z"/>
		<path class="st1" d="M243.1,962.8c1.1,0,1.9-0.5,2.3-1.1l1.6,0.9c-0.8,1.2-2.1,1.9-3.9,1.9c-2.9,0-4.8-2-4.8-4.7
			c0-2.6,1.9-4.7,4.7-4.7c2.6,0,4.4,2.1,4.4,4.7c0,0.3,0,0.5-0.1,0.8h-7C240.6,962.1,241.7,962.8,243.1,962.8z M245.5,959.1
			c-0.3-1.5-1.4-2.2-2.5-2.2c-1.4,0-2.4,0.8-2.7,2.2H245.5z"/>
		<path class="st1" d="M251.6,957.3v4.2c0,1.1,0.7,1.1,2.2,1v1.7c-2.9,0.4-4.1-0.5-4.1-2.8v-4.2H248v-1.8h1.6v-1.9l1.9-0.6v2.5h2.2
			v1.8H251.6z"/>
		<path class="st1" d="M269.5,951.9v12.4h-2v-5.4h-5.3v5.4h-2v-12.4h2v5.1h5.3v-5.1H269.5z"/>
		<path class="st1" d="M271.4,959.9c0-2.6,2.1-4.7,4.7-4.7c2.6,0,4.7,2,4.7,4.7c0,2.6-2.1,4.7-4.7,4.7
			C273.5,964.5,271.4,962.5,271.4,959.9z M278.8,959.9c0-1.6-1.2-2.8-2.8-2.8s-2.8,1.2-2.8,2.8c0,1.6,1.2,2.8,2.8,2.8
			S278.8,961.5,278.8,959.9z"/>
		<path class="st1" d="M295.5,958.8v5.5h-1.9v-5.4c0-1.2-0.7-1.9-1.7-1.9c-1.1,0-1.9,0.7-1.9,2.3v5H288v-5.4c0-1.2-0.6-1.9-1.7-1.9
			c-1.1,0-2,0.7-2,2.3v5h-1.9v-8.9h1.9v1.1c0.6-0.9,1.4-1.3,2.5-1.3c1.2,0,2,0.5,2.5,1.4c0.6-0.9,1.5-1.4,2.7-1.4
			C294.1,955.2,295.5,956.6,295.5,958.8z"/>
		<path class="st1" d="M301.9,962.8c1.1,0,1.9-0.5,2.3-1.1l1.6,0.9c-0.8,1.2-2.1,1.9-3.9,1.9c-2.9,0-4.8-2-4.8-4.7
			c0-2.6,1.9-4.7,4.7-4.7c2.6,0,4.4,2.1,4.4,4.7c0,0.3,0,0.5-0.1,0.8h-7C299.3,962.1,300.5,962.8,301.9,962.8z M304.2,959.1
			c-0.3-1.5-1.4-2.2-2.5-2.2c-1.4,0-2.4,0.8-2.7,2.2H304.2z"/>
	</g>
	<g>
		<g>
			<path class="st1" d="M846.1,938.7c0,2.1-1.5,3.8-3.6,3.8h-3v-7.6h3C844.6,934.9,846.1,936.6,846.1,938.7z M845.2,938.7
				c0-1.6-1.1-2.9-2.6-2.9h-2v5.7h2C844.1,941.6,845.2,940.3,845.2,938.7z"/>
		</g>
		<g>
			<path class="st1" d="M849.3,938.7c0-2.2,1.7-4,3.9-4c2.2,0,4,1.8,4,4c0,2.2-1.7,4-4,4C851,942.7,849.3,940.9,849.3,938.7z
				 M856.1,938.7c0-1.7-1.3-3-2.9-3c-1.7,0-2.9,1.3-2.9,3c0,1.7,1.3,3,2.9,3C854.9,941.7,856.1,940.4,856.1,938.7z"/>
		</g>
		<g>
			<path class="st1" d="M859.8,934.9h1.1l1.7,6.3l1.9-6.3h1l1.9,6.3l1.7-6.3h1.1l-2.2,7.6h-1.2l-1.8-6.1l-1.8,6.1H862L859.8,934.9z"
				/>
		</g>
		<g>
			<path class="st1" d="M879.3,934.9v7.6h-0.8l-3.9-5.7v5.7h-1v-7.6h0.8l3.9,5.7v-5.7H879.3z"/>
		</g>
		<g>
			<path class="st1" d="M887.5,941.6v1h-4.3v-7.6h1v6.7H887.5z"/>
		</g>
		<g>
			<path class="st1" d="M889.9,938.7c0-2.2,1.7-4,3.9-4c2.2,0,4,1.8,4,4c0,2.2-1.7,4-4,4C891.6,942.7,889.9,940.9,889.9,938.7z
				 M896.8,938.7c0-1.7-1.3-3-2.9-3c-1.7,0-2.9,1.3-2.9,3c0,1.7,1.3,3,2.9,3C895.5,941.7,896.8,940.4,896.8,938.7z"/>
		</g>
		<g>
			<path class="st1" d="M905.4,940.8H902l-0.6,1.7h-1.1l2.8-7.6h1.1l2.8,7.6H906L905.4,940.8z M905.1,939.9l-1.4-3.8l-1.4,3.8H905.1
				z"/>
		</g>
		<g>
			<path class="st1" d="M916.9,938.7c0,2.1-1.5,3.8-3.6,3.8h-3v-7.6h3C915.4,934.9,916.9,936.6,916.9,938.7z M915.9,938.7
				c0-1.6-1.1-2.9-2.6-2.9h-2v5.7h2C914.9,941.6,915.9,940.3,915.9,938.7z"/>
		</g>
		<g>
			<path class="st1" d="M926.5,935.8v2.5h3.2v1h-3.2v3.2h-1v-7.6h4.4v1H926.5z"/>
		</g>
		<g>
			<path class="st1" d="M936.2,939.6h-1.8v2.9h-1v-7.6h3c1.3,0,2.4,1.1,2.4,2.4c0,1-0.7,1.9-1.6,2.2l1.8,3.1h-1.1L936.2,939.6z
				 M934.4,938.7h2c0.8,0,1.4-0.6,1.4-1.4c0-0.8-0.6-1.4-1.4-1.4h-2V938.7z"/>
		</g>
		<g>
			<path class="st1" d="M941.9,938.7c0-2.2,1.7-4,3.9-4c2.2,0,4,1.8,4,4c0,2.2-1.7,4-4,4C943.6,942.7,941.9,940.9,941.9,938.7z
				 M948.8,938.7c0-1.7-1.3-3-2.9-3c-1.7,0-2.9,1.3-2.9,3c0,1.7,1.3,3,2.9,3C947.5,941.7,948.8,940.4,948.8,938.7z"/>
		</g>
		<g>
			<path class="st1" d="M960.4,942.5h-1v-6l-2.5,4.2h-0.1l-2.5-4.1v5.9h-1v-7.6h1.1l2.4,4l2.4-4h1.1V942.5z"/>
		</g>
	</g>
	<g>
		<g>
			<path class="st1" d="M839.3,952.9c0-0.7,0.5-1.2,1.2-1.2c0.7,0,1.2,0.5,1.2,1.2c0,0.7-0.5,1.2-1.2,1.2
				C839.9,954.1,839.3,953.6,839.3,952.9z M839.6,955.4h1.9v8.9h-1.9V955.4z"/>
		</g>
		<g>
			<path class="st1" d="M843.7,951.4h1.9v12.9h-1.9V951.4z"/>
		</g>
		<g>
			<path class="st1" d="M847.8,951.4h1.9v12.9h-1.9V951.4z"/>
		</g>
		<g>
			<path class="st1" d="M852,951.4h1.9v12.9H852V951.4z"/>
		</g>
		<g>
			<path class="st1" d="M864,955.4v8.9h-1.9v-1.1c-0.6,0.9-1.5,1.4-2.7,1.4c-2,0-3.4-1.3-3.4-3.6v-5.4h1.9v5.2c0,1.3,0.8,2.1,2,2.1
				c1.3,0,2.2-0.7,2.2-2.5v-4.7H864z"/>
		</g>
		<g>
			<path class="st1" d="M872.6,961.8c0,1.8-1.5,2.7-3.5,2.7c-1.8,0-3-0.8-3.6-2.1l1.6-1c0.3,0.8,1,1.3,2,1.3c0.8,0,1.5-0.3,1.5-1
				c0-1.6-4.8-0.7-4.8-3.9c0-1.7,1.4-2.7,3.2-2.7c1.5,0,2.7,0.7,3.3,1.8l-1.6,0.9c-0.3-0.7-0.9-1-1.7-1c-0.7,0-1.3,0.3-1.3,0.9
				C867.9,959.5,872.6,958.5,872.6,961.8z"/>
		</g>
		<g>
			<path class="st1" d="M876.7,957.3v4.2c0,1.1,0.7,1.1,2.2,1v1.7c-2.9,0.4-4.1-0.5-4.1-2.8v-4.2h-1.6v-1.8h1.6v-1.9l1.9-0.6v2.5
				h2.2v1.8H876.7z"/>
		</g>
		<g>
			<path class="st1" d="M885.4,955.3v2.1c-1.3-0.1-2.7,0.5-2.7,2.5v4.5h-1.9v-8.9h1.9v1.5C883.2,955.7,884.2,955.3,885.4,955.3z"/>
		</g>
		<g>
			<path class="st1" d="M895.3,955.4v8.9h-1.9V963c-0.7,0.9-1.7,1.5-3.1,1.5c-2.4,0-4.4-2-4.4-4.7c0-2.6,2-4.7,4.4-4.7
				c1.4,0,2.4,0.6,3.1,1.5v-1.3H895.3z M893.4,959.9c0-1.6-1.2-2.8-2.8-2.8c-1.6,0-2.8,1.2-2.8,2.8c0,1.6,1.2,2.8,2.8,2.8
				C892.2,962.7,893.4,961.5,893.4,959.9z"/>
		</g>
		<g>
			<path class="st1" d="M900.3,957.3v4.2c0,1.1,0.7,1.1,2.2,1v1.7c-2.9,0.4-4.1-0.5-4.1-2.8v-4.2h-1.6v-1.8h1.6v-1.9l1.9-0.6v2.5
				h2.2v1.8H900.3z"/>
		</g>
		<g>
			<path class="st1" d="M903.9,952.9c0-0.7,0.5-1.2,1.2-1.2c0.7,0,1.2,0.5,1.2,1.2c0,0.7-0.5,1.2-1.2,1.2
				C904.5,954.1,903.9,953.6,903.9,952.9z M904.2,955.4h1.9v8.9h-1.9V955.4z"/>
		</g>
		<g>
			<path class="st1" d="M907.8,959.9c0-2.6,2.1-4.7,4.7-4.7c2.6,0,4.7,2,4.7,4.7c0,2.6-2.1,4.7-4.7,4.7
				C909.9,964.5,907.8,962.5,907.8,959.9z M915.3,959.9c0-1.6-1.2-2.8-2.8-2.8c-1.6,0-2.8,1.2-2.8,2.8c0,1.6,1.2,2.8,2.8,2.8
				C914.1,962.7,915.3,961.5,915.3,959.9z"/>
		</g>
		<g>
			<path class="st1" d="M927,958.9v5.4h-1.9v-5.2c0-1.3-0.8-2.1-2-2.1c-1.3,0-2.2,0.7-2.2,2.5v4.7h-1.9v-8.9h1.9v1.1
				c0.6-0.9,1.5-1.4,2.7-1.4C925.5,955.2,927,956.6,927,958.9z"/>
		</g>
		<g>
			<path class="st1" d="M935.5,961.8c0,1.8-1.5,2.7-3.5,2.7c-1.8,0-3-0.8-3.6-2.1l1.6-1c0.3,0.8,1,1.3,2,1.3c0.8,0,1.5-0.3,1.5-1
				c0-1.6-4.8-0.7-4.8-3.9c0-1.7,1.4-2.7,3.2-2.7c1.5,0,2.7,0.7,3.3,1.8l-1.6,0.9c-0.3-0.7-0.9-1-1.7-1c-0.7,0-1.3,0.3-1.3,0.9
				C930.7,959.5,935.5,958.5,935.5,961.8z"/>
		</g>
		<g>
			<path class="st1" d="M936.8,963.2c0-0.7,0.6-1.3,1.3-1.3c0.7,0,1.3,0.6,1.3,1.3c0,0.7-0.6,1.3-1.3,1.3
				C937.4,964.5,936.8,963.9,936.8,963.2z"/>
		</g>
		<g>
			<path class="st1" d="M940.3,959.9c0-2.6,2-4.7,4.7-4.7c1.7,0,3.2,0.9,3.9,2.3l-1.6,1c-0.4-0.8-1.3-1.4-2.3-1.4
				c-1.6,0-2.7,1.2-2.7,2.8c0,1.6,1.2,2.8,2.7,2.8c1.1,0,1.9-0.5,2.4-1.4l1.6,0.9c-0.7,1.4-2.2,2.3-4,2.3
				C942.3,964.5,940.3,962.5,940.3,959.9z"/>
		</g>
		<g>
			<path class="st1" d="M949.7,959.9c0-2.6,2.1-4.7,4.7-4.7c2.6,0,4.7,2,4.7,4.7c0,2.6-2.1,4.7-4.7,4.7
				C951.8,964.5,949.7,962.5,949.7,959.9z M957.2,959.9c0-1.6-1.2-2.8-2.8-2.8s-2.8,1.2-2.8,2.8c0,1.6,1.2,2.8,2.8,2.8
				S957.2,961.5,957.2,959.9z"/>
		</g>
	</g>
</g>
<g>
	<path id="XMLID_12_" class="st2" d="M687.4,272.3c-4.5,0-8.7,1.6-12,4.3c-5.8-13.7-19.3-23.3-35-23.3c-21,0-38,17-38,38h66h10h28
		C706.4,280.8,697.9,272.3,687.4,272.3z"/>
	<rect id="XMLID_10_" x="330.1" y="502.8" class="st3" width="163.4" height="193.8"/>
	<rect id="XMLID_183_" x="468.1" y="600.7" class="st4" width="18" height="8.3"/>
	<rect id="XMLID_186_" x="330.1" y="573.5" class="st4" width="18" height="8.3"/>
	<rect id="XMLID_184_" x="393.3" y="656.8" class="st4" width="18" height="8.3"/>
	<rect id="XMLID_185_" x="427.7" y="687.8" class="st4" width="18" height="8.3"/>
	<rect id="XMLID_182_" x="458.1" y="590.4" class="st4" width="18" height="8.3"/>
	<rect id="XMLID_165_" x="330.1" y="502.8" class="st5" width="163.4" height="46"/>
	<rect id="XMLID_8_" x="330.1" y="502.8" class="st6" width="163.4" height="193.8"/>
	<polygon id="XMLID_7_" class="st7" points="527.8,538.6 293.6,538.6 353.9,378.6 588.2,378.6 	"/>
	<rect id="XMLID_192_" x="314.7" y="519.3" class="st8" width="18" height="8.3"/>
	<rect id="XMLID_193_" x="325" y="509" class="st9" width="18" height="8.3"/>
	<rect id="XMLID_191_" x="304.7" y="509" class="st8" width="18" height="8.3"/>
	<rect id="XMLID_188_" x="353.2" y="411.1" class="st8" width="18" height="8.3"/>
	<rect id="XMLID_187_" x="343.2" y="400.7" class="st8" width="18" height="8.3"/>
	<path id="XMLID_168_" class="st10" d="M495.4,538.6l-16.9-65.7l-12.7,10.3c-5.5,4.4-13.5,3.4-17.7-2.2l0,0c-4-5.4-2.9-13,2.4-17.1
		l84.4-64.5c4.5-3.4,10.7-3.4,15.1,0.1l26.9,21.2L495.4,538.6z"/>
	<polygon id="XMLID_9_" class="st6" points="527.8,538.6 293.6,538.6 353.9,378.6 588.2,378.6 	"/>
	<rect id="XMLID_137_" x="433.9" y="342.3" class="st11" width="38.4" height="36.3"/>
	<rect id="XMLID_15_" x="456.3" y="365.4" class="st12" width="14.8" height="8.3"/>
	<rect id="XMLID_17_" x="431.9" y="357.1" class="st12" width="13.8" height="8.3"/>
	<rect id="XMLID_11_" x="433.9" y="342.3" class="st6" width="38.4" height="36.3"/>
	<rect id="XMLID_138_" x="424.3" y="327.8" class="st13" width="57.7" height="14.5"/>
	<rect id="XMLID_19_" x="424.3" y="327.8" class="st6" width="57.7" height="14.5"/>
	<rect id="XMLID_139_" x="367.8" y="560.7" class="st14" width="88" height="72"/>
	<polygon id="XMLID_156_" class="st15" points="367.8,601.6 367.8,628 418.9,560.7 398.8,560.7 	"/>
	<polygon id="XMLID_155_" class="st15" points="371.1,632.7 381.1,632.7 435.8,560.7 425.8,560.7 	"/>
	<rect id="XMLID_29_" x="367.8" y="560.7" class="st6" width="88" height="72"/>
	<rect id="XMLID_166_" x="362.8" y="636.7" class="st16" width="98" height="12"/>
	<rect id="XMLID_140_" x="362.8" y="632.7" class="st17" width="98" height="12"/>
	<rect id="XMLID_37_" x="362.8" y="632.7" class="st6" width="98" height="12"/>
	<path id="XMLID_119_" class="st18" d="M871.8,523.2c15.4,25.7,26.6,109.8-21.7,109.8c-48.2,0-37-84.1-21.7-109.8
		c6.4-10.6,14.8-15.5,21.7-15.5C857,507.7,865.4,512.6,871.8,523.2z"/>
	<path id="XMLID_42_" class="st6" d="M871.8,523.2c15.4,25.7,26.6,109.8-21.7,109.8c-48.2,0-37-84.1-21.7-109.8
		c6.4-10.6,14.8-15.5,21.7-15.5C857,507.7,865.4,512.6,871.8,523.2z"/>
	<path id="XMLID_118_" class="st19" d="M825.7,494.2c15.4,30,26.6,128.2-21.7,128.2s-37-98.2-21.7-128.2
		c6.4-12.4,14.8-18.1,21.7-18.1S819.3,481.8,825.7,494.2z"/>
	<path id="XMLID_45_" class="st6" d="M825.7,494.2c15.4,30,26.6,128.2-21.7,128.2s-37-98.2-21.7-128.2c6.4-12.4,14.8-18.1,21.7-18.1
		S819.3,481.8,825.7,494.2z"/>
	<path id="XMLID_123_" class="st20" d="M256.3,619.4L256.3,619.4c-20.8,0-36.6-21.4-36.7-44.7c-0.6-58.7,14.4-121.1,39.1-184.9
		c1.1-2.9,4.7-2.8,5.7,0.2c21.5,65,31.5,126.9,28.7,186.1C292.2,599,276.6,619.4,256.3,619.4z"/>
	<path id="XMLID_51_" class="st6" d="M256.3,619.4L256.3,619.4c-20.8,0-36.6-21.4-36.7-44.7c-0.6-58.7,14.4-121.1,39.1-184.9
		c1.1-2.9,4.7-2.8,5.7,0.2c21.5,65,31.5,126.9,28.7,186.1C292.2,599,276.6,619.4,256.3,619.4z"/>
	<path id="XMLID_32_" class="st21" d="M212.2,448.9c15.4,34.6,26.6,147.8-21.7,147.8s-37-113.2-21.7-147.8
		c6.4-14.3,14.8-20.9,21.7-20.9S205.9,434.6,212.2,448.9z"/>
	<path id="XMLID_49_" class="st6" d="M212.2,448.9c15.4,34.6,26.6,147.8-21.7,147.8s-37-113.2-21.7-147.8
		c6.4-14.3,14.8-20.9,21.7-20.9S205.9,434.6,212.2,448.9z"/>
	<path id="XMLID_38_" class="st20" d="M166.1,494.2c15.4,30,26.6,128.2-21.7,128.2s-37-98.2-21.7-128.2
		c6.4-12.4,14.8-18.1,21.7-18.1C151.3,476.1,159.8,481.8,166.1,494.2z"/>
	<path id="XMLID_47_" class="st6" d="M166.1,494.2c15.4,30,26.6,128.2-21.7,128.2s-37-98.2-21.7-128.2c6.4-12.4,14.8-18.1,21.7-18.1
		C151.3,476.1,159.8,481.8,166.1,494.2z"/>
	<polygon id="XMLID_114_" class="st22" points="733.7,696.7 493.5,696.7 493.5,439.8 613.6,336.5 733.7,439.8 	"/>
	<rect id="XMLID_170_" x="716" y="500.7" class="st23" width="18" height="8.3"/>
	<rect id="XMLID_173_" x="706" y="511" class="st23" width="18" height="8.3"/>
	<rect id="XMLID_174_" x="696" y="500.7" class="st23" width="18" height="8.3"/>
	<rect id="XMLID_181_" x="622.1" y="413.4" class="st23" width="18" height="8.3"/>
	<rect id="XMLID_176_" x="503.5" y="511" class="st23" width="18" height="8.3"/>
	<rect id="XMLID_180_" x="693.3" y="652" class="st23" width="18" height="8.3"/>
	<rect id="XMLID_179_" x="552.1" y="451.7" class="st23" width="18" height="8.3"/>
	<rect id="XMLID_175_" x="493.5" y="500.7" class="st23" width="18" height="8.3"/>
	<rect id="XMLID_190_" x="484.5" y="382.4" class="st9" width="18" height="8.3"/>
	<rect id="XMLID_189_" x="446.8" y="505.8" class="st9" width="18" height="8.3"/>
	<rect id="XMLID_178_" x="603.4" y="588.4" class="st23" width="18" height="8.3"/>
	<rect id="XMLID_177_" x="593.4" y="578.1" class="st23" width="18" height="8.3"/>
	<polygon id="XMLID_167_" class="st3" points="493.5,439.8 493.5,455.4 613.3,353.9 733.7,455.8 733.7,439.8 613.6,336.5 	"/>
	<polygon id="XMLID_1_" class="st6" points="733.7,696.7 493.5,696.7 493.5,439.8 613.6,336.5 733.7,439.8 	"/>
	<rect id="XMLID_131_" x="621.3" y="560.7" class="st24" width="72" height="136"/>
	<rect id="XMLID_172_" x="685.1" y="560.7" class="st25" width="8.2" height="136"/>
	<rect id="XMLID_18_" x="621.3" y="560.7" class="st6" width="72" height="136"/>
	<rect id="XMLID_135_" x="531.4" y="560.7" class="st26" width="62" height="72"/>
	<polygon id="XMLID_160_" class="st27" points="531.4,620.6 576.9,560.7 556.8,560.7 531.4,594.2 	"/>
	<polygon id="XMLID_161_" class="st27" points="593.4,561.3 593.4,560.7 583.8,560.7 531.4,629.7 531.4,632.7 539.1,632.7 	"/>
	<rect id="XMLID_152_" x="524.4" y="636.7" class="st28" width="76" height="12"/>
	<rect id="XMLID_28_" x="531.4" y="560.7" class="st6" width="62" height="72"/>
	<rect id="XMLID_136_" x="524.4" y="632.7" class="st17" width="76" height="12"/>
	<rect id="XMLID_39_" x="524.4" y="632.7" class="st6" width="76" height="12"/>
	<circle id="XMLID_120_" class="st29" cx="613.6" cy="449.7" r="29"/>
	<path id="XMLID_153_" class="st30" d="M613.6,420.7c-2.8,0-5.5,0.4-8,1.1c12.1,3.5,21,14.6,21,27.9c0,13.2-8.9,24.4-21,27.9
		c2.5,0.7,5.2,1.1,8,1.1c16,0,29-13,29-29C642.6,433.6,629.6,420.7,613.6,420.7z"/>
	<circle id="XMLID_30_" class="st6" cx="613.6" cy="449.7" r="29"/>
	<path id="XMLID_133_" class="st31" d="M705.3,696.7h-96v-8c0-7.7,6.3-14,14-14h68c7.7,0,14,6.3,14,14V696.7z"/>
	<rect id="XMLID_169_" x="609.3" y="687.3" class="st32" width="96" height="9.3"/>
	<path id="XMLID_6_" class="st6" d="M705.3,696.7h-96v-8c0-7.7,6.3-14,14-14h68c7.7,0,14,6.3,14,14V696.7z"/>
	<line id="XMLID_115_" class="st33" x1="109.6" y1="696.7" x2="897" y2="696.7"/>
	<path id="XMLID_117_" class="st34" d="M767.4,458.5L767.4,458.5c-3.4,4.1-9.6,4.7-13.7,1.2L613.3,340.8L472.9,459.7
		c-4.1,3.5-10.2,2.9-13.7-1.2v0c-3.4-4.1-2.9-10.1,1.2-13.5l138-116.7l15-12.7l14.9,12.7l138,116.7
		C770.3,448.3,770.8,454.4,767.4,458.5z"/>
	<rect id="XMLID_194_" x="504.6" y="416.5" class="st35" width="14.4" height="8.3"/>
	<rect id="XMLID_195_" x="611.7" y="328.8" class="st35" width="13.3" height="8.3"/>
	<path id="XMLID_125_" class="st6" d="M767.4,458.5L767.4,458.5c-3.4,4.1-9.6,4.7-13.7,1.2L613.3,340.8L472.9,459.7
		c-4.1,3.5-10.2,2.9-13.7-1.2v0c-3.4-4.1-2.9-10.1,1.2-13.5l138-116.7l15-12.7l14.9,12.7l138,116.7
		C770.3,448.3,770.8,454.4,767.4,458.5z"/>
	<line id="XMLID_46_" class="st6" x1="804.5" y1="696.7" x2="804.5" y2="544.1"/>
	<line id="XMLID_43_" class="st6" x1="850.7" y1="696.7" x2="850.7" y2="544.1"/>
	<line id="XMLID_122_" class="st6" x1="613.6" y1="478.7" x2="613.6" y2="420.7"/>
	<line id="XMLID_121_" class="st6" x1="584.6" y1="449.7" x2="642.6" y2="449.7"/>
	<rect id="XMLID_130_" x="162.3" y="628.7" class="st6" width="188" height="4"/>
	<rect id="XMLID_132_" x="162.3" y="657" class="st6" width="188" height="4"/>
	<line id="XMLID_50_" class="st6" x1="191.1" y1="696.7" x2="191.1" y2="491.3"/>
	<line id="XMLID_48_" class="st6" x1="145" y1="696.7" x2="145" y2="544.1"/>
	<line id="XMLID_52_" class="st6" x1="258.7" y1="696.7" x2="258.7" y2="506.5"/>
	<polygon id="XMLID_124_" class="st36" points="337.9,696.7 323.9,696.7 323.9,609.7 330.9,597.3 337.9,609.7 	"/>
	<polygon id="XMLID_31_" class="st6" points="337.9,696.7 323.9,696.7 323.9,609.7 330.9,597.3 337.9,609.7 	"/>
	<polygon id="XMLID_126_" class="st36" points="300.7,696.7 286.7,696.7 286.7,609.7 293.7,597.3 300.7,609.7 	"/>
	<polygon id="XMLID_33_" class="st6" points="300.7,696.7 286.7,696.7 286.7,609.7 293.7,597.3 300.7,609.7 	"/>
	<polygon id="XMLID_127_" class="st36" points="263.6,696.7 249.6,696.7 249.6,609.7 256.6,597.3 263.6,609.7 	"/>
	<polygon id="XMLID_34_" class="st6" points="263.6,696.7 249.6,696.7 249.6,609.7 256.6,597.3 263.6,609.7 	"/>
	<polygon id="XMLID_128_" class="st36" points="226.5,696.7 212.5,696.7 212.5,609.7 219.5,597.3 226.5,609.7 	"/>
	<polygon id="XMLID_35_" class="st6" points="226.5,696.7 212.5,696.7 212.5,609.7 219.5,597.3 226.5,609.7 	"/>
	<polygon id="XMLID_129_" class="st36" points="189.4,696.7 175.4,696.7 175.4,609.7 182.4,597.3 189.4,609.7 	"/>
	<polygon id="XMLID_36_" class="st6" points="189.4,696.7 175.4,696.7 175.4,609.7 182.4,597.3 189.4,609.7 	"/>
	<line id="XMLID_134_" class="st6" x1="633" y1="629.5" x2="633" y2="652"/>
	<line id="XMLID_141_" class="st6" x1="851.6" y1="571.8" x2="859.7" y2="563"/>
	<line id="XMLID_142_" class="st6" x1="850.7" y1="601.7" x2="863.3" y2="593.3"/>
	<line id="XMLID_143_" class="st6" x1="850.1" y1="586.7" x2="841.7" y2="580.3"/>
	<line id="XMLID_144_" class="st6" x1="804.5" y1="563" x2="815.3" y2="555"/>
	<line id="XMLID_145_" class="st6" x1="804.5" y1="592" x2="821.3" y2="580.3"/>
	<line id="XMLID_146_" class="st6" x1="804" y1="575.7" x2="792.7" y2="565"/>
	<line id="XMLID_147_" class="st6" x1="273.5" y1="556.5" x2="258.7" y2="573.5"/>
	<line id="XMLID_148_" class="st6" x1="268.5" y1="516.6" x2="258.7" y2="531"/>
	<line id="XMLID_149_" class="st6" x1="258.7" y1="553.5" x2="245.5" y2="544.1"/>
	<rect id="XMLID_151_" x="638.4" y="583.5" class="st26" width="37.9" height="36.9"/>
	<polygon id="XMLID_158_" class="st27" points="638.4,611.7 659.8,583.5 639.8,583.5 638.4,585.3 	"/>
	<polygon id="XMLID_157_" class="st27" points="665.5,583.5 638.4,619.2 638.4,620.4 642.5,620.4 670.5,583.5 	"/>
	<rect id="XMLID_150_" x="638.4" y="583.5" class="st6" width="37.9" height="36.9"/>
	<line id="XMLID_154_" class="st6" x1="203.5" y1="509" x2="191.1" y2="521.5"/>
	<line id="XMLID_159_" class="st6" x1="191.1" y1="553.5" x2="207" y2="538.6"/>
	<line id="XMLID_162_" class="st6" x1="191.1" y1="534.5" x2="179.3" y2="523.8"/>
	<line id="XMLID_163_" class="st6" x1="145" y1="584" x2="155.7" y2="571.5"/>
	<line id="XMLID_164_" class="st6" x1="144.5" y1="565" x2="134.5" y2="556.5"/>
	<path id="XMLID_4_" class="st2" d="M276.1,236.7c0.1-0.8,0.1-1.7,0.1-2.5c0-15.3-12.4-27.7-27.7-27.7c-5.3,0-10.2,1.5-14.4,4
		c-3.5-2.5-7.8-4-12.4-4c-1.7,0-3.3,0.2-4.9,0.6c-2.3-14.1-14.5-24.9-29.3-24.9c-3,0-5.9,0.4-8.6,1.3c-7.9-6.2-17.8-9.9-28.6-9.9
		c-22.9,0-41.9,16.5-45.8,38.3c-0.2,0-0.5,0-0.7,0c-14.8,0-27,10.8-29.3,24.9H276.1z"/>
	<path id="XMLID_13_" class="st2" d="M974.1,202.9c-2-3-5.5-5-9.4-5c-2.1,0-4.1,0.6-5.8,1.6c-0.3-9.8-8.4-17.6-18.2-17.6
		c-2.8,0-5.4,0.6-7.7,1.7c-4.2-13.1-16.5-22.6-31-22.6c-17.9,0-32.5,14.5-32.5,32.5c0,3.3,0.5,6.4,1.4,9.4H974.1z"/>
</g>
</svg>
