<?xml version="1.0" encoding="utf-8"?>
<!-- Generator: Adobe Illustrator 23.1.1, SVG Export Plug-In . SVG Version: 6.00 Build 0)  -->
<svg version="1.1" id="Layer_1" xmlns="http://www.w3.org/2000/svg" xmlns:xlink="http://www.w3.org/1999/xlink" x="0px" y="0px"
	 viewBox="0 0 1000 1000" style="enable-background:new 0 0 1000 1000;" xml:space="preserve">
<style type="text/css">
	.st0{fill:#6B5465;}
	.st1{fill:#EEF2F4;}
	.st2{opacity:0.31;fill:#353535;stroke:#353535;stroke-width:6;stroke-linecap:round;stroke-linejoin:round;stroke-miterlimit:10;}
	.st3{fill:#14B0BF;}
	.st4{fill:#24C1C9;}
	.st5{fill:#353535;}
	.st6{fill:none;stroke:#353535;stroke-width:7;stroke-linecap:round;stroke-linejoin:round;stroke-miterlimit:10;}
	.st7{fill:none;stroke:#194254;stroke-width:6;stroke-linecap:round;stroke-linejoin:round;stroke-miterlimit:10;}
	.st8{fill:#FCE18D;}
	.st9{opacity:0.2;fill:#2C5871;}
	.st10{fill:none;stroke:#EAE9DA;stroke-width:4;stroke-linecap:round;stroke-linejoin:round;stroke-miterlimit:10;}
	.st11{fill:#2C5871;}
	.st12{fill:#3D6D82;}
	.st13{fill:none;stroke:#EAE9DA;stroke-width:2;stroke-linecap:round;stroke-linejoin:round;stroke-miterlimit:10;}
	.st14{fill:none;stroke:#EAE9DA;stroke-linecap:round;stroke-linejoin:round;stroke-miterlimit:10;}
</style>
<rect id="XMLID_7_" class="st0" width="1000" height="1000"/>
<g>
	<g>
		<g>
			<path class="st1" d="M63.2,959.2c0,2.5-1.2,3.7-2.6,3.7c-1.1,0-1.9-0.5-2.1-1.4c-0.4,0.5-1,0.8-1.8,0.8c-1.5,0-2.6-1.2-2.6-2.8
				c0-1.6,1.1-2.8,2.6-2.8c0.7,0,1.2,0.3,1.6,0.7v-0.5h1.6v3.9c0,0.8,0.3,1.4,1,1.4c0.9,0,1.7-0.9,1.7-3c0-3-2.3-5.3-5.4-5.3
				c-3.1,0-5.6,2.4-5.6,5.7c0,3.3,2.5,5.7,5.9,5.7c1.1,0,2.1-0.2,2.9-0.4v0.6c-0.8,0.3-1.7,0.4-2.9,0.4c-3.7,0-6.5-2.6-6.5-6.2
				c0-3.4,2.7-6.2,6.2-6.2C61.1,953.3,63.2,956.4,63.2,959.2z M58.3,959.5c0-0.8-0.6-1.4-1.3-1.4c-0.8,0-1.3,0.5-1.3,1.4
				c0,0.8,0.6,1.3,1.3,1.3C57.8,960.9,58.3,960.3,58.3,959.5z"/>
		</g>
		<g>
			<path class="st1" d="M69.4,955.1v2c-1.2-0.1-2.6,0.5-2.6,2.4v4.3h-1.9v-8.6h1.9v1.4C67.3,955.5,68.3,955.1,69.4,955.1z"/>
		</g>
		<g>
			<path class="st1" d="M74.6,962.3c1,0,1.8-0.5,2.2-1.1l1.5,0.9c-0.8,1.2-2.1,1.9-3.8,1.9c-2.8,0-4.7-1.9-4.7-4.5
				c0-2.5,1.8-4.5,4.5-4.5c2.6,0,4.3,2.1,4.3,4.5c0,0.3,0,0.5-0.1,0.8h-6.8C72.1,961.6,73.2,962.3,74.6,962.3z M76.9,958.8
				c-0.3-1.5-1.3-2.1-2.5-2.1c-1.4,0-2.3,0.8-2.6,2.1H76.9z"/>
		</g>
		<g>
			<path class="st1" d="M88.9,955.2v8.6h-1.9v-1.2c-0.7,0.9-1.7,1.5-3,1.5c-2.3,0-4.3-2-4.3-4.5c0-2.6,1.9-4.5,4.3-4.5
				c1.3,0,2.3,0.5,3,1.4v-1.2H88.9z M87.1,959.5c0-1.6-1.2-2.7-2.7-2.7c-1.5,0-2.7,1.1-2.7,2.7c0,1.6,1.2,2.7,2.7,2.7
				C85.9,962.3,87.1,961.1,87.1,959.5z"/>
		</g>
		<g>
			<path class="st1" d="M91.1,951.3H93v12.5h-1.9V951.3z"/>
		</g>
		<g>
			<path class="st1" d="M102.9,955.2l-3.3,8.6h-2.1l-3.3-8.6h2l2.4,6.5l2.4-6.5H102.9z"/>
		</g>
		<g>
			<path class="st1" d="M104.2,955.2h1.9v8.9c0,2.4-1.2,3.5-3.5,3.3v-1.8c1.1,0.1,1.7-0.3,1.7-1.5V955.2z M104,952.8
				c0-0.7,0.5-1.2,1.2-1.2c0.7,0,1.2,0.5,1.2,1.2c0,0.6-0.5,1.2-1.2,1.2C104.5,954,104,953.4,104,952.8z"/>
		</g>
		<g>
			<path class="st1" d="M116,955.2l-3.3,8.8c-0.8,2.2-2.2,3.3-4.2,3.2v-1.7c1.2,0.1,1.9-0.5,2.3-1.7l0.1-0.2l-3.6-8.4h2l2.6,6.2
				l2.2-6.2H116z"/>
		</g>
	</g>
	<g>
		<path class="st1" d="M211.9,938.7c0,2.1-1.5,3.8-3.6,3.8h-3v-7.6h3C210.4,934.9,211.9,936.6,211.9,938.7z M210.9,938.7
			c0-1.6-1.1-2.9-2.6-2.9h-2v5.7h2C209.8,941.6,210.9,940.3,210.9,938.7z"/>
		<path class="st1" d="M219.5,940.8h-3.4l-0.6,1.7h-1.1l2.8-7.6h1.1l2.8,7.6h-1.1L219.5,940.8z M219.2,939.9l-1.4-3.8l-1.4,3.8
			H219.2z"/>
		<path class="st1" d="M226.4,939.4v3.1h-1v-3.1l-2.7-4.5h1.1l2.1,3.6l2.1-3.6h1.1L226.4,939.4z"/>
		<path class="st1" d="M242.6,941.1h-0.9v1.4h-1v-1.4h-3.9v-0.9l2.7-5.2h1.1l-2.7,5.2h2.8V938h1v2.2h0.9V941.1z"/>
		<path class="st1" d="M250.5,940.3c0,1.5-1.2,2.4-2.6,2.4c-1.1,0-2.1-0.5-2.5-1.5l0.9-0.5c0.2,0.7,0.8,1.1,1.7,1.1
			c0.9,0,1.6-0.5,1.6-1.4c0-0.9-0.7-1.4-1.6-1.4h-0.3l-0.4-0.6l1.8-2.4h-3.4v-0.9h4.6v0.9l-1.7,2.2
			C249.7,938.2,250.5,939,250.5,940.3z"/>
	</g>
	<g>
		<path class="st1" d="M58.9,938.7c0,2.1-1.5,3.8-3.6,3.8h-3v-7.6h3C57.4,934.9,58.9,936.6,58.9,938.7z M57.9,938.7
			c0-1.6-1.1-2.9-2.6-2.9h-2v5.7h2C56.8,941.6,57.9,940.3,57.9,938.7z"/>
		<path class="st1" d="M67,941.6v1h-4.6v-7.6h4.5v1h-3.5v2.3h3.2v0.9h-3.2v2.4H67z"/>
		<path class="st1" d="M70,940.8l0.9-0.5c0.3,0.8,0.9,1.4,2,1.4c1.1,0,1.6-0.5,1.6-1.2c0-0.8-0.7-1-1.8-1.4
			c-1.2-0.4-2.4-0.8-2.4-2.2c0-1.4,1.1-2.2,2.4-2.2c1.3,0,2.2,0.7,2.6,1.7l-0.8,0.5c-0.3-0.7-0.8-1.2-1.7-1.2
			c-0.8,0-1.4,0.4-1.4,1.1c0,0.7,0.5,1,1.6,1.3c1.3,0.4,2.6,0.8,2.6,2.3c0,1.3-1.1,2.2-2.6,2.2C71.5,942.7,70.4,941.9,70,940.8z"/>
		<path class="st1" d="M80,934.9v7.6h-1v-7.6H80z"/>
		<path class="st1" d="M91.3,939.2c0,1.9-1.4,3.5-3.7,3.5c-2.4,0-4-1.8-4-4c0-2.2,1.7-4,4-4c1.4,0,2.7,0.8,3.3,1.8l-0.9,0.5
			c-0.4-0.8-1.4-1.4-2.4-1.4c-1.8,0-3,1.3-3,3c0,1.7,1.2,3,3,3c1.6,0,2.5-0.9,2.7-2h-2.8v-0.9h3.8V939.2z"/>
		<path class="st1" d="M100.6,934.9v7.6h-0.8l-3.9-5.7v5.7h-1v-7.6h0.8l3.9,5.7v-5.7H100.6z"/>
		<path class="st1" d="M109.1,941.6v1h-4.6v-7.6h4.5v1h-3.5v2.3h3.2v0.9h-3.2v2.4H109.1z"/>
		<path class="st1" d="M119.2,938.7c0,2.1-1.5,3.8-3.6,3.8h-3v-7.6h3C117.6,934.9,119.2,936.6,119.2,938.7z M118.2,938.7
			c0-1.6-1.1-2.9-2.6-2.9h-2v5.7h2C117.1,941.6,118.2,940.3,118.2,938.7z"/>
		<path class="st1" d="M133.2,940.4c0,1.2-1,2.2-2.2,2.2h-3.3v-7.6h3c1.2,0,2.1,0.9,2.1,2.1c0,0.7-0.3,1.2-0.8,1.6
			C132.7,938.9,133.2,939.5,133.2,940.4z M128.7,935.8v2.3h2c0.6,0,1.1-0.5,1.1-1.2c0-0.6-0.5-1.2-1.1-1.2H128.7z M132.2,940.3
			c0-0.7-0.5-1.2-1.2-1.2h-2.3v2.5h2.3C131.7,941.6,132.2,941,132.2,940.3z"/>
		<path class="st1" d="M139.4,939.4v3.1h-1v-3.1l-2.7-4.5h1.1l2.1,3.6l2.1-3.6h1.1L139.4,939.4z"/>
	</g>
	<g>
		<path class="st1" d="M209.9,959.8h-2.4v4.5h-2v-12.4h5c2.2,0,4,1.8,4,4c0,1.6-1,3-2.5,3.6l2.8,4.8h-2.2L209.9,959.8z M207.5,958
			h2.9c1.1,0,1.9-0.9,1.9-2.1c0-1.2-0.9-2.1-1.9-2.1h-2.9V958z"/>
		<path class="st1" d="M223.5,961.8h-5.3l-0.9,2.5h-2.2l4.5-12.4h2.4l4.5,12.4h-2.2L223.5,961.8z M222.8,959.9l-2-5.6l-2,5.6H222.8z
			"/>
		<path class="st1" d="M239.8,964.3h-2v-8.8l-3.8,6.2h-0.2l-3.8-6.2v8.9h-2v-12.4h2.2l3.7,6.2l3.8-6.2h2.2V964.3z"/>
	</g>
	<g>
		<g>
			<g>
				<path class="st1" d="M846.1,938.7c0,2.1-1.5,3.8-3.6,3.8h-3v-7.6h3C844.6,934.9,846.1,936.6,846.1,938.7z M845.2,938.7
					c0-1.6-1.1-2.9-2.6-2.9h-2v5.7h2C844.1,941.6,845.2,940.3,845.2,938.7z"/>
			</g>
			<g>
				<path class="st1" d="M849.3,938.7c0-2.2,1.7-4,3.9-4c2.2,0,4,1.8,4,4c0,2.2-1.7,4-4,4C851,942.7,849.3,940.9,849.3,938.7z
					 M856.1,938.7c0-1.7-1.3-3-2.9-3c-1.7,0-2.9,1.3-2.9,3c0,1.7,1.3,3,2.9,3C854.9,941.7,856.1,940.4,856.1,938.7z"/>
			</g>
			<g>
				<path class="st1" d="M859.8,934.9h1.1l1.7,6.3l1.9-6.3h1l1.9,6.3l1.7-6.3h1.1l-2.2,7.6h-1.2l-1.8-6.1l-1.8,6.1H862L859.8,934.9z
					"/>
			</g>
			<g>
				<path class="st1" d="M879.3,934.9v7.6h-0.8l-3.9-5.7v5.7h-1v-7.6h0.8l3.9,5.7v-5.7H879.3z"/>
			</g>
			<g>
				<path class="st1" d="M887.5,941.6v1h-4.3v-7.6h1v6.7H887.5z"/>
			</g>
			<g>
				<path class="st1" d="M889.9,938.7c0-2.2,1.7-4,3.9-4c2.2,0,4,1.8,4,4c0,2.2-1.7,4-4,4C891.6,942.7,889.9,940.9,889.9,938.7z
					 M896.8,938.7c0-1.7-1.3-3-2.9-3c-1.7,0-2.9,1.3-2.9,3c0,1.7,1.3,3,2.9,3C895.5,941.7,896.8,940.4,896.8,938.7z"/>
			</g>
			<g>
				<path class="st1" d="M905.4,940.8H902l-0.6,1.7h-1.1l2.8-7.6h1.1l2.8,7.6H906L905.4,940.8z M905.1,939.9l-1.4-3.8l-1.4,3.8
					H905.1z"/>
			</g>
			<g>
				<path class="st1" d="M916.9,938.7c0,2.1-1.5,3.8-3.6,3.8h-3v-7.6h3C915.4,934.9,916.9,936.6,916.9,938.7z M915.9,938.7
					c0-1.6-1.1-2.9-2.6-2.9h-2v5.7h2C914.9,941.6,915.9,940.3,915.9,938.7z"/>
			</g>
			<g>
				<path class="st1" d="M926.5,935.8v2.5h3.2v1h-3.2v3.2h-1v-7.6h4.4v1H926.5z"/>
			</g>
			<g>
				<path class="st1" d="M936.2,939.6h-1.8v2.9h-1v-7.6h3c1.3,0,2.4,1.1,2.4,2.4c0,1-0.7,1.9-1.6,2.2l1.8,3.1h-1.1L936.2,939.6z
					 M934.4,938.7h2c0.8,0,1.4-0.6,1.4-1.4c0-0.8-0.6-1.4-1.4-1.4h-2V938.7z"/>
			</g>
			<g>
				<path class="st1" d="M941.9,938.7c0-2.2,1.7-4,3.9-4c2.2,0,4,1.8,4,4c0,2.2-1.7,4-4,4C943.6,942.7,941.9,940.9,941.9,938.7z
					 M948.8,938.7c0-1.7-1.3-3-2.9-3c-1.7,0-2.9,1.3-2.9,3c0,1.7,1.3,3,2.9,3C947.5,941.7,948.8,940.4,948.8,938.7z"/>
			</g>
			<g>
				<path class="st1" d="M960.4,942.5h-1v-6l-2.5,4.2h-0.1l-2.5-4.1v5.9h-1v-7.6h1.1l2.4,4l2.4-4h1.1V942.5z"/>
			</g>
		</g>
		<g>
			<g>
				<path class="st1" d="M839.3,952.9c0-0.7,0.5-1.2,1.2-1.2c0.7,0,1.2,0.5,1.2,1.2c0,0.7-0.5,1.2-1.2,1.2
					C839.9,954.1,839.3,953.6,839.3,952.9z M839.6,955.4h1.9v8.9h-1.9V955.4z"/>
			</g>
			<g>
				<path class="st1" d="M843.7,951.4h1.9v12.9h-1.9V951.4z"/>
			</g>
			<g>
				<path class="st1" d="M847.8,951.4h1.9v12.9h-1.9V951.4z"/>
			</g>
			<g>
				<path class="st1" d="M852,951.4h1.9v12.9H852V951.4z"/>
			</g>
			<g>
				<path class="st1" d="M864,955.4v8.9h-1.9v-1.1c-0.6,0.9-1.5,1.4-2.7,1.4c-2,0-3.4-1.3-3.4-3.6v-5.4h1.9v5.2c0,1.3,0.8,2.1,2,2.1
					c1.3,0,2.2-0.7,2.2-2.5v-4.7H864z"/>
			</g>
			<g>
				<path class="st1" d="M872.6,961.8c0,1.8-1.5,2.7-3.5,2.7c-1.8,0-3-0.8-3.6-2.1l1.6-1c0.3,0.8,1,1.3,2,1.3c0.8,0,1.5-0.3,1.5-1
					c0-1.6-4.8-0.7-4.8-3.9c0-1.7,1.4-2.7,3.2-2.7c1.5,0,2.7,0.7,3.3,1.8l-1.6,0.9c-0.3-0.7-0.9-1-1.7-1c-0.7,0-1.3,0.3-1.3,0.9
					C867.9,959.5,872.6,958.5,872.6,961.8z"/>
			</g>
			<g>
				<path class="st1" d="M876.7,957.3v4.2c0,1.1,0.7,1.1,2.2,1v1.7c-2.9,0.4-4.1-0.5-4.1-2.8v-4.2h-1.6v-1.8h1.6v-1.9l1.9-0.6v2.5
					h2.2v1.8H876.7z"/>
			</g>
			<g>
				<path class="st1" d="M885.4,955.3v2.1c-1.3-0.1-2.7,0.5-2.7,2.5v4.5h-1.9v-8.9h1.9v1.5C883.2,955.7,884.2,955.3,885.4,955.3z"/>
			</g>
			<g>
				<path class="st1" d="M895.3,955.4v8.9h-1.9V963c-0.7,0.9-1.7,1.5-3.1,1.5c-2.4,0-4.4-2-4.4-4.7c0-2.6,2-4.7,4.4-4.7
					c1.4,0,2.4,0.6,3.1,1.5v-1.3H895.3z M893.4,959.9c0-1.6-1.2-2.8-2.8-2.8c-1.6,0-2.8,1.2-2.8,2.8c0,1.6,1.2,2.8,2.8,2.8
					C892.2,962.7,893.4,961.5,893.4,959.9z"/>
			</g>
			<g>
				<path class="st1" d="M900.3,957.3v4.2c0,1.1,0.7,1.1,2.2,1v1.7c-2.9,0.4-4.1-0.5-4.1-2.8v-4.2h-1.6v-1.8h1.6v-1.9l1.9-0.6v2.5
					h2.2v1.8H900.3z"/>
			</g>
			<g>
				<path class="st1" d="M903.9,952.9c0-0.7,0.5-1.2,1.2-1.2c0.7,0,1.2,0.5,1.2,1.2c0,0.7-0.5,1.2-1.2,1.2
					C904.5,954.1,903.9,953.6,903.9,952.9z M904.2,955.4h1.9v8.9h-1.9V955.4z"/>
			</g>
			<g>
				<path class="st1" d="M907.8,959.9c0-2.6,2.1-4.7,4.7-4.7c2.6,0,4.7,2,4.7,4.7c0,2.6-2.1,4.7-4.7,4.7
					C909.9,964.5,907.8,962.5,907.8,959.9z M915.3,959.9c0-1.6-1.2-2.8-2.8-2.8c-1.6,0-2.8,1.2-2.8,2.8c0,1.6,1.2,2.8,2.8,2.8
					C914.1,962.7,915.3,961.5,915.3,959.9z"/>
			</g>
			<g>
				<path class="st1" d="M927,958.9v5.4h-1.9v-5.2c0-1.3-0.8-2.1-2-2.1c-1.3,0-2.2,0.7-2.2,2.5v4.7h-1.9v-8.9h1.9v1.1
					c0.6-0.9,1.5-1.4,2.7-1.4C925.5,955.2,927,956.6,927,958.9z"/>
			</g>
			<g>
				<path class="st1" d="M935.5,961.8c0,1.8-1.5,2.7-3.5,2.7c-1.8,0-3-0.8-3.6-2.1l1.6-1c0.3,0.8,1,1.3,2,1.3c0.8,0,1.5-0.3,1.5-1
					c0-1.6-4.8-0.7-4.8-3.9c0-1.7,1.4-2.7,3.2-2.7c1.5,0,2.7,0.7,3.3,1.8l-1.6,0.9c-0.3-0.7-0.9-1-1.7-1c-0.7,0-1.3,0.3-1.3,0.9
					C930.7,959.5,935.5,958.5,935.5,961.8z"/>
			</g>
			<g>
				<path class="st1" d="M936.8,963.2c0-0.7,0.6-1.3,1.3-1.3c0.7,0,1.3,0.6,1.3,1.3c0,0.7-0.6,1.3-1.3,1.3
					C937.4,964.5,936.8,963.9,936.8,963.2z"/>
			</g>
			<g>
				<path class="st1" d="M940.3,959.9c0-2.6,2-4.7,4.7-4.7c1.7,0,3.2,0.9,3.9,2.3l-1.6,1c-0.4-0.8-1.3-1.4-2.3-1.4
					c-1.6,0-2.7,1.2-2.7,2.8c0,1.6,1.2,2.8,2.7,2.8c1.1,0,1.9-0.5,2.4-1.4l1.6,0.9c-0.7,1.4-2.2,2.3-4,2.3
					C942.3,964.5,940.3,962.5,940.3,959.9z"/>
			</g>
			<g>
				<path class="st1" d="M949.7,959.9c0-2.6,2.1-4.7,4.7-4.7c2.6,0,4.7,2,4.7,4.7c0,2.6-2.1,4.7-4.7,4.7
					C951.8,964.5,949.7,962.5,949.7,959.9z M957.2,959.9c0-1.6-1.2-2.8-2.8-2.8s-2.8,1.2-2.8,2.8c0,1.6,1.2,2.8,2.8,2.8
					S957.2,961.5,957.2,959.9z"/>
			</g>
		</g>
	</g>
</g>
<g>
	<path id="XMLID_135_" class="st2" d="M677,485.6V457c0-3.3-2.7-6-6-6H329c-3.3,0-6,2.7-6,6v28.6c13.3,0,24,10.7,24,24
		s-10.7,24-24,24V593c0,1.1,0.9,2,2,2h204.4v-23h16.5v23H675c1.1,0,2-0.9,2-2v-59.4c-13.3,0-24-10.7-24-24S663.7,485.6,677,485.6z
		 M342.2,572c-5,0-9-4-9-9c0-5,4-9,9-9s9,4,9,9C351.2,568,347.2,572,342.2,572z M658.2,554c5,0,9,4,9,9c0,5-4,9-9,9s-9-4-9-9
		C649.2,558,653.2,554,658.2,554z"/>
	<path id="XMLID_164_" class="st3" d="M677,478.6V450c0-3.3-2.7-6-6-6H329c-3.3,0-6,2.7-6,6v28.6c13.3,0,24,10.7,24,24
		s-10.7,24-24,24V586c0,1.1,0.9,2,2,2h204.4v-23h16.5v23H675c1.1,0,2-0.9,2-2v-59.4c-13.3,0-24-10.7-24-24S663.7,478.6,677,478.6z
		 M342.2,565c-5,0-9-4-9-9c0-5,4-9,9-9s9,4,9,9C351.2,561,347.2,565,342.2,565z M658.2,547c5,0,9,4,9,9c0,5-4,9-9,9s-9-4-9-9
		C649.2,551,653.2,547,658.2,547z"/>
	<path id="XMLID_4_" class="st4" d="M677,453v-5.4c0-2-2.7-3.6-6-3.6H329c-3.3,0-6,1.6-6,3.6v5.4H677z"/>
	<rect id="XMLID_140_" x="546" y="562" class="st5" width="131" height="26"/>
	<line id="XMLID_136_" class="st6" x1="361.8" y1="549.1" x2="638.2" y2="549.1"/>
	<circle id="XMLID_138_" class="st7" cx="658.2" cy="556" r="9"/>
	<rect id="XMLID_71_" x="323" y="562" class="st5" width="206.4" height="26"/>
	<g id="XMLID_139_">
		<g id="XMLID_294_">
			<path id="XMLID_296_" class="st8" d="M519.8,588h-7.2c-0.5,0-0.9-0.4-0.9-0.9V569c0-1.7,1.3-3,3-3h3c1.7,0,3,1.3,3,3v18.1
				C520.8,587.6,520.4,588,519.8,588z"/>
		</g>
		<g id="XMLID_291_">
			<path id="XMLID_293_" class="st8" d="M505.8,588h-7.2c-0.5,0-0.9-0.4-0.9-0.9V569c0-1.7,1.3-3,3-3h3c1.7,0,3,1.3,3,3v18.1
				C506.8,587.6,506.4,588,505.8,588z"/>
		</g>
		<g id="XMLID_288_">
			<path id="XMLID_290_" class="st8" d="M491.8,588h-7.2c-0.5,0-0.9-0.4-0.9-0.9V569c0-1.7,1.3-3,3-3h3c1.7,0,3,1.3,3,3v18.1
				C492.8,587.6,492.4,588,491.8,588z"/>
		</g>
		<g id="XMLID_285_">
			<path id="XMLID_287_" class="st8" d="M477.8,588h-7.2c-0.5,0-0.9-0.4-0.9-0.9V569c0-1.7,1.3-3,3-3h3c1.7,0,3,1.3,3,3v18.1
				C478.8,587.6,478.4,588,477.8,588z"/>
		</g>
		<g id="XMLID_282_">
			<path id="XMLID_284_" class="st8" d="M463.8,588h-7.2c-0.5,0-0.9-0.4-0.9-0.9V569c0-1.7,1.3-3,3-3h3c1.7,0,3,1.3,3,3v18.1
				C464.8,587.6,464.4,588,463.8,588z"/>
		</g>
		<g id="XMLID_279_">
			<path id="XMLID_281_" class="st8" d="M449.8,588h-7.2c-0.5,0-0.9-0.4-0.9-0.9V569c0-1.7,1.3-3,3-3h3c1.7,0,3,1.3,3,3v18.1
				C450.8,587.6,450.4,588,449.8,588z"/>
		</g>
		<g id="XMLID_276_">
			<path id="XMLID_278_" class="st8" d="M435.8,588h-7.2c-0.5,0-0.9-0.4-0.9-0.9V569c0-1.7,1.3-3,3-3h3c1.7,0,3,1.3,3,3v18.1
				C436.8,587.6,436.4,588,435.8,588z"/>
		</g>
		<g id="XMLID_272_">
			<path id="XMLID_274_" class="st8" d="M421.8,588h-7.2c-0.5,0-0.9-0.4-0.9-0.9V569c0-1.7,1.3-3,3-3h3c1.7,0,3,1.3,3,3v18.1
				C422.8,587.6,422.4,588,421.8,588z"/>
		</g>
		<g id="XMLID_269_">
			<path id="XMLID_271_" class="st8" d="M407.8,588h-7.2c-0.5,0-0.9-0.4-0.9-0.9V569c0-1.7,1.3-3,3-3h3c1.7,0,3,1.3,3,3v18.1
				C408.8,587.6,408.4,588,407.8,588z"/>
		</g>
		<g id="XMLID_266_">
			<path id="XMLID_268_" class="st8" d="M393.8,588h-7.2c-0.5,0-0.9-0.4-0.9-0.9V569c0-1.7,1.3-3,3-3h3c1.7,0,3,1.3,3,3v18.1
				C394.8,587.6,394.4,588,393.8,588z"/>
		</g>
		<g id="XMLID_263_">
			<path id="XMLID_265_" class="st8" d="M379.8,588h-7.2c-0.5,0-0.9-0.4-0.9-0.9V569c0-1.7,1.3-3,3-3h3c1.7,0,3,1.3,3,3v18.1
				C380.8,587.6,380.4,588,379.8,588z"/>
		</g>
		<g id="XMLID_260_">
			<path id="XMLID_262_" class="st8" d="M365.8,588h-7.2c-0.5,0-0.9-0.4-0.9-0.9V569c0-1.7,1.3-3,3-3h3c1.7,0,3,1.3,3,3v18.1
				C366.8,587.6,366.4,588,365.8,588z"/>
		</g>
	</g>
	<g id="XMLID_141_">
		<g id="XMLID_249_">
			<path id="XMLID_251_" class="st8" d="M647.6,588h-9v-19c0-1.7,1.3-3,3-3h3c1.7,0,3,1.3,3,3V588z"/>
		</g>
		<g id="XMLID_241_">
			<path id="XMLID_248_" class="st8" d="M633.6,588h-9v-19c0-1.7,1.3-3,3-3h3c1.7,0,3,1.3,3,3V588z"/>
		</g>
		<g id="XMLID_238_">
			<path id="XMLID_240_" class="st8" d="M619.6,588h-9v-19c0-1.7,1.3-3,3-3h3c1.7,0,3,1.3,3,3V588z"/>
		</g>
		<g id="XMLID_234_">
			<path id="XMLID_236_" class="st8" d="M605.6,588h-9v-19c0-1.7,1.3-3,3-3h3c1.7,0,3,1.3,3,3V588z"/>
		</g>
		<g id="XMLID_231_">
			<path id="XMLID_233_" class="st8" d="M591.6,588h-9v-19c0-1.7,1.3-3,3-3h3c1.7,0,3,1.3,3,3V588z"/>
		</g>
		<g id="XMLID_228_">
			<path id="XMLID_230_" class="st8" d="M577.6,588h-9v-19c0-1.7,1.3-3,3-3h3c1.7,0,3,1.3,3,3V588z"/>
		</g>
		<g id="XMLID_225_">
			<path id="XMLID_227_" class="st8" d="M563.6,588h-9v-19c0-1.7,1.3-3,3-3h3c1.7,0,3,1.3,3,3V588z"/>
		</g>
	</g>
	<path id="XMLID_103_" class="st7" d="M653,502.6c0-12,8.8-22,20.3-23.7c2.1-0.3,3.7-2,3.7-4.1v-20.5c0-5.6-4.6-10.2-10.2-10.2
		H333.2c-5.6,0-10.2,4.6-10.2,10.2v20.5c0,2.1,1.6,3.8,3.7,4.1c11.5,1.8,20.3,11.7,20.3,23.7c0,12-8.8,22-20.3,23.7
		c-2.1,0.3-3.7,2-3.7,4.1v51.4c0,3.4,2.8,6.2,6.2,6.2h196c2.3,0,4.2-1.9,4.2-4.2V565h16.5v18.8c0,2.3,1.9,4.2,4.2,4.2h120.7
		c3.4,0,6.2-2.8,6.2-6.2v-51.4c0-2.1-1.6-3.8-3.7-4.1C661.8,524.5,653,514.6,653,502.6z"/>
	<circle id="XMLID_39_" class="st7" cx="342.2" cy="556" r="9"/>
	<g>
		<path id="XMLID_137_" class="st9" d="M405.8,535.6h-34c-2.2,0-4-1.8-4-4v-50c0-2.2,1.8-4,4-4h34c2.2,0,4,1.8,4,4v50
			C409.8,533.8,408,535.6,405.8,535.6z"/>
		<g id="XMLID_8_">
			<g>
				<g id="XMLID_348_">
					<line id="XMLID_349_" class="st10" x1="361.8" y1="526.6" x2="367.8" y2="526.6"/>
				</g>
				<g id="XMLID_346_">
					<line id="XMLID_347_" class="st10" x1="361.8" y1="518.6" x2="367.8" y2="518.6"/>
				</g>
				<g id="XMLID_344_">
					<line id="XMLID_345_" class="st10" x1="361.8" y1="510.6" x2="367.8" y2="510.6"/>
				</g>
				<g id="XMLID_342_">
					<line id="XMLID_343_" class="st10" x1="361.8" y1="502.6" x2="367.8" y2="502.6"/>
				</g>
				<g id="XMLID_340_">
					<line id="XMLID_341_" class="st10" x1="361.8" y1="494.6" x2="367.8" y2="494.6"/>
				</g>
				<g id="XMLID_338_">
					<line id="XMLID_339_" class="st10" x1="361.8" y1="486.6" x2="367.8" y2="486.6"/>
				</g>
				<g id="XMLID_336_">
					<line id="XMLID_337_" class="st10" x1="361.8" y1="478.6" x2="367.8" y2="478.6"/>
				</g>
			</g>
		</g>
		<g id="XMLID_17_">
			<g id="XMLID_36_">
				<line id="XMLID_37_" class="st10" x1="409.8" y1="526.6" x2="415.8" y2="526.6"/>
			</g>
			<g id="XMLID_34_">
				<line id="XMLID_35_" class="st10" x1="409.8" y1="518.6" x2="415.8" y2="518.6"/>
			</g>
			<g id="XMLID_32_">
				<line id="XMLID_33_" class="st10" x1="409.8" y1="510.6" x2="415.8" y2="510.6"/>
			</g>
			<g id="XMLID_30_">
				<line id="XMLID_31_" class="st10" x1="409.8" y1="502.6" x2="415.8" y2="502.6"/>
			</g>
			<g id="XMLID_28_">
				<line id="XMLID_29_" class="st10" x1="409.8" y1="494.6" x2="415.8" y2="494.6"/>
			</g>
			<g id="XMLID_26_">
				<line id="XMLID_27_" class="st10" x1="409.8" y1="486.6" x2="415.8" y2="486.6"/>
			</g>
			<g id="XMLID_24_">
				<line id="XMLID_25_" class="st10" x1="409.8" y1="478.6" x2="415.8" y2="478.6"/>
			</g>
		</g>
		<path id="XMLID_5_" class="st11" d="M405.8,531.6h-34c-2.2,0-4-1.8-4-4v-50c0-2.2,1.8-4,4-4h34c2.2,0,4,1.8,4,4v50
			C409.8,529.8,408,531.6,405.8,531.6z"/>
		<path id="XMLID_144_" class="st12" d="M371.8,525.9v-46.6c0-1,0.8-1.7,1.7-1.7h30.6c1,0,1.7,0.8,1.7,1.7v46.6c0,1-0.8,1.7-1.7,1.7
			h-30.6C372.6,527.6,371.8,526.8,371.8,525.9z"/>
		<polyline id="XMLID_143_" class="st13" points="378.5,488.7 378.5,502.6 378.5,516 		"/>
		<line id="XMLID_166_" class="st14" x1="382.9" y1="494.6" x2="382.9" y2="510.1"/>
		<line id="XMLID_146_" class="st14" x1="400.3" y1="490.3" x2="400.3" y2="514.3"/>
	</g>
	<g>
		<path id="XMLID_178_" class="st9" d="M479.9,535.6h-34c-2.2,0-4-1.8-4-4v-50c0-2.2,1.8-4,4-4h34c2.2,0,4,1.8,4,4v50
			C483.9,533.8,482.2,535.6,479.9,535.6z"/>
		<g id="XMLID_55_">
			<g id="XMLID_68_">
				<line id="XMLID_69_" class="st10" x1="435.9" y1="526.6" x2="441.9" y2="526.6"/>
			</g>
			<g id="XMLID_66_">
				<line id="XMLID_67_" class="st10" x1="435.9" y1="518.6" x2="441.9" y2="518.6"/>
			</g>
			<g id="XMLID_64_">
				<line id="XMLID_65_" class="st10" x1="435.9" y1="510.6" x2="441.9" y2="510.6"/>
			</g>
			<g id="XMLID_62_">
				<line id="XMLID_63_" class="st10" x1="435.9" y1="502.6" x2="441.9" y2="502.6"/>
			</g>
			<g id="XMLID_60_">
				<line id="XMLID_61_" class="st10" x1="435.9" y1="494.6" x2="441.9" y2="494.6"/>
			</g>
			<g id="XMLID_58_">
				<line id="XMLID_59_" class="st10" x1="435.9" y1="486.6" x2="441.9" y2="486.6"/>
			</g>
			<g id="XMLID_56_">
				<line id="XMLID_57_" class="st10" x1="435.9" y1="478.6" x2="441.9" y2="478.6"/>
			</g>
		</g>
		<g id="XMLID_40_">
			<g id="XMLID_53_">
				<line id="XMLID_54_" class="st10" x1="483.9" y1="526.6" x2="489.9" y2="526.6"/>
			</g>
			<g id="XMLID_51_">
				<line id="XMLID_52_" class="st10" x1="483.9" y1="518.6" x2="489.9" y2="518.6"/>
			</g>
			<g id="XMLID_49_">
				<line id="XMLID_50_" class="st10" x1="483.9" y1="510.6" x2="489.9" y2="510.6"/>
			</g>
			<g id="XMLID_47_">
				<line id="XMLID_48_" class="st10" x1="483.9" y1="502.6" x2="489.9" y2="502.6"/>
			</g>
			<g id="XMLID_45_">
				<line id="XMLID_46_" class="st10" x1="483.9" y1="494.6" x2="489.9" y2="494.6"/>
			</g>
			<g id="XMLID_43_">
				<line id="XMLID_44_" class="st10" x1="483.9" y1="486.6" x2="489.9" y2="486.6"/>
			</g>
			<g id="XMLID_41_">
				<line id="XMLID_42_" class="st10" x1="483.9" y1="478.6" x2="489.9" y2="478.6"/>
			</g>
		</g>
		<path id="XMLID_70_" class="st11" d="M479.9,531.6h-34c-2.2,0-4-1.8-4-4v-50c0-2.2,1.8-4,4-4h34c2.2,0,4,1.8,4,4v50
			C483.9,529.8,482.2,531.6,479.9,531.6z"/>
		<path id="XMLID_148_" class="st12" d="M445.9,525.9v-46.6c0-1,0.8-1.7,1.7-1.7h30.6c1,0,1.7,0.8,1.7,1.7v46.6c0,1-0.8,1.7-1.7,1.7
			h-30.6C446.7,527.6,445.9,526.8,445.9,525.9z"/>
		<polyline id="XMLID_186_" class="st13" points="452.6,488.7 452.6,502.6 452.6,516 		"/>
		<line id="XMLID_177_" class="st14" x1="457.1" y1="494.6" x2="457.1" y2="510.1"/>
		<line id="XMLID_6_" class="st14" x1="474.4" y1="490.3" x2="474.4" y2="514.3"/>
	</g>
	<g>
		<path id="XMLID_175_" class="st9" d="M554.1,535.6h-34c-2.2,0-4-1.8-4-4v-50c0-2.2,1.8-4,4-4h34c2.2,0,4,1.8,4,4v50
			C558.1,533.8,556.3,535.6,554.1,535.6z"/>
		<g id="XMLID_87_">
			<g id="XMLID_100_">
				<line id="XMLID_101_" class="st10" x1="510.1" y1="526.6" x2="516.1" y2="526.6"/>
			</g>
			<g id="XMLID_98_">
				<line id="XMLID_99_" class="st10" x1="510.1" y1="518.6" x2="516.1" y2="518.6"/>
			</g>
			<g id="XMLID_96_">
				<line id="XMLID_97_" class="st10" x1="510.1" y1="510.6" x2="516.1" y2="510.6"/>
			</g>
			<g id="XMLID_94_">
				<line id="XMLID_95_" class="st10" x1="510.1" y1="502.6" x2="516.1" y2="502.6"/>
			</g>
			<g id="XMLID_92_">
				<line id="XMLID_93_" class="st10" x1="510.1" y1="494.6" x2="516.1" y2="494.6"/>
			</g>
			<g id="XMLID_90_">
				<line id="XMLID_91_" class="st10" x1="510.1" y1="486.6" x2="516.1" y2="486.6"/>
			</g>
			<g id="XMLID_88_">
				<line id="XMLID_89_" class="st10" x1="510.1" y1="478.6" x2="516.1" y2="478.6"/>
			</g>
		</g>
		<g id="XMLID_72_">
			<g id="XMLID_85_">
				<line id="XMLID_86_" class="st10" x1="558.1" y1="526.6" x2="564.1" y2="526.6"/>
			</g>
			<g id="XMLID_83_">
				<line id="XMLID_84_" class="st10" x1="558.1" y1="518.6" x2="564.1" y2="518.6"/>
			</g>
			<g id="XMLID_81_">
				<line id="XMLID_82_" class="st10" x1="558.1" y1="510.6" x2="564.1" y2="510.6"/>
			</g>
			<g id="XMLID_79_">
				<line id="XMLID_80_" class="st10" x1="558.1" y1="502.6" x2="564.1" y2="502.6"/>
			</g>
			<g id="XMLID_77_">
				<line id="XMLID_78_" class="st10" x1="558.1" y1="494.6" x2="564.1" y2="494.6"/>
			</g>
			<g id="XMLID_75_">
				<line id="XMLID_76_" class="st10" x1="558.1" y1="486.6" x2="564.1" y2="486.6"/>
			</g>
			<g id="XMLID_73_">
				<line id="XMLID_74_" class="st10" x1="558.1" y1="478.6" x2="564.1" y2="478.6"/>
			</g>
		</g>
		<path id="XMLID_102_" class="st11" d="M554.1,531.6h-34c-2.2,0-4-1.8-4-4v-50c0-2.2,1.8-4,4-4h34c2.2,0,4,1.8,4,4v50
			C558.1,529.8,556.3,531.6,554.1,531.6z"/>
		<path id="XMLID_147_" class="st12" d="M520.1,525.9v-46.6c0-1,0.8-1.7,1.7-1.7h30.6c1,0,1.7,0.8,1.7,1.7v46.6c0,1-0.8,1.7-1.7,1.7
			h-30.6C520.8,527.6,520.1,526.8,520.1,525.9z"/>
		<polyline id="XMLID_200_" class="st13" points="526.8,488.7 526.8,502.6 526.8,516 		"/>
		<line id="XMLID_198_" class="st14" x1="531.2" y1="494.6" x2="531.2" y2="510.1"/>
		<line id="XMLID_3_" class="st14" x1="548.6" y1="490.3" x2="548.6" y2="514.3"/>
	</g>
	<g>
		<path id="XMLID_151_" class="st9" d="M628.2,535.6h-34c-2.2,0-4-1.8-4-4v-50c0-2.2,1.8-4,4-4h34c2.2,0,4,1.8,4,4v50
			C632.2,533.8,630.4,535.6,628.2,535.6z"/>
		<g id="XMLID_119_">
			<g id="XMLID_132_">
				<line id="XMLID_133_" class="st10" x1="584.2" y1="526.6" x2="590.2" y2="526.6"/>
			</g>
			<g id="XMLID_130_">
				<line id="XMLID_131_" class="st10" x1="584.2" y1="518.6" x2="590.2" y2="518.6"/>
			</g>
			<g id="XMLID_128_">
				<line id="XMLID_129_" class="st10" x1="584.2" y1="510.6" x2="590.2" y2="510.6"/>
			</g>
			<g id="XMLID_126_">
				<line id="XMLID_127_" class="st10" x1="584.2" y1="502.6" x2="590.2" y2="502.6"/>
			</g>
			<g id="XMLID_124_">
				<line id="XMLID_125_" class="st10" x1="584.2" y1="494.6" x2="590.2" y2="494.6"/>
			</g>
			<g id="XMLID_122_">
				<line id="XMLID_123_" class="st10" x1="584.2" y1="486.6" x2="590.2" y2="486.6"/>
			</g>
			<g id="XMLID_120_">
				<line id="XMLID_121_" class="st10" x1="584.2" y1="478.6" x2="590.2" y2="478.6"/>
			</g>
		</g>
		<g id="XMLID_104_">
			<g id="XMLID_117_">
				<line id="XMLID_118_" class="st10" x1="632.2" y1="526.6" x2="638.2" y2="526.6"/>
			</g>
			<g id="XMLID_115_">
				<line id="XMLID_116_" class="st10" x1="632.2" y1="518.6" x2="638.2" y2="518.6"/>
			</g>
			<g id="XMLID_113_">
				<line id="XMLID_114_" class="st10" x1="632.2" y1="510.6" x2="638.2" y2="510.6"/>
			</g>
			<g id="XMLID_111_">
				<line id="XMLID_112_" class="st10" x1="632.2" y1="502.6" x2="638.2" y2="502.6"/>
			</g>
			<g id="XMLID_109_">
				<line id="XMLID_110_" class="st10" x1="632.2" y1="494.6" x2="638.2" y2="494.6"/>
			</g>
			<g id="XMLID_107_">
				<line id="XMLID_108_" class="st10" x1="632.2" y1="486.6" x2="638.2" y2="486.6"/>
			</g>
			<g id="XMLID_105_">
				<line id="XMLID_106_" class="st10" x1="632.2" y1="478.6" x2="638.2" y2="478.6"/>
			</g>
		</g>
		<path id="XMLID_134_" class="st11" d="M628.2,531.6h-34c-2.2,0-4-1.8-4-4v-50c0-2.2,1.8-4,4-4h34c2.2,0,4,1.8,4,4v50
			C632.2,529.8,630.4,531.6,628.2,531.6z"/>
		<path id="XMLID_145_" class="st12" d="M594.2,525.9v-46.6c0-1,0.8-1.7,1.7-1.7h30.6c1,0,1.7,0.8,1.7,1.7v46.6c0,1-0.8,1.7-1.7,1.7
			h-30.6C594.9,527.6,594.2,526.8,594.2,525.9z"/>
		<polyline id="XMLID_203_" class="st13" points="600.9,488.7 600.9,502.6 600.9,516 		"/>
		<line id="XMLID_202_" class="st14" x1="605.3" y1="494.6" x2="605.3" y2="510.1"/>
		<line id="XMLID_2_" class="st14" x1="622.7" y1="490.3" x2="622.7" y2="514.3"/>
	</g>
</g>
</svg>
