<?xml version="1.0" encoding="utf-8"?>
<!-- Generator: Adobe Illustrator 23.1.1, SVG Export Plug-In . SVG Version: 6.00 Build 0)  -->
<svg version="1.1" id="Layer_1" xmlns="http://www.w3.org/2000/svg" xmlns:xlink="http://www.w3.org/1999/xlink" x="0px" y="0px"
	 viewBox="0 0 1000 1000" style="enable-background:new 0 0 1000 1000;" xml:space="preserve">
<style type="text/css">
	.st0{fill:#5D6E80;}
	.st1{fill:#323845;}
	.st2{fill:#333E49;}
	.st3{fill:none;stroke:#323845;stroke-width:6;stroke-linecap:round;stroke-linejoin:round;stroke-miterlimit:10;}
	.st4{fill:#484E5C;}
	.st5{fill:#454B56;}
	.st6{fill:#555A66;}
	.st7{fill:#38424F;}
	.st8{fill:#3B4351;}
	.st9{fill:none;stroke:#323845;stroke-width:8;stroke-linecap:round;stroke-linejoin:round;stroke-miterlimit:10;}
	.st10{fill:#F76E6E;}
	.st11{fill:#DD5F5F;}
	.st12{fill:#F48989;}
	.st13{fill:#DD5F5F;stroke:#DD5F5F;stroke-width:4;stroke-miterlimit:10;}
	.st14{fill:#404751;}
	.st15{fill:#6A6D7A;}
	.st16{fill:#777982;}
	.st17{fill:none;stroke:#323845;stroke-width:3;stroke-linecap:round;stroke-linejoin:round;stroke-miterlimit:10;}
	.st18{fill:#DD5F5F;stroke:#DD5F5F;stroke-width:4;stroke-linecap:round;stroke-linejoin:round;stroke-miterlimit:10;}
	.st19{fill:none;stroke:#323845;stroke-width:4;stroke-linecap:round;stroke-linejoin:round;stroke-miterlimit:10;}
	.st20{opacity:0.2;fill:#2D3039;}
	.st21{fill:#3C4252;}
	.st22{fill:none;stroke:#454B59;stroke-miterlimit:10;}
	.st23{fill:none;stroke:#323845;stroke-miterlimit:10;}
	.st24{fill:#30B2C4;}
	.st25{fill:none;stroke:#FFFFFF;stroke-width:3;stroke-linecap:round;stroke-linejoin:round;stroke-miterlimit:10;}
	.st26{fill:#D35959;}
	.st27{fill:#F27979;}
	.st28{fill:#2D3039;}
	.st29{fill:#DCDBD7;}
	.st30{fill:#F9D176;}
	.st31{fill:#F55090;}
	.st32{fill:#FFFFFF;}
	.st33{fill:url(#XMLID_75_);}
	.st34{opacity:0.81;fill:#30B2C4;}
	.st35{opacity:0.22;fill:#FFFFFF;}
	.st36{fill:#EEF2F4;}
</style>
<rect id="XMLID_30_" class="st0" width="1000" height="1000"/>
<g>
	<ellipse id="XMLID_110_" class="st1" cx="506.1" cy="612" rx="267.2" ry="37.1"/>
	<path id="XMLID_2_" class="st1" d="M655.5,728.1H351.8c-9.8,0-16.3-7.9-14.4-17.4l21.8-112.2H648l21.8,112.2
		C671.7,720.2,665.3,728.1,655.5,728.1z"/>
	<path id="XMLID_121_" class="st2" d="M656.7,321.9h-62.8c-9.9,0-17.9-8-17.9-17.9v-14.1c0-9.9,8-17.9,17.9-17.9h62.8
		c9.9,0,17.9,8,17.9,17.9v14.1C674.7,313.9,666.6,321.9,656.7,321.9z"/>
	<path id="XMLID_28_" class="st3" d="M656.7,321.9h-62.8c-9.9,0-17.9-8-17.9-17.9v-14.1c0-9.9,8-17.9,17.9-17.9h62.8
		c9.9,0,17.9,8,17.9,17.9v14.1C674.7,313.9,666.6,321.9,656.7,321.9z"/>
	<path id="XMLID_82_" class="st4" d="M713,464.6H293v-142c0-16.5,13.5-30,30-30h360c16.5,0,30,13.5,30,30V464.6z"/>
	<path id="XMLID_125_" class="st5" d="M683,292.6h-2.5v172H713v-142C713,306.1,699.5,292.6,683,292.6z"/>
	<path id="XMLID_120_" class="st6" d="M325,292.6H323c-16.5,0-30,13.5-30,30v142h31.9v-142c0-0.7,0-1.4,0.1-2.1V292.6z"/>
	<path id="XMLID_109_" class="st7" d="M549.7,371.7h-94.6c-13.8,0-24.9-11.2-24.9-24.9v-16.5c0-13.8,11.2-24.9,24.9-24.9h94.6
		c13.8,0,24.9,11.2,24.9,24.9v16.5C574.7,360.5,563.5,371.7,549.7,371.7z"/>
	<path id="XMLID_112_" class="st8" d="M550.3,384.8h-94.6c-13.8,0-24.9-11.2-24.9-24.9v-16.5c0-13.8,11.2-24.9,24.9-24.9h94.6
		c13.8,0,24.9,11.2,24.9,24.9v16.5C575.2,373.7,564.1,384.8,550.3,384.8z"/>
	<path id="XMLID_84_" class="st9" d="M549.7,371.7h-94.6c-13.8,0-24.9-11.2-24.9-24.9v-16.5c0-13.8,11.2-24.9,24.9-24.9h94.6
		c13.8,0,24.9,11.2,24.9,24.9v16.5C574.7,360.5,563.5,371.7,549.7,371.7z"/>
	<path id="XMLID_27_" class="st3" d="M713,464.6H293v-142c0-16.5,13.5-30,30-30h360c16.5,0,30,13.5,30,30V464.6z"/>
	<path id="XMLID_33_" class="st10" d="M713,500.6H293v-142c0-16.5,13.5-30,30-30h360c16.5,0,30,13.5,30,30V500.6z"/>
	<path id="XMLID_116_" class="st11" d="M683,328.6h-15.8c16.5,0,30,13.5,30,30v142H713v-142C713,342.1,699.5,328.6,683,328.6z"/>
	<path id="XMLID_111_" class="st12" d="M339,328.6h-16c-16.5,0-30,13.5-30,30v142h16v-142C309,342.1,322.5,328.6,339,328.6z"/>
	<path id="XMLID_106_" class="st13" d="M676.9,485h-67.2c-3.8,0-6.9-3.1-6.9-6.9v-27.2c0-3.8,3.1-6.9,6.9-6.9h67.2
		c3.8,0,6.9,3.1,6.9,6.9v27.2C683.8,481.9,680.7,485,676.9,485z"/>
	<path id="XMLID_104_" class="st4" d="M670.4,482.5h-54.1c-3.8,0-6.9-3.1-6.9-6.9v-18.2c0-3.8,3.1-6.9,6.9-6.9h54.1
		c3.8,0,6.9,3.1,6.9,6.9v18.2C677.3,479.4,674.2,482.5,670.4,482.5z"/>
	<path id="XMLID_122_" class="st14" d="M670.4,450.5L670.4,450.5l-0.1,32h0.1c3.8,0,6.9-3.1,6.9-6.9v-18.2
		C677.3,453.6,674.2,450.5,670.4,450.5z"/>
	<path id="XMLID_108_" class="st15" d="M656,450.5h-39.7c-3.8,0-6.9,3.1-6.9,6.9v18.2c0,3.8,3.1,6.9,6.9,6.9H656V450.5z"/>
	<path id="XMLID_124_" class="st16" d="M616.3,450.5c-3.8,0-6.9,3.1-6.9,6.9v18.2c0,3.8,3.1,6.9,6.9,6.9h1.9v-32H616.3z"/>
	<path id="XMLID_105_" class="st17" d="M656,450.5h-39.7c-3.8,0-6.9,3.1-6.9,6.9v18.2c0,3.8,3.1,6.9,6.9,6.9H656V450.5z"/>
	<path id="XMLID_101_" class="st13" d="M677.8,419.2h-69c-3.3,0-6-2.7-6-6v-69c0-3.3,2.7-6,6-6h69c3.3,0,6,2.7,6,6v69
		C683.8,416.5,681.1,419.2,677.8,419.2z"/>
	<path id="XMLID_97_" class="st18" d="M553.6,468.9h-31.2v16h31.2c4.4,0,8-3.6,8-8v0C561.6,472.5,558,468.9,553.6,468.9z"/>
	<path id="XMLID_96_" class="st18" d="M485.7,468.9h31.2v16h-31.2c-4.4,0-8-3.6-8-8v0C477.7,472.5,481.2,468.9,485.7,468.9z"/>
	<path id="XMLID_92_" class="st4" d="M551.6,465.9h-31.2v16h31.2c4.4,0,8-3.6,8-8v0C559.6,469.5,556,465.9,551.6,465.9z"/>
	<path id="XMLID_91_" class="st4" d="M483.7,465.9h31.2v16h-31.2c-4.4,0-8-3.6-8-8v0C475.7,469.5,479.2,465.9,483.7,465.9z"/>
	<path id="XMLID_88_" class="st13" d="M553.1,459.5h-208c-6.6,0-12-5.4-12-12v-74c0-6.6,5.4-12,12-12h208c6.6,0,12,5.4,12,12v74
		C565.1,454.1,559.7,459.5,553.1,459.5z"/>
	<path id="XMLID_6_" class="st4" d="M553.1,444.5h-208c-6.6,0-12-5.4-12-12v-74c0-6.6,5.4-12,12-12h208c6.6,0,12,5.4,12,12v74
		C565.1,439.1,559.7,444.5,553.1,444.5z"/>
	<path id="XMLID_3_" class="st19" d="M553.1,444.5h-208c-6.6,0-12-5.4-12-12v-74c0-6.6,5.4-12,12-12h208c6.6,0,12,5.4,12,12v74
		C565.1,439.1,559.7,444.5,553.1,444.5z"/>
	<path id="XMLID_85_" class="st15" d="M553.1,450.5h-208c-6.6,0-12-5.4-12-12v-74c0-6.6,5.4-12,12-12h208c6.6,0,12,5.4,12,12v74
		C565.1,445.1,559.7,450.5,553.1,450.5z"/>
	<path id="XMLID_14_" class="st17" d="M553.1,450.5h-208c-6.6,0-12-5.4-12-12v-74c0-6.6,5.4-12,12-12h208c6.6,0,12,5.4,12,12v74
		C565.1,445.1,559.7,450.5,553.1,450.5z"/>
	<path id="XMLID_1_" class="st3" d="M713,500.6H293v-142c0-16.5,13.5-30,30-30h360c16.5,0,30,13.5,30,30V500.6z"/>
	<path id="XMLID_8_" class="st17" d="M553.3,450.5h-86v-98h86c6.6,0,12,5.4,12,12v74C565.3,445.1,559.9,450.5,553.3,450.5z"/>
	<path id="XMLID_65_" class="st4" d="M549.3,442.6h-66.2c-4.4,0-8-3.6-8-8v-66.2c0-4.4,3.6-8,8-8h66.2c4.4,0,8,3.6,8,8v66.2
		C557.3,439,553.8,442.6,549.3,442.6z"/>
	<path id="XMLID_83_" class="st15" d="M516.6,407.9L475.3,436c0.7,3.7,3.9,6.5,7.9,6.5h66.2c4,0,7.4-3,7.9-6.9L516.6,407.9z"/>
	<path id="XMLID_81_" class="st20" d="M516.6,395.1l-41.2-28.1c0.7-3.7,3.9-6.5,7.9-6.5h66.2c4,0,7.4,3,7.9,6.9L516.6,395.1z"/>
	<path id="XMLID_46_" class="st21" d="M488.3,413.9v-24.9c0-8.6,7-15.6,15.6-15.6h24.9c8.6,0,15.6,7,15.6,15.6v24.9
		c0,8.6-7,15.6-15.6,15.6h-24.9C495.2,429.5,488.3,422.5,488.3,413.9z"/>
	<path id="XMLID_5_" class="st21" d="M523.9,414.1h-15.3c-2.8,0-5-2.2-5-5v-15.3c0-2.8,2.2-5,5-5h15.3c2.8,0,5,2.2,5,5v15.3
		C528.9,411.9,526.7,414.1,523.9,414.1z"/>
	<path id="XMLID_36_" class="st21" d="M508.6,420.1c-6.1,0-11-4.9-11-11v-15.3c0-6.1,4.9-11,11-11h15.3c6.1,0,11,4.9,11,11v15.3
		c0,6.1-4.9,11-11,11H508.6z"/>
	<path id="XMLID_39_" class="st22" d="M508.6,420.1c-6.1,0-11-4.9-11-11v-15.3c0-6.1,4.9-11,11-11h15.3c6.1,0,11,4.9,11,11v15.3
		c0,6.1-4.9,11-11,11H508.6z"/>
	<path id="XMLID_61_" class="st23" d="M508.6,419.1c-5.5,0-10-4.5-10-10v-15.3c0-5.5,4.5-10,10-10h15.3c5.5,0,10,4.5,10,10v15.3
		c0,5.5-4.5,10-10,10H508.6z"/>
	<path id="XMLID_4_" class="st22" d="M523.9,414.1h-15.3c-2.8,0-5-2.2-5-5v-15.3c0-2.8,2.2-5,5-5h15.3c2.8,0,5,2.2,5,5v15.3
		C528.9,411.9,526.7,414.1,523.9,414.1z"/>
	<path id="XMLID_38_" class="st23" d="M508.6,413.1c-2.2,0-4-1.8-4-4v-15.3c0-2.2,1.8-4,4-4h15.3c2.2,0,4,1.8,4,4v15.3
		c0,2.2-1.8,4-4,4H508.6z"/>
	<path id="XMLID_34_" class="st1" d="M521.1,410.3h-9.7c-2.2,0-4-1.8-4-4v-9.7c0-2.2,1.8-4,4-4h9.7c2.2,0,4,1.8,4,4v9.7
		C525.1,408.5,523.3,410.3,521.1,410.3z"/>
	<path id="XMLID_35_" class="st22" d="M521.1,410.3h-9.7c-2.2,0-4-1.8-4-4v-9.7c0-2.2,1.8-4,4-4h9.7c2.2,0,4,1.8,4,4v9.7
		C525.1,408.5,523.3,410.3,521.1,410.3z"/>
	<path id="XMLID_37_" class="st23" d="M511.4,409.3c-1.7,0-3-1.3-3-3v-9.7c0-1.7,1.3-3,3-3h9.7c1.7,0,3,1.3,3,3v9.7c0,1.7-1.3,3-3,3
		H511.4z"/>
	<path id="XMLID_103_" class="st4" d="M673.3,414.6h-59.9c-2.2,0-4-1.8-4-4v-59.9c0-2.2,1.8-4,4-4h59.9c2.2,0,4,1.8,4,4v59.9
		C677.3,412.8,675.5,414.6,673.3,414.6z"/>
	<circle id="XMLID_9_" class="st17" cx="643.3" cy="380.7" r="25.2"/>
	<circle id="XMLID_10_" class="st15" cx="643.3" cy="380.7" r="18"/>
	<circle id="XMLID_98_" class="st17" cx="643.3" cy="380.7" r="18"/>
	<circle id="XMLID_100_" class="st24" cx="643.3" cy="380.7" r="12.7"/>
	<circle id="XMLID_11_" class="st17" cx="643.3" cy="380.7" r="12.7"/>
	<path id="XMLID_102_" class="st25" d="M636.9,380.7c0-3.5,2.9-6.4,6.4-6.4"/>
	<path id="XMLID_13_" class="st17" d="M670.4,482.5h-54.1c-3.8,0-6.9-3.1-6.9-6.9v-18.2c0-3.8,3.1-6.9,6.9-6.9h54.1
		c3.8,0,6.9,3.1,6.9,6.9v18.2C677.3,479.4,674.2,482.5,670.4,482.5z"/>
	<polygon id="XMLID_41_" class="st11" points="723,521.6 283,521.6 293,500.6 713,500.6 	"/>
	<polygon id="XMLID_107_" class="st11" points="723,521.6 283,521.6 293,500.6 713,500.6 	"/>
	<polygon id="XMLID_117_" class="st26" points="712,500.6 697.4,500.6 707.4,521.6 722,521.6 	"/>
	<polygon id="XMLID_113_" class="st27" points="293,500.6 283,521.6 299.5,521.6 309.5,500.6 	"/>
	<polygon id="XMLID_18_" class="st3" points="723,521.6 283,521.6 293,500.6 713,500.6 	"/>
	<rect id="XMLID_40_" x="283" y="521.6" class="st10" width="440" height="21"/>
	<rect id="XMLID_118_" x="708" y="521.6" class="st11" width="15" height="21"/>
	<rect id="XMLID_114_" x="283" y="521.6" class="st12" width="17" height="21"/>
	<rect id="XMLID_23_" x="283" y="521.6" class="st3" width="440" height="21"/>
	<path id="XMLID_42_" class="st4" d="M683,628.6H323c-16.6,0-31.5-12.9-33.4-29.1l-6.6-56.9h440l-6.6,56.9
		C714.5,615.7,699.6,628.6,683,628.6z"/>
	<path id="XMLID_119_" class="st5" d="M708,542.6l-6.6,56.9c-1.9,16.2-16.8,29.1-33.4,29.1h15c16.6,0,31.5-12.9,33.4-29.1l6.6-56.9
		H708z"/>
	<path id="XMLID_115_" class="st6" d="M306.6,599.5l-6.6-56.9h-17l6.6,56.9c1.9,16.2,16.8,29.1,33.4,29.1h17
		C323.5,628.6,308.5,615.7,306.6,599.5z"/>
	<path id="XMLID_25_" class="st3" d="M683,628.6H323c-16.6,0-31.5-12.9-33.4-29.1l-6.6-56.9h440l-6.6,56.9
		C714.5,615.7,699.6,628.6,683,628.6z"/>
	<path id="XMLID_43_" class="st28" d="M673.8,602h-340c-5.5,0-10-4.5-10-10v-29c0-2.2,1.8-4,4-4h352c2.2,0,4,1.8,4,4v29
		C683.8,597.5,679.3,602,673.8,602z"/>
	<path id="XMLID_19_" class="st3" d="M673.8,602h-340c-5.5,0-10-4.5-10-10v-29c0-2.2,1.8-4,4-4h352c2.2,0,4,1.8,4,4v29
		C683.8,597.5,679.3,602,673.8,602z"/>
	<g id="XMLID_58_">
		<path id="XMLID_45_" class="st29" d="M654.9,701.1H351.2c-9.8,0-16.3-7.9-14.4-17.4l21.8-112.2h288.9l21.8,112.2
			C671.2,693.2,664.7,701.1,654.9,701.1z"/>
		<path id="XMLID_60_" class="st3" d="M654.9,701.1H351.2c-9.8,0-16.3-7.9-14.4-17.4l21.8-112.2h288.9l21.8,112.2
			C671.2,693.2,664.7,701.1,654.9,701.1z"/>
		<path id="XMLID_57_" class="st30" d="M378,653.5l12.3-80.9h225.5l12.3,80.9c0.8,5.4-3.1,9.7-8.8,9.7H386.8
			C381.2,663.3,377.2,658.9,378,653.5z"/>
		<g id="XMLID_47_">
			<path id="XMLID_48_" class="st31" d="M502.5,558.9c-19.9,0-36.7,13.7-37.6,31.4c-0.9,18.5,15.9,34.3,37.5,34.3
				c21.7,0,38.5-15.7,37.6-34.3C539.1,572.7,522.4,558.9,502.5,558.9L502.5,558.9z M525,574.9c3.7,3.9,6.2,8.8,6.7,14.3
				c-4.3-0.8-8.3-1.2-12-1.2h0c-3,0-5.8,0.2-8.5,0.6c-0.7-1.4-1.3-2.7-2-3.9C515.1,582.5,520.6,579.3,525,574.9L525,574.9z
				 M502.5,565.6c6.7,0,12.8,2,17.8,5.3c-3.7,3.8-8.6,6.6-14,8.6c-3.8-6.3-7.4-10.7-9.8-13.3C498.4,565.8,500.4,565.6,502.5,565.6
				L502.5,565.6z M489.9,568.1c1.9,2,5.9,6.4,10.1,13.3c-8.8,2.3-17.6,2.8-23,2.8c-0.2,0-0.3,0-0.5,0h0c-0.9,0-1.7,0-2.3,0
				C476.6,577,482.4,571.2,489.9,568.1L489.9,568.1z M473.2,590.4c0-0.1,0-0.2,0-0.4c0.8,0,1.9,0,3.2,0h0c5.9,0,16.2-0.5,26.6-3.3
				c0.6,1.1,1.1,2.2,1.7,3.4c-7,2-12.5,5.3-16.7,8.6c-4,3.2-6.8,6.4-8.4,8.5C475.3,602.5,472.9,596.7,473.2,590.4L473.2,590.4z
				 M502.4,616.8c-6.8,0-12.9-2-17.9-5.4c1.1-1.6,3.4-4.6,7.1-7.6c3.7-3.1,8.8-6.3,15.4-8.2c2.3,5.6,4.4,12,6.1,19.5
				C509.8,616.2,506.2,616.8,502.4,616.8L502.4,616.8z M519.5,612c-1.7-6.7-3.7-12.6-5.8-17.8c1.9-0.2,3.9-0.4,6-0.4h0.1
				c3.5,0,7.4,0.4,11.6,1.2C530.2,602,525.8,608,519.5,612L519.5,612z M519.5,612"/>
		</g>
	</g>
	<g id="XMLID_12_">
		<path id="XMLID_71_" class="st29" d="M654.9,701.1H351.2c-9.8,0-16.3-7.9-14.4-17.4l21.8-112.2h288.9l21.8,112.2
			C671.2,693.2,664.7,701.1,654.9,701.1z"/>
		<path id="XMLID_70_" class="st3" d="M654.9,701.1H351.2c-9.8,0-16.3-7.9-14.4-17.4l21.8-112.2h288.9l21.8,112.2
			C671.2,693.2,664.7,701.1,654.9,701.1z"/>
		<path id="XMLID_69_" class="st32" d="M378,653.5l12.3-80.9h225.5l12.3,80.9c0.8,5.4-3.1,9.7-8.8,9.7H386.8
			C381.2,663.3,377.2,658.9,378,653.5z"/>
		<g id="XMLID_17_">
			<path id="XMLID_67_" d="M520.9,555.8h-30.6c-10.4,0-19.8,6.8-21,15.6l-4.2,30.2c-1.7,11.9,7.7,22.4,21,22.4h39.2
				c13.3,0,22.7-10.5,21-22.4l-4.2-30.2C540.7,562.6,531.3,555.8,520.9,555.8L520.9,555.8z M539,601.7c0.9,8-5.4,14.8-14.3,14.8
				h-38.2c-8.8,0-15.2-6.8-14.3-14.8l3.5-30.2c0.7-6.1,7.1-10.8,14.3-10.8h31.2c7.2,0,13.6,4.7,14.3,10.8L539,601.7z M539,601.7"/>
			<path id="XMLID_31_" d="M505.6,569.4c-10.2,0-19.1,7.1-19.8,16.3c-0.7,9.9,8.1,18.5,19.8,18.5c11.6,0,20.5-8.6,19.8-18.5
				C524.7,576.5,515.8,569.4,505.6,569.4L505.6,569.4z M505.6,597.6c-7.4,0-13.3-5.4-13-11.8c0.3-6.1,6.1-10.9,13-10.9
				s12.7,4.8,13,10.9C518.9,592.1,513.1,597.6,505.6,597.6L505.6,597.6z M505.6,597.6"/>
			<radialGradient id="XMLID_75_" cx="493.1283" cy="604.3333" r="62.4037" gradientUnits="userSpaceOnUse">
				<stop  offset="0" style="stop-color:#F9C200"/>
				<stop  offset="0.4516" style="stop-color:#FF4C50"/>
				<stop  offset="0.8011" style="stop-color:#B53E93"/>
				<stop  offset="1" style="stop-color:#423E93"/>
			</radialGradient>
			<path id="XMLID_20_" class="st33" d="M524.6,565.1c-1.2,0-2.4,0.4-3.2,1.1c-0.8,0.7-1.3,1.7-1.2,2.7c0.1,1,0.6,2,1.5,2.7
				c0.9,0.7,2.2,1.2,3.4,1.2c1.3,0,2.4-0.4,3.3-1.2c0.8-0.7,1.2-1.7,1.1-2.7c-0.1-1-0.7-2-1.6-2.7
				C527.1,565.5,525.8,565.1,524.6,565.1L524.6,565.1z M524.6,565.1"/>
		</g>
	</g>
	<path id="XMLID_59_" class="st20" d="M683.8,589.2h-360V563c0-2.2,1.8-4,4-4h352c2.2,0,4,1.8,4,4V589.2z"/>
	<rect id="XMLID_26_" x="323.8" y="559" class="st15" width="360" height="16"/>
	<path id="XMLID_44_" class="st3" d="M683.8,575h-360v-12c0-2.2,1.8-4,4-4h352c2.2,0,4,1.8,4,4V575z"/>
	<path id="XMLID_62_" class="st34" d="M488.3,413.9v-24.9c0-8.6,7-15.6,15.6-15.6h24.9c8.6,0,15.6,7,15.6,15.6v24.9
		c0,8.6-7,15.6-15.6,15.6h-24.9C495.2,429.5,488.3,422.5,488.3,413.9z"/>
	<path id="XMLID_24_" class="st17" d="M488.3,413.9v-24.9c0-8.6,7-15.6,15.6-15.6h24.9c8.6,0,15.6,7,15.6,15.6v24.9
		c0,8.6-7,15.6-15.6,15.6h-24.9C495.2,429.5,488.3,422.5,488.3,413.9z"/>
	<path id="XMLID_68_" class="st25" d="M495.3,391.1c0-5.8,4.7-10.6,10.6-10.6"/>
	<line id="XMLID_80_" class="st25" x1="537.3" y1="409.8" x2="537.3" y2="413.9"/>
	<line id="XMLID_64_" class="st25" x1="537.3" y1="389.1" x2="537.3" y2="403.2"/>
	<path id="XMLID_86_" class="st17" d="M460.1,419.2l-118.2-0.1v-50.7c0-4.4,3.6-8,8-8l110.2,0.1V419.2z"/>
	<path id="XMLID_87_" class="st4" d="M421.1,437h-75.5c-2.1,0-3.8-1.7-3.8-3.8l0,0c0-2.1,1.7-3.8,3.8-3.8h75.5
		c2.1,0,3.8,1.7,3.8,3.8l0,0C424.8,435.3,423.1,437,421.1,437z"/>
	<path id="XMLID_89_" class="st4" d="M453,438.9H439c-3.1,0-5.6-2.5-5.6-5.6v0c0-3.1,2.5-5.6,5.6-5.6H453c3.1,0,5.6,2.5,5.6,5.6v0
		C458.7,436.4,456.1,438.9,453,438.9z"/>
	<g id="XMLID_90_">
		<g id="XMLID_209_">
			<line id="XMLID_210_" class="st17" x1="454.3" y1="361.2" x2="454.3" y2="419.1"/>
		</g>
		<g id="XMLID_206_">
			<line id="XMLID_207_" class="st17" x1="448.3" y1="361.2" x2="448.3" y2="419.1"/>
		</g>
		<g id="XMLID_203_">
			<line id="XMLID_204_" class="st17" x1="442.3" y1="361.2" x2="442.3" y2="419.1"/>
		</g>
		<g id="XMLID_200_">
			<line id="XMLID_201_" class="st17" x1="436.3" y1="361.2" x2="436.3" y2="419.1"/>
		</g>
		<g id="XMLID_197_">
			<line id="XMLID_198_" class="st17" x1="430.3" y1="361.2" x2="430.3" y2="419.1"/>
		</g>
		<g id="XMLID_194_">
			<line id="XMLID_195_" class="st17" x1="424.3" y1="361.2" x2="424.3" y2="419.1"/>
		</g>
		<g id="XMLID_191_">
			<line id="XMLID_192_" class="st17" x1="418.3" y1="361.2" x2="418.3" y2="419.1"/>
		</g>
		<g id="XMLID_188_">
			<line id="XMLID_189_" class="st17" x1="412.3" y1="361.2" x2="412.3" y2="419.1"/>
		</g>
		<g id="XMLID_185_">
			<line id="XMLID_186_" class="st17" x1="406.3" y1="361.2" x2="406.3" y2="419.1"/>
		</g>
		<g id="XMLID_182_">
			<line id="XMLID_183_" class="st17" x1="400.3" y1="361.2" x2="400.3" y2="419.1"/>
		</g>
		<g id="XMLID_179_">
			<line id="XMLID_180_" class="st17" x1="394.3" y1="361.2" x2="394.3" y2="419.1"/>
		</g>
		<g id="XMLID_176_">
			<line id="XMLID_177_" class="st17" x1="388.3" y1="361.2" x2="388.3" y2="419.1"/>
		</g>
		<g id="XMLID_173_">
			<line id="XMLID_174_" class="st17" x1="382.3" y1="361.2" x2="382.3" y2="419.1"/>
		</g>
		<g id="XMLID_170_">
			<line id="XMLID_171_" class="st17" x1="376.3" y1="361.2" x2="376.3" y2="419.1"/>
		</g>
		<g id="XMLID_167_">
			<line id="XMLID_168_" class="st17" x1="370.3" y1="361.2" x2="370.3" y2="419.1"/>
		</g>
		<g id="XMLID_164_">
			<line id="XMLID_165_" class="st17" x1="364.3" y1="361.2" x2="364.3" y2="419.1"/>
		</g>
		<g id="XMLID_161_">
			<line id="XMLID_162_" class="st17" x1="358.3" y1="361.2" x2="358.3" y2="419.1"/>
		</g>
		<g id="XMLID_158_">
			<line id="XMLID_159_" class="st17" x1="352.3" y1="361.2" x2="352.3" y2="419.1"/>
		</g>
		<g id="XMLID_155_">
			<line id="XMLID_156_" class="st17" x1="346.3" y1="361.2" x2="346.3" y2="419.1"/>
		</g>
	</g>
	<path id="XMLID_93_" class="st17" d="M551.6,465.9h-31.2v16h31.2c4.4,0,8-3.6,8-8v0C559.6,469.5,556,465.9,551.6,465.9z"/>
	<path id="XMLID_15_" class="st17" d="M483.7,465.9h31.2v16h-31.2c-4.4,0-8-3.6-8-8v0C475.7,469.5,479.2,465.9,483.7,465.9z"/>
	<path id="XMLID_95_" class="st17" d="M551.6,465.9h-31.2v16h31.2c4.4,0,8-3.6,8-8v0C559.6,469.5,556,465.9,551.6,465.9z"/>
	<path id="XMLID_94_" class="st17" d="M483.7,465.9h31.2v16h-31.2c-4.4,0-8-3.6-8-8v0C475.7,469.5,479.2,465.9,483.7,465.9z"/>
	<path id="XMLID_29_" class="st17" d="M549.3,442.6h-66.2c-4.4,0-8-3.6-8-8v-66.2c0-4.4,3.6-8,8-8h66.2c4.4,0,8,3.6,8,8v66.2
		C557.3,439,553.8,442.6,549.3,442.6z"/>
	<path id="XMLID_126_" class="st35" d="M673.3,346.7h-44.1l48.1,48.1v-44.1C677.3,348.5,675.5,346.7,673.3,346.7z"/>
	<path id="XMLID_127_" class="st35" d="M613.7,346.7h-0.3c-2.2,0-4,1.8-4,4v2.5l61.4,61.4h2.5c2.2,0,4-1.8,4-4v-0.3L613.7,346.7z"/>
	<path id="XMLID_7_" class="st17" d="M673.3,414.6h-59.9c-2.2,0-4-1.8-4-4v-59.9c0-2.2,1.8-4,4-4h59.9c2.2,0,4,1.8,4,4v59.9
		C677.3,412.8,675.5,414.6,673.3,414.6z"/>
</g>
<g>
	<g>
		<g>
			<path class="st36" d="M63.2,959.2c0,2.5-1.2,3.7-2.6,3.7c-1.1,0-1.9-0.5-2.1-1.4c-0.4,0.5-1,0.8-1.8,0.8c-1.5,0-2.6-1.2-2.6-2.8
				c0-1.6,1.1-2.8,2.6-2.8c0.7,0,1.2,0.3,1.6,0.7v-0.5h1.6v3.9c0,0.8,0.3,1.4,1,1.4c0.9,0,1.7-0.9,1.7-3c0-3-2.3-5.3-5.4-5.3
				c-3.1,0-5.6,2.4-5.6,5.7c0,3.3,2.5,5.7,5.9,5.7c1.1,0,2.1-0.2,2.9-0.4v0.6c-0.8,0.3-1.7,0.4-2.9,0.4c-3.7,0-6.5-2.6-6.5-6.2
				c0-3.4,2.7-6.2,6.2-6.2C61.1,953.3,63.2,956.4,63.2,959.2z M58.3,959.5c0-0.8-0.6-1.4-1.3-1.4c-0.8,0-1.3,0.5-1.3,1.4
				c0,0.8,0.6,1.3,1.3,1.3C57.8,960.9,58.3,960.3,58.3,959.5z"/>
		</g>
		<g>
			<path class="st36" d="M69.4,955.1v2c-1.2-0.1-2.6,0.5-2.6,2.4v4.3h-1.9v-8.6h1.9v1.4C67.3,955.5,68.3,955.1,69.4,955.1z"/>
		</g>
		<g>
			<path class="st36" d="M74.6,962.3c1,0,1.8-0.5,2.2-1.1l1.5,0.9c-0.8,1.2-2.1,1.9-3.8,1.9c-2.8,0-4.7-1.9-4.7-4.5
				c0-2.5,1.8-4.5,4.5-4.5c2.6,0,4.3,2.1,4.3,4.5c0,0.3,0,0.5-0.1,0.8h-6.8C72.1,961.6,73.2,962.3,74.6,962.3z M76.9,958.8
				c-0.3-1.5-1.3-2.1-2.5-2.1c-1.4,0-2.3,0.8-2.6,2.1H76.9z"/>
		</g>
		<g>
			<path class="st36" d="M88.9,955.2v8.6h-1.9v-1.2c-0.7,0.9-1.7,1.5-3,1.5c-2.3,0-4.3-2-4.3-4.5c0-2.6,1.9-4.5,4.3-4.5
				c1.3,0,2.3,0.5,3,1.4v-1.2H88.9z M87.1,959.5c0-1.6-1.2-2.7-2.7-2.7c-1.5,0-2.7,1.1-2.7,2.7c0,1.6,1.2,2.7,2.7,2.7
				C85.9,962.3,87.1,961.1,87.1,959.5z"/>
		</g>
		<g>
			<path class="st36" d="M91.1,951.3H93v12.5h-1.9V951.3z"/>
		</g>
		<g>
			<path class="st36" d="M102.9,955.2l-3.3,8.6h-2.1l-3.3-8.6h2l2.4,6.5l2.4-6.5H102.9z"/>
		</g>
		<g>
			<path class="st36" d="M104.2,955.2h1.9v8.9c0,2.4-1.2,3.5-3.5,3.3v-1.8c1.1,0.1,1.7-0.3,1.7-1.5V955.2z M104,952.8
				c0-0.7,0.5-1.2,1.2-1.2c0.7,0,1.2,0.5,1.2,1.2c0,0.6-0.5,1.2-1.2,1.2C104.5,954,104,953.4,104,952.8z"/>
		</g>
		<g>
			<path class="st36" d="M116,955.2l-3.3,8.8c-0.8,2.2-2.2,3.3-4.2,3.2v-1.7c1.2,0.1,1.9-0.5,2.3-1.7l0.1-0.2l-3.6-8.4h2l2.6,6.2
				l2.2-6.2H116z"/>
		</g>
	</g>
	<g>
		<path class="st36" d="M211.9,938.7c0,2.1-1.5,3.8-3.6,3.8h-3v-7.6h3C210.4,934.9,211.9,936.6,211.9,938.7z M210.9,938.7
			c0-1.6-1.1-2.9-2.6-2.9h-2v5.7h2C209.8,941.6,210.9,940.3,210.9,938.7z"/>
		<path class="st36" d="M219.5,940.8h-3.4l-0.6,1.7h-1.1l2.8-7.6h1.1l2.8,7.6h-1.1L219.5,940.8z M219.2,939.9l-1.4-3.8l-1.4,3.8
			H219.2z"/>
		<path class="st36" d="M226.4,939.4v3.1h-1v-3.1l-2.7-4.5h1.1l2.1,3.6l2.1-3.6h1.1L226.4,939.4z"/>
		<path class="st36" d="M237,938.7c0-2.4,1.1-4,2.9-4c1.9,0,2.9,1.6,2.9,4c0,2.4-1,4-2.9,4C238.1,942.7,237,941,237,938.7z
			 M241.9,938.7c0-1.9-0.7-3-1.9-3c-1.2,0-1.9,1.1-1.9,3s0.7,3,1.9,3C241.2,941.7,241.9,940.6,241.9,938.7z"/>
		<path class="st36" d="M251.8,941.1h-0.9v1.4h-1v-1.4h-3.9v-0.9l2.7-5.2h1.1l-2.7,5.2h2.8V938h1v2.2h0.9V941.1z"/>
	</g>
	<g>
		<path class="st36" d="M847.4,942.5h-1v-6l-2.5,4.2h-0.1l-2.5-4.1v5.9h-1v-7.6h1.1l2.4,4l2.4-4h1.1V942.5z"/>
		<path class="st36" d="M850.9,938.7c0-2.2,1.7-4,3.9-4c2.2,0,4,1.8,4,4c0,2.2-1.7,4-4,4C852.7,942.7,850.9,940.9,850.9,938.7z
			 M857.8,938.7c0-1.7-1.3-3-2.9-3c-1.7,0-2.9,1.3-2.9,3c0,1.7,1.3,3,2.9,3C856.6,941.7,857.8,940.4,857.8,938.7z"/>
		<path class="st36" d="M865.2,939.6h-1.8v2.9h-1v-7.6h3c1.3,0,2.4,1.1,2.4,2.4c0,1-0.7,1.9-1.6,2.2l1.8,3.1h-1.1L865.2,939.6z
			 M863.4,938.7h2c0.8,0,1.4-0.6,1.4-1.4c0-0.8-0.6-1.4-1.4-1.4h-2V938.7z"/>
		<path class="st36" d="M875.9,941.6v1h-4.6v-7.6h4.5v1h-3.5v2.3h3.2v0.9h-3.2v2.4H875.9z"/>
	</g>
	<g>
		<path class="st36" d="M58.9,938.7c0,2.1-1.5,3.8-3.6,3.8h-3v-7.6h3C57.4,934.9,58.9,936.6,58.9,938.7z M57.9,938.7
			c0-1.6-1.1-2.9-2.6-2.9h-2v5.7h2C56.8,941.6,57.9,940.3,57.9,938.7z"/>
		<path class="st36" d="M67,941.6v1h-4.6v-7.6h4.5v1h-3.5v2.3h3.2v0.9h-3.2v2.4H67z"/>
		<path class="st36" d="M70,940.8l0.9-0.5c0.3,0.8,0.9,1.4,2,1.4c1.1,0,1.6-0.5,1.6-1.2c0-0.8-0.7-1-1.8-1.4
			c-1.2-0.4-2.4-0.8-2.4-2.2c0-1.4,1.1-2.2,2.4-2.2c1.3,0,2.2,0.7,2.6,1.7l-0.8,0.5c-0.3-0.7-0.8-1.2-1.7-1.2
			c-0.8,0-1.4,0.4-1.4,1.1c0,0.7,0.5,1,1.6,1.3c1.3,0.4,2.6,0.8,2.6,2.3c0,1.3-1.1,2.2-2.6,2.2C71.5,942.7,70.4,941.9,70,940.8z"/>
		<path class="st36" d="M80,934.9v7.6h-1v-7.6H80z"/>
		<path class="st36" d="M91.3,939.2c0,1.9-1.4,3.5-3.7,3.5c-2.4,0-4-1.8-4-4c0-2.2,1.7-4,4-4c1.4,0,2.7,0.8,3.3,1.8l-0.9,0.5
			c-0.4-0.8-1.4-1.4-2.4-1.4c-1.8,0-3,1.3-3,3c0,1.7,1.2,3,3,3c1.6,0,2.5-0.9,2.7-2h-2.8v-0.9h3.8V939.2z"/>
		<path class="st36" d="M100.6,934.9v7.6h-0.8l-3.9-5.7v5.7h-1v-7.6h0.8l3.9,5.7v-5.7H100.6z"/>
		<path class="st36" d="M109.1,941.6v1h-4.6v-7.6h4.5v1h-3.5v2.3h3.2v0.9h-3.2v2.4H109.1z"/>
		<path class="st36" d="M119.2,938.7c0,2.1-1.5,3.8-3.6,3.8h-3v-7.6h3C117.6,934.9,119.2,936.6,119.2,938.7z M118.2,938.7
			c0-1.6-1.1-2.9-2.6-2.9h-2v5.7h2C117.1,941.6,118.2,940.3,118.2,938.7z"/>
		<path class="st36" d="M133.2,940.4c0,1.2-1,2.2-2.2,2.2h-3.3v-7.6h3c1.2,0,2.1,0.9,2.1,2.1c0,0.7-0.3,1.2-0.8,1.6
			C132.7,938.9,133.2,939.5,133.2,940.4z M128.7,935.8v2.3h2c0.6,0,1.1-0.5,1.1-1.2c0-0.6-0.5-1.2-1.1-1.2H128.7z M132.2,940.3
			c0-0.7-0.5-1.2-1.2-1.2h-2.3v2.5h2.3C131.7,941.6,132.2,941,132.2,940.3z"/>
		<path class="st36" d="M139.4,939.4v3.1h-1v-3.1l-2.7-4.5h1.1l2.1,3.6l2.1-3.6h1.1L139.4,939.4z"/>
	</g>
	<g>
		<path class="st36" d="M214.1,956c0,2.3-1.8,4.1-4.1,4.1h-2.5v4.2h-2v-12.4h4.6C212.4,951.9,214.1,953.7,214.1,956z M212.1,956
			c0-1.3-0.9-2.2-2.1-2.2h-2.5v4.3h2.5C211.2,958.1,212.1,957.2,212.1,956z"/>
		<path class="st36" d="M214.7,959.9c0-2.6,2.1-4.7,4.7-4.7c2.6,0,4.7,2,4.7,4.7c0,2.6-2.1,4.7-4.7,4.7
			C216.7,964.5,214.7,962.5,214.7,959.9z M222.1,959.9c0-1.6-1.2-2.8-2.8-2.8s-2.8,1.2-2.8,2.8c0,1.6,1.2,2.8,2.8,2.8
			S222.1,961.5,222.1,959.9z"/>
		<path class="st36" d="M225.7,951.4h1.9v12.9h-1.9V951.4z"/>
		<path class="st36" d="M238.8,955.4v8.9h-1.9V963c-0.7,0.9-1.7,1.5-3.1,1.5c-2.4,0-4.4-2-4.4-4.7c0-2.6,2-4.7,4.4-4.7
			c1.4,0,2.4,0.6,3.1,1.5v-1.3H238.8z M236.9,959.9c0-1.6-1.2-2.8-2.8-2.8c-1.6,0-2.8,1.2-2.8,2.8c0,1.6,1.2,2.8,2.8,2.8
			C235.7,962.7,236.9,961.5,236.9,959.9z"/>
		<path class="st36" d="M245.7,955.3v2.1c-1.3-0.1-2.7,0.5-2.7,2.5v4.5H241v-8.9h1.9v1.5C243.5,955.7,244.5,955.3,245.7,955.3z"/>
		<path class="st36" d="M246.8,952.9c0-0.7,0.5-1.2,1.2-1.2c0.7,0,1.2,0.5,1.2,1.2c0,0.7-0.5,1.2-1.2,1.2
			C247.4,954.1,246.8,953.6,246.8,952.9z M247.1,955.4h1.9v8.9h-1.9V955.4z"/>
		<path class="st36" d="M250.7,959.9c0-2.6,2.1-4.7,4.7-4.7c2.6,0,4.7,2,4.7,4.7c0,2.6-2.1,4.7-4.7,4.7
			C252.8,964.5,250.7,962.5,250.7,959.9z M258.1,959.9c0-1.6-1.2-2.8-2.8-2.8s-2.8,1.2-2.8,2.8c0,1.6,1.2,2.8,2.8,2.8
			S258.1,961.5,258.1,959.9z"/>
		<path class="st36" d="M270.7,951.9v12.4h-1.9V963c-0.7,0.9-1.7,1.5-3.1,1.5c-2.4,0-4.4-2-4.4-4.7c0-2.6,2-4.7,4.4-4.7
			c1.4,0,2.4,0.6,3.1,1.5v-4.8H270.7z M268.8,959.9c0-1.6-1.2-2.8-2.8-2.8c-1.6,0-2.8,1.2-2.8,2.8c0,1.6,1.2,2.8,2.8,2.8
			C267.6,962.7,268.8,961.5,268.8,959.9z"/>
	</g>
	<path class="st36" d="M846.7,955.4h2.1l-3.5,8.9h-2.2l-3.5-8.9h2.1l2.5,6.7L846.7,955.4z M851,951.7c-0.7,0-1.2,0.5-1.2,1.2
		c0,0.7,0.5,1.2,1.2,1.2c0.7,0,1.2-0.6,1.2-1.2C852.2,952.2,851.6,951.7,851,951.7z M850,964.3h1.9v-8.9H850V964.3z M854.3,964.7
		c0,1.2-0.5,1.7-1.7,1.6v1.8c2.4,0.2,3.6-1,3.6-3.4v-9.2h-1.9V964.7z M855.2,951.7c-0.7,0-1.2,0.5-1.2,1.2c0,0.7,0.5,1.2,1.2,1.2
		c0.7,0,1.2-0.6,1.2-1.2C856.5,952.2,855.9,951.7,855.2,951.7z M865.4,955.4h1.9v8.9h-1.9V963c-0.7,0.9-1.7,1.5-3.1,1.5
		c-2.4,0-4.4-2-4.4-4.7c0-2.6,2-4.7,4.4-4.7c1.4,0,2.4,0.6,3.1,1.5V955.4z M865.4,959.9c0-1.6-1.2-2.8-2.8-2.8
		c-1.6,0-2.8,1.2-2.8,2.8c0,1.6,1.2,2.8,2.8,2.8C864.2,962.7,865.4,961.5,865.4,959.9z M873.3,961.9l-2.6-6.4h-2.1l3.8,8.7l-0.1,0.2
		c-0.4,1.2-1.1,1.8-2.4,1.7v1.8c2,0.1,3.5-1,4.3-3.3l3.4-9.1h-2L873.3,961.9z M882.3,962.2l-2.5-6.7h-2.1l3.5,8.9h2.2l3.5-8.9h-2.1
		L882.3,962.2z M896.4,959.9c0,0.3,0,0.5-0.1,0.8h-7c0.3,1.4,1.4,2.1,2.8,2.1c1.1,0,1.9-0.5,2.3-1.1l1.6,0.9
		c-0.8,1.2-2.1,1.9-3.9,1.9c-2.9,0-4.8-2-4.8-4.7c0-2.6,1.9-4.7,4.7-4.7C894.5,955.2,896.4,957.3,896.4,959.9z M894.4,959.1
		c-0.3-1.5-1.4-2.2-2.5-2.2c-1.4,0-2.4,0.8-2.7,2.2H894.4z M899.9,956.9v-1.5H898v8.9h1.9v-4.5c0-2,1.5-2.6,2.7-2.5v-2.1
		C901.6,955.3,900.5,955.7,899.9,956.9z M913.8,955.2c-1.2,0-2.1,0.5-2.7,1.4c-0.5-0.9-1.4-1.4-2.5-1.4c-1.1,0-2,0.4-2.5,1.3v-1.1
		h-1.9v8.9h1.9v-5c0-1.6,0.9-2.3,2-2.3c1,0,1.7,0.7,1.7,1.9v5.4h1.9v-5c0-1.6,0.8-2.3,1.9-2.3c1,0,1.7,0.7,1.7,1.9v5.4h1.9v-5.5
		C917.1,956.6,915.8,955.2,913.8,955.2z M926.2,955.4h1.9v8.9h-1.9V963c-0.7,0.9-1.7,1.5-3.1,1.5c-2.4,0-4.4-2-4.4-4.7
		c0-2.6,2-4.7,4.4-4.7c1.4,0,2.4,0.6,3.1,1.5V955.4z M926.2,959.9c0-1.6-1.2-2.8-2.8-2.8c-1.6,0-2.8,1.2-2.8,2.8
		c0,1.6,1.2,2.8,2.8,2.8C925,962.7,926.2,961.5,926.2,959.9z M931.5,961.9c-0.7,0-1.3,0.6-1.3,1.3c0,0.7,0.6,1.3,1.3,1.3
		c0.7,0,1.3-0.6,1.3-1.3C932.8,962.4,932.2,961.9,931.5,961.9z M938.3,962.6c-1.6,0-2.7-1.2-2.7-2.8c0-1.6,1.2-2.8,2.7-2.8
		c1.1,0,1.9,0.5,2.3,1.4l1.6-1c-0.7-1.4-2.2-2.3-3.9-2.3c-2.7,0-4.7,2-4.7,4.7c0,2.6,2,4.7,4.7,4.7c1.7,0,3.2-0.9,4-2.3l-1.6-0.9
		C940.2,962.1,939.3,962.6,938.3,962.6z M952.4,959.9c0,2.6-2.1,4.7-4.7,4.7c-2.6,0-4.7-2-4.7-4.7c0-2.6,2.1-4.7,4.7-4.7
		C950.3,955.2,952.4,957.2,952.4,959.9z M950.5,959.9c0-1.6-1.2-2.8-2.8-2.8s-2.8,1.2-2.8,2.8c0,1.6,1.2,2.8,2.8,2.8
		S950.5,961.5,950.5,959.9z"/>
</g>
</svg>
