<?xml version="1.0" encoding="utf-8"?>
<!-- Generator: Adobe Illustrator 23.1.1, SVG Export Plug-In . SVG Version: 6.00 Build 0)  -->
<svg version="1.1" id="Layer_1" xmlns="http://www.w3.org/2000/svg" xmlns:xlink="http://www.w3.org/1999/xlink" x="0px" y="0px"
	 viewBox="0 0 1000 1000" style="enable-background:new 0 0 1000 1000;" xml:space="preserve">
<style type="text/css">
	.st0{fill:url(#XMLID_37_);}
	.st1{fill:#EEF2F4;}
	.st2{opacity:0.19;fill:#2D2D2D;stroke:#2D2D2D;stroke-width:6;stroke-miterlimit:10;}
	.st3{fill:#B4D8ED;}
	.st4{opacity:0.73;fill:#7BA9BF;}
	.st5{fill:none;stroke:#2D2D2D;stroke-width:6;stroke-linecap:round;stroke-linejoin:round;stroke-miterlimit:10;}
	.st6{fill:#4F5C68;}
	.st7{fill:#35BC6C;}
	.st8{fill:#2AA85D;}
	.st9{fill:#FFC661;}
	.st10{fill:#3C4652;}
	.st11{fill:#363F49;}
	.st12{fill:#2F3942;}
	.st13{fill:#46515B;}
	.st14{fill:#4F5E6D;}
	.st15{fill:none;stroke:#2D2D2D;stroke-width:5;stroke-linecap:round;stroke-linejoin:round;stroke-miterlimit:10;}
	.st16{fill:#2D2D2D;}
	.st17{fill:#FC244D;}
	.st18{fill:#CE1D47;}
	.st19{fill:#232323;}
	.st20{fill:#2D2D2D;stroke:#2D2D2D;stroke-width:6;stroke-miterlimit:10;}
	.st21{opacity:0.2;}
	.st22{fill:#FFFFFF;}
</style>
<linearGradient id="XMLID_37_" gradientUnits="userSpaceOnUse" x1="500" y1="-147.0147" x2="500" y2="1036.8871">
	<stop  offset="0" style="stop-color:#E03F3F"/>
	<stop  offset="1" style="stop-color:#CE0033"/>
</linearGradient>
<rect id="XMLID_2_" class="st0" width="1000" height="1000"/>
<g>
	<g>
		<g>
			<path class="st1" d="M63.2,959.2c0,2.5-1.2,3.7-2.6,3.7c-1.1,0-1.9-0.5-2.1-1.4c-0.4,0.5-1,0.8-1.8,0.8c-1.5,0-2.6-1.2-2.6-2.8
				c0-1.6,1.1-2.8,2.6-2.8c0.7,0,1.2,0.3,1.6,0.7v-0.5h1.6v3.9c0,0.8,0.3,1.4,1,1.4c0.9,0,1.7-0.9,1.7-3c0-3-2.3-5.3-5.4-5.3
				c-3.1,0-5.6,2.4-5.6,5.7c0,3.3,2.5,5.7,5.9,5.7c1.1,0,2.1-0.2,2.9-0.4v0.6c-0.8,0.3-1.7,0.4-2.9,0.4c-3.7,0-6.5-2.6-6.5-6.2
				c0-3.4,2.7-6.2,6.2-6.2C61.1,953.3,63.2,956.4,63.2,959.2z M58.3,959.5c0-0.8-0.6-1.4-1.3-1.4c-0.8,0-1.3,0.5-1.3,1.4
				c0,0.8,0.6,1.3,1.3,1.3C57.8,960.9,58.3,960.3,58.3,959.5z"/>
		</g>
		<g>
			<path class="st1" d="M69.4,955.1v2c-1.2-0.1-2.6,0.5-2.6,2.4v4.3h-1.9v-8.6h1.9v1.4C67.3,955.5,68.3,955.1,69.4,955.1z"/>
		</g>
		<g>
			<path class="st1" d="M74.6,962.3c1,0,1.8-0.5,2.2-1.1l1.5,0.9c-0.8,1.2-2.1,1.9-3.8,1.9c-2.8,0-4.7-1.9-4.7-4.5
				c0-2.5,1.8-4.5,4.5-4.5c2.6,0,4.3,2.1,4.3,4.5c0,0.3,0,0.5-0.1,0.8h-6.8C72.1,961.6,73.2,962.3,74.6,962.3z M76.9,958.8
				c-0.3-1.5-1.3-2.1-2.5-2.1c-1.4,0-2.3,0.8-2.6,2.1H76.9z"/>
		</g>
		<g>
			<path class="st1" d="M88.9,955.2v8.6h-1.9v-1.2c-0.7,0.9-1.7,1.5-3,1.5c-2.3,0-4.3-2-4.3-4.5c0-2.6,1.9-4.5,4.3-4.5
				c1.3,0,2.3,0.5,3,1.4v-1.2H88.9z M87.1,959.5c0-1.6-1.2-2.7-2.7-2.7c-1.5,0-2.7,1.1-2.7,2.7c0,1.6,1.2,2.7,2.7,2.7
				C85.9,962.3,87.1,961.1,87.1,959.5z"/>
		</g>
		<g>
			<path class="st1" d="M91.1,951.3H93v12.5h-1.9V951.3z"/>
		</g>
		<g>
			<path class="st1" d="M102.9,955.2l-3.3,8.6h-2.1l-3.3-8.6h2l2.4,6.5l2.4-6.5H102.9z"/>
		</g>
		<g>
			<path class="st1" d="M104.2,955.2h1.9v8.9c0,2.4-1.2,3.5-3.5,3.3v-1.8c1.1,0.1,1.7-0.3,1.7-1.5V955.2z M104,952.8
				c0-0.7,0.5-1.2,1.2-1.2c0.7,0,1.2,0.5,1.2,1.2c0,0.6-0.5,1.2-1.2,1.2C104.5,954,104,953.4,104,952.8z"/>
		</g>
		<g>
			<path class="st1" d="M116,955.2l-3.3,8.8c-0.8,2.2-2.2,3.3-4.2,3.2v-1.7c1.2,0.1,1.9-0.5,2.3-1.7l0.1-0.2l-3.6-8.4h2l2.6,6.2
				l2.2-6.2H116z"/>
		</g>
	</g>
	<g>
		<path class="st1" d="M211.9,938.7c0,2.1-1.5,3.8-3.6,3.8h-3v-7.6h3C210.4,934.9,211.9,936.6,211.9,938.7z M210.9,938.7
			c0-1.6-1.1-2.9-2.6-2.9h-2v5.7h2C209.8,941.6,210.9,940.3,210.9,938.7z"/>
		<path class="st1" d="M219.5,940.8h-3.4l-0.6,1.7h-1.1l2.8-7.6h1.1l2.8,7.6h-1.1L219.5,940.8z M219.2,939.9l-1.4-3.8l-1.4,3.8
			H219.2z"/>
		<path class="st1" d="M226.4,939.4v3.1h-1v-3.1l-2.7-4.5h1.1l2.1,3.6l2.1-3.6h1.1L226.4,939.4z"/>
		<path class="st1" d="M242.6,941.1h-0.9v1.4h-1v-1.4h-3.9v-0.9l2.7-5.2h1.1l-2.7,5.2h2.8V938h1v2.2h0.9V941.1z"/>
		<path class="st1" d="M250.6,940.3c0,1.5-1.2,2.4-2.6,2.4c-1.1,0-2.1-0.5-2.5-1.6l0.9-0.5c0.2,0.8,0.8,1.1,1.7,1.1
			c0.9,0,1.6-0.5,1.6-1.4c0-0.9-0.7-1.4-1.6-1.4h-2.2l0.3-4h4.2v0.9h-3.3l-0.1,2h1.1C249.4,937.9,250.6,938.7,250.6,940.3z"/>
	</g>
	<g>
		<path class="st1" d="M58.9,938.7c0,2.1-1.5,3.8-3.6,3.8h-3v-7.6h3C57.4,934.9,58.9,936.6,58.9,938.7z M57.9,938.7
			c0-1.6-1.1-2.9-2.6-2.9h-2v5.7h2C56.8,941.6,57.9,940.3,57.9,938.7z"/>
		<path class="st1" d="M67,941.6v1h-4.6v-7.6h4.5v1h-3.5v2.3h3.2v0.9h-3.2v2.4H67z"/>
		<path class="st1" d="M70,940.8l0.9-0.5c0.3,0.8,0.9,1.4,2,1.4c1.1,0,1.6-0.5,1.6-1.2c0-0.8-0.7-1-1.8-1.4
			c-1.2-0.4-2.4-0.8-2.4-2.2c0-1.4,1.1-2.2,2.4-2.2c1.3,0,2.2,0.7,2.6,1.7l-0.8,0.5c-0.3-0.7-0.8-1.2-1.7-1.2
			c-0.8,0-1.4,0.4-1.4,1.1c0,0.7,0.5,1,1.6,1.3c1.3,0.4,2.6,0.8,2.6,2.3c0,1.3-1.1,2.2-2.6,2.2C71.5,942.7,70.4,941.9,70,940.8z"/>
		<path class="st1" d="M80,934.9v7.6h-1v-7.6H80z"/>
		<path class="st1" d="M91.3,939.2c0,1.9-1.4,3.5-3.7,3.5c-2.4,0-4-1.8-4-4c0-2.2,1.7-4,4-4c1.4,0,2.7,0.8,3.3,1.8l-0.9,0.5
			c-0.4-0.8-1.4-1.4-2.4-1.4c-1.8,0-3,1.3-3,3c0,1.7,1.2,3,3,3c1.6,0,2.5-0.9,2.7-2h-2.8v-0.9h3.8V939.2z"/>
		<path class="st1" d="M100.6,934.9v7.6h-0.8l-3.9-5.7v5.7h-1v-7.6h0.8l3.9,5.7v-5.7H100.6z"/>
		<path class="st1" d="M109.1,941.6v1h-4.6v-7.6h4.5v1h-3.5v2.3h3.2v0.9h-3.2v2.4H109.1z"/>
		<path class="st1" d="M119.2,938.7c0,2.1-1.5,3.8-3.6,3.8h-3v-7.6h3C117.6,934.9,119.2,936.6,119.2,938.7z M118.2,938.7
			c0-1.6-1.1-2.9-2.6-2.9h-2v5.7h2C117.1,941.6,118.2,940.3,118.2,938.7z"/>
		<path class="st1" d="M133.2,940.4c0,1.2-1,2.2-2.2,2.2h-3.3v-7.6h3c1.2,0,2.1,0.9,2.1,2.1c0,0.7-0.3,1.2-0.8,1.6
			C132.7,938.9,133.2,939.5,133.2,940.4z M128.7,935.8v2.3h2c0.6,0,1.1-0.5,1.1-1.2c0-0.6-0.5-1.2-1.1-1.2H128.7z M132.2,940.3
			c0-0.7-0.5-1.2-1.2-1.2h-2.3v2.5h2.3C131.7,941.6,132.2,941,132.2,940.3z"/>
		<path class="st1" d="M139.4,939.4v3.1h-1v-3.1l-2.7-4.5h1.1l2.1,3.6l2.1-3.6h1.1L139.4,939.4z"/>
	</g>
	<g>
		<path class="st1" d="M217.5,958.7c0,3.4-2.4,5.8-6.1,5.8c-3.9,0-6.6-2.9-6.6-6.4s2.8-6.4,6.5-6.4c2.4,0,4.4,1.2,5.4,2.9l-1.8,1
			c-0.6-1.2-2-2-3.6-2c-2.6,0-4.5,1.9-4.5,4.5c0,2.5,1.8,4.4,4.6,4.4c2.2,0,3.6-1.2,4-2.8h-4.1v-1.8h6.2V958.7z"/>
		<path class="st1" d="M228,956c0,2.3-1.8,4.1-4.1,4.1h-2.5v4.2h-2v-12.4h4.6C226.3,951.9,228,953.7,228,956z M226,956
			c0-1.3-0.9-2.2-2.1-2.2h-2.5v4.3h2.5C225.1,958.1,226,957.2,226,956z"/>
		<path class="st1" d="M229.7,960.2v-8.3h2v8.2c0,1.5,0.8,2.5,2.7,2.5s2.7-1,2.7-2.5v-8.2h2v8.3c0,2.7-2,4.3-4.7,4.3
			C231.7,964.5,229.7,962.9,229.7,960.2z"/>
	</g>
	<g>
		<g>
			<g>
				<path class="st1" d="M846.1,938.7c0,2.1-1.5,3.8-3.6,3.8h-3v-7.6h3C844.6,934.9,846.1,936.6,846.1,938.7z M845.2,938.7
					c0-1.6-1.1-2.9-2.6-2.9h-2v5.7h2C844.1,941.6,845.2,940.3,845.2,938.7z"/>
			</g>
			<g>
				<path class="st1" d="M849.3,938.7c0-2.2,1.7-4,3.9-4c2.2,0,4,1.8,4,4c0,2.2-1.7,4-4,4C851,942.7,849.3,940.9,849.3,938.7z
					 M856.1,938.7c0-1.7-1.3-3-2.9-3c-1.7,0-2.9,1.3-2.9,3c0,1.7,1.3,3,2.9,3C854.9,941.7,856.1,940.4,856.1,938.7z"/>
			</g>
			<g>
				<path class="st1" d="M859.8,934.9h1.1l1.7,6.3l1.9-6.3h1l1.9,6.3l1.7-6.3h1.1l-2.2,7.6h-1.2l-1.8-6.1l-1.8,6.1H862L859.8,934.9z
					"/>
			</g>
			<g>
				<path class="st1" d="M879.3,934.9v7.6h-0.8l-3.9-5.7v5.7h-1v-7.6h0.8l3.9,5.7v-5.7H879.3z"/>
			</g>
			<g>
				<path class="st1" d="M887.5,941.6v1h-4.3v-7.6h1v6.7H887.5z"/>
			</g>
			<g>
				<path class="st1" d="M889.9,938.7c0-2.2,1.7-4,3.9-4c2.2,0,4,1.8,4,4c0,2.2-1.7,4-4,4C891.6,942.7,889.9,940.9,889.9,938.7z
					 M896.8,938.7c0-1.7-1.3-3-2.9-3c-1.7,0-2.9,1.3-2.9,3c0,1.7,1.3,3,2.9,3C895.5,941.7,896.8,940.4,896.8,938.7z"/>
			</g>
			<g>
				<path class="st1" d="M905.4,940.8H902l-0.6,1.7h-1.1l2.8-7.6h1.1l2.8,7.6H906L905.4,940.8z M905.1,939.9l-1.4-3.8l-1.4,3.8
					H905.1z"/>
			</g>
			<g>
				<path class="st1" d="M916.9,938.7c0,2.1-1.5,3.8-3.6,3.8h-3v-7.6h3C915.4,934.9,916.9,936.6,916.9,938.7z M915.9,938.7
					c0-1.6-1.1-2.9-2.6-2.9h-2v5.7h2C914.9,941.6,915.9,940.3,915.9,938.7z"/>
			</g>
			<g>
				<path class="st1" d="M926.5,935.8v2.5h3.2v1h-3.2v3.2h-1v-7.6h4.4v1H926.5z"/>
			</g>
			<g>
				<path class="st1" d="M936.2,939.6h-1.8v2.9h-1v-7.6h3c1.3,0,2.4,1.1,2.4,2.4c0,1-0.7,1.9-1.6,2.2l1.8,3.1h-1.1L936.2,939.6z
					 M934.4,938.7h2c0.8,0,1.4-0.6,1.4-1.4c0-0.8-0.6-1.4-1.4-1.4h-2V938.7z"/>
			</g>
			<g>
				<path class="st1" d="M941.9,938.7c0-2.2,1.7-4,3.9-4c2.2,0,4,1.8,4,4c0,2.2-1.7,4-4,4C943.6,942.7,941.9,940.9,941.9,938.7z
					 M948.8,938.7c0-1.7-1.3-3-2.9-3c-1.7,0-2.9,1.3-2.9,3c0,1.7,1.3,3,2.9,3C947.5,941.7,948.8,940.4,948.8,938.7z"/>
			</g>
			<g>
				<path class="st1" d="M960.4,942.5h-1v-6l-2.5,4.2h-0.1l-2.5-4.1v5.9h-1v-7.6h1.1l2.4,4l2.4-4h1.1V942.5z"/>
			</g>
		</g>
		<g>
			<g>
				<path class="st1" d="M839.3,952.9c0-0.7,0.5-1.2,1.2-1.2c0.7,0,1.2,0.5,1.2,1.2c0,0.7-0.5,1.2-1.2,1.2
					C839.9,954.1,839.3,953.6,839.3,952.9z M839.6,955.4h1.9v8.9h-1.9V955.4z"/>
			</g>
			<g>
				<path class="st1" d="M843.7,951.4h1.9v12.9h-1.9V951.4z"/>
			</g>
			<g>
				<path class="st1" d="M847.8,951.4h1.9v12.9h-1.9V951.4z"/>
			</g>
			<g>
				<path class="st1" d="M852,951.4h1.9v12.9H852V951.4z"/>
			</g>
			<g>
				<path class="st1" d="M864,955.4v8.9h-1.9v-1.1c-0.6,0.9-1.5,1.4-2.7,1.4c-2,0-3.4-1.3-3.4-3.6v-5.4h1.9v5.2c0,1.3,0.8,2.1,2,2.1
					c1.3,0,2.2-0.7,2.2-2.5v-4.7H864z"/>
			</g>
			<g>
				<path class="st1" d="M872.6,961.8c0,1.8-1.5,2.7-3.5,2.7c-1.8,0-3-0.8-3.6-2.1l1.6-1c0.3,0.8,1,1.3,2,1.3c0.8,0,1.5-0.3,1.5-1
					c0-1.6-4.8-0.7-4.8-3.9c0-1.7,1.4-2.7,3.2-2.7c1.5,0,2.7,0.7,3.3,1.8l-1.6,0.9c-0.3-0.7-0.9-1-1.7-1c-0.7,0-1.3,0.3-1.3,0.9
					C867.9,959.5,872.6,958.5,872.6,961.8z"/>
			</g>
			<g>
				<path class="st1" d="M876.7,957.3v4.2c0,1.1,0.7,1.1,2.2,1v1.7c-2.9,0.4-4.1-0.5-4.1-2.8v-4.2h-1.6v-1.8h1.6v-1.9l1.9-0.6v2.5
					h2.2v1.8H876.7z"/>
			</g>
			<g>
				<path class="st1" d="M885.4,955.3v2.1c-1.3-0.1-2.7,0.5-2.7,2.5v4.5h-1.9v-8.9h1.9v1.5C883.2,955.7,884.2,955.3,885.4,955.3z"/>
			</g>
			<g>
				<path class="st1" d="M895.3,955.4v8.9h-1.9V963c-0.7,0.9-1.7,1.5-3.1,1.5c-2.4,0-4.4-2-4.4-4.7c0-2.6,2-4.7,4.4-4.7
					c1.4,0,2.4,0.6,3.1,1.5v-1.3H895.3z M893.4,959.9c0-1.6-1.2-2.8-2.8-2.8c-1.6,0-2.8,1.2-2.8,2.8c0,1.6,1.2,2.8,2.8,2.8
					C892.2,962.7,893.4,961.5,893.4,959.9z"/>
			</g>
			<g>
				<path class="st1" d="M900.3,957.3v4.2c0,1.1,0.7,1.1,2.2,1v1.7c-2.9,0.4-4.1-0.5-4.1-2.8v-4.2h-1.6v-1.8h1.6v-1.9l1.9-0.6v2.5
					h2.2v1.8H900.3z"/>
			</g>
			<g>
				<path class="st1" d="M903.9,952.9c0-0.7,0.5-1.2,1.2-1.2c0.7,0,1.2,0.5,1.2,1.2c0,0.7-0.5,1.2-1.2,1.2
					C904.5,954.1,903.9,953.6,903.9,952.9z M904.2,955.4h1.9v8.9h-1.9V955.4z"/>
			</g>
			<g>
				<path class="st1" d="M907.8,959.9c0-2.6,2.1-4.7,4.7-4.7c2.6,0,4.7,2,4.7,4.7c0,2.6-2.1,4.7-4.7,4.7
					C909.9,964.5,907.8,962.5,907.8,959.9z M915.3,959.9c0-1.6-1.2-2.8-2.8-2.8c-1.6,0-2.8,1.2-2.8,2.8c0,1.6,1.2,2.8,2.8,2.8
					C914.1,962.7,915.3,961.5,915.3,959.9z"/>
			</g>
			<g>
				<path class="st1" d="M927,958.9v5.4h-1.9v-5.2c0-1.3-0.8-2.1-2-2.1c-1.3,0-2.2,0.7-2.2,2.5v4.7h-1.9v-8.9h1.9v1.1
					c0.6-0.9,1.5-1.4,2.7-1.4C925.5,955.2,927,956.6,927,958.9z"/>
			</g>
			<g>
				<path class="st1" d="M935.5,961.8c0,1.8-1.5,2.7-3.5,2.7c-1.8,0-3-0.8-3.6-2.1l1.6-1c0.3,0.8,1,1.3,2,1.3c0.8,0,1.5-0.3,1.5-1
					c0-1.6-4.8-0.7-4.8-3.9c0-1.7,1.4-2.7,3.2-2.7c1.5,0,2.7,0.7,3.3,1.8l-1.6,0.9c-0.3-0.7-0.9-1-1.7-1c-0.7,0-1.3,0.3-1.3,0.9
					C930.7,959.5,935.5,958.5,935.5,961.8z"/>
			</g>
			<g>
				<path class="st1" d="M936.8,963.2c0-0.7,0.6-1.3,1.3-1.3c0.7,0,1.3,0.6,1.3,1.3c0,0.7-0.6,1.3-1.3,1.3
					C937.4,964.5,936.8,963.9,936.8,963.2z"/>
			</g>
			<g>
				<path class="st1" d="M940.3,959.9c0-2.6,2-4.7,4.7-4.7c1.7,0,3.2,0.9,3.9,2.3l-1.6,1c-0.4-0.8-1.3-1.4-2.3-1.4
					c-1.6,0-2.7,1.2-2.7,2.8c0,1.6,1.2,2.8,2.7,2.8c1.1,0,1.9-0.5,2.4-1.4l1.6,0.9c-0.7,1.4-2.2,2.3-4,2.3
					C942.3,964.5,940.3,962.5,940.3,959.9z"/>
			</g>
			<g>
				<path class="st1" d="M949.7,959.9c0-2.6,2.1-4.7,4.7-4.7c2.6,0,4.7,2,4.7,4.7c0,2.6-2.1,4.7-4.7,4.7
					C951.8,964.5,949.7,962.5,949.7,959.9z M957.2,959.9c0-1.6-1.2-2.8-2.8-2.8s-2.8,1.2-2.8,2.8c0,1.6,1.2,2.8,2.8,2.8
					S957.2,961.5,957.2,959.9z"/>
			</g>
		</g>
	</g>
</g>
<path id="XMLID_102_" class="st2" d="M643.4,405.1h-258v81.5h-18v-130v0c0-9.9-8.1-18-18-18h-29.2v18h29.2V418h-12c-4.4,0-8,3.6-8,8
	v48c0,4.4,3.6,8,8,8h12v26.1h-12c-4.4,0-8,3.6-8,8v38c0,4.4,3.6,8,8,8h12v63.5c0,5,4,9,9,9s9-4,9-9v-40.5h25.1v11.3c0,3.9,3.1,7,7,7
	s7-3.1,7-7v-11.3H422v22c0,5.5,4.5,10,10,10h44c5.5,0,10-4.5,10-10v-22h20.2v22c0,5.5,4.5,10,10,10h112c5.5,0,10-4.5,10-10v-22h5.2
	c12.2,0,22-9.8,22-22v-136C665.4,415,655.6,405.1,643.4,405.1z"/>
<g>
	<path id="XMLID_65_" class="st3" d="M346.4,406v64h-12c-4.4,0-8-3.6-8-8v-48c0-4.4,3.6-8,8-8H346.4z"/>
	<path id="XMLID_56_" class="st3" d="M346.4,496.1v54h-12c-4.4,0-8-3.6-8-8v-38c0-4.4,3.6-8,8-8H346.4z"/>
	
		<rect id="XMLID_79_" x="310.1" y="433.7" transform="matrix(1.469408e-11 -1 1 1.469408e-11 -95.894 780.1442)" class="st4" width="64" height="8.6"/>
	
		<rect id="XMLID_77_" x="315.1" y="518.8" transform="matrix(1.741546e-11 -1 1 1.741546e-11 -180.9478 865.198)" class="st4" width="54" height="8.6"/>
	<path id="XMLID_8_" class="st5" d="M346.4,406v64h-12c-4.4,0-8-3.6-8-8v-48c0-4.4,3.6-8,8-8H346.4z"/>
	<path id="XMLID_9_" class="st5" d="M346.4,496.1v54h-12c-4.4,0-8-3.6-8-8v-38c0-4.4,3.6-8,8-8H346.4z"/>
	<path id="XMLID_3_" class="st6" d="M346.4,326.6h-29.2v18h29.2v269c0,5,4,9,9,9l0,0c5,0,9-4,9-9v-269v0
		C364.4,334.7,356.4,326.6,346.4,326.6L346.4,326.6z"/>
	<path id="XMLID_64_" class="st5" d="M346.4,326.6h-29.2v18h29.2v269c0,5,4,9,9,9l0,0c5,0,9-4,9-9v-269v0
		C364.4,334.7,356.4,326.6,346.4,326.6L346.4,326.6z"/>
	<g>
		<path id="XMLID_50_" class="st7" d="M513.2,605.1h112c5.5,0,10-4.5,10-10v-22h-132v22C503.2,600.6,507.7,605.1,513.2,605.1z"/>
		
			<rect id="XMLID_82_" x="503.2" y="574.1" transform="matrix(-1 -1.285695e-11 1.285695e-11 -1 1138.4961 1157.4103)" class="st8" width="132" height="9.2"/>
		<g id="XMLID_53_">
			<g>
				<path class="st9" d="M628.3,605.1h-7v-14c0-1.1,0.9-2,2-2h3c1.1,0,2,0.9,2,2V605.1z"/>
			</g>
			<g>
				<path class="st9" d="M616.3,605.1h-7v-14c0-1.1,0.9-2,2-2h3c1.1,0,2,0.9,2,2V605.1z"/>
			</g>
			<g>
				<path class="st9" d="M604.3,605.1h-7v-14c0-1.1,0.9-2,2-2h3c1.1,0,2,0.9,2,2V605.1z"/>
			</g>
			<g>
				<path class="st9" d="M592.3,605.1h-7v-14c0-1.1,0.9-2,2-2h3c1.1,0,2,0.9,2,2V605.1z"/>
			</g>
			<g>
				<path class="st9" d="M580.3,605.1h-7v-14c0-1.1,0.9-2,2-2h3c1.1,0,2,0.9,2,2V605.1z"/>
			</g>
			<g>
				<path class="st9" d="M568.3,605.1h-7v-14c0-1.1,0.9-2,2-2h3c1.1,0,2,0.9,2,2V605.1z"/>
			</g>
			<g>
				<path class="st9" d="M556.3,605.1h-7v-14c0-1.1,0.9-2,2-2h3c1.1,0,2,0.9,2,2V605.1z"/>
			</g>
			<g>
				<path class="st9" d="M544.3,605.1h-7v-14c0-1.1,0.9-2,2-2h3c1.1,0,2,0.9,2,2V605.1z"/>
			</g>
			<g>
				<path class="st9" d="M532.3,605.1h-7v-14c0-1.1,0.9-2,2-2h3c1.1,0,2,0.9,2,2V605.1z"/>
			</g>
			<g>
				<path class="st9" d="M520.3,605.1h-7v-14c0-1.1,0.9-2,2-2h3c1.1,0,2,0.9,2,2V605.1z"/>
			</g>
		</g>
		<path id="XMLID_4_" class="st5" d="M513.2,605.1h112c5.5,0,10-4.5,10-10v-22h-132v22C503.2,600.6,507.7,605.1,513.2,605.1z"/>
	</g>
	<g>
		<path id="XMLID_20_" class="st7" d="M429,605.1h44c5.5,0,10-4.5,10-10v-22h-64v22C419,600.6,423.5,605.1,429,605.1z"/>
		
			<rect id="XMLID_80_" x="419" y="574.1" transform="matrix(-1 -1.287516e-11 1.287516e-11 -1 901.9997 1157.4103)" class="st8" width="64" height="9.2"/>
		<g id="XMLID_51_">
			<g>
				<path class="st9" d="M472.8,605.1h-7v-14c0-1.1,0.9-2,2-2h3c1.1,0,2,0.9,2,2V605.1z"/>
			</g>
			<g>
				<path class="st9" d="M460.8,605.1h-7v-14c0-1.1,0.9-2,2-2h3c1.1,0,2,0.9,2,2V605.1z"/>
			</g>
			<g>
				<path class="st9" d="M448.8,605.1h-7v-14c0-1.1,0.9-2,2-2h3c1.1,0,2,0.9,2,2V605.1z"/>
			</g>
			<g>
				<path class="st9" d="M436.8,605.1h-7v-14c0-1.1,0.9-2,2-2h3c1.1,0,2,0.9,2,2V605.1z"/>
			</g>
		</g>
		<path id="XMLID_6_" class="st5" d="M429,605.1h44c5.5,0,10-4.5,10-10v-22h-64v22C419,600.6,423.5,605.1,429,605.1z"/>
	</g>
	<path id="XMLID_7_" class="st10" d="M640.4,393.1h-258v81.5h-18v98.5h276c12.2,0,22-9.8,22-22v-136
		C662.4,403,652.6,393.1,640.4,393.1z"/>
	<path id="XMLID_35_" class="st11" d="M640.4,393.1h-7.3c12.2,0,22,9.8,22,22v136c0,12.2-9.8,22-22,22h7.3c12.2,0,22-9.8,22-22v-136
		C662.4,403,652.6,393.1,640.4,393.1z"/>
	<path id="XMLID_34_" class="st12" d="M640.4,565.2h-276v7.9h276c12.2,0,22-9.8,22-22v-7.9C662.4,555.4,652.6,565.2,640.4,565.2z"/>
	<g id="XMLID_30_">
		<path id="XMLID_31_" class="st13" d="M640.4,393.1h-258v9h258c12.2,0,22,9.8,22,22v-9C662.4,403,652.6,393.1,640.4,393.1z"/>
		<rect id="XMLID_32_" x="364.4" y="474.6" class="st13" width="18" height="9"/>
	</g>
	<rect id="XMLID_5_" x="364.4" y="474.6" class="st12" width="10.2" height="98.5"/>
	<path id="XMLID_49_" class="st5" d="M640.4,393.1h-258v81.5h-18v98.5h276c12.2,0,22-9.8,22-22v-136
		C662.4,403,652.6,393.1,640.4,393.1z"/>
	<path id="XMLID_18_" class="st14" d="M570.4,549.1H396.5v-132h173.9c36.5,0,66,29.5,66,66v0C636.4,519.6,606.9,549.1,570.4,549.1z"
		/>
	<path id="XMLID_10_" class="st15" d="M570.4,549.1H396.5v-132h173.9c36.5,0,66,29.5,66,66v0C636.4,519.6,606.9,549.1,570.4,549.1z"
		/>
	<g>
		<circle id="XMLID_12_" class="st16" cx="570.3" cy="483.1" r="56"/>
		<path id="XMLID_14_" class="st17" d="M573.2,538.3c-3.4-3.4-6.3-7.3-8.7-11.5c-7.3-12.6-9.3-27-6-40.9
			c-7.1,9.1-11.1,20.4-11.1,32.1c0,4.5,0.6,9,1.7,13.3l1.1,4.2l-3.9-1.8c-8.9-4.2-16.5-10.7-22.1-18.8l-0.5-0.8l0.2-0.9
			c1.3-4.7,3.1-9.1,5.5-13.3c7.3-12.6,18.8-21.6,32.4-25.6c-2.5-0.4-4.9-0.5-7.4-0.5c-9.1,0-18,2.4-25.9,7c-3.9,2.2-7.5,5-10.6,8.1
			l-3.1,3l-0.3-4.3c-0.1-1.7-0.2-3.1-0.2-4.5c0-8.4,1.8-16.5,5.4-24l0.4-0.8l0.9-0.2c4.7-1.2,9.5-1.9,14.3-1.9
			c14.5,0,28.1,5.5,38.4,15.2c-4.3-10.7-12.1-19.8-22.2-25.7c-3.9-2.2-8-4-12.4-5.2l-4.1-1.1l3.5-2.4c8.1-5.6,17.5-8.9,27.3-9.7
			l0.9-0.1l0.7,0.7c3.4,3.4,6.3,7.3,8.7,11.5c7.3,12.6,9.3,27,6,40.9c7.1-9.1,11.1-20.4,11.1-32.1c0-4.5-0.6-9-1.7-13.3l-1.1-4.2
			l3.9,1.8c8.9,4.2,16.5,10.7,22.1,18.8l0.5,0.8l-0.2,0.9c-1.3,4.6-3.1,9.1-5.5,13.3c-7.3,12.6-18.8,21.6-32.4,25.6
			c2.5,0.4,4.9,0.5,7.4,0.5c9.1,0,18-2.4,25.9-7c3.9-2.2,7.5-5,10.6-8.1l3.1-3l0.3,4.3c0.1,1.7,0.2,3.1,0.2,4.5
			c0,8.4-1.8,16.5-5.4,24l-0.4,0.8l-0.9,0.2c-4.7,1.2-9.5,1.9-14.3,1.9c-14.5,0-28.1-5.5-38.4-15.2c4.3,10.7,12.1,19.8,22.2,25.7
			c3.9,2.2,8,4,12.4,5.2l4.1,1.1l-3.5,2.4c-8.1,5.6-17.5,8.9-27.3,9.7l-0.9,0.1L573.2,538.3z"/>
		<g id="XMLID_57_">
			<path id="XMLID_58_" class="st18" d="M551.1,430.5c0.4-0.2,0.8-0.3,1.3-0.4C552,430.2,551.6,430.4,551.1,430.5z"/>
			<path id="XMLID_59_" class="st18" d="M548.9,431.4c-0.4,0.2-0.8,0.3-1.2,0.5C548.1,431.7,548.5,431.5,548.9,431.4z"/>
			<path id="XMLID_60_" class="st18" d="M550.7,430.7c-0.4,0.2-0.8,0.3-1.2,0.5C549.8,431,550.2,430.8,550.7,430.7z"/>
			<path id="XMLID_61_" class="st18" d="M547.2,432.1c-0.4,0.2-0.7,0.3-1.1,0.5C546.5,432.4,546.8,432.3,547.2,432.1z"/>
			<path id="XMLID_62_" class="st18" d="M545.5,432.9c-0.3,0.2-0.7,0.3-1,0.5C544.8,433.2,545.2,433.1,545.5,432.9z"/>
			<path id="XMLID_63_" class="st18" d="M542.2,434.7c-0.3,0.2-0.5,0.3-0.8,0.5C541.6,435,541.9,434.9,542.2,434.7z"/>
			<path id="XMLID_66_" class="st18" d="M543.8,433.8c-0.3,0.2-0.6,0.3-0.9,0.5C543.2,434.1,543.5,433.9,543.8,433.8z"/>
			<path id="XMLID_67_" class="st18" d="M540.5,435.7c-0.2,0.1-0.4,0.3-0.7,0.4C540.1,436,540.3,435.9,540.5,435.7z"/>
			<path id="XMLID_68_" class="st18" d="M538.8,436.8c-0.1,0.1-0.2,0.2-0.4,0.2l-0.3,0.2C538.4,437.1,538.6,437,538.8,436.8z"/>
			<path id="XMLID_69_" class="st18" d="M560.4,428c-0.1,0-0.3,0.1-0.4,0.1L560.4,428z"/>
			<path id="XMLID_70_" class="st18" d="M538,437.3l-3.1,2.2l0.2,0.1C536.1,438.8,537,438,538,437.3z"/>
			<path id="XMLID_71_" class="st18" d="M554.2,429.5c-0.4,0.1-0.9,0.3-1.3,0.4C553.3,429.8,553.7,429.6,554.2,429.5z"/>
			<path id="XMLID_72_" class="st18" d="M556,429c-0.5,0.1-0.9,0.2-1.4,0.4C555.1,429.2,555.5,429.1,556,429z"/>
			<path id="XMLID_73_" class="st18" d="M518.6,463.5c4.5-1.7,9.2-2.9,14-3.4c14.4-1.5,28.5,2.4,39.8,11.1c-0.3-0.6-0.6-1.1-0.9-1.7
				c-10-8.5-22.7-13.3-36.2-13.3c-4.8,0-9.7,0.6-14.3,1.9l-0.9,0.2l-0.4,0.8c-0.7,1.5-1.4,3.1-1.9,4.6L518.6,463.5z"/>
			<path id="XMLID_74_" class="st18" d="M559.7,428.1c-0.5,0.1-1.1,0.2-1.6,0.3C558.7,428.4,559.2,428.2,559.7,428.1z"/>
			<path id="XMLID_75_" class="st18" d="M557.8,428.5c-0.5,0.1-1,0.2-1.5,0.4C556.8,428.8,557.3,428.7,557.8,428.5z"/>
			<path id="XMLID_78_" class="st18" d="M624.9,495.6c0.1-0.5,0.2-1,0.3-1.5C625.1,494.6,625,495.1,624.9,495.6z"/>
			<path id="XMLID_81_" class="st18" d="M561.5,428.5c3.7,3,7.1,6.6,9.9,10.5c8.5,11.7,12.1,25.9,10.3,40c0.3-0.5,0.7-1.1,1-1.6
				c2.4-12.9,0.1-26.3-6.6-38c-2.4-4.2-5.4-8-8.7-11.5l-0.7-0.7l-0.9,0.1c-1.7,0.1-3.3,0.3-5,0.6L561.5,428.5z"/>
			<path id="XMLID_84_" class="st18" d="M613.2,448.2c-0.8,4.8-2.1,9.4-4.1,13.8c-5.9,13.3-16.4,23.5-29.5,28.9c0.6,0,1.3,0,1.9,0
				c12.4-4.4,22.9-13,29.6-24.7c2.4-4.2,4.3-8.7,5.5-13.3l0.2-0.9l-0.5-0.8c-1-1.4-2-2.7-3-4L613.2,448.2z"/>
			<path id="XMLID_87_" class="st18" d="M626,477.2c0.1,0.8,0.1,1.5,0.2,2.3c0-0.3,0-0.5-0.1-0.8l-0.3-4.3l-0.1,0.1
				C625.7,475.4,625.9,476.3,626,477.2z"/>
			<path id="XMLID_88_" class="st18" d="M622,502.8c-4.5,1.7-9.2,2.9-14,3.4c-14.4,1.5-28.5-2.4-39.8-11.1c0.3,0.6,0.6,1.1,0.9,1.7
				c10,8.5,22.7,13.3,36.2,13.3c4.8,0,9.7-0.6,14.3-1.9l0.9-0.2l0.4-0.8c0.7-1.5,1.4-3.1,1.9-4.6L622,502.8z"/>
			<path id="XMLID_89_" class="st18" d="M626.2,480.8c0,0.8,0.1,1.5,0.1,2.3C626.3,482.4,626.3,481.6,626.2,480.8z"/>
			<path id="XMLID_90_" class="st18" d="M625.5,492.4c0-0.1,0-0.2,0.1-0.4C625.5,492.2,625.5,492.3,625.5,492.4z"/>
			<path id="XMLID_91_" class="st18" d="M624.8,496.1c-0.4,1.8-1,3.7-1.6,5.5l0,0C623.8,499.8,624.3,498,624.8,496.1z"/>
			<path id="XMLID_92_" class="st18" d="M607.1,440.9c-0.5-0.4-1-0.9-1.5-1.3C606,440.1,606.6,440.5,607.1,440.9z"/>
			<path id="XMLID_93_" class="st18" d="M604.3,438.7c-0.6-0.4-1.1-0.9-1.7-1.3C603.1,437.8,603.7,438.2,604.3,438.7z"/>
			<path id="XMLID_94_" class="st18" d="M595,432.9c-0.2-0.1-0.5-0.3-0.7-0.4l-3.9-1.8l0.1,0.2C592,431.5,593.5,432.2,595,432.9z"/>
			<path id="XMLID_95_" class="st18" d="M601.3,436.5c-0.6-0.4-1.3-0.8-1.9-1.2C600.1,435.7,600.7,436.1,601.3,436.5z"/>
			<path id="XMLID_96_" class="st18" d="M598.2,434.6c-0.6-0.4-1.3-0.7-2-1.1C596.9,433.9,597.6,434.3,598.2,434.6z"/>
			<path id="XMLID_97_" class="st18" d="M609.7,443.4c-0.4-0.4-0.9-0.8-1.3-1.3C608.8,442.5,609.3,443,609.7,443.4z"/>
			<path id="XMLID_98_" class="st18" d="M611,444.8c0.4,0.4,0.8,0.8,1.1,1.2C611.8,445.6,611.4,445.2,611,444.8z"/>
			<path id="XMLID_99_" class="st18" d="M533.5,525.3c0.5,0.4,1,0.9,1.5,1.3C534.5,526.2,534,525.8,533.5,525.3z"/>
			<path id="XMLID_100_" class="st18" d="M545.6,533.4c0.2,0.1,0.5,0.3,0.7,0.4l3.9,1.8l-0.1-0.2C548.6,534.7,547,534.1,545.6,533.4
				z"/>
			<path id="XMLID_101_" class="st18" d="M579.1,537.7c-3.7-3-7.1-6.6-9.9-10.5c-8.5-11.7-12.1-25.9-10.3-40c-0.3,0.5-0.7,1.1-1,1.6
				c-2.4,12.9-0.1,26.3,6.6,38c2.4,4.2,5.4,8,8.7,11.5l0.7,0.7l0.9-0.1c1.7-0.1,3.3-0.3,5-0.6L579.1,537.7z"/>
			<path id="XMLID_104_" class="st18" d="M530.9,522.9c0.4,0.4,0.9,0.8,1.3,1.3C531.7,523.7,531.3,523.3,530.9,522.9z"/>
			<path id="XMLID_107_" class="st18" d="M542.3,531.6c0.6,0.4,1.3,0.7,2,1.1C543.6,532.3,543,532,542.3,531.6z"/>
			<path id="XMLID_110_" class="st18" d="M539.2,529.7c0.6,0.4,1.2,0.8,1.9,1.2C540.5,530.5,539.8,530.1,539.2,529.7z"/>
			<path id="XMLID_113_" class="st18" d="M586.4,536.7c0.4-0.1,0.9-0.3,1.3-0.4C587.3,536.5,586.8,536.6,586.4,536.7z"/>
			<path id="XMLID_116_" class="st18" d="M536.3,527.6c0.6,0.4,1.1,0.8,1.7,1.3C537.4,528.4,536.9,528,536.3,527.6z"/>
			<path id="XMLID_119_" class="st18" d="M601.7,529.4c0.1-0.1,0.2-0.2,0.4-0.2l0.3-0.2C602.2,529.1,602,529.3,601.7,529.4z"/>
			<path id="XMLID_122_" class="st18" d="M584.6,537.2c0.4-0.1,0.9-0.2,1.3-0.4C585.5,537,585.1,537.1,584.6,537.2z"/>
			<path id="XMLID_125_" class="st18" d="M602.5,528.9l3.1-2.2l-0.2-0.1C604.5,527.5,603.5,528.2,602.5,528.9z"/>
			<path id="XMLID_128_" class="st18" d="M580.1,538.2c0.1,0,0.3,0,0.4-0.1L580.1,538.2z"/>
			<path id="XMLID_131_" class="st18" d="M582.8,537.7c0.5-0.1,0.9-0.2,1.4-0.3C583.7,537.5,583.3,537.6,582.8,537.7z"/>
			<path id="XMLID_132_" class="st18" d="M580.9,538.1c0.5-0.1,1-0.2,1.5-0.3C581.9,537.9,581.4,538,580.9,538.1z"/>
			<path id="XMLID_133_" class="st18" d="M598.4,531.5c0.3-0.2,0.5-0.3,0.8-0.5C598.9,531.2,598.7,531.4,598.4,531.5z"/>
			<path id="XMLID_134_" class="st18" d="M591.6,534.9c0.4-0.2,0.8-0.3,1.1-0.5C592.4,534.6,592,534.7,591.6,534.9z"/>
			<path id="XMLID_135_" class="st18" d="M593.4,534.1c0.4-0.2,0.7-0.3,1.1-0.5C594.1,533.8,593.7,534,593.4,534.1z"/>
			<path id="XMLID_136_" class="st18" d="M589.9,535.5c0.4-0.1,0.8-0.3,1.2-0.5C590.7,535.2,590.3,535.4,589.9,535.5z"/>
			<path id="XMLID_137_" class="st18" d="M589.4,535.7c-0.4,0.1-0.8,0.3-1.2,0.4C588.6,536,589,535.9,589.4,535.7z"/>
			<path id="XMLID_138_" class="st18" d="M595,533.3c0.3-0.2,0.7-0.3,1-0.5C595.7,533,595.4,533.2,595,533.3z"/>
			<path id="XMLID_139_" class="st18" d="M600.1,530.5c0.2-0.1,0.4-0.3,0.7-0.4C600.5,530.3,600.3,530.4,600.1,530.5z"/>
			<path id="XMLID_140_" class="st18" d="M596.7,532.5c0.3-0.2,0.6-0.3,0.9-0.5C597.3,532.1,597,532.3,596.7,532.5z"/>
			<path id="XMLID_141_" class="st18" d="M514.3,485.4c0-0.7-0.1-1.5-0.1-2.2C514.3,483.9,514.3,484.6,514.3,485.4z"/>
			<path id="XMLID_142_" class="st18" d="M514.6,489.1c-0.1-0.7-0.1-1.4-0.2-2.2c0,0.2,0,0.5,0.1,0.7l0.3,4.3l0.1-0.1
				C514.8,490.8,514.7,489.9,514.6,489.1z"/>
			<path id="XMLID_143_" class="st18" d="M517.4,464.7L517.4,464.7c-0.6,1.8-1.2,3.6-1.6,5.5C516.2,468.3,516.8,466.5,517.4,464.7z"
				/>
			<path id="XMLID_144_" class="st18" d="M527.4,518c0.8-4.8,2.1-9.4,4.1-13.8c5.9-13.3,16.4-23.5,29.5-28.9c-0.6,0-1.3,0-1.9,0
				c-12.4,4.4-22.9,13-29.6,24.7c-2.4,4.2-4.3,8.7-5.5,13.3l-0.2,0.9l0.5,0.8c1,1.4,2,2.7,3,4L527.4,518z"/>
			<path id="XMLID_145_" class="st18" d="M529.5,521.5c-0.4-0.4-0.8-0.8-1.1-1.2C528.8,520.7,529.1,521.1,529.5,521.5z"/>
			<path id="XMLID_146_" class="st18" d="M515,474.2c0-0.1,0-0.2,0.1-0.4C515,473.9,515,474,515,474.2z"/>
			<path id="XMLID_147_" class="st18" d="M515.4,472.2c0.1-0.5,0.2-1,0.3-1.5C515.6,471.2,515.5,471.7,515.4,472.2z"/>
		</g>
		<circle id="XMLID_15_" class="st17" cx="569.3" cy="483.1" r="21"/>
		<circle id="XMLID_55_" class="st18" cx="569.3" cy="483.1" r="15.5"/>
		<circle id="XMLID_17_" class="st16" cx="569.2" cy="483.1" r="13"/>
		<circle id="XMLID_16_" class="st5" cx="570.3" cy="483.1" r="56"/>
	</g>
	<path id="XMLID_19_" class="st16" d="M464.7,448.4h-48.5c-4.3,0-7.8-3.5-7.8-7.8v0c0-4.3,3.5-7.8,7.8-7.8h48.5
		c4.3,0,7.8,3.5,7.8,7.8v0C472.5,444.9,469,448.4,464.7,448.4z"/>
	<path id="XMLID_103_" class="st19" d="M416.3,448.4c-3.7,0-6.8-3-6.8-6.8s3-6.8,6.8-6.8h48.5c3.7,0,6.8,3,6.8,6.8s-3,6.8-6.8,6.8
		H416.3z"/>
	<path id="XMLID_22_" class="st16" d="M464.7,475.4h-48.5c-4.3,0-7.8-3.5-7.8-7.8l0,0c0-4.3,3.5-7.8,7.8-7.8h48.5
		c4.3,0,7.8,3.5,7.8,7.8l0,0C472.5,471.9,469,475.4,464.7,475.4z"/>
	<path id="XMLID_83_" class="st19" d="M416.3,475.4c-3.7,0-6.8-3-6.8-6.8s3-6.8,6.8-6.8h48.5c3.7,0,6.8,3,6.8,6.8s-3,6.8-6.8,6.8
		H416.3z"/>
	<path id="XMLID_24_" class="st16" d="M464.7,502.4h-48.5c-4.3,0-7.8-3.5-7.8-7.8v0c0-4.3,3.5-7.8,7.8-7.8h48.5
		c4.3,0,7.8,3.5,7.8,7.8v0C472.5,498.9,469,502.4,464.7,502.4z"/>
	<path id="XMLID_54_" class="st19" d="M416.3,502.4c-3.7,0-6.8-3-6.8-6.8c0-3.7,3-6.8,6.8-6.8h48.5c3.7,0,6.8,3,6.8,6.8
		c0,3.7-3,6.8-6.8,6.8H416.3z"/>
	<path id="XMLID_26_" class="st16" d="M464.7,529.4h-48.5c-4.3,0-7.8-3.5-7.8-7.8l0,0c0-4.3,3.5-7.8,7.8-7.8h48.5
		c4.3,0,7.8,3.5,7.8,7.8l0,0C472.5,525.9,469,529.4,464.7,529.4z"/>
	<path id="XMLID_52_" class="st19" d="M416.3,529.4c-3.7,0-6.8-3-6.8-6.8s3-6.8,6.8-6.8h48.5c3.7,0,6.8,3,6.8,6.8s-3,6.8-6.8,6.8
		H416.3z"/>
	<path id="XMLID_76_" class="st20" d="M396.5,591.5L396.5,591.5c-3.9,0-7-3.1-7-7v-11.3h14v11.3
		C403.5,588.3,400.4,591.5,396.5,591.5z"/>
</g>
<g id="XMLID_13_" class="st21">
	<path id="XMLID_1_" class="st22" d="M510.6,741.2L510.6,741.2c-6,0-10.8-4.8-10.8-10.8V685c0-6,4.8-10.8,10.8-10.8l0,0
		c6,0,10.8,4.8,10.8,10.8v45.3C521.4,736.3,516.5,741.2,510.6,741.2z"/>
	<path id="XMLID_21_" class="st22" d="M488.5,685L488.5,685c0-6,4.8-10.8,10.8-10.8h22.6c6,0,10.8,4.8,10.8,10.8v0
		c0,6-4.8,10.8-10.8,10.8h-22.6C493.3,695.8,488.5,691,488.5,685z"/>
	<path id="XMLID_25_" class="st22" d="M470,674.2c-3.3,0-6.3,1.5-8.3,3.8l-44.6,44.6c-4.2,4.2-4.2,11.1,0,15.3
		c4.2,4.2,11.1,4.2,15.3,0l26.7-26.7v19.1c0,6,4.8,10.8,10.8,10.8c6,0,10.8-4.8,10.8-10.8V685C480.8,679,475.9,674.2,470,674.2z"/>
	<path id="XMLID_29_" class="st22" d="M557.9,674.2c-6,0-10.8,4.8-10.8,10.8v45.3c0,6,4.8,10.8,10.8,10.8c6,0,10.8-4.8,10.8-10.8
		V685C568.8,679,563.9,674.2,557.9,674.2z M557.9,693.1c-4.5,0-8.1-3.6-8.1-8.1c0-4.5,3.6-8.1,8.1-8.1c4.5,0,8.1,3.6,8.1,8.1
		C566.1,689.5,562.4,693.1,557.9,693.1z"/>
	<circle id="XMLID_11_" class="st22" cx="451.3" cy="729.4" r="5"/>
</g>
</svg>
