<?xml version="1.0" encoding="utf-8"?>
<!-- Generator: Adobe Illustrator 23.1.1, SVG Export Plug-In . SVG Version: 6.00 Build 0)  -->
<svg version="1.1" id="Layer_1" xmlns="http://www.w3.org/2000/svg" xmlns:xlink="http://www.w3.org/1999/xlink" x="0px" y="0px"
	 viewBox="0 0 1000 1000" style="enable-background:new 0 0 1000 1000;" xml:space="preserve">
<style type="text/css">
	.st0{fill:#5FD6D0;}
	.st1{fill:#442753;}
	.st2{fill:#83EAE0;}
	.st3{opacity:0.79;fill:url(#XMLID_80_);}
	.st4{fill:#00B763;}
	.st5{fill:#07AD5A;}
	.st6{opacity:0.8;fill:none;stroke:#442753;stroke-width:4;stroke-linecap:round;stroke-linejoin:round;stroke-miterlimit:10;}
	.st7{fill:none;stroke:#0F7C46;stroke-width:6;stroke-linecap:round;stroke-linejoin:round;stroke-miterlimit:10;}
	.st8{fill:#F4E834;}
	.st9{fill:#F4E834;stroke:#D3A548;stroke-width:6;stroke-miterlimit:10;}
	.st10{opacity:0.66;fill:#F99338;}
	.st11{fill:#00F0B5;}
	.st12{fill:#12CC9B;}
	.st13{opacity:0.76;}
	.st14{fill:#FFFFFF;}
	.st15{fill:none;stroke:#0A8E6B;stroke-width:6;stroke-linecap:round;stroke-linejoin:round;stroke-miterlimit:10;}
	.st16{fill:none;stroke:#FFFFFF;stroke-width:3;stroke-linecap:round;stroke-linejoin:round;stroke-miterlimit:10;}
	.st17{opacity:0.3;fill:none;stroke:#212121;stroke-width:6;stroke-linecap:round;stroke-linejoin:round;stroke-miterlimit:10;}
	.st18{fill:none;stroke:#442753;stroke-width:6;stroke-linecap:round;stroke-linejoin:round;stroke-miterlimit:10;}
</style>
<rect id="XMLID_11_" class="st0" width="1000" height="1000"/>
<g>
	<g>
		<g>
			<path class="st1" d="M63.2,959.2c0,2.5-1.2,3.7-2.6,3.7c-1.1,0-1.9-0.5-2.1-1.4c-0.4,0.5-1,0.8-1.8,0.8c-1.5,0-2.6-1.2-2.6-2.8
				c0-1.6,1.1-2.8,2.6-2.8c0.7,0,1.2,0.3,1.6,0.7v-0.5h1.6v3.9c0,0.8,0.3,1.4,1,1.4c0.9,0,1.7-0.9,1.7-3c0-3-2.3-5.3-5.4-5.3
				c-3.1,0-5.6,2.4-5.6,5.7c0,3.3,2.5,5.7,5.9,5.7c1.1,0,2.1-0.2,2.9-0.4v0.6c-0.8,0.3-1.7,0.4-2.9,0.4c-3.7,0-6.5-2.6-6.5-6.2
				c0-3.4,2.7-6.2,6.2-6.2C61.1,953.3,63.2,956.4,63.2,959.2z M58.3,959.5c0-0.8-0.6-1.4-1.3-1.4c-0.8,0-1.3,0.5-1.3,1.4
				c0,0.8,0.6,1.3,1.3,1.3C57.8,960.9,58.3,960.3,58.3,959.5z"/>
		</g>
		<g>
			<path class="st1" d="M69.4,955.1v2c-1.2-0.1-2.6,0.5-2.6,2.4v4.3h-1.9v-8.6h1.9v1.4C67.3,955.5,68.3,955.1,69.4,955.1z"/>
		</g>
		<g>
			<path class="st1" d="M74.6,962.3c1,0,1.8-0.5,2.2-1.1l1.5,0.9c-0.8,1.2-2.1,1.9-3.8,1.9c-2.8,0-4.7-1.9-4.7-4.5
				c0-2.5,1.8-4.5,4.5-4.5c2.6,0,4.3,2.1,4.3,4.5c0,0.3,0,0.5-0.1,0.8h-6.8C72.1,961.6,73.2,962.3,74.6,962.3z M76.9,958.8
				c-0.3-1.5-1.3-2.1-2.5-2.1c-1.4,0-2.3,0.8-2.6,2.1H76.9z"/>
		</g>
		<g>
			<path class="st1" d="M88.9,955.2v8.6h-1.9v-1.2c-0.7,0.9-1.7,1.5-3,1.5c-2.3,0-4.3-2-4.3-4.5c0-2.6,1.9-4.5,4.3-4.5
				c1.3,0,2.3,0.5,3,1.4v-1.2H88.9z M87.1,959.5c0-1.6-1.2-2.7-2.7-2.7c-1.5,0-2.7,1.1-2.7,2.7c0,1.6,1.2,2.7,2.7,2.7
				C85.9,962.3,87.1,961.1,87.1,959.5z"/>
		</g>
		<g>
			<path class="st1" d="M91.1,951.3H93v12.5h-1.9V951.3z"/>
		</g>
		<g>
			<path class="st1" d="M102.9,955.2l-3.3,8.6h-2.1l-3.3-8.6h2l2.4,6.5l2.4-6.5H102.9z"/>
		</g>
		<g>
			<path class="st1" d="M104.2,955.2h1.9v8.9c0,2.4-1.2,3.5-3.5,3.3v-1.8c1.1,0.1,1.7-0.3,1.7-1.5V955.2z M104,952.8
				c0-0.7,0.5-1.2,1.2-1.2c0.7,0,1.2,0.5,1.2,1.2c0,0.6-0.5,1.2-1.2,1.2C104.5,954,104,953.4,104,952.8z"/>
		</g>
		<g>
			<path class="st1" d="M116,955.2l-3.3,8.8c-0.8,2.2-2.2,3.3-4.2,3.2v-1.7c1.2,0.1,1.9-0.5,2.3-1.7l0.1-0.2l-3.6-8.4h2l2.6,6.2
				l2.2-6.2H116z"/>
		</g>
	</g>
	<g>
		<path class="st1" d="M211.9,938.7c0,2.1-1.5,3.8-3.6,3.8h-3v-7.6h3C210.4,934.9,211.9,936.6,211.9,938.7z M210.9,938.7
			c0-1.6-1.1-2.9-2.6-2.9h-2v5.7h2C209.8,941.6,210.9,940.3,210.9,938.7z"/>
		<path class="st1" d="M219.5,940.8h-3.4l-0.6,1.7h-1.1l2.8-7.6h1.1l2.8,7.6h-1.1L219.5,940.8z M219.2,939.9l-1.4-3.8l-1.4,3.8
			H219.2z"/>
		<path class="st1" d="M226.4,939.4v3.1h-1v-3.1l-2.7-4.5h1.1l2.1,3.6l2.1-3.6h1.1L226.4,939.4z"/>
		<path class="st1" d="M242.6,941.1h-0.9v1.4h-1v-1.4h-3.9v-0.9l2.7-5.2h1.1l-2.7,5.2h2.8V938h1v2.2h0.9V941.1z"/>
		<path class="st1" d="M250,938.8L250,938.8l-2.5,3.7h-1.1l1.8-2.7c-0.1,0-0.2,0-0.4,0c-1.5,0-2.6-1-2.6-2.6c0-1.5,1.1-2.6,2.6-2.6
			s2.6,1,2.6,2.6C250.5,937.9,250.3,938.4,250,938.8z M247.8,938.9c1,0,1.6-0.6,1.6-1.6s-0.7-1.6-1.6-1.6s-1.6,0.6-1.6,1.6
			C246.2,938.3,246.9,938.9,247.8,938.9z"/>
	</g>
	<g>
		<path class="st1" d="M58.9,938.7c0,2.1-1.5,3.8-3.6,3.8h-3v-7.6h3C57.4,934.9,58.9,936.6,58.9,938.7z M57.9,938.7
			c0-1.6-1.1-2.9-2.6-2.9h-2v5.7h2C56.8,941.6,57.9,940.3,57.9,938.7z"/>
		<path class="st1" d="M67,941.6v1h-4.6v-7.6h4.5v1h-3.5v2.3h3.2v0.9h-3.2v2.4H67z"/>
		<path class="st1" d="M70,940.8l0.9-0.5c0.3,0.8,0.9,1.4,2,1.4c1.1,0,1.6-0.5,1.6-1.2c0-0.8-0.7-1-1.8-1.4
			c-1.2-0.4-2.4-0.8-2.4-2.2c0-1.4,1.1-2.2,2.4-2.2c1.3,0,2.2,0.7,2.6,1.7l-0.8,0.5c-0.3-0.7-0.8-1.2-1.7-1.2
			c-0.8,0-1.4,0.4-1.4,1.1c0,0.7,0.5,1,1.6,1.3c1.3,0.4,2.6,0.8,2.6,2.3c0,1.3-1.1,2.2-2.6,2.2C71.5,942.7,70.4,941.9,70,940.8z"/>
		<path class="st1" d="M80,934.9v7.6h-1v-7.6H80z"/>
		<path class="st1" d="M91.3,939.2c0,1.9-1.4,3.5-3.7,3.5c-2.4,0-4-1.8-4-4c0-2.2,1.7-4,4-4c1.4,0,2.7,0.8,3.3,1.8l-0.9,0.5
			c-0.4-0.8-1.4-1.4-2.4-1.4c-1.8,0-3,1.3-3,3c0,1.7,1.2,3,3,3c1.6,0,2.5-0.9,2.7-2h-2.8v-0.9h3.8V939.2z"/>
		<path class="st1" d="M100.6,934.9v7.6h-0.8l-3.9-5.7v5.7h-1v-7.6h0.8l3.9,5.7v-5.7H100.6z"/>
		<path class="st1" d="M109.1,941.6v1h-4.6v-7.6h4.5v1h-3.5v2.3h3.2v0.9h-3.2v2.4H109.1z"/>
		<path class="st1" d="M119.2,938.7c0,2.1-1.5,3.8-3.6,3.8h-3v-7.6h3C117.6,934.9,119.2,936.6,119.2,938.7z M118.2,938.7
			c0-1.6-1.1-2.9-2.6-2.9h-2v5.7h2C117.1,941.6,118.2,940.3,118.2,938.7z"/>
		<path class="st1" d="M133.2,940.4c0,1.2-1,2.2-2.2,2.2h-3.3v-7.6h3c1.2,0,2.1,0.9,2.1,2.1c0,0.7-0.3,1.2-0.8,1.6
			C132.7,938.9,133.2,939.5,133.2,940.4z M128.7,935.8v2.3h2c0.6,0,1.1-0.5,1.1-1.2c0-0.6-0.5-1.2-1.1-1.2H128.7z M132.2,940.3
			c0-0.7-0.5-1.2-1.2-1.2h-2.3v2.5h2.3C131.7,941.6,132.2,941,132.2,940.3z"/>
		<path class="st1" d="M139.4,939.4v3.1h-1v-3.1l-2.7-4.5h1.1l2.1,3.6l2.1-3.6h1.1L139.4,939.4z"/>
	</g>
	<g>
		<path class="st1" d="M212.7,961.8h-5.3l-0.9,2.5h-2.2l4.5-12.4h2.4l4.5,12.4h-2.2L212.7,961.8z M212,959.9l-2-5.6l-2,5.6H212z"/>
		<path class="st1" d="M225,958.9v5.4h-1.9v-5.2c0-1.3-0.8-2.1-2-2.1c-1.3,0-2.2,0.7-2.2,2.5v4.7h-1.9v-8.9h1.9v1.1
			c0.6-0.9,1.5-1.4,2.7-1.4C223.6,955.2,225,956.6,225,958.9z"/>
		<path class="st1" d="M236,955.4v8.4c0,2.8-2.2,4.2-4.5,4.2c-1.9,0-3.5-0.7-4.2-2.1l1.6-1c0.4,0.8,1,1.4,2.6,1.4
			c1.6,0,2.6-0.9,2.6-2.4v-1.1c-0.7,1-1.7,1.5-3.1,1.5c-2.5,0-4.5-2-4.5-4.6s2-4.6,4.5-4.6c1.4,0,2.4,0.6,3.1,1.5v-1.3H236z
			 M234.1,959.8c0-1.6-1.2-2.8-2.8-2.8c-1.6,0-2.8,1.2-2.8,2.8s1.2,2.8,2.8,2.8C232.9,962.6,234.1,961.4,234.1,959.8z"/>
		<path class="st1" d="M238.2,951.4h1.9v12.9h-1.9V951.4z"/>
		<path class="st1" d="M246.7,962.8c1.1,0,1.9-0.5,2.3-1.1l1.6,0.9c-0.8,1.2-2.1,1.9-3.9,1.9c-2.9,0-4.8-2-4.8-4.7
			c0-2.6,1.9-4.7,4.7-4.7c2.6,0,4.4,2.1,4.4,4.7c0,0.3,0,0.5-0.1,0.8h-7C244.1,962.1,245.2,962.8,246.7,962.8z M249,959.1
			c-0.3-1.5-1.4-2.2-2.5-2.2c-1.4,0-2.4,0.8-2.7,2.2H249z"/>
		<path class="st1" d="M257.3,955.3v2.1c-1.3-0.1-2.7,0.5-2.7,2.5v4.5h-1.9v-8.9h1.9v1.5C255.1,955.7,256.1,955.3,257.3,955.3z"/>
		<path class="st1" d="M265.3,953.9v3.5h5v1.9h-5v5h-2v-12.4h7.3v1.9H265.3z"/>
		<path class="st1" d="M272,952.9c0-0.7,0.5-1.2,1.2-1.2c0.7,0,1.2,0.5,1.2,1.2c0,0.7-0.5,1.2-1.2,1.2
			C272.6,954.1,272,953.6,272,952.9z M272.3,955.4h1.9v8.9h-1.9V955.4z"/>
		<path class="st1" d="M282.8,961.8c0,1.8-1.5,2.7-3.5,2.7c-1.8,0-3-0.8-3.6-2.1l1.6-1c0.3,0.8,1,1.3,2,1.3c0.8,0,1.5-0.3,1.5-1
			c0-1.6-4.8-0.7-4.8-3.9c0-1.7,1.4-2.7,3.2-2.7c1.5,0,2.7,0.7,3.3,1.8L281,958c-0.3-0.7-0.9-1-1.7-1c-0.7,0-1.3,0.3-1.3,0.9
			C278.1,959.5,282.8,958.5,282.8,961.8z"/>
		<path class="st1" d="M292.5,958.9v5.4h-1.9v-5.2c0-1.3-0.8-2.1-2-2.1c-1.3,0-2.2,0.7-2.2,2.5v4.7h-1.9v-12.4h1.9v4.7
			c0.6-0.9,1.5-1.4,2.7-1.4C291,955.2,292.5,956.6,292.5,958.9z"/>
	</g>
	<g>
		<g>
			<g>
				<path class="st1" d="M846.1,938.7c0,2.1-1.5,3.8-3.6,3.8h-3v-7.6h3C844.6,934.9,846.1,936.6,846.1,938.7z M845.2,938.7
					c0-1.6-1.1-2.9-2.6-2.9h-2v5.7h2C844.1,941.6,845.2,940.3,845.2,938.7z"/>
			</g>
			<g>
				<path class="st1" d="M849.3,938.7c0-2.2,1.7-4,3.9-4c2.2,0,4,1.8,4,4c0,2.2-1.7,4-4,4C851,942.7,849.3,940.9,849.3,938.7z
					 M856.1,938.7c0-1.7-1.3-3-2.9-3c-1.7,0-2.9,1.3-2.9,3c0,1.7,1.3,3,2.9,3C854.9,941.7,856.1,940.4,856.1,938.7z"/>
			</g>
			<g>
				<path class="st1" d="M859.8,934.9h1.1l1.7,6.3l1.9-6.3h1l1.9,6.3l1.7-6.3h1.1l-2.2,7.6h-1.2l-1.8-6.1l-1.8,6.1H862L859.8,934.9z
					"/>
			</g>
			<g>
				<path class="st1" d="M879.3,934.9v7.6h-0.8l-3.9-5.7v5.7h-1v-7.6h0.8l3.9,5.7v-5.7H879.3z"/>
			</g>
			<g>
				<path class="st1" d="M887.5,941.6v1h-4.3v-7.6h1v6.7H887.5z"/>
			</g>
			<g>
				<path class="st1" d="M889.9,938.7c0-2.2,1.7-4,3.9-4c2.2,0,4,1.8,4,4c0,2.2-1.7,4-4,4C891.6,942.7,889.9,940.9,889.9,938.7z
					 M896.8,938.7c0-1.7-1.3-3-2.9-3c-1.7,0-2.9,1.3-2.9,3c0,1.7,1.3,3,2.9,3C895.5,941.7,896.8,940.4,896.8,938.7z"/>
			</g>
			<g>
				<path class="st1" d="M905.4,940.8H902l-0.6,1.7h-1.1l2.8-7.6h1.1l2.8,7.6H906L905.4,940.8z M905.1,939.9l-1.4-3.8l-1.4,3.8
					H905.1z"/>
			</g>
			<g>
				<path class="st1" d="M916.9,938.7c0,2.1-1.5,3.8-3.6,3.8h-3v-7.6h3C915.4,934.9,916.9,936.6,916.9,938.7z M915.9,938.7
					c0-1.6-1.1-2.9-2.6-2.9h-2v5.7h2C914.9,941.6,915.9,940.3,915.9,938.7z"/>
			</g>
			<g>
				<path class="st1" d="M926.5,935.8v2.5h3.2v1h-3.2v3.2h-1v-7.6h4.4v1H926.5z"/>
			</g>
			<g>
				<path class="st1" d="M936.2,939.6h-1.8v2.9h-1v-7.6h3c1.3,0,2.4,1.1,2.4,2.4c0,1-0.7,1.9-1.6,2.2l1.8,3.1h-1.1L936.2,939.6z
					 M934.4,938.7h2c0.8,0,1.4-0.6,1.4-1.4c0-0.8-0.6-1.4-1.4-1.4h-2V938.7z"/>
			</g>
			<g>
				<path class="st1" d="M941.9,938.7c0-2.2,1.7-4,3.9-4c2.2,0,4,1.8,4,4c0,2.2-1.7,4-4,4C943.6,942.7,941.9,940.9,941.9,938.7z
					 M948.8,938.7c0-1.7-1.3-3-2.9-3c-1.7,0-2.9,1.3-2.9,3c0,1.7,1.3,3,2.9,3C947.5,941.7,948.8,940.4,948.8,938.7z"/>
			</g>
			<g>
				<path class="st1" d="M960.4,942.5h-1v-6l-2.5,4.2h-0.1l-2.5-4.1v5.9h-1v-7.6h1.1l2.4,4l2.4-4h1.1V942.5z"/>
			</g>
		</g>
		<g>
			<g>
				<path class="st1" d="M839.3,952.9c0-0.7,0.5-1.2,1.2-1.2c0.7,0,1.2,0.5,1.2,1.2c0,0.7-0.5,1.2-1.2,1.2
					C839.9,954.1,839.3,953.6,839.3,952.9z M839.6,955.4h1.9v8.9h-1.9V955.4z"/>
			</g>
			<g>
				<path class="st1" d="M843.7,951.4h1.9v12.9h-1.9V951.4z"/>
			</g>
			<g>
				<path class="st1" d="M847.8,951.4h1.9v12.9h-1.9V951.4z"/>
			</g>
			<g>
				<path class="st1" d="M852,951.4h1.9v12.9H852V951.4z"/>
			</g>
			<g>
				<path class="st1" d="M864,955.4v8.9h-1.9v-1.1c-0.6,0.9-1.5,1.4-2.7,1.4c-2,0-3.4-1.3-3.4-3.6v-5.4h1.9v5.2c0,1.3,0.8,2.1,2,2.1
					c1.3,0,2.2-0.7,2.2-2.5v-4.7H864z"/>
			</g>
			<g>
				<path class="st1" d="M872.6,961.8c0,1.8-1.5,2.7-3.5,2.7c-1.8,0-3-0.8-3.6-2.1l1.6-1c0.3,0.8,1,1.3,2,1.3c0.8,0,1.5-0.3,1.5-1
					c0-1.6-4.8-0.7-4.8-3.9c0-1.7,1.4-2.7,3.2-2.7c1.5,0,2.7,0.7,3.3,1.8l-1.6,0.9c-0.3-0.7-0.9-1-1.7-1c-0.7,0-1.3,0.3-1.3,0.9
					C867.9,959.5,872.6,958.5,872.6,961.8z"/>
			</g>
			<g>
				<path class="st1" d="M876.7,957.3v4.2c0,1.1,0.7,1.1,2.2,1v1.7c-2.9,0.4-4.1-0.5-4.1-2.8v-4.2h-1.6v-1.8h1.6v-1.9l1.9-0.6v2.5
					h2.2v1.8H876.7z"/>
			</g>
			<g>
				<path class="st1" d="M885.4,955.3v2.1c-1.3-0.1-2.7,0.5-2.7,2.5v4.5h-1.9v-8.9h1.9v1.5C883.2,955.7,884.2,955.3,885.4,955.3z"/>
			</g>
			<g>
				<path class="st1" d="M895.3,955.4v8.9h-1.9V963c-0.7,0.9-1.7,1.5-3.1,1.5c-2.4,0-4.4-2-4.4-4.7c0-2.6,2-4.7,4.4-4.7
					c1.4,0,2.4,0.6,3.1,1.5v-1.3H895.3z M893.4,959.9c0-1.6-1.2-2.8-2.8-2.8c-1.6,0-2.8,1.2-2.8,2.8c0,1.6,1.2,2.8,2.8,2.8
					C892.2,962.7,893.4,961.5,893.4,959.9z"/>
			</g>
			<g>
				<path class="st1" d="M900.3,957.3v4.2c0,1.1,0.7,1.1,2.2,1v1.7c-2.9,0.4-4.1-0.5-4.1-2.8v-4.2h-1.6v-1.8h1.6v-1.9l1.9-0.6v2.5
					h2.2v1.8H900.3z"/>
			</g>
			<g>
				<path class="st1" d="M903.9,952.9c0-0.7,0.5-1.2,1.2-1.2c0.7,0,1.2,0.5,1.2,1.2c0,0.7-0.5,1.2-1.2,1.2
					C904.5,954.1,903.9,953.6,903.9,952.9z M904.2,955.4h1.9v8.9h-1.9V955.4z"/>
			</g>
			<g>
				<path class="st1" d="M907.8,959.9c0-2.6,2.1-4.7,4.7-4.7c2.6,0,4.7,2,4.7,4.7c0,2.6-2.1,4.7-4.7,4.7
					C909.9,964.5,907.8,962.5,907.8,959.9z M915.3,959.9c0-1.6-1.2-2.8-2.8-2.8c-1.6,0-2.8,1.2-2.8,2.8c0,1.6,1.2,2.8,2.8,2.8
					C914.1,962.7,915.3,961.5,915.3,959.9z"/>
			</g>
			<g>
				<path class="st1" d="M927,958.9v5.4h-1.9v-5.2c0-1.3-0.8-2.1-2-2.1c-1.3,0-2.2,0.7-2.2,2.5v4.7h-1.9v-8.9h1.9v1.1
					c0.6-0.9,1.5-1.4,2.7-1.4C925.5,955.2,927,956.6,927,958.9z"/>
			</g>
			<g>
				<path class="st1" d="M935.5,961.8c0,1.8-1.5,2.7-3.5,2.7c-1.8,0-3-0.8-3.6-2.1l1.6-1c0.3,0.8,1,1.3,2,1.3c0.8,0,1.5-0.3,1.5-1
					c0-1.6-4.8-0.7-4.8-3.9c0-1.7,1.4-2.7,3.2-2.7c1.5,0,2.7,0.7,3.3,1.8l-1.6,0.9c-0.3-0.7-0.9-1-1.7-1c-0.7,0-1.3,0.3-1.3,0.9
					C930.7,959.5,935.5,958.5,935.5,961.8z"/>
			</g>
			<g>
				<path class="st1" d="M936.8,963.2c0-0.7,0.6-1.3,1.3-1.3c0.7,0,1.3,0.6,1.3,1.3c0,0.7-0.6,1.3-1.3,1.3
					C937.4,964.5,936.8,963.9,936.8,963.2z"/>
			</g>
			<g>
				<path class="st1" d="M940.3,959.9c0-2.6,2-4.7,4.7-4.7c1.7,0,3.2,0.9,3.9,2.3l-1.6,1c-0.4-0.8-1.3-1.4-2.3-1.4
					c-1.6,0-2.7,1.2-2.7,2.8c0,1.6,1.2,2.8,2.7,2.8c1.1,0,1.9-0.5,2.4-1.4l1.6,0.9c-0.7,1.4-2.2,2.3-4,2.3
					C942.3,964.5,940.3,962.5,940.3,959.9z"/>
			</g>
			<g>
				<path class="st1" d="M949.7,959.9c0-2.6,2.1-4.7,4.7-4.7c2.6,0,4.7,2,4.7,4.7c0,2.6-2.1,4.7-4.7,4.7
					C951.8,964.5,949.7,962.5,949.7,959.9z M957.2,959.9c0-1.6-1.2-2.8-2.8-2.8s-2.8,1.2-2.8,2.8c0,1.6,1.2,2.8,2.8,2.8
					S957.2,961.5,957.2,959.9z"/>
			</g>
		</g>
	</g>
</g>
<path id="XMLID_1_" class="st2" d="M365,229c-63.8,48.9-20.9,135.3-88,182c-44.7,31.1-92.7,12.9-120.6,54.3
	c-15.8,23.5-14.8,50.1-13.4,65.5C157,681,290.2,873,475.6,827s101-168,229.7-212.5c52.9-18.3,109.8-33.2,129.3-125.2
	c12-56.6-6-140.8-57.1-161.1c-47.4-18.8-77.7,31.6-131.8,13.5C591.4,323.5,601.3,263.8,541,227C491.3,196.7,411.9,193,365,229z"/>
<path id="XMLID_16_" class="st2" d="M707,683.7c-20.2,23.6-27.7,50.8-18,69.9c2,4,5.3,9.6,11.1,11.6c26.7,9.2,73.1-65.5,55.1-83.6
	c-6.1-6.1-15.8-11.2-25.3-10.4C716.8,672.2,708.8,681.5,707,683.7z"/>
<g>
	<radialGradient id="XMLID_80_" cx="271.8171" cy="530.833" r="71.3868" gradientUnits="userSpaceOnUse">
		<stop  offset="0" style="stop-color:#FFFF00"/>
		<stop  offset="1" style="stop-color:#FFFF00;stop-opacity:0"/>
	</radialGradient>
	<ellipse id="XMLID_17_" class="st3" cx="271.8" cy="530.8" rx="102.9" ry="99.4"/>
	<path id="XMLID_21_" class="st4" d="M633.1,464.7c0,0,15.2-3.7,44.2-32.7s77.8-54.5,95.7,3.7c10.6,34.4,3.1,112.3-31.6,120.5
		c-23.3,5.6-47.9-13.1-63.4-28.6s-45-23.2-45-23.2V464.7z"/>
	<path id="XMLID_61_" class="st5" d="M633.1,464.7v39.8c0,0,29.5,7.7,45,23.2c4.7,4.7,10.3,9.8,16.4,14.3
		c4.3-5.2,12.7-16.5,15.6-24.8c13.2-39,5.8-83.5-27.8-90c-1.7,1.6-3.4,3.2-5,4.8C648.3,461,633.1,464.7,633.1,464.7z"/>
	<path id="XMLID_46_" class="st6" d="M647.7,470.9c0,0,49.5-13.9,82.5-46.9"/>
	<path id="XMLID_47_" class="st6" d="M649.1,481.5c0,0,72.2-9.5,99.5-21.4"/>
	<path id="XMLID_48_" class="st6" d="M649.4,501.5c0,0,40.4,9.9,80.8,33.8"/>
	<path id="XMLID_49_" class="st6" d="M649.4,493.5c0,0,70.2,6.2,99.2,6.2"/>
	<path id="XMLID_20_" class="st4" d="M487.1,362.2c0,0,4.7-19,12.5-26.5c7.8-7.5,20.7-9.7,47.8-4.7c27,5,46.7,14.2,46.7,24.7
		c0,5-19.6,21.9-24.4,21.9S500.7,360.4,487.1,362.2z"/>
	<path id="XMLID_104_" class="st5" d="M532.2,345c-23.2,0-33.5,10.3-37.4,17.4c21.8,2.2,70.8,15.2,74.9,15.2
		c3.6,0,15.8-9.8,21.4-16.6C581.9,349.9,555.2,345,532.2,345z"/>
	<path id="XMLID_40_" class="st6" d="M510.3,357c0,0,5.1-12,15.2-17"/>
	<path id="XMLID_90_" class="st6" d="M548.9,345c-11.5,3.5-20.5,16-20.5,16"/>
	<path id="XMLID_94_" class="st6" d="M548.9,363.7c0,0,9-10.8,24-10.8"/>
	<path id="XMLID_8_" class="st7" d="M487.1,362.2c0,0,4.7-19,12.5-26.5c7.8-7.5,20.7-9.7,47.8-4.7c27,5,46.7,14.2,46.7,24.7
		c0,5-19.6,21.9-24.4,21.9S500.7,360.4,487.1,362.2z"/>
	<path id="XMLID_5_" class="st7" d="M633.1,464.7c0,0,15.2-3.7,44.2-32.7s77.8-54.5,95.7,3.7c10.6,34.4,3.1,112.3-31.6,120.5
		c-23.3,5.6-47.9-13.1-63.4-28.6s-45-23.2-45-23.2V464.7z"/>
	<path id="XMLID_19_" class="st4" d="M461,620.2c0,0,24.5,31.5,37,44s110-11,121-22s14-36-44-50C575.1,592.2,522.6,636,461,620.2z"
		/>
	<path id="XMLID_63_" class="st5" d="M486.9,652c37.5-1.5,106.5-7.3,137.6-29.8c-3.3-10.5-16.6-22-49.5-29.9c0,0-49.2,41-108.2,29.3
		c-1,0.9-1.9,1.7-2.7,2.6C468.8,630.1,478.3,642,486.9,652z"/>
	<path id="XMLID_27_" class="st6" d="M501.4,636.2c0,0,13,9.9,17.9,19.9"/>
	<path id="XMLID_28_" class="st6" d="M525.5,635c0,0,11,8.5,15.6,17.4"/>
	<path id="XMLID_30_" class="st6" d="M543.2,628.7c0,0,12.3,5.6,19.5,17.4"/>
	<path id="XMLID_31_" class="st6" d="M558.4,623.5c0,0,22.1,6.3,26.6,15.2"/>
	<path id="XMLID_35_" class="st6" d="M576.6,614.5c0,0,23.5,5.4,28.1,14.3"/>
	<path id="XMLID_10_" class="st7" d="M461,620.2c0,0,24.5,31.5,37,44s110-11,121-22s14-36-44-50C575.1,592.2,522.6,636,461,620.2z"
		/>
	<path id="XMLID_13_" class="st8" d="M244.1,517.2c0,0,6,27.1,27.6,25c16.1-1.5,20-35.4-4.1-48.3
		C243.4,481.1,244.1,517.2,244.1,517.2z"/>
	<path id="XMLID_12_" class="st9" d="M244.1,517.2c0,0,6,27.1,27.6,25c16.1-1.5,20-35.4-4.1-48.3
		C243.4,481.1,244.1,517.2,244.1,517.2z"/>
	<circle id="XMLID_55_" class="st8" cx="262.9" cy="515.2" r="10.2"/>
	<circle id="XMLID_18_" class="st10" cx="262.9" cy="515.2" r="9"/>
	<path id="XMLID_2_" class="st11" d="M648.3,474.3c-11.3-76.2-87.6-128.1-170.3-115.8c-15.5,2.3-30.1,6.7-43.5,12.7
		c-15.7,7.1-34.3,3.1-45.6-9.9c-5-5.8-9.7-10.9-12.2-13.1c-7.1-6.2-15.3-12.5-24.7-18c-4.7-2.8-9.7-5.4-15-7.7
		c-5.3-2.3-10.9-4.4-16.7-6c-1.5-0.4-2.9-0.8-4.4-1.2c-1.5-0.3-3-0.7-4.5-1c-1.5-0.3-3.1-0.5-4.6-0.8c-1.5-0.3-3.1-0.4-4.7-0.6
		c-6.3-0.7-12.7-0.8-19.2-0.1c-6.5,0.6-13,2-19.3,4.3l-1.2,0.4l-0.6,0.2l-0.3,0.1c-0.8,0.3-0.3,0.1-0.5,0.2l-0.1,0.1l-2,0.9l-2,0.9
		l-1,0.5c-0.3,0.2-0.8,0.4-1.1,0.6c-1.6,0.8-3.1,1.7-4.6,2.5c-1.5,0.9-2.8,1.8-4.2,2.7c-5.4,3.8-10.4,8.1-14.7,12.8
		c-4.3,4.8-8.2,9.9-11.5,15.1c-3.3,5.3-6.2,10.8-8.6,16.5l-0.4,1.1l-0.4,1.1l-0.8,2c-0.2,0.6-0.5,1.4-0.8,2.2l-0.7,2.2
		c-0.5,1.5-0.8,2.9-1.3,4.4c-0.4,1.5-0.7,2.9-1.1,4.4c-2.6,11.7-3,23.2-2,34c1.1,10.7,3.5,20.7,6.6,29.4c3.1,8.8,6.9,16.4,10.7,22.9
		c3.8,6.5,7.6,11.8,10.9,16c1.6,2.1,3.2,3.9,4.5,5.5c0.7,0.8,1.3,1.5,1.9,2.1c-2.6,7.1-6,21.1,2.9,29.9c8.2,8.2,10.8-22.7,28.5-25.5
		c5.6-0.9,7-8.3,1.3-14c-4.8-4.8-16.2-5.6-26.3,1.5c-0.1-0.2-0.3-0.3-0.4-0.5c-1.2-1.5-2.6-3.3-4-5.3c-2.9-4-6.3-9.1-9.6-15.2
		c-3.3-6.1-6.5-13.2-9-21.3c-2.6-8.1-4.4-17.1-5-26.6c-0.6-9.6,0.2-19.7,2.8-29.7c0.4-1.2,0.7-2.5,1.1-3.7c0.4-1.2,0.8-2.5,1.2-3.7
		l0.7-1.8c0.2-0.6,0.4-1.2,0.7-1.8l0.8-2l0.4-0.8l0.4-0.9c2.2-4.8,4.9-9.5,7.9-14c3-4.5,6.5-8.7,10.2-12.5c3.8-3.8,7.9-7.2,12.3-10
		c1.1-0.7,2.2-1.4,3.3-2c1.1-0.5,2.1-1.1,3.2-1.6c0.3-0.1,0.5-0.3,0.8-0.4l1-0.4l2.1-0.8l2-0.8l0.2-0.1l0.5-0.1l0.9-0.3
		c4.9-1.6,10-2.5,15.1-2.8c5.1-0.3,10.3-0.1,15.4,0.7c1.3,0.2,2.5,0.4,3.8,0.6c1.3,0.3,2.5,0.5,3.8,0.8c1.2,0.3,2.5,0.6,3.7,1
		c1.2,0.3,2.4,0.7,3.6,1.1c4.8,1.6,9.5,3.5,13.9,5.6c4.4,2.2,8.6,4.5,12.6,7.1c8,5.1,14.9,10.8,21,16.5c1.9,1.7,5.2,5.7,9,10.4
		c11,13.7,11.6,32.9,1.4,47.2c-19.8,27.8-29.3,62-24.1,97.1c11.3,76.2,87.6,128.1,170.3,115.8S659.6,550.6,648.3,474.3z"/>
	<path id="XMLID_43_" class="st12" d="M380.7,583.6c0,0,0.9,4,16.1-1.7s27.9-24.6,27.9-24.6l-35.6,13.4l-18.7,3.3L380.7,583.6z"/>
	<path id="XMLID_42_" class="st12" d="M377.4,352.9c0,0,12.4,25.7,33.3,30.7c20.7,5,32.3-11.7,50.4-20c-15.7,3.1-34.6,12-34.6,12
		s-24.2,3.2-40.1-14.7C370.5,343.1,377.4,352.9,377.4,352.9z"/>
	<g id="XMLID_54_" class="st13">
		<path id="XMLID_84_" class="st12" d="M648.3,474.3C639,412,586.3,366,522.1,358c43,19,99.7,31.5,100.2,112.9
			c0.7,100.2-70.5,152.7-146.8,157.8c-15.2,1-30.7-4-45-5.7c26.4,11.7,56.8,16.2,88.3,11.6C601.6,622.3,659.6,550.6,648.3,474.3z"/>
	</g>
	<ellipse id="XMLID_4_" class="st1" cx="457.1" cy="485.7" rx="30" ry="31.5"/>
	<ellipse id="XMLID_6_" class="st14" cx="449.1" cy="477.7" rx="12.4" ry="13"/>
	<ellipse id="XMLID_7_" class="st14" cx="468.3" cy="496.9" rx="7.3" ry="7.6"/>
	<path id="XMLID_34_" class="st4" d="M553.4,492.4c-0.5-1.2-3.3-7.4-9.9-10.9c-11.4-6.1-24.8,0.6-31.6,3.9
		c-4.8,2.4-10.6,5.2-10.9,9.5c-0.3,4.6,5.5,6.7,6,11.1c-0.5,4.5-6.3,6.6-6,11.2c0.3,4.3,6.1,7.2,10.9,9.5c6.7,3.3,20.2,10,31.6,3.9
		c6.6-3.5,9.4-9.7,9.9-10.9c0.8-1.9,2.1-7.8,2.1-13.7S554.2,494.3,553.4,492.4z"/>
	<path id="XMLID_33_" class="st6" d="M513.5,498.6c0,0,17.5-4.3,28.6-4.3"/>
	<path id="XMLID_38_" class="st6" d="M513.5,507.7c0,0,17.1-2.4,24.6,1.1"/>
	<path id="XMLID_9_" class="st7" d="M553.4,492.4c-0.5-1.2-3.3-7.4-9.9-10.9c-11.4-6.1-24.8,0.6-31.6,3.9
		c-4.8,2.4-10.6,5.2-10.9,9.5c-0.3,4.6,5.5,6.7,6,11.1c-0.5,4.5-6.3,6.6-6,11.2c0.3,4.3,6.1,7.2,10.9,9.5c6.7,3.3,20.2,10,31.6,3.9
		c6.6-3.5,9.4-9.7,9.9-10.9c0.8-1.9,2.1-7.8,2.1-13.7S554.2,494.3,553.4,492.4z"/>
	<path id="XMLID_23_" class="st15" d="M648.3,474.3c-11.3-76.2-87.6-128.1-170.3-115.8c-15.5,2.3-30.1,6.7-43.5,12.7
		c-15.7,7.1-34.3,3.1-45.6-9.9c-5-5.8-9.7-10.9-12.2-13.1c-7.1-6.2-15.3-12.5-24.7-18c-4.7-2.8-9.7-5.4-15-7.7
		c-5.3-2.3-10.9-4.4-16.7-6c-1.5-0.4-2.9-0.8-4.4-1.2c-1.5-0.3-3-0.7-4.5-1c-1.5-0.3-3.1-0.5-4.6-0.8c-1.5-0.3-3.1-0.4-4.7-0.6
		c-6.3-0.7-12.7-0.8-19.2-0.1c-6.5,0.6-13,2-19.3,4.3l-1.2,0.4l-0.6,0.2l-0.3,0.1c-0.8,0.3-0.3,0.1-0.5,0.2l-0.1,0.1l-2,0.9l-2,0.9
		l-1,0.5c-0.3,0.2-0.8,0.4-1.1,0.6c-1.6,0.8-3.1,1.7-4.6,2.5c-1.5,0.9-2.8,1.8-4.2,2.7c-5.4,3.8-10.4,8.1-14.7,12.8
		c-4.3,4.8-8.2,9.9-11.5,15.1c-3.3,5.3-6.2,10.8-8.6,16.5l-0.4,1.1l-0.4,1.1l-0.8,2c-0.2,0.6-0.5,1.4-0.8,2.2l-0.7,2.2
		c-0.5,1.5-0.8,2.9-1.3,4.4c-0.4,1.5-0.7,2.9-1.1,4.4c-2.6,11.7-3,23.2-2,34c1.1,10.7,3.5,20.7,6.6,29.4c3.1,8.8,6.9,16.4,10.7,22.9
		c3.8,6.5,7.6,11.8,10.9,16c1.6,2.1,3.2,3.9,4.5,5.5c0.7,0.8,1.3,1.5,1.9,2.1c-2.6,7.1-6,21.1,2.9,29.9c8.2,8.2,10.8-22.7,28.5-25.5
		c5.6-0.9,7-8.3,1.3-14c-4.8-4.8-16.2-5.6-26.3,1.5c-0.1-0.2-0.3-0.3-0.4-0.5c-1.2-1.5-2.6-3.3-4-5.3c-2.9-4-6.3-9.1-9.6-15.2
		c-3.3-6.1-6.5-13.2-9-21.3c-2.6-8.1-4.4-17.1-5-26.6c-0.6-9.6,0.2-19.7,2.8-29.7c0.4-1.2,0.7-2.5,1.1-3.7c0.4-1.2,0.8-2.5,1.2-3.7
		l0.7-1.8c0.2-0.6,0.4-1.2,0.7-1.8l0.8-2l0.4-0.8l0.4-0.9c2.2-4.8,4.9-9.5,7.9-14c3-4.5,6.5-8.7,10.2-12.5c3.8-3.8,7.9-7.2,12.3-10
		c1.1-0.7,2.2-1.4,3.3-2c1.1-0.5,2.1-1.1,3.2-1.6c0.3-0.1,0.5-0.3,0.8-0.4l1-0.4l2.1-0.8l2-0.8l0.2-0.1l0.5-0.1l0.9-0.3
		c4.9-1.6,10-2.5,15.1-2.8c5.1-0.3,10.3-0.1,15.4,0.7c1.3,0.2,2.5,0.4,3.8,0.6c1.3,0.3,2.5,0.5,3.8,0.8c1.2,0.3,2.5,0.6,3.7,1
		c1.2,0.3,2.4,0.7,3.6,1.1c4.8,1.6,9.5,3.5,13.9,5.6c4.4,2.2,8.6,4.5,12.6,7.1c8,5.1,14.9,10.8,21,16.5c1.9,1.7,5.2,5.7,9,10.4
		c11,13.7,11.6,32.9,1.4,47.2c-19.8,27.8-29.3,62-24.1,97.1c11.3,76.2,87.6,128.1,170.3,115.8S659.6,550.6,648.3,474.3z"/>
	<path id="XMLID_22_" class="st14" d="M400.9,566.8c-6.2,2.4-12.5,4.3-18.7,5.6c-12.2-11.9-19.4-29.9-18.1-49.6
		c0.9-12.7,5.1-24.2,11.7-33.5c-0.8,3.8-1.4,7.8-1.6,11.8C372.3,527.1,383,551.1,400.9,566.8z"/>
	<path id="XMLID_25_" class="st16" d="M400.9,566.8c-6.2,2.4-12.5,4.3-18.7,5.6c-12.2-11.9-19.4-29.9-18.1-49.6
		c0.9-12.7,5.1-24.2,11.7-33.5c-0.8,3.8-1.4,7.8-1.6,11.8C372.3,527.1,383,551.1,400.9,566.8z"/>
	<path id="XMLID_14_" class="st14" d="M419.2,558c-3.3,1.9-6.7,3.7-10.2,5.3c-0.8,0.4-1.7,0.8-2.5,1.1c-6-8.4-9.7-19.1-9.7-30.8
		c0-10.3,2.8-19.8,7.6-27.6c-0.4,3.1-0.7,6.3-0.7,9.6C403.7,531.9,409.6,546.8,419.2,558z"/>
	<path id="XMLID_26_" class="st16" d="M419.2,558c-3.3,1.9-6.7,3.7-10.2,5.3c-0.8,0.4-1.7,0.8-2.5,1.1c-6-8.4-9.7-19.1-9.7-30.8
		c0-10.3,2.8-19.8,7.6-27.6c-0.4,3.1-0.7,6.3-0.7,9.6C403.7,531.9,409.6,546.8,419.2,558z"/>
	<path id="XMLID_36_" class="st17" d="M483,538c0,0,0,21.1-19.5,33.1"/>
	<path id="XMLID_37_" class="st17" d="M499.7,546.3c0,0,7.6,15.2-0.5,31.9"/>
	<path id="XMLID_15_" class="st15" d="M430.8,550.5c-6.6,4.9-13.9,9.3-21.8,12.9c-11.9,5.5-24.1,9-36.1,10.6"/>
	<path id="XMLID_24_" class="st7" d="M501.4,636.2"/>
	<path id="XMLID_29_" class="st18" d="M548.9,363.7"/>
	<path id="XMLID_39_" class="st6" d="M513.5,515.6c0,0,13.4,1.3,16.2,4.1"/>
	<path id="XMLID_3_" class="st2" d="M663,241c0,0-7.6,28,21.2,28S695,229,663,241z"/>
</g>
</svg>
