<?xml version="1.0" encoding="utf-8"?>
<!-- Generator: Adobe Illustrator 23.1.1, SVG Export Plug-In . SVG Version: 6.00 Build 0)  -->
<svg version="1.1" id="Layer_1" xmlns="http://www.w3.org/2000/svg" xmlns:xlink="http://www.w3.org/1999/xlink" x="0px" y="0px"
	 viewBox="0 0 1000 1000" style="enable-background:new 0 0 1000 1000;" xml:space="preserve">
<style type="text/css">
	.st0{fill:#00C2E8;}
	.st1{fill:#EEF2F4;}
	.st2{opacity:0.2;fill:#232323;stroke:#232323;stroke-width:6;stroke-linecap:round;stroke-linejoin:round;stroke-miterlimit:10;}
	.st3{fill:#DCD6E2;}
	.st4{fill:#C3BACE;}
	.st5{fill:none;stroke:#4B5181;stroke-width:4;stroke-linecap:round;stroke-linejoin:round;stroke-miterlimit:10;}
	.st6{fill:#787296;}
	.st7{fill:#676289;}
	.st8{fill:#4B5181;}
	.st9{fill:#62AF97;}
	.st10{fill:none;stroke:#4B5181;stroke-width:8;stroke-linecap:round;stroke-linejoin:round;stroke-miterlimit:10;}
	.st11{fill:none;stroke:#4B5181;stroke-width:6;stroke-linecap:round;stroke-linejoin:round;stroke-miterlimit:10;}
	.st12{fill:#B1CEDE;}
	.st13{fill:#C1CEE0;}
	.st14{opacity:0.69;fill:#F2F6F7;}
	.st15{fill:#525A89;}
	.st16{fill:none;stroke:#C1C9F4;stroke-width:3;stroke-linecap:round;stroke-linejoin:round;stroke-miterlimit:10;}
	.st17{fill:#E4E1EA;}
	.st18{fill:#DDD7E3;}
	.st19{fill:#F8DB97;}
	.st20{fill:#E0BA77;}
	.st21{opacity:0.3;fill:#DDD7E3;}
</style>
<rect id="XMLID_28_" class="st0" width="1000" height="1000"/>
<g>
	<g>
		<g>
			<path class="st1" d="M63.2,959.2c0,2.5-1.2,3.7-2.6,3.7c-1.1,0-1.9-0.5-2.1-1.4c-0.4,0.5-1,0.8-1.8,0.8c-1.5,0-2.6-1.2-2.6-2.8
				c0-1.6,1.1-2.8,2.6-2.8c0.7,0,1.2,0.3,1.6,0.7v-0.5h1.6v3.9c0,0.8,0.3,1.4,1,1.4c0.9,0,1.7-0.9,1.7-3c0-3-2.3-5.3-5.4-5.3
				c-3.1,0-5.6,2.4-5.6,5.7c0,3.3,2.5,5.7,5.9,5.7c1.1,0,2.1-0.2,2.9-0.4v0.6c-0.8,0.3-1.7,0.4-2.9,0.4c-3.7,0-6.5-2.6-6.5-6.2
				c0-3.4,2.7-6.2,6.2-6.2C61.1,953.3,63.2,956.4,63.2,959.2z M58.3,959.5c0-0.8-0.6-1.4-1.3-1.4c-0.8,0-1.3,0.5-1.3,1.4
				c0,0.8,0.6,1.3,1.3,1.3C57.8,960.9,58.3,960.3,58.3,959.5z"/>
		</g>
		<g>
			<path class="st1" d="M69.4,955.1v2c-1.2-0.1-2.6,0.5-2.6,2.4v4.3h-1.9v-8.6h1.9v1.4C67.3,955.5,68.3,955.1,69.4,955.1z"/>
		</g>
		<g>
			<path class="st1" d="M74.6,962.3c1,0,1.8-0.5,2.2-1.1l1.5,0.9c-0.8,1.2-2.1,1.9-3.8,1.9c-2.8,0-4.7-1.9-4.7-4.5
				c0-2.5,1.8-4.5,4.5-4.5c2.6,0,4.3,2.1,4.3,4.5c0,0.3,0,0.5-0.1,0.8h-6.8C72.1,961.6,73.2,962.3,74.6,962.3z M76.9,958.8
				c-0.3-1.5-1.3-2.1-2.5-2.1c-1.4,0-2.3,0.8-2.6,2.1H76.9z"/>
		</g>
		<g>
			<path class="st1" d="M88.9,955.2v8.6h-1.9v-1.2c-0.7,0.9-1.7,1.5-3,1.5c-2.3,0-4.3-2-4.3-4.5c0-2.6,1.9-4.5,4.3-4.5
				c1.3,0,2.3,0.5,3,1.4v-1.2H88.9z M87.1,959.5c0-1.6-1.2-2.7-2.7-2.7c-1.5,0-2.7,1.1-2.7,2.7c0,1.6,1.2,2.7,2.7,2.7
				C85.9,962.3,87.1,961.1,87.1,959.5z"/>
		</g>
		<g>
			<path class="st1" d="M91.1,951.3H93v12.5h-1.9V951.3z"/>
		</g>
		<g>
			<path class="st1" d="M102.9,955.2l-3.3,8.6h-2.1l-3.3-8.6h2l2.4,6.5l2.4-6.5H102.9z"/>
		</g>
		<g>
			<path class="st1" d="M104.2,955.2h1.9v8.9c0,2.4-1.2,3.5-3.5,3.3v-1.8c1.1,0.1,1.7-0.3,1.7-1.5V955.2z M104,952.8
				c0-0.7,0.5-1.2,1.2-1.2c0.7,0,1.2,0.5,1.2,1.2c0,0.6-0.5,1.2-1.2,1.2C104.5,954,104,953.4,104,952.8z"/>
		</g>
		<g>
			<path class="st1" d="M116,955.2l-3.3,8.8c-0.8,2.2-2.2,3.3-4.2,3.2v-1.7c1.2,0.1,1.9-0.5,2.3-1.7l0.1-0.2l-3.6-8.4h2l2.6,6.2
				l2.2-6.2H116z"/>
		</g>
	</g>
	<g>
		<path class="st1" d="M211.9,938.7c0,2.1-1.5,3.8-3.6,3.8h-3v-7.6h3C210.4,934.9,211.9,936.6,211.9,938.7z M210.9,938.7
			c0-1.6-1.1-2.9-2.6-2.9h-2v5.7h2C209.8,941.6,210.9,940.3,210.9,938.7z"/>
		<path class="st1" d="M219.5,940.8h-3.4l-0.6,1.7h-1.1l2.8-7.6h1.1l2.8,7.6h-1.1L219.5,940.8z M219.2,939.9l-1.4-3.8l-1.4,3.8
			H219.2z"/>
		<path class="st1" d="M226.4,939.4v3.1h-1v-3.1l-2.7-4.5h1.1l2.1,3.6l2.1-3.6h1.1L226.4,939.4z"/>
		<path class="st1" d="M242.6,941.1h-0.9v1.4h-1v-1.4h-3.9v-0.9l2.7-5.2h1.1l-2.7,5.2h2.8V938h1v2.2h0.9V941.1z"/>
		<path class="st1" d="M251.3,941.1h-0.9v1.4h-1v-1.4h-3.9v-0.9l2.7-5.2h1.1l-2.7,5.2h2.8V938h1v2.2h0.9V941.1z"/>
	</g>
	<g>
		<path class="st1" d="M58.9,938.7c0,2.1-1.5,3.8-3.6,3.8h-3v-7.6h3C57.4,934.9,58.9,936.6,58.9,938.7z M57.9,938.7
			c0-1.6-1.1-2.9-2.6-2.9h-2v5.7h2C56.8,941.6,57.9,940.3,57.9,938.7z"/>
		<path class="st1" d="M67,941.6v1h-4.6v-7.6h4.5v1h-3.5v2.3h3.2v0.9h-3.2v2.4H67z"/>
		<path class="st1" d="M70,940.8l0.9-0.5c0.3,0.8,0.9,1.4,2,1.4c1.1,0,1.6-0.5,1.6-1.2c0-0.8-0.7-1-1.8-1.4
			c-1.2-0.4-2.4-0.8-2.4-2.2c0-1.4,1.1-2.2,2.4-2.2c1.3,0,2.2,0.7,2.6,1.7l-0.8,0.5c-0.3-0.7-0.8-1.2-1.7-1.2
			c-0.8,0-1.4,0.4-1.4,1.1c0,0.7,0.5,1,1.6,1.3c1.3,0.4,2.6,0.8,2.6,2.3c0,1.3-1.1,2.2-2.6,2.2C71.5,942.7,70.4,941.9,70,940.8z"/>
		<path class="st1" d="M80,934.9v7.6h-1v-7.6H80z"/>
		<path class="st1" d="M91.3,939.2c0,1.9-1.4,3.5-3.7,3.5c-2.4,0-4-1.8-4-4c0-2.2,1.7-4,4-4c1.4,0,2.7,0.8,3.3,1.8l-0.9,0.5
			c-0.4-0.8-1.4-1.4-2.4-1.4c-1.8,0-3,1.3-3,3c0,1.7,1.2,3,3,3c1.6,0,2.5-0.9,2.7-2h-2.8v-0.9h3.8V939.2z"/>
		<path class="st1" d="M100.6,934.9v7.6h-0.8l-3.9-5.7v5.7h-1v-7.6h0.8l3.9,5.7v-5.7H100.6z"/>
		<path class="st1" d="M109.1,941.6v1h-4.6v-7.6h4.5v1h-3.5v2.3h3.2v0.9h-3.2v2.4H109.1z"/>
		<path class="st1" d="M119.2,938.7c0,2.1-1.5,3.8-3.6,3.8h-3v-7.6h3C117.6,934.9,119.2,936.6,119.2,938.7z M118.2,938.7
			c0-1.6-1.1-2.9-2.6-2.9h-2v5.7h2C117.1,941.6,118.2,940.3,118.2,938.7z"/>
		<path class="st1" d="M133.2,940.4c0,1.2-1,2.2-2.2,2.2h-3.3v-7.6h3c1.2,0,2.1,0.9,2.1,2.1c0,0.7-0.3,1.2-0.8,1.6
			C132.7,938.9,133.2,939.5,133.2,940.4z M128.7,935.8v2.3h2c0.6,0,1.1-0.5,1.1-1.2c0-0.6-0.5-1.2-1.1-1.2H128.7z M132.2,940.3
			c0-0.7-0.5-1.2-1.2-1.2h-2.3v2.5h2.3C131.7,941.6,132.2,941,132.2,940.3z"/>
		<path class="st1" d="M139.4,939.4v3.1h-1v-3.1l-2.7-4.5h1.1l2.1,3.6l2.1-3.6h1.1L139.4,939.4z"/>
	</g>
	<g>
		<path class="st1" d="M214.8,951.9v12.4h-2v-5.4h-5.3v5.4h-2v-12.4h2v5.1h5.3v-5.1H214.8z"/>
		<path class="st1" d="M226.1,955.4v8.9h-1.9V963c-0.7,0.9-1.7,1.5-3.1,1.5c-2.4,0-4.4-2-4.4-4.7c0-2.6,2-4.7,4.4-4.7
			c1.4,0,2.4,0.6,3.1,1.5v-1.3H226.1z M224.2,959.9c0-1.6-1.2-2.8-2.8-2.8c-1.6,0-2.8,1.2-2.8,2.8c0,1.6,1.2,2.8,2.8,2.8
			C223,962.7,224.2,961.5,224.2,959.9z"/>
		<path class="st1" d="M233,955.3v2.1c-1.3-0.1-2.7,0.5-2.7,2.5v4.5h-1.9v-8.9h1.9v1.5C230.8,955.7,231.9,955.3,233,955.3z"/>
		<path class="st1" d="M242.9,951.9v12.4H241V963c-0.7,0.9-1.7,1.5-3.1,1.5c-2.4,0-4.4-2-4.4-4.7c0-2.6,2-4.7,4.4-4.7
			c1.4,0,2.4,0.6,3.1,1.5v-4.8H242.9z M241,959.9c0-1.6-1.2-2.8-2.8-2.8c-1.6,0-2.8,1.2-2.8,2.8c0,1.6,1.2,2.8,2.8,2.8
			C239.8,962.7,241,961.5,241,959.9z"/>
		<path class="st1" d="M260.5,958.1c0,3.5-2.5,6.2-5.9,6.2h-4.9v-12.4h4.9C258,951.9,260.5,954.6,260.5,958.1z M258.5,958.1
			c0-2.5-1.6-4.2-4-4.2h-2.8v8.5h2.8C256.9,962.3,258.5,960.5,258.5,958.1z"/>
		<path class="st1" d="M262,952.9c0-0.7,0.5-1.2,1.2-1.2c0.7,0,1.2,0.5,1.2,1.2c0,0.7-0.5,1.2-1.2,1.2
			C262.5,954.1,262,953.6,262,952.9z M262.2,955.4h1.9v8.9h-1.9V955.4z"/>
		<path class="st1" d="M272.8,961.8c0,1.8-1.5,2.7-3.5,2.7c-1.8,0-3-0.8-3.6-2.1l1.6-1c0.3,0.8,1,1.3,2,1.3c0.8,0,1.5-0.3,1.5-1
			c0-1.6-4.8-0.7-4.8-3.9c0-1.7,1.4-2.7,3.2-2.7c1.5,0,2.7,0.7,3.3,1.8L271,958c-0.3-0.7-0.9-1-1.7-1c-0.7,0-1.3,0.3-1.3,0.9
			C268,959.5,272.8,958.5,272.8,961.8z"/>
		<path class="st1" d="M279.9,964.3l-3.6-4.1v4.1h-1.9v-12.4h1.9v7.5l3.4-3.9h2.3l-3.9,4.3l4,4.5H279.9z"/>
	</g>
	<g>
		<g>
			<g>
				<path class="st1" d="M846.1,938.7c0,2.1-1.5,3.8-3.6,3.8h-3v-7.6h3C844.6,934.9,846.1,936.6,846.1,938.7z M845.2,938.7
					c0-1.6-1.1-2.9-2.6-2.9h-2v5.7h2C844.1,941.6,845.2,940.3,845.2,938.7z"/>
			</g>
			<g>
				<path class="st1" d="M849.3,938.7c0-2.2,1.7-4,3.9-4c2.2,0,4,1.8,4,4c0,2.2-1.7,4-4,4C851,942.7,849.3,940.9,849.3,938.7z
					 M856.1,938.7c0-1.7-1.3-3-2.9-3c-1.7,0-2.9,1.3-2.9,3c0,1.7,1.3,3,2.9,3C854.9,941.7,856.1,940.4,856.1,938.7z"/>
			</g>
			<g>
				<path class="st1" d="M859.8,934.9h1.1l1.7,6.3l1.9-6.3h1l1.9,6.3l1.7-6.3h1.1l-2.2,7.6h-1.2l-1.8-6.1l-1.8,6.1H862L859.8,934.9z
					"/>
			</g>
			<g>
				<path class="st1" d="M879.3,934.9v7.6h-0.8l-3.9-5.7v5.7h-1v-7.6h0.8l3.9,5.7v-5.7H879.3z"/>
			</g>
			<g>
				<path class="st1" d="M887.5,941.6v1h-4.3v-7.6h1v6.7H887.5z"/>
			</g>
			<g>
				<path class="st1" d="M889.9,938.7c0-2.2,1.7-4,3.9-4c2.2,0,4,1.8,4,4c0,2.2-1.7,4-4,4C891.6,942.7,889.9,940.9,889.9,938.7z
					 M896.8,938.7c0-1.7-1.3-3-2.9-3c-1.7,0-2.9,1.3-2.9,3c0,1.7,1.3,3,2.9,3C895.5,941.7,896.8,940.4,896.8,938.7z"/>
			</g>
			<g>
				<path class="st1" d="M905.4,940.8H902l-0.6,1.7h-1.1l2.8-7.6h1.1l2.8,7.6H906L905.4,940.8z M905.1,939.9l-1.4-3.8l-1.4,3.8
					H905.1z"/>
			</g>
			<g>
				<path class="st1" d="M916.9,938.7c0,2.1-1.5,3.8-3.6,3.8h-3v-7.6h3C915.4,934.9,916.9,936.6,916.9,938.7z M915.9,938.7
					c0-1.6-1.1-2.9-2.6-2.9h-2v5.7h2C914.9,941.6,915.9,940.3,915.9,938.7z"/>
			</g>
			<g>
				<path class="st1" d="M926.5,935.8v2.5h3.2v1h-3.2v3.2h-1v-7.6h4.4v1H926.5z"/>
			</g>
			<g>
				<path class="st1" d="M936.2,939.6h-1.8v2.9h-1v-7.6h3c1.3,0,2.4,1.1,2.4,2.4c0,1-0.7,1.9-1.6,2.2l1.8,3.1h-1.1L936.2,939.6z
					 M934.4,938.7h2c0.8,0,1.4-0.6,1.4-1.4c0-0.8-0.6-1.4-1.4-1.4h-2V938.7z"/>
			</g>
			<g>
				<path class="st1" d="M941.9,938.7c0-2.2,1.7-4,3.9-4c2.2,0,4,1.8,4,4c0,2.2-1.7,4-4,4C943.6,942.7,941.9,940.9,941.9,938.7z
					 M948.8,938.7c0-1.7-1.3-3-2.9-3c-1.7,0-2.9,1.3-2.9,3c0,1.7,1.3,3,2.9,3C947.5,941.7,948.8,940.4,948.8,938.7z"/>
			</g>
			<g>
				<path class="st1" d="M960.4,942.5h-1v-6l-2.5,4.2h-0.1l-2.5-4.1v5.9h-1v-7.6h1.1l2.4,4l2.4-4h1.1V942.5z"/>
			</g>
		</g>
		<g>
			<g>
				<path class="st1" d="M839.3,952.9c0-0.7,0.5-1.2,1.2-1.2c0.7,0,1.2,0.5,1.2,1.2c0,0.7-0.5,1.2-1.2,1.2
					C839.9,954.1,839.3,953.6,839.3,952.9z M839.6,955.4h1.9v8.9h-1.9V955.4z"/>
			</g>
			<g>
				<path class="st1" d="M843.7,951.4h1.9v12.9h-1.9V951.4z"/>
			</g>
			<g>
				<path class="st1" d="M847.8,951.4h1.9v12.9h-1.9V951.4z"/>
			</g>
			<g>
				<path class="st1" d="M852,951.4h1.9v12.9H852V951.4z"/>
			</g>
			<g>
				<path class="st1" d="M864,955.4v8.9h-1.9v-1.1c-0.6,0.9-1.5,1.4-2.7,1.4c-2,0-3.4-1.3-3.4-3.6v-5.4h1.9v5.2c0,1.3,0.8,2.1,2,2.1
					c1.3,0,2.2-0.7,2.2-2.5v-4.7H864z"/>
			</g>
			<g>
				<path class="st1" d="M872.6,961.8c0,1.8-1.5,2.7-3.5,2.7c-1.8,0-3-0.8-3.6-2.1l1.6-1c0.3,0.8,1,1.3,2,1.3c0.8,0,1.5-0.3,1.5-1
					c0-1.6-4.8-0.7-4.8-3.9c0-1.7,1.4-2.7,3.2-2.7c1.5,0,2.7,0.7,3.3,1.8l-1.6,0.9c-0.3-0.7-0.9-1-1.7-1c-0.7,0-1.3,0.3-1.3,0.9
					C867.9,959.5,872.6,958.5,872.6,961.8z"/>
			</g>
			<g>
				<path class="st1" d="M876.7,957.3v4.2c0,1.1,0.7,1.1,2.2,1v1.7c-2.9,0.4-4.1-0.5-4.1-2.8v-4.2h-1.6v-1.8h1.6v-1.9l1.9-0.6v2.5
					h2.2v1.8H876.7z"/>
			</g>
			<g>
				<path class="st1" d="M885.4,955.3v2.1c-1.3-0.1-2.7,0.5-2.7,2.5v4.5h-1.9v-8.9h1.9v1.5C883.2,955.7,884.2,955.3,885.4,955.3z"/>
			</g>
			<g>
				<path class="st1" d="M895.3,955.4v8.9h-1.9V963c-0.7,0.9-1.7,1.5-3.1,1.5c-2.4,0-4.4-2-4.4-4.7c0-2.6,2-4.7,4.4-4.7
					c1.4,0,2.4,0.6,3.1,1.5v-1.3H895.3z M893.4,959.9c0-1.6-1.2-2.8-2.8-2.8c-1.6,0-2.8,1.2-2.8,2.8c0,1.6,1.2,2.8,2.8,2.8
					C892.2,962.7,893.4,961.5,893.4,959.9z"/>
			</g>
			<g>
				<path class="st1" d="M900.3,957.3v4.2c0,1.1,0.7,1.1,2.2,1v1.7c-2.9,0.4-4.1-0.5-4.1-2.8v-4.2h-1.6v-1.8h1.6v-1.9l1.9-0.6v2.5
					h2.2v1.8H900.3z"/>
			</g>
			<g>
				<path class="st1" d="M903.9,952.9c0-0.7,0.5-1.2,1.2-1.2c0.7,0,1.2,0.5,1.2,1.2c0,0.7-0.5,1.2-1.2,1.2
					C904.5,954.1,903.9,953.6,903.9,952.9z M904.2,955.4h1.9v8.9h-1.9V955.4z"/>
			</g>
			<g>
				<path class="st1" d="M907.8,959.9c0-2.6,2.1-4.7,4.7-4.7c2.6,0,4.7,2,4.7,4.7c0,2.6-2.1,4.7-4.7,4.7
					C909.9,964.5,907.8,962.5,907.8,959.9z M915.3,959.9c0-1.6-1.2-2.8-2.8-2.8c-1.6,0-2.8,1.2-2.8,2.8c0,1.6,1.2,2.8,2.8,2.8
					C914.1,962.7,915.3,961.5,915.3,959.9z"/>
			</g>
			<g>
				<path class="st1" d="M927,958.9v5.4h-1.9v-5.2c0-1.3-0.8-2.1-2-2.1c-1.3,0-2.2,0.7-2.2,2.5v4.7h-1.9v-8.9h1.9v1.1
					c0.6-0.9,1.5-1.4,2.7-1.4C925.5,955.2,927,956.6,927,958.9z"/>
			</g>
			<g>
				<path class="st1" d="M935.5,961.8c0,1.8-1.5,2.7-3.5,2.7c-1.8,0-3-0.8-3.6-2.1l1.6-1c0.3,0.8,1,1.3,2,1.3c0.8,0,1.5-0.3,1.5-1
					c0-1.6-4.8-0.7-4.8-3.9c0-1.7,1.4-2.7,3.2-2.7c1.5,0,2.7,0.7,3.3,1.8l-1.6,0.9c-0.3-0.7-0.9-1-1.7-1c-0.7,0-1.3,0.3-1.3,0.9
					C930.7,959.5,935.5,958.5,935.5,961.8z"/>
			</g>
			<g>
				<path class="st1" d="M936.8,963.2c0-0.7,0.6-1.3,1.3-1.3c0.7,0,1.3,0.6,1.3,1.3c0,0.7-0.6,1.3-1.3,1.3
					C937.4,964.5,936.8,963.9,936.8,963.2z"/>
			</g>
			<g>
				<path class="st1" d="M940.3,959.9c0-2.6,2-4.7,4.7-4.7c1.7,0,3.2,0.9,3.9,2.3l-1.6,1c-0.4-0.8-1.3-1.4-2.3-1.4
					c-1.6,0-2.7,1.2-2.7,2.8c0,1.6,1.2,2.8,2.7,2.8c1.1,0,1.9-0.5,2.4-1.4l1.6,0.9c-0.7,1.4-2.2,2.3-4,2.3
					C942.3,964.5,940.3,962.5,940.3,959.9z"/>
			</g>
			<g>
				<path class="st1" d="M949.7,959.9c0-2.6,2.1-4.7,4.7-4.7c2.6,0,4.7,2,4.7,4.7c0,2.6-2.1,4.7-4.7,4.7
					C951.8,964.5,949.7,962.5,949.7,959.9z M957.2,959.9c0-1.6-1.2-2.8-2.8-2.8s-2.8,1.2-2.8,2.8c0,1.6,1.2,2.8,2.8,2.8
					S957.2,961.5,957.2,959.9z"/>
			</g>
		</g>
	</g>
</g>
<path id="XMLID_129_" class="st2" d="M606.1,358.8h-32c-5.5,0-10,4.5-10,10v11c0,5.5-4.5,10-10,10h-104c-5.5,0-10-4.5-10-10v-11
	c0-5.5-4.5-10-10-10h-32c-7.7,0-14,6.3-14,14v303c0,7.7,6.3,14,14,14h208c7.7,0,14-6.3,14-14v-303
	C620.1,365.1,613.9,358.8,606.1,358.8z"/>
<g>
	<path id="XMLID_92_" class="st3" d="M550.4,354.5v-5c0-3.9-3.1-7-7-7h-42c-3.9,0-7,3.1-7,7v5c0,3.9-3.1,7-7,7l0,0c-3.9,0-7-3.1-7-7
		v-5c0-3.9-3.1-7-7-7h-14c-3.9,0-7,3.1-7,7v5c0,3.9-3.1,7-7,7h-12.6c-3.9,0-7,3.1-7,7v5h152v-5c0-3.9-3.1-7-7-7h-13.4
		C553.6,361.5,550.4,358.4,550.4,354.5z"/>
	<path id="XMLID_147_" class="st4" d="M425.8,368.5v5h152v-5c0-1.5-0.5-2.9-1.3-4H427.1C426.3,365.6,425.8,367,425.8,368.5z"/>
	<path id="XMLID_13_" class="st5" d="M550.4,354.5v-5c0-3.9-3.1-7-7-7h-42c-3.9,0-7,3.1-7,7v5c0,3.9-3.1,7-7,7l0,0c-3.9,0-7-3.1-7-7
		v-5c0-3.9-3.1-7-7-7h-14c-3.9,0-7,3.1-7,7v5c0,3.9-3.1,7-7,7h-12.6c-3.9,0-7,3.1-7,7v5h152v-5c0-3.9-3.1-7-7-7h-13.4
		C553.6,361.5,550.4,358.4,550.4,354.5z"/>
	<path id="XMLID_91_" class="st6" d="M606.1,342.5h-32c-5.5,0-10,4.5-10,10v11c0,5.5-4.5,10-10,10h-104c-5.5,0-10-4.5-10-10v-11
		c0-5.5-4.5-10-10-10h-32c-7.7,0-14,6.3-14,14v303c0,7.7,6.3,14,14,14h208c7.7,0,14-6.3,14-14v-303
		C620.1,348.8,613.9,342.5,606.1,342.5z"/>
	<path id="XMLID_144_" class="st7" d="M606.1,342.5h-32c-5.5,0-10,4.5-10,10v11c0,5.5-4.5,10-10,10h-104c-5.5,0-10-4.5-10-10v-11
		c0-5.5-4.5-10-10-10h-32c-7.7,0-14,6.3-14,14v303c0,7.7,6.3,14,14,14h208c7.7,0,14-6.3,14-14v-303
		C620.1,348.8,613.9,342.5,606.1,342.5z"/>
	<path id="XMLID_146_" class="st6" d="M398.1,664.5c-2.8,0-5-2.2-5-5v-303c0-2.8,2.2-5,5-5h32c0.6,0,1,0.4,1,1v11
		c0,10.5,8.5,19,19,19h104c10.5,0,19-8.5,19-19v-11c0-0.6,0.4-1,1-1h32c2.8,0,5,2.2,5,5v303c0,2.8-2.2,5-5,5H398.1z"/>
	<path id="XMLID_89_" class="st8" d="M419.5,609.5V575l12.4-20c3.5-5.7,3-12.9-1.2-18.1c0,0,0-0.1-0.1-0.1
		c-13.2-16.3-20.4-36.8-20.4-57.8c0-50.7,41.3-92,92-92s92,41.3,92,92c0,21-7.3,41.5-20.4,57.8c0,0,0,0.1-0.1,0.1
		c-4.2,5.2-4.8,12.4-1.3,18.1l12.4,20v34.4c-6.2,6.2-9.8,9.8-16,16H435.5C429.3,619.2,425.7,615.7,419.5,609.5z"/>
	<path id="XMLID_134_" class="st9" d="M527.1,566.5c-7.8,7.8-12.2,12.2-20,20v31.7h48.3c7.8-7.8,12.2-12.2,20-20v-31.7H527.1z"/>
	<path id="XMLID_93_" class="st10" d="M419.5,609.5V575l12.4-20c3.5-5.7,3-12.9-1.2-18.1c0,0,0-0.1-0.1-0.1
		c-13.2-16.3-20.4-36.8-20.4-57.8c0-50.7,41.3-92,92-92s92,41.3,92,92c0,21-7.3,41.5-20.4,57.8c0,0,0,0.1-0.1,0.1
		c-4.2,5.2-4.8,12.4-1.3,18.1l12.4,20v34.4c-6.2,6.2-9.8,9.8-16,16H435.5C429.3,619.2,425.7,615.7,419.5,609.5z"/>
	<path id="XMLID_11_" class="st11" d="M606.1,342.5h-32c-5.5,0-10,4.5-10,10v11c0,5.5-4.5,10-10,10h-104c-5.5,0-10-4.5-10-10v-11
		c0-5.5-4.5-10-10-10h-32c-7.7,0-14,6.3-14,14v303c0,7.7,6.3,14,14,14h208c7.7,0,14-6.3,14-14v-303
		C620.1,348.8,613.9,342.5,606.1,342.5z"/>
	<g id="XMLID_9_">
		<g id="XMLID_26_">
			<line id="XMLID_29_" class="st5" x1="470.5" y1="342.5" x2="470.5" y2="358.5"/>
		</g>
		<g id="XMLID_22_">
			<line id="XMLID_25_" class="st5" x1="461.5" y1="342.5" x2="461.5" y2="358.5"/>
		</g>
	</g>
	<g id="XMLID_10_">
		<g id="XMLID_23_">
			<line id="XMLID_24_" class="st5" x1="539.6" y1="342.5" x2="539.6" y2="358.5"/>
		</g>
		<g id="XMLID_19_">
			<line id="XMLID_20_" class="st5" x1="530.6" y1="342.5" x2="530.6" y2="358.5"/>
		</g>
		<g id="XMLID_17_">
			<line id="XMLID_18_" class="st5" x1="521.6" y1="342.5" x2="521.6" y2="358.5"/>
		</g>
		<g id="XMLID_15_">
			<line id="XMLID_16_" class="st5" x1="512.6" y1="342.5" x2="512.6" y2="358.5"/>
		</g>
		<g id="XMLID_12_">
			<line id="XMLID_14_" class="st5" x1="503.6" y1="342.5" x2="503.6" y2="358.5"/>
		</g>
	</g>
	<circle id="XMLID_94_" class="st12" cx="502.1" cy="479" r="80"/>
	<circle id="XMLID_127_" class="st13" cx="502.1" cy="479" r="80"/>
	<path id="XMLID_142_" class="st14" d="M546.1,415.8l-122,85.4c2.3,9.3,6.2,18.2,11.5,26.1l131.1-91.7
		C561.1,427.9,554.2,421.2,546.1,415.8z"/>
	<path id="XMLID_140_" class="st14" d="M453.1,545.9l125-87.5c-1.4-4.6-3.3-9-5.5-13.2l-130,91C445.8,539.7,449.3,543,453.1,545.9z"
		/>
	<circle id="XMLID_122_" class="st8" cx="502.1" cy="479" r="25.1"/>
	<circle id="XMLID_123_" class="st15" cx="502.1" cy="479" r="11"/>
	<circle id="XMLID_7_" class="st11" cx="502.1" cy="479" r="80"/>
	<line id="XMLID_36_" class="st16" x1="541.1" y1="572" x2="541.1" y2="581"/>
	<line id="XMLID_37_" class="st16" x1="545.9" y1="572" x2="545.9" y2="581"/>
	<line id="XMLID_38_" class="st16" x1="550.6" y1="572" x2="550.6" y2="581"/>
	<line id="XMLID_44_" class="st16" x1="541.1" y1="600.3" x2="541.1" y2="609.2"/>
	<line id="XMLID_43_" class="st16" x1="545.9" y1="600.3" x2="545.9" y2="609.2"/>
	<line id="XMLID_42_" class="st16" x1="550.6" y1="600.3" x2="550.6" y2="609.2"/>
	<line id="XMLID_41_" class="st16" x1="564.4" y1="585.9" x2="555.4" y2="585.9"/>
	<line id="XMLID_40_" class="st16" x1="564.4" y1="590.6" x2="555.4" y2="590.6"/>
	<line id="XMLID_39_" class="st16" x1="564.4" y1="595.3" x2="555.4" y2="595.3"/>
	<line id="XMLID_47_" class="st16" x1="536.2" y1="585.9" x2="527.2" y2="585.9"/>
	<line id="XMLID_46_" class="st16" x1="536.2" y1="590.6" x2="527.2" y2="590.6"/>
	<line id="XMLID_45_" class="st16" x1="536.2" y1="595.3" x2="527.2" y2="595.3"/>
	<path id="XMLID_30_" class="st4" d="M477.6,573h-56.9l-1.3,2.1v34.4c6.2,6.2,9.8,9.8,16,16h42.1V573z"/>
	<polygon id="XMLID_141_" class="st17" points="438,619.5 425.5,607 425.5,573 477.6,573 477.6,619.5 	"/>
	<path id="XMLID_90_" class="st5" d="M477.6,573h-56.9l-1.3,2.1v34.4c6.2,6.2,9.8,9.8,16,16h42.1V573z"/>
	<g id="XMLID_98_">
		<circle id="XMLID_95_" class="st18" cx="410.1" cy="387" r="8"/>
		<circle id="XMLID_27_" class="st5" cx="410.1" cy="387" r="8"/>
		<line id="XMLID_97_" class="st5" x1="406.9" y1="387" x2="413.1" y2="387"/>
		<line id="XMLID_96_" class="st5" x1="410" y1="383.9" x2="410" y2="390.1"/>
	</g>
	<g id="XMLID_100_">
		<circle id="XMLID_104_" class="st18" cx="594.1" cy="387" r="8"/>
		<circle id="XMLID_103_" class="st5" cx="594.1" cy="387" r="8"/>
		<line id="XMLID_102_" class="st5" x1="590.9" y1="387" x2="597.1" y2="387"/>
		<line id="XMLID_101_" class="st5" x1="594" y1="383.9" x2="594" y2="390.1"/>
	</g>
	<g id="XMLID_99_">
		<circle id="XMLID_108_" class="st18" cx="594.1" cy="545" r="8"/>
		<circle id="XMLID_107_" class="st5" cx="594.1" cy="545" r="8"/>
		<line id="XMLID_106_" class="st5" x1="590.9" y1="545" x2="597.1" y2="545"/>
		<line id="XMLID_105_" class="st5" x1="594" y1="541.9" x2="594" y2="548.1"/>
	</g>
	<g id="XMLID_33_">
		<circle id="XMLID_112_" class="st18" cx="594.1" cy="642.2" r="8"/>
		<circle id="XMLID_111_" class="st5" cx="594.1" cy="642.2" r="8"/>
		<line id="XMLID_110_" class="st5" x1="590.9" y1="642.2" x2="597.1" y2="642.2"/>
		<line id="XMLID_109_" class="st5" x1="594" y1="639" x2="594" y2="645.3"/>
	</g>
	<g id="XMLID_32_">
		<circle id="XMLID_116_" class="st18" cx="410.1" cy="642.2" r="8"/>
		<circle id="XMLID_115_" class="st5" cx="410.1" cy="642.2" r="8"/>
		<line id="XMLID_114_" class="st5" x1="406.9" y1="642.2" x2="413.1" y2="642.2"/>
		<line id="XMLID_113_" class="st5" x1="410" y1="639" x2="410" y2="645.3"/>
	</g>
	<g id="XMLID_34_">
		<circle id="XMLID_120_" class="st18" cx="410.1" cy="545" r="8"/>
		<circle id="XMLID_119_" class="st5" cx="410.1" cy="545" r="8"/>
		<line id="XMLID_118_" class="st5" x1="406.9" y1="545" x2="413.1" y2="545"/>
		<line id="XMLID_117_" class="st5" x1="410" y1="541.9" x2="410" y2="548.1"/>
	</g>
	<path id="XMLID_88_" class="st19" d="M543.2,504.7l-77.7,100c-5.9,7.6-17.1,8.6-24.3,2.1l0,0c-7.1-6.5-7.2-17.7-0.2-24.3l92.3-86.7
		c2.5-2.4,6.5-2.4,9.1-0.1l0,0C545,498,545.4,502,543.2,504.7z"/>
	<path id="XMLID_151_" class="st20" d="M542.5,495.7c-0.9-0.9-2.1-1.4-3.2-1.6c0.7,2.1,0.4,4.4-1.1,6.2l-77.7,100
		c-5.2,6.6-14.3,8.2-21.3,4.3c0.6,0.8,1.3,1.6,2,2.3h0c7.1,6.5,18.3,5.5,24.3-2.1l77.7-100C545.4,502,545,498,542.5,495.7z"/>
	<path id="XMLID_21_" class="st5" d="M543.2,504.7l-77.7,100c-5.9,7.6-17.1,8.6-24.3,2.1l0,0c-7.1-6.5-7.2-17.7-0.2-24.3l92.3-86.7
		c2.5-2.4,6.5-2.4,9.1-0.1l0,0C545,498,545.4,502,543.2,504.7z"/>
	<path id="XMLID_121_" class="st15" d="M556.9,604.7h-22.2c-1.7,0-3-1.3-3-3v-22.2c0-1.7,1.3-3,3-3h22.2c1.7,0,3,1.3,3,3v22.2
		C559.9,603.4,558.6,604.7,556.9,604.7z"/>
	<path id="XMLID_31_" class="st5" d="M556.9,604.7h-22.2c-1.7,0-3-1.3-3-3v-22.2c0-1.7,1.3-3,3-3h22.2c1.7,0,3,1.3,3,3v22.2
		C559.9,603.4,558.6,604.7,556.9,604.7z"/>
	<circle id="XMLID_124_" class="st8" cx="452.5" cy="593.9" r="8"/>
	<circle id="XMLID_125_" class="st15" cx="452.5" cy="593.9" r="4.9"/>
	<circle id="XMLID_131_" class="st5" cx="427.9" cy="583.4" r="2.4"/>
	<circle id="XMLID_138_" class="st5" cx="466.9" cy="615.7" r="2.4"/>
	<circle id="XMLID_128_" class="st21" cx="502.1" cy="462.1" r="2.8"/>
	<circle id="XMLID_133_" class="st21" cx="502.1" cy="495.9" r="2.8"/>
	<circle id="XMLID_143_" class="st21" cx="519" cy="479" r="2.8"/>
	<circle id="XMLID_132_" class="st21" cx="485.2" cy="479" r="2.8"/>
</g>
</svg>
