<?xml version="1.0" encoding="utf-8"?>
<!-- Generator: Adobe Illustrator 23.1.1, SVG Export Plug-In . SVG Version: 6.00 Build 0)  -->
<svg version="1.1" id="Layer_1" xmlns="http://www.w3.org/2000/svg" xmlns:xlink="http://www.w3.org/1999/xlink" x="0px" y="0px"
	 viewBox="0 0 1000 1000" style="enable-background:new 0 0 1000 1000;" xml:space="preserve">
<style type="text/css">
	.st0{fill:#3A60A6;}
	.st1{fill:#EEF2F4;}
	.st2{fill:#32539A;stroke:#32539A;stroke-width:6;stroke-linecap:round;stroke-linejoin:round;stroke-miterlimit:10;}
	.st3{fill:#B4CAE9;}
	.st4{fill:none;stroke:#31306B;stroke-width:6;stroke-linecap:round;stroke-linejoin:round;stroke-miterlimit:10;}
	.st5{fill:#F3F8FF;}
	.st6{fill:#334684;}
	.st7{opacity:0.3;fill:#2B3F77;}
	.st8{fill:#31306B;}
	.st9{fill:#2B2B60;}
	.st10{fill:#C4D9F2;}
	.st11{fill:none;stroke:#31306B;stroke-width:4;stroke-linecap:round;stroke-linejoin:round;stroke-miterlimit:10;}
	.st12{fill:#94B7E0;}
	.st13{fill:none;stroke:#31306B;stroke-width:3;stroke-linecap:round;stroke-linejoin:round;stroke-miterlimit:10;}
	.st14{fill:#A2BDDD;}
	.st15{fill:#28285B;}
	.st16{fill:none;stroke:#F8F8FF;stroke-width:2;stroke-linecap:round;stroke-linejoin:round;stroke-miterlimit:10;}
	.st17{fill:#81AAD3;}
	.st18{fill:#3A4F89;}
	.st19{fill:none;stroke:#D4E3F4;stroke-width:8;stroke-linecap:round;stroke-linejoin:round;stroke-miterlimit:10;}
	.st20{opacity:0.59;}
	.st21{fill:#8DE57A;}
	.st22{fill:#FFD261;}
	.st23{fill:#FF795A;}
	.st24{fill:#D856C9;}
	.st25{fill:#6388E1;}
	.st26{fill:none;stroke:#31306B;stroke-width:2;stroke-linecap:round;stroke-linejoin:round;stroke-miterlimit:10;}
</style>
<rect id="XMLID_92_" class="st0" width="1000" height="1000"/>
<g>
	<g>
		<g>
			<path class="st1" d="M63.2,959.2c0,2.5-1.2,3.7-2.6,3.7c-1.1,0-1.9-0.5-2.1-1.4c-0.4,0.5-1,0.8-1.8,0.8c-1.5,0-2.6-1.2-2.6-2.8
				c0-1.6,1.1-2.8,2.6-2.8c0.7,0,1.2,0.3,1.6,0.7v-0.5h1.6v3.9c0,0.8,0.3,1.4,1,1.4c0.9,0,1.7-0.9,1.7-3c0-3-2.3-5.3-5.4-5.3
				c-3.1,0-5.6,2.4-5.6,5.7c0,3.3,2.5,5.7,5.9,5.7c1.1,0,2.1-0.2,2.9-0.4v0.6c-0.8,0.3-1.7,0.4-2.9,0.4c-3.7,0-6.5-2.6-6.5-6.2
				c0-3.4,2.7-6.2,6.2-6.2C61.1,953.3,63.2,956.4,63.2,959.2z M58.3,959.5c0-0.8-0.6-1.4-1.3-1.4c-0.8,0-1.3,0.5-1.3,1.4
				c0,0.8,0.6,1.3,1.3,1.3C57.8,960.9,58.3,960.3,58.3,959.5z"/>
		</g>
		<g>
			<path class="st1" d="M69.4,955.1v2c-1.2-0.1-2.6,0.5-2.6,2.4v4.3h-1.9v-8.6h1.9v1.4C67.3,955.5,68.3,955.1,69.4,955.1z"/>
		</g>
		<g>
			<path class="st1" d="M74.6,962.3c1,0,1.8-0.5,2.2-1.1l1.5,0.9c-0.8,1.2-2.1,1.9-3.8,1.9c-2.8,0-4.7-1.9-4.7-4.5
				c0-2.5,1.8-4.5,4.5-4.5c2.6,0,4.3,2.1,4.3,4.5c0,0.3,0,0.5-0.1,0.8h-6.8C72.1,961.6,73.2,962.3,74.6,962.3z M76.9,958.8
				c-0.3-1.5-1.3-2.1-2.5-2.1c-1.4,0-2.3,0.8-2.6,2.1H76.9z"/>
		</g>
		<g>
			<path class="st1" d="M88.9,955.2v8.6h-1.9v-1.2c-0.7,0.9-1.7,1.5-3,1.5c-2.3,0-4.3-2-4.3-4.5c0-2.6,1.9-4.5,4.3-4.5
				c1.3,0,2.3,0.5,3,1.4v-1.2H88.9z M87.1,959.5c0-1.6-1.2-2.7-2.7-2.7c-1.5,0-2.7,1.1-2.7,2.7c0,1.6,1.2,2.7,2.7,2.7
				C85.9,962.3,87.1,961.1,87.1,959.5z"/>
		</g>
		<g>
			<path class="st1" d="M91.1,951.3H93v12.5h-1.9V951.3z"/>
		</g>
		<g>
			<path class="st1" d="M102.9,955.2l-3.3,8.6h-2.1l-3.3-8.6h2l2.4,6.5l2.4-6.5H102.9z"/>
		</g>
		<g>
			<path class="st1" d="M104.2,955.2h1.9v8.9c0,2.4-1.2,3.5-3.5,3.3v-1.8c1.1,0.1,1.7-0.3,1.7-1.5V955.2z M104,952.8
				c0-0.7,0.5-1.2,1.2-1.2c0.7,0,1.2,0.5,1.2,1.2c0,0.6-0.5,1.2-1.2,1.2C104.5,954,104,953.4,104,952.8z"/>
		</g>
		<g>
			<path class="st1" d="M116,955.2l-3.3,8.8c-0.8,2.2-2.2,3.3-4.2,3.2v-1.7c1.2,0.1,1.9-0.5,2.3-1.7l0.1-0.2l-3.6-8.4h2l2.6,6.2
				l2.2-6.2H116z"/>
		</g>
	</g>
	<g>
		<path class="st1" d="M211.9,938.7c0,2.1-1.5,3.8-3.6,3.8h-3v-7.6h3C210.4,934.9,211.9,936.6,211.9,938.7z M210.9,938.7
			c0-1.6-1.1-2.9-2.6-2.9h-2v5.7h2C209.8,941.6,210.9,940.3,210.9,938.7z"/>
		<path class="st1" d="M219.5,940.8h-3.4l-0.6,1.7h-1.1l2.8-7.6h1.1l2.8,7.6h-1.1L219.5,940.8z M219.2,939.9l-1.4-3.8l-1.4,3.8
			H219.2z"/>
		<path class="st1" d="M226.4,939.4v3.1h-1v-3.1l-2.7-4.5h1.1l2.1,3.6l2.1-3.6h1.1L226.4,939.4z"/>
		<path class="st1" d="M242.6,941.1h-0.9v1.4h-1v-1.4h-3.9v-0.9l2.7-5.2h1.1l-2.7,5.2h2.8V938h1v2.2h0.9V941.1z"/>
		<path class="st1" d="M245.6,938.7c0-2.4,1.1-4,2.9-4c1.9,0,2.9,1.6,2.9,4c0,2.4-1,4-2.9,4C246.7,942.7,245.6,941,245.6,938.7z
			 M250.5,938.7c0-1.9-0.7-3-1.9-3c-1.2,0-1.9,1.1-1.9,3s0.7,3,1.9,3C249.8,941.7,250.5,940.6,250.5,938.7z"/>
	</g>
	<g>
		<path class="st1" d="M58.9,938.7c0,2.1-1.5,3.8-3.6,3.8h-3v-7.6h3C57.4,934.9,58.9,936.6,58.9,938.7z M57.9,938.7
			c0-1.6-1.1-2.9-2.6-2.9h-2v5.7h2C56.8,941.6,57.9,940.3,57.9,938.7z"/>
		<path class="st1" d="M67,941.6v1h-4.6v-7.6h4.5v1h-3.5v2.3h3.2v0.9h-3.2v2.4H67z"/>
		<path class="st1" d="M70,940.8l0.9-0.5c0.3,0.8,0.9,1.4,2,1.4c1.1,0,1.6-0.5,1.6-1.2c0-0.8-0.7-1-1.8-1.4
			c-1.2-0.4-2.4-0.8-2.4-2.2c0-1.4,1.1-2.2,2.4-2.2c1.3,0,2.2,0.7,2.6,1.7l-0.8,0.5c-0.3-0.7-0.8-1.2-1.7-1.2
			c-0.8,0-1.4,0.4-1.4,1.1c0,0.7,0.5,1,1.6,1.3c1.3,0.4,2.6,0.8,2.6,2.3c0,1.3-1.1,2.2-2.6,2.2C71.5,942.7,70.4,941.9,70,940.8z"/>
		<path class="st1" d="M80,934.9v7.6h-1v-7.6H80z"/>
		<path class="st1" d="M91.3,939.2c0,1.9-1.4,3.5-3.7,3.5c-2.4,0-4-1.8-4-4c0-2.2,1.7-4,4-4c1.4,0,2.7,0.8,3.3,1.8l-0.9,0.5
			c-0.4-0.8-1.4-1.4-2.4-1.4c-1.8,0-3,1.3-3,3c0,1.7,1.2,3,3,3c1.6,0,2.5-0.9,2.7-2h-2.8v-0.9h3.8V939.2z"/>
		<path class="st1" d="M100.6,934.9v7.6h-0.8l-3.9-5.7v5.7h-1v-7.6h0.8l3.9,5.7v-5.7H100.6z"/>
		<path class="st1" d="M109.1,941.6v1h-4.6v-7.6h4.5v1h-3.5v2.3h3.2v0.9h-3.2v2.4H109.1z"/>
		<path class="st1" d="M119.2,938.7c0,2.1-1.5,3.8-3.6,3.8h-3v-7.6h3C117.6,934.9,119.2,936.6,119.2,938.7z M118.2,938.7
			c0-1.6-1.1-2.9-2.6-2.9h-2v5.7h2C117.1,941.6,118.2,940.3,118.2,938.7z"/>
		<path class="st1" d="M133.2,940.4c0,1.2-1,2.2-2.2,2.2h-3.3v-7.6h3c1.2,0,2.1,0.9,2.1,2.1c0,0.7-0.3,1.2-0.8,1.6
			C132.7,938.9,133.2,939.5,133.2,940.4z M128.7,935.8v2.3h2c0.6,0,1.1-0.5,1.1-1.2c0-0.6-0.5-1.2-1.1-1.2H128.7z M132.2,940.3
			c0-0.7-0.5-1.2-1.2-1.2h-2.3v2.5h2.3C131.7,941.6,132.2,941,132.2,940.3z"/>
		<path class="st1" d="M139.4,939.4v3.1h-1v-3.1l-2.7-4.5h1.1l2.1,3.6l2.1-3.6h1.1L139.4,939.4z"/>
	</g>
	<g>
		<path class="st1" d="M214.1,956c0,2.3-1.8,4.1-4.1,4.1h-2.5v4.2h-2v-12.4h4.6C212.4,951.9,214.1,953.7,214.1,956z M212.1,956
			c0-1.3-0.9-2.2-2.1-2.2h-2.5v4.3h2.5C211.2,958.1,212.1,957.2,212.1,956z"/>
		<path class="st1" d="M214.7,959.9c0-2.6,2.1-4.7,4.7-4.7c2.6,0,4.7,2,4.7,4.7c0,2.6-2.1,4.7-4.7,4.7
			C216.7,964.5,214.7,962.5,214.7,959.9z M222.1,959.9c0-1.6-1.2-2.8-2.8-2.8s-2.8,1.2-2.8,2.8c0,1.6,1.2,2.8,2.8,2.8
			S222.1,961.5,222.1,959.9z"/>
		<path class="st1" d="M237.6,955.4l-2.8,8.9h-1.9l-1.8-6l-1.9,6h-1.9l-2.8-8.9h2l1.7,6.1l1.9-6.1h1.8l1.8,6.1l1.7-6.1H237.6z"/>
		<path class="st1" d="M243,962.8c1.1,0,1.9-0.5,2.3-1.1l1.6,0.9c-0.8,1.2-2.1,1.9-3.9,1.9c-2.9,0-4.8-2-4.8-4.7
			c0-2.6,1.9-4.7,4.7-4.7c2.6,0,4.4,2.1,4.4,4.7c0,0.3,0,0.5-0.1,0.8h-7C240.5,962.1,241.6,962.8,243,962.8z M245.4,959.1
			c-0.3-1.5-1.4-2.2-2.5-2.2c-1.4,0-2.4,0.8-2.7,2.2H245.4z"/>
		<path class="st1" d="M253.6,955.3v2.1c-1.3-0.1-2.7,0.5-2.7,2.5v4.5H249v-8.9h1.9v1.5C251.4,955.7,252.5,955.3,253.6,955.3z"/>
		<path class="st1" d="M264.4,959.9c0,2.6-2,4.7-4.4,4.7c-1.4,0-2.4-0.6-3.1-1.5v1.3H255v-12.4h1.9v4.8c0.7-0.9,1.7-1.5,3.1-1.5
			C262.4,955.2,264.4,957.2,264.4,959.9z M262.5,959.9c0-1.6-1.2-2.8-2.8-2.8c-1.6,0-2.8,1.2-2.8,2.8c0,1.6,1.2,2.8,2.8,2.8
			C261.3,962.7,262.5,961.5,262.5,959.9z"/>
		<path class="st1" d="M265.7,959.9c0-2.6,2.1-4.7,4.7-4.7c2.6,0,4.7,2,4.7,4.7c0,2.6-2.1,4.7-4.7,4.7
			C267.8,964.5,265.7,962.5,265.7,959.9z M273.1,959.9c0-1.6-1.2-2.8-2.8-2.8s-2.8,1.2-2.8,2.8c0,1.6,1.2,2.8,2.8,2.8
			S273.1,961.5,273.1,959.9z"/>
		<path class="st1" d="M276.3,959.9c0-2.6,2.1-4.7,4.7-4.7c2.6,0,4.7,2,4.7,4.7c0,2.6-2.1,4.7-4.7,4.7
			C278.4,964.5,276.3,962.5,276.3,959.9z M283.7,959.9c0-1.6-1.2-2.8-2.8-2.8s-2.8,1.2-2.8,2.8c0,1.6,1.2,2.8,2.8,2.8
			S283.7,961.5,283.7,959.9z"/>
		<path class="st1" d="M292.9,964.3l-3.6-4.1v4.1h-1.9v-12.4h1.9v7.5l3.4-3.9h2.3l-3.9,4.3l4,4.5H292.9z"/>
		<path class="st1" d="M305.1,951.9v12.4h-2v-10.2l-2.5,0.7l-0.5-1.7l3.3-1.2H305.1z"/>
		<path class="st1" d="M307.1,958.1c0-3.8,1.8-6.4,4.9-6.4s4.9,2.6,4.9,6.4s-1.8,6.4-4.9,6.4S307.1,961.9,307.1,958.1z M314.8,958.1
			c0-2.8-1-4.4-2.8-4.4c-1.8,0-2.8,1.6-2.8,4.4s1,4.4,2.8,4.4C313.8,962.5,314.8,961,314.8,958.1z"/>
		<path class="st1" d="M318.2,958.1c0-3.8,1.8-6.4,4.9-6.4s4.9,2.6,4.9,6.4s-1.8,6.4-4.9,6.4S318.2,961.9,318.2,958.1z M325.9,958.1
			c0-2.8-1-4.4-2.8-4.4c-1.8,0-2.8,1.6-2.8,4.4s1,4.4,2.8,4.4C325,962.5,325.9,961,325.9,958.1z"/>
	</g>
	<g>
		<g>
			<path class="st1" d="M846.1,938.7c0,2.1-1.5,3.8-3.6,3.8h-3v-7.6h3C844.6,934.9,846.1,936.6,846.1,938.7z M845.2,938.7
				c0-1.6-1.1-2.9-2.6-2.9h-2v5.7h2C844.1,941.6,845.2,940.3,845.2,938.7z"/>
		</g>
		<g>
			<path class="st1" d="M849.3,938.7c0-2.2,1.7-4,3.9-4c2.2,0,4,1.8,4,4c0,2.2-1.7,4-4,4C851,942.7,849.3,940.9,849.3,938.7z
				 M856.1,938.7c0-1.7-1.3-3-2.9-3c-1.7,0-2.9,1.3-2.9,3c0,1.7,1.3,3,2.9,3C854.9,941.7,856.1,940.4,856.1,938.7z"/>
		</g>
		<g>
			<path class="st1" d="M859.8,934.9h1.1l1.7,6.3l1.9-6.3h1l1.9,6.3l1.7-6.3h1.1l-2.2,7.6h-1.2l-1.8-6.1l-1.8,6.1H862L859.8,934.9z"
				/>
		</g>
		<g>
			<path class="st1" d="M879.3,934.9v7.6h-0.8l-3.9-5.7v5.7h-1v-7.6h0.8l3.9,5.7v-5.7H879.3z"/>
		</g>
		<g>
			<path class="st1" d="M887.5,941.6v1h-4.3v-7.6h1v6.7H887.5z"/>
		</g>
		<g>
			<path class="st1" d="M889.9,938.7c0-2.2,1.7-4,3.9-4c2.2,0,4,1.8,4,4c0,2.2-1.7,4-4,4C891.6,942.7,889.9,940.9,889.9,938.7z
				 M896.8,938.7c0-1.7-1.3-3-2.9-3c-1.7,0-2.9,1.3-2.9,3c0,1.7,1.3,3,2.9,3C895.5,941.7,896.8,940.4,896.8,938.7z"/>
		</g>
		<g>
			<path class="st1" d="M905.4,940.8H902l-0.6,1.7h-1.1l2.8-7.6h1.1l2.8,7.6H906L905.4,940.8z M905.1,939.9l-1.4-3.8l-1.4,3.8H905.1
				z"/>
		</g>
		<g>
			<path class="st1" d="M916.9,938.7c0,2.1-1.5,3.8-3.6,3.8h-3v-7.6h3C915.4,934.9,916.9,936.6,916.9,938.7z M915.9,938.7
				c0-1.6-1.1-2.9-2.6-2.9h-2v5.7h2C914.9,941.6,915.9,940.3,915.9,938.7z"/>
		</g>
		<g>
			<path class="st1" d="M926.5,935.8v2.5h3.2v1h-3.2v3.2h-1v-7.6h4.4v1H926.5z"/>
		</g>
		<g>
			<path class="st1" d="M936.2,939.6h-1.8v2.9h-1v-7.6h3c1.3,0,2.4,1.1,2.4,2.4c0,1-0.7,1.9-1.6,2.2l1.8,3.1h-1.1L936.2,939.6z
				 M934.4,938.7h2c0.8,0,1.4-0.6,1.4-1.4c0-0.8-0.6-1.4-1.4-1.4h-2V938.7z"/>
		</g>
		<g>
			<path class="st1" d="M941.9,938.7c0-2.2,1.7-4,3.9-4c2.2,0,4,1.8,4,4c0,2.2-1.7,4-4,4C943.6,942.7,941.9,940.9,941.9,938.7z
				 M948.8,938.7c0-1.7-1.3-3-2.9-3c-1.7,0-2.9,1.3-2.9,3c0,1.7,1.3,3,2.9,3C947.5,941.7,948.8,940.4,948.8,938.7z"/>
		</g>
		<g>
			<path class="st1" d="M960.4,942.5h-1v-6l-2.5,4.2h-0.1l-2.5-4.1v5.9h-1v-7.6h1.1l2.4,4l2.4-4h1.1V942.5z"/>
		</g>
	</g>
	<g>
		<g>
			<path class="st1" d="M839.3,952.9c0-0.7,0.5-1.2,1.2-1.2c0.7,0,1.2,0.5,1.2,1.2c0,0.7-0.5,1.2-1.2,1.2
				C839.9,954.1,839.3,953.6,839.3,952.9z M839.6,955.4h1.9v8.9h-1.9V955.4z"/>
		</g>
		<g>
			<path class="st1" d="M843.7,951.4h1.9v12.9h-1.9V951.4z"/>
		</g>
		<g>
			<path class="st1" d="M847.8,951.4h1.9v12.9h-1.9V951.4z"/>
		</g>
		<g>
			<path class="st1" d="M852,951.4h1.9v12.9H852V951.4z"/>
		</g>
		<g>
			<path class="st1" d="M864,955.4v8.9h-1.9v-1.1c-0.6,0.9-1.5,1.4-2.7,1.4c-2,0-3.4-1.3-3.4-3.6v-5.4h1.9v5.2c0,1.3,0.8,2.1,2,2.1
				c1.3,0,2.2-0.7,2.2-2.5v-4.7H864z"/>
		</g>
		<g>
			<path class="st1" d="M872.6,961.8c0,1.8-1.5,2.7-3.5,2.7c-1.8,0-3-0.8-3.6-2.1l1.6-1c0.3,0.8,1,1.3,2,1.3c0.8,0,1.5-0.3,1.5-1
				c0-1.6-4.8-0.7-4.8-3.9c0-1.7,1.4-2.7,3.2-2.7c1.5,0,2.7,0.7,3.3,1.8l-1.6,0.9c-0.3-0.7-0.9-1-1.7-1c-0.7,0-1.3,0.3-1.3,0.9
				C867.9,959.5,872.6,958.5,872.6,961.8z"/>
		</g>
		<g>
			<path class="st1" d="M876.7,957.3v4.2c0,1.1,0.7,1.1,2.2,1v1.7c-2.9,0.4-4.1-0.5-4.1-2.8v-4.2h-1.6v-1.8h1.6v-1.9l1.9-0.6v2.5
				h2.2v1.8H876.7z"/>
		</g>
		<g>
			<path class="st1" d="M885.4,955.3v2.1c-1.3-0.1-2.7,0.5-2.7,2.5v4.5h-1.9v-8.9h1.9v1.5C883.2,955.7,884.2,955.3,885.4,955.3z"/>
		</g>
		<g>
			<path class="st1" d="M895.3,955.4v8.9h-1.9V963c-0.7,0.9-1.7,1.5-3.1,1.5c-2.4,0-4.4-2-4.4-4.7c0-2.6,2-4.7,4.4-4.7
				c1.4,0,2.4,0.6,3.1,1.5v-1.3H895.3z M893.4,959.9c0-1.6-1.2-2.8-2.8-2.8c-1.6,0-2.8,1.2-2.8,2.8c0,1.6,1.2,2.8,2.8,2.8
				C892.2,962.7,893.4,961.5,893.4,959.9z"/>
		</g>
		<g>
			<path class="st1" d="M900.3,957.3v4.2c0,1.1,0.7,1.1,2.2,1v1.7c-2.9,0.4-4.1-0.5-4.1-2.8v-4.2h-1.6v-1.8h1.6v-1.9l1.9-0.6v2.5
				h2.2v1.8H900.3z"/>
		</g>
		<g>
			<path class="st1" d="M903.9,952.9c0-0.7,0.5-1.2,1.2-1.2c0.7,0,1.2,0.5,1.2,1.2c0,0.7-0.5,1.2-1.2,1.2
				C904.5,954.1,903.9,953.6,903.9,952.9z M904.2,955.4h1.9v8.9h-1.9V955.4z"/>
		</g>
		<g>
			<path class="st1" d="M907.8,959.9c0-2.6,2.1-4.7,4.7-4.7c2.6,0,4.7,2,4.7,4.7c0,2.6-2.1,4.7-4.7,4.7
				C909.9,964.5,907.8,962.5,907.8,959.9z M915.3,959.9c0-1.6-1.2-2.8-2.8-2.8c-1.6,0-2.8,1.2-2.8,2.8c0,1.6,1.2,2.8,2.8,2.8
				C914.1,962.7,915.3,961.5,915.3,959.9z"/>
		</g>
		<g>
			<path class="st1" d="M927,958.9v5.4h-1.9v-5.2c0-1.3-0.8-2.1-2-2.1c-1.3,0-2.2,0.7-2.2,2.5v4.7h-1.9v-8.9h1.9v1.1
				c0.6-0.9,1.5-1.4,2.7-1.4C925.5,955.2,927,956.6,927,958.9z"/>
		</g>
		<g>
			<path class="st1" d="M935.5,961.8c0,1.8-1.5,2.7-3.5,2.7c-1.8,0-3-0.8-3.6-2.1l1.6-1c0.3,0.8,1,1.3,2,1.3c0.8,0,1.5-0.3,1.5-1
				c0-1.6-4.8-0.7-4.8-3.9c0-1.7,1.4-2.7,3.2-2.7c1.5,0,2.7,0.7,3.3,1.8l-1.6,0.9c-0.3-0.7-0.9-1-1.7-1c-0.7,0-1.3,0.3-1.3,0.9
				C930.7,959.5,935.5,958.5,935.5,961.8z"/>
		</g>
		<g>
			<path class="st1" d="M936.8,963.2c0-0.7,0.6-1.3,1.3-1.3c0.7,0,1.3,0.6,1.3,1.3c0,0.7-0.6,1.3-1.3,1.3
				C937.4,964.5,936.8,963.9,936.8,963.2z"/>
		</g>
		<g>
			<path class="st1" d="M940.3,959.9c0-2.6,2-4.7,4.7-4.7c1.7,0,3.2,0.9,3.9,2.3l-1.6,1c-0.4-0.8-1.3-1.4-2.3-1.4
				c-1.6,0-2.7,1.2-2.7,2.8c0,1.6,1.2,2.8,2.7,2.8c1.1,0,1.9-0.5,2.4-1.4l1.6,0.9c-0.7,1.4-2.2,2.3-4,2.3
				C942.3,964.5,940.3,962.5,940.3,959.9z"/>
		</g>
		<g>
			<path class="st1" d="M949.7,959.9c0-2.6,2.1-4.7,4.7-4.7c2.6,0,4.7,2,4.7,4.7c0,2.6-2.1,4.7-4.7,4.7
				C951.8,964.5,949.7,962.5,949.7,959.9z M957.2,959.9c0-1.6-1.2-2.8-2.8-2.8s-2.8,1.2-2.8,2.8c0,1.6,1.2,2.8,2.8,2.8
				S957.2,961.5,957.2,959.9z"/>
		</g>
	</g>
</g>
<g id="XMLID_2_">
	<path id="XMLID_4_" class="st2" d="M582.2,466.1l68.2-0.9c0.8,0,1.5-0.6,1.8-1.5l5-14.2c0.6-1.6-0.4-3.5-1.8-3.5h-67.2
		c-0.8,0-1.5,0.5-1.8,1.4l-6,15.1C579.7,464.1,580.7,466.1,582.2,466.1z"/>
	<path id="XMLID_5_" class="st2" d="M654.4,474h-83c-4.7,0-8.5,3.8-8.5,8.5c0,4.7,3.8,8.5,8.5,8.5h83c4.7,0,8.5-3.8,8.5-8.5
		C662.9,477.8,659.1,474,654.4,474z"/>
	<path id="XMLID_6_" class="st2" d="M372,687.1c0,5.9,4.3,10.9,10.1,11.7c86.1,12.6,173.6,12.6,259.7,0c5.8-0.9,10.1-5.8,10.1-11.7
		V494.3H372V687.1z"/>
</g>
<g>
	<path id="XMLID_101_" class="st3" d="M360,480v192.8c0,5.9,4.3,10.9,10.1,11.7c86.1,12.6,173.6,12.6,259.7,0
		c5.8-0.9,10.1-5.8,10.1-11.7V480H360z"/>
	<path id="XMLID_16_" class="st4" d="M360,480v192.8c0,5.9,4.3,10.9,10.1,11.7c86.1,12.6,173.6,12.6,259.7,0
		c5.8-0.9,10.1-5.8,10.1-11.7V480H360z"/>
	<path id="XMLID_116_" class="st5" d="M500,684c-42.9,0-86.2-3.2-128.7-9.4c-1.9-0.3-3.3-1.9-3.3-3.8V490.8c0-2.6,2.1-4.8,4.8-4.8
		h254.5c2.6,0,4.8,2.1,4.8,4.8v180.1c0,1.9-1.4,3.5-3.3,3.8C586.2,680.8,542.9,684,500,684z"/>
	<path id="XMLID_108_" class="st6" d="M360,456c0,0-5.4-114.7-7.8-164.9c-0.2-3.3-0.3-6.7-0.5-10c98-13.5,198.5-13.5,296.6,0
		c-0.2,3.3-0.3,6.7-0.5,10C645.4,341.3,640,456,640,456H360z"/>
	<path id="XMLID_213_" class="st7" d="M397.7,425.3c-4.4,0-8-3.5-8.1-7.9l-2.6-111.9c-0.1-2.2,0.8-4.3,2.3-5.8
		c1.5-1.6,3.6-2.4,5.8-2.4h209.7c2.2,0,4.2,0.9,5.8,2.4c1.5,1.6,2.4,3.6,2.3,5.8l-2.6,111.8c-0.1,4.4-3.7,7.9-8.1,7.9H397.7z"/>
	<path id="XMLID_109_" class="st8" d="M602.3,420.3H397.7c-1.7,0-3-1.3-3.1-3l-2.6-111.9c0-1.7,1.4-3.2,3.1-3.2h209.7
		c1.7,0,3.1,1.4,3.1,3.2l-2.6,111.9C605.3,419,604,420.3,602.3,420.3z"/>
	<path id="XMLID_120_" class="st9" d="M568.8,302.3c-1.6,0-2.9,1.2-3.1,2.7c-7.8,51-51.8,90.1-104.9,90.1h-63.5
		c-1.7,0-3.1,1.4-3.1,3.2l0.4,19.1c0,1.7,1.4,3,3.1,3h204.6c1.7,0,3-1.3,3.1-3l2.6-111.9c0-1.7-1.4-3.2-3.1-3.2H568.8z"/>
	<path id="XMLID_70_" class="st4" d="M360,456c0,0-5.4-114.7-7.8-164.9c-0.2-3.3-0.3-6.7-0.5-10c98-13.5,198.5-13.5,296.6,0
		c-0.2,3.3-0.3,6.7-0.5,10C645.4,341.3,640,456,640,456H360z"/>
	<path id="XMLID_106_" class="st3" d="M531.6,608.3c-20-9.4-43.2-9.4-63.2,0c0,4.9,0,9.7,0,14.6h63.2
		C531.6,618.1,531.6,613.2,531.6,608.3z"/>
	<path id="XMLID_328_" class="st10" d="M468.4,609.3c0,1.3,0,2.6,0,3.9c20-8.6,43.2-8.7,63.2,0c0-1.3,0-2.6,0-3.9
		C511.6,599.9,488.4,599.9,468.4,609.3z"/>
	<path id="XMLID_72_" class="st11" d="M531.6,608.3c-19.8-7.1-42.9-7.8-63.2,0c0,4.9,0,9.7,0,14.6h63.2
		C531.6,618.1,531.6,613.2,531.6,608.3z"/>
	<circle id="XMLID_322_" class="st12" cx="500" cy="621.1" r="12.4"/>
	<circle id="XMLID_15_" class="st13" cx="500" cy="621.1" r="12.4"/>
	<path id="XMLID_107_" class="st10" d="M511.9,645c-3.5,2-7.6,3.1-11.9,3.1c-4.3,0-8.4-1.1-11.9-3.1h-19.7c0,4.9,0,9.7,0,14.6
		c20,9.4,43.2,9.4,63.2,0c0-4.9,0-9.7,0-14.6H511.9z"/>
	<path id="XMLID_330_" class="st14" d="M468.4,654.1c0,1.8,0,3.7,0,5.5c20,9.4,43.2,9.4,63.2,0c0-1.8,0-3.7,0-5.5
		C511.6,663.5,488.4,663.5,468.4,654.1z"/>
	<path id="XMLID_74_" class="st11" d="M511.9,645c-3.5,2-7.6,3.1-11.9,3.1c-4.3,0-8.4-1.1-11.9-3.1h-19.7c0,4.9,0,9.7,0,14.6
		c20,9.4,43.2,9.4,63.2,0c0-4.9,0-9.7,0-14.6H511.9z"/>
	<circle id="XMLID_27_" class="st8" cx="500" cy="621.1" r="9.8"/>
	<path id="XMLID_327_" class="st15" d="M505.9,613.4c0.2,0.8,0.3,1.7,0.3,2.6c0,6.6-5.3,11.9-11.9,11.9c-0.5,0-1.1,0-1.6-0.1
		c1.8,2,4.4,3.2,7.2,3.2c5.4,0,9.8-4.4,9.8-9.8C509.8,618,508.3,615.1,505.9,613.4z"/>
	<path id="XMLID_323_" class="st16" d="M494.4,621.1c0-3.1,2.5-5.6,5.6-5.6"/>
	<line id="XMLID_71_" class="st4" x1="487.7" y1="675.3" x2="512.3" y2="675.3"/>
	<path id="XMLID_25_" class="st12" d="M641.5,480h-283c-4.4,0-8-3.6-8-8v0c0-4.4,3.6-8,8-8h283c4.4,0,8,3.6,8,8v0
		C649.5,476.4,645.9,480,641.5,480z"/>
	<path id="XMLID_125_" class="st17" d="M641.5,464h-283c-4.4,0-8,3.6-8,8h299C649.5,467.6,645.9,464,641.5,464z"/>
	<path id="XMLID_73_" class="st4" d="M641.5,480h-283c-4.4,0-8-3.6-8-8v0c0-4.4,3.6-8,8-8h283c4.4,0,8,3.6,8,8v0
		C649.5,476.4,645.9,480,641.5,480z"/>
	<circle id="XMLID_89_" class="st9" cx="563.7" cy="440.3" r="8.5"/>
	<circle id="XMLID_211_" class="st18" cx="563.7" cy="440.3" r="7.5"/>
	<circle id="XMLID_98_" class="st9" cx="586.3" cy="440.3" r="8.5"/>
	<circle id="XMLID_195_" class="st18" cx="586.3" cy="440.3" r="7.5"/>
	<rect id="XMLID_113_" x="399.2" y="456" class="st18" width="44" height="24"/>
	<rect id="XMLID_128_" x="399.2" y="456" class="st6" width="44" height="12"/>
	<rect id="XMLID_110_" x="553" y="456" class="st18" width="44" height="24"/>
	<rect id="XMLID_152_" x="553" y="456" class="st6" width="44" height="12"/>
	<rect id="XMLID_75_" x="399.2" y="456" class="st4" width="44" height="24"/>
	<rect id="XMLID_83_" x="553" y="456" class="st4" width="44" height="24"/>
	<line id="XMLID_105_" class="st19" x1="414.3" y1="322.3" x2="428" y2="322.3"/>
	<line id="XMLID_111_" class="st19" x1="446.5" y1="322.3" x2="499" y2="322.3"/>
	<g>
		<rect id="XMLID_1_" x="383" y="498" class="st4" width="234" height="90"/>
		<g id="XMLID_321_">
			<g>
				<g id="XMLID_752_">
					<rect id="XMLID_753_" x="599" y="498" class="st3" width="18" height="18"/>
				</g>
				<g id="XMLID_750_">
					<rect id="XMLID_751_" x="581" y="498" class="st3" width="18" height="18"/>
				</g>
				<g id="XMLID_748_">
					<rect id="XMLID_749_" x="563" y="498" class="st3" width="18" height="18"/>
				</g>
				<g id="XMLID_746_">
					<rect id="XMLID_747_" x="545" y="498" class="st3" width="18" height="18"/>
				</g>
				<g id="XMLID_744_">
					<rect id="XMLID_745_" x="527" y="498" class="st3" width="18" height="18"/>
				</g>
				<g id="XMLID_742_">
					<rect id="XMLID_743_" x="509" y="498" class="st3" width="18" height="18"/>
				</g>
				<g id="XMLID_740_">
					<rect id="XMLID_741_" x="491" y="498" class="st3" width="18" height="18"/>
				</g>
				<g id="XMLID_738_">
					<rect id="XMLID_739_" x="473" y="498" class="st3" width="18" height="18"/>
				</g>
				<g id="XMLID_735_">
					<rect id="XMLID_736_" x="455" y="498" class="st3" width="18" height="18"/>
				</g>
				<g id="XMLID_733_">
					<rect id="XMLID_734_" x="437" y="498" class="st3" width="18" height="18"/>
				</g>
				<g id="XMLID_731_">
					<rect id="XMLID_732_" x="419" y="498" class="st3" width="18" height="18"/>
				</g>
				<g id="XMLID_729_">
					<rect id="XMLID_730_" x="401" y="498" class="st3" width="18" height="18"/>
				</g>
				<g id="XMLID_727_">
					<rect id="XMLID_728_" x="383" y="498" class="st3" width="18" height="18"/>
				</g>
			</g>
		</g>
		<g id="XMLID_296_">
			<g>
				<g id="XMLID_711_">
					<rect id="XMLID_712_" x="590" y="516" class="st3" width="27" height="18"/>
				</g>
				<g id="XMLID_709_">
					<rect id="XMLID_710_" x="572" y="516" class="st3" width="18" height="18"/>
				</g>
				<g id="XMLID_707_">
					<rect id="XMLID_708_" x="554" y="516" class="st3" width="18" height="18"/>
				</g>
				<g id="XMLID_705_">
					<rect id="XMLID_706_" x="536" y="516" class="st3" width="18" height="18"/>
				</g>
				<g id="XMLID_703_">
					<rect id="XMLID_704_" x="518" y="516" class="st3" width="18" height="18"/>
				</g>
				<g id="XMLID_700_">
					<rect id="XMLID_701_" x="500" y="516" class="st3" width="18" height="18"/>
				</g>
				<g id="XMLID_698_">
					<rect id="XMLID_699_" x="482" y="516" class="st3" width="18" height="18"/>
				</g>
				<g id="XMLID_696_">
					<rect id="XMLID_697_" x="464" y="516" class="st3" width="18" height="18"/>
				</g>
				<g id="XMLID_694_">
					<rect id="XMLID_695_" x="446" y="516" class="st3" width="18" height="18"/>
				</g>
				<g id="XMLID_692_">
					<rect id="XMLID_693_" x="428" y="516" class="st3" width="18" height="18"/>
				</g>
				<g id="XMLID_690_">
					<rect id="XMLID_691_" x="410" y="516" class="st3" width="18" height="18"/>
				</g>
				<g id="XMLID_688_">
					<rect id="XMLID_689_" x="383" y="516" class="st3" width="27" height="18"/>
				</g>
			</g>
		</g>
		<g id="XMLID_275_">
			<g>
				<g id="XMLID_652_">
					<rect id="XMLID_653_" x="572" y="552" class="st3" width="45" height="18"/>
				</g>
				<g id="XMLID_650_">
					<rect id="XMLID_651_" x="554" y="552" class="st3" width="18" height="18"/>
				</g>
				<g id="XMLID_648_">
					<rect id="XMLID_649_" x="536" y="552" class="st3" width="18" height="18"/>
				</g>
				<g id="XMLID_592_">
					<rect id="XMLID_593_" x="518" y="552" class="st3" width="18" height="18"/>
				</g>
				<g id="XMLID_590_">
					<rect id="XMLID_591_" x="500" y="552" class="st3" width="18" height="18"/>
				</g>
				<g id="XMLID_588_">
					<rect id="XMLID_589_" x="482" y="552" class="st3" width="18" height="18"/>
				</g>
				<g id="XMLID_586_">
					<rect id="XMLID_587_" x="464" y="552" class="st3" width="18" height="18"/>
				</g>
				<g id="XMLID_584_">
					<rect id="XMLID_585_" x="446" y="552" class="st3" width="18" height="18"/>
				</g>
				<g id="XMLID_582_">
					<rect id="XMLID_583_" x="428" y="552" class="st3" width="18" height="18"/>
				</g>
				<g id="XMLID_580_">
					<rect id="XMLID_581_" x="383" y="552" class="st3" width="45" height="18"/>
				</g>
			</g>
		</g>
		<g id="XMLID_252_">
			<g>
				<g id="XMLID_646_">
					<rect id="XMLID_647_" x="581" y="534" class="st3" width="36" height="18"/>
				</g>
				<g id="XMLID_644_">
					<rect id="XMLID_645_" x="563" y="534" class="st3" width="18" height="18"/>
				</g>
				<g id="XMLID_642_">
					<rect id="XMLID_643_" x="545" y="534" class="st3" width="18" height="18"/>
				</g>
				<g id="XMLID_640_">
					<rect id="XMLID_641_" x="527" y="534" class="st3" width="18" height="18"/>
				</g>
				<g id="XMLID_638_">
					<rect id="XMLID_639_" x="509" y="534" class="st3" width="18" height="18"/>
				</g>
				<g id="XMLID_604_">
					<rect id="XMLID_637_" x="491" y="534" class="st3" width="18" height="18"/>
				</g>
				<g id="XMLID_602_">
					<rect id="XMLID_603_" x="473" y="534" class="st3" width="18" height="18"/>
				</g>
				<g id="XMLID_600_">
					<rect id="XMLID_601_" x="455" y="534" class="st3" width="18" height="18"/>
				</g>
				<g id="XMLID_598_">
					<rect id="XMLID_599_" x="437" y="534" class="st3" width="18" height="18"/>
				</g>
				<g id="XMLID_596_">
					<rect id="XMLID_597_" x="419" y="534" class="st3" width="18" height="18"/>
				</g>
				<g id="XMLID_594_">
					<rect id="XMLID_595_" x="383" y="534" class="st3" width="36" height="18"/>
				</g>
			</g>
		</g>
		<g id="XMLID_119_">
			<g>
				<g id="XMLID_547_">
					<rect id="XMLID_548_" x="599" y="570" class="st3" width="18" height="18"/>
				</g>
				<g id="XMLID_545_">
					<rect id="XMLID_546_" x="581" y="570" class="st3" width="18" height="18"/>
				</g>
				<g id="XMLID_542_">
					<rect id="XMLID_544_" x="563" y="570" class="st3" width="18" height="18"/>
				</g>
				<g id="XMLID_540_">
					<rect id="XMLID_541_" x="545" y="570" class="st3" width="18" height="18"/>
				</g>
				<g id="XMLID_538_">
					<rect id="XMLID_539_" x="451.2" y="570" class="st3" width="93.8" height="18"/>
				</g>
				<g id="XMLID_536_">
					<rect id="XMLID_537_" x="419" y="570" class="st3" width="32.2" height="18"/>
				</g>
				<g id="XMLID_534_">
					<rect id="XMLID_535_" x="401" y="570" class="st3" width="18" height="18"/>
				</g>
				<g id="XMLID_532_">
					<rect id="XMLID_533_" x="383" y="570" class="st3" width="18" height="18"/>
				</g>
			</g>
		</g>
		<g id="XMLID_14_">
			<g>
				<g id="XMLID_635_">
					<rect id="XMLID_636_" x="599" y="498" class="st11" width="18" height="18"/>
				</g>
				<g id="XMLID_633_">
					<rect id="XMLID_634_" x="581" y="498" class="st11" width="18" height="18"/>
				</g>
				<g id="XMLID_631_">
					<rect id="XMLID_632_" x="563" y="498" class="st11" width="18" height="18"/>
				</g>
				<g id="XMLID_628_">
					<rect id="XMLID_629_" x="545" y="498" class="st11" width="18" height="18"/>
				</g>
				<g id="XMLID_626_">
					<rect id="XMLID_627_" x="527" y="498" class="st11" width="18" height="18"/>
				</g>
				<g id="XMLID_624_">
					<rect id="XMLID_625_" x="509" y="498" class="st11" width="18" height="18"/>
				</g>
				<g id="XMLID_622_">
					<rect id="XMLID_623_" x="491" y="498" class="st11" width="18" height="18"/>
				</g>
				<g id="XMLID_620_">
					<rect id="XMLID_621_" x="473" y="498" class="st11" width="18" height="18"/>
				</g>
				<g id="XMLID_617_">
					<rect id="XMLID_619_" x="455" y="498" class="st11" width="18" height="18"/>
				</g>
				<g id="XMLID_614_">
					<rect id="XMLID_616_" x="437" y="498" class="st11" width="18" height="18"/>
				</g>
				<g id="XMLID_611_">
					<rect id="XMLID_613_" x="419" y="498" class="st11" width="18" height="18"/>
				</g>
				<g id="XMLID_608_">
					<rect id="XMLID_610_" x="401" y="498" class="st11" width="18" height="18"/>
				</g>
				<g id="XMLID_606_">
					<rect id="XMLID_607_" x="383" y="498" class="st11" width="18" height="18"/>
				</g>
			</g>
		</g>
		<g id="XMLID_104_">
			<g id="XMLID_68_">
				<rect id="XMLID_69_" x="590" y="516" class="st11" width="27" height="18"/>
			</g>
			<g id="XMLID_66_">
				<rect id="XMLID_67_" x="572" y="516" class="st11" width="18" height="18"/>
			</g>
			<g id="XMLID_64_">
				<rect id="XMLID_65_" x="554" y="516" class="st11" width="18" height="18"/>
			</g>
			<g id="XMLID_62_">
				<rect id="XMLID_63_" x="536" y="516" class="st11" width="18" height="18"/>
			</g>
			<g id="XMLID_60_">
				<rect id="XMLID_61_" x="518" y="516" class="st11" width="18" height="18"/>
			</g>
			<g id="XMLID_58_">
				<rect id="XMLID_59_" x="500" y="516" class="st11" width="18" height="18"/>
			</g>
			<g id="XMLID_56_">
				<rect id="XMLID_57_" x="482" y="516" class="st11" width="18" height="18"/>
			</g>
			<g id="XMLID_54_">
				<rect id="XMLID_55_" x="464" y="516" class="st11" width="18" height="18"/>
			</g>
			<g id="XMLID_52_">
				<rect id="XMLID_53_" x="446" y="516" class="st11" width="18" height="18"/>
			</g>
			<g id="XMLID_50_">
				<rect id="XMLID_51_" x="428" y="516" class="st11" width="18" height="18"/>
			</g>
			<g id="XMLID_48_">
				<rect id="XMLID_49_" x="410" y="516" class="st11" width="18" height="18"/>
			</g>
			<g id="XMLID_46_">
				<rect id="XMLID_47_" x="383" y="516" class="st11" width="27" height="18"/>
			</g>
		</g>
		<g id="XMLID_117_">
			<g id="XMLID_100_">
				<rect id="XMLID_102_" x="572" y="552" class="st11" width="45" height="18"/>
			</g>
			<g id="XMLID_97_">
				<rect id="XMLID_99_" x="554" y="552" class="st11" width="18" height="18"/>
			</g>
			<g id="XMLID_95_">
				<rect id="XMLID_96_" x="536" y="552" class="st11" width="18" height="18"/>
			</g>
			<g id="XMLID_93_">
				<rect id="XMLID_94_" x="518" y="552" class="st11" width="18" height="18"/>
			</g>
			<g id="XMLID_90_">
				<rect id="XMLID_91_" x="500" y="552" class="st11" width="18" height="18"/>
			</g>
			<g id="XMLID_87_">
				<rect id="XMLID_88_" x="482" y="552" class="st11" width="18" height="18"/>
			</g>
			<g id="XMLID_85_">
				<rect id="XMLID_86_" x="464" y="552" class="st11" width="18" height="18"/>
			</g>
			<g id="XMLID_82_">
				<rect id="XMLID_84_" x="446" y="552" class="st11" width="18" height="18"/>
			</g>
			<g id="XMLID_79_">
				<rect id="XMLID_81_" x="428" y="552" class="st11" width="18" height="18"/>
			</g>
			<g id="XMLID_77_">
				<rect id="XMLID_78_" x="383" y="552" class="st11" width="45" height="18"/>
			</g>
		</g>
		<g id="XMLID_112_">
			<g id="XMLID_148_">
				<rect id="XMLID_149_" x="581" y="534" class="st11" width="36" height="18"/>
			</g>
			<g id="XMLID_146_">
				<rect id="XMLID_147_" x="563" y="534" class="st11" width="18" height="18"/>
			</g>
			<g id="XMLID_144_">
				<rect id="XMLID_145_" x="545" y="534" class="st11" width="18" height="18"/>
			</g>
			<g id="XMLID_142_">
				<rect id="XMLID_143_" x="527" y="534" class="st11" width="18" height="18"/>
			</g>
			<g id="XMLID_140_">
				<rect id="XMLID_141_" x="509" y="534" class="st11" width="18" height="18"/>
			</g>
			<g id="XMLID_138_">
				<rect id="XMLID_139_" x="491" y="534" class="st11" width="18" height="18"/>
			</g>
			<g id="XMLID_136_">
				<rect id="XMLID_137_" x="473" y="534" class="st11" width="18" height="18"/>
			</g>
			<g id="XMLID_134_">
				<rect id="XMLID_135_" x="455" y="534" class="st11" width="18" height="18"/>
			</g>
			<g id="XMLID_132_">
				<rect id="XMLID_133_" x="437" y="534" class="st11" width="18" height="18"/>
			</g>
			<g id="XMLID_130_">
				<rect id="XMLID_131_" x="419" y="534" class="st11" width="18" height="18"/>
			</g>
			<g id="XMLID_126_">
				<rect id="XMLID_129_" x="383" y="534" class="st11" width="36" height="18"/>
			</g>
		</g>
		<g id="XMLID_118_">
			<g id="XMLID_177_">
				<rect id="XMLID_178_" x="599" y="570" class="st11" width="18" height="18"/>
			</g>
			<g id="XMLID_175_">
				<rect id="XMLID_176_" x="581" y="570" class="st11" width="18" height="18"/>
			</g>
			<g id="XMLID_173_">
				<rect id="XMLID_174_" x="563" y="570" class="st11" width="18" height="18"/>
			</g>
			<g id="XMLID_171_">
				<rect id="XMLID_172_" x="545" y="570" class="st11" width="18" height="18"/>
			</g>
			<g id="XMLID_163_">
				<rect id="XMLID_164_" x="451.2" y="570" class="st11" width="93.8" height="18"/>
			</g>
			<g id="XMLID_157_">
				<rect id="XMLID_158_" x="419" y="570" class="st11" width="32.2" height="18"/>
			</g>
			<g id="XMLID_155_">
				<rect id="XMLID_156_" x="401" y="570" class="st11" width="18" height="18"/>
			</g>
			<g id="XMLID_153_">
				<rect id="XMLID_154_" x="383" y="570" class="st11" width="18" height="18"/>
			</g>
		</g>
		<g id="XMLID_618_" class="st20">
			<path id="XMLID_615_" class="st5" d="M602,510v-8c0-0.6,0.4-1,1-1h8c0.6,0,1,0.4,1,1v8c0,0.6-0.4,1-1,1h-8
				C602.4,511,602,510.6,602,510z"/>
			<path id="XMLID_612_" class="st5" d="M584,510v-8c0-0.6,0.4-1,1-1h8c0.6,0,1,0.4,1,1v8c0,0.6-0.4,1-1,1h-8
				C584.4,511,584,510.6,584,510z"/>
			<path id="XMLID_609_" class="st5" d="M566,510v-8c0-0.6,0.4-1,1-1h8c0.6,0,1,0.4,1,1v8c0,0.6-0.4,1-1,1h-8
				C566.4,511,566,510.6,566,510z"/>
			<path id="XMLID_605_" class="st5" d="M548,510v-8c0-0.6,0.4-1,1-1h8c0.6,0,1,0.4,1,1v8c0,0.6-0.4,1-1,1h-8
				C548.4,511,548,510.6,548,510z"/>
			<path id="XMLID_557_" class="st5" d="M530,510v-8c0-0.6,0.4-1,1-1h8c0.6,0,1,0.4,1,1v8c0,0.6-0.4,1-1,1h-8
				C530.4,511,530,510.6,530,510z"/>
			<path id="XMLID_551_" class="st5" d="M512,510v-8c0-0.6,0.4-1,1-1h8c0.6,0,1,0.4,1,1v8c0,0.6-0.4,1-1,1h-8
				C512.4,511,512,510.6,512,510z"/>
			<path id="XMLID_543_" class="st5" d="M494,510v-8c0-0.6,0.4-1,1-1h8c0.6,0,1,0.4,1,1v8c0,0.6-0.4,1-1,1h-8
				C494.4,511,494,510.6,494,510z"/>
			<path id="XMLID_511_" class="st5" d="M476,510v-8c0-0.6,0.4-1,1-1h8c0.6,0,1,0.4,1,1v8c0,0.6-0.4,1-1,1h-8
				C476.4,511,476,510.6,476,510z"/>
			<path id="XMLID_505_" class="st5" d="M458,510v-8c0-0.6,0.4-1,1-1h8c0.6,0,1,0.4,1,1v8c0,0.6-0.4,1-1,1h-8
				C458.4,511,458,510.6,458,510z"/>
			<path id="XMLID_489_" class="st5" d="M440,510v-8c0-0.6,0.4-1,1-1h8c0.6,0,1,0.4,1,1v8c0,0.6-0.4,1-1,1h-8
				C440.4,511,440,510.6,440,510z"/>
			<path id="XMLID_469_" class="st5" d="M422,510v-8c0-0.6,0.4-1,1-1h8c0.6,0,1,0.4,1,1v8c0,0.6-0.4,1-1,1h-8
				C422.4,511,422,510.6,422,510z"/>
			<path id="XMLID_453_" class="st5" d="M404,510v-8c0-0.6,0.4-1,1-1h8c0.6,0,1,0.4,1,1v8c0,0.6-0.4,1-1,1h-8
				C404.4,511,404,510.6,404,510z"/>
			<path id="XMLID_452_" class="st5" d="M386,510v-8c0-0.6,0.4-1,1-1h8c0.6,0,1,0.4,1,1v8c0,0.6-0.4,1-1,1h-8
				C386.4,511,386,510.6,386,510z"/>
			<path id="XMLID_449_" class="st5" d="M593,528v-8c0-0.6,0.4-1,1-1h17c0.6,0,1,0.4,1,1v8c0,0.6-0.4,1-1,1h-17
				C593.4,529,593,528.6,593,528z"/>
			<path id="XMLID_446_" class="st5" d="M575,528v-8c0-0.6,0.4-1,1-1h8c0.6,0,1,0.4,1,1v8c0,0.6-0.4,1-1,1h-8
				C575.4,529,575,528.6,575,528z"/>
			<path id="XMLID_443_" class="st5" d="M557,528v-8c0-0.6,0.4-1,1-1h8c0.6,0,1,0.4,1,1v8c0,0.6-0.4,1-1,1h-8
				C557.4,529,557,528.6,557,528z"/>
			<path id="XMLID_440_" class="st5" d="M539,528v-8c0-0.6,0.4-1,1-1h8c0.6,0,1,0.4,1,1v8c0,0.6-0.4,1-1,1h-8
				C539.4,529,539,528.6,539,528z"/>
			<path id="XMLID_439_" class="st5" d="M521,528v-8c0-0.6,0.4-1,1-1h8c0.6,0,1,0.4,1,1v8c0,0.6-0.4,1-1,1h-8
				C521.4,529,521,528.6,521,528z"/>
			<path id="XMLID_438_" class="st5" d="M503,528v-8c0-0.6,0.4-1,1-1h8c0.6,0,1,0.4,1,1v8c0,0.6-0.4,1-1,1h-8
				C503.4,529,503,528.6,503,528z"/>
			<path id="XMLID_437_" class="st5" d="M485,528v-8c0-0.6,0.4-1,1-1h8c0.6,0,1,0.4,1,1v8c0,0.6-0.4,1-1,1h-8
				C485.4,529,485,528.6,485,528z"/>
			<path id="XMLID_435_" class="st5" d="M467,528v-8c0-0.6,0.4-1,1-1h8c0.6,0,1,0.4,1,1v8c0,0.6-0.4,1-1,1h-8
				C467.4,529,467,528.6,467,528z"/>
			<path id="XMLID_432_" class="st5" d="M449,528v-8c0-0.6,0.4-1,1-1h8c0.6,0,1,0.4,1,1v8c0,0.6-0.4,1-1,1h-8
				C449.4,529,449,528.6,449,528z"/>
			<path id="XMLID_431_" class="st5" d="M431,528v-8c0-0.6,0.4-1,1-1h8c0.6,0,1,0.4,1,1v8c0,0.6-0.4,1-1,1h-8
				C431.4,529,431,528.6,431,528z"/>
			<path id="XMLID_430_" class="st5" d="M413,528v-8c0-0.6,0.4-1,1-1h8c0.6,0,1,0.4,1,1v8c0,0.6-0.4,1-1,1h-8
				C413.4,529,413,528.6,413,528z"/>
			<path id="XMLID_402_" class="st5" d="M386,528v-8c0-0.6,0.4-1,1-1h17c0.6,0,1,0.4,1,1v8c0,0.6-0.4,1-1,1h-17
				C386.4,529,386,528.6,386,528z"/>
			<path id="XMLID_401_" class="st5" d="M575,564v-8c0-0.6,0.4-1,1-1h35c0.6,0,1,0.4,1,1v8c0,0.6-0.4,1-1,1h-35
				C575.4,565,575,564.6,575,564z"/>
			<path id="XMLID_400_" class="st5" d="M557,564v-8c0-0.6,0.4-1,1-1h8c0.6,0,1,0.4,1,1v8c0,0.6-0.4,1-1,1h-8
				C557.4,565,557,564.6,557,564z"/>
			<path id="XMLID_399_" class="st5" d="M539,564v-8c0-0.6,0.4-1,1-1h8c0.6,0,1,0.4,1,1v8c0,0.6-0.4,1-1,1h-8
				C539.4,565,539,564.6,539,564z"/>
			<path id="XMLID_396_" class="st5" d="M521,564v-8c0-0.6,0.4-1,1-1h8c0.6,0,1,0.4,1,1v8c0,0.6-0.4,1-1,1h-8
				C521.4,565,521,564.6,521,564z"/>
			<path id="XMLID_393_" class="st5" d="M503,564v-8c0-0.6,0.4-1,1-1h8c0.6,0,1,0.4,1,1v8c0,0.6-0.4,1-1,1h-8
				C503.4,565,503,564.6,503,564z"/>
			<path id="XMLID_392_" class="st5" d="M485,564v-8c0-0.6,0.4-1,1-1h8c0.6,0,1,0.4,1,1v8c0,0.6-0.4,1-1,1h-8
				C485.4,565,485,564.6,485,564z"/>
			<path id="XMLID_391_" class="st5" d="M467,564v-8c0-0.6,0.4-1,1-1h8c0.6,0,1,0.4,1,1v8c0,0.6-0.4,1-1,1h-8
				C467.4,565,467,564.6,467,564z"/>
			<path id="XMLID_390_" class="st5" d="M449,564v-8c0-0.6,0.4-1,1-1h8c0.6,0,1,0.4,1,1v8c0,0.6-0.4,1-1,1h-8
				C449.4,565,449,564.6,449,564z"/>
			<path id="XMLID_389_" class="st5" d="M431,564v-8c0-0.6,0.4-1,1-1h8c0.6,0,1,0.4,1,1v8c0,0.6-0.4,1-1,1h-8
				C431.4,565,431,564.6,431,564z"/>
			<path id="XMLID_388_" class="st5" d="M386,564v-8c0-0.6,0.4-1,1-1h35c0.6,0,1,0.4,1,1v8c0,0.6-0.4,1-1,1h-35
				C386.4,565,386,564.6,386,564z"/>
			<path id="XMLID_387_" class="st5" d="M584,546v-8c0-0.6,0.4-1,1-1h26c0.6,0,1,0.4,1,1v8c0,0.6-0.4,1-1,1h-26
				C584.4,547,584,546.6,584,546z"/>
			<path id="XMLID_384_" class="st5" d="M566,546v-8c0-0.6,0.4-1,1-1h8c0.6,0,1,0.4,1,1v8c0,0.6-0.4,1-1,1h-8
				C566.4,547,566,546.6,566,546z"/>
			<path id="XMLID_381_" class="st5" d="M548,546v-8c0-0.6,0.4-1,1-1h8c0.6,0,1,0.4,1,1v8c0,0.6-0.4,1-1,1h-8
				C548.4,547,548,546.6,548,546z"/>
			<path id="XMLID_380_" class="st5" d="M530,546v-8c0-0.6,0.4-1,1-1h8c0.6,0,1,0.4,1,1v8c0,0.6-0.4,1-1,1h-8
				C530.4,547,530,546.6,530,546z"/>
			<path id="XMLID_379_" class="st5" d="M512,546v-8c0-0.6,0.4-1,1-1h8c0.6,0,1,0.4,1,1v8c0,0.6-0.4,1-1,1h-8
				C512.4,547,512,546.6,512,546z"/>
			<path id="XMLID_378_" class="st5" d="M494,546v-8c0-0.6,0.4-1,1-1h8c0.6,0,1,0.4,1,1v8c0,0.6-0.4,1-1,1h-8
				C494.4,547,494,546.6,494,546z"/>
			<path id="XMLID_377_" class="st5" d="M476,546v-8c0-0.6,0.4-1,1-1h8c0.6,0,1,0.4,1,1v8c0,0.6-0.4,1-1,1h-8
				C476.4,547,476,546.6,476,546z"/>
			<path id="XMLID_349_" class="st5" d="M458,546v-8c0-0.6,0.4-1,1-1h8c0.6,0,1,0.4,1,1v8c0,0.6-0.4,1-1,1h-8
				C458.4,547,458,546.6,458,546z"/>
			<path id="XMLID_348_" class="st5" d="M440,546v-8c0-0.6,0.4-1,1-1h8c0.6,0,1,0.4,1,1v8c0,0.6-0.4,1-1,1h-8
				C440.4,547,440,546.6,440,546z"/>
			<path id="XMLID_347_" class="st5" d="M422,546v-8c0-0.6,0.4-1,1-1h8c0.6,0,1,0.4,1,1v8c0,0.6-0.4,1-1,1h-8
				C422.4,547,422,546.6,422,546z"/>
			<path id="XMLID_346_" class="st5" d="M386,546v-8c0-0.6,0.4-1,1-1h26c0.6,0,1,0.4,1,1v8c0,0.6-0.4,1-1,1h-26
				C386.4,547,386,546.6,386,546z"/>
			<path id="XMLID_338_" class="st5" d="M602,582v-8c0-0.6,0.4-1,1-1h8c0.6,0,1,0.4,1,1v8c0,0.6-0.4,1-1,1h-8
				C602.4,583,602,582.6,602,582z"/>
			<path id="XMLID_325_" class="st5" d="M584,582v-8c0-0.6,0.4-1,1-1h8c0.6,0,1,0.4,1,1v8c0,0.6-0.4,1-1,1h-8
				C584.4,583,584,582.6,584,582z"/>
			<path id="XMLID_324_" class="st5" d="M566,582v-8c0-0.6,0.4-1,1-1h8c0.6,0,1,0.4,1,1v8c0,0.6-0.4,1-1,1h-8
				C566.4,583,566,582.6,566,582z"/>
			<path id="XMLID_227_" class="st5" d="M548,582v-8c0-0.6,0.4-1,1-1h8c0.6,0,1,0.4,1,1v8c0,0.6-0.4,1-1,1h-8
				C548.4,583,548,582.6,548,582z"/>
			<path id="XMLID_226_" class="st5" d="M454.2,582v-8c0-0.6,0.4-1,1-1H539c0.6,0,1,0.4,1,1v8c0,0.6-0.4,1-1,1h-83.8
				C454.6,583,454.2,582.6,454.2,582z"/>
			<path id="XMLID_180_" class="st5" d="M422,582v-8c0-0.6,0.4-1,1-1h22.2c0.6,0,1,0.4,1,1v8c0,0.6-0.4,1-1,1H423
				C422.4,583,422,582.6,422,582z"/>
			<path id="XMLID_166_" class="st5" d="M404,582v-8c0-0.6,0.4-1,1-1h8c0.6,0,1,0.4,1,1v8c0,0.6-0.4,1-1,1h-8
				C404.4,583,404,582.6,404,582z"/>
			<path id="XMLID_151_" class="st5" d="M386,582v-8c0-0.6,0.4-1,1-1h8c0.6,0,1,0.4,1,1v8c0,0.6-0.4,1-1,1h-8
				C386.4,583,386,582.6,386,582z"/>
		</g>
	</g>
	<g>
		<path id="XMLID_630_" class="st21" d="M412.6,430.1c-0.2,0-0.4,0-0.7,0c-2.2,0-4.2,1-5.5,2.7h6.9C413,432,412.7,431.1,412.6,430.1
			z"/>
		<path id="XMLID_661_" class="st22" d="M416.3,435.6c-1.2-0.6-2.2-1.6-2.9-2.9h-6.9c-0.6,0.8-1.1,1.8-1.3,2.9H416.3z"/>
		<path id="XMLID_667_" class="st23" d="M416.3,435.6h-11.2c-0.1,0.5-0.1,0.9-0.1,1.4c0,0.5,0.1,1,0.2,1.4h13.6
			c0.1-0.5,0.2-0.9,0.2-1.4c0-0.2,0-0.4,0-0.7C418,436.3,417.1,436,416.3,435.6z"/>
		<path id="XMLID_672_" class="st24" d="M417.4,441.4c0.7-0.8,1.1-1.8,1.3-2.9h-13.6c0.2,1.1,0.7,2,1.3,2.9H417.4z"/>
		<path id="XMLID_702_" class="st25" d="M412,444c2.2,0,4.2-1,5.5-2.7h-10.9C407.8,443,409.7,444,412,444z"/>
	</g>
	<line id="XMLID_127_" class="st11" x1="426.6" y1="435.6" x2="456.3" y2="435.6"/>
	<line id="XMLID_192_" class="st26" x1="425.7" y1="441.9" x2="441.4" y2="441.9"/>
	<path id="XMLID_198_" class="st4" d="M527,280.3c-9-0.2-18-0.3-27-0.3s-18,0.1-27,0.3"/>
	<path id="XMLID_80_" class="st8" d="M505.8,286.2h-11.6c-1.6,0-2.8-1.3-2.8-2.8v-1.6c0-1.6,1.3-2.8,2.8-2.8h11.6
		c1.6,0,2.8,1.3,2.8,2.8v1.6C508.6,285,507.4,286.2,505.8,286.2z"/>
</g>
</svg>
