<?xml version="1.0" encoding="utf-8"?>
<!-- Generator: Adobe Illustrator 23.1.1, SVG Export Plug-In . SVG Version: 6.00 Build 0)  -->
<svg version="1.1" id="Layer_1" xmlns="http://www.w3.org/2000/svg" xmlns:xlink="http://www.w3.org/1999/xlink" x="0px" y="0px"
	 viewBox="0 0 1000 1000" style="enable-background:new 0 0 1000 1000;" xml:space="preserve">
<style type="text/css">
	.st0{fill:#F7B85C;}
	.st1{fill:#EEF2F4;}
	.st2{enable-background:new    ;}
	.st3{fill:#212552;}
	.st4{fill:#92D6E9;}
	
		.st5{opacity:0.3;fill:#0A1E2B;stroke:#0A1E2B;stroke-width:6;stroke-linecap:round;stroke-linejoin:round;stroke-miterlimit:10;enable-background:new    ;}
	.st6{fill:none;stroke:#212552;stroke-width:6;stroke-linecap:round;stroke-linejoin:round;stroke-miterlimit:10;}
	.st7{fill:#CBEDF9;}
	.st8{fill:#E8F9FF;}
	
		.st9{opacity:0.23;fill:#0A1E2B;stroke:#0A1E2B;stroke-width:6;stroke-linecap:round;stroke-linejoin:round;stroke-miterlimit:10;enable-background:new    ;}
	.st10{fill:none;stroke:#212552;stroke-width:10;stroke-linecap:round;stroke-linejoin:round;stroke-miterlimit:10;}
	.st11{fill:#FFEA9E;}
	.st12{fill:#EDC75D;}
	.st13{fill:none;stroke:#212552;stroke-width:8;stroke-linecap:round;stroke-linejoin:round;stroke-miterlimit:10;}
	.st14{fill:#5F9E71;stroke:#212552;stroke-width:6;stroke-linecap:round;stroke-linejoin:round;stroke-miterlimit:10;}
	.st15{fill:#90C49E;}
	.st16{fill:#FFFFFF;}
</style>
<rect id="XMLID_31_" y="0" class="st0" width="1000" height="1000"/>
<g>
	<g>
		<g>
			<path class="st1" d="M63.2,959.2c0,2.5-1.2,3.7-2.6,3.7c-1.1,0-1.9-0.5-2.1-1.4c-0.4,0.5-1,0.8-1.8,0.8c-1.5,0-2.6-1.2-2.6-2.8
				s1.1-2.8,2.6-2.8c0.7,0,1.2,0.3,1.6,0.7v-0.5h1.6v3.9c0,0.8,0.3,1.4,1,1.4c0.9,0,1.7-0.9,1.7-3c0-3-2.3-5.3-5.4-5.3
				c-3.1,0-5.6,2.4-5.6,5.7s2.5,5.7,5.9,5.7c1.1,0,2.1-0.2,2.9-0.4v0.6c-0.8,0.3-1.7,0.4-2.9,0.4c-3.7,0-6.5-2.6-6.5-6.2
				c0-3.4,2.7-6.2,6.2-6.2C61.1,953.3,63.2,956.4,63.2,959.2z M58.3,959.5c0-0.8-0.6-1.4-1.3-1.4c-0.8,0-1.3,0.5-1.3,1.4
				c0,0.8,0.6,1.3,1.3,1.3C57.8,960.9,58.3,960.3,58.3,959.5z"/>
		</g>
		<g>
			<path class="st1" d="M69.4,955.1v2c-1.2-0.1-2.6,0.5-2.6,2.4v4.3h-1.9v-8.6h1.9v1.4C67.3,955.5,68.3,955.1,69.4,955.1z"/>
		</g>
		<g>
			<path class="st1" d="M74.6,962.3c1,0,1.8-0.5,2.2-1.1l1.5,0.9c-0.8,1.2-2.1,1.9-3.8,1.9c-2.8,0-4.7-1.9-4.7-4.5
				c0-2.5,1.8-4.5,4.5-4.5c2.6,0,4.3,2.1,4.3,4.5c0,0.3,0,0.5-0.1,0.8h-6.8C72.1,961.6,73.2,962.3,74.6,962.3z M76.9,958.8
				c-0.3-1.5-1.3-2.1-2.5-2.1c-1.4,0-2.3,0.8-2.6,2.1H76.9z"/>
		</g>
		<g>
			<path class="st1" d="M88.9,955.2v8.6H87v-1.2c-0.7,0.9-1.7,1.5-3,1.5c-2.3,0-4.3-2-4.3-4.5c0-2.6,1.9-4.5,4.3-4.5
				c1.3,0,2.3,0.5,3,1.4v-1.2L88.9,955.2L88.9,955.2z M87.1,959.5c0-1.6-1.2-2.7-2.7-2.7s-2.7,1.1-2.7,2.7c0,1.6,1.2,2.7,2.7,2.7
				C85.9,962.3,87.1,961.1,87.1,959.5z"/>
		</g>
		<g>
			<path class="st1" d="M91.1,951.3H93v12.5h-1.9V951.3z"/>
		</g>
		<g>
			<path class="st1" d="M102.9,955.2l-3.3,8.6h-2.1l-3.3-8.6h2l2.4,6.5l2.4-6.5H102.9z"/>
		</g>
		<g>
			<path class="st1" d="M104.2,955.2h1.9v8.9c0,2.4-1.2,3.5-3.5,3.3v-1.8c1.1,0.1,1.7-0.3,1.7-1.5L104.2,955.2L104.2,955.2z
				 M104,952.8c0-0.7,0.5-1.2,1.2-1.2s1.2,0.5,1.2,1.2c0,0.6-0.5,1.2-1.2,1.2S104,953.4,104,952.8z"/>
		</g>
		<g>
			<path class="st1" d="M116,955.2l-3.3,8.8c-0.8,2.2-2.2,3.3-4.2,3.2v-1.7c1.2,0.1,1.9-0.5,2.3-1.7l0.1-0.2l-3.6-8.4h2l2.6,6.2
				l2.2-6.2L116,955.2L116,955.2z"/>
		</g>
	</g>
	<g class="st2">
		<path class="st1" d="M211.9,938.7c0,2.1-1.5,3.8-3.6,3.8h-3v-7.6h3C210.4,934.9,211.9,936.6,211.9,938.7z M210.9,938.7
			c0-1.6-1.1-2.9-2.6-2.9h-2v5.7h2C209.8,941.6,210.9,940.3,210.9,938.7z"/>
		<path class="st1" d="M219.2,940.8h-3.4l-0.6,1.7h-1.1l2.8-7.6h1.1l2.8,7.6h-1.1L219.2,940.8z M218.9,939.9l-1.4-3.8l-1.4,3.8
			H218.9z"/>
		<path class="st1" d="M225.8,939.4v3.1h-1v-3.1l-2.7-4.5h1.1l2.1,3.6l2.1-3.6h1.1L225.8,939.4z"/>
		<path class="st1" d="M235.8,938.7c0-2.4,1.1-4,2.9-4c1.9,0,2.9,1.6,2.9,4c0,2.4-1,4-2.9,4C236.9,942.7,235.8,941,235.8,938.7z
			 M240.7,938.7c0-1.9-0.7-3-1.9-3c-1.2,0-1.9,1.1-1.9,3s0.7,3,1.9,3C240,941.7,240.7,940.6,240.7,938.7z"/>
		<path class="st1" d="M249.7,940.3c0,1.5-1.2,2.4-2.6,2.4c-1.1,0-2.1-0.5-2.5-1.6l0.9-0.5c0.2,0.8,0.8,1.1,1.7,1.1
			c0.9,0,1.6-0.5,1.6-1.4c0-0.9-0.7-1.4-1.6-1.4h-2.2l0.3-4h4.2v0.9h-3.3l-0.1,2h1.1C248.5,937.9,249.7,938.7,249.7,940.3z"/>
	</g>
	<g class="st2">
		<path class="st1" d="M58.9,938.7c0,2.1-1.5,3.8-3.6,3.8h-3v-7.6h3C57.4,934.9,58.9,936.6,58.9,938.7z M57.9,938.7
			c0-1.6-1.1-2.9-2.6-2.9h-2v5.7h2C56.8,941.6,57.9,940.3,57.9,938.7z"/>
		<path class="st1" d="M66.7,941.6v1h-4.6v-7.6h4.5v1h-3.5v2.3h3.2v0.9h-3.2v2.4H66.7z"/>
		<path class="st1" d="M69.5,940.8l0.9-0.5c0.3,0.8,0.9,1.4,2,1.4c1.1,0,1.6-0.5,1.6-1.2c0-0.8-0.7-1-1.8-1.4
			c-1.2-0.4-2.4-0.8-2.4-2.2c0-1.4,1.1-2.2,2.4-2.2c1.3,0,2.2,0.7,2.6,1.7l-0.8,0.5c-0.3-0.7-0.8-1.2-1.7-1.2
			c-0.8,0-1.4,0.4-1.4,1.1c0,0.7,0.5,1,1.6,1.3c1.3,0.4,2.6,0.8,2.6,2.3c0,1.3-1.1,2.2-2.6,2.2C70.9,942.7,69.9,941.9,69.5,940.8z"
			/>
		<path class="st1" d="M79.1,934.9v7.6h-1v-7.6H79.1z"/>
		<path class="st1" d="M90.1,939.2c0,1.9-1.4,3.5-3.7,3.5c-2.4,0-4-1.8-4-4c0-2.2,1.7-4,4-4c1.4,0,2.7,0.8,3.3,1.8l-0.9,0.5
			c-0.4-0.8-1.4-1.4-2.4-1.4c-1.8,0-3,1.3-3,3c0,1.7,1.2,3,3,3c1.6,0,2.5-0.9,2.7-2h-2.8v-0.9h3.8V939.2z"/>
		<path class="st1" d="M99.1,934.9v7.6h-0.8l-3.9-5.7v5.7h-1v-7.6h0.8l3.9,5.7v-5.7H99.1z"/>
		<path class="st1" d="M107.3,941.6v1h-4.6v-7.6h4.5v1h-3.5v2.3h3.2v0.9h-3.2v2.4H107.3z"/>
		<path class="st1" d="M117.1,938.7c0,2.1-1.5,3.8-3.6,3.8h-3v-7.6h3C115.6,934.9,117.1,936.6,117.1,938.7z M116.1,938.7
			c0-1.6-1.1-2.9-2.6-2.9h-2v5.7h2C115,941.6,116.1,940.3,116.1,938.7z"/>
		<path class="st1" d="M130.5,940.4c0,1.2-1,2.2-2.2,2.2H125v-7.6h3.1c1.2,0,2.1,0.9,2.1,2.1c0,0.7-0.3,1.2-0.8,1.6
			C130.1,938.9,130.5,939.5,130.5,940.4z M126.1,935.8v2.3h2c0.6,0,1.1-0.5,1.1-1.2c0-0.6-0.5-1.2-1.1-1.2H126.1z M129.5,940.3
			c0-0.7-0.5-1.2-1.2-1.2h-2.3v2.5h2.3C129,941.6,129.5,941,129.5,940.3z"/>
		<path class="st1" d="M136.4,939.4v3.1h-1v-3.1l-2.7-4.5h1.1l2.1,3.6l2.1-3.6h1.1L136.4,939.4z"/>
	</g>
	<g class="st2">
		<path class="st1" d="M204.3,951.9h2.2l3.3,9.9l3.3-9.9h2.2l-4.3,12.4h-2.4L204.3,951.9z"/>
		<path class="st1" d="M224.4,955.4v8.8h-1.9V963c-0.7,0.9-1.7,1.5-3.1,1.5c-2.4,0-4.4-2-4.4-4.7c0-2.6,2-4.7,4.4-4.7
			c1.4,0,2.4,0.6,3.1,1.5v-1.3H224.4z M222.5,959.9c0-1.6-1.2-2.8-2.8-2.8c-1.6,0-2.8,1.2-2.8,2.8c0,1.6,1.2,2.8,2.8,2.8
			C221.3,962.7,222.5,961.5,222.5,959.9z"/>
		<path class="st1" d="M234.5,955.4v8.8h-1.9v-1.1c-0.6,0.9-1.5,1.4-2.7,1.4c-2,0-3.4-1.3-3.4-3.6v-5.4h1.9v5.2c0,1.3,0.8,2.1,2,2.1
			c1.3,0,2.2-0.7,2.2-2.5v-4.7H234.5z"/>
		<path class="st1" d="M236.8,951.4h1.9v12.9h-1.9V951.4z"/>
		<path class="st1" d="M243.6,957.3v4.2c0,1.1,0.7,1.1,2.2,1v1.7c-2.9,0.4-4.1-0.5-4.1-2.8v-4.2h-1.6v-1.8h1.6v-1.9l1.9-0.6v2.5h2.2
			v1.8H243.6z"/>
	</g>
	<g>
		<path class="st1" d="M841.3,942.5h-1v-7.6h1.1l2.4,4l2.4-4h1.1v7.6h-1v-6l-2.5,4.2h-0.1l-2.5-4.1L841.3,942.5L841.3,942.5z
			 M858.8,938.7c0,2.2-1.7,4-4,4c-2.2,0-3.9-1.8-3.9-4s1.7-4,3.9-4C857.1,934.7,858.8,936.5,858.8,938.7z M857.8,938.7
			c0-1.7-1.3-3-2.9-3c-1.7,0-2.9,1.3-2.9,3s1.3,3,2.9,3C856.6,941.7,857.8,940.4,857.8,938.7z M866.2,939.5l1.8,3.1h-1.1l-1.7-2.9
			h-1.8v2.9h-1V935h3c1.3,0,2.4,1.1,2.4,2.4C867.8,938.2,867.1,939.1,866.2,939.5z M865.4,938.7c0.8,0,1.4-0.6,1.4-1.4
			c0-0.8-0.6-1.4-1.4-1.4h-2v2.8L865.4,938.7L865.4,938.7z M875.9,941.6h-3.5v-2.4h3.2v-0.9h-3.2V936h3.5v-1h-4.5v7.6h4.6
			L875.9,941.6L875.9,941.6z M844.2,962.2l-2.5-6.7h-2.1l3.5,8.9h2.2l3.5-8.9h-2.1L844.2,962.2z M850,964.3h1.9v-8.9H850V964.3z
			 M851,951.7c-0.7,0-1.2,0.5-1.2,1.2s0.5,1.2,1.2,1.2s1.2-0.6,1.2-1.2C852.2,952.2,851.6,951.7,851,951.7z M855.2,951.7
			c-0.7,0-1.2,0.5-1.2,1.2s0.5,1.2,1.2,1.2s1.2-0.6,1.2-1.2C856.5,952.2,855.9,951.7,855.2,951.7z M854.3,964.7
			c0,1.2-0.5,1.7-1.7,1.6v1.8c2.4,0.2,3.6-1,3.6-3.4v-9.2h-1.9L854.3,964.7L854.3,964.7z M865.4,955.4h1.9v8.9h-1.9V963
			c-0.7,0.9-1.7,1.5-3.1,1.5c-2.4,0-4.4-2-4.4-4.7c0-2.6,2-4.7,4.4-4.7c1.4,0,2.4,0.6,3.1,1.5V955.4z M865.4,959.9
			c0-1.6-1.2-2.8-2.8-2.8s-2.8,1.2-2.8,2.8s1.2,2.8,2.8,2.8S865.4,961.5,865.4,959.9z M873.3,961.9l-2.6-6.4h-2.1l3.8,8.7l-0.1,0.2
			c-0.4,1.2-1.1,1.8-2.4,1.7v1.8c2,0.1,3.5-1,4.3-3.3l3.4-9.1h-2L873.3,961.9z M882.3,962.2l-2.5-6.7h-2.1l3.5,8.9h2.2l3.5-8.9h-2.1
			L882.3,962.2z M896.4,959.9c0,0.3,0,0.5-0.1,0.8h-7c0.3,1.4,1.4,2.1,2.8,2.1c1.1,0,1.9-0.5,2.3-1.1l1.6,0.9
			c-0.8,1.2-2.1,1.9-3.9,1.9c-2.9,0-4.8-2-4.8-4.7c0-2.6,1.9-4.7,4.7-4.7C894.5,955.2,896.4,957.3,896.4,959.9z M894.4,959.1
			c-0.3-1.5-1.4-2.2-2.5-2.2c-1.4,0-2.4,0.8-2.7,2.2H894.4z M899.9,956.9v-1.5H898v8.9h1.9v-4.5c0-2,1.5-2.6,2.7-2.5v-2.1
			C901.6,955.3,900.5,955.7,899.9,956.9z M913.8,955.2c-1.2,0-2.1,0.5-2.7,1.4c-0.5-0.9-1.4-1.4-2.5-1.4s-2,0.4-2.5,1.3v-1.1h-1.9
			v8.9h1.9v-5c0-1.6,0.9-2.3,2-2.3c1,0,1.7,0.7,1.7,1.9v5.4h1.9v-5c0-1.6,0.8-2.3,1.9-2.3c1,0,1.7,0.7,1.7,1.9v5.4h1.9v-5.5
			C917.1,956.6,915.8,955.2,913.8,955.2z M926.2,955.4h1.9v8.9h-1.9V963c-0.7,0.9-1.7,1.5-3.1,1.5c-2.4,0-4.4-2-4.4-4.7
			c0-2.6,2-4.7,4.4-4.7c1.4,0,2.4,0.6,3.1,1.5V955.4z M926.2,959.9c0-1.6-1.2-2.8-2.8-2.8s-2.8,1.2-2.8,2.8s1.2,2.8,2.8,2.8
			S926.2,961.5,926.2,959.9z M931.5,961.9c-0.7,0-1.3,0.6-1.3,1.3s0.6,1.3,1.3,1.3s1.3-0.6,1.3-1.3
			C932.8,962.4,932.2,961.9,931.5,961.9z M938.3,962.6c-1.6,0-2.7-1.2-2.7-2.8s1.2-2.8,2.7-2.8c1.1,0,1.9,0.5,2.3,1.4l1.6-1
			c-0.7-1.4-2.2-2.3-3.9-2.3c-2.7,0-4.7,2-4.7,4.7c0,2.6,2,4.7,4.7,4.7c1.7,0,3.2-0.9,4-2.3l-1.6-0.9
			C940.2,962.1,939.3,962.6,938.3,962.6z M952.4,959.9c0,2.6-2.1,4.7-4.7,4.7c-2.6,0-4.7-2-4.7-4.7c0-2.6,2.1-4.7,4.7-4.7
			C950.3,955.2,952.4,957.2,952.4,959.9z M950.5,959.9c0-1.6-1.2-2.8-2.8-2.8s-2.8,1.2-2.8,2.8s1.2,2.8,2.8,2.8
			S950.5,961.5,950.5,959.9z"/>
	</g>
</g>
<ellipse id="XMLID_75_" class="st3" cx="500" cy="685.5" rx="182.6" ry="22.8"/>
<g id="XMLID_3_">
	<path id="XMLID_20_" class="st4" d="M459.5,669.4V662c0-3.3-2.7-6-6-6h-66c-3.3,0-6,2.7-6,6v22c0,3.3,2.7,6,6,6h43.9
		c4.8,0,9.4-1.9,12.8-5.3L459.5,669.4z"/>
	<path id="XMLID_50_" class="st5" d="M453.5,656h-66c-3.3,0-6,2.7-6,6v20.4h65l13-13V662C459.5,658.7,456.8,656,453.5,656z"/>
	<path id="XMLID_18_" class="st4" d="M540.5,669.4V662c0-3.3,2.7-6,6-6h66c3.3,0,6,2.7,6,6v22c0,3.3-2.7,6-6,6h-43.9
		c-4.8,0-9.4-1.9-12.8-5.3L540.5,669.4z"/>
	<path id="XMLID_51_" class="st5" d="M612.5,656h-66c-3.3,0-6,2.7-6,6v7.4l13,13h65V662C618.5,658.7,615.8,656,612.5,656z"/>
	<path id="XMLID_27_" class="st6" d="M459.5,669.4V662c0-3.3-2.7-6-6-6h-66c-3.3,0-6,2.7-6,6v22c0,3.3,2.7,6,6,6h43.9
		c4.8,0,9.4-1.9,12.8-5.3L459.5,669.4z"/>
	<path id="XMLID_26_" class="st6" d="M540.5,669.4V662c0-3.3,2.7-6,6-6h66c3.3,0,6,2.7,6,6v22c0,3.3-2.7,6-6,6h-43.9
		c-4.8,0-9.4-1.9-12.8-5.3L540.5,669.4z"/>
	<path id="XMLID_2_" class="st7" d="M630,669.5H370c-22.1,0-40-17.9-40-40v-260c0-22.1,17.9-40,40-40h260c22.1,0,40,17.9,40,40v260
		C670,651.6,652.1,669.5,630,669.5z"/>
	<path id="XMLID_38_" class="st8" d="M630,329.5H370c-22.1,0-40,17.9-40,40v23c0-22.1,17.9-40,40-40h260c22.1,0,40,17.9,40,40v-23
		C670,347.4,652.1,329.5,630,329.5z"/>
	<polygon id="XMLID_58_" class="st9" points="568.7,329.1 594.3,329.1 577,365.5 	"/>
	<path id="XMLID_45_" class="st4" d="M630,646.5H370c-22.1,0-40-17.9-40-40v23c0,22.1,17.9,40,40,40h260c22.1,0,40-17.9,40-40v-23
		C670,628.6,652.1,646.5,630,646.5z"/>
	<path id="XMLID_19_" class="st6" d="M630,669.5H370c-22.1,0-40-17.9-40-40v-260c0-22.1,17.9-40,40-40h260c22.1,0,40,17.9,40,40v260
		C670,651.6,652.1,669.5,630,669.5z"/>
	<path id="XMLID_82_" class="st8" d="M618,365.5H382c-8.8,0-16,7.2-16,16v8c0-8.8,7.2-13,16-13h236c8.8,0,16,4.2,16,13v-8
		C634,372.6,626.8,365.5,618,365.5z"/>
	<path id="XMLID_83_" class="st4" d="M618,620.5H382c-8.8,0-16-7.2-16-16v13c0,8.8,7.2,16,16,16h236c8.8,0,16-7.2,16-16v-13
		C634,613.3,626.8,620.5,618,620.5z"/>
	<path id="XMLID_7_" class="st6" d="M382,633.5c-8.8,0-16-7.2-16-16v-236c0-8.8,7.2-16,16-16h236c8.8,0,16,7.2,16,16v236
		c0,8.8-7.2,16-16,16H382z"/>
	<path id="XMLID_48_" class="st9" d="M605.3,594.6h-2c-2.2,0-4-1.8-4-4v-152c0-2.2,1.8-4,4-4h2c2.2,0,4,1.8,4,4v152
		C609.3,592.8,607.5,594.6,605.3,594.6z"/>
	<path id="XMLID_13_" class="st4" d="M605.3,574.6h-2c-2.2,0-4-1.8-4-4v-152c0-2.2,1.8-4,4-4h2c2.2,0,4,1.8,4,4v152
		C609.3,572.8,607.5,574.6,605.3,574.6z"/>
	<path id="XMLID_14_" class="st6" d="M605.3,574.6h-2c-2.2,0-4-1.8-4-4v-152c0-2.2,1.8-4,4-4h2c2.2,0,4,1.8,4,4v152
		C609.3,572.8,607.5,574.6,605.3,574.6z"/>
	<circle id="XMLID_39_" class="st9" cx="500" cy="507.5" r="65"/>
	<circle id="XMLID_32_" class="st7" cx="500" cy="499.5" r="65"/>
	<circle id="XMLID_5_" class="st6" cx="500" cy="499.5" r="65"/>
	<circle id="XMLID_34_" class="st4" cx="500" cy="499.5" r="54"/>
	<line id="XMLID_10_" class="st10" x1="500" y1="458.5" x2="500" y2="540.5"/>
	<line id="XMLID_8_" class="st10" x1="541" y1="499.5" x2="459" y2="499.5"/>
	<line id="XMLID_12_" class="st10" x1="529" y1="470.5" x2="471" y2="528.5"/>
	<line id="XMLID_11_" class="st10" x1="529" y1="528.5" x2="471" y2="470.5"/>
	<path id="XMLID_37_" class="st5" d="M500,547.2L500,547.2c-13.8,0-25-11.2-25-25v-25h50v25C525,536,513.8,547.2,500,547.2z"/>
	<path id="XMLID_46_" class="st9" d="M366,462L366,462c-4.4,0-8-3.6-8-8v-24c0-4.4,3.6-8,8-8l0,0c4.4,0,8,3.6,8,8v24
		C374,458.4,370.4,462,366,462z"/>
	<path id="XMLID_52_" class="st9" d="M366,592.5L366,592.5c-4.4,0-8-3.6-8-8v-24c0-4.4,3.6-8,8-8l0,0c4.4,0,8,3.6,8,8v24
		C374,588.9,370.4,592.5,366,592.5z"/>
	<path id="XMLID_36_" class="st4" d="M366,454L366,454c-4.4,0-8-3.6-8-8v-24c0-4.4,3.6-8,8-8l0,0c4.4,0,8,3.6,8,8v24
		C374,450.4,370.4,454,366,454z"/>
	<path id="XMLID_33_" class="st4" d="M366,585L366,585c-4.4,0-8-3.6-8-8v-24c0-4.4,3.6-8,8-8l0,0c4.4,0,8,3.6,8,8v24
		C374,581.4,370.4,585,366,585z"/>
	<path id="XMLID_15_" class="st6" d="M366,454L366,454c-4.4,0-8-3.6-8-8v-24c0-4.4,3.6-8,8-8l0,0c4.4,0,8,3.6,8,8v24
		C374,450.4,370.4,454,366,454z"/>
	<path id="XMLID_17_" class="st6" d="M366,585L366,585c-4.4,0-8-3.6-8-8v-24c0-4.4,3.6-8,8-8l0,0c4.4,0,8,3.6,8,8v24
		C374,581.4,370.4,585,366,585z"/>
	<circle id="XMLID_29_" class="st11" cx="500" cy="499.5" r="25"/>
	<circle id="XMLID_72_" class="st12" cx="500" cy="499.5" r="11.2"/>
	<circle id="XMLID_9_" class="st13" cx="500" cy="499.5" r="23"/>
	<path id="XMLID_54_" class="st14" d="M579,365.5h-68.5v-52.2c0-4,3.2-7.2,7.2-7.2h54c4,0,7.2,3.2,7.2,7.2L579,365.5L579,365.5z"/>
	<path id="XMLID_67_" class="st15" d="M565.5,318.5h-14.6c0,3.4-2.7,6.1-6.1,6.1s-6.1-2.7-6.1-6.1H524c-1.7,0-3.2,1.4-3.2,3.2v43.8
		h47.8v-43.8C568.7,319.9,567.2,318.5,565.5,318.5z"/>
	<ellipse id="XMLID_56_" class="st16" cx="544.8" cy="354.8" rx="15" ry="14.3"/>
	<path id="XMLID_53_" class="st6" d="M579,365.5h-68.5v-52.2c0-4,3.2-7.2,7.2-7.2h54c4,0,7.2,3.2,7.2,7.2L579,365.5L579,365.5z"/>
</g>
<g id="XMLID_6_">
	<line id="XMLID_22_" class="st6" x1="698" y1="347.3" x2="677.8" y2="344.5"/>
	<line id="XMLID_21_" class="st6" x1="649.9" y1="315.6" x2="646.9" y2="295.4"/>
	<line id="XMLID_16_" class="st6" x1="669.9" y1="322.9" x2="684.4" y2="308.4"/>
</g>
</svg>
