<?xml version="1.0" encoding="utf-8"?>
<!-- Generator: Adobe Illustrator 23.1.1, SVG Export Plug-In . SVG Version: 6.00 Build 0)  -->
<svg version="1.1" id="Layer_1" xmlns="http://www.w3.org/2000/svg" xmlns:xlink="http://www.w3.org/1999/xlink" x="0px" y="0px"
	 viewBox="0 0 1000 1000" style="enable-background:new 0 0 1000 1000;" xml:space="preserve">
<style type="text/css">
	.st0{fill:#56565B;}
	.st1{fill:#EEF2F4;}
	.st2{fill:#FFC299;}
	.st3{fill:#FFFFFF;}
	.st4{opacity:0.34;fill:#333333;}
	.st5{fill:none;stroke:#170E10;stroke-width:10;stroke-linecap:round;stroke-linejoin:round;stroke-miterlimit:10;}
	.st6{fill:none;stroke:#260005;stroke-width:6;stroke-linejoin:round;stroke-miterlimit:10;}
	.st7{fill:#9DD7CE;}
	.st8{opacity:0.69;fill:#333333;}
	.st9{fill:#C0BFBF;}
	.st10{fill:none;stroke:#170E10;stroke-width:6;stroke-linejoin:round;stroke-miterlimit:10;}
	.st11{fill:#BD2B3E;}
	.st12{fill:none;stroke:#170E10;stroke-width:10;stroke-linejoin:round;stroke-miterlimit:10;}
	.st13{opacity:0.53;fill:#333333;}
	.st14{fill:none;stroke:#260005;stroke-width:4;stroke-linejoin:round;stroke-miterlimit:10;}
	.st15{opacity:0.36;fill:none;stroke:#FF99AA;stroke-width:4;stroke-linejoin:round;stroke-miterlimit:10;}
	.st16{fill:none;stroke:#170E10;stroke-width:8;stroke-linecap:round;stroke-linejoin:round;stroke-miterlimit:10;}
	.st17{fill:#FF6550;}
	.st18{fill:#E97E1C;}
	.st19{fill:#D44644;}
	.st20{opacity:0.55;fill:#FFFFFF;}
</style>
<rect id="XMLID_81_" class="st0" width="1000" height="1000"/>
<g>
	<g>
		<g>
			<path class="st1" d="M63.2,959.2c0,2.5-1.2,3.7-2.6,3.7c-1.1,0-1.9-0.5-2.1-1.4c-0.4,0.5-1,0.8-1.8,0.8c-1.5,0-2.6-1.2-2.6-2.8
				c0-1.6,1.1-2.8,2.6-2.8c0.7,0,1.2,0.3,1.6,0.7v-0.5h1.6v3.9c0,0.8,0.3,1.4,1,1.4c0.9,0,1.7-0.9,1.7-3c0-3-2.3-5.3-5.4-5.3
				c-3.1,0-5.6,2.4-5.6,5.7c0,3.3,2.5,5.7,5.9,5.7c1.1,0,2.1-0.2,2.9-0.4v0.6c-0.8,0.3-1.7,0.4-2.9,0.4c-3.7,0-6.5-2.6-6.5-6.2
				c0-3.4,2.7-6.2,6.2-6.2C61.1,953.3,63.2,956.4,63.2,959.2z M58.3,959.5c0-0.8-0.6-1.4-1.3-1.4c-0.8,0-1.3,0.5-1.3,1.4
				c0,0.8,0.6,1.3,1.3,1.3C57.8,960.9,58.3,960.3,58.3,959.5z"/>
		</g>
		<g>
			<path class="st1" d="M69.4,955.1v2c-1.2-0.1-2.6,0.5-2.6,2.4v4.3h-1.9v-8.6h1.9v1.4C67.3,955.5,68.3,955.1,69.4,955.1z"/>
		</g>
		<g>
			<path class="st1" d="M74.6,962.3c1,0,1.8-0.5,2.2-1.1l1.5,0.9c-0.8,1.2-2.1,1.9-3.8,1.9c-2.8,0-4.7-1.9-4.7-4.5
				c0-2.5,1.8-4.5,4.5-4.5c2.6,0,4.3,2.1,4.3,4.5c0,0.3,0,0.5-0.1,0.8h-6.8C72.1,961.6,73.2,962.3,74.6,962.3z M76.9,958.8
				c-0.3-1.5-1.3-2.1-2.5-2.1c-1.4,0-2.3,0.8-2.6,2.1H76.9z"/>
		</g>
		<g>
			<path class="st1" d="M88.9,955.2v8.6h-1.9v-1.2c-0.7,0.9-1.7,1.5-3,1.5c-2.3,0-4.3-2-4.3-4.5c0-2.6,1.9-4.5,4.3-4.5
				c1.3,0,2.3,0.5,3,1.4v-1.2H88.9z M87.1,959.5c0-1.6-1.2-2.7-2.7-2.7c-1.5,0-2.7,1.1-2.7,2.7c0,1.6,1.2,2.7,2.7,2.7
				C85.9,962.3,87.1,961.1,87.1,959.5z"/>
		</g>
		<g>
			<path class="st1" d="M91.1,951.3H93v12.5h-1.9V951.3z"/>
		</g>
		<g>
			<path class="st1" d="M102.9,955.2l-3.3,8.6h-2.1l-3.3-8.6h2l2.4,6.5l2.4-6.5H102.9z"/>
		</g>
		<g>
			<path class="st1" d="M104.2,955.2h1.9v8.9c0,2.4-1.2,3.5-3.5,3.3v-1.8c1.1,0.1,1.7-0.3,1.7-1.5V955.2z M104,952.8
				c0-0.7,0.5-1.2,1.2-1.2c0.7,0,1.2,0.5,1.2,1.2c0,0.6-0.5,1.2-1.2,1.2C104.5,954,104,953.4,104,952.8z"/>
		</g>
		<g>
			<path class="st1" d="M116,955.2l-3.3,8.8c-0.8,2.2-2.2,3.3-4.2,3.2v-1.7c1.2,0.1,1.9-0.5,2.3-1.7l0.1-0.2l-3.6-8.4h2l2.6,6.2
				l2.2-6.2H116z"/>
		</g>
	</g>
	<g>
		<path class="st1" d="M211.9,938.7c0,2.1-1.5,3.8-3.6,3.8h-3v-7.6h3C210.4,934.9,211.9,936.6,211.9,938.7z M210.9,938.7
			c0-1.6-1.1-2.9-2.6-2.9h-2v5.7h2C209.8,941.6,210.9,940.3,210.9,938.7z"/>
		<path class="st1" d="M219.5,940.8h-3.4l-0.6,1.7h-1.1l2.8-7.6h1.1l2.8,7.6h-1.1L219.5,940.8z M219.2,939.9l-1.4-3.8l-1.4,3.8
			H219.2z"/>
		<path class="st1" d="M226.4,939.4v3.1h-1v-3.1l-2.7-4.5h1.1l2.1,3.6l2.1-3.6h1.1L226.4,939.4z"/>
		<path class="st1" d="M242,940.3c0,1.5-1.2,2.4-2.6,2.4c-1.1,0-2.1-0.5-2.5-1.6l0.9-0.5c0.2,0.8,0.8,1.1,1.7,1.1
			c0.9,0,1.6-0.5,1.6-1.4c0-0.9-0.7-1.4-1.6-1.4h-2.2l0.3-4h4.2v0.9h-3.3l-0.1,2h1.1C240.8,937.9,242,938.7,242,940.3z"/>
		<path class="st1" d="M250.8,941.1h-0.9v1.4h-1v-1.4H245v-0.9l2.7-5.2h1.1l-2.7,5.2h2.8V938h1v2.2h0.9V941.1z"/>
	</g>
	<g>
		<path class="st1" d="M58.9,938.7c0,2.1-1.5,3.8-3.6,3.8h-3v-7.6h3C57.4,934.9,58.9,936.6,58.9,938.7z M57.9,938.7
			c0-1.6-1.1-2.9-2.6-2.9h-2v5.7h2C56.8,941.6,57.9,940.3,57.9,938.7z"/>
		<path class="st1" d="M67,941.6v1h-4.6v-7.6h4.5v1h-3.5v2.3h3.2v0.9h-3.2v2.4H67z"/>
		<path class="st1" d="M70,940.8l0.9-0.5c0.3,0.8,0.9,1.4,2,1.4c1.1,0,1.6-0.5,1.6-1.2c0-0.8-0.7-1-1.8-1.4
			c-1.2-0.4-2.4-0.8-2.4-2.2c0-1.4,1.1-2.2,2.4-2.2c1.3,0,2.2,0.7,2.6,1.7l-0.8,0.5c-0.3-0.7-0.8-1.2-1.7-1.2
			c-0.8,0-1.4,0.4-1.4,1.1c0,0.7,0.5,1,1.6,1.3c1.3,0.4,2.6,0.8,2.6,2.3c0,1.3-1.1,2.2-2.6,2.2C71.5,942.7,70.4,941.9,70,940.8z"/>
		<path class="st1" d="M80,934.9v7.6h-1v-7.6H80z"/>
		<path class="st1" d="M91.3,939.2c0,1.9-1.4,3.5-3.7,3.5c-2.4,0-4-1.8-4-4c0-2.2,1.7-4,4-4c1.4,0,2.7,0.8,3.3,1.8l-0.9,0.5
			c-0.4-0.8-1.4-1.4-2.4-1.4c-1.8,0-3,1.3-3,3c0,1.7,1.2,3,3,3c1.6,0,2.5-0.9,2.7-2h-2.8v-0.9h3.8V939.2z"/>
		<path class="st1" d="M100.6,934.9v7.6h-0.8l-3.9-5.7v5.7h-1v-7.6h0.8l3.9,5.7v-5.7H100.6z"/>
		<path class="st1" d="M109.1,941.6v1h-4.6v-7.6h4.5v1h-3.5v2.3h3.2v0.9h-3.2v2.4H109.1z"/>
		<path class="st1" d="M119.2,938.7c0,2.1-1.5,3.8-3.6,3.8h-3v-7.6h3C117.6,934.9,119.2,936.6,119.2,938.7z M118.2,938.7
			c0-1.6-1.1-2.9-2.6-2.9h-2v5.7h2C117.1,941.6,118.2,940.3,118.2,938.7z"/>
		<path class="st1" d="M133.2,940.4c0,1.2-1,2.2-2.2,2.2h-3.3v-7.6h3c1.2,0,2.1,0.9,2.1,2.1c0,0.7-0.3,1.2-0.8,1.6
			C132.7,938.9,133.2,939.5,133.2,940.4z M128.7,935.8v2.3h2c0.6,0,1.1-0.5,1.1-1.2c0-0.6-0.5-1.2-1.1-1.2H128.7z M132.2,940.3
			c0-0.7-0.5-1.2-1.2-1.2h-2.3v2.5h2.3C131.7,941.6,132.2,941,132.2,940.3z"/>
		<path class="st1" d="M139.4,939.4v3.1h-1v-3.1l-2.7-4.5h1.1l2.1,3.6l2.1-3.6h1.1L139.4,939.4z"/>
	</g>
	<g>
		<path class="st1" d="M214.5,960.8c0,2.1-1.7,3.5-3.7,3.5h-5.3v-12.4h4.9c2,0,3.6,1.5,3.6,3.4c0,1.1-0.5,2-1.3,2.5
			C213.8,958.4,214.5,959.4,214.5,960.8z M207.5,953.8v3.3h2.9c0.9,0,1.6-0.7,1.6-1.6c0-0.9-0.7-1.6-1.6-1.6H207.5z M212.4,960.6
			c0-1-0.7-1.7-1.7-1.7h-3.3v3.5h3.3C211.7,962.4,212.4,961.6,212.4,960.6z"/>
		<path class="st1" d="M224.2,955.4v8.9h-1.9v-1.1c-0.6,0.9-1.5,1.4-2.7,1.4c-2,0-3.4-1.3-3.4-3.6v-5.4h1.9v5.2c0,1.3,0.8,2.1,2,2.1
			c1.3,0,2.2-0.7,2.2-2.5v-4.7H224.2z"/>
		<path class="st1" d="M226.2,952.9c0-0.7,0.5-1.2,1.2-1.2c0.7,0,1.2,0.5,1.2,1.2c0,0.7-0.5,1.2-1.2,1.2
			C226.7,954.1,226.2,953.6,226.2,952.9z M226.4,955.4h1.9v8.9h-1.9V955.4z"/>
		<path class="st1" d="M230.5,951.4h1.9v12.9h-1.9V951.4z"/>
		<path class="st1" d="M243.6,951.9v12.4h-1.9V963c-0.7,0.9-1.7,1.5-3.1,1.5c-2.4,0-4.4-2-4.4-4.7c0-2.6,2-4.7,4.4-4.7
			c1.4,0,2.4,0.6,3.1,1.5v-4.8H243.6z M241.7,959.9c0-1.6-1.2-2.8-2.8-2.8c-1.6,0-2.8,1.2-2.8,2.8c0,1.6,1.2,2.8,2.8,2.8
			C240.5,962.7,241.7,961.5,241.7,959.9z"/>
		<path class="st1" d="M245.6,952.9c0-0.7,0.5-1.2,1.2-1.2c0.7,0,1.2,0.5,1.2,1.2c0,0.7-0.5,1.2-1.2,1.2
			C246.1,954.1,245.6,953.6,245.6,952.9z M245.8,955.4h1.9v8.9h-1.9V955.4z"/>
		<path class="st1" d="M258,958.9v5.4h-1.9v-5.2c0-1.3-0.8-2.1-2-2.1c-1.3,0-2.2,0.7-2.2,2.5v4.7H250v-8.9h1.9v1.1
			c0.6-0.9,1.5-1.4,2.7-1.4C256.6,955.2,258,956.6,258,958.9z"/>
		<path class="st1" d="M269,955.4v8.4c0,2.8-2.2,4.2-4.5,4.2c-1.9,0-3.5-0.7-4.2-2.1l1.6-1c0.4,0.8,1,1.4,2.6,1.4
			c1.6,0,2.6-0.9,2.6-2.4v-1.1c-0.7,1-1.7,1.5-3.1,1.5c-2.5,0-4.5-2-4.5-4.6s2-4.6,4.5-4.6c1.4,0,2.4,0.6,3.1,1.5v-1.3H269z
			 M267.1,959.8c0-1.6-1.2-2.8-2.8-2.8c-1.6,0-2.8,1.2-2.8,2.8s1.2,2.8,2.8,2.8C265.9,962.6,267.1,961.4,267.1,959.8z"/>
	</g>
	<g>
		<g>
			<g>
				<path class="st1" d="M846.1,938.7c0,2.1-1.5,3.8-3.6,3.8h-3v-7.6h3C844.6,934.9,846.1,936.6,846.1,938.7z M845.2,938.7
					c0-1.6-1.1-2.9-2.6-2.9h-2v5.7h2C844.1,941.6,845.2,940.3,845.2,938.7z"/>
			</g>
			<g>
				<path class="st1" d="M849.3,938.7c0-2.2,1.7-4,3.9-4c2.2,0,4,1.8,4,4c0,2.2-1.7,4-4,4C851,942.7,849.3,940.9,849.3,938.7z
					 M856.1,938.7c0-1.7-1.3-3-2.9-3c-1.7,0-2.9,1.3-2.9,3c0,1.7,1.3,3,2.9,3C854.9,941.7,856.1,940.4,856.1,938.7z"/>
			</g>
			<g>
				<path class="st1" d="M859.8,934.9h1.1l1.7,6.3l1.9-6.3h1l1.9,6.3l1.7-6.3h1.1l-2.2,7.6h-1.2l-1.8-6.1l-1.8,6.1H862L859.8,934.9z
					"/>
			</g>
			<g>
				<path class="st1" d="M879.3,934.9v7.6h-0.8l-3.9-5.7v5.7h-1v-7.6h0.8l3.9,5.7v-5.7H879.3z"/>
			</g>
			<g>
				<path class="st1" d="M887.5,941.6v1h-4.3v-7.6h1v6.7H887.5z"/>
			</g>
			<g>
				<path class="st1" d="M889.9,938.7c0-2.2,1.7-4,3.9-4c2.2,0,4,1.8,4,4c0,2.2-1.7,4-4,4C891.6,942.7,889.9,940.9,889.9,938.7z
					 M896.8,938.7c0-1.7-1.3-3-2.9-3c-1.7,0-2.9,1.3-2.9,3c0,1.7,1.3,3,2.9,3C895.5,941.7,896.8,940.4,896.8,938.7z"/>
			</g>
			<g>
				<path class="st1" d="M905.4,940.8H902l-0.6,1.7h-1.1l2.8-7.6h1.1l2.8,7.6H906L905.4,940.8z M905.1,939.9l-1.4-3.8l-1.4,3.8
					H905.1z"/>
			</g>
			<g>
				<path class="st1" d="M916.9,938.7c0,2.1-1.5,3.8-3.6,3.8h-3v-7.6h3C915.4,934.9,916.9,936.6,916.9,938.7z M915.9,938.7
					c0-1.6-1.1-2.9-2.6-2.9h-2v5.7h2C914.9,941.6,915.9,940.3,915.9,938.7z"/>
			</g>
			<g>
				<path class="st1" d="M926.5,935.8v2.5h3.2v1h-3.2v3.2h-1v-7.6h4.4v1H926.5z"/>
			</g>
			<g>
				<path class="st1" d="M936.2,939.6h-1.8v2.9h-1v-7.6h3c1.3,0,2.4,1.1,2.4,2.4c0,1-0.7,1.9-1.6,2.2l1.8,3.1h-1.1L936.2,939.6z
					 M934.4,938.7h2c0.8,0,1.4-0.6,1.4-1.4c0-0.8-0.6-1.4-1.4-1.4h-2V938.7z"/>
			</g>
			<g>
				<path class="st1" d="M941.9,938.7c0-2.2,1.7-4,3.9-4c2.2,0,4,1.8,4,4c0,2.2-1.7,4-4,4C943.6,942.7,941.9,940.9,941.9,938.7z
					 M948.8,938.7c0-1.7-1.3-3-2.9-3c-1.7,0-2.9,1.3-2.9,3c0,1.7,1.3,3,2.9,3C947.5,941.7,948.8,940.4,948.8,938.7z"/>
			</g>
			<g>
				<path class="st1" d="M960.4,942.5h-1v-6l-2.5,4.2h-0.1l-2.5-4.1v5.9h-1v-7.6h1.1l2.4,4l2.4-4h1.1V942.5z"/>
			</g>
		</g>
		<g>
			<g>
				<path class="st1" d="M839.3,952.9c0-0.7,0.5-1.2,1.2-1.2c0.7,0,1.2,0.5,1.2,1.2c0,0.7-0.5,1.2-1.2,1.2
					C839.9,954.1,839.3,953.6,839.3,952.9z M839.6,955.4h1.9v8.9h-1.9V955.4z"/>
			</g>
			<g>
				<path class="st1" d="M843.7,951.4h1.9v12.9h-1.9V951.4z"/>
			</g>
			<g>
				<path class="st1" d="M847.8,951.4h1.9v12.9h-1.9V951.4z"/>
			</g>
			<g>
				<path class="st1" d="M852,951.4h1.9v12.9H852V951.4z"/>
			</g>
			<g>
				<path class="st1" d="M864,955.4v8.9h-1.9v-1.1c-0.6,0.9-1.5,1.4-2.7,1.4c-2,0-3.4-1.3-3.4-3.6v-5.4h1.9v5.2c0,1.3,0.8,2.1,2,2.1
					c1.3,0,2.2-0.7,2.2-2.5v-4.7H864z"/>
			</g>
			<g>
				<path class="st1" d="M872.6,961.8c0,1.8-1.5,2.7-3.5,2.7c-1.8,0-3-0.8-3.6-2.1l1.6-1c0.3,0.8,1,1.3,2,1.3c0.8,0,1.5-0.3,1.5-1
					c0-1.6-4.8-0.7-4.8-3.9c0-1.7,1.4-2.7,3.2-2.7c1.5,0,2.7,0.7,3.3,1.8l-1.6,0.9c-0.3-0.7-0.9-1-1.7-1c-0.7,0-1.3,0.3-1.3,0.9
					C867.9,959.5,872.6,958.5,872.6,961.8z"/>
			</g>
			<g>
				<path class="st1" d="M876.7,957.3v4.2c0,1.1,0.7,1.1,2.2,1v1.7c-2.9,0.4-4.1-0.5-4.1-2.8v-4.2h-1.6v-1.8h1.6v-1.9l1.9-0.6v2.5
					h2.2v1.8H876.7z"/>
			</g>
			<g>
				<path class="st1" d="M885.4,955.3v2.1c-1.3-0.1-2.7,0.5-2.7,2.5v4.5h-1.9v-8.9h1.9v1.5C883.2,955.7,884.2,955.3,885.4,955.3z"/>
			</g>
			<g>
				<path class="st1" d="M895.3,955.4v8.9h-1.9V963c-0.7,0.9-1.7,1.5-3.1,1.5c-2.4,0-4.4-2-4.4-4.7c0-2.6,2-4.7,4.4-4.7
					c1.4,0,2.4,0.6,3.1,1.5v-1.3H895.3z M893.4,959.9c0-1.6-1.2-2.8-2.8-2.8c-1.6,0-2.8,1.2-2.8,2.8c0,1.6,1.2,2.8,2.8,2.8
					C892.2,962.7,893.4,961.5,893.4,959.9z"/>
			</g>
			<g>
				<path class="st1" d="M900.3,957.3v4.2c0,1.1,0.7,1.1,2.2,1v1.7c-2.9,0.4-4.1-0.5-4.1-2.8v-4.2h-1.6v-1.8h1.6v-1.9l1.9-0.6v2.5
					h2.2v1.8H900.3z"/>
			</g>
			<g>
				<path class="st1" d="M903.9,952.9c0-0.7,0.5-1.2,1.2-1.2c0.7,0,1.2,0.5,1.2,1.2c0,0.7-0.5,1.2-1.2,1.2
					C904.5,954.1,903.9,953.6,903.9,952.9z M904.2,955.4h1.9v8.9h-1.9V955.4z"/>
			</g>
			<g>
				<path class="st1" d="M907.8,959.9c0-2.6,2.1-4.7,4.7-4.7c2.6,0,4.7,2,4.7,4.7c0,2.6-2.1,4.7-4.7,4.7
					C909.9,964.5,907.8,962.5,907.8,959.9z M915.3,959.9c0-1.6-1.2-2.8-2.8-2.8c-1.6,0-2.8,1.2-2.8,2.8c0,1.6,1.2,2.8,2.8,2.8
					C914.1,962.7,915.3,961.5,915.3,959.9z"/>
			</g>
			<g>
				<path class="st1" d="M927,958.9v5.4h-1.9v-5.2c0-1.3-0.8-2.1-2-2.1c-1.3,0-2.2,0.7-2.2,2.5v4.7h-1.9v-8.9h1.9v1.1
					c0.6-0.9,1.5-1.4,2.7-1.4C925.5,955.2,927,956.6,927,958.9z"/>
			</g>
			<g>
				<path class="st1" d="M935.5,961.8c0,1.8-1.5,2.7-3.5,2.7c-1.8,0-3-0.8-3.6-2.1l1.6-1c0.3,0.8,1,1.3,2,1.3c0.8,0,1.5-0.3,1.5-1
					c0-1.6-4.8-0.7-4.8-3.9c0-1.7,1.4-2.7,3.2-2.7c1.5,0,2.7,0.7,3.3,1.8l-1.6,0.9c-0.3-0.7-0.9-1-1.7-1c-0.7,0-1.3,0.3-1.3,0.9
					C930.7,959.5,935.5,958.5,935.5,961.8z"/>
			</g>
			<g>
				<path class="st1" d="M936.8,963.2c0-0.7,0.6-1.3,1.3-1.3c0.7,0,1.3,0.6,1.3,1.3c0,0.7-0.6,1.3-1.3,1.3
					C937.4,964.5,936.8,963.9,936.8,963.2z"/>
			</g>
			<g>
				<path class="st1" d="M940.3,959.9c0-2.6,2-4.7,4.7-4.7c1.7,0,3.2,0.9,3.9,2.3l-1.6,1c-0.4-0.8-1.3-1.4-2.3-1.4
					c-1.6,0-2.7,1.2-2.7,2.8c0,1.6,1.2,2.8,2.7,2.8c1.1,0,1.9-0.5,2.4-1.4l1.6,0.9c-0.7,1.4-2.2,2.3-4,2.3
					C942.3,964.5,940.3,962.5,940.3,959.9z"/>
			</g>
			<g>
				<path class="st1" d="M949.7,959.9c0-2.6,2.1-4.7,4.7-4.7c2.6,0,4.7,2,4.7,4.7c0,2.6-2.1,4.7-4.7,4.7
					C951.8,964.5,949.7,962.5,949.7,959.9z M957.2,959.9c0-1.6-1.2-2.8-2.8-2.8s-2.8,1.2-2.8,2.8c0,1.6,1.2,2.8,2.8,2.8
					S957.2,961.5,957.2,959.9z"/>
			</g>
		</g>
	</g>
</g>
<rect id="XMLID_78_" x="540.4" y="519.6" class="st2" width="102.9" height="206.4"/>
<rect id="XMLID_96_" x="540.4" y="519.6" class="st3" width="102.9" height="206.4"/>
<rect id="XMLID_2_" x="540.4" y="519.6" class="st4" width="13.6" height="206.4"/>
<rect id="XMLID_26_" x="540.4" y="519.6" class="st5" width="102.9" height="206.4"/>
<g id="XMLID_32_">
	<g id="XMLID_130_">
		<line id="XMLID_131_" class="st6" x1="557.2" y1="681" x2="629.1" y2="681"/>
	</g>
	<g id="XMLID_127_">
		<line id="XMLID_128_" class="st6" x1="557.2" y1="655" x2="629.1" y2="655"/>
	</g>
	<g id="XMLID_124_">
		<line id="XMLID_125_" class="st6" x1="557.2" y1="629" x2="629.1" y2="629"/>
	</g>
	<g id="XMLID_121_">
		<line id="XMLID_122_" class="st6" x1="557.2" y1="603" x2="629.1" y2="603"/>
	</g>
	<g id="XMLID_118_">
		<line id="XMLID_119_" class="st6" x1="557.2" y1="577" x2="629.1" y2="577"/>
	</g>
	<g id="XMLID_115_">
		<line id="XMLID_116_" class="st6" x1="557.2" y1="551" x2="629.1" y2="551"/>
	</g>
</g>
<rect id="XMLID_75_" x="394.6" y="438" class="st7" width="148" height="288"/>
<rect id="XMLID_86_" x="394.6" y="438" class="st8" width="13.4" height="288"/>
<path id="XMLID_69_" class="st9" d="M362.6,277.7h-48v-36c0-6.6,5.4-12,12-12h24c6.6,0,12,5.4,12,12V277.7z"/>
<path id="XMLID_99_" class="st8" d="M339.3,229.7h-12.8c-6.6,0-12,5.4-12,12v36h12.8v-36C327.3,235.1,332.7,229.7,339.3,229.7z"/>
<path id="XMLID_10_" class="st5" d="M362.6,277.7h-48v-36c0-6.6,5.4-12,12-12h24c6.6,0,12,5.4,12,12V277.7z"/>
<line id="XMLID_12_" class="st5" x1="339" y1="230" x2="339" y2="183"/>
<line id="XMLID_126_" class="st5" x1="922" y1="726" x2="945.6" y2="726"/>
<line id="XMLID_139_" class="st5" x1="702.5" y1="726" x2="904.9" y2="726"/>
<line id="XMLID_138_" class="st5" x1="669" y1="726" x2="678" y2="726"/>
<line id="XMLID_120_" class="st5" x1="175.5" y1="726" x2="654.5" y2="726"/>
<line id="XMLID_5_" class="st5" x1="151.7" y1="726" x2="160.1" y2="726"/>
<line id="XMLID_25_" class="st5" x1="65.3" y1="726" x2="135" y2="726"/>
<rect id="XMLID_54_" x="282.6" y="345.1" class="st9" width="112" height="380.9"/>
<rect id="XMLID_74_" x="282.6" y="345.1" class="st8" width="11.4" height="380.9"/>
<rect id="XMLID_1_" x="282.6" y="345.1" class="st5" width="112" height="380.9"/>
<g id="XMLID_6_">
	<g>
		<g>
			<line id="XMLID_258_" class="st10" x1="302" y1="643" x2="375" y2="643"/>
			<line id="XMLID_257_" class="st10" x1="302" y1="655" x2="375" y2="655"/>
		</g>
	</g>
	<g>
		<g>
			<line id="XMLID_252_" class="st10" x1="302" y1="609" x2="375" y2="609"/>
			<line id="XMLID_251_" class="st10" x1="302" y1="621" x2="375" y2="621"/>
		</g>
	</g>
	<g>
		<g>
			<line id="XMLID_246_" class="st10" x1="302" y1="575" x2="375" y2="575"/>
			<line id="XMLID_245_" class="st10" x1="302" y1="587" x2="375" y2="587"/>
		</g>
	</g>
	<g>
		<g>
			<line id="XMLID_240_" class="st10" x1="302" y1="541" x2="375" y2="541"/>
			<line id="XMLID_239_" class="st10" x1="302" y1="553" x2="375" y2="553"/>
		</g>
	</g>
	<g>
		<g>
			<line id="XMLID_234_" class="st10" x1="302" y1="507" x2="375" y2="507"/>
			<line id="XMLID_233_" class="st10" x1="302" y1="519" x2="375" y2="519"/>
		</g>
	</g>
	<g>
		<g>
			<line id="XMLID_228_" class="st10" x1="302" y1="473" x2="375" y2="473"/>
			<line id="XMLID_227_" class="st10" x1="302" y1="485" x2="375" y2="485"/>
		</g>
	</g>
	<g>
		<g>
			<line id="XMLID_222_" class="st10" x1="302" y1="439" x2="375" y2="439"/>
			<line id="XMLID_221_" class="st10" x1="302" y1="451" x2="375" y2="451"/>
		</g>
	</g>
	<g>
		<g>
			<line id="XMLID_216_" class="st10" x1="302" y1="405" x2="375" y2="405"/>
			<line id="XMLID_215_" class="st10" x1="302" y1="417" x2="375" y2="417"/>
		</g>
	</g>
	<g>
		<g>
			<line id="XMLID_210_" class="st10" x1="302" y1="371" x2="375" y2="371"/>
			<line id="XMLID_209_" class="st10" x1="302" y1="383" x2="375" y2="383"/>
		</g>
	</g>
</g>
<path id="XMLID_63_" class="st9" d="M375.6,345.1h-74v-43c0-20.4,16.6-37,37-37h0c20.4,0,37,16.6,37,37V345.1z"/>
<path id="XMLID_98_" class="st8" d="M345.1,265.7c-2.1-0.4-4.3-0.6-6.5-0.6h0c-20.4,0-37,16.6-37,37v43h13v-43
	C314.6,283.9,327.7,268.8,345.1,265.7z"/>
<path id="XMLID_9_" class="st5" d="M375.6,345.1h-74v-43c0-20.4,16.6-37,37-37h0c20.4,0,37,16.6,37,37V345.1z"/>
<rect id="XMLID_11_" x="394.6" y="438" class="st5" width="148" height="288"/>
<rect id="XMLID_92_" x="394.6" y="418" class="st11" width="152.7" height="20"/>
<rect id="XMLID_13_" x="394.6" y="418" class="st5" width="153.4" height="20"/>
<rect id="XMLID_82_" x="314.6" y="674.5" class="st3" width="48" height="51.5"/>
<rect id="XMLID_95_" x="314.6" y="676.5" class="st4" width="48" height="10.5"/>
<rect id="XMLID_106_" x="314.6" y="687" class="st4" width="11.1" height="39"/>
<rect id="XMLID_14_" x="314.6" y="674.5" class="st5" width="48" height="51.5"/>
<g id="XMLID_16_">
	<g id="XMLID_760_">
		<g id="XMLID_774_">
			<g id="XMLID_785_">
				<line id="XMLID_786_" class="st12" x1="518" y1="670" x2="518" y2="685"/>
			</g>
			<g id="XMLID_783_">
				<line id="XMLID_784_" class="st12" x1="498" y1="670" x2="498" y2="685"/>
			</g>
			<g id="XMLID_781_">
				<line id="XMLID_782_" class="st12" x1="478" y1="670" x2="478" y2="685"/>
			</g>
			<g id="XMLID_779_">
				<line id="XMLID_780_" class="st12" x1="458" y1="670" x2="458" y2="685"/>
			</g>
			<g id="XMLID_777_">
				<line id="XMLID_778_" class="st12" x1="438" y1="670" x2="438" y2="685"/>
			</g>
			<g id="XMLID_775_">
				<line id="XMLID_776_" class="st12" x1="418" y1="670" x2="418" y2="685"/>
			</g>
		</g>
	</g>
	<g id="XMLID_720_">
		<g id="XMLID_734_">
			<g id="XMLID_745_">
				<line id="XMLID_746_" class="st12" x1="518" y1="630" x2="518" y2="645"/>
			</g>
			<g id="XMLID_743_">
				<line id="XMLID_744_" class="st12" x1="498" y1="630" x2="498" y2="645"/>
			</g>
			<g id="XMLID_741_">
				<line id="XMLID_742_" class="st12" x1="478" y1="630" x2="478" y2="645"/>
			</g>
			<g id="XMLID_739_">
				<line id="XMLID_740_" class="st12" x1="458" y1="630" x2="458" y2="645"/>
			</g>
			<g id="XMLID_737_">
				<line id="XMLID_738_" class="st12" x1="438" y1="630" x2="438" y2="645"/>
			</g>
			<g id="XMLID_735_">
				<line id="XMLID_736_" class="st12" x1="418" y1="630" x2="418" y2="645"/>
			</g>
		</g>
	</g>
	<g id="XMLID_680_">
		<g id="XMLID_694_">
			<g id="XMLID_705_">
				<line id="XMLID_706_" class="st12" x1="518" y1="590" x2="518" y2="605"/>
			</g>
			<g id="XMLID_703_">
				<line id="XMLID_704_" class="st12" x1="498" y1="590" x2="498" y2="605"/>
			</g>
			<g id="XMLID_701_">
				<line id="XMLID_702_" class="st12" x1="478" y1="590" x2="478" y2="605"/>
			</g>
			<g id="XMLID_699_">
				<line id="XMLID_700_" class="st12" x1="458" y1="590" x2="458" y2="605"/>
			</g>
			<g id="XMLID_697_">
				<line id="XMLID_698_" class="st12" x1="438" y1="590" x2="438" y2="605"/>
			</g>
			<g id="XMLID_695_">
				<line id="XMLID_696_" class="st12" x1="418" y1="590" x2="418" y2="605"/>
			</g>
		</g>
	</g>
	<g id="XMLID_640_">
		<g id="XMLID_654_">
			<g id="XMLID_665_">
				<line id="XMLID_666_" class="st12" x1="518" y1="550" x2="518" y2="565"/>
			</g>
			<g id="XMLID_663_">
				<line id="XMLID_664_" class="st12" x1="498" y1="550" x2="498" y2="565"/>
			</g>
			<g id="XMLID_661_">
				<line id="XMLID_662_" class="st12" x1="478" y1="550" x2="478" y2="565"/>
			</g>
			<g id="XMLID_659_">
				<line id="XMLID_660_" class="st12" x1="458" y1="550" x2="458" y2="565"/>
			</g>
			<g id="XMLID_657_">
				<line id="XMLID_658_" class="st12" x1="438" y1="550" x2="438" y2="565"/>
			</g>
			<g id="XMLID_655_">
				<line id="XMLID_656_" class="st12" x1="418" y1="550" x2="418" y2="565"/>
			</g>
		</g>
	</g>
	<g id="XMLID_600_">
		<g id="XMLID_614_">
			<g id="XMLID_625_">
				<line id="XMLID_626_" class="st12" x1="518" y1="510" x2="518" y2="525"/>
			</g>
			<g id="XMLID_623_">
				<line id="XMLID_624_" class="st12" x1="498" y1="510" x2="498" y2="525"/>
			</g>
			<g id="XMLID_621_">
				<line id="XMLID_622_" class="st12" x1="478" y1="510" x2="478" y2="525"/>
			</g>
			<g id="XMLID_619_">
				<line id="XMLID_620_" class="st12" x1="458" y1="510" x2="458" y2="525"/>
			</g>
			<g id="XMLID_617_">
				<line id="XMLID_618_" class="st12" x1="438" y1="510" x2="438" y2="525"/>
			</g>
			<g id="XMLID_615_">
				<line id="XMLID_616_" class="st12" x1="418" y1="510" x2="418" y2="525"/>
			</g>
		</g>
	</g>
	<g id="XMLID_560_">
		<g id="XMLID_574_">
			<g id="XMLID_585_">
				<line id="XMLID_586_" class="st12" x1="518" y1="470" x2="518" y2="485"/>
			</g>
			<g id="XMLID_583_">
				<line id="XMLID_584_" class="st12" x1="498" y1="470" x2="498" y2="485"/>
			</g>
			<g id="XMLID_581_">
				<line id="XMLID_582_" class="st12" x1="478" y1="470" x2="478" y2="485"/>
			</g>
			<g id="XMLID_579_">
				<line id="XMLID_580_" class="st12" x1="458" y1="470" x2="458" y2="485"/>
			</g>
			<g id="XMLID_577_">
				<line id="XMLID_578_" class="st12" x1="438" y1="470" x2="438" y2="485"/>
			</g>
			<g id="XMLID_575_">
				<line id="XMLID_576_" class="st12" x1="418" y1="470" x2="418" y2="485"/>
			</g>
		</g>
	</g>
</g>
<rect id="XMLID_76_" x="437.5" y="668.3" class="st2" width="61.5" height="57.7"/>
<rect id="XMLID_123_" x="437.5" y="668.3" class="st8" width="61.5" height="13.4"/>
<rect id="XMLID_117_" x="437.5" y="681.8" class="st8" width="12" height="44.2"/>
<rect id="XMLID_15_" x="437.5" y="668.3" class="st5" width="61.5" height="57.7"/>
<rect id="XMLID_79_" x="220.9" y="438" class="st11" width="60.6" height="288"/>
<rect id="XMLID_58_" x="220.9" y="438" class="st13" width="10.1" height="288"/>
<rect id="XMLID_33_" x="220.9" y="438" class="st5" width="60.6" height="288"/>
<g id="XMLID_41_">
	<g id="XMLID_457_">
		<g id="XMLID_468_">
			<g id="XMLID_475_">
				<line id="XMLID_477_" class="st14" x1="238" y1="630" x2="238" y2="645"/>
				<line id="XMLID_476_" class="st15" x1="238" y1="650" x2="238" y2="656"/>
			</g>
			<g id="XMLID_472_">
				<line id="XMLID_474_" class="st14" x1="251" y1="630" x2="251" y2="645"/>
				<line id="XMLID_473_" class="st15" x1="251" y1="650" x2="251" y2="656"/>
			</g>
			<g id="XMLID_469_">
				<line id="XMLID_471_" class="st14" x1="264" y1="630" x2="264" y2="645"/>
				<line id="XMLID_470_" class="st15" x1="264" y1="650" x2="264" y2="656"/>
			</g>
		</g>
	</g>
	<g id="XMLID_426_">
		<g id="XMLID_437_">
			<g id="XMLID_444_">
				<line id="XMLID_446_" class="st14" x1="238" y1="586" x2="238" y2="601"/>
				<line id="XMLID_445_" class="st15" x1="238" y1="606" x2="238" y2="612"/>
			</g>
			<g id="XMLID_441_">
				<line id="XMLID_443_" class="st14" x1="251" y1="586" x2="251" y2="601"/>
				<line id="XMLID_442_" class="st15" x1="251" y1="606" x2="251" y2="612"/>
			</g>
			<g id="XMLID_438_">
				<line id="XMLID_440_" class="st14" x1="264" y1="586" x2="264" y2="601"/>
				<line id="XMLID_439_" class="st15" x1="264" y1="606" x2="264" y2="612"/>
			</g>
		</g>
	</g>
	<g id="XMLID_395_">
		<g id="XMLID_406_">
			<g id="XMLID_413_">
				<line id="XMLID_415_" class="st14" x1="238" y1="542" x2="238" y2="557"/>
				<line id="XMLID_414_" class="st15" x1="238" y1="562" x2="238" y2="568"/>
			</g>
			<g id="XMLID_410_">
				<line id="XMLID_412_" class="st14" x1="251" y1="542" x2="251" y2="557"/>
				<line id="XMLID_411_" class="st15" x1="251" y1="562" x2="251" y2="568"/>
			</g>
			<g id="XMLID_407_">
				<line id="XMLID_409_" class="st14" x1="264" y1="542" x2="264" y2="557"/>
				<line id="XMLID_408_" class="st15" x1="264" y1="562" x2="264" y2="568"/>
			</g>
		</g>
	</g>
	<g id="XMLID_364_">
		<g id="XMLID_375_">
			<g id="XMLID_382_">
				<line id="XMLID_384_" class="st14" x1="238" y1="498" x2="238" y2="513"/>
				<line id="XMLID_383_" class="st15" x1="238" y1="518" x2="238" y2="524"/>
			</g>
			<g id="XMLID_379_">
				<line id="XMLID_381_" class="st14" x1="251" y1="498" x2="251" y2="513"/>
				<line id="XMLID_380_" class="st15" x1="251" y1="518" x2="251" y2="524"/>
			</g>
			<g id="XMLID_376_">
				<line id="XMLID_378_" class="st14" x1="264" y1="498" x2="264" y2="513"/>
				<line id="XMLID_377_" class="st15" x1="264" y1="518" x2="264" y2="524"/>
			</g>
		</g>
	</g>
	<g id="XMLID_333_">
		<g id="XMLID_344_">
			<g id="XMLID_351_">
				<line id="XMLID_353_" class="st14" x1="238" y1="454" x2="238" y2="469"/>
				<line id="XMLID_352_" class="st15" x1="238" y1="474" x2="238" y2="480"/>
			</g>
			<g id="XMLID_348_">
				<line id="XMLID_350_" class="st14" x1="251" y1="454" x2="251" y2="469"/>
				<line id="XMLID_349_" class="st15" x1="251" y1="474" x2="251" y2="480"/>
			</g>
			<g id="XMLID_345_">
				<line id="XMLID_347_" class="st14" x1="264" y1="454" x2="264" y2="469"/>
				<line id="XMLID_346_" class="st15" x1="264" y1="474" x2="264" y2="480"/>
			</g>
		</g>
	</g>
</g>
<rect id="XMLID_84_" x="242" y="678" class="st3" width="20" height="48"/>
<rect id="XMLID_37_" x="242" y="678" class="st5" width="20" height="48"/>
<line id="XMLID_42_" class="st16" x1="525" y1="371" x2="525" y2="415.7"/>
<line id="XMLID_46_" class="st16" x1="515.3" y1="380.3" x2="535.3" y2="380.3"/>
<line id="XMLID_47_" class="st16" x1="508.8" y1="393.3" x2="542.6" y2="393.3"/>
<line id="XMLID_48_" class="st5" x1="813" y1="726" x2="813" y2="549"/>
<line id="XMLID_51_" class="st5" x1="775" y1="559.2" x2="775" y2="549"/>
<path id="XMLID_31_" class="st5" d="M775,549c0-10.5,8.5-19,19-19s19,8.5,19,19"/>
<polygon id="XMLID_49_" class="st5" points="792.5,577.3 757.5,577.3 775,557 "/>
<line id="XMLID_56_" class="st5" x1="197.5" y1="726" x2="197.5" y2="551"/>
<line id="XMLID_55_" class="st5" x1="159.5" y1="559.9" x2="159.5" y2="551"/>
<path id="XMLID_53_" class="st5" d="M159.5,551c0-10.5,8.5-19,19-19s19,8.5,19,19"/>
<polygon id="XMLID_143_" class="st3" points="177,579.3 142,579.3 159.5,559 "/>
<polygon id="XMLID_52_" class="st5" points="177,579.3 142,579.3 159.5,559 "/>
<ellipse id="XMLID_85_" class="st17" cx="106.3" cy="633.8" rx="41" ry="56.9"/>
<path id="XMLID_88_" class="st13" d="M76.6,633.8c0-28.3,14.9-51.7,34.4-56.1c-2.2-0.5-4.4-0.8-6.6-0.8c-22.6,0-41,25.5-41,56.9
	c0,31.4,18.4,56.9,41,56.9c2.3,0,4.5-0.3,6.6-0.8C91.4,685.5,76.6,662.1,76.6,633.8z"/>
<ellipse id="XMLID_70_" class="st5" cx="106.3" cy="633.8" rx="41" ry="56.9"/>
<line id="XMLID_68_" class="st5" x1="107.8" y1="667.2" x2="119.6" y2="655.5"/>
<line id="XMLID_67_" class="st5" x1="106.3" y1="649.4" x2="93.8" y2="637.6"/>
<ellipse id="XMLID_72_" class="st18" cx="559.5" cy="668" rx="25" ry="34.4"/>
<path id="XMLID_89_" class="st13" d="M544.5,668c0-16.6,8.6-30.5,20-33.7c-1.6-0.4-3.3-0.7-5-0.7c-13.8,0-25,15.4-25,34.4
	s11.2,34.4,25,34.4c1.7,0,3.4-0.2,5-0.7C553.1,698.5,544.5,684.6,544.5,668z"/>
<ellipse id="XMLID_77_" class="st5" cx="559.5" cy="668" rx="25" ry="34.4"/>
<path id="XMLID_73_" class="st19" d="M762.8,635.2c3.8,35.5-23.1,49.8-37.7,48.9c-14.7,0.9-41.5-13.4-37.7-48.9
	c6.8-34.4,21.7-61,37.7-60.9C741,574.2,756,600.8,762.8,635.2z"/>
<path id="XMLID_90_" class="st13" d="M734.7,682.1c-14.7,0.9-41.5-13.4-37.7-48.9c5.6-28.6,17-51.9,29.8-58.8
	c-0.6-0.1-1.1-0.1-1.7-0.1c-16-0.2-31,26.4-37.7,60.9c-3.8,35.5,23.1,49.8,37.7,48.9c3.5,0.2,7.6-0.4,11.8-2
	C736.1,682.2,735.4,682.2,734.7,682.1z"/>
<path id="XMLID_62_" class="st5" d="M762.8,635.2c3.8,35.5-23.1,49.8-37.7,48.9c-14.7,0.9-41.5-13.4-37.7-48.9
	c6.8-34.4,21.7-61,37.7-60.9C741,574.2,756,600.8,762.8,635.2z"/>
<line id="XMLID_65_" class="st5" x1="725.1" y1="660.3" x2="737.7" y2="647.7"/>
<line id="XMLID_66_" class="st5" x1="725.1" y1="638.5" x2="711.3" y2="624.7"/>
<line id="XMLID_134_" class="st5" x1="410.5" y1="773" x2="516" y2="773"/>
<line id="XMLID_133_" class="st5" x1="531.8" y1="773" x2="542.6" y2="773"/>
<line id="XMLID_137_" class="st5" x1="555.3" y1="773" x2="557.4" y2="773"/>
<line id="XMLID_83_" class="st5" x1="359.4" y1="773" x2="385.5" y2="773"/>
<polyline id="XMLID_80_" class="st5" points="559.5,678.5 559.5,684.2 559.5,688.7 559.5,724.4 "/>
<line id="XMLID_64_" class="st5" x1="725.1" y1="612.5" x2="725.1" y2="726"/>
<line id="XMLID_71_" class="st5" x1="107.8" y1="623" x2="107.8" y2="726"/>
<ellipse id="XMLID_87_" class="st18" cx="863.9" cy="630.6" rx="41" ry="56.9"/>
<path id="XMLID_91_" class="st13" d="M832.9,630.6c0-29,15.7-53,36-56.4c-1.6-0.3-3.3-0.4-5-0.4c-22.6,0-41,25.5-41,56.9
	c0,31.4,18.4,56.9,41,56.9c1.7,0,3.4-0.2,5-0.4C848.6,683.6,832.9,659.6,832.9,630.6z"/>
<ellipse id="XMLID_50_" class="st5" cx="863.9" cy="630.6" rx="41" ry="56.9"/>
<line id="XMLID_59_" class="st5" x1="865.5" y1="669" x2="877.2" y2="657.3"/>
<line id="XMLID_60_" class="st5" x1="863.9" y1="651.1" x2="851.4" y2="639.4"/>
<line id="XMLID_57_" class="st5" x1="865.5" y1="624.7" x2="865.5" y2="725.6"/>
<line id="XMLID_93_" class="st10" x1="327.3" y1="308.7" x2="327.3" y2="345.1"/>
<line id="XMLID_94_" class="st10" x1="349" y1="308.7" x2="349" y2="345.1"/>
<circle id="XMLID_100_" class="st20" cx="106" cy="601" r="3.5"/>
<circle id="XMLID_103_" class="st20" cx="127.6" cy="639" r="4.5"/>
<circle id="XMLID_104_" class="st13" cx="124.1" cy="615.2" r="4.5"/>
<circle id="XMLID_102_" class="st13" cx="93.8" cy="621" r="3.3"/>
<circle id="XMLID_101_" class="st20" cx="556.4" cy="651.9" r="2.4"/>
<circle id="XMLID_105_" class="st13" cx="570.9" cy="661.4" r="3.4"/>
<circle id="XMLID_109_" class="st20" cx="723.6" cy="603" r="2.4"/>
<circle id="XMLID_111_" class="st20" cx="743.3" cy="631" r="3.4"/>
<circle id="XMLID_108_" class="st13" cx="738.1" cy="612.5" r="3.4"/>
<circle id="XMLID_110_" class="st13" cx="711.3" cy="649.5" r="3.4"/>
<circle id="XMLID_113_" class="st20" cx="879.1" cy="614.6" r="4.7"/>
<circle id="XMLID_114_" class="st13" cx="877.1" cy="639.3" r="3.4"/>
<circle id="XMLID_112_" class="st13" cx="860.9" cy="603.8" r="3.4"/>
<path id="XMLID_4_" class="st18" d="M712.8,726c0-11.5,9.3-20.7,20.7-20.7s20.7,9.3,20.7,20.7H712.8z"/>
<path id="XMLID_135_" class="st13" d="M739.6,706.2c-1.9-0.6-4-0.9-6.2-0.9c-11.5,0-20.7,9.3-20.7,20.7h12.3
	C725.1,716.7,731.2,708.8,739.6,706.2z"/>
<path id="XMLID_3_" class="st5" d="M712.8,726c0-11.5,9.3-20.7,20.7-20.7s20.7,9.3,20.7,20.7H712.8z"/>
<path id="XMLID_132_" class="st19" d="M739,726c0-16.5,13.3-29.8,29.8-29.8s29.8,13.3,29.8,29.8H739z"/>
<path id="XMLID_136_" class="st13" d="M774.5,696.8c-1.9-0.4-3.8-0.6-5.8-0.6c-16.5,0-29.8,13.3-29.8,29.8h11.5
	C750.5,711.5,760.8,699.4,774.5,696.8z"/>
<path id="XMLID_129_" class="st5" d="M739,726c0-16.5,13.3-29.8,29.8-29.8s29.8,13.3,29.8,29.8H739z"/>
</svg>
