<?xml version="1.0" encoding="utf-8"?>
<!-- Generator: Adobe Illustrator 23.1.1, SVG Export Plug-In . SVG Version: 6.00 Build 0)  -->
<svg version="1.1" id="Layer_1" xmlns="http://www.w3.org/2000/svg" xmlns:xlink="http://www.w3.org/1999/xlink" x="0px" y="0px"
	 viewBox="0 0 1000 1000" style="enable-background:new 0 0 1000 1000;" xml:space="preserve">
<style type="text/css">
	.st0{fill:#CDEBE8;}
	.st1{fill:#313031;}
	.st2{fill:none;stroke:#8DC6BF;stroke-width:6;stroke-linecap:round;stroke-linejoin:round;stroke-miterlimit:10;}
	.st3{fill:#6DA580;}
	.st4{fill:none;stroke:#313031;stroke-width:10;stroke-linecap:round;stroke-linejoin:round;stroke-miterlimit:10;}
	.st5{fill:#0BC6D5;}
	.st6{opacity:0.74;fill:#0BC6D5;}
	.st7{fill:none;stroke:#313031;stroke-width:14;stroke-linecap:round;stroke-linejoin:round;stroke-miterlimit:10;}
	.st8{fill:#F0F4F7;}
	.st9{fill:#DBDBDB;}
	.st10{fill:none;stroke:#313031;stroke-width:4;stroke-linecap:round;stroke-linejoin:round;stroke-miterlimit:10;}
	.st11{fill:#FFC857;}
	.st12{opacity:0.6;fill:#FFC857;}
	.st13{fill:#7C4F49;}
	.st14{opacity:0.24;fill:none;stroke:#7C4F49;stroke-width:10;stroke-linecap:round;stroke-linejoin:round;stroke-miterlimit:10;}
	.st15{opacity:0.54;fill:#7C4F49;}
	.st16{opacity:0.24;fill:#7C4F49;}
	.st17{fill:#FFFFFF;}
	.st18{fill:#C6C6C6;}
	.st19{fill:none;stroke:#313031;stroke-width:6;stroke-linecap:round;stroke-linejoin:round;stroke-miterlimit:10;}
	.st20{fill:#D89E36;}
	.st21{opacity:0.69;fill:#FFFFFF;}
</style>
<rect id="XMLID_67_" class="st0" width="1000" height="1000"/>
<g>
	<g>
		<g>
			<path class="st1" d="M63.2,959.2c0,2.5-1.2,3.7-2.6,3.7c-1.1,0-1.9-0.5-2.1-1.4c-0.4,0.5-1,0.8-1.8,0.8c-1.5,0-2.6-1.2-2.6-2.8
				c0-1.6,1.1-2.8,2.6-2.8c0.7,0,1.2,0.3,1.6,0.7v-0.5h1.6v3.9c0,0.8,0.3,1.4,1,1.4c0.9,0,1.7-0.9,1.7-3c0-3-2.3-5.3-5.4-5.3
				c-3.1,0-5.6,2.4-5.6,5.7c0,3.3,2.5,5.7,5.9,5.7c1.1,0,2.1-0.2,2.9-0.4v0.6c-0.8,0.3-1.7,0.4-2.9,0.4c-3.7,0-6.5-2.6-6.5-6.2
				c0-3.4,2.7-6.2,6.2-6.2C61.1,953.3,63.2,956.4,63.2,959.2z M58.3,959.5c0-0.8-0.6-1.4-1.3-1.4c-0.8,0-1.3,0.5-1.3,1.4
				c0,0.8,0.6,1.3,1.3,1.3C57.8,960.9,58.3,960.3,58.3,959.5z"/>
		</g>
		<g>
			<path class="st1" d="M69.4,955.1v2c-1.2-0.1-2.6,0.5-2.6,2.4v4.3h-1.9v-8.6h1.9v1.4C67.3,955.5,68.3,955.1,69.4,955.1z"/>
		</g>
		<g>
			<path class="st1" d="M74.6,962.3c1,0,1.8-0.5,2.2-1.1l1.5,0.9c-0.8,1.2-2.1,1.9-3.8,1.9c-2.8,0-4.7-1.9-4.7-4.5
				c0-2.5,1.8-4.5,4.5-4.5c2.6,0,4.3,2.1,4.3,4.5c0,0.3,0,0.5-0.1,0.8h-6.8C72.1,961.6,73.2,962.3,74.6,962.3z M76.9,958.8
				c-0.3-1.5-1.3-2.1-2.5-2.1c-1.4,0-2.3,0.8-2.6,2.1H76.9z"/>
		</g>
		<g>
			<path class="st1" d="M88.9,955.2v8.6h-1.9v-1.2c-0.7,0.9-1.7,1.5-3,1.5c-2.3,0-4.3-2-4.3-4.5c0-2.6,1.9-4.5,4.3-4.5
				c1.3,0,2.3,0.5,3,1.4v-1.2H88.9z M87.1,959.5c0-1.6-1.2-2.7-2.7-2.7c-1.5,0-2.7,1.1-2.7,2.7c0,1.6,1.2,2.7,2.7,2.7
				C85.9,962.3,87.1,961.1,87.1,959.5z"/>
		</g>
		<g>
			<path class="st1" d="M91.1,951.3H93v12.5h-1.9V951.3z"/>
		</g>
		<g>
			<path class="st1" d="M102.9,955.2l-3.3,8.6h-2.1l-3.3-8.6h2l2.4,6.5l2.4-6.5H102.9z"/>
		</g>
		<g>
			<path class="st1" d="M104.2,955.2h1.9v8.9c0,2.4-1.2,3.5-3.5,3.3v-1.8c1.1,0.1,1.7-0.3,1.7-1.5V955.2z M104,952.8
				c0-0.7,0.5-1.2,1.2-1.2c0.7,0,1.2,0.5,1.2,1.2c0,0.6-0.5,1.2-1.2,1.2C104.5,954,104,953.4,104,952.8z"/>
		</g>
		<g>
			<path class="st1" d="M116,955.2l-3.3,8.8c-0.8,2.2-2.2,3.3-4.2,3.2v-1.7c1.2,0.1,1.9-0.5,2.3-1.7l0.1-0.2l-3.6-8.4h2l2.6,6.2
				l2.2-6.2H116z"/>
		</g>
	</g>
	<g>
		<path class="st1" d="M211.9,938.7c0,2.1-1.5,3.8-3.6,3.8h-3v-7.6h3C210.4,934.9,211.9,936.6,211.9,938.7z M210.9,938.7
			c0-1.6-1.1-2.9-2.6-2.9h-2v5.7h2C209.8,941.6,210.9,940.3,210.9,938.7z"/>
		<path class="st1" d="M219.5,940.8h-3.4l-0.6,1.7h-1.1l2.8-7.6h1.1l2.8,7.6h-1.1L219.5,940.8z M219.2,939.9l-1.4-3.8l-1.4,3.8
			H219.2z"/>
		<path class="st1" d="M226.4,939.4v3.1h-1v-3.1l-2.7-4.5h1.1l2.1,3.6l2.1-3.6h1.1L226.4,939.4z"/>
		<path class="st1" d="M242,940.3c0,1.5-1.2,2.4-2.6,2.4c-1.1,0-2.1-0.5-2.5-1.6l0.9-0.5c0.2,0.8,0.8,1.1,1.7,1.1
			c0.9,0,1.6-0.5,1.6-1.4c0-0.9-0.7-1.4-1.6-1.4h-2.2l0.3-4h4.2v0.9h-3.3l-0.1,2h1.1C240.8,937.9,242,938.7,242,940.3z"/>
		<path class="st1" d="M250.1,940.3c0,1.5-1.2,2.4-2.6,2.4c-1.1,0-2.1-0.5-2.5-1.6l0.9-0.5c0.2,0.8,0.8,1.1,1.7,1.1
			c0.9,0,1.6-0.5,1.6-1.4c0-0.9-0.7-1.4-1.6-1.4h-2.2l0.3-4h4.2v0.9h-3.3l-0.1,2h1.1C248.9,937.9,250.1,938.7,250.1,940.3z"/>
	</g>
	<g>
		<path class="st1" d="M58.9,938.7c0,2.1-1.5,3.8-3.6,3.8h-3v-7.6h3C57.4,934.9,58.9,936.6,58.9,938.7z M57.9,938.7
			c0-1.6-1.1-2.9-2.6-2.9h-2v5.7h2C56.8,941.6,57.9,940.3,57.9,938.7z"/>
		<path class="st1" d="M67,941.6v1h-4.6v-7.6h4.5v1h-3.5v2.3h3.2v0.9h-3.2v2.4H67z"/>
		<path class="st1" d="M70,940.8l0.9-0.5c0.3,0.8,0.9,1.4,2,1.4c1.1,0,1.6-0.5,1.6-1.2c0-0.8-0.7-1-1.8-1.4
			c-1.2-0.4-2.4-0.8-2.4-2.2c0-1.4,1.1-2.2,2.4-2.2c1.3,0,2.2,0.7,2.6,1.7l-0.8,0.5c-0.3-0.7-0.8-1.2-1.7-1.2
			c-0.8,0-1.4,0.4-1.4,1.1c0,0.7,0.5,1,1.6,1.3c1.3,0.4,2.6,0.8,2.6,2.3c0,1.3-1.1,2.2-2.6,2.2C71.5,942.7,70.4,941.9,70,940.8z"/>
		<path class="st1" d="M80,934.9v7.6h-1v-7.6H80z"/>
		<path class="st1" d="M91.3,939.2c0,1.9-1.4,3.5-3.7,3.5c-2.4,0-4-1.8-4-4c0-2.2,1.7-4,4-4c1.4,0,2.7,0.8,3.3,1.8l-0.9,0.5
			c-0.4-0.8-1.4-1.4-2.4-1.4c-1.8,0-3,1.3-3,3c0,1.7,1.2,3,3,3c1.6,0,2.5-0.9,2.7-2h-2.8v-0.9h3.8V939.2z"/>
		<path class="st1" d="M100.6,934.9v7.6h-0.8l-3.9-5.7v5.7h-1v-7.6h0.8l3.9,5.7v-5.7H100.6z"/>
		<path class="st1" d="M109.1,941.6v1h-4.6v-7.6h4.5v1h-3.5v2.3h3.2v0.9h-3.2v2.4H109.1z"/>
		<path class="st1" d="M119.2,938.7c0,2.1-1.5,3.8-3.6,3.8h-3v-7.6h3C117.6,934.9,119.2,936.6,119.2,938.7z M118.2,938.7
			c0-1.6-1.1-2.9-2.6-2.9h-2v5.7h2C117.1,941.6,118.2,940.3,118.2,938.7z"/>
		<path class="st1" d="M133.2,940.4c0,1.2-1,2.2-2.2,2.2h-3.3v-7.6h3c1.2,0,2.1,0.9,2.1,2.1c0,0.7-0.3,1.2-0.8,1.6
			C132.7,938.9,133.2,939.5,133.2,940.4z M128.7,935.8v2.3h2c0.6,0,1.1-0.5,1.1-1.2c0-0.6-0.5-1.2-1.1-1.2H128.7z M132.2,940.3
			c0-0.7-0.5-1.2-1.2-1.2h-2.3v2.5h2.3C131.7,941.6,132.2,941,132.2,940.3z"/>
		<path class="st1" d="M139.4,939.4v3.1h-1v-3.1l-2.7-4.5h1.1l2.1,3.6l2.1-3.6h1.1L139.4,939.4z"/>
	</g>
	<g>
		<path class="st1" d="M212.5,962.3v1.9h-7.1v-12.4h2v10.4H212.5z"/>
		<path class="st1" d="M213.7,952.9c0-0.7,0.5-1.2,1.2-1.2s1.2,0.5,1.2,1.2c0,0.7-0.5,1.2-1.2,1.2S213.7,953.6,213.7,952.9z
			 M213.9,955.4h1.9v8.9h-1.9V955.4z"/>
		<path class="st1" d="M226.1,955.4l-3.5,8.9h-2.2l-3.5-8.9h2.1l2.5,6.7l2.5-6.7H226.1z"/>
		<path class="st1" d="M227.1,952.9c0-0.7,0.5-1.2,1.2-1.2s1.2,0.5,1.2,1.2c0,0.7-0.5,1.2-1.2,1.2S227.1,953.6,227.1,952.9z
			 M227.3,955.4h1.9v8.9h-1.9V955.4z"/>
		<path class="st1" d="M239.5,958.9v5.4h-1.9v-5.2c0-1.3-0.8-2.1-2-2.1c-1.3,0-2.2,0.7-2.2,2.5v4.7h-1.9v-8.9h1.9v1.1
			c0.6-0.9,1.5-1.4,2.7-1.4C238.1,955.2,239.5,956.6,239.5,958.9z"/>
		<path class="st1" d="M250.5,955.4v8.4c0,2.8-2.2,4.2-4.5,4.2c-1.9,0-3.5-0.7-4.2-2.1l1.6-1c0.4,0.8,1,1.4,2.6,1.4
			c1.6,0,2.6-0.9,2.6-2.4v-1.1c-0.7,1-1.7,1.5-3.1,1.5c-2.5,0-4.5-2-4.5-4.6s2-4.6,4.5-4.6c1.4,0,2.4,0.6,3.1,1.5v-1.3H250.5z
			 M248.6,959.8c0-1.6-1.2-2.8-2.8-2.8s-2.8,1.2-2.8,2.8s1.2,2.8,2.8,2.8S248.6,961.4,248.6,959.8z"/>
		<path class="st1" d="M261.7,959.8h-2.4v4.5h-2v-12.4h5c2.2,0,4,1.8,4,4c0,1.6-1,3-2.5,3.6l2.8,4.8h-2.2L261.7,959.8z M259.3,958
			h2.9c1.1,0,1.9-0.9,1.9-2.1c0-1.2-0.9-2.1-1.9-2.1h-2.9V958z"/>
		<path class="st1" d="M267.1,959.9c0-2.6,2.1-4.7,4.7-4.7c2.6,0,4.7,2,4.7,4.7c0,2.6-2.1,4.7-4.7,4.7
			C269.1,964.5,267.1,962.5,267.1,959.9z M274.5,959.9c0-1.6-1.2-2.8-2.8-2.8s-2.8,1.2-2.8,2.8c0,1.6,1.2,2.8,2.8,2.8
			S274.5,961.5,274.5,959.9z"/>
		<path class="st1" d="M277.6,959.9c0-2.6,2.1-4.7,4.7-4.7c2.6,0,4.7,2,4.7,4.7c0,2.6-2.1,4.7-4.7,4.7
			C279.7,964.5,277.6,962.5,277.6,959.9z M285.1,959.9c0-1.6-1.2-2.8-2.8-2.8s-2.8,1.2-2.8,2.8c0,1.6,1.2,2.8,2.8,2.8
			S285.1,961.5,285.1,959.9z"/>
		<path class="st1" d="M301.7,958.8v5.5h-1.9v-5.4c0-1.2-0.7-1.9-1.7-1.9c-1.1,0-1.9,0.7-1.9,2.3v5h-1.9v-5.4c0-1.2-0.6-1.9-1.7-1.9
			c-1.1,0-2,0.7-2,2.3v5h-1.9v-8.9h1.9v1.1c0.6-0.9,1.4-1.3,2.5-1.3c1.2,0,2,0.5,2.5,1.4c0.6-0.9,1.5-1.4,2.7-1.4
			C300.4,955.2,301.7,956.6,301.7,958.8z"/>
	</g>
	<g>
		<g>
			<g>
				<path class="st1" d="M846.1,938.7c0,2.1-1.5,3.8-3.6,3.8h-3v-7.6h3C844.6,934.9,846.1,936.6,846.1,938.7z M845.2,938.7
					c0-1.6-1.1-2.9-2.6-2.9h-2v5.7h2C844.1,941.6,845.2,940.3,845.2,938.7z"/>
			</g>
			<g>
				<path class="st1" d="M849.3,938.7c0-2.2,1.7-4,3.9-4c2.2,0,4,1.8,4,4c0,2.2-1.7,4-4,4C851,942.7,849.3,940.9,849.3,938.7z
					 M856.1,938.7c0-1.7-1.3-3-2.9-3c-1.7,0-2.9,1.3-2.9,3c0,1.7,1.3,3,2.9,3C854.9,941.7,856.1,940.4,856.1,938.7z"/>
			</g>
			<g>
				<path class="st1" d="M859.8,934.9h1.1l1.7,6.3l1.9-6.3h1l1.9,6.3l1.7-6.3h1.1l-2.2,7.6h-1.2l-1.8-6.1l-1.8,6.1H862L859.8,934.9z
					"/>
			</g>
			<g>
				<path class="st1" d="M879.3,934.9v7.6h-0.8l-3.9-5.7v5.7h-1v-7.6h0.8l3.9,5.7v-5.7H879.3z"/>
			</g>
			<g>
				<path class="st1" d="M887.5,941.6v1h-4.3v-7.6h1v6.7H887.5z"/>
			</g>
			<g>
				<path class="st1" d="M889.9,938.7c0-2.2,1.7-4,3.9-4c2.2,0,4,1.8,4,4c0,2.2-1.7,4-4,4C891.6,942.7,889.9,940.9,889.9,938.7z
					 M896.8,938.7c0-1.7-1.3-3-2.9-3c-1.7,0-2.9,1.3-2.9,3c0,1.7,1.3,3,2.9,3C895.5,941.7,896.8,940.4,896.8,938.7z"/>
			</g>
			<g>
				<path class="st1" d="M905.4,940.8H902l-0.6,1.7h-1.1l2.8-7.6h1.1l2.8,7.6H906L905.4,940.8z M905.1,939.9l-1.4-3.8l-1.4,3.8
					H905.1z"/>
			</g>
			<g>
				<path class="st1" d="M916.9,938.7c0,2.1-1.5,3.8-3.6,3.8h-3v-7.6h3C915.4,934.9,916.9,936.6,916.9,938.7z M915.9,938.7
					c0-1.6-1.1-2.9-2.6-2.9h-2v5.7h2C914.9,941.6,915.9,940.3,915.9,938.7z"/>
			</g>
			<g>
				<path class="st1" d="M926.5,935.8v2.5h3.2v1h-3.2v3.2h-1v-7.6h4.4v1H926.5z"/>
			</g>
			<g>
				<path class="st1" d="M936.2,939.6h-1.8v2.9h-1v-7.6h3c1.3,0,2.4,1.1,2.4,2.4c0,1-0.7,1.9-1.6,2.2l1.8,3.1h-1.1L936.2,939.6z
					 M934.4,938.7h2c0.8,0,1.4-0.6,1.4-1.4c0-0.8-0.6-1.4-1.4-1.4h-2V938.7z"/>
			</g>
			<g>
				<path class="st1" d="M941.9,938.7c0-2.2,1.7-4,3.9-4c2.2,0,4,1.8,4,4c0,2.2-1.7,4-4,4C943.6,942.7,941.9,940.9,941.9,938.7z
					 M948.8,938.7c0-1.7-1.3-3-2.9-3c-1.7,0-2.9,1.3-2.9,3c0,1.7,1.3,3,2.9,3C947.5,941.7,948.8,940.4,948.8,938.7z"/>
			</g>
			<g>
				<path class="st1" d="M960.4,942.5h-1v-6l-2.5,4.2h-0.1l-2.5-4.1v5.9h-1v-7.6h1.1l2.4,4l2.4-4h1.1V942.5z"/>
			</g>
		</g>
		<g>
			<g>
				<path class="st1" d="M839.3,952.9c0-0.7,0.5-1.2,1.2-1.2c0.7,0,1.2,0.5,1.2,1.2c0,0.7-0.5,1.2-1.2,1.2
					C839.9,954.1,839.3,953.6,839.3,952.9z M839.6,955.4h1.9v8.9h-1.9V955.4z"/>
			</g>
			<g>
				<path class="st1" d="M843.7,951.4h1.9v12.9h-1.9V951.4z"/>
			</g>
			<g>
				<path class="st1" d="M847.8,951.4h1.9v12.9h-1.9V951.4z"/>
			</g>
			<g>
				<path class="st1" d="M852,951.4h1.9v12.9H852V951.4z"/>
			</g>
			<g>
				<path class="st1" d="M864,955.4v8.9h-1.9v-1.1c-0.6,0.9-1.5,1.4-2.7,1.4c-2,0-3.4-1.3-3.4-3.6v-5.4h1.9v5.2c0,1.3,0.8,2.1,2,2.1
					c1.3,0,2.2-0.7,2.2-2.5v-4.7H864z"/>
			</g>
			<g>
				<path class="st1" d="M872.6,961.8c0,1.8-1.5,2.7-3.5,2.7c-1.8,0-3-0.8-3.6-2.1l1.6-1c0.3,0.8,1,1.3,2,1.3c0.8,0,1.5-0.3,1.5-1
					c0-1.6-4.8-0.7-4.8-3.9c0-1.7,1.4-2.7,3.2-2.7c1.5,0,2.7,0.7,3.3,1.8l-1.6,0.9c-0.3-0.7-0.9-1-1.7-1c-0.7,0-1.3,0.3-1.3,0.9
					C867.9,959.5,872.6,958.5,872.6,961.8z"/>
			</g>
			<g>
				<path class="st1" d="M876.7,957.3v4.2c0,1.1,0.7,1.1,2.2,1v1.7c-2.9,0.4-4.1-0.5-4.1-2.8v-4.2h-1.6v-1.8h1.6v-1.9l1.9-0.6v2.5
					h2.2v1.8H876.7z"/>
			</g>
			<g>
				<path class="st1" d="M885.4,955.3v2.1c-1.3-0.1-2.7,0.5-2.7,2.5v4.5h-1.9v-8.9h1.9v1.5C883.2,955.7,884.2,955.3,885.4,955.3z"/>
			</g>
			<g>
				<path class="st1" d="M895.3,955.4v8.9h-1.9V963c-0.7,0.9-1.7,1.5-3.1,1.5c-2.4,0-4.4-2-4.4-4.7c0-2.6,2-4.7,4.4-4.7
					c1.4,0,2.4,0.6,3.1,1.5v-1.3H895.3z M893.4,959.9c0-1.6-1.2-2.8-2.8-2.8c-1.6,0-2.8,1.2-2.8,2.8c0,1.6,1.2,2.8,2.8,2.8
					C892.2,962.7,893.4,961.5,893.4,959.9z"/>
			</g>
			<g>
				<path class="st1" d="M900.3,957.3v4.2c0,1.1,0.7,1.1,2.2,1v1.7c-2.9,0.4-4.1-0.5-4.1-2.8v-4.2h-1.6v-1.8h1.6v-1.9l1.9-0.6v2.5
					h2.2v1.8H900.3z"/>
			</g>
			<g>
				<path class="st1" d="M903.9,952.9c0-0.7,0.5-1.2,1.2-1.2c0.7,0,1.2,0.5,1.2,1.2c0,0.7-0.5,1.2-1.2,1.2
					C904.5,954.1,903.9,953.6,903.9,952.9z M904.2,955.4h1.9v8.9h-1.9V955.4z"/>
			</g>
			<g>
				<path class="st1" d="M907.8,959.9c0-2.6,2.1-4.7,4.7-4.7c2.6,0,4.7,2,4.7,4.7c0,2.6-2.1,4.7-4.7,4.7
					C909.9,964.5,907.8,962.5,907.8,959.9z M915.3,959.9c0-1.6-1.2-2.8-2.8-2.8c-1.6,0-2.8,1.2-2.8,2.8c0,1.6,1.2,2.8,2.8,2.8
					C914.1,962.7,915.3,961.5,915.3,959.9z"/>
			</g>
			<g>
				<path class="st1" d="M927,958.9v5.4h-1.9v-5.2c0-1.3-0.8-2.1-2-2.1c-1.3,0-2.2,0.7-2.2,2.5v4.7h-1.9v-8.9h1.9v1.1
					c0.6-0.9,1.5-1.4,2.7-1.4C925.5,955.2,927,956.6,927,958.9z"/>
			</g>
			<g>
				<path class="st1" d="M935.5,961.8c0,1.8-1.5,2.7-3.5,2.7c-1.8,0-3-0.8-3.6-2.1l1.6-1c0.3,0.8,1,1.3,2,1.3c0.8,0,1.5-0.3,1.5-1
					c0-1.6-4.8-0.7-4.8-3.9c0-1.7,1.4-2.7,3.2-2.7c1.5,0,2.7,0.7,3.3,1.8l-1.6,0.9c-0.3-0.7-0.9-1-1.7-1c-0.7,0-1.3,0.3-1.3,0.9
					C930.7,959.5,935.5,958.5,935.5,961.8z"/>
			</g>
			<g>
				<path class="st1" d="M936.8,963.2c0-0.7,0.6-1.3,1.3-1.3c0.7,0,1.3,0.6,1.3,1.3c0,0.7-0.6,1.3-1.3,1.3
					C937.4,964.5,936.8,963.9,936.8,963.2z"/>
			</g>
			<g>
				<path class="st1" d="M940.3,959.9c0-2.6,2-4.7,4.7-4.7c1.7,0,3.2,0.9,3.9,2.3l-1.6,1c-0.4-0.8-1.3-1.4-2.3-1.4
					c-1.6,0-2.7,1.2-2.7,2.8c0,1.6,1.2,2.8,2.7,2.8c1.1,0,1.9-0.5,2.4-1.4l1.6,0.9c-0.7,1.4-2.2,2.3-4,2.3
					C942.3,964.5,940.3,962.5,940.3,959.9z"/>
			</g>
			<g>
				<path class="st1" d="M949.7,959.9c0-2.6,2.1-4.7,4.7-4.7c2.6,0,4.7,2,4.7,4.7c0,2.6-2.1,4.7-4.7,4.7
					C951.8,964.5,949.7,962.5,949.7,959.9z M957.2,959.9c0-1.6-1.2-2.8-2.8-2.8s-2.8,1.2-2.8,2.8c0,1.6,1.2,2.8,2.8,2.8
					S957.2,961.5,957.2,959.9z"/>
			</g>
		</g>
	</g>
</g>
<polyline id="XMLID_134_" class="st2" points="253.9,390.4 253.9,421.3 192,421.3 "/>
<polyline id="XMLID_170_" class="st2" points="315.7,421.3 253.9,421.3 253.9,390.4 "/>
<rect id="XMLID_157_" x="222.9" y="421.3" class="st2" width="61.9" height="30.9"/>
<polyline id="XMLID_161_" class="st2" points="271.4,483.1 253.9,483.1 253.9,452.2 315.7,452.2 "/>
<polyline id="XMLID_176_" class="st2" points="192,452.2 253.9,452.2 253.9,483.1 203.7,483.1 "/>
<polyline id="XMLID_165_" class="st2" points="170.9,421.3 222.9,421.3 222.9,452.2 192,452.2 "/>
<polyline id="XMLID_156_" class="st2" points="329.4,452.2 284.8,452.2 284.8,421.3 306.2,421.3 "/>
<polyline id="XMLID_182_" class="st2" points="756.5,382.1 756.5,413 694.6,413 "/>
<polyline id="XMLID_181_" class="st2" points="818.3,413 756.5,413 756.5,382.1 "/>
<rect id="XMLID_180_" x="725.5" y="413" class="st2" width="61.9" height="30.9"/>
<polyline id="XMLID_177_" class="st2" points="666.2,288.2 718.3,288.2 718.3,319.1 687.3,319.1 "/>
<polyline id="XMLID_166_" class="st2" points="832.1,443.9 787.4,443.9 787.4,413 808.9,413 "/>
<rect id="XMLID_89_" x="233.5" y="524" class="st3" width="54" height="22"/>
<rect id="XMLID_116_" x="233.5" y="524" class="st4" width="54" height="22"/>
<circle id="XMLID_104_" class="st5" cx="382.6" cy="544.5" r="40"/>
<path id="XMLID_158_" class="st6" d="M367.9,544.5c0-17.7,11.5-32.6,27.3-37.9c-4-1.3-8.2-2.1-12.7-2.1c-22.1,0-40,17.9-40,40
	c0,22.1,17.9,40,40,40c4.4,0,8.7-0.7,12.7-2.1C379.4,577.1,367.9,562.2,367.9,544.5z"/>
<circle id="XMLID_112_" class="st4" cx="382.6" cy="544.5" r="40"/>
<line id="XMLID_111_" class="st7" x1="382.6" y1="499.2" x2="382.6" y2="413"/>
<polygon id="XMLID_110_" class="st4" points="446.2,436.8 319.1,436.8 337.2,346 428,346 "/>
<polygon id="XMLID_103_" class="st8" points="446.2,436.8 319.1,436.8 337.2,346 428,346 "/>
<polygon id="XMLID_154_" class="st9" points="337.2,346 319.1,436.8 365.2,436.8 375.3,346 "/>
<polygon id="XMLID_107_" class="st4" points="446.2,436.8 319.1,436.8 337.2,346 428,346 "/>
<line id="XMLID_106_" class="st10" x1="412.8" y1="436.8" x2="412.8" y2="461.7"/>
<circle id="XMLID_105_" class="st10" cx="412.8" cy="469.5" r="7.9"/>
<circle id="XMLID_108_" class="st1" cx="412.8" cy="469.5" r="7.9"/>
<rect id="XMLID_98_" x="218.2" y="706" class="st4" width="32" height="20"/>
<rect id="XMLID_93_" x="218.2" y="706" class="st1" width="32" height="20"/>
<rect id="XMLID_96_" x="381.2" y="706" class="st4" width="32" height="20"/>
<rect id="XMLID_100_" x="381.2" y="706" class="st1" width="32" height="20"/>
<path id="XMLID_74_" class="st11" d="M547.2,618V487c0-28.7,23.3-52,52-52h94.3c28.7,0,52,23.3,52,52v131H547.2z"/>
<path id="XMLID_97_" class="st12" d="M693.5,436h-94.3c-28.7,0-52,23.3-52,52v12.2c0-28.7,23.3-52,52-52h94.3c28.7,0,52,23.3,52,52
	V488C745.5,459.3,722.2,436,693.5,436z"/>
<path id="XMLID_94_" class="st4" d="M547.2,618V487c0-28.7,23.3-52,52-52h94.3c28.7,0,52,23.3,52,52v131H547.2z"/>
<rect id="XMLID_87_" x="194.2" y="626" class="st13" width="244" height="80"/>
<rect id="XMLID_102_" x="283.2" y="666" class="st14" width="59.4" height="9.2"/>
<rect id="XMLID_125_" x="194.2" y="626.6" class="st15" width="244" height="9.7"/>
<rect id="XMLID_130_" x="194.2" y="696.2" class="st16" width="244" height="9.7"/>
<rect id="XMLID_91_" x="194.2" y="626" class="st4" width="244" height="80"/>
<rect id="XMLID_75_" x="194.2" y="546" class="st13" width="244" height="80"/>
<rect id="XMLID_138_" x="283.2" y="586" class="st14" width="59.4" height="9.2"/>
<rect id="XMLID_132_" x="194.2" y="616" class="st16" width="244" height="9.7"/>
<rect id="XMLID_42_" x="194.2" y="546" class="st15" width="244" height="9.7"/>
<rect id="XMLID_90_" x="194.2" y="546" class="st4" width="244" height="80"/>
<path id="XMLID_73_" class="st11" d="M790.3,706.6h-54v-144c0-8.8,7.2-16,16-16h22c8.8,0,16,7.2,16,16V706.6z"/>
<path id="XMLID_95_" class="st12" d="M774.3,546h-22c-8.8,0-16,7.2-16,16v10c0-8.8,7.2-16,16-16h22c8.8,0,16,7.2,16,16v-10
	C790.3,553.2,783.2,546,774.3,546z"/>
<path id="XMLID_88_" class="st4" d="M790.3,706h-54V562c0-8.8,7.2-16,16-16h22c8.8,0,16,7.2,16,16V706z"/>
<rect id="XMLID_109_" x="581.6" y="237.6" transform="matrix(-1.836970e-16 1 -1 -1.836970e-16 961.2277 -322.0333)" class="st17" width="120" height="164"/>
<rect id="XMLID_86_" x="581.6" y="237.6" transform="matrix(-1.836970e-16 1 -1 -1.836970e-16 961.2277 -322.0333)" class="st4" width="120" height="164"/>
<rect id="XMLID_153_" x="575.6" y="275.6" class="st18" width="132" height="88"/>
<rect id="XMLID_84_" x="575.6" y="275.6" class="st19" width="132" height="88"/>
<polygon id="XMLID_123_" class="st1" points="599.4,346 620.3,309.7 641.3,346 "/>
<polygon id="XMLID_83_" class="st10" points="599.4,346 620.3,309.7 641.3,346 "/>
<polygon id="XMLID_114_" class="st5" points="620.3,346 644.7,303.7 669.1,346 "/>
<polygon id="XMLID_82_" class="st10" points="620.3,346 644.7,303.7 669.1,346 "/>
<circle id="XMLID_126_" class="st11" cx="678.5" cy="300.3" r="9.3"/>
<circle id="XMLID_81_" class="st10" cx="678.5" cy="300.3" r="9.3"/>
<polyline id="XMLID_80_" class="st19" points="588.5,259.6 640.5,224 692.5,259.6 "/>
<line id="XMLID_79_" class="st4" x1="342.6" y1="586" x2="283.2" y2="586"/>
<line id="XMLID_78_" class="st4" x1="283.2" y1="666" x2="342.6" y2="666"/>
<rect id="XMLID_92_" x="736.3" y="706" class="st1" width="32" height="20"/>
<rect id="XMLID_76_" x="736.3" y="706" class="st4" width="32" height="20"/>
<rect id="XMLID_62_" x="524.1" y="706" class="st1" width="32" height="20"/>
<rect id="XMLID_72_" x="524.1" y="706" class="st4" width="32" height="20"/>
<path id="XMLID_71_" class="st11" d="M556.1,706h-54V562c0-8.8,7.2-16,16-16h22c8.8,0,16,7.2,16,16V706z"/>
<path id="XMLID_101_" class="st12" d="M540.1,546h-22c-8.8,0-16,7.2-16,16v10c0-8.8,7.2-16,16-16h22c8.8,0,16,7.2,16,16v-10
	C556.1,553.2,548.9,546,540.1,546z"/>
<path id="XMLID_70_" class="st4" d="M556.1,706h-54V562c0-8.8,7.2-16,16-16h22c8.8,0,16,7.2,16,16V706z"/>
<path id="XMLID_69_" class="st11" d="M556.3,663v-48.4c0-10.3,8.3-18.6,18.6-18.6h142.8c10.3,0,18.6,8.3,18.6,18.6V663H556.3z"/>
<path id="XMLID_99_" class="st12" d="M717.7,596H574.9c-10.3,0-18.6,8.3-18.6,18.6v12c0-10.3,8.3-18.6,18.6-18.6h142.8
	c10.3,0,18.6,8.3,18.6,18.6v-12C736.3,604.3,728,596,717.7,596z"/>
<path id="XMLID_65_" class="st4" d="M556.3,663v-48.4c0-10.3,8.3-18.6,18.6-18.6h142.8c10.3,0,18.6,8.3,18.6,18.6V663H556.3z"/>
<rect id="XMLID_68_" x="627.3" y="592" transform="matrix(-1.836970e-16 1 -1 -1.836970e-16 1328.3333 35.6667)" class="st11" width="38" height="180"/>
<rect id="XMLID_77_" x="627.3" y="592" transform="matrix(-1.836970e-16 1 -1 -1.836970e-16 1328.3333 35.6667)" class="st11" width="38" height="180"/>
<rect id="XMLID_85_" x="640.3" y="579" transform="matrix(-1.836970e-16 1 -1 -1.836970e-16 1315.3333 22.6667)" class="st20" width="12" height="180"/>
<rect id="XMLID_64_" x="627.3" y="592" transform="matrix(-1.836970e-16 1 -1 -1.836970e-16 1328.3333 35.6667)" class="st4" width="38" height="180"/>
<circle id="XMLID_136_" class="st21" cx="646.7" cy="515.5" r="11"/>
<circle id="XMLID_128_" class="st19" cx="646.7" cy="515.5" r="11"/>
<line id="XMLID_2_" class="st4" x1="166.5" y1="726" x2="814.1" y2="726"/>
<line id="XMLID_178_" class="st4" x1="423.3" y1="774.6" x2="502.5" y2="774.6"/>
<line id="XMLID_179_" class="st4" x1="388.5" y1="774.6" x2="405.8" y2="774.6"/>
<line id="XMLID_118_" class="st4" x1="832.1" y1="726" x2="845.7" y2="726"/>
<ellipse id="XMLID_115_" class="st9" cx="414.9" cy="465.4" rx="2" ry="1.8"/>
</svg>
