<?xml version="1.0" encoding="utf-8"?>
<!-- Generator: Adobe Illustrator 23.1.1, SVG Export Plug-In . SVG Version: 6.00 Build 0)  -->
<svg version="1.1" id="Layer_1" xmlns="http://www.w3.org/2000/svg" xmlns:xlink="http://www.w3.org/1999/xlink" x="0px" y="0px"
	 viewBox="0 0 1000 1000" style="enable-background:new 0 0 1000 1000;" xml:space="preserve">
<style type="text/css">
	.st0{fill:#A7E8C3;}
	.st1{fill:#1D2F3D;}
	.st2{fill:none;stroke:#78C199;stroke-width:6;stroke-linecap:round;stroke-linejoin:round;stroke-miterlimit:10;}
	.st3{fill:none;stroke:#8DC6BF;stroke-width:6;stroke-linecap:round;stroke-linejoin:round;stroke-miterlimit:10;}
	.st4{fill:none;stroke:#1D2F3D;stroke-width:10;stroke-linecap:round;stroke-linejoin:round;stroke-miterlimit:10;}
	.st5{fill:#E7E0D0;}
	.st6{opacity:0.23;fill:#1D2F3D;}
	.st7{fill:#FE615A;}
	.st8{fill:#EF4D4D;}
	.st9{fill:#938F8F;}
	.st10{opacity:0.57;fill:#938F8F;}
	.st11{opacity:0.55;fill:#AAAAAA;}
	.st12{fill:none;stroke:#1D2F3D;stroke-width:4;stroke-linecap:round;stroke-linejoin:round;stroke-miterlimit:10;}
	.st13{fill:#546672;}
	.st14{opacity:0.68;fill:#546672;}
	.st15{opacity:0.81;fill:#546672;}
	.st16{opacity:0.13;fill:#D1E3ED;}
	.st17{fill:#61BA4F;}
	.st18{fill:#FFEA87;}
	.st19{opacity:0.26;fill:#3D3D3D;}
	.st20{fill:#FF6259;}
	.st21{fill:#F7B363;}
	.st22{fill:#0AC4DD;}
	.st23{fill:#8BB572;}
	.st24{fill:#976B50;}
	.st25{opacity:0.72;fill:#976B50;}
	.st26{opacity:0.41;fill:#976B50;}
	.st27{fill:none;stroke:#1D2F3D;stroke-width:8;stroke-linecap:round;stroke-linejoin:round;stroke-miterlimit:10;}
	.st28{opacity:0.82;fill:#E7E0D0;}
	.st29{fill:none;stroke:#1D2F3D;stroke-width:6;stroke-linecap:round;stroke-linejoin:round;stroke-miterlimit:10;}
	.st30{opacity:7.000000e-02;fill:#D1E3ED;}
</style>
<rect id="XMLID_35_" class="st0" width="1000" height="1000"/>
<g>
	<g>
		<g>
			<path class="st1" d="M63.2,959.2c0,2.5-1.2,3.7-2.6,3.7c-1.1,0-1.9-0.5-2.1-1.4c-0.4,0.5-1,0.8-1.8,0.8c-1.5,0-2.6-1.2-2.6-2.8
				c0-1.6,1.1-2.8,2.6-2.8c0.7,0,1.2,0.3,1.6,0.7v-0.5h1.6v3.9c0,0.8,0.3,1.4,1,1.4c0.9,0,1.7-0.9,1.7-3c0-3-2.3-5.3-5.4-5.3
				c-3.1,0-5.6,2.4-5.6,5.7c0,3.3,2.5,5.7,5.9,5.7c1.1,0,2.1-0.2,2.9-0.4v0.6c-0.8,0.3-1.7,0.4-2.9,0.4c-3.7,0-6.5-2.6-6.5-6.2
				c0-3.4,2.7-6.2,6.2-6.2C61.1,953.3,63.2,956.4,63.2,959.2z M58.3,959.5c0-0.8-0.6-1.4-1.3-1.4c-0.8,0-1.3,0.5-1.3,1.4
				c0,0.8,0.6,1.3,1.3,1.3C57.8,960.9,58.3,960.3,58.3,959.5z"/>
		</g>
		<g>
			<path class="st1" d="M69.4,955.1v2c-1.2-0.1-2.6,0.5-2.6,2.4v4.3h-1.9v-8.6h1.9v1.4C67.3,955.5,68.3,955.1,69.4,955.1z"/>
		</g>
		<g>
			<path class="st1" d="M74.6,962.3c1,0,1.8-0.5,2.2-1.1l1.5,0.9c-0.8,1.2-2.1,1.9-3.8,1.9c-2.8,0-4.7-1.9-4.7-4.5
				c0-2.5,1.8-4.5,4.5-4.5c2.6,0,4.3,2.1,4.3,4.5c0,0.3,0,0.5-0.1,0.8h-6.8C72.1,961.6,73.2,962.3,74.6,962.3z M76.9,958.8
				c-0.3-1.5-1.3-2.1-2.5-2.1c-1.4,0-2.3,0.8-2.6,2.1H76.9z"/>
		</g>
		<g>
			<path class="st1" d="M88.9,955.2v8.6h-1.9v-1.2c-0.7,0.9-1.7,1.5-3,1.5c-2.3,0-4.3-2-4.3-4.5c0-2.6,1.9-4.5,4.3-4.5
				c1.3,0,2.3,0.5,3,1.4v-1.2H88.9z M87.1,959.5c0-1.6-1.2-2.7-2.7-2.7c-1.5,0-2.7,1.1-2.7,2.7c0,1.6,1.2,2.7,2.7,2.7
				C85.9,962.3,87.1,961.1,87.1,959.5z"/>
		</g>
		<g>
			<path class="st1" d="M91.1,951.3H93v12.5h-1.9V951.3z"/>
		</g>
		<g>
			<path class="st1" d="M102.9,955.2l-3.3,8.6h-2.1l-3.3-8.6h2l2.4,6.5l2.4-6.5H102.9z"/>
		</g>
		<g>
			<path class="st1" d="M104.2,955.2h1.9v8.9c0,2.4-1.2,3.5-3.5,3.3v-1.8c1.1,0.1,1.7-0.3,1.7-1.5V955.2z M104,952.8
				c0-0.7,0.5-1.2,1.2-1.2c0.7,0,1.2,0.5,1.2,1.2c0,0.6-0.5,1.2-1.2,1.2C104.5,954,104,953.4,104,952.8z"/>
		</g>
		<g>
			<path class="st1" d="M116,955.2l-3.3,8.8c-0.8,2.2-2.2,3.3-4.2,3.2v-1.7c1.2,0.1,1.9-0.5,2.3-1.7l0.1-0.2l-3.6-8.4h2l2.6,6.2
				l2.2-6.2H116z"/>
		</g>
	</g>
	<g>
		<path class="st1" d="M211.9,938.7c0,2.1-1.5,3.8-3.6,3.8h-3v-7.6h3C210.4,934.9,211.9,936.6,211.9,938.7z M210.9,938.7
			c0-1.6-1.1-2.9-2.6-2.9h-2v5.7h2C209.8,941.6,210.9,940.3,210.9,938.7z"/>
		<path class="st1" d="M219.5,940.8h-3.4l-0.6,1.7h-1.1l2.8-7.6h1.1l2.8,7.6h-1.1L219.5,940.8z M219.2,939.9l-1.4-3.8l-1.4,3.8
			H219.2z"/>
		<path class="st1" d="M226.4,939.4v3.1h-1v-3.1l-2.7-4.5h1.1l2.1,3.6l2.1-3.6h1.1L226.4,939.4z"/>
		<path class="st1" d="M242,940.3c0,1.5-1.2,2.4-2.6,2.4c-1.1,0-2.1-0.5-2.5-1.6l0.9-0.5c0.2,0.8,0.8,1.1,1.7,1.1
			c0.9,0,1.6-0.5,1.6-1.4c0-0.9-0.7-1.4-1.6-1.4h-2.2l0.3-4h4.2v0.9h-3.3l-0.1,2h1.1C240.8,937.9,242,938.7,242,940.3z"/>
		<path class="st1" d="M250.3,940.1c0,1.5-1.1,2.6-2.6,2.6c-1.5,0-2.6-1.1-2.6-2.6c0-0.6,0.2-1.1,0.5-1.5l2.5-3.7h1.2l-1.8,2.7
			c0.1,0,0.2,0,0.4,0C249.2,937.5,250.3,938.6,250.3,940.1z M249.3,940.1c0-1-0.7-1.6-1.6-1.6c-1,0-1.6,0.6-1.6,1.6s0.7,1.6,1.6,1.6
			C248.6,941.7,249.3,941,249.3,940.1z"/>
	</g>
	<g>
		<path class="st1" d="M58.9,938.7c0,2.1-1.5,3.8-3.6,3.8h-3v-7.6h3C57.4,934.9,58.9,936.6,58.9,938.7z M57.9,938.7
			c0-1.6-1.1-2.9-2.6-2.9h-2v5.7h2C56.8,941.6,57.9,940.3,57.9,938.7z"/>
		<path class="st1" d="M67,941.6v1h-4.6v-7.6h4.5v1h-3.5v2.3h3.2v0.9h-3.2v2.4H67z"/>
		<path class="st1" d="M70,940.8l0.9-0.5c0.3,0.8,0.9,1.4,2,1.4c1.1,0,1.6-0.5,1.6-1.2c0-0.8-0.7-1-1.8-1.4
			c-1.2-0.4-2.4-0.8-2.4-2.2c0-1.4,1.1-2.2,2.4-2.2c1.3,0,2.2,0.7,2.6,1.7l-0.8,0.5c-0.3-0.7-0.8-1.2-1.7-1.2
			c-0.8,0-1.4,0.4-1.4,1.1c0,0.7,0.5,1,1.6,1.3c1.3,0.4,2.6,0.8,2.6,2.3c0,1.3-1.1,2.2-2.6,2.2C71.5,942.7,70.4,941.9,70,940.8z"/>
		<path class="st1" d="M80,934.9v7.6h-1v-7.6H80z"/>
		<path class="st1" d="M91.3,939.2c0,1.9-1.4,3.5-3.7,3.5c-2.4,0-4-1.8-4-4c0-2.2,1.7-4,4-4c1.4,0,2.7,0.8,3.3,1.8l-0.9,0.5
			c-0.4-0.8-1.4-1.4-2.4-1.4c-1.8,0-3,1.3-3,3c0,1.7,1.2,3,3,3c1.6,0,2.5-0.9,2.7-2h-2.8v-0.9h3.8V939.2z"/>
		<path class="st1" d="M100.6,934.9v7.6h-0.8l-3.9-5.7v5.7h-1v-7.6h0.8l3.9,5.7v-5.7H100.6z"/>
		<path class="st1" d="M109.1,941.6v1h-4.6v-7.6h4.5v1h-3.5v2.3h3.2v0.9h-3.2v2.4H109.1z"/>
		<path class="st1" d="M119.2,938.7c0,2.1-1.5,3.8-3.6,3.8h-3v-7.6h3C117.6,934.9,119.2,936.6,119.2,938.7z M118.2,938.7
			c0-1.6-1.1-2.9-2.6-2.9h-2v5.7h2C117.1,941.6,118.2,940.3,118.2,938.7z"/>
		<path class="st1" d="M133.2,940.4c0,1.2-1,2.2-2.2,2.2h-3.3v-7.6h3c1.2,0,2.1,0.9,2.1,2.1c0,0.7-0.3,1.2-0.8,1.6
			C132.7,938.9,133.2,939.5,133.2,940.4z M128.7,935.8v2.3h2c0.6,0,1.1-0.5,1.1-1.2c0-0.6-0.5-1.2-1.1-1.2H128.7z M132.2,940.3
			c0-0.7-0.5-1.2-1.2-1.2h-2.3v2.5h2.3C131.7,941.6,132.2,941,132.2,940.3z"/>
		<path class="st1" d="M139.4,939.4v3.1h-1v-3.1l-2.7-4.5h1.1l2.1,3.6l2.1-3.6h1.1L139.4,939.4z"/>
	</g>
	<g>
		<path class="st1" d="M213.5,953.9H210v10.4h-2v-10.4h-3.5v-1.9h9V953.9z"/>
		<path class="st1" d="M213.9,951.9h2.2l3.3,9.9l3.3-9.9h2.2l-4.3,12.4h-2.4L213.9,951.9z"/>
		<path class="st1" d="M235.1,959.8h-2.4v4.5h-2v-12.4h5c2.2,0,4,1.8,4,4c0,1.6-1,3-2.5,3.6l2.8,4.8h-2.2L235.1,959.8z M232.7,958
			h2.9c1.1,0,1.9-0.9,1.9-2.1c0-1.2-0.9-2.1-1.9-2.1h-2.9V958z"/>
		<path class="st1" d="M240.4,959.9c0-2.6,2.1-4.7,4.7-4.7c2.6,0,4.7,2,4.7,4.7c0,2.6-2.1,4.7-4.7,4.7
			C242.5,964.5,240.4,962.5,240.4,959.9z M247.9,959.9c0-1.6-1.2-2.8-2.8-2.8s-2.8,1.2-2.8,2.8c0,1.6,1.2,2.8,2.8,2.8
			S247.9,961.5,247.9,959.9z"/>
		<path class="st1" d="M251,959.9c0-2.6,2.1-4.7,4.7-4.7c2.6,0,4.7,2,4.7,4.7c0,2.6-2.1,4.7-4.7,4.7
			C253.1,964.5,251,962.5,251,959.9z M258.5,959.9c0-1.6-1.2-2.8-2.8-2.8s-2.8,1.2-2.8,2.8c0,1.6,1.2,2.8,2.8,2.8
			S258.5,961.5,258.5,959.9z"/>
		<path class="st1" d="M275.1,958.8v5.5h-1.9v-5.4c0-1.2-0.7-1.9-1.7-1.9c-1.1,0-1.9,0.7-1.9,2.3v5h-1.9v-5.4c0-1.2-0.6-1.9-1.7-1.9
			c-1.1,0-2,0.7-2,2.3v5h-1.9v-8.9h1.9v1.1c0.6-0.9,1.4-1.3,2.5-1.3c1.2,0,2,0.5,2.5,1.4c0.6-0.9,1.5-1.4,2.7-1.4
			C273.8,955.2,275.1,956.6,275.1,958.8z"/>
	</g>
	<g>
		<g>
			<path class="st1" d="M846.1,938.7c0,2.1-1.5,3.8-3.6,3.8h-3v-7.6h3C844.6,934.9,846.1,936.6,846.1,938.7z M845.2,938.7
				c0-1.6-1.1-2.9-2.6-2.9h-2v5.7h2C844.1,941.6,845.2,940.3,845.2,938.7z"/>
			<path class="st1" d="M849.3,938.7c0-2.2,1.7-4,3.9-4c2.2,0,4,1.8,4,4c0,2.2-1.7,4-4,4C851,942.7,849.3,940.9,849.3,938.7z
				 M856.1,938.7c0-1.7-1.3-3-2.9-3c-1.7,0-2.9,1.3-2.9,3c0,1.7,1.3,3,2.9,3C854.9,941.7,856.1,940.4,856.1,938.7z"/>
			<path class="st1" d="M859.8,934.9h1.1l1.7,6.3l1.9-6.3h1l1.9,6.3l1.7-6.3h1.1l-2.2,7.6h-1.2l-1.8-6.1l-1.8,6.1H862L859.8,934.9z"
				/>
			<path class="st1" d="M879.3,934.9v7.6h-0.8l-3.9-5.7v5.7h-1v-7.6h0.8l3.9,5.7v-5.7H879.3z"/>
			<path class="st1" d="M887.5,941.6v1h-4.3v-7.6h1v6.7H887.5z"/>
			<path class="st1" d="M889.9,938.7c0-2.2,1.7-4,3.9-4c2.2,0,4,1.8,4,4c0,2.2-1.7,4-4,4C891.6,942.7,889.9,940.9,889.9,938.7z
				 M896.8,938.7c0-1.7-1.3-3-2.9-3c-1.7,0-2.9,1.3-2.9,3c0,1.7,1.3,3,2.9,3C895.5,941.7,896.8,940.4,896.8,938.7z"/>
			<path class="st1" d="M905.4,940.8H902l-0.6,1.7h-1.1l2.8-7.6h1.1l2.8,7.6H906L905.4,940.8z M905.1,939.9l-1.4-3.8l-1.4,3.8H905.1
				z"/>
			<path class="st1" d="M916.9,938.7c0,2.1-1.5,3.8-3.6,3.8h-3v-7.6h3C915.4,934.9,916.9,936.6,916.9,938.7z M915.9,938.7
				c0-1.6-1.1-2.9-2.6-2.9h-2v5.7h2C914.9,941.6,915.9,940.3,915.9,938.7z"/>
			<path class="st1" d="M926.5,935.8v2.5h3.2v1h-3.2v3.2h-1v-7.6h4.4v1H926.5z"/>
			<path class="st1" d="M936.2,939.6h-1.8v2.9h-1v-7.6h3c1.3,0,2.4,1.1,2.4,2.4c0,1-0.7,1.9-1.6,2.2l1.8,3.1h-1.1L936.2,939.6z
				 M934.4,938.7h2c0.8,0,1.4-0.6,1.4-1.4c0-0.8-0.6-1.4-1.4-1.4h-2V938.7z"/>
			<path class="st1" d="M941.9,938.7c0-2.2,1.7-4,3.9-4c2.2,0,4,1.8,4,4c0,2.2-1.7,4-4,4C943.6,942.7,941.9,940.9,941.9,938.7z
				 M948.8,938.7c0-1.7-1.3-3-2.9-3c-1.7,0-2.9,1.3-2.9,3c0,1.7,1.3,3,2.9,3C947.5,941.7,948.8,940.4,948.8,938.7z"/>
			<path class="st1" d="M960.4,942.5h-1v-6l-2.5,4.2h-0.1l-2.5-4.1v5.9h-1v-7.6h1.1l2.4,4l2.4-4h1.1V942.5z"/>
		</g>
		<g>
			<path class="st1" d="M839.3,952.9c0-0.7,0.5-1.2,1.2-1.2c0.7,0,1.2,0.5,1.2,1.2c0,0.7-0.5,1.2-1.2,1.2
				C839.9,954.1,839.3,953.6,839.3,952.9z M839.6,955.4h1.9v8.9h-1.9V955.4z"/>
			<path class="st1" d="M843.7,951.4h1.9v12.9h-1.9V951.4z"/>
			<path class="st1" d="M847.8,951.4h1.9v12.9h-1.9V951.4z"/>
			<path class="st1" d="M852,951.4h1.9v12.9H852V951.4z"/>
			<path class="st1" d="M864,955.4v8.9h-1.9v-1.1c-0.6,0.9-1.5,1.4-2.7,1.4c-2,0-3.4-1.3-3.4-3.6v-5.4h1.9v5.2c0,1.3,0.8,2.1,2,2.1
				c1.3,0,2.2-0.7,2.2-2.5v-4.7H864z"/>
			<path class="st1" d="M872.6,961.8c0,1.8-1.5,2.7-3.5,2.7c-1.8,0-3-0.8-3.6-2.1l1.6-1c0.3,0.8,1,1.3,2,1.3c0.8,0,1.5-0.3,1.5-1
				c0-1.6-4.8-0.7-4.8-3.9c0-1.7,1.4-2.7,3.2-2.7c1.5,0,2.7,0.7,3.3,1.8l-1.6,0.9c-0.3-0.7-0.9-1-1.7-1c-0.7,0-1.3,0.3-1.3,0.9
				C867.9,959.5,872.6,958.5,872.6,961.8z"/>
			<path class="st1" d="M876.7,957.3v4.2c0,1.1,0.7,1.1,2.2,1v1.7c-2.9,0.4-4.1-0.5-4.1-2.8v-4.2h-1.6v-1.8h1.6v-1.9l1.9-0.6v2.5
				h2.2v1.8H876.7z"/>
			<path class="st1" d="M885.4,955.3v2.1c-1.3-0.1-2.7,0.5-2.7,2.5v4.5h-1.9v-8.9h1.9v1.5C883.2,955.7,884.2,955.3,885.4,955.3z"/>
			<path class="st1" d="M895.3,955.4v8.9h-1.9V963c-0.7,0.9-1.7,1.5-3.1,1.5c-2.4,0-4.4-2-4.4-4.7c0-2.6,2-4.7,4.4-4.7
				c1.4,0,2.4,0.6,3.1,1.5v-1.3H895.3z M893.4,959.9c0-1.6-1.2-2.8-2.8-2.8c-1.6,0-2.8,1.2-2.8,2.8c0,1.6,1.2,2.8,2.8,2.8
				C892.2,962.7,893.4,961.5,893.4,959.9z"/>
			<path class="st1" d="M900.3,957.3v4.2c0,1.1,0.7,1.1,2.2,1v1.7c-2.9,0.4-4.1-0.5-4.1-2.8v-4.2h-1.6v-1.8h1.6v-1.9l1.9-0.6v2.5
				h2.2v1.8H900.3z"/>
			<path class="st1" d="M903.9,952.9c0-0.7,0.5-1.2,1.2-1.2c0.7,0,1.2,0.5,1.2,1.2c0,0.7-0.5,1.2-1.2,1.2
				C904.5,954.1,903.9,953.6,903.9,952.9z M904.2,955.4h1.9v8.9h-1.9V955.4z"/>
			<path class="st1" d="M907.8,959.9c0-2.6,2.1-4.7,4.7-4.7c2.6,0,4.7,2,4.7,4.7c0,2.6-2.1,4.7-4.7,4.7
				C909.9,964.5,907.8,962.5,907.8,959.9z M915.3,959.9c0-1.6-1.2-2.8-2.8-2.8c-1.6,0-2.8,1.2-2.8,2.8c0,1.6,1.2,2.8,2.8,2.8
				C914.1,962.7,915.3,961.5,915.3,959.9z"/>
			<path class="st1" d="M927,958.9v5.4h-1.9v-5.2c0-1.3-0.8-2.1-2-2.1c-1.3,0-2.2,0.7-2.2,2.5v4.7h-1.9v-8.9h1.9v1.1
				c0.6-0.9,1.5-1.4,2.7-1.4C925.5,955.2,927,956.6,927,958.9z"/>
			<path class="st1" d="M935.5,961.8c0,1.8-1.5,2.7-3.5,2.7c-1.8,0-3-0.8-3.6-2.1l1.6-1c0.3,0.8,1,1.3,2,1.3c0.8,0,1.5-0.3,1.5-1
				c0-1.6-4.8-0.7-4.8-3.9c0-1.7,1.4-2.7,3.2-2.7c1.5,0,2.7,0.7,3.3,1.8l-1.6,0.9c-0.3-0.7-0.9-1-1.7-1c-0.7,0-1.3,0.3-1.3,0.9
				C930.7,959.5,935.5,958.5,935.5,961.8z"/>
			<path class="st1" d="M936.8,963.2c0-0.7,0.6-1.3,1.3-1.3c0.7,0,1.3,0.6,1.3,1.3c0,0.7-0.6,1.3-1.3,1.3
				C937.4,964.5,936.8,963.9,936.8,963.2z"/>
			<path class="st1" d="M940.3,959.9c0-2.6,2-4.7,4.7-4.7c1.7,0,3.2,0.9,3.9,2.3l-1.6,1c-0.4-0.8-1.3-1.4-2.3-1.4
				c-1.6,0-2.7,1.2-2.7,2.8c0,1.6,1.2,2.8,2.7,2.8c1.1,0,1.9-0.5,2.4-1.4l1.6,0.9c-0.7,1.4-2.2,2.3-4,2.3
				C942.3,964.5,940.3,962.5,940.3,959.9z"/>
			<path class="st1" d="M949.7,959.9c0-2.6,2.1-4.7,4.7-4.7c2.6,0,4.7,2,4.7,4.7c0,2.6-2.1,4.7-4.7,4.7
				C951.8,964.5,949.7,962.5,949.7,959.9z M957.2,959.9c0-1.6-1.2-2.8-2.8-2.8s-2.8,1.2-2.8,2.8c0,1.6,1.2,2.8,2.8,2.8
				S957.2,961.5,957.2,959.9z"/>
		</g>
	</g>
</g>
<polyline id="XMLID_134_" class="st2" points="217.7,284.1 217.7,315 155.8,315 "/>
<polyline id="XMLID_103_" class="st2" points="279.6,315 217.7,315 217.7,284.1 "/>
<rect id="XMLID_157_" x="186.8" y="315" class="st2" width="61.9" height="30.9"/>
<polyline id="XMLID_161_" class="st2" points="235.3,376.8 217.7,376.8 217.7,345.9 279.6,345.9 "/>
<polyline id="XMLID_102_" class="st2" points="155.8,345.9 217.7,345.9 217.7,376.8 167.5,376.8 "/>
<polyline id="XMLID_165_" class="st2" points="134.7,315 186.8,315 186.8,345.9 155.8,345.9 "/>
<polyline id="XMLID_156_" class="st2" points="293.3,345.9 248.6,345.9 248.6,315 270.1,315 "/>
<polyline id="XMLID_112_" class="st2" points="792.3,394.7 792.3,425.6 730.4,425.6 "/>
<polyline id="XMLID_111_" class="st2" points="854.1,425.6 792.3,425.6 792.3,394.7 "/>
<rect id="XMLID_110_" x="761.3" y="425.6" class="st2" width="61.9" height="30.9"/>
<polyline id="XMLID_109_" class="st2" points="809.8,487.5 792.3,487.5 792.3,456.6 854.1,456.6 "/>
<polyline id="XMLID_108_" class="st2" points="730.4,456.6 792.3,456.6 792.3,487.5 742.1,487.5 "/>
<polyline id="XMLID_107_" class="st3" points="709.3,425.6 761.3,425.6 761.3,456.6 730.4,456.6 "/>
<polyline id="XMLID_106_" class="st2" points="867.8,456.6 823.2,456.6 823.2,425.6 844.6,425.6 "/>
<line id="XMLID_43_" class="st4" x1="837" y1="726" x2="862" y2="726"/>
<line id="XMLID_105_" class="st4" x1="429.7" y1="726" x2="814.1" y2="726"/>
<line id="XMLID_23_" class="st4" x1="395.2" y1="726" x2="414.3" y2="726"/>
<line id="XMLID_1_" class="st4" x1="109.6" y1="726" x2="378" y2="726"/>
<rect id="XMLID_5_" x="736" y="702" class="st4" width="36" height="24"/>
<rect id="XMLID_90_" x="736" y="702" class="st1" width="36" height="24"/>
<rect id="XMLID_7_" x="228" y="702" class="st4" width="36" height="24"/>
<rect id="XMLID_89_" x="228" y="702" class="st1" width="36" height="24"/>
<rect id="XMLID_45_" x="185.9" y="674" class="st5" width="628.2" height="28"/>
<rect id="XMLID_6_" x="185.9" y="674" class="st4" width="628.2" height="28"/>
<rect id="XMLID_51_" x="185.9" y="528" class="st5" width="628.2" height="18"/>
<rect id="XMLID_15_" x="185.9" y="528" class="st4" width="628.2" height="18"/>
<rect id="XMLID_61_" x="500" y="546" class="st5" width="300" height="128"/>
<rect id="XMLID_11_" x="500" y="546" class="st4" width="300" height="128"/>
<polygon id="XMLID_86_" class="st6" points="800,546 528.8,546 500,546 500,571.9 500,674 528.8,674 528.8,571.9 800,571.9 "/>
<rect id="XMLID_53_" x="200" y="546" class="st7" width="300" height="64"/>
<rect id="XMLID_83_" x="200" y="546" class="st8" width="300" height="64"/>
<rect id="XMLID_91_" x="200" y="600.3" class="st6" width="300" height="9.6"/>
<rect id="XMLID_84_" x="200" y="546" class="st6" width="300" height="21.7"/>
<rect id="XMLID_10_" x="200" y="546" class="st4" width="300" height="64"/>
<rect id="XMLID_52_" x="200" y="610" class="st8" width="300" height="64"/>
<rect id="XMLID_93_" x="200" y="664.9" class="st6" width="300" height="9.6"/>
<rect id="XMLID_94_" x="200" y="610.1" class="st1" width="300" height="9.6"/>
<rect id="XMLID_8_" x="200" y="610" class="st4" width="300" height="64"/>
<rect id="XMLID_50_" x="200" y="546" class="st5" width="14" height="128"/>
<rect id="XMLID_44_" x="200" y="546" class="st4" width="14" height="128"/>
<rect id="XMLID_54_" x="493" y="546" class="st5" width="14" height="128"/>
<rect id="XMLID_46_" x="493" y="546" class="st4" width="14" height="128"/>
<rect id="XMLID_47_" x="788.6" y="546" class="st4" width="14" height="128"/>
<rect id="XMLID_75_" x="516.9" y="489" class="st9" width="162.1" height="39"/>
<rect id="XMLID_4_" x="516.9" y="519.7" class="st10" width="162.1" height="8.3"/>
<rect id="XMLID_92_" x="516.9" y="489" class="st11" width="162.1" height="8.4"/>
<rect id="XMLID_9_" x="516.9" y="489" class="st4" width="162.1" height="39"/>
<line id="XMLID_17_" class="st12" x1="583.9" y1="504.5" x2="648.2" y2="504.5"/>
<line id="XMLID_19_" class="st12" x1="583.9" y1="512.5" x2="616.1" y2="512.5"/>
<circle id="XMLID_76_" class="st5" cx="548.1" cy="508.5" r="7"/>
<circle id="XMLID_16_" class="st12" cx="548.1" cy="508.5" r="7"/>
<path id="XMLID_65_" class="st13" d="M755.9,465H444.1c-8.8,0-16-7.2-16-16v-173c0-8.8,7.2-16,16-16h311.9c8.8,0,16,7.2,16,16v173
	C771.9,457.9,764.8,465,755.9,465z"/>
<path id="XMLID_98_" class="st14" d="M755.9,453.1H444.1c-8.8,0-16-7.2-16-16V449c0,8.8,7.2,16,16,16h311.9c8.8,0,16-7.2,16-16
	v-11.9C771.9,445.9,764.8,453.1,755.9,453.1z"/>
<path id="XMLID_97_" class="st15" d="M755.9,259.1H444.1c-8.8,0-16,7.2-16,16v9c0-8.8,7.2-16,16-16h311.9c8.8,0,16,7.2,16,16v-9
	C771.9,266.2,764.8,259.1,755.9,259.1z"/>
<path id="XMLID_68_" class="st1" d="M444.6,426.2V284.9c0-5.4,4.4-9.8,9.8-9.8h291.1c5.4,0,9.8,4.4,9.8,9.8v141.3
	c0,5.4-4.4,9.8-9.8,9.8H454.4C449,436,444.6,431.6,444.6,426.2z"/>
<path id="XMLID_18_" class="st4" d="M755.9,465H444.1c-8.8,0-16-7.2-16-16v-173c0-8.8,7.2-16,16-16h311.9c8.8,0,16,7.2,16,16v173
	C771.9,457.9,764.8,465,755.9,465z"/>
<ellipse id="XMLID_21_" class="st16" cx="600" cy="447.7" rx="7.5" ry="7.6"/>
<ellipse id="XMLID_82_" class="st1" cx="600" cy="447.7" rx="6.4" ry="6.6"/>
<circle id="XMLID_71_" class="st17" cx="569.3" cy="596.9" r="13.2"/>
<circle id="XMLID_20_" class="st4" cx="569.3" cy="596.9" r="13.2"/>
<path id="XMLID_70_" class="st17" d="M558.1,576.1c-3.4-5.6-9.9-5.6-13.3,0c-4.4,7.4-7.2,17.8-7.2,29.4c0,16.6,5.7,30.9,13.8,37.1
	c8.1-6.2,13.8-20.5,13.8-37.1C565.3,593.9,562.5,583.4,558.1,576.1z"/>
<path id="XMLID_26_" class="st4" d="M558.1,576.1c-3.4-5.6-9.9-5.6-13.3,0c-4.4,7.4-7.2,17.8-7.2,29.4c0,16.6,5.7,30.9,13.8,37.1
	c8.1-6.2,13.8-20.5,13.8-37.1C565.3,593.9,562.5,583.4,558.1,576.1z"/>
<polygon id="XMLID_69_" class="st18" points="568.8,674 534.1,674 528.8,630.7 574.1,630.7 "/>
<polygon id="XMLID_87_" class="st19" points="528.8,630.7 534.1,674 551.9,674 550,630.7 "/>
<polygon id="XMLID_24_" class="st4" points="568.8,674 534.1,674 528.8,630.7 574.1,630.7 "/>
<rect id="XMLID_22_" x="768.6" y="571" class="st20" width="20" height="103"/>
<rect id="XMLID_12_" x="768.6" y="571" class="st4" width="20" height="103"/>
<rect id="XMLID_57_" x="745.6" y="578" class="st21" width="23" height="96"/>
<rect id="XMLID_14_" x="745.6" y="578" class="st4" width="23" height="96"/>
<rect id="XMLID_64_" x="708.9" y="580.5" transform="matrix(0.9027 0.4303 -0.4303 0.9027 339.2091 -247.8806)" class="st22" width="17.3" height="91"/>
<rect id="XMLID_27_" x="708.9" y="580.5" transform="matrix(0.9027 0.4303 -0.4303 0.9027 339.2091 -247.8806)" class="st4" width="17.3" height="91"/>
<rect id="XMLID_40_" x="587.1" y="655.8" class="st21" width="89.7" height="18.2"/>
<rect id="XMLID_13_" x="587.1" y="655.8" class="st4" width="89.7" height="18.2"/>
<rect id="XMLID_38_" x="597.9" y="638" class="st23" width="85.2" height="18.2"/>
<rect id="XMLID_29_" x="597.9" y="637" class="st4" width="85.2" height="18.2"/>
<rect id="XMLID_72_" x="256.2" y="381.9" class="st24" width="81" height="144.5"/>
<rect id="XMLID_95_" x="256.2" y="381.9" class="st24" width="81" height="144.5"/>
<rect id="XMLID_96_" x="256.2" y="381.9" class="st25" width="81" height="9.8"/>
<rect id="XMLID_100_" x="256.2" y="514.8" class="st26" width="81" height="11.5"/>
<rect id="XMLID_28_" x="256.2" y="381.9" class="st4" width="81" height="144.5"/>
<circle id="XMLID_73_" class="st5" cx="295.7" cy="429.4" r="23.9"/>
<path id="XMLID_99_" class="st5" d="M271.8,429.4c0-13.2,10.7-23.9,23.9-23.9s23.9,10.7,23.9,23.9H271.8z"/>
<circle id="XMLID_30_" class="st27" cx="295.7" cy="429.4" r="23.9"/>
<circle id="XMLID_31_" class="st1" cx="295.7" cy="429.4" r="9"/>
<circle id="XMLID_33_" class="st5" cx="295.7" cy="487.9" r="14.8"/>
<path id="XMLID_101_" class="st5" d="M280.9,487.9c0-8.2,6.6-14.8,14.8-14.8s14.8,6.6,14.8,14.8H280.9z"/>
<circle id="XMLID_81_" class="st1" cx="295.7" cy="487.9" r="4.9"/>
<circle id="XMLID_34_" class="st27" cx="295.7" cy="487.9" r="14.8"/>
<path id="XMLID_36_" class="st5" d="M338.7,277.3h-83.9c-9.3,0-16.9-7.6-16.9-16.9v-83.9c0-9.3,7.6-16.9,16.9-16.9h83.9
	c9.3,0,16.9,7.6,16.9,16.9v83.9C355.6,269.8,348,277.3,338.7,277.3z"/>
<path id="XMLID_117_" class="st28" d="M338.7,159.6h-83.9c-9.3,0-16.9,7.6-16.9,16.9v15c0-9.3,7.6-16.9,16.9-16.9h83.9
	c9.3,0,16.9,7.6,16.9,16.9v-15C355.6,167.2,348,159.6,338.7,159.6z"/>
<path id="XMLID_32_" class="st4" d="M338.7,277.3h-83.9c-9.3,0-16.9-7.6-16.9-16.9v-83.9c0-9.3,7.6-16.9,16.9-16.9h83.9
	c9.3,0,16.9,7.6,16.9,16.9v83.9C355.6,269.8,348,277.3,338.7,277.3z"/>
<line id="XMLID_88_" class="st29" x1="297.5" y1="218.5" x2="271.6" y2="218.5"/>
<line id="XMLID_37_" class="st12" x1="319.4" y1="184.3" x2="297.5" y2="218.5"/>
<rect id="XMLID_49_" x="788.6" y="546" class="st5" width="14" height="128"/>
<rect id="XMLID_48_" x="788.6" y="546" class="st4" width="14" height="128"/>
<circle id="XMLID_56_" class="st5" cx="350" cy="577.8" r="14.2"/>
<circle id="XMLID_55_" class="st4" cx="350" cy="577.8" r="14.2"/>
<circle id="XMLID_59_" class="st5" cx="350" cy="642" r="14.2"/>
<circle id="XMLID_58_" class="st4" cx="350" cy="642" r="14.2"/>
<line id="XMLID_60_" class="st4" x1="768.6" y1="599.3" x2="788.6" y2="599.3"/>
<line id="XMLID_62_" class="st4" x1="745.6" y1="610" x2="768.6" y2="610"/>
<line id="XMLID_67_" class="st4" x1="718.9" y1="603" x2="734.6" y2="610.5"/>
<path id="XMLID_39_" class="st30" d="M654.7,275.1H597L444.7,427.4c0.6,4.8,4.7,8.6,9.7,8.6h39.4L654.7,275.1z"/>
<polygon id="XMLID_41_" class="st30" points="511.9,436 540.8,436 701.7,275.1 672.8,275.1 "/>
<polygon id="XMLID_74_" class="st30" points="652.4,436 755.4,333 755.4,311.3 630.7,436 "/>
<line id="XMLID_42_" class="st4" x1="616.1" y1="637" x2="616.1" y2="655.2"/>
<line id="XMLID_78_" class="st29" x1="296.7" y1="166.3" x2="296.7" y2="172.2"/>
<line id="XMLID_79_" class="st29" x1="296.7" y1="264.7" x2="296.7" y2="270.6"/>
<line id="XMLID_80_" class="st29" x1="348.9" y1="218.5" x2="343" y2="218.5"/>
<line id="XMLID_77_" class="st29" x1="250.5" y1="218.5" x2="244.6" y2="218.5"/>
<circle id="XMLID_85_" class="st1" cx="297.5" cy="218.5" r="7.3"/>
<line id="XMLID_104_" class="st4" x1="650" y1="656.2" x2="650" y2="674"/>
<line id="XMLID_3_" class="st4" x1="564.9" y1="774.6" x2="644.1" y2="774.6"/>
<line id="XMLID_2_" class="st4" x1="530.1" y1="774.6" x2="547.5" y2="774.6"/>
<rect id="XMLID_63_" x="364.2" y="516.6" class="st4" width="81.4" height="7.4"/>
</svg>
