<?xml version="1.0" encoding="utf-8"?>
<!-- Generator: Adobe Illustrator 23.1.1, SVG Export Plug-In . SVG Version: 6.00 Build 0)  -->
<svg version="1.1" id="Layer_1" xmlns="http://www.w3.org/2000/svg" xmlns:xlink="http://www.w3.org/1999/xlink" x="0px" y="0px"
	 viewBox="0 0 1000 1000" style="enable-background:new 0 0 1000 1000;" xml:space="preserve">
<style type="text/css">
	.st0{fill:#FFFBC7;}
	.st1{fill:#1B3242;}
	.st2{opacity:0.79;}
	.st3{fill:none;stroke:#DBBA95;stroke-width:6;stroke-linecap:round;stroke-linejoin:round;stroke-miterlimit:10;}
	.st4{fill:none;stroke:#1B3242;stroke-width:14;stroke-linecap:round;stroke-linejoin:round;stroke-miterlimit:10;}
	.st5{fill:#C3F3F7;}
	.st6{fill:#93C4C6;}
	.st7{fill:none;stroke:#1B3242;stroke-width:10;stroke-linecap:round;stroke-linejoin:round;stroke-miterlimit:10;}
	.st8{fill:#F9263B;}
	.st9{fill:#EF3946;}
	.st10{opacity:0.64;fill:#FCFCFC;}
	.st11{fill:#FFFFFF;}
	.st12{fill:#D12845;}
	.st13{fill:#FF485E;}
	.st14{opacity:0.36;fill:#7BB448;}
	.st15{fill:none;stroke:#303030;stroke-width:10;stroke-linecap:round;stroke-linejoin:round;stroke-miterlimit:10;}
	.st16{opacity:0.29;fill:#7BB448;}
	.st17{fill:#303030;}
	.st18{fill:#82E086;}
	.st19{opacity:0.37;fill:#82E086;}
	.st20{opacity:0.83;fill:#CCCCCC;}
	.st21{fill:#1AC7CE;}
	.st22{fill:#31AFAF;}
	.st23{fill:none;stroke:#1B3242;stroke-width:5;stroke-linecap:round;stroke-linejoin:round;stroke-miterlimit:10;}
	.st24{fill:#F34C6A;}
	.st25{fill:none;stroke:#1B3242;stroke-width:6;stroke-linecap:round;stroke-linejoin:round;stroke-miterlimit:10;}
	.st26{fill:#FFD55C;}
	.st27{fill:none;stroke:#1B3242;stroke-width:8;stroke-linecap:round;stroke-linejoin:round;stroke-miterlimit:10;}
	.st28{fill:none;stroke:#1D2F3D;stroke-width:10;stroke-linecap:round;stroke-linejoin:round;stroke-miterlimit:10;}
	.st29{fill:#F7F7F7;}
	.st30{fill:#E8BA8B;}
	.st31{opacity:0.79;fill:#995D45;}
	.st32{opacity:0.35;fill:#995D45;}
	.st33{opacity:0.31;fill:#474747;}
	.st34{fill:#FF433E;}
	.st35{fill:#6CBC96;}
	.st36{fill:#F4BA7A;}
	.st37{fill:#5492A8;}
	.st38{fill:#934D84;}
	.st39{fill:#18C6CD;}
	.st40{fill:#995D45;}
	.st41{opacity:0.82;fill:#995D45;}
	.st42{fill:none;stroke:#1B3242;stroke-width:11;stroke-linecap:round;stroke-linejoin:round;stroke-miterlimit:10;}
</style>
<rect id="XMLID_32_" x="0" class="st0" width="1000" height="1000"/>
<g>
	<g>
		<g>
			<path class="st1" d="M63.2,959.2c0,2.5-1.2,3.7-2.6,3.7c-1.1,0-1.9-0.5-2.1-1.4c-0.4,0.5-1,0.8-1.8,0.8c-1.5,0-2.6-1.2-2.6-2.8
				c0-1.6,1.1-2.8,2.6-2.8c0.7,0,1.2,0.3,1.6,0.7v-0.5h1.6v3.9c0,0.8,0.3,1.4,1,1.4c0.9,0,1.7-0.9,1.7-3c0-3-2.3-5.3-5.4-5.3
				c-3.1,0-5.6,2.4-5.6,5.7c0,3.3,2.5,5.7,5.9,5.7c1.1,0,2.1-0.2,2.9-0.4v0.6c-0.8,0.3-1.7,0.4-2.9,0.4c-3.7,0-6.5-2.6-6.5-6.2
				c0-3.4,2.7-6.2,6.2-6.2C61.1,953.3,63.2,956.4,63.2,959.2z M58.3,959.5c0-0.8-0.6-1.4-1.3-1.4c-0.8,0-1.3,0.5-1.3,1.4
				c0,0.8,0.6,1.3,1.3,1.3C57.8,960.9,58.3,960.3,58.3,959.5z"/>
		</g>
		<g>
			<path class="st1" d="M69.4,955.1v2c-1.2-0.1-2.6,0.5-2.6,2.4v4.3h-1.9v-8.6h1.9v1.4C67.3,955.5,68.3,955.1,69.4,955.1z"/>
		</g>
		<g>
			<path class="st1" d="M74.6,962.3c1,0,1.8-0.5,2.2-1.1l1.5,0.9c-0.8,1.2-2.1,1.9-3.8,1.9c-2.8,0-4.7-1.9-4.7-4.5
				c0-2.5,1.8-4.5,4.5-4.5c2.6,0,4.3,2.1,4.3,4.5c0,0.3,0,0.5-0.1,0.8h-6.8C72.1,961.6,73.2,962.3,74.6,962.3z M76.9,958.8
				c-0.3-1.5-1.3-2.1-2.5-2.1c-1.4,0-2.3,0.8-2.6,2.1H76.9z"/>
		</g>
		<g>
			<path class="st1" d="M88.9,955.2v8.6h-1.9v-1.2c-0.7,0.9-1.7,1.5-3,1.5c-2.3,0-4.3-2-4.3-4.5c0-2.6,1.9-4.5,4.3-4.5
				c1.3,0,2.3,0.5,3,1.4v-1.2H88.9z M87.1,959.5c0-1.6-1.2-2.7-2.7-2.7c-1.5,0-2.7,1.1-2.7,2.7c0,1.6,1.2,2.7,2.7,2.7
				C85.9,962.3,87.1,961.1,87.1,959.5z"/>
		</g>
		<g>
			<path class="st1" d="M91.1,951.3H93v12.5h-1.9V951.3z"/>
		</g>
		<g>
			<path class="st1" d="M102.9,955.2l-3.3,8.6h-2.1l-3.3-8.6h2l2.4,6.5l2.4-6.5H102.9z"/>
		</g>
		<g>
			<path class="st1" d="M104.2,955.2h1.9v8.9c0,2.4-1.2,3.5-3.5,3.3v-1.8c1.1,0.1,1.7-0.3,1.7-1.5V955.2z M104,952.8
				c0-0.7,0.5-1.2,1.2-1.2c0.7,0,1.2,0.5,1.2,1.2c0,0.6-0.5,1.2-1.2,1.2C104.5,954,104,953.4,104,952.8z"/>
		</g>
		<g>
			<path class="st1" d="M116,955.2l-3.3,8.8c-0.8,2.2-2.2,3.3-4.2,3.2v-1.7c1.2,0.1,1.9-0.5,2.3-1.7l0.1-0.2l-3.6-8.4h2l2.6,6.2
				l2.2-6.2H116z"/>
		</g>
	</g>
	<g>
		<path class="st1" d="M211.9,938.7c0,2.1-1.5,3.8-3.6,3.8h-3v-7.6h3C210.4,934.9,211.9,936.6,211.9,938.7z M210.9,938.7
			c0-1.6-1.1-2.9-2.6-2.9h-2v5.7h2C209.8,941.6,210.9,940.3,210.9,938.7z"/>
		<path class="st1" d="M219.5,940.8h-3.4l-0.6,1.7h-1.1l2.8-7.6h1.1l2.8,7.6h-1.1L219.5,940.8z M219.2,939.9l-1.4-3.8l-1.4,3.8
			H219.2z"/>
		<path class="st1" d="M226.4,939.4v3.1h-1v-3.1l-2.7-4.5h1.1l2.1,3.6l2.1-3.6h1.1L226.4,939.4z"/>
		<path class="st1" d="M242,940.3c0,1.5-1.2,2.4-2.6,2.4c-1.1,0-2.1-0.5-2.5-1.6l0.9-0.5c0.2,0.8,0.8,1.1,1.7,1.1
			c0.9,0,1.6-0.5,1.6-1.4c0-0.9-0.7-1.4-1.6-1.4h-2.2l0.3-4h4.2v0.9h-3.3l-0.1,2h1.1C240.8,937.9,242,938.7,242,940.3z"/>
		<path class="st1" d="M249.6,934.9v0.9l-2.8,6.7h-1.1l2.8-6.7h-3.7v-1H249.6z"/>
	</g>
	<g>
		<path class="st1" d="M58.9,938.7c0,2.1-1.5,3.8-3.6,3.8h-3v-7.6h3C57.4,934.9,58.9,936.6,58.9,938.7z M57.9,938.7
			c0-1.6-1.1-2.9-2.6-2.9h-2v5.7h2C56.8,941.6,57.9,940.3,57.9,938.7z"/>
		<path class="st1" d="M67,941.6v1h-4.6v-7.6h4.5v1h-3.5v2.3h3.2v0.9h-3.2v2.4H67z"/>
		<path class="st1" d="M70,940.8l0.9-0.5c0.3,0.8,0.9,1.4,2,1.4c1.1,0,1.6-0.5,1.6-1.2c0-0.8-0.7-1-1.8-1.4
			c-1.2-0.4-2.4-0.8-2.4-2.2c0-1.4,1.1-2.2,2.4-2.2c1.3,0,2.2,0.7,2.6,1.7l-0.8,0.5c-0.3-0.7-0.8-1.2-1.7-1.2
			c-0.8,0-1.4,0.4-1.4,1.1c0,0.7,0.5,1,1.6,1.3c1.3,0.4,2.6,0.8,2.6,2.3c0,1.3-1.1,2.2-2.6,2.2C71.5,942.7,70.4,941.9,70,940.8z"/>
		<path class="st1" d="M80,934.9v7.6h-1v-7.6H80z"/>
		<path class="st1" d="M91.3,939.2c0,1.9-1.4,3.5-3.7,3.5c-2.4,0-4-1.8-4-4c0-2.2,1.7-4,4-4c1.4,0,2.7,0.8,3.3,1.8l-0.9,0.5
			c-0.4-0.8-1.4-1.4-2.4-1.4c-1.8,0-3,1.3-3,3c0,1.7,1.2,3,3,3c1.6,0,2.5-0.9,2.7-2h-2.8v-0.9h3.8V939.2z"/>
		<path class="st1" d="M100.6,934.9v7.6h-0.8l-3.9-5.7v5.7h-1v-7.6h0.8l3.9,5.7v-5.7H100.6z"/>
		<path class="st1" d="M109.1,941.6v1h-4.6v-7.6h4.5v1h-3.5v2.3h3.2v0.9h-3.2v2.4H109.1z"/>
		<path class="st1" d="M119.2,938.7c0,2.1-1.5,3.8-3.6,3.8h-3v-7.6h3C117.6,934.9,119.2,936.6,119.2,938.7z M118.2,938.7
			c0-1.6-1.1-2.9-2.6-2.9h-2v5.7h2C117.1,941.6,118.2,940.3,118.2,938.7z"/>
		<path class="st1" d="M133.2,940.4c0,1.2-1,2.2-2.2,2.2h-3.3v-7.6h3c1.2,0,2.1,0.9,2.1,2.1c0,0.7-0.3,1.2-0.8,1.6
			C132.7,938.9,133.2,939.5,133.2,940.4z M128.7,935.8v2.3h2c0.6,0,1.1-0.5,1.1-1.2c0-0.6-0.5-1.2-1.1-1.2H128.7z M132.2,940.3
			c0-0.7-0.5-1.2-1.2-1.2h-2.3v2.5h2.3C131.7,941.6,132.2,941,132.2,940.3z"/>
		<path class="st1" d="M139.4,939.4v3.1h-1v-3.1l-2.7-4.5h1.1l2.1,3.6l2.1-3.6h1.1L139.4,939.4z"/>
	</g>
	<g>
		<path class="st1" d="M209.9,959.8h-2.4v4.5h-2v-12.4h5c2.2,0,4,1.8,4,4c0,1.6-1,3-2.5,3.6l2.8,4.8h-2.2L209.9,959.8z M207.5,958
			h2.9c1.1,0,1.9-0.9,1.9-2.1c0-1.2-0.9-2.1-1.9-2.1h-2.9V958z"/>
		<path class="st1" d="M220.1,962.8c1.1,0,1.9-0.5,2.3-1.1l1.6,0.9c-0.8,1.2-2.1,1.9-3.9,1.9c-2.9,0-4.8-2-4.8-4.7
			c0-2.6,1.9-4.7,4.7-4.7c2.6,0,4.4,2.1,4.4,4.7c0,0.3,0,0.5-0.1,0.8h-7C217.5,962.1,218.6,962.8,220.1,962.8z M222.4,959.1
			c-0.3-1.5-1.4-2.2-2.5-2.2c-1.4,0-2.4,0.8-2.7,2.2H222.4z"/>
		<path class="st1" d="M234.9,955.4v8.9H233V963c-0.7,0.9-1.7,1.5-3.1,1.5c-2.4,0-4.4-2-4.4-4.7c0-2.6,2-4.7,4.4-4.7
			c1.4,0,2.4,0.6,3.1,1.5v-1.3H234.9z M233,959.9c0-1.6-1.2-2.8-2.8-2.8c-1.6,0-2.8,1.2-2.8,2.8c0,1.6,1.2,2.8,2.8,2.8
			C231.8,962.7,233,961.5,233,959.9z"/>
		<path class="st1" d="M246.1,951.9v12.4h-1.9V963c-0.7,0.9-1.7,1.5-3.1,1.5c-2.4,0-4.4-2-4.4-4.7c0-2.6,2-4.7,4.4-4.7
			c1.4,0,2.4,0.6,3.1,1.5v-4.8H246.1z M244.1,959.9c0-1.6-1.2-2.8-2.8-2.8c-1.6,0-2.8,1.2-2.8,2.8c0,1.6,1.2,2.8,2.8,2.8
			C242.9,962.7,244.1,961.5,244.1,959.9z"/>
		<path class="st1" d="M248,952.9c0-0.7,0.5-1.2,1.2-1.2c0.7,0,1.2,0.5,1.2,1.2c0,0.7-0.5,1.2-1.2,1.2
			C248.6,954.1,248,953.6,248,952.9z M248.3,955.4h1.9v8.9h-1.9V955.4z"/>
		<path class="st1" d="M260.5,958.9v5.4h-1.9v-5.2c0-1.3-0.8-2.1-2-2.1c-1.3,0-2.2,0.7-2.2,2.5v4.7h-1.9v-8.9h1.9v1.1
			c0.6-0.9,1.5-1.4,2.7-1.4C259,955.2,260.5,956.6,260.5,958.9z"/>
		<path class="st1" d="M271.4,955.4v8.4c0,2.8-2.2,4.2-4.5,4.2c-1.9,0-3.5-0.7-4.2-2.1l1.6-1c0.4,0.8,1,1.4,2.6,1.4
			c1.6,0,2.6-0.9,2.6-2.4v-1.1c-0.7,1-1.7,1.5-3.1,1.5c-2.5,0-4.5-2-4.5-4.6s2-4.6,4.5-4.6c1.4,0,2.4,0.6,3.1,1.5v-1.3H271.4z
			 M269.6,959.8c0-1.6-1.2-2.8-2.8-2.8c-1.6,0-2.8,1.2-2.8,2.8s1.2,2.8,2.8,2.8C268.4,962.6,269.6,961.4,269.6,959.8z"/>
		<path class="st1" d="M282.7,959.8h-2.4v4.5h-2v-12.4h5c2.2,0,4,1.8,4,4c0,1.6-1,3-2.5,3.6l2.8,4.8h-2.2L282.7,959.8z M280.3,958
			h2.9c1.1,0,1.9-0.9,1.9-2.1c0-1.2-0.9-2.1-1.9-2.1h-2.9V958z"/>
		<path class="st1" d="M288,959.9c0-2.6,2.1-4.7,4.7-4.7c2.6,0,4.7,2,4.7,4.7c0,2.6-2.1,4.7-4.7,4.7
			C290.1,964.5,288,962.5,288,959.9z M295.4,959.9c0-1.6-1.2-2.8-2.8-2.8s-2.8,1.2-2.8,2.8c0,1.6,1.2,2.8,2.8,2.8
			S295.4,961.5,295.4,959.9z"/>
		<path class="st1" d="M298.6,959.9c0-2.6,2.1-4.7,4.7-4.7c2.6,0,4.7,2,4.7,4.7c0,2.6-2.1,4.7-4.7,4.7
			C300.7,964.5,298.6,962.5,298.6,959.9z M306,959.9c0-1.6-1.2-2.8-2.8-2.8s-2.8,1.2-2.8,2.8c0,1.6,1.2,2.8,2.8,2.8
			S306,961.5,306,959.9z"/>
		<path class="st1" d="M322.7,958.8v5.5h-1.9v-5.4c0-1.2-0.7-1.9-1.7-1.9c-1.1,0-1.9,0.7-1.9,2.3v5h-1.9v-5.4c0-1.2-0.6-1.9-1.7-1.9
			c-1.1,0-2,0.7-2,2.3v5h-1.9v-8.9h1.9v1.1c0.6-0.9,1.4-1.3,2.5-1.3c1.2,0,2,0.5,2.5,1.4c0.6-0.9,1.5-1.4,2.7-1.4
			C321.3,955.2,322.7,956.6,322.7,958.8z"/>
	</g>
	<g>
		<g>
			<g>
				<path class="st1" d="M846.1,938.7c0,2.1-1.5,3.8-3.6,3.8h-3v-7.6h3C844.6,934.9,846.1,936.6,846.1,938.7z M845.2,938.7
					c0-1.6-1.1-2.9-2.6-2.9h-2v5.7h2C844.1,941.6,845.2,940.3,845.2,938.7z"/>
			</g>
			<g>
				<path class="st1" d="M849.3,938.7c0-2.2,1.7-4,3.9-4c2.2,0,4,1.8,4,4c0,2.2-1.7,4-4,4C851,942.7,849.3,940.9,849.3,938.7z
					 M856.1,938.7c0-1.7-1.3-3-2.9-3c-1.7,0-2.9,1.3-2.9,3c0,1.7,1.3,3,2.9,3C854.9,941.7,856.1,940.4,856.1,938.7z"/>
			</g>
			<g>
				<path class="st1" d="M859.8,934.9h1.1l1.7,6.3l1.9-6.3h1l1.9,6.3l1.7-6.3h1.1l-2.2,7.6h-1.2l-1.8-6.1l-1.8,6.1H862L859.8,934.9z
					"/>
			</g>
			<g>
				<path class="st1" d="M879.3,934.9v7.6h-0.8l-3.9-5.7v5.7h-1v-7.6h0.8l3.9,5.7v-5.7H879.3z"/>
			</g>
			<g>
				<path class="st1" d="M887.5,941.6v1h-4.3v-7.6h1v6.7H887.5z"/>
			</g>
			<g>
				<path class="st1" d="M889.9,938.7c0-2.2,1.7-4,3.9-4c2.2,0,4,1.8,4,4c0,2.2-1.7,4-4,4C891.6,942.7,889.9,940.9,889.9,938.7z
					 M896.8,938.7c0-1.7-1.3-3-2.9-3c-1.7,0-2.9,1.3-2.9,3c0,1.7,1.3,3,2.9,3C895.5,941.7,896.8,940.4,896.8,938.7z"/>
			</g>
			<g>
				<path class="st1" d="M905.4,940.8H902l-0.6,1.7h-1.1l2.8-7.6h1.1l2.8,7.6H906L905.4,940.8z M905.1,939.9l-1.4-3.8l-1.4,3.8
					H905.1z"/>
			</g>
			<g>
				<path class="st1" d="M916.9,938.7c0,2.1-1.5,3.8-3.6,3.8h-3v-7.6h3C915.4,934.9,916.9,936.6,916.9,938.7z M915.9,938.7
					c0-1.6-1.1-2.9-2.6-2.9h-2v5.7h2C914.9,941.6,915.9,940.3,915.9,938.7z"/>
			</g>
			<g>
				<path class="st1" d="M926.5,935.8v2.5h3.2v1h-3.2v3.2h-1v-7.6h4.4v1H926.5z"/>
			</g>
			<g>
				<path class="st1" d="M936.2,939.6h-1.8v2.9h-1v-7.6h3c1.3,0,2.4,1.1,2.4,2.4c0,1-0.7,1.9-1.6,2.2l1.8,3.1h-1.1L936.2,939.6z
					 M934.4,938.7h2c0.8,0,1.4-0.6,1.4-1.4c0-0.8-0.6-1.4-1.4-1.4h-2V938.7z"/>
			</g>
			<g>
				<path class="st1" d="M941.9,938.7c0-2.2,1.7-4,3.9-4c2.2,0,4,1.8,4,4c0,2.2-1.7,4-4,4C943.6,942.7,941.9,940.9,941.9,938.7z
					 M948.8,938.7c0-1.7-1.3-3-2.9-3c-1.7,0-2.9,1.3-2.9,3c0,1.7,1.3,3,2.9,3C947.5,941.7,948.8,940.4,948.8,938.7z"/>
			</g>
			<g>
				<path class="st1" d="M960.4,942.5h-1v-6l-2.5,4.2h-0.1l-2.5-4.1v5.9h-1v-7.6h1.1l2.4,4l2.4-4h1.1V942.5z"/>
			</g>
		</g>
		<g>
			<g>
				<path class="st1" d="M839.3,952.9c0-0.7,0.5-1.2,1.2-1.2c0.7,0,1.2,0.5,1.2,1.2c0,0.7-0.5,1.2-1.2,1.2
					C839.9,954.1,839.3,953.6,839.3,952.9z M839.6,955.4h1.9v8.9h-1.9V955.4z"/>
			</g>
			<g>
				<path class="st1" d="M843.7,951.4h1.9v12.9h-1.9V951.4z"/>
			</g>
			<g>
				<path class="st1" d="M847.8,951.4h1.9v12.9h-1.9V951.4z"/>
			</g>
			<g>
				<path class="st1" d="M852,951.4h1.9v12.9H852V951.4z"/>
			</g>
			<g>
				<path class="st1" d="M864,955.4v8.9h-1.9v-1.1c-0.6,0.9-1.5,1.4-2.7,1.4c-2,0-3.4-1.3-3.4-3.6v-5.4h1.9v5.2c0,1.3,0.8,2.1,2,2.1
					c1.3,0,2.2-0.7,2.2-2.5v-4.7H864z"/>
			</g>
			<g>
				<path class="st1" d="M872.6,961.8c0,1.8-1.5,2.7-3.5,2.7c-1.8,0-3-0.8-3.6-2.1l1.6-1c0.3,0.8,1,1.3,2,1.3c0.8,0,1.5-0.3,1.5-1
					c0-1.6-4.8-0.7-4.8-3.9c0-1.7,1.4-2.7,3.2-2.7c1.5,0,2.7,0.7,3.3,1.8l-1.6,0.9c-0.3-0.7-0.9-1-1.7-1c-0.7,0-1.3,0.3-1.3,0.9
					C867.9,959.5,872.6,958.5,872.6,961.8z"/>
			</g>
			<g>
				<path class="st1" d="M876.7,957.3v4.2c0,1.1,0.7,1.1,2.2,1v1.7c-2.9,0.4-4.1-0.5-4.1-2.8v-4.2h-1.6v-1.8h1.6v-1.9l1.9-0.6v2.5
					h2.2v1.8H876.7z"/>
			</g>
			<g>
				<path class="st1" d="M885.4,955.3v2.1c-1.3-0.1-2.7,0.5-2.7,2.5v4.5h-1.9v-8.9h1.9v1.5C883.2,955.7,884.2,955.3,885.4,955.3z"/>
			</g>
			<g>
				<path class="st1" d="M895.3,955.4v8.9h-1.9V963c-0.7,0.9-1.7,1.5-3.1,1.5c-2.4,0-4.4-2-4.4-4.7c0-2.6,2-4.7,4.4-4.7
					c1.4,0,2.4,0.6,3.1,1.5v-1.3H895.3z M893.4,959.9c0-1.6-1.2-2.8-2.8-2.8c-1.6,0-2.8,1.2-2.8,2.8c0,1.6,1.2,2.8,2.8,2.8
					C892.2,962.7,893.4,961.5,893.4,959.9z"/>
			</g>
			<g>
				<path class="st1" d="M900.3,957.3v4.2c0,1.1,0.7,1.1,2.2,1v1.7c-2.9,0.4-4.1-0.5-4.1-2.8v-4.2h-1.6v-1.8h1.6v-1.9l1.9-0.6v2.5
					h2.2v1.8H900.3z"/>
			</g>
			<g>
				<path class="st1" d="M903.9,952.9c0-0.7,0.5-1.2,1.2-1.2c0.7,0,1.2,0.5,1.2,1.2c0,0.7-0.5,1.2-1.2,1.2
					C904.5,954.1,903.9,953.6,903.9,952.9z M904.2,955.4h1.9v8.9h-1.9V955.4z"/>
			</g>
			<g>
				<path class="st1" d="M907.8,959.9c0-2.6,2.1-4.7,4.7-4.7c2.6,0,4.7,2,4.7,4.7c0,2.6-2.1,4.7-4.7,4.7
					C909.9,964.5,907.8,962.5,907.8,959.9z M915.3,959.9c0-1.6-1.2-2.8-2.8-2.8c-1.6,0-2.8,1.2-2.8,2.8c0,1.6,1.2,2.8,2.8,2.8
					C914.1,962.7,915.3,961.5,915.3,959.9z"/>
			</g>
			<g>
				<path class="st1" d="M927,958.9v5.4h-1.9v-5.2c0-1.3-0.8-2.1-2-2.1c-1.3,0-2.2,0.7-2.2,2.5v4.7h-1.9v-8.9h1.9v1.1
					c0.6-0.9,1.5-1.4,2.7-1.4C925.5,955.2,927,956.6,927,958.9z"/>
			</g>
			<g>
				<path class="st1" d="M935.5,961.8c0,1.8-1.5,2.7-3.5,2.7c-1.8,0-3-0.8-3.6-2.1l1.6-1c0.3,0.8,1,1.3,2,1.3c0.8,0,1.5-0.3,1.5-1
					c0-1.6-4.8-0.7-4.8-3.9c0-1.7,1.4-2.7,3.2-2.7c1.5,0,2.7,0.7,3.3,1.8l-1.6,0.9c-0.3-0.7-0.9-1-1.7-1c-0.7,0-1.3,0.3-1.3,0.9
					C930.7,959.5,935.5,958.5,935.5,961.8z"/>
			</g>
			<g>
				<path class="st1" d="M936.8,963.2c0-0.7,0.6-1.3,1.3-1.3c0.7,0,1.3,0.6,1.3,1.3c0,0.7-0.6,1.3-1.3,1.3
					C937.4,964.5,936.8,963.9,936.8,963.2z"/>
			</g>
			<g>
				<path class="st1" d="M940.3,959.9c0-2.6,2-4.7,4.7-4.7c1.7,0,3.2,0.9,3.9,2.3l-1.6,1c-0.4-0.8-1.3-1.4-2.3-1.4
					c-1.6,0-2.7,1.2-2.7,2.8c0,1.6,1.2,2.8,2.7,2.8c1.1,0,1.9-0.5,2.4-1.4l1.6,0.9c-0.7,1.4-2.2,2.3-4,2.3
					C942.3,964.5,940.3,962.5,940.3,959.9z"/>
			</g>
			<g>
				<path class="st1" d="M949.7,959.9c0-2.6,2.1-4.7,4.7-4.7c2.6,0,4.7,2,4.7,4.7c0,2.6-2.1,4.7-4.7,4.7
					C951.8,964.5,949.7,962.5,949.7,959.9z M957.2,959.9c0-1.6-1.2-2.8-2.8-2.8s-2.8,1.2-2.8,2.8c0,1.6,1.2,2.8,2.8,2.8
					S957.2,961.5,957.2,959.9z"/>
			</g>
		</g>
	</g>
</g>
<g id="XMLID_2_" class="st2">
	<polyline id="XMLID_134_" class="st3" points="291.1,587.4 291.1,618.4 229.3,618.4 	"/>
	<polyline id="XMLID_103_" class="st3" points="353,618.4 291.1,618.4 291.1,587.4 	"/>
	<rect id="XMLID_157_" x="260.2" y="618.4" class="st3" width="61.9" height="30.9"/>
	<polyline id="XMLID_161_" class="st3" points="308.7,680.2 291.1,680.2 291.1,649.3 353,649.3 	"/>
	<polyline id="XMLID_102_" class="st3" points="229.3,649.3 291.1,649.3 291.1,680.2 241,680.2 	"/>
	<polyline id="XMLID_165_" class="st3" points="208.2,618.4 260.2,618.4 260.2,649.3 229.3,649.3 	"/>
	<polyline id="XMLID_156_" class="st3" points="366.7,649.3 322.1,649.3 322.1,618.4 343.5,618.4 	"/>
</g>
<g id="XMLID_10_" class="st2">
	<polyline id="XMLID_101_" class="st3" points="875.3,414.5 875.3,445.5 937.2,445.5 	"/>
	<polyline id="XMLID_100_" class="st3" points="813.4,445.5 875.3,445.5 875.3,414.5 	"/>
	
		<rect id="XMLID_99_" x="844.4" y="445.5" transform="matrix(-1 -4.488555e-11 4.488555e-11 -1 1750.6226 921.8336)" class="st3" width="61.9" height="30.9"/>
	<polyline id="XMLID_98_" class="st3" points="857.7,507.3 875.3,507.3 875.3,476.4 813.4,476.4 	"/>
	<polyline id="XMLID_97_" class="st3" points="937.2,476.4 875.3,476.4 875.3,507.3 898.5,507.3 	"/>
	<polyline id="XMLID_91_" class="st3" points="958.3,445.5 906.2,445.5 906.2,476.4 937.2,476.4 	"/>
	<polyline id="XMLID_86_" class="st3" points="799.7,476.4 844.4,476.4 844.4,445.5 822.9,445.5 	"/>
</g>
<g id="XMLID_104_" class="st2">
	<polyline id="XMLID_112_" class="st3" points="129.8,425.5 129.8,394.5 67.9,394.5 	"/>
	<polyline id="XMLID_111_" class="st3" points="191.6,394.5 129.8,394.5 129.8,425.5 	"/>
	<rect id="XMLID_110_" x="98.8" y="363.6" class="st3" width="61.9" height="30.9"/>
	<polyline id="XMLID_109_" class="st3" points="147.3,332.7 129.8,332.7 129.8,363.6 191.6,363.6 	"/>
	<polyline id="XMLID_108_" class="st3" points="67.9,363.6 129.8,363.6 129.8,332.7 79.6,332.7 	"/>
	<polyline id="XMLID_107_" class="st3" points="46.8,394.5 98.8,394.5 98.8,363.6 67.9,363.6 	"/>
	<polyline id="XMLID_106_" class="st3" points="205.3,363.6 160.7,363.6 160.7,394.5 182.1,394.5 	"/>
</g>
<line id="XMLID_25_" class="st4" x1="201" y1="713" x2="201" y2="337.9"/>
<rect id="XMLID_77_" x="417.9" y="625.7" class="st5" width="21.8" height="90.3"/>
<rect id="XMLID_26_" x="417.9" y="625.7" class="st6" width="21.8" height="26.6"/>
<rect id="XMLID_18_" x="417.9" y="625.7" class="st7" width="21.8" height="90.3"/>
<path id="XMLID_69_" class="st8" d="M475.6,382.1h-93.6c-16.2,0-31.6,6.7-42.5,18.7c-23.6,26-38.3,62.2-38.3,102.3
	c0,15.8,2.3,31,6.5,45.2h242.1c4.2-14.2,6.5-29.4,6.5-45.2c0-40.1-14.7-76.3-38.3-102.3C507.2,388.8,491.8,382.1,475.6,382.1z"/>
<path id="XMLID_83_" class="st9" d="M475.6,382.1h-93.6c-16.2,0-31.6,6.7-42.5,18.7c-23.6,26-38.3,62.2-38.3,102.3
	c0,15.8,2.3,31,6.5,45.2h242.1c4.2-14.2,6.5-29.4,6.5-45.2c0-40.1-14.7-76.3-38.3-102.3C507.2,388.8,491.8,382.1,475.6,382.1z"/>
<path id="XMLID_87_" class="st10" d="M519.4,397.8c-11-12-26.7-18.7-43.1-18.7h-95c-16.4,0-32.1,6.7-43.1,18.7
	c-24,26-38.9,62.2-38.9,102.3c0,15.8,2.3,31,6.6,45.2h7.2c-3.5-12.5-5.5-25.8-5.5-39.7c0-37.5,13.9-71.4,36.3-95.7
	c10.3-11.2,25-17.5,40.3-17.5h88.8c15.3,0,30,6.3,40.3,17.5c22.4,24.3,36.3,58.2,36.3,95.7c0,13.8-1.9,27.1-5.5,39.7h7.2
	c4.3-14.2,6.6-29.4,6.6-45.2C558.3,460,543.4,423.8,519.4,397.8z"/>
<path id="XMLID_13_" class="st7" d="M475.6,382.1h-93.6c-16.2,0-31.6,6.7-42.5,18.7c-23.6,26-38.3,62.2-38.3,102.3
	c0,15.8,2.3,31,6.5,45.2h242.1c4.2-14.2,6.5-29.4,6.5-45.2c0-40.1-14.7-76.3-38.3-102.3C507.2,388.8,491.8,382.1,475.6,382.1z"/>
<path id="XMLID_17_" class="st11" d="M262.9,485.9l42.1-17.5c0,0,19.3,10.2,39.3,30.2c20.9,20.9,22.1,37.9,22.1,37.9l-31.8,26.8
	L262.9,485.9z"/>
<path id="XMLID_67_" class="st12" d="M262.9,485.9l42.1-17.5c0,0,19.3,10.2,39.3,30.2c20.9,20.9,22.1,37.9,22.1,37.9l-31.8,26.8
	L262.9,485.9z"/>
<path id="XMLID_92_" class="st10" d="M272.2,495.2l42.1-17.5c0,0,16,8.5,33.9,25.1c-1.2-1.4-2.5-2.8-4-4.2
	c-20-20-39.3-30.2-39.3-30.2l-42.1,17.5l71.8,77.4l0.4-0.3L272.2,495.2z"/>
<path id="XMLID_9_" class="st7" d="M262.9,485.9l42.1-17.5c0,0,19.3,10.2,39.3,30.2c20.9,20.9,22.1,37.9,22.1,37.9l-31.8,26.8
	L262.9,485.9z"/>
<path id="XMLID_68_" class="st12" d="M594.9,485.9l-42.1-17.5c0,0-19.3,10.2-39.3,30.2c-20.9,20.9-22.1,37.9-22.1,37.9l31.8,26.8
	L594.9,485.9z"/>
<path id="XMLID_94_" class="st10" d="M552.8,468.4c0,0-18.8,9.9-38.5,29.4c15-12.6,27.1-19.1,27.1-19.1l42.1,17.5l-61.4,66.3l1,0.8
	l71.8-77.4L552.8,468.4z"/>
<path id="XMLID_16_" class="st7" d="M594.9,485.9l-42.1-17.5c0,0-19.3,10.2-39.3,30.2c-20.9,20.9-22.1,37.9-22.1,37.9l31.8,26.8
	L594.9,485.9z"/>
<line id="XMLID_124_" class="st7" x1="879" y1="726" x2="893" y2="726"/>
<line id="XMLID_126_" class="st7" x1="910" y1="726" x2="917" y2="726"/>
<line id="XMLID_125_" class="st7" x1="569" y1="726" x2="863" y2="726"/>
<line id="XMLID_105_" class="st7" x1="103" y1="726" x2="554.6" y2="726"/>
<path id="XMLID_14_" class="st13" d="M493.9,527.5c-18.8,3.8-41.1,6-65.1,6s-46.3-2.2-65.1-6c-13.8,8.2-22.3,19.1-22.3,30.9
	c0,25.6,39.1,46.4,87.3,46.4s87.3-20.8,87.3-46.4C516.2,546.6,507.7,535.8,493.9,527.5z"/>
<path id="XMLID_95_" class="st14" d="M428.8,573.9c-38.7,0-71.8-9.9-86.1-24c-0.8,2.5-1.2,5-1.2,7.6c0,25.6,39.1,46.4,87.3,46.4
	s87.3-20.8,87.3-46.4c0-2.6-0.4-5.1-1.2-7.6C500.7,564,467.5,573.9,428.8,573.9z"/>
<path id="XMLID_15_" class="st15" d="M493.9,527.5c-18.8,3.8-41.1,6-65.1,6s-46.3-2.2-65.1-6c-13.8,8.2-22.3,19.1-22.3,30.9
	c0,25.6,39.1,46.4,87.3,46.4s87.3-20.8,87.3-46.4C516.2,546.6,507.7,535.8,493.9,527.5z"/>
<path id="XMLID_64_" class="st7" d="M493.9,527.5c-18.8,3.8-41.1,6-65.1,6s-46.3-2.2-65.1-6c-13.8,8.2-22.3,19.1-22.3,30.9
	c0,25.6,39.1,46.4,87.3,46.4s87.3-20.8,87.3-46.4C516.2,546.6,507.7,535.8,493.9,527.5z"/>
<path id="XMLID_6_" class="st9" d="M428.8,585c-60.2,0-114.3-36.9-152.1-95.8c-1.9-3-5.2-4.7-8.7-4.7h0c-7.6,0-12.7,8-9.4,14.8
	c37.2,78,99.6,129.1,170.2,129.1s133-51.1,170.2-129.1c3.3-6.9-1.8-14.8-9.4-14.8l0,0c-3.5,0-6.8,1.8-8.7,4.7
	C543.2,548.1,489,585,428.8,585z"/>
<path id="XMLID_96_" class="st10" d="M428.8,595.8c63.6,0,121-42.6,161.9-111.2c-0.4,0-0.7-0.1-1.1-0.1c-3.5,0-6.8,1.8-8.7,4.7
	C543.2,548.1,489,585,428.8,585c-60.2,0-114.3-36.9-152.1-95.8c-1.9-3-5.2-4.7-8.7-4.7h0c-0.4,0-0.8,0-1.1,0.1
	C307.9,553.2,365.3,595.8,428.8,595.8z"/>
<path id="XMLID_89_" class="st16" d="M596.7,487.3c-0.1,0.2-0.1,0.4-0.2,0.6c-36.7,78-98.1,129.1-167.7,129.1s-131-51.1-167.7-129.1
	c-0.1-0.2-0.1-0.4-0.2-0.6c-3.1,2.9-4.4,7.7-2.3,12.1c37.2,78,99.6,129.1,170.2,129.1s133-51.1,170.2-129.1
	C601.1,495,599.9,490.3,596.7,487.3z"/>
<path id="XMLID_11_" class="st7" d="M428.8,585c-60.2,0-114.3-36.9-152.1-95.8c-1.9-3-5.2-4.7-8.7-4.7h0c-7.6,0-12.7,8-9.4,14.8
	c37.2,78,99.6,129.1,170.2,129.1s133-51.1,170.2-129.1c3.3-6.9-1.8-14.8-9.4-14.8l0,0c-3.5,0-6.8,1.8-8.7,4.7
	C543.2,548.1,489,585,428.8,585z"/>
<path id="XMLID_78_" class="st17" d="M493.5,726H364.2c-2.9,0-5.3-2.4-5.3-5.3l0,0c0-2.9,2.4-5.3,5.3-5.3h129.4
	c2.9,0,5.3,2.4,5.3,5.3l0,0C498.8,723.6,496.5,726,493.5,726z"/>
<path id="XMLID_19_" class="st7" d="M493.5,726H364.2c-2.9,0-5.3-2.4-5.3-5.3l0,0c0-2.9,2.4-5.3,5.3-5.3h129.4
	c2.9,0,5.3,2.4,5.3,5.3l0,0C498.8,723.6,496.5,726,493.5,726z"/>
<polygon id="XMLID_79_" class="st18" points="276,337.9 126.1,337.9 150.4,211 251.7,211 "/>
<polygon id="XMLID_129_" class="st19" points="249.7,211 238.7,211 257,337.9 274,337.9 "/>
<polygon id="XMLID_90_" class="st20" points="150.4,211 126.1,337.9 172,337.9 181.8,211 "/>
<polygon id="XMLID_22_" class="st7" points="276,337.9 126.1,337.9 150.4,211 251.7,211 "/>
<path id="XMLID_80_" class="st21" d="M253.5,726h-105l0,0c0-14.4,11.6-26,26-26h53C241.9,700,253.5,711.6,253.5,726L253.5,726z"/>
<path id="XMLID_93_" class="st22" d="M199.9,700h-25.3c-14.4,0-26,11.6-26,26v0h25.3v0C173.9,711.6,185.5,700,199.9,700z"/>
<path id="XMLID_24_" class="st15" d="M253.5,726h-105l0,0c0-14.4,11.6-26,26-26h53C241.9,700,253.5,711.6,253.5,726L253.5,726z"/>
<path id="XMLID_84_" class="st15" d="M253.5,726h-105l0,0c0-14.4,11.6-26,26-26h53C241.9,700,253.5,711.6,253.5,726L253.5,726z"/>
<path id="XMLID_85_" class="st7" d="M253.5,726h-105l0,0c0-14.4,11.6-26,26-26h53C241.9,700,253.5,711.6,253.5,726L253.5,726z"/>
<line id="XMLID_27_" class="st23" x1="240.7" y1="337.9" x2="240.7" y2="424.5"/>
<path id="XMLID_81_" class="st1" d="M243.3,454H238c-3.1,0-5.6-2.5-5.6-5.6v-18.3c0-3.1,2.5-5.6,5.6-5.6h5.3c3.1,0,5.6,2.5,5.6,5.6
	v18.3C248.9,451.5,246.4,454,243.3,454z"/>
<rect id="XMLID_70_" x="307.3" y="177.5" class="st11" width="123.3" height="125.3"/>
<rect id="XMLID_28_" x="307.3" y="177.5" class="st7" width="123.3" height="125.3"/>
<rect id="XMLID_71_" x="325.7" y="195.7" transform="matrix(-1.836970e-16 1 -1 -1.836970e-16 609.0551 -128.7493)" class="st24" width="86.5" height="88.9"/>
<rect id="XMLID_114_" x="325.7" y="195.7" transform="matrix(-1.836970e-16 1 -1 -1.836970e-16 609.0551 -128.7493)" class="st25" width="86.5" height="88.9"/>
<rect id="XMLID_72_" x="460.6" y="137.5" class="st11" width="108.6" height="77.8"/>
<rect id="XMLID_30_" x="460.6" y="137.5" class="st7" width="108.6" height="77.8"/>
<rect id="XMLID_74_" x="492" y="138" transform="matrix(-1.836970e-16 1 -1 -1.836970e-16 691.3517 -338.5542)" class="st21" width="45.9" height="76.7"/>
<rect id="XMLID_73_" x="460.6" y="248.7" class="st11" width="79.6" height="104.5"/>
<rect id="XMLID_76_" x="464.1" y="277.1" transform="matrix(-1.836970e-16 1 -1 -1.836970e-16 801.4083 -199.4456)" class="st26" width="72.6" height="47.7"/>
<rect id="XMLID_122_" x="492" y="138" transform="matrix(-1.836970e-16 1 -1 -1.836970e-16 691.3517 -338.5542)" class="st25" width="45.9" height="76.7"/>
<rect id="XMLID_115_" x="464.1" y="277.1" transform="matrix(-1.836970e-16 1 -1 -1.836970e-16 801.4083 -199.4456)" class="st25" width="72.6" height="47.7"/>
<rect id="XMLID_31_" x="460.6" y="248.7" class="st7" width="79.6" height="104.5"/>
<circle id="XMLID_4_" class="st10" cx="426" cy="465.2" r="11.1"/>
<circle id="XMLID_75_" class="st27" cx="426" cy="465.2" r="11.1"/>
<line id="XMLID_113_" class="st28" x1="363.3" y1="774.6" x2="442.5" y2="774.6"/>
<line id="XMLID_3_" class="st28" x1="328.5" y1="774.6" x2="345.8" y2="774.6"/>
<path id="XMLID_82_" class="st29" d="M244.7,436.9L244.7,436.9c-0.8,0-1.5-0.7-1.5-1.5v-4.9c0-0.8,0.7-1.5,1.5-1.5l0,0
	c0.8,0,1.5,0.7,1.5,1.5v4.9C246.2,436.2,245.5,436.9,244.7,436.9z"/>
<g>
	<rect id="XMLID_35_" x="687.1" y="701" class="st1" width="30" height="24"/>
	<rect id="XMLID_5_" x="687.1" y="701" class="st7" width="30" height="24"/>
	<rect id="XMLID_36_" x="800.5" y="701" class="st1" width="30" height="24"/>
	<rect id="XMLID_23_" x="800.5" y="701" class="st7" width="30" height="24"/>
	
		<rect id="XMLID_12_" x="498.3" y="344.5" transform="matrix(-1.836970e-16 1 -1 -1.836970e-16 1200.2998 -317.2997)" class="st30" width="521" height="194"/>
	<rect id="XMLID_117_" x="664.7" y="182.7" class="st31" width="186.7" height="6"/>
	<rect id="XMLID_116_" x="661" y="689.5" class="st32" width="194.8" height="12.5"/>
	<rect id="XMLID_34_" x="679.8" y="199" class="st5" width="158" height="474"/>
	<polygon id="XMLID_88_" class="st33" points="836.8,221.7 836.8,203 697.3,203 678.8,203 678.8,221.7 678.8,373.7 678.8,392.3 
		678.8,532.5 678.8,551.2 678.8,677 697.3,677 697.3,551.2 836.8,551.2 836.8,532.5 697.3,532.5 697.3,392.3 836.8,392.3 
		836.8,373.7 697.3,373.7 697.3,221.7 	"/>
	
		<rect id="XMLID_21_" x="498.3" y="344.5" transform="matrix(-1.836970e-16 1 -1 -1.836970e-16 1200.2998 -317.2997)" class="st7" width="521" height="194"/>
	<rect id="XMLID_1_" x="679.8" y="515" class="st15" width="158" height="158"/>
	<rect id="XMLID_7_" x="679.8" y="357" class="st15" width="158" height="158"/>
	<rect id="XMLID_8_" x="679.8" y="199" class="st15" width="158" height="158"/>
	<rect id="XMLID_20_" x="679.8" y="199" class="st7" width="158" height="474"/>
	<rect id="XMLID_37_" x="809.8" y="240.3" class="st34" width="28" height="111.5"/>
	<rect id="XMLID_29_" x="809.8" y="240.3" class="st7" width="28" height="111.5"/>
	
		<rect id="XMLID_46_" x="740.1" y="445" transform="matrix(4.742524e-11 -1 1 4.742524e-11 252.6325 1254.0908)" class="st34" width="26.5" height="111.5"/>
	
		<rect id="XMLID_45_" x="740.1" y="445" transform="matrix(4.742524e-11 -1 1 4.742524e-11 252.6325 1254.0908)" class="st7" width="26.5" height="111.5"/>
	
		<rect id="XMLID_48_" x="754.8" y="418.4" transform="matrix(4.742524e-11 -1 1 4.742524e-11 293.8624 1242.2375)" class="st35" width="26.5" height="111.5"/>
	
		<rect id="XMLID_47_" x="754.8" y="418.4" transform="matrix(4.742524e-11 -1 1 4.742524e-11 293.8624 1242.2375)" class="st7" width="26.5" height="111.5"/>
	
		<rect id="XMLID_50_" x="743" y="394.3" transform="matrix(5.689233e-11 -1 1 5.689233e-11 303.9874 1204.1124)" class="st34" width="22.1" height="111.5"/>
	
		<rect id="XMLID_49_" x="743" y="394.3" transform="matrix(5.689233e-11 -1 1 5.689233e-11 303.9874 1204.1124)" class="st7" width="22.1" height="111.5"/>
	<line id="XMLID_38_" class="st7" x1="809.8" y1="268" x2="837.8" y2="268"/>
	<rect id="XMLID_33_" x="786" y="248.5" class="st36" width="23.8" height="103.3"/>
	<rect id="XMLID_40_" x="786" y="248.5" class="st7" width="23.8" height="103.3"/>
	<line id="XMLID_39_" class="st7" x1="786" y1="274.1" x2="809.8" y2="274.1"/>
	
		<rect id="XMLID_60_" x="769.1" y="553.9" transform="matrix(0.9564 0.2922 -0.2922 0.9564 212.2179 -201.7768)" class="st37" width="25.2" height="111.5"/>
	
		<rect id="XMLID_57_" x="769.1" y="553.9" transform="matrix(0.9564 0.2922 -0.2922 0.9564 212.2179 -201.7768)" class="st7" width="25.2" height="111.5"/>
	<line id="XMLID_56_" class="st7" x1="777.9" y1="579.1" x2="801.9" y2="586.4"/>
	
		<rect id="XMLID_61_" x="745.8" y="560.7" transform="matrix(0.9564 0.2922 -0.2922 0.9564 211.9086 -194.2993)" class="st38" width="21.4" height="103.3"/>
	
		<rect id="XMLID_55_" x="745.8" y="560.7" transform="matrix(0.9564 0.2922 -0.2922 0.9564 211.9086 -194.2993)" class="st7" width="21.4" height="103.3"/>
	<line id="XMLID_54_" class="st7" x1="753.9" y1="584.3" x2="774.3" y2="590.6"/>
	
		<rect id="XMLID_41_" x="795.2" y="558.8" transform="matrix(0.9564 0.2922 -0.2922 0.9564 213.8577 -208.7572)" class="st34" width="21.4" height="105.6"/>
	
		<rect id="XMLID_59_" x="795.2" y="558.8" transform="matrix(0.9564 0.2922 -0.2922 0.9564 213.8577 -208.7572)" class="st7" width="21.4" height="105.6"/>
	<line id="XMLID_58_" class="st7" x1="803.4" y1="583.1" x2="823.9" y2="589.3"/>
	
		<rect id="XMLID_44_" x="739.6" y="254.2" transform="matrix(0.866 0.5 -0.5 0.866 251.968 -334.8151)" class="st39" width="22.4" height="97.3"/>
	
		<rect id="XMLID_43_" x="739.6" y="254.2" transform="matrix(0.866 0.5 -0.5 0.866 251.968 -334.8151)" class="st7" width="22.4" height="97.3"/>
	<line id="XMLID_42_" class="st7" x1="753.4" y1="276" x2="772.8" y2="287.2"/>
	<line id="XMLID_51_" class="st7" x1="741.7" y1="461.1" x2="741.7" y2="487.5"/>
	<line id="XMLID_52_" class="st7" x1="723.3" y1="439" x2="723.3" y2="460.9"/>
	<line id="XMLID_53_" class="st7" x1="726.2" y1="487.5" x2="726.2" y2="514"/>
	<rect id="XMLID_63_" x="679.8" y="356.7" class="st30" width="158" height="17.3"/>
	<rect id="XMLID_62_" x="679.8" y="356.7" class="st7" width="158" height="14.8"/>
	<rect id="XMLID_66_" x="679.8" y="514" class="st40" width="158" height="17.3"/>
	<rect id="XMLID_65_" x="679.8" y="514" class="st7" width="158" height="15"/>
	<rect id="XMLID_119_" x="678.8" y="521.5" class="st30" width="159" height="151.5"/>
	<rect id="XMLID_120_" x="678.8" y="660.9" class="st32" width="159" height="12.1"/>
	<rect id="XMLID_123_" x="678.8" y="525.3" class="st41" width="159" height="7.2"/>
	<rect id="XMLID_118_" x="679.8" y="521.5" class="st7" width="158" height="151.5"/>
	<line id="XMLID_121_" class="st42" x1="802.2" y1="564.2" x2="802.2" y2="630.3"/>
</g>
</svg>
