<?xml version="1.0" encoding="utf-8"?>
<!-- Generator: Adobe Illustrator 23.1.1, SVG Export Plug-In . SVG Version: 6.00 Build 0)  -->
<svg version="1.1" id="Layer_1" xmlns="http://www.w3.org/2000/svg" xmlns:xlink="http://www.w3.org/1999/xlink" x="0px" y="0px"
	 viewBox="0 0 1000 1000" style="enable-background:new 0 0 1000 1000;" xml:space="preserve">
<style type="text/css">
	.st0{fill:#07B594;}
	.st1{fill:#EEF2F4;}
	.st2{fill:#0A7362;stroke:#0A7362;stroke-width:8;stroke-linecap:round;stroke-linejoin:round;stroke-miterlimit:10;}
	.st3{fill:none;stroke:#0A7362;stroke-width:8;stroke-linecap:round;stroke-linejoin:round;stroke-miterlimit:10;}
	.st4{fill:#102D3B;}
	.st5{fill:#4C5B60;}
	.st6{fill:#3E4B4F;}
	.st7{opacity:0.3;fill:#CCDDE5;enable-background:new    ;}
	.st8{opacity:0.11;clip-path:url(#XMLID_58_);}
	.st9{fill:none;stroke:#102D3B;stroke-width:8;stroke-linecap:round;stroke-linejoin:round;stroke-miterlimit:10;}
	.st10{fill:#FF9852;}
	.st11{fill:#D85639;}
	.st12{opacity:0.6;fill:none;stroke:#D85639;stroke-width:8;stroke-miterlimit:10;}
	.st13{fill:#FDBA5D;}
	.st14{opacity:0.61;fill:#D85639;enable-background:new    ;}
	.st15{fill:#B7C8CE;}
	.st16{fill:#EA3939;}
	.st17{opacity:0.62;fill:#EA3939;enable-background:new    ;}
	.st18{fill:#526066;}
	.st19{opacity:0.64;fill:#526066;enable-background:new    ;}
	.st20{opacity:0.3;fill:#526066;enable-background:new    ;}
	.st21{fill:#42708A;}
	.st22{opacity:0.73;fill:#CCDDE5;enable-background:new    ;}
	.st23{fill:#CCDDE5;}
	.st24{fill:#FFFFFF;}
	
		.st25{opacity:0.38;fill:none;stroke:#102D3B;stroke-width:8;stroke-linecap:round;stroke-linejoin:round;stroke-miterlimit:10;enable-background:new    ;}
</style>
<rect id="XMLID_18_" class="st0" width="1000" height="1000"/>
<g>
	<g>
		<g>
			<path class="st1" d="M63.2,959.2c0,2.5-1.2,3.7-2.6,3.7c-1.1,0-1.9-0.5-2.1-1.4c-0.4,0.5-1,0.8-1.8,0.8c-1.5,0-2.6-1.2-2.6-2.8
				s1.1-2.8,2.6-2.8c0.7,0,1.2,0.3,1.6,0.7v-0.5h1.6v3.9c0,0.8,0.3,1.4,1,1.4c0.9,0,1.7-0.9,1.7-3c0-3-2.3-5.3-5.4-5.3
				c-3.1,0-5.6,2.4-5.6,5.7s2.5,5.7,5.9,5.7c1.1,0,2.1-0.2,2.9-0.4v0.6c-0.8,0.3-1.7,0.4-2.9,0.4c-3.7,0-6.5-2.6-6.5-6.2
				c0-3.4,2.7-6.2,6.2-6.2C61.1,953.3,63.2,956.4,63.2,959.2z M58.3,959.5c0-0.8-0.6-1.4-1.3-1.4c-0.8,0-1.3,0.5-1.3,1.4
				c0,0.8,0.6,1.3,1.3,1.3C57.8,960.9,58.3,960.3,58.3,959.5z"/>
		</g>
		<g>
			<path class="st1" d="M69.4,955.1v2c-1.2-0.1-2.6,0.5-2.6,2.4v4.3h-1.9v-8.6h1.9v1.4C67.3,955.5,68.3,955.1,69.4,955.1z"/>
		</g>
		<g>
			<path class="st1" d="M74.6,962.3c1,0,1.8-0.5,2.2-1.1l1.5,0.9c-0.8,1.2-2.1,1.9-3.8,1.9c-2.8,0-4.7-1.9-4.7-4.5
				c0-2.5,1.8-4.5,4.5-4.5c2.6,0,4.3,2.1,4.3,4.5c0,0.3,0,0.5-0.1,0.8h-6.8C72.1,961.6,73.2,962.3,74.6,962.3z M76.9,958.8
				c-0.3-1.5-1.3-2.1-2.5-2.1c-1.4,0-2.3,0.8-2.6,2.1H76.9z"/>
		</g>
		<g>
			<path class="st1" d="M88.9,955.2v8.6H87v-1.2c-0.7,0.9-1.7,1.5-3,1.5c-2.3,0-4.3-2-4.3-4.5c0-2.6,1.9-4.5,4.3-4.5
				c1.3,0,2.3,0.5,3,1.4v-1.2L88.9,955.2L88.9,955.2z M87.1,959.5c0-1.6-1.2-2.7-2.7-2.7s-2.7,1.1-2.7,2.7c0,1.6,1.2,2.7,2.7,2.7
				C85.9,962.3,87.1,961.1,87.1,959.5z"/>
		</g>
		<g>
			<path class="st1" d="M91.1,951.3H93v12.5h-1.9V951.3z"/>
		</g>
		<g>
			<path class="st1" d="M102.9,955.2l-3.3,8.6h-2.1l-3.3-8.6h2l2.4,6.5l2.4-6.5H102.9z"/>
		</g>
		<g>
			<path class="st1" d="M104.2,955.2h1.9v8.9c0,2.4-1.2,3.5-3.5,3.3v-1.8c1.1,0.1,1.7-0.3,1.7-1.5L104.2,955.2L104.2,955.2z
				 M104,952.8c0-0.7,0.5-1.2,1.2-1.2s1.2,0.5,1.2,1.2c0,0.6-0.5,1.2-1.2,1.2S104,953.4,104,952.8z"/>
		</g>
		<g>
			<path class="st1" d="M116,955.2l-3.3,8.8c-0.8,2.2-2.2,3.3-4.2,3.2v-1.7c1.2,0.1,1.9-0.5,2.3-1.7l0.1-0.2l-3.6-8.4h2l2.6,6.2
				l2.2-6.2L116,955.2L116,955.2z"/>
		</g>
	</g>
	<g>
		<path class="st1" d="M211.9,938.7c0,2.1-1.5,3.8-3.6,3.8h-3v-7.6h3C210.4,934.9,211.9,936.6,211.9,938.7z M210.9,938.7
			c0-1.6-1.1-2.9-2.6-2.9h-2v5.7h2C209.8,941.6,210.9,940.3,210.9,938.7z"/>
		<path class="st1" d="M219.5,940.8h-3.4l-0.6,1.7h-1.1l2.8-7.6h1.1l2.8,7.6H220L219.5,940.8z M219.2,939.9l-1.4-3.8l-1.4,3.8H219.2
			z"/>
		<path class="st1" d="M226.4,939.4v3.1h-1v-3.1l-2.7-4.5h1.1l2.1,3.6l2.1-3.6h1.1L226.4,939.4z"/>
		<path class="st1" d="M242.1,940.1c0,1.5-1.1,2.6-2.6,2.6s-2.6-1.1-2.6-2.6c0-0.6,0.2-1.1,0.5-1.5l2.5-3.7h1.2l-1.8,2.7
			c0.1,0,0.2,0,0.4,0C241,937.5,242.1,938.6,242.1,940.1z M241.1,940.1c0-1-0.7-1.6-1.6-1.6c-1,0-1.6,0.6-1.6,1.6s0.7,1.6,1.6,1.6
			C240.4,941.7,241.1,941,241.1,940.1z"/>
		<path class="st1" d="M249.4,938.8L249.4,938.8l-2.5,3.7h-1.1l1.8-2.7c-0.1,0-0.2,0-0.4,0c-1.5,0-2.6-1-2.6-2.6
			c0-1.5,1.1-2.6,2.6-2.6s2.6,1,2.6,2.6C249.9,937.9,249.7,938.4,249.4,938.8z M247.3,938.9c1,0,1.6-0.6,1.6-1.6s-0.7-1.6-1.6-1.6
			s-1.6,0.6-1.6,1.6C245.6,938.3,246.3,938.9,247.3,938.9z"/>
	</g>
	<g>
		<path class="st1" d="M58.9,938.7c0,2.1-1.5,3.8-3.6,3.8h-3v-7.6h3C57.4,934.9,58.9,936.6,58.9,938.7z M57.9,938.7
			c0-1.6-1.1-2.9-2.6-2.9h-2v5.7h2C56.8,941.6,57.9,940.3,57.9,938.7z"/>
		<path class="st1" d="M67,941.6v1h-4.6V935h4.5v1h-3.5v2.3h3.2v0.9h-3.2v2.4L67,941.6L67,941.6z"/>
		<path class="st1" d="M70,940.8l0.9-0.5c0.3,0.8,0.9,1.4,2,1.4s1.6-0.5,1.6-1.2c0-0.8-0.7-1-1.8-1.4c-1.2-0.4-2.4-0.8-2.4-2.2
			s1.1-2.2,2.4-2.2s2.2,0.7,2.6,1.7l-0.8,0.5c-0.3-0.7-0.8-1.2-1.7-1.2c-0.8,0-1.4,0.4-1.4,1.1c0,0.7,0.5,1,1.6,1.3
			c1.3,0.4,2.6,0.8,2.6,2.3c0,1.3-1.1,2.2-2.6,2.2C71.5,942.7,70.4,941.9,70,940.8z"/>
		<path class="st1" d="M80,934.9v7.6h-1v-7.6H80z"/>
		<path class="st1" d="M91.3,939.2c0,1.9-1.4,3.5-3.7,3.5c-2.4,0-4-1.8-4-4s1.7-4,4-4c1.4,0,2.7,0.8,3.3,1.8L90,937
			c-0.4-0.8-1.4-1.4-2.4-1.4c-1.8,0-3,1.3-3,3s1.2,3,3,3c1.6,0,2.5-0.9,2.7-2h-2.8v-0.9h3.8V939.2z"/>
		<path class="st1" d="M100.6,934.9v7.6h-0.8l-3.9-5.7v5.7h-1v-7.6h0.8l3.9,5.7v-5.7H100.6z"/>
		<path class="st1" d="M109.1,941.6v1h-4.6V935h4.5v1h-3.5v2.3h3.2v0.9h-3.2v2.4L109.1,941.6L109.1,941.6z"/>
		<path class="st1" d="M119.2,938.7c0,2.1-1.5,3.8-3.6,3.8h-3v-7.6h3C117.6,934.9,119.2,936.6,119.2,938.7z M118.2,938.7
			c0-1.6-1.1-2.9-2.6-2.9h-2v5.7h2C117.1,941.6,118.2,940.3,118.2,938.7z"/>
		<path class="st1" d="M133.2,940.4c0,1.2-1,2.2-2.2,2.2h-3.3V935h3c1.2,0,2.1,0.9,2.1,2.1c0,0.7-0.3,1.2-0.8,1.6
			C132.7,938.9,133.2,939.5,133.2,940.4z M128.7,935.8v2.3h2c0.6,0,1.1-0.5,1.1-1.2c0-0.6-0.5-1.2-1.1-1.2h-2V935.8z M132.2,940.3
			c0-0.7-0.5-1.2-1.2-1.2h-2.3v2.5h2.3C131.7,941.6,132.2,941,132.2,940.3z"/>
		<path class="st1" d="M139.4,939.4v3.1h-1v-3.1l-2.7-4.5h1.1l2.1,3.6l2.1-3.6h1.1L139.4,939.4z"/>
	</g>
	<g>
		<path class="st1" d="M216.2,958.1c0,3.5-2.5,6.2-5.9,6.2h-4.9v-12.4h4.9C213.7,951.9,216.2,954.6,216.2,958.1z M214.3,958.1
			c0-2.5-1.6-4.2-4-4.2h-2.8v8.5h2.8C212.7,962.3,214.3,960.5,214.3,958.1z"/>
		<path class="st1" d="M217.5,959.9c0-2.6,2.1-4.7,4.7-4.7c2.6,0,4.7,2,4.7,4.7c0,2.6-2.1,4.7-4.7,4.7
			C219.6,964.5,217.5,962.5,217.5,959.9z M224.9,959.9c0-1.6-1.2-2.8-2.8-2.8s-2.8,1.2-2.8,2.8s1.2,2.8,2.8,2.8
			S224.9,961.5,224.9,959.9z"/>
		<path class="st1" d="M231.1,957.3v4.2c0,1.1,0.7,1.1,2.2,1v1.7c-2.9,0.4-4.1-0.5-4.1-2.8v-4.2h-1.6v-1.8h1.6v-1.9l1.9-0.6v2.5h2.2
			v1.8L231.1,957.3L231.1,957.3z"/>
		<path class="st1" d="M237.4,957.3v4.2c0,1.1,0.7,1.1,2.2,1v1.7c-2.9,0.4-4.1-0.5-4.1-2.8v-4.2h-1.6v-1.8h1.6v-1.9l1.9-0.6v2.5h2.2
			v1.8L237.4,957.3L237.4,957.3z"/>
		<path class="st1" d="M245.3,962.8c1.1,0,1.9-0.5,2.3-1.1l1.6,0.9c-0.8,1.2-2.1,1.9-3.9,1.9c-2.9,0-4.8-2-4.8-4.7
			c0-2.6,1.9-4.7,4.7-4.7c2.6,0,4.4,2.1,4.4,4.7c0,0.3,0,0.5-0.1,0.8h-7C242.8,962.1,243.9,962.8,245.3,962.8z M247.7,959.1
			c-0.3-1.5-1.4-2.2-2.5-2.2c-1.4,0-2.4,0.8-2.7,2.2H247.7z"/>
		<path class="st1" d="M260.2,951.9v12.4h-1.9V963c-0.7,0.9-1.7,1.5-3.1,1.5c-2.4,0-4.4-2-4.4-4.7c0-2.6,2-4.7,4.4-4.7
			c1.4,0,2.4,0.6,3.1,1.5v-4.8h1.9V951.9z M258.3,959.9c0-1.6-1.2-2.8-2.8-2.8c-1.6,0-2.8,1.2-2.8,2.8s1.2,2.8,2.8,2.8
			C257,962.7,258.3,961.5,258.3,959.9z"/>
		<path class="st1" d="M279,958.7c0,3.4-2.4,5.8-6.1,5.8c-3.9,0-6.6-2.9-6.6-6.4s2.8-6.4,6.5-6.4c2.4,0,4.4,1.2,5.4,2.9l-1.8,1
			c-0.6-1.2-2-2-3.6-2c-2.6,0-4.5,1.9-4.5,4.5c0,2.5,1.8,4.4,4.6,4.4c2.2,0,3.6-1.2,4-2.8h-4.1v-1.8h6.2V958.7z"/>
		<path class="st1" d="M285.4,955.3v2.1c-1.3-0.1-2.7,0.5-2.7,2.5v4.5h-1.9v-8.9h1.9v1.5C283.2,955.7,284.3,955.3,285.4,955.3z"/>
		<path class="st1" d="M286.5,952.9c0-0.7,0.5-1.2,1.2-1.2s1.2,0.5,1.2,1.2s-0.5,1.2-1.2,1.2C287.1,954.1,286.5,953.6,286.5,952.9z
			 M286.8,955.4h1.9v8.9h-1.9V955.4z"/>
		<path class="st1" d="M299.8,951.9v12.4h-1.9V963c-0.7,0.9-1.7,1.5-3.1,1.5c-2.4,0-4.4-2-4.4-4.7c0-2.6,2-4.7,4.4-4.7
			c1.4,0,2.4,0.6,3.1,1.5v-4.8h1.9V951.9z M297.9,959.9c0-1.6-1.2-2.8-2.8-2.8c-1.6,0-2.8,1.2-2.8,2.8s1.2,2.8,2.8,2.8
			C296.7,962.7,297.9,961.5,297.9,959.9z"/>
		<path class="st1" d="M315.7,960.8c0,2.1-1.7,3.5-3.7,3.5h-5.3v-12.4h4.9c2,0,3.6,1.5,3.6,3.4c0,1.1-0.5,2-1.3,2.5
			C315,958.4,315.7,959.4,315.7,960.8z M308.7,953.8v3.3h2.9c0.9,0,1.6-0.7,1.6-1.6c0-0.9-0.7-1.6-1.6-1.6h-2.9V953.8z M313.6,960.6
			c0-1-0.7-1.7-1.7-1.7h-3.3v3.5h3.3C312.9,962.4,313.6,961.6,313.6,960.6z"/>
		<path class="st1" d="M316.9,959.9c0-2.6,2.1-4.7,4.7-4.7s4.7,2,4.7,4.7c0,2.6-2.1,4.7-4.7,4.7C319,964.5,316.9,962.5,316.9,959.9z
			 M324.3,959.9c0-1.6-1.2-2.8-2.8-2.8s-2.8,1.2-2.8,2.8s1.2,2.8,2.8,2.8S324.3,961.5,324.3,959.9z"/>
		<path class="st1" d="M327.5,959.9c0-2.6,2.1-4.7,4.7-4.7s4.7,2,4.7,4.7c0,2.6-2.1,4.7-4.7,4.7
			C329.6,964.5,327.5,962.5,327.5,959.9z M334.9,959.9c0-1.6-1.2-2.8-2.8-2.8s-2.8,1.2-2.8,2.8s1.2,2.8,2.8,2.8
			S334.9,961.5,334.9,959.9z"/>
		<path class="st1" d="M344.1,964.3l-3.6-4.1v4.1h-1.9v-12.4h1.9v7.5l3.4-3.9h2.3l-3.9,4.3l4,4.5L344.1,964.3L344.1,964.3z"/>
	</g>
	<g>
		<path class="st1" d="M841.3,942.5h-1v-7.6h1.1l2.4,4l2.4-4h1.1v7.6h-1v-6l-2.5,4.2h-0.1l-2.5-4.1L841.3,942.5L841.3,942.5z
			 M858.8,938.7c0,2.2-1.7,4-4,4c-2.2,0-3.9-1.8-3.9-4s1.7-4,3.9-4C857.1,934.7,858.8,936.5,858.8,938.7z M857.8,938.7
			c0-1.7-1.3-3-2.9-3c-1.7,0-2.9,1.3-2.9,3s1.3,3,2.9,3C856.6,941.7,857.8,940.4,857.8,938.7z M866.2,939.5l1.8,3.1h-1.1l-1.7-2.9
			h-1.8v2.9h-1V935h3c1.3,0,2.4,1.1,2.4,2.4C867.8,938.2,867.1,939.1,866.2,939.5z M865.4,938.7c0.8,0,1.4-0.6,1.4-1.4
			c0-0.8-0.6-1.4-1.4-1.4h-2v2.8L865.4,938.7L865.4,938.7z M875.9,941.6h-3.5v-2.4h3.2v-0.9h-3.2V936h3.5v-1h-4.5v7.6h4.6
			L875.9,941.6L875.9,941.6z M844.2,962.2l-2.5-6.7h-2.1l3.5,8.9h2.2l3.5-8.9h-2.1L844.2,962.2z M850,964.3h1.9v-8.9H850V964.3z
			 M851,951.7c-0.7,0-1.2,0.5-1.2,1.2s0.5,1.2,1.2,1.2s1.2-0.6,1.2-1.2C852.2,952.2,851.6,951.7,851,951.7z M855.2,951.7
			c-0.7,0-1.2,0.5-1.2,1.2s0.5,1.2,1.2,1.2s1.2-0.6,1.2-1.2C856.5,952.2,855.9,951.7,855.2,951.7z M854.3,964.7
			c0,1.2-0.5,1.7-1.7,1.6v1.8c2.4,0.2,3.6-1,3.6-3.4v-9.2h-1.9L854.3,964.7L854.3,964.7z M865.4,955.4h1.9v8.9h-1.9V963
			c-0.7,0.9-1.7,1.5-3.1,1.5c-2.4,0-4.4-2-4.4-4.7c0-2.6,2-4.7,4.4-4.7c1.4,0,2.4,0.6,3.1,1.5V955.4z M865.4,959.9
			c0-1.6-1.2-2.8-2.8-2.8s-2.8,1.2-2.8,2.8s1.2,2.8,2.8,2.8S865.4,961.5,865.4,959.9z M873.3,961.9l-2.6-6.4h-2.1l3.8,8.7l-0.1,0.2
			c-0.4,1.2-1.1,1.8-2.4,1.7v1.8c2,0.1,3.5-1,4.3-3.3l3.4-9.1h-2L873.3,961.9z M882.3,962.2l-2.5-6.7h-2.1l3.5,8.9h2.2l3.5-8.9h-2.1
			L882.3,962.2z M896.4,959.9c0,0.3,0,0.5-0.1,0.8h-7c0.3,1.4,1.4,2.1,2.8,2.1c1.1,0,1.9-0.5,2.3-1.1l1.6,0.9
			c-0.8,1.2-2.1,1.9-3.9,1.9c-2.9,0-4.8-2-4.8-4.7c0-2.6,1.9-4.7,4.7-4.7C894.5,955.2,896.4,957.3,896.4,959.9z M894.4,959.1
			c-0.3-1.5-1.4-2.2-2.5-2.2c-1.4,0-2.4,0.8-2.7,2.2H894.4z M899.9,956.9v-1.5H898v8.9h1.9v-4.5c0-2,1.5-2.6,2.7-2.5v-2.1
			C901.6,955.3,900.5,955.7,899.9,956.9z M913.8,955.2c-1.2,0-2.1,0.5-2.7,1.4c-0.5-0.9-1.4-1.4-2.5-1.4s-2,0.4-2.5,1.3v-1.1h-1.9
			v8.9h1.9v-5c0-1.6,0.9-2.3,2-2.3c1,0,1.7,0.7,1.7,1.9v5.4h1.9v-5c0-1.6,0.8-2.3,1.9-2.3c1,0,1.7,0.7,1.7,1.9v5.4h1.9v-5.5
			C917.1,956.6,915.8,955.2,913.8,955.2z M926.2,955.4h1.9v8.9h-1.9V963c-0.7,0.9-1.7,1.5-3.1,1.5c-2.4,0-4.4-2-4.4-4.7
			c0-2.6,2-4.7,4.4-4.7c1.4,0,2.4,0.6,3.1,1.5V955.4z M926.2,959.9c0-1.6-1.2-2.8-2.8-2.8s-2.8,1.2-2.8,2.8s1.2,2.8,2.8,2.8
			S926.2,961.5,926.2,959.9z M931.5,961.9c-0.7,0-1.3,0.6-1.3,1.3s0.6,1.3,1.3,1.3s1.3-0.6,1.3-1.3
			C932.8,962.4,932.2,961.9,931.5,961.9z M938.3,962.6c-1.6,0-2.7-1.2-2.7-2.8s1.2-2.8,2.7-2.8c1.1,0,1.9,0.5,2.3,1.4l1.6-1
			c-0.7-1.4-2.2-2.3-3.9-2.3c-2.7,0-4.7,2-4.7,4.7c0,2.6,2,4.7,4.7,4.7c1.7,0,3.2-0.9,4-2.3l-1.6-0.9
			C940.2,962.1,939.3,962.6,938.3,962.6z M952.4,959.9c0,2.6-2.1,4.7-4.7,4.7c-2.6,0-4.7-2-4.7-4.7c0-2.6,2.1-4.7,4.7-4.7
			C950.3,955.2,952.4,957.2,952.4,959.9z M950.5,959.9c0-1.6-1.2-2.8-2.8-2.8s-2.8,1.2-2.8,2.8s1.2,2.8,2.8,2.8
			S950.5,961.5,950.5,959.9z"/>
	</g>
</g>
<g>
	<rect id="XMLID_49_" x="297" y="367" class="st2" width="32" height="151"/>
	<path id="XMLID_48_" class="st2" d="M329.4,620c-10.8,0-21.7,0-32.5,0c-2.1-22-2.1-45,0-68c10.8,0,21.7,0,32.5,0
		C331.5,575,331.5,598,329.4,620z"/>
	<path id="XMLID_47_" class="st2" d="M329.4,552c-10.8,0-21.7,0-32.5,0c6.7-10,6.7-23,0-34c10.8,0,21.7,0,32.5,0
		C322.7,529,322.7,542,329.4,552z"/>
	<path id="XMLID_46_" class="st2" d="M317.3,667c5.4-16,11.9-31,12.1-47h-32.5c0.2,16,6.7,31,12.1,47H317.3z"/>
	<rect id="XMLID_45_" x="309" y="667" class="st2" width="8" height="6"/>
	<line id="XMLID_44_" class="st3" x1="313" y1="674" x2="313" y2="687"/>
	<rect id="XMLID_43_" x="301" y="345" class="st2" width="24" height="22"/>
	<path id="XMLID_42_" class="st2" d="M322,345h-18v-25.7c0-3.5,3.2-6.3,6.7-6.3h5c3.5,0,6.3,2.8,6.3,6.3V345z"/>
	<rect id="XMLID_41_" x="309" y="381" class="st2" width="31" height="18"/>
	<polygon id="XMLID_40_" class="st2" points="340,460.3 329,445.8 329,399 340,399 	"/>
	<path id="XMLID_24_" class="st4" d="M322.4,547c-10.8,0-21.7,0-32.5,0c6.7-10,6.7-23,0-34c10.8,0,21.7,0,32.5,0
		C315.7,524,315.7,537,322.4,547z"/>
	<path id="XMLID_38_" class="st2" d="M674,694H398V298h276c9.9,0,18,7.8,18,17.7v360C692,685.7,683.9,694,674,694z"/>
	<path id="XMLID_36_" class="st2" d="M635,702h-14c-2.8,0-5-2.2-5-5V295c0-2.8,2.2-5,5-5h14c2.8,0,5,2.2,5,5v402
		C640,699.8,637.8,702,635,702z"/>
	<polygon id="XMLID_34_" class="st2" points="459,739.7 429,723 429,694 459,694 	"/>
	<path id="XMLID_19_" class="st5" d="M664,679H388V283h276c9.9,0,18,7.8,18,17.7v360C682,670.7,673.9,679,664,679z"/>
	<rect id="XMLID_54_" x="617" y="283" class="st6" width="24" height="396"/>
	<rect id="XMLID_50_" x="388" y="283" class="st7" width="17" height="396"/>
	<g>
		<defs>
			<path id="XMLID_7_" d="M664,679H388V283h276c9.9,0,18,7.8,18,17.7v360C682,670.7,673.9,679,664,679z"/>
		</defs>
		<clipPath id="XMLID_58_">
			<use xlink:href="#XMLID_7_"  style="overflow:visible;"/>
		</clipPath>
		<g id="XMLID_57_" class="st8">
			<g>
				<g>
					<path class="st4" d="M359.4,983.6c-0.4,0-0.8-0.1-1.1-0.4c-0.6-0.6-0.6-1.5,0-2.1l344.4-344.3c0.6-0.6,1.5-0.6,2.1,0
						s0.6,1.5,0,2.1L360.5,983.2C360.2,983.5,359.8,983.6,359.4,983.6z"/>
				</g>
			</g>
			<g>
				<g>
					<path class="st4" d="M359.4,969.6c-0.4,0-0.8-0.1-1.1-0.4c-0.6-0.6-0.6-1.5,0-2.1l344.4-344.3c0.6-0.6,1.5-0.6,2.1,0
						s0.6,1.5,0,2.1L360.5,969.2C360.2,969.5,359.8,969.6,359.4,969.6z"/>
				</g>
			</g>
			<g>
				<g>
					<path class="st4" d="M359.4,955.6c-0.4,0-0.8-0.1-1.1-0.4c-0.6-0.6-0.6-1.5,0-2.1l344.4-344.3c0.6-0.6,1.5-0.6,2.1,0
						s0.6,1.5,0,2.1L360.5,955.2C360.2,955.5,359.8,955.6,359.4,955.6z"/>
				</g>
			</g>
			<g>
				<g>
					<path class="st4" d="M359.4,941.6c-0.4,0-0.8-0.1-1.1-0.4c-0.6-0.6-0.6-1.5,0-2.1l344.4-344.3c0.6-0.6,1.5-0.6,2.1,0
						s0.6,1.5,0,2.1L360.5,941.2C360.2,941.5,359.8,941.6,359.4,941.6z"/>
				</g>
			</g>
			<g>
				<g>
					<path class="st4" d="M359.4,927.6c-0.4,0-0.8-0.1-1.1-0.4c-0.6-0.6-0.6-1.5,0-2.1l344.4-344.3c0.6-0.6,1.5-0.6,2.1,0
						s0.6,1.5,0,2.1L360.5,927.2C360.2,927.5,359.8,927.6,359.4,927.6z"/>
				</g>
			</g>
			<g>
				<g>
					<path class="st4" d="M359.4,913.6c-0.4,0-0.8-0.1-1.1-0.4c-0.6-0.6-0.6-1.5,0-2.1l344.4-344.3c0.6-0.6,1.5-0.6,2.1,0
						s0.6,1.5,0,2.1L360.5,913.2C360.2,913.5,359.8,913.6,359.4,913.6z"/>
				</g>
			</g>
			<g>
				<g>
					<path class="st4" d="M359.4,899.6c-0.4,0-0.8-0.1-1.1-0.4c-0.6-0.6-0.6-1.5,0-2.1l344.4-344.3c0.6-0.6,1.5-0.6,2.1,0
						s0.6,1.5,0,2.1L360.5,899.2C360.2,899.5,359.8,899.6,359.4,899.6z"/>
				</g>
			</g>
			<g>
				<g>
					<path class="st4" d="M359.4,885.6c-0.4,0-0.8-0.1-1.1-0.4c-0.6-0.6-0.6-1.5,0-2.1l344.4-344.3c0.6-0.6,1.5-0.6,2.1,0
						s0.6,1.5,0,2.1L360.5,885.2C360.2,885.5,359.8,885.6,359.4,885.6z"/>
				</g>
			</g>
			<g>
				<g>
					<path class="st4" d="M359.4,871.6c-0.4,0-0.8-0.1-1.1-0.4c-0.6-0.6-0.6-1.5,0-2.1l344.4-344.3c0.6-0.6,1.5-0.6,2.1,0
						s0.6,1.5,0,2.1L360.5,871.2C360.2,871.5,359.8,871.6,359.4,871.6z"/>
				</g>
			</g>
			<g>
				<g>
					<path class="st4" d="M359.4,857.6c-0.4,0-0.8-0.1-1.1-0.4c-0.6-0.6-0.6-1.5,0-2.1l344.4-344.3c0.6-0.6,1.5-0.6,2.1,0
						s0.6,1.5,0,2.1L360.5,857.2C360.2,857.5,359.8,857.6,359.4,857.6z"/>
				</g>
			</g>
			<g>
				<g>
					<path class="st4" d="M359.4,843.6c-0.4,0-0.8-0.1-1.1-0.4c-0.6-0.6-0.6-1.5,0-2.1l344.4-344.3c0.6-0.6,1.5-0.6,2.1,0
						s0.6,1.5,0,2.1L360.5,843.2C360.2,843.5,359.8,843.6,359.4,843.6z"/>
				</g>
			</g>
			<g>
				<g>
					<path class="st4" d="M359.4,829.6c-0.4,0-0.8-0.1-1.1-0.4c-0.6-0.6-0.6-1.5,0-2.1l344.4-344.3c0.6-0.6,1.5-0.6,2.1,0
						s0.6,1.5,0,2.1L360.5,829.2C360.2,829.5,359.8,829.6,359.4,829.6z"/>
				</g>
			</g>
			<g>
				<g>
					<path class="st4" d="M359.4,815.6c-0.4,0-0.8-0.1-1.1-0.4c-0.6-0.6-0.6-1.5,0-2.1l344.4-344.3c0.6-0.6,1.5-0.6,2.1,0
						s0.6,1.5,0,2.1L360.5,815.2C360.2,815.5,359.8,815.6,359.4,815.6z"/>
				</g>
			</g>
			<g>
				<g>
					<path class="st4" d="M359.4,801.6c-0.4,0-0.8-0.1-1.1-0.4c-0.6-0.6-0.6-1.5,0-2.1l344.4-344.3c0.6-0.6,1.5-0.6,2.1,0
						s0.6,1.5,0,2.1L360.5,801.2C360.2,801.5,359.8,801.6,359.4,801.6z"/>
				</g>
			</g>
			<g>
				<g>
					<path class="st4" d="M359.4,787.6c-0.4,0-0.8-0.1-1.1-0.4c-0.6-0.6-0.6-1.5,0-2.1l344.4-344.3c0.6-0.6,1.5-0.6,2.1,0
						s0.6,1.5,0,2.1L360.5,787.2C360.2,787.5,359.8,787.6,359.4,787.6z"/>
				</g>
			</g>
			<g>
				<g>
					<path class="st4" d="M359.4,773.6c-0.4,0-0.8-0.1-1.1-0.4c-0.6-0.6-0.6-1.5,0-2.1l344.4-344.3c0.6-0.6,1.5-0.6,2.1,0
						s0.6,1.5,0,2.1L360.5,773.2C360.2,773.5,359.8,773.6,359.4,773.6z"/>
				</g>
			</g>
			<g>
				<g>
					<path class="st4" d="M359.4,759.6c-0.4,0-0.8-0.1-1.1-0.4c-0.6-0.6-0.6-1.5,0-2.1l344.4-344.3c0.6-0.6,1.5-0.6,2.1,0
						s0.6,1.5,0,2.1L360.5,759.2C360.2,759.5,359.8,759.6,359.4,759.6z"/>
				</g>
			</g>
			<g>
				<g>
					<path class="st4" d="M359.4,745.6c-0.4,0-0.8-0.1-1.1-0.4c-0.6-0.6-0.6-1.5,0-2.1l344.4-344.3c0.6-0.6,1.5-0.6,2.1,0
						s0.6,1.5,0,2.1L360.5,745.2C360.2,745.5,359.8,745.6,359.4,745.6z"/>
				</g>
			</g>
			<g>
				<g>
					<path class="st4" d="M359.4,731.6c-0.4,0-0.8-0.1-1.1-0.4c-0.6-0.6-0.6-1.5,0-2.1l344.4-344.3c0.6-0.6,1.5-0.6,2.1,0
						s0.6,1.5,0,2.1L360.5,731.2C360.2,731.5,359.8,731.6,359.4,731.6z"/>
				</g>
			</g>
			<g>
				<g>
					<path class="st4" d="M359.4,717.6c-0.4,0-0.8-0.1-1.1-0.4c-0.6-0.6-0.6-1.5,0-2.1l344.4-344.3c0.6-0.6,1.5-0.6,2.1,0
						s0.6,1.5,0,2.1L360.5,717.2C360.2,717.5,359.8,717.6,359.4,717.6z"/>
				</g>
			</g>
			<g>
				<g>
					<path class="st4" d="M359.4,703.6c-0.4,0-0.8-0.1-1.1-0.4c-0.6-0.6-0.6-1.5,0-2.1l344.4-344.3c0.6-0.6,1.5-0.6,2.1,0
						s0.6,1.5,0,2.1L360.5,703.2C360.2,703.5,359.8,703.6,359.4,703.6z"/>
				</g>
			</g>
			<g>
				<g>
					<path class="st4" d="M359.4,689.6c-0.4,0-0.8-0.1-1.1-0.4c-0.6-0.6-0.6-1.5,0-2.1l344.4-344.3c0.6-0.6,1.5-0.6,2.1,0
						s0.6,1.5,0,2.1L360.5,689.2C360.2,689.5,359.8,689.6,359.4,689.6z"/>
				</g>
			</g>
			<g>
				<g>
					<path class="st4" d="M359.4,675.6c-0.4,0-0.8-0.1-1.1-0.4c-0.6-0.6-0.6-1.5,0-2.1l344.4-344.3c0.6-0.6,1.5-0.6,2.1,0
						s0.6,1.5,0,2.1L360.5,675.2C360.2,675.5,359.8,675.6,359.4,675.6z"/>
				</g>
			</g>
			<g>
				<g>
					<path class="st4" d="M359.4,661.6c-0.4,0-0.8-0.1-1.1-0.4c-0.6-0.6-0.6-1.5,0-2.1l344.4-344.3c0.6-0.6,1.5-0.6,2.1,0
						s0.6,1.5,0,2.1L360.5,661.2C360.2,661.5,359.8,661.6,359.4,661.6z"/>
				</g>
			</g>
			<g>
				<g>
					<path class="st4" d="M359.4,647.6c-0.4,0-0.8-0.1-1.1-0.4c-0.6-0.6-0.6-1.5,0-2.1l344.4-344.3c0.6-0.6,1.5-0.6,2.1,0
						s0.6,1.5,0,2.1L360.5,647.2C360.2,647.5,359.8,647.6,359.4,647.6z"/>
				</g>
			</g>
			<g>
				<g>
					<path class="st4" d="M359.4,633.6c-0.4,0-0.8-0.1-1.1-0.4c-0.6-0.6-0.6-1.5,0-2.1l344.4-344.3c0.6-0.6,1.5-0.6,2.1,0
						s0.6,1.5,0,2.1L360.5,633.2C360.2,633.5,359.8,633.6,359.4,633.6z"/>
				</g>
			</g>
			<g>
				<g>
					<path class="st4" d="M359.4,619.6c-0.4,0-0.8-0.1-1.1-0.4c-0.6-0.6-0.6-1.5,0-2.1l344.4-344.3c0.6-0.6,1.5-0.6,2.1,0
						s0.6,1.5,0,2.1L360.5,619.2C360.2,619.5,359.8,619.6,359.4,619.6z"/>
				</g>
			</g>
			<g>
				<g>
					<path class="st4" d="M359.4,605.6c-0.4,0-0.8-0.1-1.1-0.4c-0.6-0.6-0.6-1.5,0-2.1l344.4-344.3c0.6-0.6,1.5-0.6,2.1,0
						s0.6,1.5,0,2.1L360.5,605.2C360.2,605.5,359.8,605.6,359.4,605.6z"/>
				</g>
			</g>
			<g>
				<g>
					<path class="st4" d="M359.4,591.6c-0.4,0-0.8-0.1-1.1-0.4c-0.6-0.6-0.6-1.5,0-2.1l344.4-344.3c0.6-0.6,1.5-0.6,2.1,0
						s0.6,1.5,0,2.1L360.5,591.2C360.2,591.5,359.8,591.6,359.4,591.6z"/>
				</g>
			</g>
			<g>
				<g>
					<path class="st4" d="M359.4,577.6c-0.4,0-0.8-0.1-1.1-0.4c-0.6-0.6-0.6-1.5,0-2.1l344.4-344.3c0.6-0.6,1.5-0.6,2.1,0
						s0.6,1.5,0,2.1L360.5,577.2C360.2,577.5,359.8,577.6,359.4,577.6z"/>
				</g>
			</g>
			<g>
				<g>
					<path class="st4" d="M359.4,563.6c-0.4,0-0.8-0.1-1.1-0.4c-0.6-0.6-0.6-1.5,0-2.1l344.4-344.3c0.6-0.6,1.5-0.6,2.1,0
						s0.6,1.5,0,2.1L360.5,563.2C360.2,563.5,359.8,563.6,359.4,563.6z"/>
				</g>
			</g>
			<g>
				<g>
					<path class="st4" d="M359.4,549.6c-0.4,0-0.8-0.1-1.1-0.4c-0.6-0.6-0.6-1.5,0-2.1l344.4-344.3c0.6-0.6,1.5-0.6,2.1,0
						s0.6,1.5,0,2.1L360.5,549.2C360.2,549.5,359.8,549.6,359.4,549.6z"/>
				</g>
			</g>
			<g>
				<g>
					<path class="st4" d="M359.4,535.6c-0.4,0-0.8-0.1-1.1-0.4c-0.6-0.6-0.6-1.5,0-2.1l344.4-344.3c0.6-0.6,1.5-0.6,2.1,0
						s0.6,1.5,0,2.1L360.5,535.2C360.2,535.5,359.8,535.6,359.4,535.6z"/>
				</g>
			</g>
			<g>
				<g>
					<path class="st4" d="M359.4,521.6c-0.4,0-0.8-0.1-1.1-0.4c-0.6-0.6-0.6-1.5,0-2.1l344.4-344.3c0.6-0.6,1.5-0.6,2.1,0
						s0.6,1.5,0,2.1L360.5,521.2C360.2,521.5,359.8,521.6,359.4,521.6z"/>
				</g>
			</g>
			<g>
				<g>
					<path class="st4" d="M359.4,507.6c-0.4,0-0.8-0.1-1.1-0.4c-0.6-0.6-0.6-1.5,0-2.1l344.4-344.3c0.6-0.6,1.5-0.6,2.1,0
						s0.6,1.5,0,2.1L360.5,507.2C360.2,507.5,359.8,507.6,359.4,507.6z"/>
				</g>
			</g>
			<g>
				<g>
					<path class="st4" d="M359.4,493.6c-0.4,0-0.8-0.1-1.1-0.4c-0.6-0.6-0.6-1.5,0-2.1l344.4-344.3c0.6-0.6,1.5-0.6,2.1,0
						s0.6,1.5,0,2.1L360.5,493.2C360.2,493.5,359.8,493.6,359.4,493.6z"/>
				</g>
			</g>
			<g>
				<g>
					<path class="st4" d="M359.4,479.6c-0.4,0-0.8-0.1-1.1-0.4c-0.6-0.6-0.6-1.5,0-2.1l344.4-344.3c0.6-0.6,1.5-0.6,2.1,0
						s0.6,1.5,0,2.1L360.5,479.2C360.2,479.5,359.8,479.6,359.4,479.6z"/>
				</g>
			</g>
			<g>
				<g>
					<path class="st4" d="M359.4,465.6c-0.4,0-0.8-0.1-1.1-0.4c-0.6-0.6-0.6-1.5,0-2.1l344.4-344.4c0.6-0.6,1.5-0.6,2.1,0
						c0.6,0.6,0.6,1.5,0,2.1L360.5,465.2C360.2,465.5,359.8,465.6,359.4,465.6z"/>
				</g>
			</g>
			<g>
				<g>
					<path class="st4" d="M359.4,451.6c-0.4,0-0.8-0.1-1.1-0.4c-0.6-0.6-0.6-1.5,0-2.1l344.4-344.4c0.6-0.6,1.5-0.6,2.1,0
						c0.6,0.6,0.6,1.5,0,2.1L360.5,451.2C360.2,451.5,359.8,451.6,359.4,451.6z"/>
				</g>
			</g>
			<g>
				<g>
					<path class="st4" d="M359.4,437.6c-0.4,0-0.8-0.1-1.1-0.4c-0.6-0.6-0.6-1.5,0-2.1L702.7,90.6c0.6-0.6,1.5-0.6,2.1,0
						c0.6,0.6,0.6,1.5,0,2.1L360.5,437.2C360.2,437.5,359.8,437.6,359.4,437.6z"/>
				</g>
			</g>
			<g>
				<g>
					<path class="st4" d="M359.4,423.6c-0.4,0-0.8-0.1-1.1-0.4c-0.6-0.6-0.6-1.5,0-2.1L702.7,76.6c0.6-0.6,1.5-0.6,2.1,0
						c0.6,0.6,0.6,1.5,0,2.1L360.5,423.2C360.2,423.5,359.8,423.6,359.4,423.6z"/>
				</g>
			</g>
			<g>
				<g>
					<path class="st4" d="M359.4,409.6c-0.4,0-0.8-0.1-1.1-0.4c-0.6-0.6-0.6-1.5,0-2.1L702.7,62.6c0.6-0.6,1.5-0.6,2.1,0
						c0.6,0.6,0.6,1.5,0,2.1L360.5,409.2C360.2,409.5,359.8,409.6,359.4,409.6z"/>
				</g>
			</g>
			<g>
				<g>
					<path class="st4" d="M359.4,395.6c-0.4,0-0.8-0.1-1.1-0.4c-0.6-0.6-0.6-1.5,0-2.1L702.7,48.6c0.6-0.6,1.5-0.6,2.1,0
						c0.6,0.6,0.6,1.5,0,2.1L360.5,395.2C360.2,395.5,359.8,395.6,359.4,395.6z"/>
				</g>
			</g>
			<g>
				<g>
					<path class="st4" d="M359.4,381.6c-0.4,0-0.8-0.1-1.1-0.4c-0.6-0.6-0.6-1.5,0-2.1L702.7,34.6c0.6-0.6,1.5-0.6,2.1,0
						c0.6,0.6,0.6,1.5,0,2.1L360.5,381.2C360.2,381.5,359.8,381.6,359.4,381.6z"/>
				</g>
			</g>
			<g>
				<g>
					<path class="st4" d="M359.4,367.6c-0.4,0-0.8-0.1-1.1-0.4c-0.6-0.6-0.6-1.5,0-2.1L702.7,20.6c0.6-0.6,1.5-0.6,2.1,0
						c0.6,0.6,0.6,1.5,0,2.1L360.5,367.2C360.2,367.5,359.8,367.6,359.4,367.6z"/>
				</g>
			</g>
			<g>
				<g>
					<path class="st4" d="M359.4,353.6c-0.4,0-0.8-0.1-1.1-0.4c-0.6-0.6-0.6-1.5,0-2.1L702.7,6.6c0.6-0.6,1.5-0.6,2.1,0
						c0.6,0.6,0.6,1.5,0,2.1L360.5,353.2C360.2,353.5,359.8,353.6,359.4,353.6z"/>
				</g>
			</g>
			<g>
				<g>
					<path class="st4" d="M359.4,339.6c-0.4,0-0.8-0.1-1.1-0.4c-0.6-0.6-0.6-1.5,0-2.1L671.1,24.1c0.6-0.6,1.5-0.6,2.1,0
						c0.6,0.6,0.6,1.5,0,2.1L360.5,339.2C360.2,339.5,359.8,339.6,359.4,339.6z"/>
				</g>
			</g>
			<g>
				<g>
					<path class="st4" d="M359.4,325.6c-0.4,0-0.8-0.1-1.1-0.4c-0.6-0.6-0.6-1.5,0-2.1L651.7,29.6c0.6-0.6,1.5-0.6,2.1,0
						c0.6,0.6,0.6,1.5,0,2.1L360.5,325.2C360.2,325.5,359.8,325.6,359.4,325.6z"/>
				</g>
			</g>
		</g>
	</g>
	<path id="XMLID_1_" class="st9" d="M664,679H388V283h276c9.9,0,18,7.8,18,17.7v360C682,670.7,673.9,679,664,679z"/>
	<rect id="XMLID_21_" x="388" y="283" class="st9" width="34" height="396"/>
	<rect id="XMLID_31_" x="388" y="397" class="st10" width="294" height="112"/>
	<g>
		<path class="st11" d="M519.2,431.4c0,2.1-0.4,3.8-1.2,5.1s-1.7,2.3-2.7,3.1c-1.5,1.2-3.5,1.7-6.2,1.7H498v-20.6h8.6
			c1.3,0,2.4,0.1,3.3,0.2s1.7,0.3,2.5,0.6s1.4,0.5,1.9,0.8s1,0.6,1.4,1c0.7,0.6,1.3,1.3,1.8,2s1,1.7,1.3,2.7
			C519.1,429.1,519.2,430.2,519.2,431.4z M512.9,431.2c0-1.7-0.3-3-1-3.9c-0.6-0.9-1.4-1.6-2.3-1.9s-1.8-0.5-2.7-0.5h-2.6v12.2h2.6
			c1.6,0,3-0.4,4.2-1.2S512.9,433.6,512.9,431.2z"/>
		<path class="st11" d="M545.1,431c0,1.9-0.4,3.7-1.3,5.3c-0.9,1.6-2.2,2.9-4,3.8s-3.9,1.4-6.4,1.4s-4.7-0.5-6.5-1.5
			s-3.1-2.3-3.9-3.9c-0.9-1.6-1.3-3.3-1.3-5.2c0-1.9,0.4-3.6,1.3-5.2c0.9-1.6,2.2-2.9,3.9-3.9c1.8-1,3.9-1.5,6.5-1.5
			c1.9,0,3.6,0.3,5.1,0.8s2.7,1.3,3.7,2.3s1.7,2.1,2.2,3.4S545.1,429.6,545.1,431z M538.8,431c0-0.8-0.1-1.5-0.3-2.1s-0.6-1.2-1-1.7
			c-0.5-0.5-1-0.8-1.7-1.1s-1.4-0.4-2.3-0.4c-1.7,0-3,0.5-3.9,1.5s-1.4,2.2-1.4,3.8s0.5,2.8,1.4,3.8c1,1,2.3,1.5,3.9,1.5
			c1.1,0,2.1-0.2,2.9-0.7s1.4-1.1,1.8-1.9C538.5,433,538.8,432.1,538.8,431z"/>
		<path class="st11" d="M566.9,425.8h-7.5v15.6h-6.2v-15.6h-7.5v-5H567L566.9,425.8L566.9,425.8z"/>
		<path class="st11" d="M517.5,464.4c-0.4,0.2-0.8,0.3-1.1,0.4s-0.6,0.2-0.9,0.3c-0.3,0.1-0.7,0.2-1.3,0.3c-0.9,0.2-1.9,0.4-2.8,0.5
			c-0.9,0.1-1.9,0.2-3,0.2c-2.1,0-4-0.4-5.8-1.1c-1.8-0.8-3.2-1.9-4.3-3.5c-1.1-1.6-1.6-3.6-1.6-5.9c0-1.5,0.3-3,0.8-4.4
			s1.4-2.6,2.5-3.5c0.9-0.7,1.9-1.3,2.8-1.7c1-0.4,1.9-0.6,2.8-0.8c0.9-0.1,1.9-0.2,3-0.2c1.8,0,3.3,0.1,4.5,0.4
			c1.2,0.3,2.5,0.6,3.9,1.1v4.9c-0.9-0.5-1.9-1-3-1.4c-1-0.4-2.3-0.5-3.9-0.5c-1.8,0-3.2,0.3-4.3,1c-1.1,0.7-1.8,1.5-2.2,2.4
			c-0.4,0.9-0.6,1.9-0.6,2.7c0,1,0.2,2,0.7,2.9s1.2,1.6,2.2,2.1s2.2,0.8,3.5,0.8c0.8,0,1.6-0.1,2.5-0.3v-2.4h-2.8v-4.1h8.2v9.8
			H517.5z"/>
		<path class="st11" d="M542.3,465.9h-6.7l-1.6-3.7c-0.6-1.3-1.1-2.3-1.6-2.9s-0.9-1-1.4-1.2s-1-0.3-1.7-0.3h-0.7v8h-6.2v-20.6H533
			c1.7,0,3.1,0.3,4.2,1c1.1,0.7,1.9,1.5,2.4,2.5s0.7,1.9,0.7,2.8c0,1-0.2,1.9-0.6,2.6c-0.4,0.7-0.8,1.2-1.3,1.6
			c-0.4,0.3-0.9,0.6-1.5,0.9c0.7,0.4,1.2,0.8,1.6,1.4s1,1.6,1.8,3.2L542.3,465.9z M533.9,451.8c0-1-0.3-1.6-0.9-2
			c-0.6-0.4-1.6-0.6-3-0.6h-1.3v5h1.3c1.5,0,2.6-0.2,3.1-0.5S533.9,452.7,533.9,451.8z"/>
		<path class="st11" d="M551.3,465.9h-6.2v-20.6h6.2V465.9z"/>
		<path class="st11" d="M577.7,455.9c0,2.1-0.4,3.8-1.2,5.1s-1.7,2.3-2.7,3.1c-1.5,1.2-3.5,1.7-6.2,1.7h-11.1v-20.6h8.6
			c1.3,0,2.4,0.1,3.3,0.2c0.9,0.1,1.7,0.3,2.5,0.6s1.4,0.5,1.9,0.8s1,0.6,1.4,1c0.7,0.6,1.3,1.3,1.8,2s1,1.7,1.3,2.7
			C577.5,453.6,577.7,454.7,577.7,455.9z M571.4,455.7c0-1.7-0.3-3-1-3.9c-0.6-0.9-1.4-1.6-2.3-1.9c-0.9-0.3-1.8-0.5-2.7-0.5h-2.6
			v12.2h2.6c1.6,0,3-0.4,4.2-1.2S571.4,458.1,571.4,455.7z"/>
		<path class="st11" d="M516.9,484.5c0,1.8-0.6,3.2-1.8,4.2c-1.2,1.1-2.9,1.6-5.1,1.6h-11.9v-20.6h9.9c1.3,0,2.4,0.1,3.4,0.4
			c1,0.2,1.7,0.6,2.3,1s1,0.9,1.3,1.5s0.4,1.2,0.4,1.9c0,0.8-0.1,1.4-0.4,2.1s-0.7,1.2-1.1,1.6s-0.9,0.7-1.3,0.9
			c1.4,0.6,2.5,1.3,3.2,2.1S516.9,483.2,516.9,484.5z M509.6,475.7c0-1-0.3-1.6-1-2s-1.7-0.5-3.1-0.5h-1.3v4.9h1.3
			c1.4,0,2.4-0.2,3.1-0.5C509.3,477.4,509.6,476.7,509.6,475.7z M510.6,484.3c0-1.8-1.3-2.6-3.8-2.6h-2.5v5.3h2.5
			C509.4,486.9,510.6,486,510.6,484.3z"/>
		<path class="st11" d="M542.9,480.1c0,1.9-0.4,3.7-1.3,5.3c-0.9,1.6-2.2,2.9-4,3.8s-3.9,1.4-6.4,1.4s-4.7-0.5-6.5-1.5
			s-3.1-2.3-3.9-3.9c-0.9-1.6-1.3-3.3-1.3-5.2c0-1.9,0.4-3.6,1.3-5.2c0.9-1.6,2.2-2.9,3.9-3.9c1.8-1,3.9-1.5,6.5-1.5
			c1.9,0,3.6,0.3,5.1,0.8s2.7,1.3,3.7,2.3s1.7,2.1,2.2,3.4S542.9,478.6,542.9,480.1z M536.5,480.1c0-0.8-0.1-1.5-0.3-2.1
			s-0.6-1.2-1-1.7c-0.5-0.5-1-0.8-1.7-1.1s-1.4-0.4-2.3-0.4c-1.7,0-3,0.5-3.9,1.5s-1.4,2.2-1.4,3.8s0.5,2.8,1.4,3.8
			c1,1,2.3,1.5,3.9,1.5c1.1,0,2.1-0.2,2.9-0.7s1.4-1.1,1.8-1.9C536.3,482,536.5,481.1,536.5,480.1z"/>
		<path class="st11" d="M568.7,480.1c0,1.9-0.4,3.7-1.3,5.3c-0.9,1.6-2.2,2.9-4,3.8s-3.9,1.4-6.4,1.4s-4.7-0.5-6.5-1.5
			s-3.1-2.3-3.9-3.9c-0.9-1.6-1.3-3.3-1.3-5.2c0-1.9,0.4-3.6,1.3-5.2c0.9-1.6,2.2-2.9,3.9-3.9c1.8-1,3.9-1.5,6.5-1.5
			c1.9,0,3.6,0.3,5.1,0.8s2.7,1.3,3.7,2.3s1.7,2.1,2.2,3.4S568.7,478.6,568.7,480.1z M562.4,480.1c0-0.8-0.1-1.5-0.3-2.1
			s-0.6-1.2-1-1.7c-0.5-0.5-1-0.8-1.7-1.1s-1.4-0.4-2.3-0.4c-1.7,0-3,0.5-3.9,1.5s-1.4,2.2-1.4,3.8s0.5,2.8,1.4,3.8
			c1,1,2.3,1.5,3.9,1.5c1.1,0,2.1-0.2,2.9-0.7s1.4-1.1,1.8-1.9C562.2,482,562.4,481.1,562.4,480.1z"/>
		<path class="st11" d="M594.2,490.4h-7.6l-7.9-9.6v9.6h-6.2v-20.6h6.2v9.2l7.5-9.2h6.7l-7.7,9.6L594.2,490.4z"/>
	</g>
	<line id="XMLID_53_" class="st12" x1="422" y1="397" x2="422" y2="509"/>
	<rect id="XMLID_51_" x="388" y="397" class="st13" width="17" height="112"/>
	<rect id="XMLID_56_" x="624" y="397" class="st14" width="17" height="112"/>
	<rect id="XMLID_3_" x="388" y="397" class="st9" width="294" height="112"/>
	<path id="XMLID_4_" class="st15" d="M624.2,687h-12.3c-3.2,0-5.8-2.6-5.8-5.8V280.8c0-3.2,2.6-5.8,5.8-5.8h12.3
		c3.2,0,5.8,2.6,5.8,5.8v400.3C630,684.4,627.4,687,624.2,687z"/>
	<path id="XMLID_2_" class="st9" d="M624.2,687h-12.3c-3.2,0-5.8-2.6-5.8-5.8V280.8c0-3.2,2.6-5.8,5.8-5.8h12.3
		c3.2,0,5.8,2.6,5.8,5.8v400.3C630,684.4,627.4,687,624.2,687z"/>
	<polygon id="XMLID_20_" class="st16" points="449,724.7 419,708 419,679 449,679 	"/>
	<rect id="XMLID_60_" x="419" y="679" class="st17" width="30" height="11.3"/>
	<polygon id="XMLID_5_" class="st9" points="449,724.7 419,708 419,679 449,679 	"/>
	<rect id="XMLID_22_" x="290" y="362" class="st18" width="32" height="151"/>
	<rect id="XMLID_32_" x="290" y="362" class="st18" width="32" height="151"/>
	<rect id="XMLID_33_" x="290" y="362" class="st19" width="10" height="151"/>
	<rect id="XMLID_35_" x="313" y="362" class="st20" width="9" height="151"/>
	<rect id="XMLID_6_" x="290" y="362" class="st9" width="32" height="151"/>
	<path id="XMLID_23_" class="st21" d="M322.4,615c-10.8,0-21.7,0-32.5,0c-2.1-22-2.1-45,0-68c10.8,0,21.7,0,32.5,0
		C324.5,570,324.5,593,322.4,615z"/>
	<path id="XMLID_25_" class="st18" d="M322.4,615c-10.8,0-21.7,0-32.5,0c-2.1-22-2.1-45,0-68c10.8,0,21.7,0,32.5,0
		C324.5,570,324.5,593,322.4,615z"/>
	<path id="XMLID_59_" class="st20" d="M322.4,547c-2.6,0-5.2,0-7.8,0c2.1,23,2.1,46,0,68c2.6,0,5.2,0,7.8,0
		C324.5,593,324.5,570,322.4,547z"/>
	<path id="XMLID_37_" class="st22" d="M301.4,614c-1.6,0-3.1,0-4.7,0c-2.1-21.7-2.1-44.3-0.1-67c1.6,0,3.2,0,4.8,0
		C299.4,569.7,299.4,592.3,301.4,614z"/>
	<path id="XMLID_10_" class="st9" d="M322.4,615c-10.8,0-21.7,0-32.5,0c-2.1-22-2.1-45,0-68c10.8,0,21.7,0,32.5,0
		C324.5,570,324.5,593,322.4,615z"/>
	<rect id="XMLID_8_" x="288" y="571" class="st9" width="36" height="21"/>
	<path id="XMLID_9_" class="st9" d="M322.4,547c-10.8,0-21.7,0-32.5,0c6.7-10,6.7-23,0-34c10.8,0,21.7,0,32.5,0
		C315.7,524,315.7,537,322.4,547z"/>
	<path id="XMLID_26_" class="st23" d="M310.3,662c5.4-16,11.9-31,12.1-47h-32.5c0.2,16,6.7,31,12.1,47H310.3z"/>
	<path id="XMLID_39_" class="st24" d="M322.4,615c0,0.3,0,0.7,0,1H301c0.1,15.7,2.9,30.7,6.2,46H302c-5.4-16-11.9-31-12.1-47H322.4z
		"/>
	<path id="XMLID_14_" class="st9" d="M310.3,662c5.4-16,11.9-31,12.1-47h-32.5c0.2,16,6.7,31,12.1,47H310.3z"/>
	<rect id="XMLID_11_" x="302" y="662" class="st9" width="8" height="6"/>
	<line id="XMLID_13_" class="st9" x1="306" y1="669" x2="306" y2="682"/>
	<rect id="XMLID_12_" x="294" y="340" class="st9" width="24" height="22"/>
	<rect id="XMLID_29_" x="294" y="340" class="st4" width="24" height="22"/>
	<path id="XMLID_30_" class="st23" d="M315,340h-18v-25.7c0-3.5,3.2-6.3,6.7-6.3h5c3.5,0,6.3,2.8,6.3,6.3V340z"/>
	<path id="XMLID_16_" class="st9" d="M315,340h-18v-25.7c0-3.5,3.2-6.3,6.7-6.3h5c3.5,0,6.3,2.8,6.3,6.3V340z"/>
	<rect id="XMLID_27_" x="302" y="376" class="st23" width="31" height="18"/>
	<rect id="XMLID_15_" x="302" y="376" class="st9" width="31" height="18"/>
	<polygon id="XMLID_28_" class="st23" points="333,455.3 322,440.8 322,394 333,394 	"/>
	<polygon id="XMLID_17_" class="st9" points="333,455.3 322,440.8 322,394 333,394 	"/>
	<path id="XMLID_52_" class="st25" d="M422,397"/>
</g>
</svg>
