<?xml version="1.0" encoding="utf-8"?>
<!-- Generator: Adobe Illustrator 23.1.1, SVG Export Plug-In . SVG Version: 6.00 Build 0)  -->
<svg version="1.1" id="Layer_1" xmlns="http://www.w3.org/2000/svg" xmlns:xlink="http://www.w3.org/1999/xlink" x="0px" y="0px"
	 viewBox="0 0 1000 1000" style="enable-background:new 0 0 1000 1000;" xml:space="preserve">
<style type="text/css">
	.st0{fill:#E6F7D5;}
	.st1{fill:#013711;}
	.st2{opacity:0.17;}
	.st3{fill:none;stroke:#1B3242;stroke-width:8;stroke-linecap:round;stroke-linejoin:round;stroke-miterlimit:10;}
	.st4{fill:none;stroke:#1B3242;stroke-width:10;stroke-linecap:round;stroke-linejoin:round;stroke-miterlimit:10;}
	.st5{fill:none;stroke:#1B3242;stroke-width:11;stroke-linecap:round;stroke-linejoin:round;stroke-miterlimit:10;}
	.st6{fill:none;stroke:#013711;stroke-width:10;stroke-linecap:round;stroke-linejoin:round;stroke-miterlimit:10;}
	.st7{fill:#0B7C3E;}
	.st8{opacity:0.5;fill:#049448;}
	.st9{opacity:0.46;fill:#70BF43;}
	.st10{opacity:0.2;fill:#0B7C3E;}
	.st11{fill:#049448;}
	.st12{opacity:0.29;fill:#0B7C3E;}
	.st13{opacity:0.5;fill:none;stroke:#049448;stroke-width:8;stroke-miterlimit:10;}
	.st14{fill:none;stroke:#013711;stroke-width:4;stroke-linecap:round;stroke-linejoin:round;stroke-dasharray:4.0053,8.0105;}
	.st15{fill:none;stroke:#013711;stroke-miterlimit:10;}
	.st16{fill:#70BF43;}
	.st17{opacity:0.41;fill:#013711;}
	.st18{opacity:0.65;fill:#70BF43;}
	.st19{opacity:0.41;fill:none;stroke:#013711;stroke-width:10;stroke-linecap:round;stroke-linejoin:round;stroke-miterlimit:10;}
	.st20{fill:none;stroke:#013711;stroke-width:4;stroke-linecap:round;stroke-linejoin:round;stroke-dasharray:4.0033,8.0067;}
	.st21{fill:#0BB68F;}
	.st22{opacity:0.43;fill:#0BB68F;}
	.st23{opacity:0.7;fill:#0BB68F;}
	.st24{opacity:0.41;}
	.st25{fill:none;stroke:#013711;stroke-width:3;stroke-linecap:round;stroke-linejoin:round;}
	.st26{fill:none;stroke:#013711;stroke-width:3;stroke-linecap:round;stroke-linejoin:round;stroke-dasharray:2.989,6.9744;}
	.st27{fill:none;stroke:#013711;stroke-width:3;stroke-linecap:round;stroke-linejoin:round;stroke-dasharray:2.602,6.0714;}
	.st28{fill:#F9941C;}
	.st29{opacity:0.37;fill:#F9941C;}
	.st30{fill:none;stroke:#013711;stroke-width:8;stroke-linecap:round;stroke-linejoin:round;stroke-miterlimit:10;}
	.st31{fill:#FFFFFF;}
	.st32{fill:none;stroke:#013711;stroke-width:4;stroke-linecap:round;stroke-linejoin:round;stroke-miterlimit:10;}
	.st33{fill:none;stroke:#013711;stroke-width:6;stroke-linecap:round;stroke-linejoin:round;stroke-miterlimit:10;}
	.st34{fill:none;stroke:#013711;stroke-width:9;stroke-linejoin:round;stroke-miterlimit:10;stroke-dasharray:5,4;}
	.st35{fill:#FCCA86;}
	.st36{opacity:0.6;fill:#FCCA86;}
	.st37{opacity:0.77;fill:#FCCA86;}
	.st38{fill:none;stroke:#013711;stroke-width:3;stroke-linecap:round;stroke-linejoin:round;stroke-miterlimit:10;}
	.st39{fill:none;stroke:#1B3242;stroke-width:6;stroke-linecap:round;stroke-linejoin:round;stroke-miterlimit:10;}
	.st40{fill:#1B3242;}
	.st41{fill:none;stroke:#1B3242;stroke-width:4;stroke-linecap:round;stroke-linejoin:round;stroke-miterlimit:10;}
</style>
<rect id="XMLID_191_" class="st0" width="1000" height="1000"/>
<g>
	<g>
		<g>
			<path class="st1" d="M63.2,959.2c0,2.5-1.2,3.7-2.6,3.7c-1.1,0-1.9-0.5-2.1-1.4c-0.4,0.5-1,0.8-1.8,0.8c-1.5,0-2.6-1.2-2.6-2.8
				c0-1.6,1.1-2.8,2.6-2.8c0.7,0,1.2,0.3,1.6,0.7v-0.5h1.6v3.9c0,0.8,0.3,1.4,1,1.4c0.9,0,1.7-0.9,1.7-3c0-3-2.3-5.3-5.4-5.3
				c-3.1,0-5.6,2.4-5.6,5.7c0,3.3,2.5,5.7,5.9,5.7c1.1,0,2.1-0.2,2.9-0.4v0.6c-0.8,0.3-1.7,0.4-2.9,0.4c-3.7,0-6.5-2.6-6.5-6.2
				c0-3.4,2.7-6.2,6.2-6.2C61.1,953.3,63.2,956.4,63.2,959.2z M58.3,959.5c0-0.8-0.6-1.4-1.3-1.4c-0.8,0-1.3,0.5-1.3,1.4
				c0,0.8,0.6,1.3,1.3,1.3C57.8,960.9,58.3,960.3,58.3,959.5z"/>
		</g>
		<g>
			<path class="st1" d="M69.4,955.1v2c-1.2-0.1-2.6,0.5-2.6,2.4v4.3h-1.9v-8.6h1.9v1.4C67.3,955.5,68.3,955.1,69.4,955.1z"/>
		</g>
		<g>
			<path class="st1" d="M74.6,962.3c1,0,1.8-0.5,2.2-1.1l1.5,0.9c-0.8,1.2-2.1,1.9-3.8,1.9c-2.8,0-4.7-1.9-4.7-4.5
				c0-2.5,1.8-4.5,4.5-4.5c2.6,0,4.3,2.1,4.3,4.5c0,0.3,0,0.5-0.1,0.8h-6.8C72.1,961.6,73.2,962.3,74.6,962.3z M76.9,958.8
				c-0.3-1.5-1.3-2.1-2.5-2.1c-1.4,0-2.3,0.8-2.6,2.1H76.9z"/>
		</g>
		<g>
			<path class="st1" d="M88.9,955.2v8.6h-1.9v-1.2c-0.7,0.9-1.7,1.5-3,1.5c-2.3,0-4.3-2-4.3-4.5c0-2.6,1.9-4.5,4.3-4.5
				c1.3,0,2.3,0.5,3,1.4v-1.2H88.9z M87.1,959.5c0-1.6-1.2-2.7-2.7-2.7c-1.5,0-2.7,1.1-2.7,2.7c0,1.6,1.2,2.7,2.7,2.7
				C85.9,962.3,87.1,961.1,87.1,959.5z"/>
		</g>
		<g>
			<path class="st1" d="M91.1,951.3H93v12.5h-1.9V951.3z"/>
		</g>
		<g>
			<path class="st1" d="M102.9,955.2l-3.3,8.6h-2.1l-3.3-8.6h2l2.4,6.5l2.4-6.5H102.9z"/>
		</g>
		<g>
			<path class="st1" d="M104.2,955.2h1.9v8.9c0,2.4-1.2,3.5-3.5,3.3v-1.8c1.1,0.1,1.7-0.3,1.7-1.5V955.2z M104,952.8
				c0-0.7,0.5-1.2,1.2-1.2c0.7,0,1.2,0.5,1.2,1.2c0,0.6-0.5,1.2-1.2,1.2C104.5,954,104,953.4,104,952.8z"/>
		</g>
		<g>
			<path class="st1" d="M116,955.2l-3.3,8.8c-0.8,2.2-2.2,3.3-4.2,3.2v-1.7c1.2,0.1,1.9-0.5,2.3-1.7l0.1-0.2l-3.6-8.4h2l2.6,6.2
				l2.2-6.2H116z"/>
		</g>
	</g>
	<g>
		<path class="st1" d="M211.9,938.7c0,2.1-1.5,3.8-3.6,3.8h-3v-7.6h3C210.4,934.9,211.9,936.6,211.9,938.7z M210.9,938.7
			c0-1.6-1.1-2.9-2.6-2.9h-2v5.7h2C209.8,941.6,210.9,940.3,210.9,938.7z"/>
		<path class="st1" d="M219.5,940.8h-3.4l-0.6,1.7h-1.1l2.8-7.6h1.1l2.8,7.6h-1.1L219.5,940.8z M219.2,939.9l-1.4-3.8l-1.4,3.8
			H219.2z"/>
		<path class="st1" d="M226.4,939.4v3.1h-1v-3.1l-2.7-4.5h1.1l2.1,3.6l2.1-3.6h1.1L226.4,939.4z"/>
		<path class="st1" d="M242.1,940.1c0,1.5-1.1,2.6-2.6,2.6c-1.5,0-2.6-1.1-2.6-2.6c0-0.6,0.2-1.1,0.5-1.5l2.5-3.7h1.2l-1.8,2.7
			c0.1,0,0.2,0,0.4,0C241,937.5,242.1,938.6,242.1,940.1z M241.1,940.1c0-1-0.7-1.6-1.6-1.6c-1,0-1.6,0.6-1.6,1.6s0.7,1.6,1.6,1.6
			C240.4,941.7,241.1,941,241.1,940.1z"/>
		<path class="st1" d="M250,940.3c0,1.5-1.2,2.4-2.6,2.4c-1.1,0-2.1-0.5-2.5-1.5l0.9-0.5c0.2,0.7,0.8,1.1,1.7,1.1
			c0.9,0,1.6-0.5,1.6-1.4c0-0.9-0.7-1.4-1.6-1.4h-0.3l-0.4-0.6l1.8-2.4h-3.4v-0.9h4.6v0.9L248,938C249.1,938.2,250,939,250,940.3z"
			/>
	</g>
	<g>
		<path class="st1" d="M58.9,938.7c0,2.1-1.5,3.8-3.6,3.8h-3v-7.6h3C57.4,934.9,58.9,936.6,58.9,938.7z M57.9,938.7
			c0-1.6-1.1-2.9-2.6-2.9h-2v5.7h2C56.8,941.6,57.9,940.3,57.9,938.7z"/>
		<path class="st1" d="M67,941.6v1h-4.6v-7.6h4.5v1h-3.5v2.3h3.2v0.9h-3.2v2.4H67z"/>
		<path class="st1" d="M70,940.8l0.9-0.5c0.3,0.8,0.9,1.4,2,1.4c1.1,0,1.6-0.5,1.6-1.2c0-0.8-0.7-1-1.8-1.4
			c-1.2-0.4-2.4-0.8-2.4-2.2c0-1.4,1.1-2.2,2.4-2.2c1.3,0,2.2,0.7,2.6,1.7l-0.8,0.5c-0.3-0.7-0.8-1.2-1.7-1.2
			c-0.8,0-1.4,0.4-1.4,1.1c0,0.7,0.5,1,1.6,1.3c1.3,0.4,2.6,0.8,2.6,2.3c0,1.3-1.1,2.2-2.6,2.2C71.5,942.7,70.4,941.9,70,940.8z"/>
		<path class="st1" d="M80,934.9v7.6h-1v-7.6H80z"/>
		<path class="st1" d="M91.3,939.2c0,1.9-1.4,3.5-3.7,3.5c-2.4,0-4-1.8-4-4c0-2.2,1.7-4,4-4c1.4,0,2.7,0.8,3.3,1.8l-0.9,0.5
			c-0.4-0.8-1.4-1.4-2.4-1.4c-1.8,0-3,1.3-3,3c0,1.7,1.2,3,3,3c1.6,0,2.5-0.9,2.7-2h-2.8v-0.9h3.8V939.2z"/>
		<path class="st1" d="M100.6,934.9v7.6h-0.8l-3.9-5.7v5.7h-1v-7.6h0.8l3.9,5.7v-5.7H100.6z"/>
		<path class="st1" d="M109.1,941.6v1h-4.6v-7.6h4.5v1h-3.5v2.3h3.2v0.9h-3.2v2.4H109.1z"/>
		<path class="st1" d="M119.2,938.7c0,2.1-1.5,3.8-3.6,3.8h-3v-7.6h3C117.6,934.9,119.2,936.6,119.2,938.7z M118.2,938.7
			c0-1.6-1.1-2.9-2.6-2.9h-2v5.7h2C117.1,941.6,118.2,940.3,118.2,938.7z"/>
		<path class="st1" d="M133.2,940.4c0,1.2-1,2.2-2.2,2.2h-3.3v-7.6h3c1.2,0,2.1,0.9,2.1,2.1c0,0.7-0.3,1.2-0.8,1.6
			C132.7,938.9,133.2,939.5,133.2,940.4z M128.7,935.8v2.3h2c0.6,0,1.1-0.5,1.1-1.2c0-0.6-0.5-1.2-1.1-1.2H128.7z M132.2,940.3
			c0-0.7-0.5-1.2-1.2-1.2h-2.3v2.5h2.3C131.7,941.6,132.2,941,132.2,940.3z"/>
		<path class="st1" d="M139.4,939.4v3.1h-1v-3.1l-2.7-4.5h1.1l2.1,3.6l2.1-3.6h1.1L139.4,939.4z"/>
	</g>
	<g>
		<path class="st1" d="M204.8,961.5l1.8-1c0.4,1.3,1.4,2.1,3.1,2.1c1.6,0,2.3-0.7,2.3-1.6c0-1.1-1-1.5-2.8-2
			c-1.9-0.6-3.8-1.3-3.8-3.6c0-2.3,1.9-3.6,4-3.6c2,0,3.5,1.1,4.3,2.7l-1.7,1c-0.4-1-1.2-1.7-2.6-1.7c-1.2,0-1.9,0.6-1.9,1.5
			c0,1,0.7,1.4,2.5,1.9c2.1,0.7,4.1,1.3,4.1,3.8c0,2.3-1.8,3.6-4.4,3.6C207.1,964.5,205.5,963.3,204.8,961.5z"/>
		<path class="st1" d="M215.4,959.9c0-2.6,2-4.7,4.7-4.7c1.7,0,3.2,0.9,3.9,2.3l-1.6,1c-0.4-0.8-1.3-1.4-2.3-1.4
			c-1.6,0-2.7,1.2-2.7,2.8c0,1.6,1.2,2.8,2.7,2.8c1.1,0,1.9-0.5,2.4-1.4l1.6,0.9c-0.7,1.4-2.2,2.3-4,2.3
			C217.4,964.5,215.4,962.5,215.4,959.9z"/>
		<path class="st1" d="M233.4,958.9v5.4h-1.9v-5.2c0-1.3-0.8-2.1-2-2.1c-1.3,0-2.2,0.7-2.2,2.5v4.7h-1.9v-12.4h1.9v4.7
			c0.6-0.9,1.5-1.4,2.7-1.4C232,955.2,233.4,956.6,233.4,958.9z"/>
		<path class="st1" d="M235,959.9c0-2.6,2.1-4.7,4.7-4.7c2.6,0,4.7,2,4.7,4.7c0,2.6-2.1,4.7-4.7,4.7
			C237.1,964.5,235,962.5,235,959.9z M242.4,959.9c0-1.6-1.2-2.8-2.8-2.8c-1.6,0-2.8,1.2-2.8,2.8c0,1.6,1.2,2.8,2.8,2.8
			C241.2,962.7,242.4,961.5,242.4,959.9z"/>
		<path class="st1" d="M245.6,959.9c0-2.6,2.1-4.7,4.7-4.7c2.6,0,4.7,2,4.7,4.7c0,2.6-2.1,4.7-4.7,4.7
			C247.7,964.5,245.6,962.5,245.6,959.9z M253,959.9c0-1.6-1.2-2.8-2.8-2.8c-1.6,0-2.8,1.2-2.8,2.8c0,1.6,1.2,2.8,2.8,2.8
			C251.8,962.7,253,961.5,253,959.9z"/>
		<path class="st1" d="M256.7,951.4h1.9v12.9h-1.9V951.4z"/>
		<path class="st1" d="M274.4,960.8c0,2.1-1.7,3.5-3.7,3.5h-5.3v-12.4h4.9c2,0,3.6,1.5,3.6,3.4c0,1.1-0.5,2-1.3,2.5
			C273.7,958.4,274.4,959.4,274.4,960.8z M267.4,953.8v3.3h2.9c0.9,0,1.6-0.7,1.6-1.6c0-0.9-0.7-1.6-1.6-1.6H267.4z M272.3,960.6
			c0-1-0.7-1.7-1.7-1.7h-3.3v3.5h3.3C271.6,962.4,272.3,961.6,272.3,960.6z"/>
		<path class="st1" d="M285,955.4v8.9h-1.9V963c-0.7,0.9-1.7,1.5-3.1,1.5c-2.4,0-4.4-2-4.4-4.7c0-2.6,2-4.7,4.4-4.7
			c1.4,0,2.4,0.6,3.1,1.5v-1.3H285z M283.1,959.9c0-1.6-1.2-2.8-2.8-2.8c-1.6,0-2.8,1.2-2.8,2.8c0,1.6,1.2,2.8,2.8,2.8
			C281.9,962.7,283.1,961.5,283.1,959.9z"/>
		<path class="st1" d="M296.2,955.4v8.4c0,2.8-2.2,4.2-4.5,4.2c-1.9,0-3.5-0.7-4.2-2.1l1.6-1c0.4,0.8,1,1.4,2.6,1.4
			c1.6,0,2.6-0.9,2.6-2.4v-1.1c-0.7,1-1.7,1.5-3.1,1.5c-2.5,0-4.5-2-4.5-4.6s2-4.6,4.5-4.6c1.4,0,2.4,0.6,3.1,1.5v-1.3H296.2z
			 M294.3,959.8c0-1.6-1.2-2.8-2.8-2.8s-2.8,1.2-2.8,2.8s1.2,2.8,2.8,2.8S294.3,961.4,294.3,959.8z"/>
	</g>
	<g>
		<g>
			<g>
				<path class="st1" d="M846.1,938.7c0,2.1-1.5,3.8-3.6,3.8h-3v-7.6h3C844.6,934.9,846.1,936.6,846.1,938.7z M845.2,938.7
					c0-1.6-1.1-2.9-2.6-2.9h-2v5.7h2C844.1,941.6,845.2,940.3,845.2,938.7z"/>
			</g>
			<g>
				<path class="st1" d="M849.3,938.7c0-2.2,1.7-4,3.9-4c2.2,0,4,1.8,4,4c0,2.2-1.7,4-4,4C851,942.7,849.3,940.9,849.3,938.7z
					 M856.1,938.7c0-1.7-1.3-3-2.9-3c-1.7,0-2.9,1.3-2.9,3c0,1.7,1.3,3,2.9,3C854.9,941.7,856.1,940.4,856.1,938.7z"/>
			</g>
			<g>
				<path class="st1" d="M859.8,934.9h1.1l1.7,6.3l1.9-6.3h1l1.9,6.3l1.7-6.3h1.1l-2.2,7.6h-1.2l-1.8-6.1l-1.8,6.1H862L859.8,934.9z
					"/>
			</g>
			<g>
				<path class="st1" d="M879.3,934.9v7.6h-0.8l-3.9-5.7v5.7h-1v-7.6h0.8l3.9,5.7v-5.7H879.3z"/>
			</g>
			<g>
				<path class="st1" d="M887.5,941.6v1h-4.3v-7.6h1v6.7H887.5z"/>
			</g>
			<g>
				<path class="st1" d="M889.9,938.7c0-2.2,1.7-4,3.9-4c2.2,0,4,1.8,4,4c0,2.2-1.7,4-4,4C891.6,942.7,889.9,940.9,889.9,938.7z
					 M896.8,938.7c0-1.7-1.3-3-2.9-3c-1.7,0-2.9,1.3-2.9,3c0,1.7,1.3,3,2.9,3C895.5,941.7,896.8,940.4,896.8,938.7z"/>
			</g>
			<g>
				<path class="st1" d="M905.4,940.8H902l-0.6,1.7h-1.1l2.8-7.6h1.1l2.8,7.6H906L905.4,940.8z M905.1,939.9l-1.4-3.8l-1.4,3.8
					H905.1z"/>
			</g>
			<g>
				<path class="st1" d="M916.9,938.7c0,2.1-1.5,3.8-3.6,3.8h-3v-7.6h3C915.4,934.9,916.9,936.6,916.9,938.7z M915.9,938.7
					c0-1.6-1.1-2.9-2.6-2.9h-2v5.7h2C914.9,941.6,915.9,940.3,915.9,938.7z"/>
			</g>
			<g>
				<path class="st1" d="M926.5,935.8v2.5h3.2v1h-3.2v3.2h-1v-7.6h4.4v1H926.5z"/>
			</g>
			<g>
				<path class="st1" d="M936.2,939.6h-1.8v2.9h-1v-7.6h3c1.3,0,2.4,1.1,2.4,2.4c0,1-0.7,1.9-1.6,2.2l1.8,3.1h-1.1L936.2,939.6z
					 M934.4,938.7h2c0.8,0,1.4-0.6,1.4-1.4c0-0.8-0.6-1.4-1.4-1.4h-2V938.7z"/>
			</g>
			<g>
				<path class="st1" d="M941.9,938.7c0-2.2,1.7-4,3.9-4c2.2,0,4,1.8,4,4c0,2.2-1.7,4-4,4C943.6,942.7,941.9,940.9,941.9,938.7z
					 M948.8,938.7c0-1.7-1.3-3-2.9-3c-1.7,0-2.9,1.3-2.9,3c0,1.7,1.3,3,2.9,3C947.5,941.7,948.8,940.4,948.8,938.7z"/>
			</g>
			<g>
				<path class="st1" d="M960.4,942.5h-1v-6l-2.5,4.2h-0.1l-2.5-4.1v5.9h-1v-7.6h1.1l2.4,4l2.4-4h1.1V942.5z"/>
			</g>
		</g>
		<g>
			<g>
				<path class="st1" d="M839.3,952.9c0-0.7,0.5-1.2,1.2-1.2c0.7,0,1.2,0.5,1.2,1.2c0,0.7-0.5,1.2-1.2,1.2
					C839.9,954.1,839.3,953.6,839.3,952.9z M839.6,955.4h1.9v8.9h-1.9V955.4z"/>
			</g>
			<g>
				<path class="st1" d="M843.7,951.4h1.9v12.9h-1.9V951.4z"/>
			</g>
			<g>
				<path class="st1" d="M847.8,951.4h1.9v12.9h-1.9V951.4z"/>
			</g>
			<g>
				<path class="st1" d="M852,951.4h1.9v12.9H852V951.4z"/>
			</g>
			<g>
				<path class="st1" d="M864,955.4v8.9h-1.9v-1.1c-0.6,0.9-1.5,1.4-2.7,1.4c-2,0-3.4-1.3-3.4-3.6v-5.4h1.9v5.2c0,1.3,0.8,2.1,2,2.1
					c1.3,0,2.2-0.7,2.2-2.5v-4.7H864z"/>
			</g>
			<g>
				<path class="st1" d="M872.6,961.8c0,1.8-1.5,2.7-3.5,2.7c-1.8,0-3-0.8-3.6-2.1l1.6-1c0.3,0.8,1,1.3,2,1.3c0.8,0,1.5-0.3,1.5-1
					c0-1.6-4.8-0.7-4.8-3.9c0-1.7,1.4-2.7,3.2-2.7c1.5,0,2.7,0.7,3.3,1.8l-1.6,0.9c-0.3-0.7-0.9-1-1.7-1c-0.7,0-1.3,0.3-1.3,0.9
					C867.9,959.5,872.6,958.5,872.6,961.8z"/>
			</g>
			<g>
				<path class="st1" d="M876.7,957.3v4.2c0,1.1,0.7,1.1,2.2,1v1.7c-2.9,0.4-4.1-0.5-4.1-2.8v-4.2h-1.6v-1.8h1.6v-1.9l1.9-0.6v2.5
					h2.2v1.8H876.7z"/>
			</g>
			<g>
				<path class="st1" d="M885.4,955.3v2.1c-1.3-0.1-2.7,0.5-2.7,2.5v4.5h-1.9v-8.9h1.9v1.5C883.2,955.7,884.2,955.3,885.4,955.3z"/>
			</g>
			<g>
				<path class="st1" d="M895.3,955.4v8.9h-1.9V963c-0.7,0.9-1.7,1.5-3.1,1.5c-2.4,0-4.4-2-4.4-4.7c0-2.6,2-4.7,4.4-4.7
					c1.4,0,2.4,0.6,3.1,1.5v-1.3H895.3z M893.4,959.9c0-1.6-1.2-2.8-2.8-2.8c-1.6,0-2.8,1.2-2.8,2.8c0,1.6,1.2,2.8,2.8,2.8
					C892.2,962.7,893.4,961.5,893.4,959.9z"/>
			</g>
			<g>
				<path class="st1" d="M900.3,957.3v4.2c0,1.1,0.7,1.1,2.2,1v1.7c-2.9,0.4-4.1-0.5-4.1-2.8v-4.2h-1.6v-1.8h1.6v-1.9l1.9-0.6v2.5
					h2.2v1.8H900.3z"/>
			</g>
			<g>
				<path class="st1" d="M903.9,952.9c0-0.7,0.5-1.2,1.2-1.2c0.7,0,1.2,0.5,1.2,1.2c0,0.7-0.5,1.2-1.2,1.2
					C904.5,954.1,903.9,953.6,903.9,952.9z M904.2,955.4h1.9v8.9h-1.9V955.4z"/>
			</g>
			<g>
				<path class="st1" d="M907.8,959.9c0-2.6,2.1-4.7,4.7-4.7c2.6,0,4.7,2,4.7,4.7c0,2.6-2.1,4.7-4.7,4.7
					C909.9,964.5,907.8,962.5,907.8,959.9z M915.3,959.9c0-1.6-1.2-2.8-2.8-2.8c-1.6,0-2.8,1.2-2.8,2.8c0,1.6,1.2,2.8,2.8,2.8
					C914.1,962.7,915.3,961.5,915.3,959.9z"/>
			</g>
			<g>
				<path class="st1" d="M927,958.9v5.4h-1.9v-5.2c0-1.3-0.8-2.1-2-2.1c-1.3,0-2.2,0.7-2.2,2.5v4.7h-1.9v-8.9h1.9v1.1
					c0.6-0.9,1.5-1.4,2.7-1.4C925.5,955.2,927,956.6,927,958.9z"/>
			</g>
			<g>
				<path class="st1" d="M935.5,961.8c0,1.8-1.5,2.7-3.5,2.7c-1.8,0-3-0.8-3.6-2.1l1.6-1c0.3,0.8,1,1.3,2,1.3c0.8,0,1.5-0.3,1.5-1
					c0-1.6-4.8-0.7-4.8-3.9c0-1.7,1.4-2.7,3.2-2.7c1.5,0,2.7,0.7,3.3,1.8l-1.6,0.9c-0.3-0.7-0.9-1-1.7-1c-0.7,0-1.3,0.3-1.3,0.9
					C930.7,959.5,935.5,958.5,935.5,961.8z"/>
			</g>
			<g>
				<path class="st1" d="M936.8,963.2c0-0.7,0.6-1.3,1.3-1.3c0.7,0,1.3,0.6,1.3,1.3c0,0.7-0.6,1.3-1.3,1.3
					C937.4,964.5,936.8,963.9,936.8,963.2z"/>
			</g>
			<g>
				<path class="st1" d="M940.3,959.9c0-2.6,2-4.7,4.7-4.7c1.7,0,3.2,0.9,3.9,2.3l-1.6,1c-0.4-0.8-1.3-1.4-2.3-1.4
					c-1.6,0-2.7,1.2-2.7,2.8c0,1.6,1.2,2.8,2.7,2.8c1.1,0,1.9-0.5,2.4-1.4l1.6,0.9c-0.7,1.4-2.2,2.3-4,2.3
					C942.3,964.5,940.3,962.5,940.3,959.9z"/>
			</g>
			<g>
				<path class="st1" d="M949.7,959.9c0-2.6,2.1-4.7,4.7-4.7c2.6,0,4.7,2,4.7,4.7c0,2.6-2.1,4.7-4.7,4.7
					C951.8,964.5,949.7,962.5,949.7,959.9z M957.2,959.9c0-1.6-1.2-2.8-2.8-2.8s-2.8,1.2-2.8,2.8c0,1.6,1.2,2.8,2.8,2.8
					S957.2,961.5,957.2,959.9z"/>
			</g>
		</g>
	</g>
</g>
<g id="XMLID_278_" class="st2">
	<polyline id="XMLID_285_" class="st3" points="275.5,386.3 275.5,427.2 193.7,427.2 	"/>
	<polyline id="XMLID_284_" class="st3" points="357.3,427.2 275.5,427.2 275.5,386.3 	"/>
	<rect id="XMLID_283_" x="234.6" y="427.2" class="st3" width="81.8" height="40.9"/>
	<polyline id="XMLID_282_" class="st3" points="298.8,509.1 275.5,509.1 275.5,468.1 357.3,468.1 	"/>
	<polyline id="XMLID_281_" class="st3" points="193.7,468.1 275.5,468.1 275.5,509.1 209.1,509.1 	"/>
	<polyline id="XMLID_280_" class="st3" points="165.8,427.2 234.6,427.2 234.6,468.1 193.7,468.1 	"/>
	<polyline id="XMLID_279_" class="st3" points="375.5,468.1 316.4,468.1 316.4,427.2 344.8,427.2 	"/>
</g>
<g id="XMLID_181_" class="st2">
	<rect id="XMLID_259_" x="650.1" y="725" class="st4" width="30" height="23"/>
	<rect id="XMLID_257_" x="763.4" y="725" class="st4" width="30" height="23"/>
	
		<rect id="XMLID_251_" x="461.2" y="367.5" transform="matrix(-1.836970e-16 1 -1 -1.836970e-16 1186.25 -257.25)" class="st4" width="521" height="194"/>
	<rect id="XMLID_199_" x="642.8" y="222" class="st4" width="158" height="474"/>
	<rect id="XMLID_180_" x="772.8" y="263.3" class="st4" width="28" height="111.5"/>
	
		<rect id="XMLID_179_" x="703" y="468" transform="matrix(4.749363e-11 -1 1 4.749363e-11 192.5828 1240.0411)" class="st4" width="26.5" height="111.5"/>
	
		<rect id="XMLID_178_" x="717.7" y="441.4" transform="matrix(4.749363e-11 -1 1 4.749363e-11 233.8126 1228.1877)" class="st4" width="26.5" height="111.5"/>
	
		<rect id="XMLID_177_" x="705.9" y="417.3" transform="matrix(5.697404e-11 -1 1 5.697404e-11 243.9377 1190.0626)" class="st4" width="22.1" height="111.5"/>
	<line id="XMLID_176_" class="st4" x1="772.8" y1="291" x2="800.8" y2="291"/>
	<rect id="XMLID_175_" x="749" y="271.5" class="st4" width="23.8" height="103.3"/>
	<line id="XMLID_174_" class="st4" x1="749" y1="297.1" x2="772.8" y2="297.1"/>
	
		<rect id="XMLID_173_" x="702.6" y="277.2" transform="matrix(0.866 0.5 -0.5 0.866 258.5042 -313.2106)" class="st4" width="22.4" height="97.3"/>
	<line id="XMLID_172_" class="st4" x1="716.3" y1="299" x2="735.7" y2="310.2"/>
	<line id="XMLID_171_" class="st4" x1="704.7" y1="484.1" x2="704.7" y2="510.5"/>
	<line id="XMLID_170_" class="st4" x1="686.3" y1="462" x2="686.3" y2="483.9"/>
	<line id="XMLID_169_" class="st4" x1="689.2" y1="510.5" x2="689.2" y2="537"/>
	<rect id="XMLID_134_" x="642.8" y="379.7" class="st4" width="158" height="14.8"/>
	<rect id="XMLID_124_" x="642.8" y="537" class="st4" width="158" height="15"/>
	<rect id="XMLID_82_" x="642.8" y="544.5" class="st4" width="158" height="151.5"/>
	<line id="XMLID_58_" class="st5" x1="765.1" y1="587.2" x2="765.1" y2="653.3"/>
</g>
<line id="XMLID_197_" class="st6" x1="822.4" y1="748" x2="829.8" y2="748"/>
<line id="XMLID_195_" class="st6" x1="741.8" y1="748" x2="786.8" y2="748"/>
<line id="XMLID_194_" class="st6" x1="298.5" y1="748" x2="722" y2="748"/>
<line id="XMLID_38_" class="st6" x1="218.6" y1="748" x2="275.5" y2="748"/>
<g>
	<path id="XMLID_24_" class="st7" d="M551,261h-91.5c-24.3,0-44,19.7-44,44v37.9h26V305c0-9.9,8.1-18,18-18H551c9.9,0,18,8.1,18,18
		v37.9h26V305C595,280.7,575.3,261,551,261z"/>
	<rect id="XMLID_57_" x="415.7" y="308.7" class="st8" width="26.7" height="13"/>
	<rect id="XMLID_78_" x="568.3" y="308.7" class="st8" width="26.7" height="13"/>
	<path id="XMLID_81_" class="st9" d="M551,261h-91.5c-24.3,0-44,19.7-44,44v9.3c0-24.3,19.7-44,44-44H551c24.3,0,44,19.7,44,44V305
		C595,280.7,575.3,261,551,261z"/>
	<path id="XMLID_20_" class="st6" d="M551,261h-91.5c-24.3,0-44,19.7-44,44v37.9h26V305c0-9.9,8.1-18,18-18H551c9.9,0,18,8.1,18,18
		v37.9h26V305C595,280.7,575.3,261,551,261z"/>
	<path id="XMLID_42_" class="st7" d="M369.7,700.9h-25.4c-20,0-36.7-15.5-38-35.4c-3.6-54.8,2.2-97.6,14.2-130.7
		c6.5-17.9,32-17.9,38.5,0C373.5,574.7,378.9,628.7,369.7,700.9z"/>
	<path id="XMLID_79_" class="st10" d="M361,534.8c-5.1-14.2-22.2-17.1-32.3-8.8l2.9,116c0.4,16-6.8,30.4-18.3,39.8
		c6.6,11.5,19,19.2,33.1,19.2h25.4C380.9,628.7,375.5,574.7,361,534.8z"/>
	<path id="XMLID_23_" class="st6" d="M369.7,700.9h-25.4c-20,0-36.7-15.5-38-35.4c-3.6-54.8,2.2-97.6,14.2-130.7
		c6.5-17.9,32-17.9,38.5,0C373.5,574.7,378.9,628.7,369.7,700.9z"/>
	<path id="XMLID_43_" class="st7" d="M640.8,694h25.4c20,0,36.7-15.5,38-35.4c3.6-54.8-2.2-97.6-14.2-130.7
		c-6.5-17.9-32-17.9-38.5,0C637,567.8,631.7,621.8,640.8,694z"/>
	<path id="XMLID_80_" class="st10" d="M679,633.9l2.8-114.9c-10.1-8.3-27.2-5.4-32.3,8.8c-14.5,40-19.8,94-10.7,166.2h25.4
		c14.4,0,27.1-8,33.5-20C686,664.6,678.6,650.1,679,633.9z"/>
	<path id="XMLID_21_" class="st6" d="M640.8,694h25.4c20,0,36.7-15.5,38-35.4c3.6-54.8-2.2-97.6-14.2-130.7
		c-6.5-17.9-32-17.9-38.5,0C637,567.8,631.7,621.8,640.8,694z"/>
	<path id="XMLID_16_" class="st11" d="M614.5,748H396.1c-24,0-44-18.3-46.2-42.2c-7.4-79.9-7.4-160.4,0-240.3
		c2.2-23.9,22.2-42.2,46.2-42.2h218.4c24,0,44,18.3,46.2,42.2c7.4,79.9,7.4,160.4,0,240.3C658.4,729.7,638.5,748,614.5,748z"/>
	<path id="XMLID_133_" class="st12" d="M660.7,691.9c-2.2,23.9-22.2,42.2-46.2,42.2H396.1c-24,0-44-18.3-46.2-42.2
		c-3.5-37.7-5.3-75.4-5.5-113.2c-0.2,42.4,1.6,84.8,5.5,127.1c2.2,23.9,22.2,42.2,46.2,42.2h218.4c24,0,44-18.3,46.2-42.2
		c3.9-42.3,5.8-84.7,5.5-127.1C666,616.4,664.2,654.2,660.7,691.9z"/>
	<ellipse id="XMLID_74_" class="st13" cx="505.3" cy="651.2" rx="32.7" ry="20.1"/>
	<path id="XMLID_51_" class="st8" d="M378.7,589.6c42,2.2,84.5,3.3,126.6,3.3c42,0,84.6-1.1,126.6-3.3c12.9-0.7,24.7-5.6,34.4-13.6
		c-0.4-35.9-2.2-71.7-5.5-107.5c-2.2-23.9-22.2-42.2-46.2-42.2H396.1c-24,0-44,18.3-46.2,42.2c-3.3,35.8-5.2,71.6-5.5,107.5
		C354,584,365.8,588.9,378.7,589.6z"/>
	<g id="XMLID_41_">
		<path class="st14" d="M396.1,734.1c-16.9,0-30.8-12.7-32.4-29.6c-7.3-78.9-7.3-158.9,0-237.7c1.6-16.9,15.5-29.6,32.4-29.6h218.4
			c16.9,0,30.8,12.7,32.4,29.6c7.3,78.9,7.3,158.9,0,237.7c-1.6,16.9-15.5,29.6-32.4,29.6H396.1z"/>
	</g>
	<path id="XMLID_46_" class="st15" d="M614.5,748H396.1c-24,0-44-18.3-46.2-42.2c-7.4-79.9-7.4-160.4,0-240.3
		c2.2-23.9,22.2-42.2,46.2-42.2h218.4c24,0,44,18.3,46.2,42.2c7.4,79.9,7.4,160.4,0,240.3C658.4,729.7,638.5,748,614.5,748z"/>
	<path id="XMLID_44_" class="st6" d="M614.5,748H396.1c-24,0-44-18.3-46.2-42.2c-7.4-79.9-7.4-160.4,0-240.3
		c2.2-23.9,22.2-42.2,46.2-42.2h218.4c24,0,44,18.3,46.2,42.2c7.4,79.9,7.4,160.4,0,240.3C658.4,729.7,638.5,748,614.5,748z"/>
	<path id="XMLID_39_" class="st16" d="M631.3,576.6c-84,4.3-168.1,4.3-252.1,0c-29-1.5-51.1-28.9-50.8-62.3
		c0.4-45.9,2.1-90.9,5.1-135.1c2.1-31.1,24.9-55.9,52.5-57.3c79.5-3.9,159.1-3.9,238.6,0c27.6,1.3,50.4,26.2,52.5,57.3
		c3,44.2,4.7,89.1,5.1,135.1C682.4,547.7,660.3,575.1,631.3,576.6z"/>
	<path id="XMLID_70_" class="st17" d="M631.3,567.6c-84,4.3-168.1,4.3-252.1,0c-27.9-1.4-49.4-26.8-50.8-58.5c0,2.1-0.1,4.2-0.1,6.2
		c-0.3,33.5,21.8,60.8,50.8,62.3c84,4.3,168.1,4.3,252.1,0c29-1.5,51.1-28.9,50.8-62.3c0-2.1-0.1-4.2-0.1-6.2
		C680.7,540.8,659.2,566.1,631.3,567.6z"/>
	<path id="XMLID_69_" class="st18" d="M335,522.6c0.4-45.5,2-90,4.9-133.7c2-30.8,24-55.4,50.5-56.7c76.5-3.8,153.1-3.8,229.6,0
		c26.5,1.3,48.5,25.9,50.5,56.7c2.9,43.8,4.5,88.3,4.9,133.7c0.1,11.7-2.5,22.7-7.2,32c8.7-11.1,13.9-26,13.8-42.3
		c-0.4-45.9-2.1-90.9-5.1-135.1c-2.1-31.1-24.9-55.9-52.5-57.3c-79.5-3.9-159.1-3.9-238.6,0c-27.6,1.3-50.4,26.2-52.5,57.3
		c-3,44.2-4.7,89.1-5.1,135.1c-0.1,16.3,5.1,31.2,13.8,42.3C337.5,545.2,334.9,534.3,335,522.6z"/>
	<path id="XMLID_50_" class="st19" d="M537.9,455.5c-21.9,0.3-43.7,0.2-65.6,0c-26.8-0.4-48.5-21-48.5-45.3c0-6.4,0-12.8,0-19.3
		c0-7.5,6.6-13.7,14.8-13.9c44.4-1,88.9-1,133.4,0c8.2,0.2,14.8,6.3,14.8,13.9v18.9C586.8,434.2,564.8,455.1,537.9,455.5z"/>
	<path id="XMLID_40_" class="st6" d="M631.3,576.6c-84,4.3-168.1,4.3-252.1,0c-29-1.5-51.1-28.9-50.8-62.3
		c0.4-45.9,2.1-90.9,5.1-135.1c2.1-31.1,24.9-55.9,52.5-57.3c79.5-3.9,159.1-3.9,238.6,0c27.6,1.3,50.4,26.2,52.5,57.3
		c3,44.2,4.7,89.1,5.1,135.1C682.4,547.7,660.3,575.1,631.3,576.6z"/>
	<g id="XMLID_37_">
		<path class="st20" d="M505.3,565.9c-41.6,0-83.8-1.1-125.3-3.2c-21.3-1.1-37.8-22.3-37.6-48.3c0.4-45.2,2.1-90.4,5.1-134.3
			c1.6-23.9,18.9-43.3,39.3-44.3c39.3-1.9,79.3-2.9,118.6-2.9c39.4,0,79.3,1,118.6,2.9c20.4,1,37.7,20.5,39.3,44.3
			c3,43.9,4.7,89.1,5.1,134.3c0.2,26-16.3,47.2-37.6,48.3C589,564.8,546.9,565.9,505.3,565.9z"/>
	</g>
	<path id="XMLID_9_" class="st21" d="M537.9,447.5c-21.9,0.3-43.7,0.2-65.6,0c-26.8-0.4-48.5-21-48.5-45.3c0-6.4,0-12.8,0-19.3
		c0-7.5,6.6-13.7,14.8-13.9c44.4-1,88.9-1,133.4,0c8.2,0.2,14.8,6.3,14.8,13.9v18.9C586.8,426.2,564.8,447.1,537.9,447.5z"/>
	<path id="XMLID_72_" class="st22" d="M537.9,430.4c-21.9,0.3-43.7,0.2-65.6,0c-26.8-0.4-48.5-21-48.5-45.3c0-0.7,0-1.5,0-2.2
		c0,0,0,0,0,0c0,6.4,0,12.8,0,19.3c0,24.3,21.7,44.9,48.5,45.3c21.9,0.3,43.7,0.3,65.6,0c26.9-0.4,48.9-21.3,48.9-45.7v-17.1
		C586.8,409.1,564.8,430,537.9,430.4z"/>
	<path id="XMLID_71_" class="st23" d="M571.9,369c-44.4-1-88.9-1-133.4,0c-8.2,0.2-14.8,6.3-14.8,13.9c0,2.7,0,5.3,0,8
		c0-7.5,6.6-13.7,14.8-13.9c44.4-1,88.9-1,133.4,0c8.2,0.2,14.8,6.3,14.8,13.9v-8C586.8,375.3,580.2,369.2,571.9,369z"/>
	<path id="XMLID_36_" class="st6" d="M537.9,447.5c-21.9,0.3-43.7,0.2-65.6,0c-26.8-0.4-48.5-21-48.5-45.3c0-6.4,0-12.8,0-19.3
		c0-7.5,6.6-13.7,14.8-13.9c44.4-1,88.9-1,133.4,0c8.2,0.2,14.8,6.3,14.8,13.9v18.9C586.8,426.2,564.8,447.1,537.9,447.5z"/>
	<path id="XMLID_48_" class="st6" d="M537.9,447.5c-21.9,0.3-43.7,0.2-65.6,0c-26.8-0.4-48.5-21-48.5-45.3c0-6.4,0-12.8,0-19.3
		c0-7.5,6.6-13.7,14.8-13.9c44.4-1,88.9-1,133.4,0c8.2,0.2,14.8,6.3,14.8,13.9v18.9C586.8,426.2,564.8,447.1,537.9,447.5z"/>
	<g id="XMLID_32_">
		<g id="XMLID_52_" class="st24">
			<path id="XMLID_119_" class="st1" d="M442.2,568.6h-47.1c-1.8,0-3.5-1-4.4-2.6l-14.6-27.2c-9.8-18.1-6-39.3,9.7-54l21-19.6
				c6.4-6,17.2-5.9,23.6,0l21,19.7c15.7,14.7,19.5,35.8,9.7,53.9L446.6,566C445.7,567.6,444,568.6,442.2,568.6z M398.1,558.6h41.1
				l13.2-24.5c7.6-13.9,4.5-30.3-7.8-41.8l-21-19.7c-2.5-2.3-7.4-2.4-9.9,0l-21,19.6c-12.3,11.5-15.4,28-7.8,41.9L398.1,558.6z"/>
		</g>
		<g id="XMLID_54_" class="st24">
			<path id="XMLID_63_" class="st1" d="M418.2,693.7c-10.4,0-18.9-8.5-18.9-18.9V513.6c0-2.8,2.2-5,5-5h27.8c2.8,0,5,2.2,5,5v161.2
				C437.1,685.2,428.6,693.7,418.2,693.7z M409.3,518.6v156.2c0,4.9,4,8.9,8.9,8.9s8.9-4,8.9-8.9V518.6H409.3z"/>
		</g>
		<path id="XMLID_99_" class="st11" d="M397.3,556.6h42.8l13.3-25.9c7.9-15.2,4.8-33.1-8-45.6l-19.1-18.8c-4-4-11.2-4-15.2,0
			L392,484.9c-12.7,12.5-15.8,30.6-8,45.8L397.3,556.6z"/>
		<path id="XMLID_35_" class="st6" d="M395.1,556.6h47.1l14.6-27.2c8.7-15.9,5.2-34.7-8.8-47.8l-21-19.7c-4.4-4.2-12.3-4.2-16.7,0
			l-21,19.6c-14,13.1-17.4,32-8.8,48L395.1,556.6z"/>
		<g id="XMLID_138_">
			<g>
				<polyline class="st25" points="402.6,546.6 401.1,546.6 400.4,545.3 				"/>
				<path class="st26" d="M397.1,539.1l-7.7-14.4c-6.5-11.9-3.8-26,6.8-35.9l21-19.6c0.2-0.2,0.7-0.4,1.5-0.4c0.8,0,1.4,0.3,1.6,0.4
					l21,19.7c10.7,10,13.3,23.7,6.8,35.8l-9.4,17.5"/>
				<polyline class="st25" points="436.9,545.3 436.2,546.6 434.7,546.6 				"/>
				<line class="st27" x1="428.6" y1="546.6" x2="405.7" y2="546.6"/>
			</g>
		</g>
		<path id="XMLID_137_" class="st28" d="M418.3,682.5L418.3,682.5c-7.7,0-13.9-6.2-13.9-13.9V507.4h27.8v161.2
			C432.3,676.3,426,682.5,418.3,682.5z"/>
		<path id="XMLID_84_" class="st29" d="M418.3,673.2c-7.7,0-13.9-6.2-13.9-13.9v9.3c0,7.7,6.2,13.9,13.9,13.9
			c7.7,0,13.9-6.2,13.9-13.9v-9.3C432.3,667,426,673.2,418.3,673.2z"/>
		<rect id="XMLID_56_" x="404.4" y="590.5" class="st29" width="27.8" height="22.5"/>
		<path id="XMLID_34_" class="st30" d="M418.3,682.5L418.3,682.5c-7.7,0-13.9-6.2-13.9-13.9V507.4h27.8v161.2
			C432.3,676.3,426,682.5,418.3,682.5z"/>
		<path id="XMLID_114_" class="st31" d="M404.4,611v-20.5h27.8V611h11.6v-26.5c0-3.1-2.5-5.6-5.6-5.6h-39.8c-3.1,0-5.6,2.5-5.6,5.6
			V611H404.4z"/>
		<path id="XMLID_33_" class="st30" d="M404.4,611v-20.5h27.8V611h11.6v-22.8c0-5.1-4.1-9.2-9.2-9.2h-32.5c-5.1,0-9.2,4.1-9.2,9.2
			V611H404.4z"/>
		<line id="XMLID_117_" class="st32" x1="422.9" y1="518.4" x2="413.7" y2="527.6"/>
		<line id="XMLID_115_" class="st32" x1="422.9" y1="527.6" x2="413.7" y2="518.4"/>
		<circle id="XMLID_139_" class="st31" cx="418.2" cy="610.4" r="4.6"/>
		<circle id="XMLID_121_" class="st32" cx="418.2" cy="608.4" r="4.6"/>
		<circle id="XMLID_144_" class="st31" cx="418.2" cy="626.4" r="4.6"/>
		<circle id="XMLID_143_" class="st32" cx="418.2" cy="626.4" r="4.6"/>
		<circle id="XMLID_146_" class="st31" cx="418.2" cy="646.7" r="4.6"/>
		<circle id="XMLID_145_" class="st32" cx="418.2" cy="646.7" r="4.6"/>
		<path id="XMLID_120_" class="st31" d="M418.2,611L418.2,611c-1.9,0-3.4-1.5-3.4-3.4v-29.4c0-1.9,1.5-3.4,3.4-3.4l0,0
			c1.9,0,3.4,1.5,3.4,3.4v29.4C421.6,609.5,420.1,611,418.2,611z"/>
		<path id="XMLID_118_" class="st32" d="M418.2,611L418.2,611c-1.9,0-3.4-1.5-3.4-3.4v-29.4c0-1.9,1.5-3.4,3.4-3.4l0,0
			c1.9,0,3.4,1.5,3.4,3.4v29.4C421.6,609.5,420.1,611,418.2,611z"/>
	</g>
	<g id="XMLID_29_">
		<g id="XMLID_53_" class="st24">
			<path id="XMLID_83_" class="st1" d="M615.4,569.6h-47.1c-1.8,0-3.5-1-4.4-2.6l-14.6-27.2c-9.8-18.1-6-39.3,9.7-54l21-19.6
				c6.4-6,17.2-5.9,23.6,0l21,19.7c15.7,14.7,19.5,35.8,9.7,53.9L619.8,567C618.9,568.6,617.2,569.6,615.4,569.6z M571.3,559.6h41.1
				l13.2-24.5c7.6-13.9,4.5-30.3-7.8-41.8l-21-19.7c-2.5-2.3-7.4-2.4-9.9,0l-21,19.6c-12.3,11.5-15.4,28-7.8,41.9L571.3,559.6z"/>
		</g>
		<path id="XMLID_168_" class="st11" d="M570.4,556.6h42.8l13.3-25.9c7.9-15.2,4.8-33.1-8-45.6l-19.1-18.8c-4-4-11.2-4-15.2,0
			l-19.1,18.7c-12.7,12.5-15.8,30.6-8,45.8L570.4,556.6z"/>
		<path id="XMLID_165_" class="st6" d="M568.3,556.6h47.1l14.6-27.2c8.7-15.9,5.2-34.7-8.8-47.8l-21-19.7c-4.4-4.2-12.3-4.2-16.7,0
			l-21,19.6c-14,13.1-17.4,32-8.8,48L568.3,556.6z"/>
		<g id="XMLID_158_">
			<g>
				<polyline class="st25" points="575.8,546.6 574.3,546.6 573.6,545.3 				"/>
				<path class="st26" d="M570.3,539.1l-7.7-14.4c-6.5-11.9-3.8-26,6.8-35.9l21-19.6c0.2-0.2,0.7-0.4,1.5-0.4c0.8,0,1.4,0.3,1.6,0.4
					l21,19.7c10.7,10,13.3,23.7,6.8,35.8l-9.4,17.5"/>
				<polyline class="st25" points="610.1,545.3 609.4,546.6 607.9,546.6 				"/>
				<line class="st27" x1="601.8" y1="546.6" x2="578.8" y2="546.6"/>
			</g>
		</g>
		<g id="XMLID_55_" class="st24">
			<path id="XMLID_60_" class="st1" d="M591.5,693.5c-10.4,0-18.9-8.5-18.9-18.9V513.4c0-2.8,2.2-5,5-5h27.8c2.8,0,5,2.2,5,5v161.2
				C610.4,685,601.9,693.5,591.5,693.5z M582.6,518.4v156.2c0,4.9,4,8.9,8.9,8.9s8.9-4,8.9-8.9V518.4H582.6z"/>
		</g>
		<path id="XMLID_157_" class="st28" d="M591.5,682.5L591.5,682.5c-7.7,0-13.9-6.2-13.9-13.9V507.4h27.8v161.2
			C605.4,676.3,599.2,682.5,591.5,682.5z"/>
		<path id="XMLID_105_" class="st29" d="M591.5,672.9c-7.7,0-13.9-6.2-13.9-13.9v10.6c0,7.7,6.2,13.9,13.9,13.9s13.9-6.2,13.9-13.9
			V659C605.4,666.6,599.2,672.9,591.5,672.9z"/>
		<rect id="XMLID_59_" x="577.5" y="590.5" class="st29" width="27.8" height="22.5"/>
		<path id="XMLID_156_" class="st30" d="M591.5,682.5L591.5,682.5c-7.7,0-13.9-6.2-13.9-13.9V507.4h27.8v161.2
			C605.4,676.3,599.2,682.5,591.5,682.5z"/>
		<path id="XMLID_149_" class="st31" d="M577.6,611v-20.5h27.8V611H617v-26.5c0-3.1-2.5-5.6-5.6-5.6h-39.8c-3.1,0-5.6,2.5-5.6,5.6
			V611H577.6z"/>
		<path id="XMLID_148_" class="st30" d="M577.6,611v-20.5h27.8V611H617v-22.8c0-5.1-4.1-9.2-9.2-9.2h-32.5c-5.1,0-9.2,4.1-9.2,9.2
			V611H577.6z"/>
		<line id="XMLID_147_" class="st32" x1="596.1" y1="518.4" x2="586.9" y2="527.6"/>
		<line id="XMLID_140_" class="st32" x1="596.1" y1="527.6" x2="586.9" y2="518.4"/>
		<circle id="XMLID_113_" class="st31" cx="591.4" cy="610.4" r="4.6"/>
		<circle id="XMLID_112_" class="st32" cx="591.4" cy="608.4" r="4.6"/>
		<circle id="XMLID_111_" class="st31" cx="591.4" cy="626.4" r="4.6"/>
		<circle id="XMLID_110_" class="st32" cx="591.4" cy="626.4" r="4.6"/>
		<circle id="XMLID_109_" class="st31" cx="591.4" cy="646.7" r="4.6"/>
		<circle id="XMLID_108_" class="st32" cx="591.4" cy="646.7" r="4.6"/>
		<path id="XMLID_31_" class="st31" d="M591.4,611L591.4,611c-1.9,0-3.4-1.5-3.4-3.4v-29.4c0-1.9,1.5-3.4,3.4-3.4h0
			c1.9,0,3.4,1.5,3.4,3.4v29.4C594.8,609.5,593.3,611,591.4,611z"/>
		<path id="XMLID_30_" class="st32" d="M591.4,611L591.4,611c-1.9,0-3.4-1.5-3.4-3.4v-29.4c0-1.9,1.5-3.4,3.4-3.4h0
			c1.9,0,3.4,1.5,3.4,3.4v29.4C594.8,609.5,593.3,611,591.4,611z"/>
	</g>
	<path id="XMLID_47_" class="st31" d="M579.8,417.2L579.8,417.2c3.5,4.4,10.3,4.4,13.8,0l0,0c2.1-2.6,2.5-6.2,1.1-9.3l-8-17.3
		l-8,17.3C577.3,410.9,577.8,414.5,579.8,417.2z"/>
	<path id="XMLID_45_" class="st33" d="M579.8,417.2L579.8,417.2c3.5,4.4,10.3,4.4,13.8,0l0,0c2.1-2.6,2.5-6.2,1.1-9.3l-8-17.3
		l-8,17.3C577.3,410.9,577.8,414.5,579.8,417.2z"/>
	<line id="XMLID_49_" class="st34" x1="423.7" y1="396" x2="584.5" y2="396"/>
	<ellipse id="XMLID_67_" class="st35" cx="505.3" cy="646.2" rx="32.7" ry="20.1"/>
	<path id="XMLID_76_" class="st36" d="M505.3,631.8c16.5,0,30.2,7.5,32.4,17.3c0.2-0.9,0.3-1.9,0.3-2.8c0-11.1-14.7-20.1-32.7-20.1
		s-32.7,9-32.7,20.1c0,1,0.1,1.9,0.3,2.8C475.1,639.3,488.7,631.8,505.3,631.8z"/>
	<path id="XMLID_75_" class="st37" d="M505.3,657.3c-14.5,0-27-4.8-32.7-11.6c0,0.2,0,0.4,0,0.5c0,11.1,14.7,20.1,32.7,20.1
		s32.7-9,32.7-20.1c0-0.2,0-0.4,0-0.5C532.2,652.6,519.8,657.3,505.3,657.3z"/>
	<ellipse id="XMLID_66_" class="st33" cx="505.3" cy="646.2" rx="32.7" ry="20.1"/>
	<ellipse id="XMLID_68_" class="st33" cx="505.3" cy="646.2" rx="32.7" ry="20.1"/>
	<path id="XMLID_77_" class="st38" d="M527.1,642.4c1.2,1.3,1.9,2.6,1.9,3.8c0,2.8-3.7,6.4-10,8.8"/>
	<path id="XMLID_73_" class="st38" d="M505.3,635.1c7.1,0,13.1,1.7,17.2,3.9"/>
</g>
<g id="XMLID_190_" class="st2">
	<circle id="XMLID_189_" class="st4" cx="303.7" cy="244.9" r="63.7"/>
	<line id="XMLID_188_" class="st39" x1="303.7" y1="187.7" x2="303.7" y2="193.9"/>
	<line id="XMLID_187_" class="st39" x1="303.7" y1="295.9" x2="303.7" y2="302.2"/>
	<line id="XMLID_186_" class="st39" x1="360.9" y1="244.9" x2="354.7" y2="244.9"/>
	<line id="XMLID_185_" class="st39" x1="252.7" y1="244.9" x2="246.5" y2="244.9"/>
	<circle id="XMLID_182_" class="st40" cx="303.7" cy="244.9" r="5.1"/>
	<line id="XMLID_183_" class="st41" x1="303.7" y1="244.9" x2="331.2" y2="210.9"/>
	<line id="XMLID_184_" class="st39" x1="286.4" y1="227.9" x2="303.7" y2="244.9"/>
</g>
</svg>
