<?xml version="1.0" encoding="utf-8"?>
<!-- Generator: Adobe Illustrator 23.1.1, SVG Export Plug-In . SVG Version: 6.00 Build 0)  -->
<svg version="1.1" id="Layer_1" xmlns="http://www.w3.org/2000/svg" xmlns:xlink="http://www.w3.org/1999/xlink" x="0px" y="0px"
	 viewBox="0 0 1000 1000" style="enable-background:new 0 0 1000 1000;" xml:space="preserve">
<style type="text/css">
	.st0{fill:#EBD9FF;}
	.st1{fill:#5C3F6B;}
	.st2{fill:#FDC858;}
	.st3{fill:none;stroke:#D4C0E2;stroke-width:8;stroke-linecap:round;stroke-linejoin:round;stroke-miterlimit:10;}
	.st4{fill:none;stroke:#523160;stroke-width:8;stroke-linecap:round;stroke-linejoin:round;stroke-miterlimit:10;}
	.st5{fill:#8E63AD;}
	.st6{opacity:0.36;}
	.st7{opacity:0.36;fill:#8E63AD;}
	.st8{opacity:0.25;}
	.st9{fill:#FFFFFF;}
	.st10{fill:#D8D8D8;}
	.st11{opacity:0.56;fill:#FDC858;}
	.st12{opacity:0.48;fill:none;stroke:#523160;stroke-width:2;stroke-linecap:round;stroke-linejoin:round;stroke-miterlimit:10;}
	.st13{fill:none;stroke:#523160;stroke-width:4;stroke-linecap:round;stroke-linejoin:round;stroke-miterlimit:10;}
</style>
<rect id="XMLID_131_" class="st0" width="1000" height="1000"/>
<g>
	<g>
		<g>
			<path class="st1" d="M63.2,959.2c0,2.5-1.2,3.7-2.6,3.7c-1.1,0-1.9-0.5-2.1-1.4c-0.4,0.5-1,0.8-1.8,0.8c-1.5,0-2.6-1.2-2.6-2.8
				c0-1.6,1.1-2.8,2.6-2.8c0.7,0,1.2,0.3,1.6,0.7v-0.5h1.6v3.9c0,0.8,0.3,1.4,1,1.4c0.9,0,1.7-0.9,1.7-3c0-3-2.3-5.3-5.4-5.3
				c-3.1,0-5.6,2.4-5.6,5.7c0,3.3,2.5,5.7,5.9,5.7c1.1,0,2.1-0.2,2.9-0.4v0.6c-0.8,0.3-1.7,0.4-2.9,0.4c-3.7,0-6.5-2.6-6.5-6.2
				c0-3.4,2.7-6.2,6.2-6.2C61.1,953.3,63.2,956.4,63.2,959.2z M58.3,959.5c0-0.8-0.6-1.4-1.3-1.4c-0.8,0-1.3,0.5-1.3,1.4
				c0,0.8,0.6,1.3,1.3,1.3C57.8,960.9,58.3,960.3,58.3,959.5z"/>
		</g>
		<g>
			<path class="st1" d="M69.4,955.1v2c-1.2-0.1-2.6,0.5-2.6,2.4v4.3h-1.9v-8.6h1.9v1.4C67.3,955.5,68.3,955.1,69.4,955.1z"/>
		</g>
		<g>
			<path class="st1" d="M74.6,962.3c1,0,1.8-0.5,2.2-1.1l1.5,0.9c-0.8,1.2-2.1,1.9-3.8,1.9c-2.8,0-4.7-1.9-4.7-4.5
				c0-2.5,1.8-4.5,4.5-4.5c2.6,0,4.3,2.1,4.3,4.5c0,0.3,0,0.5-0.1,0.8h-6.8C72.1,961.6,73.2,962.3,74.6,962.3z M76.9,958.8
				c-0.3-1.5-1.3-2.1-2.5-2.1c-1.4,0-2.3,0.8-2.6,2.1H76.9z"/>
		</g>
		<g>
			<path class="st1" d="M88.9,955.2v8.6h-1.9v-1.2c-0.7,0.9-1.7,1.5-3,1.5c-2.3,0-4.3-2-4.3-4.5c0-2.6,1.9-4.5,4.3-4.5
				c1.3,0,2.3,0.5,3,1.4v-1.2H88.9z M87.1,959.5c0-1.6-1.2-2.7-2.7-2.7c-1.5,0-2.7,1.1-2.7,2.7c0,1.6,1.2,2.7,2.7,2.7
				C85.9,962.3,87.1,961.1,87.1,959.5z"/>
		</g>
		<g>
			<path class="st1" d="M91.1,951.3H93v12.5h-1.9V951.3z"/>
		</g>
		<g>
			<path class="st1" d="M102.9,955.2l-3.3,8.6h-2.1l-3.3-8.6h2l2.4,6.5l2.4-6.5H102.9z"/>
		</g>
		<g>
			<path class="st1" d="M104.2,955.2h1.9v8.9c0,2.4-1.2,3.5-3.5,3.3v-1.8c1.1,0.1,1.7-0.3,1.7-1.5V955.2z M104,952.8
				c0-0.7,0.5-1.2,1.2-1.2c0.7,0,1.2,0.5,1.2,1.2c0,0.6-0.5,1.2-1.2,1.2C104.5,954,104,953.4,104,952.8z"/>
		</g>
		<g>
			<path class="st1" d="M116,955.2l-3.3,8.8c-0.8,2.2-2.2,3.3-4.2,3.2v-1.7c1.2,0.1,1.9-0.5,2.3-1.7l0.1-0.2l-3.6-8.4h2l2.6,6.2
				l2.2-6.2H116z"/>
		</g>
	</g>
	<g>
		<path class="st1" d="M211.9,938.7c0,2.1-1.5,3.8-3.6,3.8h-3v-7.6h3C210.4,934.9,211.9,936.6,211.9,938.7z M210.9,938.7
			c0-1.6-1.1-2.9-2.6-2.9h-2v5.7h2C209.8,941.6,210.9,940.3,210.9,938.7z"/>
		<path class="st1" d="M219.5,940.8h-3.4l-0.6,1.7h-1.1l2.8-7.6h1.1l2.8,7.6h-1.1L219.5,940.8z M219.2,939.9l-1.4-3.8l-1.4,3.8
			H219.2z"/>
		<path class="st1" d="M226.4,939.4v3.1h-1v-3.1l-2.7-4.5h1.1l2.1,3.6l2.1-3.6h1.1L226.4,939.4z"/>
		<path class="st1" d="M242.1,940.1c0,1.5-1.1,2.6-2.6,2.6c-1.5,0-2.6-1.1-2.6-2.6c0-0.6,0.2-1.1,0.5-1.5l2.5-3.7h1.2l-1.8,2.7
			c0.1,0,0.2,0,0.4,0C241,937.5,242.1,938.6,242.1,940.1z M241.1,940.1c0-1-0.7-1.6-1.6-1.6c-1,0-1.6,0.6-1.6,1.6s0.7,1.6,1.6,1.6
			C240.4,941.7,241.1,941,241.1,940.1z"/>
		<path class="st1" d="M250.2,940.1c0,1.5-1.1,2.6-2.6,2.6c-1.5,0-2.6-1.1-2.6-2.6c0-0.6,0.2-1.1,0.5-1.5l2.5-3.7h1.2l-1.8,2.7
			c0.1,0,0.2,0,0.4,0C249.1,937.5,250.2,938.6,250.2,940.1z M249.2,940.1c0-1-0.7-1.6-1.6-1.6c-1,0-1.6,0.6-1.6,1.6s0.7,1.6,1.6,1.6
			C248.5,941.7,249.2,941,249.2,940.1z"/>
	</g>
	<g>
		<path class="st1" d="M58.9,938.7c0,2.1-1.5,3.8-3.6,3.8h-3v-7.6h3C57.4,934.9,58.9,936.6,58.9,938.7z M57.9,938.7
			c0-1.6-1.1-2.9-2.6-2.9h-2v5.7h2C56.8,941.6,57.9,940.3,57.9,938.7z"/>
		<path class="st1" d="M67,941.6v1h-4.6v-7.6h4.5v1h-3.5v2.3h3.2v0.9h-3.2v2.4H67z"/>
		<path class="st1" d="M70,940.8l0.9-0.5c0.3,0.8,0.9,1.4,2,1.4c1.1,0,1.6-0.5,1.6-1.2c0-0.8-0.7-1-1.8-1.4
			c-1.2-0.4-2.4-0.8-2.4-2.2c0-1.4,1.1-2.2,2.4-2.2c1.3,0,2.2,0.7,2.6,1.7l-0.8,0.5c-0.3-0.7-0.8-1.2-1.7-1.2
			c-0.8,0-1.4,0.4-1.4,1.1c0,0.7,0.5,1,1.6,1.3c1.3,0.4,2.6,0.8,2.6,2.3c0,1.3-1.1,2.2-2.6,2.2C71.5,942.7,70.4,941.9,70,940.8z"/>
		<path class="st1" d="M80,934.9v7.6h-1v-7.6H80z"/>
		<path class="st1" d="M91.3,939.2c0,1.9-1.4,3.5-3.7,3.5c-2.4,0-4-1.8-4-4c0-2.2,1.7-4,4-4c1.4,0,2.7,0.8,3.3,1.8l-0.9,0.5
			c-0.4-0.8-1.4-1.4-2.4-1.4c-1.8,0-3,1.3-3,3c0,1.7,1.2,3,3,3c1.6,0,2.5-0.9,2.7-2h-2.8v-0.9h3.8V939.2z"/>
		<path class="st1" d="M100.6,934.9v7.6h-0.8l-3.9-5.7v5.7h-1v-7.6h0.8l3.9,5.7v-5.7H100.6z"/>
		<path class="st1" d="M109.1,941.6v1h-4.6v-7.6h4.5v1h-3.5v2.3h3.2v0.9h-3.2v2.4H109.1z"/>
		<path class="st1" d="M119.2,938.7c0,2.1-1.5,3.8-3.6,3.8h-3v-7.6h3C117.6,934.9,119.2,936.6,119.2,938.7z M118.2,938.7
			c0-1.6-1.1-2.9-2.6-2.9h-2v5.7h2C117.1,941.6,118.2,940.3,118.2,938.7z"/>
		<path class="st1" d="M133.2,940.4c0,1.2-1,2.2-2.2,2.2h-3.3v-7.6h3c1.2,0,2.1,0.9,2.1,2.1c0,0.7-0.3,1.2-0.8,1.6
			C132.7,938.9,133.2,939.5,133.2,940.4z M128.7,935.8v2.3h2c0.6,0,1.1-0.5,1.1-1.2c0-0.6-0.5-1.2-1.1-1.2H128.7z M132.2,940.3
			c0-0.7-0.5-1.2-1.2-1.2h-2.3v2.5h2.3C131.7,941.6,132.2,941,132.2,940.3z"/>
		<path class="st1" d="M139.4,939.4v3.1h-1v-3.1l-2.7-4.5h1.1l2.1,3.6l2.1-3.6h1.1L139.4,939.4z"/>
	</g>
	<g>
		<path class="st1" d="M213.5,953.9H210v10.4h-2v-10.4h-3.5v-1.9h9V953.9z"/>
		<path class="st1" d="M218.4,955.3v2.1c-1.3-0.1-2.7,0.5-2.7,2.5v4.5h-1.9v-8.9h1.9v1.5C216.2,955.7,217.3,955.3,218.4,955.3z"/>
		<path class="st1" d="M228.3,955.4v8.9h-1.9V963c-0.7,0.9-1.7,1.5-3.1,1.5c-2.4,0-4.4-2-4.4-4.7c0-2.6,2-4.7,4.4-4.7
			c1.4,0,2.4,0.6,3.1,1.5v-1.3H228.3z M226.4,959.9c0-1.6-1.2-2.8-2.8-2.8c-1.6,0-2.8,1.2-2.8,2.8c0,1.6,1.2,2.8,2.8,2.8
			C225.2,962.7,226.4,961.5,226.4,959.9z"/>
		<path class="st1" d="M238.6,955.4l-3.5,8.9H233l-3.5-8.9h2.1l2.5,6.7l2.5-6.7H238.6z"/>
		<path class="st1" d="M243.8,962.8c1.1,0,1.9-0.5,2.3-1.1l1.6,0.9c-0.8,1.2-2.1,1.9-3.9,1.9c-2.9,0-4.8-2-4.8-4.7
			c0-2.6,1.9-4.7,4.7-4.7c2.6,0,4.4,2.1,4.4,4.7c0,0.3,0,0.5-0.1,0.8h-7C241.3,962.1,242.4,962.8,243.8,962.8z M246.2,959.1
			c-0.3-1.5-1.4-2.2-2.5-2.2c-1.4,0-2.4,0.8-2.7,2.2H246.2z"/>
		<path class="st1" d="M249.8,951.4h1.9v12.9h-1.9V951.4z"/>
	</g>
	<g>
		<g>
			<g>
				<path class="st1" d="M846.1,938.7c0,2.1-1.5,3.8-3.6,3.8h-3v-7.6h3C844.6,934.9,846.1,936.6,846.1,938.7z M845.2,938.7
					c0-1.6-1.1-2.9-2.6-2.9h-2v5.7h2C844.1,941.6,845.2,940.3,845.2,938.7z"/>
			</g>
			<g>
				<path class="st1" d="M849.3,938.7c0-2.2,1.7-4,3.9-4c2.2,0,4,1.8,4,4c0,2.2-1.7,4-4,4C851,942.7,849.3,940.9,849.3,938.7z
					 M856.1,938.7c0-1.7-1.3-3-2.9-3c-1.7,0-2.9,1.3-2.9,3c0,1.7,1.3,3,2.9,3C854.9,941.7,856.1,940.4,856.1,938.7z"/>
			</g>
			<g>
				<path class="st1" d="M859.8,934.9h1.1l1.7,6.3l1.9-6.3h1l1.9,6.3l1.7-6.3h1.1l-2.2,7.6h-1.2l-1.8-6.1l-1.8,6.1H862L859.8,934.9z
					"/>
			</g>
			<g>
				<path class="st1" d="M879.3,934.9v7.6h-0.8l-3.9-5.7v5.7h-1v-7.6h0.8l3.9,5.7v-5.7H879.3z"/>
			</g>
			<g>
				<path class="st1" d="M887.5,941.6v1h-4.3v-7.6h1v6.7H887.5z"/>
			</g>
			<g>
				<path class="st1" d="M889.9,938.7c0-2.2,1.7-4,3.9-4c2.2,0,4,1.8,4,4c0,2.2-1.7,4-4,4C891.6,942.7,889.9,940.9,889.9,938.7z
					 M896.8,938.7c0-1.7-1.3-3-2.9-3c-1.7,0-2.9,1.3-2.9,3c0,1.7,1.3,3,2.9,3C895.5,941.7,896.8,940.4,896.8,938.7z"/>
			</g>
			<g>
				<path class="st1" d="M905.4,940.8H902l-0.6,1.7h-1.1l2.8-7.6h1.1l2.8,7.6H906L905.4,940.8z M905.1,939.9l-1.4-3.8l-1.4,3.8
					H905.1z"/>
			</g>
			<g>
				<path class="st1" d="M916.9,938.7c0,2.1-1.5,3.8-3.6,3.8h-3v-7.6h3C915.4,934.9,916.9,936.6,916.9,938.7z M915.9,938.7
					c0-1.6-1.1-2.9-2.6-2.9h-2v5.7h2C914.9,941.6,915.9,940.3,915.9,938.7z"/>
			</g>
			<g>
				<path class="st1" d="M926.5,935.8v2.5h3.2v1h-3.2v3.2h-1v-7.6h4.4v1H926.5z"/>
			</g>
			<g>
				<path class="st1" d="M936.2,939.6h-1.8v2.9h-1v-7.6h3c1.3,0,2.4,1.1,2.4,2.4c0,1-0.7,1.9-1.6,2.2l1.8,3.1h-1.1L936.2,939.6z
					 M934.4,938.7h2c0.8,0,1.4-0.6,1.4-1.4c0-0.8-0.6-1.4-1.4-1.4h-2V938.7z"/>
			</g>
			<g>
				<path class="st1" d="M941.9,938.7c0-2.2,1.7-4,3.9-4c2.2,0,4,1.8,4,4c0,2.2-1.7,4-4,4C943.6,942.7,941.9,940.9,941.9,938.7z
					 M948.8,938.7c0-1.7-1.3-3-2.9-3c-1.7,0-2.9,1.3-2.9,3c0,1.7,1.3,3,2.9,3C947.5,941.7,948.8,940.4,948.8,938.7z"/>
			</g>
			<g>
				<path class="st1" d="M960.4,942.5h-1v-6l-2.5,4.2h-0.1l-2.5-4.1v5.9h-1v-7.6h1.1l2.4,4l2.4-4h1.1V942.5z"/>
			</g>
		</g>
		<g>
			<g>
				<path class="st1" d="M839.3,952.9c0-0.7,0.5-1.2,1.2-1.2c0.7,0,1.2,0.5,1.2,1.2c0,0.7-0.5,1.2-1.2,1.2
					C839.9,954.1,839.3,953.6,839.3,952.9z M839.6,955.4h1.9v8.9h-1.9V955.4z"/>
			</g>
			<g>
				<path class="st1" d="M843.7,951.4h1.9v12.9h-1.9V951.4z"/>
			</g>
			<g>
				<path class="st1" d="M847.8,951.4h1.9v12.9h-1.9V951.4z"/>
			</g>
			<g>
				<path class="st1" d="M852,951.4h1.9v12.9H852V951.4z"/>
			</g>
			<g>
				<path class="st1" d="M864,955.4v8.9h-1.9v-1.1c-0.6,0.9-1.5,1.4-2.7,1.4c-2,0-3.4-1.3-3.4-3.6v-5.4h1.9v5.2c0,1.3,0.8,2.1,2,2.1
					c1.3,0,2.2-0.7,2.2-2.5v-4.7H864z"/>
			</g>
			<g>
				<path class="st1" d="M872.6,961.8c0,1.8-1.5,2.7-3.5,2.7c-1.8,0-3-0.8-3.6-2.1l1.6-1c0.3,0.8,1,1.3,2,1.3c0.8,0,1.5-0.3,1.5-1
					c0-1.6-4.8-0.7-4.8-3.9c0-1.7,1.4-2.7,3.2-2.7c1.5,0,2.7,0.7,3.3,1.8l-1.6,0.9c-0.3-0.7-0.9-1-1.7-1c-0.7,0-1.3,0.3-1.3,0.9
					C867.9,959.5,872.6,958.5,872.6,961.8z"/>
			</g>
			<g>
				<path class="st1" d="M876.7,957.3v4.2c0,1.1,0.7,1.1,2.2,1v1.7c-2.9,0.4-4.1-0.5-4.1-2.8v-4.2h-1.6v-1.8h1.6v-1.9l1.9-0.6v2.5
					h2.2v1.8H876.7z"/>
			</g>
			<g>
				<path class="st1" d="M885.4,955.3v2.1c-1.3-0.1-2.7,0.5-2.7,2.5v4.5h-1.9v-8.9h1.9v1.5C883.2,955.7,884.2,955.3,885.4,955.3z"/>
			</g>
			<g>
				<path class="st1" d="M895.3,955.4v8.9h-1.9V963c-0.7,0.9-1.7,1.5-3.1,1.5c-2.4,0-4.4-2-4.4-4.7c0-2.6,2-4.7,4.4-4.7
					c1.4,0,2.4,0.6,3.1,1.5v-1.3H895.3z M893.4,959.9c0-1.6-1.2-2.8-2.8-2.8c-1.6,0-2.8,1.2-2.8,2.8c0,1.6,1.2,2.8,2.8,2.8
					C892.2,962.7,893.4,961.5,893.4,959.9z"/>
			</g>
			<g>
				<path class="st1" d="M900.3,957.3v4.2c0,1.1,0.7,1.1,2.2,1v1.7c-2.9,0.4-4.1-0.5-4.1-2.8v-4.2h-1.6v-1.8h1.6v-1.9l1.9-0.6v2.5
					h2.2v1.8H900.3z"/>
			</g>
			<g>
				<path class="st1" d="M903.9,952.9c0-0.7,0.5-1.2,1.2-1.2c0.7,0,1.2,0.5,1.2,1.2c0,0.7-0.5,1.2-1.2,1.2
					C904.5,954.1,903.9,953.6,903.9,952.9z M904.2,955.4h1.9v8.9h-1.9V955.4z"/>
			</g>
			<g>
				<path class="st1" d="M907.8,959.9c0-2.6,2.1-4.7,4.7-4.7c2.6,0,4.7,2,4.7,4.7c0,2.6-2.1,4.7-4.7,4.7
					C909.9,964.5,907.8,962.5,907.8,959.9z M915.3,959.9c0-1.6-1.2-2.8-2.8-2.8c-1.6,0-2.8,1.2-2.8,2.8c0,1.6,1.2,2.8,2.8,2.8
					C914.1,962.7,915.3,961.5,915.3,959.9z"/>
			</g>
			<g>
				<path class="st1" d="M927,958.9v5.4h-1.9v-5.2c0-1.3-0.8-2.1-2-2.1c-1.3,0-2.2,0.7-2.2,2.5v4.7h-1.9v-8.9h1.9v1.1
					c0.6-0.9,1.5-1.4,2.7-1.4C925.5,955.2,927,956.6,927,958.9z"/>
			</g>
			<g>
				<path class="st1" d="M935.5,961.8c0,1.8-1.5,2.7-3.5,2.7c-1.8,0-3-0.8-3.6-2.1l1.6-1c0.3,0.8,1,1.3,2,1.3c0.8,0,1.5-0.3,1.5-1
					c0-1.6-4.8-0.7-4.8-3.9c0-1.7,1.4-2.7,3.2-2.7c1.5,0,2.7,0.7,3.3,1.8l-1.6,0.9c-0.3-0.7-0.9-1-1.7-1c-0.7,0-1.3,0.3-1.3,0.9
					C930.7,959.5,935.5,958.5,935.5,961.8z"/>
			</g>
			<g>
				<path class="st1" d="M936.8,963.2c0-0.7,0.6-1.3,1.3-1.3c0.7,0,1.3,0.6,1.3,1.3c0,0.7-0.6,1.3-1.3,1.3
					C937.4,964.5,936.8,963.9,936.8,963.2z"/>
			</g>
			<g>
				<path class="st1" d="M940.3,959.9c0-2.6,2-4.7,4.7-4.7c1.7,0,3.2,0.9,3.9,2.3l-1.6,1c-0.4-0.8-1.3-1.4-2.3-1.4
					c-1.6,0-2.7,1.2-2.7,2.8c0,1.6,1.2,2.8,2.7,2.8c1.1,0,1.9-0.5,2.4-1.4l1.6,0.9c-0.7,1.4-2.2,2.3-4,2.3
					C942.3,964.5,940.3,962.5,940.3,959.9z"/>
			</g>
			<g>
				<path class="st1" d="M949.7,959.9c0-2.6,2.1-4.7,4.7-4.7c2.6,0,4.7,2,4.7,4.7c0,2.6-2.1,4.7-4.7,4.7
					C951.8,964.5,949.7,962.5,949.7,959.9z M957.2,959.9c0-1.6-1.2-2.8-2.8-2.8s-2.8,1.2-2.8,2.8c0,1.6,1.2,2.8,2.8,2.8
					S957.2,961.5,957.2,959.9z"/>
			</g>
		</g>
	</g>
</g>
<g id="XMLID_52_">
	<g id="XMLID_967_">
		<g id="XMLID_1056_">
			<path id="XMLID_1057_" class="st2" d="M236.1,471.1c-23.1-23.4-37.3-55.6-37.3-91c0-71.6,58.1-129.7,129.7-129.7
				S458.3,308.4,458.3,380l-99.9-76L236.1,471.1z"/>
		</g>
		<g id="XMLID_1052_">
			<line id="XMLID_1055_" class="st3" x1="328.6" y1="215.8" x2="328.6" y2="229.8"/>
			<line id="XMLID_1054_" class="st3" x1="328.6" y1="189.8" x2="328.6" y2="204.4"/>
			<line id="XMLID_1053_" class="st3" x1="328.6" y1="157.7" x2="328.6" y2="176.8"/>
		</g>
		<g id="XMLID_1048_">
			<line id="XMLID_1051_" class="st3" x1="300" y1="218.3" x2="302.5" y2="232"/>
			<line id="XMLID_1050_" class="st3" x1="295.5" y1="192.7" x2="298.1" y2="207.1"/>
			<line id="XMLID_1049_" class="st3" x1="289.9" y1="161.1" x2="293.3" y2="179.9"/>
		</g>
		<g id="XMLID_1044_">
			<line id="XMLID_1047_" class="st3" x1="272.4" y1="225.7" x2="277.2" y2="238.8"/>
			<line id="XMLID_1046_" class="st3" x1="263.5" y1="201.3" x2="268.5" y2="215"/>
			<line id="XMLID_1045_" class="st3" x1="252.5" y1="171.1" x2="259.1" y2="189.1"/>
		</g>
		<g id="XMLID_1040_">
			<line id="XMLID_1043_" class="st3" x1="246.4" y1="237.8" x2="253.4" y2="249.9"/>
			<line id="XMLID_1042_" class="st3" x1="233.5" y1="215.3" x2="240.8" y2="228"/>
			<line id="XMLID_1041_" class="st3" x1="217.4" y1="187.5" x2="227" y2="204.1"/>
		</g>
		<g id="XMLID_1036_">
			<line id="XMLID_1039_" class="st3" x1="223" y1="254.2" x2="232" y2="264.9"/>
			<line id="XMLID_1038_" class="st3" x1="206.3" y1="234.3" x2="215.7" y2="245.5"/>
			<line id="XMLID_1037_" class="st3" x1="185.6" y1="209.7" x2="198" y2="224.4"/>
		</g>
		<g id="XMLID_1030_">
			<line id="XMLID_1035_" class="st3" x1="202.8" y1="274.5" x2="213.5" y2="283.4"/>
			<line id="XMLID_1034_" class="st3" x1="182.9" y1="257.8" x2="194" y2="267.2"/>
			<line id="XMLID_1033_" class="st3" x1="158.2" y1="237.1" x2="172.9" y2="249.4"/>
			<path id="XMLID_1032_" class="st3" d="M150,230.2"/>
			<path id="XMLID_1031_" class="st3" d="M132.9,215.8"/>
		</g>
		<g id="XMLID_1026_">
			<line id="XMLID_1029_" class="st3" x1="186.3" y1="297.9" x2="198.4" y2="304.9"/>
			<line id="XMLID_1028_" class="st3" x1="163.8" y1="284.9" x2="176.5" y2="292.2"/>
			<line id="XMLID_1027_" class="st3" x1="136" y1="268.8" x2="152.6" y2="278.4"/>
		</g>
		<g id="XMLID_1022_">
			<line id="XMLID_1025_" class="st3" x1="174.2" y1="323.9" x2="187.4" y2="328.6"/>
			<line id="XMLID_1024_" class="st3" x1="149.8" y1="315" x2="163.6" y2="320"/>
			<line id="XMLID_1023_" class="st3" x1="119.6" y1="304" x2="137.6" y2="310.5"/>
		</g>
		<g id="XMLID_1018_">
			<line id="XMLID_1021_" class="st3" x1="166.8" y1="351.5" x2="180.6" y2="353.9"/>
			<line id="XMLID_1020_" class="st3" x1="141.3" y1="347" x2="155.6" y2="349.5"/>
			<line id="XMLID_1019_" class="st3" x1="109.6" y1="341.4" x2="128.5" y2="344.7"/>
		</g>
		<g id="XMLID_1014_">
			<line id="XMLID_1017_" class="st3" x1="164.3" y1="380" x2="178.3" y2="380"/>
			<line id="XMLID_1016_" class="st3" x1="138.4" y1="380" x2="153" y2="380"/>
			<line id="XMLID_1015_" class="st3" x1="106.2" y1="380" x2="125.4" y2="380"/>
		</g>
		<g id="XMLID_1010_">
			<line id="XMLID_1013_" class="st3" x1="166.8" y1="408.5" x2="180.6" y2="406.1"/>
			<line id="XMLID_1012_" class="st3" x1="141.3" y1="413" x2="155.6" y2="410.5"/>
			<line id="XMLID_1011_" class="st3" x1="109.6" y1="418.6" x2="128.5" y2="415.3"/>
		</g>
		<g id="XMLID_1006_">
			<line id="XMLID_1009_" class="st3" x1="174.2" y1="436.2" x2="187.4" y2="431.4"/>
			<line id="XMLID_1008_" class="st3" x1="149.8" y1="445.1" x2="163.6" y2="440.1"/>
			<line id="XMLID_1007_" class="st3" x1="119.6" y1="456.1" x2="137.6" y2="449.5"/>
		</g>
		<g id="XMLID_1002_">
			<line id="XMLID_1005_" class="st3" x1="186.3" y1="462.1" x2="198.4" y2="455.1"/>
			<line id="XMLID_1004_" class="st3" x1="163.8" y1="475.1" x2="176.5" y2="467.8"/>
			<line id="XMLID_1003_" class="st3" x1="136" y1="491.2" x2="152.6" y2="481.6"/>
		</g>
		<g id="XMLID_997_">
			<path id="XMLID_1001_" class="st3" d="M232,495.1"/>
			<path id="XMLID_1000_" class="st3" d="M223,505.8"/>
			<path id="XMLID_999_" class="st3" d="M206.3,525.7"/>
			<path id="XMLID_998_" class="st3" d="M185.6,550.3"/>
		</g>
		<g id="XMLID_995_">
			<path id="XMLID_996_" class="st3" d="M490.3,351.5"/>
		</g>
		<g id="XMLID_992_">
			<line id="XMLID_994_" class="st3" x1="482.9" y1="323.9" x2="469.7" y2="328.6"/>
			<line id="XMLID_993_" class="st3" x1="507.3" y1="315" x2="493.5" y2="320"/>
		</g>
		<g id="XMLID_988_">
			<line id="XMLID_991_" class="st3" x1="470.8" y1="297.9" x2="458.7" y2="304.9"/>
			<line id="XMLID_990_" class="st3" x1="493.3" y1="284.9" x2="480.6" y2="292.2"/>
			<line id="XMLID_989_" class="st3" x1="521.1" y1="268.8" x2="504.5" y2="278.4"/>
		</g>
		<g id="XMLID_984_">
			<line id="XMLID_987_" class="st3" x1="454.3" y1="274.5" x2="443.7" y2="283.4"/>
			<line id="XMLID_986_" class="st3" x1="474.2" y1="257.8" x2="463.1" y2="267.2"/>
			<line id="XMLID_985_" class="st3" x1="498.9" y1="237.1" x2="484.2" y2="249.4"/>
		</g>
		<g id="XMLID_980_">
			<line id="XMLID_983_" class="st3" x1="434.1" y1="254.2" x2="425.1" y2="264.9"/>
			<line id="XMLID_982_" class="st3" x1="450.8" y1="234.3" x2="441.4" y2="245.5"/>
			<line id="XMLID_981_" class="st3" x1="471.5" y1="209.7" x2="459.2" y2="224.4"/>
		</g>
		<g id="XMLID_976_">
			<line id="XMLID_979_" class="st3" x1="410.7" y1="237.8" x2="403.7" y2="249.9"/>
			<line id="XMLID_978_" class="st3" x1="423.6" y1="215.3" x2="416.3" y2="228"/>
			<line id="XMLID_977_" class="st3" x1="439.7" y1="187.5" x2="430.1" y2="204.1"/>
		</g>
		<g id="XMLID_972_">
			<line id="XMLID_975_" class="st3" x1="384.7" y1="225.7" x2="379.9" y2="238.8"/>
			<line id="XMLID_974_" class="st3" x1="393.6" y1="201.3" x2="388.6" y2="215"/>
			<line id="XMLID_973_" class="st3" x1="404.6" y1="171.1" x2="398" y2="189.1"/>
		</g>
		<g id="XMLID_968_">
			<line id="XMLID_971_" class="st3" x1="357.1" y1="218.3" x2="354.6" y2="232"/>
			<line id="XMLID_970_" class="st3" x1="361.6" y1="192.7" x2="359" y2="207.1"/>
			<line id="XMLID_969_" class="st3" x1="367.2" y1="161.1" x2="363.8" y2="179.9"/>
		</g>
	</g>
</g>
<line id="XMLID_129_" class="st4" x1="214.5" y1="740.7" x2="75.1" y2="740.7"/>
<line id="XMLID_187_" class="st4" x1="431.5" y1="740.7" x2="232" y2="740.7"/>
<line id="XMLID_325_" class="st4" x1="792.5" y1="740.7" x2="774.4" y2="740.7"/>
<line id="XMLID_3_" class="st4" x1="896.5" y1="740.7" x2="809.9" y2="740.7"/>
<line id="XMLID_5_" class="st4" x1="918" y1="740.7" x2="911.5" y2="740.7"/>
<polyline id="XMLID_19_" class="st3" points="162.8,570.6 358.9,304.4 468.5,388.7 "/>
<polyline id="XMLID_29_" class="st3" points="418.4,456.7 558.5,266.5 796.3,482.5 "/>
<g id="XMLID_69_">
	
		<ellipse id="XMLID_174_" transform="matrix(0.7947 -0.607 0.607 0.7947 -353.7843 194.27)" class="st2" cx="110.3" cy="620.2" rx="17.8" ry="7.8"/>
	
		<ellipse id="XMLID_163_" transform="matrix(0.7947 -0.607 0.607 0.7947 -334.5863 187.7771)" class="st2" cx="110.3" cy="588.5" rx="17.8" ry="7.8"/>
	
		<ellipse id="XMLID_158_" transform="matrix(0.7947 -0.607 0.607 0.7947 -400.4766 210.0616)" class="st2" cx="110.3" cy="697.1" rx="17.8" ry="7.8"/>
	
		<ellipse id="XMLID_134_" transform="matrix(0.7947 -0.607 0.607 0.7947 -376.4866 201.948)" class="st2" cx="110.3" cy="657.6" rx="17.8" ry="7.8"/>
	
		<ellipse id="XMLID_34_" transform="matrix(0.7947 -0.607 0.607 0.7947 -353.7843 194.27)" class="st4" cx="110.3" cy="620.2" rx="17.8" ry="7.8"/>
	
		<ellipse id="XMLID_32_" transform="matrix(0.7947 -0.607 0.607 0.7947 -334.5863 187.7771)" class="st4" cx="110.3" cy="588.5" rx="17.8" ry="7.8"/>
	
		<ellipse id="XMLID_35_" transform="matrix(0.7947 -0.607 0.607 0.7947 -400.4766 210.0616)" class="st4" cx="110.3" cy="697.1" rx="17.8" ry="7.8"/>
	
		<ellipse id="XMLID_33_" transform="matrix(0.7947 -0.607 0.607 0.7947 -376.4866 201.948)" class="st4" cx="110.3" cy="657.6" rx="17.8" ry="7.8"/>
	
		<ellipse id="XMLID_175_" transform="matrix(0.607 -0.7947 0.7947 0.607 -435.5273 296.4386)" class="st2" cx="81.9" cy="588.6" rx="7.8" ry="17.8"/>
	
		<ellipse id="XMLID_160_" transform="matrix(0.607 -0.7947 0.7947 0.607 -509.1648 332.8552)" class="st2" cx="81.9" cy="681.2" rx="7.8" ry="17.8"/>
	
		<ellipse id="XMLID_137_" transform="matrix(0.607 -0.7947 0.7947 0.607 -477.6714 317.2805)" class="st2" cx="81.9" cy="641.6" rx="7.8" ry="17.8"/>
	
		<ellipse id="XMLID_38_" transform="matrix(0.607 -0.7947 0.7947 0.607 -435.5273 296.4386)" class="st4" cx="81.9" cy="588.6" rx="7.8" ry="17.8"/>
	
		<ellipse id="XMLID_37_" transform="matrix(0.607 -0.7947 0.7947 0.607 -509.1648 332.8552)" class="st4" cx="81.9" cy="681.2" rx="7.8" ry="17.8"/>
	
		<ellipse id="XMLID_36_" transform="matrix(0.607 -0.7947 0.7947 0.607 -477.6714 317.2805)" class="st4" cx="81.9" cy="641.6" rx="7.8" ry="17.8"/>
	<line id="XMLID_40_" class="st4" x1="96.1" y1="593.5" x2="96.1" y2="738.8"/>
	
		<ellipse id="XMLID_44_" transform="matrix(0.7947 -0.607 0.607 0.7947 -388.0896 262.0064)" class="st4" cx="193.3" cy="704.8" rx="17.8" ry="7.8"/>
	
		<ellipse id="XMLID_43_" transform="matrix(0.7947 -0.607 0.607 0.7947 -367.9373 255.1908)" class="st4" cx="193.3" cy="671.6" rx="17.8" ry="7.8"/>
	
		<ellipse id="XMLID_45_" transform="matrix(0.7947 -0.607 0.607 0.7947 -349.7497 249.0396)" class="st4" cx="193.3" cy="641.6" rx="17.8" ry="7.8"/>
	
		<ellipse id="XMLID_42_" transform="matrix(0.607 -0.7947 0.7947 0.607 -476.549 398.8072)" class="st4" cx="164.9" cy="681.2" rx="7.8" ry="17.8"/>
	
		<ellipse id="XMLID_41_" transform="matrix(0.607 -0.7947 0.7947 0.607 -445.0556 383.2325)" class="st4" cx="164.9" cy="641.6" rx="7.8" ry="17.8"/>
	<line id="XMLID_39_" class="st4" x1="179.1" y1="648.3" x2="179.1" y2="738.8"/>
</g>
<polyline id="XMLID_30_" class="st3" points="295.5,390.9 305.3,403.5 329,394.1 359.7,405.9 372.4,394.1 396.4,402 409.4,382.2 
	439.9,394.4 451.9,375.9 "/>
<polyline id="XMLID_46_" class="st3" points="496.5,350.6 526.9,343.6 538,364.1 569.5,347.1 592.5,361.6 607.4,339.6 646,346 "/>
<path id="XMLID_59_" class="st3" d="M624.3,275.8h142.4c0.8-1.9,1.3-4.1,1.3-6.3c0-8.9-7.3-16.2-16.2-16.2c-1.8,0-3.5,0.3-5,0.8
	c-3.7-10.1-13.5-17.3-24.9-17.3c-3,0-5.9,0.5-8.6,1.4c-5.7-12.6-18.5-21.4-33.2-21.4c-20.2,0-36.5,16.3-36.5,36.5c0,2,0.2,4,0.5,6
	C634.9,261,627.5,267.3,624.3,275.8z"/>
<path id="XMLID_64_" class="st3" d="M871.4,340.9c0-0.1,0-0.2,0-0.3c0-9.6-7.8-17.3-17.3-17.3c-1.8,0-3.5,0.3-5.1,0.8
	c0-0.5,0-1,0-1.5c0-15.2-12.3-27.5-27.5-27.5s-27.5,12.3-27.5,27.5c0,1.6,0.1,3.1,0.4,4.6c-0.1,0-0.3,0-0.4,0
	c-7.4,0-13.5,6-13.5,13.5c0,0.1,0,0.2,0,0.4H871.4z"/>
<g>
	<path id="XMLID_115_" class="st1" d="M340.9,740.7c-25.3,0-45.9-20.6-45.9-45.9c0-25.3,20.6-45.9,45.9-45.9s45.9,20.6,45.9,45.9
		C386.8,720.1,366.2,740.7,340.9,740.7z"/>
	<path id="XMLID_11_" class="st4" d="M340.9,740.7c-25.3,0-45.9-20.6-45.9-45.9c0-25.3,20.6-45.9,45.9-45.9s45.9,20.6,45.9,45.9
		C386.8,720.1,366.2,740.7,340.9,740.7z"/>
	<path id="XMLID_116_" class="st2" d="M340.9,718.8c-13.2,0-24-10.8-24-24c0-13.2,10.8-24,24-24c13.2,0,24,10.8,24,24
		C364.9,708,354.1,718.8,340.9,718.8z"/>
	<path id="XMLID_9_" class="st4" d="M340.9,718.8c-13.2,0-24-10.8-24-24c0-13.2,10.8-24,24-24c13.2,0,24,10.8,24,24
		C364.9,708,354.1,718.8,340.9,718.8z"/>
	<path id="XMLID_123_" class="st2" d="M340.9,702.7c-4.4,0-7.9-3.6-7.9-7.9c0-4.4,3.6-7.9,7.9-7.9c4.4,0,7.9,3.6,7.9,7.9
		C348.8,699.1,345.3,702.7,340.9,702.7z"/>
	<path id="XMLID_14_" class="st4" d="M340.9,702.7c-4.4,0-7.9-3.6-7.9-7.9c0-4.4,3.6-7.9,7.9-7.9c4.4,0,7.9,3.6,7.9,7.9
		C348.8,699.1,345.3,702.7,340.9,702.7z"/>
	<path id="XMLID_84_" class="st5" d="M707.9,555.1l-9.4-35.7c-3.7-14.3-15.9-24.7-30.6-26.3c-42-4.5-92.9-7.1-152.3-7.1
		c-68,0-172.5,5.2-203.9,8.8c-5.7,0.6-10.6,4.3-12.9,9.6l-18.9,44.2c-8.7,15.6-14,32.8-15.5,50.6l-0.4,99.4l21.1,0.4
		c-0.1-1.4-0.2-2.8-0.2-4.2c0-30.9,25-55.9,55.9-55.9c30.9,0,55.9,25,55.9,55.9c0,1.8-0.1,3.6-0.3,5.3l147,1.8
		c-0.3-2.3-0.5-4.7-0.5-7.1c0-30.9,25-55.9,55.9-55.9c30.9,0,55.9,25,55.9,55.9c0,2.8-0.2,5.5-0.6,8.2l59.3,0.6V600
		C713.7,584.9,711.7,569.8,707.9,555.1z"/>
	<g id="XMLID_304_" class="st6">
		<path id="XMLID_306_" class="st5" d="M275.2,698.6l0.4-99.4c1.5-17.8,6.8-35,15.5-50.6l18.9-44.2c2.3-5.3,7.2-8.9,12.9-9.6
			c30.5-3.5,129.8-8.5,197.8-8.8c-1.7,0-3.4,0-5.1,0c-68,0-172.5,5.2-203.9,8.8c-5.7,0.6-10.6,4.3-12.9,9.6l-18.9,44.2
			c-8.7,15.6-14,32.8-15.5,50.6l-0.4,99.4l21.1,0.4c0-0.1,0-0.1,0-0.2L275.2,698.6z"/>
		<path id="XMLID_312_" class="st5" d="M665.5,703c0.4-2.7,0.6-5.4,0.6-8.2c0-30.9-25-55.9-55.9-55.9c-1.9,0-3.7,0.1-5.6,0.3
			c28.3,2.8,50.3,26.6,50.3,55.6c0,2.8-0.2,5.5-0.6,8.2l59.3,0.6v-0.1L665.5,703z"/>
		<path id="XMLID_314_" class="st5" d="M407.7,700c0.2-1.7,0.3-3.5,0.3-5.3c0-30.9-25-55.9-55.9-55.9c-1.9,0-3.7,0.1-5.6,0.3
			c28.3,2.8,50.3,26.6,50.3,55.6c0,1.8-0.1,3.6-0.3,5.3l147,1.8c0,0,0-0.1,0-0.1L407.7,700z"/>
	</g>
	<path id="XMLID_331_" class="st7" d="M407.9,691h133.6v-13.3H405.3C406.7,682,407.5,686.4,407.9,691z"/>
	<g id="XMLID_297_" class="st8">
		<path id="XMLID_301_" class="st5" d="M709.9,554.1l-9.4-35.7c-3.7-14.3-15.9-24.7-30.6-26.3c-42-4.5-92.9-7.1-152.3-7.1
			c-68,0-172.5,5.2-203.9,8.8c-4.9,0.6-9.3,3.4-11.8,7.6c0,0,0-1.7,0.1-1.7c31.4-3.6,135.9-7.1,203.9-7.1
			c59.5,0,110.3,2.6,152.3,7.1c14.7,1.6,26.8,12,30.6,26.3l9.4,35.7c3.9,14.7,5.8,29.8,5.8,44.9v95.9l11.8,0.1V599
			C715.7,583.9,713.7,568.8,709.9,554.1z"/>
	</g>
	<path id="XMLID_8_" class="st4" d="M707.9,555.1l-9.4-35.7c-3.7-14.3-15.9-24.7-30.6-26.3c-42-4.5-92.9-7.1-152.3-7.1
		c-68,0-172.5,5.2-203.9,8.8c-5.7,0.6-10.6,4.3-12.9,9.6l-18.9,44.2c-8.7,15.6-14,32.8-15.5,50.6l-0.4,99.4l21.1,0.4
		c-0.1-1.4-0.2-2.8-0.2-4.2c0-30.9,25-55.9,55.9-55.9c30.9,0,55.9,25,55.9,55.9c0,1.8-0.1,3.6-0.3,5.3l147,1.8
		c-0.3-2.3-0.5-4.7-0.5-7.1c0-30.9,25-55.9,55.9-55.9c30.9,0,55.9,25,55.9,55.9c0,2.8-0.2,5.5-0.6,8.2l59.3,0.6V600
		C713.7,584.9,711.7,569.8,707.9,555.1z"/>
	<path id="XMLID_117_" class="st1" d="M599,740.7c-25.3,0-45.9-20.6-45.9-45.9c0-25.3,20.6-45.9,45.9-45.9
		c25.3,0,45.9,20.6,45.9,45.9C644.9,720.1,624.3,740.7,599,740.7z"/>
	<path id="XMLID_10_" class="st4" d="M599,740.7c-25.3,0-45.9-20.6-45.9-45.9c0-25.3,20.6-45.9,45.9-45.9
		c25.3,0,45.9,20.6,45.9,45.9C644.9,720.1,624.3,740.7,599,740.7z"/>
	<path id="XMLID_120_" class="st2" d="M599,718.8c-13.2,0-24-10.8-24-24c0-13.2,10.8-24,24-24c13.2,0,24,10.8,24,24
		C623,708,612.2,718.8,599,718.8z"/>
	<path id="XMLID_12_" class="st4" d="M599,718.8c-13.2,0-24-10.8-24-24c0-13.2,10.8-24,24-24c13.2,0,24,10.8,24,24
		C623,708,612.2,718.8,599,718.8z"/>
	<path id="XMLID_125_" class="st2" d="M599,702.7c-4.4,0-7.9-3.6-7.9-7.9c0-4.4,3.6-7.9,7.9-7.9c4.4,0,7.9,3.6,7.9,7.9
		C606.9,699.1,603.4,702.7,599,702.7z"/>
	<path id="XMLID_13_" class="st4" d="M599,702.7c-4.4,0-7.9-3.6-7.9-7.9c0-4.4,3.6-7.9,7.9-7.9c4.4,0,7.9,3.6,7.9,7.9
		C606.9,699.1,603.4,702.7,599,702.7z"/>
	<path id="XMLID_127_" class="st9" d="M264,707.5h-10.9c-4.5,0-8.1-3.6-8.1-8.1v-32.3c0-4.5,3.6-8.1,8.1-8.1H264V707.5z"/>
	<path id="XMLID_6_" class="st4" d="M264,707.5h-10.9c-4.5,0-8.1-3.6-8.1-8.1v-32.3c0-4.5,3.6-8.1,8.1-8.1H264V707.5z"/>
	<path id="XMLID_128_" class="st9" d="M265.6,646h-4c-3,0-5.4-2.4-5.4-5.4v-24.8c0-3,2.4-5.4,5.4-5.4h4c3,0,5.4,2.4,5.4,5.4v24.8
		C271,643.6,268.6,646,265.6,646z"/>
	<path id="XMLID_15_" class="st4" d="M265.6,646h-4c-3,0-5.4-2.4-5.4-5.4v-24.8c0-3,2.4-5.4,5.4-5.4h4c3,0,5.4,2.4,5.4,5.4v24.8
		C271,643.6,268.6,646,265.6,646z"/>
	<path id="XMLID_126_" class="st9" d="M721.3,715.2h-43c-5,0-9-4-9-9v-7c0-5,4-9,9-9h43c5,0,9,4,9,9v7
		C730.3,711.1,726.2,715.2,721.3,715.2z"/>
	<path id="XMLID_294_" class="st10" d="M678.9,705.5c0-2.5,2.1-4.6,4.6-4.6h46.7v-1.7c0-5-4-9-9-9h-43c-5,0-9,4-9,9v7c0,5,4,9,9,9
		h0.7V705.5z"/>
	<path id="XMLID_16_" class="st4" d="M721.3,715.2h-43c-5,0-9-4-9-9v-7c0-5,4-9,9-9h43c5,0,9,4,9,9v7
		C730.3,711.1,726.2,715.2,721.3,715.2z"/>
	<path id="XMLID_113_" class="st2" d="M648.5,578.3h-46.3c-5.3,0-9.6-4.3-9.6-9.6v-46.7c0-5.3,4.3-9.6,9.6-9.6h28.1
		c11.1,0,20.5,8.1,22.2,19.1l5.4,35.7C658.9,573.1,654.4,578.3,648.5,578.3z"/>
	<path id="XMLID_293_" class="st11" d="M612.2,533.5c0-5.3,4.3-9.6,9.6-9.6h28.1c0,0,0,0,0,0c-3.9-6.9-11.3-11.4-19.6-11.4h-28.1
		c-5.3,0-9.6,4.3-9.6,9.6v46.7c0,5.3,4.3,9.6,9.6,9.6h10V533.5z"/>
	<path id="XMLID_17_" class="st4" d="M648.5,578.3h-46.3c-5.3,0-9.6-4.3-9.6-9.6v-46.7c0-5.3,4.3-9.6,9.6-9.6h28.1
		c11.1,0,20.5,8.1,22.2,19.1l5.4,35.7C658.9,573.1,654.4,578.3,648.5,578.3z"/>
	<path id="XMLID_99_" class="st2" d="M561.8,577.3H459.6c-5.3,0-9.6-4.3-9.6-9.6v-46.7c0-5.3,4.3-9.6,9.6-9.6h102.2
		c5.3,0,9.6,4.3,9.6,9.6v46.7C571.3,573,567.1,577.3,561.8,577.3z"/>
	<path id="XMLID_308_" class="st11" d="M468.5,531.3c0-5.3,4.3-9.6,9.6-9.6h93.2v-0.7c0-5.3-4.3-9.6-9.6-9.6H459.6
		c-5.3,0-9.6,4.3-9.6,9.6v46.7c0,5.3,4.3,9.6,9.6,9.6h9V531.3z"/>
	<path id="XMLID_21_" class="st4" d="M561.8,577.3H459.6c-5.3,0-9.6-4.3-9.6-9.6v-46.7c0-5.3,4.3-9.6,9.6-9.6h102.2
		c5.3,0,9.6,4.3,9.6,9.6v46.7C571.3,573,567.1,577.3,561.8,577.3z"/>
	<path id="XMLID_94_" class="st2" d="M403.5,578.3h-96.3c-5.4,0-9.3-6-7.8-12.1l11.1-46.7c1-4.1,4.2-7,7.8-7h85.2
		c4.5,0,8.1,4.3,8.1,9.6v46.7C411.7,574,408,578.3,403.5,578.3z"/>
	<path id="XMLID_316_" class="st11" d="M317.4,576l11.1-46.7c1-4.1,4.2-7,7.8-7h75.3v-0.3c0-5.3-3.6-9.6-8.1-9.6h-85.2
		c-3.6,0-6.8,2.9-7.8,7l-11.1,46.7c-1.4,6.1,2.4,12.1,7.8,12.1h9.9C317.2,577.5,317.3,576.8,317.4,576z"/>
	<path id="XMLID_22_" class="st4" d="M403.5,578.3h-96.3c-5.4,0-9.3-6-7.8-12.1l11.1-46.7c1-4.1,4.2-7,7.8-7h85.2
		c4.5,0,8.1,4.3,8.1,9.6v46.7C411.7,574,408,578.3,403.5,578.3z"/>
	<path id="XMLID_20_" class="st12" d="M413.4,490.7L413.4,490.7c11.4,0,20.6,9.2,20.6,20.6v189.2"/>
	<line id="XMLID_24_" class="st4" x1="386.8" y1="602.3" x2="416.8" y2="602.3"/>
	<line id="XMLID_150_" class="st4" x1="542.5" y1="600" x2="568.1" y2="600"/>
	<path id="XMLID_289_" class="st10" d="M716.3,669.5h-3.9V574h3.9c6.6,0,12,5.4,12,12v71.5C728.3,664.1,722.9,669.5,716.3,669.5z"/>
	<path id="XMLID_18_" class="st4" d="M716.3,669.5h-3.9V574h3.9c6.6,0,12,5.4,12,12v71.5C728.3,664.1,722.9,669.5,716.3,669.5z"/>
	<line id="XMLID_25_" class="st4" x1="669.3" y1="522.5" x2="681.4" y2="522.5"/>
	<line id="XMLID_26_" class="st4" x1="674.3" y1="539.7" x2="686.4" y2="539.7"/>
	<line id="XMLID_27_" class="st4" x1="679" y1="556.8" x2="691.1" y2="556.8"/>
	<line id="XMLID_28_" class="st4" x1="681" y1="574" x2="693.2" y2="574"/>
	<path id="XMLID_23_" class="st4" d="M580,500"/>
	<path id="XMLID_124_" class="st9" d="M534.8,706.7H405.5c-5.4,0-9.7-4.3-9.7-9.7l0,0c0-5.4,4.3-9.7,9.7-9.7h129.3
		c5.4,0,9.7,4.3,9.7,9.7l0,0C544.5,702.3,540.2,706.7,534.8,706.7z"/>
	<path id="XMLID_141_" class="st9" d="M534.8,706.7H405.5c-5.4,0-9.7-4.3-9.7-9.7l0,0c0-5.4,4.3-9.7,9.7-9.7h129.3
		c5.4,0,9.7,4.3,9.7,9.7l0,0C544.5,702.3,540.2,706.7,534.8,706.7z"/>
	<rect id="XMLID_273_" x="395.8" y="687.3" class="st10" width="148.7" height="9.7"/>
	<path id="XMLID_4_" class="st4" d="M534.8,706.7H405.5c-5.4,0-9.7-4.3-9.7-9.7l0,0c0-5.4,4.3-9.7,9.7-9.7h129.3
		c5.4,0,9.7,4.3,9.7,9.7l0,0C544.5,702.3,540.2,706.7,534.8,706.7z"/>
	<line id="XMLID_156_" class="st13" x1="326.2" y1="553.5" x2="345.8" y2="533.8"/>
	<line id="XMLID_159_" class="st13" x1="342.8" y1="555.3" x2="369.2" y2="528.7"/>
	<line id="XMLID_169_" class="st13" x1="478.5" y1="551.2" x2="498" y2="531.4"/>
	<line id="XMLID_167_" class="st13" x1="495.1" y1="553" x2="521.5" y2="526.4"/>
	<line id="XMLID_172_" class="st13" x1="605.3" y1="553.1" x2="621.4" y2="536.8"/>
	<line id="XMLID_170_" class="st13" x1="619" y1="554.6" x2="640.7" y2="532.6"/>
</g>
<g>
	<path id="XMLID_119_" class="st2" d="M769.7,605.9l82.6-195.6c1.8-4.2,7.8-4.2,9.6,0l82.6,195.6c9.9,23.4-11.2,47.9-41.2,47.9
		h-92.4C780.9,653.8,759.8,629.3,769.7,605.9z"/>
	<path id="XMLID_133_" class="st2" d="M769.7,605.9l82.6-195.6c1.8-4.2,7.8-4.2,9.6,0l82.6,195.6c9.9,23.4-11.2,47.9-41.2,47.9
		h-92.4C780.9,653.8,759.8,629.3,769.7,605.9z"/>
	<path id="XMLID_340_" class="st11" d="M810.1,615.1L869,427l-7-16.7c-1.8-4.2-7.8-4.2-9.6,0l-82.6,195.6
		c-9.9,23.4,11.2,47.9,41.2,47.9h7C809.2,646.4,805.8,634.1,810.1,615.1z"/>
	<line id="XMLID_132_" class="st4" x1="857.1" y1="740.7" x2="857.1" y2="446.3"/>
	<polyline id="XMLID_130_" class="st4" points="880.9,487.3 857.1,510 833.4,487.3 	"/>
	<polyline id="XMLID_135_" class="st4" points="885.4,530.5 857.1,557.6 828.8,530.5 	"/>
	<polyline id="XMLID_171_" class="st4" points="904.3,579.7 857.1,617.2 809.9,579.7 	"/>
</g>
<polyline id="XMLID_336_" class="st3" points="592,151.7 580,163.7 568,151.7 "/>
<polyline id="XMLID_335_" class="st3" points="681.3,167.3 669.3,179.3 657.2,167.3 "/>
<polyline id="XMLID_342_" class="st3" points="871.5,231.8 859.4,243.8 847.4,231.8 "/>
<line id="XMLID_324_" class="st4" x1="755" y1="740.7" x2="477" y2="740.7"/>
<line id="XMLID_190_" class="st4" x1="480.7" y1="740.7" x2="447" y2="740.7"/>
</svg>
