<?xml version="1.0" encoding="utf-8"?>
<!-- Generator: Adobe Illustrator 23.1.1, SVG Export Plug-In . SVG Version: 6.00 Build 0)  -->
<svg version="1.1" id="Layer_1" xmlns="http://www.w3.org/2000/svg" xmlns:xlink="http://www.w3.org/1999/xlink" x="0px" y="0px"
	 viewBox="0 0 1000 1000" style="enable-background:new 0 0 1000 1000;" xml:space="preserve">
<style type="text/css">
	.st0{fill:#F7B85C;}
	.st1{fill:#EEF2F4;}
	.st2{enable-background:new    ;}
	.st3{fill:#212552;}
	.st4{fill:#92D6E9;}
	
		.st5{opacity:0.3;fill:#0A1E2B;stroke:#0A1E2B;stroke-width:6;stroke-linecap:round;stroke-linejoin:round;stroke-miterlimit:10;enable-background:new    ;}
	.st6{fill:none;stroke:#212552;stroke-width:6;stroke-linecap:round;stroke-linejoin:round;stroke-miterlimit:10;}
	.st7{fill:#CBEDF9;}
	.st8{fill:#E8F9FF;}
	
		.st9{opacity:0.23;fill:#0A1E2B;stroke:#0A1E2B;stroke-width:6;stroke-linecap:round;stroke-linejoin:round;stroke-miterlimit:10;enable-background:new    ;}
	.st10{fill:#53ADBC;}
	.st11{fill:#5F9E71;stroke:#212552;stroke-width:6;stroke-linecap:round;stroke-linejoin:round;stroke-miterlimit:10;}
	.st12{fill:#90C49E;}
	.st13{fill:#FFFFFF;}
	.st14{fill:#A78B75;}
	.st15{fill:#FFE07D;}
	.st16{fill:#FFE8A6;}
	.st17{fill:#9FBDCA;stroke:#9FBDCA;stroke-width:6;stroke-linecap:round;stroke-linejoin:round;stroke-miterlimit:10;}
	.st18{fill:#3CA4B5;}
	.st19{fill:none;stroke:#212552;stroke-width:10;stroke-linecap:round;stroke-linejoin:round;stroke-miterlimit:10;}
	.st20{fill:none;stroke:#212552;stroke-width:9;stroke-linecap:round;stroke-linejoin:round;stroke-miterlimit:10;}
	.st21{fill:#FFEA9E;}
	
		.st22{opacity:0.23;fill:none;stroke:#0A1E2B;stroke-width:8;stroke-linecap:round;stroke-linejoin:round;stroke-miterlimit:10;enable-background:new    ;}
</style>
<rect id="XMLID_31_" y="0" class="st0" width="1000" height="1000"/>
<g>
	<g>
		<g>
			<path class="st1" d="M63.2,959.2c0,2.5-1.2,3.7-2.6,3.7c-1.1,0-1.9-0.5-2.1-1.4c-0.4,0.5-1,0.8-1.8,0.8c-1.5,0-2.6-1.2-2.6-2.8
				s1.1-2.8,2.6-2.8c0.7,0,1.2,0.3,1.6,0.7v-0.5h1.6v3.9c0,0.8,0.3,1.4,1,1.4c0.9,0,1.7-0.9,1.7-3c0-3-2.3-5.3-5.4-5.3
				c-3.1,0-5.6,2.4-5.6,5.7s2.5,5.7,5.9,5.7c1.1,0,2.1-0.2,2.9-0.4v0.6c-0.8,0.3-1.7,0.4-2.9,0.4c-3.7,0-6.5-2.6-6.5-6.2
				c0-3.4,2.7-6.2,6.2-6.2C61.1,953.3,63.2,956.4,63.2,959.2z M58.3,959.5c0-0.8-0.6-1.4-1.3-1.4c-0.8,0-1.3,0.5-1.3,1.4
				c0,0.8,0.6,1.3,1.3,1.3C57.8,960.9,58.3,960.3,58.3,959.5z"/>
		</g>
		<g>
			<path class="st1" d="M69.4,955.1v2c-1.2-0.1-2.6,0.5-2.6,2.4v4.3h-1.9v-8.6h1.9v1.4C67.3,955.5,68.3,955.1,69.4,955.1z"/>
		</g>
		<g>
			<path class="st1" d="M74.6,962.3c1,0,1.8-0.5,2.2-1.1l1.5,0.9c-0.8,1.2-2.1,1.9-3.8,1.9c-2.8,0-4.7-1.9-4.7-4.5
				c0-2.5,1.8-4.5,4.5-4.5c2.6,0,4.3,2.1,4.3,4.5c0,0.3,0,0.5-0.1,0.8h-6.8C72.1,961.6,73.2,962.3,74.6,962.3z M76.9,958.8
				c-0.3-1.5-1.3-2.1-2.5-2.1c-1.4,0-2.3,0.8-2.6,2.1H76.9z"/>
		</g>
		<g>
			<path class="st1" d="M88.9,955.2v8.6H87v-1.2c-0.7,0.9-1.7,1.5-3,1.5c-2.3,0-4.3-2-4.3-4.5c0-2.6,1.9-4.5,4.3-4.5
				c1.3,0,2.3,0.5,3,1.4v-1.2L88.9,955.2L88.9,955.2z M87.1,959.5c0-1.6-1.2-2.7-2.7-2.7s-2.7,1.1-2.7,2.7c0,1.6,1.2,2.7,2.7,2.7
				C85.9,962.3,87.1,961.1,87.1,959.5z"/>
		</g>
		<g>
			<path class="st1" d="M91.1,951.3H93v12.5h-1.9V951.3z"/>
		</g>
		<g>
			<path class="st1" d="M102.9,955.2l-3.3,8.6h-2.1l-3.3-8.6h2l2.4,6.5l2.4-6.5H102.9z"/>
		</g>
		<g>
			<path class="st1" d="M104.2,955.2h1.9v8.9c0,2.4-1.2,3.5-3.5,3.3v-1.8c1.1,0.1,1.7-0.3,1.7-1.5L104.2,955.2L104.2,955.2z
				 M104,952.8c0-0.7,0.5-1.2,1.2-1.2s1.2,0.5,1.2,1.2c0,0.6-0.5,1.2-1.2,1.2S104,953.4,104,952.8z"/>
		</g>
		<g>
			<path class="st1" d="M116,955.2l-3.3,8.8c-0.8,2.2-2.2,3.3-4.2,3.2v-1.7c1.2,0.1,1.9-0.5,2.3-1.7l0.1-0.2l-3.6-8.4h2l2.6,6.2
				l2.2-6.2L116,955.2L116,955.2z"/>
		</g>
	</g>
	<g class="st2">
		<path class="st1" d="M211.9,938.7c0,2.1-1.5,3.8-3.6,3.8h-3v-7.6h3C210.4,934.9,211.9,936.6,211.9,938.7z M210.9,938.7
			c0-1.6-1.1-2.9-2.6-2.9h-2v5.7h2C209.8,941.6,210.9,940.3,210.9,938.7z"/>
		<path class="st1" d="M219.2,940.8h-3.4l-0.6,1.7h-1.1l2.8-7.6h1.1l2.8,7.6h-1.1L219.2,940.8z M218.9,939.9l-1.4-3.8l-1.4,3.8
			H218.9z"/>
		<path class="st1" d="M225.8,939.4v3.1h-1v-3.1l-2.7-4.5h1.1l2.1,3.6l2.1-3.6h1.1L225.8,939.4z"/>
		<path class="st1" d="M235.8,938.7c0-2.4,1.1-4,2.9-4c1.9,0,2.9,1.6,2.9,4c0,2.4-1,4-2.9,4C236.9,942.7,235.8,941,235.8,938.7z
			 M240.7,938.7c0-1.9-0.7-3-1.9-3c-1.2,0-1.9,1.1-1.9,3s0.7,3,1.9,3C240,941.7,240.7,940.6,240.7,938.7z"/>
		<path class="st1" d="M249.7,940.1c0,1.5-1.1,2.6-2.6,2.6c-1.5,0-2.6-1.1-2.6-2.6c0-0.6,0.2-1.1,0.5-1.5l2.5-3.7h1.2l-1.8,2.7
			c0.1,0,0.2,0,0.4,0C248.6,937.5,249.7,938.6,249.7,940.1z M248.7,940.1c0-1-0.7-1.6-1.6-1.6c-1,0-1.6,0.6-1.6,1.6s0.7,1.6,1.6,1.6
			C248.1,941.7,248.7,941,248.7,940.1z"/>
	</g>
	<g class="st2">
		<path class="st1" d="M58.9,938.7c0,2.1-1.5,3.8-3.6,3.8h-3v-7.6h3C57.4,934.9,58.9,936.6,58.9,938.7z M57.9,938.7
			c0-1.6-1.1-2.9-2.6-2.9h-2v5.7h2C56.8,941.6,57.9,940.3,57.9,938.7z"/>
		<path class="st1" d="M66.7,941.6v1h-4.6v-7.6h4.5v1h-3.5v2.3h3.2v0.9h-3.2v2.4H66.7z"/>
		<path class="st1" d="M69.5,940.8l0.9-0.5c0.3,0.8,0.9,1.4,2,1.4c1.1,0,1.6-0.5,1.6-1.2c0-0.8-0.7-1-1.8-1.4
			c-1.2-0.4-2.4-0.8-2.4-2.2c0-1.4,1.1-2.2,2.4-2.2c1.3,0,2.2,0.7,2.6,1.7l-0.8,0.5c-0.3-0.7-0.8-1.2-1.7-1.2
			c-0.8,0-1.4,0.4-1.4,1.1c0,0.7,0.5,1,1.6,1.3c1.3,0.4,2.6,0.8,2.6,2.3c0,1.3-1.1,2.2-2.6,2.2C70.9,942.7,69.9,941.9,69.5,940.8z"
			/>
		<path class="st1" d="M79.1,934.9v7.6h-1v-7.6H79.1z"/>
		<path class="st1" d="M90.1,939.2c0,1.9-1.4,3.5-3.7,3.5c-2.4,0-4-1.8-4-4c0-2.2,1.7-4,4-4c1.4,0,2.7,0.8,3.3,1.8l-0.9,0.5
			c-0.4-0.8-1.4-1.4-2.4-1.4c-1.8,0-3,1.3-3,3c0,1.7,1.2,3,3,3c1.6,0,2.5-0.9,2.7-2h-2.8v-0.9h3.8V939.2z"/>
		<path class="st1" d="M99.1,934.9v7.6h-0.8l-3.9-5.7v5.7h-1v-7.6h0.8l3.9,5.7v-5.7H99.1z"/>
		<path class="st1" d="M107.3,941.6v1h-4.6v-7.6h4.5v1h-3.5v2.3h3.2v0.9h-3.2v2.4H107.3z"/>
		<path class="st1" d="M117.1,938.7c0,2.1-1.5,3.8-3.6,3.8h-3v-7.6h3C115.6,934.9,117.1,936.6,117.1,938.7z M116.1,938.7
			c0-1.6-1.1-2.9-2.6-2.9h-2v5.7h2C115,941.6,116.1,940.3,116.1,938.7z"/>
		<path class="st1" d="M130.5,940.4c0,1.2-1,2.2-2.2,2.2H125v-7.6h3.1c1.2,0,2.1,0.9,2.1,2.1c0,0.7-0.3,1.2-0.8,1.6
			C130.1,938.9,130.5,939.5,130.5,940.4z M126.1,935.8v2.3h2c0.6,0,1.1-0.5,1.1-1.2c0-0.6-0.5-1.2-1.1-1.2H126.1z M129.5,940.3
			c0-0.7-0.5-1.2-1.2-1.2h-2.3v2.5h2.3C129,941.6,129.5,941,129.5,940.3z"/>
		<path class="st1" d="M136.4,939.4v3.1h-1v-3.1l-2.7-4.5h1.1l2.1,3.6l2.1-3.6h1.1L136.4,939.4z"/>
	</g>
	<g class="st2">
		<path class="st1" d="M204.8,958.1c0-3.6,2.8-6.4,6.4-6.4c3.6,0,6.4,2.8,6.4,6.4c0,3.6-2.8,6.4-6.4,6.4
			C207.7,964.5,204.8,961.7,204.8,958.1z M215.6,958.1c0-2.5-1.9-4.4-4.4-4.4c-2.5,0-4.4,1.9-4.4,4.4s1.9,4.4,4.4,4.4
			C213.7,962.5,215.6,960.6,215.6,958.1z"/>
		<path class="st1" d="M228.8,959.9c0,2.6-2,4.7-4.4,4.7c-1.4,0-2.4-0.6-3.1-1.5v4.8h-1.9v-12.4h1.9v1.3c0.7-0.9,1.7-1.5,3.1-1.5
			C226.8,955.2,228.8,957.3,228.8,959.9z M226.9,959.9c0-1.6-1.2-2.8-2.8-2.8c-1.6,0-2.8,1.2-2.8,2.8c0,1.6,1.2,2.8,2.8,2.8
			C225.7,962.7,226.9,961.5,226.9,959.9z"/>
		<path class="st1" d="M234.9,962.8c1.1,0,1.9-0.5,2.3-1.1l1.6,0.9c-0.8,1.2-2.1,1.9-3.9,1.9c-2.9,0-4.8-2-4.8-4.7
			c0-2.6,1.9-4.7,4.7-4.7c2.6,0,4.4,2.1,4.4,4.7c0,0.3,0,0.5-0.1,0.8h-7C232.4,962.1,233.5,962.8,234.9,962.8z M237.3,959.1
			c-0.3-1.5-1.4-2.2-2.5-2.2c-1.4,0-2.4,0.8-2.7,2.2H237.3z"/>
		<path class="st1" d="M248.9,958.9v5.4H247v-5.2c0-1.3-0.8-2.1-2-2.1c-1.3,0-2.2,0.7-2.2,2.5v4.7h-1.9v-8.8h1.9v1.1
			c0.6-0.9,1.5-1.4,2.7-1.4C247.5,955.2,248.9,956.6,248.9,958.9z"/>
		<path class="st1" d="M254.4,951.9h2.2l3.3,9.9l3.3-9.9h2.2l-4.3,12.4h-2.4L254.4,951.9z"/>
		<path class="st1" d="M274.5,955.4v8.8h-1.9V963c-0.7,0.9-1.7,1.5-3.1,1.5c-2.4,0-4.4-2-4.4-4.7c0-2.6,2-4.7,4.4-4.7
			c1.4,0,2.4,0.6,3.1,1.5v-1.3H274.5z M272.6,959.9c0-1.6-1.2-2.8-2.8-2.8c-1.6,0-2.8,1.2-2.8,2.8c0,1.6,1.2,2.8,2.8,2.8
			C271.4,962.7,272.6,961.5,272.6,959.9z"/>
		<path class="st1" d="M284.6,955.4v8.8h-1.9v-1.1c-0.6,0.9-1.5,1.4-2.7,1.4c-2,0-3.4-1.3-3.4-3.6v-5.4h1.9v5.2c0,1.3,0.8,2.1,2,2.1
			c1.3,0,2.2-0.7,2.2-2.5v-4.7H284.6z"/>
		<path class="st1" d="M286.9,951.4h1.9v12.9h-1.9V951.4z"/>
		<path class="st1" d="M293.7,957.3v4.2c0,1.1,0.7,1.1,2.2,1v1.7c-2.9,0.4-4.1-0.5-4.1-2.8v-4.2h-1.6v-1.8h1.6v-1.9l1.9-0.6v2.5h2.2
			v1.8H293.7z"/>
	</g>
	<g>
		<path class="st1" d="M841.3,942.5h-1v-7.6h1.1l2.4,4l2.4-4h1.1v7.6h-1v-6l-2.5,4.2h-0.1l-2.5-4.1L841.3,942.5L841.3,942.5z
			 M858.8,938.7c0,2.2-1.7,4-4,4c-2.2,0-3.9-1.8-3.9-4s1.7-4,3.9-4C857.1,934.7,858.8,936.5,858.8,938.7z M857.8,938.7
			c0-1.7-1.3-3-2.9-3c-1.7,0-2.9,1.3-2.9,3s1.3,3,2.9,3C856.6,941.7,857.8,940.4,857.8,938.7z M866.2,939.5l1.8,3.1h-1.1l-1.7-2.9
			h-1.8v2.9h-1V935h3c1.3,0,2.4,1.1,2.4,2.4C867.8,938.2,867.1,939.1,866.2,939.5z M865.4,938.7c0.8,0,1.4-0.6,1.4-1.4
			c0-0.8-0.6-1.4-1.4-1.4h-2v2.8L865.4,938.7L865.4,938.7z M875.9,941.6h-3.5v-2.4h3.2v-0.9h-3.2V936h3.5v-1h-4.5v7.6h4.6
			L875.9,941.6L875.9,941.6z M844.2,962.2l-2.5-6.7h-2.1l3.5,8.9h2.2l3.5-8.9h-2.1L844.2,962.2z M850,964.3h1.9v-8.9H850V964.3z
			 M851,951.7c-0.7,0-1.2,0.5-1.2,1.2s0.5,1.2,1.2,1.2s1.2-0.6,1.2-1.2C852.2,952.2,851.6,951.7,851,951.7z M855.2,951.7
			c-0.7,0-1.2,0.5-1.2,1.2s0.5,1.2,1.2,1.2s1.2-0.6,1.2-1.2C856.5,952.2,855.9,951.7,855.2,951.7z M854.3,964.7
			c0,1.2-0.5,1.7-1.7,1.6v1.8c2.4,0.2,3.6-1,3.6-3.4v-9.2h-1.9L854.3,964.7L854.3,964.7z M865.4,955.4h1.9v8.9h-1.9V963
			c-0.7,0.9-1.7,1.5-3.1,1.5c-2.4,0-4.4-2-4.4-4.7c0-2.6,2-4.7,4.4-4.7c1.4,0,2.4,0.6,3.1,1.5V955.4z M865.4,959.9
			c0-1.6-1.2-2.8-2.8-2.8s-2.8,1.2-2.8,2.8s1.2,2.8,2.8,2.8S865.4,961.5,865.4,959.9z M873.3,961.9l-2.6-6.4h-2.1l3.8,8.7l-0.1,0.2
			c-0.4,1.2-1.1,1.8-2.4,1.7v1.8c2,0.1,3.5-1,4.3-3.3l3.4-9.1h-2L873.3,961.9z M882.3,962.2l-2.5-6.7h-2.1l3.5,8.9h2.2l3.5-8.9h-2.1
			L882.3,962.2z M896.4,959.9c0,0.3,0,0.5-0.1,0.8h-7c0.3,1.4,1.4,2.1,2.8,2.1c1.1,0,1.9-0.5,2.3-1.1l1.6,0.9
			c-0.8,1.2-2.1,1.9-3.9,1.9c-2.9,0-4.8-2-4.8-4.7c0-2.6,1.9-4.7,4.7-4.7C894.5,955.2,896.4,957.3,896.4,959.9z M894.4,959.1
			c-0.3-1.5-1.4-2.2-2.5-2.2c-1.4,0-2.4,0.8-2.7,2.2H894.4z M899.9,956.9v-1.5H898v8.9h1.9v-4.5c0-2,1.5-2.6,2.7-2.5v-2.1
			C901.6,955.3,900.5,955.7,899.9,956.9z M913.8,955.2c-1.2,0-2.1,0.5-2.7,1.4c-0.5-0.9-1.4-1.4-2.5-1.4s-2,0.4-2.5,1.3v-1.1h-1.9
			v8.9h1.9v-5c0-1.6,0.9-2.3,2-2.3c1,0,1.7,0.7,1.7,1.9v5.4h1.9v-5c0-1.6,0.8-2.3,1.9-2.3c1,0,1.7,0.7,1.7,1.9v5.4h1.9v-5.5
			C917.1,956.6,915.8,955.2,913.8,955.2z M926.2,955.4h1.9v8.9h-1.9V963c-0.7,0.9-1.7,1.5-3.1,1.5c-2.4,0-4.4-2-4.4-4.7
			c0-2.6,2-4.7,4.4-4.7c1.4,0,2.4,0.6,3.1,1.5V955.4z M926.2,959.9c0-1.6-1.2-2.8-2.8-2.8s-2.8,1.2-2.8,2.8s1.2,2.8,2.8,2.8
			S926.2,961.5,926.2,959.9z M931.5,961.9c-0.7,0-1.3,0.6-1.3,1.3s0.6,1.3,1.3,1.3s1.3-0.6,1.3-1.3
			C932.8,962.4,932.2,961.9,931.5,961.9z M938.3,962.6c-1.6,0-2.7-1.2-2.7-2.8s1.2-2.8,2.7-2.8c1.1,0,1.9,0.5,2.3,1.4l1.6-1
			c-0.7-1.4-2.2-2.3-3.9-2.3c-2.7,0-4.7,2-4.7,4.7c0,2.6,2,4.7,4.7,4.7c1.7,0,3.2-0.9,4-2.3l-1.6-0.9
			C940.2,962.1,939.3,962.6,938.3,962.6z M952.4,959.9c0,2.6-2.1,4.7-4.7,4.7c-2.6,0-4.7-2-4.7-4.7c0-2.6,2.1-4.7,4.7-4.7
			C950.3,955.2,952.4,957.2,952.4,959.9z M950.5,959.9c0-1.6-1.2-2.8-2.8-2.8s-2.8,1.2-2.8,2.8s1.2,2.8,2.8,2.8
			S950.5,961.5,950.5,959.9z"/>
	</g>
</g>
<ellipse id="XMLID_75_" class="st3" cx="500" cy="685.5" rx="182.6" ry="22.8"/>
<path id="XMLID_20_" class="st4" d="M459.5,669.4V662c0-3.3-2.7-6-6-6h-66c-3.3,0-6,2.7-6,6v22c0,3.3,2.7,6,6,6h43.9
	c4.8,0,9.4-1.9,12.8-5.3L459.5,669.4z"/>
<path id="XMLID_50_" class="st5" d="M453.5,656h-66c-3.3,0-6,2.7-6,6v20.4h65l13-13V662C459.5,658.7,456.8,656,453.5,656z"/>
<path id="XMLID_18_" class="st4" d="M540.5,669.4V662c0-3.3,2.7-6,6-6h66c3.3,0,6,2.7,6,6v22c0,3.3-2.7,6-6,6h-43.9
	c-4.8,0-9.4-1.9-12.8-5.3L540.5,669.4z"/>
<path id="XMLID_51_" class="st5" d="M612.5,656h-66c-3.3,0-6,2.7-6,6v7.4l13,13h65V662C618.5,658.7,615.8,656,612.5,656z"/>
<path id="XMLID_27_" class="st6" d="M459.5,669.4V662c0-3.3-2.7-6-6-6h-66c-3.3,0-6,2.7-6,6v22c0,3.3,2.7,6,6,6h43.9
	c4.8,0,9.4-1.9,12.8-5.3L459.5,669.4z"/>
<path id="XMLID_26_" class="st6" d="M540.5,669.4V662c0-3.3,2.7-6,6-6h66c3.3,0,6,2.7,6,6v22c0,3.3-2.7,6-6,6h-43.9
	c-4.8,0-9.4-1.9-12.8-5.3L540.5,669.4z"/>
<path id="XMLID_2_" class="st7" d="M630,669.5H370c-22.1,0-40-17.9-40-40v-260c0-22.1,17.9-40,40-40h260c22.1,0,40,17.9,40,40v260
	C670,651.6,652.1,669.5,630,669.5z"/>
<path id="XMLID_38_" class="st8" d="M630,329.5H370c-22.1,0-40,17.9-40,40v23c0-22.1,17.9-40,40-40h260c22.1,0,40,17.9,40,40v-23
	C670,347.4,652.1,329.5,630,329.5z"/>
<path id="XMLID_45_" class="st4" d="M630,646.5H370c-22.1,0-40-17.9-40-40v23c0,22.1,17.9,40,40,40h260c22.1,0,40-17.9,40-40v-23
	C670,628.6,652.1,646.5,630,646.5z"/>
<polygon id="XMLID_143_" class="st9" points="368.7,628.6 405.1,669.5 473.1,669.5 517,669.2 508.3,604.1 "/>
<path id="XMLID_13_" class="st4" d="M382,633.5c-8.8,0-16-7.2-16-16v-236c0-8.8,7.2-16,16-16h236c8.8,0,16,7.2,16,16v236
	c0,8.8-7.2,16-16,16H382z"/>
<path id="XMLID_135_" class="st6" d="M634,381.5v236c0,8.8-7.2,16-16,16H382c-8.8,0-16-7.2-16-16v-236c0-8.8,7.2-16,16-16h127.4
	c4.5,2.1,7.6,6.8,7.6,11.9v10.3h82.6c2.6,0,5,1.1,6.7,2.8l20.7-22.2C631.2,371.1,634,376,634,381.5z"/>
<polygon id="XMLID_139_" class="st9" points="590.9,591.9 645.5,622.5 656.5,588.3 627,568.1 "/>
<path id="XMLID_7_" class="st10" d="M627,368.3l-20.7,22.2c-1.7-1.7-4.1-2.8-6.7-2.8H517v-10.3c0-5.1-3.2-9.8-7.6-11.9H618
	C621.3,365.5,624.5,366.5,627,368.3z"/>
<path id="XMLID_131_" class="st6" d="M627,368.3l-20.7,22.2c-1.7-1.7-4.1-2.8-6.7-2.8H517v-10.3c0-5.1-3.2-9.8-7.6-11.9H618
	C621.3,365.5,624.5,366.5,627,368.3z"/>
<path id="XMLID_128_" class="st6" d="M606.3,390.4c1.7,1.7,2.8,4.1,2.8,6.7V596c0,5.8-4.7,10.4-10.4,10.4H517"/>
<path id="XMLID_53_" class="st11" d="M662,562.7l-18.1-46.9c-1-2.7-4.1-4-6.8-3L592.8,530l-44.3,17.1c-2.7,1-4,4.1-3,6.8l18.1,46.9
	c1,2.7,4.1,4,6.8,3l44.3-17.1l44.3-17.1C661.7,568.4,663.1,565.4,662,562.7z"/>
<path id="XMLID_120_" class="st6" d="M662,562.7l-18.1-46.9c-1-2.7-4.1-4-6.8-3L592.8,530l-44.3,17.1c-2.7,1-4,4.1-3,6.8l18.1,46.9
	c1,2.7,4.1,4,6.8,3l44.3-17.1l44.3-17.1C661.7,568.4,663.1,565.4,662,562.7z"/>
<path id="XMLID_118_" class="st12" d="M649.3,560.4l-4.7-12.1c-2.8,1.1-5.9-0.3-7-3.1s0.3-5.9,3.1-7l-4.7-12.1
	c-0.6-1.4-2.2-2.2-3.6-1.6L597,538.2l-0.8,0.3l-35.4,13.7c-1.4,0.6-2.2,2.2-1.6,3.6l4.7,12.1c2.8-1.1,5.9,0.3,7,3.1s-0.3,5.9-3.1,7
	l4.7,12.1c0.6,1.4,2.2,2.2,3.6,1.6l35.4-13.7l0.8-0.3l35.4-13.7C649.1,563.5,649.8,561.9,649.3,560.4z"/>
<ellipse id="XMLID_56_" transform="matrix(0.9327 -0.3606 0.3606 0.9327 -160.7158 255.2603)" class="st13" cx="603.7" cy="558.3" rx="12.7" ry="13.3"/>
<polygon id="XMLID_140_" class="st9" points="581.9,568.1 617.4,520.5 616,474 "/>
<polygon id="XMLID_123_" class="st14" points="559.8,572 543.9,572 550.1,594.4 553,601.9 "/>
<path id="XMLID_105_" class="st15" d="M538.9,606.5h-33.3c-6.2,0-10-5.1-8.5-10.9L502,576c0.8-3.4,4.9-5.9,9.1-5.9h22.5
	c4.2,0,8.2,2.5,9.1,5.9l4.9,19.6C548.9,601.3,545.1,606.5,538.9,606.5z"/>
<path id="XMLID_161_" class="st16" d="M547.5,595.6l-4.9-19.6c-0.8-3.4-4.9-5.9-9.1-5.9H511c-4.2,0-8.2,2.5-9.1,5.9l-0.1,0.5
	c0.9-0.2,1.8-0.3,2.7-0.3H527c4.2,0,8.2,2.5,9.1,5.9l4.9,19.6c0.4,1.6,0.4,3.2,0,4.6C545.9,605.3,548.7,600.7,547.5,595.6z"/>
<path id="XMLID_106_" class="st6" d="M538.9,606.5h-33.3c-6.2,0-10-5.1-8.5-10.9L502,576c0.8-3.4,4.9-5.9,9.1-5.9h22.5
	c4.2,0,8.2,2.5,9.1,5.9l4.9,19.6C548.9,601.3,545.1,606.5,538.9,606.5z"/>
<path id="XMLID_116_" class="st15" d="M513.4,570.1h-33.3c-6.2,0-10-5.1-8.5-10.9l4.9-19.6c0.8-3.4,4.9-5.9,9.1-5.9H508
	c4.2,0,8.2,2.5,9.1,5.9l4.9,19.6C523.4,564.9,519.6,570.1,513.4,570.1z"/>
<path id="XMLID_114_" class="st6" d="M513.4,570.1h-33.3c-6.2,0-10-5.1-8.5-10.9l4.9-19.6c0.8-3.4,4.9-5.9,9.1-5.9H508
	c4.2,0,8.2,2.5,9.1,5.9l4.9,19.6C523.4,564.9,519.6,570.1,513.4,570.1z"/>
<path id="XMLID_122_" class="st11" d="M612.9,470.9l-47.1-17.6c-2.7-1-5.7,0.4-6.7,3.1l-16.6,44.5l-16.6,44.5
	c-1,2.7,0.4,5.7,3.1,6.7l47.1,17.6c2.7,1,5.7-0.4,6.7-3.1l16.6-44.5l16.6-44.5C617,474.9,615.6,471.9,612.9,470.9z"/>
<path id="XMLID_121_" class="st12" d="M602.7,478.9l-12.1-4.5c-1,2.8-4.2,4.2-7,3.2s-4.2-4.2-3.2-7l-12.1-4.5
	c-1.5-0.5-3.1,0.2-3.6,1.6l-13.3,35.6l-0.3,0.8l-13.3,35.6c-0.5,1.5,0.2,3.1,1.6,3.6l12.1,4.5c1-2.8,4.2-4.2,7-3.2s4.2,4.2,3.2,7
	l12.1,4.5c1.5,0.5,3.1-0.2,3.6-1.6l13.3-35.6l0.3-0.8l13.3-35.6C604.9,481.1,604.2,479.5,602.7,478.9z"/>
<ellipse id="XMLID_119_" transform="matrix(0.3497 -0.9369 0.9369 0.3497 -108.0202 867.4503)" class="st13" cx="570.9" cy="511.5" rx="12.7" ry="13.3"/>
<path id="XMLID_67_" class="st6" d="M612.9,470.9l-47.1-17.6c-2.7-1-5.7,0.4-6.7,3.1l-16.6,44.5l-16.6,44.5c-1,2.7,0.4,5.7,3.1,6.7
	l47.1,17.6c2.7,1,5.7-0.4,6.7-3.1l16.6-44.5l16.6-44.5C617,474.9,615.6,471.9,612.9,470.9z"/>
<polygon id="XMLID_54_" class="st14" points="537.8,536.6 518.3,535.7 524,555.5 531,566.5 "/>
<path id="XMLID_112_" class="st15" d="M567.9,570.1h-33.3c-6.2,0-10-5.1-8.5-10.9l4.9-19.6c0.8-3.4,4.9-5.9,9.1-5.9h22.5
	c4.2,0,8.2,2.5,9.1,5.9l4.9,19.6C577.9,564.9,574.1,570.1,567.9,570.1z"/>
<path id="XMLID_156_" class="st16" d="M576.4,559.2l-4.9-19.6c-0.8-3.4-4.9-5.9-9.1-5.9H540c-4.2,0-8.2,2.5-9.1,5.9l-0.3,1.2
	c1.2-0.4,2.4-0.7,3.7-0.7h22.5c4.2,0,8.2,2.5,9.1,5.9l4.9,19.6c0.3,1.4,0.4,2.7,0.2,4C575.3,568.2,577.6,563.9,576.4,559.2z"/>
<path id="XMLID_111_" class="st6" d="M567.9,570.1h-33.3c-6.2,0-10-5.1-8.5-10.9l4.9-19.6c0.8-3.4,4.9-5.9,9.1-5.9h22.5
	c4.2,0,8.2,2.5,9.1,5.9l4.9,19.6C577.9,564.9,574.1,570.1,567.9,570.1z"/>
<path id="XMLID_117_" class="st15" d="M542.2,533.7h-33.3c-6.2,0-10-5.1-8.5-10.9l4.9-19.6c0.8-3.4,4.9-5.9,9.1-5.9h22.5
	c4.2,0,8.2,2.5,9.1,5.9l4.9,19.6C552.1,528.5,548.4,533.7,542.2,533.7z"/>
<path id="XMLID_160_" class="st16" d="M550.7,522.8l-4.9-19.6c-0.8-3.4-4.9-5.9-9.1-5.9h-22.5c-4.2,0-8.2,2.5-9.1,5.9v0.2
	c1-0.3,2.1-0.5,3.2-0.5h22.5c4.2,0,8.2,2.5,9.1,5.9l4.9,19.6c0.4,1.7,0.4,3.4-0.1,4.9C549.4,532.1,551.9,527.7,550.7,522.8z"/>
<path id="XMLID_108_" class="st6" d="M542.2,533.7h-33.3c-6.2,0-10-5.1-8.5-10.9l4.9-19.6c0.8-3.4,4.9-5.9,9.1-5.9h22.5
	c4.2,0,8.2,2.5,9.1,5.9l4.9,19.6C552.1,528.5,548.4,533.7,542.2,533.7z"/>
<path id="XMLID_142_" class="st9" d="M618,365.5H455.8l0,0l4.7,145.6h87.9L616,474l18-66.8v-25.7C634,372.6,626.8,365.5,618,365.5z"
	/>
<path id="XMLID_110_" class="st15" d="M594.9,606.5h-33.3c-6.2,0-10-5.1-8.5-10.9L558,576c0.8-3.4,4.9-5.9,9.1-5.9h22.5
	c4.2,0,8.2,2.5,9.1,5.9l4.9,19.6C604.9,601.3,601.1,606.5,594.9,606.5z"/>
<path id="XMLID_155_" class="st16" d="M603.4,595.6l-4.9-19.6c-0.8-3.4-4.9-5.9-9.1-5.9H567c-4.2,0-8.2,2.5-9.1,5.9l-0.4,1.7
	c1.1-0.4,2.3-0.6,3.5-0.6h22.5c4.2,0,8.2,2.5,9.1,5.9l4.9,19.6c0.3,1.2,0.4,2.4,0.2,3.5C602.2,604.8,604.6,600.4,603.4,595.6z"/>
<path id="XMLID_109_" class="st6" d="M594.9,606.5h-33.3c-6.2,0-10-5.1-8.5-10.9L558,576c0.8-3.4,4.9-5.9,9.1-5.9h22.5
	c4.2,0,8.2,2.5,9.1,5.9l4.9,19.6C604.9,601.3,601.1,606.5,594.9,606.5z"/>
<path id="XMLID_82_" class="st4" d="M378.9,620.5V378.3c0-9.1,5.1-17.4,11.4-18.7l80.9-16.2c8.1-1.6,14.7,5.6,14.7,16v280
	c0,10.5-6.7,17.6-14.7,16l-80.9-16.2C384,638,378.9,629.6,378.9,620.5z"/>
<path id="XMLID_3_" class="st6" d="M378.9,620.5V378.3c0-9.1,5.1-17.4,11.4-18.7l80.9-16.2c8.1-1.6,14.7,5.6,14.7,16v280
	c0,10.5-6.7,17.6-14.7,16l-80.9-16.2C384,638,378.9,629.6,378.9,620.5z"/>
<path id="XMLID_48_" class="st7" d="M366,617.5v-236c0-8.8,4.9-17.2,11.1-18.6L458,344c8.2-1.9,15.1,5,15.1,15.5v280
	c0,10.5-6.8,17.4-15.1,15.5l-80.8-18.9C370.9,634.6,366,626.3,366,617.5z"/>
<path id="XMLID_154_" class="st4" d="M458,638.9L377.2,620c-6.2-1.5-11.1-9.8-11.1-18.6v16c0,8.8,4.9,17.2,11.1,18.6l80.8,18.9
	c8.2,1.9,15.1-5,15.1-15.5v-16C473.1,634,466.2,640.9,458,638.9z"/>
<path id="XMLID_152_" class="st8" d="M458,344l-80.8,18.9c-6.2,1.5-11.1,9.8-11.1,18.6v12c0-8.8,4.9-17.2,11.1-18.6L458,356
	c8.2-1.9,15.1,5,15.1,15.5v-12C473.1,349,466.2,342.1,458,344z"/>
<ellipse id="XMLID_14_" class="st3" cx="460.5" cy="417.8" rx="4.7" ry="10.6"/>
<path id="XMLID_1_" class="st6" d="M366,617.5v-236c0-8.8,4.9-17.2,11.1-18.6L458,344c8.2-1.9,15.1,5,15.1,15.5v280
	c0,10.5-6.8,17.4-15.1,15.5l-80.8-18.9C370.9,634.6,366,626.3,366,617.5z"/>
<ellipse id="XMLID_141_" class="st17" cx="415.6" cy="506.6" rx="27.9" ry="54.6"/>
<ellipse id="XMLID_145_" class="st17" cx="414.6" cy="558.3" rx="8.6" ry="7.8"/>
<ellipse id="XMLID_11_" class="st7" cx="416.8" cy="500" rx="29.8" ry="55.5"/>
<ellipse id="XMLID_12_" class="st4" cx="414.6" cy="500" rx="23.4" ry="46"/>
<polyline id="XMLID_146_" class="st9" points="388.7,500 432.5,501.7 419.5,555.3 405.1,551.1 387,500 "/>
<ellipse id="XMLID_5_" class="st6" cx="416.8" cy="500" rx="29.8" ry="55.5"/>
<path id="XMLID_46_" class="st9" d="M366,462L366,462c-4.4,0-8-3.6-8-8v-24c0-4.4,3.6-8,8-8l0,0c4.4,0,8,3.6,8,8v24
	C374,458.4,370.4,462,366,462z"/>
<path id="XMLID_52_" class="st9" d="M366,592.5L366,592.5c-4.4,0-8-3.6-8-8v-24c0-4.4,3.6-8,8-8l0,0c4.4,0,8,3.6,8,8v24
	C374,588.9,370.4,592.5,366,592.5z"/>
<path id="XMLID_36_" class="st4" d="M366,454L366,454c-4.4,0-8-3.6-8-8v-24c0-4.4,3.6-8,8-8l0,0c4.4,0,8,3.6,8,8v24
	C374,450.4,370.4,454,366,454z"/>
<path id="XMLID_33_" class="st4" d="M366,585L366,585c-4.4,0-8-3.6-8-8v-24c0-4.4,3.6-8,8-8l0,0c4.4,0,8,3.6,8,8v24
	C374,581.4,370.4,585,366,585z"/>
<path id="XMLID_15_" class="st6" d="M366,454L366,454c-4.4,0-8-3.6-8-8v-24c0-4.4,3.6-8,8-8l0,0c4.4,0,8,3.6,8,8v24
	C374,450.4,370.4,454,366,454z"/>
<path id="XMLID_17_" class="st6" d="M366,585L366,585c-4.4,0-8-3.6-8-8v-24c0-4.4,3.6-8,8-8l0,0c4.4,0,8,3.6,8,8v24
	C374,581.4,370.4,585,366,585z"/>
<g id="XMLID_6_">
	<line id="XMLID_22_" class="st6" x1="698" y1="347.3" x2="677.8" y2="344.5"/>
	<line id="XMLID_21_" class="st6" x1="649.9" y1="315.6" x2="646.9" y2="295.4"/>
	<line id="XMLID_16_" class="st6" x1="669.9" y1="322.9" x2="684.4" y2="308.4"/>
</g>
<path id="XMLID_29_" class="st18" d="M411.4,479.5h-15.7v41.1h15.7c6.9,0,12.4-9.2,12.4-20.5S418.2,479.5,411.4,479.5z"/>
<path id="XMLID_58_" class="st6" d="M411.4,479.5h-15.7v41.1h15.7c6.9,0,12.4-9.2,12.4-20.5S418.2,479.5,411.4,479.5z"/>
<ellipse id="XMLID_9_" class="st19" cx="411.4" cy="500" rx="12.4" ry="20.5"/>
<line id="XMLID_8_" class="st20" x1="431" y1="500" x2="410.5" y2="500"/>
<polyline id="XMLID_72_" class="st6" points="398.9,479.5 411.4,479.5 411.4,463.4 398.9,479.5 "/>
<polyline id="XMLID_39_" class="st3" points="398.9,479.5 411.4,479.5 411.4,463.4 398.9,479.5 "/>
<polyline id="XMLID_10_" class="st3" points="398.9,520.5 411.4,520.5 411.4,536.6 398.9,520.5 "/>
<polyline id="XMLID_101_" class="st6" points="398.9,520.5 411.4,520.5 411.4,536.6 398.9,520.5 "/>
<ellipse id="XMLID_34_" class="st21" cx="395.7" cy="500" rx="12.4" ry="20.5"/>
<ellipse id="XMLID_4_" class="st15" cx="394.7" cy="500" rx="6.1" ry="10"/>
<ellipse id="XMLID_37_" class="st6" cx="395.7" cy="500" rx="12.4" ry="20.5"/>
<path id="XMLID_83_" class="st7" d="M505.3,634.6l-20.3,2V362.3l20.3,2c6.5,0.6,11.7,6.5,11.7,13v244.2
	C517,628.1,511.8,634,505.3,634.6z"/>
<path id="XMLID_130_" class="st9" d="M517.6,466.6V438h-22.3v30.3h0.1c0,6.2,5,11.2,11.2,11.2c6.2,0,11.2-5,11.2-11.2
	C517.8,467.7,517.7,467.2,517.6,466.6z"/>
<path id="XMLID_132_" class="st6" d="M517,377.3v244.2c0,5.1-3.1,9.8-7.4,11.9c-1.2,0.6-2.6,1-4,1.1l-19.6,2V362.3l19.6,2
	c1.4,0.1,2.7,0.5,4,1.1C513.9,367.6,517,372.2,517,377.3z"/>
<line id="XMLID_107_" class="st6" x1="605.3" y1="604.1" x2="629.5" y2="628.6"/>
<path id="XMLID_102_" class="st4" d="M506.9,424.8c-6.2,0-11.2,5-11.2,11.2s5,11.2,11.2,11.2h10.9v-22.3h-10.9V424.8z"/>
<path id="XMLID_125_" class="st6" d="M506.9,424.8c-6.2,0-11.2,5-11.2,11.2s5,11.2,11.2,11.2h10.9v-22.3h-10.9V424.8z"/>
<circle id="XMLID_104_" class="st7" cx="517.8" cy="436" r="11.2"/>
<circle id="XMLID_32_" class="st6" cx="517.8" cy="436" r="11.2"/>
<circle id="XMLID_124_" class="st6" cx="517.8" cy="436" r="11.2"/>
<path id="XMLID_136_" class="st9" d="M517.6,594.3v-28.6h-22.3V596h0.1c0,6.2,5,11.2,11.2,11.2c6.2,0,11.2-5,11.2-11.2
	C517.8,595.4,517.7,594.8,517.6,594.3z"/>
<path id="XMLID_134_" class="st4" d="M506.9,552.5c-6.2,0-11.2,5-11.2,11.2s5,11.2,11.2,11.2h10.9v-22.3h-10.9V552.5z"/>
<path id="XMLID_133_" class="st6" d="M506.9,552.5c-6.2,0-11.2,5-11.2,11.2s5,11.2,11.2,11.2h10.9v-22.3h-10.9V552.5z"/>
<circle id="XMLID_129_" class="st7" cx="517.8" cy="563.6" r="11.2"/>
<circle id="XMLID_127_" class="st6" cx="517.8" cy="563.6" r="11.2"/>
<path id="XMLID_126_" class="st4" d="M451,572.3c-2.2,0-4-1.8-4-4v-142c0-2.2,1.8-4,4-4h8.2v-9H450c-6.6,0-12,5.4-12,12v144
	c0,6.6,5.4,12,12,12h9.2v-9H451z"/>
<ellipse id="XMLID_137_" class="st3" cx="460.5" cy="576.1" rx="4.7" ry="10.6"/>
<path id="XMLID_138_" class="st6" d="M451,572.3c-2.2,0-4-1.8-4-4v-142c0-2.2,1.8-4,4-4h8.2v-9H450c-6.6,0-12,5.4-12,12v144
	c0,6.6,5.4,12,12,12h9.2v-9H451z"/>
<path id="XMLID_19_" class="st6" d="M630,669.5H370c-22.1,0-40-17.9-40-40v-260c0-22.1,17.9-40,40-40h260c22.1,0,40,17.9,40,40v260
	C670,651.6,652.1,669.5,630,669.5z"/>
<line id="XMLID_144_" class="st22" x1="459.5" y1="426.5" x2="460.5" y2="604.1"/>
<line id="XMLID_148_" class="st6" x1="458.6" y1="343.7" x2="474.1" y2="343.2"/>
<line id="XMLID_149_" class="st6" x1="460" y1="655.2" x2="474.3" y2="655.6"/>
</svg>
