<?xml version="1.0" encoding="utf-8"?>
<!-- Generator: Adobe Illustrator 23.1.1, SVG Export Plug-In . SVG Version: 6.00 Build 0)  -->
<svg version="1.1" id="Layer_1" xmlns="http://www.w3.org/2000/svg" xmlns:xlink="http://www.w3.org/1999/xlink" x="0px" y="0px"
	 viewBox="0 0 1000 1000" style="enable-background:new 0 0 1000 1000;" xml:space="preserve">
<style type="text/css">
	.st0{fill:#FFFFFF;}
	.st1{fill:#474747;}
	.st2{opacity:0.15;}
	.st3{fill:none;stroke:#474747;stroke-width:6;stroke-linecap:round;stroke-linejoin:round;stroke-miterlimit:10;}
	.st4{fill:#D2DDE1;}
	.st5{fill:#BACED3;}
	.st6{fill:#E7EFF1;}
	.st7{fill:#BCC6C9;}
	.st8{fill:#9ACF8D;}
	.st9{fill:#85B578;}
	.st10{fill:#BFE8B3;}
	.st11{fill:none;stroke:#474747;stroke-width:3;stroke-linecap:round;stroke-linejoin:round;stroke-miterlimit:10;}
	
		.st12{opacity:0.2;fill:none;stroke:#474747;stroke-width:6;stroke-linecap:round;stroke-linejoin:round;stroke-miterlimit:10;enable-background:new    ;}
</style>
<rect id="XMLID_2_" class="st0" width="1000" height="1000"/>
<g>
	<g>
		<g>
			<path class="st1" d="M63.2,959.2c0,2.5-1.2,3.7-2.6,3.7c-1.1,0-1.9-0.5-2.1-1.4c-0.4,0.5-1,0.8-1.8,0.8c-1.5,0-2.6-1.2-2.6-2.8
				s1.1-2.8,2.6-2.8c0.7,0,1.2,0.3,1.6,0.7v-0.5h1.6v3.9c0,0.8,0.3,1.4,1,1.4c0.9,0,1.7-0.9,1.7-3c0-3-2.3-5.3-5.4-5.3
				c-3.1,0-5.6,2.4-5.6,5.7s2.5,5.7,5.9,5.7c1.1,0,2.1-0.2,2.9-0.4v0.6c-0.8,0.3-1.7,0.4-2.9,0.4c-3.7,0-6.5-2.6-6.5-6.2
				c0-3.4,2.7-6.2,6.2-6.2C61.1,953.3,63.2,956.4,63.2,959.2z M58.3,959.5c0-0.8-0.6-1.4-1.3-1.4c-0.8,0-1.3,0.5-1.3,1.4
				c0,0.8,0.6,1.3,1.3,1.3C57.8,960.9,58.3,960.3,58.3,959.5z"/>
		</g>
		<g>
			<path class="st1" d="M69.4,955.1v2c-1.2-0.1-2.6,0.5-2.6,2.4v4.3h-1.9v-8.6h1.9v1.4C67.3,955.5,68.3,955.1,69.4,955.1z"/>
		</g>
		<g>
			<path class="st1" d="M74.6,962.3c1,0,1.8-0.5,2.2-1.1l1.5,0.9c-0.8,1.2-2.1,1.9-3.8,1.9c-2.8,0-4.7-1.9-4.7-4.5
				c0-2.5,1.8-4.5,4.5-4.5c2.6,0,4.3,2.1,4.3,4.5c0,0.3,0,0.5-0.1,0.8h-6.8C72.1,961.6,73.2,962.3,74.6,962.3z M76.9,958.8
				c-0.3-1.5-1.3-2.1-2.5-2.1c-1.4,0-2.3,0.8-2.6,2.1H76.9z"/>
		</g>
		<g>
			<path class="st1" d="M88.9,955.2v8.6H87v-1.2c-0.7,0.9-1.7,1.5-3,1.5c-2.3,0-4.3-2-4.3-4.5c0-2.6,1.9-4.5,4.3-4.5
				c1.3,0,2.3,0.5,3,1.4v-1.2L88.9,955.2L88.9,955.2z M87.1,959.5c0-1.6-1.2-2.7-2.7-2.7s-2.7,1.1-2.7,2.7c0,1.6,1.2,2.7,2.7,2.7
				C85.9,962.3,87.1,961.1,87.1,959.5z"/>
		</g>
		<g>
			<path class="st1" d="M91.1,951.3H93v12.5h-1.9V951.3z"/>
		</g>
		<g>
			<path class="st1" d="M102.9,955.2l-3.3,8.6h-2.1l-3.3-8.6h2l2.4,6.5l2.4-6.5H102.9z"/>
		</g>
		<g>
			<path class="st1" d="M104.2,955.2h1.9v8.9c0,2.4-1.2,3.5-3.5,3.3v-1.8c1.1,0.1,1.7-0.3,1.7-1.5L104.2,955.2L104.2,955.2z
				 M104,952.8c0-0.7,0.5-1.2,1.2-1.2s1.2,0.5,1.2,1.2c0,0.6-0.5,1.2-1.2,1.2S104,953.4,104,952.8z"/>
		</g>
		<g>
			<path class="st1" d="M116,955.2l-3.3,8.8c-0.8,2.2-2.2,3.3-4.2,3.2v-1.7c1.2,0.1,1.9-0.5,2.3-1.7l0.1-0.2l-3.6-8.4h2l2.6,6.2
				l2.2-6.2L116,955.2L116,955.2z"/>
		</g>
	</g>
	<g>
		<path class="st1" d="M211.9,938.7c0,2.1-1.5,3.8-3.6,3.8h-3v-7.6h3C210.4,934.9,211.9,936.6,211.9,938.7z M210.9,938.7
			c0-1.6-1.1-2.9-2.6-2.9h-2v5.7h2C209.8,941.6,210.9,940.3,210.9,938.7z"/>
		<path class="st1" d="M219.5,940.8h-3.4l-0.6,1.7h-1.1l2.8-7.6h1.1l2.8,7.6H220L219.5,940.8z M219.2,939.9l-1.4-3.8l-1.4,3.8H219.2
			z"/>
		<path class="st1" d="M226.4,939.4v3.1h-1v-3.1l-2.7-4.5h1.1l2.1,3.6l2.1-3.6h1.1L226.4,939.4z"/>
		<path class="st1" d="M241.5,934.9v0.9l-2.8,6.7h-1.1l2.8-6.7h-3.7v-1L241.5,934.9L241.5,934.9z"/>
		<path class="st1" d="M249.1,934.9v0.9l-2.8,6.7h-1.1l2.8-6.7h-3.7v-1L249.1,934.9L249.1,934.9z"/>
	</g>
	<g>
		<path class="st1" d="M58.9,938.7c0,2.1-1.5,3.8-3.6,3.8h-3v-7.6h3C57.4,934.9,58.9,936.6,58.9,938.7z M57.9,938.7
			c0-1.6-1.1-2.9-2.6-2.9h-2v5.7h2C56.8,941.6,57.9,940.3,57.9,938.7z"/>
		<path class="st1" d="M67,941.6v1h-4.6V935h4.5v1h-3.5v2.3h3.2v0.9h-3.2v2.4L67,941.6L67,941.6z"/>
		<path class="st1" d="M70,940.8l0.9-0.5c0.3,0.8,0.9,1.4,2,1.4s1.6-0.5,1.6-1.2c0-0.8-0.7-1-1.8-1.4c-1.2-0.4-2.4-0.8-2.4-2.2
			s1.1-2.2,2.4-2.2s2.2,0.7,2.6,1.7l-0.8,0.5c-0.3-0.7-0.8-1.2-1.7-1.2c-0.8,0-1.4,0.4-1.4,1.1c0,0.7,0.5,1,1.6,1.3
			c1.3,0.4,2.6,0.8,2.6,2.3c0,1.3-1.1,2.2-2.6,2.2C71.5,942.7,70.4,941.9,70,940.8z"/>
		<path class="st1" d="M80,934.9v7.6h-1v-7.6H80z"/>
		<path class="st1" d="M91.3,939.2c0,1.9-1.4,3.5-3.7,3.5c-2.4,0-4-1.8-4-4s1.7-4,4-4c1.4,0,2.7,0.8,3.3,1.8L90,937
			c-0.4-0.8-1.4-1.4-2.4-1.4c-1.8,0-3,1.3-3,3s1.2,3,3,3c1.6,0,2.5-0.9,2.7-2h-2.8v-0.9h3.8V939.2z"/>
		<path class="st1" d="M100.6,934.9v7.6h-0.8l-3.9-5.7v5.7h-1v-7.6h0.8l3.9,5.7v-5.7H100.6z"/>
		<path class="st1" d="M109.1,941.6v1h-4.6V935h4.5v1h-3.5v2.3h3.2v0.9h-3.2v2.4L109.1,941.6L109.1,941.6z"/>
		<path class="st1" d="M119.2,938.7c0,2.1-1.5,3.8-3.6,3.8h-3v-7.6h3C117.6,934.9,119.2,936.6,119.2,938.7z M118.2,938.7
			c0-1.6-1.1-2.9-2.6-2.9h-2v5.7h2C117.1,941.6,118.2,940.3,118.2,938.7z"/>
		<path class="st1" d="M133.2,940.4c0,1.2-1,2.2-2.2,2.2h-3.3V935h3c1.2,0,2.1,0.9,2.1,2.1c0,0.7-0.3,1.2-0.8,1.6
			C132.7,938.9,133.2,939.5,133.2,940.4z M128.7,935.8v2.3h2c0.6,0,1.1-0.5,1.1-1.2c0-0.6-0.5-1.2-1.1-1.2h-2V935.8z M132.2,940.3
			c0-0.7-0.5-1.2-1.2-1.2h-2.3v2.5h2.3C131.7,941.6,132.2,941,132.2,940.3z"/>
		<path class="st1" d="M139.4,939.4v3.1h-1v-3.1l-2.7-4.5h1.1l2.1,3.6l2.1-3.6h1.1L139.4,939.4z"/>
	</g>
	<g>
		<path class="st1" d="M214.1,956c0,2.3-1.8,4.1-4.1,4.1h-2.5v4.2h-2v-12.4h4.6C212.4,951.9,214.1,953.7,214.1,956z M212.1,956
			c0-1.3-0.9-2.2-2.1-2.2h-2.5v4.3h2.5C211.2,958.1,212.1,957.2,212.1,956z"/>
		<path class="st1" d="M214.7,959.9c0-2.6,2.1-4.7,4.7-4.7c2.6,0,4.7,2,4.7,4.7c0,2.6-2.1,4.7-4.7,4.7
			C216.7,964.5,214.7,962.5,214.7,959.9z M222.1,959.9c0-1.6-1.2-2.8-2.8-2.8s-2.8,1.2-2.8,2.8s1.2,2.8,2.8,2.8
			S222.1,961.5,222.1,959.9z"/>
		<path class="st1" d="M225.2,959.9c0-2.6,2-4.7,4.7-4.7c1.7,0,3.2,0.9,3.9,2.3l-1.6,1c-0.4-0.8-1.3-1.4-2.3-1.4
			c-1.6,0-2.7,1.2-2.7,2.8s1.2,2.8,2.7,2.8c1.1,0,1.9-0.5,2.4-1.4l1.6,0.9c-0.7,1.4-2.2,2.3-4,2.3
			C227.2,964.5,225.2,962.5,225.2,959.9z"/>
		<path class="st1" d="M240.8,964.3l-3.6-4.1v4.1h-1.9v-12.4h1.9v7.5l3.4-3.9h2.3l-3.9,4.3l4,4.5L240.8,964.3L240.8,964.3z"/>
		<path class="st1" d="M248,962.8c1.1,0,1.9-0.5,2.3-1.1l1.6,0.9c-0.8,1.2-2.1,1.9-3.9,1.9c-2.9,0-4.8-2-4.8-4.7
			c0-2.6,1.9-4.7,4.7-4.7c2.6,0,4.4,2.1,4.4,4.7c0,0.3,0,0.5-0.1,0.8h-7C245.5,962.1,246.6,962.8,248,962.8z M250.4,959.1
			c-0.3-1.5-1.4-2.2-2.5-2.2c-1.4,0-2.4,0.8-2.7,2.2H250.4z"/>
		<path class="st1" d="M256.5,957.3v4.2c0,1.1,0.7,1.1,2.2,1v1.7c-2.9,0.4-4.1-0.5-4.1-2.8v-4.2H253v-1.8h1.6v-1.9l1.9-0.6v2.5h2.2
			v1.8L256.5,957.3L256.5,957.3z"/>
		<path class="st1" d="M272,964.3l-4.9-5.9v5.9h-2v-12.4h2v5.6l4.7-5.6h2.4l-5,6l5.2,6.4H272z"/>
		<path class="st1" d="M283.6,958.9v5.4h-1.9v-5.2c0-1.3-0.8-2.1-2-2.1c-1.3,0-2.2,0.7-2.2,2.5v4.7h-1.9v-8.9h1.9v1.1
			c0.6-0.9,1.5-1.4,2.7-1.4C282.2,955.2,283.6,956.6,283.6,958.9z"/>
		<path class="st1" d="M285.4,952.9c0-0.7,0.5-1.2,1.2-1.2s1.2,0.5,1.2,1.2s-0.5,1.2-1.2,1.2C286,954.1,285.4,953.6,285.4,952.9z
			 M285.7,955.4h1.9v8.9h-1.9V955.4z"/>
		<path class="st1" d="M294.2,962.8c1.1,0,1.9-0.5,2.3-1.1l1.6,0.9c-0.8,1.2-2.1,1.9-3.9,1.9c-2.9,0-4.8-2-4.8-4.7
			c0-2.6,1.9-4.7,4.7-4.7c2.6,0,4.4,2.1,4.4,4.7c0,0.3,0,0.5-0.1,0.8h-7C291.6,962.1,292.7,962.8,294.2,962.8z M296.5,959.1
			c-0.3-1.5-1.4-2.2-2.5-2.2c-1.4,0-2.4,0.8-2.7,2.2H296.5z"/>
		<path class="st1" d="M302.4,955.3v0.2h2.1v1.8h-2.1v7h-1.9v-7h-1.3v-1.8h1.3v-0.2c0-2.4,1.3-3.8,4-3.6v1.8
			C303.1,953.4,302.4,953.9,302.4,955.3z"/>
	</g>
	<g>
		<g>
			<g>
				<path class="st1" d="M846.1,938.7c0,2.1-1.5,3.8-3.6,3.8h-3v-7.6h3C844.6,934.9,846.1,936.6,846.1,938.7z M845.2,938.7
					c0-1.6-1.1-2.9-2.6-2.9h-2v5.7h2C844.1,941.6,845.2,940.3,845.2,938.7z"/>
			</g>
			<g>
				<path class="st1" d="M849.3,938.7c0-2.2,1.7-4,3.9-4s4,1.8,4,4s-1.7,4-4,4C851,942.7,849.3,940.9,849.3,938.7z M856.1,938.7
					c0-1.7-1.3-3-2.9-3c-1.7,0-2.9,1.3-2.9,3s1.3,3,2.9,3C854.9,941.7,856.1,940.4,856.1,938.7z"/>
			</g>
			<g>
				<path class="st1" d="M859.8,934.9h1.1l1.7,6.3l1.9-6.3h1l1.9,6.3l1.7-6.3h1.1l-2.2,7.6h-1.2l-1.8-6.1l-1.8,6.1H862L859.8,934.9z
					"/>
			</g>
			<g>
				<path class="st1" d="M879.3,934.9v7.6h-0.8l-3.9-5.7v5.7h-1v-7.6h0.8l3.9,5.7v-5.7H879.3z"/>
			</g>
			<g>
				<path class="st1" d="M887.5,941.6v1h-4.3V935h1v6.7h3.3V941.6z"/>
			</g>
			<g>
				<path class="st1" d="M889.9,938.7c0-2.2,1.7-4,3.9-4s4,1.8,4,4s-1.7,4-4,4C891.6,942.7,889.9,940.9,889.9,938.7z M896.8,938.7
					c0-1.7-1.3-3-2.9-3c-1.7,0-2.9,1.3-2.9,3s1.3,3,2.9,3S896.8,940.4,896.8,938.7z"/>
			</g>
			<g>
				<path class="st1" d="M905.4,940.8H902l-0.6,1.7h-1.1l2.8-7.6h1.1l2.8,7.6h-1L905.4,940.8z M905.1,939.9l-1.4-3.8l-1.4,3.8H905.1
					z"/>
			</g>
			<g>
				<path class="st1" d="M916.9,938.7c0,2.1-1.5,3.8-3.6,3.8h-3v-7.6h3C915.4,934.9,916.9,936.6,916.9,938.7z M915.9,938.7
					c0-1.6-1.1-2.9-2.6-2.9h-2v5.7h2C914.9,941.6,915.9,940.3,915.9,938.7z"/>
			</g>
			<g>
				<path class="st1" d="M926.5,935.8v2.5h3.2v1h-3.2v3.2h-1v-7.6h4.4v1h-3.4V935.8z"/>
			</g>
			<g>
				<path class="st1" d="M936.2,939.6h-1.8v2.9h-1v-7.6h3c1.3,0,2.4,1.1,2.4,2.4c0,1-0.7,1.9-1.6,2.2l1.8,3.1h-1.1L936.2,939.6z
					 M934.4,938.7h2c0.8,0,1.4-0.6,1.4-1.4c0-0.8-0.6-1.4-1.4-1.4h-2V938.7z"/>
			</g>
			<g>
				<path class="st1" d="M941.9,938.7c0-2.2,1.7-4,3.9-4s4,1.8,4,4s-1.7,4-4,4C943.6,942.7,941.9,940.9,941.9,938.7z M948.8,938.7
					c0-1.7-1.3-3-2.9-3c-1.7,0-2.9,1.3-2.9,3s1.3,3,2.9,3S948.8,940.4,948.8,938.7z"/>
			</g>
			<g>
				<path class="st1" d="M960.4,942.5h-1v-6l-2.5,4.2h-0.1l-2.5-4.1v5.9h-1v-7.6h1.1l2.4,4l2.4-4h1.1L960.4,942.5L960.4,942.5z"/>
			</g>
		</g>
		<g>
			<g>
				<path class="st1" d="M839.3,952.9c0-0.7,0.5-1.2,1.2-1.2s1.2,0.5,1.2,1.2s-0.5,1.2-1.2,1.2C839.9,954.1,839.3,953.6,839.3,952.9
					z M839.6,955.4h1.9v8.9h-1.9V955.4z"/>
			</g>
			<g>
				<path class="st1" d="M843.7,951.4h1.9v12.9h-1.9V951.4z"/>
			</g>
			<g>
				<path class="st1" d="M847.8,951.4h1.9v12.9h-1.9V951.4z"/>
			</g>
			<g>
				<path class="st1" d="M852,951.4h1.9v12.9H852V951.4z"/>
			</g>
			<g>
				<path class="st1" d="M864,955.4v8.9h-1.9v-1.1c-0.6,0.9-1.5,1.4-2.7,1.4c-2,0-3.4-1.3-3.4-3.6v-5.4h1.9v5.2c0,1.3,0.8,2.1,2,2.1
					c1.3,0,2.2-0.7,2.2-2.5v-4.7h1.9V955.4z"/>
			</g>
			<g>
				<path class="st1" d="M872.6,961.8c0,1.8-1.5,2.7-3.5,2.7c-1.8,0-3-0.8-3.6-2.1l1.6-1c0.3,0.8,1,1.3,2,1.3c0.8,0,1.5-0.3,1.5-1
					c0-1.6-4.8-0.7-4.8-3.9c0-1.7,1.4-2.7,3.2-2.7c1.5,0,2.7,0.7,3.3,1.8l-1.6,0.9c-0.3-0.7-0.9-1-1.7-1c-0.7,0-1.3,0.3-1.3,0.9
					C867.9,959.5,872.6,958.5,872.6,961.8z"/>
			</g>
			<g>
				<path class="st1" d="M876.7,957.3v4.2c0,1.1,0.7,1.1,2.2,1v1.7c-2.9,0.4-4.1-0.5-4.1-2.8v-4.2h-1.6v-1.8h1.6v-1.9l1.9-0.6v2.5
					h2.2v1.8L876.7,957.3L876.7,957.3z"/>
			</g>
			<g>
				<path class="st1" d="M885.4,955.3v2.1c-1.3-0.1-2.7,0.5-2.7,2.5v4.5h-1.9v-8.9h1.9v1.5C883.2,955.7,884.2,955.3,885.4,955.3z"/>
			</g>
			<g>
				<path class="st1" d="M895.3,955.4v8.9h-1.9V963c-0.7,0.9-1.7,1.5-3.1,1.5c-2.4,0-4.4-2-4.4-4.7c0-2.6,2-4.7,4.4-4.7
					c1.4,0,2.4,0.6,3.1,1.5v-1.3h1.9V955.4z M893.4,959.9c0-1.6-1.2-2.8-2.8-2.8s-2.8,1.2-2.8,2.8s1.2,2.8,2.8,2.8
					S893.4,961.5,893.4,959.9z"/>
			</g>
			<g>
				<path class="st1" d="M900.3,957.3v4.2c0,1.1,0.7,1.1,2.2,1v1.7c-2.9,0.4-4.1-0.5-4.1-2.8v-4.2h-1.6v-1.8h1.6v-1.9l1.9-0.6v2.5
					h2.2v1.8L900.3,957.3L900.3,957.3z"/>
			</g>
			<g>
				<path class="st1" d="M903.9,952.9c0-0.7,0.5-1.2,1.2-1.2s1.2,0.5,1.2,1.2s-0.5,1.2-1.2,1.2C904.5,954.1,903.9,953.6,903.9,952.9
					z M904.2,955.4h1.9v8.9h-1.9V955.4z"/>
			</g>
			<g>
				<path class="st1" d="M907.8,959.9c0-2.6,2.1-4.7,4.7-4.7c2.6,0,4.7,2,4.7,4.7c0,2.6-2.1,4.7-4.7,4.7
					C909.9,964.5,907.8,962.5,907.8,959.9z M915.3,959.9c0-1.6-1.2-2.8-2.8-2.8s-2.8,1.2-2.8,2.8s1.2,2.8,2.8,2.8
					S915.3,961.5,915.3,959.9z"/>
			</g>
			<g>
				<path class="st1" d="M927,958.9v5.4h-1.9v-5.2c0-1.3-0.8-2.1-2-2.1c-1.3,0-2.2,0.7-2.2,2.5v4.7H919v-8.9h1.9v1.1
					c0.6-0.9,1.5-1.4,2.7-1.4C925.5,955.2,927,956.6,927,958.9z"/>
			</g>
			<g>
				<path class="st1" d="M935.5,961.8c0,1.8-1.5,2.7-3.5,2.7c-1.8,0-3-0.8-3.6-2.1l1.6-1c0.3,0.8,1,1.3,2,1.3c0.8,0,1.5-0.3,1.5-1
					c0-1.6-4.8-0.7-4.8-3.9c0-1.7,1.4-2.7,3.2-2.7c1.5,0,2.7,0.7,3.3,1.8l-1.6,0.9c-0.3-0.7-0.9-1-1.7-1c-0.7,0-1.3,0.3-1.3,0.9
					C930.7,959.5,935.5,958.5,935.5,961.8z"/>
			</g>
			<g>
				<path class="st1" d="M936.8,963.2c0-0.7,0.6-1.3,1.3-1.3s1.3,0.6,1.3,1.3s-0.6,1.3-1.3,1.3C937.4,964.5,936.8,963.9,936.8,963.2
					z"/>
			</g>
			<g>
				<path class="st1" d="M940.3,959.9c0-2.6,2-4.7,4.7-4.7c1.7,0,3.2,0.9,3.9,2.3l-1.6,1c-0.4-0.8-1.3-1.4-2.3-1.4
					c-1.6,0-2.7,1.2-2.7,2.8s1.2,2.8,2.7,2.8c1.1,0,1.9-0.5,2.4-1.4l1.6,0.9c-0.7,1.4-2.2,2.3-4,2.3
					C942.3,964.5,940.3,962.5,940.3,959.9z"/>
			</g>
			<g>
				<path class="st1" d="M949.7,959.9c0-2.6,2.1-4.7,4.7-4.7c2.6,0,4.7,2,4.7,4.7c0,2.6-2.1,4.7-4.7,4.7
					C951.8,964.5,949.7,962.5,949.7,959.9z M957.2,959.9c0-1.6-1.2-2.8-2.8-2.8s-2.8,1.2-2.8,2.8s1.2,2.8,2.8,2.8
					S957.2,961.5,957.2,959.9z"/>
			</g>
		</g>
	</g>
</g>
<g id="XMLID_3_" class="st2">
	<path id="XMLID_10_" class="st3" d="M813,237v456.9c0,30.3-12.4,54.9-27.8,54.9H543c-15.3,0-27.8-24.6-27.8-54.9V335"/>
	<line id="XMLID_9_" class="st3" x1="203" y1="748.7" x2="865" y2="748.7"/>
	<line id="XMLID_18_" class="st3" x1="515.2" y1="454" x2="813" y2="454"/>
	<line id="XMLID_22_" class="st3" x1="515.2" y1="666.9" x2="813" y2="666.9"/>
	<path id="XMLID_17_" class="st3" d="M780.1,653.4h-20.3c-6,0-10.9-4.9-10.9-10.9V486.3c0-6,4.9-10.9,10.9-10.9h20.3
		c6,0,10.9,4.9,10.9,10.9v156.2C791,648.5,786.1,653.4,780.1,653.4z"/>
	<path id="XMLID_25_" class="st3" d="M721,653.4h-20.3c-6,0-10.9-4.9-10.9-10.9V486.3c0-6,4.9-10.9,10.9-10.9H721
		c6,0,10.9,4.9,10.9,10.9v156.2C731.9,648.5,727.1,653.4,721,653.4z"/>
	<path id="XMLID_60_" class="st3" d="M780.1,440.4h-20.3c-6,0-10.9-4.9-10.9-10.9V273.3c0-6,4.9-10.9,10.9-10.9h20.3
		c6,0,10.9,4.9,10.9,10.9v156.2C791,435.5,786.1,440.4,780.1,440.4z"/>
	<path id="XMLID_58_" class="st3" d="M734,409.1v20.3c0,6-4.9,10.9-10.9,10.9H566.9c-6,0-10.9-4.9-10.9-10.9v-20.3
		c0-6,4.9-10.9,10.9-10.9h156.2C729.1,398.2,734,403.1,734,409.1z"/>
	<path id="XMLID_61_" class="st3" d="M734,362.3v13.3c0,6-4.9,10.9-10.9,10.9H576.6c-6,0-10.9-4.9-10.9-10.9v-13.3
		c0-6,4.9-10.9,10.9-10.9h146.5C729.1,351.4,734,356.3,734,362.3z"/>
	<path id="XMLID_34_" class="st3" d="M613,650.6l-13.8-5.8c-3.8-1.6-5.7-6-4.1-9.8l50.5-121.2c1.6-3.8,6-5.7,9.8-4.1l13.8,5.8
		c3.8,1.6,5.7,6,4.1,9.8l-50.5,121.2C621.2,650.4,616.8,652.2,613,650.6z"/>
	<polyline id="XMLID_57_" class="st3" points="147.4,460.7 226.7,460.7 226.7,499.4 147.4,499.4 	"/>
	<line id="XMLID_59_" class="st3" x1="306.1" y1="499.4" x2="226.7" y2="499.4"/>
	<line id="XMLID_38_" class="st3" x1="226.7" y1="460.7" x2="257.1" y2="460.7"/>
	<rect id="XMLID_42_" x="187" y="499.4" class="st3" width="79.3" height="38.7"/>
	<polyline id="XMLID_52_" class="st3" points="159.7,538.3 226.7,538.3 226.7,576.9 201,576.9 	"/>
	<rect id="XMLID_54_" x="226.7" y="538.3" class="st3" width="79.3" height="38.7"/>
	<rect id="XMLID_23_" x="311.6" y="315.8" class="st3" width="123.1" height="99.8"/>
	<polyline id="XMLID_62_" class="st3" points="328.6,392.5 351.2,359.8 374.5,388.7 	"/>
	<polyline id="XMLID_64_" class="st3" points="365.9,378.1 397.4,347.5 419.8,392.5 	"/>
	<path id="XMLID_63_" class="st3" d="M357.7,367.9c1.6-4.7,6-8.1,11.2-8.1c4.3,0,8.1,2.3,10.2,5.8"/>
</g>
<g>
	<path id="XMLID_16_" class="st4" d="M472.4,622.1l4.4-9l9.6,2.7l4.4-9l9.7,2.7l4.4-9l9.7,2.7l4.4-9l9.7,2.7l4.4-9l9.7,2.7l4.4-9
		l9.7,2.7l4.4-9l9.7,2.7l4.4-9l9.7,2.7l4.4-9l9.7,2.7l4.4-9l9.7,2.7l4.4-9l-5.8-7.8c-7.1-9.6-19.9-13-30.8-8.1l-127.8,57.6
		L472.4,622.1z"/>
	<path id="XMLID_5_" class="st3" d="M472.4,622.1l4.4-9l9.6,2.7l4.4-9l9.7,2.7l4.4-9l9.7,2.7l4.4-9l9.7,2.7l4.4-9l9.7,2.7l4.4-9
		l9.7,2.7l4.4-9l9.7,2.7l4.4-9l9.7,2.7l4.4-9l9.7,2.7l4.4-9l9.7,2.7l4.4-9l-5.8-7.8c-7.1-9.6-19.9-13-30.8-8.1l-127.8,57.6
		L472.4,622.1z"/>
	<path id="XMLID_11_" class="st5" d="M409.9,656.9l-74.7,15L273.1,362l0,0c41.9,11.4,74.4,44.4,85.4,86.4L409.9,656.9z"/>
	<path id="XMLID_13_" class="st4" d="M448.9,581.7c-11.2,10.6-20.9,4.1-20.7-4.8c0.4-14.3,7.9-29.3,15.9-40.7
		c4.7-6.8,16.8-19,23.5-13.7l16.4-72.2l-26.2-34.2l-4.8,8.2c-11.5,19.8-21.7,40.2-30.6,61.3c-9,21.2-16.3,43-22.3,65.3l-27,100.8
		l47.2,15.2c0,0,15.6-16.7,20.2-27.1c12.6-28.6,18.7-54.3,18.7-54.3L448.9,581.7z"/>
	<path id="XMLID_7_" class="st3" d="M448.9,581.7c-11.2,10.6-20.9,4.1-20.7-4.8c0.4-14.3,7.9-29.3,15.9-40.7
		c4.7-6.8,16.1-16.3,23.5-13.7l16.4-72.2l-26.2-34.2l-4.8,8.2c-11.5,19.8-21.7,40.2-30.6,61.3c-9,21.2-16.3,43-22.3,65.3l-27,100.8
		l47.2,15.2c0,0,15.6-16.7,20.2-27.1c12.6-28.6,18.7-54.3,18.7-54.3L448.9,581.7z"/>
	<path id="XMLID_12_" class="st6" d="M294.4,370l65.7,296.9l49.7-10l-51.4-208.6C349.5,413.8,325.8,385.4,294.4,370z"/>
	<path id="XMLID_4_" class="st3" d="M409.9,656.9l-74.7,15L273.1,362l0,0c41.9,11.4,74.4,44.4,85.4,86.4L409.9,656.9z"/>
	<path id="XMLID_15_" class="st7" d="M445.8,601.8l14.3-0.5c3-0.1,4.9-2.3,4.5-5.3l-2-14.2l14.3-0.5c3-0.1,4.9-2.3,4.5-5.3l-2-14.2
		l14.3-0.5c3-0.1,4.9-2.3,4.5-5.3l-2-14.2l14.3-0.5c3-0.1,4.9-2.3,4.5-5.3l-2-14.2l14.3-0.5c3-0.1,4.9-2.3,4.5-5.3l-2-14.2l15.6-1.5
		c3.4-0.3,5.1-3.4,3.7-6.9l-13.4-33.5l-3.6,26.8l-13.8,0.5c-3.3,0.1-5.4,2.6-4.9,5.8l1.9,13.7l-13.8,0.5c-3.3,0.1-5.4,2.6-4.9,5.8
		l1.9,13.7l-13.8,0.5c-3.3,0.1-5.4,2.6-4.9,5.8l1.9,13.7l-13.8,0.5c-3.3,0.1-5.4,2.6-4.9,5.8l1.9,13.7l-13.8,0.5
		c-3.3,0.1-5.4,2.6-4.9,5.8l1.9,13.7l-19.5,0.7l-18.7,22.3l23.4,19.6L445.8,601.8z"/>
	<path id="XMLID_6_" class="st3" d="M445.8,601.8l14.3-0.5c3-0.1,4.9-2.3,4.5-5.3l-2-14.2l14.3-0.5c3-0.1,4.9-2.3,4.5-5.3l-2-14.2
		l14.3-0.5c3-0.1,4.9-2.3,4.5-5.3l-2-14.2l14.3-0.5c3-0.1,4.9-2.3,4.5-5.3l-2-14.2l14.3-0.5c3-0.1,4.9-2.3,4.5-5.3l-2-14.2l15.6-1.5
		c3.4-0.3,5.1-3.4,3.7-6.9l-13.4-33.5l-3.6,26.8l-13.8,0.5c-3.3,0.1-5.4,2.6-4.9,5.8l1.9,13.7l-13.8,0.5c-3.3,0.1-5.4,2.6-4.9,5.8
		l1.9,13.7l-13.8,0.5c-3.3,0.1-5.4,2.6-4.9,5.8l1.9,13.7l-13.8,0.5c-3.3,0.1-5.4,2.6-4.9,5.8l1.9,13.7l-13.8,0.5
		c-3.3,0.1-5.4,2.6-4.9,5.8l1.9,13.7l-19.5,0.7l-18.7,22.3l23.4,19.6L445.8,601.8z"/>
	<path id="XMLID_8_" class="st8" d="M656.9,748.7h-260c-38.7,0-70-31.3-70-70l0,0c0-38.7,31.3-70,70-70h260c38.7,0,70,31.3,70,70
		l0,0C726.9,717.4,695.6,748.7,656.9,748.7z"/>
	<path id="XMLID_47_" class="st9" d="M656.9,732.7h-260c-35.9,0-65.5-27.1-69.5-62c-0.3,2.6-0.5,5.3-0.5,8l0,0c0,38.7,31.3,70,70,70
		h260c38.7,0,70-31.3,70-70l0,0c0-2.7-0.2-5.4-0.5-8C722.5,705.6,692.9,732.7,656.9,732.7z"/>
	<path id="XMLID_46_" class="st10" d="M656.9,608.7h-260c-38.7,0-70,31.3-70,70l0,0c0,2.5,0.1,5.1,0.4,7.5
		c3.8-35.1,33.5-62.5,69.6-62.5h260c36.1,0,65.8,27.4,69.6,62.5c0.3-2.5,0.4-5,0.4-7.5l0,0C726.9,640.1,695.6,608.7,656.9,608.7z"/>
	<path id="XMLID_1_" class="st3" d="M656.9,748.7h-260c-38.7,0-70-31.3-70-70l0,0c0-38.7,31.3-70,70-70h260c38.7,0,70,31.3,70,70
		l0,0C726.9,717.4,695.6,748.7,656.9,748.7z"/>
	<line id="XMLID_14_" class="st11" x1="355.8" y1="601.7" x2="386.6" y2="593.2"/>
	<circle id="XMLID_21_" class="st4" cx="401.2" cy="678.7" r="25.2"/>
	<path id="XMLID_36_" class="st12" d="M380.8,715.6c-13-7.2-21.8-21-21.8-36.9c0-9.4,3.1-18.1,8.4-25.2"/>
	<circle id="XMLID_19_" class="st3" cx="401.2" cy="678.7" r="25.2"/>
	<path id="XMLID_32_" class="st11" d="M435.9,488.8c0,0-15.3,38.7-19.6,60"/>
	<line id="XMLID_27_" class="st3" x1="401.2" y1="662.7" x2="401.2" y2="694.8"/>
	<line id="XMLID_24_" class="st3" x1="417.2" y1="678.7" x2="385.1" y2="678.7"/>
	<line id="XMLID_30_" class="st11" x1="332.4" y1="541.5" x2="342.5" y2="587.2"/>
	<line id="XMLID_20_" class="st11" x1="300.2" y1="395.9" x2="328.6" y2="524.3"/>
</g>
</svg>
