<?xml version="1.0" encoding="utf-8"?>
<!-- Generator: Adobe Illustrator 23.1.1, SVG Export Plug-In . SVG Version: 6.00 Build 0)  -->
<svg version="1.1" id="Layer_1" xmlns="http://www.w3.org/2000/svg" xmlns:xlink="http://www.w3.org/1999/xlink" x="0px" y="0px"
	 viewBox="0 0 1000 1000" style="enable-background:new 0 0 1000 1000;" xml:space="preserve">
<style type="text/css">
	.st0{fill:#FFB600;}
	.st1{fill:#330E00;}
	.st2{opacity:0.3;}
	.st3{fill:#2D2D2D;stroke:#2D2D2D;stroke-width:8;stroke-linecap:round;stroke-linejoin:round;stroke-miterlimit:10;}
	.st4{fill:#00B3C6;}
	.st5{opacity:0.5;fill:#00B3C6;}
	.st6{opacity:0.35;fill:#00B3C6;}
	.st7{fill:none;stroke:#330E00;stroke-width:8;stroke-linecap:round;stroke-linejoin:round;stroke-miterlimit:10;}
	.st8{fill:#565656;}
	.st9{opacity:0.27;fill:#565656;}
	.st10{fill:#FF1F1F;}
	.st11{fill:#FDD2A7;}
	.st12{opacity:0.5;fill:#FDD2A7;}
	.st13{fill:#3BABFF;}
	.st14{opacity:0.3;fill:#2D2D2D;stroke:#2D2D2D;stroke-width:8;stroke-linecap:round;stroke-linejoin:round;stroke-miterlimit:10;}
	.st15{fill:#FFFFFF;}
	.st16{fill:#C0C0C0;stroke:#C0C0C0;stroke-width:8;stroke-linecap:round;stroke-linejoin:round;stroke-miterlimit:10;}
	.st17{fill:none;stroke:#330E00;stroke-width:4;stroke-linecap:round;stroke-linejoin:round;stroke-miterlimit:10;}
	.st18{fill:none;stroke:#FFFFFF;stroke-width:5;stroke-linecap:round;stroke-miterlimit:10;}
	.st19{fill:none;stroke:#330E00;stroke-width:6;stroke-linecap:round;stroke-linejoin:round;stroke-miterlimit:10;}
	.st20{fill:#8C6239;}
	.st21{fill:#42210B;}
	.st22{fill:#603813;}
	.st23{fill:#BD3F3A;}
	.st24{fill:#A33500;}
	.st25{fill:#6D2300;}
	.st26{fill:#FF9999;}
	.st27{fill:#FF0000;}
	.st28{fill:#FF3333;stroke:#330E00;stroke-width:8;stroke-linecap:round;stroke-linejoin:round;stroke-miterlimit:10;}
	.st29{fill:#BF0000;}
</style>
<rect id="XMLID_42_" class="st0" width="1000" height="1000"/>
<g>
	<g>
		<g>
			<path class="st1" d="M63.2,959.2c0,2.5-1.2,3.7-2.6,3.7c-1.1,0-1.9-0.5-2.1-1.4c-0.4,0.5-1,0.8-1.8,0.8c-1.5,0-2.6-1.2-2.6-2.8
				c0-1.6,1.1-2.8,2.6-2.8c0.7,0,1.2,0.3,1.6,0.7v-0.5h1.6v3.9c0,0.8,0.3,1.4,1,1.4c0.9,0,1.7-0.9,1.7-3c0-3-2.3-5.3-5.4-5.3
				c-3.1,0-5.6,2.4-5.6,5.7c0,3.3,2.5,5.7,5.9,5.7c1.1,0,2.1-0.2,2.9-0.4v0.6c-0.8,0.3-1.7,0.4-2.9,0.4c-3.7,0-6.5-2.6-6.5-6.2
				c0-3.4,2.7-6.2,6.2-6.2C61.1,953.3,63.2,956.4,63.2,959.2z M58.3,959.5c0-0.8-0.6-1.4-1.3-1.4c-0.8,0-1.3,0.5-1.3,1.4
				c0,0.8,0.6,1.3,1.3,1.3C57.8,960.9,58.3,960.3,58.3,959.5z"/>
		</g>
		<g>
			<path class="st1" d="M69.4,955.1v2c-1.2-0.1-2.6,0.5-2.6,2.4v4.3h-1.9v-8.6h1.9v1.4C67.3,955.5,68.3,955.1,69.4,955.1z"/>
		</g>
		<g>
			<path class="st1" d="M74.6,962.3c1,0,1.8-0.5,2.2-1.1l1.5,0.9c-0.8,1.2-2.1,1.9-3.8,1.9c-2.8,0-4.7-1.9-4.7-4.5
				c0-2.5,1.8-4.5,4.5-4.5c2.6,0,4.3,2.1,4.3,4.5c0,0.3,0,0.5-0.1,0.8h-6.8C72.1,961.6,73.2,962.3,74.6,962.3z M76.9,958.8
				c-0.3-1.5-1.3-2.1-2.5-2.1c-1.4,0-2.3,0.8-2.6,2.1H76.9z"/>
		</g>
		<g>
			<path class="st1" d="M88.9,955.2v8.6h-1.9v-1.2c-0.7,0.9-1.7,1.5-3,1.5c-2.3,0-4.3-2-4.3-4.5c0-2.6,1.9-4.5,4.3-4.5
				c1.3,0,2.3,0.5,3,1.4v-1.2H88.9z M87.1,959.5c0-1.6-1.2-2.7-2.7-2.7c-1.5,0-2.7,1.1-2.7,2.7c0,1.6,1.2,2.7,2.7,2.7
				C85.9,962.3,87.1,961.1,87.1,959.5z"/>
		</g>
		<g>
			<path class="st1" d="M91.1,951.3H93v12.5h-1.9V951.3z"/>
		</g>
		<g>
			<path class="st1" d="M102.9,955.2l-3.3,8.6h-2.1l-3.3-8.6h2l2.4,6.5l2.4-6.5H102.9z"/>
		</g>
		<g>
			<path class="st1" d="M104.2,955.2h1.9v8.9c0,2.4-1.2,3.5-3.5,3.3v-1.8c1.1,0.1,1.7-0.3,1.7-1.5V955.2z M104,952.8
				c0-0.7,0.5-1.2,1.2-1.2c0.7,0,1.2,0.5,1.2,1.2c0,0.6-0.5,1.2-1.2,1.2C104.5,954,104,953.4,104,952.8z"/>
		</g>
		<g>
			<path class="st1" d="M116,955.2l-3.3,8.8c-0.8,2.2-2.2,3.3-4.2,3.2v-1.7c1.2,0.1,1.9-0.5,2.3-1.7l0.1-0.2l-3.6-8.4h2l2.6,6.2
				l2.2-6.2H116z"/>
		</g>
	</g>
	<g>
		<path class="st1" d="M211.9,938.7c0,2.1-1.5,3.8-3.6,3.8h-3v-7.6h3C210.4,934.9,211.9,936.6,211.9,938.7z M210.9,938.7
			c0-1.6-1.1-2.9-2.6-2.9h-2v5.7h2C209.8,941.6,210.9,940.3,210.9,938.7z"/>
		<path class="st1" d="M219.5,940.8h-3.4l-0.6,1.7h-1.1l2.8-7.6h1.1l2.8,7.6h-1.1L219.5,940.8z M219.2,939.9l-1.4-3.8l-1.4,3.8
			H219.2z"/>
		<path class="st1" d="M226.4,939.4v3.1h-1v-3.1l-2.7-4.5h1.1l2.1,3.6l2.1-3.6h1.1L226.4,939.4z"/>
		<path class="st1" d="M241.5,934.9v0.9l-2.8,6.7h-1.1l2.8-6.7h-3.7v-1H241.5z"/>
		<path class="st1" d="M247.2,934.9v7.6h-1V936l-1.6,0.5l-0.3-0.9l2-0.7H247.2z"/>
	</g>
	<g>
		<path class="st1" d="M58.9,938.7c0,2.1-1.5,3.8-3.6,3.8h-3v-7.6h3C57.4,934.9,58.9,936.6,58.9,938.7z M57.9,938.7
			c0-1.6-1.1-2.9-2.6-2.9h-2v5.7h2C56.8,941.6,57.9,940.3,57.9,938.7z"/>
		<path class="st1" d="M67,941.6v1h-4.6v-7.6h4.5v1h-3.5v2.3h3.2v0.9h-3.2v2.4H67z"/>
		<path class="st1" d="M70,940.8l0.9-0.5c0.3,0.8,0.9,1.4,2,1.4c1.1,0,1.6-0.5,1.6-1.2c0-0.8-0.7-1-1.8-1.4
			c-1.2-0.4-2.4-0.8-2.4-2.2c0-1.4,1.1-2.2,2.4-2.2c1.3,0,2.2,0.7,2.6,1.7l-0.8,0.5c-0.3-0.7-0.8-1.2-1.7-1.2
			c-0.8,0-1.4,0.4-1.4,1.1c0,0.7,0.5,1,1.6,1.3c1.3,0.4,2.6,0.8,2.6,2.3c0,1.3-1.1,2.2-2.6,2.2C71.5,942.7,70.4,941.9,70,940.8z"/>
		<path class="st1" d="M80,934.9v7.6h-1v-7.6H80z"/>
		<path class="st1" d="M91.3,939.2c0,1.9-1.4,3.5-3.7,3.5c-2.4,0-4-1.8-4-4c0-2.2,1.7-4,4-4c1.4,0,2.7,0.8,3.3,1.8l-0.9,0.5
			c-0.4-0.8-1.4-1.4-2.4-1.4c-1.8,0-3,1.3-3,3c0,1.7,1.2,3,3,3c1.6,0,2.5-0.9,2.7-2h-2.8v-0.9h3.8V939.2z"/>
		<path class="st1" d="M100.6,934.9v7.6h-0.8l-3.9-5.7v5.7h-1v-7.6h0.8l3.9,5.7v-5.7H100.6z"/>
		<path class="st1" d="M109.1,941.6v1h-4.6v-7.6h4.5v1h-3.5v2.3h3.2v0.9h-3.2v2.4H109.1z"/>
		<path class="st1" d="M119.2,938.7c0,2.1-1.5,3.8-3.6,3.8h-3v-7.6h3C117.6,934.9,119.2,936.6,119.2,938.7z M118.2,938.7
			c0-1.6-1.1-2.9-2.6-2.9h-2v5.7h2C117.1,941.6,118.2,940.3,118.2,938.7z"/>
		<path class="st1" d="M133.2,940.4c0,1.2-1,2.2-2.2,2.2h-3.3v-7.6h3c1.2,0,2.1,0.9,2.1,2.1c0,0.7-0.3,1.2-0.8,1.6
			C132.7,938.9,133.2,939.5,133.2,940.4z M128.7,935.8v2.3h2c0.6,0,1.1-0.5,1.1-1.2c0-0.6-0.5-1.2-1.1-1.2H128.7z M132.2,940.3
			c0-0.7-0.5-1.2-1.2-1.2h-2.3v2.5h2.3C131.7,941.6,132.2,941,132.2,940.3z"/>
		<path class="st1" d="M139.4,939.4v3.1h-1v-3.1l-2.7-4.5h1.1l2.1,3.6l2.1-3.6h1.1L139.4,939.4z"/>
	</g>
	<g>
		<path class="st1" d="M216.2,958.1c0,3.5-2.5,6.2-5.9,6.2h-4.9v-12.4h4.9C213.7,951.9,216.2,954.6,216.2,958.1z M214.3,958.1
			c0-2.5-1.6-4.2-4-4.2h-2.8v8.5h2.8C212.7,962.3,214.3,960.5,214.3,958.1z"/>
		<path class="st1" d="M222.3,962.8c1.1,0,1.9-0.5,2.3-1.1l1.6,0.9c-0.8,1.2-2.1,1.9-3.9,1.9c-2.9,0-4.8-2-4.8-4.7
			c0-2.6,1.9-4.7,4.7-4.7c2.6,0,4.4,2.1,4.4,4.7c0,0.3,0,0.5-0.1,0.8h-7C219.8,962.1,220.9,962.8,222.3,962.8z M224.7,959.1
			c-0.3-1.5-1.4-2.2-2.5-2.2c-1.4,0-2.4,0.8-2.7,2.2H224.7z"/>
		<path class="st1" d="M234.4,961.8c0,1.8-1.5,2.7-3.5,2.7c-1.8,0-3-0.8-3.6-2.1l1.6-1c0.3,0.8,1,1.3,2,1.3c0.8,0,1.5-0.3,1.5-1
			c0-1.6-4.8-0.7-4.8-3.9c0-1.7,1.4-2.7,3.2-2.7c1.5,0,2.7,0.7,3.3,1.8l-1.6,0.9c-0.3-0.7-0.9-1-1.7-1c-0.7,0-1.3,0.3-1.3,0.9
			C229.7,959.5,234.4,958.5,234.4,961.8z"/>
		<path class="st1" d="M235.7,952.9c0-0.7,0.5-1.2,1.2-1.2c0.7,0,1.2,0.5,1.2,1.2c0,0.7-0.5,1.2-1.2,1.2
			C236.3,954.1,235.7,953.6,235.7,952.9z M236,955.4h1.9v8.9H236V955.4z"/>
		<path class="st1" d="M249,955.4v8.4c0,2.8-2.2,4.2-4.5,4.2c-1.9,0-3.5-0.7-4.2-2.1l1.6-1c0.4,0.8,1,1.4,2.6,1.4
			c1.6,0,2.6-0.9,2.6-2.4v-1.1c-0.7,1-1.7,1.5-3.1,1.5c-2.5,0-4.5-2-4.5-4.6s2-4.6,4.5-4.6c1.4,0,2.4,0.6,3.1,1.5v-1.3H249z
			 M247.2,959.8c0-1.6-1.2-2.8-2.8-2.8c-1.6,0-2.8,1.2-2.8,2.8s1.2,2.8,2.8,2.8C246,962.6,247.2,961.4,247.2,959.8z"/>
		<path class="st1" d="M259.3,958.9v5.4h-1.9v-5.2c0-1.3-0.8-2.1-2-2.1c-1.3,0-2.2,0.7-2.2,2.5v4.7h-1.9v-8.9h1.9v1.1
			c0.6-0.9,1.5-1.4,2.7-1.4C257.9,955.2,259.3,956.6,259.3,958.9z"/>
		<path class="st1" d="M265.7,962.8c1.1,0,1.9-0.5,2.3-1.1l1.6,0.9c-0.8,1.2-2.1,1.9-3.9,1.9c-2.9,0-4.8-2-4.8-4.7
			c0-2.6,1.9-4.7,4.7-4.7c2.6,0,4.4,2.1,4.4,4.7c0,0.3,0,0.5-0.1,0.8h-7C263.2,962.1,264.3,962.8,265.7,962.8z M268.1,959.1
			c-0.3-1.5-1.4-2.2-2.5-2.2c-1.4,0-2.4,0.8-2.7,2.2H268.1z"/>
		<path class="st1" d="M276.3,955.3v2.1c-1.3-0.1-2.7,0.5-2.7,2.5v4.5h-1.9v-8.9h1.9v1.5C274.1,955.7,275.2,955.3,276.3,955.3z"/>
		<path class="st1" d="M290.4,953.9h-3.5v10.4h-2v-10.4h-3.5v-1.9h9V953.9z"/>
		<path class="st1" d="M289.7,959.9c0-2.6,2.1-4.7,4.7-4.7c2.6,0,4.7,2,4.7,4.7c0,2.6-2.1,4.7-4.7,4.7
			C291.7,964.5,289.7,962.5,289.7,959.9z M297.1,959.9c0-1.6-1.2-2.8-2.8-2.8s-2.8,1.2-2.8,2.8c0,1.6,1.2,2.8,2.8,2.8
			S297.1,961.5,297.1,959.9z"/>
		<path class="st1" d="M300.2,959.9c0-2.6,2.1-4.7,4.7-4.7c2.6,0,4.7,2,4.7,4.7c0,2.6-2.1,4.7-4.7,4.7
			C302.3,964.5,300.2,962.5,300.2,959.9z M307.7,959.9c0-1.6-1.2-2.8-2.8-2.8s-2.8,1.2-2.8,2.8c0,1.6,1.2,2.8,2.8,2.8
			S307.7,961.5,307.7,959.9z"/>
		<path class="st1" d="M311.3,951.4h1.9v12.9h-1.9V951.4z"/>
	</g>
	<g>
		<g>
			<path class="st1" d="M846.1,938.7c0,2.1-1.5,3.8-3.6,3.8h-3v-7.6h3C844.6,934.9,846.1,936.6,846.1,938.7z M845.2,938.7
				c0-1.6-1.1-2.9-2.6-2.9h-2v5.7h2C844.1,941.6,845.2,940.3,845.2,938.7z"/>
			<path class="st1" d="M849.3,938.7c0-2.2,1.7-4,3.9-4c2.2,0,4,1.8,4,4c0,2.2-1.7,4-4,4C851,942.7,849.3,940.9,849.3,938.7z
				 M856.1,938.7c0-1.7-1.3-3-2.9-3c-1.7,0-2.9,1.3-2.9,3c0,1.7,1.3,3,2.9,3C854.9,941.7,856.1,940.4,856.1,938.7z"/>
			<path class="st1" d="M859.8,934.9h1.1l1.7,6.3l1.9-6.3h1l1.9,6.3l1.7-6.3h1.1l-2.2,7.6h-1.2l-1.8-6.1l-1.8,6.1H862L859.8,934.9z"
				/>
			<path class="st1" d="M879.3,934.9v7.6h-0.8l-3.9-5.7v5.7h-1v-7.6h0.8l3.9,5.7v-5.7H879.3z"/>
			<path class="st1" d="M887.5,941.6v1h-4.3v-7.6h1v6.7H887.5z"/>
			<path class="st1" d="M889.9,938.7c0-2.2,1.7-4,3.9-4c2.2,0,4,1.8,4,4c0,2.2-1.7,4-4,4C891.6,942.7,889.9,940.9,889.9,938.7z
				 M896.8,938.7c0-1.7-1.3-3-2.9-3c-1.7,0-2.9,1.3-2.9,3c0,1.7,1.3,3,2.9,3C895.5,941.7,896.8,940.4,896.8,938.7z"/>
			<path class="st1" d="M905.4,940.8H902l-0.6,1.7h-1.1l2.8-7.6h1.1l2.8,7.6H906L905.4,940.8z M905.1,939.9l-1.4-3.8l-1.4,3.8H905.1
				z"/>
			<path class="st1" d="M916.9,938.7c0,2.1-1.5,3.8-3.6,3.8h-3v-7.6h3C915.4,934.9,916.9,936.6,916.9,938.7z M915.9,938.7
				c0-1.6-1.1-2.9-2.6-2.9h-2v5.7h2C914.9,941.6,915.9,940.3,915.9,938.7z"/>
			<path class="st1" d="M926.5,935.8v2.5h3.2v1h-3.2v3.2h-1v-7.6h4.4v1H926.5z"/>
			<path class="st1" d="M936.2,939.6h-1.8v2.9h-1v-7.6h3c1.3,0,2.4,1.1,2.4,2.4c0,1-0.7,1.9-1.6,2.2l1.8,3.1h-1.1L936.2,939.6z
				 M934.4,938.7h2c0.8,0,1.4-0.6,1.4-1.4c0-0.8-0.6-1.4-1.4-1.4h-2V938.7z"/>
			<path class="st1" d="M941.9,938.7c0-2.2,1.7-4,3.9-4c2.2,0,4,1.8,4,4c0,2.2-1.7,4-4,4C943.6,942.7,941.9,940.9,941.9,938.7z
				 M948.8,938.7c0-1.7-1.3-3-2.9-3c-1.7,0-2.9,1.3-2.9,3c0,1.7,1.3,3,2.9,3C947.5,941.7,948.8,940.4,948.8,938.7z"/>
			<path class="st1" d="M960.4,942.5h-1v-6l-2.5,4.2h-0.1l-2.5-4.1v5.9h-1v-7.6h1.1l2.4,4l2.4-4h1.1V942.5z"/>
		</g>
		<g>
			<path class="st1" d="M839.3,952.9c0-0.7,0.5-1.2,1.2-1.2c0.7,0,1.2,0.5,1.2,1.2c0,0.7-0.5,1.2-1.2,1.2
				C839.9,954.1,839.3,953.6,839.3,952.9z M839.6,955.4h1.9v8.9h-1.9V955.4z"/>
			<path class="st1" d="M843.7,951.4h1.9v12.9h-1.9V951.4z"/>
			<path class="st1" d="M847.8,951.4h1.9v12.9h-1.9V951.4z"/>
			<path class="st1" d="M852,951.4h1.9v12.9H852V951.4z"/>
			<path class="st1" d="M864,955.4v8.9h-1.9v-1.1c-0.6,0.9-1.5,1.4-2.7,1.4c-2,0-3.4-1.3-3.4-3.6v-5.4h1.9v5.2c0,1.3,0.8,2.1,2,2.1
				c1.3,0,2.2-0.7,2.2-2.5v-4.7H864z"/>
			<path class="st1" d="M872.6,961.8c0,1.8-1.5,2.7-3.5,2.7c-1.8,0-3-0.8-3.6-2.1l1.6-1c0.3,0.8,1,1.3,2,1.3c0.8,0,1.5-0.3,1.5-1
				c0-1.6-4.8-0.7-4.8-3.9c0-1.7,1.4-2.7,3.2-2.7c1.5,0,2.7,0.7,3.3,1.8l-1.6,0.9c-0.3-0.7-0.9-1-1.7-1c-0.7,0-1.3,0.3-1.3,0.9
				C867.9,959.5,872.6,958.5,872.6,961.8z"/>
			<path class="st1" d="M876.7,957.3v4.2c0,1.1,0.7,1.1,2.2,1v1.7c-2.9,0.4-4.1-0.5-4.1-2.8v-4.2h-1.6v-1.8h1.6v-1.9l1.9-0.6v2.5
				h2.2v1.8H876.7z"/>
			<path class="st1" d="M885.4,955.3v2.1c-1.3-0.1-2.7,0.5-2.7,2.5v4.5h-1.9v-8.9h1.9v1.5C883.2,955.7,884.2,955.3,885.4,955.3z"/>
			<path class="st1" d="M895.3,955.4v8.9h-1.9V963c-0.7,0.9-1.7,1.5-3.1,1.5c-2.4,0-4.4-2-4.4-4.7c0-2.6,2-4.7,4.4-4.7
				c1.4,0,2.4,0.6,3.1,1.5v-1.3H895.3z M893.4,959.9c0-1.6-1.2-2.8-2.8-2.8c-1.6,0-2.8,1.2-2.8,2.8c0,1.6,1.2,2.8,2.8,2.8
				C892.2,962.7,893.4,961.5,893.4,959.9z"/>
			<path class="st1" d="M900.3,957.3v4.2c0,1.1,0.7,1.1,2.2,1v1.7c-2.9,0.4-4.1-0.5-4.1-2.8v-4.2h-1.6v-1.8h1.6v-1.9l1.9-0.6v2.5
				h2.2v1.8H900.3z"/>
			<path class="st1" d="M903.9,952.9c0-0.7,0.5-1.2,1.2-1.2c0.7,0,1.2,0.5,1.2,1.2c0,0.7-0.5,1.2-1.2,1.2
				C904.5,954.1,903.9,953.6,903.9,952.9z M904.2,955.4h1.9v8.9h-1.9V955.4z"/>
			<path class="st1" d="M907.8,959.9c0-2.6,2.1-4.7,4.7-4.7c2.6,0,4.7,2,4.7,4.7c0,2.6-2.1,4.7-4.7,4.7
				C909.9,964.5,907.8,962.5,907.8,959.9z M915.3,959.9c0-1.6-1.2-2.8-2.8-2.8c-1.6,0-2.8,1.2-2.8,2.8c0,1.6,1.2,2.8,2.8,2.8
				C914.1,962.7,915.3,961.5,915.3,959.9z"/>
			<path class="st1" d="M927,958.9v5.4h-1.9v-5.2c0-1.3-0.8-2.1-2-2.1c-1.3,0-2.2,0.7-2.2,2.5v4.7h-1.9v-8.9h1.9v1.1
				c0.6-0.9,1.5-1.4,2.7-1.4C925.5,955.2,927,956.6,927,958.9z"/>
			<path class="st1" d="M935.5,961.8c0,1.8-1.5,2.7-3.5,2.7c-1.8,0-3-0.8-3.6-2.1l1.6-1c0.3,0.8,1,1.3,2,1.3c0.8,0,1.5-0.3,1.5-1
				c0-1.6-4.8-0.7-4.8-3.9c0-1.7,1.4-2.7,3.2-2.7c1.5,0,2.7,0.7,3.3,1.8l-1.6,0.9c-0.3-0.7-0.9-1-1.7-1c-0.7,0-1.3,0.3-1.3,0.9
				C930.7,959.5,935.5,958.5,935.5,961.8z"/>
			<path class="st1" d="M936.8,963.2c0-0.7,0.6-1.3,1.3-1.3c0.7,0,1.3,0.6,1.3,1.3c0,0.7-0.6,1.3-1.3,1.3
				C937.4,964.5,936.8,963.9,936.8,963.2z"/>
			<path class="st1" d="M940.3,959.9c0-2.6,2-4.7,4.7-4.7c1.7,0,3.2,0.9,3.9,2.3l-1.6,1c-0.4-0.8-1.3-1.4-2.3-1.4
				c-1.6,0-2.7,1.2-2.7,2.8c0,1.6,1.2,2.8,2.7,2.8c1.1,0,1.9-0.5,2.4-1.4l1.6,0.9c-0.7,1.4-2.2,2.3-4,2.3
				C942.3,964.5,940.3,962.5,940.3,959.9z"/>
			<path class="st1" d="M949.7,959.9c0-2.6,2.1-4.7,4.7-4.7c2.6,0,4.7,2,4.7,4.7c0,2.6-2.1,4.7-4.7,4.7
				C951.8,964.5,949.7,962.5,949.7,959.9z M957.2,959.9c0-1.6-1.2-2.8-2.8-2.8s-2.8,1.2-2.8,2.8c0,1.6,1.2,2.8,2.8,2.8
				S957.2,961.5,957.2,959.9z"/>
		</g>
	</g>
</g>
<g>
	<g id="XMLID_96_" class="st2">
		<rect id="XMLID_77_" x="430.3" y="388.8" class="st3" width="42" height="246.5"/>
		<rect id="XMLID_76_" x="424.7" y="635.2" class="st3" width="53.3" height="30"/>
		<path id="XMLID_75_" class="st3" d="M463.7,691H439c-4.8,0-8.7-3.9-8.7-8.7v-17.2h42v17.2C472.3,687.1,468.5,691,463.7,691z"/>
		<polygon id="XMLID_73_" class="st3" points="472.3,388.8 430.3,388.8 451.3,322.3 		"/>
	</g>
	<g id="XMLID_89_" class="st2">
		<rect id="XMLID_95_" x="564.9" y="482.5" class="st3" width="37.3" height="212"/>
		<rect id="XMLID_94_" x="559.6" y="339.5" class="st3" width="48" height="143"/>
		<path id="XMLID_93_" class="st3" d="M602.2,339.5h-37.3v-2.3c0-10.3,8.4-18.7,18.7-18.7h0c10.3,0,18.7,8.4,18.7,18.7V339.5z"/>
		<line id="XMLID_92_" class="st3" x1="545.7" y1="361.9" x2="545.7" y2="451.2"/>
		<line id="XMLID_91_" class="st3" x1="559.6" y1="376.3" x2="545.7" y2="376.3"/>
		<path id="XMLID_90_" class="st3" d="M597.8,694.5c0,7.9-6.4,14.3-14.3,14.3s-14.3-6.4-14.3-14.3H597.8z"/>
	</g>
	<g id="XMLID_65_">
		<rect id="XMLID_66_" x="555.9" y="472.5" class="st4" width="37.3" height="212"/>
		<rect id="XMLID_105_" x="579.7" y="472.5" class="st5" width="13.6" height="212"/>
		<rect id="XMLID_101_" x="555.9" y="472.5" class="st6" width="13.4" height="212"/>
		<rect id="XMLID_26_" x="555.9" y="472.5" class="st7" width="37.3" height="212"/>
		<rect id="XMLID_67_" x="550.6" y="329.5" class="st8" width="48" height="143"/>
		<rect id="XMLID_100_" x="550.6" y="329.5" class="st9" width="14.3" height="143"/>
		<rect id="XMLID_102_" x="583.6" y="329.5" class="st9" width="14.3" height="143"/>
		<rect id="XMLID_27_" x="550.6" y="329.5" class="st7" width="48" height="143"/>
		<path id="XMLID_68_" class="st4" d="M593.2,329.5h-37.3v-2.3c0-10.3,8.4-18.7,18.7-18.7h0c10.3,0,18.7,8.4,18.7,18.7V329.5z"/>
		<path id="XMLID_29_" class="st7" d="M593.2,329.5h-37.3v-2.3c0-10.3,8.4-18.7,18.7-18.7h0c10.3,0,18.7,8.4,18.7,18.7V329.5z"/>
		<line id="XMLID_31_" class="st7" x1="536.7" y1="351.9" x2="536.7" y2="441.2"/>
		<line id="XMLID_32_" class="st7" x1="550.6" y1="366.3" x2="536.7" y2="366.3"/>
		<path id="XMLID_72_" class="st8" d="M588.8,684.5c0,7.9-6.4,14.3-14.3,14.3s-14.3-6.4-14.3-14.3H588.8z"/>
		<path id="XMLID_74_" class="st7" d="M588.8,684.5c0,7.9-6.4,14.3-14.3,14.3s-14.3-6.4-14.3-14.3H588.8z"/>
	</g>
	<g id="XMLID_47_">
		<rect id="XMLID_48_" x="419.3" y="376.8" class="st10" width="42" height="246.5"/>
		<rect id="XMLID_28_" x="419.3" y="376.8" class="st7" width="42" height="246.5"/>
		<rect id="XMLID_38_" x="433" y="376.8" class="st7" width="14.6" height="246.5"/>
		<rect id="XMLID_50_" x="413.7" y="623.2" class="st11" width="53.3" height="30"/>
		<rect id="XMLID_107_" x="451.3" y="623.2" class="st12" width="15.7" height="30"/>
		<rect id="XMLID_106_" x="413.7" y="623.2" class="st11" width="14.3" height="30"/>
		<rect id="XMLID_39_" x="413.7" y="623.2" class="st7" width="53.3" height="30"/>
		<path id="XMLID_49_" class="st13" d="M452.7,679H428c-4.8,0-8.7-3.9-8.7-8.7v-17.2h42v17.2C461.3,675.1,457.5,679,452.7,679z"/>
		<path id="XMLID_40_" class="st7" d="M452.7,679H428c-4.8,0-8.7-3.9-8.7-8.7v-17.2h42v17.2C461.3,675.1,457.5,679,452.7,679z"/>
		<polygon id="XMLID_51_" class="st11" points="461.3,376.8 419.3,376.8 440.3,310.3 		"/>
		<polygon id="XMLID_41_" class="st7" points="461.3,376.8 419.3,376.8 440.3,310.3 		"/>
		<polygon id="XMLID_45_" class="st1" points="440.3,310.3 431.4,338.5 449.2,338.5 		"/>
	</g>
	<g>
		<path id="XMLID_2_" class="st14" d="M189.7,521c-14.8-20.9-38.3-29.6-52.6-19.5s-13.9,35.2,0.9,56.1
			c12.9,18.2,32.5,27.2,46.7,22.4l61.5,98.1c5.2,8.2,13.4,9.5,19.5,5.2c6.1-4.3,7.6-12.4,1.6-20.1l-72.1-90.6
			C204.5,560.7,202.5,539.2,189.7,521z"/>
		<circle id="XMLID_3_" class="st14" cx="245.9" cy="498.3" r="126"/>
		<circle id="XMLID_43_" class="st15" cx="233.9" cy="486.3" r="126"/>
		<path id="XMLID_103_" class="st16" d="M182.3,550.5c9.2-11.9,7.3-33.3-5.6-51.5c-14.8-20.9-66.4,15.7-51.7,36.6
			c12.9,18.2,32.5,27.2,46.7,22.4l29.8,47.6c9,2.6,18.4,4.1,28.1,4.6L182.3,550.5z"/>
		<path id="XMLID_98_" class="st16" d="M348.2,515.3h-32v-32h32c4.4,0,8,3.6,8,8v16C356.2,511.7,352.6,515.3,348.2,515.3z"/>
		<circle id="XMLID_97_" class="st16" cx="236.9" cy="499.3" r="79"/>
		<circle id="XMLID_10_" class="st7" cx="233.9" cy="486.3" r="126"/>
		<g id="XMLID_33_">
			<path id="XMLID_44_" class="st15" d="M173.7,509c-14.8-20.9-38.3-29.6-52.6-19.5s-13.9,35.2,0.9,56.1
				c12.9,18.2,32.5,27.2,46.7,22.4l61.5,98.1c5.2,8.2,13.4,9.5,19.5,5.2s7.6-12.4,1.6-20.1l-72.1-90.6
				C188.5,548.7,186.5,527.2,173.7,509z"/>
			<path id="XMLID_104_" class="st16" d="M180.4,556.7c2.9-13-3.1-28.6-12.2-43.8c-5.4-8.9-10.1-16-17.3-21.1
				C150.9,517.7,162.8,540.3,180.4,556.7z"/>
			<path id="XMLID_36_" class="st17" d="M136.1,545.6c-1.6-1.7-3.1-3.6-4.5-5.5c-6.6-9.3-9.8-19.9-9.4-28.4"/>
			<path id="XMLID_37_" class="st7" d="M173.7,509c-14.8-20.9-38.3-29.6-52.6-19.5s-13.9,35.2,0.9,56.1
				c12.9,18.2,32.5,27.2,46.7,22.4l61.5,98.1c5.2,8.2,13.4,9.5,19.5,5.2s7.6-12.4,1.6-20.1l-72.1-90.6
				C188.5,548.7,186.5,527.2,173.7,509z"/>
		</g>
		<path id="XMLID_99_" class="st15" d="M345.2,502.3h-38.6v-32h38.6c4.4,0,8,3.6,8,8v16C353.2,498.7,349.6,502.3,345.2,502.3z"/>
		<path id="XMLID_34_" class="st7" d="M345.2,502.3h-38.6v-32h38.6c4.4,0,8,3.6,8,8v16C353.2,498.7,349.6,502.3,345.2,502.3z"/>
		<circle id="XMLID_46_" class="st15" cx="233.9" cy="486.3" r="79"/>
		<circle id="XMLID_25_" class="st7" cx="233.9" cy="486.3" r="79"/>
		<circle id="XMLID_30_" class="st1" cx="233.9" cy="486.3" r="63.3"/>
		<path id="XMLID_71_" class="st18" d="M240.3,436.4c25.4,3.1,45.1,24.8,45.1,51c0,28.3-23,51.3-51.3,51.3
			c-19.8,0-37-11.3-45.6-27.7"/>
		<path id="XMLID_70_" class="st18" d="M236.6,450c15.4,3.2,27.9,14.6,32.5,29.4"/>
	</g>
	<line id="XMLID_69_" class="st19" x1="569.7" y1="585.5" x2="569.7" y2="666.3"/>
	<g id="XMLID_84_">
		<rect id="XMLID_83_" x="555.9" y="472.5" class="st7" width="37.3" height="212"/>
		<rect id="XMLID_82_" x="550.6" y="329.5" class="st7" width="48" height="143"/>
		<path id="XMLID_81_" class="st7" d="M593.2,329.5h-37.3v-2.3c0-10.3,8.4-18.7,18.7-18.7h0c10.3,0,18.7,8.4,18.7,18.7V329.5z"/>
		<line id="XMLID_80_" class="st7" x1="536.7" y1="351.9" x2="536.7" y2="441.2"/>
		<line id="XMLID_79_" class="st7" x1="550.6" y1="366.3" x2="536.7" y2="366.3"/>
		<path id="XMLID_78_" class="st7" d="M588.8,684.5c0,7.9-6.4,14.3-14.3,14.3s-14.3-6.4-14.3-14.3H588.8z"/>
	</g>
</g>
<g>
	<g id="XMLID_88_" class="st2">
		<path id="XMLID_85_" class="st3" d="M723,681.4l-48.5-35.3c-8-5.8-9.8-17.1-4-25.1l159.9-220.1c5.8-8,17.1-9.8,25.1-4l48.5,35.3
			c8,5.8,9.8,17.1,4,25.1L748.1,677.4C742.3,685.4,731,687.2,723,681.4z"/>
		<path id="XMLID_86_" class="st3" d="M745.1,653.6h-60c-9.9,0-18-8.1-18-18v-272c0-9.9,8.1-18,18-18h60c9.9,0,18,8.1,18,18v272
			C763.1,645.6,755.1,653.6,745.1,653.6z"/>
		<path id="XMLID_87_" class="st3" d="M737.8,668.8l-57.7-16.5c-9.6-2.7-15.1-12.7-12.3-22.3l75-261.5c2.7-9.6,12.7-15.1,22.3-12.3
			l57.7,16.5c9.6,2.7,15.1,12.7,12.3,22.3l-75,261.5C757.3,666,747.4,671.5,737.8,668.8z"/>
	</g>
	<g id="XMLID_35_">
		<g id="XMLID_18_">
			<path id="XMLID_52_" class="st15" d="M718,665.4l-48.5-35.3c-8-5.8-9.8-17.1-4-25.1l159.9-220.1c5.8-8,17.1-9.8,25.1-4l48.5,35.3
				c8,5.8,9.8,17.1,4,25.1L743.1,661.4C737.3,669.4,726,671.2,718,665.4z"/>
			<path id="XMLID_24_" class="st7" d="M718,665.4l-48.5-35.3c-8-5.8-9.8-17.1-4-25.1l159.9-220.1c5.8-8,17.1-9.8,25.1-4l48.5,35.3
				c8,5.8,9.8,17.1,4,25.1L743.1,661.4C737.3,669.4,726,671.2,718,665.4z"/>
			<path id="XMLID_23_" class="st7" d="M797.2,586.9l-77.7-56.4l105.8-145.6c5.8-8,17.1-9.8,25.1-4l48.5,35.3c8,5.8,9.8,17.1,4,25.1
				L797.2,586.9z"/>
			<path id="XMLID_62_" class="st20" d="M874.8,480.2l-77.7-56.4l28.2-38.8c5.8-8,17.1-9.8,25.1-4l48.5,35.3c8,5.8,9.8,17.1,4,25.1
				L874.8,480.2z"/>
			<path id="XMLID_22_" class="st7" d="M874.8,480.2l-77.7-56.4l28.2-38.8c5.8-8,17.1-9.8,25.1-4l48.5,35.3c8,5.8,9.8,17.1,4,25.1
				L874.8,480.2z"/>
			
				<rect id="XMLID_60_" x="729.7" y="499" transform="matrix(0.809 0.5878 -0.5878 0.809 461.26 -355.5381)" class="st21" width="96" height="66"/>
			
				<rect id="XMLID_61_" x="768.5" y="445.6" transform="matrix(0.809 0.5878 -0.5878 0.809 437.2841 -388.5381)" class="st22" width="96" height="66"/>
			
				<rect id="XMLID_21_" x="768.5" y="445.6" transform="matrix(0.809 0.5878 -0.5878 0.809 437.2841 -388.5381)" class="st7" width="96" height="66"/>
			
				<rect id="XMLID_20_" x="729.7" y="499" transform="matrix(0.809 0.5878 -0.5878 0.809 461.26 -355.5381)" class="st7" width="96" height="66"/>
			<circle id="XMLID_19_" class="st7" cx="687.3" cy="614.6" r="8"/>
		</g>
		<path id="XMLID_112_" class="st14" d="M824.7,360.7L767,344.2c-9.6-2.7-19.5,2.8-22.3,12.3l-75,261.5c-2.7,9.6,2.8,19.5,12.3,22.3
			l52.6-3c0.5,0.1,4.9,0.3,5.4,0.4h4.8l7.7-0.8c8.2-0.9,15-6.6,17.2-14.6L837.1,383C839.8,373.4,834.3,363.5,824.7,360.7z"/>
		<g id="XMLID_11_">
			<path id="XMLID_53_" class="st15" d="M732.8,652.8l-57.7-16.5c-9.6-2.7-15.1-12.7-12.3-22.3l75-261.5
				c2.7-9.6,12.7-15.1,22.3-12.3l57.7,16.5c9.6,2.7,15.1,12.7,12.3,22.3l-75,261.5C752.3,650,742.4,655.5,732.8,652.8z"/>
			<path id="XMLID_17_" class="st7" d="M732.8,652.8l-57.7-16.5c-9.6-2.7-15.1-12.7-12.3-22.3l75-261.5c2.7-9.6,12.7-15.1,22.3-12.3
				l57.7,16.5c9.6,2.7,15.1,12.7,12.3,22.3l-75,261.5C752.3,650,742.4,655.5,732.8,652.8z"/>
			<path id="XMLID_15_" class="st23" d="M816.8,425.1l-92.3-26.5l13.2-46.1c2.7-9.6,12.7-15.1,22.3-12.3l57.7,16.5
				c9.6,2.7,15.1,12.7,12.3,22.3L816.8,425.1z"/>
			<path id="XMLID_16_" class="st7" d="M780.4,552l-92.3-26.5l49.6-173c2.7-9.6,12.7-15.1,22.3-12.3l57.7,16.5
				c9.6,2.7,15.1,12.7,12.3,22.3L780.4,552z"/>
			
				<rect id="XMLID_64_" x="713.6" y="410.6" transform="matrix(0.9613 0.2756 -0.2756 0.9613 151.7833 -192.7368)" class="st24" width="96" height="66"/>
			
				<rect id="XMLID_14_" x="713.6" y="410.6" transform="matrix(0.9613 0.2756 -0.2756 0.9613 151.7833 -192.7368)" class="st7" width="96" height="66"/>
			
				<rect id="XMLID_63_" x="695.4" y="474.1" transform="matrix(0.9613 0.2756 -0.2756 0.9613 168.5659 -185.2647)" class="st25" width="96" height="66"/>
			
				<rect id="XMLID_13_" x="695.4" y="474.1" transform="matrix(0.9613 0.2756 -0.2756 0.9613 168.5659 -185.2647)" class="st7" width="96" height="66"/>
			<circle id="XMLID_12_" class="st7" cx="686.6" cy="615.6" r="8"/>
		</g>
		<path id="XMLID_108_" class="st14" d="M748.1,641.6h-60c-9.9,0-18-8.1-18-18v-272c0-9.9,8.1-18,18-18h60c9.9,0,18,8.1,18,18v272
			C766.1,633.6,758.1,641.6,748.1,641.6z"/>
		<g id="XMLID_9_">
			<path id="XMLID_54_" class="st15" d="M740.1,637.6h-60c-9.9,0-18-8.1-18-18v-272c0-9.9,8.1-18,18-18h60c9.9,0,18,8.1,18,18v272
				C758.1,629.6,750.1,637.6,740.1,637.6z"/>
			<path id="XMLID_1_" class="st7" d="M740.1,637.6h-60c-9.9,0-18-8.1-18-18v-272c0-9.9,8.1-18,18-18h60c9.9,0,18,8.1,18,18v272
				C758.1,629.6,750.1,637.6,740.1,637.6z"/>
			<path id="XMLID_4_" class="st7" d="M758.1,527.6h-96v-180c0-9.9,8.1-18,18-18h60c9.9,0,18,8.1,18,18V527.6z"/>
			<path id="XMLID_59_" class="st26" d="M758.1,395.6h-96v-48c0-9.9,8.1-18,18-18h60c9.9,0,18,8.1,18,18V395.6z"/>
			<path id="XMLID_5_" class="st7" d="M758.1,395.6h-96v-48c0-9.9,8.1-18,18-18h60c9.9,0,18,8.1,18,18V395.6z"/>
			<rect id="XMLID_58_" x="662.1" y="395.6" class="st27" width="96" height="66"/>
			<rect id="XMLID_7_" x="662.1" y="395.6" class="st28" width="96" height="66"/>
			<rect id="XMLID_56_" x="662.1" y="461.6" class="st29" width="96" height="66"/>
			<rect id="XMLID_8_" x="662.1" y="461.6" class="st7" width="96" height="66"/>
			<circle id="XMLID_6_" class="st7" cx="685.5" cy="614.6" r="8"/>
			<g>
				<path class="st1" d="M676.3,544.2h-1.7v2.9h-0.8v-6.8h2.5c2,0,2.8,0.8,2.8,2C679.1,543.4,678.3,544.2,676.3,544.2z M676.3,543.6
					c1.4,0,2-0.5,2-1.4c0-0.9-0.6-1.4-2-1.4h-1.7v2.8H676.3z"/>
				<path class="st1" d="M685.6,545.5h-3.8l-0.7,1.6h-0.9l3.1-6.7h1l3.1,6.7h-0.9L685.6,545.5z M683.7,541.3l-1.7,3.7h3.3
					L683.7,541.3z"/>
				<path class="st1" d="M695.1,540.3v6.8h-0.8l-4.7-5.7v5.7h-0.8v-6.8h0.8l4.7,5.7v-5.7H695.1z"/>
				<path class="st1" d="M696.6,540.3h5.5v0.6h-2.3v6.2H699v-6.2h-2.4V540.3z"/>
				<path class="st1" d="M707.4,547.2c-2.4,0-4.2-1.4-4.2-3.5c0-2,1.8-3.5,4.2-3.5c2.4,0,4.2,1.4,4.2,3.5
					C711.6,545.8,709.8,547.2,707.4,547.2z M707.4,546.6c1.9,0,3.3-1.1,3.3-2.9c0-1.8-1.4-2.9-3.3-2.9c-1.9,0-3.3,1.1-3.3,2.9
					C704.1,545.5,705.6,546.6,707.4,546.6z"/>
				<path class="st1" d="M719.7,540.3v6.8h-0.8l-4.7-5.7v5.7h-0.8v-6.8h0.8l4.7,5.7v-5.7H719.7z"/>
				<path class="st1" d="M726.2,540.9h-3.6v2.5h3.2v0.6h-3.2v2.6h3.6v0.6h-4.4v-6.8h4.4V540.9z"/>
			</g>
			<g>
				<path class="st1" d="M728.4,540.2h1.6v0.2h-0.6v2H729v-2h-0.6V540.2z"/>
				<path class="st1" d="M730.4,540.2h0.3l0.8,1.8l0.8-1.8h0.3v2.2h-0.3v-1.7l-0.8,1.7h-0.2l-0.8-1.7v1.7h-0.3V540.2z"/>
			</g>
		</g>
	</g>
</g>
</svg>
