<?xml version="1.0" encoding="utf-8"?>
<!-- Generator: Adobe Illustrator 23.1.1, SVG Export Plug-In . SVG Version: 6.00 Build 0)  -->
<svg version="1.1" id="Layer_1" xmlns="http://www.w3.org/2000/svg" xmlns:xlink="http://www.w3.org/1999/xlink" x="0px" y="0px"
	 viewBox="0 0 1000 1000" style="enable-background:new 0 0 1000 1000;" xml:space="preserve">
<style type="text/css">
	.st0{fill:#FFFFFF;}
	.st1{fill:#8F6D5D;}
	.st2{opacity:0.15;}
	.st3{fill:none;stroke:#474747;stroke-width:6;stroke-linecap:round;stroke-linejoin:round;stroke-miterlimit:10;}
	.st4{fill:#77BA85;}
	.st5{fill:#F6F9EA;}
	.st6{fill:#97CD78;}
	.st7{opacity:0.32;fill:#474747;stroke:#474747;stroke-width:6;stroke-linecap:round;stroke-linejoin:round;stroke-miterlimit:10;}
	.st8{opacity:0.15;fill:none;stroke:#474747;stroke-width:6;stroke-linecap:round;stroke-linejoin:round;stroke-miterlimit:10;}
	.st9{fill:#F58870;}
	.st10{fill:#DD7868;}
	.st11{fill:#FFA399;}
	.st12{opacity:0.3;fill:#474747;stroke:#474747;stroke-width:6;stroke-linecap:round;stroke-linejoin:round;stroke-miterlimit:10;}
	.st13{opacity:0.46;}
	.st14{fill:none;stroke:#474747;stroke-width:4;stroke-linecap:round;stroke-linejoin:round;stroke-dasharray:13.9577,9.9698;}
	.st15{fill:#F79765;}
	.st16{fill:#E27444;}
	.st17{fill:#FFB797;}
	.st18{fill:none;stroke:#474747;stroke-width:4;stroke-linecap:round;stroke-linejoin:round;stroke-dasharray:9.8393,11.8071;}
	.st19{opacity:0.6;}
	.st20{fill:#FFFCEE;}
	.st21{fill:#FDB740;}
	.st22{opacity:0.88;fill:#FFF3C0;}
	.st23{fill:#F29E25;}
</style>
<rect id="XMLID_69_" class="st0" width="1000" height="1000"/>
<g>
	<g>
		<g>
			<path class="st1" d="M63.2,959.2c0,2.5-1.2,3.7-2.6,3.7c-1.1,0-1.9-0.5-2.1-1.4c-0.4,0.5-1,0.8-1.8,0.8c-1.5,0-2.6-1.2-2.6-2.8
				c0-1.6,1.1-2.8,2.6-2.8c0.7,0,1.2,0.3,1.6,0.7v-0.5h1.6v3.9c0,0.8,0.3,1.4,1,1.4c0.9,0,1.7-0.9,1.7-3c0-3-2.3-5.3-5.4-5.3
				c-3.1,0-5.6,2.4-5.6,5.7c0,3.3,2.5,5.7,5.9,5.7c1.1,0,2.1-0.2,2.9-0.4v0.6c-0.8,0.3-1.7,0.4-2.9,0.4c-3.7,0-6.5-2.6-6.5-6.2
				c0-3.4,2.7-6.2,6.2-6.2C61.1,953.3,63.2,956.4,63.2,959.2z M58.3,959.5c0-0.8-0.6-1.4-1.3-1.4c-0.8,0-1.3,0.5-1.3,1.4
				c0,0.8,0.6,1.3,1.3,1.3C57.8,960.9,58.3,960.3,58.3,959.5z"/>
		</g>
		<g>
			<path class="st1" d="M69.4,955.1v2c-1.2-0.1-2.6,0.5-2.6,2.4v4.3h-1.9v-8.6h1.9v1.4C67.3,955.5,68.3,955.1,69.4,955.1z"/>
		</g>
		<g>
			<path class="st1" d="M74.6,962.3c1,0,1.8-0.5,2.2-1.1l1.5,0.9c-0.8,1.2-2.1,1.9-3.8,1.9c-2.8,0-4.7-1.9-4.7-4.5
				c0-2.5,1.8-4.5,4.5-4.5c2.6,0,4.3,2.1,4.3,4.5c0,0.3,0,0.5-0.1,0.8h-6.8C72.1,961.6,73.2,962.3,74.6,962.3z M76.9,958.8
				c-0.3-1.5-1.3-2.1-2.5-2.1c-1.4,0-2.3,0.8-2.6,2.1H76.9z"/>
		</g>
		<g>
			<path class="st1" d="M88.9,955.2v8.6h-1.9v-1.2c-0.7,0.9-1.7,1.5-3,1.5c-2.3,0-4.3-2-4.3-4.5c0-2.6,1.9-4.5,4.3-4.5
				c1.3,0,2.3,0.5,3,1.4v-1.2H88.9z M87.1,959.5c0-1.6-1.2-2.7-2.7-2.7c-1.5,0-2.7,1.1-2.7,2.7c0,1.6,1.2,2.7,2.7,2.7
				C85.9,962.3,87.1,961.1,87.1,959.5z"/>
		</g>
		<g>
			<path class="st1" d="M91.1,951.3H93v12.5h-1.9V951.3z"/>
		</g>
		<g>
			<path class="st1" d="M102.9,955.2l-3.3,8.6h-2.1l-3.3-8.6h2l2.4,6.5l2.4-6.5H102.9z"/>
		</g>
		<g>
			<path class="st1" d="M104.2,955.2h1.9v8.9c0,2.4-1.2,3.5-3.5,3.3v-1.8c1.1,0.1,1.7-0.3,1.7-1.5V955.2z M104,952.8
				c0-0.7,0.5-1.2,1.2-1.2c0.7,0,1.2,0.5,1.2,1.2c0,0.6-0.5,1.2-1.2,1.2C104.5,954,104,953.4,104,952.8z"/>
		</g>
		<g>
			<path class="st1" d="M116,955.2l-3.3,8.8c-0.8,2.2-2.2,3.3-4.2,3.2v-1.7c1.2,0.1,1.9-0.5,2.3-1.7l0.1-0.2l-3.6-8.4h2l2.6,6.2
				l2.2-6.2H116z"/>
		</g>
	</g>
	<g>
		<path class="st1" d="M211.9,938.7c0,2.1-1.5,3.8-3.6,3.8h-3v-7.6h3C210.4,934.9,211.9,936.6,211.9,938.7z M210.9,938.7
			c0-1.6-1.1-2.9-2.6-2.9h-2v5.7h2C209.8,941.6,210.9,940.3,210.9,938.7z"/>
		<path class="st1" d="M219.5,940.8h-3.4l-0.6,1.7h-1.1l2.8-7.6h1.1l2.8,7.6h-1.1L219.5,940.8z M219.2,939.9l-1.4-3.8l-1.4,3.8
			H219.2z"/>
		<path class="st1" d="M226.4,939.4v3.1h-1v-3.1l-2.7-4.5h1.1l2.1,3.6l2.1-3.6h1.1L226.4,939.4z"/>
		<path class="st1" d="M241.5,934.9v0.9l-2.8,6.7h-1.1l2.8-6.7h-3.7v-1H241.5z"/>
		<path class="st1" d="M249.5,940.4c0,1.4-1.1,2.2-2.6,2.2c-1.5,0-2.6-0.8-2.6-2.2c0-0.8,0.5-1.5,1.2-1.9c-0.6-0.3-0.9-0.9-0.9-1.7
			c0-1.5,1.2-2.2,2.4-2.2c1.2,0,2.4,0.7,2.4,2.2c0,0.8-0.4,1.3-0.9,1.7C249.1,938.9,249.5,939.6,249.5,940.4z M248.5,940.4
			c0-0.9-0.7-1.3-1.6-1.3c-0.9,0-1.6,0.4-1.6,1.3c0,0.9,0.7,1.3,1.6,1.3C247.9,941.7,248.5,941.2,248.5,940.4z M245.6,936.9
			c0,0.8,0.6,1.2,1.4,1.2c0.7,0,1.4-0.4,1.4-1.2c0-0.8-0.6-1.2-1.4-1.2C246.2,935.7,245.6,936.1,245.6,936.9z"/>
	</g>
	<g>
		<path class="st1" d="M58.9,938.7c0,2.1-1.5,3.8-3.6,3.8h-3v-7.6h3C57.4,934.9,58.9,936.6,58.9,938.7z M57.9,938.7
			c0-1.6-1.1-2.9-2.6-2.9h-2v5.7h2C56.8,941.6,57.9,940.3,57.9,938.7z"/>
		<path class="st1" d="M67,941.6v1h-4.6v-7.6h4.5v1h-3.5v2.3h3.2v0.9h-3.2v2.4H67z"/>
		<path class="st1" d="M70,940.8l0.9-0.5c0.3,0.8,0.9,1.4,2,1.4c1.1,0,1.6-0.5,1.6-1.2c0-0.8-0.7-1-1.8-1.4
			c-1.2-0.4-2.4-0.8-2.4-2.2c0-1.4,1.1-2.2,2.4-2.2c1.3,0,2.2,0.7,2.6,1.7l-0.8,0.5c-0.3-0.7-0.8-1.2-1.7-1.2
			c-0.8,0-1.4,0.4-1.4,1.1c0,0.7,0.5,1,1.6,1.3c1.3,0.4,2.6,0.8,2.6,2.3c0,1.3-1.1,2.2-2.6,2.2C71.5,942.7,70.4,941.9,70,940.8z"/>
		<path class="st1" d="M80,934.9v7.6h-1v-7.6H80z"/>
		<path class="st1" d="M91.3,939.2c0,1.9-1.4,3.5-3.7,3.5c-2.4,0-4-1.8-4-4c0-2.2,1.7-4,4-4c1.4,0,2.7,0.8,3.3,1.8l-0.9,0.5
			c-0.4-0.8-1.4-1.4-2.4-1.4c-1.8,0-3,1.3-3,3c0,1.7,1.2,3,3,3c1.6,0,2.5-0.9,2.7-2h-2.8v-0.9h3.8V939.2z"/>
		<path class="st1" d="M100.6,934.9v7.6h-0.8l-3.9-5.7v5.7h-1v-7.6h0.8l3.9,5.7v-5.7H100.6z"/>
		<path class="st1" d="M109.1,941.6v1h-4.6v-7.6h4.5v1h-3.5v2.3h3.2v0.9h-3.2v2.4H109.1z"/>
		<path class="st1" d="M119.2,938.7c0,2.1-1.5,3.8-3.6,3.8h-3v-7.6h3C117.6,934.9,119.2,936.6,119.2,938.7z M118.2,938.7
			c0-1.6-1.1-2.9-2.6-2.9h-2v5.7h2C117.1,941.6,118.2,940.3,118.2,938.7z"/>
		<path class="st1" d="M133.2,940.4c0,1.2-1,2.2-2.2,2.2h-3.3v-7.6h3c1.2,0,2.1,0.9,2.1,2.1c0,0.7-0.3,1.2-0.8,1.6
			C132.7,938.9,133.2,939.5,133.2,940.4z M128.7,935.8v2.3h2c0.6,0,1.1-0.5,1.1-1.2c0-0.6-0.5-1.2-1.1-1.2H128.7z M132.2,940.3
			c0-0.7-0.5-1.2-1.2-1.2h-2.3v2.5h2.3C131.7,941.6,132.2,941,132.2,940.3z"/>
		<path class="st1" d="M139.4,939.4v3.1h-1v-3.1l-2.7-4.5h1.1l2.1,3.6l2.1-3.6h1.1L139.4,939.4z"/>
	</g>
	<g>
		<path class="st1" d="M204.6,951.9h2.1l2.6,9.7l2.8-9.7h1.9l2.8,9.7l2.6-9.7h2.1l-3.5,12.4h-2.4l-2.6-9l-2.6,9h-2.4L204.6,951.9z"
			/>
		<path class="st1" d="M230.9,955.4v8.9H229V963c-0.7,0.9-1.7,1.5-3.1,1.5c-2.4,0-4.4-2-4.4-4.7c0-2.6,2-4.7,4.4-4.7
			c1.4,0,2.4,0.6,3.1,1.5v-1.3H230.9z M229,959.9c0-1.6-1.2-2.8-2.8-2.8c-1.6,0-2.8,1.2-2.8,2.8c0,1.6,1.2,2.8,2.8,2.8
			C227.8,962.7,229,961.5,229,959.9z"/>
		<path class="st1" d="M233.1,951.4h1.9v12.9h-1.9V951.4z"/>
		<path class="st1" d="M237.2,951.4h1.9v12.9h-1.9V951.4z"/>
		<path class="st1" d="M245.7,962.8c1.1,0,1.9-0.5,2.3-1.1l1.6,0.9c-0.8,1.2-2.1,1.9-3.9,1.9c-2.9,0-4.8-2-4.8-4.7
			c0-2.6,1.9-4.7,4.7-4.7c2.6,0,4.4,2.1,4.4,4.7c0,0.3,0,0.5-0.1,0.8h-7C243.2,962.1,244.3,962.8,245.7,962.8z M248.1,959.1
			c-0.3-1.5-1.4-2.2-2.5-2.2c-1.4,0-2.4,0.8-2.7,2.2H248.1z"/>
		<path class="st1" d="M254.1,957.3v4.2c0,1.1,0.7,1.1,2.2,1v1.7c-2.9,0.4-4.1-0.5-4.1-2.8v-4.2h-1.6v-1.8h1.6v-1.9l1.9-0.6v2.5h2.2
			v1.8H254.1z"/>
	</g>
	<g>
		<g>
			<g>
				<path class="st1" d="M846.1,938.7c0,2.1-1.5,3.8-3.6,3.8h-3v-7.6h3C844.6,934.9,846.1,936.6,846.1,938.7z M845.2,938.7
					c0-1.6-1.1-2.9-2.6-2.9h-2v5.7h2C844.1,941.6,845.2,940.3,845.2,938.7z"/>
			</g>
			<g>
				<path class="st1" d="M849.3,938.7c0-2.2,1.7-4,3.9-4c2.2,0,4,1.8,4,4c0,2.2-1.7,4-4,4C851,942.7,849.3,940.9,849.3,938.7z
					 M856.1,938.7c0-1.7-1.3-3-2.9-3c-1.7,0-2.9,1.3-2.9,3c0,1.7,1.3,3,2.9,3C854.9,941.7,856.1,940.4,856.1,938.7z"/>
			</g>
			<g>
				<path class="st1" d="M859.8,934.9h1.1l1.7,6.3l1.9-6.3h1l1.9,6.3l1.7-6.3h1.1l-2.2,7.6h-1.2l-1.8-6.1l-1.8,6.1H862L859.8,934.9z
					"/>
			</g>
			<g>
				<path class="st1" d="M879.3,934.9v7.6h-0.8l-3.9-5.7v5.7h-1v-7.6h0.8l3.9,5.7v-5.7H879.3z"/>
			</g>
			<g>
				<path class="st1" d="M887.5,941.6v1h-4.3v-7.6h1v6.7H887.5z"/>
			</g>
			<g>
				<path class="st1" d="M889.9,938.7c0-2.2,1.7-4,3.9-4c2.2,0,4,1.8,4,4c0,2.2-1.7,4-4,4C891.6,942.7,889.9,940.9,889.9,938.7z
					 M896.8,938.7c0-1.7-1.3-3-2.9-3c-1.7,0-2.9,1.3-2.9,3c0,1.7,1.3,3,2.9,3C895.5,941.7,896.8,940.4,896.8,938.7z"/>
			</g>
			<g>
				<path class="st1" d="M905.4,940.8H902l-0.6,1.7h-1.1l2.8-7.6h1.1l2.8,7.6H906L905.4,940.8z M905.1,939.9l-1.4-3.8l-1.4,3.8
					H905.1z"/>
			</g>
			<g>
				<path class="st1" d="M916.9,938.7c0,2.1-1.5,3.8-3.6,3.8h-3v-7.6h3C915.4,934.9,916.9,936.6,916.9,938.7z M915.9,938.7
					c0-1.6-1.1-2.9-2.6-2.9h-2v5.7h2C914.9,941.6,915.9,940.3,915.9,938.7z"/>
			</g>
			<g>
				<path class="st1" d="M926.5,935.8v2.5h3.2v1h-3.2v3.2h-1v-7.6h4.4v1H926.5z"/>
			</g>
			<g>
				<path class="st1" d="M936.2,939.6h-1.8v2.9h-1v-7.6h3c1.3,0,2.4,1.1,2.4,2.4c0,1-0.7,1.9-1.6,2.2l1.8,3.1h-1.1L936.2,939.6z
					 M934.4,938.7h2c0.8,0,1.4-0.6,1.4-1.4c0-0.8-0.6-1.4-1.4-1.4h-2V938.7z"/>
			</g>
			<g>
				<path class="st1" d="M941.9,938.7c0-2.2,1.7-4,3.9-4c2.2,0,4,1.8,4,4c0,2.2-1.7,4-4,4C943.6,942.7,941.9,940.9,941.9,938.7z
					 M948.8,938.7c0-1.7-1.3-3-2.9-3c-1.7,0-2.9,1.3-2.9,3c0,1.7,1.3,3,2.9,3C947.5,941.7,948.8,940.4,948.8,938.7z"/>
			</g>
			<g>
				<path class="st1" d="M960.4,942.5h-1v-6l-2.5,4.2h-0.1l-2.5-4.1v5.9h-1v-7.6h1.1l2.4,4l2.4-4h1.1V942.5z"/>
			</g>
		</g>
		<g>
			<g>
				<path class="st1" d="M839.3,952.9c0-0.7,0.5-1.2,1.2-1.2c0.7,0,1.2,0.5,1.2,1.2c0,0.7-0.5,1.2-1.2,1.2
					C839.9,954.1,839.3,953.6,839.3,952.9z M839.6,955.4h1.9v8.9h-1.9V955.4z"/>
			</g>
			<g>
				<path class="st1" d="M843.7,951.4h1.9v12.9h-1.9V951.4z"/>
			</g>
			<g>
				<path class="st1" d="M847.8,951.4h1.9v12.9h-1.9V951.4z"/>
			</g>
			<g>
				<path class="st1" d="M852,951.4h1.9v12.9H852V951.4z"/>
			</g>
			<g>
				<path class="st1" d="M864,955.4v8.9h-1.9v-1.1c-0.6,0.9-1.5,1.4-2.7,1.4c-2,0-3.4-1.3-3.4-3.6v-5.4h1.9v5.2c0,1.3,0.8,2.1,2,2.1
					c1.3,0,2.2-0.7,2.2-2.5v-4.7H864z"/>
			</g>
			<g>
				<path class="st1" d="M872.6,961.8c0,1.8-1.5,2.7-3.5,2.7c-1.8,0-3-0.8-3.6-2.1l1.6-1c0.3,0.8,1,1.3,2,1.3c0.8,0,1.5-0.3,1.5-1
					c0-1.6-4.8-0.7-4.8-3.9c0-1.7,1.4-2.7,3.2-2.7c1.5,0,2.7,0.7,3.3,1.8l-1.6,0.9c-0.3-0.7-0.9-1-1.7-1c-0.7,0-1.3,0.3-1.3,0.9
					C867.9,959.5,872.6,958.5,872.6,961.8z"/>
			</g>
			<g>
				<path class="st1" d="M876.7,957.3v4.2c0,1.1,0.7,1.1,2.2,1v1.7c-2.9,0.4-4.1-0.5-4.1-2.8v-4.2h-1.6v-1.8h1.6v-1.9l1.9-0.6v2.5
					h2.2v1.8H876.7z"/>
			</g>
			<g>
				<path class="st1" d="M885.4,955.3v2.1c-1.3-0.1-2.7,0.5-2.7,2.5v4.5h-1.9v-8.9h1.9v1.5C883.2,955.7,884.2,955.3,885.4,955.3z"/>
			</g>
			<g>
				<path class="st1" d="M895.3,955.4v8.9h-1.9V963c-0.7,0.9-1.7,1.5-3.1,1.5c-2.4,0-4.4-2-4.4-4.7c0-2.6,2-4.7,4.4-4.7
					c1.4,0,2.4,0.6,3.1,1.5v-1.3H895.3z M893.4,959.9c0-1.6-1.2-2.8-2.8-2.8c-1.6,0-2.8,1.2-2.8,2.8c0,1.6,1.2,2.8,2.8,2.8
					C892.2,962.7,893.4,961.5,893.4,959.9z"/>
			</g>
			<g>
				<path class="st1" d="M900.3,957.3v4.2c0,1.1,0.7,1.1,2.2,1v1.7c-2.9,0.4-4.1-0.5-4.1-2.8v-4.2h-1.6v-1.8h1.6v-1.9l1.9-0.6v2.5
					h2.2v1.8H900.3z"/>
			</g>
			<g>
				<path class="st1" d="M903.9,952.9c0-0.7,0.5-1.2,1.2-1.2c0.7,0,1.2,0.5,1.2,1.2c0,0.7-0.5,1.2-1.2,1.2
					C904.5,954.1,903.9,953.6,903.9,952.9z M904.2,955.4h1.9v8.9h-1.9V955.4z"/>
			</g>
			<g>
				<path class="st1" d="M907.8,959.9c0-2.6,2.1-4.7,4.7-4.7c2.6,0,4.7,2,4.7,4.7c0,2.6-2.1,4.7-4.7,4.7
					C909.9,964.5,907.8,962.5,907.8,959.9z M915.3,959.9c0-1.6-1.2-2.8-2.8-2.8c-1.6,0-2.8,1.2-2.8,2.8c0,1.6,1.2,2.8,2.8,2.8
					C914.1,962.7,915.3,961.5,915.3,959.9z"/>
			</g>
			<g>
				<path class="st1" d="M927,958.9v5.4h-1.9v-5.2c0-1.3-0.8-2.1-2-2.1c-1.3,0-2.2,0.7-2.2,2.5v4.7h-1.9v-8.9h1.9v1.1
					c0.6-0.9,1.5-1.4,2.7-1.4C925.5,955.2,927,956.6,927,958.9z"/>
			</g>
			<g>
				<path class="st1" d="M935.5,961.8c0,1.8-1.5,2.7-3.5,2.7c-1.8,0-3-0.8-3.6-2.1l1.6-1c0.3,0.8,1,1.3,2,1.3c0.8,0,1.5-0.3,1.5-1
					c0-1.6-4.8-0.7-4.8-3.9c0-1.7,1.4-2.7,3.2-2.7c1.5,0,2.7,0.7,3.3,1.8l-1.6,0.9c-0.3-0.7-0.9-1-1.7-1c-0.7,0-1.3,0.3-1.3,0.9
					C930.7,959.5,935.5,958.5,935.5,961.8z"/>
			</g>
			<g>
				<path class="st1" d="M936.8,963.2c0-0.7,0.6-1.3,1.3-1.3c0.7,0,1.3,0.6,1.3,1.3c0,0.7-0.6,1.3-1.3,1.3
					C937.4,964.5,936.8,963.9,936.8,963.2z"/>
			</g>
			<g>
				<path class="st1" d="M940.3,959.9c0-2.6,2-4.7,4.7-4.7c1.7,0,3.2,0.9,3.9,2.3l-1.6,1c-0.4-0.8-1.3-1.4-2.3-1.4
					c-1.6,0-2.7,1.2-2.7,2.8c0,1.6,1.2,2.8,2.7,2.8c1.1,0,1.9-0.5,2.4-1.4l1.6,0.9c-0.7,1.4-2.2,2.3-4,2.3
					C942.3,964.5,940.3,962.5,940.3,959.9z"/>
			</g>
			<g>
				<path class="st1" d="M949.7,959.9c0-2.6,2.1-4.7,4.7-4.7c2.6,0,4.7,2,4.7,4.7c0,2.6-2.1,4.7-4.7,4.7
					C951.8,964.5,949.7,962.5,949.7,959.9z M957.2,959.9c0-1.6-1.2-2.8-2.8-2.8s-2.8,1.2-2.8,2.8c0,1.6,1.2,2.8,2.8,2.8
					S957.2,961.5,957.2,959.9z"/>
			</g>
		</g>
	</g>
</g>
<g id="XMLID_1_" class="st2">
	<polyline id="XMLID_57_" class="st3" points="157.5,387.9 236.9,387.9 236.9,426.6 157.5,426.6 	"/>
	<line id="XMLID_59_" class="st3" x1="316.2" y1="426.6" x2="236.9" y2="426.6"/>
	<line id="XMLID_38_" class="st3" x1="236.9" y1="387.9" x2="267.3" y2="387.9"/>
	<rect id="XMLID_42_" x="197.2" y="426.6" class="st3" width="79.3" height="38.7"/>
	<polyline id="XMLID_52_" class="st3" points="169.9,465.5 236.9,465.5 236.9,504.2 211.2,504.2 	"/>
	<rect id="XMLID_54_" x="236.9" y="465.5" class="st3" width="79.3" height="38.7"/>
	<polyline id="XMLID_81_" class="st3" points="580.5,528 659.9,528 659.9,566.6 580.5,566.6 	"/>
	<line id="XMLID_80_" class="st3" x1="739.2" y1="566.6" x2="659.9" y2="566.6"/>
	<line id="XMLID_79_" class="st3" x1="659.9" y1="528" x2="690.3" y2="528"/>
	<rect id="XMLID_78_" x="620.2" y="566.6" class="st3" width="79.3" height="38.7"/>
	<polyline id="XMLID_77_" class="st3" points="592.9,605.5 659.9,605.5 659.9,644.2 634.2,644.2 	"/>
	<polyline id="XMLID_76_" class="st3" points="711,644.2 659.9,644.2 659.9,605.5 726,605.5 	"/>
	<rect id="XMLID_25_" x="321.8" y="243" class="st3" width="123.1" height="99.8"/>
	<polyline id="XMLID_62_" class="st3" points="338.8,319.7 361.3,287 384.7,315.9 	"/>
	<polyline id="XMLID_64_" class="st3" points="376.1,305.3 407.6,274.8 429.9,319.7 	"/>
	<path id="XMLID_63_" class="st3" d="M367.9,295.1c1.6-4.7,6-8.1,11.2-8.1c4.3,0,8.1,2.3,10.2,5.8"/>
	<path id="XMLID_24_" class="st3" d="M765,410.2H589.9c-6.5,0-11.7-5.2-11.7-11.7l0,0c0-6.5,5.2-11.7,11.7-11.7H765
		c6.5,0,11.7,5.2,11.7,11.7l0,0C776.7,405,771.5,410.2,765,410.2z"/>
	<polygon id="XMLID_23_" class="st3" points="704.8,386.8 653.5,386.8 642.9,321.3 715.5,321.3 	"/>
	<rect id="XMLID_46_" x="633.2" y="302.3" class="st3" width="92.3" height="19"/>
	<g id="XMLID_68_">
		<path id="XMLID_83_" class="st3" d="M691.1,302.3c-6.3,0-12.6,0-18.9,0c-5.2-18.1-9.7-37.1-9.1-55.7c0.7-8.9,10.3-16.4,18.6-16.4
			l0,0c8.3,0,17.9,7.5,18.6,16.4C700.7,265.2,696.2,284.2,691.1,302.3z"/>
	</g>
	<path id="XMLID_71_" class="st3" d="M700.7,244.4l13.1-21.7c2.5-4.2,8.2-5.1,11.9-1.9l0,0c3.7,3.2,3.6,8.9-0.2,12L700.9,253"/>
	<path id="XMLID_75_" class="st3" d="M714,222.5l-6.2-19.4c-1-3,1-6.1,4.1-6.5h0c3.1-0.4,5.8,2,5.8,5.1l-0.5,15.7"/>
</g>
<g id="XMLID_20_">
	
		<rect id="XMLID_7_" x="390.2" y="407.4" transform="matrix(-0.4382 0.8989 -0.8989 -0.4382 1209.1852 204.4118)" class="st4" width="301.1" height="145.3"/>
	
		<rect id="XMLID_17_" x="390.2" y="407.4" transform="matrix(-0.4382 0.8989 -0.8989 -0.4382 1209.1852 204.4118)" class="st3" width="301.1" height="145.3"/>
	<path id="XMLID_16_" class="st5" d="M620.3,369.9l-41.8-20.4c-7.9,16.3-27.5,23-43.8,15.1l-103,211.2l100.7,49.1l103-211.2
		C619.1,405.8,612.3,386.2,620.3,369.9z"/>
	<path id="XMLID_12_" class="st3" d="M620.3,369.9l-41.8-20.4c-7.9,16.3-27.5,23-43.8,15.1l-103,211.2l100.7,49.1l103-211.2
		C619.1,405.8,612.3,386.2,620.3,369.9z"/>
	
		<rect id="XMLID_10_" x="484.7" y="346.2" transform="matrix(0.8989 0.4382 -0.4382 0.8989 265.0726 -188.4116)" class="st3" width="112" height="267.8"/>
	<circle id="XMLID_19_" class="st4" cx="550.7" cy="459" r="34.3"/>
	<circle id="XMLID_13_" class="st3" cx="550.7" cy="459" r="34.3"/>
</g>
<g id="XMLID_22_">
	
		<rect id="XMLID_33_" x="457.1" y="436" transform="matrix(-0.7733 0.634 -0.634 -0.7733 1400.1356 516.725)" class="st6" width="301.1" height="145.3"/>
	
		<rect id="XMLID_32_" x="457.1" y="436" transform="matrix(-0.7733 0.634 -0.634 -0.7733 1400.1356 516.725)" class="st3" width="301.1" height="145.3"/>
	<path id="XMLID_31_" class="st5" d="M726,441.7l-29.5-35.9c-14,11.5-34.6,9.4-46.1-4.6l-181.7,149l71,86.6l181.7-149
		C709.9,473.9,712,453.2,726,441.7z"/>
	<path id="XMLID_30_" class="st3" d="M726,441.7l-29.5-35.9c-14,11.5-34.6,9.4-46.1-4.6l-181.7,149l71,86.6l181.7-149
		C709.9,473.9,712,453.2,726,441.7z"/>
	
		<rect id="XMLID_29_" x="551.7" y="374.8" transform="matrix(0.634 0.7733 -0.7733 0.634 615.7564 -283.7794)" class="st3" width="112" height="267.8"/>
	<circle id="XMLID_28_" class="st6" cx="625.6" cy="493.7" r="34.3"/>
	<circle id="XMLID_27_" class="st3" cx="625.6" cy="493.7" r="34.3"/>
	<path id="XMLID_48_" class="st7" d="M629.4,457.7c0-17.8-6.7-34-17.6-46.4L445.2,547.9l92.2,112.4l92.1-75.5V457.7z"/>
</g>
<line id="XMLID_9_" class="st8" x1="169" y1="748.7" x2="831" y2="748.7"/>
<g>
	<path id="XMLID_15_" class="st9" d="M559.4,748.7h-210c-33.1,0-60-26.9-60-60v-236c0-33.1,26.9-60,60-60h210c33.1,0,60,26.9,60,60
		v236C619.4,721.9,592.6,748.7,559.4,748.7z"/>
	<path id="XMLID_36_" class="st9" d="M559.4,748.7h-210c-33.1,0-60-26.9-60-60v-236c0-33.1,26.9-60,60-60h210c33.1,0,60,26.9,60,60
		v236C619.4,721.9,592.6,748.7,559.4,748.7z"/>
	<path id="XMLID_43_" class="st10" d="M559.4,736.6h-210c-33.1,0-60-26.9-60-60v12.1c0,33.1,26.9,60,60,60h210c33.1,0,60-26.9,60-60
		v-12.1C619.4,709.7,592.6,736.6,559.4,736.6z"/>
	<path id="XMLID_40_" class="st11" d="M559.4,392.7h-210c-33.1,0-60,24.7-60,55.1v12.9c0-30.4,26.9-55.1,60-55.1h210
		c33.1,0,60,24.7,60,55.1v-12.9C619.4,417.4,592.6,392.7,559.4,392.7z"/>
	<path id="XMLID_34_" class="st12" d="M489.4,539.2h-54c-9.9,0-18-8.1-18-18V410.7c0-9.9,8.1-18,18-18h72v128.5
		C507.4,531.1,499.4,539.2,489.4,539.2z"/>
	<path id="XMLID_2_" class="st3" d="M559.4,748.7h-210c-33.1,0-60-26.9-60-60v-236c0-33.1,26.9-60,60-60h210c33.1,0,60,26.9,60,60
		v236C619.4,721.9,592.6,748.7,559.4,748.7z"/>
	<g id="XMLID_5_" class="st13">
		<path class="st14" d="M311.4,687.2V454.2c0-21,17-38,38-38h210c21,0,38,17,38,38v232.9c0,21-17,38-38,38h-210
			C328.4,725.2,311.4,708.2,311.4,687.2z"/>
	</g>
	<path id="XMLID_18_" class="st15" d="M481.4,528.2h-54c-9.9,0-18-8.1-18-18v-122c0-9.9,8.1-18,18-18h54c9.9,0,18,8.1,18,18v122
		C499.4,520.1,491.4,528.2,481.4,528.2z"/>
	<path id="XMLID_45_" class="st16" d="M481.4,519.9h-54c-9.9,0-18-8.1-18-18v8.3c0,9.9,8.1,18,18,18h54c9.9,0,18-8.1,18-18v-8.3
		C499.4,511.8,491.4,519.9,481.4,519.9z"/>
	<path id="XMLID_44_" class="st17" d="M481.4,370.2h-54c-9.9,0-18,8.1-18,18v6.8c0-9.9,8.1-18,18-18h54c9.9,0,18,8.1,18,18v-6.8
		C499.4,378.3,491.4,370.2,481.4,370.2z"/>
	<path id="XMLID_4_" class="st3" d="M481.4,528.2h-54c-9.9,0-18-8.1-18-18v-122c0-9.9,8.1-18,18-18h54c9.9,0,18,8.1,18,18v122
		C499.4,520.1,491.4,528.2,481.4,528.2z"/>
	<circle id="XMLID_35_" class="st12" cx="457.4" cy="479.2" r="23.2"/>
	<g id="XMLID_11_" class="st13">
		<path class="st18" d="M427.4,516.2c-3.3,0-6-2.7-6-6v-122c0-3.3,2.7-6,6-6h54c3.3,0,6,2.7,6,6v122c0,3.3-2.7,6-6,6H427.4z"/>
	</g>
	<circle id="XMLID_21_" class="st1" cx="454.4" cy="473.2" r="23.2"/>
	<circle id="XMLID_6_" class="st3" cx="454.4" cy="473.2" r="23.2"/>
	<g id="XMLID_37_" class="st19">
		<path class="st20" d="M464.2,461.3c0.8,3.8-3.7,6.2-10.3,7.6c-6.7,1.3-12.7,1.5-13.5-1.7c-0.8-3.1,3.7-9,10.3-10.9
			C457.4,454.4,463.4,457.6,464.2,461.3z"/>
	</g>
</g>
<g id="XMLID_65_">
	<path id="XMLID_41_" class="st21" d="M788.3,748.7h-70c-4,0-7.3-3.3-7.3-7.3v-4.9c0-4,3.3-7.3,7.3-7.3h70c4,0,7.3,3.3,7.3,7.3v4.9
		C795.6,745.5,792.3,748.7,788.3,748.7z"/>
	<path id="XMLID_72_" class="st22" d="M788.3,731.3h-70c-4,0-7.3,3.3-7.3,7.3v2.8c0-4,3.3-7.3,7.3-7.3h70c4,0,7.3,3.3,7.3,7.3v-2.8
		C795.6,734.6,792.3,731.3,788.3,731.3z"/>
	<path id="XMLID_70_" class="st23" d="M788.3,746.5h-70c-4,0-7.3-3.3-7.3-7.3v-2.8c0,4,3.3,7.3,7.3,7.3h70c4,0,7.3-3.3,7.3-7.3v2.8
		C795.6,743.3,792.3,746.5,788.3,746.5z"/>
	<path id="XMLID_39_" class="st3" d="M788.3,748.7h-70c-4,0-7.3-3.3-7.3-7.3v-4.9c0-4,3.3-7.3,7.3-7.3h70c4,0,7.3,3.3,7.3,7.3v4.9
		C795.6,745.5,792.3,748.7,788.3,748.7z"/>
</g>
<g id="XMLID_73_">
	<path id="XMLID_90_" class="st21" d="M800,729.3h-70c-4,0-7.3-3.3-7.3-7.3v-4.9c0-4,3.3-7.3,7.3-7.3h70c4,0,7.3,3.3,7.3,7.3v4.9
		C807.2,726.1,804,729.3,800,729.3z"/>
	<path id="XMLID_89_" class="st22" d="M800,711.9h-70c-4,0-7.3,3.3-7.3,7.3v2.8c0-4,3.3-7.3,7.3-7.3h70c4,0,7.3,3.3,7.3,7.3v-2.8
		C807.2,715.2,804,711.9,800,711.9z"/>
	<path id="XMLID_88_" class="st23" d="M800,727.1h-70c-4,0-7.3-3.3-7.3-7.3V717c0,4,3.3,7.3,7.3,7.3h70c4,0,7.3-3.3,7.3-7.3v2.8
		C807.2,723.9,804,727.1,800,727.1z"/>
	<path id="XMLID_74_" class="st3" d="M800,729.3h-70c-4,0-7.3-3.3-7.3-7.3v-4.9c0-4,3.3-7.3,7.3-7.3h70c4,0,7.3,3.3,7.3,7.3v4.9
		C807.2,726.1,804,729.3,800,729.3z"/>
</g>
<g id="XMLID_47_">
	<path id="XMLID_56_" class="st21" d="M788.3,709.9h-70c-4,0-7.3-3.3-7.3-7.3v-4.9c0-4,3.3-7.3,7.3-7.3h70c4,0,7.3,3.3,7.3,7.3v4.9
		C795.6,706.7,792.3,709.9,788.3,709.9z"/>
	<path id="XMLID_53_" class="st22" d="M788.3,692.6h-70c-4,0-7.3,3.3-7.3,7.3v2.8c0-4,3.3-7.3,7.3-7.3h70c4,0,7.3,3.3,7.3,7.3v-2.8
		C795.6,695.8,792.3,692.6,788.3,692.6z"/>
	<path id="XMLID_50_" class="st23" d="M788.3,707.8h-70c-4,0-7.3-3.3-7.3-7.3v-2.8c0,4,3.3,7.3,7.3,7.3h70c4,0,7.3-3.3,7.3-7.3v2.8
		C795.6,704.5,792.3,707.8,788.3,707.8z"/>
	<path id="XMLID_49_" class="st3" d="M788.3,709.9h-70c-4,0-7.3-3.3-7.3-7.3v-4.9c0-4,3.3-7.3,7.3-7.3h70c4,0,7.3,3.3,7.3,7.3v4.9
		C795.6,706.7,792.3,709.9,788.3,709.9z"/>
</g>
<g id="XMLID_58_">
	<path id="XMLID_67_" class="st21" d="M709.1,695.3l-47.8,51.1c-2.7,2.9-7.3,3.1-10.3,0.3l-3.5-3.3c-2.9-2.7-3.1-7.3-0.3-10.3
		l47.8-51.1c2.7-2.9,7.3-3.1,10.3-0.3l3.5,3.3C711.6,687.8,711.8,692.3,709.1,695.3z"/>
	<path id="XMLID_66_" class="st22" d="M696.4,683.4l-47.8,51.1c-2.7,2.9-2.6,7.5,0.3,10.3l2.1,1.9c-2.9-2.7-3.1-7.3-0.3-10.3
		l47.8-51.1c2.7-2.9,7.3-3.1,10.3-0.3l-2.1-1.9C703.7,680.3,699.1,680.5,696.4,683.4z"/>
	<path id="XMLID_61_" class="st23" d="M707.5,693.8l-47.8,51.1c-2.7,2.9-7.3,3.1-10.3,0.3l-2.1-1.9c2.9,2.7,7.5,2.6,10.3-0.3
		l47.8-51.1c2.7-2.9,2.6-7.5-0.3-10.3l2.1,1.9C710,686.3,710.2,690.9,707.5,693.8z"/>
	<path id="XMLID_60_" class="st3" d="M709.1,695.3l-47.8,51.1c-2.7,2.9-7.3,3.1-10.3,0.3l-3.5-3.3c-2.9-2.7-3.1-7.3-0.3-10.3
		l47.8-51.1c2.7-2.9,7.3-3.1,10.3-0.3l3.5,3.3C711.6,687.8,711.8,692.3,709.1,695.3z"/>
</g>
</svg>
