<?xml version="1.0" encoding="utf-8"?>
<!-- Generator: Adobe Illustrator 23.1.1, SVG Export Plug-In . SVG Version: 6.00 Build 0)  -->
<svg version="1.1" id="Layer_1" xmlns="http://www.w3.org/2000/svg" xmlns:xlink="http://www.w3.org/1999/xlink" x="0px" y="0px"
	 viewBox="0 0 1000 1000" style="enable-background:new 0 0 1000 1000;" xml:space="preserve">
<style type="text/css">
	.st0{fill:#FF1F1F;}
	.st1{fill:#EEF2F4;}
	.st2{enable-background:new    ;}
	.st3{fill:none;stroke:#CB0000;stroke-width:8;stroke-linecap:round;stroke-linejoin:round;stroke-miterlimit:10;}
	.st4{fill:#CB0000;stroke:#CB0000;stroke-width:8;stroke-linecap:round;stroke-linejoin:round;stroke-miterlimit:10;}
	.st5{fill:none;stroke:#340600;stroke-width:8;stroke-linecap:round;stroke-linejoin:round;stroke-miterlimit:10;}
	.st6{fill:#BFBFBF;}
	.st7{fill:#FFFFFF;}
	.st8{fill:none;stroke:#340600;stroke-width:6;stroke-linecap:round;stroke-linejoin:round;stroke-miterlimit:10;}
	.st9{fill:#606060;}
	.st10{fill:#1D4928;}
	.st11{fill:#C4C4C4;}
	.st12{opacity:0.77;fill:#C4C4C4;enable-background:new    ;}
	.st13{fill:#47A942;}
	.st14{fill:#81C347;}
	.st15{fill:#CADB2A;}
	.st16{fill:#26863F;}
	.st17{fill:#CCCC00;}
	.st18{fill:#245B34;}
	.st19{fill:#FF9E03;}
	.st20{fill:none;stroke:#340600;stroke-width:10;stroke-linecap:round;stroke-linejoin:round;stroke-miterlimit:10;}
	.st21{fill:none;stroke:#340600;stroke-width:3;stroke-linejoin:round;stroke-miterlimit:10;}
	.st22{fill:#06A0FF;}
	.st23{opacity:0.27;fill:#06A0FF;enable-background:new    ;}
	.st24{opacity:0.38;fill:#06A0FF;enable-background:new    ;}
	
		.st25{opacity:0.58;fill:none;stroke:#340600;stroke-width:8;stroke-linecap:round;stroke-linejoin:round;stroke-miterlimit:10;enable-background:new    ;}
</style>
<rect id="XMLID_7_" class="st0" width="1000" height="1000"/>
<g>
	<g>
		<g>
			<path class="st1" d="M63.2,959.2c0,2.5-1.2,3.7-2.6,3.7c-1.1,0-1.9-0.5-2.1-1.4c-0.4,0.5-1,0.8-1.8,0.8c-1.5,0-2.6-1.2-2.6-2.8
				s1.1-2.8,2.6-2.8c0.7,0,1.2,0.3,1.6,0.7v-0.5h1.6v3.9c0,0.8,0.3,1.4,1,1.4c0.9,0,1.7-0.9,1.7-3c0-3-2.3-5.3-5.4-5.3
				c-3.1,0-5.6,2.4-5.6,5.7s2.5,5.7,5.9,5.7c1.1,0,2.1-0.2,2.9-0.4v0.6c-0.8,0.3-1.7,0.4-2.9,0.4c-3.7,0-6.5-2.6-6.5-6.2
				c0-3.4,2.7-6.2,6.2-6.2C61.1,953.3,63.2,956.4,63.2,959.2z M58.3,959.5c0-0.8-0.6-1.4-1.3-1.4c-0.8,0-1.3,0.5-1.3,1.4
				c0,0.8,0.6,1.3,1.3,1.3C57.8,960.9,58.3,960.3,58.3,959.5z"/>
		</g>
		<g>
			<path class="st1" d="M69.4,955.1v2c-1.2-0.1-2.6,0.5-2.6,2.4v4.3h-1.9v-8.6h1.9v1.4C67.3,955.5,68.3,955.1,69.4,955.1z"/>
		</g>
		<g>
			<path class="st1" d="M74.6,962.3c1,0,1.8-0.5,2.2-1.1l1.5,0.9c-0.8,1.2-2.1,1.9-3.8,1.9c-2.8,0-4.7-1.9-4.7-4.5
				c0-2.5,1.8-4.5,4.5-4.5c2.6,0,4.3,2.1,4.3,4.5c0,0.3,0,0.5-0.1,0.8h-6.8C72.1,961.6,73.2,962.3,74.6,962.3z M76.9,958.8
				c-0.3-1.5-1.3-2.1-2.5-2.1c-1.4,0-2.3,0.8-2.6,2.1H76.9z"/>
		</g>
		<g>
			<path class="st1" d="M88.9,955.2v8.6H87v-1.2c-0.7,0.9-1.7,1.5-3,1.5c-2.3,0-4.3-2-4.3-4.5c0-2.6,1.9-4.5,4.3-4.5
				c1.3,0,2.3,0.5,3,1.4v-1.2L88.9,955.2L88.9,955.2z M87.1,959.5c0-1.6-1.2-2.7-2.7-2.7s-2.7,1.1-2.7,2.7c0,1.6,1.2,2.7,2.7,2.7
				C85.9,962.3,87.1,961.1,87.1,959.5z"/>
		</g>
		<g>
			<path class="st1" d="M91.1,951.3H93v12.5h-1.9V951.3z"/>
		</g>
		<g>
			<path class="st1" d="M102.9,955.2l-3.3,8.6h-2.1l-3.3-8.6h2l2.4,6.5l2.4-6.5H102.9z"/>
		</g>
		<g>
			<path class="st1" d="M104.2,955.2h1.9v8.9c0,2.4-1.2,3.5-3.5,3.3v-1.8c1.1,0.1,1.7-0.3,1.7-1.5L104.2,955.2L104.2,955.2z
				 M104,952.8c0-0.7,0.5-1.2,1.2-1.2s1.2,0.5,1.2,1.2c0,0.6-0.5,1.2-1.2,1.2S104,953.4,104,952.8z"/>
		</g>
		<g>
			<path class="st1" d="M116,955.2l-3.3,8.8c-0.8,2.2-2.2,3.3-4.2,3.2v-1.7c1.2,0.1,1.9-0.5,2.3-1.7l0.1-0.2l-3.6-8.4h2l2.6,6.2
				l2.2-6.2L116,955.2L116,955.2z"/>
		</g>
	</g>
	<g class="st2">
		<path class="st1" d="M211.9,938.7c0,2.1-1.5,3.8-3.6,3.8h-3v-7.6h3C210.4,934.9,211.9,936.6,211.9,938.7z M210.9,938.7
			c0-1.6-1.1-2.9-2.6-2.9h-2v5.7h2C209.8,941.6,210.9,940.3,210.9,938.7z"/>
		<path class="st1" d="M219.2,940.8h-3.4l-0.6,1.7h-1.1l2.8-7.6h1.1l2.8,7.6h-1.1L219.2,940.8z M218.9,939.9l-1.4-3.8l-1.4,3.8
			H218.9z"/>
		<path class="st1" d="M225.8,939.4v3.1h-1v-3.1l-2.7-4.5h1.1l2.1,3.6l2.1-3.6h1.1L225.8,939.4z"/>
		<path class="st1" d="M240.3,934.9v0.9l-2.8,6.7h-1.1l2.8-6.7h-3.7v-1H240.3z"/>
		<path class="st1" d="M242.9,941.7l2.7-2.7c0.6-0.6,1.1-1.2,1.1-1.9c0-0.9-0.6-1.4-1.4-1.4c-0.7,0-1.2,0.3-1.6,1l-0.9-0.5
			c0.5-1,1.4-1.5,2.4-1.5c1.2,0,2.4,0.8,2.4,2.3c0,0.9-0.6,1.8-1.4,2.5l-2,1.9h3.5v1h-4.9V941.7z"/>
	</g>
	<g class="st2">
		<path class="st1" d="M58.9,938.7c0,2.1-1.5,3.8-3.6,3.8h-3v-7.6h3C57.4,934.9,58.9,936.6,58.9,938.7z M57.9,938.7
			c0-1.6-1.1-2.9-2.6-2.9h-2v5.7h2C56.8,941.6,57.9,940.3,57.9,938.7z"/>
		<path class="st1" d="M66.7,941.6v1h-4.6v-7.6h4.5v1h-3.5v2.3h3.2v0.9h-3.2v2.4H66.7z"/>
		<path class="st1" d="M69.5,940.8l0.9-0.5c0.3,0.8,0.9,1.4,2,1.4c1.1,0,1.6-0.5,1.6-1.2c0-0.8-0.7-1-1.8-1.4
			c-1.2-0.4-2.4-0.8-2.4-2.2c0-1.4,1.1-2.2,2.4-2.2c1.3,0,2.2,0.7,2.6,1.7l-0.8,0.5c-0.3-0.7-0.8-1.2-1.7-1.2
			c-0.8,0-1.4,0.4-1.4,1.1c0,0.7,0.5,1,1.6,1.3c1.3,0.4,2.6,0.8,2.6,2.3c0,1.3-1.1,2.2-2.6,2.2C70.9,942.7,69.9,941.9,69.5,940.8z"
			/>
		<path class="st1" d="M79.1,934.9v7.6h-1v-7.6H79.1z"/>
		<path class="st1" d="M90.1,939.2c0,1.9-1.4,3.5-3.7,3.5c-2.4,0-4-1.8-4-4c0-2.2,1.7-4,4-4c1.4,0,2.7,0.8,3.3,1.8l-0.9,0.5
			c-0.4-0.8-1.4-1.4-2.4-1.4c-1.8,0-3,1.3-3,3c0,1.7,1.2,3,3,3c1.6,0,2.5-0.9,2.7-2h-2.8v-0.9h3.8V939.2z"/>
		<path class="st1" d="M99.1,934.9v7.6h-0.8l-3.9-5.7v5.7h-1v-7.6h0.8l3.9,5.7v-5.7H99.1z"/>
		<path class="st1" d="M107.3,941.6v1h-4.6v-7.6h4.5v1h-3.5v2.3h3.2v0.9h-3.2v2.4H107.3z"/>
		<path class="st1" d="M117.1,938.7c0,2.1-1.5,3.8-3.6,3.8h-3v-7.6h3C115.6,934.9,117.1,936.6,117.1,938.7z M116.1,938.7
			c0-1.6-1.1-2.9-2.6-2.9h-2v5.7h2C115,941.6,116.1,940.3,116.1,938.7z"/>
		<path class="st1" d="M130.5,940.4c0,1.2-1,2.2-2.2,2.2H125v-7.6h3.1c1.2,0,2.1,0.9,2.1,2.1c0,0.7-0.3,1.2-0.8,1.6
			C130.1,938.9,130.5,939.5,130.5,940.4z M126.1,935.8v2.3h2c0.6,0,1.1-0.5,1.1-1.2c0-0.6-0.5-1.2-1.1-1.2H126.1z M129.5,940.3
			c0-0.7-0.5-1.2-1.2-1.2h-2.3v2.5h2.3C129,941.6,129.5,941,129.5,940.3z"/>
		<path class="st1" d="M136.4,939.4v3.1h-1v-3.1l-2.7-4.5h1.1l2.1,3.6l2.1-3.6h1.1L136.4,939.4z"/>
	</g>
	<g class="st2">
		<path class="st1" d="M216.2,958.1c0,3.5-2.5,6.2-5.9,6.2h-4.9v-12.4h4.9C213.7,951.9,216.2,954.6,216.2,958.1z M214.3,958.1
			c0-2.5-1.6-4.2-4-4.2h-2.8v8.5h2.8C212.7,962.3,214.3,960.5,214.3,958.1z"/>
		<path class="st1" d="M222.3,962.8c1.1,0,1.9-0.5,2.3-1.1l1.6,0.9c-0.8,1.2-2.1,1.9-3.9,1.9c-2.9,0-4.8-2-4.8-4.7
			c0-2.6,1.9-4.7,4.7-4.7c2.6,0,4.4,2.1,4.4,4.7c0,0.3,0,0.5-0.1,0.8h-7C219.8,962.1,220.9,962.8,222.3,962.8z M224.7,959.1
			c-0.3-1.5-1.4-2.2-2.5-2.2c-1.4,0-2.4,0.8-2.7,2.2H224.7z"/>
		<path class="st1" d="M234.4,961.8c0,1.8-1.5,2.7-3.5,2.7c-1.8,0-3-0.8-3.6-2.1l1.6-1c0.3,0.8,1,1.3,2,1.3c0.8,0,1.5-0.3,1.5-1
			c0-1.6-4.8-0.7-4.8-3.9c0-1.7,1.4-2.7,3.2-2.7c1.5,0,2.7,0.7,3.3,1.8l-1.6,0.9c-0.3-0.7-0.9-1-1.7-1c-0.7,0-1.3,0.3-1.3,0.9
			C229.7,959.5,234.4,958.5,234.4,961.8z"/>
		<path class="st1" d="M235.7,952.9c0-0.7,0.5-1.2,1.2-1.2c0.7,0,1.2,0.5,1.2,1.2c0,0.7-0.5,1.2-1.2,1.2
			C236.3,954.1,235.7,953.6,235.7,952.9z M236,955.4h1.9v8.8H236V955.4z"/>
		<path class="st1" d="M249,955.4v8.4c0,2.8-2.2,4.2-4.5,4.2c-1.9,0-3.5-0.7-4.2-2.1l1.6-1c0.4,0.8,1,1.4,2.6,1.4
			c1.6,0,2.6-0.9,2.6-2.4v-1.1c-0.7,1-1.7,1.5-3.1,1.5c-2.5,0-4.5-2-4.5-4.6s2-4.6,4.5-4.6c1.4,0,2.4,0.6,3.1,1.5v-1.3H249z
			 M247.2,959.8c0-1.6-1.2-2.8-2.8-2.8c-1.6,0-2.8,1.2-2.8,2.8s1.2,2.8,2.8,2.8C246,962.6,247.2,961.4,247.2,959.8z"/>
		<path class="st1" d="M259.3,958.9v5.4h-1.9v-5.2c0-1.3-0.8-2.1-2-2.1c-1.3,0-2.2,0.7-2.2,2.5v4.7h-1.9v-8.8h1.9v1.1
			c0.6-0.9,1.5-1.4,2.7-1.4C257.9,955.2,259.3,956.6,259.3,958.9z"/>
		<path class="st1" d="M265.7,962.8c1.1,0,1.9-0.5,2.3-1.1l1.6,0.9c-0.8,1.2-2.1,1.9-3.9,1.9c-2.9,0-4.8-2-4.8-4.7
			c0-2.6,1.9-4.7,4.7-4.7c2.6,0,4.4,2.1,4.4,4.7c0,0.3,0,0.5-0.1,0.8h-7C263.2,962.1,264.3,962.8,265.7,962.8z M268.1,959.1
			c-0.3-1.5-1.4-2.2-2.5-2.2c-1.4,0-2.4,0.8-2.7,2.2H268.1z"/>
		<path class="st1" d="M276.3,955.3v2.1c-1.3-0.1-2.7,0.5-2.7,2.5v4.5h-1.9v-8.8h1.9v1.5C274.1,955.7,275.2,955.3,276.3,955.3z"/>
		<path class="st1" d="M290.4,953.9h-3.5v10.4h-2v-10.4h-3.5v-1.9h9V953.9z"/>
		<path class="st1" d="M289.7,959.9c0-2.6,2.1-4.7,4.7-4.7c2.6,0,4.7,2,4.7,4.7c0,2.6-2.1,4.7-4.7,4.7
			C291.7,964.5,289.7,962.5,289.7,959.9z M297.1,959.9c0-1.6-1.2-2.8-2.8-2.8s-2.8,1.2-2.8,2.8c0,1.6,1.2,2.8,2.8,2.8
			S297.1,961.5,297.1,959.9z"/>
		<path class="st1" d="M300.2,959.9c0-2.6,2.1-4.7,4.7-4.7c2.6,0,4.7,2,4.7,4.7c0,2.6-2.1,4.7-4.7,4.7
			C302.3,964.5,300.2,962.5,300.2,959.9z M307.7,959.9c0-1.6-1.2-2.8-2.8-2.8s-2.8,1.2-2.8,2.8c0,1.6,1.2,2.8,2.8,2.8
			S307.7,961.5,307.7,959.9z"/>
		<path class="st1" d="M311.3,951.4h1.9v12.9h-1.9V951.4z"/>
		<path class="st1" d="M319.1,951.9h2.1l2.6,9.7l2.8-9.7h1.9l2.8,9.7l2.6-9.7h2.1l-3.5,12.4h-2.4l-2.6-9l-2.6,9h-2.4L319.1,951.9z"
			/>
		<path class="st1" d="M345.4,955.4v8.8h-1.9V963c-0.7,0.9-1.7,1.5-3.1,1.5c-2.4,0-4.4-2-4.4-4.7c0-2.6,2-4.7,4.4-4.7
			c1.4,0,2.4,0.6,3.1,1.5v-1.3H345.4z M343.5,959.9c0-1.6-1.2-2.8-2.8-2.8c-1.6,0-2.8,1.2-2.8,2.8c0,1.6,1.2,2.8,2.8,2.8
			C342.3,962.7,343.5,961.5,343.5,959.9z"/>
		<path class="st1" d="M352.3,955.3v2.1c-1.3-0.1-2.7,0.5-2.7,2.5v4.5h-1.9v-8.8h1.9v1.5C350.1,955.7,351.2,955.3,352.3,955.3z"/>
	</g>
	<g>
		<g>
			<g>
				<path class="st1" d="M846.1,938.7c0,2.1-1.5,3.8-3.6,3.8h-3v-7.6h3C844.6,934.9,846.1,936.6,846.1,938.7z M845.2,938.7
					c0-1.6-1.1-2.9-2.6-2.9h-2v5.7h2C844.1,941.6,845.2,940.3,845.2,938.7z"/>
			</g>
			<g>
				<path class="st1" d="M849.3,938.7c0-2.2,1.7-4,3.9-4s4,1.8,4,4s-1.7,4-4,4C851,942.7,849.3,940.9,849.3,938.7z M856.1,938.7
					c0-1.7-1.3-3-2.9-3c-1.7,0-2.9,1.3-2.9,3s1.3,3,2.9,3C854.9,941.7,856.1,940.4,856.1,938.7z"/>
			</g>
			<g>
				<path class="st1" d="M859.8,934.9h1.1l1.7,6.3l1.9-6.3h1l1.9,6.3l1.7-6.3h1.1l-2.2,7.6h-1.2l-1.8-6.1l-1.8,6.1H862L859.8,934.9z
					"/>
			</g>
			<g>
				<path class="st1" d="M879.3,934.9v7.6h-0.8l-3.9-5.7v5.7h-1v-7.6h0.8l3.9,5.7v-5.7H879.3z"/>
			</g>
			<g>
				<path class="st1" d="M887.5,941.6v1h-4.3V935h1v6.7h3.3V941.6z"/>
			</g>
			<g>
				<path class="st1" d="M889.9,938.7c0-2.2,1.7-4,3.9-4s4,1.8,4,4s-1.7,4-4,4C891.6,942.7,889.9,940.9,889.9,938.7z M896.8,938.7
					c0-1.7-1.3-3-2.9-3c-1.7,0-2.9,1.3-2.9,3s1.3,3,2.9,3S896.8,940.4,896.8,938.7z"/>
			</g>
			<g>
				<path class="st1" d="M905.4,940.8H902l-0.6,1.7h-1.1l2.8-7.6h1.1l2.8,7.6h-1L905.4,940.8z M905.1,939.9l-1.4-3.8l-1.4,3.8H905.1
					z"/>
			</g>
			<g>
				<path class="st1" d="M916.9,938.7c0,2.1-1.5,3.8-3.6,3.8h-3v-7.6h3C915.4,934.9,916.9,936.6,916.9,938.7z M915.9,938.7
					c0-1.6-1.1-2.9-2.6-2.9h-2v5.7h2C914.9,941.6,915.9,940.3,915.9,938.7z"/>
			</g>
			<g>
				<path class="st1" d="M926.5,935.8v2.5h3.2v1h-3.2v3.2h-1v-7.6h4.4v1h-3.4V935.8z"/>
			</g>
			<g>
				<path class="st1" d="M936.2,939.6h-1.8v2.9h-1v-7.6h3c1.3,0,2.4,1.1,2.4,2.4c0,1-0.7,1.9-1.6,2.2l1.8,3.1h-1.1L936.2,939.6z
					 M934.4,938.7h2c0.8,0,1.4-0.6,1.4-1.4c0-0.8-0.6-1.4-1.4-1.4h-2V938.7z"/>
			</g>
			<g>
				<path class="st1" d="M941.9,938.7c0-2.2,1.7-4,3.9-4s4,1.8,4,4s-1.7,4-4,4C943.6,942.7,941.9,940.9,941.9,938.7z M948.8,938.7
					c0-1.7-1.3-3-2.9-3c-1.7,0-2.9,1.3-2.9,3s1.3,3,2.9,3S948.8,940.4,948.8,938.7z"/>
			</g>
			<g>
				<path class="st1" d="M960.4,942.5h-1v-6l-2.5,4.2h-0.1l-2.5-4.1v5.9h-1v-7.6h1.1l2.4,4l2.4-4h1.1L960.4,942.5L960.4,942.5z"/>
			</g>
		</g>
		<g>
			<g>
				<path class="st1" d="M839.3,952.9c0-0.7,0.5-1.2,1.2-1.2s1.2,0.5,1.2,1.2s-0.5,1.2-1.2,1.2C839.9,954.1,839.3,953.6,839.3,952.9
					z M839.6,955.4h1.9v8.9h-1.9V955.4z"/>
			</g>
			<g>
				<path class="st1" d="M843.7,951.4h1.9v12.9h-1.9V951.4z"/>
			</g>
			<g>
				<path class="st1" d="M847.8,951.4h1.9v12.9h-1.9V951.4z"/>
			</g>
			<g>
				<path class="st1" d="M852,951.4h1.9v12.9H852V951.4z"/>
			</g>
			<g>
				<path class="st1" d="M864,955.4v8.9h-1.9v-1.1c-0.6,0.9-1.5,1.4-2.7,1.4c-2,0-3.4-1.3-3.4-3.6v-5.4h1.9v5.2c0,1.3,0.8,2.1,2,2.1
					c1.3,0,2.2-0.7,2.2-2.5v-4.7h1.9V955.4z"/>
			</g>
			<g>
				<path class="st1" d="M872.6,961.8c0,1.8-1.5,2.7-3.5,2.7c-1.8,0-3-0.8-3.6-2.1l1.6-1c0.3,0.8,1,1.3,2,1.3c0.8,0,1.5-0.3,1.5-1
					c0-1.6-4.8-0.7-4.8-3.9c0-1.7,1.4-2.7,3.2-2.7c1.5,0,2.7,0.7,3.3,1.8l-1.6,0.9c-0.3-0.7-0.9-1-1.7-1c-0.7,0-1.3,0.3-1.3,0.9
					C867.9,959.5,872.6,958.5,872.6,961.8z"/>
			</g>
			<g>
				<path class="st1" d="M876.7,957.3v4.2c0,1.1,0.7,1.1,2.2,1v1.7c-2.9,0.4-4.1-0.5-4.1-2.8v-4.2h-1.6v-1.8h1.6v-1.9l1.9-0.6v2.5
					h2.2v1.8L876.7,957.3L876.7,957.3z"/>
			</g>
			<g>
				<path class="st1" d="M885.4,955.3v2.1c-1.3-0.1-2.7,0.5-2.7,2.5v4.5h-1.9v-8.9h1.9v1.5C883.2,955.7,884.2,955.3,885.4,955.3z"/>
			</g>
			<g>
				<path class="st1" d="M895.3,955.4v8.9h-1.9V963c-0.7,0.9-1.7,1.5-3.1,1.5c-2.4,0-4.4-2-4.4-4.7c0-2.6,2-4.7,4.4-4.7
					c1.4,0,2.4,0.6,3.1,1.5v-1.3h1.9V955.4z M893.4,959.9c0-1.6-1.2-2.8-2.8-2.8s-2.8,1.2-2.8,2.8s1.2,2.8,2.8,2.8
					S893.4,961.5,893.4,959.9z"/>
			</g>
			<g>
				<path class="st1" d="M900.3,957.3v4.2c0,1.1,0.7,1.1,2.2,1v1.7c-2.9,0.4-4.1-0.5-4.1-2.8v-4.2h-1.6v-1.8h1.6v-1.9l1.9-0.6v2.5
					h2.2v1.8L900.3,957.3L900.3,957.3z"/>
			</g>
			<g>
				<path class="st1" d="M903.9,952.9c0-0.7,0.5-1.2,1.2-1.2s1.2,0.5,1.2,1.2s-0.5,1.2-1.2,1.2C904.5,954.1,903.9,953.6,903.9,952.9
					z M904.2,955.4h1.9v8.9h-1.9V955.4z"/>
			</g>
			<g>
				<path class="st1" d="M907.8,959.9c0-2.6,2.1-4.7,4.7-4.7c2.6,0,4.7,2,4.7,4.7c0,2.6-2.1,4.7-4.7,4.7
					C909.9,964.5,907.8,962.5,907.8,959.9z M915.3,959.9c0-1.6-1.2-2.8-2.8-2.8s-2.8,1.2-2.8,2.8s1.2,2.8,2.8,2.8
					S915.3,961.5,915.3,959.9z"/>
			</g>
			<g>
				<path class="st1" d="M927,958.9v5.4h-1.9v-5.2c0-1.3-0.8-2.1-2-2.1c-1.3,0-2.2,0.7-2.2,2.5v4.7H919v-8.9h1.9v1.1
					c0.6-0.9,1.5-1.4,2.7-1.4C925.5,955.2,927,956.6,927,958.9z"/>
			</g>
			<g>
				<path class="st1" d="M935.5,961.8c0,1.8-1.5,2.7-3.5,2.7c-1.8,0-3-0.8-3.6-2.1l1.6-1c0.3,0.8,1,1.3,2,1.3c0.8,0,1.5-0.3,1.5-1
					c0-1.6-4.8-0.7-4.8-3.9c0-1.7,1.4-2.7,3.2-2.7c1.5,0,2.7,0.7,3.3,1.8l-1.6,0.9c-0.3-0.7-0.9-1-1.7-1c-0.7,0-1.3,0.3-1.3,0.9
					C930.7,959.5,935.5,958.5,935.5,961.8z"/>
			</g>
			<g>
				<path class="st1" d="M936.8,963.2c0-0.7,0.6-1.3,1.3-1.3s1.3,0.6,1.3,1.3s-0.6,1.3-1.3,1.3C937.4,964.5,936.8,963.9,936.8,963.2
					z"/>
			</g>
			<g>
				<path class="st1" d="M940.3,959.9c0-2.6,2-4.7,4.7-4.7c1.7,0,3.2,0.9,3.9,2.3l-1.6,1c-0.4-0.8-1.3-1.4-2.3-1.4
					c-1.6,0-2.7,1.2-2.7,2.8s1.2,2.8,2.7,2.8c1.1,0,1.9-0.5,2.4-1.4l1.6,0.9c-0.7,1.4-2.2,2.3-4,2.3
					C942.3,964.5,940.3,962.5,940.3,959.9z"/>
			</g>
			<g>
				<path class="st1" d="M949.7,959.9c0-2.6,2.1-4.7,4.7-4.7c2.6,0,4.7,2,4.7,4.7c0,2.6-2.1,4.7-4.7,4.7
					C951.8,964.5,949.7,962.5,949.7,959.9z M957.2,959.9c0-1.6-1.2-2.8-2.8-2.8s-2.8,1.2-2.8,2.8s1.2,2.8,2.8,2.8
					S957.2,961.5,957.2,959.9z"/>
			</g>
		</g>
	</g>
</g>
<g id="XMLID_226_">
	<line id="XMLID_225_" class="st3" x1="153.6" y1="532" x2="321.2" y2="532"/>
	<path id="XMLID_224_" class="st4" d="M242.4,552.4h-10.2c-2.4,0-4.3-1.9-4.3-4.3v-30.7c0-2.4,1.9-4.3,4.3-4.3h10.2
		c2.4,0,4.3,1.9,4.3,4.3v30.7C246.7,550.5,244.7,552.4,242.4,552.4z"/>
	<line id="XMLID_223_" class="st3" x1="340.2" y1="708.5" x2="350.8" y2="737.7"/>
	<polygon id="XMLID_222_" class="st4" points="329.7,640.8 311,647.7 230.6,427 259.8,416.4 312.2,560.4 	"/>
	
		<rect id="XMLID_221_" x="326.9" y="672.5" transform="matrix(0.9397 -0.342 0.342 0.9397 -215.9395 155.6848)" class="st4" width="13.3" height="35.4"/>
	<circle id="XMLID_220_" class="st4" cx="326.2" cy="657.1" r="19.9"/>
	<polygon id="XMLID_219_" class="st4" points="145.1,640.8 163.9,647.7 244.2,427 215.1,416.4 162.6,560.4 	"/>
	
		<rect id="XMLID_218_" x="123.6" y="683.6" transform="matrix(0.342 -0.9397 0.9397 0.342 -555.695 586.9247)" class="st4" width="35.4" height="13.3"/>
	<line id="XMLID_217_" class="st3" x1="134.6" y1="708.5" x2="124" y2="737.7"/>
	<circle id="XMLID_216_" class="st4" cx="148.7" cy="657.1" r="19.9"/>
	<path id="XMLID_26_" class="st4" d="M252.9,478.2c-10.3,0-20.7,0-31,0c-5,0-9.8-3.8-11-8.8c-5.5-23.2-9.3-46.7-8.9-69.9
		c0.2-5.9,5.9-11.1,11.8-11.1c15.8,0,31.6,0,47.4,0c5.9,0,11.6,5.2,11.8,11.1c0.4,23.2-3.4,46.7-8.9,69.9
		C262.7,474.4,257.9,478.2,252.9,478.2z"/>
	<rect id="XMLID_10_" x="219.3" y="294.3" class="st4" width="35.4" height="78.6"/>
	<rect id="XMLID_4_" x="227.7" y="372.9" class="st4" width="18.8" height="15.5"/>
</g>
<g id="XMLID_212_">
	<path id="XMLID_211_" class="st4" d="M596.9,403.4c-54.2,0-132.1,0-186.3,0c-14.5,0-27.3,9.5-31.2,23.4c-4.9,17.5-4.9,35.7,0,53.1
		c3.9,13.9,16.7,23.4,31.2,23.4h186.3c8.2,0,14.9-6.3,15.4-14.4c1.6-23.7,1.6-47.5,0-71.2C611.8,409.7,605,403.4,596.9,403.4z"/>
	<path id="XMLID_210_" class="st4" d="M479,484.8c-4-20.8-4-42.1,0-62.9c73.7,0,173.6,0,247.4,0c0,14.4-3.2,37.9-11.8,54.3
		c-2.8,5.3-8.2,8.6-14.2,8.6H479z"/>
	<rect id="XMLID_209_" x="613.9" y="476.3" class="st4" width="17.9" height="18.7"/>
</g>
<rect id="XMLID_206_" x="613.9" y="417" class="st4" width="17.9" height="18.7"/>
<g id="XMLID_20_">
	<line id="XMLID_25_" class="st5" x1="143.6" y1="527" x2="311.2" y2="527"/>
	<path id="XMLID_151_" class="st6" d="M232.4,547.4h-10.2c-2.4,0-4.3-1.9-4.3-4.3v-30.7c0-2.4,1.9-4.3,4.3-4.3h10.2
		c2.4,0,4.3,1.9,4.3,4.3v30.7C236.7,545.5,234.7,547.4,232.4,547.4z"/>
	<path id="XMLID_245_" class="st7" d="M219.7,508.8c-1.1,0.8-1.9,2.1-1.9,3.6v30.7c0,1.5,0.8,2.8,1.9,3.6c3.2-2.9,5.6-10.3,5.6-18.9
		C225.3,519.1,223,511.7,219.7,508.8z"/>
	<path id="XMLID_23_" class="st8" d="M232.4,547.4h-10.2c-2.4,0-4.3-1.9-4.3-4.3v-30.7c0-2.4,1.9-4.3,4.3-4.3h10.2
		c2.4,0,4.3,1.9,4.3,4.3v30.7C236.7,545.5,234.7,547.4,232.4,547.4z"/>
	<polygon id="XMLID_9_" class="st7" points="319.7,635.8 301,642.7 220.6,422 249.8,411.4 302.2,555.4 	"/>
	<polygon id="XMLID_237_" class="st6" points="302.2,555.4 249.8,411.4 241.8,414.3 293.2,555.4 310.7,635.8 299.9,639.8 301,642.7 
		319.7,635.8 	"/>
	<path id="XMLID_231_" class="st6" d="M250.8,410.4L221.6,421l22.6,62.2c10-0.2,19-7.3,21.4-17.2c0.7-3.1,1.4-6.1,2.1-9.1
		L250.8,410.4z"/>
	<line id="XMLID_11_" class="st5" x1="330.2" y1="703.5" x2="340.8" y2="732.7"/>
	
		<rect id="XMLID_68_" x="316.9" y="667.5" transform="matrix(0.9397 -0.342 0.342 0.9397 -214.8324 151.9633)" class="st6" width="13.3" height="35.4"/>
	<polygon id="XMLID_14_" class="st5" points="319.7,635.8 301,642.7 220.6,422 249.8,411.4 302.2,555.4 	"/>
	
		<rect id="XMLID_12_" x="316.9" y="667.5" transform="matrix(0.9397 -0.342 0.342 0.9397 -214.8324 151.9633)" class="st5" width="13.3" height="35.4"/>
	<circle id="XMLID_62_" class="st7" cx="316.2" cy="652.1" r="19.9"/>
	<path id="XMLID_233_" class="st6" d="M321.3,643.9c-10.3,3.8-15.7,15.2-11.9,25.6c0.2,0.6,0.4,1.1,0.7,1.6
		c4.1,1.3,8.6,1.3,12.9-0.2c10.3-3.8,15.7-15.2,11.9-25.6c-0.2-0.6-0.4-1.1-0.7-1.6C330.2,642.3,325.7,642.3,321.3,643.9z"/>
	<circle id="XMLID_13_" class="st5" cx="316.2" cy="652.1" r="19.9"/>
	<polygon id="XMLID_8_" class="st7" points="135.1,635.8 153.9,642.7 234.2,422 205.1,411.4 152.6,555.4 	"/>
	<polygon id="XMLID_228_" class="st7" points="135.1,635.8 153.9,642.7 234.2,422 205.1,411.4 152.6,555.4 	"/>
	<polygon id="XMLID_232_" class="st6" points="205.1,411.4 204,414.3 225.2,422 145.9,639.8 153.9,642.7 234.2,422 	"/>
	<path id="XMLID_230_" class="st6" d="M207.1,410.4l-16.9,46.5c0.6,3,1.3,6,2.1,9.1c2.4,9.8,11.4,16.9,21.4,17.1l22.6-62.2
		L207.1,410.4z"/>
	<polygon id="XMLID_18_" class="st5" points="135.1,635.8 153.9,642.7 234.2,422 205.1,411.4 152.6,555.4 	"/>
	
		<rect id="XMLID_153_" x="113.6" y="678.6" transform="matrix(0.342 -0.9397 0.9397 0.342 -557.5764 574.2377)" class="st6" width="35.4" height="13.3"/>
	
		<rect id="XMLID_16_" x="113.6" y="678.6" transform="matrix(0.342 -0.9397 0.9397 0.342 -557.5764 574.2377)" class="st5" width="35.4" height="13.3"/>
	<line id="XMLID_15_" class="st5" x1="124.6" y1="703.5" x2="114" y2="732.7"/>
	
		<ellipse id="XMLID_152_" transform="matrix(3.327796e-02 -0.9994 0.9994 3.327796e-02 -517.6545 769.0226)" class="st7" cx="138.7" cy="652.1" rx="19.9" ry="19.9"/>
	
		<ellipse id="XMLID_227_" transform="matrix(3.327796e-02 -0.9994 0.9994 3.327796e-02 -517.6545 769.0226)" class="st7" cx="138.7" cy="652.1" rx="19.9" ry="19.9"/>
	<path id="XMLID_235_" class="st6" d="M157.4,658.9c1.9-5.2,1.5-10.6-0.7-15.2c-10.2-3.3-21.2,2-24.8,12.1
		c-1.9,5.2-1.5,10.6,0.7,15.2C142.7,674.3,153.7,669,157.4,658.9z"/>
	
		<ellipse id="XMLID_17_" transform="matrix(3.327796e-02 -0.9994 0.9994 3.327796e-02 -517.6545 769.0226)" class="st5" cx="138.7" cy="652.1" rx="19.9" ry="19.9"/>
	<path id="XMLID_183_" class="st6" d="M242.9,473.2c-10.3,0-20.7,0-31,0c-5,0-9.8-3.8-11-8.8c-5.5-23.2-9.3-46.7-8.9-69.9
		c0.2-5.9,5.9-11.1,11.8-11.1c15.8,0,31.6,0,47.4,0c5.9,0,11.6,5.2,11.8,11.1c0.4,23.2-3.4,46.7-8.9,69.9
		C252.7,469.4,247.9,473.2,242.9,473.2z"/>
	<path id="XMLID_238_" class="st7" d="M200.5,464.4c-5.5-23.2-9.3-46.7-8.9-69.9c0.2-5.9,5.9-11.1,11.8-11.1c11.3,0,22.5,0,33.8,0
		c2.7,12.4,2.7,25.8-0.7,39.1c-5.1,20.2-11.7,47.8-32.3,47.8C202.4,468.8,201.1,466.7,200.5,464.4z"/>
	<path id="XMLID_19_" class="st5" d="M242.9,473.2c-10.3,0-20.7,0-31,0c-5,0-9.8-3.8-11-8.8c-5.5-23.2-9.3-46.7-8.9-69.9
		c0.2-5.9,5.9-11.1,11.8-11.1c15.8,0,31.6,0,47.4,0c5.9,0,11.6,5.2,11.8,11.1c0.4,23.2-3.4,46.7-8.9,69.9
		C252.7,469.4,247.9,473.2,242.9,473.2z"/>
	<rect id="XMLID_184_" x="209.3" y="289.3" class="st6" width="35.4" height="78.6"/>
	<rect id="XMLID_239_" x="209.3" y="289.3" class="st6" width="10" height="78.6"/>
	<rect id="XMLID_240_" x="232.3" y="289.3" class="st6" width="12.5" height="78.6"/>
	<rect id="XMLID_21_" x="209.3" y="289.3" class="st5" width="35.4" height="78.6"/>
	<rect id="XMLID_199_" x="217.7" y="367.9" class="st9" width="18.8" height="15.5"/>
	<rect id="XMLID_22_" x="217.7" y="367.9" class="st5" width="18.8" height="15.5"/>
	<line id="XMLID_24_" class="st8" x1="220.6" y1="303.3" x2="220.6" y2="348.7"/>
	<circle id="XMLID_241_" class="st9" cx="228.9" cy="428" r="10.5"/>
	<circle id="XMLID_185_" class="st5" cx="228.9" cy="428" r="10.5"/>
</g>
<g id="XMLID_1_">
	<path id="XMLID_190_" class="st10" d="M591.9,391.4c-54.2,0-132.1,0-186.3,0c-14.5,0-27.3,9.5-31.2,23.4c-4.9,17.5-4.9,35.7,0,53.1
		c3.9,13.9,16.7,23.4,31.2,23.4h186.3c8.2,0,14.9-6.3,15.4-14.4c1.6-23.7,1.6-47.5,0-71.2C606.8,397.7,600,391.4,591.9,391.4z"/>
	<path id="XMLID_34_" class="st5" d="M591.9,391.4c-54.2,0-132.1,0-186.3,0c-14.5,0-27.3,9.5-31.2,23.4c-4.9,17.5-4.9,35.7,0,53.1
		c3.9,13.9,16.7,23.4,31.2,23.4h186.3c8.2,0,14.9-6.3,15.4-14.4c1.6-23.7,1.6-47.5,0-71.2C606.8,397.7,600,391.4,591.9,391.4z"/>
	<path id="XMLID_29_" class="st5" d="M591.9,391.4c-54.2,0-132.1,0-186.3,0c-14.5,0-27.3,9.5-31.2,23.4c-4.9,17.5-4.9,35.7,0,53.1
		c3.9,13.9,16.7,23.4,31.2,23.4h186.3c8.2,0,14.9-6.3,15.4-14.4c1.6-23.7,1.6-47.5,0-71.2C606.8,397.7,600,391.4,591.9,391.4z"/>
	<path id="XMLID_189_" class="st11" d="M474,472.8c-4-20.8-4-42.1,0-62.9c73.7,0,173.6,0,247.4,0c0,14.4-3.2,37.9-11.8,54.3
		c-2.8,5.3-8.2,8.6-14.2,8.6H474z"/>
	<path id="XMLID_247_" class="st12" d="M714.9,409.9c-1,14.1-4.4,32.6-11.5,46.3c-2.8,5.3-8.2,8.6-14.2,8.6H472.6
		c0.4,2.7,0.8,5.4,1.3,8.1h221.4c6,0,11.4-3.3,14.2-8.6c8.6-16.4,11.8-39.9,11.8-54.3C719.2,409.9,717.1,409.9,714.9,409.9z"/>
	<path id="XMLID_35_" class="st5" d="M474,472.8c-4-20.8-4-42.1,0-62.9c73.7,0,173.6,0,247.4,0c0,14.4-3.2,37.9-11.8,54.3
		c-2.8,5.3-8.2,8.6-14.2,8.6H474z"/>
	<path id="XMLID_40_" class="st7" d="M720.5,423.7c0.5-5,0.8-9.8,0.8-13.8c-73.7,0-173.6,0-247.4,0c-0.9,4.6-1.5,9.2-2,13.8
		C547.4,423.7,644.5,423.7,720.5,423.7z"/>
	<path id="XMLID_192_" class="st5" d="M720.5,423.7c0.5-5,0.8-9.8,0.8-13.8c-73.7,0-173.6,0-247.4,0c-0.9,4.6-1.5,9.2-2,13.8
		C547.4,423.7,644.5,423.7,720.5,423.7z"/>
	<g id="XMLID_41_">
		<g id="XMLID_58_">
			<line id="XMLID_59_" class="st5" x1="481.3" y1="425.7" x2="467.4" y2="472.8"/>
		</g>
		<g id="XMLID_56_">
			<line id="XMLID_57_" class="st5" x1="507.5" y1="425.7" x2="493.6" y2="472.8"/>
		</g>
		<g id="XMLID_54_">
			<line id="XMLID_55_" class="st5" x1="533.6" y1="425.7" x2="519.7" y2="472.8"/>
		</g>
		<g id="XMLID_52_">
			<line id="XMLID_53_" class="st5" x1="559.8" y1="425.7" x2="545.9" y2="472.8"/>
		</g>
		<g id="XMLID_50_">
			<line id="XMLID_51_" class="st5" x1="586" y1="425.7" x2="572.1" y2="472.8"/>
		</g>
		<g id="XMLID_47_">
			<line id="XMLID_48_" class="st5" x1="612.1" y1="425.7" x2="598.2" y2="472.8"/>
		</g>
		<g id="XMLID_45_">
			<line id="XMLID_46_" class="st5" x1="638.3" y1="425.7" x2="624.4" y2="472.8"/>
		</g>
		<g id="XMLID_43_">
			<line id="XMLID_44_" class="st5" x1="664.5" y1="425.7" x2="650.6" y2="472.8"/>
		</g>
		<g id="XMLID_39_">
			<line id="XMLID_42_" class="st5" x1="690.6" y1="425.7" x2="676.7" y2="472.8"/>
		</g>
	</g>
	<g id="XMLID_37_">
		<path id="XMLID_191_" class="st13" d="M608.3,425.7c-0.2-6.6-0.5-13.3-1-19.9c-0.5-8.1-7.3-14.4-15.4-14.4
			c-54.2,0-132.1,0-186.3,0c-14.5,0-27.3,9.5-31.2,23.4c-1,3.6-1.8,7.2-2.4,10.9H608.3z"/>
		<path id="XMLID_243_" class="st14" d="M409,405.8c54.2,0,132.1,0,186.3,0c5,0,9.4,2.4,12.3,6c-0.1-1.7-0.2-3.4-0.3-5.1
			c-0.5-8.1-7.3-14.4-15.4-14.4c-54.2,0-132.1,0-186.3,0c-14.5,0-27.3,9.5-31.2,23.4c-1,3.6-1.8,7.2-2.4,10.9h6.7
			C383.3,414.2,395.4,405.8,409,405.8z"/>
		<path id="XMLID_250_" class="st15" d="M607.3,406.8c-0.5-8.1-7.3-14.4-15.4-14.4c-54.2,0-132.1,0-186.3,0
			c-14.5,0-27.3,9.5-31.2,23.4c-1,3.6-1.8,7.2-2.4,10.9h0.2c0.3-1.2,0.6-2.4,0.9-3.6c3.9-13.9,16.7-23.4,31.2-23.4
			c54.2,0,132.1,0,186.3,0c6.4,0,11.9,3.8,14.2,9.4c1,0.8,2,1.7,2.8,2.8C607.5,410.1,607.4,408.5,607.3,406.8z"/>
		<path id="XMLID_36_" class="st5" d="M608.3,425.7c-0.2-6.6-0.5-13.3-1-19.9c-0.5-8.1-7.3-14.4-15.4-14.4c-54.2,0-132.1,0-186.3,0
			c-14.5,0-27.3,9.5-31.2,23.4c-1,3.6-1.8,7.2-2.4,10.9H608.3z"/>
		<path id="XMLID_193_" class="st13" d="M607.3,477c0.5-7.2,0.8-14.5,1-21.7l-5.4-3.4l-14.9,9.5l-14.9-9.5l-14.9,9.5l-14.9-9.5
			l-14.9,9.5l-14.9-9.5l-14.9,9.5l-14.9-9.5l-14.9,9.5l-14.9-9.5l-14.9,9.5l-14.9-9.5l-14.9,9.5l-14.9-9.5l-14.9,9.5l-7.7-4.9
			c0.6,3.9,1.4,7.7,2.5,11.5c3.9,13.9,16.7,23.4,31.2,23.4h186.3C600,491.3,606.8,485,607.3,477z"/>
		<path id="XMLID_244_" class="st16" d="M607.5,454.7c-0.2,3.8-0.4,7.6-0.6,11.4c-0.5,8.1-7.3,14.4-15.4,14.4H405.1
			c-14.2,0-26.8-9.2-31-22.6l-2.3-1.5c0.6,3.9,1.4,7.7,2.5,11.5c3.9,13.9,16.7,23.4,31.2,23.4h186.3c8.2,0,14.9-6.3,15.4-14.4
			c0.5-7.2,0.8-14.5,1-21.7L607.5,454.7z"/>
		<path id="XMLID_38_" class="st5" d="M607.3,477c0.5-7.2,0.8-14.5,1-21.7l-5.4-3.4l-14.9,9.5l-14.9-9.5l-14.9,9.5l-14.9-9.5
			l-14.9,9.5l-14.9-9.5l-14.9,9.5l-14.9-9.5l-14.9,9.5l-14.9-9.5l-14.9,9.5l-14.9-9.5l-14.9,9.5l-14.9-9.5l-14.9,9.5l-7.7-4.9
			c0.6,3.9,1.4,7.7,2.5,11.5c3.9,13.9,16.7,23.4,31.2,23.4h186.3C600,491.3,606.8,485,607.3,477z"/>
	</g>
	<circle id="XMLID_194_" class="st17" cx="479.9" cy="442.2" r="25.8"/>
	<circle id="XMLID_33_" class="st5" cx="479.9" cy="442.2" r="25.8"/>
	<rect id="XMLID_195_" x="608.9" y="464.3" class="st18" width="17.9" height="18.7"/>
	<rect id="XMLID_196_" x="608.9" y="464.3" class="st5" width="17.9" height="18.7"/>
	<rect id="XMLID_198_" x="608.9" y="406" class="st18" width="17.9" height="18.7"/>
	<rect id="XMLID_197_" x="608.9" y="406" class="st5" width="17.9" height="18.7"/>
	<line id="XMLID_200_" class="st5" x1="455.1" y1="447.7" x2="495.8" y2="422.7"/>
	<line id="XMLID_201_" class="st5" x1="465" y1="461.7" x2="505.6" y2="436.7"/>
</g>
<g>
	<path id="XMLID_205_" class="st4" d="M893.2,354.8H392.8c-9.2,0-16.7-7.5-16.7-16.7v-51.5c0-9.2,7.5-16.7,16.7-16.7h500.4
		c9.2,0,16.7,7.5,16.7,16.7v51.5C909.9,347.4,902.4,354.8,893.2,354.8z"/>
	<path id="XMLID_188_" class="st19" d="M880.8,342H380.4c-9.2,0-16.7-7.5-16.7-16.7v-51.5c0-9.2,7.5-16.7,16.7-16.7h500.4
		c9.2,0,16.7,7.5,16.7,16.7v51.5C897.5,334.5,890,342,880.8,342z"/>
	<path id="XMLID_27_" class="st5" d="M880.8,342H380.4c-9.2,0-16.7-7.5-16.7-16.7v-51.5c0-9.2,7.5-16.7,16.7-16.7h500.4
		c9.2,0,16.7,7.5,16.7,16.7v51.5C897.5,334.5,890,342,880.8,342z"/>
	<line id="XMLID_3_" class="st20" x1="391.9" y1="300.7" x2="863.3" y2="300.7"/>
	<g id="XMLID_2_">
		<g id="XMLID_122_">
			<line id="XMLID_127_" class="st21" x1="862.5" y1="257.1" x2="862.5" y2="274.2"/>
		</g>
		<g id="XMLID_116_">
			<line id="XMLID_121_" class="st21" x1="816.1" y1="257.1" x2="816.1" y2="274.2"/>
			<line id="XMLID_120_" class="st21" x1="828.3" y1="257.1" x2="828.3" y2="266"/>
			<line id="XMLID_119_" class="st21" x1="850.7" y1="257.1" x2="850.7" y2="266"/>
			<line id="XMLID_118_" class="st21" x1="839.5" y1="257.1" x2="839.5" y2="269.5"/>
		</g>
		<g id="XMLID_110_">
			<line id="XMLID_115_" class="st21" x1="769.8" y1="257.1" x2="769.8" y2="274.2"/>
			<line id="XMLID_114_" class="st21" x1="782" y1="257.1" x2="782" y2="266"/>
			<line id="XMLID_113_" class="st21" x1="804.3" y1="257.1" x2="804.3" y2="266"/>
			<line id="XMLID_112_" class="st21" x1="793.1" y1="257.1" x2="793.1" y2="269.5"/>
		</g>
		<g id="XMLID_104_">
			<line id="XMLID_109_" class="st21" x1="723.4" y1="257.1" x2="723.4" y2="274.2"/>
			<line id="XMLID_108_" class="st21" x1="735.6" y1="257.1" x2="735.6" y2="266"/>
			<line id="XMLID_107_" class="st21" x1="757.9" y1="257.1" x2="757.9" y2="266"/>
			<line id="XMLID_106_" class="st21" x1="746.7" y1="257.1" x2="746.7" y2="269.5"/>
		</g>
		<g id="XMLID_97_">
			<line id="XMLID_103_" class="st21" x1="677" y1="257.1" x2="677" y2="274.2"/>
			<line id="XMLID_102_" class="st21" x1="689.2" y1="257.1" x2="689.2" y2="266"/>
			<line id="XMLID_101_" class="st21" x1="711.5" y1="257.1" x2="711.5" y2="266"/>
			<line id="XMLID_100_" class="st21" x1="700.3" y1="257.1" x2="700.3" y2="269.5"/>
		</g>
		<g id="XMLID_91_">
			<line id="XMLID_96_" class="st21" x1="630.6" y1="257.1" x2="630.6" y2="274.2"/>
			<line id="XMLID_95_" class="st21" x1="642.8" y1="257.1" x2="642.8" y2="266"/>
			<line id="XMLID_94_" class="st21" x1="665.1" y1="257.1" x2="665.1" y2="266"/>
			<line id="XMLID_93_" class="st21" x1="654" y1="257.1" x2="654" y2="269.5"/>
		</g>
		<g id="XMLID_85_">
			<line id="XMLID_90_" class="st21" x1="584.2" y1="257.1" x2="584.2" y2="274.2"/>
			<line id="XMLID_89_" class="st21" x1="596.4" y1="257.1" x2="596.4" y2="266"/>
			<line id="XMLID_88_" class="st21" x1="618.7" y1="257.1" x2="618.7" y2="266"/>
			<line id="XMLID_87_" class="st21" x1="607.6" y1="257.1" x2="607.6" y2="269.5"/>
		</g>
		<g id="XMLID_79_">
			<line id="XMLID_84_" class="st21" x1="537.8" y1="257.1" x2="537.8" y2="274.2"/>
			<line id="XMLID_83_" class="st21" x1="550" y1="257.1" x2="550" y2="266"/>
			<line id="XMLID_82_" class="st21" x1="572.3" y1="257.1" x2="572.3" y2="266"/>
			<line id="XMLID_81_" class="st21" x1="561.2" y1="257.1" x2="561.2" y2="269.5"/>
		</g>
		<g id="XMLID_73_">
			<line id="XMLID_78_" class="st21" x1="491.4" y1="257.1" x2="491.4" y2="274.2"/>
			<line id="XMLID_77_" class="st21" x1="503.6" y1="257.1" x2="503.6" y2="266"/>
			<line id="XMLID_76_" class="st21" x1="526" y1="257.1" x2="526" y2="266"/>
			<line id="XMLID_75_" class="st21" x1="514.8" y1="257.1" x2="514.8" y2="269.5"/>
		</g>
		<g id="XMLID_67_">
			<line id="XMLID_72_" class="st21" x1="445" y1="257.1" x2="445" y2="274.2"/>
			<line id="XMLID_71_" class="st21" x1="457.2" y1="257.1" x2="457.2" y2="266"/>
			<line id="XMLID_70_" class="st21" x1="479.6" y1="257.1" x2="479.6" y2="266"/>
			<line id="XMLID_69_" class="st21" x1="468.4" y1="257.1" x2="468.4" y2="269.5"/>
		</g>
		<g id="XMLID_61_">
			<line id="XMLID_66_" class="st21" x1="398.6" y1="257.1" x2="398.6" y2="274.2"/>
			<line id="XMLID_65_" class="st21" x1="410.8" y1="257.1" x2="410.8" y2="266"/>
			<line id="XMLID_64_" class="st21" x1="433.2" y1="257.1" x2="433.2" y2="266"/>
			<line id="XMLID_63_" class="st21" x1="422" y1="257.1" x2="422" y2="269.5"/>
		</g>
	</g>
</g>
<g>
	<path id="XMLID_202_" class="st4" d="M900.5,466.4L548.7,710.6c-4.9,3.3-2.6,11,3.3,11h353.9c2.2,0,4-1.8,4-4V471.4
		C909.9,466.6,904.5,463.8,900.5,466.4z M696.4,671.8L860,553.5v118.3H696.4z"/>
	<g id="XMLID_28_">
		<path id="XMLID_155_" class="st19" d="M889.5,454.4L537.7,698.6c-4.9,3.3-2.6,11,3.3,11h353.9c2.2,0,4-1.8,4-4V459.4
			C898.9,454.6,893.5,451.8,889.5,454.4z M685.4,659.8L849,541.5v118.3H685.4z"/>
		<path id="XMLID_32_" class="st5" d="M889.5,454.4L537.7,698.6c-4.9,3.3-2.6,11,3.3,11h353.9c2.2,0,4-1.8,4-4V459.4
			C898.9,454.6,893.5,451.8,889.5,454.4z M685.4,659.8L849,541.5v118.3H685.4z"/>
		<g id="XMLID_6_">
			<g id="XMLID_150_">
				<line id="XMLID_154_" class="st21" x1="877.8" y1="709.4" x2="877.8" y2="692.9"/>
			</g>
			<g id="XMLID_145_">
				<line id="XMLID_149_" class="st21" x1="832.8" y1="709.4" x2="832.8" y2="692.9"/>
				<line id="XMLID_148_" class="st21" x1="844.6" y1="709.4" x2="844.6" y2="700.8"/>
				<line id="XMLID_147_" class="st21" x1="866.3" y1="709.4" x2="866.3" y2="700.8"/>
				<line id="XMLID_146_" class="st21" x1="855.4" y1="709.4" x2="855.4" y2="697.4"/>
			</g>
			<g id="XMLID_140_">
				<line id="XMLID_144_" class="st21" x1="787.8" y1="709.4" x2="787.8" y2="692.9"/>
				<line id="XMLID_143_" class="st21" x1="799.6" y1="709.4" x2="799.6" y2="700.8"/>
				<line id="XMLID_142_" class="st21" x1="821.3" y1="709.4" x2="821.3" y2="700.8"/>
				<line id="XMLID_141_" class="st21" x1="810.4" y1="709.4" x2="810.4" y2="697.4"/>
			</g>
			<g id="XMLID_135_">
				<line id="XMLID_139_" class="st21" x1="742.8" y1="709.4" x2="742.8" y2="692.9"/>
				<line id="XMLID_138_" class="st21" x1="754.6" y1="709.4" x2="754.6" y2="700.8"/>
				<line id="XMLID_137_" class="st21" x1="776.3" y1="709.4" x2="776.3" y2="700.8"/>
				<line id="XMLID_136_" class="st21" x1="765.4" y1="709.4" x2="765.4" y2="697.4"/>
			</g>
			<g id="XMLID_130_">
				<line id="XMLID_134_" class="st21" x1="697.8" y1="709.4" x2="697.8" y2="692.9"/>
				<line id="XMLID_133_" class="st21" x1="709.6" y1="709.4" x2="709.6" y2="700.8"/>
				<line id="XMLID_132_" class="st21" x1="731.3" y1="709.4" x2="731.3" y2="700.8"/>
				<line id="XMLID_131_" class="st21" x1="720.4" y1="709.4" x2="720.4" y2="697.4"/>
			</g>
			<g id="XMLID_124_">
				<line id="XMLID_129_" class="st21" x1="652.8" y1="709.4" x2="652.8" y2="692.9"/>
				<line id="XMLID_128_" class="st21" x1="664.6" y1="709.4" x2="664.6" y2="700.8"/>
				<line id="XMLID_126_" class="st21" x1="686.3" y1="709.4" x2="686.3" y2="700.8"/>
				<line id="XMLID_125_" class="st21" x1="675.4" y1="709.4" x2="675.4" y2="697.4"/>
			</g>
			<g id="XMLID_99_">
				<line id="XMLID_123_" class="st21" x1="607.8" y1="709.4" x2="607.8" y2="692.9"/>
				<line id="XMLID_117_" class="st21" x1="619.6" y1="709.4" x2="619.6" y2="700.8"/>
				<line id="XMLID_111_" class="st21" x1="641.3" y1="709.4" x2="641.3" y2="700.8"/>
				<line id="XMLID_105_" class="st21" x1="630.4" y1="709.4" x2="630.4" y2="697.4"/>
			</g>
			<g id="XMLID_74_">
				<line id="XMLID_98_" class="st21" x1="562.8" y1="709.4" x2="562.8" y2="692.9"/>
				<line id="XMLID_92_" class="st21" x1="574.6" y1="709.4" x2="574.6" y2="700.8"/>
				<line id="XMLID_86_" class="st21" x1="596.3" y1="709.4" x2="596.3" y2="700.8"/>
				<line id="XMLID_80_" class="st21" x1="585.4" y1="709.4" x2="585.4" y2="697.4"/>
			</g>
		</g>
		<g id="XMLID_5_">
			<g id="XMLID_177_">
				<line id="XMLID_181_" class="st21" x1="898" y1="509.2" x2="881.4" y2="509.2"/>
				<line id="XMLID_180_" class="st21" x1="898" y1="497.3" x2="889.3" y2="497.3"/>
				<line id="XMLID_179_" class="st21" x1="898" y1="475.7" x2="889.3" y2="475.7"/>
				<line id="XMLID_178_" class="st21" x1="898" y1="486.5" x2="885.9" y2="486.5"/>
			</g>
			<g id="XMLID_172_">
				<line id="XMLID_176_" class="st21" x1="898" y1="554.2" x2="881.4" y2="554.2"/>
				<line id="XMLID_175_" class="st21" x1="898" y1="542.3" x2="889.3" y2="542.3"/>
				<line id="XMLID_174_" class="st21" x1="898" y1="520.7" x2="889.3" y2="520.7"/>
				<line id="XMLID_173_" class="st21" x1="898" y1="531.5" x2="885.9" y2="531.5"/>
			</g>
			<g id="XMLID_167_">
				<line id="XMLID_171_" class="st21" x1="898" y1="599.2" x2="881.4" y2="599.2"/>
				<line id="XMLID_170_" class="st21" x1="898" y1="587.3" x2="889.3" y2="587.3"/>
				<line id="XMLID_169_" class="st21" x1="898" y1="565.7" x2="889.3" y2="565.7"/>
				<line id="XMLID_168_" class="st21" x1="898" y1="576.5" x2="885.9" y2="576.5"/>
			</g>
			<g id="XMLID_162_">
				<line id="XMLID_166_" class="st21" x1="898" y1="644.2" x2="881.4" y2="644.2"/>
				<line id="XMLID_165_" class="st21" x1="898" y1="632.3" x2="889.3" y2="632.3"/>
				<line id="XMLID_164_" class="st21" x1="898" y1="610.7" x2="889.3" y2="610.7"/>
				<line id="XMLID_163_" class="st21" x1="898" y1="621.5" x2="885.9" y2="621.5"/>
			</g>
			<g id="XMLID_157_">
				<line id="XMLID_161_" class="st21" x1="898" y1="689.2" x2="881.4" y2="689.2"/>
				<line id="XMLID_160_" class="st21" x1="898" y1="677.3" x2="889.3" y2="677.3"/>
				<line id="XMLID_159_" class="st21" x1="898" y1="655.7" x2="889.3" y2="655.7"/>
				<line id="XMLID_158_" class="st21" x1="898" y1="666.5" x2="885.9" y2="666.5"/>
			</g>
		</g>
	</g>
</g>
<g>
	<g id="XMLID_215_">
		<path id="XMLID_214_" class="st4" d="M535.4,636.4H394.3c-5.9,0-10.7-4.8-10.7-10.7v-55.6c0-5.9,4.8-10.7,10.7-10.7h141.2
			c5.9,0,10.7,4.8,10.7,10.7v55.6C546.1,631.6,541.3,636.4,535.4,636.4z"/>
		<path id="XMLID_213_" class="st4" d="M503.8,642.7h-94.7c-3,0-5.5-2.5-5.5-5.5v-79.7c0-3,2.5-5.5,5.5-5.5h94.7
			c3,0,5.5,2.5,5.5,5.5v79.7C509.3,640.2,506.9,642.7,503.8,642.7z"/>
	</g>
	<path id="XMLID_186_" class="st7" d="M526.4,626.4H385.3c-5.9,0-10.7-4.8-10.7-10.7v-55.6c0-5.9,4.8-10.7,10.7-10.7h141.2
		c5.9,0,10.7,4.8,10.7,10.7v55.6C537.1,621.6,532.3,626.4,526.4,626.4z"/>
	<path id="XMLID_234_" class="st6" d="M499.6,626.4h-104c-5.9,0-10.7-4.8-10.7-10.7v-55.6c0-5.9,4.8-10.7,10.7-10.7h104
		c5.9,0,10.7,4.8,10.7,10.7v55.6C510.3,621.6,505.5,626.4,499.6,626.4z"/>
	<path id="XMLID_49_" class="st5" d="M526.4,626.4H385.3c-5.9,0-10.7-4.8-10.7-10.7v-55.6c0-5.9,4.8-10.7,10.7-10.7h141.2
		c5.9,0,10.7,4.8,10.7,10.7v55.6C537.1,621.6,532.3,626.4,526.4,626.4z"/>
	<path id="XMLID_187_" class="st22" d="M494.8,632.7h-94.7c-3,0-5.5-2.5-5.5-5.5v-79.7c0-3,2.5-5.5,5.5-5.5h94.7
		c3,0,5.5,2.5,5.5,5.5v79.7C500.3,630.2,497.9,632.7,494.8,632.7z"/>
	<path id="XMLID_229_" class="st23" d="M494.8,632.7h-94.7c-3,0-5.5-2.5-5.5-5.5v-1.3c0-3,2.5-5.5,5.5-5.5h94.7c3,0,5.5,2.5,5.5,5.5
		v1.3C500.3,630.2,497.9,632.7,494.8,632.7z"/>
	<path id="XMLID_236_" class="st24" d="M494.8,555.6h-94.7c-3,0-5.5-2.5-5.5-5.5v-1.3c0-3,2.5-5.5,5.5-5.5h94.7c3,0,5.5,2.5,5.5,5.5
		v1.3C500.3,553.1,497.9,555.6,494.8,555.6z"/>
	<path id="XMLID_60_" class="st5" d="M494.8,632.7h-94.7c-3,0-5.5-2.5-5.5-5.5v-79.7c0-3,2.5-5.5,5.5-5.5h94.7c3,0,5.5,2.5,5.5,5.5
		v79.7C500.3,630.2,497.9,632.7,494.8,632.7z"/>
	<line id="XMLID_207_" class="st25" x1="416" y1="570.3" x2="471" y2="570.3"/>
	<line id="XMLID_208_" class="st25" x1="416" y1="587.9" x2="439" y2="587.9"/>
</g>
</svg>
