<?xml version="1.0" encoding="utf-8"?>
<!-- Generator: Adobe Illustrator 23.1.1, SVG Export Plug-In . SVG Version: 6.00 Build 0)  -->
<svg version="1.1" id="Layer_1" xmlns="http://www.w3.org/2000/svg" xmlns:xlink="http://www.w3.org/1999/xlink" x="0px" y="0px"
	 viewBox="0 0 1000 1000" style="enable-background:new 0 0 1000 1000;" xml:space="preserve">
<style type="text/css">
	.st0{fill:#F4F4F4;}
	.st1{fill:#050505;}
	.st2{font-family:'Gilroy-Medium';}
	.st3{font-size:10.8999px;}
	.st4{letter-spacing:2;}
	.st5{font-family:'Gilroy-SemiBold';}
	.st6{font-size:17.7073px;}
	.st7{fill:#493B3B;}
	.st8{fill:#C1A7A7;}
	.st9{fill:none;stroke:#493B3B;stroke-width:6;stroke-linecap:round;stroke-linejoin:round;stroke-miterlimit:10;}
	.st10{fill:none;stroke:#493B3B;stroke-width:4;stroke-linecap:round;stroke-linejoin:round;stroke-miterlimit:10;}
	.st11{fill:#E2A86D;}
	.st12{fill:#D6975F;}
	.st13{filter:url(#Adobe_OpacityMaskFilter);}
	.st14{mask:url(#XMLID_6_);}
	.st15{fill:none;stroke:#CC894C;stroke-width:6;stroke-linecap:round;stroke-linejoin:round;stroke-miterlimit:10;}
	.st16{fill:#E5D6D6;}
	.st17{fill:#EFE6E6;}
	.st18{opacity:0.2;fill:#2D2D2D;stroke:#2D2D2D;stroke-width:8;stroke-linecap:round;stroke-linejoin:round;stroke-miterlimit:10;}
	.st19{fill:#DBC8C8;}
	.st20{fill:#845B5B;}
	.st21{fill:#704848;}
	.st22{fill:none;stroke:#493B3B;stroke-width:3;stroke-linecap:round;stroke-linejoin:round;stroke-miterlimit:10;}
	.st23{fill:none;stroke:#493B3B;stroke-width:8;stroke-linecap:round;stroke-linejoin:round;stroke-miterlimit:10;}
	.st24{fill:#B57F7F;}
	.st25{opacity:0.34;fill:#FFFFFF;}
	.st26{fill:#AD6D6D;}
	.st27{fill:#4C3535;}
	.st28{fill:#3F2E2E;}
	.st29{fill:#6A4949;}
	.st30{opacity:0.38;fill:#FFFFFF;}
	.st31{fill:#443636;}
</style>
<rect id="XMLID_5_" class="st0" width="1000" height="1000"/>
<g>
	<g>
		<path class="st1" d="M63.2,959.2c0,2.5-1.2,3.7-2.6,3.7c-1.1,0-1.9-0.5-2.1-1.4c-0.4,0.5-1,0.8-1.8,0.8c-1.5,0-2.6-1.2-2.6-2.8
			c0-1.6,1.1-2.8,2.6-2.8c0.7,0,1.2,0.3,1.6,0.7v-0.5h1.6v3.9c0,0.8,0.3,1.4,1,1.4c0.9,0,1.7-0.9,1.7-3c0-3-2.3-5.3-5.4-5.3
			c-3.1,0-5.6,2.4-5.6,5.7c0,3.3,2.5,5.7,5.9,5.7c1.1,0,2.1-0.2,2.9-0.4v0.6c-0.8,0.3-1.7,0.4-2.9,0.4c-3.7,0-6.5-2.6-6.5-6.2
			c0-3.4,2.7-6.2,6.2-6.2C61.1,953.3,63.2,956.4,63.2,959.2z M58.3,959.5c0-0.8-0.6-1.4-1.3-1.4c-0.8,0-1.3,0.5-1.3,1.4
			c0,0.8,0.6,1.3,1.3,1.3C57.8,960.9,58.3,960.3,58.3,959.5z"/>
		<path class="st1" d="M69.4,955.1v2c-1.2-0.1-2.6,0.5-2.6,2.4v4.3h-1.9v-8.6h1.9v1.4C67.3,955.5,68.3,955.1,69.4,955.1z"/>
		<path class="st1" d="M74.6,962.3c1,0,1.8-0.5,2.2-1.1l1.5,0.9c-0.8,1.2-2.1,1.9-3.8,1.9c-2.8,0-4.7-1.9-4.7-4.5
			c0-2.5,1.8-4.5,4.5-4.5c2.6,0,4.3,2.1,4.3,4.5c0,0.3,0,0.5-0.1,0.8h-6.8C72.1,961.6,73.2,962.3,74.6,962.3z M76.9,958.8
			c-0.3-1.5-1.3-2.1-2.5-2.1c-1.4,0-2.3,0.8-2.6,2.1H76.9z"/>
		<path class="st1" d="M88.9,955.2v8.6h-1.9v-1.2c-0.7,0.9-1.7,1.5-3,1.5c-2.3,0-4.3-2-4.3-4.5c0-2.6,1.9-4.5,4.3-4.5
			c1.3,0,2.3,0.5,3,1.4v-1.2H88.9z M87.1,959.5c0-1.6-1.2-2.7-2.7-2.7c-1.5,0-2.7,1.1-2.7,2.7c0,1.6,1.2,2.7,2.7,2.7
			C85.9,962.3,87.1,961.1,87.1,959.5z"/>
		<path class="st1" d="M91.1,951.3H93v12.5h-1.9V951.3z"/>
		<path class="st1" d="M102.9,955.2l-3.3,8.6h-2.1l-3.3-8.6h2l2.4,6.5l2.4-6.5H102.9z"/>
		<path class="st1" d="M104.2,955.2h1.9v8.9c0,2.4-1.2,3.5-3.5,3.3v-1.8c1.1,0.1,1.7-0.3,1.7-1.5V955.2z M104,952.8
			c0-0.7,0.5-1.2,1.2-1.2c0.7,0,1.2,0.5,1.2,1.2c0,0.6-0.5,1.2-1.2,1.2C104.5,954,104,953.4,104,952.8z"/>
		<path class="st1" d="M116,955.2l-3.3,8.8c-0.8,2.2-2.2,3.3-4.2,3.2v-1.7c1.2,0.1,1.9-0.5,2.3-1.7l0.1-0.2l-3.6-8.4h2l2.6,6.2
			l2.2-6.2H116z"/>
	</g>
	<text transform="matrix(1 0 0 1 204.4707 942.5098)" class="st1 st2 st3 st4">DAY 07</text>
	<text transform="matrix(1 0 0 1 51.4707 942.5098)" class="st1 st2 st3 st4">DESIGNED BY</text>
	<text transform="matrix(1 0 0 1 204.2139 964.2959)" class="st1 st5 st6">Vintage Camera</text>
	<path class="st1" d="M841.3,942.5h-1v-7.6h1.1l2.4,4l2.4-4h1.1v7.6h-1v-6l-2.5,4.2h-0.1l-2.5-4.1V942.5z M858.8,938.7
		c0,2.2-1.7,4-4,4c-2.2,0-3.9-1.8-3.9-4c0-2.2,1.7-4,3.9-4C857.1,934.7,858.8,936.5,858.8,938.7z M857.8,938.7c0-1.7-1.3-3-2.9-3
		c-1.7,0-2.9,1.3-2.9,3c0,1.7,1.3,3,2.9,3C856.6,941.7,857.8,940.4,857.8,938.7z M866.2,939.5l1.8,3.1h-1.1l-1.7-2.9h-1.8v2.9h-1
		v-7.6h3c1.3,0,2.4,1.1,2.4,2.4C867.8,938.2,867.1,939.1,866.2,939.5z M865.4,938.7c0.8,0,1.4-0.6,1.4-1.4c0-0.8-0.6-1.4-1.4-1.4h-2
		v2.8H865.4z M875.9,941.6h-3.5v-2.4h3.2v-0.9h-3.2v-2.3h3.5v-1h-4.5v7.6h4.6V941.6z M844.2,962.2l-2.5-6.7h-2.1l3.5,8.9h2.2
		l3.5-8.9h-2.1L844.2,962.2z M850,964.3h1.9v-8.9H850V964.3z M851,951.7c-0.7,0-1.2,0.5-1.2,1.2c0,0.7,0.5,1.2,1.2,1.2
		c0.7,0,1.2-0.6,1.2-1.2C852.2,952.2,851.6,951.7,851,951.7z M855.2,951.7c-0.7,0-1.2,0.5-1.2,1.2c0,0.7,0.5,1.2,1.2,1.2
		c0.7,0,1.2-0.6,1.2-1.2C856.5,952.2,855.9,951.7,855.2,951.7z M854.3,964.7c0,1.2-0.5,1.7-1.7,1.6v1.8c2.4,0.2,3.6-1,3.6-3.4v-9.2
		h-1.9V964.7z M865.4,955.4h1.9v8.9h-1.9V963c-0.7,0.9-1.7,1.5-3.1,1.5c-2.4,0-4.4-2-4.4-4.7c0-2.6,2-4.7,4.4-4.7
		c1.4,0,2.4,0.6,3.1,1.5V955.4z M865.4,959.9c0-1.6-1.2-2.8-2.8-2.8c-1.6,0-2.8,1.2-2.8,2.8c0,1.6,1.2,2.8,2.8,2.8
		C864.2,962.7,865.4,961.5,865.4,959.9z M873.3,961.9l-2.6-6.4h-2.1l3.8,8.7l-0.1,0.2c-0.4,1.2-1.1,1.8-2.4,1.7v1.8
		c2,0.1,3.5-1,4.3-3.3l3.4-9.1h-2L873.3,961.9z M882.3,962.2l-2.5-6.7h-2.1l3.5,8.9h2.2l3.5-8.9h-2.1L882.3,962.2z M896.4,959.9
		c0,0.3,0,0.5-0.1,0.8h-7c0.3,1.4,1.4,2.1,2.8,2.1c1.1,0,1.9-0.5,2.3-1.1l1.6,0.9c-0.8,1.2-2.1,1.9-3.9,1.9c-2.9,0-4.8-2-4.8-4.7
		c0-2.6,1.9-4.7,4.7-4.7C894.5,955.2,896.4,957.3,896.4,959.9z M894.4,959.1c-0.3-1.5-1.4-2.2-2.5-2.2c-1.4,0-2.4,0.8-2.7,2.2H894.4
		z M899.9,956.9v-1.5H898v8.9h1.9v-4.5c0-2,1.5-2.6,2.7-2.5v-2.1C901.6,955.3,900.5,955.7,899.9,956.9z M913.8,955.2
		c-1.2,0-2.1,0.5-2.7,1.4c-0.5-0.9-1.4-1.4-2.5-1.4c-1.1,0-2,0.4-2.5,1.3v-1.1h-1.9v8.9h1.9v-5c0-1.6,0.9-2.3,2-2.3
		c1,0,1.7,0.7,1.7,1.9v5.4h1.9v-5c0-1.6,0.8-2.3,1.9-2.3c1,0,1.7,0.7,1.7,1.9v5.4h1.9v-5.5C917.1,956.6,915.8,955.2,913.8,955.2z
		 M926.2,955.4h1.9v8.9h-1.9V963c-0.7,0.9-1.7,1.5-3.1,1.5c-2.4,0-4.4-2-4.4-4.7c0-2.6,2-4.7,4.4-4.7c1.4,0,2.4,0.6,3.1,1.5V955.4z
		 M926.2,959.9c0-1.6-1.2-2.8-2.8-2.8c-1.6,0-2.8,1.2-2.8,2.8c0,1.6,1.2,2.8,2.8,2.8C925,962.7,926.2,961.5,926.2,959.9z
		 M931.5,961.9c-0.7,0-1.3,0.6-1.3,1.3c0,0.7,0.6,1.3,1.3,1.3c0.7,0,1.3-0.6,1.3-1.3C932.8,962.4,932.2,961.9,931.5,961.9z
		 M938.3,962.6c-1.6,0-2.7-1.2-2.7-2.8c0-1.6,1.2-2.8,2.7-2.8c1.1,0,1.9,0.5,2.3,1.4l1.6-1c-0.7-1.4-2.2-2.3-3.9-2.3
		c-2.7,0-4.7,2-4.7,4.7c0,2.6,2,4.7,4.7,4.7c1.7,0,3.2-0.9,4-2.3l-1.6-0.9C940.2,962.1,939.3,962.6,938.3,962.6z M952.4,959.9
		c0,2.6-2.1,4.7-4.7,4.7c-2.6,0-4.7-2-4.7-4.7c0-2.6,2.1-4.7,4.7-4.7C950.3,955.2,952.4,957.2,952.4,959.9z M950.5,959.9
		c0-1.6-1.2-2.8-2.8-2.8s-2.8,1.2-2.8,2.8c0,1.6,1.2,2.8,2.8,2.8S950.5,961.5,950.5,959.9z"/>
</g>
<ellipse id="XMLID_1_" class="st7" cx="500" cy="660.7" rx="325" ry="29"/>
<path id="XMLID_89_" class="st8" d="M403.5,384.6h-84v-14c0-8.8,7.2-16,16-16h52c8.8,0,16,7.2,16,16V384.6z"/>
<path id="XMLID_2_" class="st9" d="M403.5,384.6h-84v-14c0-8.8,7.2-16,16-16h52c8.8,0,16,7.2,16,16V384.6z"/>
<g id="XMLID_190_">
	<g id="XMLID_217_">
		<line id="XMLID_218_" class="st10" x1="398.8" y1="357.9" x2="398.8" y2="384.6"/>
	</g>
	<g id="XMLID_214_">
		<line id="XMLID_215_" class="st10" x1="389.8" y1="357.9" x2="389.8" y2="384.6"/>
	</g>
	<g id="XMLID_211_">
		<line id="XMLID_212_" class="st10" x1="380.8" y1="357.9" x2="380.8" y2="384.6"/>
	</g>
	<g id="XMLID_208_">
		<line id="XMLID_209_" class="st10" x1="371.8" y1="357.9" x2="371.8" y2="384.6"/>
	</g>
	<g id="XMLID_205_">
		<line id="XMLID_206_" class="st10" x1="362.8" y1="357.9" x2="362.8" y2="384.6"/>
	</g>
	<g id="XMLID_202_">
		<line id="XMLID_203_" class="st10" x1="353.8" y1="357.9" x2="353.8" y2="384.6"/>
	</g>
	<g id="XMLID_199_">
		<line id="XMLID_200_" class="st10" x1="344.8" y1="357.9" x2="344.8" y2="384.6"/>
	</g>
	<g id="XMLID_196_">
		<line id="XMLID_197_" class="st10" x1="335.8" y1="357.9" x2="335.8" y2="384.6"/>
	</g>
	<g id="XMLID_193_">
		<line id="XMLID_194_" class="st10" x1="326.8" y1="357.9" x2="326.8" y2="384.6"/>
	</g>
</g>
<path id="XMLID_53_" class="st11" d="M744.9,348.7h-322c-8.9,0-17.1,4.3-22.5,11.3c-11.3,15-29.3,24.7-49.5,24.7h-118v252
	c0,13.3,10.7,24,24,24h488c13.3,0,24-10.7,24-24v-264C768.9,359.4,758.1,348.7,744.9,348.7z"/>
<rect id="XMLID_80_" x="232.9" y="428.4" class="st12" width="29" height="204.1"/>
<rect id="XMLID_111_" x="739.9" y="428.4" class="st12" width="29" height="204.1"/>
<defs>
	<filter id="Adobe_OpacityMaskFilter" filterUnits="userSpaceOnUse" x="188.8" y="373.6" width="622.5" height="343.2">
		<feColorMatrix  type="matrix" values="1 0 0 0 0  0 1 0 0 0  0 0 1 0 0  0 0 0 1 0"/>
	</filter>
</defs>
<mask maskUnits="userSpaceOnUse" x="188.8" y="373.6" width="622.5" height="343.2" id="XMLID_6_">
	<g id="XMLID_30_" class="st13">
		<rect id="XMLID_33_" x="232.9" y="428.2" class="st11" width="536" height="204.4"/>
	</g>
</mask>
<g id="XMLID_69_" class="st14">
	<g id="XMLID_336_">
		<g id="XMLID_358_">
			<path id="XMLID_359_" class="st15" d="M280.3,407.8c56,33.1,81.8,97.6,64.5,153c-20.4,65.5-90.4,84.5-94.5,85.5"/>
		</g>
		<path id="XMLID_357_" class="st15" d="M300.2,575.8c-24,26-68.3,36.4-108.4,16.5"/>
		<path id="XMLID_356_" class="st15" d="M205.3,436.3c60.7,5.1,106,40.7,112.5,82.5c0.3,2.2,3.1,21.6-5.4,41.7"/>
		<path id="XMLID_355_" class="st15" d="M194.8,496.3c24-17,46.4-18.8,67.2-8.7c14.6,7.2,32.7,25,30.6,38.7
			c-3.6,24-44.6,52.2-79.9,51"/>
		<path id="XMLID_354_" class="st15" d="M250.3,498.4c2.8,2.2,18,10.8,14.6,29.7c-1.1,6.2-16.8,28.1-43.1,23.7"/>
		<path id="XMLID_353_" class="st15" d="M206.8,521.8c13.7-10.1,34.4-19.7,43.5-4.4"/>
		<path id="XMLID_352_" class="st15" d="M206.8,631.3c9.8,0.8,66.9,4.4,103.5-36c9.5-10.5,15.6-21.7,19.5-31.5"/>
		<path id="XMLID_351_" class="st15" d="M337.3,407.8c7.1,16.7,25.7,53.2,64.5,70.5c58.4,26.1,140.3-1.2,192-73.5"/>
		<path id="XMLID_350_" class="st15" d="M385.3,409.3c0.7,5.4,3.6,22.2,18,36c19.4,18.6,44.1,16.8,48,16.5"/>
		<path id="XMLID_349_" class="st15" d="M397.1,594.3c-14-9.1-35-23.9-35-66.1c0-13.9,4.3-21.7,7.6-23.5
			c11.5-6.2,48.3,35.1,95.1,47.1c36.4,9.4,96.9-13.2,182.6-85.7"/>
		<path id="XMLID_348_" class="st15" d="M676.2,415.3c-31.4,4-93.9,17.1-133.5,67.5c-2.2,2.7-26,33.3-19.5,40.5
			c4.3,4.7,36.9-46.2,98.6-68.9c14.9-5.5,27.9-8,36.9-9.3"/>
		<path id="XMLID_347_" class="st15" d="M301.3,674.8c7.3-35.2,29.4-59,52.5-60c0.8,0,20-0.6,28.5,12c10.2,15.2,1.7,45-27,69"/>
		<path id="XMLID_346_" class="st15" d="M350.1,597.8c27.3-2.8,51.7,11,64.3,32.9c16.1,27.7,13.4,61.2-15.7,83.1"/>
		<path id="XMLID_345_" class="st15" d="M674.1,473.3c-4.3,4.9-26,21.3-34.5,26.1c-44.2,25-50.3,11.6-94,61.1
			c-23.6,26.7-44.1,91.9-79.4,136.8"/>
		<path id="XMLID_344_" class="st15" d="M721.6,376.6c-0.8,26.2-14.7,54.9-35.2,81.7"/>
		<path id="XMLID_343_" class="st15" d="M796.2,437.8c-9.3,1.3-63.9,10.1-94.5,58.5c-3.9,6.1-16.9,27.3-18,55.5
			c-1.9,48.7,32.9,97,87,124.5"/>
		<path id="XMLID_342_" class="st15" d="M724,583.9c8.8,31.1,40.5,56.4,79.7,65.5"/>
		<path id="XMLID_341_" class="st15" d="M797.7,494.8c-32.2,6-65.5,26.5-73.4,53.3c-1.7,5.7-2.6,11.4-2.7,17"/>
		<path id="XMLID_340_" class="st15" d="M569.7,697.3c12.5-71.9,52.6-107.4,74.2-121.6c22.2-14.5,46.2-8.5,24.7,31.6
			c-15.2,28.4,0.9,69-33,94.5"/>
		<path id="XMLID_339_" class="st15" d="M808.2,526.3c-37.2,5.5-58.8,25.5-57,39c1.5,11.1,19.2,20.5,40.5,24"/>
		<path id="XMLID_338_" class="st15" d="M652.2,548.8c4.4-17.4,15.9-52.5,46.5-85.5c34-36.7,72.7-50.5,90-55.5"/>
		<path id="XMLID_337_" class="st15" d="M624.7,636.4c-1.9-18,5.7-31.8,15.3-34c1.7-0.4,12.2-1.3,12.2,12.4"/>
	</g>
</g>
<g id="XMLID_120_">
	<path id="XMLID_117_" class="st16" d="M390.1,615.9l50.3-22.2L421,549.8L370.7,572c-12.1,5.4-17.6,19.5-12.3,31.6l0,0
		C363.8,615.8,378,621.2,390.1,615.9z"/>
	<path id="XMLID_106_" class="st9" d="M390.1,615.9l50.3-22.2L421,549.8L370.7,572c-12.1,5.4-17.6,19.5-12.3,31.6l0,0
		C363.8,615.8,378,621.2,390.1,615.9z"/>
	<circle id="XMLID_119_" class="st17" cx="380.4" cy="593.9" r="14.4"/>
	<circle id="XMLID_110_" class="st10" cx="380.4" cy="593.9" r="14.4"/>
</g>
<path id="XMLID_55_" class="st16" d="M232.9,632.5v4.1c0,13.3,10.7,24,24,24h488c13.3,0,24-10.7,24-24v-4.1H232.9z"/>
<path id="XMLID_147_" class="st18" d="M500.9,431.3c-62.7,0-113.5,51-113.5,113.8c0,8,0.8,15.8,2.4,23.4l-19.1,8.4
	c-12.1,5.4-17.6,19.5-12.3,31.6v0c5.4,12.1,19.5,17.6,31.6,12.3l19.2-8.5c20.6,28.3,54,46.6,91.6,46.6c62.7,0,113.5-51,113.5-113.8
	C614.4,482.3,563.6,431.3,500.9,431.3z"/>
<path id="XMLID_153_" class="st19" d="M744.9,660.7h-5v-28.1h29v4.1C768.9,649.9,758.1,660.7,744.9,660.7z"/>
<path id="XMLID_133_" class="st19" d="M256.9,660.7h5v-28.1h-29v4.1C232.9,649.9,243.6,660.7,256.9,660.7z"/>
<path id="XMLID_54_" class="st16" d="M744.9,348.4h-322c-8.9,0-17.2,4.3-22.5,11.4c-11.3,15.1-29.3,24.8-49.5,24.8h-118v43.8h536
	v-55.9C768.9,359.2,758.1,348.4,744.9,348.4z"/>
<rect id="XMLID_4_" x="232.9" y="385.6" class="st19" width="29" height="42.8"/>
<path id="XMLID_166_" class="st8" d="M600.1,412.6h-335c-1.8,0-3.3-1.5-3.3-3.3l0,0c0-1.8,1.5-3.3,3.3-3.3h335
	c1.8,0,3.3,1.5,3.3,3.3l0,0C603.4,411.1,601.9,412.6,600.1,412.6z"/>
<path id="XMLID_142_" class="st19" d="M744.8,348.4h-5v80h29v-56C768.8,359.2,758.1,348.4,744.8,348.4z"/>
<ellipse id="XMLID_22_" class="st16" cx="500.9" cy="528.2" rx="113.5" ry="113.8"/>
<circle id="XMLID_90_" class="st20" cx="500.9" cy="528.2" r="91"/>
<path id="XMLID_126_" class="st21" d="M500.9,457.2c46.8,0,85.5,35.5,90.4,81c0.4-3.3,0.6-6.6,0.6-10c0-50.2-40.8-91-91-91
	s-91,40.8-91,91c0,3.4,0.2,6.7,0.6,10C415.4,492.7,454.1,457.2,500.9,457.2z"/>
<path id="XMLID_52_" class="st9" d="M744.9,348.7h-322c-8.9,0-17.1,4.3-22.5,11.3c-11.3,15-29.3,24.7-49.5,24.7h-118v252
	c0,13.3,10.7,24,24,24h488c13.3,0,24-10.7,24-24v-264C768.9,359.4,758.1,348.7,744.9,348.7z"/>
<circle id="XMLID_24_" class="st22" cx="500.9" cy="528.2" r="102.5"/>
<circle id="XMLID_25_" class="st23" cx="500.9" cy="528.2" r="91"/>
<circle id="XMLID_82_" class="st24" cx="500.9" cy="528.2" r="62"/>
<path id="XMLID_91_" class="st25" d="M543.6,528.2c30,0,46.5,35,27.3,58c-16.7,20.1-41.9,33-70,33c-28.1,0-53.3-12.8-70-33
	c-19.2-23.1-2.6-58,27.3-58H543.6z"/>
<path id="XMLID_108_" class="st26" d="M500.9,486.2c30.8,0,56.4,22.6,61.2,52c0.5-3.3,0.8-6.6,0.8-10c0-34.2-27.8-62-62-62
	s-62,27.8-62,62c0,3.4,0.3,6.7,0.8,10C444.5,508.7,470.1,486.2,500.9,486.2z"/>
<circle id="XMLID_27_" class="st9" cx="500.9" cy="528.2" r="62"/>
<circle id="XMLID_84_" class="st27" cx="500.9" cy="528.2" r="37"/>
<circle id="XMLID_37_" class="st22" cx="500.9" cy="528.2" r="37"/>
<circle id="XMLID_85_" class="st28" cx="500.9" cy="528.2" r="23.5"/>
<path id="XMLID_150_" class="st29" d="M308.3,384.6H256v-10c0-3.3,2.7-6,6-6h40.3c3.3,0,6,2.7,6,6V384.6z"/>
<path id="XMLID_20_" class="st9" d="M308.3,384.6H256v-10c0-3.3,2.7-6,6-6h40.3c3.3,0,6,2.7,6,6V384.6z"/>
<rect id="XMLID_29_" x="264.2" y="356.7" class="st9" width="36" height="11.9"/>
<rect id="XMLID_115_" x="264.2" y="356.7" class="st7" width="36" height="11.9"/>
<ellipse id="XMLID_79_" class="st23" cx="500.9" cy="528.2" rx="113.5" ry="113.8"/>
<path id="XMLID_98_" class="st30" d="M500.9,504.7c-13,0-23.5,10.5-23.5,23.5c0,0.1,0,0.1,0,0.2c3.1-2.6,7.7-4,13.8-3.5
	c6.1,0.5,7.2,2.4,14,4.4c6,1.7,13.7,1.1,19.2-1.6C524.1,514.9,513.7,504.7,500.9,504.7z"/>
<circle id="XMLID_26_" class="st22" cx="500.9" cy="528.2" r="76"/>
<circle id="XMLID_86_" class="st23" cx="500.9" cy="528.2" r="91"/>
<path id="XMLID_114_" class="st31" d="M714.4,420.4h-85.7c-6.5,0-11.8-5.3-11.8-11.8v-34.2c0-6.5,5.3-11.8,11.8-11.8h85.7
	c6.5,0,11.8,5.3,11.8,11.8v34.2C726.2,415.1,720.9,420.4,714.4,420.4z"/>
<path id="XMLID_151_" class="st10" d="M714.4,420.4h-85.7c-6.5,0-11.8-5.3-11.8-11.8v-34.2c0-6.5,5.3-11.8,11.8-11.8h85.7
	c6.5,0,11.8,5.3,11.8,11.8v34.2C726.2,415.1,720.9,420.4,714.4,420.4z"/>
<path id="XMLID_149_" class="st20" d="M706.9,414.4h-70.7c-5.5,0-10-4.5-10-10v-25.8c0-5.5,4.5-10,10-10h70.7c5.5,0,10,4.5,10,10
	v25.8C716.9,410,712.4,414.4,706.9,414.4z"/>
<path id="XMLID_395_" class="st30" d="M689.6,414.4l27.2-37.2c-0.7-4.8-4.8-8.6-9.9-8.6h-3.2l-33.4,45.8H689.6z"/>
<polygon id="XMLID_394_" class="st30" points="663,414.4 696.4,368.6 690.5,368.6 657.1,414.4 "/>
</svg>
