<?xml version="1.0" encoding="utf-8"?>
<!-- Generator: Adobe Illustrator 23.1.1, SVG Export Plug-In . SVG Version: 6.00 Build 0)  -->
<svg version="1.1" id="Layer_1" xmlns="http://www.w3.org/2000/svg" xmlns:xlink="http://www.w3.org/1999/xlink" x="0px" y="0px"
	 viewBox="0 0 1000 1000" style="enable-background:new 0 0 1000 1000;" xml:space="preserve">
<style type="text/css">
	.st0{fill:#FFFFFF;}
	.st1{fill:#474747;}
	.st2{opacity:0.15;}
	.st3{fill:none;stroke:#474747;stroke-width:6;stroke-linecap:round;stroke-linejoin:round;stroke-miterlimit:10;}
	.st4{fill:none;stroke:#313031;stroke-width:6;stroke-linecap:round;stroke-linejoin:round;stroke-miterlimit:10;}
	.st5{fill:#EFAB59;}
	.st6{fill:#FB9437;}
	.st7{fill:#FDBA61;}
	.st8{fill:#FCA649;}
	.st9{opacity:0.7;fill:#FFCB92;enable-background:new    ;}
	.st10{fill:#8C7B5F;}
	.st11{fill:#736247;}
	.st12{opacity:0.2;}
	.st13{fill:#FA8128;}
	.st14{opacity:0.4;fill:#FDBA61;enable-background:new    ;}
	.st15{opacity:0.4;}
	.st16{opacity:0.7;}
	.st17{fill:#A9A9A9;stroke:#FB9437;stroke-width:6;stroke-linecap:round;stroke-linejoin:round;stroke-miterlimit:10;}
	.st18{fill:none;stroke:#FB9437;stroke-width:6;stroke-linecap:round;stroke-linejoin:round;stroke-miterlimit:10;}
	.st19{fill:#D51C29;}
	.st20{fill:#6AB36F;stroke:#474747;stroke-width:6;stroke-linecap:round;stroke-linejoin:round;stroke-miterlimit:10;}
	.st21{fill:#88CE8E;}
</style>
<rect id="XMLID_34_" class="st0" width="1000" height="1000"/>
<g>
	<g>
		<g>
			<path class="st1" d="M63.2,959.2c0,2.5-1.2,3.7-2.6,3.7c-1.1,0-1.9-0.5-2.1-1.4c-0.4,0.5-1,0.8-1.8,0.8c-1.5,0-2.6-1.2-2.6-2.8
				s1.1-2.8,2.6-2.8c0.7,0,1.2,0.3,1.6,0.7v-0.5h1.6v3.9c0,0.8,0.3,1.4,1,1.4c0.9,0,1.7-0.9,1.7-3c0-3-2.3-5.3-5.4-5.3
				c-3.1,0-5.6,2.4-5.6,5.7s2.5,5.7,5.9,5.7c1.1,0,2.1-0.2,2.9-0.4v0.6c-0.8,0.3-1.7,0.4-2.9,0.4c-3.7,0-6.5-2.6-6.5-6.2
				c0-3.4,2.7-6.2,6.2-6.2C61.1,953.3,63.2,956.4,63.2,959.2z M58.3,959.5c0-0.8-0.6-1.4-1.3-1.4c-0.8,0-1.3,0.5-1.3,1.4
				c0,0.8,0.6,1.3,1.3,1.3C57.8,960.9,58.3,960.3,58.3,959.5z"/>
		</g>
		<g>
			<path class="st1" d="M69.4,955.1v2c-1.2-0.1-2.6,0.5-2.6,2.4v4.3h-1.9v-8.6h1.9v1.4C67.3,955.5,68.3,955.1,69.4,955.1z"/>
		</g>
		<g>
			<path class="st1" d="M74.6,962.3c1,0,1.8-0.5,2.2-1.1l1.5,0.9c-0.8,1.2-2.1,1.9-3.8,1.9c-2.8,0-4.7-1.9-4.7-4.5
				c0-2.5,1.8-4.5,4.5-4.5c2.6,0,4.3,2.1,4.3,4.5c0,0.3,0,0.5-0.1,0.8h-6.8C72.1,961.6,73.2,962.3,74.6,962.3z M76.9,958.8
				c-0.3-1.5-1.3-2.1-2.5-2.1c-1.4,0-2.3,0.8-2.6,2.1H76.9z"/>
		</g>
		<g>
			<path class="st1" d="M88.9,955.2v8.6H87v-1.2c-0.7,0.9-1.7,1.5-3,1.5c-2.3,0-4.3-2-4.3-4.5c0-2.6,1.9-4.5,4.3-4.5
				c1.3,0,2.3,0.5,3,1.4v-1.2L88.9,955.2L88.9,955.2z M87.1,959.5c0-1.6-1.2-2.7-2.7-2.7s-2.7,1.1-2.7,2.7c0,1.6,1.2,2.7,2.7,2.7
				C85.9,962.3,87.1,961.1,87.1,959.5z"/>
		</g>
		<g>
			<path class="st1" d="M91.1,951.3H93v12.5h-1.9V951.3z"/>
		</g>
		<g>
			<path class="st1" d="M102.9,955.2l-3.3,8.6h-2.1l-3.3-8.6h2l2.4,6.5l2.4-6.5H102.9z"/>
		</g>
		<g>
			<path class="st1" d="M104.2,955.2h1.9v8.9c0,2.4-1.2,3.5-3.5,3.3v-1.8c1.1,0.1,1.7-0.3,1.7-1.5L104.2,955.2L104.2,955.2z
				 M104,952.8c0-0.7,0.5-1.2,1.2-1.2s1.2,0.5,1.2,1.2c0,0.6-0.5,1.2-1.2,1.2S104,953.4,104,952.8z"/>
		</g>
		<g>
			<path class="st1" d="M116,955.2l-3.3,8.8c-0.8,2.2-2.2,3.3-4.2,3.2v-1.7c1.2,0.1,1.9-0.5,2.3-1.7l0.1-0.2l-3.6-8.4h2l2.6,6.2
				l2.2-6.2L116,955.2L116,955.2z"/>
		</g>
	</g>
	<g>
		<path class="st1" d="M211.9,938.7c0,2.1-1.5,3.8-3.6,3.8h-3v-7.6h3C210.4,934.9,211.9,936.6,211.9,938.7z M210.9,938.7
			c0-1.6-1.1-2.9-2.6-2.9h-2v5.7h2C209.8,941.6,210.9,940.3,210.9,938.7z"/>
		<path class="st1" d="M219.5,940.8h-3.4l-0.6,1.7h-1.1l2.8-7.6h1.1l2.8,7.6H220L219.5,940.8z M219.2,939.9l-1.4-3.8l-1.4,3.8H219.2
			z"/>
		<path class="st1" d="M226.4,939.4v3.1h-1v-3.1l-2.7-4.5h1.1l2.1,3.6l2.1-3.6h1.1L226.4,939.4z"/>
		<path class="st1" d="M242.1,940.4c0,1.4-1.1,2.2-2.6,2.2s-2.6-0.8-2.6-2.2c0-0.8,0.5-1.5,1.2-1.9c-0.6-0.3-0.9-0.9-0.9-1.7
			c0-1.5,1.2-2.2,2.4-2.2s2.4,0.7,2.4,2.2c0,0.8-0.4,1.3-0.9,1.7C241.7,938.9,242.1,939.6,242.1,940.4z M241.1,940.4
			c0-0.9-0.7-1.3-1.6-1.3c-0.9,0-1.6,0.4-1.6,1.3c0,0.9,0.7,1.3,1.6,1.3C240.5,941.7,241.1,941.2,241.1,940.4z M238.2,936.9
			c0,0.8,0.6,1.2,1.4,1.2c0.7,0,1.4-0.4,1.4-1.2s-0.6-1.2-1.4-1.2S238.2,936.1,238.2,936.9z"/>
		<path class="st1" d="M245.3,938.7c0-2.4,1.1-4,2.9-4c1.9,0,2.9,1.6,2.9,4s-1,4-2.9,4C246.4,942.7,245.3,941,245.3,938.7z
			 M250.2,938.7c0-1.9-0.7-3-1.9-3s-1.9,1.1-1.9,3s0.7,3,1.9,3S250.2,940.6,250.2,938.7z"/>
	</g>
	<g>
		<path class="st1" d="M58.9,938.7c0,2.1-1.5,3.8-3.6,3.8h-3v-7.6h3C57.4,934.9,58.9,936.6,58.9,938.7z M57.9,938.7
			c0-1.6-1.1-2.9-2.6-2.9h-2v5.7h2C56.8,941.6,57.9,940.3,57.9,938.7z"/>
		<path class="st1" d="M67,941.6v1h-4.6V935h4.5v1h-3.5v2.3h3.2v0.9h-3.2v2.4L67,941.6L67,941.6z"/>
		<path class="st1" d="M70,940.8l0.9-0.5c0.3,0.8,0.9,1.4,2,1.4s1.6-0.5,1.6-1.2c0-0.8-0.7-1-1.8-1.4c-1.2-0.4-2.4-0.8-2.4-2.2
			s1.1-2.2,2.4-2.2s2.2,0.7,2.6,1.7l-0.8,0.5c-0.3-0.7-0.8-1.2-1.7-1.2c-0.8,0-1.4,0.4-1.4,1.1c0,0.7,0.5,1,1.6,1.3
			c1.3,0.4,2.6,0.8,2.6,2.3c0,1.3-1.1,2.2-2.6,2.2C71.5,942.7,70.4,941.9,70,940.8z"/>
		<path class="st1" d="M80,934.9v7.6h-1v-7.6H80z"/>
		<path class="st1" d="M91.3,939.2c0,1.9-1.4,3.5-3.7,3.5c-2.4,0-4-1.8-4-4s1.7-4,4-4c1.4,0,2.7,0.8,3.3,1.8L90,937
			c-0.4-0.8-1.4-1.4-2.4-1.4c-1.8,0-3,1.3-3,3s1.2,3,3,3c1.6,0,2.5-0.9,2.7-2h-2.8v-0.9h3.8V939.2z"/>
		<path class="st1" d="M100.6,934.9v7.6h-0.8l-3.9-5.7v5.7h-1v-7.6h0.8l3.9,5.7v-5.7H100.6z"/>
		<path class="st1" d="M109.1,941.6v1h-4.6V935h4.5v1h-3.5v2.3h3.2v0.9h-3.2v2.4L109.1,941.6L109.1,941.6z"/>
		<path class="st1" d="M119.2,938.7c0,2.1-1.5,3.8-3.6,3.8h-3v-7.6h3C117.6,934.9,119.2,936.6,119.2,938.7z M118.2,938.7
			c0-1.6-1.1-2.9-2.6-2.9h-2v5.7h2C117.1,941.6,118.2,940.3,118.2,938.7z"/>
		<path class="st1" d="M133.2,940.4c0,1.2-1,2.2-2.2,2.2h-3.3V935h3c1.2,0,2.1,0.9,2.1,2.1c0,0.7-0.3,1.2-0.8,1.6
			C132.7,938.9,133.2,939.5,133.2,940.4z M128.7,935.8v2.3h2c0.6,0,1.1-0.5,1.1-1.2c0-0.6-0.5-1.2-1.1-1.2h-2V935.8z M132.2,940.3
			c0-0.7-0.5-1.2-1.2-1.2h-2.3v2.5h2.3C131.7,941.6,132.2,941,132.2,940.3z"/>
		<path class="st1" d="M139.4,939.4v3.1h-1v-3.1l-2.7-4.5h1.1l2.1,3.6l2.1-3.6h1.1L139.4,939.4z"/>
	</g>
	<g>
		<path class="st1" d="M213.5,953.9H210v10.4h-2v-10.4h-3.5V952h9V953.9z"/>
		<path class="st1" d="M217.6,962.8c1.1,0,1.9-0.5,2.3-1.1l1.6,0.9c-0.8,1.2-2.1,1.9-3.9,1.9c-2.9,0-4.8-2-4.8-4.7
			c0-2.6,1.9-4.7,4.7-4.7c2.6,0,4.4,2.1,4.4,4.7c0,0.3,0,0.5-0.1,0.8h-7C215.1,962.1,216.2,962.8,217.6,962.8z M220,959.1
			c-0.3-1.5-1.4-2.2-2.5-2.2c-1.4,0-2.4,0.8-2.7,2.2H220z"/>
		<path class="st1" d="M232.5,955.4v8.9h-1.9V963c-0.7,0.9-1.7,1.5-3.1,1.5c-2.4,0-4.4-2-4.4-4.7c0-2.6,2-4.7,4.4-4.7
			c1.4,0,2.4,0.6,3.1,1.5v-1.3h1.9V955.4z M230.6,959.9c0-1.6-1.2-2.8-2.8-2.8s-2.8,1.2-2.8,2.8s1.2,2.8,2.8,2.8
			C229.4,962.7,230.6,961.5,230.6,959.9z"/>
	</g>
	<g>
		<g>
			<g>
				<path class="st1" d="M846.1,938.7c0,2.1-1.5,3.8-3.6,3.8h-3v-7.6h3C844.6,934.9,846.1,936.6,846.1,938.7z M845.2,938.7
					c0-1.6-1.1-2.9-2.6-2.9h-2v5.7h2C844.1,941.6,845.2,940.3,845.2,938.7z"/>
			</g>
			<g>
				<path class="st1" d="M849.3,938.7c0-2.2,1.7-4,3.9-4s4,1.8,4,4s-1.7,4-4,4C851,942.7,849.3,940.9,849.3,938.7z M856.1,938.7
					c0-1.7-1.3-3-2.9-3c-1.7,0-2.9,1.3-2.9,3s1.3,3,2.9,3C854.9,941.7,856.1,940.4,856.1,938.7z"/>
			</g>
			<g>
				<path class="st1" d="M859.8,934.9h1.1l1.7,6.3l1.9-6.3h1l1.9,6.3l1.7-6.3h1.1l-2.2,7.6h-1.2l-1.8-6.1l-1.8,6.1H862L859.8,934.9z
					"/>
			</g>
			<g>
				<path class="st1" d="M879.3,934.9v7.6h-0.8l-3.9-5.7v5.7h-1v-7.6h0.8l3.9,5.7v-5.7H879.3z"/>
			</g>
			<g>
				<path class="st1" d="M887.5,941.6v1h-4.3V935h1v6.7h3.3V941.6z"/>
			</g>
			<g>
				<path class="st1" d="M889.9,938.7c0-2.2,1.7-4,3.9-4s4,1.8,4,4s-1.7,4-4,4C891.6,942.7,889.9,940.9,889.9,938.7z M896.8,938.7
					c0-1.7-1.3-3-2.9-3c-1.7,0-2.9,1.3-2.9,3s1.3,3,2.9,3S896.8,940.4,896.8,938.7z"/>
			</g>
			<g>
				<path class="st1" d="M905.4,940.8H902l-0.6,1.7h-1.1l2.8-7.6h1.1l2.8,7.6h-1L905.4,940.8z M905.1,939.9l-1.4-3.8l-1.4,3.8H905.1
					z"/>
			</g>
			<g>
				<path class="st1" d="M916.9,938.7c0,2.1-1.5,3.8-3.6,3.8h-3v-7.6h3C915.4,934.9,916.9,936.6,916.9,938.7z M915.9,938.7
					c0-1.6-1.1-2.9-2.6-2.9h-2v5.7h2C914.9,941.6,915.9,940.3,915.9,938.7z"/>
			</g>
			<g>
				<path class="st1" d="M926.5,935.8v2.5h3.2v1h-3.2v3.2h-1v-7.6h4.4v1h-3.4V935.8z"/>
			</g>
			<g>
				<path class="st1" d="M936.2,939.6h-1.8v2.9h-1v-7.6h3c1.3,0,2.4,1.1,2.4,2.4c0,1-0.7,1.9-1.6,2.2l1.8,3.1h-1.1L936.2,939.6z
					 M934.4,938.7h2c0.8,0,1.4-0.6,1.4-1.4c0-0.8-0.6-1.4-1.4-1.4h-2V938.7z"/>
			</g>
			<g>
				<path class="st1" d="M941.9,938.7c0-2.2,1.7-4,3.9-4s4,1.8,4,4s-1.7,4-4,4C943.6,942.7,941.9,940.9,941.9,938.7z M948.8,938.7
					c0-1.7-1.3-3-2.9-3c-1.7,0-2.9,1.3-2.9,3s1.3,3,2.9,3S948.8,940.4,948.8,938.7z"/>
			</g>
			<g>
				<path class="st1" d="M960.4,942.5h-1v-6l-2.5,4.2h-0.1l-2.5-4.1v5.9h-1v-7.6h1.1l2.4,4l2.4-4h1.1L960.4,942.5L960.4,942.5z"/>
			</g>
		</g>
		<g>
			<g>
				<path class="st1" d="M839.3,952.9c0-0.7,0.5-1.2,1.2-1.2s1.2,0.5,1.2,1.2s-0.5,1.2-1.2,1.2C839.9,954.1,839.3,953.6,839.3,952.9
					z M839.6,955.4h1.9v8.9h-1.9V955.4z"/>
			</g>
			<g>
				<path class="st1" d="M843.7,951.4h1.9v12.9h-1.9V951.4z"/>
			</g>
			<g>
				<path class="st1" d="M847.8,951.4h1.9v12.9h-1.9V951.4z"/>
			</g>
			<g>
				<path class="st1" d="M852,951.4h1.9v12.9H852V951.4z"/>
			</g>
			<g>
				<path class="st1" d="M864,955.4v8.9h-1.9v-1.1c-0.6,0.9-1.5,1.4-2.7,1.4c-2,0-3.4-1.3-3.4-3.6v-5.4h1.9v5.2c0,1.3,0.8,2.1,2,2.1
					c1.3,0,2.2-0.7,2.2-2.5v-4.7h1.9V955.4z"/>
			</g>
			<g>
				<path class="st1" d="M872.6,961.8c0,1.8-1.5,2.7-3.5,2.7c-1.8,0-3-0.8-3.6-2.1l1.6-1c0.3,0.8,1,1.3,2,1.3c0.8,0,1.5-0.3,1.5-1
					c0-1.6-4.8-0.7-4.8-3.9c0-1.7,1.4-2.7,3.2-2.7c1.5,0,2.7,0.7,3.3,1.8l-1.6,0.9c-0.3-0.7-0.9-1-1.7-1c-0.7,0-1.3,0.3-1.3,0.9
					C867.9,959.5,872.6,958.5,872.6,961.8z"/>
			</g>
			<g>
				<path class="st1" d="M876.7,957.3v4.2c0,1.1,0.7,1.1,2.2,1v1.7c-2.9,0.4-4.1-0.5-4.1-2.8v-4.2h-1.6v-1.8h1.6v-1.9l1.9-0.6v2.5
					h2.2v1.8L876.7,957.3L876.7,957.3z"/>
			</g>
			<g>
				<path class="st1" d="M885.4,955.3v2.1c-1.3-0.1-2.7,0.5-2.7,2.5v4.5h-1.9v-8.9h1.9v1.5C883.2,955.7,884.2,955.3,885.4,955.3z"/>
			</g>
			<g>
				<path class="st1" d="M895.3,955.4v8.9h-1.9V963c-0.7,0.9-1.7,1.5-3.1,1.5c-2.4,0-4.4-2-4.4-4.7c0-2.6,2-4.7,4.4-4.7
					c1.4,0,2.4,0.6,3.1,1.5v-1.3h1.9V955.4z M893.4,959.9c0-1.6-1.2-2.8-2.8-2.8s-2.8,1.2-2.8,2.8s1.2,2.8,2.8,2.8
					S893.4,961.5,893.4,959.9z"/>
			</g>
			<g>
				<path class="st1" d="M900.3,957.3v4.2c0,1.1,0.7,1.1,2.2,1v1.7c-2.9,0.4-4.1-0.5-4.1-2.8v-4.2h-1.6v-1.8h1.6v-1.9l1.9-0.6v2.5
					h2.2v1.8L900.3,957.3L900.3,957.3z"/>
			</g>
			<g>
				<path class="st1" d="M903.9,952.9c0-0.7,0.5-1.2,1.2-1.2s1.2,0.5,1.2,1.2s-0.5,1.2-1.2,1.2C904.5,954.1,903.9,953.6,903.9,952.9
					z M904.2,955.4h1.9v8.9h-1.9V955.4z"/>
			</g>
			<g>
				<path class="st1" d="M907.8,959.9c0-2.6,2.1-4.7,4.7-4.7c2.6,0,4.7,2,4.7,4.7c0,2.6-2.1,4.7-4.7,4.7
					C909.9,964.5,907.8,962.5,907.8,959.9z M915.3,959.9c0-1.6-1.2-2.8-2.8-2.8s-2.8,1.2-2.8,2.8s1.2,2.8,2.8,2.8
					S915.3,961.5,915.3,959.9z"/>
			</g>
			<g>
				<path class="st1" d="M927,958.9v5.4h-1.9v-5.2c0-1.3-0.8-2.1-2-2.1c-1.3,0-2.2,0.7-2.2,2.5v4.7H919v-8.9h1.9v1.1
					c0.6-0.9,1.5-1.4,2.7-1.4C925.5,955.2,927,956.6,927,958.9z"/>
			</g>
			<g>
				<path class="st1" d="M935.5,961.8c0,1.8-1.5,2.7-3.5,2.7c-1.8,0-3-0.8-3.6-2.1l1.6-1c0.3,0.8,1,1.3,2,1.3c0.8,0,1.5-0.3,1.5-1
					c0-1.6-4.8-0.7-4.8-3.9c0-1.7,1.4-2.7,3.2-2.7c1.5,0,2.7,0.7,3.3,1.8l-1.6,0.9c-0.3-0.7-0.9-1-1.7-1c-0.7,0-1.3,0.3-1.3,0.9
					C930.7,959.5,935.5,958.5,935.5,961.8z"/>
			</g>
			<g>
				<path class="st1" d="M936.8,963.2c0-0.7,0.6-1.3,1.3-1.3s1.3,0.6,1.3,1.3s-0.6,1.3-1.3,1.3C937.4,964.5,936.8,963.9,936.8,963.2
					z"/>
			</g>
			<g>
				<path class="st1" d="M940.3,959.9c0-2.6,2-4.7,4.7-4.7c1.7,0,3.2,0.9,3.9,2.3l-1.6,1c-0.4-0.8-1.3-1.4-2.3-1.4
					c-1.6,0-2.7,1.2-2.7,2.8s1.2,2.8,2.7,2.8c1.1,0,1.9-0.5,2.4-1.4l1.6,0.9c-0.7,1.4-2.2,2.3-4,2.3
					C942.3,964.5,940.3,962.5,940.3,959.9z"/>
			</g>
			<g>
				<path class="st1" d="M949.7,959.9c0-2.6,2.1-4.7,4.7-4.7c2.6,0,4.7,2,4.7,4.7c0,2.6-2.1,4.7-4.7,4.7
					C951.8,964.5,949.7,962.5,949.7,959.9z M957.2,959.9c0-1.6-1.2-2.8-2.8-2.8s-2.8,1.2-2.8,2.8s1.2,2.8,2.8,2.8
					S957.2,961.5,957.2,959.9z"/>
			</g>
		</g>
	</g>
</g>
<g id="XMLID_2_" class="st2">
	<line id="XMLID_73_" class="st3" x1="100.8" y1="714.7" x2="845.2" y2="714.7"/>
	<g id="XMLID_32_">
		<path id="XMLID_94_" class="st3" d="M196.2,498.2v-81.3c0-28.7,23.3-52,52-52h134.3c28.7,0,52,23.3,52,52V499"/>
		<path id="XMLID_88_" class="st3" d="M488.3,690.4h-64.9V514.2c0-8.8,7.2-16,16-16h32.9c8.8,0,16,7.2,16,16V690.4z"/>
		<rect id="XMLID_76_" x="423.4" y="690.4" class="st3" width="38.4" height="24"/>
		<rect id="XMLID_72_" x="168.4" y="690.4" class="st3" width="38.4" height="24"/>
		<path id="XMLID_70_" class="st3" d="M206.9,690.4H142V514.2c0-8.8,7.2-16,16-16h32.9c8.8,0,16,7.2,16,16V690.4z"/>
		<path id="XMLID_65_" class="st3" d="M207.2,638.8v-61.9c0-10.3,8.3-18.6,18.6-18.6h179.1c10.3,0,18.6,8.3,18.6,18.6v61.9H207.2z"
			/>
		<rect id="XMLID_64_" x="207.2" y="638.8" class="st3" width="216.2" height="45.7"/>
		<circle id="XMLID_128_" class="st4" cx="315.3" cy="464.9" r="7.6"/>
	</g>
	<rect id="XMLID_86_" x="424.4" y="182.7" class="st3" width="142.7" height="104.4"/>
	<rect id="XMLID_84_" x="438.3" y="196.6" class="st3" width="114.9" height="76.6"/>
	<polygon id="XMLID_83_" class="st3" points="459,257.9 477.2,226.3 495.4,257.9 	"/>
	<polyline id="XMLID_82_" class="st3" points="486.3,242.1 498.4,221.1 519.7,257.9 495.4,257.9 	"/>
	<circle id="XMLID_81_" class="st3" cx="527.8" cy="218.2" r="8.1"/>
	<polyline id="XMLID_66_" class="st3" points="817.4,315.1 738,315.1 738,353.8 817.4,353.8 	"/>
	<line id="XMLID_63_" class="st3" x1="658.7" y1="353.8" x2="738" y2="353.8"/>
	<line id="XMLID_62_" class="st3" x1="738" y1="315.1" x2="707.7" y2="315.1"/>
	<rect id="XMLID_60_" x="698.4" y="353.8" class="st3" width="79.3" height="38.7"/>
	<polyline id="XMLID_56_" class="st3" points="805,392.7 738,392.7 738,431.4 763.7,431.4 	"/>
	<rect id="XMLID_53_" x="658.7" y="392.6" class="st3" width="79.3" height="38.7"/>
</g>
<g id="XMLID_39_">
	<path id="XMLID_4_" class="st5" d="M705.5,406.9h-28.4l5,25.8l21.4-2.8c12.7,0,24,6,31.1,16.5s8.5,23.3,3.8,35.1l-31.9,77.8
		l6.5,33.9l44-109.9C771.7,446.6,744.8,406.9,705.5,406.9z"/>
	<path id="XMLID_55_" class="st6" d="M681.7,407.4c0,0,30.1-4.4,48.4,33.5c-12.2-8.2-25.8-13.6-48-8.2
		C677.1,406.9,681.7,407.4,681.7,407.4z"/>
	<polygon id="XMLID_52_" class="st6" points="719.1,527.7 721.9,571 712.6,590.4 704.1,558.3 	"/>
	<path id="XMLID_43_" class="st3" d="M705.5,406.9h-28.4l5,25.8l21.4-2.8c12.7,0,24,6,31.1,16.5s8.5,23.3,3.8,35.1l-31.9,77.8
		l6.5,33.9l44-109.9C771.7,446.6,744.8,406.9,705.5,406.9z"/>
	<path id="XMLID_40_" class="st7" d="M679.4,714.7H507.5c-31.4,0-55.2-24.6-50-51.6l53.2-275.3h165.4l53.2,275.3
		C734.6,690.1,710.7,714.7,679.4,714.7z"/>
	<path id="XMLID_41_" class="st7" d="M679.4,714.7H507.5c-31.4,0-55.2-24.6-50-51.6l53.2-275.3h165.4l53.2,275.3
		C734.6,690.1,710.7,714.7,679.4,714.7z"/>
	<path id="XMLID_42_" class="st7" d="M679.4,714.7H507.5c-31.4,0-55.2-24.6-50-51.6l53.2-275.3h165.4l53.2,275.3
		C734.6,690.1,710.7,714.7,679.4,714.7z"/>
	<path id="XMLID_48_" class="st8" d="M556.5,680.8l9.1-268.1l0.8-24.8h-55.8l-53.2,275.3c-5.2,27,18.6,51.6,50,51.6h103.3
		C581.8,714.7,555.9,699.1,556.5,680.8z"/>
	<path id="XMLID_46_" class="st6" d="M511.7,673.6l33.5-285.7h-34.5l-53.2,275.3c-5.2,27,18.6,51.6,50,51.6h59.4
		C535.5,714.7,509.1,695.5,511.7,673.6z"/>
	<rect id="XMLID_50_" x="510.6" y="389.8" class="st9" width="167.1" height="6.4"/>
	<path id="XMLID_3_" class="st3" d="M679.4,714.7H507.5c-31.4,0-55.2-24.6-50-51.6l53.2-275.3h165.4l53.2,275.3
		C734.6,690.1,710.7,714.7,679.4,714.7z"/>
	<path id="XMLID_44_" class="st10" d="M676.2,387.8c-21.3-21-50.5-34-82.8-34s-61.5,13-82.8,34H676.2z"/>
	<path id="XMLID_49_" class="st10" d="M676.2,387.8c-21.3-21-50.5-34-82.8-34s-61.5,13-82.8,34H676.2z"/>
	<path id="XMLID_54_" class="st11" d="M510.6,387.8h165.6c-4.4-3.3-9.2-6.2-14.3-8.9l-52.3-3.9c-13-1-26.2-0.9-39.2,0.2l-45.5,3.8
		C519.9,381.6,515.1,384.6,510.6,387.8z"/>
	<g id="XMLID_47_" class="st12">
		<path class="st0" d="M650.4,368.5c0.1,2.8-24.7-6.3-57-6.1c-32.3-0.2-57.1,8.9-57,6.1c-0.1-2.4,24.7-15.8,57-15.6
			C625.7,352.7,650.6,366.1,650.4,368.5z"/>
	</g>
	<path id="XMLID_7_" class="st3" d="M676.2,387.8c-21.3-21-50.5-34-82.8-34s-61.5,13-82.8,34H676.2z"/>
	<path id="XMLID_45_" class="st6" d="M497.4,458.6l-36.2-61.2c-2-3.3,0.4-7.6,4.3-7.6h45.1L497.4,458.6z"/>
	<path id="XMLID_51_" class="st13" d="M500,389.8l-4.4,22.8c-1.4,7.3-16.8,12.8-20.6,6.3l-11.4-21c-3.9,0-4.3-4-2.3-0.6l36.2,61.2
		l13.2-68.8H500V389.8z"/>
	<path id="XMLID_58_" class="st9" d="M461.2,394.5l1.7,1.8h45.7l2-6.4h-45.1C461.7,389.8,459.3,392.4,461.2,394.5z"/>
	<path id="XMLID_5_" class="st3" d="M497.4,458.6l-36.2-61.2c-2-3.3,0.4-7.6,4.3-7.6h45.1L497.4,458.6z"/>
	<path id="XMLID_6_" class="st3" d="M569,356.3v-12.1c0-13.5,10.9-24.4,24.4-24.4l0,0c13.5,0,24.4,10.9,24.4,24.4v12.1"/>
	<line id="XMLID_35_" class="st3" x1="652.8" y1="438.1" x2="684.3" y2="623"/>
	<path id="XMLID_57_" class="st14" d="M470.3,552.6l-21.6,105.9c-3.7,17.9,6.9,34.7,24.4,43.1c32.4-20.4,53.8-55.3,53.8-94.8v-54.3
		L470.3,552.6L470.3,552.6z"/>
</g>
<path id="XMLID_8_" class="st6" d="M291.9,571c-27.2,0-49.2,22-49.2,49.2l0,0c0,27.2,22,49.2,49.2,49.2l0,0
	c27.2,0,49.2-22,49.2-49.2V571H291.9z M313.5,620.2c0,11.9-9.7,21.6-21.6,21.6l0,0c-11.9,0-21.6-9.7-21.6-21.6l0,0
	c0-11.9,9.7-21.6,21.6-21.6h21.6V620.2z"/>
<path id="XMLID_22_" class="st6" d="M291.9,571c-27.2,0-49.2,22-49.2,49.2l0,0c0,27.2,22,49.2,49.2,49.2l0,0
	c27.2,0,49.2-22,49.2-49.2V571H291.9z M313.5,620.2c0,11.9-9.7,21.6-21.6,21.6l0,0c-11.9,0-21.6-9.7-21.6-21.6l0,0
	c0-11.9,9.7-21.6,21.6-21.6h21.6V620.2z"/>
<g id="XMLID_37_" class="st15">
	<path id="XMLID_38_" class="st9" d="M247.3,625L247.3,625c0-27.2,22-49.2,49.2-49.2h43.6V569h-49.2c-27.2,0-49.2,22-49.2,49.2l0,0
		c0,13.5,5.4,25.7,14.2,34.6C250.5,644.9,247.3,635.3,247.3,625z"/>
</g>
<path id="XMLID_31_" class="st13" d="M294.5,571c-0.5,0-3.6,0-4.1,0h11.1c-2.4,0-3.4,4-5.6,17.1c-0.9,5.3-10,5.1-14.7,8.5
	c-5.5,3.9-10.5,12.6-10.5,19.9l0.3-1.2c0,1.7-0.4-1.6,0,0c2.1-9.1,9.9-15.9,19.5-16.6l0,0c0.2,0,0.4,0,0.5,0c0.3,0,0.7,0,1,0h21.6
	v21.6c0,10.9-8.1,19.9-18.7,21.4c0,0.1,0,0.1,0,0.2c2.7,9.9-6.4,19.2-16.2,16.1c-18.9-6-33.9-24.4-35.7-42.5
	c-0.2,1.6-0.2,3.3-0.2,4.9l0,0c0,27.2,22,49.2,49.2,49.2l0,0c8.1,0,15.8-2,22.5-5.5l0,0c0.6-0.3,1.1-0.6,1.7-0.9l0,0
	c2.3-1.3,4.4-2.8,6.5-4.4l0,0c0.5-0.4,0.9-0.7,1.3-1.1c0.1-0.1,0.2-0.2,0.3-0.2c0.4-0.4,0.8-0.7,1.2-1.1c0.1-0.1,0.2-0.2,0.3-0.3
	c0.4-0.4,0.8-0.8,1.2-1.2c0.1-0.1,0.3-0.3,0.5-0.4c1-0.3,1.8-0.9,2-1.8c0.3-1,0.9-1.7,1.5-2.4c0.3-0.4,0.5-0.7,0.8-1.1
	c0.2-0.2,0.3-0.5,0.5-0.7c0.2-0.3,0.5-0.7,0.7-1s0.3-0.5,0.5-0.8s0.4-0.7,0.6-1s0.4-0.6,0.5-0.9c0.3-0.5,0.6-1,0.8-1.5
	c0.2-0.4,0.4-0.8,0.7-1.3c0.1-0.3,0.3-0.6,0.4-0.9c0.2-0.4,0.3-0.7,0.5-1.1c0.1-0.3,0.3-0.6,0.4-0.9c0.2-0.4,0.3-0.8,0.5-1.2
	c0.1-0.3,0.2-0.6,0.3-0.9c0.2-0.4,0.3-0.9,0.4-1.3c0.1-0.3,0.2-0.6,0.3-0.8c0.2-0.6,0.3-1.2,0.5-1.8c0-0.1,0.1-0.2,0.1-0.4
	c0.2-0.7,0.3-1.4,0.5-2.2c0.1-0.2,0.1-0.5,0.1-0.7c0.1-0.5,0.2-1,0.3-1.5c0-0.3,0.1-0.6,0.1-0.9c0.1-0.5,0.1-1,0.2-1.5
	c0-0.3,0.1-0.6,0.1-0.9c0-0.5,0.1-1.1,0.1-1.6c0-0.2,0-0.5,0-0.7c0-0.8,0.1-1.6,0.1-2.3v-9.9V571H294.5z"/>
<path id="XMLID_20_" class="st3" d="M291.9,571c-27.2,0-49.2,22-49.2,49.2l0,0c0,27.2,22,49.2,49.2,49.2l0,0
	c27.2,0,49.2-22,49.2-49.2V571H291.9z M313.5,620.2c0,11.9-9.7,21.6-21.6,21.6l0,0c-11.9,0-21.6-9.7-21.6-21.6l0,0
	c0-11.9,9.7-21.6,21.6-21.6h21.6V620.2z"/>
<path id="XMLID_11_" class="st7" d="M415.5,714.7L415.5,714.7c-58.6,0-106.1-47.5-106.1-106.1v-57.3h212.3v57.3
	C521.7,667.2,474.1,714.7,415.5,714.7z"/>
<g id="XMLID_29_" class="st16">
	<polygon id="XMLID_28_" class="st17" points="485.8,661.3 453.3,661.3 453.3,628.6 469.6,610.3 485.8,628.6 	"/>
	<line id="XMLID_27_" class="st18" x1="469.6" y1="551.3" x2="469.6" y2="610.3"/>
</g>
<path id="XMLID_26_" class="st8" d="M370.1,608.6v-57.3h-60.8v57.3c0,58.6,47.5,106.1,106.1,106.1l0,0c10.6,0,20.8-1.5,30.4-4.4
	C402.1,697.2,370.1,656.6,370.1,608.6z"/>
<path id="XMLID_25_" class="st6" d="M341.2,608.6v-57.3h-31.8v57.3c0,58.6,47.5,106.1,106.1,106.1l0,0c5.4,0,10.7-0.4,15.9-1.2
	C380.4,705.9,341.2,661.8,341.2,608.6z"/>
<rect id="XMLID_30_" x="309.4" y="552.1" class="st9" width="212.3" height="7.1"/>
<path id="XMLID_1_" class="st3" d="M415.5,714.7L415.5,714.7c-58.6,0-106.1-47.5-106.1-106.1v-57.3h212.3v57.3
	C521.7,667.2,474.1,714.7,415.5,714.7z"/>
<polygon id="XMLID_21_" class="st19" points="479.8,655.3 447.3,655.3 447.3,622.6 463.6,604.3 479.8,622.6 "/>
<polygon id="XMLID_9_" class="st20" points="479.8,655.3 447.3,655.3 447.3,622.6 463.6,604.3 479.8,622.6 "/>
<polygon id="XMLID_36_" class="st21" points="453.3,628.6 469.2,610.7 463.6,604.3 447.3,622.6 447.3,655.3 453.3,655.3 "/>
<line id="XMLID_12_" class="st3" x1="463.6" y1="551.3" x2="463.6" y2="604.3"/>
<path id="XMLID_13_" class="st3" d="M405.1,387.8c-7.8,11.2-12.4,29.7-12.2,40c0.8,38,26.3,38.1,30.5,64.1c1.1,6.9-1.1,18-7.9,35.7"
	/>
<path id="XMLID_14_" class="st3" d="M435,422.2c-2.9,5.4-7.7,18.3,10.4,39.8c19.6,23.2,15,47,8.7,65.7"/>
<path id="XMLID_15_" class="st3" d="M356.4,432c-10.6,25.4,5.1,42.3,22.6,60.6c13.7,14.4-0.1,37.7-4.6,42.5"/>
<line id="XMLID_16_" class="st3" x1="502.6" y1="570" x2="502.6" y2="610.8"/>
<polygon id="XMLID_33_" class="st3" points="479.8,655.3 447.3,655.3 447.3,622.6 463.6,604.3 479.8,622.6 "/>
</svg>
