<?xml version="1.0" encoding="utf-8"?>
<!-- Generator: Adobe Illustrator 23.1.1, SVG Export Plug-In . SVG Version: 6.00 Build 0)  -->
<svg version="1.1" id="Layer_1" xmlns="http://www.w3.org/2000/svg" xmlns:xlink="http://www.w3.org/1999/xlink" x="0px" y="0px"
	 viewBox="0 0 1000 1000" style="enable-background:new 0 0 1000 1000;" xml:space="preserve">
<style type="text/css">
	.st0{fill:#FFFFFF;}
	.st1{fill:#C5342F;}
	.st2{display:none;fill:none;stroke:#474747;stroke-width:6;stroke-linecap:round;stroke-linejoin:round;stroke-miterlimit:10;}
	.st3{fill:none;stroke:#622F2F;stroke-width:8;stroke-linecap:round;stroke-linejoin:round;stroke-miterlimit:10;}
	.st4{fill:#F37443;}
	.st5{fill:none;stroke:#F04B4B;stroke-width:4;stroke-linecap:round;stroke-linejoin:round;stroke-miterlimit:10;}
	.st6{fill:none;stroke:#FFFDEB;stroke-width:2;stroke-linecap:round;stroke-linejoin:round;stroke-miterlimit:10;}
	.st7{fill:#FFFDFD;}
	.st8{fill:#EE562B;}
	.st9{fill:#C22B24;}
	.st10{fill:#F06134;}
	.st11{fill:#F99F38;}
	.st12{fill:#F67D20;}
	.st13{opacity:0.4;fill:#931C1C;}
	.st14{fill:#F7932F;}
	.st15{opacity:0.3;fill:#D8542B;}
	.st16{fill:#EE202E;}
	.st17{fill:none;stroke:#FFFFFF;stroke-width:3;stroke-linecap:round;stroke-linejoin:round;stroke-miterlimit:10;}
	.st18{fill:none;stroke:#622F2F;stroke-width:4;stroke-linecap:round;stroke-linejoin:round;stroke-miterlimit:10;}
	.st19{opacity:0.6;}
	.st20{fill:none;stroke:#DF5E4C;stroke-width:6;stroke-linecap:round;stroke-linejoin:round;stroke-miterlimit:10;}
	.st21{fill:none;stroke:#F7931E;stroke-width:6;stroke-linecap:round;stroke-linejoin:round;stroke-miterlimit:10;}
	.st22{fill:none;stroke:#622F2F;stroke-width:5;stroke-linecap:round;stroke-linejoin:round;stroke-miterlimit:10;}
	.st23{opacity:0.3;}
	.st24{fill:none;stroke:#F7931E;stroke-width:8;stroke-linecap:round;stroke-linejoin:round;stroke-miterlimit:10;}
	.st25{opacity:0.6;fill:none;stroke:#622F2F;stroke-width:5;stroke-linecap:round;stroke-linejoin:round;stroke-miterlimit:10;}
	.st26{opacity:0.7;fill:none;stroke:#F7931E;stroke-width:4;stroke-linecap:round;stroke-linejoin:round;stroke-miterlimit:10;}
	.st27{opacity:0.3;fill:none;stroke:#F7931E;stroke-width:6;stroke-linecap:round;stroke-linejoin:round;stroke-miterlimit:10;}
	.st28{opacity:0.4;fill:none;stroke:#F7931E;stroke-width:3;stroke-linecap:round;stroke-linejoin:round;stroke-miterlimit:10;}
	.st29{opacity:0.15;}
	.st30{fill:none;stroke:#262626;stroke-width:8;stroke-linecap:round;stroke-linejoin:round;stroke-miterlimit:10;}
</style>
<rect id="XMLID_80_" class="st0" width="1000" height="1000"/>
<g>
	<g>
		<g>
			<path class="st1" d="M63.2,959.2c0,2.5-1.2,3.7-2.6,3.7c-1.1,0-1.9-0.5-2.1-1.4c-0.4,0.5-1,0.8-1.8,0.8c-1.5,0-2.6-1.2-2.6-2.8
				c0-1.6,1.1-2.8,2.6-2.8c0.7,0,1.2,0.3,1.6,0.7v-0.5h1.6v3.9c0,0.8,0.3,1.4,1,1.4c0.9,0,1.7-0.9,1.7-3c0-3-2.3-5.3-5.4-5.3
				c-3.1,0-5.6,2.4-5.6,5.7c0,3.3,2.5,5.7,5.9,5.7c1.1,0,2.1-0.2,2.9-0.4v0.6c-0.8,0.3-1.7,0.4-2.9,0.4c-3.7,0-6.5-2.6-6.5-6.2
				c0-3.4,2.7-6.2,6.2-6.2C61.1,953.3,63.2,956.4,63.2,959.2z M58.3,959.5c0-0.8-0.6-1.4-1.3-1.4c-0.8,0-1.3,0.5-1.3,1.4
				c0,0.8,0.6,1.3,1.3,1.3C57.8,960.9,58.3,960.3,58.3,959.5z"/>
		</g>
		<g>
			<path class="st1" d="M69.4,955.1v2c-1.2-0.1-2.6,0.5-2.6,2.4v4.3h-1.9v-8.6h1.9v1.4C67.3,955.5,68.3,955.1,69.4,955.1z"/>
		</g>
		<g>
			<path class="st1" d="M74.6,962.3c1,0,1.8-0.5,2.2-1.1l1.5,0.9c-0.8,1.2-2.1,1.9-3.8,1.9c-2.8,0-4.7-1.9-4.7-4.5
				c0-2.5,1.8-4.5,4.5-4.5c2.6,0,4.3,2.1,4.3,4.5c0,0.3,0,0.5-0.1,0.8h-6.8C72.1,961.6,73.2,962.3,74.6,962.3z M76.9,958.8
				c-0.3-1.5-1.3-2.1-2.5-2.1c-1.4,0-2.3,0.8-2.6,2.1H76.9z"/>
		</g>
		<g>
			<path class="st1" d="M88.9,955.2v8.6h-1.9v-1.2c-0.7,0.9-1.7,1.5-3,1.5c-2.3,0-4.3-2-4.3-4.5c0-2.6,1.9-4.5,4.3-4.5
				c1.3,0,2.3,0.5,3,1.4v-1.2H88.9z M87.1,959.5c0-1.6-1.2-2.7-2.7-2.7c-1.5,0-2.7,1.1-2.7,2.7c0,1.6,1.2,2.7,2.7,2.7
				C85.9,962.3,87.1,961.1,87.1,959.5z"/>
		</g>
		<g>
			<path class="st1" d="M91.1,951.3H93v12.5h-1.9V951.3z"/>
		</g>
		<g>
			<path class="st1" d="M102.9,955.2l-3.3,8.6h-2.1l-3.3-8.6h2l2.4,6.5l2.4-6.5H102.9z"/>
		</g>
		<g>
			<path class="st1" d="M104.2,955.2h1.9v8.9c0,2.4-1.2,3.5-3.5,3.3v-1.8c1.1,0.1,1.7-0.3,1.7-1.5V955.2z M104,952.8
				c0-0.7,0.5-1.2,1.2-1.2c0.7,0,1.2,0.5,1.2,1.2c0,0.6-0.5,1.2-1.2,1.2C104.5,954,104,953.4,104,952.8z"/>
		</g>
		<g>
			<path class="st1" d="M116,955.2l-3.3,8.8c-0.8,2.2-2.2,3.3-4.2,3.2v-1.7c1.2,0.1,1.9-0.5,2.3-1.7l0.1-0.2l-3.6-8.4h2l2.6,6.2
				l2.2-6.2H116z"/>
		</g>
	</g>
	<g>
		<path class="st1" d="M211.9,938.7c0,2.1-1.5,3.8-3.6,3.8h-3v-7.6h3C210.4,934.9,211.9,936.6,211.9,938.7z M210.9,938.7
			c0-1.6-1.1-2.9-2.6-2.9h-2v5.7h2C209.8,941.6,210.9,940.3,210.9,938.7z"/>
		<path class="st1" d="M219.5,940.8h-3.4l-0.6,1.7h-1.1l2.8-7.6h1.1l2.8,7.6h-1.1L219.5,940.8z M219.2,939.9l-1.4-3.8l-1.4,3.8
			H219.2z"/>
		<path class="st1" d="M226.4,939.4v3.1h-1v-3.1l-2.7-4.5h1.1l2.1,3.6l2.1-3.6h1.1L226.4,939.4z"/>
		<path class="st1" d="M242.1,940.4c0,1.4-1.1,2.2-2.6,2.2c-1.5,0-2.6-0.8-2.6-2.2c0-0.8,0.5-1.5,1.2-1.9c-0.6-0.3-0.9-0.9-0.9-1.7
			c0-1.5,1.2-2.2,2.4-2.2c1.2,0,2.4,0.7,2.4,2.2c0,0.8-0.4,1.3-0.9,1.7C241.7,938.9,242.1,939.6,242.1,940.4z M241.1,940.4
			c0-0.9-0.7-1.3-1.6-1.3c-0.9,0-1.6,0.4-1.6,1.3c0,0.9,0.7,1.3,1.6,1.3C240.5,941.7,241.1,941.2,241.1,940.4z M238.2,936.9
			c0,0.8,0.6,1.2,1.4,1.2c0.7,0,1.4-0.4,1.4-1.2c0-0.8-0.6-1.2-1.4-1.2C238.8,935.7,238.2,936.1,238.2,936.9z"/>
		<path class="st1" d="M247.7,934.9v7.6h-1V936l-1.6,0.5l-0.3-0.9l2-0.7H247.7z"/>
	</g>
	<g>
		<path class="st1" d="M58.9,938.7c0,2.1-1.5,3.8-3.6,3.8h-3v-7.6h3C57.4,934.9,58.9,936.6,58.9,938.7z M57.9,938.7
			c0-1.6-1.1-2.9-2.6-2.9h-2v5.7h2C56.8,941.6,57.9,940.3,57.9,938.7z"/>
		<path class="st1" d="M67,941.6v1h-4.6v-7.6h4.5v1h-3.5v2.3h3.2v0.9h-3.2v2.4H67z"/>
		<path class="st1" d="M70,940.8l0.9-0.5c0.3,0.8,0.9,1.4,2,1.4c1.1,0,1.6-0.5,1.6-1.2c0-0.8-0.7-1-1.8-1.4
			c-1.2-0.4-2.4-0.8-2.4-2.2c0-1.4,1.1-2.2,2.4-2.2c1.3,0,2.2,0.7,2.6,1.7l-0.8,0.5c-0.3-0.7-0.8-1.2-1.7-1.2
			c-0.8,0-1.4,0.4-1.4,1.1c0,0.7,0.5,1,1.6,1.3c1.3,0.4,2.6,0.8,2.6,2.3c0,1.3-1.1,2.2-2.6,2.2C71.5,942.7,70.4,941.9,70,940.8z"/>
		<path class="st1" d="M80,934.9v7.6h-1v-7.6H80z"/>
		<path class="st1" d="M91.3,939.2c0,1.9-1.4,3.5-3.7,3.5c-2.4,0-4-1.8-4-4c0-2.2,1.7-4,4-4c1.4,0,2.7,0.8,3.3,1.8l-0.9,0.5
			c-0.4-0.8-1.4-1.4-2.4-1.4c-1.8,0-3,1.3-3,3c0,1.7,1.2,3,3,3c1.6,0,2.5-0.9,2.7-2h-2.8v-0.9h3.8V939.2z"/>
		<path class="st1" d="M100.6,934.9v7.6h-0.8l-3.9-5.7v5.7h-1v-7.6h0.8l3.9,5.7v-5.7H100.6z"/>
		<path class="st1" d="M109.1,941.6v1h-4.6v-7.6h4.5v1h-3.5v2.3h3.2v0.9h-3.2v2.4H109.1z"/>
		<path class="st1" d="M119.2,938.7c0,2.1-1.5,3.8-3.6,3.8h-3v-7.6h3C117.6,934.9,119.2,936.6,119.2,938.7z M118.2,938.7
			c0-1.6-1.1-2.9-2.6-2.9h-2v5.7h2C117.1,941.6,118.2,940.3,118.2,938.7z"/>
		<path class="st1" d="M133.2,940.4c0,1.2-1,2.2-2.2,2.2h-3.3v-7.6h3c1.2,0,2.1,0.9,2.1,2.1c0,0.7-0.3,1.2-0.8,1.6
			C132.7,938.9,133.2,939.5,133.2,940.4z M128.7,935.8v2.3h2c0.6,0,1.1-0.5,1.1-1.2c0-0.6-0.5-1.2-1.1-1.2H128.7z M132.2,940.3
			c0-0.7-0.5-1.2-1.2-1.2h-2.3v2.5h2.3C131.7,941.6,132.2,941,132.2,940.3z"/>
		<path class="st1" d="M139.4,939.4v3.1h-1v-3.1l-2.7-4.5h1.1l2.1,3.6l2.1-3.6h1.1L139.4,939.4z"/>
	</g>
	<g>
		<path class="st1" d="M207.5,951.9v12.4h-2v-12.4H207.5z"/>
		<path class="st1" d="M209.3,959.9c0-2.6,2-4.7,4.7-4.7c1.7,0,3.2,0.9,3.9,2.3l-1.6,1c-0.4-0.8-1.3-1.4-2.3-1.4
			c-1.6,0-2.7,1.2-2.7,2.8c0,1.6,1.2,2.8,2.7,2.8c1.1,0,1.9-0.5,2.4-1.4l1.6,0.9c-0.7,1.4-2.2,2.3-4,2.3
			C211.3,964.5,209.3,962.5,209.3,959.9z"/>
		<path class="st1" d="M223.6,962.8c1.1,0,1.9-0.5,2.3-1.1l1.6,0.9c-0.8,1.2-2.1,1.9-3.9,1.9c-2.9,0-4.8-2-4.8-4.7
			c0-2.6,1.9-4.7,4.7-4.7c2.6,0,4.4,2.1,4.4,4.7c0,0.3,0,0.5-0.1,0.8h-7C221.1,962.1,222.2,962.8,223.6,962.8z M225.9,959.1
			c-0.3-1.5-1.4-2.2-2.5-2.2c-1.4,0-2.4,0.8-2.7,2.2H225.9z"/>
		<path class="st1" d="M233.5,958.1c0-3.6,2.7-6.4,6.5-6.4c2.3,0,4.3,1.2,5.3,3l-1.8,1c-0.7-1.2-2-2-3.6-2c-2.7,0-4.4,1.9-4.4,4.4
			s1.8,4.4,4.4,4.4c1.6,0,2.9-0.8,3.6-2l1.8,1c-1,1.8-3,3-5.3,3C236.2,964.5,233.5,961.7,233.5,958.1z"/>
		<path class="st1" d="M251.6,955.3v2.1c-1.3-0.1-2.7,0.5-2.7,2.5v4.5h-1.9v-8.9h1.9v1.5C249.4,955.7,250.5,955.3,251.6,955.3z"/>
		<path class="st1" d="M256.9,962.8c1.1,0,1.9-0.5,2.3-1.1l1.6,0.9c-0.8,1.2-2.1,1.9-3.9,1.9c-2.9,0-4.8-2-4.8-4.7
			c0-2.6,1.9-4.7,4.7-4.7c2.6,0,4.4,2.1,4.4,4.7c0,0.3,0,0.5-0.1,0.8h-7C254.4,962.1,255.5,962.8,256.9,962.8z M259.3,959.1
			c-0.3-1.5-1.4-2.2-2.5-2.2c-1.4,0-2.4,0.8-2.7,2.2H259.3z"/>
		<path class="st1" d="M271.8,955.4v8.9h-1.9V963c-0.7,0.9-1.7,1.5-3.1,1.5c-2.4,0-4.4-2-4.4-4.7c0-2.6,2-4.7,4.4-4.7
			c1.4,0,2.4,0.6,3.1,1.5v-1.3H271.8z M269.9,959.9c0-1.6-1.2-2.8-2.8-2.8c-1.6,0-2.8,1.2-2.8,2.8c0,1.6,1.2,2.8,2.8,2.8
			C268.6,962.7,269.9,961.5,269.9,959.9z"/>
		<path class="st1" d="M287,958.8v5.5h-1.9v-5.4c0-1.2-0.7-1.9-1.7-1.9c-1.1,0-1.9,0.7-1.9,2.3v5h-1.9v-5.4c0-1.2-0.6-1.9-1.7-1.9
			c-1.1,0-2,0.7-2,2.3v5H274v-8.9h1.9v1.1c0.6-0.9,1.4-1.3,2.5-1.3c1.2,0,2,0.5,2.5,1.4c0.6-0.9,1.5-1.4,2.7-1.4
			C285.7,955.2,287,956.6,287,958.8z"/>
	</g>
	<g>
		<g>
			<g>
				<path class="st1" d="M846.1,938.7c0,2.1-1.5,3.8-3.6,3.8h-3v-7.6h3C844.6,934.9,846.1,936.6,846.1,938.7z M845.2,938.7
					c0-1.6-1.1-2.9-2.6-2.9h-2v5.7h2C844.1,941.6,845.2,940.3,845.2,938.7z"/>
			</g>
			<g>
				<path class="st1" d="M849.3,938.7c0-2.2,1.7-4,3.9-4c2.2,0,4,1.8,4,4c0,2.2-1.7,4-4,4C851,942.7,849.3,940.9,849.3,938.7z
					 M856.1,938.7c0-1.7-1.3-3-2.9-3c-1.7,0-2.9,1.3-2.9,3c0,1.7,1.3,3,2.9,3C854.9,941.7,856.1,940.4,856.1,938.7z"/>
			</g>
			<g>
				<path class="st1" d="M859.8,934.9h1.1l1.7,6.3l1.9-6.3h1l1.9,6.3l1.7-6.3h1.1l-2.2,7.6h-1.2l-1.8-6.1l-1.8,6.1H862L859.8,934.9z
					"/>
			</g>
			<g>
				<path class="st1" d="M879.3,934.9v7.6h-0.8l-3.9-5.7v5.7h-1v-7.6h0.8l3.9,5.7v-5.7H879.3z"/>
			</g>
			<g>
				<path class="st1" d="M887.5,941.6v1h-4.3v-7.6h1v6.7H887.5z"/>
			</g>
			<g>
				<path class="st1" d="M889.9,938.7c0-2.2,1.7-4,3.9-4c2.2,0,4,1.8,4,4c0,2.2-1.7,4-4,4C891.6,942.7,889.9,940.9,889.9,938.7z
					 M896.8,938.7c0-1.7-1.3-3-2.9-3c-1.7,0-2.9,1.3-2.9,3c0,1.7,1.3,3,2.9,3C895.5,941.7,896.8,940.4,896.8,938.7z"/>
			</g>
			<g>
				<path class="st1" d="M905.4,940.8H902l-0.6,1.7h-1.1l2.8-7.6h1.1l2.8,7.6H906L905.4,940.8z M905.1,939.9l-1.4-3.8l-1.4,3.8
					H905.1z"/>
			</g>
			<g>
				<path class="st1" d="M916.9,938.7c0,2.1-1.5,3.8-3.6,3.8h-3v-7.6h3C915.4,934.9,916.9,936.6,916.9,938.7z M915.9,938.7
					c0-1.6-1.1-2.9-2.6-2.9h-2v5.7h2C914.9,941.6,915.9,940.3,915.9,938.7z"/>
			</g>
			<g>
				<path class="st1" d="M926.5,935.8v2.5h3.2v1h-3.2v3.2h-1v-7.6h4.4v1H926.5z"/>
			</g>
			<g>
				<path class="st1" d="M936.2,939.6h-1.8v2.9h-1v-7.6h3c1.3,0,2.4,1.1,2.4,2.4c0,1-0.7,1.9-1.6,2.2l1.8,3.1h-1.1L936.2,939.6z
					 M934.4,938.7h2c0.8,0,1.4-0.6,1.4-1.4c0-0.8-0.6-1.4-1.4-1.4h-2V938.7z"/>
			</g>
			<g>
				<path class="st1" d="M941.9,938.7c0-2.2,1.7-4,3.9-4c2.2,0,4,1.8,4,4c0,2.2-1.7,4-4,4C943.6,942.7,941.9,940.9,941.9,938.7z
					 M948.8,938.7c0-1.7-1.3-3-2.9-3c-1.7,0-2.9,1.3-2.9,3c0,1.7,1.3,3,2.9,3C947.5,941.7,948.8,940.4,948.8,938.7z"/>
			</g>
			<g>
				<path class="st1" d="M960.4,942.5h-1v-6l-2.5,4.2h-0.1l-2.5-4.1v5.9h-1v-7.6h1.1l2.4,4l2.4-4h1.1V942.5z"/>
			</g>
		</g>
		<g>
			<g>
				<path class="st1" d="M839.3,952.9c0-0.7,0.5-1.2,1.2-1.2c0.7,0,1.2,0.5,1.2,1.2c0,0.7-0.5,1.2-1.2,1.2
					C839.9,954.1,839.3,953.6,839.3,952.9z M839.6,955.4h1.9v8.9h-1.9V955.4z"/>
			</g>
			<g>
				<path class="st1" d="M843.7,951.4h1.9v12.9h-1.9V951.4z"/>
			</g>
			<g>
				<path class="st1" d="M847.8,951.4h1.9v12.9h-1.9V951.4z"/>
			</g>
			<g>
				<path class="st1" d="M852,951.4h1.9v12.9H852V951.4z"/>
			</g>
			<g>
				<path class="st1" d="M864,955.4v8.9h-1.9v-1.1c-0.6,0.9-1.5,1.4-2.7,1.4c-2,0-3.4-1.3-3.4-3.6v-5.4h1.9v5.2c0,1.3,0.8,2.1,2,2.1
					c1.3,0,2.2-0.7,2.2-2.5v-4.7H864z"/>
			</g>
			<g>
				<path class="st1" d="M872.6,961.8c0,1.8-1.5,2.7-3.5,2.7c-1.8,0-3-0.8-3.6-2.1l1.6-1c0.3,0.8,1,1.3,2,1.3c0.8,0,1.5-0.3,1.5-1
					c0-1.6-4.8-0.7-4.8-3.9c0-1.7,1.4-2.7,3.2-2.7c1.5,0,2.7,0.7,3.3,1.8l-1.6,0.9c-0.3-0.7-0.9-1-1.7-1c-0.7,0-1.3,0.3-1.3,0.9
					C867.9,959.5,872.6,958.5,872.6,961.8z"/>
			</g>
			<g>
				<path class="st1" d="M876.7,957.3v4.2c0,1.1,0.7,1.1,2.2,1v1.7c-2.9,0.4-4.1-0.5-4.1-2.8v-4.2h-1.6v-1.8h1.6v-1.9l1.9-0.6v2.5
					h2.2v1.8H876.7z"/>
			</g>
			<g>
				<path class="st1" d="M885.4,955.3v2.1c-1.3-0.1-2.7,0.5-2.7,2.5v4.5h-1.9v-8.9h1.9v1.5C883.2,955.7,884.2,955.3,885.4,955.3z"/>
			</g>
			<g>
				<path class="st1" d="M895.3,955.4v8.9h-1.9V963c-0.7,0.9-1.7,1.5-3.1,1.5c-2.4,0-4.4-2-4.4-4.7c0-2.6,2-4.7,4.4-4.7
					c1.4,0,2.4,0.6,3.1,1.5v-1.3H895.3z M893.4,959.9c0-1.6-1.2-2.8-2.8-2.8c-1.6,0-2.8,1.2-2.8,2.8c0,1.6,1.2,2.8,2.8,2.8
					C892.2,962.7,893.4,961.5,893.4,959.9z"/>
			</g>
			<g>
				<path class="st1" d="M900.3,957.3v4.2c0,1.1,0.7,1.1,2.2,1v1.7c-2.9,0.4-4.1-0.5-4.1-2.8v-4.2h-1.6v-1.8h1.6v-1.9l1.9-0.6v2.5
					h2.2v1.8H900.3z"/>
			</g>
			<g>
				<path class="st1" d="M903.9,952.9c0-0.7,0.5-1.2,1.2-1.2c0.7,0,1.2,0.5,1.2,1.2c0,0.7-0.5,1.2-1.2,1.2
					C904.5,954.1,903.9,953.6,903.9,952.9z M904.2,955.4h1.9v8.9h-1.9V955.4z"/>
			</g>
			<g>
				<path class="st1" d="M907.8,959.9c0-2.6,2.1-4.7,4.7-4.7c2.6,0,4.7,2,4.7,4.7c0,2.6-2.1,4.7-4.7,4.7
					C909.9,964.5,907.8,962.5,907.8,959.9z M915.3,959.9c0-1.6-1.2-2.8-2.8-2.8c-1.6,0-2.8,1.2-2.8,2.8c0,1.6,1.2,2.8,2.8,2.8
					C914.1,962.7,915.3,961.5,915.3,959.9z"/>
			</g>
			<g>
				<path class="st1" d="M927,958.9v5.4h-1.9v-5.2c0-1.3-0.8-2.1-2-2.1c-1.3,0-2.2,0.7-2.2,2.5v4.7h-1.9v-8.9h1.9v1.1
					c0.6-0.9,1.5-1.4,2.7-1.4C925.5,955.2,927,956.6,927,958.9z"/>
			</g>
			<g>
				<path class="st1" d="M935.5,961.8c0,1.8-1.5,2.7-3.5,2.7c-1.8,0-3-0.8-3.6-2.1l1.6-1c0.3,0.8,1,1.3,2,1.3c0.8,0,1.5-0.3,1.5-1
					c0-1.6-4.8-0.7-4.8-3.9c0-1.7,1.4-2.7,3.2-2.7c1.5,0,2.7,0.7,3.3,1.8l-1.6,0.9c-0.3-0.7-0.9-1-1.7-1c-0.7,0-1.3,0.3-1.3,0.9
					C930.7,959.5,935.5,958.5,935.5,961.8z"/>
			</g>
			<g>
				<path class="st1" d="M936.8,963.2c0-0.7,0.6-1.3,1.3-1.3c0.7,0,1.3,0.6,1.3,1.3c0,0.7-0.6,1.3-1.3,1.3
					C937.4,964.5,936.8,963.9,936.8,963.2z"/>
			</g>
			<g>
				<path class="st1" d="M940.3,959.9c0-2.6,2-4.7,4.7-4.7c1.7,0,3.2,0.9,3.9,2.3l-1.6,1c-0.4-0.8-1.3-1.4-2.3-1.4
					c-1.6,0-2.7,1.2-2.7,2.8c0,1.6,1.2,2.8,2.7,2.8c1.1,0,1.9-0.5,2.4-1.4l1.6,0.9c-0.7,1.4-2.2,2.3-4,2.3
					C942.3,964.5,940.3,962.5,940.3,959.9z"/>
			</g>
			<g>
				<path class="st1" d="M949.7,959.9c0-2.6,2.1-4.7,4.7-4.7c2.6,0,4.7,2,4.7,4.7c0,2.6-2.1,4.7-4.7,4.7
					C951.8,964.5,949.7,962.5,949.7,959.9z M957.2,959.9c0-1.6-1.2-2.8-2.8-2.8s-2.8,1.2-2.8,2.8c0,1.6,1.2,2.8,2.8,2.8
					S957.2,961.5,957.2,959.9z"/>
			</g>
		</g>
	</g>
</g>
<line id="XMLID_73_" class="st2" x1="127.8" y1="714.7" x2="872.2" y2="714.7"/>
<g id="XMLID_78_">
	<path id="XMLID_19_" class="st3" d="M470.2,609.8c8.1,3.2,13.5,10.9,13.5,19.6v1.1c0,11.6-6.3,22.1-16.2,28.1
		c-10.2,6.2-17.6,15.2-20.4,25.6h105.5c-2.8-10.4-10.2-19.4-20.4-25.6c-9.9-6-16.2-16.5-16.2-28.1v-1.1c0-8.7,5.4-16.4,13.5-19.6
		c38-14.9,67.3-57.5,75-110.6H395.2C403,552.3,432.2,594.9,470.2,609.8z"/>
	<g id="XMLID_9_">
		<path id="XMLID_33_" class="st4" d="M578.1,495.1l-16.8-9l72.3-135.9c2.5-4.6,8.2-6.4,12.9-3.9l0,0c4.6,2.5,6.4,8.2,3.9,12.9
			L578.1,495.1z"/>
		<g id="XMLID_35_">
			<g id="XMLID_46_">
				<line id="XMLID_47_" class="st5" x1="588.8" y1="474.6" x2="562.9" y2="482.5"/>
			</g>
			<g id="XMLID_44_">
				<line id="XMLID_45_" class="st5" x1="599.5" y1="454.4" x2="573.6" y2="462.3"/>
			</g>
			<g id="XMLID_42_">
				<line id="XMLID_43_" class="st5" x1="610.3" y1="434.3" x2="584.4" y2="442.2"/>
			</g>
			<g id="XMLID_40_">
				<line id="XMLID_41_" class="st5" x1="621" y1="414.1" x2="595.1" y2="422"/>
			</g>
			<g id="XMLID_38_">
				<line id="XMLID_39_" class="st5" x1="631.7" y1="393.9" x2="605.8" y2="401.8"/>
			</g>
			<g id="XMLID_36_">
				<line id="XMLID_37_" class="st5" x1="642.5" y1="373.7" x2="616.6" y2="381.6"/>
			</g>
		</g>
		<g id="XMLID_48_">
			<g id="XMLID_65_">
				<line id="XMLID_66_" class="st6" x1="595.8" y1="459.6" x2="569.9" y2="467.5"/>
			</g>
			<g id="XMLID_63_">
				<line id="XMLID_64_" class="st6" x1="606.5" y1="439.4" x2="580.6" y2="447.3"/>
			</g>
			<g id="XMLID_61_">
				<line id="XMLID_62_" class="st6" x1="617.3" y1="419.3" x2="591.4" y2="427.2"/>
			</g>
			<g id="XMLID_59_">
				<line id="XMLID_60_" class="st6" x1="628" y1="399.1" x2="602.1" y2="407"/>
			</g>
			<g id="XMLID_57_">
				<line id="XMLID_58_" class="st6" x1="638.7" y1="378.9" x2="612.8" y2="386.8"/>
			</g>
			<g id="XMLID_55_">
				<line id="XMLID_56_" class="st6" x1="649.5" y1="358.7" x2="623.6" y2="366.6"/>
			</g>
		</g>
		<path id="XMLID_3_" class="st3" d="M578.1,495.1l-16.8-9l72.3-135.9c2.5-4.6,8.2-6.4,12.9-3.9l0,0c4.6,2.5,6.4,8.2,3.9,12.9
			L578.1,495.1z"/>
		<g id="XMLID_10_">
			<g id="XMLID_22_">
				<line id="XMLID_23_" class="st3" x1="593.5" y1="466" x2="567.6" y2="473.9"/>
			</g>
			<g id="XMLID_20_">
				<line id="XMLID_21_" class="st3" x1="604.3" y1="445.9" x2="578.4" y2="453.8"/>
			</g>
			<g id="XMLID_17_">
				<line id="XMLID_18_" class="st3" x1="615" y1="425.7" x2="589.1" y2="433.6"/>
			</g>
			<g id="XMLID_15_">
				<line id="XMLID_16_" class="st3" x1="625.8" y1="405.5" x2="599.9" y2="413.4"/>
			</g>
			<g id="XMLID_13_">
				<line id="XMLID_14_" class="st3" x1="636.5" y1="385.3" x2="610.6" y2="393.3"/>
			</g>
			<g id="XMLID_11_">
				<line id="XMLID_12_" class="st3" x1="647.2" y1="365.2" x2="621.3" y2="373.1"/>
			</g>
		</g>
	</g>
	<path id="XMLID_25_" class="st7" d="M402.3,471.6c-0.1-2.3-0.2-4.7-0.2-7c0-30.7,10.8-59.5,30.5-81c18.4-20.1,42.4-31.2,67.4-31.2
		s49,11.1,67.4,31.2c19.7,21.5,30.5,50.2,30.5,81c0,2.3-0.1,4.7-0.2,7H402.3z"/>
	<path id="XMLID_4_" class="st3" d="M402.3,471.6c-0.1-2.3-0.2-4.7-0.2-7c0-30.7,10.8-59.5,30.5-81c18.4-20.1,42.4-31.2,67.4-31.2
		s49,11.1,67.4,31.2c19.7,21.5,30.5,50.2,30.5,81c0,2.3-0.1,4.7-0.2,7H402.3z"/>
	<path id="XMLID_27_" class="st4" d="M402.3,471.6c-0.1-2.3-0.2-4.7-0.2-7c0-30.7,10.8-59.5,30.5-81c18.4-20.1,42.4-31.2,67.4-31.2
		s49,11.1,67.4,31.2c19.7,21.5,30.5,50.2,30.5,81c0,2.3-0.1,4.7-0.2,7H402.3z"/>
	<path id="XMLID_81_" class="st8" d="M567.4,383.6C549,363.5,525,352.5,500,352.5c-2.2,0-4.3,0.1-6.5,0.3
		c22.7,1.7,44.1,12.6,60.9,30.9c19.7,21.5,30.5,50.2,30.5,81c0,2.3-0.1,4.7-0.2,7h12.9c0.1-2.3,0.2-4.7,0.2-7
		C597.9,433.9,587.1,405.1,567.4,383.6z"/>
	<path id="XMLID_28_" class="st1" d="M568.1,383.6c-18.4-20.1-42.4-31.2-67.4-31.2c-25,0-49,11.1-67.4,31.2
		c-11.9,13-20.5,28.6-25.5,45.8c7.6,4,16.1,6.2,25.2,6.2c12.5,0,24-4.2,33.3-11.3c3.8-2.9,9.2-2.9,13,0c9.3,7.1,20.8,11.3,33.3,11.3
		c14,0,26.9-5.3,36.6-14.1c4.5-4,11.4-3.9,15.5,0.6c8.1,9.1,19.1,15.4,31.5,17.6C592,418.5,582.4,399.2,568.1,383.6z"/>
	<path class="st9" d="M567.4,383.6c-18.3-20-42.1-31.1-67-31.2c-2.2,0-4.4,0.1-6.5,0.3c22.5,1.8,43.9,12.6,60.6,30.9
		c13.1,14.3,22.3,31.9,27,51.2c4.4,2.2,9,3.7,14,4.7C591.2,418.4,581.6,399.1,567.4,383.6z"/>
	<path id="XMLID_94_" class="st10" d="M462.7,383.6c14.7-16,32.9-26.3,52.3-29.8c-4.9-0.9-10-1.4-15-1.4c-25,0-49,11.1-67.4,31.2
		c-19.7,21.5-30.5,50.2-30.5,81c0,2.3,0.1,4.7,0.2,7h30.1c-0.1-2.3-0.2-4.7-0.2-7C432.2,433.9,443,405.1,462.7,383.6z"/>
	<path class="st9" d="M500.3,352.5c-24.9,0.1-48.6,11.2-66.9,31.2c-11.9,13-20.5,28.6-25.5,45.8c7.6,4,16.1,6.2,25.2,6.2
		c0.8,0,1.7,0,2.5-0.1c4.6-19.5,13.9-37.4,27.2-51.9c14.7-16,32.9-26.3,52.3-29.8C510.2,352.9,505.3,352.5,500.3,352.5z"/>
	<path id="XMLID_108_" class="st3" d="M402.3,471.6c-0.1-2.3-0.2-4.7-0.2-7c0-30.7,10.8-59.5,30.5-81c18.4-20.1,42.4-31.2,67.4-31.2
		s49,11.1,67.4,31.2c19.7,21.5,30.5,50.2,30.5,81c0,2.3-0.1,4.7-0.2,7H402.3z"/>
	<path id="XMLID_1_" class="st11" d="M382.5,469.8c0,1.2,0,0.7,0,1c0,9.6,0.7,19.2,1.9,28.4h231.2c1.2-9.1,1.9-18.7,1.9-28.4
		c0-0.3,0,0.2,0-1H382.5z"/>
	<path id="XMLID_49_" class="st12" d="M591.3,469.8h23.2c0,1.2,0,0.7,0,1c0,9.6-0.5,19.2-1.3,28.4h-21.8V469.8z"/>
	<path id="XMLID_51_" class="st12" d="M415.7,469.8h-33.2c0,1.2,0,0.7,0,1c0,9.6,0.7,19.2,1.9,28.4h31.3V469.8z"/>
	<ellipse id="XMLID_32_" class="st13" cx="499.6" cy="366.4" rx="24.6" ry="8.5"/>
	<path id="XMLID_5_" class="st3" d="M568.1,383.6c-18.4-20.1-42.4-31.2-67.4-31.2c-25,0-49,11.1-67.4,31.2
		c-11.9,13-20.5,28.6-25.5,45.8c7.6,4,16.1,6.2,25.2,6.2c12.5,0,24-4.2,33.3-11.3c3.8-2.9,9.2-2.9,13,0c9.3,7.1,20.8,11.3,33.3,11.3
		c14,0,26.9-5.3,36.6-14.1c4.5-4,11.4-3.9,15.5,0.6c8.1,9.1,19.1,15.4,31.5,17.6C592,418.5,582.4,399.2,568.1,383.6z"/>
	<path id="XMLID_24_" class="st11" d="M470.2,609.8c8.1,3.2,13.5,10.9,13.5,19.6v1.1c0,11.6-6.3,22.1-16.2,28.1
		c-10.2,6.2-17.6,15.2-20.4,25.6h105.5c-2.8-10.4-10.2-19.4-20.4-25.6c-9.9-6-16.2-16.5-16.2-28.1v-1.1c0-8.7,5.4-16.4,13.5-19.6
		c38-14.9,67.3-57.5,75-110.6H395.2C403,552.3,432.2,594.9,470.2,609.8z"/>
	<path id="XMLID_30_" class="st14" d="M529.8,609.8c38-14.9,67.3-57.5,75-110.6h-38.9c-4.5,28.2-23.1,49.3-45.3,49.3
		c-22.2,0-40.8-21.1-45.3-49.3h-80.1c7.8,53.1,37,95.7,75,110.6c8.1,3.2,13.5,10.9,13.5,19.6v1.1c0,11.6-6.3,22.1-16.2,28.1
		c-10.2,6.2-17.6,15.2-20.4,25.6h105.5c-2.8-10.4-10.2-19.4-20.4-25.6c-9.9-6-16.2-16.5-16.2-28.1v-1.1
		C516.3,620.7,521.7,612.9,529.8,609.8z"/>
	<path id="XMLID_29_" class="st12" d="M529.8,609.8c38-14.9,67.3-57.5,75-110.6h-13.6c-5,57.7-39.1,93.5-80,96.8
		c-30.6,2.5-75.1-39.2-80-96.8h-35.8c7.8,53.1,37,95.7,75,110.6c8.1,3.2,13.5,10.9,13.5,19.6v1.1c0,11.6-6.3,22.1-16.2,28.1
		c-10.2,6.2-17.6,15.2-20.4,25.6h33.9c4.2-12.6,15-18.4,26.5-18.4c11.5,0,26.4,5.8,30.6,18.4h14.5c-2.8-10.4-10.2-19.4-20.4-25.6
		c-9.9-6-16.2-16.5-16.2-28.1v-1.1C516.3,620.7,521.7,612.9,529.8,609.8z"/>
	<rect id="XMLID_26_" x="395.2" y="499.2" class="st15" width="209.6" height="13.8"/>
	<path id="XMLID_8_" class="st3" d="M470.2,609.8c8.1,3.2,13.5,10.9,13.5,19.6v1.1c0,11.6-6.3,22.1-16.2,28.1
		c-10.2,6.2-17.6,15.2-20.4,25.6h105.5c-2.8-10.4-10.2-19.4-20.4-25.6c-9.9-6-16.2-16.5-16.2-28.1v-1.1c0-8.7,5.4-16.4,13.5-19.6
		c38-14.9,67.3-57.5,75-110.6H395.2C403,552.3,432.2,594.9,470.2,609.8z"/>
	<ellipse id="XMLID_31_" class="st16" cx="502.2" cy="344.7" rx="21.9" ry="22.5"/>
	<ellipse id="XMLID_2_" class="st3" cx="502.2" cy="344.7" rx="21.9" ry="22.5"/>
	<line id="XMLID_7_" class="st3" x1="504.2" y1="332" x2="522.3" y2="307.7"/>
	<path id="XMLID_34_" class="st17" d="M507.7,338.2c-1.2,1.4-2.9,2.2-4.8,2.2c-2.4,0-4.4-1.4-5.7-3.4"/>
	<line id="XMLID_50_" class="st18" x1="466.7" y1="324.9" x2="475" y2="326.9"/>
	<line id="XMLID_52_" class="st18" x1="472.5" y1="312.5" x2="478.8" y2="317.9"/>
	<line id="XMLID_53_" class="st18" x1="482.7" y1="305.4" x2="485.1" y2="313.1"/>
	<g id="XMLID_69_" class="st19">
		<line id="XMLID_68_" class="st20" x1="238.1" y1="447.3" x2="248.1" y2="447.3"/>
		<line id="XMLID_67_" class="st20" x1="243.1" y1="442.3" x2="243.1" y2="452.3"/>
	</g>
	<g id="XMLID_90_">
		<line id="XMLID_92_" class="st21" x1="714" y1="482.5" x2="724" y2="482.5"/>
		<line id="XMLID_91_" class="st21" x1="719" y1="477.5" x2="719" y2="487.5"/>
	</g>
	<g id="XMLID_75_">
		<line id="XMLID_77_" class="st20" x1="659.1" y1="525.7" x2="674" y2="525.7"/>
		<line id="XMLID_76_" class="st20" x1="666.6" y1="518.3" x2="666.6" y2="533.2"/>
	</g>
	<g id="XMLID_83_">
		<line id="XMLID_85_" class="st22" x1="299.6" y1="574.6" x2="309.6" y2="574.6"/>
		<line id="XMLID_84_" class="st22" x1="304.6" y1="569.6" x2="304.6" y2="579.6"/>
	</g>
	<g id="XMLID_87_" class="st23">
		<line id="XMLID_89_" class="st18" x1="597.1" y1="591.7" x2="607.1" y2="591.7"/>
		<line id="XMLID_88_" class="st18" x1="602.1" y1="586.7" x2="602.1" y2="596.7"/>
	</g>
	<g id="XMLID_72_">
		<line id="XMLID_71_" class="st24" x1="310.4" y1="494.5" x2="326.3" y2="494.5"/>
		<line id="XMLID_70_" class="st24" x1="318.4" y1="486.6" x2="318.4" y2="502.5"/>
	</g>
	<circle id="XMLID_74_" class="st25" cx="679" cy="579.6" r="5"/>
	<circle id="XMLID_79_" class="st26" cx="353.9" cy="341.4" r="4.8"/>
	<circle id="XMLID_86_" class="st27" cx="343.6" cy="532.3" r="7.1"/>
	<circle id="XMLID_82_" class="st28" cx="758.1" cy="499.2" r="3.3"/>
	<circle id="XMLID_93_" class="st28" cx="415.7" cy="612.6" r="3.3"/>
	<path id="XMLID_6_" class="st3" d="M382.5,469.8c0,1.2,0,0.7,0,1c0,9.6,0.7,19.2,1.9,28.4h231.2c1.2-9.1,1.9-18.7,1.9-28.4
		c0-0.3,0,0.2,0-1H382.5z"/>
</g>
<g id="XMLID_107_" class="st29">
	<line id="XMLID_54_" class="st30" x1="336.5" y1="684.2" x2="679" y2="684.2"/>
	
		<rect id="XMLID_106_" x="443.5" y="163.6" transform="matrix(-1.836970e-16 1 -1 -1.836970e-16 730.6628 -260.8179)" class="st30" width="104.4" height="142.7"/>
	<rect id="XMLID_105_" x="438.3" y="196.6" class="st30" width="114.9" height="76.6"/>
	<polygon id="XMLID_104_" class="st30" points="459,257.9 477.2,226.3 495.4,257.9 	"/>
	<polyline id="XMLID_103_" class="st30" points="486.3,242.1 498.4,221.1 519.7,257.9 495.4,257.9 	"/>
	<circle id="XMLID_102_" class="st30" cx="527.8" cy="218.2" r="8.1"/>
	<polyline id="XMLID_101_" class="st30" points="817.4,315.1 738,315.1 738,353.8 817.4,353.8 	"/>
	<line id="XMLID_100_" class="st30" x1="658.7" y1="353.8" x2="738" y2="353.8"/>
	<line id="XMLID_99_" class="st30" x1="738" y1="315.1" x2="707.7" y2="315.1"/>
	
		<rect id="XMLID_98_" x="698.4" y="353.8" transform="matrix(-1 -4.489665e-11 4.489665e-11 -1 1476.0692 746.3137)" class="st30" width="79.3" height="38.7"/>
	<polyline id="XMLID_96_" class="st30" points="805,392.7 738,392.7 738,431.4 763.7,431.4 	"/>
	
		<rect id="XMLID_95_" x="658.7" y="392.7" transform="matrix(-1 -4.490775e-11 4.490775e-11 -1 1396.72 824.0473)" class="st30" width="79.3" height="38.7"/>
</g>
</svg>
