<?xml version="1.0" encoding="utf-8"?>
<!-- Generator: Adobe Illustrator 23.1.1, SVG Export Plug-In . SVG Version: 6.00 Build 0)  -->
<svg version="1.1" id="Layer_1" xmlns="http://www.w3.org/2000/svg" xmlns:xlink="http://www.w3.org/1999/xlink" x="0px" y="0px"
	 viewBox="0 0 1000 1000" style="enable-background:new 0 0 1000 1000;" xml:space="preserve">
<style type="text/css">
	.st0{fill:#FFFFFF;}
	.st1{fill:#34323A;}
	.st2{opacity:0.3;fill:#34323A;}
	.st3{fill:#F4B651;}
	.st4{fill:#EE9731;}
	.st5{opacity:0.58;fill:#F8D397;}
	.st6{fill:#F0A549;}
	.st7{opacity:0.3;fill:#E28139;stroke:#E28139;stroke-width:12;stroke-linecap:round;stroke-linejoin:round;stroke-miterlimit:10;}
	.st8{opacity:0.5;fill:#E28529;}
	.st9{fill:none;stroke:#34323A;stroke-width:12;stroke-linecap:round;stroke-linejoin:round;stroke-miterlimit:10;}
	.st10{fill:#CECECE;}
	.st11{fill:#E5E5E5;}
	.st12{fill:#FFBF40;}
	.st13{fill:#FF433E;}
	.st14{opacity:0.54;}
	.st15{fill:none;stroke:#9284CE;stroke-width:6;stroke-linecap:round;stroke-linejoin:round;stroke-miterlimit:10;}
	.st16{opacity:0.48;}
	.st17{fill:none;stroke:#DBA877;stroke-width:6;stroke-linecap:round;stroke-linejoin:round;stroke-miterlimit:10;}
	.st18{fill:none;stroke:#AE8DCE;stroke-width:3.1048;stroke-linecap:round;stroke-linejoin:round;stroke-miterlimit:10;}
	.st19{fill:none;stroke:#FF6F6C;stroke-width:3.6376;stroke-linecap:round;stroke-linejoin:round;stroke-miterlimit:10;}
	.st20{opacity:0.56;}
	.st21{fill:none;stroke:#DBA877;stroke-width:5;stroke-linecap:round;stroke-linejoin:round;stroke-miterlimit:10;}
	.st22{fill:none;stroke:#FFB164;stroke-width:5;stroke-linecap:round;stroke-linejoin:round;stroke-miterlimit:10;}
	.st23{opacity:0.57;}
	.st24{fill:none;stroke:#E24D59;stroke-width:4;stroke-linecap:square;stroke-miterlimit:10;}
	.st25{fill:#F4456E;}
	.st26{fill:#ED2242;}
	.st27{fill:#F95E8D;}
	.st28{fill:#FC74A6;}
	.st29{opacity:0.3;fill:#F4456E;}
	
		.st30{opacity:0.46;fill:#BC2A57;stroke:#BC2A57;stroke-width:12;stroke-linecap:round;stroke-linejoin:round;stroke-miterlimit:10;}
	.st31{fill:#458B3A;}
	.st32{opacity:0.6;}
	.st33{fill:#468B3A;}
	.st34{opacity:0.7;fill:#3A7530;}
	.st35{opacity:0.74;fill:#336629;}
	.st36{fill:#5EAB50;}
	.st37{fill:#3A7530;}
	.st38{opacity:0.65;fill:#336629;}
	.st39{opacity:0.2;fill:#444444;}
	.st40{opacity:0.5;}
	.st41{fill:#FF3636;}
	.st42{fill:#DA2E2D;}
	.st43{opacity:0.7;fill:#BA2727;}
</style>
<rect id="XMLID_113_" class="st0" width="1000" height="1000"/>
<g>
	<g>
		<g>
			<path class="st1" d="M63.2,959.2c0,2.5-1.2,3.7-2.6,3.7c-1.1,0-1.9-0.5-2.1-1.4c-0.4,0.5-1,0.8-1.8,0.8c-1.5,0-2.6-1.2-2.6-2.8
				c0-1.6,1.1-2.8,2.6-2.8c0.7,0,1.2,0.3,1.6,0.7v-0.5h1.6v3.9c0,0.8,0.3,1.4,1,1.4c0.9,0,1.7-0.9,1.7-3c0-3-2.3-5.3-5.4-5.3
				c-3.1,0-5.6,2.4-5.6,5.7c0,3.3,2.5,5.7,5.9,5.7c1.1,0,2.1-0.2,2.9-0.4v0.6c-0.8,0.3-1.7,0.4-2.9,0.4c-3.7,0-6.5-2.6-6.5-6.2
				c0-3.4,2.7-6.2,6.2-6.2C61.1,953.3,63.2,956.4,63.2,959.2z M58.3,959.5c0-0.8-0.6-1.4-1.3-1.4c-0.8,0-1.3,0.5-1.3,1.4
				c0,0.8,0.6,1.3,1.3,1.3C57.8,960.9,58.3,960.3,58.3,959.5z"/>
		</g>
		<g>
			<path class="st1" d="M69.4,955.1v2c-1.2-0.1-2.6,0.5-2.6,2.4v4.3h-1.9v-8.6h1.9v1.4C67.3,955.5,68.3,955.1,69.4,955.1z"/>
		</g>
		<g>
			<path class="st1" d="M74.6,962.3c1,0,1.8-0.5,2.2-1.1l1.5,0.9c-0.8,1.2-2.1,1.9-3.8,1.9c-2.8,0-4.7-1.9-4.7-4.5
				c0-2.5,1.8-4.5,4.5-4.5c2.6,0,4.3,2.1,4.3,4.5c0,0.3,0,0.5-0.1,0.8h-6.8C72.1,961.6,73.2,962.3,74.6,962.3z M76.9,958.8
				c-0.3-1.5-1.3-2.1-2.5-2.1c-1.4,0-2.3,0.8-2.6,2.1H76.9z"/>
		</g>
		<g>
			<path class="st1" d="M88.9,955.2v8.6h-1.9v-1.2c-0.7,0.9-1.7,1.5-3,1.5c-2.3,0-4.3-2-4.3-4.5c0-2.6,1.9-4.5,4.3-4.5
				c1.3,0,2.3,0.5,3,1.4v-1.2H88.9z M87.1,959.5c0-1.6-1.2-2.7-2.7-2.7c-1.5,0-2.7,1.1-2.7,2.7c0,1.6,1.2,2.7,2.7,2.7
				C85.9,962.3,87.1,961.1,87.1,959.5z"/>
		</g>
		<g>
			<path class="st1" d="M91.1,951.3H93v12.5h-1.9V951.3z"/>
		</g>
		<g>
			<path class="st1" d="M102.9,955.2l-3.3,8.6h-2.1l-3.3-8.6h2l2.4,6.5l2.4-6.5H102.9z"/>
		</g>
		<g>
			<path class="st1" d="M104.2,955.2h1.9v8.9c0,2.4-1.2,3.5-3.5,3.3v-1.8c1.1,0.1,1.7-0.3,1.7-1.5V955.2z M104,952.8
				c0-0.7,0.5-1.2,1.2-1.2c0.7,0,1.2,0.5,1.2,1.2c0,0.6-0.5,1.2-1.2,1.2C104.5,954,104,953.4,104,952.8z"/>
		</g>
		<g>
			<path class="st1" d="M116,955.2l-3.3,8.8c-0.8,2.2-2.2,3.3-4.2,3.2v-1.7c1.2,0.1,1.9-0.5,2.3-1.7l0.1-0.2l-3.6-8.4h2l2.6,6.2
				l2.2-6.2H116z"/>
		</g>
	</g>
	<g>
		<path class="st1" d="M211.9,938.7c0,2.1-1.5,3.8-3.6,3.8h-3v-7.6h3C210.4,934.9,211.9,936.6,211.9,938.7z M210.9,938.7
			c0-1.6-1.1-2.9-2.6-2.9h-2v5.7h2C209.8,941.6,210.9,940.3,210.9,938.7z"/>
		<path class="st1" d="M219.5,940.8h-3.4l-0.6,1.7h-1.1l2.8-7.6h1.1l2.8,7.6h-1.1L219.5,940.8z M219.2,939.9l-1.4-3.8l-1.4,3.8
			H219.2z"/>
		<path class="st1" d="M226.4,939.4v3.1h-1v-3.1l-2.7-4.5h1.1l2.1,3.6l2.1-3.6h1.1L226.4,939.4z"/>
		<path class="st1" d="M242.1,940.4c0,1.4-1.1,2.2-2.6,2.2c-1.5,0-2.6-0.8-2.6-2.2c0-0.8,0.5-1.5,1.2-1.9c-0.6-0.3-0.9-0.9-0.9-1.7
			c0-1.5,1.2-2.2,2.4-2.2c1.2,0,2.4,0.7,2.4,2.2c0,0.8-0.4,1.3-0.9,1.7C241.7,938.9,242.1,939.6,242.1,940.4z M241.1,940.4
			c0-0.9-0.7-1.3-1.6-1.3c-0.9,0-1.6,0.4-1.6,1.3c0,0.9,0.7,1.3,1.6,1.3C240.5,941.7,241.1,941.2,241.1,940.4z M238.2,936.9
			c0,0.8,0.6,1.2,1.4,1.2c0.7,0,1.4-0.4,1.4-1.2c0-0.8-0.6-1.2-1.4-1.2C238.8,935.7,238.2,936.1,238.2,936.9z"/>
		<path class="st1" d="M250.5,940.1c0,1.5-1.1,2.6-2.6,2.6c-1.5,0-2.6-1.1-2.6-2.6c0-0.6,0.2-1.1,0.5-1.5l2.5-3.7h1.2l-1.8,2.7
			c0.1,0,0.2,0,0.4,0C249.4,937.5,250.5,938.6,250.5,940.1z M249.5,940.1c0-1-0.7-1.6-1.6-1.6c-1,0-1.6,0.6-1.6,1.6s0.7,1.6,1.6,1.6
			C248.8,941.7,249.5,941,249.5,940.1z"/>
	</g>
	<g>
		<path class="st1" d="M58.9,938.7c0,2.1-1.5,3.8-3.6,3.8h-3v-7.6h3C57.4,934.9,58.9,936.6,58.9,938.7z M57.9,938.7
			c0-1.6-1.1-2.9-2.6-2.9h-2v5.7h2C56.8,941.6,57.9,940.3,57.9,938.7z"/>
		<path class="st1" d="M67,941.6v1h-4.6v-7.6h4.5v1h-3.5v2.3h3.2v0.9h-3.2v2.4H67z"/>
		<path class="st1" d="M70,940.8l0.9-0.5c0.3,0.8,0.9,1.4,2,1.4c1.1,0,1.6-0.5,1.6-1.2c0-0.8-0.7-1-1.8-1.4
			c-1.2-0.4-2.4-0.8-2.4-2.2c0-1.4,1.1-2.2,2.4-2.2c1.3,0,2.2,0.7,2.6,1.7l-0.8,0.5c-0.3-0.7-0.8-1.2-1.7-1.2
			c-0.8,0-1.4,0.4-1.4,1.1c0,0.7,0.5,1,1.6,1.3c1.3,0.4,2.6,0.8,2.6,2.3c0,1.3-1.1,2.2-2.6,2.2C71.5,942.7,70.4,941.9,70,940.8z"/>
		<path class="st1" d="M80,934.9v7.6h-1v-7.6H80z"/>
		<path class="st1" d="M91.3,939.2c0,1.9-1.4,3.5-3.7,3.5c-2.4,0-4-1.8-4-4c0-2.2,1.7-4,4-4c1.4,0,2.7,0.8,3.3,1.8l-0.9,0.5
			c-0.4-0.8-1.4-1.4-2.4-1.4c-1.8,0-3,1.3-3,3c0,1.7,1.2,3,3,3c1.6,0,2.5-0.9,2.7-2h-2.8v-0.9h3.8V939.2z"/>
		<path class="st1" d="M100.6,934.9v7.6h-0.8l-3.9-5.7v5.7h-1v-7.6h0.8l3.9,5.7v-5.7H100.6z"/>
		<path class="st1" d="M109.1,941.6v1h-4.6v-7.6h4.5v1h-3.5v2.3h3.2v0.9h-3.2v2.4H109.1z"/>
		<path class="st1" d="M119.2,938.7c0,2.1-1.5,3.8-3.6,3.8h-3v-7.6h3C117.6,934.9,119.2,936.6,119.2,938.7z M118.2,938.7
			c0-1.6-1.1-2.9-2.6-2.9h-2v5.7h2C117.1,941.6,118.2,940.3,118.2,938.7z"/>
		<path class="st1" d="M133.2,940.4c0,1.2-1,2.2-2.2,2.2h-3.3v-7.6h3c1.2,0,2.1,0.9,2.1,2.1c0,0.7-0.3,1.2-0.8,1.6
			C132.7,938.9,133.2,939.5,133.2,940.4z M128.7,935.8v2.3h2c0.6,0,1.1-0.5,1.1-1.2c0-0.6-0.5-1.2-1.1-1.2H128.7z M132.2,940.3
			c0-0.7-0.5-1.2-1.2-1.2h-2.3v2.5h2.3C131.7,941.6,132.2,941,132.2,940.3z"/>
		<path class="st1" d="M139.4,939.4v3.1h-1v-3.1l-2.7-4.5h1.1l2.1,3.6l2.1-3.6h1.1L139.4,939.4z"/>
	</g>
	<g>
		<path class="st1" d="M204.8,958.1c0-3.6,2.7-6.4,6.5-6.4c2.3,0,4.3,1.2,5.3,3l-1.8,1c-0.7-1.2-2-2-3.6-2c-2.7,0-4.4,1.9-4.4,4.4
			s1.8,4.4,4.4,4.4c1.6,0,2.9-0.8,3.6-2l1.8,1c-1,1.8-3,3-5.3,3C207.5,964.5,204.8,961.7,204.8,958.1z"/>
		<path class="st1" d="M227.1,955.4v8.9h-1.9V963c-0.7,0.9-1.7,1.5-3.1,1.5c-2.4,0-4.4-2-4.4-4.7c0-2.6,2-4.7,4.4-4.7
			c1.4,0,2.4,0.6,3.1,1.5v-1.3H227.1z M225.2,959.9c0-1.6-1.2-2.8-2.8-2.8c-1.6,0-2.8,1.2-2.8,2.8c0,1.6,1.2,2.8,2.8,2.8
			C224,962.7,225.2,961.5,225.2,959.9z"/>
		<path class="st1" d="M237.4,958.9v5.4h-1.9v-5.2c0-1.3-0.8-2.1-2-2.1c-1.3,0-2.2,0.7-2.2,2.5v4.7h-1.9v-8.9h1.9v1.1
			c0.6-0.9,1.5-1.4,2.7-1.4C236,955.2,237.4,956.6,237.4,958.9z"/>
		<path class="st1" d="M248.4,951.9v12.4h-1.9V963c-0.7,0.9-1.7,1.5-3.1,1.5c-2.4,0-4.4-2-4.4-4.7c0-2.6,2-4.7,4.4-4.7
			c1.4,0,2.4,0.6,3.1,1.5v-4.8H248.4z M246.5,959.9c0-1.6-1.2-2.8-2.8-2.8c-1.6,0-2.8,1.2-2.8,2.8c0,1.6,1.2,2.8,2.8,2.8
			C245.3,962.7,246.5,961.5,246.5,959.9z"/>
		<path class="st1" d="M250.6,951.4h1.9v12.9h-1.9V951.4z"/>
		<path class="st1" d="M259.1,962.8c1.1,0,1.9-0.5,2.3-1.1l1.6,0.9c-0.8,1.2-2.1,1.9-3.9,1.9c-2.9,0-4.8-2-4.8-4.7
			c0-2.6,1.9-4.7,4.7-4.7c2.6,0,4.4,2.1,4.4,4.7c0,0.3,0,0.5-0.1,0.8h-7C256.5,962.1,257.7,962.8,259.1,962.8z M261.4,959.1
			c-0.3-1.5-1.4-2.2-2.5-2.2c-1.4,0-2.4,0.8-2.7,2.2H261.4z"/>
	</g>
	<g>
		<g>
			<g>
				<path class="st1" d="M846.1,938.7c0,2.1-1.5,3.8-3.6,3.8h-3v-7.6h3C844.6,934.9,846.1,936.6,846.1,938.7z M845.2,938.7
					c0-1.6-1.1-2.9-2.6-2.9h-2v5.7h2C844.1,941.6,845.2,940.3,845.2,938.7z"/>
			</g>
			<g>
				<path class="st1" d="M849.3,938.7c0-2.2,1.7-4,3.9-4c2.2,0,4,1.8,4,4c0,2.2-1.7,4-4,4C851,942.7,849.3,940.9,849.3,938.7z
					 M856.1,938.7c0-1.7-1.3-3-2.9-3c-1.7,0-2.9,1.3-2.9,3c0,1.7,1.3,3,2.9,3C854.9,941.7,856.1,940.4,856.1,938.7z"/>
			</g>
			<g>
				<path class="st1" d="M859.8,934.9h1.1l1.7,6.3l1.9-6.3h1l1.9,6.3l1.7-6.3h1.1l-2.2,7.6h-1.2l-1.8-6.1l-1.8,6.1H862L859.8,934.9z
					"/>
			</g>
			<g>
				<path class="st1" d="M879.3,934.9v7.6h-0.8l-3.9-5.7v5.7h-1v-7.6h0.8l3.9,5.7v-5.7H879.3z"/>
			</g>
			<g>
				<path class="st1" d="M887.5,941.6v1h-4.3v-7.6h1v6.7H887.5z"/>
			</g>
			<g>
				<path class="st1" d="M889.9,938.7c0-2.2,1.7-4,3.9-4c2.2,0,4,1.8,4,4c0,2.2-1.7,4-4,4C891.6,942.7,889.9,940.9,889.9,938.7z
					 M896.8,938.7c0-1.7-1.3-3-2.9-3c-1.7,0-2.9,1.3-2.9,3c0,1.7,1.3,3,2.9,3C895.5,941.7,896.8,940.4,896.8,938.7z"/>
			</g>
			<g>
				<path class="st1" d="M905.4,940.8H902l-0.6,1.7h-1.1l2.8-7.6h1.1l2.8,7.6H906L905.4,940.8z M905.1,939.9l-1.4-3.8l-1.4,3.8
					H905.1z"/>
			</g>
			<g>
				<path class="st1" d="M916.9,938.7c0,2.1-1.5,3.8-3.6,3.8h-3v-7.6h3C915.4,934.9,916.9,936.6,916.9,938.7z M915.9,938.7
					c0-1.6-1.1-2.9-2.6-2.9h-2v5.7h2C914.9,941.6,915.9,940.3,915.9,938.7z"/>
			</g>
			<g>
				<path class="st1" d="M926.5,935.8v2.5h3.2v1h-3.2v3.2h-1v-7.6h4.4v1H926.5z"/>
			</g>
			<g>
				<path class="st1" d="M936.2,939.6h-1.8v2.9h-1v-7.6h3c1.3,0,2.4,1.1,2.4,2.4c0,1-0.7,1.9-1.6,2.2l1.8,3.1h-1.1L936.2,939.6z
					 M934.4,938.7h2c0.8,0,1.4-0.6,1.4-1.4c0-0.8-0.6-1.4-1.4-1.4h-2V938.7z"/>
			</g>
			<g>
				<path class="st1" d="M941.9,938.7c0-2.2,1.7-4,3.9-4c2.2,0,4,1.8,4,4c0,2.2-1.7,4-4,4C943.6,942.7,941.9,940.9,941.9,938.7z
					 M948.8,938.7c0-1.7-1.3-3-2.9-3c-1.7,0-2.9,1.3-2.9,3c0,1.7,1.3,3,2.9,3C947.5,941.7,948.8,940.4,948.8,938.7z"/>
			</g>
			<g>
				<path class="st1" d="M960.4,942.5h-1v-6l-2.5,4.2h-0.1l-2.5-4.1v5.9h-1v-7.6h1.1l2.4,4l2.4-4h1.1V942.5z"/>
			</g>
		</g>
		<g>
			<g>
				<path class="st1" d="M839.3,952.9c0-0.7,0.5-1.2,1.2-1.2c0.7,0,1.2,0.5,1.2,1.2c0,0.7-0.5,1.2-1.2,1.2
					C839.9,954.1,839.3,953.6,839.3,952.9z M839.6,955.4h1.9v8.9h-1.9V955.4z"/>
			</g>
			<g>
				<path class="st1" d="M843.7,951.4h1.9v12.9h-1.9V951.4z"/>
			</g>
			<g>
				<path class="st1" d="M847.8,951.4h1.9v12.9h-1.9V951.4z"/>
			</g>
			<g>
				<path class="st1" d="M852,951.4h1.9v12.9H852V951.4z"/>
			</g>
			<g>
				<path class="st1" d="M864,955.4v8.9h-1.9v-1.1c-0.6,0.9-1.5,1.4-2.7,1.4c-2,0-3.4-1.3-3.4-3.6v-5.4h1.9v5.2c0,1.3,0.8,2.1,2,2.1
					c1.3,0,2.2-0.7,2.2-2.5v-4.7H864z"/>
			</g>
			<g>
				<path class="st1" d="M872.6,961.8c0,1.8-1.5,2.7-3.5,2.7c-1.8,0-3-0.8-3.6-2.1l1.6-1c0.3,0.8,1,1.3,2,1.3c0.8,0,1.5-0.3,1.5-1
					c0-1.6-4.8-0.7-4.8-3.9c0-1.7,1.4-2.7,3.2-2.7c1.5,0,2.7,0.7,3.3,1.8l-1.6,0.9c-0.3-0.7-0.9-1-1.7-1c-0.7,0-1.3,0.3-1.3,0.9
					C867.9,959.5,872.6,958.5,872.6,961.8z"/>
			</g>
			<g>
				<path class="st1" d="M876.7,957.3v4.2c0,1.1,0.7,1.1,2.2,1v1.7c-2.9,0.4-4.1-0.5-4.1-2.8v-4.2h-1.6v-1.8h1.6v-1.9l1.9-0.6v2.5
					h2.2v1.8H876.7z"/>
			</g>
			<g>
				<path class="st1" d="M885.4,955.3v2.1c-1.3-0.1-2.7,0.5-2.7,2.5v4.5h-1.9v-8.9h1.9v1.5C883.2,955.7,884.2,955.3,885.4,955.3z"/>
			</g>
			<g>
				<path class="st1" d="M895.3,955.4v8.9h-1.9V963c-0.7,0.9-1.7,1.5-3.1,1.5c-2.4,0-4.4-2-4.4-4.7c0-2.6,2-4.7,4.4-4.7
					c1.4,0,2.4,0.6,3.1,1.5v-1.3H895.3z M893.4,959.9c0-1.6-1.2-2.8-2.8-2.8c-1.6,0-2.8,1.2-2.8,2.8c0,1.6,1.2,2.8,2.8,2.8
					C892.2,962.7,893.4,961.5,893.4,959.9z"/>
			</g>
			<g>
				<path class="st1" d="M900.3,957.3v4.2c0,1.1,0.7,1.1,2.2,1v1.7c-2.9,0.4-4.1-0.5-4.1-2.8v-4.2h-1.6v-1.8h1.6v-1.9l1.9-0.6v2.5
					h2.2v1.8H900.3z"/>
			</g>
			<g>
				<path class="st1" d="M903.9,952.9c0-0.7,0.5-1.2,1.2-1.2c0.7,0,1.2,0.5,1.2,1.2c0,0.7-0.5,1.2-1.2,1.2
					C904.5,954.1,903.9,953.6,903.9,952.9z M904.2,955.4h1.9v8.9h-1.9V955.4z"/>
			</g>
			<g>
				<path class="st1" d="M907.8,959.9c0-2.6,2.1-4.7,4.7-4.7c2.6,0,4.7,2,4.7,4.7c0,2.6-2.1,4.7-4.7,4.7
					C909.9,964.5,907.8,962.5,907.8,959.9z M915.3,959.9c0-1.6-1.2-2.8-2.8-2.8c-1.6,0-2.8,1.2-2.8,2.8c0,1.6,1.2,2.8,2.8,2.8
					C914.1,962.7,915.3,961.5,915.3,959.9z"/>
			</g>
			<g>
				<path class="st1" d="M927,958.9v5.4h-1.9v-5.2c0-1.3-0.8-2.1-2-2.1c-1.3,0-2.2,0.7-2.2,2.5v4.7h-1.9v-8.9h1.9v1.1
					c0.6-0.9,1.5-1.4,2.7-1.4C925.5,955.2,927,956.6,927,958.9z"/>
			</g>
			<g>
				<path class="st1" d="M935.5,961.8c0,1.8-1.5,2.7-3.5,2.7c-1.8,0-3-0.8-3.6-2.1l1.6-1c0.3,0.8,1,1.3,2,1.3c0.8,0,1.5-0.3,1.5-1
					c0-1.6-4.8-0.7-4.8-3.9c0-1.7,1.4-2.7,3.2-2.7c1.5,0,2.7,0.7,3.3,1.8l-1.6,0.9c-0.3-0.7-0.9-1-1.7-1c-0.7,0-1.3,0.3-1.3,0.9
					C930.7,959.5,935.5,958.5,935.5,961.8z"/>
			</g>
			<g>
				<path class="st1" d="M936.8,963.2c0-0.7,0.6-1.3,1.3-1.3c0.7,0,1.3,0.6,1.3,1.3c0,0.7-0.6,1.3-1.3,1.3
					C937.4,964.5,936.8,963.9,936.8,963.2z"/>
			</g>
			<g>
				<path class="st1" d="M940.3,959.9c0-2.6,2-4.7,4.7-4.7c1.7,0,3.2,0.9,3.9,2.3l-1.6,1c-0.4-0.8-1.3-1.4-2.3-1.4
					c-1.6,0-2.7,1.2-2.7,2.8c0,1.6,1.2,2.8,2.7,2.8c1.1,0,1.9-0.5,2.4-1.4l1.6,0.9c-0.7,1.4-2.2,2.3-4,2.3
					C942.3,964.5,940.3,962.5,940.3,959.9z"/>
			</g>
			<g>
				<path class="st1" d="M949.7,959.9c0-2.6,2.1-4.7,4.7-4.7c2.6,0,4.7,2,4.7,4.7c0,2.6-2.1,4.7-4.7,4.7
					C951.8,964.5,949.7,962.5,949.7,959.9z M957.2,959.9c0-1.6-1.2-2.8-2.8-2.8s-2.8,1.2-2.8,2.8c0,1.6,1.2,2.8,2.8,2.8
					S957.2,961.5,957.2,959.9z"/>
			</g>
		</g>
	</g>
</g>
<path id="XMLID_230_" class="st2" d="M620.1,759.3c34.8-5,70.7-52.8,49.1-55.9c-9.5-1.4-28.7-17.2-77.4-17.2
	c-48.7,0-88.1,16.8-88.1,37.5c0,15.3,21.6,28.5,52.4,34.3c-15.2,2.2-28.5,6.1-38.7,11.2c-5.4-0.4-11.1-0.7-16.8-0.7
	c-12.5,0-24.4,1.1-35.1,3.1c-6-6.4-15.9-11.9-28.6-16c1.2-2.5,1.8-5,1.8-7.7c0-20.7-39.4-37.5-88.1-37.5s-78.4,28.4-88.1,37.5
	c-8.9,8.4,13.6,23,34.8,29.9c-1.2,2.5-1.8,5-1.8,7.7c0,20.7,39.4,37.5,88.1,37.5c12.5,0,24.4-1.1,35.1-3.1
	c12.9,13.9,44.7,23.7,81.9,23.7c26.9,0,43.2-12.9,59.3-20.9c7.7,26,42.1,29.9,46.4,26c34-30.1,66.3-34.4,66.3-55.2
	C672.5,778.3,650.9,765.2,620.1,759.3z"/>
<g id="XMLID_1_">
	<rect id="XMLID_48_" x="322.1" y="464.5" class="st3" width="143" height="232.6"/>
	<rect id="XMLID_70_" x="322.1" y="464.5" class="st4" width="31.6" height="232.6"/>
	<rect id="XMLID_71_" x="398.3" y="464.5" class="st5" width="66.7" height="232.6"/>
	<rect id="XMLID_69_" x="432.3" y="464.5" class="st6" width="31.1" height="232.6"/>
	<path id="XMLID_79_" class="st7" d="M465,464.5c-1.4-0.7-2.9-1.4-4.5-1.9h-134c-1.6,0.6-3.1,1.2-4.5,1.9v69.3
		c0.5,0.1,1,0.1,1.5,0.1h0c5.4,0,9.7-4.3,9.7-9.7v-4.4c0-5.4,4.3-9.7,9.7-9.7s9.7,4.3,9.7,9.7v27.1c0,6.7,5.5,12.2,12.2,12.2
		c6.7,0,12.2-5.5,12.2-12.2v-11.7c0-8.6,6.9-15.5,15.5-15.5c8.6,0,15.5,6.9,15.5,15.5v8.2c0,6.6,5.3,12,11.9,12c6.6,0,12-5.3,12-12
		v-11.2c0-6.5,5.2-11.7,11.7-11.7c6.5,0,11.7,5.2,11.7,11.7v32.1c0,4.9,4,9,9,9c0.2,0,0.5,0,0.7,0V464.5z"/>
	<path id="XMLID_114_" class="st8" d="M465,597.1c-3.6-1.1-7.2-2-11-2.6c-4-0.6-8.1-0.9-12.1-0.9c-22.6,0-43.8,9.9-58.4,26.7
		c-1.8,2.1-4.9,2.4-7.1,0.9c-6.1-4.4-10.7-9.8-13.6-16.2l-4.4-9.7c-1.5-3.2-5.8-3.9-8.2-1.3l-7.2,7.9c-8.3,9.1-15.4,12.5-21,13.7
		v76.6h143V597.1z"/>
	<rect id="XMLID_45_" x="322.1" y="464.5" class="st9" width="143" height="232.6"/>
	<ellipse id="XMLID_44_" class="st9" cx="393.5" cy="464.5" rx="71.5" ry="12.3"/>
	<ellipse id="XMLID_43_" class="st9" cx="393.5" cy="464.5" rx="71.5" ry="12.3"/>
	<path id="XMLID_42_" class="st0" d="M393.5,485.1c-19.5,0-38-1.3-51.9-3.7c-13.7-2.4-27.8-6.2-27.8-16.8c0-10.6,14-14.4,27.8-16.8
		c13.9-2.4,32.4-3.7,51.9-3.7c19.5,0,38,1.3,51.9,3.7c13.7,2.4,27.8,6.2,27.8,16.8c0,10.6-14,14.4-27.8,16.8
		C431.5,483.8,413.1,485.1,393.5,485.1z"/>
	<path id="XMLID_41_" class="st0" d="M473.2,464.5c0-10.6-14-14.4-27.8-16.8c-13.9-2.4-32.4-3.7-51.9-3.7c-19.5,0-38,1.3-51.9,3.7
		c-13.7,2.4-27.8,6.2-27.8,16.8V513c0,5.4,4.3,9.7,9.7,9.7h0c5.4,0,9.7-4.3,9.7-9.7v-4.4c0-5.4,4.3-9.7,9.7-9.7h0
		c5.4,0,9.7,4.3,9.7,9.7v27.1c0,6.7,5.5,12.2,12.2,12.2l0,0c6.7,0,12.2-5.5,12.2-12.2v-11.7c0-8.6,6.9-15.5,15.5-15.5h0
		c8.6,0,15.5,6.9,15.5,15.5v8.2c0,6.6,5.3,12,11.9,12h0c6.6,0,12-5.3,12-12V521c0-6.5,5.2-11.7,11.7-11.7h0
		c6.5,0,11.7,5.2,11.7,11.7v32.1c0,4.9,4,9,9,9h0c4.9,0,9-4,9-9V464.5L473.2,464.5z"/>
	<path id="XMLID_78_" class="st10" d="M445.5,447.7c-5.7-1-12.3-1.8-19.3-2.4v97.1c3.4-2.1,5.7-5.9,5.7-10.2V521
		c0-6.5,5.2-11.7,11.7-11.7c6.5,0,11.7,5.2,11.7,11.7v32.1c0,4.9,4,9,9,9s9-4,9-9v-88.5C473.2,453.9,459.2,450.1,445.5,447.7z"/>
	<path id="XMLID_40_" class="st9" d="M473.2,464.5c0-10.6-14-14.4-27.8-16.8c-13.9-2.4-32.4-3.7-51.9-3.7c-19.5,0-38,1.3-51.9,3.7
		c-13.7,2.4-27.8,6.2-27.8,16.8V513c0,5.4,4.3,9.7,9.7,9.7h0c5.4,0,9.7-4.3,9.7-9.7v-4.4c0-5.4,4.3-9.7,9.7-9.7h0
		c5.4,0,9.7,4.3,9.7,9.7v27.1c0,6.7,5.5,12.2,12.2,12.2l0,0c6.7,0,12.2-5.5,12.2-12.2v-11.7c0-8.6,6.9-15.5,15.5-15.5h0
		c8.6,0,15.5,6.9,15.5,15.5v8.2c0,6.6,5.3,12,11.9,12h0c6.6,0,12-5.3,12-12V521c0-6.5,5.2-11.7,11.7-11.7h0
		c6.5,0,11.7,5.2,11.7,11.7v32.1c0,4.9,4,9,9,9h0c4.9,0,9-4,9-9V464.5L473.2,464.5z"/>
	<path id="XMLID_73_" class="st11" d="M393.5,485.1c-19.5,0-38-1.3-51.9-3.7c-13.7-2.4-27.8-6.2-27.8-16.8c0-10.6,14-14.4,27.8-16.8
		c13.9-2.4,32.4-3.7,51.9-3.7c19.5,0,38,1.3,51.9,3.7c13.7,2.4,27.8,6.2,27.8,16.8c0,10.6-14,14.4-27.8,16.8
		C431.5,483.8,413.1,485.1,393.5,485.1z"/>
	<path id="XMLID_39_" class="st9" d="M393.5,485.1c-19.5,0-38-1.3-51.9-3.7c-13.7-2.4-27.8-6.2-27.8-16.8c0-10.6,14-14.4,27.8-16.8
		c13.9-2.4,32.4-3.7,51.9-3.7c19.5,0,38,1.3,51.9,3.7c13.7,2.4,27.8,6.2,27.8,16.8c0,10.6-14,14.4-27.8,16.8
		C431.5,483.8,413.1,485.1,393.5,485.1z"/>
	<path id="XMLID_38_" class="st0" d="M408.2,371.7c11.6,18.6,26,92.8-14.7,92.8s-26.3-74.2-14.7-92.8c4.5-7.2,10.3-15.4,14.7-15.4
		S403.7,364.5,408.2,371.7z"/>
	<path id="XMLID_63_" class="st12" d="M408.2,371.7c11.6,18.6,26,92.8-14.7,92.8s-26.3-74.2-14.7-92.8c4.5-7.2,10.3-15.4,14.7-15.4
		S403.7,364.5,408.2,371.7z"/>
	<path id="XMLID_64_" class="st13" d="M400.5,421.1c5.5,7.2,12.3,36.1-7,36.1c-19.3,0-12.5-28.8-7-36.1c2.1-2.8,4.9-6,7-6
		C395.6,415.1,398.4,418.3,400.5,421.1z"/>
	<path id="XMLID_29_" class="st9" d="M408.2,371.7c11.6,18.6,26,92.8-14.7,92.8s-26.3-74.2-14.7-92.8c4.5-7.2,10.3-15.4,14.7-15.4
		S403.7,364.5,408.2,371.7z"/>
</g>
<g id="XMLID_144_">
	<g id="XMLID_148_" class="st14">
		<line id="XMLID_150_" class="st15" x1="184.7" y1="487" x2="196.7" y2="487"/>
		<line id="XMLID_149_" class="st15" x1="190.7" y1="481" x2="190.7" y2="492.9"/>
	</g>
	<g id="XMLID_232_" class="st16">
		<line id="XMLID_234_" class="st17" x1="830.1" y1="492.9" x2="842.1" y2="492.9"/>
		<line id="XMLID_233_" class="st17" x1="836.1" y1="487" x2="836.1" y2="498.9"/>
	</g>
	<circle id="XMLID_133_" class="st18" cx="640.2" cy="315.8" r="8.7"/>
	<circle id="XMLID_132_" class="st19" cx="705.5" cy="464.5" r="3.8"/>
	<circle id="XMLID_134_" class="st17" cx="285.6" cy="410.4" r="7.3"/>
	<g id="XMLID_131_">
		<line id="XMLID_135_" class="st19" x1="357.5" y1="289.8" x2="366.6" y2="289.8"/>
		<line id="XMLID_136_" class="st19" x1="362" y1="285.2" x2="362" y2="294.3"/>
	</g>
	<g id="XMLID_138_">
		<line id="XMLID_140_" class="st17" x1="276.5" y1="521.5" x2="294.8" y2="521.5"/>
		<line id="XMLID_139_" class="st17" x1="285.6" y1="512.4" x2="285.6" y2="530.7"/>
	</g>
	<g id="XMLID_162_" class="st20">
		<line id="XMLID_231_" class="st21" x1="754.4" y1="324.5" x2="767.8" y2="324.5"/>
		<line id="XMLID_229_" class="st21" x1="761.1" y1="317.8" x2="761.1" y2="331.2"/>
	</g>
	<g id="XMLID_137_">
		<g id="XMLID_141_">
			<g id="XMLID_142_">
				<line id="XMLID_143_" class="st22" x1="463.8" y1="173.6" x2="463.8" y2="183.2"/>
				<line id="XMLID_151_" class="st22" x1="463.8" y1="210.8" x2="463.8" y2="220.5"/>
			</g>
			<g id="XMLID_152_">
				<line id="XMLID_153_" class="st22" x1="487.2" y1="197" x2="477.6" y2="197"/>
				<line id="XMLID_154_" class="st22" x1="449.9" y1="197" x2="440.3" y2="197"/>
			</g>
		</g>
		<g id="XMLID_155_">
			<g id="XMLID_158_">
				<line id="XMLID_160_" class="st22" x1="480.3" y1="180.4" x2="473.5" y2="187.2"/>
				<line id="XMLID_159_" class="st22" x1="454" y1="206.8" x2="447.2" y2="213.6"/>
			</g>
			<g id="XMLID_156_">
				<line id="XMLID_157_" class="st22" x1="480.3" y1="213.6" x2="473.5" y2="206.8"/>
				<line id="XMLID_161_" class="st22" x1="454" y1="187.2" x2="447.2" y2="180.4"/>
			</g>
		</g>
	</g>
	<g id="XMLID_208_" class="st23">
		<g id="XMLID_123_">
			<g id="XMLID_128_">
				<line id="XMLID_130_" class="st24" x1="630.2" y1="216.2" x2="630.2" y2="224.7"/>
				<line id="XMLID_129_" class="st24" x1="630.2" y1="249.3" x2="630.2" y2="257.8"/>
			</g>
			<g id="XMLID_125_">
				<line id="XMLID_127_" class="st24" x1="651" y1="237" x2="642.5" y2="237"/>
				<line id="XMLID_126_" class="st24" x1="617.9" y1="237" x2="609.4" y2="237"/>
			</g>
		</g>
		<g id="XMLID_209_">
			<g id="XMLID_117_">
				<line id="XMLID_119_" class="st24" x1="644.9" y1="222.3" x2="638.9" y2="228.3"/>
				<line id="XMLID_118_" class="st24" x1="621.5" y1="245.7" x2="615.5" y2="251.7"/>
			</g>
			<g id="XMLID_210_">
				<line id="XMLID_116_" class="st24" x1="644.9" y1="251.7" x2="638.9" y2="245.7"/>
				<line id="XMLID_211_" class="st24" x1="621.5" y1="228.3" x2="615.5" y2="222.3"/>
			</g>
		</g>
	</g>
	<g id="XMLID_163_">
		<g id="XMLID_171_">
			<g id="XMLID_175_">
				<line id="XMLID_177_" class="st19" x1="711.8" y1="377.1" x2="711.8" y2="383.3"/>
				<line id="XMLID_176_" class="st19" x1="711.8" y1="400.9" x2="711.8" y2="407.1"/>
			</g>
			<g id="XMLID_172_">
				<line id="XMLID_174_" class="st19" x1="726.8" y1="392.1" x2="720.6" y2="392.1"/>
				<line id="XMLID_173_" class="st19" x1="703" y1="392.1" x2="696.8" y2="392.1"/>
			</g>
		</g>
		<g id="XMLID_164_">
			<g id="XMLID_168_">
				<line id="XMLID_170_" class="st19" x1="722.4" y1="381.5" x2="718" y2="385.9"/>
				<line id="XMLID_169_" class="st19" x1="705.5" y1="398.4" x2="701.2" y2="402.7"/>
			</g>
			<g id="XMLID_165_">
				<line id="XMLID_167_" class="st19" x1="722.4" y1="402.7" x2="718" y2="398.4"/>
				<line id="XMLID_166_" class="st19" x1="705.5" y1="385.9" x2="701.2" y2="381.5"/>
			</g>
		</g>
	</g>
	<g id="XMLID_178_">
		<g id="XMLID_186_">
			<g id="XMLID_190_">
				<line id="XMLID_115_" class="st18" x1="335.8" y1="345.8" x2="335.8" y2="351.1"/>
				<line id="XMLID_191_" class="st18" x1="335.8" y1="366.1" x2="335.8" y2="371.4"/>
			</g>
			<g id="XMLID_187_">
				<line id="XMLID_189_" class="st18" x1="348.6" y1="358.6" x2="343.3" y2="358.6"/>
				<line id="XMLID_107_" class="st18" x1="328.2" y1="358.6" x2="323" y2="358.6"/>
			</g>
		</g>
		<g id="XMLID_179_">
			<g id="XMLID_183_">
				<line id="XMLID_185_" class="st18" x1="344.8" y1="349.6" x2="341.1" y2="353.3"/>
				<line id="XMLID_184_" class="st18" x1="330.4" y1="363.9" x2="326.7" y2="367.6"/>
			</g>
			<g id="XMLID_180_">
				<line id="XMLID_182_" class="st18" x1="344.8" y1="367.6" x2="341.1" y2="363.9"/>
				<line id="XMLID_181_" class="st18" x1="330.4" y1="353.3" x2="326.7" y2="349.6"/>
			</g>
		</g>
	</g>
	<g id="XMLID_31_">
		<g id="XMLID_201_">
			<g id="XMLID_205_">
				<line id="XMLID_207_" class="st18" x1="331.9" y1="232.9" x2="331.9" y2="238.1"/>
				<line id="XMLID_206_" class="st18" x1="331.9" y1="253.2" x2="331.9" y2="258.5"/>
			</g>
			<g id="XMLID_202_">
				<line id="XMLID_204_" class="st18" x1="344.7" y1="245.7" x2="339.5" y2="245.7"/>
				<line id="XMLID_203_" class="st18" x1="324.4" y1="245.7" x2="319.2" y2="245.7"/>
			</g>
		</g>
		<g id="XMLID_101_">
			<g id="XMLID_198_">
				<line id="XMLID_200_" class="st18" x1="341" y1="236.6" x2="337.3" y2="240.3"/>
				<line id="XMLID_199_" class="st18" x1="326.6" y1="251" x2="322.9" y2="254.7"/>
			</g>
			<g id="XMLID_195_">
				<line id="XMLID_197_" class="st18" x1="341" y1="254.7" x2="337.3" y2="251"/>
				<line id="XMLID_196_" class="st18" x1="326.6" y1="240.3" x2="322.9" y2="236.6"/>
			</g>
		</g>
	</g>
</g>
<g id="XMLID_47_">
	<rect id="XMLID_46_" x="456.2" y="358.3" class="st25" width="174" height="326.5"/>
	<rect id="XMLID_4_" x="456.2" y="358.3" class="st25" width="174" height="326.5"/>
	<rect id="XMLID_67_" x="456.2" y="358.3" class="st26" width="35.4" height="326.5"/>
	<rect id="XMLID_68_" x="564.3" y="358.3" class="st27" width="65.9" height="326.5"/>
	<rect id="XMLID_76_" x="605.3" y="358.3" class="st28" width="24.9" height="326.5"/>
	<path id="XMLID_112_" class="st29" d="M630.2,551.9c-14.2,11.6-26.3,16.9-38.1,16.9c-9.9,0-20.4-3.7-32.1-11.2l-9.1-5.9
		c-2.9-1.9-6.8-0.2-7.4,3.2l-1.8,10.7c-4.9,28.5-31,44.2-44.8,50.6c-11-11-25.1-18.5-40.6-21.4v84.9h174V551.9z"/>
	<path id="XMLID_66_" class="st30" d="M630.2,358.3h-174v80.6c0.6,0.1,1.2,0.2,1.8,0.2c6.5,0,11.8-5.3,11.8-11.8V422
		c0-6.5,5.3-11.8,11.8-11.8s11.8,5.3,11.8,11.8v25c0,6.5,5.3,11.8,11.8,11.8S517,453.5,517,447v-20.1c0-6.5,5.3-11.8,11.8-11.8
		s11.8,5.3,11.8,11.8v4.1c0,4.5,3.6,8.1,8.1,8.1h0c4.5,0,8.1-3.6,8.1-8.1v-8.5c0-5,4.1-9.1,9.1-9.1h0c5,0,9.1,4.1,9.1,9.1v40.1
		c0,6.5,5.3,11.8,11.8,11.8s11.8-5.3,11.8-11.8v-29.8c0-5.5,4.5-10,10-10s10,4.5,10,10v43.3c0,6,4.9,10.9,10.9,10.9h0
		c0.3,0,0.6,0,0.9,0V358.3z"/>
	<rect id="XMLID_3_" x="456.2" y="358.3" class="st9" width="174" height="326.5"/>
	<ellipse id="XMLID_7_" class="st9" cx="543.2" cy="358.3" rx="87" ry="15"/>
	<ellipse id="XMLID_5_" class="st9" cx="543.2" cy="358.3" rx="87" ry="15"/>
	<path id="XMLID_8_" class="st0" d="M543.2,383.3c-23.8,0-46.2-1.6-63.2-4.5c-16.7-2.9-33.8-7.6-33.8-20.5s17.1-17.6,33.8-20.5
		c17-2.9,39.4-4.5,63.2-4.5c23.8,0,46.2,1.6,63.2,4.5c16.7,2.9,33.8,7.6,33.8,20.5s-17.1,17.6-33.8,20.5
		C589.4,381.7,567,383.3,543.2,383.3z"/>
	<path id="XMLID_11_" class="st0" d="M640.2,358.3c0-12.9-17.1-17.6-33.8-20.5c-17-2.9-39.4-4.5-63.2-4.5c-23.8,0-46.2,1.6-63.2,4.5
		c-16.7,2.9-33.8,7.6-33.8,20.5v59c0,6.5,5.3,11.8,11.8,11.8h0c6.5,0,11.8-5.3,11.8-11.8V412c0-6.5,5.3-11.8,11.8-11.8h0
		c6.5,0,11.8,5.3,11.8,11.8v25c0,6.5,5.3,11.8,11.8,11.8h0c6.5,0,11.8-5.3,11.8-11.8v-20.1c0-6.5,5.3-11.8,11.8-11.8l0,0
		c6.5,0,11.8,5.3,11.8,11.8v4.1c0,4.5,3.6,8.1,8.1,8.1l0,0c4.5,0,8.1-3.6,8.1-8.1v-8.5c0-5,4.1-9.1,9.1-9.1l0,0c5,0,9.1,4.1,9.1,9.1
		v40.1c0,6.5,5.3,11.8,11.8,11.8l0,0c6.5,0,11.8-5.3,11.8-11.8v-29.8c0-5.5,4.5-10,10-10l0,0c5.5,0,10,4.5,10,10v43.3
		c0,6,4.9,10.9,10.9,10.9l0,0c6,0,10.9-4.9,10.9-10.9V358.3L640.2,358.3z"/>
	<path id="XMLID_237_" class="st10" d="M500,335.2c-7.2,0.7-14,1.6-20,2.6c-16.7,2.9-33.8,7.6-33.8,20.5v59
		c0,6.5,5.3,11.8,11.8,11.8c6.5,0,11.8-5.3,11.8-11.8V412c0-6.5,5.3-11.8,11.8-11.8c6.5,0,11.8,5.3,11.8,11.8v25
		c0,4.7,2.7,8.7,6.6,10.6V335.2z"/>
	<path id="XMLID_20_" class="st9" d="M640.2,358.3c0-12.9-17.1-17.6-33.8-20.5c-17-2.9-39.4-4.5-63.2-4.5c-23.8,0-46.2,1.6-63.2,4.5
		c-16.7,2.9-33.8,7.6-33.8,20.5v59c0,6.5,5.3,11.8,11.8,11.8h0c6.5,0,11.8-5.3,11.8-11.8V412c0-6.5,5.3-11.8,11.8-11.8h0
		c6.5,0,11.8,5.3,11.8,11.8v25c0,6.5,5.3,11.8,11.8,11.8h0c6.5,0,11.8-5.3,11.8-11.8v-20.1c0-6.5,5.3-11.8,11.8-11.8l0,0
		c6.5,0,11.8,5.3,11.8,11.8v4.1c0,4.5,3.6,8.1,8.1,8.1l0,0c4.5,0,8.1-3.6,8.1-8.1v-8.5c0-5,4.1-9.1,9.1-9.1l0,0c5,0,9.1,4.1,9.1,9.1
		v40.1c0,6.5,5.3,11.8,11.8,11.8l0,0c6.5,0,11.8-5.3,11.8-11.8v-29.8c0-5.5,4.5-10,10-10l0,0c5.5,0,10,4.5,10,10v43.3
		c0,6,4.9,10.9,10.9,10.9l0,0c6,0,10.9-4.9,10.9-10.9V358.3L640.2,358.3z"/>
	<path id="XMLID_6_" class="st9" d="M640.2,358.3c0-12.9-17.1-17.6-33.8-20.5c-17-2.9-39.4-4.5-63.2-4.5c-23.8,0-46.2,1.6-63.2,4.5
		c-16.7,2.9-33.8,7.6-33.8,20.5v59c0,6.5,5.3,11.8,11.8,11.8h0c6.5,0,11.8-5.3,11.8-11.8V412c0-6.5,5.3-11.8,11.8-11.8h0
		c6.5,0,11.8,5.3,11.8,11.8v25c0,6.5,5.3,11.8,11.8,11.8h0c6.5,0,11.8-5.3,11.8-11.8v-20.1c0-6.5,5.3-11.8,11.8-11.8l0,0
		c6.5,0,11.8,5.3,11.8,11.8v4.1c0,4.5,3.6,8.1,8.1,8.1l0,0c4.5,0,8.1-3.6,8.1-8.1v-8.5c0-5,4.1-9.1,9.1-9.1l0,0c5,0,9.1,4.1,9.1,9.1
		v40.1c0,6.5,5.3,11.8,11.8,11.8l0,0c6.5,0,11.8-5.3,11.8-11.8v-29.8c0-5.5,4.5-10,10-10l0,0c5.5,0,10,4.5,10,10v43.3
		c0,6,4.9,10.9,10.9,10.9l0,0c6,0,10.9-4.9,10.9-10.9V358.3L640.2,358.3z"/>
	<path id="XMLID_147_" class="st11" d="M543.2,383.3c-23.8,0-46.2-1.6-63.2-4.5c-16.7-2.9-33.8-7.6-33.8-20.5s17.1-17.6,33.8-20.5
		c17-2.9,39.4-4.5,63.2-4.5c23.8,0,46.2,1.6,63.2,4.5c16.7,2.9,33.8,7.6,33.8,20.5s-17.1,17.6-33.8,20.5
		C589.4,381.7,567,383.3,543.2,383.3z"/>
	<path id="XMLID_9_" class="st9" d="M543.2,383.3c-23.8,0-46.2-1.6-63.2-4.5c-16.7-2.9-33.8-7.6-33.8-20.5s17.1-17.6,33.8-20.5
		c17-2.9,39.4-4.5,63.2-4.5c23.8,0,46.2,1.6,63.2,4.5c16.7,2.9,33.8,7.6,33.8,20.5s-17.1,17.6-33.8,20.5
		C589.4,381.7,567,383.3,543.2,383.3z"/>
	<path id="XMLID_10_" class="st0" d="M561.1,245.3c14.2,22.7,31.6,113-17.9,113s-32.1-90.3-17.9-113c5.5-8.8,12.5-18.8,17.9-18.8
		C548.6,226.5,555.6,236.5,561.1,245.3z"/>
	<path id="XMLID_62_" class="st12" d="M561.1,245.3c14.2,22.7,31.6,113-17.9,113s-32.1-90.3-17.9-113c5.5-8.8,12.5-18.8,17.9-18.8
		C548.6,226.5,555.6,236.5,561.1,245.3z"/>
	<path id="XMLID_65_" class="st13" d="M550.3,305.9c5.6,9,12.5,44.6-7.1,44.6s-12.7-35.7-7.1-44.6c2.2-3.5,4.9-7.4,7.1-7.4
		S548.1,302.4,550.3,305.9z"/>
	<path id="XMLID_12_" class="st9" d="M561.1,245.3c14.2,22.7,31.6,113-17.9,113s-32.1-90.3-17.9-113c5.5-8.8,12.5-18.8,17.9-18.8
		C548.6,226.5,555.6,236.5,561.1,245.3z"/>
</g>
<g>
	<g id="XMLID_25_">
		<path id="XMLID_28_" class="st0" d="M491.6,636.3c0,0,53.8-16.7,61.9-63.6c36.4,23.6,63.6,13.4,93.4-14.4
			c22.4,15.7,44.5,27.8,83,20.8c-21.8,17.1-29.8,57.4-25.4,69.7c-15.4,4.3-41.7,15.2-41.7,55.5c-31.4-20.2-72.8-1.8-86.8,35.6
			c0,0-62.3-37.3-84.4-15.2C509.6,687,512.7,657.4,491.6,636.3z"/>
		<path id="XMLID_49_" class="st31" d="M491.6,636.3c0,0,53.8-16.7,61.9-63.6c36.4,23.6,63.6,13.4,93.4-14.4
			c22.4,15.7,44.5,27.8,83,20.8c-21.8,17.1-29.8,57.4-25.4,69.7c-15.4,4.3-41.7,15.2-41.7,55.5c-31.4-20.2-72.8-1.8-86.8,35.6
			c0,0-62.3-37.3-84.4-15.2C509.6,687,512.7,657.4,491.6,636.3z"/>
		<g id="XMLID_88_" class="st32">
			<path id="XMLID_91_" class="st33" d="M492.1,636.8c-0.1-0.2-0.1-0.4-0.2-0.6c-0.2,0.1-0.3,0.1-0.3,0.1
				C491.7,636.4,491.9,636.6,492.1,636.8z"/>
			<path id="XMLID_94_" class="st34" d="M729.9,579.1c-10.8,1.9-2.2,2.6-10.8,1.9c-15.4,1.9-34.6,46.7-31.6,55.1
				c-15.4,4.3-39.9,15.9-42.7,42c-30.3-7.1-66.9,4.1-80.9,41.5c0,0-34.9-20.9-61.7-22.1c-2.5,8.6-6.1,17.6-10.7,27.3
				c22.2-22.2,84.4,15.2,84.4,15.2c14-37.4,55.4-55.8,86.8-35.6c0-40.4,26.3-51.2,41.7-55.5C700.1,636.5,708,596.2,729.9,579.1z"/>
		</g>
		<path id="XMLID_77_" class="st35" d="M486,641.9c0,0,37-10.4,74,23.1c27.7,25,31.4,52.2,31.4,64.3c0,12.2-5,25.5-5,25.5h-62.7
			l-45.2-9.9c0,0-8.4-21.7-8.4-27.5S456.1,671.7,486,641.9z"/>
		<path id="XMLID_54_" class="st36" d="M506,678.1c0,0,5.3-8.7,4.4-17.6c-0.6-5.8-6.3-16.7-7.5-19.5c10-2.7,51-11.6,61-41.3
			c18.3,9.7,56.5,6.3,82.3-19.5c22.7,9.8,50.2,19,79.6,2.6c-33.6,0-59.1-11.7-66.6-16.5c-7.5-4.8-12.2-8.1-12.2-8.1
			s-22,22.5-45.4,26.7c-23.4,4.1-48.1-12.3-48.1-12.3s-1,34.5-56.2,61.5c4.5,15.2,11.2,27,8.4,47.4"/>
		<path id="XMLID_26_" class="st9" d="M491.6,636.3c0,0,53.8-16.7,61.9-63.6c36.4,23.6,63.6,13.4,93.4-14.4
			c22.4,15.7,44.5,27.8,83,20.8c-21.8,17.1-29.8,57.4-25.4,69.7c-15.4,4.3-41.7,15.2-41.7,55.5c-31.4-20.2-72.8-1.8-86.8,35.6
			c0,0-62.3-37.3-84.4-15.2C509.6,687,512.7,657.4,491.6,636.3z"/>
		<path id="XMLID_27_" class="st9" d="M523.7,701.6c0,0,54.7-71.4,150-98.9"/>
	</g>
	<g id="XMLID_30_">
		<path id="XMLID_33_" class="st0" d="M533.9,729.9c0,0,40.1,14.4,66.3-10.2c11.3,30.8,32.2,37,62.9,33.9
			c6.4,19.7,14.2,37,40.6,50.4c-21,0.4-44.1,21.1-47,30.5c-11.2-4.4-32.1-9.8-50.4,14.5c-9.7-26.4-43.1-34.2-68.6-18
			c0,0-20.6-50.9-44-47.6C521.7,768.6,537,752.2,533.9,729.9z"/>
		<path id="XMLID_50_" class="st33" d="M533.9,729.9c0,0,40.1,14.4,66.3-10.2c11.3,30.8,32.2,37,62.9,33.9
			c6.4,19.7,14.2,37,40.6,50.4c-21,0.4-44.1,21.1-47,30.5c-11.2-4.4-32.1-9.8-50.4,14.5c-9.7-26.4-43.1-34.2-68.6-18
			c0,0-20.6-50.9-44-47.6C521.7,768.6,537,752.2,533.9,729.9z"/>
		<path id="XMLID_111_" class="st36" d="M513.6,792.2c11.8-10.6,17.5-22.5,15.4-36.9c0,0,40.1,14.4,66.3-10.2
			c12.4,21.2,35.4,29.6,59.7,27.3c4.1,12.6,21.3,24.3,36.4,30.5c8.1-5.3,3.1,1.2,12.3,1c-26.4-13.4-34.2-30.7-40.6-50.4
			c-30.7,3.2-51.7-3-62.9-33.9c-26.2,24.6-66.3,10.2-66.3,10.2c3.1,22.3-12.2,38.8-40.3,53.4C500.7,782.3,507.6,786.2,513.6,792.2z"
			/>
		<path id="XMLID_110_" class="st37" d="M691.7,796.6c-18-1.1-36.8,13.2-38.7,19.3c-11.2-4.4-33.2-6.3-46.7,10.8
			c-9.7-26.4-39.9-30.1-61.1-17.1c0,0-17.3-25.2-31.1-39.2c-5.7,4.4-12.6,8.7-20.4,12.7c23.5-3.3,44,47.6,44,47.6
			c25.5-16.2,58.8-8.4,68.6,18c18.4-24.4,39.2-18.9,50.4-14.5c2.9-9.4,26.1-30.1,47-30.5C694.4,799.1,697.1,802.3,691.7,796.6z"/>
		<path id="XMLID_74_" class="st38" d="M593.4,721.8c0,0,1,14.6,0,27c-2,24.5-20.4,64.6-59.3,74.2c-23.8-38.7-55.6-33.5-55.6-38.7
			c0-5.3,15.6-48.4,18.8-51.6C500.4,729.4,569.9,749.4,593.4,721.8z"/>
		<path id="XMLID_32_" class="st9" d="M533.9,729.9c0,0,40.1,14.4,66.3-10.2c11.3,30.8,32.2,37,62.9,33.9
			c6.4,19.7,14.2,37,40.6,50.4c-21,0.4-44.1,21.1-47,30.5c-11.2-4.4-32.1-9.8-50.4,14.5c-9.7-26.4-43.1-34.2-68.6-18
			c0,0-20.6-50.9-44-47.6C521.7,768.6,537,752.2,533.9,729.9z"/>
		<path id="XMLID_100_" class="st9" d="M539.6,774.9c0,0,54.2-3,103.8,14.1"/>
	</g>
	<g id="XMLID_34_">
		<path id="XMLID_37_" class="st0" d="M409.3,649.5c0,0-42.5-1.9-57.4-34.7c-22.1,24.2-43.9,22-71.1,7.4
			c-13.4,15.7-27.2,28.8-56.7,31.1c19.2,8.3,32.8,36.3,31.9,46.1c12.1,0.2,33.4,3.1,41.1,32.6c19.1-20.7,52.8-15.3,70.2,9.4
			c0,0,38.4-39.2,58.8-27.2C405.8,690,397.9,669,409.3,649.5z"/>
		<path id="XMLID_51_" class="st33" d="M409.3,649.5c0,0-42.5-1.9-57.4-34.7c-22.1,24.2-43.9,22-71.1,7.4
			c-13.4,15.7-27.2,28.8-56.7,31.1c19.2,8.3,32.8,36.3,31.9,46.1c12.1,0.2,33.4,3.1,41.1,32.6c19.1-20.7,52.8-15.3,70.2,9.4
			c0,0,38.4-39.2,58.8-27.2C405.8,690,397.9,669,409.3,649.5z"/>
		<path id="XMLID_109_" class="st39" d="M426.2,714.2c-20.4-24.2-28.3-45.2-16.9-64.7c0,0-22.2-1.3-40.6-20.1
			c-9.7,18.1-9.7,30.1-9.7,48.4c-6.9,6.9-29.1,15.3-37,41.6c16.4-1.8,34.2,6.2,45.3,22C367.4,741.5,405.8,702.3,426.2,714.2z"/>
		<path id="XMLID_108_" class="st37" d="M372.8,717.5c-16.4-19.9-50.5-24.4-70.2-9.4c-8-20.2-22.9-26.3-35-26.5
			c0.5-5.7-17.2-20.6-24.7-31.2c-7.1,3.1-8.4,2.1-18.8,2.9c19.2,8.3,32.8,36.3,31.9,46.1c12.1,0.2,33.4,3.1,41.1,32.6
			c19.1-20.7,52.8-15.3,70.2,9.4c0,0,38.4-39.2,58.8-27.2c-6.9-8.1-12.3-15.9-16.1-23.4C391.7,698.2,372.8,717.5,372.8,717.5z"/>
		<g id="XMLID_102_" class="st40">
			<path id="XMLID_105_" class="st33" d="M405,676.9c-6,11.7-5.1,24,1.1,37.3c7.3-2.7,14.4-3.3,20.1,0
				C415,700.9,407.6,688.6,405,676.9z"/>
			<path id="XMLID_106_" class="st36" d="M240.2,664.8c13.9-5.7,31.3-9.5,40.2-20c22.5,10.8,47.6,13.5,68.4-4.7
				c13.1,29,47.9,33.8,55.8,34.6c-1.4-8.7,0-17.1,4.7-25.1c0,0-42.5-1.9-57.4-34.7c-22.1,24.2-43.9,22-71.1,7.4
				c-13.4,15.7-27.2,28.8-56.7,31.1C232.7,657,234.7,656.5,240.2,664.8z"/>
		</g>
		<path id="XMLID_36_" class="st9" d="M409.3,649.5c0,0-42.5-1.9-57.4-34.7c-22.1,24.2-43.9,22-71.1,7.4
			c-13.4,15.7-27.2,28.8-56.7,31.1c19.2,8.3,32.8,36.3,31.9,46.1c12.1,0.2,33.4,3.1,41.1,32.6c19.1-20.7,52.8-15.3,70.2,9.4
			c0,0,38.4-39.2,58.8-27.2C405.8,690,397.9,669,409.3,649.5z"/>
		<path id="XMLID_35_" class="st9" d="M398.3,703.4c0,0-28.3-40-131.5-40.8"/>
	</g>
	<g id="XMLID_21_">
		<circle id="XMLID_19_" class="st41" cx="442" cy="676" r="65.4"/>
		<path id="XMLID_98_" class="st42" d="M398.6,721c9,8,20.4,13.6,33.2,15.7c35.7,5.6,69.2-18.8,74.8-54.5c2.5-15.7-0.9-31-8.5-43.7
			c-2.2-0.2-4.4-0.2-6.6-0.2C443.6,638.2,404,674.5,398.6,721z"/>
		<path id="XMLID_104_" class="st43" d="M452.1,611.4c-0.7-0.1-1.4-0.2-2-0.3c15.9,14.3,24.4,36.1,20.9,58.8
			c-5.5,35-37.8,59.1-72.8,54.8c9.1,8.2,20.6,14,33.6,16c35.7,5.6,69.2-18.8,74.8-54.5C512.3,650.5,487.9,617,452.1,611.4z"/>
		<circle id="XMLID_23_" class="st9" cx="442" cy="676" r="65.4"/>
		
			<ellipse id="XMLID_22_" transform="matrix(0.9565 -0.2918 0.2918 0.9565 -170.3935 149.7486)" class="st0" cx="416.8" cy="646.1" rx="9.5" ry="7.9"/>
	</g>
	<g id="XMLID_16_">
		<circle id="XMLID_24_" class="st0" cx="387.5" cy="744.9" r="51.8"/>
		<circle id="XMLID_18_" class="st9" cx="387.5" cy="744.9" r="51.8"/>
		<path id="XMLID_17_" class="st9" d="M373.7,722.8c0,0,0.3,13-10.2,13"/>
	</g>
	<g id="XMLID_53_">
		<circle id="XMLID_57_" class="st0" cx="387.5" cy="744.9" r="51.8"/>
		<circle id="XMLID_60_" class="st41" cx="387.5" cy="744.9" r="51.8"/>
		<circle id="XMLID_96_" class="st41" cx="387.5" cy="744.9" r="51.8"/>
		<path id="XMLID_103_" class="st42" d="M416.1,701.7c2.1,5.6,3.2,11.6,3.2,17.9c0,28.6-23.2,51.8-51.8,51.8
			c-10.5,0-20.3-3.2-28.5-8.6c7.3,19.7,26.3,33.8,48.6,33.8c28.6,0,51.8-23.2,51.8-51.8C439.3,726.8,430.1,711,416.1,701.7z"/>
		<path id="XMLID_99_" class="st43" d="M403.5,696.7c-5.5,11.9-8.5,25.1-8.5,39c0,19.7,6.2,38.1,16.6,53.2
			c14.8-9.1,24.6-25.4,24.6-44.1C436.3,723,422.7,704.3,403.5,696.7z"/>
		<circle id="XMLID_55_" class="st9" cx="387.5" cy="744.9" r="51.8"/>
		
			<ellipse id="XMLID_81_" transform="matrix(0.8689 -0.4951 0.4951 0.8689 -311.387 277.1985)" class="st0" cx="367.5" cy="726.3" rx="9" ry="6.7"/>
	</g>
	<g id="XMLID_2_">
		<circle id="XMLID_15_" class="st0" cx="494.6" cy="735.8" r="77.5"/>
		<circle id="XMLID_52_" class="st41" cx="494.6" cy="735.8" r="77.5"/>
		<path id="XMLID_97_" class="st39" d="M552.4,684.2c1.3,5.6,2,11.4,2,17.4c0,42.8-34.7,77.5-77.5,77.5c-23,0-43.7-10-57.9-26
			c7.9,34.5,38.7,60.2,75.6,60.2c42.8,0,77.5-34.7,77.5-77.5C572.1,715.9,564.7,697.9,552.4,684.2z"/>
		<circle id="XMLID_13_" class="st9" cx="494.6" cy="735.8" r="77.5"/>
		<ellipse id="XMLID_14_" class="st0" cx="489" cy="703.4" rx="15.1" ry="13.3"/>
	</g>
</g>
</svg>
