<?xml version="1.0" encoding="utf-8"?>
<!-- Generator: Adobe Illustrator 23.1.1, SVG Export Plug-In . SVG Version: 6.00 Build 0)  -->
<svg version="1.1" id="Layer_1" xmlns="http://www.w3.org/2000/svg" xmlns:xlink="http://www.w3.org/1999/xlink" x="0px" y="0px"
	 viewBox="0 0 1000 1000" style="enable-background:new 0 0 1000 1000;" xml:space="preserve">
<style type="text/css">
	.st0{fill:#DCE2E1;}
	.st1{fill:#444E59;}
	.st2{opacity:0.28;fill:#848484;}
	.st3{fill:#F09F54;}
	.st4{opacity:0.29;fill:#F09F54;}
	.st5{fill:none;stroke:#444E59;stroke-width:4;stroke-linecap:round;stroke-linejoin:round;stroke-miterlimit:10;}
	.st6{fill:none;stroke:#444E59;stroke-width:3;stroke-linecap:round;stroke-linejoin:round;stroke-miterlimit:10;}
	.st7{fill:#848484;}
	.st8{opacity:0.25;fill:#848484;}
	.st9{fill:#FFFFFF;}
	.st10{fill:#71A850;}
	.st11{opacity:0.4;fill:#71A850;}
	.st12{opacity:0.48;fill:#848484;}
	.st13{fill:#E9FBFF;}
	.st14{fill:#C9C9C9;}
	.st15{fill:none;stroke:#444E59;stroke-width:5;stroke-linecap:round;stroke-linejoin:round;stroke-miterlimit:10;}
	.st16{opacity:0.29;fill:#848484;}
	.st17{opacity:0.3;}
	.st18{fill:none;stroke:#444E59;stroke-width:2;stroke-linecap:round;stroke-linejoin:round;stroke-dasharray:4.0794,4.0794;}
	.st19{opacity:0.52;fill:#5F8C42;}
	.st20{opacity:0.52;fill:#D38444;}
	.st21{fill:#2FA9ED;}
	.st22{opacity:0.52;fill:#288FBC;}
	.st23{fill:#E7534E;}
	.st24{opacity:0.52;fill:#BF4040;}
	.st25{fill:none;stroke:#FFFFFF;stroke-width:4;stroke-linecap:round;stroke-linejoin:round;stroke-miterlimit:10;}
	.st26{opacity:0.29;}
	.st27{fill:#BCBCBC;}
	.st28{fill:none;stroke:#64BDFF;stroke-width:4;stroke-linecap:round;stroke-linejoin:round;stroke-miterlimit:10;}
	.st29{fill:none;stroke:#FF5F5F;stroke-width:4;stroke-linecap:round;stroke-linejoin:round;stroke-miterlimit:10;}
	.st30{fill:none;stroke:#FFBE78;stroke-width:4;stroke-linecap:round;stroke-linejoin:round;stroke-miterlimit:10;}
	.st31{fill:none;stroke:#C383F2;stroke-width:4;stroke-linecap:round;stroke-linejoin:round;stroke-miterlimit:10;}
	.st32{fill:none;stroke:#6DBF7B;stroke-width:4;stroke-linecap:round;stroke-linejoin:round;stroke-miterlimit:10;}
	.st33{fill:#9483C4;}
	.st34{opacity:0.56;fill:none;stroke:#FFFFFF;stroke-width:3;stroke-linecap:round;stroke-linejoin:round;stroke-miterlimit:10;}
	.st35{opacity:0.56;}
	.st36{fill:none;stroke:#FFFFFF;stroke-width:3;stroke-linecap:round;stroke-linejoin:round;stroke-miterlimit:10;}
</style>
<rect id="XMLID_272_" x="0" class="st0" width="1000" height="1000"/>
<g>
	<g>
		<g>
			<path class="st1" d="M63.2,959.2c0,2.5-1.2,3.7-2.6,3.7c-1.1,0-1.9-0.5-2.1-1.4c-0.4,0.5-1,0.8-1.8,0.8c-1.5,0-2.6-1.2-2.6-2.8
				c0-1.6,1.1-2.8,2.6-2.8c0.7,0,1.2,0.3,1.6,0.7v-0.5h1.6v3.9c0,0.8,0.3,1.4,1,1.4c0.9,0,1.7-0.9,1.7-3c0-3-2.3-5.3-5.4-5.3
				c-3.1,0-5.6,2.4-5.6,5.7c0,3.3,2.5,5.7,5.9,5.7c1.1,0,2.1-0.2,2.9-0.4v0.6c-0.8,0.3-1.7,0.4-2.9,0.4c-3.7,0-6.5-2.6-6.5-6.2
				c0-3.4,2.7-6.2,6.2-6.2C61.1,953.3,63.2,956.4,63.2,959.2z M58.3,959.5c0-0.8-0.6-1.4-1.3-1.4c-0.8,0-1.3,0.5-1.3,1.4
				c0,0.8,0.6,1.3,1.3,1.3C57.8,960.9,58.3,960.3,58.3,959.5z"/>
		</g>
		<g>
			<path class="st1" d="M69.4,955.1v2c-1.2-0.1-2.6,0.5-2.6,2.4v4.3h-1.9v-8.6h1.9v1.4C67.3,955.5,68.3,955.1,69.4,955.1z"/>
		</g>
		<g>
			<path class="st1" d="M74.6,962.3c1,0,1.8-0.5,2.2-1.1l1.5,0.9c-0.8,1.2-2.1,1.9-3.8,1.9c-2.8,0-4.7-1.9-4.7-4.5
				c0-2.5,1.8-4.5,4.5-4.5c2.6,0,4.3,2.1,4.3,4.5c0,0.3,0,0.5-0.1,0.8h-6.8C72.1,961.6,73.2,962.3,74.6,962.3z M76.9,958.8
				c-0.3-1.5-1.3-2.1-2.5-2.1c-1.4,0-2.3,0.8-2.6,2.1H76.9z"/>
		</g>
		<g>
			<path class="st1" d="M88.9,955.2v8.6h-1.9v-1.2c-0.7,0.9-1.7,1.5-3,1.5c-2.3,0-4.3-2-4.3-4.5c0-2.6,1.9-4.5,4.3-4.5
				c1.3,0,2.3,0.5,3,1.4v-1.2H88.9z M87.1,959.5c0-1.6-1.2-2.7-2.7-2.7c-1.5,0-2.7,1.1-2.7,2.7c0,1.6,1.2,2.7,2.7,2.7
				C85.9,962.3,87.1,961.1,87.1,959.5z"/>
		</g>
		<g>
			<path class="st1" d="M91.1,951.3H93v12.5h-1.9V951.3z"/>
		</g>
		<g>
			<path class="st1" d="M102.9,955.2l-3.3,8.6h-2.1l-3.3-8.6h2l2.4,6.5l2.4-6.5H102.9z"/>
		</g>
		<g>
			<path class="st1" d="M104.2,955.2h1.9v8.9c0,2.4-1.2,3.5-3.5,3.3v-1.8c1.1,0.1,1.7-0.3,1.7-1.5V955.2z M104,952.8
				c0-0.7,0.5-1.2,1.2-1.2c0.7,0,1.2,0.5,1.2,1.2c0,0.6-0.5,1.2-1.2,1.2C104.5,954,104,953.4,104,952.8z"/>
		</g>
		<g>
			<path class="st1" d="M116,955.2l-3.3,8.8c-0.8,2.2-2.2,3.3-4.2,3.2v-1.7c1.2,0.1,1.9-0.5,2.3-1.7l0.1-0.2l-3.6-8.4h2l2.6,6.2
				l2.2-6.2H116z"/>
		</g>
	</g>
	<g>
		<path class="st1" d="M211.9,938.7c0,2.1-1.5,3.8-3.6,3.8h-3v-7.6h3C210.4,934.9,211.9,936.6,211.9,938.7z M210.9,938.7
			c0-1.6-1.1-2.9-2.6-2.9h-2v5.7h2C209.8,941.6,210.9,940.3,210.9,938.7z"/>
		<path class="st1" d="M219.5,940.8h-3.4l-0.6,1.7h-1.1l2.8-7.6h1.1l2.8,7.6h-1.1L219.5,940.8z M219.2,939.9l-1.4-3.8l-1.4,3.8
			H219.2z"/>
		<path class="st1" d="M226.4,939.4v3.1h-1v-3.1l-2.7-4.5h1.1l2.1,3.6l2.1-3.6h1.1L226.4,939.4z"/>
		<path class="st1" d="M241.6,938.8L241.6,938.8l-2.5,3.7H238l1.8-2.7c-0.1,0-0.2,0-0.4,0c-1.5,0-2.6-1-2.6-2.6
			c0-1.5,1.1-2.6,2.6-2.6s2.6,1,2.6,2.6C242.1,937.9,241.9,938.4,241.6,938.8z M239.4,938.9c1,0,1.6-0.6,1.6-1.6s-0.7-1.6-1.6-1.6
			s-1.6,0.6-1.6,1.6C237.8,938.3,238.5,938.9,239.4,938.9z"/>
		<path class="st1" d="M250,940.3c0,1.5-1.2,2.4-2.6,2.4c-1.1,0-2.1-0.5-2.5-1.6l0.9-0.5c0.2,0.8,0.8,1.1,1.7,1.1
			c0.9,0,1.6-0.5,1.6-1.4c0-0.9-0.7-1.4-1.6-1.4h-2.2l0.3-4h4.2v0.9h-3.3l-0.1,2h1.1C248.7,937.9,250,938.7,250,940.3z"/>
	</g>
	<g>
		<path class="st1" d="M58.9,938.7c0,2.1-1.5,3.8-3.6,3.8h-3v-7.6h3C57.4,934.9,58.9,936.6,58.9,938.7z M57.9,938.7
			c0-1.6-1.1-2.9-2.6-2.9h-2v5.7h2C56.8,941.6,57.9,940.3,57.9,938.7z"/>
		<path class="st1" d="M67,941.6v1h-4.6v-7.6h4.5v1h-3.5v2.3h3.2v0.9h-3.2v2.4H67z"/>
		<path class="st1" d="M70,940.8l0.9-0.5c0.3,0.8,0.9,1.4,2,1.4c1.1,0,1.6-0.5,1.6-1.2c0-0.8-0.7-1-1.8-1.4
			c-1.2-0.4-2.4-0.8-2.4-2.2c0-1.4,1.1-2.2,2.4-2.2c1.3,0,2.2,0.7,2.6,1.7l-0.8,0.5c-0.3-0.7-0.8-1.2-1.7-1.2
			c-0.8,0-1.4,0.4-1.4,1.1c0,0.7,0.5,1,1.6,1.3c1.3,0.4,2.6,0.8,2.6,2.3c0,1.3-1.1,2.2-2.6,2.2C71.5,942.7,70.4,941.9,70,940.8z"/>
		<path class="st1" d="M80,934.9v7.6h-1v-7.6H80z"/>
		<path class="st1" d="M91.3,939.2c0,1.9-1.4,3.5-3.7,3.5c-2.4,0-4-1.8-4-4c0-2.2,1.7-4,4-4c1.4,0,2.7,0.8,3.3,1.8l-0.9,0.5
			c-0.4-0.8-1.4-1.4-2.4-1.4c-1.8,0-3,1.3-3,3c0,1.7,1.2,3,3,3c1.6,0,2.5-0.9,2.7-2h-2.8v-0.9h3.8V939.2z"/>
		<path class="st1" d="M100.6,934.9v7.6h-0.8l-3.9-5.7v5.7h-1v-7.6h0.8l3.9,5.7v-5.7H100.6z"/>
		<path class="st1" d="M109.1,941.6v1h-4.6v-7.6h4.5v1h-3.5v2.3h3.2v0.9h-3.2v2.4H109.1z"/>
		<path class="st1" d="M119.2,938.7c0,2.1-1.5,3.8-3.6,3.8h-3v-7.6h3C117.6,934.9,119.2,936.6,119.2,938.7z M118.2,938.7
			c0-1.6-1.1-2.9-2.6-2.9h-2v5.7h2C117.1,941.6,118.2,940.3,118.2,938.7z"/>
		<path class="st1" d="M133.2,940.4c0,1.2-1,2.2-2.2,2.2h-3.3v-7.6h3c1.2,0,2.1,0.9,2.1,2.1c0,0.7-0.3,1.2-0.8,1.6
			C132.7,938.9,133.2,939.5,133.2,940.4z M128.7,935.8v2.3h2c0.6,0,1.1-0.5,1.1-1.2c0-0.6-0.5-1.2-1.1-1.2H128.7z M132.2,940.3
			c0-0.7-0.5-1.2-1.2-1.2h-2.3v2.5h2.3C131.7,941.6,132.2,941,132.2,940.3z"/>
		<path class="st1" d="M139.4,939.4v3.1h-1v-3.1l-2.7-4.5h1.1l2.1,3.6l2.1-3.6h1.1L139.4,939.4z"/>
	</g>
	<g>
		<path class="st1" d="M212.7,961.8h-5.3l-0.9,2.5h-2.2l4.5-12.4h2.4l4.5,12.4h-2.2L212.7,961.8z M212,959.9l-2-5.6l-2,5.6H212z"/>
		<path class="st1" d="M225.7,956c0,2.3-1.8,4.1-4.1,4.1h-2.5v4.2h-2v-12.4h4.6C224,951.9,225.7,953.7,225.7,956z M223.7,956
			c0-1.3-0.9-2.2-2.1-2.2h-2.5v4.3h2.5C222.8,958.1,223.7,957.2,223.7,956z"/>
		<path class="st1" d="M236.2,956c0,2.3-1.8,4.1-4.1,4.1h-2.5v4.2h-2v-12.4h4.6C234.4,951.9,236.2,953.7,236.2,956z M234.1,956
			c0-1.3-0.9-2.2-2.1-2.2h-2.5v4.3h2.5C233.3,958.1,234.1,957.2,234.1,956z"/>
		<path class="st1" d="M253.2,958.1c0,3.5-2.5,6.2-5.9,6.2h-4.9v-12.4h4.9C250.7,951.9,253.2,954.6,253.2,958.1z M251.2,958.1
			c0-2.5-1.6-4.2-4-4.2h-2.8v8.5h2.8C249.6,962.3,251.2,960.5,251.2,958.1z"/>
		<path class="st1" d="M259.2,962.8c1.1,0,1.9-0.5,2.3-1.1l1.6,0.9c-0.8,1.2-2.1,1.9-3.9,1.9c-2.9,0-4.8-2-4.8-4.7
			c0-2.6,1.9-4.7,4.7-4.7c2.6,0,4.4,2.1,4.4,4.7c0,0.3,0,0.5-0.1,0.8h-7C256.7,962.1,257.8,962.8,259.2,962.8z M261.6,959.1
			c-0.3-1.5-1.4-2.2-2.5-2.2c-1.4,0-2.4,0.8-2.7,2.2H261.6z"/>
		<path class="st1" d="M272.9,955.4l-3.5,8.9h-2.2l-3.5-8.9h2.1l2.5,6.7l2.5-6.7H272.9z"/>
		<path class="st1" d="M278.1,962.8c1.1,0,1.9-0.5,2.3-1.1l1.6,0.9c-0.8,1.2-2.1,1.9-3.9,1.9c-2.9,0-4.8-2-4.8-4.7
			c0-2.6,1.9-4.7,4.7-4.7c2.6,0,4.4,2.1,4.4,4.7c0,0.3,0,0.5-0.1,0.8h-7C275.6,962.1,276.7,962.8,278.1,962.8z M280.5,959.1
			c-0.3-1.5-1.4-2.2-2.5-2.2c-1.4,0-2.4,0.8-2.7,2.2H280.5z"/>
		<path class="st1" d="M284.1,951.4h1.9v12.9h-1.9V951.4z"/>
		<path class="st1" d="M287.7,959.9c0-2.6,2.1-4.7,4.7-4.7c2.6,0,4.7,2,4.7,4.7c0,2.6-2.1,4.7-4.7,4.7
			C289.8,964.5,287.7,962.5,287.7,959.9z M295.2,959.9c0-1.6-1.2-2.8-2.8-2.8s-2.8,1.2-2.8,2.8c0,1.6,1.2,2.8,2.8,2.8
			S295.2,961.5,295.2,959.9z"/>
		<path class="st1" d="M308.2,959.9c0,2.6-2,4.7-4.4,4.7c-1.4,0-2.4-0.6-3.1-1.5v4.8h-1.9v-12.4h1.9v1.3c0.7-0.9,1.7-1.5,3.1-1.5
			C306.2,955.2,308.2,957.3,308.2,959.9z M306.3,959.9c0-1.6-1.2-2.8-2.8-2.8c-1.6,0-2.8,1.2-2.8,2.8c0,1.6,1.2,2.8,2.8,2.8
			C305.1,962.7,306.3,961.5,306.3,959.9z"/>
		<path class="st1" d="M323,958.8v5.5h-1.9v-5.4c0-1.2-0.7-1.9-1.7-1.9c-1.1,0-1.9,0.7-1.9,2.3v5h-1.9v-5.4c0-1.2-0.6-1.9-1.7-1.9
			c-1.1,0-2,0.7-2,2.3v5H310v-8.9h1.9v1.1c0.6-0.9,1.4-1.3,2.5-1.3c1.2,0,2,0.5,2.5,1.4c0.6-0.9,1.5-1.4,2.7-1.4
			C321.6,955.2,323,956.6,323,958.8z"/>
		<path class="st1" d="M329.4,962.8c1.1,0,1.9-0.5,2.3-1.1l1.6,0.9c-0.8,1.2-2.1,1.9-3.9,1.9c-2.9,0-4.8-2-4.8-4.7
			c0-2.6,1.9-4.7,4.7-4.7c2.6,0,4.4,2.1,4.4,4.7c0,0.3,0,0.5-0.1,0.8h-7C326.9,962.1,328,962.8,329.4,962.8z M331.7,959.1
			c-0.3-1.5-1.4-2.2-2.5-2.2c-1.4,0-2.4,0.8-2.7,2.2H331.7z"/>
		<path class="st1" d="M343.4,958.9v5.4h-1.9v-5.2c0-1.3-0.8-2.1-2-2.1c-1.3,0-2.2,0.7-2.2,2.5v4.7h-1.9v-8.9h1.9v1.1
			c0.6-0.9,1.5-1.4,2.7-1.4C342,955.2,343.4,956.6,343.4,958.9z"/>
		<path class="st1" d="M348.2,957.3v4.2c0,1.1,0.7,1.1,2.2,1v1.7c-2.9,0.4-4.1-0.5-4.1-2.8v-4.2h-1.6v-1.8h1.6v-1.9l1.9-0.6v2.5h2.2
			v1.8H348.2z"/>
	</g>
	<g>
		<g>
			<g>
				<path class="st1" d="M846.1,938.7c0,2.1-1.5,3.8-3.6,3.8h-3v-7.6h3C844.6,934.9,846.1,936.6,846.1,938.7z M845.2,938.7
					c0-1.6-1.1-2.9-2.6-2.9h-2v5.7h2C844.1,941.6,845.2,940.3,845.2,938.7z"/>
			</g>
			<g>
				<path class="st1" d="M849.3,938.7c0-2.2,1.7-4,3.9-4c2.2,0,4,1.8,4,4c0,2.2-1.7,4-4,4C851,942.7,849.3,940.9,849.3,938.7z
					 M856.1,938.7c0-1.7-1.3-3-2.9-3c-1.7,0-2.9,1.3-2.9,3c0,1.7,1.3,3,2.9,3C854.9,941.7,856.1,940.4,856.1,938.7z"/>
			</g>
			<g>
				<path class="st1" d="M859.8,934.9h1.1l1.7,6.3l1.9-6.3h1l1.9,6.3l1.7-6.3h1.1l-2.2,7.6h-1.2l-1.8-6.1l-1.8,6.1H862L859.8,934.9z
					"/>
			</g>
			<g>
				<path class="st1" d="M879.3,934.9v7.6h-0.8l-3.9-5.7v5.7h-1v-7.6h0.8l3.9,5.7v-5.7H879.3z"/>
			</g>
			<g>
				<path class="st1" d="M887.5,941.6v1h-4.3v-7.6h1v6.7H887.5z"/>
			</g>
			<g>
				<path class="st1" d="M889.9,938.7c0-2.2,1.7-4,3.9-4c2.2,0,4,1.8,4,4c0,2.2-1.7,4-4,4C891.6,942.7,889.9,940.9,889.9,938.7z
					 M896.8,938.7c0-1.7-1.3-3-2.9-3c-1.7,0-2.9,1.3-2.9,3c0,1.7,1.3,3,2.9,3C895.5,941.7,896.8,940.4,896.8,938.7z"/>
			</g>
			<g>
				<path class="st1" d="M905.4,940.8H902l-0.6,1.7h-1.1l2.8-7.6h1.1l2.8,7.6H906L905.4,940.8z M905.1,939.9l-1.4-3.8l-1.4,3.8
					H905.1z"/>
			</g>
			<g>
				<path class="st1" d="M916.9,938.7c0,2.1-1.5,3.8-3.6,3.8h-3v-7.6h3C915.4,934.9,916.9,936.6,916.9,938.7z M915.9,938.7
					c0-1.6-1.1-2.9-2.6-2.9h-2v5.7h2C914.9,941.6,915.9,940.3,915.9,938.7z"/>
			</g>
			<g>
				<path class="st1" d="M926.5,935.8v2.5h3.2v1h-3.2v3.2h-1v-7.6h4.4v1H926.5z"/>
			</g>
			<g>
				<path class="st1" d="M936.2,939.6h-1.8v2.9h-1v-7.6h3c1.3,0,2.4,1.1,2.4,2.4c0,1-0.7,1.9-1.6,2.2l1.8,3.1h-1.1L936.2,939.6z
					 M934.4,938.7h2c0.8,0,1.4-0.6,1.4-1.4c0-0.8-0.6-1.4-1.4-1.4h-2V938.7z"/>
			</g>
			<g>
				<path class="st1" d="M941.9,938.7c0-2.2,1.7-4,3.9-4c2.2,0,4,1.8,4,4c0,2.2-1.7,4-4,4C943.6,942.7,941.9,940.9,941.9,938.7z
					 M948.8,938.7c0-1.7-1.3-3-2.9-3c-1.7,0-2.9,1.3-2.9,3c0,1.7,1.3,3,2.9,3C947.5,941.7,948.8,940.4,948.8,938.7z"/>
			</g>
			<g>
				<path class="st1" d="M960.4,942.5h-1v-6l-2.5,4.2h-0.1l-2.5-4.1v5.9h-1v-7.6h1.1l2.4,4l2.4-4h1.1V942.5z"/>
			</g>
		</g>
		<g>
			<g>
				<path class="st1" d="M839.3,952.9c0-0.7,0.5-1.2,1.2-1.2c0.7,0,1.2,0.5,1.2,1.2c0,0.7-0.5,1.2-1.2,1.2
					C839.9,954.1,839.3,953.6,839.3,952.9z M839.6,955.4h1.9v8.9h-1.9V955.4z"/>
			</g>
			<g>
				<path class="st1" d="M843.7,951.4h1.9v12.9h-1.9V951.4z"/>
			</g>
			<g>
				<path class="st1" d="M847.8,951.4h1.9v12.9h-1.9V951.4z"/>
			</g>
			<g>
				<path class="st1" d="M852,951.4h1.9v12.9H852V951.4z"/>
			</g>
			<g>
				<path class="st1" d="M864,955.4v8.9h-1.9v-1.1c-0.6,0.9-1.5,1.4-2.7,1.4c-2,0-3.4-1.3-3.4-3.6v-5.4h1.9v5.2c0,1.3,0.8,2.1,2,2.1
					c1.3,0,2.2-0.7,2.2-2.5v-4.7H864z"/>
			</g>
			<g>
				<path class="st1" d="M872.6,961.8c0,1.8-1.5,2.7-3.5,2.7c-1.8,0-3-0.8-3.6-2.1l1.6-1c0.3,0.8,1,1.3,2,1.3c0.8,0,1.5-0.3,1.5-1
					c0-1.6-4.8-0.7-4.8-3.9c0-1.7,1.4-2.7,3.2-2.7c1.5,0,2.7,0.7,3.3,1.8l-1.6,0.9c-0.3-0.7-0.9-1-1.7-1c-0.7,0-1.3,0.3-1.3,0.9
					C867.9,959.5,872.6,958.5,872.6,961.8z"/>
			</g>
			<g>
				<path class="st1" d="M876.7,957.3v4.2c0,1.1,0.7,1.1,2.2,1v1.7c-2.9,0.4-4.1-0.5-4.1-2.8v-4.2h-1.6v-1.8h1.6v-1.9l1.9-0.6v2.5
					h2.2v1.8H876.7z"/>
			</g>
			<g>
				<path class="st1" d="M885.4,955.3v2.1c-1.3-0.1-2.7,0.5-2.7,2.5v4.5h-1.9v-8.9h1.9v1.5C883.2,955.7,884.2,955.3,885.4,955.3z"/>
			</g>
			<g>
				<path class="st1" d="M895.3,955.4v8.9h-1.9V963c-0.7,0.9-1.7,1.5-3.1,1.5c-2.4,0-4.4-2-4.4-4.7c0-2.6,2-4.7,4.4-4.7
					c1.4,0,2.4,0.6,3.1,1.5v-1.3H895.3z M893.4,959.9c0-1.6-1.2-2.8-2.8-2.8c-1.6,0-2.8,1.2-2.8,2.8c0,1.6,1.2,2.8,2.8,2.8
					C892.2,962.7,893.4,961.5,893.4,959.9z"/>
			</g>
			<g>
				<path class="st1" d="M900.3,957.3v4.2c0,1.1,0.7,1.1,2.2,1v1.7c-2.9,0.4-4.1-0.5-4.1-2.8v-4.2h-1.6v-1.8h1.6v-1.9l1.9-0.6v2.5
					h2.2v1.8H900.3z"/>
			</g>
			<g>
				<path class="st1" d="M903.9,952.9c0-0.7,0.5-1.2,1.2-1.2c0.7,0,1.2,0.5,1.2,1.2c0,0.7-0.5,1.2-1.2,1.2
					C904.5,954.1,903.9,953.6,903.9,952.9z M904.2,955.4h1.9v8.9h-1.9V955.4z"/>
			</g>
			<g>
				<path class="st1" d="M907.8,959.9c0-2.6,2.1-4.7,4.7-4.7c2.6,0,4.7,2,4.7,4.7c0,2.6-2.1,4.7-4.7,4.7
					C909.9,964.5,907.8,962.5,907.8,959.9z M915.3,959.9c0-1.6-1.2-2.8-2.8-2.8c-1.6,0-2.8,1.2-2.8,2.8c0,1.6,1.2,2.8,2.8,2.8
					C914.1,962.7,915.3,961.5,915.3,959.9z"/>
			</g>
			<g>
				<path class="st1" d="M927,958.9v5.4h-1.9v-5.2c0-1.3-0.8-2.1-2-2.1c-1.3,0-2.2,0.7-2.2,2.5v4.7h-1.9v-8.9h1.9v1.1
					c0.6-0.9,1.5-1.4,2.7-1.4C925.5,955.2,927,956.6,927,958.9z"/>
			</g>
			<g>
				<path class="st1" d="M935.5,961.8c0,1.8-1.5,2.7-3.5,2.7c-1.8,0-3-0.8-3.6-2.1l1.6-1c0.3,0.8,1,1.3,2,1.3c0.8,0,1.5-0.3,1.5-1
					c0-1.6-4.8-0.7-4.8-3.9c0-1.7,1.4-2.7,3.2-2.7c1.5,0,2.7,0.7,3.3,1.8l-1.6,0.9c-0.3-0.7-0.9-1-1.7-1c-0.7,0-1.3,0.3-1.3,0.9
					C930.7,959.5,935.5,958.5,935.5,961.8z"/>
			</g>
			<g>
				<path class="st1" d="M936.8,963.2c0-0.7,0.6-1.3,1.3-1.3c0.7,0,1.3,0.6,1.3,1.3c0,0.7-0.6,1.3-1.3,1.3
					C937.4,964.5,936.8,963.9,936.8,963.2z"/>
			</g>
			<g>
				<path class="st1" d="M940.3,959.9c0-2.6,2-4.7,4.7-4.7c1.7,0,3.2,0.9,3.9,2.3l-1.6,1c-0.4-0.8-1.3-1.4-2.3-1.4
					c-1.6,0-2.7,1.2-2.7,2.8c0,1.6,1.2,2.8,2.7,2.8c1.1,0,1.9-0.5,2.4-1.4l1.6,0.9c-0.7,1.4-2.2,2.3-4,2.3
					C942.3,964.5,940.3,962.5,940.3,959.9z"/>
			</g>
			<g>
				<path class="st1" d="M949.7,959.9c0-2.6,2.1-4.7,4.7-4.7c2.6,0,4.7,2,4.7,4.7c0,2.6-2.1,4.7-4.7,4.7
					C951.8,964.5,949.7,962.5,949.7,959.9z M957.2,959.9c0-1.6-1.2-2.8-2.8-2.8s-2.8,1.2-2.8,2.8c0,1.6,1.2,2.8,2.8,2.8
					S957.2,961.5,957.2,959.9z"/>
			</g>
		</g>
	</g>
</g>
<g id="XMLID_238_">
	<path id="XMLID_1313_" class="st2" d="M837.8,666.3H162.2c-5,0-9-4-9-9v0c0-5,4-9,9-9h675.7c5,0,9,4,9,9v0
		C846.8,662.3,842.8,666.3,837.8,666.3z"/>
	<g id="XMLID_45_">
		<path id="XMLID_41_" class="st3" d="M808.5,573.9c0-37.2-28.2-67.8-64.7-71.3v-8.4h-21.9v160.7h21.9v-9.7
			C780.2,641.7,808.5,611.1,808.5,573.9z M743.7,622.1v-96.3c23.4,3.4,41.8,23.7,41.8,48.2C785.5,598.4,767.1,618.7,743.7,622.1z"/>
		<path id="XMLID_222_" class="st4" d="M743.7,502.6v-8.4h-21.9v160.7h21.9v-9.7c36.5-3.5,64.7-34,64.7-71.3
			C808.5,536.7,780.2,506.1,743.7,502.6z M743.7,637.8v8.3h-20.5V501.5h20.5v8.5c32.1,3.1,58,30.5,58,63.9
			C801.8,607.3,775.9,634.7,743.7,637.8z"/>
		<path id="XMLID_48_" class="st5" d="M808.5,573.9c0-37.2-28.2-67.8-64.7-71.3v-8.4h-21.9v160.7h21.9v-9.7
			C780.2,641.7,808.5,611.1,808.5,573.9z M743.7,622.1v-96.3c23.4,3.4,41.8,23.7,41.8,48.2C785.5,598.4,767.1,618.7,743.7,622.1z"/>
		<g id="XMLID_49_">
			<g id="XMLID_67_">
				<line id="XMLID_68_" class="st6" x1="730.6" y1="638.8" x2="721.8" y2="638.8"/>
			</g>
			<g id="XMLID_65_">
				<line id="XMLID_66_" class="st6" x1="730.6" y1="622.8" x2="721.8" y2="622.8"/>
			</g>
			<g id="XMLID_63_">
				<line id="XMLID_64_" class="st6" x1="730.6" y1="606.7" x2="721.8" y2="606.7"/>
			</g>
			<g id="XMLID_61_">
				<line id="XMLID_62_" class="st6" x1="730.6" y1="590.6" x2="721.8" y2="590.6"/>
			</g>
			<g id="XMLID_59_">
				<line id="XMLID_60_" class="st6" x1="730.6" y1="574.6" x2="721.8" y2="574.6"/>
			</g>
			<g id="XMLID_56_">
				<line id="XMLID_57_" class="st6" x1="730.6" y1="558.5" x2="721.8" y2="558.5"/>
			</g>
			<g id="XMLID_54_">
				<line id="XMLID_55_" class="st6" x1="730.6" y1="542.4" x2="721.8" y2="542.4"/>
			</g>
			<g id="XMLID_52_">
				<line id="XMLID_53_" class="st6" x1="730.6" y1="526.3" x2="721.8" y2="526.3"/>
			</g>
			<g id="XMLID_50_">
				<line id="XMLID_51_" class="st6" x1="730.6" y1="510.3" x2="721.8" y2="510.3"/>
			</g>
		</g>
	</g>
	<g id="XMLID_212_">
		<rect id="XMLID_207_" x="673.3" y="412.9" class="st3" width="33.1" height="241.6"/>
		<rect id="XMLID_208_" x="673.3" y="412.9" class="st3" width="33.1" height="241.6"/>
		<rect id="XMLID_209_" x="692" y="412.9" class="st4" width="14.4" height="241.6"/>
		<rect id="XMLID_121_" x="673.3" y="412.9" class="st5" width="33.1" height="241.6"/>
		<g id="XMLID_203_">
			<g id="XMLID_266_">
				<line id="XMLID_269_" class="st6" x1="684.8" y1="630.1" x2="673.3" y2="630.1"/>
				<line id="XMLID_268_" class="st6" x1="680.4" y1="641.6" x2="673.3" y2="641.6"/>
			</g>
			<g id="XMLID_262_">
				<line id="XMLID_265_" class="st6" x1="684.8" y1="607.1" x2="673.3" y2="607.1"/>
				<line id="XMLID_264_" class="st6" x1="680.4" y1="618.6" x2="673.3" y2="618.6"/>
			</g>
			<g id="XMLID_258_">
				<line id="XMLID_261_" class="st6" x1="684.8" y1="584.1" x2="673.3" y2="584.1"/>
				<line id="XMLID_260_" class="st6" x1="680.4" y1="595.6" x2="673.3" y2="595.6"/>
			</g>
			<g id="XMLID_254_">
				<line id="XMLID_257_" class="st6" x1="684.8" y1="561" x2="673.3" y2="561"/>
				<line id="XMLID_256_" class="st6" x1="680.4" y1="572.5" x2="673.3" y2="572.5"/>
			</g>
			<g id="XMLID_249_">
				<line id="XMLID_253_" class="st6" x1="684.8" y1="538" x2="673.3" y2="538"/>
				<line id="XMLID_251_" class="st6" x1="680.4" y1="549.5" x2="673.3" y2="549.5"/>
			</g>
			<g id="XMLID_245_">
				<line id="XMLID_248_" class="st6" x1="684.8" y1="515" x2="673.3" y2="515"/>
				<line id="XMLID_247_" class="st6" x1="680.4" y1="526.5" x2="673.3" y2="526.5"/>
			</g>
			<g id="XMLID_223_">
				<line id="XMLID_244_" class="st6" x1="684.8" y1="492" x2="673.3" y2="492"/>
				<line id="XMLID_243_" class="st6" x1="680.4" y1="503.5" x2="673.3" y2="503.5"/>
			</g>
			<g id="XMLID_215_">
				<line id="XMLID_219_" class="st6" x1="684.8" y1="469" x2="673.3" y2="469"/>
				<line id="XMLID_218_" class="st6" x1="680.4" y1="480.5" x2="673.3" y2="480.5"/>
			</g>
			<g id="XMLID_118_">
				<line id="XMLID_210_" class="st6" x1="684.8" y1="446" x2="673.3" y2="446"/>
				<line id="XMLID_141_" class="st6" x1="680.4" y1="457.5" x2="673.3" y2="457.5"/>
			</g>
			<g id="XMLID_36_">
				<line id="XMLID_113_" class="st6" x1="684.8" y1="423" x2="673.3" y2="423"/>
				<line id="XMLID_112_" class="st6" x1="680.4" y1="434.5" x2="673.3" y2="434.5"/>
			</g>
		</g>
	</g>
	<g id="XMLID_1_">
		<rect id="XMLID_93_" x="612.1" y="471.3" class="st7" width="12.9" height="34.1"/>
		<rect id="XMLID_237_" x="612.1" y="471.3" class="st8" width="4.8" height="34.1"/>
		<rect id="XMLID_40_" x="612.1" y="471.3" class="st5" width="12.9" height="34.1"/>
		<rect id="XMLID_95_" x="615.6" y="505.5" class="st9" width="5.9" height="16.5"/>
		<rect id="XMLID_42_" x="615.6" y="505.5" class="st5" width="5.9" height="16.5"/>
		<g id="XMLID_16_">
			<polygon id="XMLID_98_" class="st9" points="608.6,536.7 578.6,654.4 624.2,538.3 			"/>
			<polygon id="XMLID_37_" class="st5" points="608.6,536.7 578.6,654.4 624.2,538.3 			"/>
			<polygon id="XMLID_97_" class="st9" points="628.6,536.7 658.6,654.4 613.1,538.3 			"/>
			<polygon id="XMLID_38_" class="st5" points="628.6,536.7 658.6,654.4 613.1,538.3 			"/>
		</g>
		<circle id="XMLID_91_" class="st10" cx="618.6" cy="539.8" r="20"/>
		<path id="XMLID_241_" class="st11" d="M604.2,539.8c0-10.1,7.5-18.4,17.2-19.8c-0.9-0.1-1.8-0.2-2.8-0.2c-11,0-20,9-20,20
			s9,20,20,20c0.9,0,1.9-0.1,2.8-0.2C611.7,558.2,604.2,549.9,604.2,539.8z"/>
		<circle id="XMLID_39_" class="st5" cx="618.6" cy="539.8" r="20"/>
		<circle id="XMLID_94_" class="st1" cx="618.6" cy="539.8" r="6.8"/>
		<circle id="XMLID_92_" class="st5" cx="618.6" cy="539.8" r="6.8"/>
	</g>
	<path id="XMLID_75_" class="st7" d="M546.4,654.2h-132c-7.7,0-14-6.3-14-14v-272c0-7.7,6.3-14,14-14h132c7.7,0,14,6.3,14,14v272
		C560.4,647.9,554.1,654.2,546.4,654.2z"/>
	<path id="XMLID_116_" class="st2" d="M546.4,354.2H538c7.7,0,14,6.3,14,14v272c0,7.7-6.3,14-14,14h8.5c7.7,0,14-6.3,14-14v-272
		C560.4,360.4,554.1,354.2,546.4,354.2z"/>
	<path id="XMLID_81_" class="st12" d="M408.7,640.2v-272c0-7.7,6.3-14,14-14h-8.3c-7.7,0-14,6.3-14,14v272c0,7.7,6.3,14,14,14h8.3
		C415,654.2,408.7,647.9,408.7,640.2z"/>
	<path id="XMLID_3_" class="st5" d="M546.4,654.2h-132c-7.7,0-14-6.3-14-14v-272c0-7.7,6.3-14,14-14h132c7.7,0,14,6.3,14,14v272
		C560.4,647.9,554.1,654.2,546.4,654.2z"/>
	
		<rect id="XMLID_77_" x="368.4" y="423.7" transform="matrix(-1.836970e-16 1 -1 -1.836970e-16 984.1191 23.288)" class="st13" width="224" height="160"/>
	<path id="XMLID_5_" class="st14" d="M559.6,463.9h-12.5c-6.8,0-12.3-5.5-12.3-12.3v-30.5c0-6.8,5.5-12.3,12.3-12.3h12.5V463.9z"/>
	<path id="XMLID_2_" class="st14" d="M409.6,587.5h-9.2v-97.3h9.2c6.9,0,12.5,5.6,12.5,12.5v72.3C422,581.9,416.5,587.5,409.6,587.5
		z"/>
	
		<rect id="XMLID_6_" x="368.4" y="423.7" transform="matrix(-1.836970e-16 1 -1 -1.836970e-16 984.1191 23.288)" class="st5" width="224" height="160"/>
	<g id="XMLID_4_">
		<line id="XMLID_9_" class="st15" x1="502.4" y1="374.2" x2="509.4" y2="374.2"/>
		<line id="XMLID_7_" class="st15" x1="451.4" y1="374.2" x2="491.4" y2="374.2"/>
	</g>
	<g id="XMLID_228_">
		<circle id="XMLID_8_" class="st16" cx="480.4" cy="632.6" r="11"/>
		<circle id="XMLID_78_" class="st1" cx="480.4" cy="632.6" r="8.4"/>
	</g>
	<g id="XMLID_14_" class="st17">
		<g id="XMLID_32_">
			<g id="XMLID_58_">
				<path class="st18" d="M443.9,588.9h-16c-4.4,0-8-3.6-8-8v-16c0-4.4,3.6-8,8-8h16c4.4,0,8,3.6,8,8v16
					C451.9,585.3,448.3,588.9,443.9,588.9z"/>
			</g>
			<g id="XMLID_35_">
				<path class="st18" d="M532.4,588.9h-16c-4.4,0-8-3.6-8-8v-16c0-4.4,3.6-8,8-8h16c4.4,0,8,3.6,8,8v16
					C540.4,585.3,536.8,588.9,532.4,588.9z"/>
			</g>
			<g id="XMLID_34_">
				<path class="st18" d="M488.4,588.9h-16c-4.4,0-8-3.6-8-8v-16c0-4.4,3.6-8,8-8h16c4.4,0,8,3.6,8,8v16
					C496.4,585.3,492.8,588.9,488.4,588.9z"/>
			</g>
		</g>
		<g id="XMLID_27_">
			<g id="XMLID_31_">
				<path class="st18" d="M443.9,540.9h-16c-4.4,0-8-3.6-8-8v-16c0-4.4,3.6-8,8-8h16c4.4,0,8,3.6,8,8v16
					C451.9,537.3,448.3,540.9,443.9,540.9z"/>
			</g>
			<g id="XMLID_30_">
				<path class="st18" d="M532.4,540.9h-16c-4.4,0-8-3.6-8-8v-16c0-4.4,3.6-8,8-8h16c4.4,0,8,3.6,8,8v16
					C540.4,537.3,536.8,540.9,532.4,540.9z"/>
			</g>
			<g id="XMLID_29_">
				<path class="st18" d="M488.4,540.9h-16c-4.4,0-8-3.6-8-8v-16c0-4.4,3.6-8,8-8h16c4.4,0,8,3.6,8,8v16
					C496.4,537.3,492.8,540.9,488.4,540.9z"/>
			</g>
		</g>
		<g id="XMLID_22_">
			<g id="XMLID_26_">
				<path class="st18" d="M443.9,492.9h-16c-4.4,0-8-3.6-8-8v-16c0-4.4,3.6-8,8-8h16c4.4,0,8,3.6,8,8v16
					C451.9,489.3,448.3,492.9,443.9,492.9z"/>
			</g>
			<g id="XMLID_25_">
				<path class="st18" d="M532.4,492.9h-16c-4.4,0-8-3.6-8-8v-16c0-4.4,3.6-8,8-8h16c4.4,0,8,3.6,8,8v16
					C540.4,489.3,536.8,492.9,532.4,492.9z"/>
			</g>
			<g id="XMLID_24_">
				<path class="st18" d="M488.4,492.9h-16c-4.4,0-8-3.6-8-8v-16c0-4.4,3.6-8,8-8h16c4.4,0,8,3.6,8,8v16
					C496.4,489.3,492.8,492.9,488.4,492.9z"/>
			</g>
		</g>
		<g id="XMLID_17_">
			<g id="XMLID_21_">
				<path class="st18" d="M443.9,444.9h-16c-4.4,0-8-3.6-8-8v-16c0-4.4,3.6-8,8-8h16c4.4,0,8,3.6,8,8v16
					C451.9,441.3,448.3,444.9,443.9,444.9z"/>
			</g>
			<g id="XMLID_20_">
				<path class="st18" d="M532.4,444.9h-16c-4.4,0-8-3.6-8-8v-16c0-4.4,3.6-8,8-8h16c4.4,0,8,3.6,8,8v16
					C540.4,441.3,536.8,444.9,532.4,444.9z"/>
			</g>
			<g id="XMLID_19_">
				<path class="st18" d="M488.4,444.9h-16c-4.4,0-8-3.6-8-8v-16c0-4.4,3.6-8,8-8h16c4.4,0,8,3.6,8,8v16
					C496.4,441.3,492.8,444.9,488.4,444.9z"/>
			</g>
		</g>
	</g>
	<path id="XMLID_73_" class="st10" d="M443.9,588.9h-16c-4.4,0-8-3.6-8-8v-16c0-4.4,3.6-8,8-8h16c4.4,0,8,3.6,8,8v16
		C451.9,585.3,448.3,588.9,443.9,588.9z"/>
	<path id="XMLID_80_" class="st19" d="M443.9,556.9h-16c-3.2,0-6,1.9-7.2,4.6l31.2,5.6v-2.2C451.9,560.5,448.3,556.9,443.9,556.9z"
		/>
	<path id="XMLID_76_" class="st5" d="M443.9,588.9h-16c-4.4,0-8-3.6-8-8v-16c0-4.4,3.6-8,8-8h16c4.4,0,8,3.6,8,8v16
		C451.9,585.3,448.3,588.9,443.9,588.9z"/>
	<path id="XMLID_72_" class="st3" d="M488.4,588.9h-16c-4.4,0-8-3.6-8-8v-16c0-4.4,3.6-8,8-8h16c4.4,0,8,3.6,8,8v16
		C496.4,585.3,492.8,588.9,488.4,588.9z"/>
	<path id="XMLID_79_" class="st20" d="M488.4,556.9h-16c-3.2,0-6,1.9-7.2,4.6l31.2,5.6v-2.2C496.4,560.5,492.8,556.9,488.4,556.9z"
		/>
	<path id="XMLID_74_" class="st5" d="M488.4,588.9h-16c-4.4,0-8-3.6-8-8v-16c0-4.4,3.6-8,8-8h16c4.4,0,8,3.6,8,8v16
		C496.4,585.3,492.8,588.9,488.4,588.9z"/>
	<g id="XMLID_33_">
		<path id="XMLID_70_" class="st21" d="M532.4,540.9h-16c-4.4,0-8-3.6-8-8v-16c0-4.4,3.6-8,8-8h16c4.4,0,8,3.6,8,8v16
			C540.4,537.3,536.8,540.9,532.4,540.9z"/>
	</g>
	<path id="XMLID_119_" class="st22" d="M532.4,508.9h-16c-3.2,0-6,1.9-7.2,4.6l31.2,5.6v-2.2C540.4,512.5,536.8,508.9,532.4,508.9z"
		/>
	<g id="XMLID_69_">
		<path id="XMLID_71_" class="st5" d="M532.4,540.9h-16c-4.4,0-8-3.6-8-8v-16c0-4.4,3.6-8,8-8h16c4.4,0,8,3.6,8,8v16
			C540.4,537.3,536.8,540.9,532.4,540.9z"/>
	</g>
	<g id="XMLID_13_">
		<g>
			<path id="XMLID_90_" class="st23" d="M488.4,492.9h-16c-4.4,0-8-3.6-8-8v-16c0-4.4,3.6-8,8-8h16c4.4,0,8,3.6,8,8v16
				C496.4,489.3,492.8,492.9,488.4,492.9z"/>
		</g>
	</g>
	<path id="XMLID_124_" class="st24" d="M488.4,460.9h-16c-3.2,0-6,1.9-7.2,4.6l31.2,5.6v-2.2C496.4,464.5,492.8,460.9,488.4,460.9z"
		/>
	<g id="XMLID_18_">
		<path id="XMLID_23_" class="st5" d="M488.4,492.9h-16c-4.4,0-8-3.6-8-8v-16c0-4.4,3.6-8,8-8h16c4.4,0,8,3.6,8,8v16
			C496.4,489.3,492.8,492.9,488.4,492.9z"/>
	</g>
	<path id="XMLID_10_" class="st9" d="M521.8,517.9l9.2,5.3c1.3,0.8,1.3,2.7,0,3.4l-9.2,5.3c-1.3,0.8-3-0.2-3-1.7v-10.6
		C518.8,518.1,520.5,517.1,521.8,517.9z"/>
	<path id="XMLID_15_" class="st9" d="M484.6,566.7h-8.4c-1.8,0-3.2,1.5-3.2,3.2v6.2c0,1.8,1.5,3.2,3.2,3.2h0.3l-0.7,2.8
		c-0.1,0.2,0.2,0.4,0.4,0.2l4.3-3h4.3c1.8,0,3.2-1.5,3.2-3.2v-6.2C487.9,568.1,486.4,566.7,484.6,566.7z"/>
	<path id="XMLID_11_" class="st25" d="M429.7,572.9l3.7,3.7c0.5,0.5,1.3,0.5,1.8,0l8.3-8.3"/>
	<circle id="XMLID_12_" class="st25" cx="480.4" cy="476.9" r="7.5"/>
	<g id="XMLID_131_">
		<path id="XMLID_115_" class="st9" d="M420,437.9l-0.2-15l-10,0.1c-0.6-1.9-1.3-3.6-2.3-5.3l7-7.2l-10.7-10.5l-7,7.2
			c-1.7-0.9-3.5-1.6-5.4-2.1l-0.1-10l-15,0.2l0.1,10c-1.9,0.6-3.6,1.3-5.3,2.3l-7.2-7l-10.5,10.7l7.2,7c-0.9,1.7-1.6,3.5-2.1,5.4
			l-10,0.1l0.2,15l10-0.1c0.6,1.9,1.3,3.6,2.3,5.3l-7,7.2l10.7,10.5l7-7.2c1.7,0.9,3.5,1.6,5.4,2.1l0.1,10l15-0.2l-0.1-10
			c1.9-0.6,3.6-1.3,5.3-2.3l7.2,7l10.5-10.7l-7.2-7c0.9-1.7,1.6-3.5,2.1-5.4L420,437.9z M384.5,442.5c-6.5,0.1-11.7-5.1-11.8-11.6
			c-0.1-6.5,5.1-11.7,11.6-11.8c6.5-0.1,11.7,5.1,11.8,11.6C396.1,437.2,390.9,442.4,384.5,442.5z"/>
		<path id="XMLID_191_" class="st3" d="M420,437.9l-0.2-15l-10,0.1c-0.6-1.9-1.3-3.6-2.3-5.3l7-7.2l-10.7-10.5l-7,7.2
			c-1.7-0.9-3.5-1.6-5.4-2.1l-0.1-10l-15,0.2l0.1,10c-1.9,0.6-3.6,1.3-5.3,2.3l-7.2-7l-10.5,10.7l7.2,7c-0.9,1.7-1.6,3.5-2.1,5.4
			l-10,0.1l0.2,15l10-0.1c0.6,1.9,1.3,3.6,2.3,5.3l-7,7.2l10.7,10.5l7-7.2c1.7,0.9,3.5,1.6,5.4,2.1l0.1,10l15-0.2l-0.1-10
			c1.9-0.6,3.6-1.3,5.3-2.3l7.2,7l10.5-10.7l-7.2-7c0.9-1.7,1.6-3.5,2.1-5.4L420,437.9z M384.5,442.5c-6.5,0.1-11.7-5.1-11.8-11.6
			c-0.1-6.5,5.1-11.7,11.6-11.8c6.5-0.1,11.7,5.1,11.8,11.6C396.1,437.2,390.9,442.4,384.5,442.5z"/>
		<path id="XMLID_234_" class="st3" d="M420,437.9l-0.2-15l-10,0.1c-0.6-1.9-1.3-3.6-2.3-5.3l7-7.2l-10.7-10.5l-7,7.2
			c-1.7-0.9-3.5-1.6-5.4-2.1l-0.1-10l-15,0.2l0.1,10c-1.9,0.6-3.6,1.3-5.3,2.3l-7.2-7l-10.5,10.7l7.2,7c-0.9,1.7-1.6,3.5-2.1,5.4
			l-10,0.1l0.2,15l10-0.1c0.6,1.9,1.3,3.6,2.3,5.3l-7,7.2l10.7,10.5l7-7.2c1.7,0.9,3.5,1.6,5.4,2.1l0.1,10l15-0.2l-0.1-10
			c1.9-0.6,3.6-1.3,5.3-2.3l7.2,7l10.5-10.7l-7.2-7c0.9-1.7,1.6-3.5,2.1-5.4L420,437.9z M384.5,442.5c-6.5,0.1-11.7-5.1-11.8-11.6
			c-0.1-6.5,5.1-11.7,11.6-11.8c6.5-0.1,11.7,5.1,11.8,11.6C396.1,437.2,390.9,442.4,384.5,442.5z"/>
		<g id="XMLID_246_" class="st26">
			<path id="XMLID_250_" class="st3" d="M416.2,423C416.2,423,416.2,423.1,416.2,423l3.7,0l0-0.1L416.2,423z"/>
			<path id="XMLID_252_" class="st3" d="M403.2,407.3l3.9-4l-3.2-3.2l-5.2,5.3C400.3,405.9,401.8,406.5,403.2,407.3z"/>
			<path id="XMLID_255_" class="st3" d="M390.5,419.1c-1.1,0-2.1,0.2-3,0.4c4.9,1.4,8.5,5.8,8.5,11.1c0.1,5.4-3.6,10-8.5,11.4
				c1,0.3,2.2,0.5,3.3,0.4c6.5-0.1,11.6-5.4,11.6-11.8S397,419.1,390.5,419.1z"/>
			<path id="XMLID_259_" class="st3" d="M375.6,405.6l2,1.9c1.7-0.9,3.4-1.7,5.3-2.3l-0.1-10l8.6-0.1l0-0.1l-15,0.2l0.1,10
				C376.3,405.4,375.9,405.5,375.6,405.6z"/>
			<path id="XMLID_263_" class="st3" d="M383.4,456.5c-1.9-0.5-3.7-1.2-5.4-2.1l-1.8,1.9c0.3,0.1,0.6,0.2,0.9,0.3l0.1,10l6.3-0.1
				L383.4,456.5z"/>
			<path id="XMLID_267_" class="st3" d="M355,423.7l10-0.1c0.5-1.9,1.2-3.7,2.1-5.4l-7.2-7l7.4-7.5l-3.2-3.2l-10.5,10.7l7.2,7
				c-0.9,1.7-1.6,3.5-2.1,5.4l-10,0.1l0.2,15l6.3-0.1L355,423.7z"/>
			<path id="XMLID_270_" class="st3" d="M403.7,454.1c-1.4,0.8-2.8,1.4-4.3,1.9l5.2,5.1l3.1-3.2L403.7,454.1z"/>
			<path id="XMLID_271_" class="st3" d="M360.4,451l7-7.2c-0.9-1.7-1.7-3.4-2.3-5.3l-6.3,0.1c0.6,1.8,1.3,3.6,2.2,5.2l-7,7.2
				l10.7,10.5l3.1-3.2L360.4,451z"/>
		</g>
		<path id="XMLID_130_" class="st5" d="M420,437.9l-0.2-15l-10,0.1c-0.6-1.9-1.3-3.6-2.3-5.3l7-7.2l-10.7-10.5l-7,7.2
			c-1.7-0.9-3.5-1.6-5.4-2.1l-0.1-10l-15,0.2l0.1,10c-1.9,0.6-3.6,1.3-5.3,2.3l-7.2-7l-10.5,10.7l7.2,7c-0.9,1.7-1.6,3.5-2.1,5.4
			l-10,0.1l0.2,15l10-0.1c0.6,1.9,1.3,3.6,2.3,5.3l-7,7.2l10.7,10.5l7-7.2c1.7,0.9,3.5,1.6,5.4,2.1l0.1,10l15-0.2l-0.1-10
			c1.9-0.6,3.6-1.3,5.3-2.3l7.2,7l10.5-10.7l-7.2-7c0.9-1.7,1.6-3.5,2.1-5.4L420,437.9z M384.5,442.5c-6.5,0.1-11.7-5.1-11.8-11.6
			c-0.1-6.5,5.1-11.7,11.6-11.8c6.5-0.1,11.7,5.1,11.8,11.6C396.1,437.2,390.9,442.4,384.5,442.5z"/>
	</g>
	<g id="XMLID_190_">
		<path id="XMLID_183_" class="st1" d="M357.5,654.2H233.8c-4.1,0-7.4-3.3-7.4-7.4v-84.6c0-4.1,3.3-7.4,7.4-7.4h123.8
			c4.1,0,7.4,3.3,7.4,7.4v84.6C364.9,650.9,361.6,654.2,357.5,654.2z"/>
		<path id="XMLID_134_" class="st27" d="M364.9,570.9H226.4v-8.7c0-4.1,3.3-7.4,7.4-7.4h123.8c4.1,0,7.4,3.3,7.4,7.4V570.9z"/>
		<path id="XMLID_132_" class="st5" d="M357.5,654.2H233.8c-4.1,0-7.4-3.3-7.4-7.4v-84.6c0-4.1,3.3-7.4,7.4-7.4h123.8
			c4.1,0,7.4,3.3,7.4,7.4v84.6C364.9,650.9,361.6,654.2,357.5,654.2z"/>
		<path id="XMLID_182_" class="st5" d="M357.5,654.2H233.8c-4.1,0-7.4-3.3-7.4-7.4v-84.6c0-4.1,3.3-7.4,7.4-7.4h123.8
			c4.1,0,7.4,3.3,7.4,7.4v84.6C364.9,650.9,361.6,654.2,357.5,654.2z"/>
		<path id="XMLID_133_" class="st5" d="M364.9,570.9H226.4v-8.7c0-4.1,3.3-7.4,7.4-7.4h123.8c4.1,0,7.4,3.3,7.4,7.4V570.9z"/>
		<g id="XMLID_135_">
			<g id="XMLID_169_">
				<line id="XMLID_172_" class="st25" x1="245.5" y1="641.5" x2="261.1" y2="641.5"/>
				<line id="XMLID_171_" class="st25" x1="234.5" y1="641.5" x2="235.6" y2="641.5"/>
			</g>
			<g id="XMLID_165_">
				<line id="XMLID_168_" class="st25" x1="245.5" y1="632.9" x2="285" y2="632.9"/>
				<line id="XMLID_167_" class="st25" x1="234.5" y1="632.9" x2="235.6" y2="632.9"/>
			</g>
			<g id="XMLID_160_">
				<line id="XMLID_163_" class="st28" x1="303.8" y1="624.2" x2="314.6" y2="624.2"/>
				<line id="XMLID_185_" class="st25" x1="274.4" y1="624.2" x2="294.4" y2="624.2"/>
				<line id="XMLID_164_" class="st29" x1="245.5" y1="624.2" x2="265.3" y2="624.2"/>
				<line id="XMLID_162_" class="st25" x1="234.5" y1="624.2" x2="235.6" y2="624.2"/>
			</g>
			<g id="XMLID_156_">
				<line id="XMLID_173_" class="st25" x1="278.8" y1="615.6" x2="327" y2="615.6"/>
				<line id="XMLID_159_" class="st28" x1="245.5" y1="615.6" x2="270.7" y2="615.6"/>
				<line id="XMLID_158_" class="st25" x1="234.5" y1="615.6" x2="235.6" y2="615.6"/>
			</g>
			<g id="XMLID_152_">
				<line id="XMLID_170_" class="st29" x1="278.8" y1="607" x2="296.8" y2="607"/>
				<line id="XMLID_155_" class="st30" x1="245.5" y1="607" x2="270.7" y2="607"/>
				<line id="XMLID_154_" class="st25" x1="234.5" y1="607" x2="235.6" y2="607"/>
			</g>
			<g id="XMLID_148_">
				<line id="XMLID_157_" class="st28" x1="282.3" y1="598.4" x2="287.2" y2="598.4"/>
				<line id="XMLID_161_" class="st29" x1="263.3" y1="598.4" x2="274.4" y2="598.4"/>
				<line id="XMLID_151_" class="st31" x1="245.5" y1="598.4" x2="254.7" y2="598.4"/>
				<line id="XMLID_150_" class="st25" x1="234.5" y1="598.4" x2="235.6" y2="598.4"/>
			</g>
			<g id="XMLID_144_">
				<line id="XMLID_137_" class="st28" x1="318.3" y1="589.7" x2="327" y2="589.7"/>
				<line id="XMLID_149_" class="st29" x1="273.2" y1="589.7" x2="307.3" y2="589.7"/>
				<line id="XMLID_147_" class="st30" x1="245.5" y1="589.7" x2="265.8" y2="589.7"/>
				<line id="XMLID_146_" class="st25" x1="234.5" y1="589.7" x2="235.6" y2="589.7"/>
			</g>
			<g id="XMLID_139_">
				<line id="XMLID_145_" class="st30" x1="296.8" y1="581.1" x2="314.6" y2="581.1"/>
				<line id="XMLID_138_" class="st32" x1="274.4" y1="581.1" x2="288.2" y2="581.1"/>
				<line id="XMLID_140_" class="st30" x1="259.4" y1="581.1" x2="267.2" y2="581.1"/>
				<line id="XMLID_143_" class="st32" x1="245.5" y1="581.1" x2="251.9" y2="581.1"/>
				<line id="XMLID_142_" class="st25" x1="234.5" y1="581.1" x2="235.6" y2="581.1"/>
			</g>
		</g>
		<g id="XMLID_153_">
			<circle id="XMLID_136_" class="st23" cx="240.1" cy="562.9" r="2.5"/>
			<circle id="XMLID_166_" class="st1" cx="249.1" cy="562.9" r="2.5"/>
			<circle id="XMLID_174_" class="st1" cx="258.2" cy="562.9" r="2.5"/>
		</g>
	</g>
	<path id="XMLID_176_" class="st9" d="M406.8,579.7h-89.6c-4.4,0-8-3.6-8-8v-80.9c0-4.4,3.6-8,8-8h89.6c4.4,0,8,3.6,8,8v80.9
		C414.8,576.1,411.2,579.7,406.8,579.7z"/>
	<path id="XMLID_184_" class="st9" d="M406.8,579.7h-89.6c-4.4,0-8-3.6-8-8v-80.9c0-4.4,3.6-8,8-8h89.6c4.4,0,8,3.6,8,8v80.9
		C414.8,576.1,411.2,579.7,406.8,579.7z"/>
	<path id="XMLID_175_" class="st5" d="M406.8,579.7h-89.6c-4.4,0-8-3.6-8-8v-80.9c0-4.4,3.6-8,8-8h89.6c4.4,0,8,3.6,8,8v80.9
		C414.8,576.1,411.2,579.7,406.8,579.7z"/>
	<rect id="XMLID_186_" x="318.3" y="491" class="st33" width="86.8" height="57.7"/>
	<rect id="XMLID_177_" x="318.3" y="491" class="st5" width="86.8" height="57.7"/>
	<line id="XMLID_179_" class="st5" x1="318.3" y1="557.9" x2="373.1" y2="557.9"/>
	<line id="XMLID_180_" class="st5" x1="318.3" y1="567.1" x2="350.7" y2="567.1"/>
	<polyline id="XMLID_178_" class="st5" points="327,538.4 345.7,519.9 363.1,537.3 	"/>
	<polyline id="XMLID_181_" class="st5" points="395.7,538.4 373.1,508.9 355,529.1 	"/>
	<circle id="XMLID_187_" class="st5" cx="395.5" cy="562.1" r="4.9"/>
	<circle id="XMLID_189_" class="st3" cx="351.2" cy="508.9" r="6.2"/>
	<circle id="XMLID_188_" class="st5" cx="351.2" cy="508.9" r="6.2"/>
	<g id="XMLID_194_">
		<line id="XMLID_198_" class="st5" x1="307.5" y1="454.3" x2="334.3" y2="454.3"/>
		<line id="XMLID_195_" class="st5" x1="293.2" y1="454.3" x2="300.3" y2="454.3"/>
		<line id="XMLID_199_" class="st5" x1="320.9" y1="441.9" x2="334.3" y2="441.9"/>
		<line id="XMLID_196_" class="st5" x1="310.1" y1="441.9" x2="314.1" y2="441.9"/>
	</g>
	<g id="XMLID_200_">
		<line id="XMLID_205_" class="st5" x1="278.5" y1="532.7" x2="299.4" y2="532.7"/>
		<line id="XMLID_204_" class="st5" x1="267.4" y1="532.7" x2="272.9" y2="532.7"/>
		<line id="XMLID_202_" class="st5" x1="290.9" y1="520.3" x2="299.4" y2="520.3"/>
		<line id="XMLID_201_" class="st5" x1="280.5" y1="520.3" x2="283.7" y2="520.3"/>
	</g>
	<g id="XMLID_229_">
		<line id="XMLID_233_" class="st5" x1="611.8" y1="387.6" x2="631.6" y2="387.6"/>
		<line id="XMLID_232_" class="st5" x1="599.6" y1="387.6" x2="605.2" y2="387.6"/>
		<line id="XMLID_231_" class="st5" x1="623.1" y1="375.2" x2="631.6" y2="375.2"/>
		<line id="XMLID_230_" class="st5" x1="612.8" y1="375.2" x2="615.9" y2="375.2"/>
	</g>
	<path id="XMLID_211_" class="st21" d="M627.2,457.5H549c-4.8,0-8.6-3.9-8.6-8.6V411c0-4.8,3.9-8.6,8.6-8.6h78.2
		c4.8,0,8.6,3.9,8.6,8.6v37.8C635.8,453.6,632,457.5,627.2,457.5z"/>
	<path id="XMLID_197_" class="st6" d="M627.2,457.5H549c-4.8,0-8.6-3.9-8.6-8.6V411c0-4.8,3.9-8.6,8.6-8.6h78.2
		c4.8,0,8.6,3.9,8.6,8.6v37.8C635.8,453.6,632,457.5,627.2,457.5z"/>
	<line id="XMLID_214_" class="st34" x1="588.1" y1="417.2" x2="621.9" y2="417.2"/>
	<line id="XMLID_216_" class="st34" x1="588.1" y1="428.1" x2="610.5" y2="428.1"/>
	<g id="XMLID_224_" class="st35">
		<path id="XMLID_217_" class="st9" d="M605.1,444.4h-13.6c-1.8,0-3.3-1.5-3.3-3.3l0,0c0-1.8,1.5-3.3,3.3-3.3h13.6
			c1.8,0,3.3,1.5,3.3,3.3l0,0C608.4,442.9,607,444.4,605.1,444.4z"/>
		<path id="XMLID_213_" class="st36" d="M605.1,444.4h-13.6c-1.8,0-3.3-1.5-3.3-3.3l0,0c0-1.8,1.5-3.3,3.3-3.3h13.6
			c1.8,0,3.3,1.5,3.3,3.3l0,0C608.4,442.9,607,444.4,605.1,444.4z"/>
	</g>
	<g id="XMLID_226_">
		<path id="XMLID_206_" class="st36" d="M574,444.9h-17.9c-2.6,0-4.6-2.1-4.6-4.6v-20.9c0-2.6,2.1-4.6,4.6-4.6H574
			c2.6,0,4.6,2.1,4.6,4.6v20.9C578.6,442.8,576.6,444.9,574,444.9z"/>
		<circle id="XMLID_225_" class="st36" cx="565.1" cy="426.4" r="4.8"/>
		<path id="XMLID_227_" class="st36" d="M556,444.4c0-5,4.1-9.1,9.1-9.1s9.1,4.1,9.1,9.1"/>
	</g>
</g>
<g>
	<path class="st1" d="M248.9,848.1h-14.5l-2.4,6.9h-7.7l13.1-36.5h8.5L259,855h-7.7L248.9,848.1z M241.6,827l-5.3,15.3h10.6
		L241.6,827z"/>
	<path class="st1" d="M282.5,841h-6.1v14h-7.3v-36.5h13.4c8.8,0,13.2,5,13.2,11.3C295.7,835.4,291.9,841,282.5,841z M282.2,835.1
		c4.1,0,6-2,6-5.3c0-3.3-1.8-5.3-6-5.3h-5.8v10.6H282.2z"/>
	<path class="st1" d="M319.5,841h-6.1v14h-7.3v-36.5h13.4c8.8,0,13.2,5,13.2,11.3C332.7,835.4,328.9,841,319.5,841z M319.2,835.1
		c4.1,0,6-2,6-5.3c0-3.3-1.8-5.3-6-5.3h-5.8v10.6H319.2z"/>
	<path class="st1" d="M392.7,836.8c0,11-7.6,18.2-19.2,18.2h-12.7v-36.5h12.7C385.1,818.5,392.7,825.8,392.7,836.8z M373.2,848.8
		c7.7,0,12-4.4,12-12c0-7.6-4.3-12.1-12-12.1h-5.2v24.1H373.2z"/>
	<path class="st1" d="M424.6,824.4h-13.8v9.1H423v5.8h-12.3v9.7h13.8v6h-21.2v-36.5h21.2V824.4z"/>
	<path class="st1" d="M461.4,818.5h7.8L455.8,855h-8.9l-13.4-36.5h7.8l10,29L461.4,818.5z"/>
	<path class="st1" d="M500,824.4h-13.8v9.1h12.3v5.8h-12.3v9.7H500v6h-21.2v-36.5H500V824.4z"/>
	<path class="st1" d="M519.1,818.5v30.7h12v5.8h-19.3v-36.5H519.1z"/>
	<path class="st1" d="M557.9,855.4c-10.3,0-18.7-7.7-18.7-18.7c0-10.9,8.4-18.6,18.7-18.6c10.4,0,18.6,7.7,18.6,18.6
		C576.6,847.6,568.3,855.4,557.9,855.4z M557.9,848.8c6.6,0,11.1-4.8,11.1-12.2s-4.5-12.1-11.1-12.1c-6.6,0-11.2,4.6-11.2,12.1
		S551.3,848.8,557.9,848.8z"/>
	<path class="st1" d="M600.7,841h-6.1v14h-7.3v-36.5h13.4c8.8,0,13.2,5,13.2,11.3C613.8,835.4,610.1,841,600.7,841z M600.4,835.1
		c4.1,0,6-2,6-5.3c0-3.3-1.8-5.3-6-5.3h-5.8v10.6H600.4z"/>
	<path class="st1" d="M624.2,818.5h8.3l11.6,27.1l11.6-27.1h8.3V855h-7.3v-23.7l-9.8,23.7h-5.5l-9.8-23.7V855h-7.3V818.5z"/>
	<path class="st1" d="M697.6,824.4h-13.8v9.1H696v5.8h-12.3v9.7h13.8v6h-21.2v-36.5h21.2V824.4z"/>
	<path class="st1" d="M740.6,818.5V855h-7.3l-16.6-25v25h-7.3v-36.5h7.3l16.6,25.1v-25.1H740.6z"/>
	<path class="st1" d="M751.1,818.5h26.7v5.9h-9.7V855h-7.3v-30.6h-9.7V818.5z"/>
</g>
</svg>
