<?xml version="1.0" encoding="utf-8"?>
<!-- Generator: Adobe Illustrator 23.1.1, SVG Export Plug-In . SVG Version: 6.00 Build 0)  -->
<svg version="1.1" id="Layer_1" xmlns="http://www.w3.org/2000/svg" xmlns:xlink="http://www.w3.org/1999/xlink" x="0px" y="0px"
	 viewBox="0 0 1000 1000" style="enable-background:new 0 0 1000 1000;" xml:space="preserve">
<style type="text/css">
	.st0{fill:#D2FAFF;}
	.st1{fill:#3A3736;}
	.st2{opacity:0.35;fill:#FFFFFF;}
	.st3{opacity:0.15;fill:#FFFFFF;}
	.st4{opacity:0.2;fill:#FFFFFF;}
	.st5{fill:#FFFFFF;}
	.st6{fill:url(#XMLID_104_);}
	.st7{fill:#E04D2B;}
	.st8{fill:#EF3F32;}
	.st9{opacity:0.66;fill:#FA923D;}
	.st10{opacity:0.3;}
	.st11{fill:none;stroke:#B22F22;stroke-width:2;stroke-linecap:round;stroke-linejoin:round;stroke-miterlimit:10;}
	.st12{fill:none;stroke:#5D1900;stroke-width:6;stroke-linecap:round;stroke-linejoin:round;stroke-miterlimit:10;}
	.st13{fill:none;stroke:#3A3736;stroke-width:6;stroke-linecap:round;stroke-linejoin:round;stroke-miterlimit:10;}
	.st14{fill:none;stroke:#3A3736;stroke-width:3;stroke-linecap:round;stroke-linejoin:round;stroke-miterlimit:10;}
	.st15{fill:url(#XMLID_105_);stroke:#3A3736;stroke-linecap:round;stroke-linejoin:round;stroke-miterlimit:10;}
	.st16{fill:url(#XMLID_107_);stroke:#3A3736;stroke-linecap:round;stroke-linejoin:round;stroke-miterlimit:10;}
	.st17{fill:url(#XMLID_109_);stroke:#3A3736;stroke-linecap:round;stroke-linejoin:round;stroke-miterlimit:10;}
	.st18{fill:url(#XMLID_110_);stroke:#3A3736;stroke-linecap:round;stroke-linejoin:round;stroke-miterlimit:10;}
	.st19{fill:#FC3A4D;}
	.st20{fill:#F0FAFC;}
	.st21{fill:#28AFAF;}
	.st22{opacity:0.46;}
	.st23{fill:#1C918E;}
	.st24{opacity:0.6;fill:#1C918E;}
	.st25{opacity:0.17;fill:#188C89;}
	.st26{fill:none;stroke:#3A3736;stroke-width:4;stroke-linecap:round;stroke-linejoin:round;stroke-miterlimit:10;}
	.st27{opacity:0.54;fill:#2D5B72;}
	.st28{opacity:0.48;}
	.st29{fill:none;stroke:#298589;stroke-width:6;stroke-linecap:round;stroke-linejoin:round;stroke-miterlimit:10;}
	.st30{opacity:0.62;}
	.st31{opacity:0.59;}
	.st32{opacity:0.33;}
</style>
<rect id="XMLID_16_" class="st0" width="1000" height="1000"/>
<g>
	<g>
		<g>
			<path class="st1" d="M63.2,959.2c0,2.5-1.2,3.7-2.6,3.7c-1.1,0-1.9-0.5-2.1-1.4c-0.4,0.5-1,0.8-1.8,0.8c-1.5,0-2.6-1.2-2.6-2.8
				c0-1.6,1.1-2.8,2.6-2.8c0.7,0,1.2,0.3,1.6,0.7v-0.5h1.6v3.9c0,0.8,0.3,1.4,1,1.4c0.9,0,1.7-0.9,1.7-3c0-3-2.3-5.3-5.4-5.3
				c-3.1,0-5.6,2.4-5.6,5.7c0,3.3,2.5,5.7,5.9,5.7c1.1,0,2.1-0.2,2.9-0.4v0.6c-0.8,0.3-1.7,0.4-2.9,0.4c-3.7,0-6.5-2.6-6.5-6.2
				c0-3.4,2.7-6.2,6.2-6.2C61.1,953.3,63.2,956.4,63.2,959.2z M58.3,959.5c0-0.8-0.6-1.4-1.3-1.4c-0.8,0-1.3,0.5-1.3,1.4
				c0,0.8,0.6,1.3,1.3,1.3C57.8,960.9,58.3,960.3,58.3,959.5z"/>
		</g>
		<g>
			<path class="st1" d="M69.4,955.1v2c-1.2-0.1-2.6,0.5-2.6,2.4v4.3h-1.9v-8.6h1.9v1.4C67.3,955.5,68.3,955.1,69.4,955.1z"/>
		</g>
		<g>
			<path class="st1" d="M74.6,962.3c1,0,1.8-0.5,2.2-1.1l1.5,0.9c-0.8,1.2-2.1,1.9-3.8,1.9c-2.8,0-4.7-1.9-4.7-4.5
				c0-2.5,1.8-4.5,4.5-4.5c2.6,0,4.3,2.1,4.3,4.5c0,0.3,0,0.5-0.1,0.8h-6.8C72.1,961.6,73.2,962.3,74.6,962.3z M76.9,958.8
				c-0.3-1.5-1.3-2.1-2.5-2.1c-1.4,0-2.3,0.8-2.6,2.1H76.9z"/>
		</g>
		<g>
			<path class="st1" d="M88.9,955.2v8.6h-1.9v-1.2c-0.7,0.9-1.7,1.5-3,1.5c-2.3,0-4.3-2-4.3-4.5c0-2.6,1.9-4.5,4.3-4.5
				c1.3,0,2.3,0.5,3,1.4v-1.2H88.9z M87.1,959.5c0-1.6-1.2-2.7-2.7-2.7c-1.5,0-2.7,1.1-2.7,2.7c0,1.6,1.2,2.7,2.7,2.7
				C85.9,962.3,87.1,961.1,87.1,959.5z"/>
		</g>
		<g>
			<path class="st1" d="M91.1,951.3H93v12.5h-1.9V951.3z"/>
		</g>
		<g>
			<path class="st1" d="M102.9,955.2l-3.3,8.6h-2.1l-3.3-8.6h2l2.4,6.5l2.4-6.5H102.9z"/>
		</g>
		<g>
			<path class="st1" d="M104.2,955.2h1.9v8.9c0,2.4-1.2,3.5-3.5,3.3v-1.8c1.1,0.1,1.7-0.3,1.7-1.5V955.2z M104,952.8
				c0-0.7,0.5-1.2,1.2-1.2c0.7,0,1.2,0.5,1.2,1.2c0,0.6-0.5,1.2-1.2,1.2C104.5,954,104,953.4,104,952.8z"/>
		</g>
		<g>
			<path class="st1" d="M116,955.2l-3.3,8.8c-0.8,2.2-2.2,3.3-4.2,3.2v-1.7c1.2,0.1,1.9-0.5,2.3-1.7l0.1-0.2l-3.6-8.4h2l2.6,6.2
				l2.2-6.2H116z"/>
		</g>
	</g>
	<g>
		<path class="st1" d="M211.9,938.7c0,2.1-1.5,3.8-3.6,3.8h-3v-7.6h3C210.4,934.9,211.9,936.6,211.9,938.7z M210.9,938.7
			c0-1.6-1.1-2.9-2.6-2.9h-2v5.7h2C209.8,941.6,210.9,940.3,210.9,938.7z"/>
		<path class="st1" d="M219.5,940.8h-3.4l-0.6,1.7h-1.1l2.8-7.6h1.1l2.8,7.6h-1.1L219.5,940.8z M219.2,939.9l-1.4-3.8l-1.4,3.8
			H219.2z"/>
		<path class="st1" d="M226.4,939.4v3.1h-1v-3.1l-2.7-4.5h1.1l2.1,3.6l2.1-3.6h1.1L226.4,939.4z"/>
		<path class="st1" d="M241.6,938.8L241.6,938.8l-2.5,3.7H238l1.8-2.7c-0.1,0-0.2,0-0.4,0c-1.5,0-2.6-1-2.6-2.6
			c0-1.5,1.1-2.6,2.6-2.6s2.6,1,2.6,2.6C242.1,937.9,241.9,938.4,241.6,938.8z M239.4,938.9c1,0,1.6-0.6,1.6-1.6s-0.7-1.6-1.6-1.6
			s-1.6,0.6-1.6,1.6C237.8,938.3,238.5,938.9,239.4,938.9z"/>
		<path class="st1" d="M250.3,940.4c0,1.4-1.1,2.2-2.6,2.2c-1.5,0-2.6-0.8-2.6-2.2c0-0.8,0.5-1.5,1.2-1.9c-0.6-0.3-0.9-0.9-0.9-1.7
			c0-1.5,1.2-2.2,2.4-2.2c1.2,0,2.4,0.7,2.4,2.2c0,0.8-0.4,1.3-0.9,1.7C249.8,938.9,250.3,939.6,250.3,940.4z M249.3,940.4
			c0-0.9-0.7-1.3-1.6-1.3c-0.9,0-1.6,0.4-1.6,1.3c0,0.9,0.7,1.3,1.6,1.3C248.6,941.7,249.3,941.2,249.3,940.4z M246.3,936.9
			c0,0.8,0.6,1.2,1.4,1.2c0.7,0,1.4-0.4,1.4-1.2c0-0.8-0.6-1.2-1.4-1.2C247,935.7,246.3,936.1,246.3,936.9z"/>
	</g>
	<g>
		<path class="st1" d="M58.9,938.7c0,2.1-1.5,3.8-3.6,3.8h-3v-7.6h3C57.4,934.9,58.9,936.6,58.9,938.7z M57.9,938.7
			c0-1.6-1.1-2.9-2.6-2.9h-2v5.7h2C56.8,941.6,57.9,940.3,57.9,938.7z"/>
		<path class="st1" d="M67,941.6v1h-4.6v-7.6h4.5v1h-3.5v2.3h3.2v0.9h-3.2v2.4H67z"/>
		<path class="st1" d="M70,940.8l0.9-0.5c0.3,0.8,0.9,1.4,2,1.4c1.1,0,1.6-0.5,1.6-1.2c0-0.8-0.7-1-1.8-1.4
			c-1.2-0.4-2.4-0.8-2.4-2.2c0-1.4,1.1-2.2,2.4-2.2c1.3,0,2.2,0.7,2.6,1.7l-0.8,0.5c-0.3-0.7-0.8-1.2-1.7-1.2
			c-0.8,0-1.4,0.4-1.4,1.1c0,0.7,0.5,1,1.6,1.3c1.3,0.4,2.6,0.8,2.6,2.3c0,1.3-1.1,2.2-2.6,2.2C71.5,942.7,70.4,941.9,70,940.8z"/>
		<path class="st1" d="M80,934.9v7.6h-1v-7.6H80z"/>
		<path class="st1" d="M91.3,939.2c0,1.9-1.4,3.5-3.7,3.5c-2.4,0-4-1.8-4-4c0-2.2,1.7-4,4-4c1.4,0,2.7,0.8,3.3,1.8l-0.9,0.5
			c-0.4-0.8-1.4-1.4-2.4-1.4c-1.8,0-3,1.3-3,3c0,1.7,1.2,3,3,3c1.6,0,2.5-0.9,2.7-2h-2.8v-0.9h3.8V939.2z"/>
		<path class="st1" d="M100.6,934.9v7.6h-0.8l-3.9-5.7v5.7h-1v-7.6h0.8l3.9,5.7v-5.7H100.6z"/>
		<path class="st1" d="M109.1,941.6v1h-4.6v-7.6h4.5v1h-3.5v2.3h3.2v0.9h-3.2v2.4H109.1z"/>
		<path class="st1" d="M119.2,938.7c0,2.1-1.5,3.8-3.6,3.8h-3v-7.6h3C117.6,934.9,119.2,936.6,119.2,938.7z M118.2,938.7
			c0-1.6-1.1-2.9-2.6-2.9h-2v5.7h2C117.1,941.6,118.2,940.3,118.2,938.7z"/>
		<path class="st1" d="M133.2,940.4c0,1.2-1,2.2-2.2,2.2h-3.3v-7.6h3c1.2,0,2.1,0.9,2.1,2.1c0,0.7-0.3,1.2-0.8,1.6
			C132.7,938.9,133.2,939.5,133.2,940.4z M128.7,935.8v2.3h2c0.6,0,1.1-0.5,1.1-1.2c0-0.6-0.5-1.2-1.1-1.2H128.7z M132.2,940.3
			c0-0.7-0.5-1.2-1.2-1.2h-2.3v2.5h2.3C131.7,941.6,132.2,941,132.2,940.3z"/>
		<path class="st1" d="M139.4,939.4v3.1h-1v-3.1l-2.7-4.5h1.1l2.1,3.6l2.1-3.6h1.1L139.4,939.4z"/>
	</g>
	<g>
		<path class="st1" d="M204.8,962.3l1.8-1c0.4,0.9,1.1,1.3,2.2,1.3c1.4,0,2.2-0.7,2.2-2v-8.6h2v8.6c0,2.6-1.9,4-4.3,4
			C207,964.5,205.6,963.8,204.8,962.3z"/>
		<path class="st1" d="M223.2,955.4v8.9h-1.9v-1.1c-0.6,0.9-1.5,1.4-2.7,1.4c-2,0-3.4-1.3-3.4-3.6v-5.4h1.9v5.2c0,1.3,0.8,2.1,2,2.1
			c1.3,0,2.2-0.7,2.2-2.5v-4.7H223.2z"/>
		<path class="st1" d="M233.5,958.9v5.4h-1.9v-5.2c0-1.3-0.8-2.1-2-2.1c-1.3,0-2.2,0.7-2.2,2.5v4.7h-1.9v-8.9h1.9v1.1
			c0.6-0.9,1.5-1.4,2.7-1.4C232.1,955.2,233.5,956.6,233.5,958.9z"/>
		<path class="st1" d="M241.1,964.3l-3.6-4.1v4.1h-1.9v-12.4h1.9v7.5l3.4-3.9h2.3l-3.9,4.3l4,4.5H241.1z"/>
		<path class="st1" d="M258.2,960.8c0,2.1-1.7,3.5-3.7,3.5h-5.3v-12.4h4.9c2,0,3.6,1.5,3.6,3.4c0,1.1-0.5,2-1.3,2.5
			C257.5,958.4,258.2,959.4,258.2,960.8z M251.2,953.8v3.3h2.9c0.9,0,1.6-0.7,1.6-1.6c0-0.9-0.7-1.6-1.6-1.6H251.2z M256.2,960.6
			c0-1-0.7-1.7-1.7-1.7h-3.3v3.5h3.3C255.5,962.4,256.2,961.6,256.2,960.6z"/>
		<path class="st1" d="M259.5,959.9c0-2.6,2.1-4.7,4.7-4.7c2.6,0,4.7,2,4.7,4.7c0,2.6-2.1,4.7-4.7,4.7
			C261.6,964.5,259.5,962.5,259.5,959.9z M266.9,959.9c0-1.6-1.2-2.8-2.8-2.8s-2.8,1.2-2.8,2.8c0,1.6,1.2,2.8,2.8,2.8
			S266.9,961.5,266.9,959.9z"/>
		<path class="st1" d="M279.5,955.4v8.9h-1.9V963c-0.7,0.9-1.7,1.5-3.1,1.5c-2.4,0-4.4-2-4.4-4.7c0-2.6,2-4.7,4.4-4.7
			c1.4,0,2.4,0.6,3.1,1.5v-1.3H279.5z M277.6,959.9c0-1.6-1.2-2.8-2.8-2.8c-1.6,0-2.8,1.2-2.8,2.8c0,1.6,1.2,2.8,2.8,2.8
			C276.4,962.7,277.6,961.5,277.6,959.9z"/>
		<path class="st1" d="M284.5,957.3v4.2c0,1.1,0.7,1.1,2.2,1v1.7c-2.9,0.4-4.1-0.5-4.1-2.8v-4.2h-1.6v-1.8h1.6v-1.9l1.9-0.6v2.5h2.2
			v1.8H284.5z"/>
	</g>
	<g>
		<g>
			<g>
				<path class="st1" d="M846.1,938.7c0,2.1-1.5,3.8-3.6,3.8h-3v-7.6h3C844.6,934.9,846.1,936.6,846.1,938.7z M845.2,938.7
					c0-1.6-1.1-2.9-2.6-2.9h-2v5.7h2C844.1,941.6,845.2,940.3,845.2,938.7z"/>
			</g>
			<g>
				<path class="st1" d="M849.3,938.7c0-2.2,1.7-4,3.9-4c2.2,0,4,1.8,4,4c0,2.2-1.7,4-4,4C851,942.7,849.3,940.9,849.3,938.7z
					 M856.1,938.7c0-1.7-1.3-3-2.9-3c-1.7,0-2.9,1.3-2.9,3c0,1.7,1.3,3,2.9,3C854.9,941.7,856.1,940.4,856.1,938.7z"/>
			</g>
			<g>
				<path class="st1" d="M859.8,934.9h1.1l1.7,6.3l1.9-6.3h1l1.9,6.3l1.7-6.3h1.1l-2.2,7.6h-1.2l-1.8-6.1l-1.8,6.1H862L859.8,934.9z
					"/>
			</g>
			<g>
				<path class="st1" d="M879.3,934.9v7.6h-0.8l-3.9-5.7v5.7h-1v-7.6h0.8l3.9,5.7v-5.7H879.3z"/>
			</g>
			<g>
				<path class="st1" d="M887.5,941.6v1h-4.3v-7.6h1v6.7H887.5z"/>
			</g>
			<g>
				<path class="st1" d="M889.9,938.7c0-2.2,1.7-4,3.9-4c2.2,0,4,1.8,4,4c0,2.2-1.7,4-4,4C891.6,942.7,889.9,940.9,889.9,938.7z
					 M896.8,938.7c0-1.7-1.3-3-2.9-3c-1.7,0-2.9,1.3-2.9,3c0,1.7,1.3,3,2.9,3C895.5,941.7,896.8,940.4,896.8,938.7z"/>
			</g>
			<g>
				<path class="st1" d="M905.4,940.8H902l-0.6,1.7h-1.1l2.8-7.6h1.1l2.8,7.6H906L905.4,940.8z M905.1,939.9l-1.4-3.8l-1.4,3.8
					H905.1z"/>
			</g>
			<g>
				<path class="st1" d="M916.9,938.7c0,2.1-1.5,3.8-3.6,3.8h-3v-7.6h3C915.4,934.9,916.9,936.6,916.9,938.7z M915.9,938.7
					c0-1.6-1.1-2.9-2.6-2.9h-2v5.7h2C914.9,941.6,915.9,940.3,915.9,938.7z"/>
			</g>
			<g>
				<path class="st1" d="M926.5,935.8v2.5h3.2v1h-3.2v3.2h-1v-7.6h4.4v1H926.5z"/>
			</g>
			<g>
				<path class="st1" d="M936.2,939.6h-1.8v2.9h-1v-7.6h3c1.3,0,2.4,1.1,2.4,2.4c0,1-0.7,1.9-1.6,2.2l1.8,3.1h-1.1L936.2,939.6z
					 M934.4,938.7h2c0.8,0,1.4-0.6,1.4-1.4c0-0.8-0.6-1.4-1.4-1.4h-2V938.7z"/>
			</g>
			<g>
				<path class="st1" d="M941.9,938.7c0-2.2,1.7-4,3.9-4c2.2,0,4,1.8,4,4c0,2.2-1.7,4-4,4C943.6,942.7,941.9,940.9,941.9,938.7z
					 M948.8,938.7c0-1.7-1.3-3-2.9-3c-1.7,0-2.9,1.3-2.9,3c0,1.7,1.3,3,2.9,3C947.5,941.7,948.8,940.4,948.8,938.7z"/>
			</g>
			<g>
				<path class="st1" d="M960.4,942.5h-1v-6l-2.5,4.2h-0.1l-2.5-4.1v5.9h-1v-7.6h1.1l2.4,4l2.4-4h1.1V942.5z"/>
			</g>
		</g>
		<g>
			<g>
				<path class="st1" d="M839.3,952.9c0-0.7,0.5-1.2,1.2-1.2c0.7,0,1.2,0.5,1.2,1.2c0,0.7-0.5,1.2-1.2,1.2
					C839.9,954.1,839.3,953.6,839.3,952.9z M839.6,955.4h1.9v8.9h-1.9V955.4z"/>
			</g>
			<g>
				<path class="st1" d="M843.7,951.4h1.9v12.9h-1.9V951.4z"/>
			</g>
			<g>
				<path class="st1" d="M847.8,951.4h1.9v12.9h-1.9V951.4z"/>
			</g>
			<g>
				<path class="st1" d="M852,951.4h1.9v12.9H852V951.4z"/>
			</g>
			<g>
				<path class="st1" d="M864,955.4v8.9h-1.9v-1.1c-0.6,0.9-1.5,1.4-2.7,1.4c-2,0-3.4-1.3-3.4-3.6v-5.4h1.9v5.2c0,1.3,0.8,2.1,2,2.1
					c1.3,0,2.2-0.7,2.2-2.5v-4.7H864z"/>
			</g>
			<g>
				<path class="st1" d="M872.6,961.8c0,1.8-1.5,2.7-3.5,2.7c-1.8,0-3-0.8-3.6-2.1l1.6-1c0.3,0.8,1,1.3,2,1.3c0.8,0,1.5-0.3,1.5-1
					c0-1.6-4.8-0.7-4.8-3.9c0-1.7,1.4-2.7,3.2-2.7c1.5,0,2.7,0.7,3.3,1.8l-1.6,0.9c-0.3-0.7-0.9-1-1.7-1c-0.7,0-1.3,0.3-1.3,0.9
					C867.9,959.5,872.6,958.5,872.6,961.8z"/>
			</g>
			<g>
				<path class="st1" d="M876.7,957.3v4.2c0,1.1,0.7,1.1,2.2,1v1.7c-2.9,0.4-4.1-0.5-4.1-2.8v-4.2h-1.6v-1.8h1.6v-1.9l1.9-0.6v2.5
					h2.2v1.8H876.7z"/>
			</g>
			<g>
				<path class="st1" d="M885.4,955.3v2.1c-1.3-0.1-2.7,0.5-2.7,2.5v4.5h-1.9v-8.9h1.9v1.5C883.2,955.7,884.2,955.3,885.4,955.3z"/>
			</g>
			<g>
				<path class="st1" d="M895.3,955.4v8.9h-1.9V963c-0.7,0.9-1.7,1.5-3.1,1.5c-2.4,0-4.4-2-4.4-4.7c0-2.6,2-4.7,4.4-4.7
					c1.4,0,2.4,0.6,3.1,1.5v-1.3H895.3z M893.4,959.9c0-1.6-1.2-2.8-2.8-2.8c-1.6,0-2.8,1.2-2.8,2.8c0,1.6,1.2,2.8,2.8,2.8
					C892.2,962.7,893.4,961.5,893.4,959.9z"/>
			</g>
			<g>
				<path class="st1" d="M900.3,957.3v4.2c0,1.1,0.7,1.1,2.2,1v1.7c-2.9,0.4-4.1-0.5-4.1-2.8v-4.2h-1.6v-1.8h1.6v-1.9l1.9-0.6v2.5
					h2.2v1.8H900.3z"/>
			</g>
			<g>
				<path class="st1" d="M903.9,952.9c0-0.7,0.5-1.2,1.2-1.2c0.7,0,1.2,0.5,1.2,1.2c0,0.7-0.5,1.2-1.2,1.2
					C904.5,954.1,903.9,953.6,903.9,952.9z M904.2,955.4h1.9v8.9h-1.9V955.4z"/>
			</g>
			<g>
				<path class="st1" d="M907.8,959.9c0-2.6,2.1-4.7,4.7-4.7c2.6,0,4.7,2,4.7,4.7c0,2.6-2.1,4.7-4.7,4.7
					C909.9,964.5,907.8,962.5,907.8,959.9z M915.3,959.9c0-1.6-1.2-2.8-2.8-2.8c-1.6,0-2.8,1.2-2.8,2.8c0,1.6,1.2,2.8,2.8,2.8
					C914.1,962.7,915.3,961.5,915.3,959.9z"/>
			</g>
			<g>
				<path class="st1" d="M927,958.9v5.4h-1.9v-5.2c0-1.3-0.8-2.1-2-2.1c-1.3,0-2.2,0.7-2.2,2.5v4.7h-1.9v-8.9h1.9v1.1
					c0.6-0.9,1.5-1.4,2.7-1.4C925.5,955.2,927,956.6,927,958.9z"/>
			</g>
			<g>
				<path class="st1" d="M935.5,961.8c0,1.8-1.5,2.7-3.5,2.7c-1.8,0-3-0.8-3.6-2.1l1.6-1c0.3,0.8,1,1.3,2,1.3c0.8,0,1.5-0.3,1.5-1
					c0-1.6-4.8-0.7-4.8-3.9c0-1.7,1.4-2.7,3.2-2.7c1.5,0,2.7,0.7,3.3,1.8l-1.6,0.9c-0.3-0.7-0.9-1-1.7-1c-0.7,0-1.3,0.3-1.3,0.9
					C930.7,959.5,935.5,958.5,935.5,961.8z"/>
			</g>
			<g>
				<path class="st1" d="M936.8,963.2c0-0.7,0.6-1.3,1.3-1.3c0.7,0,1.3,0.6,1.3,1.3c0,0.7-0.6,1.3-1.3,1.3
					C937.4,964.5,936.8,963.9,936.8,963.2z"/>
			</g>
			<g>
				<path class="st1" d="M940.3,959.9c0-2.6,2-4.7,4.7-4.7c1.7,0,3.2,0.9,3.9,2.3l-1.6,1c-0.4-0.8-1.3-1.4-2.3-1.4
					c-1.6,0-2.7,1.2-2.7,2.8c0,1.6,1.2,2.8,2.7,2.8c1.1,0,1.9-0.5,2.4-1.4l1.6,0.9c-0.7,1.4-2.2,2.3-4,2.3
					C942.3,964.5,940.3,962.5,940.3,959.9z"/>
			</g>
			<g>
				<path class="st1" d="M949.7,959.9c0-2.6,2.1-4.7,4.7-4.7c2.6,0,4.7,2,4.7,4.7c0,2.6-2.1,4.7-4.7,4.7
					C951.8,964.5,949.7,962.5,949.7,959.9z M957.2,959.9c0-1.6-1.2-2.8-2.8-2.8s-2.8,1.2-2.8,2.8c0,1.6,1.2,2.8,2.8,2.8
					S957.2,961.5,957.2,959.9z"/>
			</g>
		</g>
	</g>
</g>
<circle id="XMLID_84_" class="st2" cx="500" cy="500" r="308.7"/>
<circle id="XMLID_31_" class="st3" cx="500" cy="500" r="376"/>
<circle id="XMLID_27_" class="st4" cx="500" cy="500" r="308.7"/>
<circle id="XMLID_2_" class="st5" cx="500" cy="500" r="223.8"/>
<linearGradient id="XMLID_104_" gradientUnits="userSpaceOnUse" x1="488.6737" y1="992.418" x2="488.6737" y2="692.0711">
	<stop  offset="0" style="stop-color:#7FD8E0;stop-opacity:0"/>
	<stop  offset="1" style="stop-color:#7FD8E0"/>
</linearGradient>
<path id="XMLID_158_" class="st6" d="M852.3,697.5L852.3,697.5c0-11.7-9.5-21.3-21.3-21.3H146.3c-11.7,0-21.3,9.5-21.3,21.3v0
	c0,11.7,9.5,21.3,21.3,21.3h107.2c11.7,0,21.3,9.5,21.3,21.3v0c0,11.7-9.5,21.3-21.3,21.3h-26.1c-11.7,0-21.3,9.5-21.3,21.3v0
	c0,11.7,9.5,21.3,21.3,21.3h107.3c11.7,0,21.3,9.5,21.3,21.3v0c0,11.7-9.5,21.3-21.3,21.3h-22c-11.7,0-21.3,9.5-21.3,21.3v0
	c0,11.7,9.5,21.3,21.3,21.3h352c11.7,0,21.3-9.5,21.3-21.3v0c0-11.7-9.5-21.3-21.3-21.3h-22c-11.7,0-21.3-9.5-21.3-21.3v0
	c0-11.7,9.5-21.3,21.3-21.3h107.3c11.7,0,21.3-9.5,21.3-21.3v0c0-11.7-9.5-21.3-21.3-21.3h-26.1c-11.7,0-21.3-9.5-21.3-21.3v0
	c0-11.7,9.5-21.3,21.3-21.3h107.2C842.8,718.8,852.3,709.2,852.3,697.5z"/>
<g>
	<path id="XMLID_15_" class="st7" d="M653,558c30.5,2.7,61,0,91.5-8.2c-4.6-7.4-5.5-29.5-1.9-36.4c-8.6-0.6-9-22.8-6.6-33.8
		c-12.3-4.9-20.9-11.1-22.4-19.9c-9.1-1.5-14.7-7.2-17.8-15.8c-9.3,15.8-24.8,31.5-41.6,47.2L653,558z"/>
	<path id="XMLID_96_" class="st8" d="M474.5,285.3c0,0,0,38.9,0,45c6.2-7.9,15.6-17.7,25.5-16.3c8.8,1.3,11.2,10.5,18.7,11.9
		c6.7,1.2,17.6-3.7,35.5-34.1c-17.2,12.6-26.7,12.6-32.1,10.1c-10.3-4.8-9.1-19.9-19.7-24.5C493.7,273.7,482.7,279.5,474.5,285.3z"
		/>
	<path id="XMLID_48_" class="st7" d="M632.9,564.4c0,0-124,2.6-248-22.5c17.3-62.8,15.7-153.8,15.7-153.8
		c120.4-12.6,175.8-45.5,175.8-45.5s7.9,34.6,36.6,52.4c-4.9,25.8,3.5,43.7,19.9,64c-14.5,14.5,0.8,42.7,8.1,50
		C626,524,622.5,554,632.9,564.4z"/>
	<path id="XMLID_65_" class="st9" d="M475.8,556c61.5-16.8,78.4-53.3,78.4-109.1c0-26.7-10.9-64.6-23.1-85.3
		c-28.9,9.6-72,20.5-130.4,26.6c0,0,1.6,91-15.7,153.8C415.9,548.2,446.8,552.7,475.8,556z"/>
	<g id="XMLID_49_" class="st10">
		<path id="XMLID_95_" class="st11" d="M427.2,385.7c0,0,8.3,74.8-18.8,160.6"/>
		<path id="XMLID_94_" class="st11" d="M453.1,380.8c0,0,2.8,85.3-23.2,169.1"/>
		<path id="XMLID_93_" class="st11" d="M478.5,375.8c0,0-6.3,106.2-26.9,177.2"/>
		<path id="XMLID_92_" class="st11" d="M506.4,368.9c0,0-11.3,121.9-33.4,186.7"/>
		<path id="XMLID_91_" class="st11" d="M534.7,361.5c0,0-18.8,138.7-39.3,196.5"/>
		<path id="XMLID_90_" class="st11" d="M565.6,348.9c0,0-29.5,161.3-48.3,212.2"/>
		<path id="XMLID_89_" class="st11" d="M588.3,369.7c0,0-31,147.5-48.1,191.4"/>
		<path id="XMLID_88_" class="st11" d="M613,395c0,0-35.2,132.5-50.8,169.4"/>
		<path id="XMLID_87_" class="st11" d="M623.9,446.8c0,0-24.1,87.7-38,117.6"/>
		<path id="XMLID_86_" class="st11" d="M632.9,497c0,0-10.8,44.5-23,67.5"/>
	</g>
	<path id="XMLID_9_" class="st12" d="M632.9,564.4c0,0-124,2.6-248-22.5c17.3-62.8,15.7-153.8,15.7-153.8
		c120.4-12.6,175.8-45.5,175.8-45.5"/>
	<path id="XMLID_47_" class="st13" d="M632.9,564.4c0,0-124,2.6-248-22.5c17.3-62.8,15.7-153.8,15.7-153.8
		c120.4-12.6,175.8-45.5,175.8-45.5s7.9,34.6,36.6,52.4c-4.9,25.8,3.5,43.7,19.9,64c-14.5,14.5,0.8,42.7,8.1,50
		C626,524,622.5,554,632.9,564.4z"/>
	<path id="XMLID_10_" class="st14" d="M613,395c-92,34-213.3,37.8-213.3,37.8"/>
	<linearGradient id="XMLID_105_" gradientUnits="userSpaceOnUse" x1="542.2645" y1="594.1926" x2="542.2645" y2="348.8902">
		<stop  offset="0" style="stop-color:#7FD8E0;stop-opacity:0"/>
		<stop  offset="1" style="stop-color:#7FD8E0"/>
	</linearGradient>
	<line id="XMLID_164_" class="st15" x1="472.9" y1="348.9" x2="611.6" y2="594.2"/>
	<linearGradient id="XMLID_107_" gradientUnits="userSpaceOnUse" x1="413.3113" y1="631.6951" x2="413.3113" y2="479.6885">
		<stop  offset="0" style="stop-color:#7FD8E0;stop-opacity:0"/>
		<stop  offset="1" style="stop-color:#7FD8E0"/>
	</linearGradient>
	<line id="XMLID_168_" class="st16" x1="467.1" y1="479.7" x2="359.6" y2="631.7"/>
	<linearGradient id="XMLID_109_" gradientUnits="userSpaceOnUse" x1="378.5104" y1="613.3951" x2="378.5104" y2="434.0773">
		<stop  offset="0" style="stop-color:#7FD8E0;stop-opacity:0"/>
		<stop  offset="1" style="stop-color:#7FD8E0"/>
	</linearGradient>
	<line id="XMLID_171_" class="st17" x1="469.6" y1="434.1" x2="287.5" y2="613.4"/>
	<linearGradient id="XMLID_110_" gradientUnits="userSpaceOnUse" x1="568.0001" y1="588.8206" x2="568.0001" y2="330.2563">
		<stop  offset="0" style="stop-color:#7FD8E0;stop-opacity:0"/>
		<stop  offset="1" style="stop-color:#7FD8E0"/>
	</linearGradient>
	<line id="XMLID_165_" class="st18" x1="474.5" y1="330.3" x2="661.5" y2="588.8"/>
	<path id="XMLID_7_" class="st13" d="M472.7,277.4c0,0,11.5,251.5-49.9,362.9"/>
	<g id="XMLID_19_">
		<polygon id="XMLID_38_" class="st19" points="600.5,610.6 381.3,613.4 412.4,598.9 569,596.9 		"/>
		<polygon id="XMLID_17_" class="st13" points="600.5,610.6 381.3,613.4 412.4,598.9 569,596.9 		"/>
		
			<rect id="XMLID_39_" x="398" y="612" transform="matrix(0.9999 -1.268454e-02 1.268454e-02 0.9999 -7.9105 6.2795)" class="st20" width="186.2" height="29.5"/>
		
			<rect id="XMLID_18_" x="398" y="612" transform="matrix(0.9999 -1.268454e-02 1.268454e-02 0.9999 -7.9105 6.2795)" class="st13" width="186.2" height="29.5"/>
		<g id="XMLID_36_">
			<g id="XMLID_28_">
				
					<rect id="XMLID_24_" x="475.9" y="623.7" transform="matrix(0.9999 -1.268454e-02 1.268454e-02 0.9999 -7.9824 6.28)" class="st13" width="30.3" height="17.5"/>
				<polyline id="XMLID_23_" class="st13" points="476,641.3 475.8,623.9 506.1,623.5 506.4,641 				"/>
			</g>
			<g id="XMLID_42_">
				
					<rect id="XMLID_55_" x="475.9" y="623.7" transform="matrix(0.9999 -1.268454e-02 1.268454e-02 0.9999 -7.9824 6.28)" class="st1" width="30.3" height="17.5"/>
				<polyline id="XMLID_46_" class="st1" points="476,641.3 475.8,623.9 506.1,623.5 506.4,641 				"/>
			</g>
			<g id="XMLID_35_">
				<g id="XMLID_30_">
					
						<rect id="XMLID_20_" x="424.2" y="624.3" transform="matrix(0.9999 -1.268454e-02 1.268454e-02 0.9999 -7.9941 5.6239)" class="st13" width="30.3" height="17.5"/>
					<polyline id="XMLID_21_" class="st13" points="424.3,641.9 424.1,624.5 454.4,624.1 454.6,641.6 					"/>
				</g>
				<g id="XMLID_56_">
					
						<rect id="XMLID_70_" x="424.2" y="624.3" transform="matrix(0.9999 -1.268454e-02 1.268454e-02 0.9999 -7.9941 5.6239)" class="st1" width="30.3" height="17.5"/>
					<polyline id="XMLID_59_" class="st1" points="424.3,641.9 424.1,624.5 454.4,624.1 454.6,641.6 					"/>
				</g>
				<g id="XMLID_22_">
					
						<rect id="XMLID_26_" x="527.8" y="623" transform="matrix(0.9999 -1.268454e-02 1.268454e-02 0.9999 -7.9691 6.9378)" class="st13" width="30.3" height="17.5"/>
					<polyline id="XMLID_25_" class="st13" points="527.9,640.6 527.7,623.1 558,622.8 558.2,640.2 					"/>
				</g>
				<g id="XMLID_80_">
					
						<rect id="XMLID_83_" x="527.8" y="623" transform="matrix(0.9999 -1.268454e-02 1.268454e-02 0.9999 -7.9691 6.9378)" class="st1" width="30.3" height="17.5"/>
					<polyline id="XMLID_81_" class="st1" points="527.9,640.6 527.7,623.1 558,622.8 558.2,640.2 					"/>
				</g>
			</g>
		</g>
	</g>
	<path id="XMLID_11_" class="st14" d="M632.9,459c-78.1,14-233.2,10.9-233.2,10.9"/>
	<path id="XMLID_12_" class="st14" d="M393.5,500c7.3,7.3,213.5,19,247.5,9"/>
	<g id="XMLID_40_">
		<path id="XMLID_37_" class="st21" d="M713,625.2c4.9-20.8,8.4-41.3,15.4-60.9c-31.2,18-49.7,22.1-77.2,26
			c-13.4,1.9-26.7,3.2-39.6,3.8c-12,18.3-22.1,32-93.3,42.1c-57.4,8.2-165.7,8.8-246.1-28.2c20,50.3,58.7,83.1,98.8,91.8h242
			C613.1,663.5,665.9,633,713,625.2z"/>
		<g id="XMLID_141_" class="st22">
			<path id="XMLID_142_" class="st23" d="M302.7,620.1c-10.5-3.4-20.7-7.4-30.5-11.9c0.2,0.5,0.4,1.1,0.7,1.6
				C282.5,613.7,292.5,617.1,302.7,620.1z"/>
			<path id="XMLID_143_" class="st24" d="M714.2,572.1c-4.8,16.2-6.7,27.9-10.7,44.8c-47.1,7.8-101,43.3-101.1,79.8h-242
				c-1.2-0.3-2.4-0.5-3.6-0.9c4.7,1.7,9.5,3.1,14.3,4.2h242c0.1-36.5,52.9-67,100-74.8c4.9-20.8,8.4-41.3,15.4-60.9
				C723.4,567.3,718.7,569.8,714.2,572.1z"/>
		</g>
		<path id="XMLID_54_" class="st25" d="M716.2,610.8C619,633,553.1,637.4,506.4,641c-3.6,0.6,15.9-5.2,11.9-4.6
			c-57.4,8.2-165.7,8.8-246.1-28.2c20,50.3,58.7,83.1,98.8,91.8h242c0.1-36.5,52.9-67,100-74.8C714.1,620.4,715.2,615.6,716.2,610.8
			L716.2,610.8z"/>
		<path id="XMLID_126_" class="st26" d="M376.1,645.6c-50.7-7.6-90-21.9-103.9-37.4c20,50.3,58.7,83.1,98.8,91.8h242
			c0.1-36.5,52.9-67,100-74.8c1.1-4.8,2.2-9.6,3.2-14.4l0,0C619,633,537.8,646.8,491.1,650.3c-37.3,2.4-73.7,0.8-106.1-3.5"/>
		<path id="XMLID_51_" class="st27" d="M529.4,673.9c-87.1,5.6-169.5,3.8-229.2-18.6c20,23.6,45.1,39.1,70.8,44.7h242
			c0-14.3,8.2-27.7,20.9-39.1C601.1,667.1,566,671.5,529.4,673.9z"/>
		<path id="XMLID_138_" class="st26" d="M522.6,674.3c-37.4,2.1-84.1,2.3-117.1,0.8"/>
		<path id="XMLID_139_" class="st26" d="M549.7,672.5c-5.5,0.5-12.9,0.9-18.5,1.3"/>
		<path id="XMLID_106_" class="st26" d="M397.8,674.6c-36.3-2.8-69.5-8.8-97.6-19.3c20,23.6,45.1,39.1,70.8,44.7h242
			c0-14.3,8.2-27.7,20.9-39.1c-24.1,4.6-49.4,8.2-75.7,10.7"/>
		<path id="XMLID_14_" class="st13" d="M713,625.2c4.9-20.8,8.4-41.3,15.4-60.9c-31.2,18-49.7,22.1-77.2,26
			c-13.4,1.9-26.7,3.2-39.6,3.8c-12,18.3-22.1,32-93.3,42.1c-57.4,8.2-165.7,8.8-246.1-28.2c20,50.3,58.7,83.1,98.8,91.8h242
			C613.1,663.5,665.9,633,713,625.2z"/>
	</g>
	<path id="XMLID_53_" class="st7" d="M307.8,594.6h73.5c-9.1-9.1-10.3-22-4.7-30.2c-11.6-6.4-14-25-8.2-30.8c0,0-7.9-2.1-13.7-10.8
		c-9.6-14.3-4.4-31.7-4.4-31.7c-29.3,1.2-36.5-17-36.5-17l-43.8,33.8C269.9,507.9,307.8,542.2,307.8,594.6z"/>
	<path id="XMLID_133_" class="st9" d="M342.9,594.6c0.6-5.2,1-10.5,1-16c0-45.9-23.1-83.5-52.6-87.2l-21.4,16.5
		c0,0,37.9,34.3,37.9,86.7H342.9z"/>
	<g id="XMLID_41_" class="st10">
		<path id="XMLID_72_" class="st11" d="M280.2,500c0,0,47.5,43,48.8,94.6"/>
		<path id="XMLID_77_" class="st11" d="M291.3,491.4c0,0,47.8,32.2,58.9,102.8"/>
		<path id="XMLID_108_" class="st11" d="M302.7,482.6c0,0,54,34.3,65.6,112.1"/>
	</g>
	<path id="XMLID_64_" class="st13" d="M307.8,594.6h73.5c-9.1-9.1-10.3-22-4.7-30.2c-11.6-6.4-14-25-8.2-30.8c0,0-7.9-2.1-13.7-10.8
		c-9.6-14.3-4.4-31.7-4.4-31.7c-29.3,1.2-36.5-17-36.5-17l-43.8,33.8C269.9,507.9,307.8,542.2,307.8,594.6z"/>
	<path id="XMLID_1_" class="st9" d="M698,558.1c6-9.9,9.5-22,9.5-35.1c0-24.4-12.3-45.5-30.1-55.1c-7,7.7-15,15.5-23.2,23.2L653,558
		C668,559.4,683,559.4,698,558.1z"/>
	<g id="XMLID_57_" class="st10">
		<path id="XMLID_122_" class="st11" d="M661.5,484.2c0,0,9.3,54.2,3,74.5"/>
		<path id="XMLID_130_" class="st11" d="M685.9,458c0,0,35.6,33.3,42.5,95"/>
		<path id="XMLID_159_" class="st11" d="M668.7,477.1c0,0,17.2,33.6,17.2,82"/>
		<path id="XMLID_162_" class="st11" d="M677.4,467.9c0,0,25.6,40.9,31.5,89"/>
	</g>
	<path id="XMLID_29_" class="st14" d="M653,558c30.5,2.7,61,0,91.5-8.2c-4.6-7.4-5.5-29.5-1.9-36.4c-8.6-0.6-9-22.8-6.6-33.8
		c-12.3-4.9-20.9-11.1-22.4-19.9c-9.1-1.5-14.7-7.2-17.8-15.8c-9.3,15.8-24.8,31.5-41.6,47.2L653,558z"/>
	<path id="XMLID_33_" class="st14" d="M653.8,501.5c24.1-13.6,43.5-26.2,59.8-41.7"/>
	<line id="XMLID_79_" class="st13" x1="707.5" y1="700" x2="710.2" y2="700"/>
	<line id="XMLID_127_" class="st13" x1="668.7" y1="700" x2="691.3" y2="700"/>
	<line id="XMLID_129_" class="st13" x1="273.5" y1="700" x2="651.2" y2="700"/>
	<line id="XMLID_97_" class="st13" x1="239.9" y1="700" x2="252" y2="700"/>
	<g id="XMLID_5_" class="st28">
		<line id="XMLID_118_" class="st29" x1="592.7" y1="715.5" x2="614.3" y2="715.5"/>
		<line id="XMLID_99_" class="st29" x1="541.4" y1="715.5" x2="578.1" y2="715.5"/>
	</g>
	<g id="XMLID_67_">
		<line id="XMLID_103_" class="st13" x1="488.2" y1="743.5" x2="495.9" y2="743.5"/>
		<line id="XMLID_102_" class="st13" x1="451.7" y1="743.5" x2="475.7" y2="743.5"/>
	</g>
	<path id="XMLID_8_" class="st13" d="M280.8,479.7c0,0,51.6,70.2,38.3,145.3"/>
	<line id="XMLID_121_" class="st14" x1="285.1" y1="526" x2="350.1" y2="491.1"/>
	<line id="XMLID_124_" class="st14" x1="298.4" y1="549.9" x2="368.3" y2="533.7"/>
	<line id="XMLID_125_" class="st14" x1="306.9" y1="573.9" x2="375.7" y2="565.9"/>
	<g id="XMLID_43_" class="st30">
		<line id="XMLID_78_" class="st13" x1="481.4" y1="715.5" x2="484.8" y2="715.5"/>
		<line id="XMLID_74_" class="st13" x1="454.6" y1="715.5" x2="469" y2="715.5"/>
		<line id="XMLID_115_" class="st13" x1="359.6" y1="715.5" x2="439.4" y2="715.5"/>
		<line id="XMLID_32_" class="st13" x1="343.8" y1="715.5" x2="346.9" y2="715.5"/>
	</g>
	<g id="XMLID_3_">
		<line id="XMLID_76_" class="st13" x1="579.1" y1="754.8" x2="651" y2="754.8"/>
		<line id="XMLID_6_" class="st13" x1="554.3" y1="754.8" x2="566.7" y2="754.8"/>
		<line id="XMLID_34_" class="st13" x1="534.5" y1="754.8" x2="539.7" y2="754.8"/>
	</g>
	<g id="XMLID_13_" class="st31">
		<line id="XMLID_4_" class="st13" x1="467.6" y1="769.8" x2="480" y2="769.8"/>
		<line id="XMLID_60_" class="st13" x1="393.9" y1="769.8" x2="455.2" y2="769.8"/>
	</g>
	<g id="XMLID_44_" class="st31">
		<line id="XMLID_66_" class="st13" x1="561.8" y1="808.4" x2="574.2" y2="808.4"/>
		<line id="XMLID_45_" class="st13" x1="520" y1="808.4" x2="549.4" y2="808.4"/>
	</g>
	<g id="XMLID_152_" class="st31">
		<line id="XMLID_161_" class="st13" x1="447.6" y1="808.4" x2="454.3" y2="808.4"/>
		<line id="XMLID_160_" class="st13" x1="421" y1="808.4" x2="437" y2="808.4"/>
	</g>
	<g id="XMLID_128_" class="st32">
		<line id="XMLID_147_" class="st13" x1="482.3" y1="846.9" x2="506.4" y2="846.9"/>
		<line id="XMLID_136_" class="st13" x1="401.3" y1="846.9" x2="458.2" y2="846.9"/>
	</g>
	<g id="XMLID_131_">
		<path id="XMLID_137_" class="st14" d="M685.9,601c8.6-1.3,17.1-4.1,22.9-6.9"/>
		<path id="XMLID_135_" class="st14" d="M621.4,610.8c0,0,29.8-2.2,54.4-7.4"/>
	</g>
	<path id="XMLID_111_" class="st14" d="M653.8,541.8c33.4,0,69.6-11,88.8-28.3"/>
	<path id="XMLID_119_" class="st14" d="M653,524.8c27.9-7.2,55.9-21.7,83-45.2"/>
	<path id="XMLID_62_" class="st13" d="M674.6,462.3c0,0-8.5,71.4-5.1,125.1"/>
</g>
</svg>
