<svg version="1.1" id="Layer_1" x="0" y="0" viewBox="0 0 1000 569" xml:space="preserve" width="1000" height="569" xmlns="http://www.w3.org/2000/svg">
  <style type="text/css" id="style2">
    .st2{fill:#202b52}.st3{fill:#3a4775}.st17,.st6{fill:none;stroke-linecap:round;stroke-linejoin:round;stroke-miterlimit:10}.st6{stroke:#202b52;stroke-width:6}.st17{stroke:#fff;stroke-width:3}.st18{fill:#78d698}.st25{fill:#fdba4f}.st26{fill:#e89d3a}
  </style>
	<g id="g265" transform="translate(-6.77 -206.63)">
    <path id="XMLID_6_" class="st2" d="M348.3 371.6h318v8h-318z"/>
		<path id="XMLID_9_" class="st3" d="M348.3 363.6h318v8h-318z"/>
		<path id="XMLID_47_" class="st2" d="M348.3 450.1h318v8h-318z"/>
		<path id="XMLID_15_" class="st3" d="M348.3 442.1h318v8h-318z"/>
		<path id="XMLID_97_" class="st2" d="M348.3 531.7h318v8h-318z"/>
		<path id="XMLID_55_" class="st3" d="M348.3 523.7h318v8h-318z"/>
		<path id="XMLID_110_" class="st2" d="M348.3 625.6h318v8h-318z"/>
		<path id="XMLID_18_" class="st3" d="M348.3 617.6h318v8h-318z"/>
		<circle id="XMLID_21_" cx="410" cy="371.6" r="27" style="fill:#3bceff"/>
		<path id="XMLID_74_" d="M415 390.6c-14.9 0-27-12.1-27-27 0-3.6.7-7 2-10.1-4.3 4.8-7 11.1-7 18.1 0 14.9 12.1 27 27 27 11.3 0 21-7 25-16.9-4.9 5.5-12 8.9-20 8.9z" style="fill:#2fafdc"/>
		<circle id="XMLID_8_" class="st6" cx="410" cy="371.6" r="27"/>
		<circle id="XMLID_23_" cx="475" cy="371.6" r="27" style="fill:#12b0ff"/>
		<path id="XMLID_71_" d="M480 390.6c-14.9 0-27-12.1-27-27 0-3.6.7-7 2-10.1-4.3 4.8-7 11.1-7 18.1 0 14.9 12.1 27 27 27 11.3 0 21-7 25-16.9-4.9 5.5-12 8.9-20 8.9z" style="fill:#129be5"/>
		<circle id="XMLID_10_" class="st6" cx="475" cy="371.6" r="27"/>
		<circle id="XMLID_24_" cx="539" cy="371.6" r="27" style="fill:#5392ff"/>
		<path id="XMLID_61_" d="M544 390.6c-14.9 0-27-12.1-27-27 0-3.6.7-7 2-10.1-4.3 4.8-7 11.1-7 18.1 0 14.9 12.1 27 27 27 11.3 0 21-7 25-16.9-4.9 5.5-12 8.9-20 8.9z" style="fill:#487fdf"/>
		<circle id="XMLID_11_" class="st6" cx="539" cy="371.6" r="27"/>
		<circle id="XMLID_25_" cx="507.3" cy="450.1" r="27" style="fill:#f8d96b"/>
		<path id="XMLID_87_" d="M513.3 470.1c-14.9 0-27-12.1-27-27 0-5 1.4-9.8 3.8-13.8-6 5-9.8 12.4-9.8 20.8 0 14.9 12.1 27 27 27 9.9 0 18.5-5.3 23.2-13.2-4.6 3.9-10.6 6.2-17.2 6.2z" style="fill:#f2b955"/>
		<circle id="XMLID_16_" class="st6" cx="507.3" cy="450.1" r="27"/>
		<circle id="XMLID_26_" cx="608.1" cy="450.1" r="27" style="fill:#fc3a4d"/>
		<path id="XMLID_84_" d="M614.1 470.1c-14.9 0-27-12.1-27-27 0-5 1.4-9.8 3.8-13.8-6 5-9.8 12.4-9.8 20.8 0 14.9 12.1 27 27 27 9.9 0 18.5-5.3 23.2-13.2-4.7 3.9-10.7 6.2-17.2 6.2z" style="fill:#e82e4a"/>
		<circle id="XMLID_12_" class="st6" cx="608.1" cy="450.1" r="27"/>
		<circle id="XMLID_28_" cx="410" cy="531.7" r="27" style="fill:#87d14b"/>
		<path id="XMLID_101_" d="M416 551.7c-14.9 0-27-12.1-27-27 0-5 1.4-9.8 3.8-13.8-6 5-9.8 12.4-9.8 20.8 0 14.9 12.1 27 27 27 9.9 0 18.5-5.3 23.2-13.2-4.7 3.8-10.7 6.2-17.2 6.2z" style="fill:#79ba3a"/>
		<path id="XMLID_113_" class="st17" d="M427 531.7c0-9.4-7.6-17-17-17"/>
		<circle id="XMLID_17_" class="st6" cx="410" cy="531.7" r="27"/>
		<circle id="XMLID_30_" class="st18" cx="480.3" cy="531.7" r="27"/>
		<circle id="XMLID_89_" class="st18" cx="480.3" cy="531.7" r="27"/>
		<path id="XMLID_98_" d="M486.3 551.7c-14.9 0-27-12.1-27-27 0-5 1.4-9.8 3.8-13.8-6 5-9.8 12.4-9.8 20.8 0 14.9 12.1 27 27 27 9.9 0 18.5-5.3 23.2-13.2-4.6 3.8-10.6 6.2-17.2 6.2z" style="fill:#5bc47b"/>
		<path id="XMLID_67_" class="st17" d="M497.3 531.7c0-9.4-7.6-17-17-17"/>
		<circle id="XMLID_13_" class="st6" cx="480.3" cy="531.7" r="27"/>
		<circle id="XMLID_32_" cx="451.3" cy="625.6" r="27" style="fill:#e17555"/>
		<path id="XMLID_116_" d="M457.3 645.6c-14.9 0-27-12.1-27-27 0-5 1.4-9.8 3.8-13.8-6 5-9.8 12.4-9.8 20.8 0 14.9 12.1 27 27 27 9.9 0 18.5-5.3 23.2-13.2-4.6 3.9-10.6 6.2-17.2 6.2z" style="fill:#e45e5b"/>
		<path id="XMLID_122_" class="st17" d="M468.3 625.6c0-9.4-7.6-17-17-17"/>
		<circle id="XMLID_20_" class="st6" cx="451.3" cy="625.6" r="27"/>
		<circle id="XMLID_34_" cx="512.7" cy="625.6" r="27" style="fill:#9e3b53"/>
		<path id="XMLID_96_" d="M518.7 645.6c-14.9 0-27-12.1-27-27 0-5 1.4-9.8 3.8-13.8-6 5-9.8 12.4-9.8 20.8 0 14.9 12.1 27 27 27 9.9 0 18.5-5.3 23.2-13.2-4.7 3.9-10.7 6.2-17.2 6.2z" style="fill:#883042"/>
		<path id="XMLID_49_" class="st17" d="M529.7 625.6c0-9.4-7.6-17-17-17"/>
		<circle id="XMLID_19_" class="st6" cx="512.7" cy="625.6" r="27"/>
		<circle id="XMLID_37_" cx="623.5" cy="625.6" r="27" style="fill:#53325a"/>
		<path id="XMLID_60_" d="M629.5 645.6c-14.9 0-27-12.1-27-27 0-5 1.4-9.8 3.8-13.8-6 5-9.8 12.4-9.8 20.8 0 14.9 12.1 27 27 27 9.9 0 18.5-5.3 23.2-13.2-4.7 3.9-10.7 6.2-17.2 6.2z" style="fill:#4a2d51"/>
		<path id="XMLID_35_" class="st17" d="M640.5 625.6c0-9.4-7.6-17-17-17"/>
		<circle id="XMLID_22_" class="st6" cx="623.5" cy="625.6" r="27"/>
		<path id="XMLID_42_" class="st25" d="M331.3 682.9c-9.9 0-18-8.1-18-18V335.1c0-9.9 8.1-18 18-18s18 8.1 18 18v329.8c0 9.9-8 18-18 18z"/>
		<path id="XMLID_65_" class="st26" d="M328.3 664.9V335.1c0-7.3 4.3-13.5 10.5-16.3-2.3-1.1-4.8-1.7-7.5-1.7-9.9 0-18 8.1-18 18v329.8c0 9.9 8.1 18 18 18 2.7 0 5.2-.6 7.5-1.7-6.2-2.8-10.5-9-10.5-16.3z"/>
		<path id="XMLID_40_" class="st25" d="M683.3 682.9c-9.9 0-18-8.1-18-18V335.1c0-9.9 8.1-18 18-18s18 8.1 18 18v329.8c0 9.9-8 18-18 18z"/>
		<path id="XMLID_66_" class="st26" d="M680.3 664.9V335.1c0-7.3 4.3-13.5 10.5-16.3-2.3-1.1-4.8-1.7-7.5-1.7-9.9 0-18 8.1-18 18v329.8c0 9.9 8.1 18 18 18 2.7 0 5.2-.6 7.5-1.7-6.2-2.8-10.5-9-10.5-16.3z"/>
		<path id="XMLID_1_" class="st6" d="M331.3 682.9v0c-9.9 0-18-8.1-18-18V335.1c0-9.9 8.1-18 18-18v0c9.9 0 18 8.1 18 18v329.8c0 9.9-8 18-18 18z"/>
		<path id="XMLID_7_" class="st6" d="M683.3 682.9v0c-9.9 0-18-8.1-18-18V335.1c0-9.9 8.1-18 18-18v0c9.9 0 18 8.1 18 18v329.8c0 9.9-8 18-18 18z"/>
		<path id="XMLID_111_" class="st17" d="M427 371.6c0-9.4-7.6-17-17-17"/>
		<path id="XMLID_69_" class="st17" d="M492 371.6c0-9.4-7.6-17-17-17"/>
		<path id="XMLID_39_" class="st17" d="M556 371.6c0-9.4-7.6-17-17-17"/>
		<path id="XMLID_115_" class="st17" d="M524.3 450.1c0-9.4-7.6-17-17-17"/>
		<path id="XMLID_36_" class="st17" d="M625.1 450.1c0-9.4-7.6-17-17-17"/>
  </g>
</svg>
