<?xml version="1.0" encoding="UTF-8" standalone="no"?>
<!-- Generator: Adobe Illustrator 23.1.1, SVG Export Plug-In . SVG Version: 6.00 Build 0)  -->

<svg
   version="1.1"
   id="Layer_1"
   x="0px"
   y="0px"
   viewBox="0 0 1000 569"
   xml:space="preserve"
   sodipodi:docname="abacus.svg"
   width="1000"
   height="569"
   inkscape:version="1.1.1 (eb90963e84, 2021-10-02)"
   xmlns:inkscape="http://www.inkscape.org/namespaces/inkscape"
   xmlns:sodipodi="http://sodipodi.sourceforge.net/DTD/sodipodi-0.dtd"
   xmlns="http://www.w3.org/2000/svg"
   xmlns:svg="http://www.w3.org/2000/svg"><defs
   id="defs270" /><sodipodi:namedview
   id="namedview268"
   pagecolor="#ffffff"
   bordercolor="#666666"
   borderopacity="1.0"
   inkscape:pageshadow="2"
   inkscape:pageopacity="0.0"
   inkscape:pagecheckerboard="0"
   showgrid="false"
   inkscape:zoom="0.4365"
   inkscape:cx="857.96105"
   inkscape:cy="289.80527"
   inkscape:window-width="1952"
   inkscape:window-height="1082"
   inkscape:window-x="26"
   inkscape:window-y="23"
   inkscape:window-maximized="0"
   inkscape:current-layer="Layer_1" />
<style
   type="text/css"
   id="style2">
	.st0{fill:#FAE791;}
	.st1{fill:#53325A;}
	.st2{fill:#202B52;}
	.st3{fill:#3A4775;}
	.st4{fill:#3BCEFF;}
	.st5{fill:#2FAFDC;}
	.st6{fill:none;stroke:#202B52;stroke-width:6;stroke-linecap:round;stroke-linejoin:round;stroke-miterlimit:10;}
	.st7{fill:#12B0FF;}
	.st8{fill:#129BE5;}
	.st9{fill:#5392FF;}
	.st10{fill:#487FDF;}
	.st11{fill:#F8D96B;}
	.st12{fill:#F2B955;}
	.st13{fill:#FC3A4D;}
	.st14{fill:#E82E4A;}
	.st15{fill:#87D14B;}
	.st16{fill:#79BA3A;}
	.st17{fill:none;stroke:#FFFFFF;stroke-width:3;stroke-linecap:round;stroke-linejoin:round;stroke-miterlimit:10;}
	.st18{fill:#78D698;}
	.st19{fill:#5BC47B;}
	.st20{fill:#E17555;}
	.st21{fill:#E45E5B;}
	.st22{fill:#9E3B53;}
	.st23{fill:#883042;}
	.st24{fill:#4A2D51;}
	.st25{fill:#FDBA4F;}
	.st26{fill:#E89D3A;}
</style>


<g
   id="g265"
   transform="translate(-6.7700458,-206.6293)">
	<rect
   id="XMLID_6_"
   x="348.29999"
   y="371.60001"
   class="st2"
   width="318"
   height="8" />
	<rect
   id="XMLID_9_"
   x="348.29999"
   y="363.60001"
   class="st3"
   width="318"
   height="8" />
	<rect
   id="XMLID_47_"
   x="348.29999"
   y="450.10001"
   class="st2"
   width="318"
   height="8" />
	<rect
   id="XMLID_15_"
   x="348.29999"
   y="442.10001"
   class="st3"
   width="318"
   height="8" />
	<rect
   id="XMLID_97_"
   x="348.29999"
   y="531.70001"
   class="st2"
   width="318"
   height="8" />
	<rect
   id="XMLID_55_"
   x="348.29999"
   y="523.70001"
   class="st3"
   width="318"
   height="8" />
	<rect
   id="XMLID_110_"
   x="348.29999"
   y="625.59998"
   class="st2"
   width="318"
   height="8" />
	<rect
   id="XMLID_18_"
   x="348.29999"
   y="617.59998"
   class="st3"
   width="318"
   height="8" />
	<circle
   id="XMLID_21_"
   class="st4"
   cx="410"
   cy="371.60001"
   r="27" />
	<path
   id="XMLID_74_"
   class="st5"
   d="m 415,390.6 c -14.9,0 -27,-12.1 -27,-27 0,-3.6 0.7,-7 2,-10.1 -4.3,4.8 -7,11.1 -7,18.1 0,14.9 12.1,27 27,27 11.3,0 21,-7 25,-16.9 -4.9,5.5 -12,8.9 -20,8.9 z" />
	<circle
   id="XMLID_8_"
   class="st6"
   cx="410"
   cy="371.60001"
   r="27" />
	<circle
   id="XMLID_23_"
   class="st7"
   cx="475"
   cy="371.60001"
   r="27" />
	<path
   id="XMLID_71_"
   class="st8"
   d="m 480,390.6 c -14.9,0 -27,-12.1 -27,-27 0,-3.6 0.7,-7 2,-10.1 -4.3,4.8 -7,11.1 -7,18.1 0,14.9 12.1,27 27,27 11.3,0 21,-7 25,-16.9 -4.9,5.5 -12,8.9 -20,8.9 z" />
	<circle
   id="XMLID_10_"
   class="st6"
   cx="475"
   cy="371.60001"
   r="27" />
	<circle
   id="XMLID_24_"
   class="st9"
   cx="539"
   cy="371.60001"
   r="27" />
	<path
   id="XMLID_61_"
   class="st10"
   d="m 544,390.6 c -14.9,0 -27,-12.1 -27,-27 0,-3.6 0.7,-7 2,-10.1 -4.3,4.8 -7,11.1 -7,18.1 0,14.9 12.1,27 27,27 11.3,0 21,-7 25,-16.9 -4.9,5.5 -12,8.9 -20,8.9 z" />
	<circle
   id="XMLID_11_"
   class="st6"
   cx="539"
   cy="371.60001"
   r="27" />
	<circle
   id="XMLID_25_"
   class="st11"
   cx="507.29999"
   cy="450.10001"
   r="27" />
	<path
   id="XMLID_87_"
   class="st12"
   d="m 513.3,470.1 c -14.9,0 -27,-12.1 -27,-27 0,-5 1.4,-9.8 3.8,-13.8 -6,5 -9.8,12.4 -9.8,20.8 0,14.9 12.1,27 27,27 9.9,0 18.5,-5.3 23.2,-13.2 -4.6,3.9 -10.6,6.2 -17.2,6.2 z" />
	<circle
   id="XMLID_16_"
   class="st6"
   cx="507.29999"
   cy="450.10001"
   r="27" />
	<circle
   id="XMLID_26_"
   class="st13"
   cx="608.09998"
   cy="450.10001"
   r="27" />
	<path
   id="XMLID_84_"
   class="st14"
   d="m 614.1,470.1 c -14.9,0 -27,-12.1 -27,-27 0,-5 1.4,-9.8 3.8,-13.8 -6,5 -9.8,12.4 -9.8,20.8 0,14.9 12.1,27 27,27 9.9,0 18.5,-5.3 23.2,-13.2 -4.7,3.9 -10.7,6.2 -17.2,6.2 z" />
	<circle
   id="XMLID_12_"
   class="st6"
   cx="608.09998"
   cy="450.10001"
   r="27" />
	<circle
   id="XMLID_28_"
   class="st15"
   cx="410"
   cy="531.70001"
   r="27" />
	<path
   id="XMLID_101_"
   class="st16"
   d="m 416,551.7 c -14.9,0 -27,-12.1 -27,-27 0,-5 1.4,-9.8 3.8,-13.8 -6,5 -9.8,12.4 -9.8,20.8 0,14.9 12.1,27 27,27 9.9,0 18.5,-5.3 23.2,-13.2 -4.7,3.8 -10.7,6.2 -17.2,6.2 z" />
	<path
   id="XMLID_113_"
   class="st17"
   d="m 427,531.7 c 0,-9.4 -7.6,-17 -17,-17" />
	<circle
   id="XMLID_17_"
   class="st6"
   cx="410"
   cy="531.70001"
   r="27" />
	<circle
   id="XMLID_30_"
   class="st18"
   cx="480.29999"
   cy="531.70001"
   r="27" />
	<circle
   id="XMLID_89_"
   class="st18"
   cx="480.29999"
   cy="531.70001"
   r="27" />
	<path
   id="XMLID_98_"
   class="st19"
   d="m 486.3,551.7 c -14.9,0 -27,-12.1 -27,-27 0,-5 1.4,-9.8 3.8,-13.8 -6,5 -9.8,12.4 -9.8,20.8 0,14.9 12.1,27 27,27 9.9,0 18.5,-5.3 23.2,-13.2 -4.6,3.8 -10.6,6.2 -17.2,6.2 z" />
	<path
   id="XMLID_67_"
   class="st17"
   d="m 497.3,531.7 c 0,-9.4 -7.6,-17 -17,-17" />
	<circle
   id="XMLID_13_"
   class="st6"
   cx="480.29999"
   cy="531.70001"
   r="27" />
	<circle
   id="XMLID_32_"
   class="st20"
   cx="451.29999"
   cy="625.59998"
   r="27" />
	<path
   id="XMLID_116_"
   class="st21"
   d="m 457.3,645.6 c -14.9,0 -27,-12.1 -27,-27 0,-5 1.4,-9.8 3.8,-13.8 -6,5 -9.8,12.4 -9.8,20.8 0,14.9 12.1,27 27,27 9.9,0 18.5,-5.3 23.2,-13.2 -4.6,3.9 -10.6,6.2 -17.2,6.2 z" />
	<path
   id="XMLID_122_"
   class="st17"
   d="m 468.3,625.6 c 0,-9.4 -7.6,-17 -17,-17" />
	<circle
   id="XMLID_20_"
   class="st6"
   cx="451.29999"
   cy="625.59998"
   r="27" />
	<circle
   id="XMLID_34_"
   class="st22"
   cx="512.70001"
   cy="625.59998"
   r="27" />
	<path
   id="XMLID_96_"
   class="st23"
   d="m 518.7,645.6 c -14.9,0 -27,-12.1 -27,-27 0,-5 1.4,-9.8 3.8,-13.8 -6,5 -9.8,12.4 -9.8,20.8 0,14.9 12.1,27 27,27 9.9,0 18.5,-5.3 23.2,-13.2 -4.7,3.9 -10.7,6.2 -17.2,6.2 z" />
	<path
   id="XMLID_49_"
   class="st17"
   d="m 529.7,625.6 c 0,-9.4 -7.6,-17 -17,-17" />
	<circle
   id="XMLID_19_"
   class="st6"
   cx="512.70001"
   cy="625.59998"
   r="27" />
	<circle
   id="XMLID_37_"
   class="st1"
   cx="623.5"
   cy="625.59998"
   r="27" />
	<path
   id="XMLID_60_"
   class="st24"
   d="m 629.5,645.6 c -14.9,0 -27,-12.1 -27,-27 0,-5 1.4,-9.8 3.8,-13.8 -6,5 -9.8,12.4 -9.8,20.8 0,14.9 12.1,27 27,27 9.9,0 18.5,-5.3 23.2,-13.2 -4.7,3.9 -10.7,6.2 -17.2,6.2 z" />
	<path
   id="XMLID_35_"
   class="st17"
   d="m 640.5,625.6 c 0,-9.4 -7.6,-17 -17,-17" />
	<circle
   id="XMLID_22_"
   class="st6"
   cx="623.5"
   cy="625.59998"
   r="27" />
	<path
   id="XMLID_42_"
   class="st25"
   d="m 331.3,682.9 v 0 c -9.9,0 -18,-8.1 -18,-18 V 335.1 c 0,-9.9 8.1,-18 18,-18 v 0 c 9.9,0 18,8.1 18,18 v 329.8 c 0,9.9 -8,18 -18,18 z" />
	<path
   id="XMLID_65_"
   class="st26"
   d="M 328.3,664.9 V 335.1 c 0,-7.3 4.3,-13.5 10.5,-16.3 -2.3,-1.1 -4.8,-1.7 -7.5,-1.7 -9.9,0 -18,8.1 -18,18 v 329.8 c 0,9.9 8.1,18 18,18 2.7,0 5.2,-0.6 7.5,-1.7 -6.2,-2.8 -10.5,-9 -10.5,-16.3 z" />
	<path
   id="XMLID_40_"
   class="st25"
   d="m 683.3,682.9 v 0 c -9.9,0 -18,-8.1 -18,-18 V 335.1 c 0,-9.9 8.1,-18 18,-18 v 0 c 9.9,0 18,8.1 18,18 v 329.8 c 0,9.9 -8,18 -18,18 z" />
	<path
   id="XMLID_66_"
   class="st26"
   d="M 680.3,664.9 V 335.1 c 0,-7.3 4.3,-13.5 10.5,-16.3 -2.3,-1.1 -4.8,-1.7 -7.5,-1.7 -9.9,0 -18,8.1 -18,18 v 329.8 c 0,9.9 8.1,18 18,18 2.7,0 5.2,-0.6 7.5,-1.7 -6.2,-2.8 -10.5,-9 -10.5,-16.3 z" />
	<path
   id="XMLID_1_"
   class="st6"
   d="m 331.3,682.9 v 0 c -9.9,0 -18,-8.1 -18,-18 V 335.1 c 0,-9.9 8.1,-18 18,-18 v 0 c 9.9,0 18,8.1 18,18 v 329.8 c 0,9.9 -8,18 -18,18 z" />
	<path
   id="XMLID_7_"
   class="st6"
   d="m 683.3,682.9 v 0 c -9.9,0 -18,-8.1 -18,-18 V 335.1 c 0,-9.9 8.1,-18 18,-18 v 0 c 9.9,0 18,8.1 18,18 v 329.8 c 0,9.9 -8,18 -18,18 z" />
	<path
   id="XMLID_111_"
   class="st17"
   d="m 427,371.6 c 0,-9.4 -7.6,-17 -17,-17" />
	<path
   id="XMLID_69_"
   class="st17"
   d="m 492,371.6 c 0,-9.4 -7.6,-17 -17,-17" />
	<path
   id="XMLID_39_"
   class="st17"
   d="m 556,371.6 c 0,-9.4 -7.6,-17 -17,-17" />
	<path
   id="XMLID_38_"
   class="st17"
   d="M 539,352.6" />
	<path
   id="XMLID_115_"
   class="st17"
   d="m 524.3,450.1 c 0,-9.4 -7.6,-17 -17,-17" />
	<path
   id="XMLID_36_"
   class="st17"
   d="m 625.1,450.1 c 0,-9.4 -7.6,-17 -17,-17" />
</g>
</svg>
