<svg viewBox="0 0 1001 1003" xmlns="http://www.w3.org/2000/svg">
	<g style="opacity:.39;isolation:isolate">
		<circle cx="178.133" cy="460.724" r="20.388" style="fill:#fff"/>
		<circle cx="178.133" cy="460.724" r="8.738" style="fill:#fff"/>
		<path d="m209.378 430.976-12.612 7.282.019.032a29.053 29.053 0 0 0-2.907-2.232l.034.01L197.681 422a4.37 4.37 0 0 0-3.089-5.351l-9.847-2.638a4.369 4.369 0 0 0-5.35 3.089l-3.769 14.067h.021a29.07 29.07 0 0 0-3.6.474l.016-.01-7.281-12.611a4.368 4.368 0 0 0-5.968-1.6l-8.828 5.1a4.367 4.367 0 0 0-1.6 5.967l7.281 12.612.016-.009a29.1 29.1 0 0 0-2.212 2.884l.006-.02-14.067-3.77a4.369 4.369 0 0 0-5.35 3.09l-2.639 9.846a4.37 4.37 0 0 0 3.09 5.351l14.066 3.769.009-.034a28.96 28.96 0 0 0 .479 3.633l-.018-.032-12.612 7.281a4.37 4.37 0 0 0-1.6 5.968l5.1 8.828a4.368 4.368 0 0 0 5.968 1.6l12.611-7.281-.028-.048a29.064 29.064 0 0 0 2.944 2.255l-.061-.016-3.769 14.066a4.369 4.369 0 0 0 3.089 5.351l9.847 2.638a4.369 4.369 0 0 0 5.35-3.089l3.769-14.067-.074-.02a28.663 28.663 0 0 0 3.706-.487l-.065.038 7.282 12.611a4.368 4.368 0 0 0 5.968 1.6l8.828-5.1a4.369 4.369 0 0 0 1.6-5.967l-7.281-12.612-.065.037a28.875 28.875 0 0 0 2.275-2.966l-.02.074 14.066 3.77a4.369 4.369 0 0 0 5.351-3.09l2.638-9.846a4.368 4.368 0 0 0-3.089-5.351L206.7 458.22l-.017.061a28.938 28.938 0 0 0-.481-3.677l.028.049 12.612-7.281a4.37 4.37 0 0 0 1.6-5.968l-5.1-8.828a4.369 4.369 0 0 0-5.964-1.6z" transform="translate(.5 .5)" style="fill:#fff"/>
	</g>
	<circle cx="302.744" cy="222.858" r="51.548" style="opacity:.39;isolation:isolate;fill:#fff"/>
	<path style="isolation:isolate;fill:none;stroke:#1e223b;stroke-width:2px;stroke-linecap:round;stroke-linejoin:round" d="m329.797 237.509-27.847 16.183.086-30.274 27.847-16.182zm.086-30.273-27.847 16.182-26.346-15.21 27.847-16.183z"/>
	<path style="isolation:isolate;fill:#028b9e;stroke:#1e223b;stroke-width:2px;stroke-linecap:round;stroke-linejoin:round" d="m329.883 207.236-27.847 16.182-26.346-15.21 27.847-16.183z"/>
	<path style="opacity:.4;isolation:isolate;fill:#028b9e;stroke:#1e223b;stroke-width:2px;stroke-linecap:round;stroke-linejoin:round" d="m275.604 238.481.086-30.273 26.346 15.21-.086 30.274z"/>
	<path style="isolation:isolate;fill:none;stroke:#1e223b;stroke-width:2px;stroke-linecap:round;stroke-linejoin:round" d="m275.604 238.481.086-30.273 26.346 15.21-.086 30.274z"/>
	<circle cx="302.744" cy="222.858" r="51.548" style="isolation:isolate;fill:none;stroke:#1e223b;stroke-width:2px;stroke-linecap:round;stroke-linejoin:round"/>
	<rect x="361.5" y="623.737" width="318" height="238" rx="18" style="opacity:.11;isolation:isolate;mix-blend-mode:multiply;fill:#161616;stroke:#1e223b;stroke-miterlimit:10"/>
	<rect x="361.5" y="609.737" width="318" height="14" rx="7" style="opacity:.11;isolation:isolate;mix-blend-mode:multiply;fill:#161616;stroke:#1e223b;stroke-miterlimit:10"/>
	<rect x="351.5" y="615.737" width="318" height="238" rx="18" style="isolation:isolate;fill:#2f4584"/>
	<rect x="351.5" y="615.737" width="318" height="232" rx="18" style="isolation:isolate;fill:#fff"/>
	<path d="M558 833.566h-1.5a6 6 0 0 0-6 6v7.172a3 3 0 0 1-6 0v-7.172a6 6 0 0 0-6-6H537a6 6 0 0 0-6 6v7.172a3 3 0 0 1-6 0v-7.172a6 6 0 0 0-6-6h-1.5a6 6 0 0 0-6 6v7.172a3 3 0 0 1-6 0v-45a6 6 0 0 0-6-6H498a6 6 0 0 0-6 6v78.433l-11.508-19.933a6 6 0 0 0-8.2-2.2l-1.3.75a6 6 0 0 0-2.2 8.2l24.044 41.645a12 12 0 0 0 11.156 7.6h2v24.653h-3.949v24.866h-1.933a6.486 6.486 0 0 0-6.486 6.486v30.262h68.757v-30.262a6.486 6.486 0 0 0-6.486-6.486h-1.943v-24.866H550v-24.653h2a12 12 0 0 0 12-12v-64.667a6 6 0 0 0-6-6z" style="opacity:.11;isolation:isolate;mix-blend-mode:multiply;fill:#161616;stroke:#1e223b;stroke-miterlimit:10"/>
	<path d="M443.064 829.737a12 12 0 0 0 11.947-10.93l22.121-38.315a6 6 0 0 0-2.2-8.2l-1.3-.75a6 6 0 0 0-8.2 2.2l-10.375 17.971v-76.472a6 6 0 0 0-6-6h-1.5a6 6 0 0 0-6 6v45a3 3 0 0 1-6 0v-53.694a6 6 0 0 0-6-6h-1.5a6 6 0 0 0-6 6v53.695a3 3 0 0 1-6 0v-45a6 6 0 0 0-6-6h-1.5a6 6 0 0 0-6 6v45a3 3 0 0 1-6 0v-30.75a6 6 0 0 0-6-6h-1.5a6 6 0 0 0-6 6v88.245a12 12 0 0 0 12 12h2.58v24.653h-4.529v24.865h-1.943a6.487 6.487 0 0 0-6.487 6.487V1002.5h68.758V885.742a6.487 6.487 0 0 0-6.487-6.487h-1.943V854.39h-3.369v-24.653z" style="opacity:.11;isolation:isolate;mix-blend-mode:multiply;fill:#161616;stroke:#1e223b;stroke-miterlimit:10"/>
	<rect x="366" y="633.237" width="289" height="121" rx="4" style="opacity:.15;isolation:isolate;fill:#1e223b;stroke:#1e223b;stroke-width:2px;stroke-miterlimit:11"/>
	<rect x="351.5" y="615.737" width="318" height="232" rx="18" style="isolation:isolate;fill:none;stroke:#1e223b;stroke-width:2px;stroke-linecap:round;stroke-linejoin:round"/>
	<rect x="351.5" y="615.737" width="318" height="238" rx="18" style="isolation:isolate;fill:none;stroke:#1e223b;stroke-width:2px;stroke-linecap:round;stroke-linejoin:round"/>
	<rect x="351.5" y="383.737" width="318" height="232" rx="18" style="isolation:isolate;fill:#2f4584"/>
	<rect x="351.5" y="383.737" width="318" height="232" rx="18" style="isolation:isolate;fill:none;stroke:#1e223b;stroke-width:2px;stroke-linecap:round;stroke-linejoin:round"/>
	<rect x="389.737" y="-663.501" width="220" height="306" rx="12" transform="rotate(90)" style="isolation:isolate;fill:#fff"/>
	<path transform="rotate(90)" style="isolation:isolate;fill:#ff5855;stroke:#1e223b;stroke-miterlimit:10" d="M413.737-639.501h172v258h-172z"/>
	<rect x="389.737" y="-663.501" width="220" height="306" rx="12" transform="rotate(90)" style="isolation:isolate;fill:none;stroke:#1e223b;stroke-width:2px;stroke-linecap:round;stroke-linejoin:round"/>
	<path transform="rotate(90)" style="isolation:isolate;fill:none;stroke:#1e223b;stroke-width:2px;stroke-linecap:round;stroke-linejoin:round" d="M413.737-639.501h172v258h-172z"/>
	<g style="opacity:.1;isolation:isolate">
		<rect x="467.5" y="763.737" width="86" height="60" rx="4.25" style="fill:#1e223b"/>
	</g>
	<rect x="467.5" y="763.737" width="86" height="60" rx="4.25" style="isolation:isolate;fill:none;stroke:#1e223b;stroke-width:2px;stroke-linecap:round;stroke-linejoin:round"/>
	<path style="isolation:isolate;fill:#263c72" d="M473 845.737h76v8h-76z"/>
	<path style="isolation:isolate;fill:none;stroke:#1e223b;stroke-width:2px;stroke-linecap:round;stroke-linejoin:round" d="M473 845.737h76v8h-76z"/>
	<rect x="417.5" y="359.737" width="200" height="224" rx="6" style="opacity:.11;isolation:isolate;mix-blend-mode:multiply;fill:#161616;stroke:#1e223b;stroke-miterlimit:10"/>
	<rect x="412" y="355.737" width="200" height="224" rx="6" style="isolation:isolate;fill:#fff"/>
	<path d="M412 545.737h200v28a6 6 0 0 1-6 6H418a6 6 0 0 1-6-6z" style="isolation:isolate;fill:#efefef"/>
	<rect x="412" y="355.737" width="200" height="224" rx="6" style="isolation:isolate;fill:none;stroke:#1e223b;stroke-width:2px;stroke-linecap:round;stroke-linejoin:round"/>
	<path d="M417.427 355.737h189.146a5.427 5.427 0 0 1 5.427 5.428v12.573H412v-12.573a5.427 5.427 0 0 1 5.427-5.428z" style="isolation:isolate;fill:#363d56"/>
	<path d="M417.427 355.737h189.146a5.427 5.427 0 0 1 5.427 5.428v12.573H412v-12.573a5.427 5.427 0 0 1 5.427-5.428z" style="isolation:isolate;fill:none;stroke:#1e223b;stroke-width:2px;stroke-linecap:round;stroke-linejoin:round"/>
	<path style="isolation:isolate;fill:#424960" d="M412 373.737h200v8H412z"/>
	<path style="isolation:isolate;fill:none;stroke:#1e223b;stroke-width:2px;stroke-linecap:round;stroke-linejoin:round" d="M412 373.737h200v8H412z"/>
	<circle cx="423.167" cy="364.737" r="3" style="isolation:isolate;fill:#f73e39"/>
	<circle cx="423.167" cy="364.737" r="3" style="isolation:isolate;fill:none;stroke:#1e223b;stroke-width:2px;stroke-linecap:round;stroke-linejoin:round"/>
	<circle cx="435.435" cy="364.737" r="3" style="isolation:isolate;fill:#383838"/>
	<circle cx="435.435" cy="364.737" r="3" style="isolation:isolate;fill:none;stroke:#1e223b;stroke-width:2px;stroke-linecap:round;stroke-linejoin:round"/>
	<circle cx="446.662" cy="364.737" r="3" style="isolation:isolate;fill:#c6c6c6"/>
	<circle cx="446.662" cy="364.737" r="3" style="isolation:isolate;fill:none;stroke:#1e223b;stroke-width:2px;stroke-linecap:round;stroke-linejoin:round"/>
	<rect x="460.5" y="361.737" width="68" height="6" rx="3" style="opacity:.28;isolation:isolate;fill:#8289a3"/>
	<circle cx="178.133" cy="460.724" r="20.388" style="isolation:isolate;fill:none;stroke:#1e223b;stroke-width:2px;stroke-linecap:round;stroke-linejoin:round"/>
	<circle cx="178.133" cy="460.724" r="8.738" style="isolation:isolate;fill:none;stroke:#1e223b;stroke-width:2px;stroke-linecap:round;stroke-linejoin:round"/>
	<path d="m209.878 431.476-12.612 7.282.019.032a29.053 29.053 0 0 0-2.907-2.232l.034.01 3.769-14.068a4.37 4.37 0 0 0-3.089-5.351l-9.847-2.638a4.369 4.369 0 0 0-5.35 3.089l-3.769 14.067h.021a29.07 29.07 0 0 0-3.6.474l.016-.01-7.281-12.611a4.368 4.368 0 0 0-5.968-1.6l-8.828 5.1a4.367 4.367 0 0 0-1.6 5.967l7.281 12.612.016-.009a29.1 29.1 0 0 0-2.212 2.884l.006-.02-14.067-3.77a4.369 4.369 0 0 0-5.35 3.09l-2.639 9.846a4.37 4.37 0 0 0 3.09 5.351l14.066 3.769.009-.034a28.96 28.96 0 0 0 .479 3.633l-.018-.032-12.612 7.281a4.37 4.37 0 0 0-1.6 5.968l5.1 8.828a4.368 4.368 0 0 0 5.968 1.6l12.611-7.281-.028-.048a29.064 29.064 0 0 0 2.944 2.255l-.061-.016-3.769 14.066a4.369 4.369 0 0 0 3.089 5.351l9.847 2.638a4.369 4.369 0 0 0 5.35-3.089l3.769-14.067-.074-.02a28.663 28.663 0 0 0 3.706-.487l-.065.038 7.282 12.611a4.368 4.368 0 0 0 5.968 1.6l8.828-5.1a4.369 4.369 0 0 0 1.6-5.967l-7.281-12.612-.065.037a28.875 28.875 0 0 0 2.275-2.966l-.02.074 14.066 3.77a4.369 4.369 0 0 0 5.351-3.09l2.638-9.846a4.368 4.368 0 0 0-3.089-5.351L207.2 458.72l-.017.061a28.938 28.938 0 0 0-.481-3.677l.028.049 12.612-7.281a4.37 4.37 0 0 0 1.6-5.968l-5.1-8.828a4.369 4.369 0 0 0-5.964-1.6z" style="isolation:isolate;fill:none;stroke:#1e223b;stroke-width:2px;stroke-linecap:round;stroke-linejoin:round"/>
	<g style="opacity:.32;isolation:isolate">
		<circle cx="451.942" cy="415.293" r="7.72" style="fill:none;stroke:#1e223b;stroke-linecap:round;stroke-linejoin:round"/>
		<circle cx="451.942" cy="415.293" r="3.309" style="fill:none;stroke:#1e223b;stroke-linecap:round;stroke-linejoin:round"/>
		<path d="m467.774 415.461-5.327-1.427v.014a10.855 10.855 0 0 0-.18-1.376l.006.011 4.776-2.757a1.654 1.654 0 0 0 .6-2.26l-1.93-3.342a1.653 1.653 0 0 0-2.259-.606l-4.776 2.757v.007a10.927 10.927 0 0 0-1.092-.838h.007l1.427-5.327a1.654 1.654 0 0 0-1.169-2.026l-3.729-1a1.655 1.655 0 0 0-2.026 1.17l-1.427 5.326h.007a11.054 11.054 0 0 0-1.365.18h.007l-2.757-4.775a1.655 1.655 0 0 0-2.26-.606l-3.343 1.93a1.655 1.655 0 0 0-.605 2.26l2.757 4.776.011-.007a11.1 11.1 0 0 0-.844 1.1v-.014l-5.326-1.427a1.654 1.654 0 0 0-2.026 1.17l-1 3.728a1.655 1.655 0 0 0 1.17 2.027l5.326 1.427.006-.021a10.929 10.929 0 0 0 .184 1.392l-.012-.02-4.776 2.757a1.654 1.654 0 0 0-.605 2.26l1.93 3.342a1.654 1.654 0 0 0 2.26.606l4.775-2.757-.014-.025a10.861 10.861 0 0 0 1.122.861l-.027-.007-1.427 5.327a1.654 1.654 0 0 0 1.17 2.026l3.728 1a1.655 1.655 0 0 0 2.026-1.17l1.433-5.327-.027-.007a10.9 10.9 0 0 0 1.4-.185l-.025.015 2.757 4.775a1.655 1.655 0 0 0 2.26.606l3.343-1.93a1.655 1.655 0 0 0 .605-2.26l-2.757-4.776-.02.012a10.978 10.978 0 0 0 .855-1.113v.02l5.326 1.428a1.655 1.655 0 0 0 2.026-1.17l1-3.729a1.654 1.654 0 0 0-1.169-2.025z" transform="translate(.5 .5)" style="fill:none;stroke:#1e223b;stroke-linecap:round;stroke-linejoin:round"/>
	</g>
	<g style="opacity:.49;isolation:isolate">
		<circle cx="832.171" cy="251.63" r="19.096" style="fill:#fff"/>
		<circle cx="832.171" cy="251.63" r="8.184" style="fill:#fff"/>
		<path d="m861.405 223.736-11.813 6.82.018.03a27.136 27.136 0 0 0-2.723-2.09l.032.009 3.53-13.176a4.092 4.092 0 0 0-2.893-5.011l-9.223-2.471a4.092 4.092 0 0 0-5.012 2.893l-3.53 13.175.02.006a27.109 27.109 0 0 0-3.376.443l.015-.009-6.82-11.812a4.093 4.093 0 0 0-5.59-1.5l-8.269 4.774a4.092 4.092 0 0 0-1.5 5.59l6.82 11.812.015-.009a27.076 27.076 0 0 0-2.072 2.7v-.019l-13.175-3.531a4.093 4.093 0 0 0-5.012 2.894l-2.471 9.223a4.092 4.092 0 0 0 2.894 5.011l13.175 3.53.008-.031a27.174 27.174 0 0 0 .449 3.4l-.017-.03-11.813 6.82a4.091 4.091 0 0 0-1.5 5.589l4.774 8.269a4.093 4.093 0 0 0 5.59 1.5l11.812-6.82-.026-.046a27.08 27.08 0 0 0 2.757 2.113l-.057-.016-3.53 13.176a4.091 4.091 0 0 0 2.893 5.011l9.223 2.471a4.092 4.092 0 0 0 5.012-2.893l3.53-13.175-.069-.019a26.958 26.958 0 0 0 3.47-.456l-.06.035 6.82 11.812a4.092 4.092 0 0 0 5.59 1.5l8.268-4.774a4.091 4.091 0 0 0 1.5-5.59l-6.82-11.812-.06.035a27.1 27.1 0 0 0 2.13-2.778l-.018.069 13.175 3.531a4.093 4.093 0 0 0 5.012-2.894l2.471-9.222a4.093 4.093 0 0 0-2.894-5.012l-13.175-3.53-.015.057a27.058 27.058 0 0 0-.451-3.444l.026.045 11.813-6.82a4.091 4.091 0 0 0 1.5-5.589L867 225.234a4.093 4.093 0 0 0-5.595-1.498z" transform="translate(.5 .5)" style="fill:#fff"/>
	</g>
	<circle cx="832.178" cy="251.629" r="19.096" style="isolation:isolate;fill:none;stroke:#1e223b;stroke-width:2px;stroke-linecap:round;stroke-linejoin:round"/>
	<circle cx="832.178" cy="251.629" r="8.184" style="isolation:isolate;fill:none;stroke:#1e223b;stroke-width:2px;stroke-linecap:round;stroke-linejoin:round"/>
	<path d="m872.573 253.284-13.175-3.53-.009.033a27.165 27.165 0 0 0-.447-3.4l.016.028 11.813-6.82a4.091 4.091 0 0 0 1.5-5.589l-4.771-8.272a4.093 4.093 0 0 0-5.59-1.5l-11.813 6.82.01.018a26.869 26.869 0 0 0-2.7-2.074h.017l3.53-13.176a4.092 4.092 0 0 0-2.894-5.011l-9.222-2.471a4.092 4.092 0 0 0-5.012 2.893l-3.53 13.175h.017a27.084 27.084 0 0 0-3.376.445l.018-.01-6.82-11.812a4.093 4.093 0 0 0-5.59-1.5l-8.269 4.774a4.092 4.092 0 0 0-1.5 5.59l6.82 11.812.028-.016a27.189 27.189 0 0 0-2.089 2.723l.009-.033-13.175-3.531a4.093 4.093 0 0 0-5.012 2.894l-2.471 9.222a4.093 4.093 0 0 0 2.893 5.012l13.176 3.53.013-.05a27.229 27.229 0 0 0 .456 3.443l-.029-.051-11.813 6.82a4.091 4.091 0 0 0-1.5 5.589l4.774 8.269a4.093 4.093 0 0 0 5.59 1.5l11.812-6.82-.035-.062a26.977 26.977 0 0 0 2.777 2.131l-.068-.018-3.53 13.175a4.092 4.092 0 0 0 2.893 5.012l9.223 2.471a4.09 4.09 0 0 0 5.011-2.893l3.531-13.175-.068-.018a27.1 27.1 0 0 0 3.471-.458l-.062.036 6.82 11.812a4.091 4.091 0 0 0 5.59 1.5l8.268-4.774a4.091 4.091 0 0 0 1.5-5.59l-6.82-11.812-.051.03a27.068 27.068 0 0 0 2.116-2.755l-.013.051 13.175 3.531a4.093 4.093 0 0 0 5.012-2.894l2.471-9.222a4.093 4.093 0 0 0-2.896-5.002z" style="isolation:isolate;fill:none;stroke:#1e223b;stroke-width:2px;stroke-linecap:round;stroke-linejoin:round"/>
	<path d="M587.47 253.288h-26.2l-27.34 18.227v-18.227h-19.366a9.113 9.113 0 0 1-9.113-9.113v-50.123a9.113 9.113 0 0 1 9.113-9.113h72.906a9.113 9.113 0 0 1 9.114 9.113v50.123a9.113 9.113 0 0 1-9.114 9.113z" style="isolation:isolate;fill:#fff"/>
	<path d="M587.47 253.288h-26.2l-27.34 18.227v-18.227h-19.366a9.113 9.113 0 0 1-9.113-9.113v-50.123a9.113 9.113 0 0 1 9.113-9.113h72.906a9.113 9.113 0 0 1 9.114 9.113v50.123a9.113 9.113 0 0 1-9.114 9.113z" style="isolation:isolate;fill:none;stroke:#1e223b;stroke-width:2px;stroke-linecap:round;stroke-linejoin:round"/>
	<path d="M588.4 175.657h16.966l17.7 11.8v-11.8H635.6a5.9 5.9 0 0 0 5.9-5.9V137.3a5.9 5.9 0 0 0-5.9-5.9h-47.2a5.9 5.9 0 0 0-5.9 5.9v32.455a5.9 5.9 0 0 0 5.9 5.902z" style="opacity:.5;isolation:isolate;fill:#fff"/>
	<path d="M588.4 175.657h16.966l17.7 11.8v-11.8H635.6a5.9 5.9 0 0 0 5.9-5.9V137.3a5.9 5.9 0 0 0-5.9-5.9h-47.2a5.9 5.9 0 0 0-5.9 5.9v32.455a5.9 5.9 0 0 0 5.9 5.902z" style="isolation:isolate;fill:none;stroke:#1e223b;stroke-width:2px;stroke-linecap:round;stroke-linejoin:round"/>
	<path d="M649.964 811.97a13.232 13.232 0 1 1-13.232-13.233 13.232 13.232 0 0 1 13.232 13.233z" style="isolation:isolate;fill:#dd4814"/>
	<path style="isolation:isolate;fill:#777bb4" d="m221.103 706.956-28.058 16.305.087-30.502 28.057-16.306z"/>
	<path style="isolation:isolate;fill:none;stroke:#1e223b;stroke-width:2px;stroke-linecap:round;stroke-linejoin:round" d="m221.103 706.956-28.058 16.305.087-30.502 28.057-16.306z"/>
	<path style="opacity:.88;isolation:isolate;fill:#ff5855;stroke:#1e223b;stroke-miterlimit:10" d="m221.189 676.453-28.057 16.306-26.545-15.326 28.057-16.306z"/>
	<path style="isolation:isolate;fill:#0270bb" d="m166.5 707.935.087-30.502 26.545 15.326-.087 30.502z"/>
	<path style="isolation:isolate;fill:none;stroke:#1e223b;stroke-width:2px;stroke-linecap:round;stroke-linejoin:round" d="m221.189 676.453-28.057 16.306-26.545-15.326 28.057-16.306z"/>
	<path style="isolation:isolate;fill:none;stroke:#1e223b;stroke-width:2px;stroke-linecap:round;stroke-linejoin:round" d="m166.5 707.935.087-30.502 26.545 15.326-.087 30.502z"/>
	<circle cx="172.545" cy="643.737" r="6" style="opacity:.59;isolation:isolate;fill:#fff"/>
	<circle cx="172.545" cy="643.737" r="6" style="isolation:isolate;fill:none;stroke:#1e223b;stroke-width:2px;stroke-linecap:round;stroke-linejoin:round"/>
	<circle cx="193.045" cy="643.737" r="6" style="opacity:.59;isolation:isolate;fill:#fff"/>
	<circle cx="193.045" cy="643.737" r="6" style="isolation:isolate;fill:none;stroke:#1e223b;stroke-width:2px;stroke-linecap:round;stroke-linejoin:round"/>
	<circle cx="213.545" cy="643.737" r="6" style="opacity:.59;isolation:isolate;fill:#fff"/>
	<circle cx="897.25" cy="520.99" r="39.5" style="opacity:.32;isolation:isolate;fill:#fff"/>
	<circle cx="213.545" cy="643.737" r="6" style="isolation:isolate;fill:none;stroke:#1e223b;stroke-width:2px;stroke-linecap:round;stroke-linejoin:round"/>
	<path style="opacity:.12;isolation:isolate;fill:#0270bb" d="m876.519 532.217 21.339 12.4-.066-23.198-21.338-12.4z"/>
	<path style="isolation:isolate;fill:none;stroke:#1e223b;stroke-width:2px;stroke-linecap:round;stroke-linejoin:round" d="m876.519 532.217 21.339 12.4-.066-23.198-21.338-12.4z"/>
	<path style="opacity:.47;isolation:isolate;fill:#0270bb" d="m876.454 509.019 21.338 12.4 20.188-11.655-21.338-12.401z"/>
	<path style="isolation:isolate;fill:none;stroke:#1e223b;stroke-width:2px;stroke-linecap:round;stroke-linejoin:round" d="m876.454 509.019 21.338 12.4 20.188-11.655-21.338-12.401z"/>
	<path style="isolation:isolate;fill:#fff;stroke:#1e223b;stroke-width:2px;stroke-linecap:round;stroke-linejoin:round" d="m918.046 532.962-.066-23.198-20.188 11.655.066 23.198z"/>
	<path style="isolation:isolate;fill:none;stroke:#1e223b;stroke-width:2px;stroke-linecap:round;stroke-linejoin:round" d="m918.046 532.962-.066-23.198-20.188 11.655.066 23.198z"/>
	<circle cx="897.25" cy="520.99" r="39.5" style="isolation:isolate;fill:none;stroke:#1e223b;stroke-width:2px;stroke-linecap:round;stroke-linejoin:round"/>
	<rect x="698.509" y="278.026" width="113.356" height="55.896" rx="11.889" style="isolation:isolate;fill:#777bb4;stroke-width:.969704"/>
	<rect x="698.509" y="278.026" width="113.356" height="55.896" rx="11.889" style="isolation:isolate;fill:none;stroke:#1e223b;stroke-width:1.93941px;stroke-linecap:round;stroke-linejoin:round"/>
	<rect x="733.175" y="545.49" width="157.795" height="50.96" rx="16.199" style="isolation:isolate;fill:#0270bb;stroke-width:1.42107"/>
	<rect x="733.399" y="545.733" width="158.954" height="51.09" rx="16.318" style="isolation:isolate;fill:none;stroke:#1e223b;stroke-width:2.8562px;stroke-linecap:round;stroke-linejoin:round"/>
	<path d="M579.063 554.987c.281.407.453.375.671.282.218-.093 11.469-3.891 11.813-4.016.344-.125.234-.234.125-.406-.109-.172-3.859-5.266-4.047-5.563-.188-.297-.281-.234-.578-.14l-11.926 3.1s3.66 6.334 3.942 6.74zM592.5 549.8v-5.963l-3.709.988c1.011 1.352 2.591 3.468 3.709 4.975zm-3.72-12.317c-.184.041-4.254.777-4.5.81-.246.033-.167.176-.067.318l3.581 4.914s4.379-1.087 4.647-1.145l.063-.015v-.651a503.26 503.26 0 0 1-3.152-4.014c-.225-.309-.384-.259-.568-.217z" style="isolation:isolate;fill:#f35045"/>
	<path d="M563.174 529.764c.881-.04.961.161 1.348.735l9.728 16.262 12.23-2.93a4201.33 4201.33 0 0 0-4.051-5.738c-.334-.468.008-.686.551-.777.543-.091 5.223-.878 5.624-.936.401-.058.719-.2 1.371.585.333.4 1.464 1.809 2.525 3.129v-7.607a6.762 6.762 0 0 0-6.75-6.75h-22.5a6.5 6.5 0 0 0-4.769 1.981 6.626 6.626 0 0 0-1.62 2.538c2.205-.181 5.7-.464 6.313-.492z" style="isolation:isolate;fill:#f35045"/>
	<path d="M580.166 557.176c-1.032.313-1.494.468-2.166-.47-.5-.7-3.224-5.6-4.558-8.019-2.525.662-7.146 1.868-8.478 2.188a1.642 1.642 0 0 1-2.07-.948c-.15-.337-3.963-8.558-6.394-13.832v18.892a6.762 6.762 0 0 0 6.75 6.75h22.5a6.76 6.76 0 0 0 6.75-6.75v-2.219c-2.762 1.01-11.639 4.2-12.334 4.408z" style="isolation:isolate;fill:#f35045"/>
	<path d="M565 548.981c.365-.084 7.215-1.723 7.362-1.754.147-.031.24-.115.083-.387l-9.131-15.762c-.083-.142-.059-.19-.284-.178-.2.011-5.279.464-6.455.562a7.039 7.039 0 0 0-.065.75c1.194 2.443 8.044 16.57 8.082 16.685.038.115.042.168.408.084z" style="isolation:isolate;fill:#f35045"/>
	<path style="opacity:.32;isolation:isolate;fill:none;stroke:#1e223b;stroke-width:2px;stroke-linecap:round;stroke-linejoin:round" d="M474.5 411.737h94m-94 8h60"/>
	<path style="opacity:.15;isolation:isolate;fill:none;stroke:#1e223b;stroke-width:2px;stroke-linecap:round;stroke-linejoin:round" d="M446.5 458.737h94"/>
	<path style="opacity:.32;isolation:isolate;fill:none;stroke:#1e223b;stroke-width:2px;stroke-linecap:round;stroke-linejoin:round" d="M446.5 467.404h60m-12 8.667h35"/>
	<path style="opacity:.26;isolation:isolate;fill:none;stroke:#1e223b;stroke-width:2px;stroke-linecap:round;stroke-linejoin:round" d="M446.5 476.071h42"/>
	<path style="opacity:.15;isolation:isolate;fill:none;stroke:#1e223b;stroke-width:2px;stroke-linecap:round;stroke-linejoin:round" d="M446.5 484.737h36"/>
	<path d="M450.5 501.071a4 4 0 0 0 0 8h80.667v-8z" style="isolation:isolate;fill:#4ad3a5;stroke:#1e223b;stroke-miterlimit:10"/>
	<rect x="446.5" y="501.071" width="134" height="8" rx="4" style="isolation:isolate;fill:none;stroke:#1e223b;stroke-linecap:round;stroke-linejoin:round"/>
	<rect x="371.5" y="605.737" width="278" height="13" rx="2.25" style="isolation:isolate;fill:#263c72"/>
	<path style="isolation:isolate;fill:none;stroke:#1e223b;stroke-width:2px;stroke-linecap:round;stroke-linejoin:round" d="M371.5 605.737h278v13h-278z"/>
	<rect x="627.5" y="637.737" width="22" height="12" rx="3" style="isolation:isolate;fill:#363d56"/>
	<rect x="595.5" y="637.737" width="22" height="12" rx="3" style="isolation:isolate;fill:#363d56"/>
	<rect x="563.5" y="637.737" width="22" height="12" rx="3" style="isolation:isolate;fill:#363d56"/>
	<rect x="531.5" y="637.737" width="22" height="12" rx="3" style="isolation:isolate;fill:#363d56"/>
	<rect x="499.5" y="637.737" width="22" height="12" rx="3" style="isolation:isolate;fill:#363d56"/>
	<rect x="467.5" y="637.737" width="22" height="12" rx="3" style="isolation:isolate;fill:#363d56"/>
	<rect x="435.5" y="637.737" width="22" height="12" rx="3" style="isolation:isolate;fill:#363d56"/>
	<rect x="403.5" y="637.737" width="22" height="12" rx="3" style="isolation:isolate;fill:#363d56"/>
	<rect x="371.5" y="637.737" width="22" height="12" rx="3" style="isolation:isolate;fill:#363d56"/>
	<rect x="563.5" y="663.214" width="22" height="22" rx="3" style="isolation:isolate;fill:#363d56"/>
	<rect x="531.5" y="663.214" width="22" height="22" rx="3" style="isolation:isolate;fill:#363d56"/>
	<rect x="499.5" y="663.214" width="22" height="22" rx="3" style="isolation:isolate;fill:#363d56"/>
	<rect x="467.5" y="663.214" width="22" height="22" rx="3" style="isolation:isolate;fill:#363d56"/>
	<rect x="435.5" y="663.214" width="22" height="22" rx="3" style="isolation:isolate;fill:#363d56"/>
	<rect x="403.5" y="663.214" width="22" height="22" rx="3" style="isolation:isolate;fill:#363d56"/>
	<rect x="371.5" y="663.214" width="22" height="22" rx="3" style="isolation:isolate;fill:#363d56"/>
	<rect x="627.5" y="663.214" width="22" height="53.512" rx="3" style="isolation:isolate;fill:#363d56"/>
	<path d="M614.5 663.214h-16a3 3 0 0 0-3 3v25.512a3 3 0 0 1-3 3h-26a3 3 0 0 0-3 3v16a3 3 0 0 0 3 3h48a3 3 0 0 0 3-3v-47.512a3 3 0 0 0-3-3z" style="isolation:isolate;fill:#363d56"/>
	<rect x="531.5" y="694.726" width="22" height="22" rx="3" style="isolation:isolate;fill:#363d56"/>
	<rect x="499.5" y="694.726" width="22" height="22" rx="3" style="isolation:isolate;fill:#363d56"/>
	<rect x="467.5" y="694.726" width="22" height="22" rx="3" style="isolation:isolate;fill:#363d56"/>
	<rect x="435.5" y="694.726" width="22" height="22" rx="3" style="isolation:isolate;fill:#363d56"/>
	<rect x="371.5" y="694.726" width="54" height="22" rx="3" style="isolation:isolate;fill:#363d56"/>
	<rect x="627.5" y="726.237" width="22" height="22" rx="3" style="isolation:isolate;fill:#363d56"/>
	<rect x="595.5" y="726.237" width="22" height="22" rx="3" style="isolation:isolate;fill:#363d56"/>
	<rect x="563.5" y="726.237" width="22" height="22" rx="3" style="isolation:isolate;fill:#363d56"/>
	<rect x="467.5" y="726.237" width="86" height="22" rx="3" style="isolation:isolate;fill:#363d56"/>
	<rect x="435.5" y="726.237" width="22" height="22" rx="3" style="isolation:isolate;fill:#363d56"/>
	<rect x="403.5" y="726.237" width="22" height="22" rx="3" style="isolation:isolate;fill:#363d56"/>
	<rect x="371.5" y="726.237" width="22" height="22" rx="3" style="isolation:isolate;fill:#363d56"/>
	<rect x="627.5" y="637.737" width="22" height="12" rx="3" style="isolation:isolate;fill:none;stroke:#1e223b;stroke-width:2px;stroke-linecap:round;stroke-linejoin:round"/>
	<rect x="595.5" y="637.737" width="22" height="12" rx="3" style="isolation:isolate;fill:none;stroke:#1e223b;stroke-width:2px;stroke-linecap:round;stroke-linejoin:round"/>
	<rect x="563.5" y="637.737" width="22" height="12" rx="3" style="isolation:isolate;fill:none;stroke:#1e223b;stroke-width:2px;stroke-linecap:round;stroke-linejoin:round"/>
	<rect x="531.5" y="637.737" width="22" height="12" rx="3" style="isolation:isolate;fill:none;stroke:#1e223b;stroke-width:2px;stroke-linecap:round;stroke-linejoin:round"/>
	<rect x="499.5" y="637.737" width="22" height="12" rx="3" style="isolation:isolate;fill:none;stroke:#1e223b;stroke-width:2px;stroke-linecap:round;stroke-linejoin:round"/>
	<rect x="467.5" y="637.737" width="22" height="12" rx="3" style="isolation:isolate;fill:none;stroke:#1e223b;stroke-width:2px;stroke-linecap:round;stroke-linejoin:round"/>
	<rect x="435.5" y="637.737" width="22" height="12" rx="3" style="isolation:isolate;fill:none;stroke:#1e223b;stroke-width:2px;stroke-linecap:round;stroke-linejoin:round"/>
	<rect x="403.5" y="637.737" width="22" height="12" rx="3" style="isolation:isolate;fill:none;stroke:#1e223b;stroke-width:2px;stroke-linecap:round;stroke-linejoin:round"/>
	<rect x="371.5" y="637.737" width="22" height="12" rx="3" style="isolation:isolate;fill:none;stroke:#1e223b;stroke-width:2px;stroke-linecap:round;stroke-linejoin:round"/>
	<rect x="563.5" y="663.214" width="22" height="22" rx="3" style="isolation:isolate;fill:none;stroke:#1e223b;stroke-width:2px;stroke-linecap:round;stroke-linejoin:round"/>
	<rect x="531.5" y="663.214" width="22" height="22" rx="3" style="isolation:isolate;fill:none;stroke:#1e223b;stroke-width:2px;stroke-linecap:round;stroke-linejoin:round"/>
	<rect x="499.5" y="663.214" width="22" height="22" rx="3" style="isolation:isolate;fill:none;stroke:#1e223b;stroke-width:2px;stroke-linecap:round;stroke-linejoin:round"/>
	<rect x="467.5" y="663.214" width="22" height="22" rx="3" style="isolation:isolate;fill:none;stroke:#1e223b;stroke-width:2px;stroke-linecap:round;stroke-linejoin:round"/>
	<rect x="435.5" y="663.214" width="22" height="22" rx="3" style="isolation:isolate;fill:none;stroke:#1e223b;stroke-width:2px;stroke-linecap:round;stroke-linejoin:round"/>
	<rect x="403.5" y="663.214" width="22" height="22" rx="3" style="isolation:isolate;fill:none;stroke:#1e223b;stroke-width:2px;stroke-linecap:round;stroke-linejoin:round"/>
	<rect x="371.5" y="663.214" width="22" height="22" rx="3" style="isolation:isolate;fill:none;stroke:#1e223b;stroke-width:2px;stroke-linecap:round;stroke-linejoin:round"/>
	<rect x="627.5" y="663.214" width="22" height="53.512" rx="3" style="isolation:isolate;fill:none;stroke:#1e223b;stroke-width:2px;stroke-linecap:round;stroke-linejoin:round"/>
	<path d="M614.5 663.214h-16a3 3 0 0 0-3 3v25.512a3 3 0 0 1-3 3h-26a3 3 0 0 0-3 3v16a3 3 0 0 0 3 3h48a3 3 0 0 0 3-3v-47.512a3 3 0 0 0-3-3z" style="isolation:isolate;fill:none;stroke:#1e223b;stroke-width:2px;stroke-linecap:round;stroke-linejoin:round"/>
	<rect x="531.5" y="694.726" width="22" height="22" rx="3" style="isolation:isolate;fill:none;stroke:#1e223b;stroke-width:2px;stroke-linecap:round;stroke-linejoin:round"/>
	<rect x="499.5" y="694.726" width="22" height="22" rx="3" style="isolation:isolate;fill:none;stroke:#1e223b;stroke-width:2px;stroke-linecap:round;stroke-linejoin:round"/>
	<rect x="467.5" y="694.726" width="22" height="22" rx="3" style="isolation:isolate;fill:none;stroke:#1e223b;stroke-width:2px;stroke-linecap:round;stroke-linejoin:round"/>
	<rect x="435.5" y="694.726" width="22" height="22" rx="3" style="isolation:isolate;fill:none;stroke:#1e223b;stroke-width:2px;stroke-linecap:round;stroke-linejoin:round"/>
	<rect x="371.5" y="694.726" width="54" height="22" rx="3" style="isolation:isolate;fill:none;stroke:#1e223b;stroke-width:2px;stroke-linecap:round;stroke-linejoin:round"/>
	<rect x="627.5" y="726.237" width="22" height="22" rx="3" style="isolation:isolate;fill:none;stroke:#1e223b;stroke-width:2px;stroke-linecap:round;stroke-linejoin:round"/>
	<rect x="595.5" y="726.237" width="22" height="22" rx="3" style="isolation:isolate;fill:none;stroke:#1e223b;stroke-width:2px;stroke-linecap:round;stroke-linejoin:round"/>
	<rect x="563.5" y="726.237" width="22" height="22" rx="3" style="isolation:isolate;fill:none;stroke:#1e223b;stroke-width:2px;stroke-linecap:round;stroke-linejoin:round"/>
	<rect x="467.5" y="726.237" width="86" height="22" rx="3" style="isolation:isolate;fill:none;stroke:#1e223b;stroke-width:2px;stroke-linecap:round;stroke-linejoin:round"/>
	<rect x="435.5" y="726.237" width="22" height="22" rx="3" style="isolation:isolate;fill:none;stroke:#1e223b;stroke-width:2px;stroke-linecap:round;stroke-linejoin:round"/>
	<rect x="403.5" y="726.237" width="22" height="22" rx="3" style="isolation:isolate;fill:none;stroke:#1e223b;stroke-width:2px;stroke-linecap:round;stroke-linejoin:round"/>
	<rect x="371.5" y="726.237" width="22" height="22" rx="3" style="isolation:isolate;fill:none;stroke:#1e223b;stroke-width:2px;stroke-linecap:round;stroke-linejoin:round"/>
	<path style="isolation:isolate;fill:#f2a197" d="M392.644 819.604h44v40h-44z"/>
	<path style="isolation:isolate;fill:none;stroke:#1e223b;stroke-width:2px;stroke-linecap:round;stroke-linejoin:round" d="M392.644 819.604h44v40h-44z"/>
	<path style="isolation:isolate;fill:#fff" d="M388.115 850.604h51.898v25.514h-51.898z"/>
	<path style="isolation:isolate;fill:none;stroke:#1e223b;stroke-width:2px;stroke-linecap:round;stroke-linejoin:round" d="M388.115 850.604h51.898v25.514h-51.898z"/>
	<path d="M386.172 875.47h55.784a6.487 6.487 0 0 1 6.487 6.487v116.757h-68.758V881.956a6.487 6.487 0 0 1 6.487-6.486z" style="isolation:isolate;fill:#1e223b"/>
	<path d="M386.172 875.47h55.784a6.487 6.487 0 0 1 6.487 6.487v116.757h-68.758V881.956a6.487 6.487 0 0 1 6.487-6.486z" style="isolation:isolate;fill:none;stroke:#1e223b;stroke-width:2px;stroke-linecap:round;stroke-linejoin:round"/>
	<circle cx="430.744" cy="863.361" r="4.973" style="opacity:.2;isolation:isolate;fill:#1e223b"/>
	<circle cx="430.744" cy="863.361" r="4.973" style="isolation:isolate;fill:none;stroke:#1e223b;stroke-width:2px;stroke-linecap:round;stroke-linejoin:round"/>
	<path d="m468.637 767.76 1.3.75a6 6 0 0 1 2.195 8.195l-25.5 44.168-11.691-6.75 25.5-44.168a6 6 0 0 1 8.196-2.196z" style="isolation:isolate;fill:#f2a197"/>
	<path d="m468.637 767.76 1.3.75a6 6 0 0 1 2.195 8.195l-25.5 44.168-11.691-6.75 25.5-44.168a6 6 0 0 1 8.196-2.196z" style="isolation:isolate;fill:none;stroke:#1e223b;stroke-width:2px;stroke-linecap:round;stroke-linejoin:round"/>
	<path d="M444.065 705.455h-1.5a6 6 0 0 0-6 6v45a3 3 0 0 1-3 3 3 3 0 0 1-3-3v-53.7a6 6 0 0 0-6-6h-1.5a6 6 0 0 0-6 6v53.7a3 3 0 0 1-3 3 3 3 0 0 1-3-3v-45a6 6 0 0 0-6-6h-1.5a6 6 0 0 0-6 6v45a3 3 0 0 1-3 3 3 3 0 0 1-3-3v-30.75a6 6 0 0 0-6-6h-1.5a6 6 0 0 0-6 6v88.245a12 12 0 0 0 12 12h48a12 12 0 0 0 12-12V711.456a6 6 0 0 0-6-6.001z" style="isolation:isolate;fill:#fdb3a6"/>
	<path d="M444.065 705.455h-1.5a6 6 0 0 0-6 6v45a3 3 0 0 1-3 3v0a3 3 0 0 1-3-3v-53.7a6 6 0 0 0-6-6h-1.5a6 6 0 0 0-6 6v53.7a3 3 0 0 1-3 3v0a3 3 0 0 1-3-3v-45a6 6 0 0 0-6-6h-1.5a6 6 0 0 0-6 6v45a3 3 0 0 1-3 3v0a3 3 0 0 1-3-3v-30.75a6 6 0 0 0-6-6h-1.5a6 6 0 0 0-6 6v88.245a12 12 0 0 0 12 12h48a12 12 0 0 0 12-12V711.456a6 6 0 0 0-6-6.001z" style="isolation:isolate;fill:none;stroke:#1e223b;stroke-width:2px;stroke-linecap:round;stroke-linejoin:round"/>
	<path style="isolation:isolate;fill:#f2a197" d="M501.002 907.886h44v40h-44z"/>
	<path style="isolation:isolate;fill:none;stroke:#1e223b;stroke-width:2px;stroke-linecap:round;stroke-linejoin:round" d="M501.002 907.886h44v40h-44z"/>
	<path d="m500.993 902.405-11.692 6.75-25.5-44.168a6 6 0 0 1 2.197-8.196l1.299-.75a6 6 0 0 1 8.196 2.196z" style="isolation:isolate;fill:#f2a197"/>
	<path d="m500.993 902.405-11.692 6.75-25.5-44.168a6 6 0 0 1 2.197-8.196l1.299-.75a6 6 0 0 1 8.196 2.196z" style="isolation:isolate;fill:none;stroke:#1e223b;stroke-width:2px;stroke-linecap:round;stroke-linejoin:round"/>
	<path d="M493 793.737h1.5a6 6 0 0 1 6 6v45a3 3 0 0 0 3 3 3 3 0 0 0 3-3v-7.172a6 6 0 0 1 6-6h1.5a6 6 0 0 1 6 6v7.172a3 3 0 0 0 3 3 3 3 0 0 0 3-3v-7.172a6 6 0 0 1 6-6h1.5a6 6 0 0 1 6 6v7.172a3 3 0 0 0 3 3 3 3 0 0 0 3-3v-7.172a6 6 0 0 1 6-6h1.5a6 6 0 0 1 6 6v64.667a12 12 0 0 1-12 12h-48a12 12 0 0 1-12-12V799.738a6 6 0 0 1 6-6.001z" style="isolation:isolate;fill:#fdb3a6"/>
	<path d="M493 793.737h1.5a6 6 0 0 1 6 6v45a3 3 0 0 0 3 3v0a3 3 0 0 0 3-3v-7.172a6 6 0 0 1 6-6h1.5a6 6 0 0 1 6 6v7.172a3 3 0 0 0 3 3v0a3 3 0 0 0 3-3v-7.172a6 6 0 0 1 6-6h1.5a6 6 0 0 1 6 6v7.172a3 3 0 0 0 3 3v0a3 3 0 0 0 3-3v-7.172a6 6 0 0 1 6-6h1.5a6 6 0 0 1 6 6v64.667a12 12 0 0 1-12 12h-48a12 12 0 0 1-12-12V799.738a6 6 0 0 1 6-6.001z" style="isolation:isolate;fill:none;stroke:#1e223b;stroke-width:2px;stroke-linecap:round;stroke-linejoin:round"/>
	<path style="isolation:isolate;fill:#fff" d="M497.053 938.886h51.898V964.4h-51.898z"/>
	<path style="isolation:isolate;fill:none;stroke:#1e223b;stroke-width:2px;stroke-linecap:round;stroke-linejoin:round" d="M497.053 938.886h51.898V964.4h-51.898z"/>
	<path d="M495.11 963.752h55.784a6.487 6.487 0 0 1 6.487 6.487v30.261h-68.757v-30.262a6.487 6.487 0 0 1 6.486-6.486z" style="isolation:isolate;fill:#1e223b"/>
	<path d="M495.11 963.752h55.784a6.487 6.487 0 0 1 6.487 6.487v30.261h-68.757v-30.262a6.487 6.487 0 0 1 6.486-6.486z" style="isolation:isolate;fill:none;stroke:#1e223b;stroke-width:2px;stroke-linecap:round;stroke-linejoin:round"/>
	<circle cx="508.029" cy="951.643" r="4.973" style="isolation:isolate;fill:none;stroke:#1e223b;stroke-width:2px;stroke-linecap:round;stroke-linejoin:round"/>
	<circle cx="508.029" cy="951.643" r="4.973" style="opacity:.2;isolation:isolate;fill:#1e223b"/>
	<path style="isolation:isolate;fill:none;stroke:#1e223b;stroke-width:3px;stroke-linecap:round;stroke-linejoin:round" d="M525 205h54m-54 13.5h42M525 232h24m48.213-83.5h27m-27 7h17"/>
	<path style="isolation:isolate;fill:none;stroke:#1e223b;stroke-width:2px;stroke-linecap:round;stroke-linejoin:round" d="M596.584 219.629h3"/>
	<path d="M607.522 219.629h22.214a39.764 39.764 0 0 1 39.764 39.764v0a39.764 39.764 0 0 1-39.764 39.764h-65.564a44.671 44.671 0 0 0-44.672 44.671v4.94" style="isolation:isolate;fill:none;stroke:#1e223b;stroke-width:2px;stroke-linecap:round;stroke-linejoin:round;stroke-dasharray:5.95365,7.9382"/>
	<path style="isolation:isolate;fill:none;stroke:#1e223b;stroke-width:2px;stroke-linecap:round;stroke-linejoin:round" d="M519.5 352.737v3"/>
	<path style="isolation:isolate;fill:none;stroke:#1e223b;stroke-width:2px;stroke-linecap:round;stroke-linejoin:round;stroke-dasharray:6,8" d="M224.357 467.84h125.542"/>
	<path d="M221.137 694.726h26.25a45.113 45.113 0 0 0 45.113-45.113v-18.994a44.882 44.882 0 0 1 44.881-44.882H351.5" style="isolation:isolate;fill:none;stroke:#1e223b;stroke-width:2px;stroke-linecap:round;stroke-linejoin:round"/>
	<path d="M354.292 222.858h13.556a35.653 35.653 0 0 1 35.652 35.653v0a35.652 35.652 0 0 0 35.653 35.652h19.695a35.653 35.653 0 0 1 35.652 35.653v25.921" style="isolation:isolate;fill:none;stroke:#1e223b;stroke-width:2px;stroke-linecap:round;stroke-linejoin:round;stroke-dasharray:6,8"/>
	<path d="M669.5 460.732h52.532a34.764 34.764 0 0 0 34.768-34.764v-92.046" style="isolation:isolate;fill:none;stroke:#1e223b;stroke-width:2px;stroke-linecap:round;stroke-linejoin:round"/>
	<circle cx="887.156" cy="734.737" r="30.51" style="isolation:isolate;fill:none;stroke:#1e223b;stroke-width:2px;stroke-linecap:round;stroke-linejoin:round"/>
	<path style="isolation:isolate;fill:none;stroke:#1e223b;stroke-width:2px;stroke-linecap:round;stroke-linejoin:round;stroke-dasharray:6,8" d="M669.5 521.419h188.25"/>
	<circle cx="859.373" cy="752.113" r="35.387" style="isolation:isolate;fill:#fff"/>
	<circle cx="859.373" cy="752.113" r="35.387" style="isolation:isolate;fill:none;stroke:#1e223b;stroke-width:2px;stroke-linecap:round;stroke-linejoin:round"/>
	<path style="isolation:isolate;fill:none;stroke:#1e223b;stroke-width:2px;stroke-linecap:round;stroke-linejoin:round;stroke-dasharray:6,8" d="M823.986 752.113H669.5"/>
	<circle cx="677" cy="143" r="7.5" style="opacity:.39;isolation:isolate;fill:#fff"/>
	<circle cx="677" cy="143" r="7.5" style="isolation:isolate;fill:none;stroke:#1e223b;stroke-width:2px;stroke-linecap:round;stroke-linejoin:round"/>
	<path style="isolation:isolate;fill:none;stroke:#1e223b;stroke-width:2px;stroke-linecap:round;stroke-linejoin:round" d="m844.256 784.114 15.117-32.001 34.982 5.369"/>
	<rect x="769.033" y="683.121" width="88.078" height="45.209" rx="9.042" style="isolation:isolate;fill:#f73e59"/>
	<rect x="769.033" y="683.121" width="88.078" height="45.209" rx="9.042" style="isolation:isolate;fill:none;stroke:#1e223b;stroke-width:2px;stroke-linecap:round;stroke-linejoin:round"/>
	<rect x="152.918" y="242.869" width="128.255" height="52.201" rx="10.79" style="isolation:isolate;fill:#e44d26;stroke:#1e223b;stroke-width:2px;stroke-miterlimit:10"/>
	<rect x="152.918" y="242.869" width="128.255" height="52.201" rx="10.79" style="isolation:isolate;fill:none;stroke:#1e223b;stroke-width:2px;stroke-linecap:round;stroke-linejoin:round"/>
	<text xml:space="preserve" style="font-style:normal;font-weight:400;font-size:40px;line-height:1.25;font-family:sans-serif;fill:#000;fill-opacity:1;stroke:none" x="773.499" y="720.171"><tspan x="773.499" y="720.171" style="fill:#fff">PDF</tspan></text>
	<text xml:space="preserve" style="font-style:normal;font-weight:400;font-size:40px;line-height:1.25;font-family:sans-serif;fill:#000;fill-opacity:1;stroke:none" x="739.549" y="585.918"><tspan x="739.549" y="585.918" style="fill:#fff">MHTML</tspan></text>
	<text xml:space="preserve" style="font-style:normal;font-weight:400;font-size:40px;line-height:1.25;font-family:sans-serif;fill:#000;fill-opacity:1;stroke:none" x="162.361" y="283.198"><tspan x="162.361" y="283.198" style="fill:#fff">HTML</tspan></text>
	<text xml:space="preserve" style="font-style:normal;font-weight:400;font-size:40px;line-height:1.25;font-family:sans-serif;fill:#000;fill-opacity:1;stroke:none" x="712.724" y="321.053"><tspan x="712.724" y="321.053" style="fill:#fff">PNG</tspan></text>
</svg>
