<?xml version="1.0" encoding="UTF-8" standalone="no"?>
<!-- Generator: Adobe Illustrator 23.1.1, SVG Export Plug-In . SVG Version: 6.00 Build 0)  -->

<svg
   version="1.1"
   id="Layer_1"
   x="0px"
   y="0px"
   viewBox="0 0 1000 500"
   xml:space="preserve"
   sodipodi:docname="day94-ui-ux.svg"
   width="1000"
   height="500"
   inkscape:version="1.1.1 (eb90963e84, 2021-10-02)"
   xmlns:inkscape="http://www.inkscape.org/namespaces/inkscape"
   xmlns:sodipodi="http://sodipodi.sourceforge.net/DTD/sodipodi-0.dtd"
   xmlns="http://www.w3.org/2000/svg"
   xmlns:svg="http://www.w3.org/2000/svg"><defs
   id="defs344">
	
	
	
	
	
	
	
	
	
	
	
	
	
	
	
	
	
	
	
	

		
		
			
		
		
		
		
			
	</defs><sodipodi:namedview
   id="namedview342"
   pagecolor="#ffffff"
   bordercolor="#666666"
   borderopacity="1.0"
   inkscape:pageshadow="2"
   inkscape:pageopacity="0.0"
   inkscape:pagecheckerboard="0"
   showgrid="false"
   inkscape:zoom="0.873"
   inkscape:cx="205.04009"
   inkscape:cy="501.14548"
   inkscape:window-width="2129"
   inkscape:window-height="1082"
   inkscape:window-x="26"
   inkscape:window-y="23"
   inkscape:window-maximized="0"
   inkscape:current-layer="Layer_1" />
<style
   type="text/css"
   id="style2">
	.st0{fill:#6A737F;}
	.st1{fill:#EEF2F4;}
	.st2{fill:#FFFFFF;}
	.st3{fill:#444E59;}
	.st4{fill:#BBBFC2;}
	.st5{fill:#28A8E0;}
	.st6{opacity:0.4;fill:#848484;}
	.st7{fill:none;stroke:#444E59;stroke-width:4;stroke-linecap:round;stroke-linejoin:round;stroke-miterlimit:10;}
	.st8{opacity:0.32;fill:#848484;}
	.st9{fill:#AFB1B2;}
	.st10{fill:#AEAEAF;}
	.st11{fill:#6567C3;}
	.st12{opacity:0.2;fill:#444E59;}
	.st13{opacity:0.2;fill:none;stroke:#444E59;stroke-width:4;stroke-linecap:round;stroke-linejoin:round;stroke-miterlimit:10;}
	.st14{opacity:0.2;}
	.st15{opacity:9.000000e-02;}
	.st16{fill:#F09F54;}
	.st17{fill:#ED8B3B;}
	.st18{fill:#FF6C37;}
	.st19{fill:#8D91DB;}
	.st20{fill:#BECCD5;stroke:#444E59;stroke-width:4;stroke-linecap:round;stroke-linejoin:round;stroke-miterlimit:10;}
	.st21{opacity:0.3;fill:none;stroke:#444E59;stroke-width:4;stroke-linecap:round;stroke-linejoin:round;stroke-miterlimit:10;}
	.st22{opacity:0.62;fill:#FFFFFF;}
	.st23{opacity:0.71;fill:#5D5D5D;}
	.st24{opacity:0.8;fill:#BBBFC2;}
	.st25{opacity:0.3;}
	.st26{fill:none;stroke:#444E59;stroke-width:2;stroke-linejoin:round;}
	.st27{fill:none;stroke:#444E59;stroke-width:2;stroke-linejoin:round;stroke-dasharray:2.858,1.9053;}
	.st28{fill:none;stroke:#444E59;stroke-width:2;stroke-linejoin:round;stroke-dasharray:3.0046,2.003;}
	.st29{fill:none;stroke:#444E59;stroke-linejoin:round;stroke-miterlimit:10;}
	.st30{fill:none;stroke:#444E59;stroke-linecap:round;stroke-linejoin:round;stroke-miterlimit:10;}
</style>



<path
   id="XMLID_1313_"
   class="st3"
   d="M 903.58043,406.97511 H 89.480427 c -5,0 -9,-4 -9,-9 v 0 c 0,-5 4,-9 9,-9 H 903.68043 c 5,0 9,4 9,9 v 0 c -0.1,5 -4.1,9 -9.1,9 z" />
<rect
   id="XMLID_6_"
   x="401.18042"
   y="388.4751"
   class="st3"
   width="140.8"
   height="8.3999996" /><path
   id="XMLID_76_"
   class="st4"
   d="m 639.78043,333.57511 h -332.2 c -6.6,0 -12,-5.4 -12,-12 v -222.5 c 0,-6.6 5.4,-12 12,-12 h 332.2 c 6.6,0 12,5.4 12,12 v 222.4 c 0,6.7 -5.3,12.1 -12,12.1 z" /><rect
   id="XMLID_80_"
   x="109.6545"
   y="-630.66772"
   transform="rotate(90)"
   class="st5"
   width="181.7"
   height="312.60001"
   style="fill:#1abc8f;fill-opacity:1" /><path
   id="XMLID_18_"
   class="st6"
   d="m 640.58043,333.57511 h -52.1 v -94.8 c 0,-7.6 6.1,-13.7 13.7,-13.7 h 38.4 z" /><path
   id="XMLID_107_"
   class="st6"
   d="m 320.88043,241.97511 h -25.3 v 74.7 c 0,9.3 8,16.9 17.4,16.9 h 29.1 v -70 c -0.1,-11.7 -9.6,-21.6 -21.2,-21.6 z" /><path
   id="XMLID_5_"
   class="st7"
   d="m 640.78043,333.57511 h -332.8 c -6.6,0 -12,-5.4 -12,-12 v -222.5 c 0,-6.6 5.4,-12 12,-12 h 332.8 c 6.6,0 12,5.4 12,12 v 222.4 c 0,6.7 -5.4,12.1 -12,12.1 z" /><rect
   id="XMLID_7_"
   x="109.65179"
   y="-630.26501"
   transform="rotate(90)"
   class="st7"
   width="181.7"
   height="311.70001" /><path
   id="XMLID_179_"
   class="st8"
   d="m 569.68043,282.57511 h -171.8 c -3.9,0 -7,-3.2 -7,-7 v -122.6 c 0,-3.9 3.2,-7 7,-7 h 171.8 c 3.9,0 7,3.2 7,7 v 122.5 c 0,3.9 -3.1,7.1 -7,7.1 z" /><path
   id="XMLID_134_"
   class="st9"
   d="m 561.68043,275.77511 h -171.8 c -3.9,0 -7,-3.2 -7,-7 v -122.5 c 0,-3.9 3.2,-7 7,-7 h 171.8 c 3.9,0 7,3.2 7,7 v 122.5 c 0.1,3.9 -3.1,7 -7,7 z" /><path
   id="XMLID_137_"
   class="st7"
   d="m 561.68043,275.77511 h -171.8 c -3.9,0 -7,-3.2 -7,-7 v -122.5 c 0,-3.9 3.2,-7 7,-7 h 171.8 c 3.9,0 7,3.2 7,7 v 122.5 c 0.1,3.9 -3.1,7 -7,7 z" /><polygon
   id="XMLID_96_"
   class="st10"
   points="512.1,592.9 522.5,647.8 438.7,647.8 449.1,592.9 "
   transform="translate(-6.2195733,-259.32489)" /><polygon
   id="XMLID_99_"
   class="st8"
   points="446.3,608.4 514.9,608.4 512.1,592.9 449.1,592.9 "
   transform="translate(-6.2195733,-259.32489)" /><polygon
   id="XMLID_3_"
   class="st7"
   points="512.1,592.9 522.5,647.8 438.7,647.8 449.1,592.9 "
   transform="translate(-6.2195733,-259.32489)" /><rect
   id="XMLID_8_"
   x="401.18042"
   y="388.4751"
   class="st7"
   width="140.8"
   height="8.3999996" /><circle
   id="XMLID_9_"
   class="st3"
   cx="473.88043"
   cy="308.37512"
   r="6.1999998" /><path
   id="XMLID_133_"
   class="st2"
   d="m 547.58043,263.17511 h -171.8 c -3.9,0 -7,-3.2 -7,-7 v -122.6 c 0,-3.9 3.2,-7 7,-7 h 171.8 c 3.9,0 7,3.2 7,7 v 122.5 c 0.1,3.9 -3.1,7.1 -7,7.1 z" /><path
   id="XMLID_25_"
   class="st7"
   d="m 547.58043,263.17511 h -171.8 c -3.9,0 -7,-3.2 -7,-7 v -122.6 c 0,-3.9 3.2,-7 7,-7 h 171.8 c 3.9,0 7,3.2 7,7 v 122.5 c 0.1,3.9 -3.1,7.1 -7,7.1 z" /><path
   id="XMLID_105_"
   class="st4"
   d="m 554.68043,147.67511 h -185.9 v -13.8 c 0,-4 3.3,-7.4 7.4,-7.4 h 171.6 c 3.8,0 6.9,3.1 6.9,6.9 z" /><path
   id="XMLID_26_"
   class="st7"
   d="m 554.68043,147.67511 h -185.9 v -13.8 c 0,-4 3.3,-7.4 7.4,-7.4 h 171.6 c 3.8,0 6.9,3.1 6.9,6.9 z" /><g
   id="XMLID_108_"
   transform="translate(-6.2195733,-259.32489)">
		<circle
   id="XMLID_106_"
   class="st3"
   cx="392.89999"
   cy="396.5"
   r="3.3" />
		<circle
   id="XMLID_109_"
   class="st3"
   cx="403.79999"
   cy="396.5"
   r="3.3" />
		<circle
   id="XMLID_120_"
   class="st3"
   cx="414.60001"
   cy="396.5"
   r="3.3" />
	</g><path
   id="XMLID_122_"
   class="st11"
   d="m 537.18043,184.27511 h -152.3 c -1.1,0 -2,-0.9 -2,-2 v -21.3 c 0,-1.1 0.9,-2 2,-2 h 152.3 c 1.1,0 2,0.9 2,2 v 21.3 c 0,1.1 -0.9,2 -2,2 z" /><g
   id="XMLID_123_"
   transform="translate(-6.2195733,-259.32489)">
		<path
   id="XMLID_124_"
   class="st12"
   d="M 434.9,470.3 H 391 c -1.1,0 -2,-0.9 -2,-2 v -11.5 c 0,-1.1 0.9,-2 2,-2 h 43.9 c 1.1,0 2,0.9 2,2 v 11.5 c 0,1.1 -0.8,2 -2,2 z" />
		<line
   id="XMLID_125_"
   class="st13"
   x1="396.10001"
   y1="481.60001"
   x2="431.29999"
   y2="481.60001" />
		<line
   id="XMLID_128_"
   class="st13"
   x1="396.10001"
   y1="492.89999"
   x2="431.29999"
   y2="492.89999" />
	</g><g
   id="XMLID_127_"
   transform="translate(-6.2195733,-259.32489)">
		<path
   id="XMLID_131_"
   class="st12"
   d="M 489.9,470.3 H 446 c -1.1,0 -2,-0.9 -2,-2 v -11.5 c 0,-1.1 0.9,-2 2,-2 h 43.9 c 1.1,0 2,0.9 2,2 v 11.5 c 0,1.1 -0.9,2 -2,2 z" />
		<line
   id="XMLID_130_"
   class="st13"
   x1="451"
   y1="481.60001"
   x2="484.79999"
   y2="481.60001" />
		<line
   id="XMLID_129_"
   class="st13"
   x1="451"
   y1="492.89999"
   x2="484.79999"
   y2="492.89999" />
	</g><g
   id="XMLID_132_"
   class="st14"
   transform="translate(-6.2195733,-259.32489)">
		<path
   id="XMLID_135_"
   class="st3"
   d="m 544.8,494.3 h -43.9 c -1.1,0 -2,-0.9 -2,-2 v -35.4 c 0,-1.1 0.9,-2 2,-2 h 43.9 c 1.1,0 2,0.9 2,2 v 35.4 c 0,1.1 -0.9,2 -2,2 z" />
	</g><g
   id="XMLID_126_"
   class="st15"
   transform="translate(-6.2195733,-259.32489)">
		<path
   id="XMLID_136_"
   class="st3"
   d="m 543.4,505.6 h -41.8 c -1.6,0 -2.8,-1.3 -2.8,-2.8 0,-1.5 1.3,-2.8 2.8,-2.8 h 41.8 c 1.6,0 2.8,1.3 2.8,2.8 0,1.5 -1.3,2.8 -2.8,2.8 z" />
	</g>
<g
   id="XMLID_23_"
   transform="translate(-6.2195733,-259.32489)">
	<g
   id="XMLID_12_">
		<path
   id="XMLID_71_"
   class="st2"
   d="m 229.2,613.4 h -80.6 c -1,0 -1.9,0.3 -2.6,1 l -19.5,17 c -1.8,1.6 -1.8,4.4 0,5.9 l 19.5,17.3 c 0.7,0.6 1.6,1.2 2.6,1.2 h 80.6 c 4.6,0 8.4,-4.2 8.4,-8.8 v -25.5 c -0.1,-4.4 -3.8,-8.1 -8.4,-8.1 z m -82.8,25.9 c -2.7,0 -5,-2.2 -5,-5 0,-2.8 2.2,-5 5,-5 2.8,0 5,2.2 5,5 0,2.8 -2.2,5 -5,5 z" />
		<rect
   id="XMLID_70_"
   x="167.10001"
   y="613.40002"
   class="st16"
   width="23.5"
   height="42.5" />
		<rect
   id="XMLID_69_"
   x="190.60001"
   y="613.40002"
   class="st17"
   width="23.5"
   height="42.5" />
		<path
   id="XMLID_58_"
   class="st18"
   d="m 227.1,655.9 h -13 v -42.5 h 13.4 c 5.5,0 10.1,4.5 10.1,10.1 v 22 c -0.1,5.7 -4.8,10.4 -10.5,10.4 z" />
		<path
   id="XMLID_117_"
   class="st6"
   d="m 231.4,615.5 c -0.4,-0.1 -0.8,-0.1 -1.2,-0.1 h -80.6 c -1,0 -1.9,0.3 -2.6,1 l -19.5,17 c -1.8,1.6 -1.8,4.4 0,5.9 l 12.2,10.7 13.2,3.3 c 0.6,0.2 1.3,0.2 2,0.2 1.3,0 2.5,-0.3 3.7,-0.9 L 230.4,616 c 0.3,-0.1 0.7,-0.3 1,-0.5 z m -84,25.8 c -2.7,0 -5,-2.2 -5,-5 0,-2.8 2.2,-5 5,-5 2.8,0 5,2.2 5,5 0,2.8 -2.2,5 -5,5 z" />
		<path
   id="XMLID_29_"
   class="st7"
   d="m 229.2,613.4 h -80.6 c -1,0 -1.9,0.3 -2.6,1 l -19.5,17 c -1.8,1.6 -1.8,4.4 0,5.9 l 19.5,17.3 c 0.7,0.6 1.6,1.2 2.6,1.2 h 80.6 c 4.6,0 8.4,-4.2 8.4,-8.8 v -25.5 c -0.1,-4.4 -3.8,-8.1 -8.4,-8.1 z m -82.8,25.9 c -2.7,0 -5,-2.2 -5,-5 0,-2.8 2.2,-5 5,-5 2.8,0 5,2.2 5,5 0,2.8 -2.2,5 -5,5 z" />
		<rect
   id="XMLID_17_"
   x="167.10001"
   y="613.40002"
   class="st7"
   width="23.5"
   height="42.5" />
		<rect
   id="XMLID_21_"
   x="190.60001"
   y="613.40002"
   class="st7"
   width="23.5"
   height="42.5" />
		<path
   id="XMLID_22_"
   class="st7"
   d="m 227.1,655.9 h -13 v -42.5 h 13.4 c 5.5,0 10.1,4.5 10.1,10.1 v 22 c -0.1,5.7 -4.8,10.4 -10.5,10.4 z" />
	</g>
	<g
   id="XMLID_20_">
		<path
   id="XMLID_74_"
   class="st2"
   d="m 208.4,573 -71.8,36.6 c -0.9,0.4 -1.5,1.2 -1.9,2.1 l -9.6,24 c -0.9,2.2 0.4,4.7 2.7,5.3 l 25.1,6.4 c 0.9,0.2 1.9,0.1 2.8,-0.3 l 71.8,-36.6 c 4.1,-2.1 5.7,-7.1 3.6,-11.1 l -11.6,-22.7 c -2.1,-4.2 -7.1,-5.8 -11.1,-3.7 z" />
		
			<rect
   id="XMLID_77_"
   x="182.2"
   y="582.90002"
   transform="matrix(0.8908,-0.4545,0.4545,0.8908,-253.2897,154.0934)"
   class="st19"
   width="23.5"
   height="42" />
		<path
   id="XMLID_33_"
   class="st7"
   d="m 208.4,573 -71.8,36.6 c -0.9,0.4 -1.5,1.2 -1.9,2.1 l -9.6,24 c -0.9,2.2 0.4,4.7 2.7,5.3 l 25.1,6.4 c 0.9,0.2 1.9,0.1 2.8,-0.3 l 71.8,-36.6 c 4.1,-2.1 5.7,-7.1 3.6,-11.1 l -11.6,-22.7 c -2.1,-4.2 -7.1,-5.8 -11.1,-3.7 z" />
		<circle
   id="XMLID_34_"
   class="st3"
   cx="144.2"
   cy="629.29999"
   r="5.8000002" />
		
			<rect
   id="XMLID_79_"
   x="161.2"
   y="593.59998"
   transform="matrix(0.8908,-0.4545,0.4545,0.8908,-260.4252,145.7524)"
   class="st20"
   width="23.5"
   height="42" />
		
			<rect
   id="XMLID_32_"
   x="161.2"
   y="593.59998"
   transform="matrix(0.8908,-0.4545,0.4545,0.8908,-260.4252,145.7524)"
   class="st7"
   width="23.5"
   height="42" />
		
			<rect
   id="XMLID_31_"
   x="182.2"
   y="582.90002"
   transform="matrix(0.8908,-0.4545,0.4545,0.8908,-253.2897,154.0934)"
   class="st7"
   width="23.5"
   height="42" />
		<path
   id="XMLID_30_"
   class="st11"
   d="m 225.9,611.2 -12,6.1 -19.1,-37.4 12,-6.1 c 4.9,-2.5 10.9,-0.6 13.5,4.4 l 10,19.6 c 2.5,4.9 0.5,10.9 -4.4,13.4 z" />
		<path
   id="XMLID_78_"
   class="st7"
   d="m 225.9,611.2 -12,6.1 -19.1,-37.4 12,-6.1 c 4.9,-2.5 10.9,-0.6 13.5,4.4 l 10,19.6 c 2.5,4.9 0.5,10.9 -4.4,13.4 z" />
	</g>
</g>
<g
   id="XMLID_90_"
   transform="translate(-6.2195733,-259.32489)">
	<path
   id="XMLID_102_"
   class="st2"
   d="m 327,656.2 h -67.3 c -5.5,0 -10,-4.5 -10,-10 V 511.3 c 0,-5.5 4.5,-10 10,-10 H 327 c 5.5,0 10,4.5 10,10 v 134.9 c 0,5.6 -4.5,10 -10,10 z" />
	<path
   id="XMLID_83_"
   class="st11"
   d="m 338.4,547.8 h -88.7 v -36.7 c 0,-5.4 4.4,-9.8 9.8,-9.8 H 328 c 5.7,0 10.3,4.7 10.3,10.3 v 36.2 z" />
	<path
   id="XMLID_10_"
   class="st7"
   d="m 327,656.2 h -67.3 c -5.5,0 -10,-4.5 -10,-10 V 511.3 c 0,-5.5 4.5,-10 10,-10 H 327 c 5.5,0 10,4.5 10,10 v 134.9 c 0,5.6 -4.5,10 -10,10 z" />
	<path
   id="XMLID_82_"
   class="st4"
   d="M 327.1,656.2 H 260 c -5.7,0 -10.4,-4.7 -10.4,-10.4 V 626.6 H 337 v 19.7 c 0,5.5 -4.5,9.9 -9.9,9.9 z" />
	<path
   id="XMLID_81_"
   class="st7"
   d="M 327.3,656.2 H 260 c -5.7,0 -10.4,-4.7 -10.4,-10.4 V 626.6 H 337 v 19.9 c 0,5.4 -4.4,9.7 -9.7,9.7 z" />
	<circle
   id="XMLID_84_"
   class="st3"
   cx="294"
   cy="640.79999"
   r="5" />
	<line
   id="XMLID_86_"
   class="st21"
   x1="269.39999"
   y1="563.29999"
   x2="318.70001"
   y2="563.29999" />
	<line
   id="XMLID_87_"
   class="st21"
   x1="279.20001"
   y1="578.79999"
   x2="310.20001"
   y2="578.79999" />
	<line
   id="XMLID_88_"
   class="st21"
   x1="269.39999"
   y1="592.90002"
   x2="318.70001"
   y2="592.90002" />
	<circle
   id="XMLID_85_"
   class="st22"
   cx="294"
   cy="528.09998"
   r="11.2" />
	<path
   id="XMLID_89_"
   class="st17"
   d="m 310.2,608.4 c 0,3.1 -2.5,5.6 -5.6,5.6 h -21.1 c -3.1,0 -5.6,-2.5 -5.6,-5.6 v 0 c 0,-3.1 2.5,-5.6 5.6,-5.6 h 21.1 c 3.1,-0.1 5.6,2.4 5.6,5.6 z" />
</g>
<g
   id="XMLID_111_"
   transform="translate(-6.2195733,-259.32489)">
	<path
   id="XMLID_100_"
   class="st4"
   d="M 848.2,637.9 H 605.9 V 492.3 c 0,-4.3 3.5,-7.8 7.8,-7.8 h 226.8 c 4.2,0 7.6,3.4 7.6,7.6 v 145.8 z" />
	<path
   id="XMLID_11_"
   class="st7"
   d="M 848.8,638.2 H 606.6 v -146 c 0,-4.4 3.6,-8 8,-8 h 226.2 c 4.4,0 8,3.6 8,8 z" />
	
		<rect
   id="XMLID_101_"
   x="663.70001"
   y="453.39999"
   transform="rotate(90,727.7506,561.1768)"
   class="st23"
   width="128.2"
   height="215.5" />
	<path
   id="XMLID_183_"
   class="st8"
   d="m 672.7,600.9 h -18.6 c -1.1,0 -2,-0.9 -2,-2 v -63.7 c 0,-1.1 0.9,-2 2,-2 h 18.6 c 1.1,0 2,0.9 2,2 V 599 c 0,1 -0.9,1.9 -2,1.9 z" />
	<path
   id="XMLID_178_"
   class="st8"
   d="M 807,613.8 H 699.6 c -2.2,0 -4,-1.8 -4,-4 v -82.1 c 0,-2.2 1.8,-4 4,-4 H 807 c 2.2,0 4,1.8 4,4 v 82.1 c 0,2.2 -1.7,4 -4,4 z" />
	
		<rect
   id="XMLID_103_"
   x="664.09998"
   y="453.5"
   transform="rotate(90,727.65855,561.17885)"
   class="st7"
   width="127.1"
   height="215.3" />
	<path
   id="XMLID_110_"
   class="st2"
   d="M 875.2,638.2 H 580.1 v 9.4 c 0,4.4 3.6,8 8,8 h 279.1 c 4.4,0 8,-3.6 8,-8 z" />
	<path
   id="XMLID_206_"
   class="st24"
   d="M 591.4,656.2 H 864 c 5.5,0 10,-4.2 11,-9.9 H 580.3 c 1,5.7 5.6,9.9 11.1,9.9 z" />
	<path
   id="XMLID_15_"
   class="st7"
   d="M 875.2,638.2 H 580.1 v 9.4 c 0,4.4 3.6,8 8,8 h 279.1 c 4.4,0 8,-3.6 8,-8 z" />
	<rect
   id="XMLID_201_"
   x="646.79999"
   y="528.09998"
   class="st16"
   width="22.5"
   height="22.5" />
	<rect
   id="XMLID_138_"
   x="647.20001"
   y="528.29999"
   class="st7"
   width="22.5"
   height="22.5" />
	<rect
   id="XMLID_180_"
   x="647.20001"
   y="528.29999"
   class="st7"
   width="22.5"
   height="22.5" />
	<rect
   id="XMLID_156_"
   x="646.79999"
   y="550.59998"
   class="st19"
   width="22.5"
   height="22.5" />
	<rect
   id="XMLID_140_"
   x="647.20001"
   y="550.90002"
   class="st7"
   width="22.5"
   height="22.5" />
	<rect
   id="XMLID_202_"
   x="646.79999"
   y="573.09998"
   class="st11"
   width="22.5"
   height="22.5" />
	<rect
   id="XMLID_143_"
   x="647.20001"
   y="573.40002"
   class="st7"
   width="22.5"
   height="22.5" />
	<path
   id="XMLID_115_"
   class="st2"
   d="M 800.5,606.9 H 693 c -2.2,0 -4,-1.8 -4,-4 v -82.1 c 0,-2.2 1.8,-4 4,-4 h 107.5 c 2.2,0 4,1.8 4,4 v 82.1 c 0,2.3 -1.8,4 -4,4 z" />
	<path
   id="XMLID_139_"
   class="st7"
   d="M 800.5,606.9 H 693 c -2.2,0 -4,-1.8 -4,-4 v -82.1 c 0,-2.2 1.8,-4 4,-4 h 107.5 c 2.2,0 4,1.8 4,4 v 82.1 c 0,2.3 -1.8,4 -4,4 z" />
	<g
   id="XMLID_147_"
   class="st25">
		<g
   id="XMLID_205_">
			<polyline
   id="XMLID_419_"
   class="st26"
   points="770.7,583.2 770.7,584.7 769.2,584.7    " />
			<line
   id="XMLID_418_"
   class="st27"
   x1="767.29999"
   y1="584.70001"
   x2="725.40002"
   y2="584.70001" />
			<polyline
   id="XMLID_417_"
   class="st26"
   points="724.4,584.7 722.9,584.7 722.9,583.2    " />
			<line
   id="XMLID_416_"
   class="st28"
   x1="722.90002"
   y1="581.09998"
   x2="722.90002"
   y2="542.09998" />
			<polyline
   id="XMLID_415_"
   class="st26"
   points="722.9,541.1 722.9,539.6 724.4,539.6    " />
			<line
   id="XMLID_214_"
   class="st27"
   x1="726.29999"
   y1="539.59998"
   x2="768.20001"
   y2="539.59998" />
			<polyline
   id="XMLID_213_"
   class="st26"
   points="769.2,539.6 770.7,539.6 770.7,541.1    " />
			<line
   id="XMLID_211_"
   class="st28"
   x1="770.70001"
   y1="543.09998"
   x2="770.70001"
   y2="582.20001" />
		</g>
	</g>
	<g
   id="XMLID_155_">
		<rect
   id="XMLID_154_"
   x="719.59998"
   y="536.09998"
   class="st2"
   width="7.0999999"
   height="7.0999999" />
		<rect
   id="XMLID_153_"
   x="719.29999"
   y="535.79999"
   class="st29"
   width="7"
   height="7" />
	</g>
	<g
   id="XMLID_157_">
		<rect
   id="XMLID_159_"
   x="719.59998"
   y="581.09998"
   class="st2"
   width="7.0999999"
   height="7.0999999" />
		<rect
   id="XMLID_158_"
   x="719.29999"
   y="580.90002"
   class="st29"
   width="7"
   height="7" />
	</g>
	<g
   id="XMLID_162_">
		<rect
   id="XMLID_166_"
   x="767.20001"
   y="536.09998"
   class="st2"
   width="7.0999999"
   height="7.0999999" />
		<rect
   id="XMLID_164_"
   x="767.20001"
   y="535.79999"
   class="st29"
   width="7"
   height="7" />
	</g>
	<g
   id="XMLID_196_">
		<rect
   id="XMLID_198_"
   x="767.20001"
   y="581.09998"
   class="st2"
   width="7.0999999"
   height="7.0999999" />
		<rect
   id="XMLID_197_"
   x="767.20001"
   y="580.90002"
   class="st29"
   width="7"
   height="7" />
	</g>
	<g
   id="XMLID_229_">
		<g
   id="XMLID_225_">
			<polygon
   id="XMLID_230_"
   class="st2"
   points="658.5,562.5 665.6,577.7 672.5,581.3 677.3,576.5 673.8,569.5 " />
			<polygon
   id="XMLID_227_"
   class="st29"
   points="658.5,562.5 665.6,577.7 672.5,581.3 677.3,576.5 673.8,569.5 " />
			<circle
   id="XMLID_224_"
   class="st3"
   cx="667.5"
   cy="571.09998"
   r="1.9" />
			<line
   id="XMLID_226_"
   class="st30"
   x1="658.5"
   y1="562.5"
   x2="666.40002"
   y2="570.40002" />
		</g>
		
			<rect
   id="XMLID_231_"
   x="673.29999"
   y="578.09998"
   transform="matrix(0.7071,-0.7071,0.7071,0.7071,-212.3433,648.545)"
   class="st2"
   width="6.8000002"
   height="4.9000001" />
		
			<rect
   id="XMLID_228_"
   x="673.29999"
   y="578.09998"
   transform="matrix(0.7071,-0.7071,0.7071,0.7071,-212.3433,648.545)"
   class="st29"
   width="6.8000002"
   height="4.9000001" />
	</g>
</g>
</svg>
