<?xml version="1.0" encoding="UTF-8" standalone="no"?>
<svg
   xmlns="http://www.w3.org/2000/svg"
   width="100"
   height="100"
   viewBox="0 0 100 100"
   id="svg4510"
   version="1.1">
  <defs
     id="defs4512" />
  <g
     id="layer1"
     transform="matrix(0.33346217,0,0,0.33346217,-0.01300084,-250.91)">
    <rect
       style="fill:none;fill-opacity:1;stroke:none"
       id="rect3052-8-1"
       width="299.42227"
       height="299.42227"
       x="-0.019505024"
       y="752.95935" />
    <path
       style="fill:#ffffff;fill-opacity:1;stroke:none"
       d="m 181.90177,787.75394 70.88695,43.53834 C 180.29225,977.67059 187.41436,950.59754 124.58989,989.154 L 65.05006,905.90077 Z"
       id="rect3052-8-2-2" />
    <ellipse
       style="fill:#616577;fill-opacity:1;stroke:none"
       id="path4875-4-7-5-6-2"
       cx="192.4187"
       cy="851.11481"
       rx="15.970615"
       ry="15.782593" />
    <path
       style="fill:none;stroke:#a466aa;stroke-width:27.50978279;stroke-linecap:butt;stroke-linejoin:miter;stroke-miterlimit:4;stroke-dasharray:none;stroke-opacity:1"
       d="M 159.73623,964.91671 134.54529,941.61879"
       id="path3108-5-39-8" />
    <path
       style="fill:none;stroke:#ffffff;stroke-width:34.19813538;stroke-linecap:butt;stroke-linejoin:miter;stroke-miterlimit:4;stroke-dasharray:none;stroke-opacity:1"
       d="m 162.16161,795.17204 90.03628,0.34544 0,86.1724 -115.50748,117.79375 -88.457192,-81.6665 z"
       id="path3923-1-1-4-9-8" />
    <path
       style="fill:#f7901e;fill-opacity:1;stroke:#33b5be;stroke-width:27.50978279;stroke-linecap:butt;stroke-linejoin:miter;stroke-miterlimit:4;stroke-dasharray:none;stroke-opacity:1"
       d="m 204.81469,910.87834 -50.38182,-45.3016"
       id="path3108-9-1-76-7" />
    <path
       style="fill:#616577;fill-opacity:1;stroke:#f7901e;stroke-width:27.50978279;stroke-linecap:butt;stroke-linejoin:miter;stroke-miterlimit:4;stroke-dasharray:none;stroke-opacity:1"
       d="M 182.93838,938.7066 144.48907,904.40668"
       id="path3108-0-7-9-8" />
    <path
       style="fill:none;stroke:#616577;stroke-width:31.96374702;stroke-linecap:butt;stroke-linejoin:miter;stroke-miterlimit:4;stroke-dasharray:none;stroke-opacity:1"
       d="m 164.34385,800.70161 83.03644,0 0,79.10209 -110.49206,113.42316 -82.031957,-75.83333 z"
       id="path3923-1-1-4-9" />
  </g>
</svg>
