<svg width="418.129" height="81.494" viewBox="0 0 110.63 21.562" xml:space="preserve" xmlns="http://www.w3.org/2000/svg">
  <path d="M13.363 336.92q-1.129 0-2.032-.564-.903-.587-1.422-1.58-.52-.994-.52-2.236v-10.77q0-.497.316-.813.316-.316.813-.316.497 0 .813.316.316.316.316.813v10.77q0 .903.497 1.513.497.61 1.219.61h.768q.406 0 .677.315.293.316.293.813 0 .497-.383.813-.362.316-.949.316zm-5.012-9.957q-.474 0-.768-.27-.293-.272-.293-.678 0-.452.293-.723.294-.27.768-.27h5.215q.474 0 .768.27.293.271.293.723 0 .406-.293.677-.294.271-.768.271zm13.382 10.047q-1.648 0-2.958-.813-1.31-.835-2.077-2.235-.745-1.422-.745-3.206t.813-3.206q.835-1.422 2.235-2.235 1.422-.836 3.184-.836 1.76 0 3.16.836 1.4.813 2.213 2.235.835 1.422.835 3.206h-.88q0 1.784-.768 3.206-.745 1.4-2.054 2.235-1.31.813-2.958.813zm.452-2.032q1.151 0 2.054-.542.903-.564 1.423-1.513.519-.97.519-2.167 0-1.22-.52-2.168-.519-.97-1.422-1.512-.903-.565-2.054-.565-1.13 0-2.055.565-.903.542-1.445 1.512-.52.949-.52 2.168 0 1.197.52 2.167.542.949 1.445 1.513.926.542 2.055.542zm5.057 1.964q-.497 0-.835-.316-.317-.338-.317-.835v-3.455l.43-2.393 1.873.813v5.035q0 .497-.338.835-.316.316-.813.316zm8.392.068q-1.693 0-3.003-.79-1.287-.813-2.032-2.213-.745-1.422-.745-3.251 0-1.851.79-3.251.813-1.423 2.213-2.213 1.4-.813 3.229-.813 1.806 0 3.206.813 1.4.79 2.19 2.213.812 1.4.812 3.251h-1.332q0 1.829-.7 3.251-.677 1.4-1.874 2.213-1.196.79-2.754.79zm.406 5.035q-1.603 0-3.002-.632-1.4-.633-2.371-1.852-.294-.384-.226-.79.09-.406.452-.655.406-.27.835-.18.452.09.723.451.61.768 1.535 1.197.926.429 2.1.429 1.083 0 1.986-.52.926-.519 1.468-1.535.542-1.016.542-2.483v-3.206l.745-1.987 1.467.474v4.877q0 1.783-.79 3.228-.79 1.468-2.212 2.326-1.4.858-3.252.858zm.046-7.067q1.174 0 2.077-.542t1.4-1.49q.519-.948.519-2.19t-.52-2.19q-.496-.97-1.4-1.513-.902-.542-2.076-.542t-2.078.542q-.903.542-1.422 1.513-.52.948-.52 2.19t.52 2.19q.52.948 1.422 1.49.903.542 2.078.542zm12.794 2.032q-1.58 0-2.935-.474-1.332-.497-2.077-1.242-.339-.361-.294-.813.068-.474.452-.767.451-.362.88-.294.452.045.768.384.384.429 1.22.813.857.361 1.896.361 1.31 0 1.986-.429.7-.429.723-1.106.023-.678-.655-1.174-.655-.497-2.416-.813-2.28-.452-3.319-1.355-1.016-.903-1.016-2.212 0-1.152.678-1.897.677-.768 1.738-1.129 1.061-.384 2.213-.384 1.49 0 2.641.475 1.152.474 1.83 1.309.315.361.293.768-.023.383-.384.654-.361.249-.858.158-.497-.09-.835-.406-.565-.542-1.22-.745-.654-.203-1.512-.203-.994 0-1.694.338-.677.34-.677.994 0 .406.203.745.226.316.858.587.632.248 1.852.497 1.693.338 2.664.858.993.519 1.422 1.219.43.677.43 1.58 0 1.039-.565 1.874-.542.836-1.626 1.332-1.061.497-2.664.497zm7.58 5.19q-.497 0-.835-.339-.316-.316-.316-.812v-10.295q.022-1.784.835-3.206.813-1.423 2.213-2.236 1.4-.835 3.16-.835 1.784 0 3.184.835 1.4.813 2.213 2.236.835 1.422.835 3.206 0 1.783-.768 3.206-.745 1.4-2.054 2.235-1.31.813-2.958.813-1.332 0-2.461-.542-1.106-.565-1.897-1.513v6.096q0 .497-.316.813-.316.338-.835.338zm5.057-7.225q1.152 0 2.055-.542.903-.564 1.422-1.512.542-.971.542-2.168 0-1.22-.542-2.167-.519-.971-1.422-1.513-.903-.565-2.055-.565-1.129 0-2.054.565-.903.542-1.423 1.513-.519.948-.519 2.167 0 1.197.52 2.168.519.948 1.422 1.512.925.542 2.054.542zm13.473 2.035q-1.648 0-2.958-.813-1.31-.835-2.077-2.235-.745-1.422-.745-3.206t.813-3.206q.835-1.422 2.235-2.235 1.422-.836 3.184-.836 1.76 0 3.16.836 1.4.813 2.213 2.235.835 1.422.835 3.206h-.88q0 1.784-.768 3.206-.745 1.4-2.054 2.235-1.31.813-2.958.813zm.452-2.032q1.151 0 2.054-.542.903-.564 1.423-1.513.519-.97.519-2.167 0-1.22-.52-2.168-.519-.97-1.422-1.512-.903-.565-2.054-.565-1.13 0-2.055.565-.903.542-1.445 1.512-.52.949-.52 2.168 0 1.197.52 2.167.542.949 1.445 1.513.926.542 2.055.542zm5.057 1.964q-.497 0-.835-.316-.317-.338-.317-.835v-3.455l.43-2.393 1.873.813v5.035q0 .497-.338.835-.316.316-.813.316zm8.843.068q-1.806 0-3.229-.813-1.4-.835-2.212-2.235-.79-1.422-.79-3.206 0-1.829.79-3.251.79-1.423 2.167-2.213 1.378-.813 3.161-.813 1.332 0 2.439.52 1.106.496 1.986 1.512.316.362.226.745-.09.384-.497.678-.316.226-.7.158-.383-.09-.7-.407-1.106-1.174-2.754-1.174-1.151 0-2.032.542-.88.52-1.377 1.468t-.497 2.235q0 1.22.497 2.168.52.948 1.422 1.512.903.542 2.1.542.79 0 1.377-.18.61-.204 1.107-.61.36-.294.745-.316.383-.045.677.203.384.316.429.723.045.383-.271.7-1.626 1.512-4.064 1.512zm12.438 0q-1.874 0-3.341-.79-1.445-.813-2.28-2.213-.814-1.422-.814-3.251 0-1.851.768-3.251.79-1.423 2.167-2.213 1.378-.813 3.161-.813 1.761 0 3.026.79 1.264.768 1.919 2.146.677 1.354.677 3.138 0 .429-.293.722-.294.271-.745.271h-9.1v-1.806h9.032l-.926.632q-.022-1.129-.451-2.01-.43-.902-1.22-1.422-.79-.519-1.919-.519-1.287 0-2.212.565-.903.564-1.378 1.557-.474.971-.474 2.213t.565 2.213q.564.97 1.558 1.535.993.564 2.28.564.7 0 1.422-.248.746-.27 1.197-.61.339-.248.723-.248.406-.022.7.226.383.339.406.745.022.406-.361.7-.768.61-1.92.993-1.128.384-2.167.384zm11.37 0q-1.58 0-2.935-.474-1.332-.497-2.077-1.242-.339-.361-.294-.813.068-.474.452-.767.451-.362.88-.294.452.045.768.384.384.429 1.22.813.857.361 1.896.361 1.31 0 1.986-.429.7-.429.723-1.106.023-.678-.655-1.174-.655-.497-2.416-.813-2.28-.452-3.319-1.355-1.016-.903-1.016-2.212 0-1.152.678-1.897.677-.768 1.738-1.129 1.061-.384 2.213-.384 1.49 0 2.641.475 1.152.474 1.83 1.309.315.361.293.768-.023.383-.384.654-.361.249-.858.158-.497-.09-.835-.406-.565-.542-1.22-.745-.654-.203-1.512-.203-.994 0-1.694.338-.677.34-.677.994 0 .406.203.745.226.316.858.587.632.248 1.852.497 1.693.338 2.664.858.993.519 1.422 1.219.43.677.43 1.58 0 1.039-.565 1.874-.542.836-1.626 1.332-1.061.497-2.664.497zM126 342.2q-.497 0-.835-.339-.316-.316-.316-.812v-10.295q.022-1.784.835-3.206.813-1.423 2.213-2.236 1.4-.835 3.16-.835 1.784 0 3.184.835 1.4.813 2.213 2.236.835 1.422.835 3.206 0 1.783-.768 3.206-.745 1.4-2.054 2.235-1.31.813-2.958.813-1.332 0-2.461-.542-1.106-.565-1.897-1.513v6.096q0 .497-.316.813-.316.338-.835.338zm5.057-7.225q1.152 0 2.055-.542.903-.564 1.422-1.512.542-.971.542-2.168 0-1.22-.542-2.167-.519-.971-1.422-1.513-.903-.565-2.055-.565-1.128 0-2.054.565-.903.542-1.423 1.513-.519.948-.519 2.167 0 1.197.52 2.168.519.948 1.422 1.512.925.542 2.054.542zm9.433-5.775q0-1.355.655-2.416.677-1.083 1.806-1.716 1.129-.632 2.484-.632 1.354 0 2.009.452.677.429.52 1.038-.068.316-.272.497-.18.158-.429.203-.248.045-.542-.022-1.445-.294-2.596-.046-1.151.249-1.829.926-.654.677-.654 1.716zm.023 7.722q-.542 0-.836-.271-.293-.294-.293-.858V325.7q0-.542.293-.836.294-.293.836-.293.564 0 .835.293.293.271.293.836v10.092q0 .542-.293.835-.271.294-.835.294zm13.197.088q-1.829 0-3.229-.79-1.4-.813-2.212-2.213-.79-1.422-.79-3.251 0-1.851.79-3.251.813-1.423 2.212-2.213 1.4-.813 3.229-.813 1.806 0 3.206.813 1.4.79 2.19 2.213.813 1.4.813 3.251 0 1.829-.79 3.251-.79 1.4-2.19 2.213-1.4.79-3.229.79zm0-2.032q1.174 0 2.077-.542t1.4-1.49q.52-.948.52-2.19t-.52-2.19q-.497-.97-1.4-1.513-.903-.542-2.077-.542t-2.077.542q-.903.542-1.423 1.513-.519.948-.519 2.19t.52 2.19q.519.948 1.422 1.49.903.542 2.077.542z" style="fill:#616577;fill-opacity:1" transform="translate(-7.29 -320.64)" fill="gray" aria-label="tagspaces pro"/>
</svg>
