<?xml version="1.0" encoding="UTF-8" standalone="no"?>
<svg
   xmlns:dc="http://purl.org/dc/elements/1.1/"
   xmlns:cc="http://creativecommons.org/ns#"
   xmlns:rdf="http://www.w3.org/1999/02/22-rdf-syntax-ns#"
   xmlns:svg="http://www.w3.org/2000/svg"
   xmlns="http://www.w3.org/2000/svg"
   xmlns:xlink="http://www.w3.org/1999/xlink"
   xmlns:sodipodi="http://sodipodi.sourceforge.net/DTD/sodipodi-0.dtd"
   xmlns:inkscape="http://www.inkscape.org/namespaces/inkscape"
   id="683d3690-e1ab-45db-97b8-9484a1649262"
   data-name="Layer 1"
   width="839.2"
   height="727.08"
   viewBox="0 0 839.2 727.08"
   version="1.1"
   sodipodi:docname="welcome-undraw.svg"
   inkscape:version="0.92.4 (f8dce91, 2019-08-02)">
  <metadata
     id="metadata139">
    <rdf:RDF>
      <cc:Work
         rdf:about="">
        <dc:format>image/svg+xml</dc:format>
        <dc:type
           rdf:resource="http://purl.org/dc/dcmitype/StillImage" />
      </cc:Work>
    </rdf:RDF>
  </metadata>
  <sodipodi:namedview
     pagecolor="#ffffff"
     bordercolor="#666666"
     borderopacity="1"
     objecttolerance="10"
     gridtolerance="10"
     guidetolerance="10"
     inkscape:pageopacity="0"
     inkscape:pageshadow="2"
     inkscape:window-width="1187"
     inkscape:window-height="810"
     id="namedview137"
     showgrid="false"
     inkscape:zoom="0.91806787"
     inkscape:cx="562.53395"
     inkscape:cy="416.7018"
     inkscape:window-x="70"
     inkscape:window-y="27"
     inkscape:window-maximized="0"
     inkscape:current-layer="683d3690-e1ab-45db-97b8-9484a1649262" />
  <defs
     id="defs14">
    <linearGradient
       id="89bbdcf5-814f-445d-9d3e-b835a9e3988b"
       x1="484.88"
       y1="578.23"
       x2="600.81"
       y2="578.23"
       gradientUnits="userSpaceOnUse">
      <stop
         offset="0"
         stop-color="gray"
         stop-opacity="0.25"
         id="stop2" />
      <stop
         offset="0.54"
         stop-color="gray"
         stop-opacity="0.12"
         id="stop4" />
      <stop
         offset="1"
         stop-color="gray"
         stop-opacity="0.1"
         id="stop6" />
    </linearGradient>
    <linearGradient
       id="1a6f3992-5825-4187-85b9-fb55ca803b83"
       x1="615.75"
       y1="530.72"
       x2="651.5"
       y2="530.72"
       xlink:href="#89bbdcf5-814f-445d-9d3e-b835a9e3988b" />
    <linearGradient
       id="573de093-6af1-4ab3-932c-9e7f72f49645"
       x1="745.48"
       y1="595.56"
       x2="780.02"
       y2="595.56"
       xlink:href="#89bbdcf5-814f-445d-9d3e-b835a9e3988b" />
    <linearGradient
       id="acf24d19-87bc-4cad-9346-f74a977c4433"
       x1="634.32"
       y1="509.85"
       x2="634.32"
       y2="96.02"
       xlink:href="#89bbdcf5-814f-445d-9d3e-b835a9e3988b" />
    <linearGradient
       id="6f986e28-ee02-4c37-906f-8450bb16da28"
       x1="637.11"
       y1="586.77"
       x2="637.11"
       y2="513.3"
       xlink:href="#89bbdcf5-814f-445d-9d3e-b835a9e3988b" />
    <linearGradient
       id="96b175d5-5e64-4663-918e-24aaa3155285"
       x1="454.92"
       y1="727.08"
       x2="454.92"
       y2="487.86"
       xlink:href="#89bbdcf5-814f-445d-9d3e-b835a9e3988b" />
  </defs>
  <title
     id="title16">happy birthday</title>
  <g
     opacity="0.5"
     id="g22">
    <rect
       x="124.18"
       y="129.51"
       width="3.33"
       height="18.87"
       fill="#47e6b1"
       id="rect18" />
    <rect
       x="304.58"
       y="215.97"
       width="3.33"
       height="18.87"
       transform="translate(351.25 -167.3) rotate(90)"
       fill="#47e6b1"
       id="rect20" />
  </g>
  <g
     opacity="0.5"
     id="g28">
    <rect
       x="242.55"
       y="540.19"
       width="3.33"
       height="18.87"
       fill="#47e6b1"
       id="rect24" />
    <rect
       x="422.95"
       y="626.65"
       width="3.33"
       height="18.87"
       transform="translate(880.29 125.01) rotate(90)"
       fill="#47e6b1"
       id="rect26" />
  </g>
  <g
     opacity="0.5"
     id="g34">
    <rect
       x="76.86"
       y="321"
       width="3.33"
       height="18.87"
       fill="#47e6b1"
       id="rect30" />
    <rect
       x="257.26"
       y="407.46"
       width="3.33"
       height="18.87"
       transform="translate(495.42 71.51) rotate(90)"
       fill="#47e6b1"
       id="rect32" />
  </g>
  <g
     opacity="0.5"
     id="g40">
    <rect
       x="659.86"
       width="3.33"
       height="18.87"
       fill="#47e6b1"
       id="rect36" />
    <rect
       x="840.26"
       y="86.46"
       width="3.33"
       height="18.87"
       transform="translate(757.42 -832.49) rotate(90)"
       fill="#47e6b1"
       id="rect38" />
  </g>
  <g
     opacity="0.5"
     id="g46">
    <rect
       x="97.97"
       y="46.93"
       width="3.33"
       height="18.87"
       fill="#47e6b1"
       id="rect42" />
    <rect
       x="278.37"
       y="133.39"
       width="3.33"
       height="18.87"
       transform="translate(242.45 -223.67) rotate(90)"
       fill="#47e6b1"
       id="rect44" />
  </g>
  <path
     d="M345.5,559.31a4.08,4.08,0,0,1-2.27-4.93,2,2,0,0,0,.09-.45h0a2,2,0,0,0-3.67-1.36h0a2,2,0,0,0-.23.4,4.08,4.08,0,0,1-4.93,2.27,2,2,0,0,0-.45-.09h0a2,2,0,0,0-1.36,3.67h0a2,2,0,0,0,.4.23,4.08,4.08,0,0,1,2.27,4.93,2,2,0,0,0-.09.45h0a2,2,0,0,0,3.67,1.36h0a2,2,0,0,0,.23-.4,4.08,4.08,0,0,1,4.93-2.27,2,2,0,0,0,.45.09h0a2,2,0,0,0,1.36-3.67h0A2,2,0,0,0,345.5,559.31Z"
     transform="translate(-180.4 -86.46)"
     fill="#4d8af0"
     opacity="0.5"
     id="path48" />
  <path
     d="M329,738.66a4.08,4.08,0,0,1-2.27-4.93,2,2,0,0,0,.09-.45h0a2,2,0,0,0-3.67-1.36h0a2,2,0,0,0-.23.4A4.08,4.08,0,0,1,318,734.6a2,2,0,0,0-.45-.09h0a2,2,0,0,0-1.36,3.67h0a2,2,0,0,0,.4.23,4.08,4.08,0,0,1,2.27,4.93,2,2,0,0,0-.09.45h0a2,2,0,0,0,3.67,1.36h0a2,2,0,0,0,.23-.4,4.08,4.08,0,0,1,4.93-2.27,2,2,0,0,0,.45.09h0a2,2,0,0,0,1.36-3.67h0A2,2,0,0,0,329,738.66Z"
     transform="translate(-180.4 -86.46)"
     fill="#4d8af0"
     opacity="0.5"
     id="path50" />
  <path
     d="M936,341.66a4.08,4.08,0,0,1-2.27-4.93,2,2,0,0,0,.09-.45h0a2,2,0,0,0-3.67-1.36h0a2,2,0,0,0-.23.4A4.08,4.08,0,0,1,925,337.6a2,2,0,0,0-.45-.09h0a2,2,0,0,0-1.36,3.67h0a2,2,0,0,0,.4.23,4.08,4.08,0,0,1,2.27,4.93,2,2,0,0,0-.09.45h0a2,2,0,0,0,3.67,1.36h0a2,2,0,0,0,.23-.4,4.08,4.08,0,0,1,4.93-2.27,2,2,0,0,0,.45.09h0a2,2,0,0,0,1.36-3.67h0A2,2,0,0,0,936,341.66Z"
     transform="translate(-180.4 -86.46)"
     fill="#4d8af0"
     opacity="0.5"
     id="path52" />
  <path
     d="M908.53,531a4.08,4.08,0,0,1-2.27-4.93,2,2,0,0,0,.09-.45h0a2,2,0,0,0-3.67-1.36h0a2,2,0,0,0-.23.4,4.08,4.08,0,0,1-4.93,2.27,2,2,0,0,0-.45-.09h0a2,2,0,0,0-1.36,3.67h0a2,2,0,0,0,.4.23,4.08,4.08,0,0,1,2.27,4.93,2,2,0,0,0-.09.45h0a2,2,0,0,0,3.67,1.36h0a2,2,0,0,0,.23-.4,4.08,4.08,0,0,1,4.93-2.27,2,2,0,0,0,.45.09h0a2,2,0,0,0,1.36-3.67h0A2,2,0,0,0,908.53,531Z"
     transform="translate(-180.4 -86.46)"
     fill="#4d8af0"
     opacity="0.5"
     id="path54" />
  <path
     d="M929,153.67a4.08,4.08,0,0,1-2.27-4.93,2,2,0,0,0,.09-.45h0a2,2,0,0,0-3.67-1.36h0a2,2,0,0,0-.23.4,4.08,4.08,0,0,1-4.93,2.27,2,2,0,0,0-.45-.09h0a2,2,0,0,0-1.36,3.67h0a2,2,0,0,0,.4.23,4.08,4.08,0,0,1,2.27,4.93,2,2,0,0,0-.09.45h0a2,2,0,0,0,3.67,1.36h0a2,2,0,0,0,.23-.4,4.08,4.08,0,0,1,4.93-2.27,2,2,0,0,0,.45.09h0a2,2,0,0,0,1.36-3.67h0A2,2,0,0,0,929,153.67Z"
     transform="translate(-180.4 -86.46)"
     fill="#4d8af0"
     opacity="0.5"
     id="path56" />
  <path
     d="M993.22,645.72a4.08,4.08,0,0,1-2.27-4.93,2,2,0,0,0,.09-.45h0a2,2,0,0,0-3.67-1.36h0a2,2,0,0,0-.23.4,4.08,4.08,0,0,1-4.93,2.27,2,2,0,0,0-.45-.09h0a2,2,0,0,0-1.36,3.67h0a2,2,0,0,0,.4.23,4.08,4.08,0,0,1,2.27,4.93,2,2,0,0,0-.09.45h0a2,2,0,0,0,3.67,1.36h0a2,2,0,0,0,.23-.4,4.08,4.08,0,0,1,4.93-2.27,2,2,0,0,0,.45.09h0a2,2,0,0,0,1.36-3.67h0A2,2,0,0,0,993.22,645.72Z"
     transform="translate(-180.4 -86.46)"
     fill="#4d8af0"
     opacity="0.5"
     id="path58" />
  <circle
     cx="6.66"
     cy="257.78"
     r="6.66"
     fill="#f55f44"
     opacity="0.5"
     id="circle60" />
  <circle
     cx="749.83"
     cy="146.09"
     r="6.66"
     fill="#f55f44"
     opacity="0.5"
     id="circle62" />
  <circle
     cx="446.92"
     cy="395.96"
     r="7.5"
     fill="#f55f44"
     opacity="0.5"
     id="circle64" />
  <circle
     cx="446.92"
     cy="395.96"
     r="7.5"
     fill="#f55f44"
     opacity="0.5"
     id="circle66" />
  <circle
     cx="832.55"
     cy="346.34"
     r="6.66"
     fill="#f55f44"
     opacity="0.5"
     id="circle68" />
  <circle
     cx="294.17"
     cy="47.27"
     r="7.5"
     fill="#47e6b1"
     opacity="0.5"
     id="circle70" />
  <circle
     cx="721.49"
     cy="621.41"
     r="6.66"
     fill="#f55f44"
     opacity="0.5"
     id="circle72" />
  <path
     d="M487.1,468c-3.94,12.79,2,27.91,13.53,34.64,4.84,2.82,10.41,4.24,15.1,7.3,10.19,6.64,14.21,19.35,17.52,31.05,3.8,13.45,7.61,27.67,4.13,41.2-2.22,8.63-7.27,16.26-10.14,24.7a51.54,51.54,0,0,0-2.45,22c.42,3.94,1.4,8,4.1,10.94,3.9,4.2,10.18,4.83,15.82,5.84a76.78,76.78,0,0,1,55.2,42.74"
     transform="translate(-180.4 -86.46)"
     fill="none"
     stroke-miterlimit="10"
     stroke-width="2"
     stroke="url(#89bbdcf5-814f-445d-9d3e-b835a9e3988b)"
     id="path74" />
  <path
     d="M488.31,468c-3.94,12.79,2,27.91,13.53,34.64,4.84,2.82,10.41,4.24,15.1,7.3,10.19,6.64,14.21,19.35,17.52,31.05,3.8,13.45,7.61,27.67,4.13,41.2-2.22,8.63-7.27,16.26-10.14,24.7a51.54,51.54,0,0,0-2.45,22c.42,3.94,1.4,8,4.1,10.94,3.9,4.2,10.18,4.83,15.82,5.84a76.78,76.78,0,0,1,55.2,42.74"
     transform="translate(-180.4 -86.46)"
     fill="none"
     stroke="#535461"
     stroke-miterlimit="10"
     stroke-width="2"
     id="path76" />
  <path
     d="M637.45,372.4c-9.72,13.55-19.81,28.12-20.64,44.78-1.27,25.59,19.2,46.52,28.34,70.46a83.74,83.74,0,0,1-2.81,65.5c-4.46,9.22-10.82,18.38-10,28.59.47,6.23,3.59,11.9,6.1,17.63a99.4,99.4,0,0,1-5.77,89.75"
     transform="translate(-180.4 -86.46)"
     fill="none"
     stroke-miterlimit="10"
     stroke-width="2"
     stroke="url(#1a6f3992-5825-4187-85b9-fb55ca803b83)"
     id="path78" />
  <path
     d="M638.65,372.4C628.94,386,618.85,400.53,618,417.18c-1.27,25.59,19.2,46.52,28.34,70.46a83.74,83.74,0,0,1-2.81,65.5c-4.46,9.22-10.82,18.38-10,28.59.47,6.23,3.59,11.9,6.1,17.63a99.4,99.4,0,0,1-5.77,89.75"
     transform="translate(-180.4 -86.46)"
     fill="none"
     stroke="#535461"
     stroke-miterlimit="10"
     stroke-width="2"
     id="path80" />
  <path
     d="M773.83,494.28l4.7,38.31c.62,5.09,1.15,10.64-1.58,15-2.59,4.11-7.45,6.07-11.23,9.11-12.41,10-11.28,29.11-7,44.45s10.44,31.82,4.49,46.58c-2.46,6.09-6.8,11.22-10,16.94a51.87,51.87,0,0,0-6.2,32.18"
     transform="translate(-180.4 -86.46)"
     fill="none"
     stroke-miterlimit="10"
     stroke-width="2"
     stroke="url(#573de093-6af1-4ab3-932c-9e7f72f49645)"
     id="path82" />
  <path
     d="M775,494.28l4.7,38.31c.62,5.09,1.15,10.64-1.58,15-2.59,4.11-7.45,6.07-11.23,9.11-12.41,10-11.28,29.11-7,44.45s10.44,31.82,4.49,46.58c-2.46,6.09-6.8,11.22-10,16.94a51.87,51.87,0,0,0-6.2,32.18"
     transform="translate(-180.4 -86.46)"
     fill="none"
     stroke="#535461"
     stroke-miterlimit="10"
     stroke-width="2"
     id="path84" />
  <g
     opacity="0.7"
     id="g88">
    <path
       d="M895.7,336.82A113.6,113.6,0,0,0,747,228.83a136.45,136.45,0,0,0,1.45-19.27,113.53,113.53,0,0,0-226.78-8.14,113.6,113.6,0,0,0-148.76,108c0,57,42,138,96.65,152.35l8.51,4.86-4.62,15.83h27.36l-5.94-15.85,8.47-4.84c42.26-11.09,76.91-62,90.48-110.83a83,83,0,0,0,24.22,11l8.51,4.86L622,382.59h27.36l-5.94-15.85,8.47-4.84a79.21,79.21,0,0,0,18-7.31c7.31,54.78,46.2,121.66,95.41,134.57l8.51,4.86-4.62,15.83h27.36L790.59,494l8.47-4.84C853.75,474.81,895.7,393.78,895.7,336.82Z"
       transform="translate(-180.4 -86.46)"
       fill="url(#acf24d19-87bc-4cad-9346-f74a977c4433)"
       id="path86" />
  </g>
  <polygon
     points="324.76 390.14 298.28 390.14 302.92 374.26 318.8 374.26 324.76 390.14"
     fill="#f55f44"
     id="polygon90" />
  <path
     d="M601.12,309.16c0,60.68-49.19,149.57-109.86,149.57s-109.86-88.9-109.86-149.57a109.86,109.86,0,0,1,219.73,0Z"
     transform="translate(-180.4 -86.46)"
     fill="#f55f44"
     id="path92" />
  <polygon
     points="318.8 374.92 302.92 374.92 293.65 369.63 328.07 369.63 318.8 374.92"
     fill="#535461"
     id="polygon94" />
  <path
     d="M451.55,223.78s-46.33,25.15-52.95,75.45"
     transform="translate(-180.4 -86.46)"
     fill="#fff"
     opacity="0.1"
     id="path96" />
  <polygon
     points="468.43 293.56 441.95 293.56 446.59 277.68 462.47 277.68 468.43 293.56"
     fill="#4d8af0"
     id="polygon98" />
  <path
     d="M744.79,212.58c0,60.68-49.19,149.57-109.86,149.57s-109.86-88.9-109.86-149.57a109.86,109.86,0,0,1,219.73,0Z"
     transform="translate(-180.4 -86.46)"
     fill="#1dd19f"
     id="path100" />
  <polygon
     points="462.47 278.34 446.59 278.34 437.32 273.04 471.74 273.04 462.47 278.34"
     fill="#535461"
     id="polygon102" />
  <path
     d="M595.22,127.2s-46.33,25.15-52.95,75.45"
     transform="translate(-180.4 -86.46)"
     fill="#fff"
     opacity="0.1"
     id="path104" />
  <polygon
     points="610.89 416.71 584.41 416.71 589.05 400.82 604.93 400.82 610.89 416.71"
     fill="#3ad29f"
     id="polygon106"
     style="fill:#ffdd55" />
  <path
     d="M887.25,335.72c0,60.68-49.19,149.57-109.86,149.57S667.52,396.4,667.52,335.72a109.86,109.86,0,1,1,219.73,0Z"
     transform="translate(-180.4 -86.46)"
     fill="#3ad29f"
     id="path108"
     style="fill:#ffdd55" />
  <polygon
     points="604.93 401.48 589.05 401.48 579.78 396.19 614.2 396.19 604.93 401.48"
     fill="#535461"
     id="polygon110" />
  <path
     d="M737.68,250.34s-46.33,25.15-52.95,75.45"
     transform="translate(-180.4 -86.46)"
     fill="#fff"
     opacity="0.1"
     id="path112" />
  <g
     opacity="0.5"
     id="g116">
    <path
       d="M696.81,521.89c-6.37-6.39-15.66-8.93-26.16-7.16-9.82,1.66-19.65,7-27.67,15a32.34,32.34,0,0,0-5.79,7.94,32.41,32.41,0,0,0-5.74-8.23h0C623.57,521.29,613.83,515.8,604,514c-10.46-2-19.79.43-26.28,6.71s-9.15,15.53-7.53,26.05c1.52,9.84,6.7,19.75,14.59,27.88,16.58,17.11,49.67,10.43,51.07,10.13l.41-.09,1.27.29c1.4.32,34.37,7.57,51.24-9.25,8-8,13.37-17.81,15.07-27.63C705.69,537.58,703.18,528.29,696.81,521.89Zm-66.52,53c-8,1.08-27.93,2.54-37.82-7.67-6.36-6.57-10.52-14.41-11.71-22.1-1.08-7,.48-13,4.42-16.78a14.78,14.78,0,0,1,5.39-3.3,22.24,22.24,0,0,1,11.52-.58c7.64,1.43,15.36,5.83,21.72,12.4C633.7,547,631.62,566.92,630.29,574.88Zm63.11-28.61c-1.32,7.66-5.61,15.44-12.09,21.89-10.07,10-30,8.23-37.95,7-1.19-8-2.93-27.89,7.14-37.93,6.48-6.45,14.27-10.72,21.93-12a22.24,22.24,0,0,1,11.51.78,14.78,14.78,0,0,1,5.34,3.4C693.14,533.29,694.6,539.27,693.4,546.27Z"
       transform="translate(-180.4 -86.46)"
       fill="url(#6f986e28-ee02-4c37-906f-8450bb16da28)"
       id="path114" />
  </g>
  <path
     d="M639.1,582.59l-3.15.66c-1.34.28-33,6.67-48.87-9.7-7.54-7.78-12.5-17.26-14-26.68-1.56-10.07,1-18.92,7.2-24.93s15.13-8.29,25.14-6.42c9.37,1.75,18.69,7,26.23,14.79h0c15.86,16.37,8.48,47.82,8.16,49.15ZM592.57,526.1a14.14,14.14,0,0,0-5.16,3.16c-3.76,3.65-5.26,9.35-4.23,16.06,1.14,7.35,5.12,14.86,11.21,21.15,9.47,9.77,28.54,8.37,36.19,7.34,1.27-7.61,3.27-26.63-6.2-36.4h0c-6.09-6.28-13.47-10.5-20.79-11.86A21.28,21.28,0,0,0,592.57,526.1Z"
     transform="translate(-180.4 -86.46)"
     fill="#1dd19f"
     id="path118" />
  <path
     d="M634.42,582.73l-.7-3.14c-.3-1.34-7.14-32.91,9-49h0c7.68-7.65,17.08-12.74,26.48-14.33,10-1.7,18.93.73,25,6.85s8.5,15,6.77,25c-1.62,9.39-6.74,18.78-14.42,26.43-16.14,16.09-47.69,9.15-49,8.85ZM681.92,527a21.28,21.28,0,0,0-11-.75c-7.34,1.24-14.79,5.33-21,11.5h0c-9.64,9.61-8,28.65-6.83,36.29,7.63,1.16,26.68,2.89,36.31-6.71,6.2-6.18,10.3-13.62,11.57-21,1.15-6.69-.25-12.42-3.95-16.13A14.14,14.14,0,0,0,681.92,527Z"
     transform="translate(-180.4 -86.46)"
     fill="#1dd19f"
     id="path120" />
  <g
     opacity="0.5"
     id="g124">
    <polygon
       points="608.43 487.86 301.42 487.86 301.42 549.29 317.37 549.29 317.37 727.08 592.48 727.08 592.48 549.29 608.43 549.29 608.43 487.86"
       fill="url(#96b175d5-5e64-4663-918e-24aaa3155285)"
       id="polygon122" />
  </g>
  <rect
     x="320.85"
     y="506.43"
     width="268.15"
     height="217.63"
     fill="#535461"
     id="rect126" />
  <rect
     x="429.66"
     y="545.29"
     width="50.52"
     height="178.76"
     fill="#1dd19f"
     id="rect128" />
  <rect
     x="320.85"
     y="494.77"
     width="268.15"
     height="54.41"
     opacity="0.1"
     id="rect130" />
  <rect
     x="305.31"
     y="490.88"
     width="299.24"
     height="54.41"
     fill="#535461"
     id="rect132" />
  <rect
     x="429.66"
     y="490.88"
     width="50.52"
     height="54.41"
     fill="#1dd19f"
     id="rect134" />
</svg>
